<svg xmlns="http://www.w3.org/2000/svg" width="16" height="16" viewBox="0 0 16 16"><defs><style>.cls-1{fill:#c2d5ef;opacity:0;}.cls-2,.cls-3,.cls-4{fill:none;stroke:#445d82;stroke-linecap:round;stroke-linejoin:round;}.cls-3{stroke-width:2px;}.cls-4{stroke-dasharray:2 4;}</style></defs><g id="_16_Adjust_Hours" data-name="16_Adjust Hours"><rect id="_Container_" data-name="&lt;Container&gt;" class="cls-1" width="16" height="16"/><path class="cls-2" d="M10.27,5.78c-.4.11-1.21,1.11-1.78,1.62"/><path class="cls-2" d="M11.07,10.38A18.85,18.85,0,0,0,8.49,8.52"/><path class="cls-3" d="M11.22,4.71c-.28,0-1.29-.12-1.36.14-.12.43.8,1.45,1.1,1.44s.46-1,.52-1.26S11.4,4.73,11.22,4.71Z"/><path class="cls-3" d="M11.76,10.65c0-.12-.13-.63-.27-.59s-.66.63-.61.79.62.07.75.05A.22.22,0,0,0,11.76,10.65Z"/><path class="cls-3" d="M8,13s0,.2,0,.15"/><path class="cls-3" d="M2.9,7.88s0,.21,0,.16"/><path class="cls-3" d="M8,2.8S8,3,8,3"/><path class="cls-4" d="M13.21,3.33a7,7,0,0,1,.45,8.81"/><path class="cls-3" d="M12.77,13.42C11.69,14.52,9.41,14.94,8,15A6.74,6.74,0,0,1,1,8,6.64,6.64,0,0,1,8,1a6.1,6.1,0,0,1,3.31.81"/><circle class="cls-3" cx="8" cy="7.98" r="0.68"/></g></svg>