<svg xmlns="http://www.w3.org/2000/svg" width="16" height="16" viewBox="0 0 16 16"><defs><style>.cls-1{fill:#d93644;fill-opacity:0;}.cls-2,.cls-3{fill:none;stroke:#445d82;stroke-linecap:round;stroke-linejoin:round;}.cls-2{stroke-width:2px;}</style></defs><g id="_16_Airplane" data-name="16_Airplane"><rect id="Container" class="cls-1" y="0.01" width="16" height="16.01"/><path class="cls-2" d="M14.68,3.23c1,1-.61,3.55-2,4.59"/><path class="cls-3" d="M7.07,4.56c2-.41,6.3-3.09,7.79-1.66"/><path class="cls-2" d="M1.13,10.58A13.9,13.9,0,0,0,4.45,8.43S.43,6.74,1,6C1.19,5.71,1.61,5,3.5,5c4.2.06,4-.05,4-.05"/><path class="cls-3" d="M1.51,12.51c-1.12-.4-1-2.58-.92-2.8"/><path class="cls-3" d="M13,12.61c-.6.54-3-3.32-4.69-2.75"/><path class="cls-2" d="M12.59,8.07c.22,1,.76,2.95.41,4.22"/><path class="cls-3" d="M8.31,4.73C8,5.7,7.88,5.88,6.58,7"/><path class="cls-3" d="M12.62,7.31a37.8,37.8,0,0,1-11.11,5.2"/><path class="cls-3" d="M13.86,3.19a15.59,15.59,0,0,0-3.13,2.44"/></g></svg>