<svg xmlns="http://www.w3.org/2000/svg" width="16" height="16" viewBox="0 0 16 16"><defs><style>.cls-1{fill:#d93644;fill-opacity:0;}.cls-2,.cls-3{fill:none;stroke:#445d82;stroke-linecap:round;stroke-linejoin:round;}.cls-3{stroke-width:2px;}</style></defs><g id="_14_Add_to_checklist" data-name="14_Add to checklist"><path id="Container" class="cls-1" d="M0,0H16V16H0Z"/><line class="cls-2" x1="6" y1="5.51" x2="10" y2="5.51"/><line class="cls-2" x1="6" y1="8.5" x2="6.63" y2="8.5"/><line class="cls-2" x1="6" y1="11.5" x2="6.58" y2="11.5"/><line class="cls-3" x1="7" y1="1" x2="9" y2="1"/><rect class="cls-2" x="5.33" y="1" width="5.33" height="2" rx="0.41"/><path class="cls-3" d="M6.7,15H5c-1,0-1.71-.58-1.86-1.89S3,5.25,3.09,3.89,3.93,2,5,2h6.2A1.88,1.88,0,0,1,13,3.89V6"/><line class="cls-2" x1="13.48" y1="11.99" x2="10.52" y2="11.99"/><line class="cls-2" x1="12" y1="13.46" x2="12" y2="10.5"/><ellipse class="cls-2" cx="12" cy="12" rx="3.5" ry="3.5" transform="matrix(1, -0.01, 0.01, 1, -0.08, 0.08)"/></g></svg>