<?xml version="1.0" encoding="UTF-8"?><svg id="h" xmlns="http://www.w3.org/2000/svg" width="16" height="16" viewBox="0 0 16 16"><path id="i" d="M5.79,14.23c-.78-.01-1.38,.03-1.9,0-1.37-.09-2.92,.11-3.04-2.91-.12-3.01-.06-5.84,0-7.49S1.37,.83,4,.82s6.26-.16,7.93-.01,2.95,1.35,3.03,2.99c.04,.76,.01,1.36,.03,2.44" style="fill:none; stroke:#505f7a; stroke-linecap:round; stroke-linejoin:round; stroke-width:1.5px;"/><path d="M13.77,11.28c.09-1.49-1.31-2.49-2.26-2.54-1.85-.09-2.76,1.29-2.76,2.54s.97,2.49,2.76,2.49c1.56,0,2.18-.96,2.27-2.49Z" style="fill:none; stroke:#505f7a; stroke-linecap:round; stroke-linejoin:round; stroke-width:1.5px;"/><line x1="13.44" y1="13.5" x2="14.86" y2="14.8" style="fill:none; stroke:#505f7a; stroke-linecap:round; stroke-linejoin:round; stroke-width:1.5px;"/><path d="M14.12,14.62c.26,.27,.71,.87,1.03,.53s-.24-.73-.52-.99c-.42-.39-.86,.1-.52,.46Z" style="fill:none; stroke:#505f7a; stroke-linecap:round; stroke-linejoin:round; stroke-width:1.5px;"/><path d="M1.75,4.75c.53-.2,12.24-.31,12.5-.25" style="fill:none; stroke:#505f7a; stroke-linecap:round; stroke-linejoin:round; stroke-width:1.5px;"/><path d="M1.75,7.75c.22-.08,3.47-.24,5.88-.27" style="fill:none; stroke:#505f7a; stroke-linecap:round; stroke-linejoin:round; stroke-width:1.5px;"/><path d="M1.95,10.63c.21-.08,2.12-.13,4.34-.15" style="fill:none; stroke:#505f7a; stroke-linecap:round; stroke-linejoin:round; stroke-width:1.5px;"/></svg>