<svg xmlns="http://www.w3.org/2000/svg" width="16" height="16" viewBox="0 0 16 16"><defs><style>.cls-1,.cls-2{fill:none;stroke:#445d82;stroke-linecap:round;stroke-linejoin:round;}.cls-2{stroke-width:2px;}.cls-3{fill:#d93644;fill-opacity:0;}</style></defs><g id="_16_Absence" data-name="16_Absence"><line class="cls-1" x1="13.46" y1="5.49" x2="1.63" y2="5.55"/><path id="Rectangle_271" data-name="Rectangle 271" class="cls-2" d="M4.72,2C6.93,2,10,1.86,11.39,2a2.87,2.87,0,0,1,2.66,2.67c.09,1.79.13,5.33,0,6.66s-.46,2.59-2.66,2.67c-2.43.09-5.25.1-6.67,0-1.15-.08-2.57,0-2.67-2.67s0-5.19,0-6.66S2.51,2,4.72,2Z"/><line id="Line_373" data-name="Line 373" class="cls-2" x1="5.05" y1="1" x2="5.05" y2="3"/><line id="Line_374" data-name="Line 374" class="cls-2" x1="11.05" y1="1" x2="11.05" y2="2.86"/><path class="cls-1" d="M6.05,7.51c.42.6,3.47,3.21,4,4"/><path class="cls-1" d="M10.05,7.51a55.73,55.73,0,0,0-4,4"/><path id="Container" class="cls-3" d="M0,0H16V16H0Z"/></g></svg>