<svg xmlns="http://www.w3.org/2000/svg" width="16" height="16" viewBox="0 0 16 16"><defs><style>.cls-1,.cls-2{fill:none;stroke:#445d82;stroke-linecap:round;stroke-linejoin:round;}.cls-1{stroke-width:2px;}</style></defs><g id="_16_Birth" data-name="16_Birth"><path class="cls-1" d="M3.44,12.49c3.26,4.27,10.82,2.67,11.45-1.64.39-2.67-.74-2.6-.88-4s.14-2.08-.38-3.4a3.43,3.43,0,0,0-2.09-1.82"/><path class="cls-2" d="M11.4,11.1c.71.15-1,1.55-2,.69C9.08,11.57,10.89,11,11.4,11.1Z"/><path class="cls-2" d="M7.3,5.51a3.24,3.24,0,0,0-1.81.71"/><path class="cls-2" d="M11.71,5a1.82,1.82,0,0,1,1.07.41"/><path class="cls-1" d="M2.85,10.27c-3.44.14-1.39,4.14.59,2.22"/><path class="cls-2" d="M9.36,9.08c.41-.31.65-.05.73.2"/><ellipse class="cls-1" cx="6.86" cy="8.31" rx="0.24" ry="0.38"/><ellipse class="cls-1" cx="11.6" cy="7.27" rx="0.19" ry="0.38"/><path class="cls-2" d="M6.16,3.83c1.7-.17,4-.15,5.24-3.32"/><path class="cls-1" d="M1.88,10.27C.64,7.79.34,3.92,3.64,2.23,5.87,1.1,6.55,1.9,8.42,1"/></g></svg>