<svg xmlns="http://www.w3.org/2000/svg" width="16" height="16" viewBox="0 0 16 16"><defs><style>.cls-1{fill:#d93644;fill-opacity:0;}.cls-2{fill:none;stroke:#445d82;stroke-linecap:round;stroke-linejoin:round;stroke-width:2px;}</style></defs><g id="_16_Birthday" data-name="16_Birthday"><rect id="Container" class="cls-1" width="16" height="16"/><path class="cls-2" d="M3.91,11.52l.61,2.32A1.65,1.65,0,0,0,6.22,15c1.54-.08,2.83,0,3.34,0,.79,0,1.71-.1,2-1.16s.53-2.64.53-2.64"/><path class="cls-2" d="M9.37,5.68c4.12.55,5.68,3.43,3.9,4.62a3.8,3.8,0,0,1-4-.49S9,11,8,11,6.64,9.67,6.64,9.67A4.48,4.48,0,0,1,3.55,11c-2.4-.25-2.33-4.64,3.06-5.3"/><path class="cls-2" d="M8.58,6.33v-2a.89.89,0,0,0-1.16,0s0,1.91,0,2"/><path class="cls-2" d="M7.06,6.32A2.2,2.2,0,0,0,9,6.33"/><path class="cls-2" d="M8,1S7,2.14,8,2.14,8,1,8,1Z"/></g></svg>