<svg xmlns="http://www.w3.org/2000/svg" width="16" height="16" viewBox="0 0 16 16"><defs><style>.cls-1{fill:#d93644;fill-opacity:0;}.cls-2,.cls-3{fill:none;stroke:#445d82;stroke-linecap:round;stroke-linejoin:round;}.cls-2{stroke-width:2px;}</style></defs><g id="_16_Bonus_Gift" data-name="16_Bonus_Gift"><rect id="Container" class="cls-1" width="16" height="16"/><path class="cls-2" d="M1.87,9.55c.1.18-.13,5,.22,5.28s11.48.22,11.78-.13,0-4.82,0-5.17,1,.05,1.09-.86c.14-1.09-.07-3.06-.89-3.12-1-.07-12.23-.17-12.6.17S.76,8.31,1.22,8.89C1.53,9.29,1.77,9.36,1.87,9.55Z"/><path class="cls-2" d="M1.62,8.89A52.84,52.84,0,0,0,14.4,9"/><path class="cls-3" d="M6.46,5.83c.06,1.07,0,7.64,0,8.64"/><path class="cls-3" d="M9.55,5.86c-.07,1.07-.06,7.61,0,8.61"/><path class="cls-2" d="M7.27,5.13S6.25,1,3,1C1.41,1,.24,4.25,6.07,5.48"/><path class="cls-2" d="M8.32,5.19s.81-3.54,3.37-3.54c1.26,0,2.19,2.78-2.42,3.84"/></g></svg>