<svg xmlns="http://www.w3.org/2000/svg" width="16" height="16" viewBox="0 0 16 16"><defs><style>.cls-1{fill:#e04c59;opacity:0;}.cls-2,.cls-3,.cls-4{fill:none;stroke:#445d82;}.cls-2{stroke-miterlimit:10;}.cls-2,.cls-4{stroke-width:2px;}.cls-3,.cls-4{stroke-linecap:round;stroke-linejoin:round;}</style></defs><g id="_16_Clipboard" data-name="16_Clipboard"><rect id="Container" class="cls-1" width="16" height="16"/><path class="cls-2" d="M11.12,15H4.88A2.07,2.07,0,0,1,3,13.13C2.9,12,2.83,4.77,3,3.88A2.15,2.15,0,0,1,4.88,2h6.24A2.14,2.14,0,0,1,13,3.88a92.06,92.06,0,0,1,0,9.25A2.08,2.08,0,0,1,11.12,15Z"/><line class="cls-3" x1="6" y1="5.51" x2="10" y2="5.51"/><line class="cls-3" x1="6" y1="8.51" x2="10" y2="8.51"/><line class="cls-3" x1="6" y1="11.51" x2="10" y2="11.51"/><line class="cls-4" x1="7.38" y1="1" x2="8.62" y2="1"/><rect class="cls-4" x="5.53" y="1" width="4.94" height="2" rx="0.39"/></g></svg>