<svg xmlns="http://www.w3.org/2000/svg" width="16" height="16" viewBox="0 0 16 16"><defs><style>.cls-1{fill:#e04c59;opacity:0;}.cls-2{fill:#445d82;}.cls-3,.cls-4{fill:none;stroke:#445d82;stroke-linecap:round;stroke-linejoin:round;}.cls-3{stroke-width:2px;}</style></defs><g id="_16_Car" data-name="16_Car"><rect id="Container" class="cls-1" width="16" height="16"/><path class="cls-2" d="M7,12h3a1,1,0,0,1,0,2H7a1,1,0,0,1,0-2Z"/><circle class="cls-3" cx="5.5" cy="12.5" r="1.5"/><circle class="cls-3" cx="11.5" cy="12.5" r="1.5"/><path class="cls-3" d="M3.52,12.5C.73,10.88.69,8.15,1.38,7.25S3.66,6.06,5.5,6c0,0,.11-3.27,1.64-3.82a6.35,6.35,0,0,1,5.19,1.15,8.28,8.28,0,0,1,1.33,3.9c2,.58,1.74,3.56-.66,4.77"/><line class="cls-4" x1="9.33" y1="8.5" x2="10.67" y2="8.5"/><path class="cls-4" d="M10.83,6.55a44.19,44.19,0,0,0-6.66,0"/></g></svg>