<svg xmlns="http://www.w3.org/2000/svg" width="16" height="16" viewBox="0 0 16 16"><defs><style>.cls-1{fill:#d93644;fill-opacity:0;}.cls-2,.cls-3,.cls-4{fill:none;stroke:#445d82;stroke-width:2px;}.cls-2,.cls-3{stroke-linecap:round;}.cls-2{stroke-linejoin:round;}.cls-3,.cls-4{stroke-miterlimit:10;fill-rule:evenodd;}</style></defs><g id="_16_Contacts" data-name="16_Contacts"><rect id="Container" class="cls-1" width="16" height="16"/><path class="cls-2" d="M1.21,3.83c.14-1.62.47-2.56,2.19-2.72s8.54-.12,9.4,0a2.09,2.09,0,0,1,2.13,2.15C15,5,15,10,15,11.58c-.06,3-.53,3.32-3.36,3.32,0,0-7,.16-8.2.07-.88-.06-2.06-.12-2.17-2.7A72.8,72.8,0,0,1,1.21,3.83Z"/><path class="cls-3" d="M9.26,8.23c0,2.31,2.74,1.08,2.74,3.09,0,.91-7.55.91-7.55,0,0-2,2.74-.78,2.75-3.09"/><path class="cls-4" d="M8.23,8.72c1,0,1.71-1.21,1.71-2.87C9.94,4.59,9.29,4,8.23,4s-1.72.61-1.72,1.87C6.51,7.51,7.21,8.72,8.23,8.72Z"/></g></svg>