<svg xmlns="http://www.w3.org/2000/svg" width="16" height="16" viewBox="0 0 16 16"><defs><style>.cls-1{fill:#e04c59;fill-opacity:0;}.cls-2,.cls-3,.cls-4{fill:none;stroke:#445d82;}.cls-2,.cls-4{stroke-linecap:round;stroke-linejoin:round;}.cls-3{stroke-miterlimit:10;}.cls-3,.cls-4{stroke-width:2px;}</style></defs><g id="_16_Calendar_1" data-name="16_Calendar 1"><rect id="Container" class="cls-1" width="16" height="16"/><path id="Path_491" data-name="Path 491" class="cls-2" d="M13.46,8.87a1.54,1.54,0,0,1-1.55,1.55c-2,.19-2.33,1.18-2.51,2.69a1.43,1.43,0,0,1-1.48,1.37"/><path class="cls-3" d="M13.79,4.44a24,24,0,0,1,0,6c-.24,1.75-3,4.3-4.89,4.49a26,26,0,0,1-4.23,0C2.77,14.73,2.19,14,2.09,12,2,9.72,2,5.55,2.09,4.42A2.75,2.75,0,0,1,4.7,2.11a52.63,52.63,0,0,1,6.53,0A2.4,2.4,0,0,1,13.79,4.44Z"/><line id="Line_375" data-name="Line 375" class="cls-4" x1="5" y1="1" x2="5" y2="3.2"/><line id="Line_376" data-name="Line 376" class="cls-4" x1="11" y1="1" x2="11" y2="3.2"/></g></svg>