<svg xmlns="http://www.w3.org/2000/svg" width="16" height="16" viewBox="0 0 16 16"><defs><style>.cls-1{fill:#d93644;fill-opacity:0;}.cls-2{fill:none;stroke:#445d82;stroke-linecap:round;stroke-linejoin:round;stroke-width:2px;}</style></defs><g id="_16_Calculator" data-name="16_Calculator"><rect id="Container" class="cls-1" width="16" height="16"/><path class="cls-2" d="M1.1,3.83c.16-1.62.47-2.56,2.22-2.72s8.6-.12,9.46,0a2.11,2.11,0,0,1,2.16,2.15C15,5,15,10,15,11.58c-.06,3-.53,3.32-3.39,3.32,0,0-7,.16-8.25.07-.9-.06-2.13-.12-2.2-2.7C1.09,11.23.88,6.07,1.1,3.83Z"/><path class="cls-2" d="M4.24,4h0Z"/><path class="cls-2" d="M12,7V12h0V7Z"/><path class="cls-2" d="M8.8,7C8.91,7,9,7,9,7.17s0,.61,0,.67A.16.16,0,0,1,8.84,8h-.6C8,8,8,8,8,7.76c0,0,0-.51,0-.59S8,7,8.19,7,8.64,7,8.8,7Z"/><path class="cls-2" d="M4.8,7C4.91,7,5,7,5,7.17s0,.61,0,.67A.16.16,0,0,1,4.84,8h-.6C4,8,4,8,4,7.76c0,0,0-.51,0-.59S4,7,4.2,7A5.93,5.93,0,0,1,4.8,7Z"/><path class="cls-2" d="M4.8,11c.11,0,.18,0,.19.16s0,.61,0,.67a.16.16,0,0,1-.15.16h-.6C4,12,4,12,4,11.76c0,0,0-.51,0-.59S4,11,4.19,11,4.64,11,4.8,11Z"/><path class="cls-2" d="M8.8,11c.11,0,.18,0,.19.16s0,.61,0,.67a.16.16,0,0,1-.15.16h-.6C8,12,8,12,8,11.76c0,0,0-.51,0-.59S8,11,8.19,11,8.64,11,8.8,11Z"/></g></svg>