<svg xmlns="http://www.w3.org/2000/svg" width="16" height="16" viewBox="0 0 16 16"><defs><style>.cls-1{fill:#d93644;fill-opacity:0;}.cls-2,.cls-3{fill:none;stroke:#445d82;stroke-linecap:round;stroke-linejoin:round;}.cls-3{stroke-width:2px;}</style></defs><g id="_16_Cancel_Order" data-name="16_Cancel Order"><path id="Container" class="cls-1" d="M0,0H16V16H0Z"/><path class="cls-2" d="M2.51,6.9c.12-.83.56-1.27,2.18-1.4,1.25-.1,1.71-.57,1.8-1.81C6.61,2,7,1.53,7.84,1.5"/><path class="cls-3" d="M6,15,4.66,15c-1.14,0-2.47-.21-2.57-1.8C2,11,2,7.19,2.05,5.91a3,3,0,0,1,.77-1.82A17,17,0,0,1,5.2,1.75,3.2,3.2,0,0,1,7,1c.67,0,3.55,0,4.72,0s2.1.64,2.17,2.55C14,4,14,4.9,14,6"/><line class="cls-2" x1="9.53" y1="6.49" x2="10.5" y2="6.49"/><line class="cls-2" x1="5.48" y1="8.5" x2="7.84" y2="8.5"/><line class="cls-2" x1="5.49" y1="10.5" x2="6.57" y2="10.5"/><circle class="cls-2" cx="12" cy="11.99" r="3.5" transform="translate(-0.98 1.07) rotate(-4.91)"/><line class="cls-2" x1="13.03" y1="13.05" x2="10.94" y2="10.96"/><line class="cls-2" x1="10.94" y1="13.05" x2="13.03" y2="10.96"/></g></svg>