<svg xmlns="http://www.w3.org/2000/svg" width="16" height="16" viewBox="0 0 16 16"><defs><style>.cls-1{fill:#d93644;fill-opacity:0;}.cls-2,.cls-3{fill:none;stroke:#445d82;stroke-linecap:round;stroke-linejoin:round;}.cls-2{stroke-width:2px;}</style></defs><g id="_16_Construction" data-name="16_Construction"><rect id="Container" class="cls-1" width="16" height="16"/><path class="cls-2" d="M14.25,9.65c.64-3.39-.67-6.26-3.1-7.16a2.56,2.56,0,0,0-3.07-.61A5.07,5.07,0,0,0,4.23,3.7a8.12,8.12,0,0,0-2,6.16s-2.94,2.39,0,3.56,5.6,1.34,7.16.34a16.66,16.66,0,0,1,3.4-1.6c.85-.38,3.06-2,1.8-3.74"/><path class="cls-2" d="M5.33,10c.17-3.81,1.73-7.11,6.06-7.11"/><path class="cls-3" d="M13.82,8.94a9.67,9.67,0,0,1-5.46,1.49"/></g></svg>