<svg xmlns="http://www.w3.org/2000/svg" width="16" height="16" viewBox="0 0 16 16"><defs><style>.cls-1{fill:#d93644;fill-opacity:0;}.cls-2,.cls-3{fill:none;stroke:#445d82;stroke-linecap:round;stroke-linejoin:round;}.cls-2{stroke-width:2px;}</style></defs><g id="_16_Delivery_Reception" data-name="16_Delivery Reception"><path id="Container" class="cls-1" d="M0,0H16V16H0Z"/><path class="cls-2" d="M14.76,1.35c.38.28.25,3,0,3.34s-13.33.4-13.58,0S.9,1.5,1.18,1.35,14.39,1.07,14.76,1.35Z"/><path class="cls-2" d="M5.89,13c-1.81,0-3.41,0-3.47-.1C2,12.65,2,5.56,2.05,5.24"/><path class="cls-2" d="M14,5.24c0,.21,0,.75,0,.9"/><ellipse class="cls-3" cx="12" cy="11.99" rx="3.5" ry="3.5" transform="translate(-0.08 0.08) rotate(-0.36)"/><line class="cls-3" x1="12.01" y1="10.94" x2="12.01" y2="13.62"/><path class="cls-3" d="M13.11,11.74S12.28,10.4,12,10.4s-1.07,1.34-1.07,1.34"/></g></svg>