<svg xmlns="http://www.w3.org/2000/svg" width="16" height="16" viewBox="0 0 16 16"><defs><style>.cls-1{fill:#d93644;fill-opacity:0;}.cls-2,.cls-3{fill:none;stroke:#445d82;stroke-linecap:round;stroke-linejoin:round;}.cls-2{stroke-width:2px;}</style></defs><g id="_14_Delivery_Reception" data-name="14_Delivery Reception"><path id="Container" class="cls-1" d="M0,0H16V16H0Z"/><path class="cls-2" d="M14.76,1.34c.38.28.26,3,0,3.34s-13.33.4-13.58,0S.9,1.5,1.18,1.34,14.39,1.06,14.76,1.34Z"/><path class="cls-2" d="M5.9,13c-1.82,0-3.42-.06-3.48-.1C2,12.65,2,5.55,2.05,5.23"/><path class="cls-2" d="M14,5.23c0,.22,0,.76,0,.91"/><ellipse class="cls-3" cx="12" cy="11.99" rx="3.5" ry="3.5" transform="translate(-0.08 0.08) rotate(-0.36)"/><path class="cls-3" d="M10.79,12.25c.44.38.76.89.88.89s.68-1.35,1.54-2.31"/></g></svg>