<svg xmlns="http://www.w3.org/2000/svg" width="16" height="16" viewBox="0 0 16 16"><defs><style>.cls-1{fill:#d93644;fill-opacity:0;}.cls-2,.cls-3{fill:none;stroke:#445d82;stroke-linecap:round;stroke-linejoin:round;}.cls-2{stroke-width:2px;}</style></defs><g id="_16_Documents_Area" data-name="16_Documents Area"><rect id="Container" class="cls-1" width="16" height="16"/><path class="cls-2" d="M1,7c.05-1.45,2-4.89,2.6-5a71.41,71.41,0,0,1,8.91,0C13.17,2.24,15.1,6.84,15,8"/><path class="cls-3" d="M2.61,4.59c2.45-.14,8.9-.08,10.89,0"/><path class="cls-3" d="M6.52,10.56c.09,0,2.87-.05,3,0"/><path class="cls-3" d="M1.07,6.48c.52-.06,2.37,0,2.84,0s.8.7,1,1c3,0,8.59,0,10,0"/><path class="cls-2" d="M15,8a30,30,0,0,1-.37,5c-.29,1.36-.86,1.71-1.93,1.85s-7.34.16-9.4,0c-.83-.07-1.41-.17-1.93-1.85A26.52,26.52,0,0,1,1,7"/></g></svg>