<?xml version="1.0" encoding="UTF-8"?><svg id="i" xmlns="http://www.w3.org/2000/svg" width="16" height="16" viewBox="0 0 16 16"><path id="j" d="M4.02,.85c2.63,0,6.27-.17,7.94,0,1.67,.17,3.09,1.43,3.18,3.18,.11,2.14,.15,6.35,0,7.94s-.56,3.08-3.18,3.18c-2.89,.11-6.26,.12-7.94,0-1.37-.1-3.06,.02-3.18-3.18s-.05-6.19,0-7.94S1.39,.85,4.02,.85Z" style="fill:none; stroke:#505f7a; stroke-linecap:round; stroke-linejoin:round; stroke-width:1.5px;"/><path d="M11.49,4.46c.36,.39,1.07,.03,.61-.56-.33-.42-1.01,.13-.61,.56Z" style="fill:none; stroke:#505f7a; stroke-linecap:round; stroke-linejoin:round; stroke-width:1.5px;"/><path d="M11.49,8.34c.36,.39,1.07,.03,.61-.56-.33-.42-1.01,.13-.61,.56Z" style="fill:none; stroke:#505f7a; stroke-linecap:round; stroke-linejoin:round; stroke-width:1.5px;"/><path d="M7.68,8.34c.36,.39,1.07,.03,.61-.56-.33-.42-1.01,.13-.61,.56Z" style="fill:none; stroke:#505f7a; stroke-linecap:round; stroke-linejoin:round; stroke-width:1.5px;"/><path d="M7.87,12.09c.36,.39,1.07,.03,.61-.56-.33-.42-1.01,.13-.61,.56Z" style="fill:none; stroke:#505f7a; stroke-linecap:round; stroke-linejoin:round; stroke-width:1.5px;"/><path d="M3.87,12.09c.36,.39,1.07,.03,.61-.56-.33-.42-1.01,.13-.61,.56Z" style="fill:none; stroke:#505f7a; stroke-linecap:round; stroke-linejoin:round; stroke-width:1.5px;"/><path d="M3.87,8.34c.36,.39,1.07,.03,.61-.56-.33-.42-1.01,.13-.61,.56Z" style="fill:none; stroke:#505f7a; stroke-linecap:round; stroke-linejoin:round; stroke-width:1.5px;"/><path d="M7.68,4.46c.36,.39,1.07,.03,.61-.56-.33-.42-1.01,.13-.61,.56Z" style="fill:none; stroke:#505f7a; stroke-linecap:round; stroke-linejoin:round; stroke-width:1.5px;"/></svg>