<svg xmlns="http://www.w3.org/2000/svg" width="16" height="16" viewBox="0 0 16 16"><defs><style>.cls-1{fill:#d93644;fill-opacity:0;}.cls-2,.cls-3{fill:none;stroke:#445d82;stroke-linecap:round;stroke-linejoin:round;}.cls-2{stroke-width:2px;}</style></defs><g id="_16_Delivery_Notification" data-name="16_Delivery Notification"><path id="Container" class="cls-1" d="M0,0H16V16H0Z"/><path class="cls-2" d="M14.76,1.35c.38.28.25,3,0,3.34s-13.33.4-13.58,0S.9,1.5,1.18,1.35,14.39,1.07,14.76,1.35Z"/><path class="cls-2" d="M5.89,13c-1.81,0-3.41,0-3.47-.1C2,12.65,2,5.56,2.05,5.24"/><path class="cls-2" d="M14,5.24c0,.21,0,.75,0,.9"/><ellipse class="cls-3" cx="12" cy="11.99" rx="3.5" ry="3.5" transform="translate(-0.08 0.08) rotate(-0.36)"/><circle class="cls-3" cx="12.03" cy="10.56" r="0.09"/><path id="_50px-informative-information" data-name=" 50px-informative-information" class="cls-3" d="M12.52,13.47c-2.51.93,1.29-2.78-1.06-1.73"/></g></svg>