<svg xmlns="http://www.w3.org/2000/svg" width="16" height="16" viewBox="0 0 16 16"><defs><style>.cls-1{fill:#f28d00;opacity:0;}.cls-2,.cls-3{fill:none;stroke:#445d82;stroke-linecap:round;stroke-linejoin:round;}.cls-2{stroke-width:2px;}</style></defs><g id="_16_Database" data-name="16_Database"><rect id="_Container_" data-name="&lt;Container&gt;" class="cls-1" width="16" height="16"/><path class="cls-2" d="M2.83,10.17a1.52,1.52,0,0,0-.76.91,7.35,7.35,0,0,0,.07,2.07c1.38,2.46,10.35,2.47,11.7,0A5.4,5.4,0,0,0,14,11.08a1.38,1.38,0,0,0-.77-.9"/><path class="cls-2" d="M2.83,6.31a1.48,1.48,0,0,0-.76.88,6.94,6.94,0,0,0,.07,2c1.38,2.39,10.35,2.41,11.7,0a5.1,5.1,0,0,0,.11-2,1.34,1.34,0,0,0-.77-.87"/><path class="cls-2" d="M2.07,2.85a9.74,9.74,0,0,0,.07,2.38c1.38,2.35,10.35,2.37,11.7,0A7.06,7.06,0,0,0,14,2.86C13.39.39,2.63.38,2.07,2.85Z"/><path class="cls-3" d="M2.13,2.23c1.37,2.35,10.35,2.37,11.7,0"/></g></svg>