<svg xmlns="http://www.w3.org/2000/svg" width="16" height="16" viewBox="0 0 16 16"><defs><style>.cls-1{fill:#d93644;fill-opacity:0;}.cls-2,.cls-3{fill:none;stroke:#445d82;stroke-linecap:round;stroke-linejoin:round;}.cls-2{stroke-width:2px;}</style></defs><g id="_16_Expense-3" data-name="16_Expense"><rect id="Container" class="cls-1" width="16" height="16"/><path class="cls-2" d="M14,12.29a2.63,2.63,0,0,1-2.61,2.61,74.46,74.46,0,0,1-7.63,0,2.48,2.48,0,0,1-2.57-2.36,44.39,44.39,0,0,1,0-6.43C1.25,5,1.56,4,2.52,3.74"/><path class="cls-2" d="M2,4c-.05.39.2.82,1,.89,2.46.24,6.3-.07,8.55.14,1.63.16,2.52.62,2.48,2.91"/><path class="cls-2" d="M14.07,8a.81.81,0,0,1,.87.78,5.88,5.88,0,0,1-.21,2.76c-.52.67-4.17.58-5.2.4-.43-.08-.44-2.54-.08-3,.53-.71,5.61.39,4.65-.62"/><path class="cls-3" d="M5.18,4.55C7.38,3,10,2.19,10.3,2.6a4.43,4.43,0,0,1,.21,1.83"/><path class="cls-3" d="M2.17,4.32c2.3-3.1,8.86-4,9.06-3.8a17.06,17.06,0,0,1,1.17,4"/><path class="cls-3" d="M11.74,1.83c.13,0,1.55-.26,1.63-.12s.1,2.21.14,3.38"/></g></svg>