<svg xmlns="http://www.w3.org/2000/svg" width="16" height="16" viewBox="0 0 16 16"><defs><style>.cls-1{opacity:0;}.cls-2{fill:#e04c59;}.cls-3,.cls-4{fill:none;stroke:#445d82;stroke-linecap:round;stroke-linejoin:round;}.cls-3{stroke-width:2px;}.cls-5{fill:#d93644;fill-opacity:0;}</style></defs><g id="_16_Expense" data-name="16_Expense"><g id="Container" class="cls-1"><rect class="cls-2" width="16" height="16"/></g><path class="cls-3" d="M3.86,13.84c1.3,1.17,5,1.62,6.65.51"/><path class="cls-3" d="M10.68,14.32c2.13.69,3.65-.31,3.46-1s-1-.27-.91-1.6A6.26,6.26,0,0,0,12.11,7C10.71,5.36,9.3,5.46,9.3,4.38s1.47-1.73,1.59-1.86c.32-.52-1-1.34-1.3-1.36s-.88.26-1,.24S8.16,1,7.84,1a4,4,0,0,0-2.44.59,2.17,2.17,0,0,0-.9-.17c-.32,0-.44.8-.09.83A1.47,1.47,0,0,1,5.75,4.34c-.33.87-1.12.72-2.44,2.46S2.45,11.49,2.44,12c0,.83-.51,1.36-.43,1.63s.59.61,1.62.33"/><path class="cls-3" d="M5.8,3.93c-.57,0-.94.93.7,1.33a8.62,8.62,0,0,0,6.38-.94"/><path class="cls-4" d="M8.71,8.41c-2-1.17-3.09,1.23-1.19,1.31,2.15.09,1.91,2.57-1,1.62"/><path id="Container-2" data-name="Container" class="cls-5" d="M0,0H16V16H0Z"/></g></svg>