<svg width="16" height="16" viewBox="0 0 16 16" fill="none" xmlns="http://www.w3.org/2000/svg">
<path d="M4.75006 9.85C4.75006 9.85 1.02006 7.18 1.00006 6.27C0.980063 5.36 5.72006 5.61 5.72006 5.61C5.72006 5.61 7.46006 1 8.16006 1C8.86006 1 11.0001 5.59 11.0001 5.59C11.0001 5.59 15.6601 5.18 15.4801 6.43C15.3001 7.68 11.7901 9.96 11.7901 9.96C11.7901 9.96 13.1701 14.31 12.8901 14.91C12.6101 15.51 8.30006 12.58 8.30006 12.58C8.30006 12.58 4.24006 15.7 3.62006 14.85C3.00006 14 4.75006 9.86 4.75006 9.86V9.85Z" fill="#494A4A"/>
</svg>
