<svg xmlns="http://www.w3.org/2000/svg" width="16" height="16" viewBox="0 0 16 16"><defs><style>.cls-1{opacity:0;}.cls-2{fill:#e04c59;}.cls-3,.cls-4,.cls-5{fill:none;stroke:#445d82;stroke-width:2px;}.cls-3,.cls-5{stroke-linecap:round;}.cls-3,.cls-4{stroke-miterlimit:10;fill-rule:evenodd;}.cls-5{stroke-linejoin:round;}</style></defs><g id="_16_Favorite_User" data-name="16_Favorite User"><g id="_16_Favorite_User-2" data-name="16_Favorite User"><g id="Container" class="cls-1"><rect class="cls-2" width="16" height="16"/></g><path class="cls-3" d="M7,15c-4,0-6-.28-6-1.22s.35-2.53.9-2.9C3.31,10,6.34,9.66,6.34,7.35"/><path class="cls-4" d="M8,8c1.44,0,3-1.36,3-4A2.7,2.7,0,0,0,8,1,2.7,2.7,0,0,0,5,4C5,6.64,6.58,8,8,8Z"/><path class="cls-5" d="M12.63,10.76C11.38,9.51,9,9.81,9,11.8A3.52,3.52,0,0,0,12,15c.75,0,3-1.19,3-3.18,0-1.79-1.64-2.1-3-1.56"/></g></g></svg>