<svg xmlns="http://www.w3.org/2000/svg" width="16" height="16" viewBox="0 0 16 16"><defs><style>.cls-1{fill:#e04c59;opacity:0;}.cls-2{fill:none;stroke:#445d82;stroke-linecap:round;stroke-linejoin:round;stroke-width:2px;}</style></defs><g id="_16_Folder" data-name="16_Folder"><rect id="Container" class="cls-1" width="16" height="16"/><path class="cls-2" d="M12.18,15c-1.75.07-7.5.09-8.79,0-1.6-.11-2.22-.86-2.33-2.51a50.5,50.5,0,0,1,0-5.35,2.05,2.05,0,0,1,2.07-2c.93-.08,6.94-.22,9.46,0A2.51,2.51,0,0,1,15,7.87c0,.83.11,3.31,0,4.69A2.61,2.61,0,0,1,12.18,15Z"/><path class="cls-2" d="M1.05,7.59s0-1.46.11-3.37S2.33,2,3.57,2A19.94,19.94,0,0,1,5.83,2a3.17,3.17,0,0,1,1.75.69,13.13,13.13,0,0,1,1.49,1.7A1.36,1.36,0,0,0,10.25,5"/></g></svg>