<svg width="37" height="16" viewBox="0 0 37 16" fill="none" xmlns="http://www.w3.org/2000/svg">
<g clip-path="url(#clip0_2_119)">
<path d="M3.84 14.67C3.2 14.27 4.52 10.35 4.31 9.67001C4.22 9.40001 1.16 8.37001 1.16 7.00001C1.16 6.00001 4.76 5.85001 5.16 5.55001C5.56 5.25001 6.76 1.31001 7.49 1.22001C8.22 1.13001 9.72 5.00001 10 5.27001C10.28 5.54001 14.91 5.70001 15 6.59001C15.09 7.23001 12.68 8.59001 11.75 9.14001C11.5386 9.28088 11.3799 9.48776 11.2985 9.72836C11.2171 9.96896 11.2176 10.2297 11.3 10.47C11.39 10.9 12.22 14.6 11.61 14.95C11 15.3 8.19 11.85 7.45 11.95C6.71 12.05 4.51 15.09 3.84 14.67Z" stroke="#445D82" stroke-width="2" stroke-miterlimit="10"/>
</g>
<g clip-path="url(#clip1_2_119)">
<path d="M24.84 14.67C24.2 14.27 25.52 10.35 25.31 9.67001C25.22 9.40001 22.16 8.37001 22.16 7.00001C22.16 6.00001 25.76 5.85001 26.16 5.55001C26.56 5.25001 27.76 1.31001 28.49 1.22001C29.22 1.13001 30.72 5.00001 31 5.27001C31.28 5.54001 35.91 5.70001 36 6.59001C36.09 7.23001 33.68 8.59001 32.75 9.14001C32.5386 9.28088 32.3799 9.48776 32.2985 9.72836C32.2171 9.96896 32.2176 10.2297 32.3 10.47C32.39 10.9 33.22 14.6 32.61 14.95C32 15.3 29.19 11.85 28.45 11.95C27.71 12.05 25.51 15.09 24.84 14.67Z" stroke="#445D82" stroke-width="2" stroke-miterlimit="10"/>
<path d="M27 5L23 6.5L22.5 7.5L24 8.5L25.5 9.5L26 11.5L25.5 12.5L26 13L27.5 12.5L28 11.5L30 12C30.1667 12.3333 30.6 13 31 13C31.4 13 31.8333 13.3333 32 13.5V12L31 10L32 8.5L32.5 8L34 7L34.5 6.5L30.5 6L28.5 3V2.5L27 5Z" fill="#445D82"/>
<path d="M27 5L27.1756 5.46816L27.339 5.40689L27.4287 5.25725L27 5ZM23 6.5L22.8244 6.03184L22.6406 6.10078L22.5528 6.27639L23 6.5ZM22.5 7.5L22.0528 7.27639L21.8554 7.67119L22.2226 7.91603L22.5 7.5ZM25.5 9.5L25.9851 9.37873L25.9382 9.1912L25.7774 9.08397L25.5 9.5ZM26 11.5L26.4472 11.7236L26.5299 11.5582L26.4851 11.3787L26 11.5ZM25.5 12.5L25.0528 12.2764L24.8916 12.5987L25.1464 12.8536L25.5 12.5ZM26 13L25.6464 13.3536L25.865 13.5721L26.1581 13.4743L26 13ZM27.5 12.5L27.6581 12.9743L27.8546 12.9088L27.9472 12.7236L27.5 12.5ZM28 11.5L28.1213 11.0149L27.7322 10.9177L27.5528 11.2764L28 11.5ZM30 12L30.4472 11.7764L30.3444 11.5707L30.1213 11.5149L30 12ZM32 13.5L31.6464 13.8536L32.5 14.7071V13.5H32ZM32 12H32.5V11.882L32.4472 11.7764L32 12ZM31 10L30.584 9.72265L30.423 9.96408L30.5528 10.2236L31 10ZM32 8.5L31.6464 8.14645L31.6114 8.18146L31.584 8.22265L32 8.5ZM32.5 8L32.2226 7.58397L32.1815 7.61144L32.1464 7.64645L32.5 8ZM34 7L34.2774 7.41603L34.3185 7.38856L34.3536 7.35355L34 7ZM34.5 6.5L34.8536 6.85355L35.5764 6.13066L34.562 6.00386L34.5 6.5ZM30.5 6L30.084 6.27735L30.2109 6.46776L30.438 6.49614L30.5 6ZM28.5 3H28V3.15139L28.084 3.27735L28.5 3ZM28.5 2.5H29V0.694841L28.0713 2.24275L28.5 2.5ZM26.8244 4.53184L22.8244 6.03184L23.1756 6.96816L27.1756 5.46816L26.8244 4.53184ZM22.5528 6.27639L22.0528 7.27639L22.9472 7.72361L23.4472 6.72361L22.5528 6.27639ZM22.2226 7.91603L23.7226 8.91603L24.2774 8.08397L22.7774 7.08397L22.2226 7.91603ZM23.7226 8.91603L25.2226 9.91603L25.7774 9.08397L24.2774 8.08397L23.7226 8.91603ZM25.0149 9.62127L25.5149 11.6213L26.4851 11.3787L25.9851 9.37873L25.0149 9.62127ZM25.5528 11.2764L25.0528 12.2764L25.9472 12.7236L26.4472 11.7236L25.5528 11.2764ZM25.1464 12.8536L25.6464 13.3536L26.3536 12.6464L25.8536 12.1464L25.1464 12.8536ZM26.1581 13.4743L27.6581 12.9743L27.3419 12.0257L25.8419 12.5257L26.1581 13.4743ZM27.9472 12.7236L28.4472 11.7236L27.5528 11.2764L27.0528 12.2764L27.9472 12.7236ZM27.8787 11.9851L29.8787 12.4851L30.1213 11.5149L28.1213 11.0149L27.8787 11.9851ZM29.5528 12.2236C29.6495 12.4171 29.821 12.704 30.0334 12.951C30.1397 13.0747 30.2689 13.2031 30.4171 13.304C30.5621 13.4027 30.7623 13.5 31 13.5V12.5C31.0377 12.5 31.0337 12.514 30.9798 12.4773C30.929 12.4428 30.8644 12.3837 30.7916 12.299C30.6457 12.1293 30.5171 11.9162 30.4472 11.7764L29.5528 12.2236ZM31 13.5C31.0724 13.5 31.1901 13.5348 31.3362 13.6198C31.4752 13.7005 31.5912 13.7983 31.6464 13.8536L32.3536 13.1464C32.2421 13.035 32.0582 12.8828 31.8388 12.7552C31.6266 12.6318 31.3276 12.5 31 12.5V13.5ZM32.5 13.5V12H31.5V13.5H32.5ZM32.4472 11.7764L31.4472 9.77639L30.5528 10.2236L31.5528 12.2236L32.4472 11.7764ZM31.416 10.2774L32.416 8.77735L31.584 8.22265L30.584 9.72265L31.416 10.2774ZM32.3536 8.85355L32.8536 8.35355L32.1464 7.64645L31.6464 8.14645L32.3536 8.85355ZM32.7774 8.41603L34.2774 7.41603L33.7226 6.58397L32.2226 7.58397L32.7774 8.41603ZM34.3536 7.35355L34.8536 6.85355L34.1464 6.14645L33.6464 6.64645L34.3536 7.35355ZM34.562 6.00386L30.562 5.50386L30.438 6.49614L34.438 6.99614L34.562 6.00386ZM30.916 5.72265L28.916 2.72265L28.084 3.27735L30.084 6.27735L30.916 5.72265ZM29 3V2.5H28V3H29ZM28.0713 2.24275L26.5713 4.74275L27.4287 5.25725L28.9287 2.75725L28.0713 2.24275Z" fill="#445D82"/>
</g>
<defs>
<clipPath id="clip0_2_119">
<rect width="16" height="16" fill="white"/>
</clipPath>
<clipPath id="clip1_2_119">
<rect width="16" height="16" fill="white" transform="translate(21)"/>
</clipPath>
</defs>
</svg>
