<svg xmlns="http://www.w3.org/2000/svg" width="16" height="16" viewBox="0 0 16 16"><defs><style>.cls-1{fill:#e04c59;opacity:0;}.cls-2,.cls-3{fill:none;stroke:#445d82;stroke-linecap:round;stroke-linejoin:round;}.cls-2{stroke-width:2px;}</style></defs><g id="_16_Fireworks" data-name="16_Fireworks"><rect id="Container" class="cls-1" width="16" height="16"/><path class="cls-2" d="M15,1a37.31,37.31,0,0,0-5.08.63C8.54,2,14,7.47,14.37,6.1A31.11,31.11,0,0,0,15,1Z"/><path class="cls-2" d="M9.83,2.38c-.52.18-5.91,5.54-5.91,5.92s3.07,4,3.79,3.81,5.92-5.45,5.92-5.91"/><line class="cls-2" x1="5.99" y1="11.3" x2="2.3" y2="14.98"/><path class="cls-3" d="M1.29,11.75a5.65,5.65,0,0,0,1.38-.87"/><path class="cls-3" d="M5.88,6.33C7,7.91,10.93,8,13.05,7"/></g></svg>