<svg xmlns="http://www.w3.org/2000/svg" width="16" height="16" viewBox="0 0 16 16"><defs><style>.cls-1{fill:#d93644;fill-opacity:0;}.cls-2,.cls-3{fill:none;stroke:#445d82;stroke-linecap:round;stroke-linejoin:round;}.cls-2{stroke-width:2px;}</style></defs><g id="_14_Holiday" data-name="14_Holiday"><rect id="Container" class="cls-1" x="0.03" y="0.03" width="15.97" height="15.97"/><path class="cls-2" d="M4.58,5.55s-4.73,7.52-3.32,9.17c1.27,1.46,9.79-3.26,9.79-3.26"/><path class="cls-2" d="M11.39,9.55c.33.85.3,1.58-.34,1.91C8.42,12.86,2.59,6.89,5,5.08a1,1,0,0,1,.75-.17"/><path class="cls-3" d="M8.45,3.41C9.34,5,8.8,6.54,8.18,7.85"/><path class="cls-3" d="M10.88,2c0,1.77-.47,4.57-2.7,5.84"/><path class="cls-3" d="M13.44,7.53c-1.89-1.17-3.5-.6-5.18.27"/><path class="cls-3" d="M7.52.88c.32,0,.25-.3,0-.36A.18.18,0,1,0,7.52.88Z"/><path class="cls-3" d="M12.66.89A.2.2,0,0,1,12.5.55C12.79.34,12.88.88,12.66.89Z"/><path class="cls-3" d="M15.44,6.44c0-.16-.22-.07-.18,0S15.4,6.61,15.44,6.44Z"/><path class="cls-3" d="M3.19.93c.13.52,1.11,0,1.22.47s-1.92,1.27,0,1.48"/><path class="cls-3" d="M15.45,2.53c-.1-.15-1-.7-1.34-.32S15,3.39,14.39,4s-2.16-.76-1.33,1"/><path class="cls-3" d="M15.52,8.76c-.39-.07.09,1.23-.53,1.35s-.52-1.63-1.23-.34"/></g></svg>