<svg xmlns="http://www.w3.org/2000/svg" width="16" height="16" viewBox="0 0 16 16"><defs><style>.cls-1{fill:#d93644;fill-opacity:0;}.cls-2,.cls-3{fill:none;stroke:#445d82;stroke-linecap:round;stroke-linejoin:round;}.cls-2{stroke-width:2px;}</style></defs><g id="_16_Import_Company" data-name="16_Import Company"><path id="Container" class="cls-1" d="M0,0H16V16H0Z"/><path class="cls-2" d="M2,15H6.51"/><path class="cls-2" d="M13,6.15c0-2.72-.09-4.92-.38-5.09C12,.7,3.54,3.42,3.26,4.2S3,11.89,3,14.79"/><path class="cls-3" d="M6,5.51c.88,0,2.92-.06,4,0"/><path class="cls-3" d="M6,7.48c1.66,0,2.55,0,3.55,0"/><path class="cls-3" d="M6,9.49H7.67"/><path class="cls-3" d="M6.52,14.85a19.55,19.55,0,0,1,.09-3.24"/><path class="cls-3" d="M7.51.51a11.75,11.75,0,0,0,0,1.31"/><line class="cls-3" x1="11.52" y1="11.44" x2="12.77" y2="12.68"/><path class="cls-3" d="M12.4,11.31s-.94-.31-1.12-.12.13,1.11.13,1.11"/><circle class="cls-3" cx="12" cy="12" r="3.5" transform="translate(-0.98 1.07) rotate(-4.91)"/></g></svg>