<svg xmlns="http://www.w3.org/2000/svg" width="16" height="16" viewBox="0 0 16 16"><defs><style>.cls-1{fill:#e04c59;opacity:0;}.cls-2,.cls-3,.cls-4{fill:none;stroke:#445d82;stroke-width:2px;}.cls-2,.cls-3{stroke-linecap:round;}.cls-2{stroke-linejoin:round;}.cls-3,.cls-4{stroke-miterlimit:10;fill-rule:evenodd;}</style></defs><g id="_16_Inclusive" data-name="16_Inclusive"><g id="_16_Inclusive-2" data-name="16_Inclusive"><rect id="Container" class="cls-1" width="16" height="16"/><path class="cls-2" d="M11.9,11.53a4.53,4.53,0,0,0,1.17-.39c1.13-.47,2.49.58,1.68,1.16S13,13.68,12.3,14.19A8.4,8.4,0,0,1,8.64,15c-1.51,0-3.5-1.28-6.55-1.28-1.24,0-1.32-1.89-.73-2.12C3,11,9.58,10.94,10.5,11s.95.57.08,1"/><path class="cls-3" d="M9,5.82c0,1.83,1.82,1.65,2.8,2.36a1.9,1.9,0,0,1,.48,1"/><path class="cls-3" d="M3.66,9.13a2,2,0,0,1,.49-1c1-.71,2.8-.53,2.8-2.36"/><path class="cls-4" d="M8,6.09c.91,0,1.91-1,1.91-2.91C9.91,1.71,9.18,1,8,1s-1.91.71-1.91,2.18C6.09,5.1,7.09,6.09,8,6.09Z"/></g></g></svg>