<svg xmlns="http://www.w3.org/2000/svg" width="16" height="16" viewBox="0 0 16 16"><defs><style>.cls-1{fill:#d93644;fill-opacity:0;}.cls-2,.cls-3{fill:none;stroke:#445d82;stroke-linecap:round;stroke-linejoin:round;}.cls-2{stroke-width:2px;}</style></defs><g id="_16_Incoming" data-name="16_Incoming"><rect id="Container" class="cls-1" width="16" height="16"/><path class="cls-2" d="M3,5.54A1.68,1.68,0,0,1,4.39,4H5A1,1,0,0,0,6,3V2.32A1.49,1.49,0,0,1,7.62,1"/><path class="cls-2" d="M3,6.38a7.76,7.76,0,0,1,0-1V5.21a2.08,2.08,0,0,1,.72-1.55L6,1.64A2.63,2.63,0,0,1,7.78,1h2.69c1.36,0,2.41.56,2.47,2.2A24.46,24.46,0,0,1,13,6.31"/><line class="cls-3" x1="6.51" y1="6.5" x2="9.49" y2="6.5"/><path class="cls-2" d="M13.48,5.42l1.24.83a12.48,12.48,0,0,1,.15,1.34,21.73,21.73,0,0,1,0,4.77,3.34,3.34,0,0,1-2.8,2.5,59.9,59.9,0,0,1-8.15,0,3.13,3.13,0,0,1-2.8-2.5,27.77,27.77,0,0,1,.13-6.13l1.32-.9"/><path class="cls-2" d="M2.07,5.8S6.31,10,8,10s5.75-4.27,5.75-4.27"/><line class="cls-3" x1="9.3" y1="10.23" x2="13.48" y2="14.33"/><line class="cls-3" x1="6.6" y1="10.35" x2="2.91" y2="14.58"/></g></svg>