<svg xmlns="http://www.w3.org/2000/svg" width="16" height="16" viewBox="0 0 16 16"><defs><style>.cls-1,.cls-2,.cls-3{fill:none;stroke:#445d82;stroke-linecap:round;}.cls-1{stroke-miterlimit:10;}.cls-1,.cls-2{stroke-width:2px;fill-rule:evenodd;}.cls-2,.cls-3{stroke-linejoin:round;}.cls-4{fill:#d93644;fill-opacity:0;}</style></defs><g id="_16_Import_User" data-name="16_Import User"><path class="cls-1" d="M7,15c-3.15-.06-6-.44-6-1.13,0-3.33,5.27-2.07,5.27-6.31"/><path class="cls-2" d="M10.72,5.81A5.42,5.42,0,0,0,11,4,2.68,2.68,0,0,0,8,1,2.68,2.68,0,0,0,5,4,4.06,4.06,0,0,0,6.56,7.55"/><line class="cls-3" x1="12.01" y1="10.93" x2="12.01" y2="13.62"/><path class="cls-3" d="M13.12,11.74s-.83-1.35-1.11-1.35-1.07,1.35-1.07,1.35"/><ellipse class="cls-3" cx="12" cy="12" rx="3.5" ry="3.5" transform="translate(-0.08 0.08) rotate(-0.36)"/><path id="Container" class="cls-4" d="M0,0H16V16H0Z"/></g></svg>