<svg xmlns="http://www.w3.org/2000/svg" width="16" height="16" viewBox="0 0 16 16"><defs><style>.cls-1{fill:#d93644;fill-opacity:0;}.cls-2,.cls-3{fill:none;stroke:#445d82;stroke-linecap:round;stroke-linejoin:round;}.cls-3{stroke-width:2px;}</style></defs><g id="_16_key-2" data-name="16_key"><rect id="Container" class="cls-1" width="16" height="16"/><path class="cls-2" d="M5.76,6.09A12.54,12.54,0,0,0,6,7.44"/><path class="cls-3" d="M8.63,10.39C12.37,11.28,15,9.28,15,6c0-3.12-2-5-4.77-5A4.64,4.64,0,0,0,5.29,6.25"/><path class="cls-3" d="M3.79,15a3.7,3.7,0,0,1-2.47-.31c-.37-.32-.3-2.8-.3-2.8l4.27-5.6"/><polyline class="cls-2" points="4.29 15.02 4.29 13.32 6.19 13.48 6.24 11.7 7.74 11.51 8.13 10.34"/><path class="cls-2" d="M10.49,6.51A1.25,1.25,0,0,1,9.19,5.2a1.4,1.4,0,1,1,2.8,0A1.35,1.35,0,0,1,10.49,6.51Z"/><path class="cls-2" d="M7.44,9.38a6.22,6.22,0,0,0,1.37.55"/></g></svg>