<svg xmlns="http://www.w3.org/2000/svg" width="16" height="16" viewBox="0 0 16 16"><defs><style>.cls-1{opacity:0;}.cls-2{fill:#e04c59;}.cls-3,.cls-4{fill:none;stroke:#445d82;stroke-linecap:round;stroke-linejoin:round;}.cls-3{stroke-width:2px;}</style></defs><g id="_16_Light_Bulb" data-name="16_Light Bulb"><g id="_16_Light_Bulb-2" data-name="16_Light Bulb"><g id="Container" class="cls-1"><rect class="cls-2" width="16" height="16"/></g><path class="cls-3" d="M5.34,12a.45.45,0,0,1-.28-.38C5,9.88,3,7.94,3,5.06c0-5.41,10-5.41,10,0,0,3-2,4.8-2.06,6.57a.47.47,0,0,1-.25.37"/><path class="cls-4" d="M10.77,11.69a8.1,8.1,0,0,1-5.26,0"/><path class="cls-3" d="M5.35,12a7.9,7.9,0,0,0,.3,2.08c.09.28.79.88,2.35.88s2.27-.6,2.35-.89A8.39,8.39,0,0,0,10.66,12"/><path class="cls-4" d="M14.51,1.52a6.62,6.62,0,0,1,1,4"/><path class="cls-4" d="M7.42,3.51a1.9,1.9,0,0,0-1.92,2"/></g></g></svg>