<svg width="16" height="17" viewBox="0 0 16 17" fill="none" xmlns="http://www.w3.org/2000/svg">
<path d="M5.01518 7.2951C4.84518 5.3751 4.89518 3.6651 5.61518 2.7151C6.81518 1.1251 9.57518 1.0651 10.8552 2.7151C11.5552 3.6251 11.4952 5.2251 11.5152 7.2851M3.84518 7.6151C5.67518 7.4951 9.70518 7.4151 12.4652 7.5851C13.4552 7.6451 14.1552 8.2051 14.3152 9.0651C14.5952 10.6351 14.4152 12.4051 14.2852 14.0851C14.2052 15.1651 13.5852 15.7251 12.3552 15.8651C10.8852 16.0351 6.57518 16.0051 4.33518 15.9951C2.85518 15.9951 2.27518 15.3751 2.22518 14.9751C1.95518 12.9151 1.91518 11.1751 2.17518 9.0751C2.26518 8.3651 2.78518 7.6851 3.84518 7.6151ZM9.20518 12.1051C9.04518 12.2151 9.26518 13.1351 9.10518 13.3251C8.94518 13.5151 7.59518 13.5251 7.39518 13.4051C7.26518 13.3251 7.46518 12.2851 7.24518 12.1351C6.22518 11.4351 6.83518 9.9551 8.27518 9.8951C9.71518 9.8351 10.2052 11.4251 9.20518 12.1151V12.1051Z" stroke="#494A4A" stroke-width="1.5" stroke-linecap="round" stroke-linejoin="round"/>
</svg>
