<svg xmlns="http://www.w3.org/2000/svg" width="16" height="16" viewBox="0 0 16 16"><defs><style>.cls-1{fill:#d93644;fill-opacity:0;}.cls-2,.cls-3{fill:none;stroke:#445d82;stroke-linecap:round;stroke-linejoin:round;}.cls-2{stroke-width:2px;}</style></defs><g id="_16_Multiple_Selection" data-name="16_Multiple Selection"><rect id="Container" class="cls-1" width="16" height="16"/><path class="cls-2" d="M1,11.12c.06-.65.19-1,.88-1.09s2.87,0,3.21,0a.85.85,0,0,1,.86.86c0,.7,0,2.11,0,2.75C6,14.85,5.79,15,4.65,15c0,0-2.23.07-2.73,0s-.85-.05-.87-1.07A23.05,23.05,0,0,1,1,11.12Z"/><path class="cls-2" d="M1,2.13c.06-.65.19-1,.88-1.09A31,31,0,0,1,5.13,1,.85.85,0,0,1,6,1.9C6,2.6,6,4,6,4.65,6,5.86,5.79,6,4.65,6c0,0-2.23.07-2.73,0s-.85,0-.87-1.07A23.05,23.05,0,0,1,1,2.13Z"/><path class="cls-2" d="M15,4.84c0,1-.27,1.13-1.34,1.13,0,0-2.24.07-2.74,0-.35,0-.84,0-.87-1.07a25.32,25.32,0,0,1,0-2.8c.07-.65.19-1,.88-1.09.24,0,.65,0,1.1,0"/><path class="cls-3" d="M12.19,2.91s.6.69.91.69,2.33-3,2.33-3"/><path class="cls-2" d="M15,13.83c0,1-.27,1.13-1.34,1.13,0,0-2.24.07-2.74,0-.35,0-.84-.05-.87-1.07a25.32,25.32,0,0,1,0-2.8c.07-.65.19-1,.88-1.09.24,0,.65,0,1.1,0"/><path class="cls-3" d="M12.19,11.91s.6.68.91.68,2.33-3,2.33-3"/></g></svg>