<svg xmlns="http://www.w3.org/2000/svg" width="16" height="16" viewBox="0 0 16 16"><defs><style>.cls-1{fill:#e04c59;opacity:0;}.cls-2{fill:none;stroke:#445d82;stroke-linecap:round;stroke-linejoin:round;stroke-width:2px;}</style></defs><g id="_16_Mail_Notification" data-name="16_Mail_Notification"><rect id="Container" class="cls-1" width="16" height="16"/><path class="cls-2" d="M15,3a1.77,1.77,0,0,1-2,2c-1.11,0-1.84-.35-2-2-.13-1.32.89-1.92,2-2A1.79,1.79,0,0,1,15,3Z"/><path class="cls-2" d="M15,7.56a22.06,22.06,0,0,1-.12,3.28,3.68,3.68,0,0,1-2.8,3,52.79,52.79,0,0,1-8.15,0,3.41,3.41,0,0,1-2.8-3,33.9,33.9,0,0,1,0-5.7,3,3,0,0,1,2.8-3A38.25,38.25,0,0,1,8.1,2"/><path class="cls-2" d="M2,3S6.31,8,8,8a3.84,3.84,0,0,0,1.88-.93"/></g></svg>