<svg xmlns="http://www.w3.org/2000/svg" width="16" height="16" viewBox="0 0 16 16"><defs><style>.cls-1,.cls-2,.cls-3{fill:none;stroke:#445d82;stroke-linecap:round;}.cls-1{stroke-miterlimit:10;}.cls-1,.cls-2{stroke-width:2px;fill-rule:evenodd;}.cls-2,.cls-3{stroke-linejoin:round;}.cls-4{fill:#d93644;fill-opacity:0;}</style></defs><g id="_16_Managers_Time_Registration" data-name="16_Managers Time Registration"><path class="cls-1" d="M7,15c-3.15-.06-6-.44-6-1.13,0-3.33,5.27-2.07,5.27-6.31"/><path class="cls-2" d="M10.72,5.81A5.42,5.42,0,0,0,11,4,2.68,2.68,0,0,0,8,1,2.68,2.68,0,0,0,5,4,4.06,4.06,0,0,0,6.56,7.55"/><ellipse class="cls-3" cx="12" cy="12" rx="3.5" ry="3.5" transform="translate(-0.08 0.08) rotate(-0.36)"/><circle class="cls-3" cx="12.11" cy="12.04" r="0.41"/><path class="cls-3" d="M12.18,11.6,12,10.23c0,.21-.09,1-.14,1.4"/><path class="cls-3" d="M12.51,11.91l1.41.19c-.47,0-1.16.18-1.39.17"/><path id="Container" class="cls-4" d="M0,0H16V16H0Z"/></g></svg>