<svg xmlns="http://www.w3.org/2000/svg" width="16" height="16" viewBox="0 0 16 16"><defs><style>.cls-1{fill:#c5d5ed;opacity:0;}.cls-2,.cls-3{fill:none;stroke:#445d82;stroke-linecap:round;stroke-linejoin:round;}.cls-2{stroke-width:2px;}</style></defs><g id="_16_Overtime" data-name="16_Overtime"><rect id="_Container_" data-name="&lt;Container&gt;" class="cls-1" width="16" height="16"/><path class="cls-2" d="M1.25,9.87A7.15,7.15,0,0,1,1,8a7,7,0,1,1,2.66,5.49"/><circle class="cls-3" cx="8" cy="8" r="0.75"/><path class="cls-3" d="M7.76,3.56c-.08.56-.23,2.79-.37,3.69l.86-.07Z"/><path class="cls-3" d="M11.68,10.67c-1-.72-2.81-1.48-3.29-1.84L8.9,8Z"/><path class="cls-3" d="M3.66,8.5c-.07,0-.15-.06-.2,0"/><path class="cls-3" d="M7.64,12.49c-.06,0-.14-.06-.19,0"/><path class="cls-3" d="M12.6,7.53c-.06,0-.14-.06-.19,0"/><polyline class="cls-2" points="3.36 14.99 2.79 12.92 4.87 12.35"/></g></svg>