<svg xmlns="http://www.w3.org/2000/svg" width="16" height="16" viewBox="0 0 16 16"><defs><style>.cls-1{fill:#c2d5ef;opacity:0;}.cls-2{fill:none;stroke:#445d82;stroke-linecap:round;stroke-linejoin:round;stroke-width:2px;}</style></defs><g id="_16_Parental_Leave2" data-name="16_Parental Leave2"><rect id="_Container_" data-name="&lt;Container&gt;" class="cls-1" width="16" height="16"/><path class="cls-2" d="M5.55,13.35s-1,2.86-3.37,1.05-.44-3.54.55-3.52"/><path class="cls-2" d="M11.91,9.7c6.47,5.92-3.67,7.36-8.46,1.84C-1,6.37,1.15,1.41,6,5.59"/><path class="cls-2" d="M4.45,7.13a9.69,9.69,0,0,0,5.46,4.36"/><path class="cls-2" d="M5,8A4.69,4.69,0,0,0,6.16,5.91c.34-1.19.77-3.58,3.29-4.58,4.3-1.71,9,4.78,1.9,7.87a7.46,7.46,0,0,0-2.59,1.51"/></g></svg>