<svg xmlns="http://www.w3.org/2000/svg" width="16" height="16" viewBox="0 0 16 16"><defs><style>.cls-1{fill:#d93644;fill-opacity:0;}.cls-2,.cls-3{fill:none;stroke:#445d82;stroke-linecap:round;stroke-linejoin:round;}.cls-2{stroke-width:2px;}</style></defs><g id="_16_Payment" data-name="16_Payment"><rect id="Container" class="cls-1" width="16" height="16"/><path class="cls-2" d="M11,14.88a63.75,63.75,0,0,1-7.82,0,2.24,2.24,0,0,1-2-2.08,27.94,27.94,0,0,1,0-4.58,2.2,2.2,0,0,1,2-2.07,51,51,0,0,1,7.82,0,2.08,2.08,0,0,1,2,2.07,20.61,20.61,0,0,1,0,4.58A2.16,2.16,0,0,1,11,14.88Z"/><path class="cls-2" d="M2.07,5.89A2.4,2.4,0,0,1,3.89,3a50.07,50.07,0,0,1,7.63-1.9A2.08,2.08,0,0,1,14,2.73,22.45,22.45,0,0,1,15,7.5a2.35,2.35,0,0,1-1.53,2.66l-.31.11"/><line class="cls-3" x1="13.55" y1="3.48" x2="4.57" y2="5.78"/><ellipse class="cls-3" cx="8.5" cy="9.5" rx="0.92" ry="1"/><path class="cls-3" d="M9.06,8.68a.83.83,0,0,1,.53-.18,1,1,0,0,1,0,2,.84.84,0,0,1-.53-.19"/><path class="cls-3" d="M6.55,12.5c-.39,0-2.72,0-3.07,0"/><path class="cls-3" d="M9.58,12.49c-.31,0-.84,0-1.12,0"/></g></svg>