<svg xmlns="http://www.w3.org/2000/svg" width="16" height="16" viewBox="0 0 16 16"><defs><style>.cls-1{fill:#d93644;fill-opacity:0;}.cls-2{fill:none;stroke:#445d82;stroke-linecap:round;stroke-linejoin:round;stroke-width:2px;}</style></defs><g id="_16_Reset" data-name="16_Reset"><rect id="Container" class="cls-1" width="16" height="16"/><path class="cls-2" d="M3,9.26c0,4.61,0,5.62,2.77,5.71,1.92.06,3.94,0,5.25,0,3.28,0,3.94-.64,3.92-4.12C15,9.51,15,7,15,6,15,2.68,13.2,3,10.31,3,4.47,3,5.68,3,5,3"/><line class="cls-2" x1="7.07" y1="7.03" x2="11.04" y2="10.99"/><line class="cls-2" x1="11.04" y1="7.01" x2="7.04" y2="10.99"/><path class="cls-2" d="M4.85,1.06C4.41.63,1,2.59,1,3.25S4.34,5.47,4.81,5"/></g></svg>