<svg xmlns="http://www.w3.org/2000/svg" width="16" height="16" viewBox="0 0 16 16"><defs><style>.cls-1,.cls-2{fill:none;stroke:#445d82;stroke-linecap:round;stroke-linejoin:round;}.cls-1{stroke-width:2px;}</style></defs><g id="_16_Ribbon_Medal" data-name="16_Ribbon Medal"><g id="_16_Ribbon_Medal-2" data-name="16_Ribbon Medal"><path class="cls-1" d="M4.27,10.25C4,11.16,3.12,13.34,3,13.7s2.06.21,2.28.24A7.63,7.63,0,0,1,6.75,15c.19.18,1.16-2.5,1.25-3.75"/><path class="cls-1" d="M11.73,10.25c.24.91,1.15,3.09,1.27,3.45s-2.06.21-2.28.24A7.63,7.63,0,0,0,9.25,15c-.19.18-1.16-2.5-1.25-3.75"/><circle class="cls-1" cx="8" cy="6" r="5"/><path class="cls-2" d="M8.4,3.75l.47.94a.46.46,0,0,0,.38.24l1.05.15a.44.44,0,0,1,.2.75l-.76.73A.47.47,0,0,0,9.61,7l.18,1a.44.44,0,0,1-.64.46L8.21,8A.43.43,0,0,0,7.8,8l-.94.49A.45.45,0,0,1,6.21,8l.18-1a.41.41,0,0,0-.13-.39L5.5,5.83a.44.44,0,0,1,.25-.75l1-.15a.45.45,0,0,0,.34-.24l.47-.94A.44.44,0,0,1,8.4,3.75Z"/></g></g></svg>