<svg width="16" height="16" viewBox="0 0 16 16" fill="none" xmlns="http://www.w3.org/2000/svg">
<g clip-path="url(#clip0_5054_1267)">
<path d="M5.82004 4.46999C5.63004 4.46999 5.42004 4.41999 5.19004 4.28999C5.17004 4.28999 5.16004 4.27999 5.14004 4.26999C4.82004 4.09999 4.62004 3.75999 4.61004 3.35999C4.61004 2.94999 4.80004 2.57999 5.13004 2.37999C5.47004 2.17999 5.90004 2.19999 6.30004 2.42999C6.82004 2.72999 6.91004 3.50999 6.65004 3.97999C6.49004 4.25999 6.20004 4.46999 5.82004 4.46999Z" fill="#494A4A"/>
<path d="M5.76004 8.97999C5.57004 8.97999 5.36004 8.92999 5.13004 8.79999C5.11004 8.79999 5.10004 8.78999 5.08004 8.77999C4.76004 8.60999 4.56004 8.26999 4.55004 7.86999C4.55004 7.45999 4.74004 7.08999 5.07004 6.88999C5.41004 6.68999 5.84004 6.70999 6.24004 6.93999C6.76004 7.23999 6.85004 8.01999 6.59004 8.48999C6.43004 8.76999 6.14004 8.97999 5.76004 8.97999Z" fill="#494A4A"/>
<path d="M5.75004 13.77C5.56004 13.77 5.35004 13.72 5.12004 13.59C5.10004 13.59 5.09004 13.58 5.07004 13.57C4.75004 13.4 4.55004 13.06 4.54004 12.66C4.54004 12.25 4.73004 11.88 5.06004 11.68C5.40004 11.48 5.83004 11.5 6.23004 11.73C6.75004 12.03 6.84004 12.81 6.58004 13.28C6.42004 13.56 6.13004 13.77 5.75004 13.77Z" fill="#494A4A"/>
<path d="M10.49 4.46999C10.3 4.46999 10.09 4.41999 9.86004 4.28999C9.84004 4.28999 9.83004 4.27999 9.81004 4.26999C9.49004 4.09999 9.29004 3.75999 9.28004 3.35999C9.28004 2.94999 9.47004 2.57999 9.80004 2.37999C10.14 2.17999 10.57 2.19999 10.97 2.42999C11.49 2.72999 11.58 3.50999 11.32 3.97999C11.16 4.25999 10.87 4.46999 10.49 4.46999Z" fill="#494A4A"/>
<path d="M10.43 8.97999C10.24 8.97999 10.03 8.92999 9.80004 8.79999C9.78004 8.79999 9.77004 8.77999 9.75004 8.77999C9.43004 8.60999 9.23004 8.26999 9.22004 7.86999C9.22004 7.45999 9.41004 7.08999 9.74004 6.88999C10.08 6.68999 10.51 6.70999 10.91 6.93999C11.43 7.23999 11.52 8.01999 11.26 8.48999C11.1 8.76999 10.81 8.97999 10.43 8.97999Z" fill="#494A4A"/>
<path d="M10.42 13.77C10.23 13.77 10.02 13.72 9.79004 13.59C9.77004 13.59 9.76004 13.58 9.74004 13.57C9.42004 13.4 9.22004 13.06 9.21004 12.66C9.21004 12.25 9.40004 11.88 9.73004 11.68C10.07 11.48 10.5 11.5 10.9 11.73C11.42 12.03 11.51 12.81 11.25 13.28C11.09 13.56 10.8 13.77 10.42 13.77Z" fill="#494A4A"/>
</g>
<defs>
<clipPath id="clip0_5054_1267">
<rect width="16" height="16" fill="white"/>
</clipPath>
</defs>
</svg>
