<svg xmlns="http://www.w3.org/2000/svg" width="16" height="16" viewBox="0 0 16 16"><defs><style>.cls-1{fill:#d93644;fill-opacity:0;}.cls-2{fill:none;stroke:#445d82;stroke-linecap:round;stroke-linejoin:round;stroke-width:2px;}</style></defs><g id="_16_Storage" data-name="16_Storage"><rect id="Container" class="cls-1" width="16" height="16"/><path class="cls-2" d="M1.28,15c-.22-.39-.5-9.8,0-10.5S6.69,1,8,1s6.41,2.77,6.76,3.5.16,10,0,10.5"/><path class="cls-2" d="M4.07,8.06a7.32,7.32,0,0,1,1.87,0,7.63,7.63,0,0,1,0,1.85,4.85,4.85,0,0,1-1.86,0A5.75,5.75,0,0,1,4.07,8.06Z"/><path class="cls-2" d="M4.07,13.06a7.32,7.32,0,0,1,1.87,0,7.63,7.63,0,0,1,0,1.85,4.85,4.85,0,0,1-1.86,0A5.75,5.75,0,0,1,4.07,13.06Z"/><path class="cls-2" d="M9.07,13.06a7.32,7.32,0,0,1,1.87,0,7.63,7.63,0,0,1,0,1.85,4.85,4.85,0,0,1-1.86,0A5.75,5.75,0,0,1,9.07,13.06Z"/></g></svg>