<svg xmlns="http://www.w3.org/2000/svg" width="16" height="16" viewBox="0 0 16 16"><defs><style>.cls-1{fill:#e04c59;opacity:0;}.cls-2,.cls-3{fill:none;stroke:#445d82;stroke-linecap:round;stroke-linejoin:round;}.cls-3{stroke-width:2px;}.cls-4{fill:#d93644;fill-opacity:0;}</style></defs><g id="_16_Summary" data-name="16_Summary"><rect id="Container" class="cls-1" width="16" height="16"/><line class="cls-2" x1="6" y1="5.51" x2="10" y2="5.51"/><line class="cls-2" x1="6" y1="8.5" x2="6.63" y2="8.5"/><line class="cls-2" x1="6" y1="11.5" x2="6.58" y2="11.5"/><line class="cls-3" x1="7" y1="1" x2="9" y2="1"/><rect class="cls-2" x="5.33" y="1" width="5.33" height="2" rx="0.41"/><path class="cls-3" d="M6.64,15H4.88c-1,0-1.73-.58-1.88-1.89S2.88,5.25,3,3.89,3.84,2,4.87,2h6.26A1.88,1.88,0,0,1,13,3.89V6"/><path class="cls-3" d="M12,9c1.71-.14,3.4,1.76,2.86,3A24.07,24.07,0,0,1,12,12,14.51,14.51,0,0,1,12,9Z"/><path class="cls-3" d="M14.5,12.47a2.73,2.73,0,0,1-.29,1,2.77,2.77,0,1,1-3.69-3.77,2.81,2.81,0,0,1,1.23-.28"/><path id="Container-2" data-name="Container" class="cls-4" d="M0,0H16V16H0Z"/></g></svg>