<svg xmlns="http://www.w3.org/2000/svg" width="16" height="16" viewBox="0 0 16 16"><defs><style>.cls-1{fill:#e04c59;opacity:0;}.cls-2,.cls-3{fill:none;stroke:#445d82;stroke-linecap:round;stroke-linejoin:round;}.cls-2{stroke-width:2px;}</style></defs><g id="_16_Sick_Child" data-name="16_Sick Child"><rect id="Container" class="cls-1" width="16" height="16"/><path class="cls-2" d="M3,11.8a8.22,8.22,0,0,0,3.19,2.54c4,1.79,8.23-.28,8.72-3.45a4.58,4.58,0,0,0,0-1.08c-.1-1.11-.77-1.37-1.11-1.93a1.34,1.34,0,0,1-.21-.6C13.53,6,14,5,13.43,3.76a2.59,2.59,0,0,0-1.49-1.48"/><path class="cls-3" d="M12.27,11.41a2.07,2.07,0,0,0-3.22,1.26"/><path class="cls-3" d="M7.46,5.91a5.11,5.11,0,0,0-1.81.68"/><path class="cls-3" d="M11,5.35a2.82,2.82,0,0,1,2.14.53"/><path class="cls-2" d="M3,9c-3.47-.36-2,4.52,1,2.05"/><path class="cls-3" d="M9.06,8.41c.78-.11,1.15.24,1.06.89"/><ellipse class="cls-2" cx="6.89" cy="8.37" rx="0.24" ry="0.36"/><ellipse class="cls-2" cx="11.19" cy="7.47" rx="0.19" ry="0.36"/><path class="cls-3" d="M9.46,3.5A2.86,2.86,0,0,0,11.84.68"/><path class="cls-2" d="M9.4,1c-2.34,1.23-3.88.2-5.86,1.67A5.28,5.28,0,0,0,1.33,9.05"/></g></svg>