<svg xmlns="http://www.w3.org/2000/svg" width="16" height="16" viewBox="0 0 16 16"><defs><style>.cls-1,.cls-2{fill:none;stroke:#445d82;stroke-linecap:round;stroke-linejoin:round;}.cls-2{stroke-width:2px;}.cls-3{fill:#d93644;fill-opacity:0;}</style></defs><g id="_16_Special_Day" data-name="16_Special Day"><line class="cls-1" x1="13.46" y1="5.49" x2="1.63" y2="5.55"/><path class="cls-1" d="M8.32,7.7l.37.76a.37.37,0,0,0,.3.19l.84.12a.34.34,0,0,1,.16.59l-.6.59a.33.33,0,0,0-.11.31l.15.82a.36.36,0,0,1-.52.37l-.75-.39a.38.38,0,0,0-.33,0l-.75.39a.35.35,0,0,1-.51-.37l.14-.82a.32.32,0,0,0-.1-.31L6,9.36a.34.34,0,0,1,.19-.59L7,8.65a.36.36,0,0,0,.27-.19l.37-.76A.36.36,0,0,1,8.32,7.7Z"/><path id="Rectangle_271" data-name="Rectangle 271" class="cls-2" d="M4.72,2C6.93,2,10,1.86,11.39,2a2.87,2.87,0,0,1,2.66,2.67c.09,1.79.13,5.33,0,6.66s-.46,2.59-2.66,2.67c-2.43.09-5.25.1-6.67,0-1.15-.08-2.57,0-2.67-2.67s0-5.19,0-6.66S2.51,2,4.72,2Z"/><line id="Line_373" data-name="Line 373" class="cls-2" x1="5.05" y1="1" x2="5.05" y2="3"/><line id="Line_374" data-name="Line 374" class="cls-2" x1="11.05" y1="1" x2="11.05" y2="2.86"/><path id="Container" class="cls-3" d="M0,0H16V16H0Z"/></g></svg>