<svg xmlns="http://www.w3.org/2000/svg" width="16" height="16" viewBox="0 0 16 16"><defs><style>.cls-1{fill:#e04c59;}.cls-1,.cls-4{fill-opacity:0;}.cls-2,.cls-3{fill:none;stroke:#445d82;stroke-linecap:round;stroke-linejoin:round;}.cls-2{stroke-width:2px;}.cls-4{fill:#d93644;}</style></defs><g id="_16_Roster" data-name="16_Roster"><rect id="Container" class="cls-1" x="-0.05" width="16" height="16"/><path id="Rectangle_271" data-name="Rectangle 271" class="cls-2" d="M6,14l-1.28-.05c-1.14-.08-2.54,0-2.64-2.64s0-5.14,0-6.6S2.5,2.06,4.69,2.06s5.21-.14,6.6,0A2.84,2.84,0,0,1,13.93,4.7c0,.36,0,.8.05,1.27"/><line id="Line_373" data-name="Line 373" class="cls-2" x1="5" y1="1" x2="5" y2="3"/><line id="Line_374" data-name="Line 374" class="cls-2" x1="11" y1="1" x2="11" y2="2.86"/><path class="cls-3" d="M10.42,5.53c.29.28.85,0,.48-.42S10.1,5.21,10.42,5.53Z"/><path class="cls-3" d="M7.74,5.53c.18.36.92-.06.48-.42S7.53,5.11,7.74,5.53Z"/><path class="cls-3" d="M7.7,8.2c.17.33.88,0,.52-.42S7.54,7.88,7.7,8.2Z"/><path class="cls-3" d="M5.07,8.19c.18.37.77.11.54-.4C5.49,7.52,4.86,7.78,5.07,8.19Z"/><path class="cls-3" d="M5.07,10.86c.18.36.92-.24.41-.48S4.86,10.45,5.07,10.86Z"/><circle class="cls-3" cx="12" cy="12" r="3.49"/><circle class="cls-3" cx="12.11" cy="12.04" r="0.41"/><path class="cls-3" d="M12.18,11.6,12,10.23c0,.21-.09,1-.14,1.4"/><path class="cls-3" d="M12.51,11.91l1.41.2c-.47,0-1.16.17-1.39.16"/><path id="Container-2" data-name="Container" class="cls-4" d="M0,0H16V16H0Z"/></g></svg>