<svg xmlns="http://www.w3.org/2000/svg" width="16" height="16" viewBox="0 0 16 16"><defs><style>.cls-1{fill:#d93644;fill-opacity:0;}.cls-2,.cls-3{fill:none;stroke:#445d82;stroke-linecap:round;stroke-linejoin:round;}.cls-2{stroke-width:2px;}</style></defs><g id="_16_Single_Selection" data-name="16_Single Selection"><rect id="Container" class="cls-1" width="16" height="16"/><line class="cls-2" x1="10" y1="3.05" x2="14" y2="3.05"/><line class="cls-2" x1="10" y1="6.05" x2="12.4" y2="6.05"/><line class="cls-2" x1="10" y1="11.05" x2="14" y2="11.05"/><line class="cls-2" x1="10" y1="14.05" x2="12.4" y2="14.05"/><path class="cls-2" d="M6,4.87C6,5.9,5.73,6,4.65,6c0,0-2.23.06-2.73,0C1.57,6,1.07,6,1.05,5a25.29,25.29,0,0,1,0-2.8c.06-.64.19-1,.88-1.08.24,0,.65,0,1.1,0"/><path class="cls-3" d="M3.21,3s.6.68.91.68,2.33-3,2.33-3"/><path class="cls-2" d="M1,11.16c.06-.64.19-1,.88-1.08a28.44,28.44,0,0,1,3.21,0c.35.05.82.15.86.85S6,13,6,13.69C6,14.89,5.79,15,4.65,15c0,0-2.23.06-2.73,0-.35,0-.85,0-.87-1.08A25.29,25.29,0,0,1,1,11.16Z"/></g></svg>