<svg xmlns="http://www.w3.org/2000/svg" width="16" height="16" viewBox="0 0 16 16"><defs><style>.cls-1{fill:#d7df23;opacity:0;}.cls-2,.cls-3,.cls-4{fill:none;stroke:#445d82;}.cls-2{stroke-miterlimit:10;}.cls-2,.cls-4{stroke-width:2px;}.cls-3,.cls-4{stroke-linecap:round;stroke-linejoin:round;}</style></defs><g id="_14_Sickness" data-name="14_Sickness"><rect id="Container" class="cls-1" width="16" height="16"/><path class="cls-2" d="M9.25,12.81a20.19,20.19,0,0,1,3.27-3.63,1.5,1.5,0,0,1,2.15,2.08,16.83,16.83,0,0,1-3.22,3.42A1.47,1.47,0,0,1,9.25,12.81Z"/><path class="cls-3" d="M11.3,10.31a2.08,2.08,0,0,0,2.24,2.36"/><path class="cls-4" d="M5.92,15c-2.77-.07-4.74-.63-4.81-1.64a34.14,34.14,0,0,1,0-6C1.31,6.2,3.37,5.43,3.37,5c-.82-.13-.9-.28-1.06-.54a3.87,3.87,0,0,1,0-2.88c.27-.72,6.85-.71,7.36.05a3.36,3.36,0,0,1,0,2.88c-.17.25-.14.43-.79.55,0,.31.86.8,1.53,1.36"/><path class="cls-3" d="M8.72,4.55a20,20,0,0,1-5.06,0"/><line class="cls-3" x1="6.51" y1="11.49" x2="6.51" y2="7.47"/><path class="cls-3" d="M4.48,9.48a9.92,9.92,0,0,0,4.06,0"/></g></svg>