<svg xmlns="http://www.w3.org/2000/svg" width="16" height="16" viewBox="0 0 16 16"><defs><style>.cls-1{fill:#d93644;fill-opacity:0;}.cls-2{fill:none;stroke:#445d82;stroke-linecap:round;stroke-linejoin:round;stroke-width:2px;}</style></defs><g id="_16_Special_Approved" data-name="16_Special Approved"><rect id="Container" class="cls-1" width="16" height="16"/><path class="cls-2" d="M9.69,6.61C8.82,7.72,8.24,8.38,7.47,9.39c-.15.19-.23.24-.44.23S6.63,9.37,6.4,9c-.13-.2-.28-.44-.44-.74"/><path class="cls-2" d="M8,1.94A9.34,9.34,0,0,1,10.9,1c.76.07,1.39,2.69,1.39,2.69S14.91,4.59,15,5.1A12.48,12.48,0,0,1,14.06,8,16.77,16.77,0,0,1,15,10.9c-.08.35-2.71,1.39-2.71,1.39S11.43,14.88,10.9,15A11.07,11.07,0,0,1,8,14.06S6,15.14,5.1,15s-1.39-2.69-1.39-2.69S1.12,11.36,1,10.9C.86,10,1.94,8,1.94,8S.86,5.45,1,5.09A12.75,12.75,0,0,1,3.71,3.71S4.63,1.15,5.09,1A11.76,11.76,0,0,1,8,1.94Z"/></g></svg>