<svg xmlns="http://www.w3.org/2000/svg" width="16" height="16" viewBox="0 0 16 16"><defs><style>.cls-1,.cls-2{fill:none;stroke:#445d82;stroke-linecap:round;stroke-linejoin:round;}.cls-1{stroke-width:2px;}</style></defs><g id="_16_Translate" data-name="16_Translate"><path class="cls-1" d="M7,9.06a22,22,0,0,0,.17,3.31c.24,1,.47,1.58,1.51,1.59a28.82,28.82,0,0,0,5.49-.18c.38-.12.6-.88.73-1.74s.42-5.13-.43-5.71C13.82,5.91,11.8,6,10.1,6"/><path class="cls-2" d="M4.5,5A6.33,6.33,0,0,0,7,6.59"/><path class="cls-2" d="M4,6.58A5.25,5.25,0,0,0,7,3.49H4"/><line class="cls-2" x1="5.5" y1="3.47" x2="5.5" y2="2.95"/><polyline class="cls-2" points="9.53 11.48 10.99 8.57 12.49 11.48"/><line class="cls-2" x1="9.98" y1="10.98" x2="12" y2="10.98"/><path class="cls-1" d="M1.64,1.45c1-.66,5.71-.44,6.59-.29A1.89,1.89,0,0,1,10,3a21.17,21.17,0,0,1-.15,3.56,2.82,2.82,0,0,1-2.7,2.36C6.44,9,3.4,9.27,2,8.58c-.55-.28-.78-.75-.91-1.6S.79,2,1.64,1.45Z"/><line class="cls-1" x1="12.01" y1="15" x2="12" y2="14.08"/><path class="cls-1" d="M4,10a8,8,0,0,0,0-.88"/></g></svg>