<svg xmlns="http://www.w3.org/2000/svg" width="16" height="16" viewBox="0 0 16 16"><defs><style>.cls-1,.cls-2{fill:none;stroke:#445d82;stroke-linecap:round;stroke-linejoin:round;}.cls-1{stroke-width:2px;}.cls-3{fill:#d93644;fill-opacity:0;}</style></defs><g id="_14_Time_Report" data-name="14_Time Report"><path id="Rectangle_271" data-name="Rectangle 271" class="cls-1" d="M6,14l-1.29-.05c-1.13-.08-2.54,0-2.64-2.64s0-5.14,0-6.6.46-2.64,2.64-2.64,5.22-.14,6.6,0A2.84,2.84,0,0,1,13.93,4.7C14,5.06,14,6.57,14,7"/><line id="Line_373" data-name="Line 373" class="cls-1" x1="5.01" y1="1" x2="5.01" y2="3"/><line id="Line_374" data-name="Line 374" class="cls-1" x1="11.01" y1="1" x2="11.01" y2="2.86"/><path class="cls-2" d="M10.43,5.53c.28.28.84,0,.48-.42S10.11,5.21,10.43,5.53Z"/><path class="cls-2" d="M7.74,5.53c.18.36.92-.06.48-.42S7.53,5.11,7.74,5.53Z"/><path class="cls-2" d="M7.7,8.2c.17.33.89,0,.52-.42S7.54,7.88,7.7,8.2Z"/><path class="cls-2" d="M5.07,8.19c.18.37.78.11.54-.4C5.49,7.52,4.87,7.78,5.07,8.19Z"/><path class="cls-2" d="M5.07,10.86c.18.36.93-.24.42-.48S4.87,10.45,5.07,10.86Z"/><path class="cls-2" d="M8.47,12c0-1.08,2-2.51,3.51-2.51s3.51,1.43,3.51,2.55S13.44,14.5,12,14.5,8.47,13.07,8.47,12Z"/><path class="cls-2" d="M12,11.44a.61.61,0,0,1,.62.59.62.62,0,0,1-1.24,0"/><path id="Container" class="cls-3" d="M0,0H16V16H0Z"/></g></svg>