<svg xmlns="http://www.w3.org/2000/svg" width="16" height="16" viewBox="0 0 16 16"><defs><style>.cls-1{fill:#d93644;fill-opacity:0;}.cls-2{fill:none;stroke:#445d82;stroke-linecap:round;stroke-linejoin:round;stroke-width:2px;}</style></defs><g id="_16_Tie" data-name="16_Tie"><rect id="Container" class="cls-1" width="16" height="16"/><path class="cls-2" d="M5.83,1.15a12.38,12.38,0,0,1,3.89,0c.28.2-.25,2.32-.59,2.6a4.06,4.06,0,0,1-2.75,0C6,3.38,5.54,1.37,5.83,1.15Z"/><path class="cls-2" d="M6.46,3.87a43.27,43.27,0,0,0-1.46,8C5,13.09,7.06,15,7.75,15s2.76-1.94,2.76-3.18A74.81,74.81,0,0,0,9,4"/><path class="cls-2" d="M9.42,3.62S9.88,5.71,13,7.31l-1,1.56A11.11,11.11,0,0,1,9.67,6.65"/></g></svg>