<svg xmlns="http://www.w3.org/2000/svg" width="16" height="16" viewBox="0 0 16 16"><defs><style>.cls-1{fill:#e04c59;opacity:0;}.cls-2,.cls-3,.cls-4{fill:none;stroke:#445d82;stroke-width:2px;fill-rule:evenodd;}.cls-2,.cls-4{stroke-linecap:round;}.cls-2,.cls-3{stroke-miterlimit:10;}.cls-4{stroke-linejoin:round;}</style></defs><g id="_16_User_Connection" data-name="16_User Connection"><rect id="Container" class="cls-1" width="16" height="16"/><path class="cls-2" d="M10,15c-4.14.17-9-.13-9-1.15,0-3.5,5.17-2.13,5.17-6.58"/><path class="cls-3" d="M8,8c1.43,0,3-1.36,3-4A2.69,2.69,0,0,0,8,1,2.69,2.69,0,0,0,5,4C5,6.64,6.57,8,8,8Z"/><polyline class="cls-4" points="14.04 14.04 10.27 11.47 14.04 8.9"/><path class="cls-3" d="M13.1,9A1,1,0,0,0,15,8.87C14.71,7.3,12.91,8.32,13.1,9Z"/><path class="cls-3" d="M9.05,11.47c.41,1.39,2.2.88,1.88-.15A.94.94,0,0,0,9.05,11.47Z"/><path class="cls-3" d="M13.06,14.14c.51,1.35,2,.91,1.89-.15C14.83,12.23,12.79,13.44,13.06,14.14Z"/></g></svg>