<svg xmlns="http://www.w3.org/2000/svg" width="16" height="16" viewBox="0 0 16 16"><defs><style>.cls-1{fill:#e04c59;opacity:0;}.cls-2,.cls-3,.cls-4{fill:none;stroke:#445d82;stroke-linecap:round;stroke-width:2px;}.cls-2{stroke-miterlimit:10;}.cls-2,.cls-3{fill-rule:evenodd;}.cls-3,.cls-4{stroke-linejoin:round;}</style></defs><g id="_16_User_List" data-name="16_User List"><rect id="Container" class="cls-1" width="16" height="16"/><path class="cls-2" d="M6,15c-2.72-.12-5-.49-5-1.1,0-3.33,5.27-2.07,5.27-6.31"/><path class="cls-3" d="M10.65,6A5.38,5.38,0,0,0,11,4,2.68,2.68,0,0,0,8,1,2.68,2.68,0,0,0,5,4,4.13,4.13,0,0,0,6.42,7.45"/><line class="cls-4" x1="11.94" y1="9.02" x2="14.95" y2="9.02"/><line class="cls-4" x1="8.99" y1="8.99" x2="8.99" y2="8.99"/><line class="cls-4" x1="11.94" y1="12.07" x2="14.95" y2="12.07"/><line class="cls-4" x1="8.99" y1="12.04" x2="8.99" y2="12.04"/><line class="cls-4" x1="11.94" y1="14.98" x2="14.95" y2="14.98"/><line class="cls-4" x1="8.99" y1="14.95" x2="8.99" y2="14.95"/></g></svg>