<svg xmlns="http://www.w3.org/2000/svg" width="16" height="16" viewBox="0 0 16 16"><defs><style>.cls-1{opacity:0;}.cls-2{fill:#e04c59;}.cls-3,.cls-4{fill:none;stroke:#445d82;}.cls-3{stroke-miterlimit:10;stroke-width:2px;}.cls-4{stroke-linecap:round;stroke-linejoin:round;}</style></defs><g id="_16_Video" data-name="16_Video"><g id="Container" class="cls-1"><rect class="cls-2" width="16" height="16"/></g><path class="cls-3" d="M12.26,14.88a76.19,76.19,0,0,1-8.56,0,2.67,2.67,0,0,1-2.58-2.77A71.3,71.3,0,0,1,1.12,4C1.24,2.13,2,1.31,3.7,1.18a51,51,0,0,1,8.56,0c1.62.16,2.42,1,2.58,2.78a51.51,51.51,0,0,1,0,8.15A2.69,2.69,0,0,1,12.26,14.88Z"/><path class="cls-3" d="M6.11,5.58A14.06,14.06,0,0,0,6,8.26c.07.67.46.87,1.08.66A9.14,9.14,0,0,0,9.69,7.64c.51-.39.35-.92-.17-1.27a11.09,11.09,0,0,0-2.4-1.31C6.56,4.88,6.19,5.12,6.11,5.58Z"/><path class="cls-4" d="M4.28,12.5h7.44"/></g></svg>