<svg xmlns="http://www.w3.org/2000/svg" width="16" height="16" viewBox="0 0 16 16"><defs><style>.cls-1{fill:#d7df23;opacity:0;}.cls-2,.cls-3{fill:none;stroke:#445d82;stroke-linecap:round;stroke-linejoin:round;}.cls-2{stroke-width:2px;}</style></defs><g id="_16_Vacation-2" data-name="16_Vacation"><rect id="Container" class="cls-1" width="16" height="16"/><path class="cls-2" d="M2,11.71c0,1-.05,3,1.6,3.19a55.42,55.42,0,0,0,7.13,0c.58-.1,1.94-.06,2.08-2C13,10.4,13,5.2,13,5.2s.24-1.79-2-1.78H3.73s-1.42-.1-1.6,1.81A52.43,52.43,0,0,0,2,11.71Z"/><path class="cls-2" d="M12.84,13.86c1-.42,1.05-.5,1.05-.5s1.82-.55.79-2.89c-.54-1.22-.95-2.32-1.68-4"/><path class="cls-2" d="M11.49,3.46l-.45-1s-.7-2-2.43-1.28c-1.34.55-4,1.74-5.23,2.27"/><path class="cls-3" d="M9,8A1.54,1.54,0,0,1,6,8,1.51,1.51,0,0,1,7.48,6.5,1.55,1.55,0,0,1,9,8Z"/><path class="cls-3" d="M8.43,8c0,.82-.42,1.5-.95,1.5S6.54,8.83,6.54,8,7,6.5,7.48,6.5,8.39,7.18,8.43,8Z"/><line class="cls-3" x1="7.48" y1="6.62" x2="7.48" y2="9.5"/><path class="cls-3" d="M6,8A8.27,8.27,0,0,0,8.94,8"/><line class="cls-3" x1="5.49" y1="11.49" x2="9.48" y2="11.49"/></g></svg>