<svg xmlns="http://www.w3.org/2000/svg" width="16" height="16" viewBox="0 0 16 16"><defs><style>.cls-1{fill:#c2d5ef;opacity:0;}.cls-2,.cls-3{fill:none;stroke:#445d82;stroke-linecap:round;stroke-linejoin:round;}.cls-3{stroke-width:2px;}</style></defs><g id="_16_Vacation" data-name="16_Vacation"><rect id="_Container_" data-name="&lt;Container&gt;" class="cls-1" width="16" height="16"/><path class="cls-2" d="M8.22,3.57S12.75,5.8,9.44,9.23c0,0-4.52-1.74-1.45-5.66"/><path class="cls-2" d="M10.45,5.67a5.18,5.18,0,0,1,4,.84S14-.16,7.8,3.35"/><path class="cls-2" d="M7.47,3.65a3.8,3.8,0,0,0-3.31-.54c-2.32.62-3.11,4.24-3,4.38"/><path class="cls-3" d="M6.11,6.92a9.49,9.49,0,0,0-.42,7.15"/><path class="cls-3" d="M6.52,7.49a7.74,7.74,0,0,0,1.72,5.88"/><path class="cls-2" d="M7.8,2.63A3.36,3.36,0,0,0,4.65,1,3.57,3.57,0,0,0,1.54,4.88"/><path class="cls-2" d="M2,14.94C1,14.94.5,14.35.5,14c0-.94,1.63-2,4.52-2.16"/><path class="cls-2" d="M13.53,15.47c1.32-.11,2-.86,2-1.41,0-1.05-1.36-2-3.87-2.34a22.52,22.52,0,0,0-3.71-.22"/><path class="cls-2" d="M4,3.13C1.71,3.75,1.11,7,1,7.51c2.85-2.42,4.69,0,6.26-3"/></g></svg>