<svg xmlns="http://www.w3.org/2000/svg" width="16" height="16" viewBox="0 0 16 16"><defs><style>.cls-1{fill:#d93644;fill-opacity:0;}.cls-2,.cls-3{fill:none;stroke:#445d82;stroke-linecap:round;stroke-linejoin:round;}.cls-2{stroke-width:2px;}</style></defs><g id="_16_Vacation_Suitcase" data-name="16_Vacation Suitcase"><rect id="Container" class="cls-1" width="16" height="16"/><path class="cls-2" d="M4.51,3C3.15,3,1.43,3,1.24,4.32a54.29,54.29,0,0,0-.11,8.81C1.28,14.25,2,14.87,3.61,15s10-.17,10.08-.21,1.07.19,1.2-1.95.12-6.5.08-7.2S14.52,3,12.78,3,5.6,3,4.51,3Z"/><path class="cls-3" d="M1.89,12S4,12.43,4,14.3"/><path class="cls-3" d="M3.57,4.15A1.92,1.92,0,0,1,1.4,6.36"/><path class="cls-3" d="M12,14.1s.42-2.1,2.26-2.1"/><path class="cls-3" d="M14.63,6.3a1.91,1.91,0,0,1-2.21-2"/><path class="cls-2" d="M8,7.37C8,9.09,6,10,6,10L5,8.51A5.55,5.55,0,0,0,6.7,7Z"/><path class="cls-3" d="M9.51,4A3.45,3.45,0,0,0,7.64,6.44"/><path class="cls-3" d="M5,3C5,1.74,5,1,8.13,1c2.65,0,3,.47,2.87,2"/></g></svg>