<svg xmlns="http://www.w3.org/2000/svg" width="16" height="16" viewBox="0 0 16 16"><defs><style>.cls-1{fill:#c5d5ed;opacity:0;}.cls-2,.cls-3,.cls-4{fill:none;stroke:#445d82;stroke-linecap:round;stroke-linejoin:round;}.cls-2{stroke-dasharray:2 4;}.cls-3{stroke-width:2px;}</style></defs><g id="_16_Woriking_Time" data-name="16_Woriking Time"><rect id="_Container_" data-name="&lt;Container&gt;" class="cls-1" width="16" height="16"/><path class="cls-2" d="M3.33,2.78A6.91,6.91,0,0,1,8,1a6.94,6.94,0,0,1,4.16,1.34"/><path class="cls-2" d="M1.4,5.66C1.59,5,2,3.76,2.66,3.42"/><path class="cls-3" d="M12.79,13.24A7.23,7.23,0,0,1,8,15,6.64,6.64,0,0,1,1,8"/><path class="cls-2" d="M13.42,3.22C14.52,4.31,14.94,6.59,15,8a6.53,6.53,0,0,1-2.21,5.24"/><circle class="cls-4" cx="8.49" cy="7.02" r="0.75"/><path class="cls-4" d="M11.8,10C11.46,9.54,10,7.86,9.45,7.12l-.56.66Z"/><path class="cls-4" d="M4,7.74c1.24-.23,3-.94,3.62-1l.23.94Z"/></g></svg>