<?xml version="1.0" encoding="UTF-8"?><svg id="c" xmlns="http://www.w3.org/2000/svg" width="24" height="24" viewBox="0 0 24 24"><g><path d="M9.99,23.07C4.73,22.12,.75,17.52,.75,12,.75,5.79,5.79,.75,12,.75s11.25,5.04,11.25,11.25c0,.77-.08,1.52-.22,2.24" style="fill:none; stroke:#445d82; stroke-linecap:round; stroke-miterlimit:10; stroke-width:1.5px;"/><path d="M6.75,8.75c1,.25,4.24,1,5.25,1s4.45-.67,5.25-1" style="fill:none; stroke:#445d82; stroke-linecap:round; stroke-linejoin:round; stroke-width:1.5px;"/><path d="M12.51,13.48c-.27-.15-.54-.19-.92,.03s-2.35,5.25-2.35,5.25" style="fill:none; stroke:#445d82; stroke-linecap:round; stroke-linejoin:round; stroke-width:1.5px;"/><path d="M12.07,4.75c1.12-.16,.75,1.54,0,1.54-.84,0-1.31-1.3,0-1.5" style="fill:none; stroke:#445d82; stroke-linecap:round; stroke-miterlimit:10; stroke-width:1.5px;"/><path d="M12.51,13.63c-.02-.31-.13-2.82-.02-3.68" style="fill:none; stroke:#445d82; stroke-linecap:round; stroke-linejoin:round; stroke-width:1.5px;"/><path d="M11.46,9.81c.09,.74,.2,3.36,.09,3.64" style="fill:none; stroke:#445d82; stroke-linecap:round; stroke-linejoin:round; stroke-width:1.5px;"/></g><path d="M14.15,16.37c1.39-.1,4.47-.16,6.57-.02,.75,.05,1.29,.51,1.41,1.21,.21,1.29,.07,2.74-.02,4.11-.06,.88-.53,1.35-1.47,1.46-1.12,.14-4.4,.11-6.11,.1-1.13,0-1.57-.51-1.61-.83-.21-1.69-.24-3.12-.04-4.84,.07-.58,.47-1.14,1.28-1.19Z" style="fill:none; stroke:#445d82; stroke-linecap:round; stroke-linejoin:round; stroke-width:1.5px;"/><path d="M14.83,16.27c-.14-1.5-.1-2.83,.5-3.58,1-1.24,3.3-1.29,4.36,0,.58,.71,.53,1.96,.55,3.57" style="fill:none; stroke:#445d82; stroke-linecap:round; stroke-linejoin:round; stroke-width:1.5px;"/><path d="M17.48,19.51c-.12,.12,.14,1,.02,1.19" style="fill:none; stroke:#445d82; stroke-linecap:round; stroke-linejoin:round; stroke-width:1.5px;"/></svg>