<?xml version="1.0" encoding="UTF-8"?><svg id="ek" xmlns="http://www.w3.org/2000/svg" width="24" height="24" viewBox="0 0 24 24"><path d="M22.22,13.15c-.08,5.64-4.37,9.93-10.37,10.07S1.68,18.51,1.76,12.87c.08-5.64,3.85-10.16,10.37-10.07,5.65,.08,10.17,4.71,10.09,10.35Z" style="fill:none; stroke:#445d82; stroke-linecap:round; stroke-linejoin:round; stroke-width:1.5px;"/><path d="M13.64,8.88c-.43,.37-.81,1.86-1.21,2.82" style="fill:none; stroke:#445d82; stroke-linecap:round; stroke-linejoin:round; stroke-width:1.5px;"/><path d="M15.68,15.6c-.47-.52-2.09-2.04-2.8-2.38" style="fill:none; stroke:#445d82; stroke-linecap:round; stroke-linejoin:round; stroke-width:1.5px;"/><path d="M14.58,9.82c.32-.18-.05-1.54-.11-1.86-.05-.24-.29-.33-.51-.24-.37,.14-1.66,.63-1.59,.99" style="fill:none; stroke:#445d82; stroke-linecap:round; stroke-linejoin:round; stroke-width:1.5px;"/><path d="M15.11,16.02c.06,.24,.99,.14,1.2,.11,.16-.02,.27-.24,.23-.4-.05-.19-.17-1.02-.39-.97" style="fill:none; stroke:#445d82; stroke-linecap:round; stroke-linejoin:round; stroke-width:1.5px;"/><path d="M11.48,19.73c.03,.32,0,.63,.01,.86" style="fill:none; stroke:#445d82; stroke-linecap:round; stroke-linejoin:round; stroke-width:1.5px;"/><path d="M11.63,12.63c-.1-.59,.8-.52,.87-.14,.09,.52-.78,.69-.87,.15" style="fill:none; stroke:#445d82; stroke-linecap:round; stroke-linejoin:round; stroke-width:1.5px;"/><path d="M19.68,12.53c-.43,0-.96,.03-1.17,.07" style="fill:none; stroke:#445d82; stroke-linecap:round; stroke-linejoin:round; stroke-width:1.5px;"/><path d="M5.55,12.57c-.33,.02-1.03-.04-1.25-.04" style="fill:none; stroke:#445d82; stroke-linecap:round; stroke-linejoin:round; stroke-width:1.5px;"/><path d="M22.65,5.77c2.46-4.12-3.44-6.51-4.85-3.97-.67,1.21,4.44,4.65,4.85,3.97Z" style="fill:none; stroke:#445d82; stroke-linecap:round; stroke-linejoin:round; stroke-width:1.5px;"/><line x1="12.72" y1="3.01" x2="12.84" y2="1.81" style="fill:none; stroke:#445d82; stroke-linecap:round; stroke-linejoin:round; stroke-width:1.5px;"/><path d="M13.04,1.21c.15,1.27-2.28,.92-2.05-.2,.1-.48,2.01-.16,2.05,.22" style="fill:none; stroke:#445d82; stroke-linecap:round; stroke-linejoin:round; stroke-width:1.5px;"/><path d="M5.4,21.49c-.52,.53-2.33,1.96-2.61,1.73s.28-1.85,.74-3.72" style="fill:none; stroke:#445d82; stroke-linecap:round; stroke-linejoin:round; stroke-width:1.5px;"/><path d="M1.36,5.79C-1.1,1.67,4.8-.72,6.21,1.82c.67,1.21-4.44,4.65-4.85,3.97Z" style="fill:none; stroke:#445d82; stroke-linecap:round; stroke-linejoin:round; stroke-width:1.5px;"/><path d="M18.48,21.49c.52,.53,2.33,1.96,2.61,1.73s-.28-1.85-.74-3.72" style="fill:none; stroke:#445d82; stroke-linecap:round; stroke-linejoin:round; stroke-width:1.5px;"/></svg>