<?xml version="1.0" encoding="UTF-8"?><svg id="gb" xmlns="http://www.w3.org/2000/svg" width="24" height="24" viewBox="0 0 24 24"><path d="M18.24,18.04c-.6-.47-1.27-1.28-1.88-2.69" style="fill:none; stroke:#445d82; stroke-linecap:round; stroke-linejoin:round; stroke-width:1.5px;"/><path d="M15.66,3.19c.77-2.03,1.61-2.42,2.34-2.42,1.32,0,4.28,2.36,5.07,9.59,.89,8.14-2,8.62-2.47,8.63-.21,0-.98,.09-1.9-.63" style="fill:none; stroke:#445d82; stroke-linecap:round; stroke-linejoin:round; stroke-width:1.5px;"/><path d="M15.43,10.67c-.62-3.67-.35-6.01,.21-7.48" style="fill:none; stroke:#445d82; stroke-linecap:round; stroke-linejoin:round; stroke-width:1.5px;"/><path d="M18.73,18.38c-1.33-1.22-7.62-2.34-8.13-1.51-.6,.98-.77,3.99-.98,4.26-.3,.38-2.96-.37-3.28-.74-.82-.95-.92-4.49-1.11-4.55s-2.11-.31-2.59-.39-1.35-.08-1.75-2.39c-.4-2.32,.31-3.68,.73-4.16S12.5,6.29,15.46,3.3" style="fill:none; stroke:#445d82; stroke-linecap:round; stroke-linejoin:round; stroke-width:1.5px;"/><path d="M17.65,7.53c0,3.08,.93,7.4,2.61,8.07" style="fill:none; stroke:#445d82; stroke-linecap:round; stroke-linejoin:round; stroke-width:1.5px;"/></svg>