<?xml version="1.0" encoding="UTF-8"?><svg id="hk" xmlns="http://www.w3.org/2000/svg" width="24" height="24" viewBox="0 0 24 24"><path d="M9.24,20.44c-.28,.67-.76,1.78-1.35,1.78-1.31,0-1.46-1.7-2.44-2.7-.97-1-1.07-.68-2.12-1.09-1.43-.56-1.95-1.84-2.27-3.92C.74,12.39,.21,4.27,2.33,2.87c2.45-1.61,14.19-1.06,16.39-.7,2.37,.38,4.16,1.62,4.44,4.4,.06,.57,.06,2.99,.07,4.15" style="fill:none; stroke:#445d82; stroke-linecap:round; stroke-linejoin:round; stroke-width:1.5px;"/><path d="M6.9,10.79c.46-.9-.61-.93-.78-.62-.46,.83,.56,1.06,.77,.63" style="fill:none; stroke:#445d82; stroke-linecap:round; stroke-linejoin:round; stroke-width:1.5px;"/><path d="M12.14,10.79c.46-.9-.61-.93-.78-.62-.46,.83,.56,1.06,.77,.63" style="fill:none; stroke:#445d82; stroke-linecap:round; stroke-linejoin:round; stroke-width:1.5px;"/><circle cx="17.47" cy="17.47" r="5.78" style="fill:none; stroke:#445d82; stroke-linecap:round; stroke-linejoin:round; stroke-width:1.5px;"/><line x1="20.22" y1="17.47" x2="14.72" y2="17.47" style="fill:none; stroke:#445d82; stroke-linecap:round; stroke-linejoin:round; stroke-width:1.5px;"/><line x1="17.47" y1="20.22" x2="17.47" y2="14.72" style="fill:none; stroke:#445d82; stroke-linecap:round; stroke-linejoin:round; stroke-width:1.5px;"/></svg>