<svg width="24" height="24" viewBox="0 0 24 24" fill="none" xmlns="http://www.w3.org/2000/svg">
<path fill-rule="evenodd" clip-rule="evenodd" d="M7.00003 4.75C7.00003 4.33579 6.66425 4 6.25003 4C5.83582 4 5.50003 4.33579 5.50003 4.75V17.2881C5.10845 16.9004 4.66812 16.4173 4.23799 15.9229C3.73816 15.3485 3.26382 14.7724 2.91367 14.3389C2.73884 14.1224 2.59551 13.9421 2.49609 13.8163C2.44639 13.7534 2.4077 13.7041 2.38157 13.6707L2.35199 13.6328L2.34463 13.6234L2.34287 13.6211L2.34249 13.6206L2.34242 13.6205L2.34241 13.6205C2.08838 13.2934 1.61723 13.2341 1.29006 13.4881C0.962895 13.7421 0.903609 14.2133 1.15764 14.5405L1.75003 14.0805C1.15764 14.5405 1.15768 14.5405 1.15774 14.5406L1.15792 14.5408L1.15852 14.5416L1.1607 14.5444L1.16894 14.555L1.20037 14.5952C1.22777 14.6302 1.26783 14.6813 1.31898 14.746C1.42126 14.8755 1.56802 15.0601 1.74675 15.2814C2.10375 15.7234 2.59048 16.3146 3.10637 16.9076C3.61952 17.4973 4.1734 18.1025 4.66272 18.5653C4.90584 18.7952 5.14976 19.0061 5.37621 19.1642C5.48943 19.2433 5.6135 19.32 5.7428 19.3793C5.86312 19.4345 6.04183 19.5 6.25003 19.5C6.45824 19.5 6.63695 19.4345 6.75727 19.3793C6.88657 19.32 7.01064 19.2433 7.12386 19.1642C7.35031 19.0061 7.59423 18.7952 7.83735 18.5653C8.32667 18.1025 8.88055 17.4973 9.3937 16.9076C9.90959 16.3146 10.3963 15.7234 10.7533 15.2814C10.9321 15.0601 11.0788 14.8755 11.1811 14.746C11.2322 14.6813 11.2723 14.6302 11.2997 14.5952L11.3311 14.555L11.3394 14.5444L11.3416 14.5416L11.3422 14.5408L11.3423 14.5406C11.3424 14.5405 11.3424 14.5405 10.75 14.0805L11.3424 14.5405C11.5965 14.2133 11.5372 13.7421 11.21 13.4881C10.8828 13.2341 10.4117 13.2934 10.1576 13.6205L10.1576 13.6206L10.1572 13.6211L10.1554 13.6234L10.1481 13.6328L10.1185 13.6707C10.0924 13.7041 10.0537 13.7534 10.004 13.8163C9.90456 13.9421 9.76123 14.1224 9.5864 14.3389C9.23625 14.7724 8.76191 15.3485 8.26208 15.9229C7.83195 16.4173 7.39162 16.9004 7.00003 17.2881V4.75ZM18 18.75C18 19.1642 17.6642 19.5 17.25 19.5C16.8358 19.5 16.5 19.1642 16.5 18.75V6.21187C16.1084 6.59961 15.6681 7.08269 15.238 7.57705C14.7381 8.1515 14.2638 8.72761 13.9136 9.16113C13.7388 9.3776 13.5955 9.55785 13.4961 9.68372C13.4464 9.74664 13.4077 9.79593 13.3815 9.82932L13.352 9.86719L13.3446 9.87663L13.3428 9.87889L13.3425 9.87939L13.3424 9.87947L13.3424 9.87948C13.0883 10.2066 12.6172 10.2659 12.29 10.0119C11.9629 9.75785 11.9036 9.28669 12.1576 8.95953L12.75 9.4195C12.1576 8.95953 12.1576 8.95947 12.1577 8.9594L12.1579 8.95918L12.1585 8.9584L12.1607 8.95559L12.1689 8.94502L12.2003 8.90479C12.2277 8.86978 12.2678 8.81875 12.3189 8.75399C12.4212 8.62449 12.568 8.43994 12.7467 8.21864C13.1037 7.77664 13.5904 7.18537 14.1063 6.59245C14.6195 6.00268 15.1734 5.39751 15.6627 4.93472C15.9058 4.70477 16.1497 4.49393 16.3762 4.33577C16.4894 4.25669 16.6135 4.17999 16.7428 4.1207C16.8631 4.06553 17.0418 4 17.25 4C17.4582 4 17.6369 4.06553 17.7572 4.1207C17.8865 4.17999 18.0106 4.25669 18.1238 4.33577C18.3503 4.49393 18.5942 4.70477 18.8373 4.93472C19.3266 5.39751 19.8805 6.00268 20.3937 6.59245C20.9096 7.18537 21.3963 7.77664 21.7533 8.21864C21.932 8.43994 22.0788 8.62449 22.1811 8.75399C22.2322 8.81875 22.2723 8.86978 22.2997 8.90479L22.3311 8.94502L22.3393 8.95559L22.3415 8.9584L22.3421 8.95918L22.3423 8.9594C22.3424 8.95947 22.3424 8.95953 21.75 9.4195L22.3424 8.95953C22.5964 9.28669 22.5371 9.75785 22.21 10.0119C21.8828 10.2659 21.4116 10.2066 21.1576 9.87947L21.1576 9.87939L21.1572 9.87889L21.1554 9.87663L21.148 9.86719L21.1185 9.82932C21.0923 9.79593 21.0536 9.74664 21.0039 9.68372C20.9045 9.55785 20.7612 9.3776 20.5864 9.16113C20.2362 8.72761 19.7619 8.1515 19.262 7.57705C18.8319 7.08269 18.3916 6.59961 18 6.21187V18.75Z" fill="#494A4A"/>
</svg>
