<?xml version="1.0" encoding="UTF-8"?><svg id="fl" xmlns="http://www.w3.org/2000/svg" width="24" height="24" viewBox="0 0 24 24"><path d="M3.9,18.29c.17,3.01,2.29,3.84,4.06,3.92,1.77,.08,6.4,.06,8.16,0,1.77-.07,3.85-.33,4-2.8,.21-3.36,.15-8.03,.06-10.02-.06-1.25-.53-1.94-1.19-2.81s-2.79-2.96-3.71-3.63-1.83-1.12-2.87-1.15c-1.05-.02-3.31,0-5.14,.03s-3.27,.98-3.37,3.94c-.12,1.93-.18,9.27,0,12.53Z" style="fill:none; stroke:#445d82; stroke-miterlimit:10; stroke-width:1.5px;"/><line x1="9.25" y1="1.94" x2="9.25" y2="13.23" style="fill:none; stroke:#445d82; stroke-linecap:round; stroke-linejoin:round; stroke-width:1.5px;"/><path d="M10.28,17.72c0,1.34-2.06,1.37-2.06,0,0-1.05,1.03-1.36,1.03-3.13" style="fill:none; stroke:#445d82; stroke-linecap:round; stroke-linejoin:round; stroke-width:1.5px;"/><path d="M9.25,14.58c0,1.79,1.03,1.94,1.03,2.98" style="fill:none; stroke:#445d82; stroke-linecap:round; stroke-linejoin:round; stroke-width:1.5px;"/><line x1="6.73" y1="7.25" x2="8.9" y2="7.25" style="fill:none; stroke:#445d82; stroke-linecap:round; stroke-linejoin:round; stroke-width:1.5px;"/><line x1="9.27" y1="9.25" x2="11.25" y2="9.25" style="fill:none; stroke:#445d82; stroke-linecap:round; stroke-linejoin:round; stroke-width:1.5px;"/><line x1="6.79" y1="11.25" x2="8.85" y2="11.25" style="fill:none; stroke:#445d82; stroke-linecap:round; stroke-linejoin:round; stroke-width:1.5px;"/><line x1="9.25" y1="5.25" x2="11.31" y2="5.25" style="fill:none; stroke:#445d82; stroke-linecap:round; stroke-linejoin:round; stroke-width:1.5px;"/><path d="M20.2,10.54c-.09-.65,.07-2.43-2.17-2.29h-2.14c-1.18,0-2.14-.96-2.14-2.16V3.94c0-1.19-.96-2.16-2.14-2.16" style="fill:none; stroke:#445d82; stroke-linecap:round; stroke-linejoin:round; stroke-width:1.5px;"/></svg>