<?xml version="1.0" encoding="UTF-8"?><svg id="ci" xmlns="http://www.w3.org/2000/svg" width="24" height="24" viewBox="0 0 24 24"><path d="M22.03,9.87c.15,.69,.22,1.4,.22,2.14,0,5.65-4.59,10.24-10.24,10.24S1.77,17.66,1.77,12,6.36,1.77,12.01,1.77c3.09,0,5.85,1.36,7.73,3.52" style="fill:none; stroke:#445d82; stroke-linecap:round; stroke-linejoin:round; stroke-width:1.5px;"/><path d="M12.07,18.64c-.02,.56-.14,.87-.1,1.1" style="fill:none; stroke:#445d82; stroke-linecap:round; stroke-linejoin:round; stroke-width:1.5px;"/><path d="M19.75,11.51c-.75-.02-.79-.04-1.09-.01" style="fill:none; stroke:#445d82; stroke-linecap:round; stroke-linejoin:round; stroke-width:1.5px;"/><path d="M5.4,11.51c-.38,.03-.82-.06-1.13-.03" style="fill:none; stroke:#445d82; stroke-linecap:round; stroke-linejoin:round; stroke-width:1.5px;"/><path d="M9.08,10.36s1.62,2.67,2.93,2.67,7.73-7.74,7.73-7.74" style="fill:none; stroke:#445d82; stroke-linecap:round; stroke-linejoin:round; stroke-width:1.5px;"/></svg>