<svg width="24" height="24" viewBox="0 0 24 24" fill="none" xmlns="http://www.w3.org/2000/svg">
<path d="M8.98551 22.2398C9.3997 22.2447 9.73948 21.913 9.74444 21.4988C9.7494 21.0846 9.41766 20.7449 9.00347 20.7399L8.98551 22.2398ZM4.95449 21.3298L4.90679 22.0783L4.90946 22.0785L4.95449 21.3298ZM1.17449 17.2598L0.426948 17.3205L0.427083 17.3221L1.17449 17.2598ZM4.95449 1.25984L4.89515 0.51219L4.89347 0.512328L4.95449 1.25984ZM17.4845 1.25984L17.4073 2.00586L17.4092 2.00606L17.4845 1.25984ZM21.2645 5.32984L22.0119 5.26756L22.0117 5.26475L21.2645 5.32984ZM20.7446 9.52408C20.7525 9.93822 21.0946 10.2676 21.5087 10.2597C21.9229 10.2518 22.2522 9.90974 22.2444 9.4956L20.7446 9.52408ZM19.0245 12.3198L18.5167 11.7679L18.5088 11.7752L18.5011 11.7827L19.0245 12.3198ZM20.5045 12.3198L19.9742 12.8502L19.9758 12.8518L20.5045 12.3198ZM22.1645 13.9698L22.6948 13.4395L22.6932 13.4379L22.1645 13.9698ZM15.8145 21.8598L16.2133 22.495L16.214 22.4946L15.8145 21.8598ZM13.0645 22.4098L13.1163 21.6616L13.0904 21.6598H13.0645V22.4098ZM12.0245 21.3698H12.7745V21.3545L12.7739 21.3391L12.0245 21.3698ZM13.1445 18.0498L12.6211 17.5127L12.5978 17.5353L12.5767 17.5599L13.1445 18.0498ZM9.00347 20.7399C7.35166 20.7201 6.32585 20.661 4.99952 20.5812L4.90946 22.0785C6.24313 22.1587 7.29732 22.2196 8.98551 22.2398L9.00347 20.7399ZM5.00219 20.5814C4.13159 20.5259 3.42667 20.2269 2.91579 19.7093C2.40356 19.1903 2.02084 18.3848 1.9219 17.1976L0.427083 17.3221C0.548149 18.7749 1.03542 19.9394 1.84819 20.7629C2.66232 21.5878 3.73739 22.0038 4.9068 22.0783L5.00219 20.5814ZM1.92203 17.1992C1.64596 13.7976 1.74438 8.02681 1.92279 5.38029L0.426191 5.27939C0.244608 7.97288 0.143023 13.8221 0.42695 17.3205L1.92203 17.1992ZM1.92279 5.38029C2.00698 4.13148 2.31079 3.36216 2.76095 2.88096C3.20382 2.40754 3.89602 2.09874 5.01551 2.00735L4.89347 0.512328C3.56296 0.620941 2.45516 1.01214 1.66554 1.85622C0.883197 2.69252 0.522002 3.8582 0.426191 5.27939L1.92279 5.38029ZM5.01383 2.00749C8.76707 1.70961 13.6981 1.62215 17.4073 2.00586L17.5617 0.513822C13.7308 0.11753 8.70192 0.210068 4.89516 0.512192L5.01383 2.00749ZM17.4092 2.00606C18.4926 2.1153 19.1822 2.4281 19.6346 2.90883C20.0933 3.39627 20.4101 4.16416 20.5173 5.39494L22.0117 5.26475C21.8889 3.85552 21.5057 2.70842 20.7269 1.88085C19.9418 1.04658 18.8564 0.644385 17.5597 0.513626L17.4092 2.00606ZM20.5171 5.39213C20.6364 6.82379 20.715 7.9663 20.7446 9.52408L22.2444 9.4956C22.2139 7.89339 22.1326 6.71589 22.0119 5.26756L20.5171 5.39213ZM19.5323 12.8718C19.6647 12.75 19.7501 12.7426 19.78 12.7434C19.8132 12.7442 19.8821 12.7581 19.9742 12.8502L21.0348 11.7895C20.7169 11.4716 20.2958 11.2555 19.8165 11.2438C19.3338 11.232 18.8843 11.4297 18.5167 11.7679L19.5323 12.8718ZM19.9758 12.8518L21.6358 14.5018L22.6932 13.4379L21.0332 11.7879L19.9758 12.8518ZM21.6342 14.5002C21.6742 14.5402 21.6876 14.567 21.6923 14.5786C21.6967 14.5895 21.7006 14.6038 21.6998 14.6296C21.698 14.6916 21.6675 14.8239 21.5317 15.0372L22.7972 15.8425C23.0115 15.5058 23.186 15.1081 23.1991 14.6751C23.2132 14.2101 23.0382 13.7829 22.6948 13.4395L21.6342 14.5002ZM21.5317 15.0372C21.5344 15.033 21.5183 15.0571 21.4648 15.1233C21.417 15.1825 21.3523 15.2595 21.2712 15.3534C21.1093 15.5408 20.892 15.784 20.634 16.0666C20.1184 16.6312 19.4493 17.3427 18.7544 18.0607C18.0589 18.7792 17.3418 19.4995 16.7294 20.0832C16.095 20.6878 15.6298 21.0899 15.415 21.2251L16.214 22.4946C16.5792 22.2648 17.154 21.7507 17.7643 21.169C18.3965 20.5664 19.1288 19.8305 19.8321 19.104C20.5359 18.3769 21.215 17.6547 21.7416 17.0781C22.0046 16.7901 22.232 16.5357 22.4063 16.3339C22.565 16.1503 22.7183 15.9665 22.7972 15.8425L21.5317 15.0372ZM15.4157 21.2247C14.9586 21.5117 14.7641 21.6269 14.5426 21.6822L14.9064 23.1374C15.4049 23.0128 15.8104 22.748 16.2133 22.495L15.4157 21.2247ZM14.5426 21.6822C14.5535 21.6795 14.5388 21.6838 14.4841 21.6886C14.435 21.6929 14.3715 21.6962 14.2949 21.698C14.1418 21.7018 13.9607 21.6994 13.7823 21.6939C13.6053 21.6886 13.438 21.6804 13.3145 21.6736C13.253 21.6702 13.2028 21.6672 13.1682 21.665C13.151 21.6639 13.1376 21.6631 13.1288 21.6625C13.1244 21.6622 13.1211 21.662 13.119 21.6618C13.1179 21.6617 13.1172 21.6617 13.1167 21.6617C13.1165 21.6616 13.1163 21.6616 13.1163 21.6616C13.1162 21.6616 13.1162 21.6616 13.1162 21.6616C13.1162 21.6616 13.1162 21.6616 13.1162 21.6616C13.1163 21.6616 13.1163 21.6616 13.0645 22.4098C13.0127 23.1581 13.0127 23.1581 13.0128 23.1581C13.0128 23.1581 13.0128 23.1581 13.0129 23.1581C13.013 23.1581 13.0131 23.1581 13.0132 23.1581C13.0134 23.1581 13.0138 23.1581 13.0142 23.1582C13.015 23.1582 13.0161 23.1583 13.0175 23.1584C13.0203 23.1586 13.0244 23.1588 13.0296 23.1592C13.0399 23.1599 13.0549 23.1609 13.0739 23.162C13.1118 23.1644 13.166 23.1677 13.2319 23.1714C13.3635 23.1786 13.5437 23.1874 13.7367 23.1932C13.9283 23.1991 14.1397 23.2023 14.3316 23.1976C14.5019 23.1934 14.7267 23.1824 14.9064 23.1374L14.5426 21.6822ZM13.0645 21.6598C12.9034 21.6598 12.7745 21.5303 12.7745 21.3698H11.2745C11.2745 22.3493 12.0656 23.1598 13.0645 23.1598V21.6598ZM12.0245 21.3698C12.7739 21.3391 12.7739 21.3391 12.7739 21.3392C12.7739 21.3392 12.7739 21.3392 12.7739 21.3392C12.7739 21.3391 12.7739 21.3391 12.7739 21.3391C12.7739 21.339 12.7738 21.3388 12.7738 21.3386C12.7738 21.3381 12.7738 21.3373 12.7737 21.3363C12.7737 21.3342 12.7735 21.331 12.7734 21.3267C12.773 21.3181 12.7725 21.3053 12.7719 21.2888C12.7707 21.2556 12.769 21.2075 12.7671 21.1483C12.7632 21.0297 12.7587 20.8677 12.7556 20.693C12.7492 20.3221 12.7513 19.9623 12.7695 19.8065L11.2795 19.6332C11.2476 19.9074 11.2498 20.3725 11.2559 20.7192C11.2591 20.9033 11.2639 21.0731 11.2678 21.1967C11.2698 21.2586 11.2716 21.3091 11.273 21.3444C11.2736 21.362 11.2741 21.3759 11.2745 21.3854C11.2747 21.3901 11.2748 21.3938 11.275 21.3964C11.275 21.3977 11.275 21.3986 11.2751 21.3993C11.2751 21.3997 11.2751 21.4 11.2751 21.4002C11.2751 21.4003 11.2751 21.4004 11.2751 21.4004C11.2751 21.4004 11.2751 21.4005 11.2751 21.4005C11.2751 21.4005 11.2751 21.4006 12.0245 21.3698ZM12.7695 19.8065C12.7625 19.8666 12.748 19.8829 12.77 19.8344C12.7874 19.796 12.8171 19.7402 12.8616 19.6669C12.9505 19.5205 13.0723 19.3476 13.2025 19.1746C13.331 19.0039 13.4591 18.8443 13.5559 18.7266C13.604 18.668 13.6438 18.6205 13.6713 18.588C13.6851 18.5717 13.6957 18.5593 13.7027 18.5511C13.7062 18.547 13.7088 18.5439 13.7104 18.542C13.7112 18.5411 13.7118 18.5404 13.7121 18.5401C13.7123 18.5399 13.7124 18.5398 13.7124 18.5397C13.7124 18.5397 13.7124 18.5397 13.7124 18.5397C13.7124 18.5397 13.7124 18.5397 13.7124 18.5397C13.7123 18.5398 13.7123 18.5398 13.1445 18.0498C12.5767 17.5599 12.5766 17.5599 12.5766 17.56C12.5766 17.56 12.5765 17.56 12.5765 17.5601C12.5764 17.5602 12.5763 17.5603 12.5762 17.5604C12.576 17.5607 12.5757 17.561 12.5753 17.5614C12.5746 17.5623 12.5736 17.5634 12.5724 17.5648C12.57 17.5676 12.5666 17.5716 12.5622 17.5767C12.5535 17.5869 12.5411 17.6014 12.5255 17.6199C12.4943 17.6569 12.4501 17.7096 12.3972 17.774C12.2917 17.9023 12.1493 18.0795 12.004 18.2726C11.8604 18.4634 11.7054 18.681 11.5796 18.8881C11.5167 18.9916 11.4546 19.1031 11.4039 19.2148C11.3578 19.3165 11.299 19.4656 11.2795 19.6332L12.7695 19.8065ZM16.5859 14.6319L19.7259 17.7519L20.7831 16.6878L17.6431 13.5678L16.5859 14.6319ZM13.6679 18.587L19.5479 12.857L18.5011 11.7827L12.6211 17.5127L13.6679 18.587Z" fill="#494A4A"/>
</svg>
