<?xml version="1.0" encoding="UTF-8"?><svg id="h" xmlns="http://www.w3.org/2000/svg" width="24" height="24" viewBox="0 0 24 24"><rect id="i" width="24" height="24" style="fill:#e04c59; opacity:0; stroke:#445d82; stroke-miterlimit:10; stroke-width:0px;"/><path id="j" d="M11.25,22.25c-1.44-.01-3.99-.06-4.9-.12-1.94-.13-4.34,.02-4.5-4.5-.16-4.53-.07-8.77,0-11.26S2.62,1.86,6.35,1.86s8.89-.23,11.26,0c2.37,.23,4.38,2.03,4.5,4.5,.06,1.16,.12,3.24,.14,4.89" style="fill:none; stroke:#445d82; stroke-linecap:round; stroke-linejoin:round; stroke-width:1.5px;"/><line id="k" x1="22" y1="6.75" x2="2" y2="6.75" style="fill:none; stroke:#445d82; stroke-linecap:round; stroke-linejoin:round; stroke-width:1.5px;"/><line id="l" x1="10.25" y1="11.75" x2="2" y2="11.75" style="fill:none; stroke:#445d82; stroke-linecap:round; stroke-linejoin:round; stroke-width:1.5px;"/><line id="m" x1="8.25" y1="16.75" x2="2" y2="16.75" style="fill:none; stroke:#445d82; stroke-linecap:round; stroke-linejoin:round; stroke-width:1.5px;"/><g><path d="M20.58,16.22c.16-2.62-2.31-4.38-3.98-4.46-3.25-.16-4.86,2.27-4.86,4.46s1.7,4.37,4.84,4.37c2.75,0,3.83-1.69,3.99-4.37Z" style="fill:none; stroke:#445d82; stroke-linecap:round; stroke-linejoin:round; stroke-width:1.5px;"/><line x1="19.46" y1="19.58" x2="20.47" y2="20.46" style="fill:none; stroke:#445d82; stroke-linecap:round; stroke-linejoin:round; stroke-width:1.5px;"/><path d="M20.9,21.89c.51,.53,1.5,1.8,2.13,1.13s-.56-1.53-1.11-2.03c-.83-.75-1.71,.19-1.03,.9Z" style="fill:none; stroke:#445d82; stroke-linecap:round; stroke-linejoin:round; stroke-width:1.5px;"/></g></svg>