<svg width="24" height="24" viewBox="0 0 24 24" fill="none" xmlns="http://www.w3.org/2000/svg">
<path d="M9 18C8.58579 18 8.25 17.6642 8.25 17.25C8.25 16.8358 8.58579 16.5 9 16.5L21.5381 16.5C21.1504 16.1084 20.6673 15.6681 20.173 15.238C19.5985 14.7381 19.0224 14.2638 18.5889 13.9136C18.3724 13.7388 18.1921 13.5955 18.0663 13.4961C18.0034 13.4464 17.9541 13.4077 17.9207 13.3815L17.8828 13.352L17.8711 13.3428C17.544 13.0888 17.4841 12.6172 17.7381 12.29C17.9921 11.9629 18.4633 11.9036 18.7905 12.1576L18.3305 12.75C18.7905 12.1576 18.7904 12.1576 18.7905 12.1576L18.805 12.1689L18.8452 12.2003C18.8802 12.2277 18.9313 12.2678 18.996 12.3189C19.1255 12.4212 19.3101 12.568 19.5314 12.7467C19.9734 13.1037 20.5646 13.5904 21.1576 14.1063C21.7473 14.6195 22.3525 15.1734 22.8153 15.6627C23.0452 15.9058 23.2561 16.1497 23.4142 16.3762C23.4933 16.4894 23.57 16.6135 23.6293 16.7428C23.6845 16.8631 23.75 17.0418 23.75 17.25C23.75 17.4582 23.6845 17.6369 23.6293 17.7572C23.57 17.8865 23.4933 18.0106 23.4142 18.1238C23.2561 18.3503 23.0452 18.5942 22.8153 18.8373C22.3525 19.3266 21.7473 19.8805 21.1576 20.3937C20.5646 20.9096 19.9734 21.3963 19.5314 21.7533C19.3101 21.932 19.1255 22.0788 18.996 22.1811C18.9313 22.2322 18.8802 22.2723 18.8452 22.2997L18.805 22.3311L18.7906 22.3423C18.7905 22.3424 18.7905 22.3424 18.3305 21.75L18.7906 22.3423C18.4634 22.5963 17.9921 22.5371 17.7381 22.21C17.4841 21.8828 17.5434 21.4116 17.8705 21.1576L17.8828 21.1481L17.9207 21.1185C17.9541 21.0923 18.0034 21.0536 18.0663 21.0039C18.1921 20.9045 18.3724 20.7612 18.5889 20.5864C19.0224 20.2362 19.5985 19.7619 20.173 19.262C20.6673 18.8319 21.1504 18.3916 21.5381 18H9Z" fill="#494A4A"/>
<path d="M15 7.00003C15.4142 7.00003 15.75 6.66425 15.75 6.25003C15.75 5.83582 15.4142 5.50003 15 5.50003L2.46187 5.50003C2.84961 5.10845 3.33269 4.66812 3.82705 4.23799C4.4015 3.73816 4.97761 3.26382 5.41113 2.91367C5.6276 2.73884 5.80785 2.59551 5.93372 2.49609C5.99664 2.44639 6.04593 2.4077 6.07932 2.38157L6.11719 2.35199L6.12889 2.34287C6.45605 2.08884 6.51592 1.61723 6.26189 1.29006C6.00785 0.962895 5.53669 0.903609 5.20952 1.15764L5.6695 1.75003C5.20952 1.15764 5.20959 1.15759 5.20952 1.15764L5.20559 1.1607L5.19502 1.16894L5.15479 1.20037C5.11978 1.22777 5.06875 1.26783 5.00399 1.31898C4.87449 1.42126 4.68994 1.56802 4.46864 1.74675C4.02664 2.10375 3.43537 2.59048 2.84245 3.10637C2.25268 3.61952 1.64751 4.1734 1.18472 4.66271C0.954769 4.90584 0.743925 5.14976 0.585764 5.37621C0.506689 5.48943 0.429993 5.6135 0.370703 5.7428C0.315527 5.86312 0.25 6.04183 0.25 6.25003C0.25 6.45824 0.315527 6.63695 0.370703 6.75727C0.429993 6.88657 0.506689 7.01064 0.585764 7.12386C0.743925 7.35031 0.954769 7.59423 1.18472 7.83735C1.64751 8.32667 2.25268 8.88055 2.84245 9.3937C3.43537 9.90959 4.02664 10.3963 4.46864 10.7533C4.68994 10.9321 4.87449 11.0788 5.00399 11.1811C5.06875 11.2322 5.11978 11.2723 5.15479 11.2997L5.19502 11.3311L5.20559 11.3394L5.2094 11.3423C5.20947 11.3424 5.20952 11.3424 5.6695 10.75L5.2094 11.3423C5.53657 11.5964 6.00785 11.5372 6.26189 11.21C6.51592 10.8828 6.45664 10.4117 6.12947 10.1576L6.11719 10.1481L6.07932 10.1185C6.04593 10.0924 5.99664 10.0537 5.93372 10.004C5.80785 9.90456 5.6276 9.76123 5.41113 9.5864C4.97761 9.23625 4.4015 8.76191 3.82705 8.26208C3.33269 7.83195 2.84961 7.39162 2.46187 7.00003L15 7.00003Z" fill="#494A4A"/>
</svg>
