<svg width="24" height="24" viewBox="0 0 24 24" fill="none" xmlns="http://www.w3.org/2000/svg">
<path d="M7.62 11.25C7.20579 11.25 6.87 11.5858 6.87 12C6.87 12.4142 7.20579 12.75 7.62 12.75V11.25ZM16.5 12.75C16.9142 12.75 17.25 12.4142 17.25 12C17.25 11.5858 16.9142 11.25 16.5 11.25V12.75ZM12.75 7.5C12.75 7.08579 12.4142 6.75 12 6.75C11.5858 6.75 11.25 7.08579 11.25 7.5H12.75ZM11.25 16.5C11.25 16.9142 11.5858 17.25 12 17.25C12.4142 17.25 12.75 16.9142 12.75 16.5H11.25ZM12 12V11.25V12ZM21.5 12C21.5 17.2467 17.2467 21.5 12 21.5V23C18.0751 23 23 18.0751 23 12H21.5ZM12 21.5C6.75329 21.5 2.5 17.2467 2.5 12H1C1 18.0751 5.92487 23 12 23V21.5ZM2.5 12C2.5 6.75329 6.75329 2.5 12 2.5V1C5.92487 1 1 5.92487 1 12H2.5ZM12 2.5C17.2467 2.5 21.5 6.75329 21.5 12H23C23 5.92487 18.0751 1 12 1V2.5ZM11.25 7.5V16.5H12.75V7.5H11.25ZM7.62 12.75L12 12.75V11.25L7.62 11.25V12.75ZM12 12.75H16.5V11.25H12V12.75Z" fill="#494A4A"/>
</svg>
