<?xml version="1.0" encoding="UTF-8"?><svg id="az" xmlns="http://www.w3.org/2000/svg" width="24" height="24" viewBox="0 0 24 24"><g><path d="M7.79,7.77c.88,1.24,6.95,4.89,8.43,8.26" style="fill:none; stroke:#445d82; stroke-linecap:round; stroke-linejoin:round; stroke-width:1.5px;"/><path d="M16.23,7.77c-.7,.38-11.51,7.71-7.49,8.45" style="fill:none; stroke:#445d82; stroke-linecap:round; stroke-linejoin:round; stroke-width:1.5px;"/></g><path id="ba" d="M6.38,1.86c3.72,0,8.87-.23,11.23,0,2.36,.23,4.37,2.03,4.49,4.5,.15,3.03,.21,9.01,0,11.26s-.79,4.37-4.49,4.5c-4.09,.15-8.84,.17-11.23,0-1.93-.13-4.33,.02-4.49-4.5-.16-4.53-.07-8.77,0-11.26,.07-2.49,.77-4.5,4.49-4.5Z" style="fill:none; stroke:#445d82; stroke-linecap:round; stroke-linejoin:round; stroke-width:1.5px;"/><line id="bb" x1="7.25" y1=".75" x2="7.25" y2="3.75" style="fill:none; stroke:#445d82; stroke-linecap:round; stroke-linejoin:round; stroke-width:1.5px;"/><line id="bc" x1="16.25" y1=".75" x2="16.25" y2="3.75" style="fill:none; stroke:#445d82; stroke-linecap:round; stroke-linejoin:round; stroke-width:1.5px;"/></svg>