<?xml version="1.0" encoding="UTF-8"?><svg id="ct" xmlns="http://www.w3.org/2000/svg" width="24" height="24" viewBox="0 0 24 24"><path d="M12.96,7.09s7.48-5.12,9.88-2.68c2.26,2.29-5.81,8.1-5.81,8.1,0,0-11.31,9.06-15.26,7.58-1.81-.68-.09-1.92,0-2.16s-1.02-.78-1.02-1.08,.57-.87,1.02-1.08,2.49,.18,2.97-.12,3.51-3.41,3.51-3.41C8.24,12.22,0,11.4,.86,10.17c.37-.53,.91-2.04,3.96-1.99,6.78,.11,8.14-1.08,8.14-1.08Z" style="fill:none; stroke:#445d82; stroke-linecap:round; stroke-linejoin:round; stroke-width:1.5px;"/><path d="M18.2,11.9c-.23,1.62,4.48,5.48,1.93,7.93-.96,.92-4.01-4.99-7.04-4.34" style="fill:none; stroke:#445d82; stroke-linecap:round; stroke-linejoin:round; stroke-width:1.5px;"/><path d="M11.86,10.42c-1.47,1.35-3.23,1.91-4.68,1.67" style="fill:none; stroke:#445d82; stroke-linecap:round; stroke-linejoin:round; stroke-width:1.5px;"/></svg>