<?xml version="1.0" encoding="UTF-8"?><svg id="bd" xmlns="http://www.w3.org/2000/svg" width="24" height="24" viewBox="0 0 24 24"><path id="be" d="M6.38,1.86c3.72,0,8.87-.23,11.23,0,2.36,.23,4.37,2.03,4.49,4.5,.15,3.03,.21,9.01,0,11.26s-.79,4.37-4.49,4.5c-4.09,.15-8.84,.17-11.23,0-1.93-.13-4.33,.02-4.49-4.5-.16-4.53-.07-8.77,0-11.26,.07-2.49,.77-4.5,4.49-4.5Z" style="fill:none; stroke:#445d82; stroke-linecap:round; stroke-linejoin:round; stroke-width:1.5px;"/><line x1="11.89" y1="7.25" x2="16.92" y2="7.27" style="fill:#e04c59; stroke:#445d82; stroke-linecap:round; stroke-linejoin:round; stroke-width:1.5px;"/><line x1="6.86" y1="12.5" x2="11" y2="12.52" style="fill:#e04c59; stroke:#445d82; stroke-linecap:round; stroke-linejoin:round; stroke-width:1.5px;"/><line id="bf" x1="7.25" y1=".75" x2="7.25" y2="3.75" style="fill:none; stroke:#445d82; stroke-linecap:round; stroke-linejoin:round; stroke-width:1.5px;"/><line id="bg" x1="16.25" y1=".75" x2="16.25" y2="3.75" style="fill:none; stroke:#445d82; stroke-linecap:round; stroke-linejoin:round; stroke-width:1.5px;"/><path d="M17.35,7.53c.43,.43,1.27,.03,.72-.62-.39-.46-1.2,.14-.72,.62Z" style="fill:none; stroke:#445d82; stroke-linecap:round; stroke-linejoin:round; stroke-width:1.5px;"/><path d="M17.35,12.82c.43,.43,1.27,.03,.72-.62-.39-.46-1.2,.14-.72,.62Z" style="fill:none; stroke:#445d82; stroke-linecap:round; stroke-linejoin:round; stroke-width:1.5px;"/><path d="M11.59,7.54c.27,.54,1.39-.09,.72-.62-.49-.39-1.03,0-.72,.62Z" style="fill:none; stroke:#445d82; stroke-linecap:round; stroke-linejoin:round; stroke-width:1.5px;"/><path d="M11.57,12.79c.25,.5,1.33,.02,.78-.63-.39-.46-1.02,.15-.78,.63Z" style="fill:none; stroke:#445d82; stroke-linecap:round; stroke-linejoin:round; stroke-width:1.5px;"/><path d="M11.57,18.04c.25,.5,1.33,.02,.78-.63-.39-.46-1.02,.15-.78,.63Z" style="fill:none; stroke:#445d82; stroke-linecap:round; stroke-linejoin:round; stroke-width:1.5px;"/><path d="M5.81,12.74c.27,.54,1.16,.16,.81-.61-.18-.39-1.12-.01-.81,.61Z" style="fill:none; stroke:#445d82; stroke-linecap:round; stroke-linejoin:round; stroke-width:1.5px;"/><path d="M5.86,18.05c.27,.54,1.39-.35,.62-.72-.55-.26-.93,.1-.62,.72Z" style="fill:none; stroke:#445d82; stroke-linecap:round; stroke-linejoin:round; stroke-width:1.5px;"/></svg>