<svg width="24" height="24" viewBox="0 0 24 24" fill="none" xmlns="http://www.w3.org/2000/svg">
<g clip-path="url(#clip0_5054_1272)">
<path d="M8.79 12C8.79 12 7.04 7.22 7.25 4.5C7.46 1.78 9.51 1 11.76 1C14.01 1 17.03 1.86 16.75 4.75C16.58 6.49 14.69 12 14.69 12M3.25 9.5C3.25 9.5 4.5 9.87 4.65 10.31C5.03 11.42 5.26 13.46 6.04 13.99C7.13 14.73 14.19 14.98 17.18 14.24C17.97 14.05 18.57 11.54 19.1 10.19C19.3 9.68 20.74 9.26 20.74 9.26M12 20.5C12 20.5 14.27 20.6 15.75 21C17.79 21.55 18.5 22.5 18.5 22.5M11.75 20.75C11.75 20.75 9.5 20.25 7 21.25C5.8 21.73 5.25 22.25 5.25 22.25M11.87 14.68L12 23" stroke="#494A4A" stroke-width="1.5" stroke-miterlimit="10" stroke-linecap="round"/>
</g>
<defs>
<clipPath id="clip0_5054_1272">
<rect width="24" height="24" fill="white"/>
</clipPath>
</defs>
</svg>
