<?xml version="1.0" encoding="UTF-8"?><svg id="bf" xmlns="http://www.w3.org/2000/svg" width="24" height="24" viewBox="0 0 24 24"><line x1="7.75" y1="8.75" x2="13.25" y2="8.75" style="fill:none; stroke:#445d82; stroke-linecap:round; stroke-linejoin:round; stroke-width:1.5px;"/><line x1="7.75" y1="13.03" x2="8.75" y2="13.03" style="fill:none; stroke:#445d82; stroke-linecap:round; stroke-linejoin:round; stroke-width:1.5px;"/><line x1="7.75" y1="17.25" x2="8.25" y2="17.25" style="fill:none; stroke:#445d82; stroke-linecap:round; stroke-linejoin:round; stroke-width:1.5px;"/><path d="M15.6,3.75h-7.18c-.28,0-.51-.17-.51-.45v-1.02c0-.28,.23-.51,.51-.51h7.18c.28,0,.51,.23,.51,.51v1.02c0,.28-.23,.45-.51,.45Z" style="fill:none; stroke:#445d82; stroke-linecap:round; stroke-linejoin:round; stroke-width:1.5px;"/><path d="M8.93,22.24h-1.91s-2.74,0-3.04-3.07c-.28-2.8-.28-11.36,0-13.31,.19-1.32,1.37-3.07,3.04-3.07h10.15c1.67,0,2.87,.35,3.04,3.07,.06,.86,.01,1.19,0,2.03" style="fill:none; stroke:#445d82; stroke-linecap:round; stroke-linejoin:round; stroke-width:1.5px;"/><line x1="20.25" y1="17.5" x2="14.75" y2="17.5" style="fill:none; stroke:#445d82; stroke-linecap:round; stroke-linejoin:round; stroke-width:1.5px;"/><line x1="17.5" y1="20.25" x2="17.5" y2="14.75" style="fill:none; stroke:#445d82; stroke-linecap:round; stroke-linejoin:round; stroke-width:1.5px;"/><circle cx="17.49" cy="17.49" r="5.74" style="fill:none; stroke:#445d82; stroke-linecap:round; stroke-linejoin:round; stroke-width:1.5px;"/></svg>