<?xml version="1.0" encoding="UTF-8"?><svg id="cl" xmlns="http://www.w3.org/2000/svg" width="24" height="24" viewBox="0 0 24 24"><path d="M14.51,7.85c-.56,.33-1.34,2.2-1.99,3.21" style="fill:none; stroke:#445d82; stroke-linecap:round; stroke-linejoin:round; stroke-width:1.5px;"/><path d="M16.72,17.26c-.43-.68-3.21-3.84-3.94-4.36" style="fill:none; stroke:#445d82; stroke-linecap:round; stroke-linejoin:round; stroke-width:1.5px;"/><path d="M15.86,8.25c.4-.14,.17-1.69,.16-2.06,0-.28-.26-.43-.53-.38-.44,.08-2,.38-2,.8,0,.7,1.84,1.85,2.28,1.69" style="fill:none; stroke:#445d82; stroke-linecap:round; stroke-linejoin:round; stroke-width:1.5px;"/><path d="M17.59,16.82c-.46,.02-1.42,.92-1.39,1.23,.02,.28,1.09,.35,1.33,.37,.18,.01,.35-.22,.34-.4-.02-.22,.01-1.19-.25-1.17" style="fill:none; stroke:#445d82; stroke-linecap:round; stroke-linejoin:round; stroke-width:1.5px;"/><path d="M12.02,19.83c0-.06-.06,.33,0,.25" style="fill:none; stroke:#445d82; stroke-linecap:round; stroke-linejoin:round; stroke-width:1.5px;"/><path d="M3.99,11.84c0-.06-.06,.33,0,.25" style="fill:none; stroke:#445d82; stroke-linecap:round; stroke-linejoin:round; stroke-width:1.5px;"/><path d="M12.02,3.86c0-.06-.06,.33,0,.25" style="fill:none; stroke:#445d82; stroke-linecap:round; stroke-linejoin:round; stroke-width:1.5px;"/><path d="M20.38,4.5c1.78,1.98,2.86,4.6,2.86,7.47,0,2.53-.78,4.83-2.15,6.67" style="fill:none; stroke:#445d82; stroke-dasharray:0 0 2 4; stroke-linecap:round; stroke-linejoin:round; stroke-width:1.5px;"/><path d="M19.67,20.7c-1.74,1.76-5.4,2.44-7.67,2.53-6.63,.25-11.24-5.04-11.24-11.25S4.84,.76,12,.76c1.1,0,3.99,.17,5.31,1.3" style="fill:none; stroke:#445d82; stroke-linecap:round; stroke-linejoin:round; stroke-width:1.5px;"/><path d="M11.95,13.07c-1.31,0-.95-2.15,.06-2.15,1.49,0,1.38,2.14,0,2.15" style="fill:none; stroke:#445d82; stroke-linecap:round; stroke-linejoin:round; stroke-width:1.5px;"/></svg>