<svg width="24" height="24" viewBox="0 0 24 24" fill="none" xmlns="http://www.w3.org/2000/svg">
<g clip-path="url(#clip0_3544_836)">
<path d="M3.33966 7.86809C3.19994 8.38705 3.30972 19.6645 3.8686 20.0836C3.95842 20.1535 6.27379 20.2633 8.26979 20.1735L19.7468 20.2034C19.7468 20.2034 20.4953 19.9539 20.4953 19.2054C20.4953 18.4569 20.7249 9.19543 20.7249 9.19543C20.7249 8.76629 20.7648 8.13755 20.7249 7.99783M21.9025 3.92597C22.4514 4.22538 22.2718 7.07966 21.9025 7.4589C21.5332 7.83815 2.46142 7.87807 2.09216 7.4589C1.7229 7.03974 1.68298 4.08565 2.09216 3.92597C2.50134 3.76629 21.3536 3.62657 21.9025 3.92597Z" stroke="#494A4A" stroke-width="1.5" stroke-linecap="round" stroke-linejoin="round"/>
<path d="M9 12H15" stroke="#494A4A" stroke-width="1.5" stroke-linecap="round" stroke-linejoin="round"/>
</g>
<defs>
<clipPath id="clip0_3544_836">
<rect width="24" height="24" fill="white"/>
</clipPath>
</defs>
</svg>
