<?xml version="1.0" encoding="UTF-8"?><svg id="i" xmlns="http://www.w3.org/2000/svg" width="24" height="24" viewBox="0 0 24 24"><circle cx="12" cy="12" r="11.25" style="fill:none; stroke:#445d82; stroke-linecap:round; stroke-miterlimit:10; stroke-width:1.5px;"/><path d="M6.75,8.75c1,.25,4.24,1,5.25,1s4.45-.67,5.25-1" style="fill:none; stroke:#445d82; stroke-linecap:round; stroke-linejoin:round; stroke-width:1.5px;"/><path d="M14.75,18.75s-1.96-5.13-2.24-5.28-.54-.19-.92,.03-2.35,5.25-2.35,5.25" style="fill:none; stroke:#445d82; stroke-linecap:round; stroke-linejoin:round; stroke-width:1.5px;"/><path d="M12.07,4.75c1.12-.16,.75,1.54,0,1.54-.84,0-1.31-1.3,0-1.5" style="fill:none; stroke:#445d82; stroke-linecap:round; stroke-miterlimit:10; stroke-width:1.5px;"/><path d="M12.51,13.62c-.02-.31-.13-2.82-.02-3.68" style="fill:none; stroke:#445d82; stroke-linecap:round; stroke-linejoin:round; stroke-width:1.5px;"/><path d="M11.46,9.8c.09,.74,.2,3.36,.09,3.64" style="fill:none; stroke:#445d82; stroke-linecap:round; stroke-linejoin:round; stroke-width:1.5px;"/></svg>