<?xml version="1.0" encoding="UTF-8"?><svg id="dz" xmlns="http://www.w3.org/2000/svg" width="24" height="24" viewBox="0 0 24 24"><path d="M8.85,19.69c.3-.36,1.04,1.45,.84,2.42-.39,1.87-3.85,1.52-4.45-2.41-.64-4.14,1.26-6.86,1.07-12.49-.09-2.6-1.9-5.06-4.49-4.04-2.08,.82-.7,5.74,1.36,5.19" style="fill:none; stroke:#445d82; stroke-linecap:round; stroke-linejoin:round; stroke-width:1.5px;"/><path d="M20.04,8.79c-.32,3.12-1.25,6.45-.7,8.51" style="fill:none; stroke:#445d82; stroke-linecap:round; stroke-linejoin:round; stroke-width:1.5px;"/><path d="M1.81,3.17C4.93,2.05,12.87,.96,16.38,.76" style="fill:none; stroke:#445d82; stroke-linecap:round; stroke-linejoin:round; stroke-width:1.5px;"/><path d="M9.05,19.59c.85-.23,12.36-2.04,13.01-1.9,.94,.21,1.62,2.91,.34,3.42-1.58,.63-10.14,1.85-13.56,2.12" style="fill:none; stroke:#445d82; stroke-linecap:round; stroke-linejoin:round; stroke-width:1.5px;"/><path d="M3.17,8.36c1.56-.57,2.11-.68,3.11-.73" style="fill:none; stroke:#445d82; stroke-linecap:round; stroke-linejoin:round; stroke-width:1.5px;"/><path d="M9.47,6.8c.59-.12,6.17-.89,6.91-.99" style="fill:none; stroke:#445d82; stroke-linecap:round; stroke-linejoin:round; stroke-width:1.5px;"/><path d="M9.69,10.1c.89-.17,6.8-1.02,7.32-1.1" style="fill:none; stroke:#445d82; stroke-linecap:round; stroke-linejoin:round; stroke-width:1.5px;"/><path d="M9.89,13.08c1.4-.21,4.3-.68,4.86-.78" style="fill:none; stroke:#445d82; stroke-linecap:round; stroke-linejoin:round; stroke-width:1.5px;"/><polygon points="20.34 .77 19.84 2.48 18.11 3.07 19.63 4.05 19.65 5.82 21.08 4.71 22.82 5.22 22.19 3.56 23.24 2.1 21.42 2.18 20.34 .77" style="fill:none; stroke:#445d82; stroke-linecap:round; stroke-linejoin:round; stroke-width:1.5px;"/></svg>