<?xml version="1.0" encoding="UTF-8"?><svg id="l" xmlns="http://www.w3.org/2000/svg" width="24" height="24" viewBox="0 0 24 24"><ellipse cx="12.01" cy="7" rx="12.25" ry="5.92" style="fill:none; stroke:#445d82; stroke-linecap:round; stroke-linejoin:round; stroke-width:1.5px;"/><path d="m22.99,16.62c.49.22.24,3.5,0,3.72s-21.4.22-21.89,0-.49-3.5,0-3.72" style="fill:none; stroke:#445d82; stroke-linecap:round; stroke-linejoin:round; stroke-width:1.5px;"/><path d="m1.1,16.62c.49-.22,21.4-.22,21.89,0" style="fill:none; stroke:#445d82; stroke-linecap:round; stroke-linejoin:round; stroke-width:1.5px;"/><line x1="3.1" y1="11.06" x2="1" y2="16.75" style="fill:none; stroke:#445d82; stroke-linecap:round; stroke-linejoin:round; stroke-width:1.5px;"/><line x1="21.25" y1="11" x2="23" y2="16.5" style="fill:none; stroke:#445d82; stroke-linecap:round; stroke-linejoin:round; stroke-width:1.5px;"/><path d="m5.98,10.77c-.47-.24-.24-3.63,0-3.87s3.77-.24,4.01,0,.47,3.63,0,3.87" style="fill:none; stroke:#445d82; stroke-linecap:round; stroke-linejoin:round; stroke-width:1.5px;"/><path d="m14.01,10.77c-.46-.24-.23-3.63,0-3.87s3.72-.24,3.95,0,.46,3.63,0,3.87" style="fill:none; stroke:#445d82; stroke-linecap:round; stroke-linejoin:round; stroke-width:1.5px;"/><line x1="2.75" y1="21" x2="2.75" y2="22.25" style="fill:none; stroke:#445d82; stroke-linecap:round; stroke-linejoin:round; stroke-width:1.5px;"/><line x1="21.25" y1="21" x2="21.25" y2="22.25" style="fill:none; stroke:#445d82; stroke-linecap:round; stroke-linejoin:round; stroke-width:1.5px;"/></svg>