<?xml version="1.0" encoding="UTF-8"?><svg id="b" xmlns="http://www.w3.org/2000/svg" width="24" height="24" viewBox="0 0 24 24"><g id="c"><line x1="12.74" y1="7.75" x2="16.24" y2="7.75" style="fill:none; stroke:#494a4a; stroke-linecap:round; stroke-linejoin:round; stroke-width:1.5px;"/><line x1="6.74" y1="11.75" x2="9.24" y2="11.75" style="fill:none; stroke:#494a4a; stroke-linecap:round; stroke-linejoin:round; stroke-width:1.5px;"/><line x1="6.74" y1="15.75" x2="7.74" y2="15.75" style="fill:none; stroke:#494a4a; stroke-linecap:round; stroke-linejoin:round; stroke-width:1.5px;"/><path d="m8.25,22.16c-.13,0-.25-.01-.43-.02-1.74-.06-3.78-.33-3.93-2.74-.21-3.3-.14-8.25-.05-10.2.06-1.22.52-1.91,1.17-2.76.64-.85,2.74-2.91,3.64-3.56.91-.65,1.79-1.1,2.82-1.13,1.03-.02,3.55,0,5.34.03s3.21.96,3.31,3.86c.04.61.09.78.11,2.24" style="fill:none; stroke:#494a4a; stroke-linecap:round; stroke-linejoin:round; stroke-width:1.5px;"/><path d="m3.8,10.51c.09-.65-.07-2.43,2.17-2.29h2.14c1.18,0,2.14-.96,2.14-2.16v-2.16c0-1.19.96-2.16,2.14-2.16" style="fill:none; stroke:#494a4a; stroke-linecap:round; stroke-linejoin:round; stroke-width:1.5px;"/><rect width="24" height="24" style="fill:none;"/><path d="m21.38,21.09c-1.94.11-4.18.1-5.74,0-.94-.06-1.63-.66-1.73-1.87-.13-1.59-.08-4.26,0-5.48s.61-1.78,1.73-1.87c1.73-.14,4.01-.18,5.74,0,1.09.11,1.62.66,1.73,1.87.15,1.76.14,3.97,0,5.48-.09,1.01-.61,1.8-1.73,1.87Z" style="fill:none; stroke:#494a4a; stroke-miterlimit:10; stroke-width:1.5px;"/><path d="m17.09,21.24c0,.38-.03.6-.06.9-.05.57-.34,1.03-.98,1.07-1.1.06-2.38.06-3.27,0-.53-.03-.93-.38-.98-1.07-.07-.9-.05-2.43,0-3.13s.35-1.01.98-1.07c.34-.03.57-.05.96-.06" style="fill:none; stroke:#494a4a; stroke-linecap:round; stroke-linejoin:round; stroke-width:1.5px;"/><path d="m16.72,18.36c1.19-1.19,2.83-2.85,2.97-2.97" style="fill:none; stroke:#494a4a; stroke-linecap:round; stroke-linejoin:round; stroke-width:1.5px;"/><path d="m17.43,14.85c.99-.07,2.51-.23,2.78.07s.07,1.96,0,2.7" style="fill:none; stroke:#494a4a; stroke-linecap:round; stroke-linejoin:round; stroke-width:1.5px;"/></g></svg>