<?xml version="1.0" encoding="UTF-8"?><svg id="co" xmlns="http://www.w3.org/2000/svg" width="24" height="24" viewBox="0 0 24 24"><path d="M3.65,14.4c.16,.3-.21,7.18,.35,7.6,.56,.42,15.53,.57,16,0s-.02-6.85,0-7.42c.01-.42,1.98-.16,2.17-1.65,.23-1.77-.11-4.96-1.42-5.06-1.59-.12-17.66-.27-18.25,.27-.59,.54-1.13,4.22-.4,5.15,.5,.64,1.39,.8,1.56,1.1Z" style="fill:none; stroke:#445d82; stroke-linecap:round; stroke-linejoin:round; stroke-width:1.5px;"/><path d="M2.75,13.47c5.3,.93,12.5,.98,18.53,.17" style="fill:none; stroke:#445d82; stroke-linecap:round; stroke-linejoin:round; stroke-width:1.5px;"/><path d="M10.68,8.48c.1,1.66,.09,11.78-.06,13.33" style="fill:none; stroke:#445d82; stroke-linecap:round; stroke-linejoin:round; stroke-width:1.5px;"/><path d="M13.32,8.53c-.1,1.65-.09,11.74,.06,13.28" style="fill:none; stroke:#445d82; stroke-linecap:round; stroke-linejoin:round; stroke-width:1.5px;"/><path d="M11.21,7.28S9.57,1.74,4.35,1.74c-2.57,0-4.46,4.36,4.93,6.01" style="fill:none; stroke:#445d82; stroke-linecap:round; stroke-linejoin:round; stroke-width:1.5px;"/><path d="M12.75,7.36s1.3-4.74,5.43-4.74c2.03,0,3.53,3.73-3.9,5.15" style="fill:none; stroke:#445d82; stroke-linecap:round; stroke-linejoin:round; stroke-width:1.5px;"/></svg>