<?xml version="1.0" encoding="UTF-8"?><svg id="cm" xmlns="http://www.w3.org/2000/svg" width="24" height="24" viewBox="0 0 24 24"><path d="M14.26,18.33c-.5,0-.97-.45-1-.75-.11-1.05,1.3-.35,2.5-.75,.75-.25,2.11-1.16,2.25,0,.03,.25,0,.75-.5,1" style="fill:none; stroke:#445d82; stroke-linecap:round; stroke-linejoin:round; stroke-width:1.5px;"/><path d="M4.59,17.49c.47,.63,2.27,3.17,4.87,4.26,5.63,2.68,11.86-.4,12.45-5.17,.17-1.41-.33-3.3-1.53-4.51-.2-.2-.25-.53-.29-.89-.19-1.94,.41-3.39-.34-5.29s-2.21-2.23-2.6-2.42" style="fill:none; stroke:#445d82; stroke-linecap:round; stroke-linejoin:round; stroke-width:1.5px;"/><path d="M11.17,9.02c-.9-.02-2.3,.87-2.59,1.02" style="fill:none; stroke:#445d82; stroke-linecap:round; stroke-linejoin:round; stroke-width:1.5px;"/><path d="M17.86,8.48c.54,0,1.68,.34,1.97,.67" style="fill:none; stroke:#445d82; stroke-linecap:round; stroke-linejoin:round; stroke-width:1.5px;"/><path d="M4.4,14.12c-4.02,0-1.82,5.27,1.04,2.38" style="fill:none; stroke:#445d82; stroke-linecap:round; stroke-linejoin:round; stroke-width:1.5px;"/><path d="M13.56,13.77c.97-.73,1.82-.28,2.04,.35" style="fill:none; stroke:#445d82; stroke-linecap:round; stroke-linejoin:round; stroke-width:1.5px;"/><path d="M10.47,13.53c-.38,0-.53-1.06-.03-1.06,.42,0,.36,1.09,0,1.09" style="fill:none; stroke:#445d82; stroke-linecap:round; stroke-linejoin:round; stroke-width:1.5px;"/><path d="M17.67,12.3c-.33,0-.33-1.09,.03-1.09,.26,0,.33,1.09,0,1.09" style="fill:none; stroke:#445d82; stroke-linecap:round; stroke-linejoin:round; stroke-width:1.5px;"/><path d="M10.92,5.25c2.17-.04,6.06-.48,6.57-3.99" style="fill:none; stroke:#445d82; stroke-linecap:round; stroke-linejoin:round; stroke-width:1.5px;"/><path d="M14,1.75C11.61,3.67,.31,.67,2.71,14.46" style="fill:none; stroke:#445d82; stroke-linecap:round; stroke-linejoin:round; stroke-width:1.5px;"/><path d="M17.25,18.25c0,.97-.69,1.58-1.24,1.58s-1.01-.61-1.01-1.58,.45-1.42,1.01-1.42,1.24,.46,1.24,1.42Z" style="fill:none; stroke:#445d82; stroke-linecap:round; stroke-linejoin:round; stroke-width:1.5px;"/></svg>