<?xml version="1.0" encoding="UTF-8"?><svg id="h" xmlns="http://www.w3.org/2000/svg" width="24" height="24" viewBox="0 0 24 24"><path d="m6.22,17.83c-.03,2.44-.08,4.27-.16,4.43" style="fill:none; stroke:#445d82; stroke-linecap:round; stroke-linejoin:round; stroke-width:1.5px;"/><path d="m3.3,14.9c-.06-4.94-.02-10.59.26-10.87.5-.49,2.25-.25,2.5,0,.14.14.2,5.79.18,10.77" style="fill:none; stroke:#445d82; stroke-linecap:round; stroke-linejoin:round; stroke-width:1.5px;"/><path d="m3.56,22.26c-.08-.16-.16-2.07-.22-4.59" style="fill:none; stroke:#445d82; stroke-linecap:round; stroke-linejoin:round; stroke-width:1.5px;"/><path d="m20.73,17.4c-.03,2.66-.08,4.69-.17,4.86" style="fill:none; stroke:#445d82; stroke-linecap:round; stroke-linejoin:round; stroke-width:1.5px;"/><path d="m17.8,14.83c-.06-4.93-.02-10.53.26-10.81.5-.49,2.25-.25,2.5,0,.14.14.2,5.75.18,10.71" style="fill:none; stroke:#445d82; stroke-linecap:round; stroke-linejoin:round; stroke-width:1.5px;"/><path d="m18.06,22.26c-.08-.16-.17-2.18-.22-4.82" style="fill:none; stroke:#445d82; stroke-linecap:round; stroke-linejoin:round; stroke-width:1.5px;"/><path d="m6.25,7c1.75,8.5,10.5,6.75,11.5,0" style="fill:none; stroke:#445d82; stroke-linecap:round; stroke-linejoin:round; stroke-width:1.5px;"/><path d="m1.12,11.21c1.07-.99,1.87-2.42,2.13-4.19" style="fill:none; stroke:#445d82; stroke-linecap:round; stroke-linejoin:round; stroke-width:1.5px;"/><path d="m20.75,7.01c.41,2.01,1.22,3.45,2.22,4.38" style="fill:none; stroke:#445d82; stroke-linecap:round; stroke-linejoin:round; stroke-width:1.5px;"/><path d="m.76,17.03c1.33.08,20.86.29,22.42.04" style="fill:none; stroke:#445d82; stroke-linecap:round; stroke-linejoin:round; stroke-width:1.5px;"/></svg>