<?xml version="1.0" encoding="UTF-8"?><svg id="dx" xmlns="http://www.w3.org/2000/svg" width="24" height="24" viewBox="0 0 24 24"><path d="M5.7,17.41s.3,5.54,2.61,5.73c2.42,.2,5.45,.02,6.26,.02,1.26,0,2.72-.15,3.15-1.72,.43-1.57,.55-4.19,.55-4.19" style="fill:none; stroke:#445d82; stroke-linecap:round; stroke-linejoin:round; stroke-width:1.5px;"/><path d="M8.59,15.34s-1.03,1.81-3.49,1.56c-3.66-.38-3.61-6.72,4.63-7.73" style="fill:none; stroke:#445d82; stroke-linecap:round; stroke-linejoin:round; stroke-width:1.5px;"/><path d="M15.86,14.98c-1.37,1.42-5.35,2.29-7.17,.28" style="fill:none; stroke:#445d82; stroke-linecap:round; stroke-linejoin:round; stroke-width:1.5px;"/><path d="M14.38,9.07c7.15,.95,8.91,7.03,4.33,7.61-1.52,.19-2.66-.71-2.85-1.7" style="fill:none; stroke:#445d82; stroke-linecap:round; stroke-linejoin:round; stroke-width:1.5px;"/><path d="M10.42,6.5c-.27,.55-.2,3.42,.05,5.35" style="fill:none; stroke:#445d82; stroke-linecap:round; stroke-linejoin:round; stroke-width:1.5px;"/><path d="M13.69,11.75c.17-1.23,.12-5.1-.04-5.39" style="fill:none; stroke:#445d82; stroke-linecap:round; stroke-linejoin:round; stroke-width:1.5px;"/><path d="M12.13,.76c-.88,0-4.17,5.48-.06,5.48s.94-5.48,.06-5.48Z" style="fill:none; stroke:#445d82; stroke-linecap:round; stroke-linejoin:round; stroke-width:1.5px;"/><path d="M8.62,16.21s.48,1.99,.48,3.16" style="fill:none; stroke:#445d82; stroke-linecap:round; stroke-linejoin:round; stroke-width:1.5px;"/><path d="M15.77,15.96c.04,.08-.58,2.1-.8,3.73" style="fill:none; stroke:#445d82; stroke-linecap:round; stroke-linejoin:round; stroke-width:1.5px;"/><path d="M12.39,16.49c-.14,1.01-.14,3.01-.14,3.01" style="fill:none; stroke:#445d82; stroke-linecap:round; stroke-linejoin:round; stroke-width:1.5px;"/><path d="M9.26,11.62c1.03,.64,3.78,1.05,5.6-.11" style="fill:none; stroke:#445d82; stroke-linecap:round; stroke-linejoin:round; stroke-width:1.5px;"/></svg>