<?xml version="1.0" encoding="UTF-8"?><svg id="h" xmlns="http://www.w3.org/2000/svg" width="24" height="24" viewBox="0 0 24 24"><path d="M14.75,17.23c-1.88,.02-3.61,.03-5.5,0" style="fill:none; stroke:#445d82; stroke-linecap:round; stroke-linejoin:round; stroke-width:1.5px;"/><path d="M3.62,17.2c-1.37-.11-2.27-.27-2.39-.48-.57-1.06-.77-11.35,.26-12.38,.65-.66,17.23-.66,17.56-.44,.59,.39,3.71,7.93,3.84,8.14,.4,.63,.55,4.53-.06,4.96-.11,.07-1.33,.19-2.53,.25" style="fill:none; stroke:#445d82; stroke-linecap:round; stroke-linejoin:round; stroke-width:1.5px;"/><path d="M19.25,11.25c-.86,.01-4.5,.25-4.96-.25-.33-.36-.72-1.25-1.29-1.48s-8.14-.31-9-.25l-.25-2.77" style="fill:none; stroke:#445d82; stroke-linecap:round; stroke-linejoin:round; stroke-width:1.5px;"/><path d="M9.26,17.51c.13,3.23-5.28,4.05-5.51,0-.23-4.05,5.38-3.23,5.51,0Z" style="fill:none; stroke:#445d82; stroke-miterlimit:10; stroke-width:1.5px;"/><path d="M20.27,17.51c.13,3.23-5.28,4.05-5.51,0-.23-4.05,5.38-3.23,5.51,0Z" style="fill:none; stroke:#445d82; stroke-miterlimit:10; stroke-width:1.5px;"/><line x1="12.5" y1="6.75" x2="14" y2="10.5" style="fill:none; stroke:#445d82; stroke-linecap:round; stroke-linejoin:round; stroke-width:1.5px;"/></svg>