<?xml version="1.0" encoding="UTF-8"?><svg id="b" xmlns="http://www.w3.org/2000/svg" width="24" height="24" viewBox="0 0 24 24"><g id="c"><rect width="24" height="24" style="fill:none;"/><path d="m21.98,19.74c.44.2.22,3.17,0,3.36s-19.35.2-19.79,0-.44-3.17,0-3.36" style="fill:none; stroke:#494a4a; stroke-linecap:round; stroke-linejoin:round; stroke-width:1.5px;"/><path d="m2.15,19.74c.44-.2,19.35-.2,19.79,0" style="fill:none; stroke:#494a4a; stroke-linecap:round; stroke-linejoin:round; stroke-width:1.5px;"/><polyline points="2.03 19.85 4.67 15.16 9.47 15.16" style="fill:none; stroke:#494a4a; stroke-linecap:round; stroke-linejoin:round; stroke-width:1.5px;"/><polyline points="21.93 19.63 20.09 14.91 14.78 14.91" style="fill:none; stroke:#494a4a; stroke-linecap:round; stroke-linejoin:round; stroke-width:1.5px;"/><path d="m11.96,17.18c-1.06,0-2.3-.62-2.32-1.4-.02-.95-.07-3.56-.14-4.11-.16-1.18-2.4-2.52-2.39-6.12.01-3.3,2.09-4.74,4.99-4.74s4.87,1.89,4.87,4.48c0,4.25-1.98,4.67-2.55,6.32-.13.37-.2,2.98-.23,3.97-.03.86-1.15,1.59-2.02,1.59h-.21Z" style="fill:none; stroke:#494a4a; stroke-linecap:round; stroke-linejoin:round; stroke-width:1.5px;"/><path d="m12.13,3.37c-.42.06-1.81-.03-2.1,1.88" style="fill:none; stroke:#494a4a; stroke-linecap:round; stroke-linejoin:round; stroke-width:1.5px;"/></g></svg>