<?xml version="1.0" encoding="UTF-8"?><svg id="cu" xmlns="http://www.w3.org/2000/svg" width="24" height="24" viewBox="0 0 24 24"><path d="M6.86,4.77c-2,.04-4.52-.06-4.8,1.89-.39,2.76-.47,10.4-.16,12.84,.21,1.63,1.21,2.53,3.63,2.67,2.41,.14,14.16-.29,14.35-.31,1.32-.11,2.06-1.02,2.21-2.83,.26-3.11,.17-9.47,.11-10.5s-.67-3.77-3.21-3.77-10.54-.03-12.14,0Z" style="fill:none; stroke:#445d82; stroke-linecap:round; stroke-linejoin:round; stroke-width:1.5px;"/><path d="M7.74,4.52c0-1.8,.5-2.77,4.27-2.77,2.85,0,4.19,.68,4.27,2.77" style="fill:none; stroke:#445d82; stroke-linecap:round; stroke-linejoin:round; stroke-width:1.5px;"/><path d="M1.91,12.35c2.33,.79,7.23,1.34,10.1,1.34s8.71-.78,10.04-1.36" style="fill:none; stroke:#445d82; stroke-linecap:round; stroke-linejoin:round; stroke-width:1.5px;"/><path d="M11.94,16c-1.5,0-.99-1.9,.06-1.9,1.18,0,1.37,1.9,0,1.9" style="fill:none; stroke:#445d82; stroke-linecap:round; stroke-linejoin:round; stroke-width:1.5px;"/></svg>