<?xml version="1.0" encoding="UTF-8"?><svg id="k" xmlns="http://www.w3.org/2000/svg" width="24" height="24" viewBox="0 0 24 24"><path d="m21.59,8.15c.86.49,1.36,1.08,1.4,1.74.13,2.13-4.64,4.15-10.65,4.51S1.35,13.34,1.22,11.21s4.64-4.15,10.65-4.51c.74-.05,1.47-.06,2.17-.06" style="fill:none; stroke:#445d82; stroke-linecap:round; stroke-linejoin:round; stroke-width:1.5px;"/><path d="m1.22,11.59c.41,5.95,3.26,8.88,5.64,10.55" style="fill:none; stroke:#445d82; stroke-linecap:round; stroke-linejoin:round; stroke-width:1.5px;"/><path d="m22.99,10.02c-.25,6.4-2.99,9.98-5.88,12.12" style="fill:none; stroke:#445d82; stroke-linecap:round; stroke-linejoin:round; stroke-width:1.5px;"/><path d="m4.04,21.94c4.07,2.09,12.94,1.62,16.96-.96" style="fill:none; stroke:#445d82; stroke-linecap:round; stroke-linejoin:round; stroke-width:1.5px;"/><path d="m15.18,8.27c.47-.18.74.03,1.79-.9.33-.29,4.12-7.5,5.98-6.5,1.49.8-4.27,6.4-4.62,6.75-.7.71-.42,1.57-.42,1.57" style="fill:none; stroke:#445d82; stroke-linecap:round; stroke-linejoin:round; stroke-width:1.5px;"/><path d="m4.83,11.41c-.06-.53.34-1.01.9-1.08s1.07.3,1.14.83" style="fill:none; stroke:#445d82; stroke-linecap:round; stroke-linejoin:round; stroke-width:1.5px;"/><path d="m9.16,9.94c-.14-.51.19-1.05.74-1.2s1.1.14,1.24.65" style="fill:none; stroke:#445d82; stroke-linecap:round; stroke-linejoin:round; stroke-width:1.5px;"/><path d="m9.74,12.44c.06-.53.56-.9,1.12-.84s.98.54.92,1.06" style="fill:none; stroke:#445d82; stroke-linecap:round; stroke-linejoin:round; stroke-width:1.5px;"/><path d="m14.94,12.03c-.09-.52.29-1.02.85-1.12s1.08.25,1.17.77" style="fill:none; stroke:#445d82; stroke-linecap:round; stroke-linejoin:round; stroke-width:1.5px;"/></svg>