<svg width="24" height="24" viewBox="0 0 24 24" fill="none" xmlns="http://www.w3.org/2000/svg">
<path d="M5.5 12.177C5.5 12.177 5.25 18.537 5.5 19.227M4 12.177C5.2 11.707 7 12.177 7 12.177M4 19.457C5.83 19.587 7 19.457 7 19.457M12.19 12.177C12.19 12.177 11.94 18.537 12.19 19.227M10.69 12.177C11.89 11.707 13.69 12.177 13.69 12.177M10.69 19.457C11.91 19.647 13.69 19.457 13.69 19.457M18.89 12.177C18.89 12.177 18.64 18.537 18.89 19.227M17.39 12.177C18.59 11.707 20.39 12.177 20.39 12.177M17.39 19.457C18.61 19.647 20.39 19.457 20.39 19.457M2 22.077C5.93 21.827 21.65 22.327 22.49 22.077M22.49 8.89699C22.61 7.29699 16.48 2.87699 14.48 1.74699C12.67 0.726987 11.57 0.736987 9.78 1.86699C7.6 3.24699 1.15 7.67699 2.1 8.81699C3.05 9.77699 21.46 9.57699 22.49 8.88699V8.89699Z" stroke="#494A4A" stroke-width="1.5" stroke-linecap="round" stroke-linejoin="round"/>
</svg>
