<svg width="24" height="24" viewBox="0 0 24 24" fill="none" xmlns="http://www.w3.org/2000/svg">
<path d="M1.39009 6.67996C1.39009 6.67996 0.760089 3.95996 2.14009 2.52996C3.40009 1.22996 5.91009 1.74996 5.91009 1.74996M17.8801 1.64996C17.8801 1.64996 20.5101 0.999956 21.9001 2.42996C23.1601 3.72996 22.6501 6.31996 22.6501 6.31996M1.39009 17.5C1.39009 17.5 0.760089 19.99 2.14009 21.3C3.40009 22.49 5.91009 22.01 5.91009 22.01M17.8801 22.11C17.8801 22.11 20.5101 22.71 21.9001 21.4C23.1601 20.21 22.6501 17.84 22.6501 17.84M5.50009 6.31996V17.07M18.5001 6.31996V17.07M12.0001 6.31996V17.07M8.75009 6.31996V17.07M15.2501 6.31996V17.07" stroke="#494A4A" stroke-width="1.5" stroke-miterlimit="10" stroke-linecap="round"/>
</svg>
