<?xml version="1.0" encoding="UTF-8"?><svg id="aq" xmlns="http://www.w3.org/2000/svg" width="24" height="24" viewBox="0 0 24 24"><g><path d="M2.85,9.89c3.34-.41,15.16-.13,18.3,0,1.16,.05,1.98,.83,2.07,2.22s-.19,4.5-.57,6.2c-.46,2.04-1.38,2.56-3.1,2.78-1.72,.21-11.78,.24-15.08,0-1.33-.1-2.47-.2-3.1-2.78-.36-1.47-.66-5.22-.57-6.2s.46-2.02,2.07-2.22Z" style="fill:none; stroke:#445d82; stroke-linecap:round; stroke-linejoin:round; stroke-width:1.5px;"/><path d="M1.62,6.83v-1.02c0-1.68,1.4-3.05,3.12-3.05h4.01c.69,0,1.34,.34,1.73,.91l.84,1.24c.39,.57,1.03,.91,1.73,.91h2.08s4.15,0,4.15,0c.92,0,1.75,.39,2.32,1.02" style="fill:none; stroke:#445d82; stroke-linecap:round; stroke-linejoin:round; stroke-width:1.5px;"/></g><path d="M10.18,14.74c-.2-.09-.63-.75-.49-.86s4.46-.21,4.58-.05-.38,.84-.64,.91-3.2,.09-3.4,0" style="fill:none; stroke:#445d82; stroke-linecap:round; stroke-linejoin:round; stroke-width:1.5px;"/></svg>