<?xml version="1.0" encoding="UTF-8"?><svg id="b" xmlns="http://www.w3.org/2000/svg" width="24" height="24" viewBox="0 0 24 24"><g><path d="m9.75,11.25c-5.14.07-6.31-.01-6.65-.19-.48-.25-.48-7.88,0-8.12s17.33-.25,17.81,0c.31.16.42,3.34.33,5.67" style="fill:none; stroke:#445d82; stroke-linecap:round; stroke-linejoin:round; stroke-width:1.5px;"/><path d="m8.56,20.5c-3.97-.02-7.26-.07-7.45-.16-.49-.22-.49-3.5,0-3.72" style="fill:none; stroke:#445d82; stroke-linecap:round; stroke-linejoin:round; stroke-width:1.5px;"/><path d="m1.1,16.62c.25-.11,2.44-.12,7.9-.12" style="fill:none; stroke:#445d82; stroke-linecap:round; stroke-linejoin:round; stroke-width:1.5px;"/><line x1="3.1" y1="11.06" x2="1" y2="16.75" style="fill:none; stroke:#445d82; stroke-linecap:round; stroke-linejoin:round; stroke-width:1.5px;"/><path d="m5.33,10.77c-.47-.24-.24-3.63,0-3.87s3.77-.24,4.01,0,.47,3.63,0,3.87" style="fill:none; stroke:#445d82; stroke-linecap:round; stroke-linejoin:round; stroke-width:1.5px;"/><path d="m13.03,8.23c.04-.57.21-1.19.33-1.32.23-.24,3.72-.24,3.95,0" style="fill:none; stroke:#445d82; stroke-linecap:round; stroke-linejoin:round; stroke-width:1.5px;"/><line x1="2.75" y1="21" x2="2.75" y2="22.25" style="fill:none; stroke:#445d82; stroke-linecap:round; stroke-linejoin:round; stroke-width:1.5px;"/></g><path d="m14,23.25l.04-4.49s.06-.44.21-.51c3.5-1.75,1.94-6.56-.11-6.56-2.17,0-3.77,4.38-.61,6.31" style="fill:none; stroke:#445d82; stroke-linecap:round; stroke-linejoin:round; stroke-width:1.5px;"/><path d="m20.99,11.84c0,.32,0,1.97.01,2.41" style="fill:none; stroke:#445d82; stroke-linecap:round; stroke-linejoin:round; stroke-width:1.5px;"/><path d="m20.22,18.24c-2.26-.51-1.74-4.02-1.09-6.24" style="fill:none; stroke:#445d82; stroke-linecap:round; stroke-linejoin:round; stroke-width:1.5px;"/><path d="m22.68,12c.64,2.21,1.23,5.72-1.08,6.22-.19.08-.61.96-.61.96v4.07" style="fill:none; stroke:#445d82; stroke-linecap:round; stroke-linejoin:round; stroke-width:1.5px;"/></svg>