<svg width="24" height="24" viewBox="0 0 24 24" fill="none" xmlns="http://www.w3.org/2000/svg">
<g clip-path="url(#clip0_4996_1481)">
<g clip-path="url(#clip1_4996_1481)">
<path d="M9.25999 2.41576C10.45 3.00477 9.25999 2.27599 7.94999 1.80677C5.36999 1.068 3.86999 1.69695 3.37999 1.87665C2.67999 2.11626 2.04999 2.46567 1.48999 2.88497M3.31999 3.78348C2.39999 3.66368 0.979991 3.53389 0.789991 3.20444C0.599991 2.87499 1.08999 1.40744 1.29999 0.748535M14.74 21.5838C13.55 20.9948 14.74 21.7236 16.05 22.1928C18.63 22.9316 20.13 22.3026 20.62 22.1229C21.32 21.8833 21.95 21.5339 22.51 21.1146M20.68 20.2161C21.6 20.3359 23.02 20.4657 23.21 20.7951C23.4 21.1246 22.91 22.5921 22.7 23.251M5.01999 10.6221V8.93489H7.88999M6.59999 15.0247H5.01999V13.4374M18.88 13.3376V15.0247H15.74M17.3 8.93489H18.88V10.5222M10.59 12.0197C10.59 11.3009 10.98 9.89329 12.03 9.89329C13.08 9.89329 13.74 10.7818 13.74 11.84C13.74 12.8983 13.22 14.1462 12.3 14.1462C11.38 14.1462 10.59 13.4374 10.59 12.0197ZM2.49999 15.9931V8.04637C2.49999 7.22774 3.11999 6.55885 3.72999 6.55885H20.16C20.77 6.55885 21.51 7.22774 21.51 8.05635V15.9732C21.51 16.8118 20.78 17.4806 20.16 17.4806H3.96999C3.35999 17.4806 2.49999 16.8118 2.49999 15.9931Z" stroke="#494A4A" stroke-width="1.5" stroke-linecap="round" stroke-linejoin="round"/>
</g>
</g>
<defs>
<clipPath id="clip0_4996_1481">
<rect width="24" height="24" fill="white"/>
</clipPath>
<clipPath id="clip1_4996_1481">
<rect width="24" height="24" fill="white"/>
</clipPath>
</defs>
</svg>
