<?xml version="1.0" encoding="UTF-8"?><svg id="gx" xmlns="http://www.w3.org/2000/svg" width="24" height="24" viewBox="0 0 24 24"><path d="M20.94,6.78c.41,2.12,.45,5.18,.18,7.52-.32,2.74-4.73,6.57-7.6,6.87-1.51,.15-4.43,.16-6.36-.02-2.89-.27-4.12-1.52-4.27-4.54-.17-3.44-.18-8.23,0-9.92s2.02-3.64,4.2-3.78c2.89-.19,7.36-.2,9.8,0,2.29,.19,3.56,1.34,4.04,3.87Z" style="fill:none; stroke:#445d82; stroke-miterlimit:10; stroke-width:1.5px;"/><line id="gy" x1="7.75" y1="1.76" x2="7.75" y2="4.26" style="fill:none; stroke:#445d82; stroke-linecap:round; stroke-linejoin:round; stroke-width:1.5px;"/><line id="gz" x1="16.26" y1="1.76" x2="16.26" y2="4.26" style="fill:none; stroke:#445d82; stroke-linecap:round; stroke-linejoin:round; stroke-width:1.5px;"/><path d="M21.23,12.45c-.09,.65,.07,2.44-2.18,2.29h-2.15c-1.19,0-2.15,.97-2.15,2.16v2.16c0,1.19-.96,2.16-2.15,2.16" style="fill:none; stroke:#445d82; stroke-linecap:round; stroke-linejoin:round; stroke-width:1.5px;"/></svg>