<?xml version="1.0" encoding="UTF-8"?><svg id="ab" xmlns="http://www.w3.org/2000/svg" width="24" height="24" viewBox="0 0 24 24"><g id="ac"><path d="M2.63,16.76c-.57,0-1.39-.93-1.65-1.19-.27-1.18-.27-2.4,.02-3.57,.31-.36,2.61-1,3-1.43,.39-.43,2.26-4.36,2.89-4.57s7.56-.32,8.19,.06,2.63,3.81,3.18,4.23,4.39,1.06,4.74,1.71c.3,1.07,.3,2.21,0,3.28-.27,.49-1.05,1.57-1.68,1.48" style="fill:none; stroke:#445d82; stroke-miterlimit:10; stroke-width:1.5px;"/><circle cx="18.76" cy="17.01" r="2.26" style="fill:none; stroke:#445d82; stroke-miterlimit:10; stroke-width:1.5px;"/><circle cx="5.43" cy="17.01" r="2.26" style="fill:none; stroke:#445d82; stroke-miterlimit:10; stroke-width:1.5px;"/><path d="M16.16,17.17c-.94,0-6.92,.13-8.15,0" style="fill:none; stroke:#445d82; stroke-linecap:round; stroke-linejoin:round; stroke-width:1.5px;"/><path d="M15.08,11.19c-2.62,.18-5.25,.08-7.85-.31" style="fill:none; stroke:#445d82; stroke-linecap:round; stroke-miterlimit:10; stroke-width:1.5px;"/><path d="M8.75,8c.03,.9,.23,1.79,.6,2.62" style="fill:none; stroke:#445d82; stroke-linecap:round; stroke-miterlimit:10; stroke-width:1.5px;"/><path d="M11.89,13.78h2" style="fill:none; stroke:#445d82; stroke-linecap:round; stroke-miterlimit:10; stroke-width:1.5px;"/></g></svg>