<?xml version="1.0" encoding="UTF-8"?><svg id="ap" xmlns="http://www.w3.org/2000/svg" width="24" height="24" viewBox="0 0 24 24"><path d="M20.57,17.6c1.67,.6,2.67,1.37,2.67,2.22,0,1.89-5.03,3.43-11.24,3.43S.77,21.71,.77,19.82c0-.82,.94-1.57,2.51-2.16" style="fill:none; stroke:#445d82; stroke-linecap:round; stroke-linejoin:round; stroke-width:1.5px;"/><path d="M21.01,17.85c0,1.32-4.02,2.38-8.97,2.38s-8.97-1.07-8.97-2.38" style="fill:none; stroke:#445d82; stroke-linecap:round; stroke-linejoin:round; stroke-width:1.5px;"/><path d="M3.5,9.37c0-.69,.71-1.16,2.68-1.56" style="fill:none; stroke:#445d82; stroke-linecap:round; stroke-linejoin:round; stroke-width:1.5px;"/><path d="M20.46,9.37c0,1.38-3.94,2.5-8.41,2.5s-8.51-1.12-8.51-2.5" style="fill:none; stroke:#445d82; stroke-linecap:round; stroke-linejoin:round; stroke-width:1.5px;"/><path d="M17.74,7.8c1.91,.4,2.69,.89,2.69,1.57" style="fill:none; stroke:#445d82; stroke-linecap:round; stroke-linejoin:round; stroke-width:1.5px;"/><line x1="3.5" y1="18.5" x2="3.5" y2="9.37" style="fill:none; stroke:#445d82; stroke-linecap:round; stroke-linejoin:round; stroke-width:1.5px;"/><line x1="20.5" y1="18.5" x2="20.5" y2="9.37" style="fill:none; stroke:#445d82; stroke-linecap:round; stroke-linejoin:round; stroke-width:1.5px;"/><path d="M3.76,14.96s1.3-1.13,1.92-.71,.48,2.19,1.32,2.11,.75-1.7,1.65-1.66,1.32,2.05,2.04,1.86c.73-.2,.83-1.83,1.64-1.83s1.25,2.03,2,1.96,.87-2,1.65-2.06,1.13,1.65,1.69,1.51,1.56-2.47,2.43-2.53" style="fill:none; stroke:#445d82; stroke-linecap:round; stroke-linejoin:round; stroke-width:1.5px;"/><ellipse cx="9.07" cy="7.48" rx="2.35" ry="2.3" style="fill:none; stroke:#445d82; stroke-linecap:round; stroke-linejoin:round; stroke-width:1.5px;"/><ellipse cx="14.95" cy="7.59" rx="2.23" ry="2.19" style="fill:none; stroke:#445d82; stroke-linecap:round; stroke-linejoin:round; stroke-width:1.5px;"/><path d="M13.63,.75s-2.28,2.6-3.51,4.26" style="fill:none; stroke:#445d82; stroke-linecap:round; stroke-linejoin:round; stroke-width:1.5px;"/><path d="M13.4,5.54c-.52-.82-1.02-1.95-1.07-3.27" style="fill:none; stroke:#445d82; stroke-linecap:round; stroke-linejoin:round; stroke-width:1.5px;"/></svg>