<?xml version="1.0" encoding="UTF-8"?><svg id="dm" xmlns="http://www.w3.org/2000/svg" width="24" height="24" viewBox="0 0 24 24"><g><path d="M1.92,1.53c1.78-1.13,10.31-.74,11.91-.49,1.72,.26,3.02,1.14,3.23,3.09,.1,.98,.05,4.61-.28,6-.42,1.77-1.18,2.55-3.05,2.76-1.33,.15-4.01-.03-4.94,.3-.61,.21-1.43,1.9-2.05,1.91-.95,.01-1.06-1.19-1.77-1.9s-1.58-.55-2.35-.84c-1.04-.39-1.42-1.29-1.65-2.75S.38,2.51,1.92,1.53Z" style="fill:none; stroke:#445d82; stroke-linecap:round; stroke-linejoin:round; stroke-width:1.5px;"/><path d="M13.03,7.41c.56,.03,.78-.98,.11-1.03s-.91,.76-.24,1.02" style="fill:none; stroke:#445d82; stroke-linecap:round; stroke-linejoin:round; stroke-width:1.5px;"/><path d="M8.94,7.41c.56,.03,.78-.98,.11-1.03s-.91,.76-.24,1.02" style="fill:none; stroke:#445d82; stroke-linecap:round; stroke-linejoin:round; stroke-width:1.5px;"/><path d="M4.86,7.41c.56,.03,.78-.98,.11-1.03s-.91,.76-.24,1.02" style="fill:none; stroke:#445d82; stroke-linecap:round; stroke-linejoin:round; stroke-width:1.5px;"/></g><path d="M12.3,15.93c.32,.81,.87,1.2,1.94,1.32,.92,.11,2.79-.02,3.43,.21,.42,.15,.99,1.8,1.42,1.81,.66,0,.74-1.31,1.24-1.8s1.1-.38,1.63-.58c.72-.27,.98-.9,1.14-1.92s.42-4.95-.65-5.63c-.33-.21-.98-.34-1.79-.42" style="fill:none; stroke:#445d82; stroke-linecap:round; stroke-linejoin:round; stroke-width:1.5px;"/><path d="M10.97,19.58c-.58,2.38-3.35,1.51-3.94,1.72-.39,.14-1.04,1.93-1.43,1.94-.61,0-.71-1.22-1.16-1.69s-1.14-.11-1.62-.31c-.66-.26-.73-.67-.88-1.63-.1-.64-.23-2.47-.04-3.82" style="fill:none; stroke:#445d82; stroke-linecap:round; stroke-linejoin:round; stroke-width:1.5px;"/></svg>