<svg width="24" height="24" viewBox="0 0 24 24" fill="none" xmlns="http://www.w3.org/2000/svg">
<g clip-path="url(#clip0_5060_1246)">
<g clip-path="url(#clip1_5060_1246)">
<path d="M6.86 6.85003L12.16 12.15M6.87 12.17L12.17 6.87003M16 16.25L18 18M18.24 9.60003C18.56 4.41003 13.68 0.930028 10.37 0.770028C3.95 0.450028 0.75 5.26003 0.75 9.60003C0.75 13.94 4.12 18.26 10.34 18.26C15.78 18.26 17.92 14.91 18.24 9.60003ZM18.29 20.45C19.41 21.66 21.42 24.32 22.83 22.79C24.24 21.26 21.76 19.53 20.56 18.4C18.73 16.68 16.79 18.84 18.29 20.45Z" stroke="#494A4A" stroke-width="1.5" stroke-linecap="round" stroke-linejoin="round"/>
</g>
</g>
<defs>
<clipPath id="clip0_5060_1246">
<rect width="24" height="24" fill="white"/>
</clipPath>
<clipPath id="clip1_5060_1246">
<rect width="24" height="24" fill="white"/>
</clipPath>
</defs>
</svg>
