<?xml version="1.0" encoding="UTF-8"?><svg id="dn" xmlns="http://www.w3.org/2000/svg" width="24" height="24" viewBox="0 0 24 24"><path d="M15.18,15.92c-.05,1.46-.13,2.72-.24,3.59-.27,2.25-1.32,3.35-3.02,3.54-2.31,.26-5.76,.27-7.86,0-1.66-.21-2.75-1.29-2.98-3.54-.47-4.6-.4-11.7,0-15.73,.15-1.51,.92-2.57,2.61-2.8,1.96-.27,6.97-.27,8.65,0,1.41,.23,2.46,1.29,2.61,2.8,.05,.54,.1,1.14,.14,1.78" style="fill:none; stroke:#445d82; stroke-linecap:round; stroke-linejoin:round; stroke-width:1.5px;"/><path d="M7.27,19.53c-.09-1.08,1.43-.98,1.43,.04,0,.93-1.35,.88-1.43,0" style="fill:none; stroke:#445d82; stroke-linecap:round; stroke-linejoin:round; stroke-width:1.5px;"/><polyline points="5.48 1.01 6.48 2.26 9.48 2.26 10.73 1.01" style="fill:none; stroke:#445d82; stroke-linecap:round; stroke-linejoin:round; stroke-width:1.5px;"/><path d="M10.75,14.25c.25-2.75,.25-5.75,10.88-4.52" style="fill:none; stroke:#445d82; stroke-linecap:round; stroke-linejoin:round; stroke-width:1.5px;"/><path d="M18.57,5.76c1.3,.92,3.73,3.13,3.67,3.96s-2.58,3.24-3.75,3.98" style="fill:none; stroke:#445d82; stroke-linecap:round; stroke-linejoin:round; stroke-width:1.5px;"/></svg>