<?xml version="1.0" encoding="UTF-8"?><svg id="bv" xmlns="http://www.w3.org/2000/svg" width="24" height="24" viewBox="0 0 24 24"><path d="M1.91,5.89c.24-2.38,.7-3.75,3.24-3.99,2.55-.24,12.59-.18,13.85,0s3.01,.57,3.15,3.15,.08,9.8,.03,12.17c-.08,4.44-.77,4.86-4.96,4.86,0,0-10.25,.23-12.08,.11-1.31-.09-3.11-.18-3.21-3.95-.04-1.53-.36-9.07-.03-12.34Z" style="fill:none; stroke:#445d82; stroke-linecap:round; stroke-linejoin:round; stroke-width:1.5px;"/><path d="M7.85,6.14c-.8,0-1.9-.01-1.96-.25-.02-.1-.22-.57-.02-.77,.14-.15,.42-.23,1.97-.25s10.15-.33,10.36,.2c.07,.18,.01,.61,.02,.76,.03,.63-9.26,.32-10.38,.31Z" style="fill:none; stroke:#445d82; stroke-linecap:round; stroke-linejoin:round; stroke-width:1.5px;"/><path d="M16.79,11.06c0-.54,.01-1.2,.28-1.24" style="fill:none; stroke:#445d82; stroke-linecap:round; stroke-linejoin:round; stroke-width:1.5px;"/><path d="M17.97,18.2c-.18,.06-.68,.03-.85,.01-.31-.03-.34-.32-.34-2.06,0,0-.02-4.25,0-5.01" style="fill:none; stroke:#445d82; stroke-linecap:round; stroke-linejoin:round; stroke-width:1.5px;"/><path d="M12.77,18.23c-.31,.02-1.12,0-1.41,0-.54-.01-.59-.09-.59-.6,0,0-.03-1.25-.01-1.47" style="fill:none; stroke:#445d82; stroke-linecap:round; stroke-linejoin:round; stroke-width:1.5px;"/><path d="M12.77,12.23c-.31,.02-1.12,0-1.41,0-.54-.01-.59-.09-.59-.6,0,0-.03-1.25-.01-1.47" style="fill:none; stroke:#445d82; stroke-linecap:round; stroke-linejoin:round; stroke-width:1.5px;"/><path d="M7.78,18.23c-.31,.02-1.12,0-1.41,0-.54-.01-.59-.09-.59-.6,0,0-.03-1.25-.01-1.47" style="fill:none; stroke:#445d82; stroke-linecap:round; stroke-linejoin:round; stroke-width:1.5px;"/><path d="M7.78,12.23c-.31,.02-1.12,0-1.41,0-.54-.01-.59-.09-.59-.6,0,0-.03-1.25-.01-1.47" style="fill:none; stroke:#445d82; stroke-linecap:round; stroke-linejoin:round; stroke-width:1.5px;"/></svg>