<svg width="53" height="24" viewBox="0 0 53 24" fill="none" xmlns="http://www.w3.org/2000/svg">
<path fill-rule="evenodd" clip-rule="evenodd" d="M35.7176 21.1741C36.1562 21.9917 36.6972 23 37.95 23L37.96 23.01H38C38.8109 23.0001 39.436 22.1883 40.0978 21.3289L40.12 21.3L40.1301 21.2867C40.4109 20.9156 40.8624 20.3189 41.06 20.23C41.7021 20.0028 43.32 19.9805 44.757 19.9607L44.81 19.96L45.123 19.9544C46.0875 19.9373 46.9938 19.9213 47.68 19.84C50.49 19.51 51.85 18.24 52.52 15.32C53 13.19 53.04 7.86001 52.91 6.52001C52.63 3.69001 50.88 1.94001 47.85 1.45001C45.89 1.12001 33.73 0.430005 30.94 2.26001C27.99 4.20001 29.3 14.44 29.32 14.54C29.66 16.73 30.25 18.34 32.05 19.04C32.48 19.21 32.91 19.29 33.32 19.36C34 19.48 34.54 19.58 35 20.06C35.28 20.35 35.5 20.76 35.71 21.16L35.7176 21.1741ZM33.3493 9.50575C33.8504 8.62287 37.024 8.69446 35.6638 11.367H35.64C34.9957 12.6316 31.9892 11.9874 33.3493 9.50575ZM41.8639 11.367C43.224 8.69445 40.0504 8.62287 39.5493 9.50575C38.1892 11.9874 41.1957 12.6316 41.84 11.367H41.8639ZM48.1211 11.3858C49.492 8.69202 46.2931 8.61986 45.8121 9.50978C44.4411 12.0112 47.4717 12.6606 48.1211 11.3858Z" fill="#445D82"/>
<path d="M2.35 2.88C4.8 1.27 16.53 1.82 18.73 2.18C21.09 2.56 22.89 3.8 23.17 6.59C23.31 7.98 23.24 13.17 22.79 15.15C22.21 17.68 21.16 18.79 18.59 19.09C16.77 19.31 13.08 19.05 11.8 19.52C10.96 19.83 9.83 22.24 8.98 22.25C7.67 22.27 7.52 20.55 6.55 19.54C5.58 18.53 4.37 18.76 3.33 18.34C1.9 17.78 1.38 16.5 1.06 14.42C0.74 12.34 0.24 4.27 2.35 2.88Z" stroke="#445D82" stroke-width="1.5" stroke-linecap="round" stroke-linejoin="round"/>
<path d="M6.28999 10.9C6.85999 9.78 5.52999 9.75 5.31999 10.12C4.74999 11.16 6.00999 11.43 6.27999 10.9" stroke="#445D82" stroke-width="1.5" stroke-linecap="round" stroke-linejoin="round"/>
<path d="M12.49 10.9C13.06 9.78 11.73 9.75 11.52 10.12C10.95 11.16 12.21 11.43 12.48 10.9" stroke="#445D82" stroke-width="1.5" stroke-linecap="round" stroke-linejoin="round"/>
<path d="M18.74 10.9C19.31 9.78 17.98 9.75 17.78 10.12C17.21 11.16 18.47 11.43 18.74 10.9Z" stroke="#445D82" stroke-width="1.5" stroke-linecap="round" stroke-linejoin="round"/>
</svg>
