<?xml version="1.0" encoding="UTF-8"?><svg id="d" xmlns="http://www.w3.org/2000/svg" width="24" height="24" viewBox="0 0 24 24"><rect id="e" width="24" height="24" style="fill:#d45064; opacity:0;"/><path d="m10.73,22.25c-.86,0-3.41-.02-3.91-.04-1.74-.06-3.78-.38-3.93-2.8-.21-3.3-.14-8.24-.05-10.19.06-1.22.53-1.91,1.17-2.76.64-.85,2.74-2.9,3.65-3.56s1.79-1.1,2.82-1.13,3.56,0,5.35.03,3.21.96,3.32,3.86c.05.74.08,2.18.1,4.07" style="fill:none; stroke:#445d82; stroke-linecap:round; stroke-linejoin:round; stroke-width:1.5px;"/><path d="m2.81,10.46c.09-.65-.07-2.42,2.15-2.28h2.12c1.17,0,2.12-.96,2.12-2.15v-2.15c0-1.19.95-2.15,2.12-2.15" style="fill:none; stroke:#445d82; stroke-linecap:round; stroke-linejoin:round; stroke-width:1.5px;"/><path d="m8.98,13.08s-3-.8-3,2.69c0,4.27,3,3.45,3,3.45" style="fill:none; stroke:#445d82; stroke-linecap:round; stroke-linejoin:round; stroke-width:1.5px;"/><polyline points="17.5 13 19.47 19.25 21.25 13" style="fill:none; stroke:#445d82; stroke-linecap:round; stroke-linejoin:round; stroke-width:1.5px;"/><path d="m15,13.52s-.5-.52-1.24-.52c-1.44,0-1.61,1.35-1.26,2.08.5,1.04,1.63.8,2.28,2,.47.87-.21,2.36-1.44,2.15s-1.6-1.54-1.6-1.54" style="fill:none; stroke:#445d82; stroke-linecap:round; stroke-linejoin:round; stroke-width:1.5px;"/></svg>