<?xml version="1.0" encoding="UTF-8"?><svg id="hj" xmlns="http://www.w3.org/2000/svg" width="24" height="24" viewBox="0 0 24 24"><path d="M16.34,2.68l.79,.09c1.54,.21,2.47,.88,2.82,3.07s.35,10.91,.2,12.59c-.21,2.36-1.45,3.48-3.13,3.67-1.67,.19-7.86,.18-10.03,0s-2.88-.73-3.08-3.07-.16-11.14,.03-13.19,1.33-2.8,3.08-3.07l.37-.05" style="fill:none; stroke:#445d82; stroke-linecap:round; stroke-linejoin:round; stroke-width:1.5px;"/><line x1="7.76" y1="9.26" x2="16.25" y2="9.26" style="fill:none; stroke:#445d82; stroke-linecap:round; stroke-linejoin:round; stroke-width:1.5px;"/><line x1="7.76" y1="13.26" x2="16.25" y2="13.26" style="fill:none; stroke:#445d82; stroke-linecap:round; stroke-linejoin:round; stroke-width:1.5px;"/><line x1="7.76" y1="17.25" x2="16.25" y2="17.25" style="fill:none; stroke:#445d82; stroke-linecap:round; stroke-linejoin:round; stroke-width:1.5px;"/><line x1="10.75" y1=".77" x2="13.26" y2=".77" style="fill:none; stroke:#445d82; stroke-linecap:round; stroke-linejoin:round; stroke-width:1.5px;"/><path d="M16.09,4.1c-.21,.23-7.9,.18-8.15,0s-.32-2.08,0-2.28,7.83-.13,8.15,0,.21,2.06,0,2.28Z" style="fill:none; stroke:#445d82; stroke-linecap:round; stroke-linejoin:round; stroke-width:1.5px;"/></svg>