<?xml version="1.0" encoding="UTF-8"?><svg id="bj" xmlns="http://www.w3.org/2000/svg" width="24" height="24" viewBox="0 0 24 24"><line x1="20.25" y1="17.5" x2="14.75" y2="17.5" style="fill:none; stroke:#445d82; stroke-linecap:round; stroke-linejoin:round; stroke-width:1.5px;"/><line x1="17.5" y1="20.25" x2="17.5" y2="14.75" style="fill:none; stroke:#445d82; stroke-linecap:round; stroke-linejoin:round; stroke-width:1.5px;"/><line x1="12.75" y1="7.75" x2="16.25" y2="7.75" style="fill:none; stroke:#445d82; stroke-linecap:round; stroke-linejoin:round; stroke-width:1.5px;"/><line x1="6.75" y1="11.75" x2="9.25" y2="11.75" style="fill:none; stroke:#445d82; stroke-linecap:round; stroke-linejoin:round; stroke-width:1.5px;"/><line x1="6.75" y1="15.75" x2="7.75" y2="15.75" style="fill:none; stroke:#445d82; stroke-linecap:round; stroke-linejoin:round; stroke-width:1.5px;"/><path d="M9.23,22.18c-.86,0-.91-.02-1.4-.04-1.74-.06-3.78-.33-3.93-2.74-.21-3.3-.14-8.25-.05-10.2,.06-1.22,.52-1.91,1.17-2.76,.64-.85,2.74-2.91,3.64-3.56s1.79-1.1,2.82-1.13c1.03-.02,3.55,0,5.34,.03s3.21,.96,3.31,3.86c.04,.61,.09,.78,.11,2.24" style="fill:none; stroke:#445d82; stroke-linecap:round; stroke-linejoin:round; stroke-width:1.5px;"/><path d="M3.81,10.51c.09-.65-.07-2.43,2.17-2.29h2.14c1.18,0,2.14-.96,2.14-2.16V3.92c0-1.19,.96-2.16,2.14-2.16" style="fill:none; stroke:#445d82; stroke-linecap:round; stroke-linejoin:round; stroke-width:1.5px;"/><circle cx="17.49" cy="17.49" r="5.74" style="fill:none; stroke:#445d82; stroke-linecap:round; stroke-linejoin:round; stroke-width:1.5px;"/></svg>