<?xml version="1.0" encoding="UTF-8"?><svg id="gf" xmlns="http://www.w3.org/2000/svg" width="24" height="24" viewBox="0 0 24 24"><path d="M16.49,21.68c-.64,.68-1.63,.56-2.8,.56H6.51c-1.98,0-3.45-.84-3.59-3.47-.17-2.85-.12-8.73,0-10.42,.05-1.55,.62-2.49,1.49-2.99" style="fill:none; stroke:#445d82; stroke-linecap:round; stroke-linejoin:round; stroke-width:1.5px;"/><path d="M21.18,9.17c-.07-.55,.06-2.05-1.83-1.92h-1.8c-.99,0-1.8-.81-1.8-1.81v-1.81c0-1-.81-1.81-1.8-1.81" style="fill:none; stroke:#445d82; stroke-linecap:round; stroke-linejoin:round; stroke-width:1.5px;"/><path d="M6.86,15.75c.15,2.64,1.61,3.49,3.58,3.49h7.16c1.97,0,3.43,.37,3.58-3.49,.15-3.86,.02-6.83,0-6.98v-.3c0-.92-.38-1.82-1.05-2.47l-3.27-3.19c-.67-.65-1.58-1.02-2.53-1.02h-3.88c-1.97,0-3.49,.89-3.58,3.49-.11,1.69-.16,7.61,0,10.47Z" style="fill:none; stroke:#445d82; stroke-linecap:round; stroke-linejoin:round; stroke-width:1.5px;"/></svg>