<?xml version="1.0" encoding="UTF-8"?><svg id="bx" xmlns="http://www.w3.org/2000/svg" width="24" height="24" viewBox="0 0 24 24"><path d="M1.96,5.91c.21-2.38,.69-3.75,3.23-3.99s12.55-.18,13.81,0c1.25,.18,3,.57,3.14,3.15s.08,9.8,.03,12.17c-.08,4.44-.77,4.86-4.94,4.86,0,0-10.22,.23-12.04,.11-1.3-.09-3.04-.18-3.2-3.95-.05-1.28-.42-8-.03-12.34Z" style="fill:none; stroke:#445d82; stroke-linecap:round; stroke-linejoin:round; stroke-width:1.5px;"/><line x1=".76" y1="12" x2="3.83" y2="12" style="fill:none; stroke:#445d82; stroke-linecap:round; stroke-linejoin:round; stroke-width:1.5px;"/><line x1=".76" y1="18.25" x2="3.83" y2="18.25" style="fill:none; stroke:#445d82; stroke-linecap:round; stroke-linejoin:round; stroke-width:1.5px;"/><line x1=".76" y1="5.75" x2="3.83" y2="5.75" style="fill:none; stroke:#445d82; stroke-linecap:round; stroke-linejoin:round; stroke-width:1.5px;"/><path d="M13.43,11.85c.01,3.3,3.82,1.55,3.82,4.4,0,1.3-10.51,1.3-10.51,0,0-2.86,3.81-1.1,3.82-4.4" style="fill:none; fill-rule:evenodd; stroke:#445d82; stroke-linecap:round; stroke-miterlimit:10; stroke-width:1.5px;"/><path d="M12.14,12.27c1.42,0,2.37-1.68,2.37-3.95,0-1.74-.9-2.58-2.37-2.58s-2.37,.84-2.37,2.58c0,2.28,.96,3.95,2.37,3.95Z" style="fill:none; fill-rule:evenodd; stroke:#445d82; stroke-miterlimit:10; stroke-width:1.5px;"/></svg>