<svg width="24" height="24" viewBox="0 0 24 24" fill="none" xmlns="http://www.w3.org/2000/svg">
<g clip-path="url(#clip0_3706_798)">
<path d="M23.4093 6.79125C23.1293 4.01125 21.3393 2.76125 18.9693 2.38125C16.7593 2.03125 5.03934 1.48125 2.58934 3.09125C0.469342 4.48125 0.969341 12.5112 1.29934 14.6212C1.61934 16.7012 2.13934 17.9812 3.56934 18.5412C4.61934 18.9512 5.81934 18.7312 6.78934 19.7412C7.75934 20.7512 7.90934 22.4612 9.21934 22.4512C10.0693 22.4412 11.1993 20.0312 12.0393 19.7212C13.3193 19.2512 17.0093 19.5112 18.8293 19.2912C21.3993 18.9812 22.4493 17.8712 23.0293 15.3512C23.4793 13.3712 23.5493 8.18125 23.4093 6.79125ZM7.16934 11.4012H7.15934C6.55934 12.5812 3.80934 11.9712 5.04934 9.70125C5.50934 8.87125 8.41934 8.96125 7.16934 11.4012ZM13.4193 11.4012H13.4093C12.8093 12.5812 10.0593 11.9712 11.2993 9.70125C11.7593 8.87125 14.6693 8.96125 13.4193 11.4012ZM19.6693 11.3812H19.6593C19.0593 12.5612 16.3093 11.9512 17.5493 9.68125C18.0093 8.85125 20.9193 8.94125 19.6693 11.3812Z" fill="#494A4A"/>
</g>
<defs>
<clipPath id="clip0_3706_798">
<rect width="24" height="24" fill="white"/>
</clipPath>
</defs>
</svg>
