<?xml version="1.0" encoding="UTF-8"?><svg id="gg" xmlns="http://www.w3.org/2000/svg" width="24" height="24" viewBox="0 0 24 24"><path d="M1.45,18.71c-2.39,3.47,1.95,6.46,4.34,2.99s-1.95-6.46-4.34-2.99Z" style="fill:none; stroke:#445d82; stroke-linecap:round; stroke-linejoin:round; stroke-width:1.5px;"/><path d="M5.81,21.82c3.03-5.13,5.49-5.79,7.41-7.36C23.05,6.42,19.87,.28,19.16,.8c-3.82,2.78-8.1,6.64-11.04,10.24-1.08,1.33,.65,4.85-1.63,9.07" style="fill:none; stroke:#445d82; stroke-linecap:round; stroke-linejoin:round; stroke-width:1.5px;"/><path d="M12.4,11.51c0-.76-.84-.52-.84,.04s.83,.59,.83-.03" style="fill:none; stroke:#445d82; stroke-linecap:round; stroke-linejoin:round; stroke-width:1.5px;"/><path d="M22.54,18.71c2.39,3.47-1.95,6.46-4.34,2.99s1.95-6.46,4.34-2.99Z" style="fill:none; stroke:#445d82; stroke-linecap:round; stroke-linejoin:round; stroke-width:1.5px;"/><path d="M15.06,13.08c.01,.94-.09,1.84,.41,3.38,.34,1.04,.95,2.21,2.05,3.52" style="fill:none; stroke:#445d82; stroke-linecap:round; stroke-linejoin:round; stroke-width:1.5px;"/><path d="M5.35,9.25C1.22,4.64,3.19,.41,3.76,.83c2.02,1.49,5.08,3.89,7.72,6.53" style="fill:none; stroke:#445d82; stroke-linecap:round; stroke-linejoin:round; stroke-width:1.5px;"/><path d="M18.19,21.7c-1.26-2.16-2.48-3.47-3.61-4.39-.84-.69-1.63-1.17-2.33-1.62" style="fill:none; stroke:#445d82; stroke-linecap:round; stroke-linejoin:round; stroke-width:1.5px;"/></svg>