<?xml version="1.0" encoding="UTF-8"?><svg id="g" xmlns="http://www.w3.org/2000/svg" width="24" height="24" viewBox="0 0 24 24"><path id="h" d="M10,22.24c-1.44-.01-2.7-.05-3.61-.11-1.93-.13-4.33,.02-4.49-4.5-.16-4.53-.07-8.77,0-11.26,.07-2.49,.77-4.5,4.49-4.5s8.87-.23,11.23,0c2.36,.23,4.37,2.03,4.49,4.5,.06,1.16,.1,2.24,.12,3.89" style="fill:none; stroke:#445d82; stroke-linecap:round; stroke-linejoin:round; stroke-width:1.5px;"/><line id="i" x1="7.26" y1=".75" x2="7.26" y2="3.75" style="fill:none; stroke:#445d82; stroke-linecap:round; stroke-linejoin:round; stroke-width:1.5px;"/><line id="j" x1="16.26" y1=".75" x2="16.26" y2="3.75" style="fill:none; stroke:#445d82; stroke-linecap:round; stroke-linejoin:round; stroke-width:1.5px;"/><path d="M17.36,7.54c.43,.43,1.27,.03,.72-.62-.39-.46-1.2,.14-.72,.62Z" style="fill:none; stroke:#445d82; stroke-linecap:round; stroke-linejoin:round; stroke-width:1.5px;"/><path d="M11.6,7.54c.27,.54,1.39-.09,.72-.62-.49-.39-1.03,0-.72,.62Z" style="fill:none; stroke:#445d82; stroke-linecap:round; stroke-linejoin:round; stroke-width:1.5px;"/><path d="M11.58,12.79c.25,.5,1.33,.02,.78-.63-.39-.46-1.02,.15-.78,.63Z" style="fill:none; stroke:#445d82; stroke-linecap:round; stroke-linejoin:round; stroke-width:1.5px;"/><path d="M5.82,12.74c.27,.54,1.16,.16,.81-.61-.18-.39-1.12-.01-.81,.61Z" style="fill:none; stroke:#445d82; stroke-linecap:round; stroke-linejoin:round; stroke-width:1.5px;"/><path d="M5.87,18.05c.27,.54,1.39-.35,.62-.72-.55-.26-.93,.1-.62,.72Z" style="fill:none; stroke:#445d82; stroke-linecap:round; stroke-linejoin:round; stroke-width:1.5px;"/><g><path d="M13.94,18.85s3.56-3.72,5.89-5.73c.5-.46,1.07-.41,1.48,0l1.66,1.65c.41,.41,.35,.92,0,1.47s-5.19,5.69-6.35,6.42c-.43,.27-.73,.46-1.09,.55s-1.66,0-1.66,0c-.58,0-1.04-.47-1.04-1.04,0,0-.05-1.22,0-1.65s1.12-1.67,1.12-1.67Z" style="fill:none; stroke:#445d82; stroke-miterlimit:10; stroke-width:1.5px;"/><line x1="17.92" y1="14.89" x2="21.05" y2="18.01" style="fill:none; stroke:#445d82; stroke-miterlimit:10; stroke-width:1.5px;"/></g></svg>