<?xml version="1.0" encoding="UTF-8"?><svg id="do" xmlns="http://www.w3.org/2000/svg" width="24" height="24" viewBox="0 0 24 24"><g><path d="M2.06,1.63C4.06,.33,13.65,.78,15.45,1.07c1.93,.3,3.4,1.31,3.63,3.56,.11,1.12,.06,5.31-.31,6.9-.47,2.04-1.33,2.93-3.43,3.18-1.49,.17-4.51-.03-5.55,.35-.69,.25-1.61,2.19-2.3,2.2-1.07,.01-1.19-1.37-1.99-2.18s-1.78-.63-2.64-.97c-1.17-.45-1.59-1.48-1.85-3.17S.32,2.76,2.06,1.63Z" style="fill:none; stroke:#445d82; stroke-linecap:round; stroke-linejoin:round; stroke-width:1.5px;"/><path d="M5.79,8.71c.42-.77-.58-.75-.73-.49-.42,.72,.5,.91,.7,.54" style="fill:none; stroke:#445d82; stroke-linecap:round; stroke-linejoin:round; stroke-width:1.5px;"/><path d="M10.33,8.7c.42-.77-.58-.75-.73-.49-.42,.72,.5,.91,.7,.54" style="fill:none; stroke:#445d82; stroke-linecap:round; stroke-linejoin:round; stroke-width:1.5px;"/><path d="M14.9,8.71c.42-.77-.58-.75-.73-.49-.42,.72,.5,.91,.7,.54" style="fill:none; stroke:#445d82; stroke-linecap:round; stroke-linejoin:round; stroke-width:1.5px;"/></g><path d="M12.63,18.91c.03,.37,.07,.71,.13,.94,.27,1.2,.77,1.73,2,1.88,.87,.1,2.62-.02,3.23,.2,.4,.15,.94,1.3,1.34,1.3,.62,0,.69-.81,1.16-1.29s1.04-.37,1.53-.57c.68-.27,.93-.88,1.08-1.87s.39-4.83-.61-5.5c-.11-.07-.25-.13-.42-.19" style="fill:none; stroke:#445d82; stroke-linecap:round; stroke-linejoin:round; stroke-width:1.5px;"/></svg>