<?xml version="1.0" encoding="UTF-8"?><svg id="ho" xmlns="http://www.w3.org/2000/svg" width="24" height="24" viewBox="0 0 24 24"><path d="M10.29,18.49h4.43c.98,0,.98,1.5,0,1.5,0,0-4.43,0-4.43,0-.98,0-.98-1.5,0-1.5h0Z" style="fill:#445d82;"/><path d="M4.71,18.92C1.93,17.53-1.45,14.06,.71,10.75c1.77-2.07,4.84-1.75,7.22-1.73,0,0-.78,.68-.78,.68,.37-2.43,.62-5.29,2.58-7.17,1.11-.78,2.15-.42,3.29-.47,2.53,.17,5.14,.85,7,2.83,1.45,1.61,2.05,3.79,1.92,5.86l-.54-.77c4.66,1.69,2.26,8.09-1.48,9.37-.9,.4-1.51-.94-.63-1.36,2.03-.81,3.72-3.13,3.01-5.32-.23-.62-.69-1.06-1.32-1.25-.34-.1-.56-.43-.54-.77,.34-3.73-2.52-6.58-6.16-6.95-.81-.09-1.93-.2-2.73-.16-.57-.02-.63,.03-.91,.18-1.44,1.54-1.69,4-2.01,6.12-.04,.4-.39,.69-.78,.68-2.01,.01-5.52-.42-6.27,1.77-.47,2.31,1.88,4.28,3.81,5.3,.87,.46,.15,1.79-.71,1.32h0Z" style="fill:#445d82;"/><path d="M16.78,10.49l-8.69,.02c-.99,.02-1.02-1.49-.03-1.5,0,0,8.75-.02,8.75-.02,1,0,.97,1.53-.03,1.5h0Z" style="fill:#445d82;"/><path d="M19.24,18.99c-.08,1.24-1.01,2.25-2.26,2.25s-2.21-1.01-2.26-2.25c-.06-1.44,1.01-2.25,2.26-2.25s2.36,.64,2.26,2.25Z" style="fill:none; stroke:#445d82; stroke-linecap:round; stroke-linejoin:round; stroke-width:1.5px;"/><path d="M10.25,19c-.08,1.25-1.01,2.26-2.25,2.26s-2.2-1.01-2.25-2.26c-.06-1.45,1.01-2.26,2.25-2.26s2.35,.64,2.25,2.26Z" style="fill:none; stroke:#445d82; stroke-linecap:round; stroke-linejoin:round; stroke-width:1.5px;"/><line x1="14" y1="12.75" x2="16" y2="12.75" style="fill:none; stroke:#445d82; stroke-linecap:round; stroke-linejoin:round; stroke-width:1.5px;"/></svg>