<?xml version="1.0" encoding="UTF-8"?><svg id="bo" xmlns="http://www.w3.org/2000/svg" width="24" height="24" viewBox="0 0 24 24"><path d="M11.64,12.33c1.36-.84,7.86-.55,9.08-.37,1.31,.2,2.3,.85,2.46,2.3,.08,.73,.04,4.26-.21,5.3-.32,1.32-.9,1.9-2.33,2.06-1.01,.11-3.06-.02-3.76,.22-.47,.16-1.09,1.42-1.56,1.42-.73,0-.81-.89-1.35-1.41-.54-.52-1.21-.41-1.79-.62-.79-.29-1.08-.96-1.26-2.05-.18-1.1-.46-6.12,.72-6.85Z" style="fill:none; stroke:#445d82; stroke-linecap:round; stroke-linejoin:round; stroke-width:1.5px;"/><path d="M20.37,17.06c.45-.84-.61-.87-.77-.58-.45,.78,.54,.99,.76,.59" style="fill:none; stroke:#445d82; stroke-linecap:round; stroke-linejoin:round; stroke-width:1.5px;"/><path d="M17.39,17.06c.45-.84-.61-.87-.77-.58-.45,.78,.54,.99,.76,.59" style="fill:none; stroke:#445d82; stroke-linecap:round; stroke-linejoin:round; stroke-width:1.5px;"/><path d="M14.38,17.06c.45-.84-.61-.87-.77-.58-.45,.78,.54,.99,.76,.59" style="fill:none; stroke:#445d82; stroke-linecap:round; stroke-linejoin:round; stroke-width:1.5px;"/><path d="M8.89,22.2c-.79,0-.62-.02-1.08-.04-1.73-.06-3.76-.33-3.91-2.74-.2-3.3-.14-8.24-.05-10.19,.06-1.22,.52-1.91,1.16-2.76,.64-.85,2.72-2.91,3.62-3.56s1.78-1.1,2.81-1.13,3.54,0,5.32,.03c1.78,.02,3.19,.96,3.3,3.86,.04,.57,.11,1.84,.1,3.12" style="fill:none; stroke:#445d82; stroke-linecap:round; stroke-linejoin:round; stroke-width:1.5px;"/><path d="M3.82,10.52c.09-.65-.07-2.43,2.17-2.29h2.14c1.18,0,2.14-.96,2.14-2.16V3.92c0-1.19,.96-2.16,2.14-2.16" style="fill:none; stroke:#445d82; stroke-linecap:round; stroke-linejoin:round; stroke-width:1.5px;"/></svg>