<svg width="24" height="24" viewBox="0 0 24 24" fill="none" xmlns="http://www.w3.org/2000/svg">
<path fill-rule="evenodd" clip-rule="evenodd" d="M8.38834 10.1441C8.38879 10.1434 8.39294 10.1369 8.40248 10.1236C8.41252 10.1095 8.42614 10.0912 8.44387 10.0683C8.47953 10.0222 8.52661 9.96416 8.58519 9.89461C8.70227 9.75557 8.85538 9.58212 9.03479 9.38506C9.3931 8.99147 9.84418 8.51695 10.2959 8.05913C10.7487 7.60025 11.1947 7.16561 11.5439 6.84915C11.6276 6.77332 11.7033 6.70651 11.7703 6.64911C11.813 6.6846 11.8596 6.72417 11.9098 6.76784C12.2122 7.03066 12.6036 7.40165 13.0189 7.81776C13.8584 8.6589 14.7352 9.62362 15.1415 10.1881C15.3835 10.5243 15.8522 10.6007 16.1883 10.3587C16.5245 10.1168 16.6009 9.64808 16.359 9.31189C15.8785 8.64424 14.9298 7.60896 14.0806 6.75813C13.6516 6.32826 13.2328 5.93028 12.8937 5.63562C12.7258 5.48973 12.5656 5.35872 12.4269 5.26012C12.3587 5.21162 12.2807 5.16011 12.1998 5.11759L12.1979 5.11658C12.1474 5.09 11.9764 5 11.7597 5C11.6097 5 11.4928 5.04266 11.441 5.06337C11.378 5.08854 11.3239 5.11776 11.2835 5.14141C11.2024 5.1889 11.1217 5.24673 11.049 5.30232C10.9008 5.41567 10.7243 5.56764 10.5367 5.73762C10.1583 6.08048 9.69048 6.53703 9.22815 7.00561C8.76477 7.47524 8.29958 7.96445 7.92558 8.37527C7.57532 8.76002 7.24632 9.13865 7.11215 9.35585C6.89447 9.70826 7.00368 10.1704 7.35608 10.3881C7.70849 10.6058 8.17063 10.4966 8.38831 10.1441C8.38829 10.1442 8.3883 10.1442 8.38834 10.1441ZM15.1119 13.8409C15.1115 13.8416 15.1074 13.8481 15.0978 13.8615C15.0878 13.8755 15.0742 13.8938 15.0564 13.9168C15.0208 13.9629 14.9737 14.0209 14.9151 14.0904C14.798 14.2295 14.6449 14.4029 14.4655 14.6C14.1072 14.9936 13.6561 15.4681 13.2044 15.9259C12.7516 16.3848 12.3056 16.8194 11.9563 17.1359C11.8727 17.2117 11.797 17.2785 11.7299 17.3359C11.6873 17.3004 11.6407 17.2609 11.5905 17.2172C11.288 16.9544 10.8967 16.5834 10.4814 16.1673C9.64187 15.3261 8.76507 14.3614 8.35879 13.7969C8.11682 13.4607 7.64814 13.3843 7.31194 13.6263C6.97575 13.8683 6.89936 14.337 7.14132 14.6732C7.62184 15.3408 8.57051 16.3761 9.41968 17.2269C9.84872 17.6568 10.2675 18.0548 10.6066 18.3494C10.7744 18.4953 10.9347 18.6263 11.0734 18.7249C11.1416 18.7734 11.2196 18.8249 11.3005 18.8675L11.3024 18.8685C11.3529 18.895 11.5239 18.985 11.7406 18.985C11.8905 18.985 12.0075 18.9424 12.0593 18.9217C12.1223 18.8965 12.1764 18.8673 12.2168 18.8436C12.2978 18.7961 12.3786 18.7383 12.4513 18.6827C12.5995 18.5694 12.776 18.4174 12.9636 18.2474C13.3419 17.9046 13.8098 17.448 14.2721 16.9794C14.7355 16.5098 15.2007 16.0206 15.5747 15.6098C15.925 15.225 16.254 14.8464 16.3881 14.6292C16.6058 14.2768 16.4966 13.8146 16.1442 13.597C15.7918 13.3793 15.3297 13.4885 15.112 13.8409C15.112 13.8409 15.112 13.8409 15.1119 13.8409Z" fill="#494A4A"/>
</svg>
