<?xml version="1.0" encoding="UTF-8"?><svg id="f" xmlns="http://www.w3.org/2000/svg" width="24" height="24" viewBox="0 0 24 24"><path id="g" d="M10,22.24c-1.44-.01-2.7-.05-3.61-.11-1.93-.13-4.33,.02-4.49-4.5-.16-4.53-.07-8.77,0-11.26,.07-2.49,.77-4.5,4.49-4.5s8.87-.23,11.23,0c2.36,.23,4.37,2.03,4.49,4.5,.06,1.16,.1,2.24,.12,3.89" style="fill:none; stroke:#445d82; stroke-linecap:round; stroke-linejoin:round; stroke-width:1.5px;"/><line id="h" x1="7.26" y1=".75" x2="7.26" y2="3.75" style="fill:none; stroke:#445d82; stroke-linecap:round; stroke-linejoin:round; stroke-width:1.5px;"/><line id="i" x1="16.26" y1=".75" x2="16.26" y2="3.75" style="fill:none; stroke:#445d82; stroke-linecap:round; stroke-linejoin:round; stroke-width:1.5px;"/><path d="M17.36,7.54c.43,.43,1.27,.03,.72-.62-.39-.46-1.2,.14-.72,.62Z" style="fill:none; stroke:#445d82; stroke-linecap:round; stroke-linejoin:round; stroke-width:1.5px;"/><path d="M11.6,7.54c.27,.54,1.39-.09,.72-.62-.49-.39-1.03,0-.72,.62Z" style="fill:none; stroke:#445d82; stroke-linecap:round; stroke-linejoin:round; stroke-width:1.5px;"/><path d="M11.5,11.49c-.12,.03-.24,.07-.34,.13-.18,.1-.34,.37-.43,.64" style="fill:none; stroke:#445d82; stroke-linecap:round; stroke-linejoin:round; stroke-width:1.5px;"/><path d="M5.82,12.74c.27,.54,1.16,.16,.81-.61-.18-.39-1.12-.01-.81,.61Z" style="fill:none; stroke:#445d82; stroke-linecap:round; stroke-linejoin:round; stroke-width:1.5px;"/><path d="M5.87,18.05c.27,.54,1.39-.35,.62-.72-.55-.26-.93,.1-.62,.72Z" style="fill:none; stroke:#445d82; stroke-linecap:round; stroke-linejoin:round; stroke-width:1.5px;"/><line x1="20.26" y1="17.51" x2="14.76" y2="17.51" style="fill:none; stroke:#445d82; stroke-linecap:round; stroke-linejoin:round; stroke-width:1.5px;"/><line x1="17.51" y1="20.26" x2="17.51" y2="14.76" style="fill:none; stroke:#445d82; stroke-linecap:round; stroke-linejoin:round; stroke-width:1.5px;"/><circle cx="17.51" cy="17.51" r="5.74" style="fill:none; stroke:#445d82; stroke-linecap:round; stroke-linejoin:round; stroke-width:1.5px;"/></svg>