<?xml version="1.0" encoding="UTF-8"?><svg id="b" xmlns="http://www.w3.org/2000/svg" width="24" height="24" viewBox="0 0 24 24"><g id="c"><rect y="0" width="24" height="24" style="fill:none;"/><circle cx="17.51" cy="17.48" r="5.74" style="fill:none; stroke:#445d82; stroke-linecap:round; stroke-linejoin:round; stroke-width:1.5px;"/><path d="m10.26,22.24c-1.63-.02-2.37-.06-3.25-.13-2.17-.18-2.89-.73-3.08-3.07s-.16-11.14.03-13.19,1.33-2.8,3.08-3.07l.37-.05" style="fill:none; stroke:#445d82; stroke-linecap:round; stroke-linejoin:round; stroke-width:1.5px;"/><path d="m16.39,2.69l.79.09c1.54.21,2.48.88,2.83,3.07.13.85.22,1.39.26,3.39" style="fill:none; stroke:#445d82; stroke-linecap:round; stroke-linejoin:round; stroke-width:1.5px;"/><line x1="7.78" y1="9.25" x2="16.26" y2="9.25" style="fill:none; stroke:#445d82; stroke-linecap:round; stroke-linejoin:round; stroke-width:1.5px;"/><line x1="7.78" y1="13.25" x2="10.76" y2="13.25" style="fill:none; stroke:#445d82; stroke-linecap:round; stroke-linejoin:round; stroke-width:1.5px;"/><line x1="7.78" y1="17.23" x2="9.26" y2="17.23" style="fill:none; stroke:#445d82; stroke-linecap:round; stroke-linejoin:round; stroke-width:1.5px;"/><line x1="10.77" y1=".75" x2="13.29" y2=".75" style="fill:none; stroke:#445d82; stroke-linecap:round; stroke-linejoin:round; stroke-width:1.5px;"/><path d="m16.13,4.08c-.21.23-7.92.18-8.17,0s-.32-2.08,0-2.28,7.85-.13,8.17,0,.21,2.06,0,2.28Z" style="fill:none; stroke:#445d82; stroke-linecap:round; stroke-linejoin:round; stroke-width:1.5px;"/><path d="m15.5,17.59c.75.64,1.3,1.47,1.52,1.48.25,0,1.17-2.23,2.63-3.81" style="fill:none; stroke:#445d82; stroke-linecap:round; stroke-linejoin:round; stroke-width:1.5px;"/></g></svg>