<?xml version="1.0" encoding="UTF-8"?><svg id="hi" xmlns="http://www.w3.org/2000/svg" width="24" height="24" viewBox="0 0 24 24"><g><path d="M16.64,12.76c.62,0,1.12,.5,1.12,1.12v2.24c0,.62,.5,1.12,1.12,1.12h2.24c.62,0,1.12,.5,1.12,1.12" style="fill:none; stroke:#445d82; stroke-linecap:round; stroke-linejoin:round; stroke-width:1.5px;"/><path d="M22.23,16.77v5.42c0,.58-.47,1.05-1.04,1.05h-6.26c-.57,0-.87-.54-1.04-1.05s-.1-7.34,0-8.38,.47-1.05,1.04-1.05h3.31c.55,0,1.09,.22,1.48,.62l1.9,1.91c.4,.4,.62,.93,.62,1.49Z" style="fill:none; stroke:#445d82; stroke-linecap:round; stroke-linejoin:round; stroke-width:1.5px;"/></g><g><path d="M11.01,22.24c-1.63-.02-3.16-.06-4.03-.13-2.17-.18-2.89-.73-3.08-3.07s-.16-11.14,.03-13.19,1.33-2.8,3.08-3.07l.37-.05" style="fill:none; stroke:#445d82; stroke-linecap:round; stroke-linejoin:round; stroke-width:1.5px;"/><path d="M16.34,2.69l.79,.09c1.54,.21,2.48,.88,2.83,3.07,.13,.85,.22,2.66,.26,4.66" style="fill:none; stroke:#445d82; stroke-linecap:round; stroke-linejoin:round; stroke-width:1.5px;"/><line x1="7.73" y1="9.25" x2="16.24" y2="9.25" style="fill:none; stroke:#445d82; stroke-linecap:round; stroke-linejoin:round; stroke-width:1.5px;"/><line x1="7.73" y1="13.25" x2="11" y2="13.25" style="fill:none; stroke:#445d82; stroke-linecap:round; stroke-linejoin:round; stroke-width:1.5px;"/><line x1="7.73" y1="17.23" x2="10.95" y2="17.23" style="fill:none; stroke:#445d82; stroke-linecap:round; stroke-linejoin:round; stroke-width:1.5px;"/><line x1="10.73" y1=".75" x2="13.24" y2=".75" style="fill:none; stroke:#445d82; stroke-linecap:round; stroke-linejoin:round; stroke-width:1.5px;"/><path d="M16.08,4.08c-.21,.23-7.92,.18-8.17,0s-.32-2.08,0-2.28,7.85-.13,8.17,0,.21,2.06,0,2.28Z" style="fill:none; stroke:#445d82; stroke-linecap:round; stroke-linejoin:round; stroke-width:1.5px;"/></g></svg>