<?xml version="1.0" encoding="UTF-8"?><svg id="fo" xmlns="http://www.w3.org/2000/svg" width="24" height="24" viewBox="0 0 24 24"><path d="M9.01,22.21c-.47,0-.86-.02-1.2-.03-1.73-.06-3.75-.33-3.9-2.75-.2-3.3-.14-8.25-.05-10.21,.06-1.22,.52-1.91,1.16-2.76,.64-.85,2.72-2.91,3.62-3.56s1.78-1.1,2.8-1.13,3.56,0,5.34,.03c1.78,.02,3.19,.96,3.29,3.86,.04,.61,.07,1.81,.09,3.26" style="fill:none; stroke:#445d82; stroke-linecap:round; stroke-linejoin:round; stroke-width:1.5px;"/><path d="M15.89,18.33c-.77,.8-2.47,2.93-3.43,4.91" style="fill:none; stroke:#445d82; stroke-linecap:round; stroke-linejoin:round; stroke-width:1.5px;"/><path d="M13.69,20.85c-3.25-1.17,2.2-9.92,9.55-9.06,.32,2.77-3.42,11.26-9.55,9.06Z" style="fill:none; stroke:#445d82; stroke-linecap:round; stroke-linejoin:round; stroke-width:1.5px;"/><path d="M3.8,10.51c.09-.65-.07-2.43,2.17-2.29h2.14c1.18,0,2.14-.96,2.14-2.16V3.92c0-1.19,.96-2.16,2.14-2.16" style="fill:none; stroke:#445d82; stroke-linecap:round; stroke-linejoin:round; stroke-width:1.5px;"/></svg>