<svg width="24" height="24" viewBox="0 0 24 24" fill="none" xmlns="http://www.w3.org/2000/svg">
<g clip-path="url(#clip0_2242_869)">
<path d="M17.51 15.1101V20.2601M15.26 16.7601L17.51 14.7601L19.76 16.7601M10.49 22.2501C8.05001 22.2501 5.63001 22.1801 4.16001 22.0601C2.51001 21.9201 1.07001 20.6901 0.89001 18.8301C0.67001 16.5601 0.72001 13.4601 0.89001 11.6901C1.06001 9.92008 2.26001 8.69008 4.16001 8.46008C6.90001 8.13008 13.73 8.18008 16.69 8.46008C17.6 8.55008 18.27 8.81008 18.77 9.21008M2.94001 8.33008C2.71001 6.55008 3.49001 5.30008 5.31001 4.63008C7.94001 3.67008 14.67 2.16008 17.66 1.76008C19.89 1.47008 20.98 2.55008 21.62 4.27008C22.34 6.19008 23 9.12008 23.25 11.4601M21.79 5.99008C21.79 5.99008 10.64 8.09008 9.99001 8.24008M9.75001 13.0301C9.75001 11.9001 10.65 10.9901 11.75 10.9901M9.23001 18.7401C8.52001 18.7101 4.36001 18.7101 3.73001 18.7401M23.25 17.5101C23.25 20.6802 20.6801 23.2501 17.51 23.2501C14.3399 23.2501 11.77 20.6802 11.77 17.5101C11.77 14.34 14.3399 11.7701 17.51 11.7701C20.6801 11.7701 23.25 14.34 23.25 17.5101Z" stroke="#494A4A" stroke-width="1.5" stroke-linecap="round" stroke-linejoin="round"/>
</g>
<defs>
<clipPath id="clip0_2242_869">
<rect width="24" height="24" fill="white"/>
</clipPath>
</defs>
</svg>
