<?xml version="1.0" encoding="UTF-8"?><svg id="ds" xmlns="http://www.w3.org/2000/svg" width="24" height="24" viewBox="0 0 24 24"><path d="M17.88,16.95c1.36-.17,2.61-1.26,4.08-.82,1.15,.2,2.61,1.43,1.84,2.76-.15,.26-.41,.46-.54,.56-1.86,1.29-3.6,3.43-5.9,3.95-1.99,.51-4.21,.9-6.21,.34-2.55-.73-4.88-1.65-7.5-1.79-.57-.07-.97,.02-1.58-.1C.68,21.53-.04,20.07,.04,18.8c0-.31,0-1.15,0-1.48-.07-1.29,.89-2.4,2.02-2.9,1.52-.87,3.3-1.56,5.1-1.37,1.37,.11,2.64,.58,3.92,.82,2.02,.47,3.91-.19,5.98,.4,1.79,.55,2.46,3.09,1.08,4.42-.61,.66-1.52,.94-2.25,.98-2.04,.14-4.07-.22-6.03-.42-.97-.11-.82-1.59,.16-1.49,1.95,.19,3.84,.53,5.74,.42,.57-.04,1-.21,1.29-.52,.62-.64,.35-1.7-.52-1.99-1.45-.38-3.99,.19-5.75-.29-1.82-.36-3.71-1.21-5.47-.72-.87,.21-1.73,.62-2.52,1.06-.64,.3-1.3,.8-1.24,1.59,0,0,0,.98,0,.98,0,.16,0,.58,0,.74,0,.48,.26,1.05,.61,1.24,.44,.23,1.08,.07,1.59,.16,3.3,.05,6.33,1.85,9.51,2.07,1.72-.1,3.79-.35,5.26-1.21,1.25-.92,2.54-2.09,3.84-3.06,.23-.18,.13-.14,.15-.1-.07-.22-.58-.49-.89-.55-1.17-.27-2.28,.79-3.53,.84-.97,.12-1.17-1.33-.21-1.48h0Z" style="fill:#445d82;"/><line x1="17.25" y1="10.75" x2="8.75" y2="10.75" style="fill:none; stroke:#445d82; stroke-linecap:round; stroke-linejoin:round; stroke-width:1.5px;"/><path d="M3.88,9.92c.18-1.25,1.56-1.99,4.03-2.1,1.21-.05,1.98-.7,2.05-2.02,.13-2.53,.75-3.98,2.05-4.03" style="fill:none; stroke:#445d82; stroke-linecap:round; stroke-linejoin:round; stroke-width:1.5px;"/><path d="M3.84,10.95c.02-.88,.04-1.3,.06-1.83,.06-1.21,.52-1.89,1.16-2.73s2.72-2.87,3.62-3.52,1.78-1.09,2.8-1.11,3.53,0,5.31,.03c1.78,.02,3.19,.95,3.29,3.82,.07,1.1,.13,4.34,.13,7.38" style="fill:none; stroke:#445d82; stroke-linecap:round; stroke-linejoin:round; stroke-width:1.5px;"/><line x1="12.75" y1="7.75" x2="17.25" y2="7.75" style="fill:none; stroke:#445d82; stroke-linecap:round; stroke-linejoin:round; stroke-width:1.5px;"/></svg>