<?xml version="1.0" encoding="UTF-8"?><svg id="a" xmlns="http://www.w3.org/2000/svg" width="24" height="24" viewBox="0 0 24 24"><path d="M4.19,5.14c-5.31,6.67-1.23,16.83,5.94,17.09,4,.14,5.4-1.66,5.22-2.92s-2.96-1.18-2.64-2.73c.51-2.47,7.83,1.87,9.29-4.14C24.18,3.47,10.03-2.21,4.19,5.14Z" style="fill:none; stroke:#445d82; stroke-miterlimit:10; stroke-width:1.5px;"/><path d="M7.78,6.67c.1-1.03,1.44-1.21,1.44,0,0,.89-1.49,.56-1.44,0" style="fill:none; stroke:#445d82; stroke-linecap:round; stroke-linejoin:round; stroke-width:1.5px;"/><path d="M4.81,11.59c.1-1.03,1.44-1.21,1.44,0,0,.89-1.49,.56-1.44,0" style="fill:none; stroke:#445d82; stroke-linecap:round; stroke-linejoin:round; stroke-width:1.5px;"/><path d="M13.81,6.67c.1-1.03,1.44-1.21,1.44,0,0,.89-1.49,.56-1.44,0" style="fill:none; stroke:#445d82; stroke-linecap:round; stroke-linejoin:round; stroke-width:1.5px;"/><path d="M16.81,10.59c.1-1.03,1.44-1.21,1.44,0,0,.89-1.49,.56-1.44,0" style="fill:none; stroke:#445d82; stroke-linecap:round; stroke-linejoin:round; stroke-width:1.5px;"/></svg>