<?xml version="1.0" encoding="UTF-8"?><svg id="ce" xmlns="http://www.w3.org/2000/svg" width="24" height="24" viewBox="0 0 24 24"><path d="M22.03,14c.97-5.5-1.08-9.42-4.97-10.87,0,0-1.65-2.25-4.93-.98,0,0-3.18-.3-6.18,2.91-3.01,3.21-3.2,8.44-2.75,9.99" style="fill:none; stroke:#445d82; stroke-linecap:round; stroke-linejoin:round; stroke-width:1.5px;"/><path d="M3.2,15.06s-5.18,3.72-.41,5.59c4.77,1.87,9,2.15,11.5,.54,2.5-1.61,4.43-2.11,5.46-2.56,1.35-.6,4.91-3.25,2.88-6" style="fill:none; stroke:#445d82; stroke-linecap:round; stroke-linejoin:round; stroke-width:1.5px;"/><path d="M14.75,1.84c-5.08-.36-8.76,6.78-8.28,13.57,.53,.61,2.13,.98,2.8,.75-.04-3.19,.45-10.96,7.61-12.56" style="fill:none; stroke:#445d82; stroke-linecap:round; stroke-linejoin:round; stroke-width:1.5px;"/><path d="M22.2,13.75c-.81,1.6-4.84,2.96-10.08,2.55" style="fill:none; stroke:#445d82; stroke-linecap:round; stroke-linejoin:round; stroke-width:1.5px;"/></svg>