<?xml version="1.0" encoding="UTF-8"?><svg id="eq" xmlns="http://www.w3.org/2000/svg" width="24" height="24" viewBox="0 0 24 24"><path d="M4.88,6.51c-2.41,.44-4.12,1.19-4.11,2.23s-.23,7.13,1.3,10.09c3.17,6.14,13.64,5.49,16.68,.43" style="fill:none; stroke:#445d82; stroke-linecap:round; stroke-linejoin:round; stroke-width:1.5px;"/><path d="M20.42,10.44c.02-.77,.02-1.39,.03-1.74,.04-1.06-1.6-1.8-3.95-2.23" style="fill:none; stroke:#445d82; stroke-linecap:round; stroke-linejoin:round; stroke-width:1.5px;"/><path d="M.82,8.45c-1.27,3.83,20.9,3.71,19.57-.07" style="fill:none; stroke:#445d82; stroke-linecap:round; stroke-linejoin:round; stroke-width:1.5px;"/><path d="M20.58,10.44c.9-.14,1.54,.18,1.97,.56,1.21,1.07,1.65,7.83-5.46,8.18" style="fill:none; stroke:#445d82; stroke-linecap:round; stroke-linejoin:round; stroke-width:1.5px;"/><path d="M17.84,12.74c.58,.76,1.82,.02,2.34,.2s.65,2.92-2.68,3.34" style="fill:none; stroke:#445d82; stroke-linecap:round; stroke-linejoin:round; stroke-width:1.5px;"/><path d="M3.03,9.94c3.14-2.07,12.95-2.37,15.33-.1" style="fill:none; stroke:#445d82; stroke-linecap:round; stroke-linejoin:round; stroke-width:1.5px;"/><path d="M10.5,.77s-.81,.97,.57,2.41c1.6,1.67-1.57,.17-2.27,.75-.52,.43-.44,.96-.15,1.45" style="fill:none; stroke:#445d82; stroke-linecap:round; stroke-linejoin:round; stroke-width:1.5px;"/><path d="M13.5,1.74s2.68,1.56,0,3.89" style="fill:none; stroke:#445d82; stroke-linecap:round; stroke-linejoin:round; stroke-width:1.5px;"/></svg>