<?xml version="1.0" encoding="UTF-8"?><svg id="ca" xmlns="http://www.w3.org/2000/svg" width="24" height="24" viewBox="0 0 24 24"><path d="M11.98,22c0-5.46,.02-14.3,.02-19.75" style="fill:none; stroke:#445d82; stroke-linecap:round; stroke-linejoin:round; stroke-width:1.5px;"/><path d="M11.98,15.5c1-3,3.78-4.65,6.22-4.51h3.55" style="fill:none; stroke:#445d82; stroke-linecap:round; stroke-linejoin:round; stroke-width:1.5px;"/><path d="M11.97,15.5c-1-3-3.69-4.64-6.12-4.5H2.75" style="fill:none; stroke:#445d82; stroke-linecap:round; stroke-linejoin:round; stroke-width:1.5px;"/><path d="M8.25,5.25c.75-1.07,3.06-3.63,3.75-3.58s3.15,2.62,3.75,3.58" style="fill:none; stroke:#445d82; stroke-linecap:round; stroke-linejoin:round; stroke-width:1.5px;"/><path d="M19.23,7.76c1.07,.75,3.07,2.56,3.02,3.24s-2.12,2.65-3.08,3.25" style="fill:none; stroke:#445d82; stroke-linecap:round; stroke-linejoin:round; stroke-width:1.5px;"/><path d="M4.77,14.25c-1.07-.75-3.07-2.56-3.02-3.24s2.12-2.65,3.08-3.25" style="fill:none; stroke:#445d82; stroke-linecap:round; stroke-linejoin:round; stroke-width:1.5px;"/></svg>