<svg width="24" height="24" viewBox="0 0 24 24" fill="none" xmlns="http://www.w3.org/2000/svg">
<path d="M9.98751 22.1967C9.09896 22.1967 8.33021 22.1767 7.82104 22.1568C6.08387 22.0969 4.05718 21.8273 3.90742 19.4112C3.69776 16.1166 3.76765 11.1747 3.8575 9.21785C3.9174 7.99984 4.37665 7.31096 5.01561 6.46234C5.65457 5.61373 7.74117 3.55708 8.64969 2.90814C9.55821 2.2592 10.4368 1.80993 11.4651 1.77998C12.4934 1.75003 15.0093 1.77998 16.7964 1.80993C18.5835 1.8299 20.0012 2.76837 20.101 5.67363C20.1509 6.42241 20.1909 8.04976 20.2009 9.94666M3.81757 10.5157C3.90742 9.86679 3.74768 8.07971 5.96407 8.22946H8.08062C9.24871 8.22946 10.1972 7.26104 10.1972 6.07298V3.91649C10.1972 2.72843 11.1456 1.76001 12.3137 1.76001M22.7367 19.0518V15.6474C22.7367 14.7688 22.2675 13.9701 21.5087 13.5308L18.4337 11.7837C17.6949 11.3644 16.7864 11.3644 16.0376 11.7837L12.9627 13.5308C12.2039 13.9601 11.7347 14.7688 11.7347 15.6474V19.0518C11.7347 19.9304 12.2039 20.7291 12.9627 21.1684L16.0376 22.9155C16.7764 23.3348 17.685 23.3348 18.4337 22.9155L21.5087 21.1684C22.2675 20.7391 22.7367 19.9304 22.7367 19.0518ZM17.7249 17.714C18.3039 16.5858 16.9561 16.5459 16.7465 16.9253C16.1674 17.9736 17.4453 18.2631 17.7249 17.714Z" stroke="#494A4A" stroke-width="1.5" stroke-linecap="round" stroke-linejoin="round"/>
</svg>
