<?xml version="1.0" encoding="UTF-8"?><svg id="j" xmlns="http://www.w3.org/2000/svg" width="24" height="24" viewBox="0 0 24 24"><path d="M13.11,23.2c-.37,.04-.74,.05-1.11,.05C5.79,23.25,.76,18.21,.76,12S5.79,.75,12,.75s11.24,5.04,11.24,11.25c0,.53-.01,.73-.04,.91" style="fill:none; stroke:#505f7a; stroke-linecap:round; stroke-linejoin:round; stroke-width:1.5px;"/><path d="M12,22.88c-2.9,0-5.25-4.91-5.25-10.97S9.1,.94,12,.94s5.14,4.67,5.25,10.52" style="fill:none; stroke:#505f7a; stroke-linecap:round; stroke-linejoin:round; stroke-width:1.5px;"/><path d="M21.35,6.63c-.96,1.49-4.79,2.6-9.36,2.6S3.6,8.12,2.64,6.63" style="fill:none; stroke:#505f7a; stroke-linecap:round; stroke-linejoin:round; stroke-width:1.5px;"/><path d="M3.11,18.25c.81-1.26,3.71-2.24,7.37-2.49" style="fill:none; stroke:#505f7a; stroke-linecap:round; stroke-linejoin:round; stroke-width:1.5px;"/><path d="M12.81,12.85c.62-.68,7.96,2.43,8.07,2.98s-1.69,1.47-1.56,1.79,2.91,2.46,2.91,3.06-.98,1.71-1.68,1.57-2.7-2.98-3.03-2.93-1.14,1.81-1.8,1.63-3.53-7.43-2.91-8.1Z" style="fill:none; stroke:#505f7a; stroke-linecap:round; stroke-linejoin:round; stroke-width:1.5px;"/></svg>