<svg width="24" height="24" viewBox="0 0 24 24" fill="none" xmlns="http://www.w3.org/2000/svg">
<g clip-path="url(#clip0_4984_1433)">
<g clip-path="url(#clip1_4984_1433)">
<path d="M8.74958 21.9998C8.74958 21.9998 8.30958 21.9298 7.81958 21.9098C6.07958 21.8498 4.03958 21.5798 3.88958 19.1698C3.67958 15.8698 3.74958 10.9198 3.83958 8.96977C3.89958 7.74977 4.35958 7.05977 5.00958 6.20977C5.64958 5.35977 7.74958 3.29977 8.64958 2.64977C9.54958 1.99977 10.4396 1.54977 11.4696 1.51977C12.4996 1.49977 15.0196 1.51977 16.8096 1.54977C18.5996 1.57977 20.0196 2.50977 20.1196 5.40977C20.1596 6.01977 20.2296 7.28977 20.2496 8.74977M3.79958 10.2798C3.88958 9.62977 3.72958 7.84977 5.96958 7.98977H8.10958C9.28958 7.98977 10.2496 7.02977 10.2496 5.82977V3.66977C10.2496 2.47977 11.2096 1.50977 12.3896 1.50977M12.4096 15.1898C12.3296 15.4898 12.3896 22.0698 12.7196 22.3198C12.7696 22.3598 14.1196 22.4198 15.2896 22.3698L21.9796 22.3898C21.9796 22.3898 22.4196 22.2398 22.4196 21.8098C22.4196 21.3798 22.5596 15.9698 22.5596 15.9698C22.5596 15.7198 22.5796 15.3498 22.5596 15.2698M16.0096 17.8998H18.9296M23.2296 12.8898C23.5496 13.0598 23.4396 14.7298 23.2296 14.9498C23.0196 15.1698 11.8896 15.1998 11.6796 14.9498C11.4696 14.6998 11.4396 12.9898 11.6796 12.8898C11.9196 12.7898 22.9096 12.7198 23.2296 12.8898Z" stroke="#494A4A" stroke-width="1.5" stroke-linecap="round" stroke-linejoin="round"/>
</g>
</g>
<defs>
<clipPath id="clip0_4984_1433">
<rect width="24" height="24" fill="white"/>
</clipPath>
<clipPath id="clip1_4984_1433">
<rect width="24" height="24" fill="white"/>
</clipPath>
</defs>
</svg>
