<?xml version="1.0" encoding="UTF-8"?><svg id="fs" xmlns="http://www.w3.org/2000/svg" width="24" height="24" viewBox="0 0 24 24"><path d="M8.89,22.2c-.79,0-.62-.02-1.08-.04-1.73-.06-3.76-.33-3.91-2.74-.2-3.3-.14-8.24-.05-10.19,.06-1.22,.52-1.91,1.16-2.76s2.72-2.91,3.62-3.56c.9-.65,1.78-1.1,2.81-1.13s3.54,0,5.32,.03c1.78,.02,3.19,.96,3.3,3.86,.04,.57,.07,.92,.09,2.24" style="fill:none; stroke:#445d82; stroke-linecap:round; stroke-linejoin:round; stroke-width:1.5px;"/><path d="M3.82,10.52c.09-.65-.07-2.43,2.17-2.29h2.14c1.18,0,2.14-.96,2.14-2.16V3.92c0-1.19,.96-2.16,2.14-2.16" style="fill:none; stroke:#445d82; stroke-linecap:round; stroke-linejoin:round; stroke-width:1.5px;"/><line x1="17.49" y1="20.25" x2="17.52" y2="17.5" style="fill:none; stroke:#445d82; stroke-linecap:round; stroke-linejoin:round; stroke-width:1.5px;"/><path d="M17.3,14.99c.23,.44,.49,.25,.47,.01s-.7-.45-.47-.01Z" style="fill:none; stroke:#445d82; stroke-linecap:round; stroke-linejoin:round; stroke-width:1.5px;"/><circle cx="17.49" cy="17.49" r="5.74" style="fill:none; stroke:#445d82; stroke-linecap:round; stroke-linejoin:round; stroke-width:1.5px;"/></svg>