<?xml version="1.0" encoding="UTF-8"?><svg id="m" xmlns="http://www.w3.org/2000/svg" width="24" height="24" viewBox="0 0 24 24"><path id="n" d="M6.35,1.86c3.73,0,8.89-.23,11.26,0,2.37,.23,4.38,2.03,4.5,4.5,.15,3.03,.21,9.01,0,11.26-.2,2.14-.79,4.36-4.5,4.5-4.1,.15-8.87,.17-11.26,0-1.94-.13-4.34,.02-4.5-4.5-.16-4.53-.07-8.77,0-11.26S2.62,1.86,6.35,1.86Z" style="fill:none; stroke:#505f7a; stroke-linecap:round; stroke-linejoin:round; stroke-width:1.5px;"/><line id="o" x1="6.75" y1=".75" x2="6.75" y2="3.25" style="fill:none; stroke:#505f7a; stroke-linecap:round; stroke-linejoin:round; stroke-width:1.5px;"/><line id="p" x1="17.25" y1=".75" x2="17.25" y2="3" style="fill:none; stroke:#505f7a; stroke-linecap:round; stroke-linejoin:round; stroke-width:1.5px;"/><path d="M5.96,17.97c.63,.67,1.86,.05,1.06-.96-.58-.73-1.76,.22-1.06,.96Z" style="fill:none; stroke:#505f7a; stroke-linecap:round; stroke-linejoin:round; stroke-width:1.5px;"/><path d="M11.96,17.97c.63,.67,1.86,.05,1.06-.96-.58-.73-1.76,.22-1.06,.96Z" style="fill:none; stroke:#505f7a; stroke-linecap:round; stroke-linejoin:round; stroke-width:1.5px;"/><path d="M11.43,12.47c.63,.67,1.86,.05,1.06-.96-.58-.73-1.76,.22-1.06,.96Z" style="fill:none; stroke:#505f7a; stroke-linecap:round; stroke-linejoin:round; stroke-width:1.5px;"/><path d="M5.96,12.47c.63,.67,1.86,.05,1.06-.96-.58-.73-1.76,.22-1.06,.96Z" style="fill:none; stroke:#505f7a; stroke-linecap:round; stroke-linejoin:round; stroke-width:1.5px;"/><path d="M16.93,12.47c.63,.67,1.86,.05,1.06-.96-.58-.73-1.76,.22-1.06,.96Z" style="fill:none; stroke:#505f7a; stroke-linecap:round; stroke-linejoin:round; stroke-width:1.5px;"/><path d="M16.96,6.97c.63,.67,1.86,.05,1.06-.96-.58-.73-1.76,.22-1.06,.96Z" style="fill:none; stroke:#505f7a; stroke-linecap:round; stroke-linejoin:round; stroke-width:1.5px;"/><path d="M11.96,6.97c.63,.67,1.86,.05,1.06-.96-.58-.73-1.76,.22-1.06,.96Z" style="fill:none; stroke:#505f7a; stroke-linecap:round; stroke-linejoin:round; stroke-width:1.5px;"/></svg>