<?xml version="1.0" encoding="UTF-8"?><svg id="fj" xmlns="http://www.w3.org/2000/svg" width="24" height="24" viewBox="0 0 24 24"><path d="M3.99,15.23c-.71,.38-1.09,.93-1.18,1.32-.12,.52-.02,3.68,.11,4,1.39,3.43,16.69,3.75,18.06,0,.21-.57,.27-3.53,.16-3.99s-.45-.95-1.19-1.32" style="fill:none; stroke:#445d82; stroke-linecap:round; stroke-linejoin:round; stroke-width:1.5px;"/><path d="M3.99,8.55c-.71,.38-1.09,.93-1.18,1.32-.12,.52-.06,3.76,.11,4.05,2.12,3.61,15.97,3.63,18.06,0,.3-.53,.27-3.59,.16-4.04s-.45-.95-1.19-1.32" style="fill:none; stroke:#445d82; stroke-linecap:round; stroke-linejoin:round; stroke-width:1.5px;"/><path d="M2.82,3.6c-.12,.52-.06,3.37,.11,3.67,2.12,3.61,15.97,3.63,18.06,0,.3-.53,.27-3.2,.16-3.66C20.29-.18,3.68-.2,2.82,3.6Z" style="fill:none; stroke:#445d82; stroke-linecap:round; stroke-linejoin:round; stroke-width:1.5px;"/><path d="M8.31,5.09c-3.9-.43-5.02-1.37-4.56-2.22" style="fill:none; fill-rule:evenodd; stroke:#445d82; stroke-linecap:round; stroke-linejoin:round; stroke-width:1.5px;"/><path d="M17.15,6.99c-.75,.11-.44-1.14,.18-1.28,.47-.1,.32,1.2-.1,1.26" style="fill:none; fill-rule:evenodd; stroke:#445d82; stroke-linecap:round; stroke-linejoin:round; stroke-width:1.5px;"/><path d="M17.13,13.28c-.75,.11-.41-1.14,.2-1.27,.47-.1,.23,1.22-.19,1.28" style="fill:none; fill-rule:evenodd; stroke:#445d82; stroke-linecap:round; stroke-linejoin:round; stroke-width:1.5px;"/><path d="M17.13,19.99c-.75,.12-.41-1.14,.2-1.28,.47-.1,.35,1.19-.19,1.28" style="fill:none; fill-rule:evenodd; stroke:#445d82; stroke-linecap:round; stroke-linejoin:round; stroke-width:1.5px;"/></svg>