<?xml version="1.0" encoding="UTF-8"?><svg id="gz" xmlns="http://www.w3.org/2000/svg" width="24" height="24" viewBox="0 0 24 24"><path d="M1.99,5.51c4.64-1.06,15.41-.72,20.01-.69" style="fill:none; stroke:#445d82; stroke-linecap:round; stroke-linejoin:round; stroke-width:1.5px;"/><path d="M20.25,7.75c0,5.2-1.2,11.55-2.67,14.04-1.16,1.96-10.44,1.96-11.38-.18-1.32-2.99-2.42-9.75-2.42-13.2" style="fill:none; stroke:#445d82; stroke-linecap:round; stroke-linejoin:round; stroke-width:1.5px;"/><path d="M8.99,2.07c.08-1.13,.27-1.36,3.26-1.29,2.55,.06,2.87,.26,3.26,1.29" style="fill:none; stroke:#445d82; stroke-linecap:round; stroke-linejoin:round; stroke-width:1.5px;"/><path d="M16.25,11.39c-.22,2.91-.79,6.21-1.47,8.56" style="fill:none; stroke:#445d82; stroke-linecap:round; stroke-linejoin:round; stroke-width:1.5px;"/><path d="M7.75,11.39c.3,3.45,.79,5.71,1.58,8.56" style="fill:none; stroke:#445d82; stroke-linecap:round; stroke-linejoin:round; stroke-width:1.5px;"/></svg>