<?xml version="1.0" encoding="UTF-8"?><svg id="eu" xmlns="http://www.w3.org/2000/svg" width="24" height="24" viewBox="0 0 24 24"><path d="M19.64,19c-3.8,.22-8.19,.19-11.24,0-1.83-.11-3.2-1.28-3.39-3.65-.25-3.1-.16-8.31,0-10.7s1.19-3.47,3.39-3.65c3.39-.27,7.86-.35,11.24,0,2.14,.22,3.18,1.29,3.39,3.65,.3,3.44,.28,7.76,0,10.7-.18,1.97-1.19,3.52-3.39,3.65Z" style="fill:none; stroke:#445d82; stroke-miterlimit:10; stroke-width:1.5px;"/><path d="M11.23,19.29c-.02,.74-.06,1.17-.11,1.76-.1,1.12-.68,2.01-1.93,2.08-2.16,.12-4.66,.11-6.39,0-1.04-.07-1.82-.73-1.93-2.08-.14-1.77-.09-4.74,0-6.11s.68-1.98,1.93-2.08c.67-.05,1.12-.09,1.88-.12" style="fill:none; stroke:#445d82; stroke-linecap:round; stroke-linejoin:round; stroke-width:1.5px;"/><path d="M11.77,12.24c2.13-2.13,5.07-5.1,5.32-5.32" style="fill:none; stroke:#445d82; stroke-linecap:round; stroke-linejoin:round; stroke-width:1.5px;"/><path d="M13.05,5.97c1.77-.12,4.49-.41,4.97,.13s.13,3.5,0,4.83" style="fill:none; stroke:#445d82; stroke-linecap:round; stroke-linejoin:round; stroke-width:1.5px;"/></svg>