<?xml version="1.0" encoding="UTF-8"?><svg id="bm" xmlns="http://www.w3.org/2000/svg" width="24" height="24" viewBox="0 0 24 24"><circle cx="17.49" cy="17.49" r="5.74" style="fill:none; stroke:#445d82; stroke-linecap:round; stroke-linejoin:round; stroke-width:1.5px;"/><path d="M15.35,17.77c.75,.64,1.3,1.47,1.52,1.48,.25,0,1.17-2.23,2.63-3.81" style="fill:none; stroke:#445d82; stroke-linecap:round; stroke-linejoin:round; stroke-width:1.5px;"/><path d="M21.89,3.92c.55,.3,.37,3.16,0,3.54s-19.48,.42-19.85,0-.41-3.38,0-3.54,19.3-.3,19.85,0Z" style="fill:none; stroke:#445d82; stroke-linecap:round; stroke-linejoin:round; stroke-width:1.5px;"/><path d="M8.25,20.21c-2,.09-4.32-.02-4.41-.09-.56-.43-.67-11.73-.53-12.24" style="fill:none; stroke:#445d82; stroke-linecap:round; stroke-linejoin:round; stroke-width:1.5px;"/><path d="M20.73,8c.04,.14,0,.77,0,1.2" style="fill:none; stroke:#445d82; stroke-linecap:round; stroke-linejoin:round; stroke-width:1.5px;"/></svg>