<?xml version="1.0" encoding="UTF-8"?><svg id="cz" xmlns="http://www.w3.org/2000/svg" width="24" height="24" viewBox="0 0 24 24"><path d="M2,11c.25-1.5,2.43-7.76,3.46-7.96,1.78-.36,12.07-.4,13.43,.04,.99,.32,3.11,5.81,3.35,10.59" style="fill:none; stroke:#445d82; stroke-linecap:round; stroke-linejoin:round; stroke-width:1.5px;"/><path d="M3.53,7.41c3.1-.2,14.8-.27,17.47,.16" style="fill:none; stroke:#445d82; stroke-linecap:round; stroke-linejoin:round; stroke-width:1.5px;"/><path d="M10.23,16.22c-.2-.08-.63-.65-.49-.74s4.45-.18,4.57-.05-.38,.73-.64,.79-3.19,.08-3.39,0" style="fill:none; stroke:#445d82; stroke-linecap:round; stroke-linejoin:round; stroke-width:1.5px;"/><path d="M8.3,11.75c4.42-.06,10.01,.16,12.06,.25,1.06,.04,1.8,.79,1.89,2.04s-.18,4.06-.52,5.59c-.42,1.84-1.26,2.31-2.83,2.5-1.57,.19-10.74,.22-13.75,0-1.22-.09-2.07-.23-2.83-2.5-.56-1.68-.63-7.18-.47-8.05,.14-.74,.56-1.45,1.4-1.55,.76-.08,2.55-.06,3.25-.03,.66,.03,1.51,1.32,1.81,1.74Z" style="fill:none; stroke:#445d82; stroke-linecap:round; stroke-linejoin:round; stroke-width:1.5px;"/></svg>