<?xml version="1.0" encoding="UTF-8"?><svg id="e" xmlns="http://www.w3.org/2000/svg" width="24" height="24" viewBox="0 0 24 24"><path d="M21.89,3.92c.55,.3,.37,3.16,0,3.54s-19.48,.42-19.85,0-.41-3.38,0-3.54,19.3-.3,19.85,0Z" style="fill:none; stroke:#505f7a; stroke-linecap:round; stroke-linejoin:round; stroke-width:1.5px;"/><path d="M9,20.21c-2,.09-5.07-.02-5.16-.09-.56-.43-.67-11.73-.53-12.24" style="fill:none; stroke:#505f7a; stroke-linecap:round; stroke-linejoin:round; stroke-width:1.5px;"/><path d="M20.73,8c.04,.14,0,1.32,0,1.75" style="fill:none; stroke:#505f7a; stroke-linecap:round; stroke-linejoin:round; stroke-width:1.5px;"/><path d="M16.95,11.82c3.65-.28,7.25,3.53,6.09,6.12-3.02,.11-4.47,.12-6.09,0-.27-.16-.19-4.81,0-6.12Z" style="fill:none; stroke:#505f7a; stroke-linecap:round; stroke-linejoin:round; stroke-width:1.5px;"/><path d="M22.26,18.47c-.06,.7-.26,1.36-.56,1.95-.87,1.68-2.63,2.84-4.66,2.84-2.89,0-5.24-2.35-5.24-5.24,0-2.06,1.19-3.85,2.92-4.7,.58-.29,1.21-.47,1.89-.52" style="fill:none; stroke:#505f7a; stroke-linecap:round; stroke-linejoin:round; stroke-width:1.5px;"/></svg>