<?xml version="1.0" encoding="UTF-8"?><svg id="br" xmlns="http://www.w3.org/2000/svg" width="24" height="24" viewBox="0 0 24 24"><path d="M19.99,8.03c.78,1.33,1.26,3.97,1.26,3.97" style="fill:none; stroke:#445d82; stroke-linecap:round; stroke-linejoin:round; stroke-width:1.5px;"/><path d="M2.25,10.5c.71-1.62,.75-1.54,1.5-3" style="fill:none; stroke:#445d82; stroke-linecap:round; stroke-linejoin:round; stroke-width:1.5px;"/><path d="M20.25,11.75c-.02-.82-.05-2.15-.07-2.65-.06-1.2-.52-1.88-1.17-2.71s-2.73-2.86-3.64-3.5-1.79-1.09-2.82-1.11c-1.03-.02-3.55,0-5.34,.03s-3.21,.94-3.31,3.8c-.04,.66-.13,2.52-.15,4.15" style="fill:none; stroke:#445d82; stroke-linecap:round; stroke-linejoin:round; stroke-width:1.5px;"/><path d="M10.23,16.22c-.2-.08-.63-.65-.49-.74s4.45-.18,4.57-.05-.38,.73-.64,.79-3.19,.08-3.39,0" style="fill:none; stroke:#445d82; stroke-linecap:round; stroke-linejoin:round; stroke-width:1.5px;"/><path d="M8.3,11.75c4.42-.06,10.01,.16,12.06,.25,1.06,.04,1.8,.79,1.89,2.04s-.18,4.06-.52,5.59c-.42,1.84-1.26,2.31-2.83,2.5-1.57,.19-10.74,.22-13.75,0-1.22-.09-2.07-.23-2.83-2.5-.56-1.68-.63-7.18-.47-8.05,.14-.74,.56-1.45,1.4-1.55,.76-.08,2.55-.06,3.25-.03,.66,.03,1.51,1.32,1.81,1.74Z" style="fill:none; stroke:#445d82; stroke-linecap:round; stroke-linejoin:round; stroke-width:1.5px;"/><path d="M20.2,10.53c-.09-.65,.07-2.43-2.17-2.29h-2.14c-1.18,0-2.14-.96-2.14-2.16V3.93c0-1.19-.96-2.16-2.14-2.16" style="fill:none; stroke:#445d82; stroke-linecap:round; stroke-linejoin:round; stroke-width:1.5px;"/></svg>