<?xml version="1.0" encoding="UTF-8"?><svg id="b" xmlns="http://www.w3.org/2000/svg" width="24" height="24" viewBox="0 0 24 24"><g id="c"><rect id="d" width="24" height="24" style="fill:none;"/><path d="m11.76,10.22s-.12,7.85,0,11.1" style="fill:none; stroke:#445d82; stroke-linecap:round; stroke-linejoin:round; stroke-width:1.5px;"/><path d="m2.76,6.24s8.45,3.77,8.97,3.77,9.18-4.19,9.18-4.19" style="fill:none; stroke:#445d82; stroke-linecap:round; stroke-linejoin:round; stroke-width:1.5px;"/><polyline points="15.75 4 7.26 7.75 7.26 11.25" style="fill:none; stroke:#445d82; stroke-linecap:round; stroke-linejoin:round; stroke-width:1.5px;"/><path d="m2.5,6.25s.5,11.75.89,11.99c2.76,1.68,7.12,3.52,8.25,3.98.12.05.24.05.35,0,1.19-.43,7.76-2.8,8.95-3.98l.31-12.49s-8.35-3.21-9.57-3.21S2.5,6.25,2.5,6.25h0Z" style="fill:none; stroke:#445d82; stroke-linecap:round; stroke-linejoin:round; stroke-width:1.5px;"/></g></svg>