<?xml version="1.0" encoding="UTF-8"?><svg id="al" xmlns="http://www.w3.org/2000/svg" width="24" height="24" viewBox="0 0 24 24"><path d="M3.47,17.59c-.31-.8-1.89-.53-2.32-.19-.49,.4-.52,3.76-.17,4.34s1.8,.72,2.42-.02,.31-3.52,.07-4.14Z" style="fill:none; stroke:#445d82; stroke-linecap:round; stroke-linejoin:round; stroke-width:1.5px;"/><path d="M7.15,17.05c.33-1.2,2.04-1.49,2.54-1.09,.51,.4,.38,5.19,.02,5.78s-2.05,.69-2.69-.05-.09-3.83,.12-4.63Z" style="fill:none; stroke:#445d82; stroke-linecap:round; stroke-linejoin:round; stroke-width:1.5px;"/><path d="M15.49,22.08c-.49,.2-2.06,.15-2.26-.09-.58-.69-.09-5.89,.11-6.64,.3-1.12,1.96-1.86,2.43-1.49,.29,.23,.62,7.84-.27,8.21Z" style="fill:none; stroke:#445d82; stroke-linecap:round; stroke-linejoin:round; stroke-width:1.5px;"/><path d="M21.35,22.1c-.78,.12-.82,.25-1.81-.11-.99-.36-.43-9.45-.32-9.84,.33-1.18,2.21-1.63,2.73-1.24,.33,.25,.71,11-.6,11.2Z" style="fill:none; stroke:#445d82; stroke-linecap:round; stroke-linejoin:round; stroke-width:1.5px;"/><path d="M20.27,5.17C17.14,10.61,6.4,12.4,.76,12.99" style="fill:none; stroke:#445d82; stroke-linecap:round; stroke-linejoin:round; stroke-width:1.5px;"/><path d="M21.13,1.84c-.51,.29-2.3,1.34-2.2,1.98,.17,1.07,2.64,2.13,3.13,1.72,.44-.36-.11-2.76-.21-3.32-.07-.43-.41-.55-.72-.37Z" style="fill:none; stroke:#445d82; stroke-linecap:round; stroke-linejoin:round; stroke-width:1.5px;"/></svg>