<?xml version="1.0" encoding="UTF-8"?><svg id="bl" xmlns="http://www.w3.org/2000/svg" width="24" height="24" viewBox="0 0 24 24"><line x1="17.49" y1="20.25" x2="17.52" y2="17.5" style="fill:none; stroke:#445d82; stroke-linecap:round; stroke-linejoin:round; stroke-width:1.5px;"/><path d="M17.3,14.99c.23,.44,.49,.25,.47,.01s-.7-.45-.47-.01Z" style="fill:none; stroke:#445d82; stroke-linecap:round; stroke-linejoin:round; stroke-width:1.5px;"/><circle cx="17.49" cy="17.49" r="5.74" style="fill:none; stroke:#445d82; stroke-linecap:round; stroke-linejoin:round; stroke-width:1.5px;"/><path d="M21.89,3.92c.55,.3,.37,3.16,0,3.54s-19.48,.42-19.85,0-.41-3.38,0-3.54,19.3-.3,19.85,0Z" style="fill:none; stroke:#445d82; stroke-linecap:round; stroke-linejoin:round; stroke-width:1.5px;"/><path d="M9,20.21c-2,.09-5.07-.02-5.16-.09-.56-.43-.67-11.73-.53-12.24" style="fill:none; stroke:#445d82; stroke-linecap:round; stroke-linejoin:round; stroke-width:1.5px;"/><path d="M20.73,8c.04,.14,0,1.32,0,1.75" style="fill:none; stroke:#445d82; stroke-linecap:round; stroke-linejoin:round; stroke-width:1.5px;"/></svg>