<?xml version="1.0" encoding="UTF-8"?><svg id="b" xmlns="http://www.w3.org/2000/svg" width="24.14" height="24.12" viewBox="0 0 24.14 24.12"><g id="c"><rect x=".14" y=".12" width="24" height="24" style="fill:none;"/><path d="m8.64,23.06c-3.41-.26-7.89-.86-7.89-1.77,0-5.62,8.24-2.22,8.24-9.07" style="fill:none; fill-rule:evenodd; stroke:#494a4a; stroke-linecap:round; stroke-miterlimit:10; stroke-width:1.5px;"/><path d="m15.92,8.97c.23-.84.37-1.81.37-2.9,0-3.59-1.83-5.33-4.79-5.33s-4.79,1.74-4.79,5.33,1.78,6.13,3.44,7.04" style="fill:none; fill-rule:evenodd; stroke:#494a4a; stroke-linecap:round; stroke-linejoin:round; stroke-width:1.5px;"/><path d="m21.55,21.2c-1.94.11-4.18.1-5.74,0-.94-.06-1.63-.66-1.73-1.87-.13-1.59-.08-4.26,0-5.48s.61-1.78,1.73-1.87c1.73-.14,4.01-.18,5.74,0,1.09.11,1.62.66,1.73,1.87.15,1.76.14,3.97,0,5.48-.09,1.01-.61,1.8-1.73,1.87Z" style="fill:none; stroke:#494a4a; stroke-miterlimit:10; stroke-width:1.5px;"/><path d="m17.26,21.35c0,.38-.03.6-.06.9-.05.57-.34,1.03-.98,1.07-1.1.06-2.38.06-3.27,0-.53-.03-.93-.38-.98-1.07-.07-.9-.05-2.43,0-3.13s.35-1.01.98-1.07c.34-.03.57-.05.96-.06" style="fill:none; stroke:#494a4a; stroke-linecap:round; stroke-linejoin:round; stroke-width:1.5px;"/><path d="m16.89,18.47c1.19-1.19,2.83-2.85,2.97-2.97" style="fill:none; stroke:#494a4a; stroke-linecap:round; stroke-linejoin:round; stroke-width:1.5px;"/><path d="m17.6,14.97c.99-.07,2.51-.23,2.78.07s.07,1.96,0,2.7" style="fill:none; stroke:#494a4a; stroke-linecap:round; stroke-linejoin:round; stroke-width:1.5px;"/></g></svg>