<?xml version="1.0" encoding="UTF-8"?><svg id="hg" xmlns="http://www.w3.org/2000/svg" width="24" height="24" viewBox="0 0 24 24"><path d="M13.91,18.82s3.56-3.72,5.89-5.73c.5-.46,1.07-.41,1.48,0l1.66,1.65c.41,.41,.35,.92,0,1.47s-5.19,5.69-6.35,6.42c-.43,.27-.73,.46-1.09,.55s-1.66,0-1.66,0c-.58,0-1.04-.47-1.04-1.04,0,0-.05-1.22,0-1.65s1.12-1.67,1.12-1.67Z" style="fill:none; stroke:#445d82; stroke-miterlimit:10; stroke-width:1.5px;"/><line x1="17.89" y1="14.86" x2="21.02" y2="17.98" style="fill:none; stroke:#445d82; stroke-miterlimit:10; stroke-width:1.5px;"/><path d="M10,22.22c-.89,0-1.66-.02-2.17-.04-1.74-.06-3.77-.33-3.92-2.75-.21-3.3-.14-8.25-.05-10.21,.06-1.22,.52-1.91,1.16-2.76s2.73-2.91,3.64-3.56,1.79-1.1,2.82-1.13c1.03-.02,3.55,0,5.34,.03,1.79,.02,3.21,.96,3.31,3.87,.05,.75,.09,2.38,.1,4.28" style="fill:none; stroke:#445d82; stroke-linecap:round; stroke-linejoin:round; stroke-width:1.5px;"/><path d="M3.82,10.52c.09-.65-.07-2.44,2.15-2.29h2.12c1.17,0,2.12-.97,2.12-2.16V3.92c0-1.19,.95-2.16,2.12-2.16" style="fill:none; stroke:#445d82; stroke-linecap:round; stroke-linejoin:round; stroke-width:1.5px;"/></svg>