<?xml version="1.0" encoding="UTF-8"?><svg id="fe" xmlns="http://www.w3.org/2000/svg" width="24" height="24" viewBox="0 0 24 24"><path d="M9.25,14.75c-.68,.8-4.64,4.52-5.61,5.61" style="fill:none; stroke:#445d82; stroke-linecap:round; stroke-linejoin:round; stroke-width:1.5px;"/><path d="M7.56,21.04c-1.29,.22-3.99,.36-4.44-.15s-.37-3.37-.12-4.48" style="fill:none; stroke:#445d82; stroke-linecap:round; stroke-linejoin:round; stroke-width:1.5px;"/><path d="M14.75,14.75c.8,.68,4.52,4.68,5.61,5.65" style="fill:none; stroke:#445d82; stroke-linecap:round; stroke-linejoin:round; stroke-width:1.5px;"/><path d="M21.05,16.5c.22,1.29,.36,3.98-.15,4.43s-3.37,.37-4.48,.12" style="fill:none; stroke:#445d82; stroke-linecap:round; stroke-linejoin:round; stroke-width:1.5px;"/><path d="M14.75,9.25c.68-.8,4.68-4.52,5.65-5.61" style="fill:none; stroke:#445d82; stroke-linecap:round; stroke-linejoin:round; stroke-width:1.5px;"/><path d="M16.5,2.95c1.29-.22,3.98-.36,4.43,.15s.37,3.37,.12,4.48" style="fill:none; stroke:#445d82; stroke-linecap:round; stroke-linejoin:round; stroke-width:1.5px;"/><path d="M9.25,9.25c-.8-.68-4.52-4.68-5.61-5.65" style="fill:none; stroke:#445d82; stroke-linecap:round; stroke-linejoin:round; stroke-width:1.5px;"/><path d="M2.96,7.51c-.22-1.29-.36-3.99,.15-4.44s3.37-.37,4.48-.12" style="fill:none; stroke:#445d82; stroke-linecap:round; stroke-linejoin:round; stroke-width:1.5px;"/></svg>