<?xml version="1.0" encoding="UTF-8"?><svg id="dw" xmlns="http://www.w3.org/2000/svg" width="24" height="24" viewBox="0 0 24 24"><path d="M1.83,11.25c.12-1.82,.91-2.65,2.58-2.78,1.16-.09,2.49-.16,3.83-.18,0,0,.08-2.79,.13-3.58,.12-1.82,.91-2.65,2.58-2.78,2.58-.21,5.98-.26,8.56,0,1.63,.17,2.42,.98,2.58,2.78,.23,2.62,.21,5.91,0,8.15-.14,1.5-.9,2.68-2.58,2.78-1.37,.08-2.38,.11-3.8,.12h0c0,1.32-.07,2.6-.16,3.64-.14,1.5-.9,2.68-2.58,2.78-1.37,.08-7.33,.08-8.56,0-1.39-.09-2.43-.98-2.58-2.78-.11-1.34-.05-7.37,0-8.15Z" style="fill:none; stroke:#445d82; stroke-linecap:round; stroke-linejoin:round; stroke-width:1.5px;"/><line x1="10.73" y1="7.75" x2="11.75" y2="7.75" style="fill:none; stroke:#445d82; stroke-linecap:round; stroke-linejoin:round; stroke-width:1.5px;"/><polyline points="15.23 7.75 16.25 7.75 16.25 8.77" style="fill:none; stroke:#445d82; stroke-linecap:round; stroke-linejoin:round; stroke-width:1.5px;"/><line x1="16.25" y1="11.75" x2="16.25" y2="12.77" style="fill:none; stroke:#445d82; stroke-linecap:round; stroke-linejoin:round; stroke-width:1.5px;"/><line x1="7.75" y1="11.23" x2="7.75" y2="12.25" style="fill:none; stroke:#445d82; stroke-linecap:round; stroke-linejoin:round; stroke-width:1.5px;"/><polyline points="7.73 15.25 7.73 16.27 8.75 16.27" style="fill:none; stroke:#445d82; stroke-linecap:round; stroke-linejoin:round; stroke-width:1.5px;"/><line x1="11.75" y1="16.25" x2="12.77" y2="16.25" style="fill:none; stroke:#445d82; stroke-linecap:round; stroke-linejoin:round; stroke-width:1.5px;"/></svg>