<svg width="24" height="24" viewBox="0 0 24 24" fill="none" xmlns="http://www.w3.org/2000/svg">
<path d="M5.29002 21.37C7.36002 23.24 11.52 23.48 13.95 23.06C16.05 22.69 16.06 21.61 16.72 20.18M16.16 22.15C19.56 23.24 21.99 21.65 21.69 20.49C21.43 19.48 20.09 20.06 20.23 17.92C20.39 15.61 20.37 12.74 18.44 10.43C16.21 7.77002 13.95 7.93002 13.95 6.19002C13.95 4.46002 16.29 3.42002 16.49 3.22002C16.99 2.38002 14.87 1.07002 14.4 1.02002C13.87 0.970022 13 1.45002 12.75 1.41002C12.46 1.37002 12.14 0.770022 11.63 0.760022C8.53002 0.710022 7.93002 1.85002 7.73002 1.75002C7.55002 1.66002 6.81002 1.43002 6.30002 1.48002C5.79002 1.53002 5.60002 2.76002 6.15002 2.80002C7.81002 2.92002 8.97002 4.33002 8.29002 6.13002C7.77002 7.52002 6.50002 7.27002 4.39002 10.07C2.19002 13 3.02002 17.6 3.00002 18.46C2.97002 19.79 2.19002 20.64 2.32002 21.06C2.45002 21.48 3.27002 22.05 4.91002 21.59M8.38002 5.48002C7.48002 5.48002 6.89002 6.98002 9.49002 7.61002C13.7 8.63002 17.64 7.42002 19.68 6.10002M13.49 12.39C12.98 12.16 12 12.24 12 12.24C11 12.24 10.01 13.46 10.01 14.99C10.01 16.52 10.75 17.74 11.75 17.74C11.75 17.74 12.37 17.88 13.23 17.58M9.25002 14.98L12.75 15" stroke="#494A4A" stroke-width="1.5" stroke-linecap="round" stroke-linejoin="round"/>
</svg>
