<?xml version="1.0" encoding="UTF-8"?><svg id="fd" xmlns="http://www.w3.org/2000/svg" width="24" height="24" viewBox="0 0 24 24"><path d="M20.49,20.46c-.8-.68-3.77-3.89-4.86-4.86" style="fill:none; stroke:#445d82; stroke-linecap:round; stroke-linejoin:round; stroke-width:1.5px;"/><path d="M14.95,19.51c-.22-1.29-.36-3.99,.15-4.44s3.37-.37,4.48-.12" style="fill:none; stroke:#445d82; stroke-linecap:round; stroke-linejoin:round; stroke-width:1.5px;"/><path d="M3.54,20.49c.68-.8,3.89-3.77,4.86-4.86" style="fill:none; stroke:#445d82; stroke-linecap:round; stroke-linejoin:round; stroke-width:1.5px;"/><path d="M4.49,14.95c1.29-.22,3.99-.36,4.44,.15s.37,3.37,.12,4.48" style="fill:none; stroke:#445d82; stroke-linecap:round; stroke-linejoin:round; stroke-width:1.5px;"/><path d="M3.54,3.54c.8,.68,3.77,3.89,4.86,4.86" style="fill:none; stroke:#445d82; stroke-linecap:round; stroke-linejoin:round; stroke-width:1.5px;"/><path d="M9.08,4.49c.22,1.29,.36,3.99-.15,4.44s-3.37,.37-4.48,.12" style="fill:none; stroke:#445d82; stroke-linecap:round; stroke-linejoin:round; stroke-width:1.5px;"/><path d="M20.49,3.51c-.68,.8-3.89,3.77-4.86,4.86" style="fill:none; stroke:#445d82; stroke-linecap:round; stroke-linejoin:round; stroke-width:1.5px;"/><path d="M19.55,9.05c-1.29,.22-3.99,.36-4.44-.15s-.37-3.37-.12-4.48" style="fill:none; stroke:#445d82; stroke-linecap:round; stroke-linejoin:round; stroke-width:1.5px;"/></svg>