<?xml version="1.0" encoding="UTF-8"?><svg id="fn" xmlns="http://www.w3.org/2000/svg" width="24" height="24" viewBox="0 0 24 24"><path d="M13.97,19.69c1.26,.06,2.27,.54,2.34,1.05,.04,.29,.05,.74-.03,.98-.53,1.69-8.86,1.69-9.35,.18-.11-.34-.17-.93-.09-1.2,.12-.38,1.5-.77,2.77-.97" style="fill:none; stroke:#445d82; stroke-linecap:round; stroke-linejoin:round; stroke-width:1.5px;"/><path d="M.87,13.07c.38-.47,2.11-.74,3.84-.76,1.73-.02,3.47,.19,3.85,.68,.35,.45,.18,3.8-3.69,3.77S.5,13.54,.87,13.07Z" style="fill:none; stroke:#445d82; stroke-linecap:round; stroke-linejoin:round; stroke-width:1.5px;"/><path d="M14.85,9.51c.81-.96,7.42-1.08,8.25-.08,.38,.45,.19,3.85-3.96,3.81-4.14-.03-4.7-3.25-4.29-3.73Z" style="fill:none; stroke:#445d82; stroke-linecap:round; stroke-linejoin:round; stroke-width:1.5px;"/><path d="M4.51,7.76s-2.43,3.56-3.17,4.72" style="fill:none; stroke:#445d82; stroke-linecap:round; stroke-linejoin:round; stroke-width:1.5px;"/><path d="M5.05,7.82s2.48,3.26,3.19,4.75" style="fill:none; stroke:#445d82; stroke-linecap:round; stroke-linejoin:round; stroke-width:1.5px;"/><path d="M18.56,3.74s-2,3.43-3.14,5.44" style="fill:none; stroke:#445d82; stroke-linecap:round; stroke-linejoin:round; stroke-width:1.5px;"/><path d="M18.9,3.56s3.17,3.8,3.48,5.45" style="fill:none; stroke:#445d82; stroke-linecap:round; stroke-linejoin:round; stroke-width:1.5px;"/><path d="M10.48,5.59c-1.67,.55-2.41,.88-4.02,1.34-2.86,.83-4.44,1.08-4.7-.24" style="fill:none; stroke:#445d82; stroke-linecap:round; stroke-linejoin:round; stroke-width:1.5px;"/><path d="M21.22,1c.21,1.22-1.12,2.03-3.49,2.61s-4.47,1.18-5.93,1.55" style="fill:none; stroke:#445d82; stroke-linecap:round; stroke-linejoin:round; stroke-width:1.5px;"/><line x1="10.98" y1=".78" x2="11.63" y2="20.04" style="fill:none; stroke:#445d82; stroke-linecap:round; stroke-linejoin:round; stroke-width:1.5px;"/></svg>