<?xml version="1.0" encoding="UTF-8"?><svg id="ex" xmlns="http://www.w3.org/2000/svg" width="24" height="24" viewBox="0 0 24 24"><path d="M11.86,3.79c-1.76,.21-10.44,3.59-11.07,4.8-.54,1.04,9.31,5.58,10.81,5.66,2.2,.11,11.51-4.31,11.64-4.9,.26-1.15-9.65-5.76-11.38-5.55Z" style="fill:none; stroke:#445d82; stroke-linecap:round; stroke-linejoin:round; stroke-width:1.5px;"/><path d="M4.91,11.85c.11,2.06-.49,4.04,.15,5.36s4.84,3.01,6.96,3.01,5.42-2.09,5.95-2.92-.03-2.95,.01-5.02" style="fill:none; stroke:#445d82; stroke-linecap:round; stroke-linejoin:round; stroke-width:1.5px;"/><path d="M19.91,22.25c1.6-1.95,0-4.96,1.47-4.96s.24,3.05,1.35,4.57" style="fill:none; stroke:#445d82; stroke-linecap:round; stroke-linejoin:round; stroke-width:1.5px;"/><path d="M12.19,8.5s8.58,1.73,8.88,2.4,.24,5.93,.24,5.93" style="fill:none; stroke:#445d82; stroke-linecap:round; stroke-linejoin:round; stroke-width:1.5px;"/></svg>