<?xml version="1.0" encoding="UTF-8"?><svg id="ax" xmlns="http://www.w3.org/2000/svg" width="24" height="24" viewBox="0 0 24 24"><path d="M5.29,21.37c2.07,1.87,6.23,2.11,8.66,1.69,2.1-.37,2.11-1.45,2.77-2.88" style="fill:none; stroke:#445d82; stroke-linecap:round; stroke-linejoin:round; stroke-width:1.5px;"/><path d="M16.16,22.15c3.4,1.09,5.83-.5,5.53-1.66-.26-1.01-1.6-.43-1.46-2.57,.16-2.31,.14-5.18-1.79-7.49-2.23-2.66-4.49-2.5-4.49-4.24,0-1.73,2.34-2.77,2.54-2.97,.5-.84-1.62-2.15-2.09-2.2-.53-.05-1.4,.43-1.65,.39-.29-.04-.61-.64-1.12-.65-3.1-.05-3.7,1.09-3.9,.99-.18-.09-.92-.32-1.43-.27s-.7,1.28-.15,1.32c1.66,.12,2.82,1.53,2.14,3.33-.52,1.39-1.79,1.14-3.9,3.94-2.2,2.93-1.37,7.53-1.39,8.39-.03,1.33-.81,2.18-.68,2.6s.95,.99,2.59,.53" style="fill:none; stroke:#445d82; stroke-linecap:round; stroke-linejoin:round; stroke-width:1.5px;"/><path d="M8.38,5.48c-.9,0-1.49,1.5,1.11,2.13,4.21,1.02,8.15-.19,10.19-1.51" style="fill:none; stroke:#445d82; stroke-linecap:round; stroke-linejoin:round; stroke-width:1.5px;"/><path d="M13.03,12.66c-3.23-1.86-4.93,1.98-1.9,2.1,3.44,.14,3.04,4.13-1.65,2.61" style="fill:none; stroke:#445d82; stroke-linecap:round; stroke-linejoin:round; stroke-width:1.5px;"/><line x1="11.5" y1="10.77" x2="11.5" y2="12" style="fill:none; stroke:#445d82; stroke-linecap:round; stroke-linejoin:round; stroke-width:1.5px;"/><line x1="11.5" y1="17.75" x2="11.5" y2="19.25" style="fill:none; stroke:#445d82; stroke-linecap:round; stroke-linejoin:round; stroke-width:1.5px;"/></svg>