<?xml version="1.0" encoding="UTF-8"?><svg id="ad" xmlns="http://www.w3.org/2000/svg" width="24" height="24" viewBox="0 0 24 24"><path d="M11.75,22.26c-.86,0-3.41-.02-3.91-.04-1.74-.06-3.78-.38-3.93-2.8-.21-3.3-.14-8.24-.05-10.19,.06-1.22,.53-1.91,1.17-2.76,.64-.85,2.74-2.9,3.65-3.56s1.79-1.1,2.82-1.13,3.56,0,5.35,.03,3.21,.96,3.32,3.86c.05,.74,.08,2.18,.1,4.07" style="fill:none; stroke:#445d82; stroke-linecap:round; stroke-linejoin:round; stroke-width:1.5px;"/><path d="M3.83,10.48c.09-.65-.07-2.42,2.15-2.28h2.12c1.17,0,2.12-.96,2.12-2.15V3.91c0-1.19,.95-2.15,2.12-2.15" style="fill:none; stroke:#445d82; stroke-linecap:round; stroke-linejoin:round; stroke-width:1.5px;"/><g><g><line x1="16.18" y1="14.28" x2="16.18" y2="18.07" style="fill:none; stroke:#445d82; stroke-linecap:round; stroke-linejoin:round; stroke-width:1.5px;"/><line x1="14.29" y1="16.19" x2="18.07" y2="16.19" style="fill:none; stroke:#445d82; stroke-linecap:round; stroke-linejoin:round; stroke-width:1.5px;"/></g><path d="M20.59,16.22c.16-2.62-2.31-4.38-3.98-4.46-3.25-.16-4.86,2.27-4.86,4.46s1.7,4.37,4.84,4.37c2.75,0,3.83-1.69,3.99-4.37Z" style="fill:none; stroke:#445d82; stroke-linecap:round; stroke-linejoin:round; stroke-width:1.5px;"/><line x1="19.46" y1="19.58" x2="20.47" y2="20.47" style="fill:none; stroke:#445d82; stroke-linecap:round; stroke-linejoin:round; stroke-width:1.5px;"/><path d="M20.91,21.89c.51,.53,1.5,1.8,2.13,1.13s-.56-1.53-1.11-2.03c-.83-.75-1.71,.19-1.03,.9Z" style="fill:none; stroke:#445d82; stroke-linecap:round; stroke-linejoin:round; stroke-width:1.5px;"/></g></svg>