<svg width="53" height="24" viewBox="0 0 53 24" fill="none" xmlns="http://www.w3.org/2000/svg">
<path d="M6.79999 14.73C6.79999 14.73 1.29999 10.81 1.26999 9.48C1.23999 8.15 8.22999 8.5 8.22999 8.5C8.22999 8.5 10.8 1.73 11.84 1.73C12.88 1.73 16.03 8.46 16.03 8.46C16.03 8.46 22.92 7.86 22.64 9.7C22.36 11.54 17.2 14.88 17.2 14.88C17.2 14.88 19.24 21.26 18.82 22.14C18.4 23.02 12.05 18.73 12.05 18.73C12.05 18.73 6.05999 23.31 5.12999 22.06C4.19999 20.81 6.79999 14.74 6.79999 14.74V14.73Z" stroke="#445D82" stroke-width="1.5" stroke-linecap="round" stroke-linejoin="round"/>
<path d="M35.8 14.73C35.8 14.73 30.3 10.81 30.27 9.48C30.24 8.15 37.23 8.5 37.23 8.5C37.23 8.5 39.8 1.73 40.84 1.73C41.88 1.73 45.03 8.46 45.03 8.46C45.03 8.46 51.92 7.86 51.64 9.7C51.36 11.54 46.2 14.88 46.2 14.88C46.2 14.88 48.24 21.26 47.82 22.14C47.4 23.02 41.05 18.73 41.05 18.73C41.05 18.73 35.06 23.31 34.13 22.06C33.2 20.81 35.8 14.74 35.8 14.74V14.73Z" fill="#445D82" stroke="#445D82" stroke-width="1.5" stroke-linecap="round" stroke-linejoin="round"/>
</svg>
