<?xml version="1.0" encoding="UTF-8"?><svg id="d" xmlns="http://www.w3.org/2000/svg" width="24" height="24" viewBox="0 0 24 24"><rect id="e" width="24" height="24" style="fill:#e04c59; opacity:0; stroke:#445d82; stroke-miterlimit:10; stroke-width:0px;"/><g><path d="M9.75,22.22c-.89,0-1.41-.02-1.92-.04-1.74-.06-3.77-.33-3.92-2.75-.21-3.3-.14-8.25-.05-10.21,.06-1.22,.52-1.91,1.16-2.76s2.73-2.91,3.64-3.56,1.79-1.1,2.82-1.13c1.03-.02,3.55,0,5.34,.03,1.79,.02,3.21,.96,3.31,3.87,.05,.75,.09,2.18,.1,4.08" style="fill:none; stroke:#445d82; stroke-linecap:round; stroke-linejoin:round; stroke-width:1.5px;"/><path d="M3.82,10.52c.09-.65-.07-2.44,2.15-2.29h2.12c1.17,0,2.12-.97,2.12-2.16V3.92c0-1.19,.95-2.16,2.12-2.16" style="fill:none; stroke:#445d82; stroke-linecap:round; stroke-linejoin:round; stroke-width:1.5px;"/></g><path d="M14.16,16.36c1.39-.1,4.47-.16,6.57-.02,.75,.05,1.29,.51,1.41,1.21,.21,1.29,.07,2.74-.02,4.11-.06,.88-.53,1.35-1.47,1.46-1.12,.14-4.4,.11-6.11,.1-1.13,0-1.57-.51-1.61-.83-.21-1.69-.24-3.12-.04-4.84,.07-.58,.47-1.14,1.28-1.19Z" style="fill:none; stroke:#445d82; stroke-linecap:round; stroke-linejoin:round; stroke-width:1.5px;"/><path d="M14.84,16.26c-.14-1.5-.1-2.83,.5-3.58,1-1.24,3.3-1.29,4.36,0,.58,.71,.53,1.96,.55,3.57" style="fill:none; stroke:#445d82; stroke-linecap:round; stroke-linejoin:round; stroke-width:1.5px;"/><path d="M17.49,19.5c-.12,.12,.14,1,.02,1.19" style="fill:none; stroke:#445d82; stroke-linecap:round; stroke-linejoin:round; stroke-width:1.5px;"/></svg>