<svg width="24" height="24" viewBox="0 0 24 24" fill="none" xmlns="http://www.w3.org/2000/svg">
<g clip-path="url(#clip0_5004_1559)">
<path d="M21.7099 9.7301C20.2599 9.7301 17.4699 8.1201 16.6299 7.4401C16.3399 7.2101 15.5799 6.5901 15.8099 5.8301C15.9299 5.4301 16.3599 5.2001 16.7499 5.3201C17.0599 5.4101 17.2699 5.6901 17.2899 6.0001C17.7699 6.6101 20.4399 8.0101 21.4499 8.2101C21.6599 7.2501 21.3599 4.2901 20.9499 3.6201C20.6699 3.4601 20.4999 3.1401 20.5699 2.8001C20.6499 2.3901 21.0599 2.1301 21.4599 2.2101C21.9599 2.3101 22.5099 2.7201 22.8599 5.0101C23.0399 6.1901 23.3399 9.0201 22.2599 9.6101C22.1099 9.6901 21.9199 9.7301 21.7099 9.7301Z" fill="#494A4A"/>
<path d="M16.5899 6.6601C16.5199 6.6601 16.4499 6.6601 16.3799 6.6301C15.9799 6.5101 15.7499 6.0901 15.8599 5.6901C16.1399 4.7001 17.4699 4.7101 18.7399 4.7301C18.9099 4.7301 19.1099 4.7301 19.2699 4.7301C19.3099 4.6201 19.3599 4.5001 19.4199 4.3601C19.8699 3.2601 20.4299 1.8901 21.5299 2.1201C21.9399 2.2101 22.1999 2.6101 22.1099 3.0201C22.0399 3.3401 21.7699 3.5801 21.4599 3.6101C21.2599 3.8601 20.9599 4.6001 20.8299 4.9301C20.5899 5.5201 20.4699 5.8201 20.2199 6.0201C19.9099 6.2701 19.5099 6.2601 18.7299 6.2501C18.3299 6.2501 17.5299 6.2401 17.2199 6.3301C17.0799 6.5401 16.8399 6.6701 16.5899 6.6701V6.6601Z" fill="#494A4A"/>
<path d="M18.9399 5.3901C18.7699 5.3901 18.5999 5.3301 18.4599 5.2201C17.6899 4.5801 16.8899 4.0501 16.0799 3.6501C15.7099 3.4601 15.5499 3.0101 15.7399 2.6301C15.9299 2.2501 16.3799 2.1001 16.7599 2.2901C17.6799 2.7501 18.5699 3.3401 19.4299 4.0501C19.7499 4.3201 19.7999 4.8001 19.5299 5.1201C19.3799 5.3001 19.1599 5.3901 18.9499 5.3901H18.9399ZM5.82992 4.4401C5.58992 4.4401 5.34992 4.3201 5.19992 4.1101C4.95992 3.7601 5.04992 3.2901 5.39992 3.0601C6.29992 2.4501 7.27992 1.9701 8.30992 1.6401C8.70992 1.5101 9.13992 1.7301 9.25992 2.1301C9.37992 2.5301 9.16992 2.9601 8.76992 3.0801C7.86992 3.3701 7.01992 3.7801 6.24992 4.3101C6.11992 4.4001 5.96992 4.4401 5.82992 4.4401ZM13.5399 2.7701C13.5399 2.7701 13.4599 2.7701 13.4099 2.7601C13.3199 2.7501 13.2299 2.7301 13.1399 2.7201C12.6799 2.6601 12.2099 2.6201 11.7599 2.6201H11.5399C11.1399 2.6201 10.7699 2.3001 10.7599 1.8801C10.7599 1.4601 11.0799 1.1101 11.4999 1.1001H11.7599C12.2799 1.1001 12.8099 1.1301 13.3399 1.2101C13.4399 1.2201 13.5499 1.2401 13.6599 1.2601C14.0699 1.3301 14.3499 1.7201 14.2799 2.1301C14.2199 2.5001 13.8999 2.7601 13.5299 2.7601L13.5399 2.7701Z" fill="#494A4A"/>
<path d="M22.0704 12.1899C22.0704 17.9099 17.4304 22.5399 11.7104 22.5399C5.99035 22.5399 1.36035 17.9099 1.36035 12.1899C1.36035 9.81988 2.16035 7.62988 3.50035 5.87988M5.98035 7.74988C6.94035 9.43988 11.7604 12.5699 11.7604 12.5699C11.7604 12.5699 15.2404 10.6299 15.7504 10.2599M12.0404 11.8099C12.0404 11.8099 10.6604 12.8299 11.3504 12.8299C12.0404 12.8299 12.1804 12.7199 12.1804 12.7199L12.0404 11.8199V11.8099Z" stroke="#494A4A" stroke-width="1.5" stroke-linecap="round" stroke-linejoin="round"/>
</g>
<defs>
<clipPath id="clip0_5004_1559">
<rect width="24" height="24" fill="white"/>
</clipPath>
</defs>
</svg>
