<?xml version="1.0" encoding="UTF-8"?><svg id="hp" xmlns="http://www.w3.org/2000/svg" width="24" height="24" viewBox="0 0 24 24"><path d="M23.07,.92c-.43-.36-7.54,0-8.26,1.04s6.33,7.62,7.23,7.28c.9-.35,1.46-7.95,1.03-8.32Z" style="fill:none; stroke:#445d82; stroke-linecap:round; stroke-linejoin:round; stroke-width:1.5px;"/><path d="M15,3c-.93,.44-9.23,8.5-9.49,9.54s5,6.14,5.94,5.96c.94-.18,9.19-8.35,9.55-9.5" style="fill:none; stroke:#445d82; stroke-linecap:round; stroke-linejoin:round; stroke-width:1.5px;"/><line x1="9" y1="17" x2="3" y2="23" style="fill:none; stroke:#445d82; stroke-linecap:round; stroke-linejoin:round; stroke-width:1.5px;"/><path d="M3.99,15.02c-.44,.21-1.1,.44-1.47,.51" style="fill:none; stroke:#445d82; stroke-linecap:round; stroke-linejoin:round; stroke-width:1.5px;"/><path d="M3.07,18.59c.61-.22,1.57-.84,2.17-1.36" style="fill:none; stroke:#445d82; stroke-linecap:round; stroke-linejoin:round; stroke-width:1.5px;"/><path d="M10.56,7.33c1.81,2.47,6.51,4.06,10.04,2.28" style="fill:none; stroke:#445d82; stroke-linecap:round; stroke-linejoin:round; stroke-width:1.5px;"/><path d="M6.87,11.01c1.81,2.47,6.78,4.18,10.1,2.58" style="fill:none; stroke:#445d82; stroke-linecap:round; stroke-linejoin:round; stroke-width:1.5px;"/></svg>