<?xml version="1.0" encoding="UTF-8"?><svg id="ft" xmlns="http://www.w3.org/2000/svg" width="24" height="24" viewBox="0 0 24 24"><path d="M1.83,5.79c.15-2.41,1.37-4.03,3.45-4.03h13.55c1.88,0,3.31,.84,3.36,3.18,.08,3.51,.03,6.18,.03,12.29,0,4.48-.54,5.02-4.99,5.02H5.29c-1.88,0-3.32-.18-3.42-3.99-.04-1.54-.19-9.86-.03-12.46Z" style="fill:none; stroke:#445d82; stroke-linecap:round; stroke-linejoin:round; stroke-width:1.5px;"/><line x1="6.76" y1="13.76" x2="6.76" y2="19.28" style="fill:none; stroke:#445d82; stroke-linecap:round; stroke-linejoin:round; stroke-width:1.5px;"/><line x1="6.76" y1="4.81" x2="6.76" y2="6.32" style="fill:none; stroke:#445d82; stroke-linecap:round; stroke-linejoin:round; stroke-width:1.5px;"/><line x1="12" y1="10.3" x2="12" y2="4.75" style="fill:none; stroke:#445d82; stroke-linecap:round; stroke-linejoin:round; stroke-width:1.5px;"/><line x1="12" y1="19.28" x2="12" y2="17.76" style="fill:none; stroke:#445d82; stroke-linecap:round; stroke-linejoin:round; stroke-width:1.5px;"/><line x1="17.24" y1="14.76" x2="17.24" y2="19.21" style="fill:none; stroke:#445d82; stroke-linecap:round; stroke-linejoin:round; stroke-width:1.5px;"/><line x1="17.21" y1="4.75" x2="17.21" y2="7.25" style="fill:none; stroke:#445d82; stroke-linecap:round; stroke-linejoin:round; stroke-width:1.5px;"/><path d="M17.1,12.24c-1.41,0-2.02-2.5,.04-2.5,1.94,0,1.08,2.5-.01,2.5" style="fill:none; stroke:#445d82; stroke-linecap:round; stroke-linejoin:round; stroke-width:1.5px;"/><path d="M11.97,15.28c-1.41,0-2.02-2.5,.04-2.5,1.94,0,1.08,2.5-.01,2.5" style="fill:none; stroke:#445d82; stroke-linecap:round; stroke-linejoin:round; stroke-width:1.5px;"/><path d="M6.73,11.23c-1.41,0-2.02-2.5,.04-2.5,1.94,0,1.08,2.5-.01,2.5" style="fill:none; stroke:#445d82; stroke-linecap:round; stroke-linejoin:round; stroke-width:1.5px;"/></svg>