<svg width="24" height="24" viewBox="0 0 24 24" fill="none" xmlns="http://www.w3.org/2000/svg">
<path d="M6.5301 15C6.5301 15 1.0301 11.08 1.0001 9.75C0.970096 8.42 7.9601 8.77 7.9601 8.77C7.9601 8.77 10.5301 2 11.5701 2C12.6101 2 15.7601 8.73 15.7601 8.73C15.7601 8.73 22.6501 8.13 22.3701 9.97C22.0901 11.81 16.9301 15.15 16.9301 15.15C16.9301 15.15 18.9701 21.53 18.5501 22.41C18.1301 23.29 11.7801 19 11.7801 19C11.7801 19 5.7901 23.58 4.8601 22.33C3.9301 21.08 6.5301 15.01 6.5301 15.01V15Z" fill="#494A4A"/>
</svg>
