<?xml version="1.0" encoding="UTF-8"?><svg id="gs" xmlns="http://www.w3.org/2000/svg" width="24" height="24" viewBox="0 0 24 24"><path d="M18.7,14.34c-2.38-2.64-6.94-2-6.94,2.2s4.1,6.71,5.75,6.71c1.44,0,5.75-2.52,5.75-6.71,0-3.77-3.14-4.43-5.8-3.29" style="fill:none; stroke:#445d82; stroke-linecap:round; stroke-linejoin:round; stroke-width:1.5px;"/><g><path d="M11.87,23.23c-2.3,.03-11.12-.64-11.12-1.91,0-5.62,8.24-2.22,8.24-9.07" style="fill:none; fill-rule:evenodd; stroke:#445d82; stroke-linecap:round; stroke-miterlimit:10; stroke-width:1.5px;"/><path d="M15.56,10.05c.45-1.06,.73-2.37,.73-3.93,0-3.59-1.83-5.33-4.79-5.33s-4.79,1.74-4.79,5.33,1.4,5.77,3.07,6.68" style="fill:none; fill-rule:evenodd; stroke:#445d82; stroke-linecap:round; stroke-linejoin:round; stroke-width:1.5px;"/></g></svg>