<?xml version="1.0" encoding="UTF-8"?><svg id="ey" xmlns="http://www.w3.org/2000/svg" width="24" height="24" viewBox="0 0 24 24"><path d="M9.95,21.24c-2.24,0-4.29,.01-5.03-.04-2.35-.18-2.91-.55-3.05-3.16-.09-1.6-.18-7.63,0-10.01,.08-1.03,.57-2.94,3.05-3.16,1.37-.12,10.55-.25,14.25,0,1.22,.08,2.81,.63,3.04,3.18,.02,.23,.02,.26,.02,.89" style="fill:none; stroke:#445d82; stroke-linecap:round; stroke-linejoin:round; stroke-width:1.5px;"/><path d="M1.76,10.93s.04-3.45,.14-6.13S3.24,1.76,4.88,1.76h3.84c.66,0,1.29,.34,1.65,.9l.66,1.19c.37,.56,.89,.85,1.56,.85" style="fill:none; stroke:#445d82; stroke-linecap:round; stroke-linejoin:round; stroke-width:1.5px;"/><path d="M11.78,23.25c.9,0,9.55,0,11.44,0" style="fill:none; stroke:#445d82; stroke-linecap:round; stroke-linejoin:round; stroke-width:1.5px;"/><path d="M22.16,22.82c0-3.65,.24-10.75-.3-11.03s-8.59,1.9-8.85,2.52c-.29,.67-.27,6.18-.21,8.51" style="fill:none; stroke:#445d82; stroke-linecap:round; stroke-linejoin:round; stroke-width:1.5px;"/><path d="M15.76,15.76c1.43,0,2.57,0,3.43,0" style="fill:none; stroke:#445d82; stroke-linecap:round; stroke-linejoin:round; stroke-width:1.5px;"/><path d="M15.79,18.25c1.01,.02,2.34-.02,3.43,0" style="fill:none; stroke:#445d82; stroke-linecap:round; stroke-linejoin:round; stroke-width:1.5px;"/><path d="M15.74,22.82c0-.26-.04-2,.06-2.06,.16-.11,3.36-.09,3.42,0s.05,1.2,.04,2.02" style="fill:none; stroke:#445d82; stroke-linecap:round; stroke-linejoin:round; stroke-width:1.5px;"/><path d="M17.01,10.82c-.04,.26,.01,.99,0,1.33" style="fill:none; stroke:#445d82; stroke-linecap:round; stroke-linejoin:round; stroke-width:1.5px;"/></svg>