<svg width="24" height="24" viewBox="0 0 24 24" fill="none" xmlns="http://www.w3.org/2000/svg">
<path d="M14.4117 11.7637C14.7893 11.934 15.2334 11.7659 15.4037 11.3883C15.574 11.0107 15.4059 10.5666 15.0283 10.3963L14.4117 11.7637ZM13.23 10.93V11.68C13.2504 11.68 13.2707 11.6792 13.291 11.6775L13.23 10.93ZM12.98 16.43L13.1452 15.6984C13.091 15.6862 13.0356 15.68 12.98 15.68V16.43ZM14.707 16.9781C15.0981 16.8417 15.3046 16.4141 15.1682 16.023C15.0317 15.6319 14.6041 15.4254 14.213 15.5618L14.707 16.9781ZM10.4743 12.92C10.0601 12.9176 9.72239 13.2515 9.72002 13.6657C9.71765 14.0799 10.0515 14.4176 10.4657 14.42L10.4743 12.92ZM13.9657 14.44C14.3799 14.4423 14.7176 14.1085 14.72 13.6943C14.7224 13.2801 14.3885 12.9424 13.9743 12.94L13.9657 14.44ZM20.61 18.49V17.74H19.9011L19.8612 18.4478L20.61 18.49ZM4.39001 19.56L5.13866 19.515L5.13853 19.5129L4.39001 19.56ZM4.34001 8.93998L5.08916 8.97584L5.08934 8.97173L4.34001 8.93998ZM11.67 1.75998L11.6549 1.0101L11.6473 1.01032L11.67 1.75998ZM17.44 1.78998L17.4269 2.53988L17.4313 2.53993L17.44 1.78998ZM20.62 5.50998L19.8705 5.53675L19.8708 5.54599L19.8714 5.55523L20.62 5.50998ZM20.62 18.49V19.24H21.3296L21.3689 18.5314L20.62 18.49ZM3.5371 10.3971C3.48028 10.8074 3.76684 11.1861 4.17714 11.2429C4.58744 11.2997 4.96611 11.0131 5.02292 10.6028L3.5371 10.3971ZM6.45001 8.20998L6.40322 8.95852C6.4188 8.95949 6.4344 8.95998 6.45001 8.95998V8.20998ZM12.87 2.47998C13.2842 2.47998 13.62 2.14419 13.62 1.72998C13.62 1.31577 13.2842 0.97998 12.87 0.97998V2.47998ZM15.0283 10.3963C14.6262 10.2149 14.1218 10.178 13.805 10.169C13.6297 10.1641 13.4739 10.1673 13.3618 10.1716C13.3054 10.1739 13.2593 10.1764 13.2263 10.1785C13.2098 10.1795 13.1965 10.1804 13.1869 10.1811C13.182 10.1815 13.1781 10.1818 13.1751 10.182C13.1736 10.1821 13.1723 10.1822 13.1713 10.1823C13.1708 10.1823 13.1704 10.1824 13.17 10.1824C13.1698 10.1824 13.1696 10.1824 13.1694 10.1824C13.1694 10.1824 13.1692 10.1824 13.1692 10.1824C13.1691 10.1825 13.169 10.1825 13.23 10.93C13.291 11.6775 13.2909 11.6775 13.2908 11.6775C13.2908 11.6775 13.2907 11.6775 13.2907 11.6775C13.2906 11.6775 13.2905 11.6775 13.2904 11.6775C13.2902 11.6776 13.2902 11.6776 13.2901 11.6776C13.29 11.6776 13.2902 11.6776 13.2906 11.6775C13.2913 11.6775 13.2929 11.6774 13.2954 11.6772C13.3004 11.6768 13.3086 11.6762 13.3199 11.6755C13.3425 11.6741 13.377 11.6722 13.4204 11.6705C13.508 11.6671 13.629 11.6646 13.7625 11.6684C14.0632 11.677 14.3038 11.715 14.4117 11.7637L15.0283 10.3963ZM13.23 10.18C12.42 10.18 11.7231 10.6643 11.2602 11.281C10.7877 11.9105 10.49 12.7569 10.49 13.68H11.99C11.99 13.0731 12.1874 12.5445 12.4598 12.1815C12.7419 11.8057 13.04 11.68 13.23 11.68V10.18ZM10.49 13.68C10.49 14.5564 10.7004 15.3882 11.0989 16.0261C11.4967 16.6629 12.1404 17.18 12.98 17.18V15.68C12.8196 15.68 12.5933 15.587 12.3711 15.2314C12.1496 14.8768 11.99 14.3336 11.99 13.68H10.49ZM12.98 16.43C12.8148 17.1616 12.8151 17.1616 12.8154 17.1617C12.8155 17.1617 12.8157 17.1618 12.8159 17.1618C12.8163 17.1619 12.8167 17.162 12.8171 17.1621C12.8179 17.1623 12.8187 17.1624 12.8196 17.1626C12.8214 17.163 12.8233 17.1634 12.8254 17.1639C12.8296 17.1648 12.8344 17.1658 12.8398 17.1669C12.8507 17.169 12.864 17.1716 12.8798 17.1743C12.9112 17.1798 12.9524 17.1861 13.0025 17.192C13.1026 17.2038 13.2388 17.214 13.4046 17.2124C13.7366 17.2093 14.1891 17.1588 14.707 16.9781L14.213 15.5618C13.8709 15.6812 13.5834 15.7107 13.3904 15.7125C13.2937 15.7134 13.2212 15.7074 13.1781 15.7023C13.1566 15.6998 13.1427 15.6975 13.1369 15.6965C13.134 15.696 13.1332 15.6958 13.1346 15.6961C13.1352 15.6962 13.1364 15.6965 13.1382 15.6969C13.1391 15.6971 13.1401 15.6973 13.1413 15.6975C13.1419 15.6977 13.1425 15.6978 13.1431 15.6979C13.1435 15.698 13.1438 15.6981 13.1441 15.6982C13.1443 15.6982 13.1446 15.6983 13.1447 15.6983C13.1449 15.6983 13.1452 15.6984 12.98 16.43ZM10.4657 14.42L13.9657 14.44L13.9743 12.94L10.4743 12.92L10.4657 14.42ZM19.8612 18.4478C19.792 19.6768 19.3397 20.372 18.803 20.7863C18.2383 21.2221 17.49 21.4151 16.7441 21.4508L16.8159 22.9491C17.74 22.9049 18.8267 22.6629 19.7195 21.9737C20.6403 21.2629 21.2681 20.1432 21.3588 18.5322L19.8612 18.4478ZM16.7441 21.4508C15.1018 21.5295 9.84408 21.51 8.18694 21.4505L8.13308 22.9495C9.81594 23.01 15.1182 23.0304 16.8159 22.9491L16.7441 21.4508ZM8.18694 21.4505C7.3483 21.4203 6.59301 21.341 6.039 21.0616C5.77838 20.9301 5.57724 20.7608 5.43154 20.5374C5.28522 20.313 5.1673 19.9916 5.13866 19.515L3.64136 19.605C3.68272 20.2933 3.8623 20.877 4.17504 21.3566C4.4884 21.8373 4.90788 22.1711 5.36351 22.4009C6.242 22.844 7.30172 22.9196 8.13308 22.9495L8.18694 21.4505ZM5.13853 19.5129C4.94074 16.368 5.00006 10.8369 5.08915 8.97584L3.59087 8.90412C3.49996 10.8031 3.43928 16.3919 3.64149 19.6071L5.13853 19.5129ZM5.08934 8.97173C5.12926 8.02952 5.45959 7.52408 6.05825 6.73231L4.86176 5.82765C4.22042 6.67588 3.65076 7.49044 3.59068 8.90823L5.08934 8.97173ZM6.05825 6.73231C6.33215 6.37006 6.95489 5.70325 7.64171 5.02889C8.32846 4.3546 9.01413 3.73678 9.39989 3.45744L8.52012 2.24252C8.03589 2.59318 7.28155 3.28036 6.59081 3.95857C5.90012 4.63671 5.20786 5.3699 4.86176 5.82765L6.05825 6.73231ZM9.39989 3.45744C10.2195 2.86395 10.9217 2.533 11.6927 2.50964L11.6473 1.01032C10.4383 1.04696 9.44054 1.57601 8.52012 2.24252L9.39989 3.45744ZM11.6852 2.50983C12.66 2.49013 15.708 2.50988 17.4269 2.53987L17.4531 1.04009C15.732 1.01008 12.66 0.989828 11.6549 1.01013L11.6852 2.50983ZM17.4313 2.53993C18.1671 2.54849 18.7184 2.74222 19.1026 3.13316C19.4923 3.52977 19.8244 4.2452 19.8705 5.53675L21.3695 5.48321C21.3157 3.97476 20.9177 2.84019 20.1724 2.0818C19.4216 1.31774 18.4329 1.05147 17.4487 1.04003L17.4313 2.53993ZM19.8714 5.55523C19.9796 7.34668 20.0395 15.4077 19.8712 18.4485L21.3689 18.5314C21.5405 15.4322 21.4804 7.31328 21.3686 5.46473L19.8714 5.55523ZM20.62 17.74H20.61V19.24H20.62V17.74ZM5.02292 10.6028C5.03801 10.4938 5.04715 10.3677 5.05495 10.2674C5.06355 10.157 5.07225 10.0511 5.08601 9.94313C5.11401 9.72356 5.15849 9.53811 5.23122 9.39083C5.29775 9.25612 5.38639 9.15489 5.52568 9.08218C5.67394 9.00479 5.93858 8.92948 6.40322 8.95852L6.49679 7.46144C5.84144 7.42048 5.28608 7.51517 4.83152 7.75246C4.36799 7.99444 4.07101 8.35259 3.88629 8.72663C3.70778 9.0881 3.63538 9.46077 3.59806 9.75339C3.57917 9.90154 3.56811 10.0402 3.55948 10.151C3.55006 10.272 3.5445 10.3436 3.5371 10.3971L5.02292 10.6028ZM6.45001 8.95998H8.59001V7.45998H6.45001V8.95998ZM8.59001 8.95998C10.1888 8.95998 11.48 7.65964 11.48 6.04998H9.98001C9.98001 6.84032 9.35125 7.45998 8.59001 7.45998V8.95998ZM11.48 6.04998V3.88998H9.98001V6.04998H11.48ZM11.48 3.88998C11.48 3.10737 12.111 2.47998 12.87 2.47998V0.97998C11.269 0.97998 9.98001 2.29259 9.98001 3.88998H11.48Z" fill="#494A4A"/>
</svg>
