<?xml version="1.0" encoding="UTF-8"?><svg id="j" xmlns="http://www.w3.org/2000/svg" width="24" height="24" viewBox="0 0 24 24"><path d="m4.25,18.75c.19-.47.2-1.05-.1-1.8-1.09-2.73-4.5-5.79-3.15-7.2,1.02-1.06,12.95,1.21,22.25,6.13l-1,4.62" style="fill:none; stroke:#445d82; stroke-linecap:round; stroke-linejoin:round; stroke-width:1.5px;"/><polyline points="5.5 9.25 7 7.5 12.75 7.5 21 11.75 21 14" style="fill:none; stroke:#445d82; stroke-linecap:round; stroke-linejoin:round; stroke-width:1.5px;"/><polyline points="16.5 8.5 18 6 20.25 6.5 19.75 10.5" style="fill:none; stroke:#445d82; stroke-linecap:round; stroke-linejoin:round; stroke-width:1.5px;"/><path d="m23.25,21.06c.24.05-4.7-1.99-6.27-.52s-6.17-1.01-7.35-1.51c-2.09-.89-4.37.07-5.93.31-2.11.33-2.94-.34-2.94-.34" style="fill:none; stroke:#445d82; stroke-linecap:round; stroke-linejoin:round; stroke-width:1.5px;"/><path d="m5.32,13.18c-.07,0-.37-.57-.3-.57s.37.57.3.57Z" style="fill:none; stroke:#445d82; stroke-linecap:round; stroke-linejoin:round; stroke-width:1.5px;"/><line x1="12.5" y1="8" x2="12.1" y2="8.98" style="fill:none; stroke:#445d82; stroke-linecap:round; stroke-linejoin:round; stroke-width:1.5px;"/></svg>