<?xml version="1.0" encoding="UTF-8"?><svg id="ak" xmlns="http://www.w3.org/2000/svg" width="24" height="24" viewBox="0 0 24 24"><path d="M15.07,12.76c.03,6.43,8.17,3.01,8.17,8.58,0,2.53-22.48,2.53-22.48,0,0-5.57,8.14-2.15,8.17-8.58" style="fill:none; fill-rule:evenodd; stroke:#445d82; stroke-linecap:round; stroke-miterlimit:10; stroke-width:1.5px;"/><path d="M16.7,3.74c-.65-2.01-2.33-2.99-4.7-2.99s-4.05,.99-4.7,3.01" style="fill:none; fill-rule:evenodd; stroke:#445d82; stroke-linecap:round; stroke-linejoin:round; stroke-width:1.5px;"/><path d="M7.56,10.22c.8,2.46,2.39,4.03,4.44,4.03s3.63-1.56,4.43-3.99" style="fill:none; fill-rule:evenodd; stroke:#445d82; stroke-linecap:round; stroke-linejoin:round; stroke-width:1.5px;"/><polyline points=".75 11.25 .75 14.25 3.75 14.25" style="fill:none; fill-rule:evenodd; stroke:#445d82; stroke-linecap:round; stroke-linejoin:round; stroke-width:1.5px;"/><polyline points="3.75 .75 .75 .75 .75 3.75" style="fill:none; fill-rule:evenodd; stroke:#445d82; stroke-linecap:round; stroke-linejoin:round; stroke-width:1.5px;"/><polyline points="23.25 3.75 23.25 .75 20.25 .75" style="fill:none; fill-rule:evenodd; stroke:#445d82; stroke-linecap:round; stroke-linejoin:round; stroke-width:1.5px;"/><polyline points="20.25 14.25 23.25 14.25 23.25 11.25" style="fill:none; fill-rule:evenodd; stroke:#445d82; stroke-linecap:round; stroke-linejoin:round; stroke-width:1.5px;"/><line x1="20" y1="7.25" x2="4" y2="7.25" style="fill:none; stroke:#445d82; stroke-linecap:round; stroke-miterlimit:10; stroke-width:1.5px;"/></svg>