<?xml version="1.0" encoding="UTF-8"?><svg id="hf" xmlns="http://www.w3.org/2000/svg" width="24" height="24" viewBox="0 0 24 24"><path d="M19.08,21.18c-2.57,.07-12.29,.14-14.18,0-2.34-.17-2.89-.53-3.04-3.06-.09-1.55-.18-6.88,0-9.17,.08-1,.56-2.85,3.04-3.06,1.36-.12,10.5-.24,14.18,0,1.22,.08,2.81,.59,3.04,3.06,.12,1.27,.2,7.06,0,9.17-.21,2.22-1.96,3.03-3.04,3.06Z" style="fill:none; stroke:#445d82; stroke-linecap:round; stroke-linejoin:round; stroke-width:1.5px;"/><path d="M1.76,12.08s.04-3.5,.14-6.23,1.37-3.09,3.04-3.09h3.91c.68,0,1.31,.34,1.69,.92l.67,1.21c.38,.57,.91,.85,1.59,.85" style="fill:none; stroke:#445d82; stroke-linecap:round; stroke-linejoin:round; stroke-width:1.5px;"/></svg>