<?xml version="1.0" encoding="UTF-8"?><svg id="g" xmlns="http://www.w3.org/2000/svg" width="24" height="24" viewBox="0 0 24 24"><path d="m16,22c.24-.5.48-20.36,0-20.85S2.26.59,2.01,1.14s-.48,20.1,0,20.85" style="fill:none; stroke:#445d82; stroke-linecap:round; stroke-linejoin:round; stroke-width:1.5px;"/><line x1=".75" y1="22.25" x2="17.25" y2="22.25" style="fill:none; stroke:#445d82; stroke-linecap:round; stroke-miterlimit:10; stroke-width:1.5px;"/><path d="m12.98,8.24c-.23.46-7.49.23-7.96,0s-.23-3.68,0-4.14,7.49-.46,7.96,0,.23,3.68,0,4.14Z" style="fill:none; stroke:#445d82; stroke-linecap:round; stroke-linejoin:round; stroke-width:1.5px;"/><path d="m11.1,18.15c-.94,1.48-3.28,1.48-4.22,0s2.11-6.41,2.11-6.41c0,0,3.04,4.93,2.11,6.41Z" style="fill:none; stroke:#445d82; stroke-linecap:round; stroke-linejoin:round; stroke-width:1.5px;"/><path d="m16.75,19.25c1,.25,5.5-.75,5.5-7s.25-6.25-.75-7.25-1.85-2.5-1.85-2.5l-.9,1.12" style="fill:none; stroke:#445d82; stroke-linecap:round; stroke-linejoin:round; stroke-width:1.5px;"/><path d="m20.75,5c-.75,1.25.25,2.5,1.5,2.25" style="fill:none; stroke:#445d82; stroke-linecap:round; stroke-linejoin:round; stroke-width:1.5px;"/></svg>