<?xml version="1.0" encoding="UTF-8"?><svg id="f" xmlns="http://www.w3.org/2000/svg" width="24" height="24" viewBox="0 0 24 24"><rect id="g" width="24" height="24" style="fill:none;"/><path d="M16.59,14.3c-2.79,2.75-.74,7.54-1.78,7.93-.58,.24-3.1-3.18-3.37-4.48" style="fill:none; stroke:#445d82; stroke-linecap:round; stroke-linejoin:round; stroke-width:1.5px;"/><path d="M6.45,12.65c-1.28-.31-4.64-2.83-4.41-3.42,.39-1.06,5.15,1.06,7.86-1.77" style="fill:none; stroke:#445d82; stroke-linecap:round; stroke-linejoin:round; stroke-width:1.5px;"/><path d="M7.21,18.87h-.04c-1.08,.98-3.21,1.92-3.44,1.65-.27-.27,.81-3.02,1.51-3.73" style="fill:none; stroke:#445d82; stroke-linecap:round; stroke-linejoin:round; stroke-width:1.5px;"/><path d="M10.82,17.99c-1.12-.35-4.26-3.53-4.61-4.67,.28-.86,.67-1.7,1.12-2.49s.97-1.53,1.55-2.24C13.09,3.45,20.07,.52,21.74,2.25c2.13,2.2-3.14,13.11-10.92,15.74Z" style="fill:none; stroke:#445d82; stroke-linecap:round; stroke-linejoin:round; stroke-width:1.5px;"/><path d="M15.58,8.43c.89,.89,.89,2.28,0,3.17s-2.27,.89-3.17,0-.89-2.28,0-3.17,2.27-.89,3.17,0Z" style="fill:none; stroke:#445d82; stroke-linecap:round; stroke-linejoin:round; stroke-width:1.5px;"/><path d="M10.13,22.5c-.23,.27-.31,.43-.66,.75" style="fill:none; stroke:#445d82; stroke-linecap:round; stroke-linejoin:round; stroke-width:1.5px;"/><path d="M.79,14.43c.31-.35,.47-.43,.75-.66" style="fill:none; stroke:#445d82; stroke-linecap:round; stroke-linejoin:round; stroke-width:1.5px;"/></svg>