<?xml version="1.0" encoding="UTF-8"?><svg id="b" xmlns="http://www.w3.org/2000/svg" width="24" height="24" viewBox="0 0 24 24"><g id="c"><rect width="24" height="24" style="fill:none;"/><path d="m8.84,18c-2.19-1.01-3.05-3.15-3.05-5.87,0-3.59,2.67-6.38,6.26-6.38,2.78,0,5.08,1.94,5.75,3.51" style="fill:none; stroke:#494a4a; stroke-linecap:round; stroke-miterlimit:10; stroke-width:1.5px;"/><path d="m12.1,2.23c0-.23-.09-1.23-.09-1.23" style="fill:none; stroke:#494a4a; stroke-linecap:round; stroke-miterlimit:10; stroke-width:1.5px;"/><path d="m2.23,11.84h-1.23" style="fill:none; stroke:#494a4a; stroke-linecap:round; stroke-miterlimit:10; stroke-width:1.5px;"/><path d="m4.57,5.09s-1.04-.52-2.08-1.82" style="fill:none; stroke:#494a4a; stroke-linecap:round; stroke-miterlimit:10; stroke-width:1.5px;"/><path d="m4.71,19s-1.18.89-1.96,1.92" style="fill:none; stroke:#494a4a; stroke-linecap:round; stroke-miterlimit:10; stroke-width:1.5px;"/><path d="m21.44,3c-.78,1.05-1.97,1.94-1.97,1.94" style="fill:none; stroke:#494a4a; stroke-linecap:round; stroke-miterlimit:10; stroke-width:1.5px;"/><line x1="21.39" y1="13.64" x2="13.76" y2="21.26" style="fill:none; stroke:#494a4a; stroke-linecap:round; stroke-linejoin:round; stroke-width:1.5px;"/><circle cx="17.51" cy="17.51" r="5.74" style="fill:none; stroke:#494a4a; stroke-linecap:round; stroke-linejoin:round; stroke-width:1.5px;"/></g></svg>