<?xml version="1.0" encoding="UTF-8"?><svg id="gd" xmlns="http://www.w3.org/2000/svg" width="24" height="24" viewBox="0 0 24 24"><path d="M23.11,11.1c-1.53-2.19-6.53-7.89-8.7-9.36-1.97-1.33-3.16-1.32-5.1,.16C6.93,3.71,2.47,8.59,.95,11c-.94,1.48,1.91,1.61,1.9,2.04-.02,2.73-.08,5.43,.21,6.79s.82,2.08,2.47,2.23c3.36,.31,11.98,.19,13.4-.06,1.23-.22,1.8-1.18,1.94-2.2,.36-2.58,.19-5.22,.3-6.84,.06-.84,2.68-.79,1.93-1.86Z" style="fill:none; stroke:#445d82; stroke-linecap:round; stroke-linejoin:round; stroke-width:1.5px;"/><path d="M6.8,22.12c.77-.05,1.42-.73,1.43-1.62,.02-1.35-.1-5.02,.13-5.66,.18-.53,.56-.86,1.13-.94,1.23-.19,3.67-.22,4.81-.06,.83,.12,1.21,.76,1.31,1.19,.25,1.09,.12,4.52,.24,5.75,.08,.84,.65,1.32,1.27,1.36" style="fill:none; stroke:#445d82; stroke-linecap:round; stroke-linejoin:round; stroke-width:1.5px;"/></svg>