<?xml version="1.0" encoding="UTF-8"?><svg id="b" xmlns="http://www.w3.org/2000/svg" width="24" height="24" viewBox="0 0 24 24"><g id="c"><rect width="24" height="24" style="fill:none;"/><path d="m18.5,12.2c0,3.62-3.3,6.55-6.92,6.55s-5.93-3.06-5.93-6.68,2.69-6.43,6.3-6.43,6.55,2.93,6.55,6.55Z" style="fill:none; stroke:#494a4a; stroke-linecap:round; stroke-miterlimit:10; stroke-width:1.5px;"/><path d="m12,2.23c0-.23-.09-1.23-.09-1.23" style="fill:none; stroke:#494a4a; stroke-linecap:round; stroke-miterlimit:10; stroke-width:1.5px;"/><path d="m11.92,23s.09-1.07.09-1.3" style="fill:none; stroke:#494a4a; stroke-linecap:round; stroke-miterlimit:10; stroke-width:1.5px;"/><path d="m2.14,11.84H.91" style="fill:none; stroke:#494a4a; stroke-linecap:round; stroke-miterlimit:10; stroke-width:1.5px;"/><path d="m22.91,11.84h-1.3" style="fill:none; stroke:#494a4a; stroke-linecap:round; stroke-miterlimit:10; stroke-width:1.5px;"/><path d="m4.48,5.09s-1.04-.52-2.08-1.82" style="fill:none; stroke:#494a4a; stroke-linecap:round; stroke-miterlimit:10; stroke-width:1.5px;"/><path d="m21.35,20.92c-.52-.78-2.08-1.82-2.08-1.82" style="fill:none; stroke:#494a4a; stroke-linecap:round; stroke-miterlimit:10; stroke-width:1.5px;"/><path d="m4.62,19s-1.18.89-1.96,1.92" style="fill:none; stroke:#494a4a; stroke-linecap:round; stroke-miterlimit:10; stroke-width:1.5px;"/><path d="m21.35,3c-.78,1.05-1.97,1.94-1.97,1.94" style="fill:none; stroke:#494a4a; stroke-linecap:round; stroke-miterlimit:10; stroke-width:1.5px;"/></g></svg>