<?xml version="1.0" encoding="UTF-8"?><svg id="b" xmlns="http://www.w3.org/2000/svg" width="24" height="24" viewBox="0 0 24 24"><g id="c"><rect width="24" height="24" style="fill:none;"/><line x1="19.89" y1="17.5" x2="14.74" y2="17.5" style="fill:none; stroke:#494a4a; stroke-linecap:round; stroke-linejoin:round; stroke-width:1.5px;"/><polyline points="18.24 15.25 20.24 17.5 18.24 19.75" style="fill:none; stroke:#494a4a; stroke-linecap:round; stroke-linejoin:round; stroke-width:1.5px;"/><circle cx="17.49" cy="17.49" r="5.74" style="fill:none; stroke:#494a4a; stroke-linecap:round; stroke-linejoin:round; stroke-width:1.5px;"/><path d="m8.78,18.25c-2.23-1.03-3.11-3.22-3.11-5.99,0-3.67,2.72-6.51,6.39-6.51,2.83,0,5.18,1.98,5.87,3.58" style="fill:none; stroke:#494a4a; stroke-linecap:round; stroke-miterlimit:10; stroke-width:1.5px;"/><path d="m12.1,2.23c0-.23-.09-1.23-.09-1.23" style="fill:none; stroke:#494a4a; stroke-linecap:round; stroke-miterlimit:10; stroke-width:1.5px;"/><path d="m2.23,11.84h-1.23" style="fill:none; stroke:#494a4a; stroke-linecap:round; stroke-miterlimit:10; stroke-width:1.5px;"/><path d="m4.57,5.09s-1.04-.52-2.08-1.82" style="fill:none; stroke:#494a4a; stroke-linecap:round; stroke-miterlimit:10; stroke-width:1.5px;"/><path d="m4.71,19s-1.18.89-1.96,1.92" style="fill:none; stroke:#494a4a; stroke-linecap:round; stroke-miterlimit:10; stroke-width:1.5px;"/><path d="m21.44,3c-.78,1.05-1.97,1.94-1.97,1.94" style="fill:none; stroke:#494a4a; stroke-linecap:round; stroke-miterlimit:10; stroke-width:1.5px;"/></g></svg>