<?xml version="1.0" encoding="UTF-8"?><svg id="b" xmlns="http://www.w3.org/2000/svg" width="24" height="24.09" viewBox="0 0 24 24.09"><g id="c"><rect y=".09" width="24" height="24" style="fill:none;"/><path d="m23.21,11.09C22.7,5.4,17.88.93,12.01.93c-2.13,0-6,.82-8.5,4.07" style="fill:none; stroke:#445d82; stroke-linecap:round; stroke-linejoin:round; stroke-width:1.5px;"/><path d="m.77,11.59v.5c0,5.56,4.11,10.18,9.48,11.02" style="fill:none; stroke:#445d82; stroke-linecap:round; stroke-linejoin:round; stroke-width:1.5px;"/><path d="m11.92,6s-.37,5.07,0,6.08c.16.43.92,1.23,1.74,2" style="fill:none; stroke:#445d82; stroke-linecap:round; stroke-linejoin:round; stroke-width:1.5px;"/><path d="m7.76,5.74c-1.77.11-4.48.36-4.95-.18-.47-.54-.07-3.48.09-4.8" style="fill:none; stroke:#445d82; stroke-linecap:round; stroke-linejoin:round; stroke-width:1.5px;"/><path d="m13.87,18.92s3.56-3.72,5.89-5.73c.5-.46,1.07-.41,1.48,0l1.66,1.65c.41.41.35.92,0,1.47s-5.19,5.69-6.35,6.42c-.43.27-.73.46-1.09.55s-1.66,0-1.66,0c-.58,0-1.04-.47-1.04-1.04,0,0-.05-1.22,0-1.65s1.12-1.67,1.12-1.67Z" style="fill:none; stroke:#505f7a; stroke-miterlimit:10; stroke-width:1.5px;"/><line x1="17.85" y1="14.96" x2="20.98" y2="18.08" style="fill:none; stroke:#505f7a; stroke-miterlimit:10; stroke-width:1.5px;"/></g></svg>