<?xml version="1.0" encoding="UTF-8"?><svg id="cn" xmlns="http://www.w3.org/2000/svg" width="24" height="24" viewBox="0 0 24 24"><path d="M6.23,8.79S.12,19.56,2.12,21.86c1.78,2.05,14.38-4.36,14.38-4.36" style="fill:none; stroke:#445d82; stroke-linecap:round; stroke-linejoin:round; stroke-width:1.5px;"/><path d="M16.99,14.83c.47,1.19,.41,2.2-.49,2.67-4.25,2.25-13.5-6.25-9.72-9.37,.4-.33,.91-.42,1.47-.38" style="fill:none; stroke:#445d82; stroke-linecap:round; stroke-linejoin:round; stroke-width:1.5px;"/><path d="M11.78,7.25c.6,2.65,.25,3.82-.64,5.65" style="fill:none; stroke:#445d82; stroke-linecap:round; stroke-linejoin:round; stroke-width:1.5px;"/><path d="M15.64,4.12c0,2.47-2.35,6.48-4.5,8.77" style="fill:none; stroke:#445d82; stroke-linecap:round; stroke-linejoin:round; stroke-width:1.5px;"/><path d="M18.46,12.56c-3-1.44-4.82-.95-7.21,.28" style="fill:none; stroke:#445d82; stroke-linecap:round; stroke-linejoin:round; stroke-width:1.5px;"/><path d="M11.14,3.27c.64,0,.5-.6,0-.7s-.64,.7,0,.7Z" style="fill:none; stroke:#445d82; stroke-linecap:round; stroke-linejoin:round; stroke-width:1.5px;"/><path d="M18.41,2.97c-.47,.03-.61-.54-.36-.72,.62-.45,.83,.69,.36,.72Z" style="fill:none; stroke:#445d82; stroke-linecap:round; stroke-linejoin:round; stroke-width:1.5px;"/><path d="M22.89,10.5c.22-.87-1.17-.37-.98,.17s.76,.7,.98-.17Z" style="fill:none; stroke:#445d82; stroke-linecap:round; stroke-linejoin:round; stroke-width:1.5px;"/><path d="M20.45,6.72c-.83,.8-3.06-1.07-1.89,1.42,0,0,.8,2.1-1.68,.73" style="fill:none; stroke:#445d82; stroke-linecap:round; stroke-linejoin:round; stroke-width:1.5px;"/></svg>