<?xml version="1.0" encoding="UTF-8"?><svg id="di" xmlns="http://www.w3.org/2000/svg" width="24" height="24" viewBox="0 0 24 24"><g><path d="M21.03,9.77l.82,.72c.1,.29,.17,.57,.2,.86,.21,1.82,.29,6.02,0,7.65s-1.87,3.79-4.09,4.03c-2.22,.24-9.91,.34-11.92,0-2.01-.34-3.85-1.83-4.09-4.03s-.22-5.5,0-7.65c.03-.33,.09-.64,.16-.93l1.54-1.49" style="fill:none; stroke:#445d82; stroke-linecap:round; stroke-linejoin:round; stroke-width:1.5px;"/><path d="M2.79,10.99s6.73,6.25,9.2,6.25c2.47,0,9.23-6.25,9.23-6.25" style="fill:none; stroke:#445d82; stroke-linecap:round; stroke-linejoin:round; stroke-width:1.5px;"/><line x1="14.12" y1="16.84" x2="20.02" y2="22.16" style="fill:none; stroke:#445d82; stroke-linecap:round; stroke-linejoin:round; stroke-width:1.5px;"/><line x1="9.96" y1="16.75" x2="4.56" y2="22.56" style="fill:none; stroke:#445d82; stroke-linecap:round; stroke-linejoin:round; stroke-width:1.5px;"/></g><path d="M3.74,11.71c.02-1.02,.04-2.55,.07-3.15,.06-1.28,.54-1.99,1.2-2.88,.66-.89,2.81-3.04,3.74-3.73,.93-.68,1.84-1.15,2.89-1.18s3.65,0,5.48,.03,3.29,1,3.4,4.04c.07,1.05,.11,3.79,.12,6.63" style="fill:none; stroke:#445d82; stroke-linecap:round; stroke-linejoin:round; stroke-width:1.5px;"/><line x1="7.75" y1="11.75" x2="16.25" y2="11.75" style="fill:none; stroke:#445d82; stroke-linecap:round; stroke-linejoin:round; stroke-width:1.5px;"/><line x1="12.75" y1="8.25" x2="17.25" y2="8.25" style="fill:none; stroke:#445d82; stroke-linecap:round; stroke-linejoin:round; stroke-width:1.5px;"/><path d="M3.81,9.51c.09-.65-.07-2.43,2.17-2.29h2.14c1.18,0,2.14-.96,2.14-2.16V2.91c0-1.19,.96-2.16,2.14-2.16" style="fill:none; stroke:#445d82; stroke-linecap:round; stroke-linejoin:round; stroke-width:1.5px;"/></svg>