<?xml version="1.0" encoding="UTF-8"?><svg id="db" xmlns="http://www.w3.org/2000/svg" width="24" height="24" viewBox="0 0 24 24"><path d="M20.13,18.34c-.17,2.95-2.24,3.78-3.98,3.85-1.74,.08-6.57,.06-8.31,0s-3.77-.33-3.92-2.75c-.21-3.3-.14-8.25-.05-10.21,.06-1.22,.52-1.91,1.16-2.76s2.73-2.91,3.64-3.56c.91-.65,1.79-1.1,2.82-1.13s3.55,0,5.34,.03,3.21,.96,3.31,3.87c.12,1.89,.18,9.47,0,12.67Z" style="fill:none; stroke:#445d82; stroke-miterlimit:10; stroke-width:1.5px;"/><path d="M9.9,18.14c2.94,.05,6.3,.37,6.34-1.27,.03-.98-.07-2.52-3.42-2.2-.28,.03-.76-1.28-3.39-.82-2.19,.38-2.47,4.24,.47,4.29Z" style="fill:none; stroke:#445d82; stroke-linecap:round; stroke-linejoin:round; stroke-width:1.5px;"/><path d="M15.56,9.8c.71-.14,1.13,1.45-.1,1.45-.81,0-.9-1.24,0-1.42" style="fill:none; stroke:#445d82; stroke-linecap:round; stroke-linejoin:round; stroke-width:1.5px;"/><path d="M3.81,10.5c.09-.65-.07-2.43,2.17-2.29h2.14c1.18,0,2.14-.96,2.14-2.16V3.9c0-1.19,.96-2.16,2.14-2.16" style="fill:none; stroke:#445d82; stroke-linecap:round; stroke-linejoin:round; stroke-width:1.5px;"/></svg>