<?xml version="1.0" encoding="UTF-8"?><svg id="gt" xmlns="http://www.w3.org/2000/svg" width="24" height="24" viewBox="0 0 24 24"><path d="M18.18,17.58c-.12,.62-.98,1.31-2.19,1.49-1.64,.24-3.79,.16-5.21-.03" style="fill:none; stroke:#445d82; stroke-linecap:round; stroke-linejoin:round; stroke-width:1.5px;"/><path d="M18.18,17.58c.61-.07,1.09-.28,1.96-.65,1.82-.77,4,.95,2.7,1.89-1.44,1.05-2.75,2.24-3.94,3.08s-4.14,1.32-5.89,1.32c-2.42,0-5.62-2.09-10.52-2.09-1.99,0-2.12-3.59-1.17-3.96,5.26-1.99,8.82-1.33,10.72-1.2,2,.14,2.93-.09,4.09,.03,1.39,.15,2.1,.88,2.05,1.57Z" style="fill:none; stroke:#445d82; stroke-linecap:round; stroke-linejoin:round; stroke-width:1.5px;"/><path d="M13.71,8.69c0,2.98,3.31,2.68,4.98,3.85,.19,.13,.36,.38,.51,.7" style="fill:none; fill-rule:evenodd; stroke:#445d82; stroke-linecap:round; stroke-miterlimit:10; stroke-width:1.5px;"/><path d="M4.78,13.28c.23-.42,.46-.54,.77-.77,1.56-1.16,4.83-.68,4.83-3.65" style="fill:none; fill-rule:evenodd; stroke:#445d82; stroke-linecap:round; stroke-miterlimit:10; stroke-width:1.5px;"/><path d="M11.96,9.24c1.51,0,3.18-1.65,3.18-4.84,0-2.44-1.21-3.61-3.18-3.61s-3.18,1.18-3.18,3.61c0,3.19,1.67,4.84,3.18,4.84Z" style="fill:none; fill-rule:evenodd; stroke:#445d82; stroke-miterlimit:10; stroke-width:1.5px;"/></svg>