<?xml version="1.0" encoding="UTF-8"?><svg id="dr" xmlns="http://www.w3.org/2000/svg" width="24" height="24" viewBox="0 0 24 24"><path d="M17.29,23.25s-1.24-5.16-5.39-8.7c-5.42-4.63-5.66-6.92-5.66-6.92,0,0-1.5-.56-2.46-.83,0,0,.75,4.05,5.86,8.16,5.39,4.33,5.11,8.3,5.11,8.3h2.54Z" style="fill:none; stroke:#445d82; stroke-linecap:round; stroke-linejoin:round; stroke-width:1.5px;"/><path d="M6.81,23.24c-.01-2.24,1.91-4.48,1.91-4.48l1.49,1.47s-1.46,2.26-1.35,3h-2.05Z" style="fill:none; stroke:#445d82; stroke-linecap:round; stroke-linejoin:round; stroke-width:1.5px;"/><path d="M12.17,9.23c-.71,0-2.01-1.37-1.9-1.79,.26-.94,2.87-.83,3.39-.11,.27,.36-.75,1.9-1.47,1.9" style="fill:none; stroke:#445d82; stroke-linecap:round; stroke-linejoin:round; stroke-width:1.5px;"/><path d="M7.65,3c0,.92-2.02,1.17-1.85-.14,.12-.9,1.85-.72,1.85,.2" style="fill:none; stroke:#445d82; stroke-linecap:round; stroke-linejoin:round; stroke-width:1.5px;"/><path d="M11.03,1.38c.12-.9,1.74-.8,1.74,.12" style="fill:none; stroke:#445d82; stroke-linecap:round; stroke-linejoin:round; stroke-width:1.5px;"/><path d="M12.77,1.5c0,.92-1.92,1.25-1.74-.06" style="fill:none; stroke:#445d82; stroke-linecap:round; stroke-linejoin:round; stroke-width:1.5px;"/><path d="M17.98,3.07c0,.92-1.92,1.17-1.74-.14,.12-.9,1.74-.72,1.74,.2" style="fill:none; stroke:#445d82; stroke-linecap:round; stroke-linejoin:round; stroke-width:1.5px;"/><path d="M12.31,14.58c1.93-1.64,4.29-4.63,5.08-6.96" style="fill:none; stroke:#445d82; stroke-linecap:round; stroke-linejoin:round; stroke-width:1.5px;"/><path d="M17.4,7.63l2.84-.82s-3.23,6.44-6.65,9.19" style="fill:none; stroke:#445d82; stroke-linecap:round; stroke-linejoin:round; stroke-width:1.5px;"/></svg>