<?xml version="1.0" encoding="UTF-8"?><svg id="b" xmlns="http://www.w3.org/2000/svg" width="24" height="24" viewBox="0 0 24 24"><g id="c"><rect id="d" width="24" height="24" style="fill:#d45064; opacity:0;"/><path d="m10.73,22.25c-.86,0-3.41-.02-3.91-.04-1.74-.06-3.78-.38-3.93-2.8-.21-3.3-.14-8.24-.05-10.19.06-1.22.53-1.91,1.17-2.76.64-.85,2.74-2.9,3.65-3.56s1.79-1.1,2.82-1.13,3.56,0,5.35.03,3.21.96,3.32,3.86c.05.74.08,2.18.1,4.07" style="fill:none; stroke:#445d82; stroke-linecap:round; stroke-linejoin:round; stroke-width:1.5px;"/><path d="m2.81,10.46c.09-.65-.07-2.42,2.15-2.28h2.12c1.17,0,2.12-.96,2.12-2.15v-2.15c0-1.19.95-2.15,2.12-2.15" style="fill:none; stroke:#445d82; stroke-linecap:round; stroke-linejoin:round; stroke-width:1.5px;"/><path d="m12.96,14.03s-.46-.48-1.13-.48c-1.31,0-1.47,1.23-1.14,1.9.46.95,1.49.73,2.08,1.82.43.79-.19,2.15-1.31,1.96s-1.45-1.41-1.45-1.41" style="fill:none; stroke:#445d82; stroke-linecap:round; stroke-linejoin:round; stroke-width:1.5px;"/><path d="m5.97,13.55h1.49v4.48c0,.81-.38,1.22-1.14,1.22s-1.14-.81-1.14-.81" style="fill:none; stroke:#445d82; stroke-linecap:round; stroke-linejoin:round; stroke-width:1.5px;"/><path d="m16.63,13.55c1.19,0,1.58,1.1,1.58,2.76s-.4,2.94-1.38,2.94c-1.19,0-1.58-1.84-1.58-2.94s.4-2.76,1.38-2.76Z" style="fill:none; stroke:#445d82; stroke-linecap:round; stroke-linejoin:round; stroke-width:1.5px;"/><polyline points="20.5 19.25 20.5 13.5 23.24 19.2 23.24 13.5" style="fill:none; stroke:#445d82; stroke-linecap:round; stroke-linejoin:round; stroke-width:1.5px;"/></g></svg>