<svg xmlns="http://www.w3.org/2000/svg" width="24" height="24" viewBox="0 0 24 24"><defs><style>.cls-1{fill:#d93644;fill-opacity:0;}.cls-2,.cls-3{fill:none;stroke:#445d82;stroke-linecap:round;stroke-linejoin:round;}.cls-2{stroke-width:2px;}</style></defs><g id="_24_key-2" data-name="24_key"><rect id="Container" class="cls-1" width="24" height="24"/><path class="cls-2" d="M12.9,15.42a11.38,11.38,0,0,0,2.28.22A5.88,5.88,0,0,0,19,14.39"/><path class="cls-2" d="M21.37,11.68A6.69,6.69,0,0,0,22,8.82,6.67,6.67,0,0,0,15.18,2a6.86,6.86,0,0,0-7,8.33c0,.26.08.52.14.79"/><path class="cls-2" d="M6.13,22.09a6.07,6.07,0,0,1-3.45-.34c-1.28-.5-.5-4.45-.5-4.45L8,9.44"/><polyline class="cls-3" points="6.63 22.18 6.7 19.61 9.42 19.84 9.49 17.29 11.62 17.02 12.42 15.35"/><path class="cls-3" d="M15.27,10A2,2,0,1,1,17.7,8a2.33,2.33,0,0,1-.21.91"/><path class="cls-3" d="M16.12,8c5.05,5.71,4.12,12,2.91,12.33-.89.25-1.81-.53-2.42-2.17"/><path class="cls-3" d="M11.35,14.21a8.28,8.28,0,0,0,2,.78"/></g></svg>