<?xml version="1.0" encoding="UTF-8"?><svg id="d" xmlns="http://www.w3.org/2000/svg" width="24" height="24" viewBox="0 0 24 24"><rect id="e" width="24" height="24" style="fill:rgba(217,54,68,0);"/><g><path d="M21.24,7.91c0,.56-.53,1.3-1.36,2.07-.76,.7-1.76,1.43-2.81,2.08-1.93,1.18-3.99,2.07-4.99,2-.97-.06-3.03-.94-4.96-2.06-1.09-.63-2.13-1.35-2.92-2.05-.86-.75-1.43-1.46-1.43-2.04C2.77,5.86,10.1,1.77,12.08,1.77s9.16,4.09,9.16,6.14Z" style="fill:none; stroke:#445d82; stroke-linecap:round; stroke-linejoin:round; stroke-width:1.5px;"/><path d="M19.88,9.98c.82,.75,1.36,1.46,1.36,2.03s-.53,1.3-1.36,2.07c-2.15,1.99-6.26,4.18-7.8,4.07-1.53-.1-5.68-2.18-7.88-4.1-.86-.75-1.43-1.46-1.43-2.04s.56-1.3,1.43-2.06" style="fill:none; stroke:#445d82; stroke-linecap:round; stroke-linejoin:round; stroke-width:1.5px;"/><path d="M19.88,14.07c.82,.75,1.36,1.46,1.36,2.03,0,2.05-7.04,6.28-9.16,6.14S2.77,18.14,2.77,16.1c0-.57,.56-1.3,1.43-2.06" style="fill:none; stroke:#445d82; stroke-linecap:round; stroke-linejoin:round; stroke-width:1.5px;"/></g></svg>