<?xml version="1.0" encoding="UTF-8"?><svg id="bz" xmlns="http://www.w3.org/2000/svg" width="24" height="24" viewBox="0 0 24 24"><line x1="9.75" y1="6.75" x2="18.25" y2="6.75" style="fill:none; stroke:#445d82; stroke-linecap:round; stroke-linejoin:round; stroke-width:1.5px;"/><line x1="5.78" y1="6.75" x2="5.75" y2="6.75" style="fill:none; stroke:#445d82; stroke-linecap:round; stroke-linejoin:round; stroke-width:1.5px;"/><line x1="9.75" y1="11.75" x2="18.25" y2="11.75" style="fill:none; stroke:#445d82; stroke-linecap:round; stroke-linejoin:round; stroke-width:1.5px;"/><line x1="5.81" y1="11.75" x2="5.75" y2="11.75" style="fill:none; stroke:#445d82; stroke-linecap:round; stroke-linejoin:round; stroke-width:1.5px;"/><line x1="9.75" y1="16.75" x2="18.25" y2="16.75" style="fill:none; stroke:#445d82; stroke-linecap:round; stroke-linejoin:round; stroke-width:1.5px;"/><line x1="5.81" y1="16.75" x2="5.75" y2="16.75" style="fill:none; stroke:#445d82; stroke-linecap:round; stroke-linejoin:round; stroke-width:1.5px;"/><path d="M1.91,5.91c.24-2.38,.7-3.75,3.24-3.99,2.55-.24,12.59-.18,13.85,0s3.01,.57,3.15,3.15,.08,9.8,.03,12.17c-.08,4.44-.77,4.86-4.96,4.86,0,0-10.25,.23-12.08,.11-1.31-.09-3.11-.18-3.21-3.95-.04-1.53-.36-9.07-.03-12.34Z" style="fill:none; stroke:#445d82; stroke-linecap:round; stroke-linejoin:round; stroke-width:1.5px;"/></svg>