<?xml version="1.0" encoding="UTF-8"?><svg id="n" xmlns="http://www.w3.org/2000/svg" width="24" height="24" viewBox="0 0 24 24"><rect id="o" width="24" height="24" style="fill:none; opacity:0; stroke:#445d82; stroke-miterlimit:10;"/><path d="m9.77,3.81c.05-.11,11.41-.05,11.47,0" style="fill:none; stroke:#445d82; stroke-linecap:round; stroke-linejoin:round; stroke-width:1.5px;"/><path d="m9.77,11.81c.05-.11,11.41-.05,11.47,0" style="fill:none; stroke:#445d82; stroke-linecap:round; stroke-linejoin:round; stroke-width:1.5px;"/><path d="m9.77,19.81c.05-.11,11.41-.05,11.47,0" style="fill:none; stroke:#445d82; stroke-linecap:round; stroke-linejoin:round; stroke-width:1.5px;"/><path d="m2.77,4.08c.18,1.47,2.41,1.7,2.44-.04.03-1.9-2.63-1.5-2.44,0" style="fill:none; stroke:#445d82; stroke-linecap:round; stroke-linejoin:round; stroke-width:1.5px;"/><path d="m2.77,12.12c.18,1.49,2.42,1.71,2.45-.06.03-1.94-2.64-1.53-2.45,0" style="fill:none; stroke:#445d82; stroke-linecap:round; stroke-linejoin:round; stroke-width:1.5px;"/><path d="m2.77,20.11c.18,1.49,2.42,1.71,2.45-.06.03-1.94-2.64-1.53-2.45,0" style="fill:none; stroke:#445d82; stroke-linecap:round; stroke-linejoin:round; stroke-width:1.5px;"/></svg>