<?xml version="1.0" encoding="UTF-8"?><svg id="ep" xmlns="http://www.w3.org/2000/svg" width="24" height="24" viewBox="0 0 24 24"><path d="M18.43,3.76c2.97,4.01-.19,11.18-6.11,9.22-.39-.13-1.02,.72-1.28,1.05" style="fill:none; stroke:#445d82; stroke-linecap:round; stroke-linejoin:round; stroke-width:1.5px;"/><path d="M7.91,9.22C6.41,4.85,9.88,.97,13.99,1.27" style="fill:none; stroke:#445d82; stroke-linecap:round; stroke-linejoin:round; stroke-width:1.5px;"/><path d="M4.5,22.75s-2.69,.93-3.38,.15c-.77-.87-.13-3.75,.09-4.2s3.28-4.27,5.21-6.67" style="fill:none; stroke:#445d82; stroke-linecap:round; stroke-linejoin:round; stroke-width:1.5px;"/><polyline points="9 16.75 8.43 18.36 6.19 18.61 7.06 20.78 4.68 20.94 4.5 22.75" style="fill:none; stroke:#445d82; stroke-linecap:round; stroke-linejoin:round; stroke-width:1.5px;"/><circle cx="14.5" cy="6.5" r="1.75" style="fill:none; stroke:#445d82; stroke-linecap:round; stroke-linejoin:round; stroke-width:1.5px;"/><line x1="1.75" y1="3.75" x2="12.25" y2="22.23" style="fill:none; stroke:#445d82; stroke-linecap:round; stroke-linejoin:round; stroke-width:1.5px;"/><path d="M19.57,6.35c6.07-2.34,3.99-7.18-1.4-5.1-4.63,1.78-4.2,4.63-2.3,4.98" style="fill:none; stroke:#445d82; stroke-linecap:round; stroke-linejoin:round; stroke-width:1.5px;"/></svg>