<?xml version="1.0" encoding="UTF-8"?><svg id="er" xmlns="http://www.w3.org/2000/svg" width="24" height="24" viewBox="0 0 24 24"><path d="M6.25,23.25c1.26,.01,2.51-.93,1.8-2.92-.77-2.16-2.18-6.75-.8-7.58C13,9.25,9.83,.75,6.11,.75,2.17,.75-.75,9.25,5,12.75c1.37,.84-.03,5.42-.8,7.58-.71,1.99,.54,2.93,1.8,2.92" style="fill:none; stroke:#445d82; stroke-linecap:round; stroke-linejoin:round; stroke-width:1.5px;"/><path d="M17.01,.65c0,.57,0,5.08,.02,5.88" style="fill:none; stroke:#445d82; stroke-linecap:round; stroke-linejoin:round; stroke-width:1.5px;"/><path d="M19.01,.65c0,.57,0,5.08,.02,5.88" style="fill:none; stroke:#445d82; stroke-linecap:round; stroke-linejoin:round; stroke-width:1.5px;"/><path d="M21.22,1.07c1.17,4.02,2.22,10.77-1.98,11.68-1.1,.49-.47,4.93,.53,7.41,1.47,3.66-4.93,3.91-3.52,0,.76-2.1,1.99-6.95,.5-7.42-4.11-.93-3.15-7.65-1.99-11.67" style="fill:none; stroke:#445d82; stroke-linecap:round; stroke-linejoin:round; stroke-width:1.5px;"/></svg>