<?xml version="1.0" encoding="UTF-8"?><svg id="gu" xmlns="http://www.w3.org/2000/svg" width="24" height="24" viewBox="0 0 24 24"><g id="gv"><path d="M8.28,18.45c-.25-.18-.4-.38-.4-.63,0-4.95-2.88-6.77-2.88-10.49,0-8.76,14-8.76,14,0,0,3.71-2.88,5.53-2.88,10.49,0,.23-.13,.43-.36,.6" style="fill:none; stroke:#445d82; stroke-linecap:round; stroke-linejoin:round; stroke-width:1.5px;"/><path d="M15.88,17.93c-1.41,.94-5.92,.95-7.36,.02" style="fill:none; stroke:#445d82; stroke-linecap:round; stroke-linejoin:round; stroke-width:1.5px;"/><path d="M8.29,18.49c0,1,.18,2.56,.41,3.35,.13,.44,1.1,1.41,3.29,1.41s3.18-.96,3.29-1.43c.19-.77,.46-2.37,.43-3.32" style="fill:none; stroke:#445d82; stroke-linecap:round; stroke-linejoin:round; stroke-width:1.5px;"/></g><path d="M10.63,4.36c-1.33,.24-2.2,1.69-2.14,3.04" style="fill:none; stroke:#445d82; stroke-linecap:round; stroke-linejoin:round; stroke-width:1.5px;"/></svg>