<?xml version="1.0" encoding="UTF-8"?><svg id="bs" xmlns="http://www.w3.org/2000/svg" width="24" height="24" viewBox="0 0 24 24"><path d="M22.74,3.96c.56,4.22,.57,12.62,.44,16.12-.02,.64-.55,1.08-1.36,1.06s-5.91-.21-7.17-.18c-.81,.02-1.12,.31-1.2,.85-.09,.59-3.12,.58-3.16,0s-.44-.86-1.19-.86c-1.24-.01-6.16,.18-6.96,.2s-1.33-.43-1.36-1.06c-.14-3.36,.09-12.59,.55-16.69" style="fill:none; stroke:#445d82; stroke-linecap:round; stroke-linejoin:round; stroke-width:1.5px;"/><path d="M11.87,3.05c-.84-.8-1.79-1.29-3.23-1.29-1.4,0-2.77,.44-4.59,.39-.54-.01-2.07,.33-2.2,1.05" style="fill:none; stroke:#445d82; stroke-linecap:round; stroke-linejoin:round; stroke-width:1.5px;"/><path d="M11.9,3.05c.84-.8,1.79-1.29,3.22-1.29,1.4,0,2.84,.44,4.65,.39,.86-.02,2.32,.67,2.5,1.73" style="fill:none; stroke:#445d82; stroke-linecap:round; stroke-linejoin:round; stroke-width:1.5px;"/><path d="M11.89,3.22c-.45,6.72,.21,13.04-.14,18.79" style="fill:none; stroke:#445d82; stroke-linecap:round; stroke-linejoin:round; stroke-width:1.5px;"/><path d="M3.75,7.2c.46-.11,2.34,.06,3.19,.06,.9,0,1.76-.27,2.31,0" style="fill:none; stroke:#445d82; stroke-linecap:round; stroke-linejoin:round; stroke-width:1.5px;"/><path d="M3.75,10.8c1.37,.43,3.9-.25,5.5,.01" style="fill:none; stroke:#445d82; stroke-linecap:round; stroke-linejoin:round; stroke-width:1.5px;"/><path d="M14.75,7.2c.48-.11,.81,.06,1.7,.06,.95,0,3.22-.27,3.8,0" style="fill:none; stroke:#445d82; stroke-linecap:round; stroke-linejoin:round; stroke-width:1.5px;"/><path d="M14.75,10.8c1.37,.43,3.9-.25,5.5,.01" style="fill:none; stroke:#445d82; stroke-linecap:round; stroke-linejoin:round; stroke-width:1.5px;"/><path d="M3.75,14.09c1.09,.24,4.97,.06,5.5,.16" style="fill:none; stroke:#445d82; stroke-linecap:round; stroke-linejoin:round; stroke-width:1.5px;"/></svg>