<svg width="24" height="25" viewBox="0 0 24 25" fill="none" xmlns="http://www.w3.org/2000/svg">
<path d="M7.2207 9.98269C6.9607 7.00269 7.0207 4.36269 8.1707 2.88269C10.0907 0.422687 14.4807 0.322687 16.5007 2.88269C17.6207 4.29269 17.5207 6.77269 17.5407 9.96269M5.7607 10.1827C8.4907 9.99269 14.5007 9.87269 18.6007 10.1327C20.0707 10.2227 21.1307 11.1127 21.3507 12.4727C21.7707 14.9627 21.4907 17.7627 21.3007 20.4127C21.1807 22.1127 20.2707 23.0127 18.4207 23.2327C16.2307 23.5027 9.8107 23.4527 6.4807 23.4327C4.2707 23.4227 3.4207 22.4427 3.3407 21.8227C2.9307 18.5527 2.8707 15.8027 3.2707 12.4827C3.4007 11.3627 4.1807 10.2827 5.7607 10.1727V10.1827ZM13.7607 17.3727C13.5207 17.5427 13.8507 18.9527 13.6107 19.2227C13.3707 19.4927 11.3607 19.5327 11.0707 19.3427C10.8707 19.2127 11.1707 17.6327 10.8507 17.4027C9.3307 16.3327 10.2307 14.0727 12.3807 13.9827C14.5707 13.8927 15.2507 16.3127 13.7707 17.3627L13.7607 17.3727Z" stroke="#494A4A" stroke-width="1.5" stroke-linecap="round" stroke-linejoin="round"/>
</svg>
