<svg width="24" height="24" viewBox="0 0 24 24" fill="none" xmlns="http://www.w3.org/2000/svg">
<path d="M3.93003 15.82C3.41003 15.82 3.20003 15.4 3.14003 14.94C2.81003 12.11 2.65003 6.94998 2.85003 4.72998C2.96003 3.53998 3.43003 3.20998 4.42003 3.07998C7.83003 2.63998 15.61 2.68998 19.34 2.93998C20.57 3.01998 21 3.40998 21.15 4.84998C21.36 6.87998 21.18 11.98 20.82 14.82C20.77 15.22 20.64 15.82 20.19 15.82M2.23003 17.94C2.00003 18.45 2.12003 18.85 2.58003 18.95C5.74003 19.65 17.97 19.69 21.3 18.9C21.77 18.79 21.78 18.23 21.54 17.63M20.73 16.14C21.22 16.79 21.88 18.24 22.11 18.91C22.23 19.25 22.26 20.05 22.26 20.39C22.26 21.18 22.09 21.55 21.5 21.71C18.65 22.49 4.81003 22.36 2.46003 21.63C2.05003 21.5 1.80003 21.03 1.76003 20.4C1.73003 19.89 1.74003 19.28 1.80003 18.95C1.88003 18.53 2.73003 16.71 3.19003 16.09C3.34003 15.89 3.83003 15.85 4.26003 15.83C6.28003 15.75 16.56 15.76 19.67 15.83C20.14 15.84 20.44 15.77 20.72 16.14H20.73Z" stroke="#494A4A" stroke-width="1.5" stroke-linecap="round" stroke-linejoin="round"/>
</svg>
