<svg width="24" height="24" viewBox="0 0 24 24" fill="none" xmlns="http://www.w3.org/2000/svg">
<path d="M17.6203 1.65687C17.2541 1.46339 16.8003 1.60346 16.6068 1.96971C16.4134 2.33596 16.5534 2.78971 16.9197 2.98318L17.6203 1.65687ZM7.20909 2.89899C7.57855 2.71172 7.72624 2.26039 7.53897 1.89093C7.35169 1.52147 6.90037 1.37378 6.53091 1.56106L7.20909 2.89899ZM10.51 12.62L10.0492 13.2118L10.0523 13.2142L10.51 12.62ZM16.9197 2.98318C20.2264 4.72995 22.47 8.17201 22.47 12.13H23.97C23.97 7.58804 21.3936 3.6501 17.6203 1.65687L16.9197 2.98318ZM22.47 12.13C22.47 17.8475 17.7841 22.49 11.98 22.49V23.99C18.5959 23.99 23.97 18.6925 23.97 12.13H22.47ZM11.98 22.49C6.17676 22.49 1.5 17.8484 1.5 12.13H0C0 18.6917 5.36324 23.99 11.98 23.99V22.49ZM1.5 12.13C1.5 8.10684 3.81821 4.61778 7.20909 2.89899L6.53091 1.56106C2.66179 3.52227 0 7.51321 0 12.13H1.5ZM10.9707 12.0282C10.9937 12.0461 10.9074 11.9741 10.8053 11.625C10.7139 11.3126 10.6404 10.887 10.5883 10.3666C10.4846 9.32989 10.4757 8.01794 10.5282 6.7024C10.5805 5.39028 10.6928 4.09921 10.8245 3.1117C10.8906 2.61619 10.9599 2.21008 11.0259 1.92102C11.0592 1.77499 11.0881 1.67488 11.1098 1.61432C11.1207 1.58399 11.1253 1.57647 11.1214 1.58379C11.1192 1.58806 11.1118 1.60172 11.0983 1.62097C11.0855 1.63921 11.0603 1.6726 11.02 1.70998L10 0.610074C9.89281 0.709512 9.82843 0.819806 9.79384 0.885567C9.7546 0.96018 9.72333 1.03711 9.69813 1.10727C9.64769 1.24771 9.60329 1.41279 9.56346 1.58731C9.48314 1.93934 9.40673 2.39574 9.33768 2.91335C9.19911 3.95209 9.08328 5.28977 9.02935 6.64265C8.97554 7.99211 8.98227 9.38141 9.09576 10.5159C9.1523 11.0812 9.23771 11.6087 9.36565 12.0461C9.48288 12.4469 9.67626 12.9214 10.0493 13.2118L10.9707 12.0282ZM11.02 1.70998C11.0169 1.71281 11.0358 1.69527 11.0935 1.66803C11.149 1.64185 11.225 1.61391 11.3216 1.58835C11.5161 1.53687 11.7569 1.50481 12.0059 1.5012C12.2561 1.49756 12.4864 1.52305 12.6632 1.56926C12.8584 1.62025 12.9027 1.67341 12.8868 1.65528L14.0132 0.664773C13.7423 0.356636 13.3604 0.201049 13.0424 0.117976C12.7061 0.0301218 12.3364 -0.0037626 11.9841 0.00135416C11.6306 0.0064885 11.2664 0.0513009 10.9378 0.138265C10.627 0.220511 10.2687 0.36096 10 0.610074L11.02 1.70998ZM12.8868 1.65528C12.8081 1.56583 12.8035 1.50449 12.8386 1.6098C12.8618 1.67957 12.8911 1.78766 12.9244 1.93818C12.9904 2.23688 13.0608 2.65056 13.1287 3.15015C13.2642 4.1466 13.3842 5.44096 13.4433 6.75129C13.5025 8.06575 13.4992 9.37068 13.3957 10.3969C13.3437 10.9122 13.269 11.3296 13.176 11.6328C13.072 11.9715 12.9863 12.0293 13.0168 12.0078L13.8832 13.2323C14.2812 12.9507 14.487 12.4735 14.61 12.0728C14.7438 11.6365 14.8313 11.11 14.8881 10.5475C15.002 9.41812 15.0025 8.0318 14.9417 6.68376C14.8808 5.33159 14.757 3.9922 14.615 2.94803C14.5442 2.4273 14.4674 1.96896 14.389 1.61445C14.3501 1.43837 14.3079 1.27456 14.2618 1.13596C14.2275 1.0329 14.1556 0.826717 14.0132 0.664773L12.8868 1.65528ZM13.0168 12.0078C12.3681 12.4667 12.0058 12.506 11.8015 12.4799C11.5663 12.4497 11.3439 12.3157 10.9677 12.0259L10.0523 13.2142C10.4161 13.4944 10.9287 13.8803 11.611 13.9677C12.3242 14.059 13.0619 13.8133 13.8832 13.2323L13.0168 12.0078Z" fill="#494A4A"/>
</svg>
