<?xml version="1.0" encoding="UTF-8"?><svg id="c" xmlns="http://www.w3.org/2000/svg" width="24" height="24" viewBox="0 0 24 24"><path id="d" d="M7.76,7.72c.01-1.11,.03-2.07,.05-2.81,.05-1.71,.51-3.1,2.97-3.1s6.84-.1,8.4,0c2.32,.14,2.89,1.4,2.97,3.1,.1,2.09,.14,6.61,0,8.16s-.52,3.01-2.97,3.1c-.93,.04-1.91,.06-2.86,.07" style="fill:none; stroke:#445d82; stroke-linecap:round; stroke-linejoin:round; stroke-width:1.5px;"/><path id="e" d="M5.02,7.8c2.63,0,6.27-.1,7.95,0,2.48,.15,3.09,1.43,3.18,3.19,.11,2.15,.15,6.37,0,7.97s-.56,3.09-3.18,3.19c-2.89,.11-6.26,.12-7.95,0-1.37-.1-3.06,.02-3.18-3.19s-.05-6.21,0-7.97,.55-3.19,3.18-3.19Z" style="fill:none; stroke:#445d82; stroke-linecap:round; stroke-linejoin:round; stroke-width:1.5px;"/></svg>