<?xml version="1.0" encoding="UTF-8"?><svg id="cd" xmlns="http://www.w3.org/2000/svg" width="24" height="24" viewBox="0 0 24 24"><path d="M22.69,8.88c.92-1.44,.68-5.54-.66-6.83-1.1-1.05-3.82,1.19-3.82,1.19-5.52-2.97-11.41-.24-12.31,.21,0,0-3.34-2.14-4.47-1.53-1.13,.62-.86,4.19,.87,5.55" style="fill:none; stroke:#445d82; stroke-linecap:round; stroke-linejoin:round; stroke-width:1.5px;"/><path d="M1.59,6.97c-.79,1.31-1.36,6.48,0,10.29" style="fill:none; stroke:#445d82; stroke-linecap:round; stroke-linejoin:round; stroke-width:1.5px;"/><path d="M3.06,16.04s-2.26,.75-2.26,4.51c0,0,2.52,.69,3.93-.25,0,0,7.14,2.08,12.41,.06" style="fill:none; stroke:#445d82; stroke-linecap:round; stroke-linejoin:round; stroke-width:1.5px;"/><path d="M16.85,20.62s4.31-.09,5.6-.1c1.29-.02,.21-4.3-.28-5.22,0,0,1.52-2.43,.67-5.9" style="fill:none; stroke:#445d82; stroke-linecap:round; stroke-linejoin:round; stroke-width:1.5px;"/><path d="M16.44,2.5s1.39,.39,3.06,1.7" style="fill:none; stroke:#445d82; stroke-linecap:round; stroke-linejoin:round; stroke-width:1.5px;"/><path d="M19.12,18.8c-.73,.87-2.12,1.39-2.62,1.7" style="fill:none; stroke:#445d82; stroke-linecap:round; stroke-linejoin:round; stroke-width:1.5px;"/><path d="M9.25,2.27s-3.06,.9-4.28,1.98" style="fill:none; stroke:#445d82; stroke-linecap:round; stroke-linejoin:round; stroke-width:1.5px;"/></svg>