<?xml version="1.0" encoding="UTF-8"?><svg id="b" xmlns="http://www.w3.org/2000/svg" width="24" height="24" viewBox="0 0 24 24"><g id="c"><rect id="d" width="24" height="24" style="fill:#dd4d59; opacity:0;"/><path d="m16.9,7.53c.43.43,1.27.03.72-.62-.39-.46-1.2.14-.72.62Z" style="fill:none; stroke:#494a4a; stroke-linecap:round; stroke-linejoin:round; stroke-width:1.5px;"/><path d="m10.84,7.54c.27.54,1.39-.09.72-.62-.49-.39-1.03,0-.72.62Z" style="fill:none; stroke:#494a4a; stroke-linecap:round; stroke-linejoin:round; stroke-width:1.5px;"/><path d="m5.81,11.99c.27.54,1.16.16.81-.61-.18-.39-1.12-.01-.81.61Z" style="fill:none; stroke:#494a4a; stroke-linecap:round; stroke-linejoin:round; stroke-width:1.5px;"/><path d="m10.86,11.99c.27.54,1.16.16.81-.61-.18-.39-1.12-.01-.81.61Z" style="fill:none; stroke:#494a4a; stroke-linecap:round; stroke-linejoin:round; stroke-width:1.5px;"/><path d="m5.86,16.55c.27.54,1.39-.35.62-.72-.55-.26-.93.1-.62.72Z" style="fill:none; stroke:#494a4a; stroke-linecap:round; stroke-linejoin:round; stroke-width:1.5px;"/><path id="e" d="m9.25,22.25c-1.07-.02-2.15-.05-2.87-.1-1.94-.14-4.33.02-4.5-4.51-.16-4.53-.07-8.78,0-11.27S2.66,1.86,6.38,1.86s8.87-.23,11.24,0,4.37,2.03,4.5,4.51c.03.6.06,1.58.08,2.63" style="fill:none; stroke:#494a4a; stroke-linecap:round; stroke-linejoin:round; stroke-width:1.5px;"/><line id="f" x1="7.25" y1=".75" x2="7.25" y2="3.75" style="fill:none; stroke:#494a4a; stroke-linecap:round; stroke-linejoin:round; stroke-width:1.5px;"/><line id="g" x1="16.25" y1=".75" x2="16.25" y2="3.75" style="fill:none; stroke:#494a4a; stroke-linecap:round; stroke-linejoin:round; stroke-width:1.5px;"/><line x1="20.26" y1="17.5" x2="14.76" y2="17.5" style="fill:none; stroke:#494a4a; stroke-linecap:round; stroke-linejoin:round; stroke-width:1.5px;"/><circle cx="17.51" cy="17.49" r="5.74" style="fill:none; stroke:#494a4a; stroke-linecap:round; stroke-linejoin:round; stroke-width:1.5px;"/></g></svg>