<?xml version="1.0" encoding="UTF-8"?><svg id="eb" xmlns="http://www.w3.org/2000/svg" width="24" height="24" viewBox="0 0 24 24"><path d="M6.4,13.28c1.76,.08,3.04-2.51,4.33-3.61,2.22-1.89,4.75-3.72,4.47-7.9-.08-1.22,2.41-1.36,3.07-.25,2.22,3.67-.35,7.1-.6,9.11" style="fill:none; stroke:#445d82; stroke-linecap:round; stroke-linejoin:round; stroke-width:1.5px;"/><path d="M16.37,10.69c2.28,.25,4.06-.06,4.91-.07,1.67,0,1.99,2.51,1.22,3.05" style="fill:none; stroke:#445d82; stroke-linecap:round; stroke-linejoin:round; stroke-width:1.5px;"/><path d="M22.5,13.68c1.03,.18,.93,2.68,.04,3.28" style="fill:none; stroke:#445d82; stroke-linecap:round; stroke-linejoin:round; stroke-width:1.5px;"/><path d="M22.55,16.95c.78,.08,.5,3.18-1,3.23" style="fill:none; stroke:#445d82; stroke-linecap:round; stroke-linejoin:round; stroke-width:1.5px;"/><path d="M21.55,20.18c.36,.28,.43,1.89-1.47,2.41-7.76,2.1-11.71-1.52-14.17-1.31" style="fill:none; stroke:#445d82; stroke-linecap:round; stroke-linejoin:round; stroke-width:1.5px;"/><path d="M5.43,12.4c-.57-.55-3.86-.5-4.22,.27-.71,1.55-.51,8.68,.09,9.22,.75,.68,3.34,.44,4.01,0,.35-.23,.8-8.84,.12-9.49Z" style="fill:none; stroke:#445d82; stroke-linecap:round; stroke-linejoin:round; stroke-width:1.5px;"/></svg>