<?xml version="1.0" encoding="UTF-8"?><svg id="hl" xmlns="http://www.w3.org/2000/svg" width="24" height="24" viewBox="0 0 24 24"><g id="hm"><path d="M2.35,2.88c2.45-1.61,14.18-1.06,16.38-.7,2.36,.38,4.16,1.62,4.44,4.41,.14,1.39,.07,6.58-.38,8.56-.58,2.53-1.63,3.64-4.2,3.94-1.82,.22-5.51-.04-6.79,.43-.84,.31-1.97,2.72-2.82,2.73-1.31,.02-1.46-1.7-2.43-2.71s-2.18-.78-3.22-1.2c-1.43-.56-1.95-1.84-2.27-3.92S.24,4.27,2.35,2.88Z" style="fill:none; stroke:#445d82; stroke-linecap:round; stroke-linejoin:round; stroke-width:1.5px;"/><path d="M6.29,10.9c.57-1.12-.76-1.15-.97-.78-.57,1.04,.69,1.31,.96,.78" style="fill:none; stroke:#445d82; stroke-linecap:round; stroke-linejoin:round; stroke-width:1.5px;"/><path d="M12.49,10.9c.57-1.12-.76-1.15-.97-.78-.57,1.04,.69,1.31,.96,.78" style="fill:none; stroke:#445d82; stroke-linecap:round; stroke-linejoin:round; stroke-width:1.5px;"/><path d="M18.74,10.9c.57-1.12-.76-1.15-.96-.78-.57,1.04,.69,1.31,.96,.78" style="fill:none; stroke:#445d82; stroke-linecap:round; stroke-linejoin:round; stroke-width:1.5px;"/></g></svg>