<?xml version="1.0" encoding="UTF-8"?><svg id="av" xmlns="http://www.w3.org/2000/svg" width="24" height="24" viewBox="0 0 24 24"><g><path d="M10.99,23.22c-3.11-.1-10.23-.76-10.23-1.9,0-5.62,8.24-2.22,8.24-9.07" style="fill:none; fill-rule:evenodd; stroke:#445d82; stroke-linecap:round; stroke-miterlimit:10; stroke-width:1.5px;"/><path d="M15.92,9.01c.23-.84,.37-1.81,.37-2.9,0-3.59-1.83-5.33-4.79-5.33s-4.79,1.74-4.79,5.33,1.4,5.77,3.07,6.68" style="fill:none; fill-rule:evenodd; stroke:#445d82; stroke-linecap:round; stroke-linejoin:round; stroke-width:1.5px;"/></g><path d="M17.25,17.75l-.32-3c-.06,.42-.18,2.75-.18,3.5" style="fill:none; stroke:#445d82; stroke-linecap:round; stroke-linejoin:round; stroke-width:1.5px;"/><path d="M17.5,18l2.75,.17c-.93,.02-3.06,.34-3.5,.33" style="fill:none; stroke:#445d82; stroke-linecap:round; stroke-linejoin:round; stroke-width:1.5px;"/><circle cx="17.5" cy="17.5" r="5.75" style="fill:none; stroke:#445d82; stroke-linecap:round; stroke-linejoin:round; stroke-width:1.5px;"/></svg>