<?xml version="1.0" encoding="UTF-8"?><svg id="eh" xmlns="http://www.w3.org/2000/svg" width="24" height="24" viewBox="0 0 24 24"><path d="M14.57,4.05c-3.02-.08-6.63-.08-8.56,.14-2.74,.31-3.86,1.9-4.08,4.08s-.25,5.52,0,7.75,2.08,3.73,4.08,4.08c.88,.15,9.01,.27,10.92,.1,1.91-.17,4.97-.26,5.23-3.23,.14-1.66,.08-4.78-.02-6.75" style="fill:none; stroke:#445d82; stroke-linecap:round; stroke-linejoin:round; stroke-width:1.5px;"/><path d="M3.35,5.4s6.2,6.85,8.61,6.85c.99,0,3-1.26,4.54-2.59" style="fill:none; stroke:#445d82; stroke-linecap:round; stroke-linejoin:round; stroke-width:1.5px;"/><path d="M23.24,4.38c0,1.45-.68,2.62-2.73,2.62-1.51,0-2.52-.46-2.73-2.62-.17-1.74,1.23-2.55,2.73-2.62,1.92-.09,2.73,1.17,2.73,2.62Z" style="fill:none; stroke:#445d82; stroke-linecap:round; stroke-linejoin:round; stroke-width:1.5px;"/></svg>