<?xml version="1.0" encoding="UTF-8"?><svg id="j" xmlns="http://www.w3.org/2000/svg" width="24" height="24" viewBox="0 0 24 24"><path d="M9.43,16.73c.19,4.14-7.36,5.19-7.68,0l-.13-1.64" style="fill:none; stroke:#445d82; stroke-linecap:round; stroke-linejoin:round; stroke-width:1.5px;"/><path d="M11.24,15.5c-.24-4-1.73-4.79-5.24-4.75-3.51,.04-5.47,3.47-5.23,4.1,.11,.3,2.57-.1,5.52-.12,1,0,2.45,1.53,3.38,1.51,2.16-.06,6.02,.1,6.09,.01" style="fill:none; stroke:#445d82; stroke-linecap:round; stroke-linejoin:round; stroke-width:1.5px;"/><path d="M13.52,5.04s2.81-.63,3.19,0,2.38,7.96,2.38,7.96" style="fill:none; stroke:#445d82; stroke-linecap:round; stroke-linejoin:round; stroke-width:1.5px;"/><path d="M10.5,9.75c-1,0-6.62,0-8.75,.25" style="fill:none; stroke:#445d82; stroke-linecap:round; stroke-linejoin:round; stroke-width:1.5px;"/><line x1="19.5" y1="5.75" x2="19" y2="7.75" style="fill:none; stroke:#445d82; stroke-linecap:round; stroke-linejoin:round; stroke-width:1.5px;"/><path d="M23.1,16.68c0,4.4-7.36,5.08-7.36,0,0-1.26,.45-2.17,1.14-2.75s1.62-.85,2.55-.81c1.84,.08,3.68,1.35,3.68,3.56Z" style="fill:none; stroke:#445d82; stroke-linecap:round; stroke-linejoin:round; stroke-width:1.5px;"/></svg>