<?xml version="1.0" encoding="UTF-8"?><svg id="l" xmlns="http://www.w3.org/2000/svg" width="24" height="24" viewBox="0 0 24 24"><path d="M5.24,11.29S.77,8.18,.75,7.1s5.69-.82,5.69-.82c0,0,2.13-5.44,2.99-5.45,.86,0,3.39,5.37,3.39,5.37,0,0,5.63-.53,5.39,.95s-4.47,4.18-4.47,4.18c0,0,1.63,5.1,1.28,5.81s-5.51-2.7-5.51-2.7c0,0-4.92,3.71-5.67,2.71-.75-1,1.4-5.87,1.4-5.87Z" style="fill:none; stroke:#445d82; stroke-linecap:round; stroke-linejoin:round; stroke-width:1.5px;"/><path d="M19.08,11.73c1.63-.03,4.22,.08,4.08,1.14-.2,1.53-4.35,4.25-4.35,4.25,0,0,1.69,5.31,1.37,6.03s-5.49-2.88-5.49-2.88c0,0-4.8,3.76-5.55,2.71-.33-.46-.12-1.69,.21-2.91" style="fill:none; stroke:#445d82; stroke-linecap:round; stroke-linejoin:round; stroke-width:1.5px;"/></svg>