<?xml version="1.0" encoding="UTF-8"?><svg id="fq" xmlns="http://www.w3.org/2000/svg" width="24" height="24" viewBox="0 0 24 24"><path d="M2.08,15.04c-.63,.51-1.05,1.13-1.19,1.84-.12,.64-.18,2.48,0,2.85,.98,2.14,4.58,2.85,8.28,2.95" style="fill:none; stroke:#445d82; stroke-linecap:round; stroke-linejoin:round; stroke-width:1.5px;"/><path d="M8.31,19.46c-4.66-.28-8.2-2.13-6.78-3.91" style="fill:none; fill-rule:evenodd; stroke:#445d82; stroke-linecap:round; stroke-linejoin:round; stroke-width:1.5px;"/><path d="M2.06,8.82c-.62,.51-1.03,1.12-1.17,1.83-.12,.64-.17,2.5,0,2.87,.83,1.81,3.51,2.46,6.55,2.81" style="fill:none; stroke:#445d82; stroke-linecap:round; stroke-linejoin:round; stroke-width:1.5px;"/><path d="M8.57,13c-4.64-.28-8.17-2.14-6.76-3.91" style="fill:none; fill-rule:evenodd; stroke:#445d82; stroke-linecap:round; stroke-linejoin:round; stroke-width:1.5px;"/><path d="M17.24,7.96c.35-.35,.66-.48,.85-.99,.24-.63,.11-2.1,0-2.63C17.09-.43,1.85-.47,.88,4.34c-.12,.6-.11,2.59,.06,2.94,1.05,2.18,5.09,2.84,9.04,2.76" style="fill:none; stroke:#445d82; stroke-linecap:round; stroke-linejoin:round; stroke-width:1.5px;"/><path d="M17.36,3.08c1.01,1.41-2.64,3.7-7.85,3.7S.02,4.88,1.55,3.08" style="fill:none; fill-rule:evenodd; stroke:#445d82; stroke-linecap:round; stroke-linejoin:round; stroke-width:1.5px;"/><g><ellipse cx="17.02" cy="17" rx="6.26" ry="6.24" style="fill:none; stroke:#445d82; stroke-linecap:round; stroke-linejoin:round; stroke-width:1.5px;"/><path d="M18.41,14.97c-2.51-1.63-3.84,1.73-1.48,1.83,2.68,.12,2.37,3.6-1.29,2.28" style="fill:none; stroke:#445d82; stroke-linecap:round; stroke-linejoin:round; stroke-width:1.5px;"/></g><line x1="17.11" y1="13.61" x2="17.11" y2="14.48" style="fill:none; stroke:#445d82; stroke-linecap:round; stroke-linejoin:round; stroke-width:1.5px;"/><line x1="17.11" y1="19.54" x2="17.11" y2="20.41" style="fill:none; stroke:#445d82; stroke-linecap:round; stroke-linejoin:round; stroke-width:1.5px;"/></svg>