<?xml version="1.0" encoding="UTF-8"?><svg id="cb" xmlns="http://www.w3.org/2000/svg" width="24" height="24" viewBox="0 0 24 24"><path d="M22.23,6.02c0,.75-.02,1.45-.02,1.92-.04,2.03-.35,2.23-2.27,2.23,0,0-3.76,.11-4.59,.05-.6-.04-1.43-.08-1.47-1.81-.02-.7-.16-3.22-.01-4.71,.11-1.09,.32-1.72,1.48-1.83,.54-.05,1.61-.07,2.67-.07" style="fill:none; stroke:#445d82; stroke-linecap:round; stroke-linejoin:round; stroke-width:1.5px;"/><path d="M1.86,3.69c.11-1.09,.32-1.71,1.48-1.82,1.17-.11,4.83-.08,5.4,0s1.38,.26,1.44,1.44,.03,3.55,.01,4.63c-.04,2.03-.35,2.22-2.27,2.22,0,0-3.76,.11-4.59,.05-.6-.04-1.43-.08-1.47-1.81-.02-.7-.16-3.22-.01-4.71Z" style="fill:none; stroke:#445d82; stroke-linecap:round; stroke-linejoin:round; stroke-width:1.5px;"/><path d="M1.86,15.69c.11-1.09,.32-1.71,1.48-1.82,1.17-.11,4.83-.08,5.4,0s1.38,.26,1.44,1.44,.03,3.55,.01,4.63c-.04,2.03-.35,2.22-2.27,2.22,0,0-3.76,.11-4.59,.05-.6-.04-1.43-.08-1.47-1.81-.02-.7-.16-3.22-.01-4.71Z" style="fill:none; stroke:#445d82; stroke-linecap:round; stroke-linejoin:round; stroke-width:1.5px;"/><path d="M16.77,5.12c.45,.48,1.14,1.15,1.48,1.15,.53,0,3.95-5.46,3.95-5.46" style="fill:none; stroke:#445d82; stroke-linecap:round; stroke-linejoin:round; stroke-width:1.5px;"/><path d="M22.23,18.02c0,.75-.02,1.45-.02,1.92-.04,2.03-.35,2.23-2.27,2.23,0,0-3.76,.11-4.59,.05-.6-.04-1.43-.08-1.47-1.81-.02-.7-.16-3.22-.01-4.71,.11-1.09,.32-1.72,1.48-1.83,.54-.05,1.61-.07,2.67-.07" style="fill:none; stroke:#445d82; stroke-linecap:round; stroke-linejoin:round; stroke-width:1.5px;"/><path d="M16.73,17.08c.45,.47,1.15,1.15,1.5,1.15,.53,0,3.97-5.43,3.97-5.43" style="fill:none; stroke:#445d82; stroke-linecap:round; stroke-linejoin:round; stroke-width:1.5px;"/></svg>