<?xml version="1.0" encoding="UTF-8"?><svg id="ha" xmlns="http://www.w3.org/2000/svg" width="24" height="24" viewBox="0 0 24 24"><path d="M12.69,5.7c2.46-2.34,4.51-4.22,5.08-4.61,2.23-1.53,6.7,2.82,5.13,5.13-.46,.68-3.09,3.53-6.1,6.64" style="fill:none; stroke:#445d82; stroke-linecap:round; stroke-linejoin:round; stroke-width:1.5px;"/><path d="M11.59,18.12c-2.28,2.23-4.15,3.92-4.68,4.1-1.57,.53-5.65,1.28-6.05,.94s.41-4.52,.92-6.07c.21-.66,2.85-3.46,5.94-6.54" style="fill:none; stroke:#445d82; stroke-linecap:round; stroke-linejoin:round; stroke-width:1.5px;"/><polyline points="14.7 4.17 17.13 6.61 19.83 9.3" style="fill:none; stroke:#445d82; stroke-linecap:round; stroke-linejoin:round; stroke-width:1.5px;"/><path d="M1.78,17.09s2.05,1.03,3.08,2.05c1.03,1.03,2.05,3.08,2.05,3.08" style="fill:none; stroke:#445d82; stroke-linecap:round; stroke-linejoin:round; stroke-width:1.5px;"/><line x1="6.95" y1="2.06" x2="17.17" y2="21.19" style="fill:none; stroke:#445d82; stroke-linecap:round; stroke-linejoin:round; stroke-width:1.5px;"/></svg>