<?xml version="1.0" encoding="UTF-8"?><svg id="fz" xmlns="http://www.w3.org/2000/svg" width="24" height="24" viewBox="0 0 24 24"><path d="M22.19,13.63c-.09,.65-.32,2.17-2.06,2.15h-2.19c-1.21,0-2.19,.96-2.19,2.15v2.15c0,1.19-.98,2.14-2.19,2.14" style="fill:none; stroke:#445d82; stroke-linecap:round; stroke-linejoin:round; stroke-width:1.5px;"/><path d="M1.84,4.94c.14-2.4,1.46-3.17,3.23-3.17h13.95c1.78,0,3.13,.84,3.18,3.17,.07,3.51,.02,10.81,0,10.95,0,0,0,3.32-1.14,4.71-1.54,1.9-4.14,1.63-5,1.63H5.08c-1.78,0-3.19-.97-3.23-3.16-.03-1.54-.15-11.52,0-14.12Z" style="fill:none; stroke:#445d82; stroke-miterlimit:10; stroke-width:1.5px;"/><path d="M5.75,6.78h12.5" style="fill:none; stroke:#445d82; stroke-linecap:round; stroke-linejoin:round; stroke-width:1.5px;"/><path d="M5.81,10.78h12.46" style="fill:none; stroke:#445d82; stroke-linecap:round; stroke-linejoin:round; stroke-width:1.5px;"/><path d="M5.79,14.74h6.47" style="fill:none; stroke:#445d82; stroke-linecap:round; stroke-linejoin:round; stroke-width:1.5px;"/></svg>