<svg width="24" height="24" viewBox="0 0 24 24" fill="none" xmlns="http://www.w3.org/2000/svg">
<path d="M20.13 18.34C19.96 21.29 17.89 22.12 16.15 22.19C14.41 22.27 9.58 22.25 7.84 22.19C6.1 22.13 4.07 21.86 3.92 19.44C3.71 16.14 3.78 11.19 3.87 9.23C3.93 8.01 4.39 7.32 5.03 6.47C5.67 5.62 7.76 3.56 8.67 2.91C9.58 2.26 10.46 1.81 11.49 1.78C12.52 1.75 15.04 1.78 16.83 1.81C18.62 1.84 20.04 2.77 20.14 5.68C20.26 7.57 20.32 15.15 20.14 18.35L20.13 18.34Z" stroke="#445D82" stroke-width="1.5" stroke-miterlimit="10"/>
<path d="M3.81 10.5C3.9 9.85001 3.74 8.07001 5.98 8.21001H8.12C9.3 8.21001 10.26 7.25001 10.26 6.05001V3.90001C10.26 2.71001 11.22 1.74001 12.4 1.74001" stroke="#445D82" stroke-width="1.5" stroke-linecap="round" stroke-linejoin="round"/>
</svg>
