<?xml version="1.0" encoding="UTF-8"?><svg id="ga" xmlns="http://www.w3.org/2000/svg" width="24" height="24" viewBox="0 0 24 24"><path d="M22.21,13.66c-.09,.64-.32,2.16-2.06,2.14h-2.19c-1.21,0-2.19,.96-2.19,2.14v2.14c0,1.18-.98,2.13-2.19,2.13" style="fill:none; stroke:#445d82; stroke-linecap:round; stroke-linejoin:round; stroke-width:1.5px;"/><path d="M1.84,4.94c.14-2.41,1.46-3.18,3.23-3.18h13.95c1.78,0,3.13,.84,3.18,3.18,.07,3.51,.02,10.82,0,10.95,0,0,0,3.32-1.14,4.71-1.54,1.9-4.14,1.63-5,1.63H5.08c-1.78,0-3.19-.97-3.23-3.17-.03-1.54-.15-11.52,0-14.13Z" style="fill:none; stroke:#445d82; stroke-miterlimit:10; stroke-width:1.5px;"/></svg>