<?xml version="1.0" encoding="UTF-8"?><svg id="ae" xmlns="http://www.w3.org/2000/svg" width="24" height="24" viewBox="0 0 24 24"><path d="M5.39,22.26c6.49-.15,14.09-2.04,16.7-3.16,2.62-1.13,.03-15.06,.03-15.06L6.83,6.65c1.58,7.15,1.72,16.78-2.71,15.46C0,20.88-.14,5.53,2.55,4.83c1.36-.35,4.3,9.38,2.09,14.02" style="fill:none; stroke:#445d82; stroke-linecap:round; stroke-linejoin:round; stroke-width:1.5px;"/><path d="M2.62,4.68c2.16-1.06,13.67-3.45,15.15-2.85s2.73,2.47,2.73,2.47" style="fill:none; stroke:#445d82; stroke-linecap:round; stroke-linejoin:round; stroke-width:1.5px;"/><line x1="19.84" y1="8.21" x2="10.77" y2="9.67" style="fill:none; stroke:#445d82; stroke-linecap:round; stroke-linejoin:round; stroke-width:1.5px;"/><path d="M15.74,17.13c-.2,.28-4.67,1.19-5.03,.93s-.16-4.17,0-4.55,4.59-1,4.86-.77,.37,4.1,.17,4.38Z" style="fill:none; stroke:#445d82; stroke-linecap:round; stroke-linejoin:round; stroke-width:1.5px;"/><line x1="17.76" y1="12.54" x2="20.4" y2="12.08" style="fill:none; stroke:#445d82; stroke-linecap:round; stroke-linejoin:round; stroke-width:1.5px;"/><line x1="17.88" y1="15.66" x2="20.4" y2="15.22" style="fill:none; stroke:#445d82; stroke-linecap:round; stroke-linejoin:round; stroke-width:1.5px;"/></svg>