<svg width="24" height="24" viewBox="0 0 24 24" fill="none" xmlns="http://www.w3.org/2000/svg">
<g clip-path="url(#clip0_5137_1308)">
<g clip-path="url(#clip1_5137_1308)">
<path d="M13.2706 17.4812L13.2506 17.2911C13.2306 16.8808 12.8706 16.5606 12.4606 16.5807C12.0506 16.5907 11.7306 16.9609 11.7506 17.3712C11.7506 17.4512 11.7606 17.5413 11.7706 17.6313C11.8406 18.3018 12.0206 18.9622 12.3006 19.5726C12.4406 19.8728 12.7506 20.0329 13.0606 20.0028C13.1406 20.0028 13.2206 19.9728 13.3006 19.9428C13.6806 19.7727 13.8406 19.3224 13.6706 18.9422C13.4606 18.4719 13.3206 17.9815 13.2706 17.4712V17.4812Z" fill="#494A4A"/>
<path d="M14.6907 12.6181C14.4106 12.3179 13.9406 12.2979 13.6306 12.5781C13.0706 13.0984 12.6106 13.7088 12.2806 14.3993C12.1006 14.7695 12.2506 15.2198 12.6206 15.3999C12.7106 15.4399 12.8006 15.4699 12.9006 15.48C13.2006 15.5 13.4906 15.3399 13.6306 15.0597C13.8906 14.5394 14.2306 14.0791 14.6507 13.6888C14.9607 13.4086 14.9707 12.9283 14.6907 12.6281V12.6181Z" fill="#494A4A"/>
<path d="M16.4407 21.5338C16.3307 21.4938 16.2207 21.4538 16.1207 21.4237C15.6907 21.2436 15.2907 21.0135 14.9307 20.7233C14.6107 20.4631 14.1406 20.5132 13.8706 20.8334C13.6106 21.1536 13.6606 21.6239 13.9806 21.894C14.4507 22.2843 14.9807 22.5945 15.5607 22.8246C15.7007 22.8747 15.8307 22.9247 15.9707 22.9747C16.0507 23.0048 16.1307 23.0148 16.2007 23.0148C16.5207 23.0148 16.8107 22.8146 16.9107 22.4944C17.0407 22.1042 16.8207 21.6739 16.4307 21.5438L16.4407 21.5338Z" fill="#494A4A"/>
<path d="M19.2308 11.8476C19.2808 11.4374 18.9808 11.0671 18.5708 11.0171C17.8108 10.927 17.0407 10.9871 16.3107 11.1772C15.9107 11.2873 15.6707 11.6975 15.7807 12.0978C15.8707 12.438 16.1707 12.6582 16.5007 12.6582C16.5607 12.6582 16.6307 12.6582 16.6907 12.6381C17.2407 12.488 17.8208 12.448 18.4008 12.5181C18.8108 12.5581 19.1808 12.2679 19.2308 11.8576V11.8476Z" fill="#494A4A"/>
<path d="M21.6809 12.3079C21.3609 12.0478 20.8809 12.1078 20.6309 12.428C20.3709 12.7482 20.4309 13.2285 20.7509 13.4787C21.8509 14.3492 22.5009 15.7101 22.5009 17.111C22.5009 17.7114 22.3809 18.2917 22.1609 18.8521C21.7309 19.9128 20.9209 20.7633 19.9208 21.2636C20.0708 20.9334 20.2408 20.6032 20.3809 20.4531C20.6609 20.1529 20.6509 19.6726 20.3509 19.3924C20.0508 19.1123 19.5808 19.1223 19.2908 19.4225C18.8708 19.8627 17.6908 21.9941 18.3208 22.8547C18.8008 23.5151 20.6909 23.9954 21.3209 24.0654C21.3509 24.0654 21.3809 24.0654 21.4109 24.0654C21.7909 24.0654 22.1109 23.7853 22.1509 23.395C22.2009 22.9847 21.9009 22.6145 21.4909 22.5645C21.3009 22.5445 21.0809 22.4944 20.8609 22.4344C22.0609 21.764 23.0209 20.6933 23.551 19.4025C23.851 18.662 24.001 17.8815 24.001 17.091C24.001 15.2298 23.1309 13.4286 21.6809 12.2779V12.3079Z" fill="#494A4A"/>
<path d="M23.691 0.490388C23.691 0.490388 23.671 0.420343 23.651 0.400331C23.651 0.390324 23.631 0.380318 23.621 0.370311C23.601 0.350299 23.581 0.330286 23.561 0.310273C23.511 0.260241 23.461 0.220216 23.411 0.190196C23.401 0.190196 23.391 0.170184 23.371 0.160177C23.341 0.150171 23.311 0.140165 23.281 0.130158C23.261 0.130158 23.241 0.110145 23.2109 0.110145C21.1009 -0.360155 8.25044 2.98198 3.33027 5.31347C1.2702 6.28408 0.260166 7.11462 0.0501586 8.01519C-0.409857 9.95643 2.45024 10.787 4.74032 11.4574C5.36034 11.6375 6.22037 11.8877 6.40038 12.0177C6.66038 12.2179 6.69039 12.9383 6.72039 13.4787C6.76039 14.2592 6.80039 15.1397 7.53041 15.49C7.68042 15.56 7.82042 15.59 7.95043 15.59C8.07043 15.59 8.18044 15.56 8.28044 15.51C9.38048 15.3098 10.5205 14.7295 11.3005 14.2492C11.4806 14.1391 11.6006 13.959 11.6406 13.7589C11.8006 13.4887 11.7906 13.1285 11.5606 12.8783C11.4505 12.7582 11.3305 12.6281 11.2105 12.5181C14.8907 9.4461 20.1208 4.583 22.4009 2.44163C22.2009 3.8025 21.6309 6.144 20.6209 8.99582C20.4809 9.38606 20.6909 9.81634 21.0809 9.95643C21.4709 10.0965 21.9009 9.88638 22.0409 9.49613C23.0609 6.6143 24.511 1.89128 23.691 0.480382V0.490388ZM1.51021 8.36541C1.64021 7.80506 3.92029 6.16401 11.6006 3.94259C14.3906 3.13207 17.0707 2.49166 19.1208 2.0714C15.8107 3.92258 10.8005 6.95451 6.55038 10.4567C6.19037 10.3267 5.74035 10.1866 5.16033 10.0165C2.03023 9.10589 1.45021 8.61557 1.51021 8.36541ZM9.37048 12.0978C8.93046 12.358 8.58045 12.8683 8.22044 13.4086C8.19044 12.7482 8.15044 11.9777 7.80042 11.3773C11.2305 8.59556 15.1307 6.11398 18.1808 4.33284C15.3907 6.90448 11.8506 10.0965 9.38048 12.0978H9.37048Z" fill="#494A4A"/>
</g>
</g>
<defs>
<clipPath id="clip0_5137_1308">
<rect width="24" height="24" fill="white"/>
</clipPath>
<clipPath id="clip1_5137_1308">
<rect width="24" height="24" fill="white"/>
</clipPath>
</defs>
</svg>
