<svg width="24" height="24" viewBox="0 0 24 24" fill="none" xmlns="http://www.w3.org/2000/svg">
<g clip-path="url(#clip0_5137_1307)">
<g clip-path="url(#clip1_5137_1307)">
<path d="M17.4729 18.2399C17.063 18.2399 16.7232 17.8999 16.7332 17.4799L16.7532 14.7299C16.7532 14.3199 17.093 13.9899 17.5029 13.9899C17.9127 13.9899 18.2526 14.3299 18.2426 14.7499L18.2226 17.4999C18.2226 17.9099 17.8827 18.2399 17.4729 18.2399Z" fill="#494A4A"/>
<path d="M17.6028 20.9999C17.4929 20.9999 17.3729 20.9799 17.253 20.9399C16.8032 20.7899 16.4933 20.4399 16.4633 20.0399C16.4333 19.5599 16.7132 19.1399 17.143 19.0199C17.5129 18.9199 18.0226 19.0199 18.3425 19.6499C18.6324 20.2099 18.3625 20.5899 18.2725 20.6999C18.1026 20.8999 17.8627 20.9999 17.5928 20.9999H17.6028Z" fill="#494A4A"/>
<path d="M17.4929 23.9899C13.9144 23.9899 11.0056 21.0799 11.0056 17.4999C11.0056 13.9199 13.9144 11.0099 17.4929 11.0099C21.0714 11.0099 23.9802 13.9199 23.9802 17.4999C23.9802 21.0799 21.0714 23.9899 17.4929 23.9899ZM17.4929 12.4999C14.744 12.4999 12.5049 14.7399 12.5049 17.4899C12.5049 20.2399 14.744 22.4799 17.4929 22.4799C20.2417 22.4799 22.4808 20.2399 22.4808 17.4899C22.4808 14.7399 20.2417 12.4999 17.4929 12.4999Z" fill="#494A4A"/>
<path d="M23.6803 0.489863C23.6803 0.489863 23.6603 0.429863 23.6403 0.399863C23.6403 0.389863 23.6203 0.379863 23.6103 0.369863C23.5903 0.339863 23.5603 0.319863 23.5403 0.299863C23.4904 0.249863 23.4504 0.209863 23.3904 0.179863C23.3804 0.179863 23.3704 0.159863 23.3504 0.149863C23.3204 0.139863 23.2905 0.129863 23.2605 0.119863C23.2405 0.119863 23.2105 0.0998629 23.1905 0.0998629C21.0714 -0.370137 8.23673 2.96986 3.32877 5.29986C1.26963 6.27986 0.260049 7.10986 0.0501365 8.00986C-0.409672 9.94986 2.44914 10.7799 4.73818 11.4499C5.35792 11.6299 6.21757 11.8799 6.39749 12.0099C6.65738 12.2099 6.68737 12.9299 6.71736 13.4699C6.75734 14.2499 6.79733 15.1299 7.52702 15.4799C7.67696 15.5499 7.8169 15.5799 7.94685 15.5799C8.0668 15.5799 8.17675 15.5499 8.27671 15.4999C9.37625 15.2999 10.5158 14.7199 11.2955 14.2399C11.4754 14.1299 11.5953 13.9499 11.6353 13.7499C11.7952 13.4799 11.7852 13.1199 11.5553 12.8699C11.4454 12.7499 11.3254 12.6199 11.2055 12.5099C14.884 9.43986 20.1118 4.57986 22.3908 2.43986C22.1909 3.79986 21.6211 6.13986 20.6116 8.98986C20.4716 9.37986 20.6815 9.80986 21.0714 9.94986C21.4612 10.0899 21.891 9.87986 22.031 9.48986C23.0506 6.60986 24.5099 1.87986 23.6803 0.479863V0.489863ZM1.50953 8.35986C1.63947 7.79986 3.91853 6.15986 11.5953 3.93986C14.3842 3.12986 17.063 2.48986 19.1122 2.06986C15.8036 3.91986 10.7957 6.94986 6.54743 10.4499C6.18758 10.3199 5.73777 10.1799 5.15801 10.0099C2.02931 9.09986 1.44955 8.60986 1.50953 8.35986ZM9.36626 12.0899C8.92644 12.3499 8.57658 12.8599 8.21673 13.3999C8.18675 12.7399 8.14676 11.9699 7.79691 11.3699C11.2255 8.58986 15.1239 6.10986 18.1726 4.32986C15.3837 6.89986 11.8452 10.0899 9.37625 12.0899H9.36626Z" fill="#494A4A"/>
</g>
</g>
<defs>
<clipPath id="clip0_5137_1307">
<rect width="24" height="24" fill="white"/>
</clipPath>
<clipPath id="clip1_5137_1307">
<rect width="24" height="24" fill="white"/>
</clipPath>
</defs>
</svg>
