<?xml version="1.0" encoding="UTF-8"?><svg id="ck" xmlns="http://www.w3.org/2000/svg" width="24" height="24" viewBox="0 0 24 24"><path d="M11.88,12.87c-1.51,0-1.31-2.34,.07-2.34,1.63,0,1.51,2.34,0,2.34" style="fill:none; stroke:#445d82; stroke-linecap:round; stroke-linejoin:round; stroke-width:1.5px;"/><path d="M11.86,5.31c-.13,.88-.1,4.25,.14,5.22" style="fill:none; stroke:#445d82; stroke-linecap:round; stroke-linejoin:round; stroke-width:1.5px;"/><path d="M12.7,12.65c.76,.57,2.67,1.92,4.34,3.04" style="fill:none; stroke:#445d82; stroke-linecap:round; stroke-linejoin:round; stroke-width:1.5px;"/><path d="M12.06,18.8c-.03,.6-.15,.93-.11,1.18" style="fill:none; stroke:#445d82; stroke-linecap:round; stroke-linejoin:round; stroke-width:1.5px;"/><path d="M20.49,11.17c-.82-.02-.87-.05-1.2-.01" style="fill:none; stroke:#445d82; stroke-linecap:round; stroke-linejoin:round; stroke-width:1.5px;"/><path d="M4.76,11.17c-.41,.04-.9-.07-1.23-.03" style="fill:none; stroke:#445d82; stroke-linecap:round; stroke-linejoin:round; stroke-width:1.5px;"/><polyline points="9.73 6.04 11.78 4.04 13.84 6.04" style="fill:none; stroke:#445d82; stroke-linecap:round; stroke-linejoin:round; stroke-width:1.5px;"/><polyline points="17.61 13.8 17.61 16.63 14.71 16.63" style="fill:none; stroke:#445d82; stroke-linecap:round; stroke-linejoin:round; stroke-width:1.5px;"/><path d="M5.57,21.06c1.92,1.21,4.11,2.03,6.42,2.03,6.21,0,11.24-5,11.24-11.17S18.19,.75,11.99,.75c-6.21,0-11.24,5-11.24,11.17v.5" style="fill:none; stroke:#445d82; stroke-linecap:round; stroke-linejoin:round; stroke-width:1.5px;"/><path d="M3.53,23.13c-.88-.06-2.28-5.77-1.49-6.36,.69-.52,6.24,1.4,6.1,2.33" style="fill:none; stroke:#445d82; stroke-linecap:round; stroke-linejoin:round; stroke-width:1.5px;"/><path d="M8.11,19.26c-.11,.76-3.01,.72-3.27,.99s-.56,3.05-1.34,2.99" style="fill:none; stroke:#445d82; stroke-linecap:round; stroke-linejoin:round; stroke-width:1.5px;"/></svg>