<svg width="24" height="24" viewBox="0 0 24 24" fill="none" xmlns="http://www.w3.org/2000/svg">
<g clip-path="url(#clip0_5051_1228)">
<g clip-path="url(#clip1_5051_1228)">
<path d="M5.57 21.07C7.49 22.28 9.68 23.1 11.99 23.1C18.2 23.1 23.23 18.1 23.23 11.93C23.23 5.76 18.19 0.75 11.99 0.75C5.78 0.75 0.75 5.75 0.75 11.92V12.42M3.53 23.13C2.65 23.07 1.25 17.36 2.04 16.77C2.73 16.25 8.28 18.17 8.14 19.1M8.11 19.26C8 20.02 5.1 19.98 4.84 20.25C4.58 20.52 4.28 23.3 3.5 23.24M11.32 4.5C10.74 8.75 11.49 12.9 11.49 12.25C11.49 12.25 14.61 15.64 15.26 15.75M12.25 11.92C12.25 11.92 10.51 11.61 11 12.13C11.49 12.65 11.67 12.67 11.67 12.67L12.25 11.93V11.92Z" stroke="#494A4A" stroke-width="1.5" stroke-linecap="round" stroke-linejoin="round"/>
</g>
</g>
<defs>
<clipPath id="clip0_5051_1228">
<rect width="24" height="24" fill="white"/>
</clipPath>
<clipPath id="clip1_5051_1228">
<rect width="24" height="24" fill="white"/>
</clipPath>
</defs>
</svg>
