<?xml version="1.0" encoding="UTF-8"?><svg id="ev" xmlns="http://www.w3.org/2000/svg" width="24" height="24" viewBox="0 0 24 24"><line x1="2.77" y1="23.25" x2="21.24" y2="23.25" style="fill:none; stroke:#445d82; stroke-linecap:round; stroke-linejoin:round; stroke-width:1.5px;"/><path d="M19.16,23.23c.01-6.81,.37-20.89-.47-21.42-.87-.55-13.16,3.54-13.56,4.7-.44,1.26-.41,12.37-.32,16.72" style="fill:none; stroke:#445d82; stroke-linecap:round; stroke-linejoin:round; stroke-width:1.5px;"/><path d="M8.98,8.28c1.35-.01,4.48-.1,6.1,0" style="fill:none; stroke:#445d82; stroke-linecap:round; stroke-linejoin:round; stroke-width:1.5px;"/><path d="M8.98,11.23c2.54,.02,4.56,0,6.1,0" style="fill:none; stroke:#445d82; stroke-linecap:round; stroke-linejoin:round; stroke-width:1.5px;"/><path d="M8.97,14.28c1.8,.04,4.18-.04,6.14,0" style="fill:none; stroke:#445d82; stroke-linecap:round; stroke-linejoin:round; stroke-width:1.5px;"/><path d="M9.77,22.96c-.01-.57-.07-4.86,.15-5,.38-.24,4-.27,4.15-.09s.2,3.36,.17,5.21" style="fill:none; stroke:#445d82; stroke-linecap:round; stroke-linejoin:round; stroke-width:1.5px;"/><line x1="11.75" y1=".89" x2="11.75" y2="3.29" style="fill:none; stroke:#445d82; stroke-linecap:round; stroke-linejoin:round; stroke-width:1.5px;"/></svg>