<?xml version="1.0" encoding="UTF-8"?><svg id="he" xmlns="http://www.w3.org/2000/svg" width="24" height="24" viewBox="0 0 24 24"><path d="M3.64,9.96c3.06-.41,13.88-.13,16.74,0,1.06,.05,1.81,.83,1.89,2.21s-.18,4.48-.53,6.16c-.42,2.03-1.27,2.55-2.84,2.76s-10.78,.24-13.8,0c-1.22-.1-2.26-.2-2.84-2.76-.33-1.46-.6-5.19-.53-6.16s.42-2.01,1.89-2.21Z" style="fill:none; stroke:#445d82; stroke-linecap:round; stroke-linejoin:round; stroke-width:1.5px;"/><path d="M1.8,6.83v-1.02c0-1.68,1.43-3.05,3.18-3.05h4.1c.71,0,1.37,.34,1.77,.91l.86,1.24c.39,.57,1.08,.86,1.77,.86h2.12s4.25,0,4.25,0c.94,0,2.05,.38,2.37,1.06" style="fill:none; stroke:#445d82; stroke-linecap:round; stroke-linejoin:round; stroke-width:1.5px;"/></svg>