<?xml version="1.0" encoding="UTF-8"?><svg id="m" xmlns="http://www.w3.org/2000/svg" width="24" height="24" viewBox="0 0 24 24"><rect id="n" width="24" height="24" style="fill:none; opacity:0;"/><path d="m6.42,14.18s.41-3.56.67-3.9,3-2.17,3.48-2.37,1.72-.27,2.5.5" style="fill:none; stroke:#445d82; stroke-linecap:round; stroke-linejoin:round; stroke-width:1.5px;"/><path d="m9.06,17.19c0,.13-.35,1.58-.78,2s-2.5,3.03-2.5,3.03" style="fill:none; stroke:#445d82; stroke-linecap:round; stroke-linejoin:round; stroke-width:1.5px;"/><path d="m13.07,8.42c.27,1.44.74,3.06,1.32,3.48s3.76,1.72,3.76,1.72" style="fill:none; stroke:#445d82; stroke-linecap:round; stroke-linejoin:round; stroke-width:1.5px;"/><path d="m11.79,8.1c-.12.25-1.43,4.78-1.12,5.87s5.27,7.9,5.5,8.08" style="fill:none; stroke:#445d82; stroke-linecap:round; stroke-linejoin:round; stroke-width:1.5px;"/><path d="m12.48,5.24c-2.46,0-2.09-3.48,0-3.48s2.46,3.48,0,3.48Z" style="fill:none; stroke:#445d82; stroke-linecap:round; stroke-linejoin:round; stroke-width:1.5px;"/></svg>