<?xml version="1.0" encoding="UTF-8"?><svg id="dp" xmlns="http://www.w3.org/2000/svg" width="24" height="24" viewBox="0 0 24 24"><path d="M7.7,.97c1.96-.27,6.95-.27,8.63,0,1.41,.23,2.46,1.29,2.6,2.8,.43,4.49,.38,12.62,0,15.73-.27,2.25-1.32,3.35-3.02,3.54-2.3,.26-5.74,.27-7.85,0-1.65-.21-2.75-1.29-2.97-3.54-.46-4.6-.4-11.7,0-15.73,.15-1.51,.92-2.57,2.6-2.8Z" style="fill:none; stroke:#445d82; stroke-miterlimit:10; stroke-width:1.5px;"/><path d="M11.29,19.52c-.09-1.08,1.43-.98,1.43,.04,0,.93-1.35,.88-1.43,0" style="fill:none; stroke:#445d82; stroke-linecap:round; stroke-linejoin:round; stroke-width:1.5px;"/><polyline points="9.5 1 10.5 2.25 13.5 2.25 14.75 1" style="fill:none; stroke:#445d82; stroke-linecap:round; stroke-linejoin:round; stroke-width:1.5px;"/></svg>