<?xml version="1.0" encoding="UTF-8"?><svg id="cy" xmlns="http://www.w3.org/2000/svg" width="24" height="24" viewBox="0 0 24 24"><path d="M.79,11.18c.74-3.13,21.06-7.93,22.25-7.36s-3.56,16.51-7.1,17.4c-1.83,.46-4.8-5.75-5.99-5.56-.73,.11-1.6,2.38-2.09,2.15-.72-.35,0-2.64-1-3.39-.88-.67-6.51-1.42-6.07-3.23Z" style="fill:none; stroke:#445d82; stroke-linecap:round; stroke-linejoin:round; stroke-width:1.5px;"/><path d="M6.75,14.25C13.77,8.38,23.04,3.82,23.04,3.82c0,0-8.6,8.15-13.29,11.93" style="fill:none; stroke:#445d82; stroke-linecap:round; stroke-linejoin:round; stroke-width:1.5px;"/><path d="M8.01,17.8c.89-.12,1.94-.6,2.91-1.2" style="fill:none; stroke:#445d82; stroke-linecap:round; stroke-linejoin:round; stroke-width:1.5px;"/></svg>