<?xml version="1.0" encoding="UTF-8"?><svg id="f" xmlns="http://www.w3.org/2000/svg" width="24" height="24" viewBox="0 0 24 24"><path d="m3.73,8.22C3.39,3.34,7.76.73,12.33.73s7.92,3.29,7.93,7.48c0,3.41-1.91,5.19-2.77,6.01s-.65,5.12-2.51,5.73c-1.58.52-5.64.36-6.47-.17-1.5-.96-.9-4.2-2.16-5.75s-2.43-3.11-2.61-5.82Z" style="fill:none; stroke:#445d82; stroke-linecap:round; stroke-linejoin:round; stroke-width:1.5px;"/><path d="m10.73,17.25v-5.33s3.58-1.08,3.52,1.62c-.05,2.31-3.33,1.31-3.33,1.31" style="fill:none; stroke:#445d82; stroke-linecap:round; stroke-linejoin:round; stroke-width:1.5px;"/><path d="m7,5.75c-.5,1-.25,2.5-.25,2.5h10.5s0-2-.25-2.5" style="fill:none; stroke:#445d82; stroke-linecap:round; stroke-linejoin:round; stroke-width:1.5px;"/><line x1="13.25" y1="4.5" x2="10.75" y2="8.25" style="fill:none; stroke:#445d82; stroke-linecap:round; stroke-linejoin:round; stroke-width:1.5px;"/><line x1="9.75" y1="20.75" x2="9.75" y2="23.25" style="fill:none; stroke:#445d82; stroke-linecap:round; stroke-linejoin:round; stroke-width:1.5px;"/><line x1="14.25" y1="20.75" x2="14.25" y2="23.25" style="fill:none; stroke:#445d82; stroke-linecap:round; stroke-linejoin:round; stroke-width:1.5px;"/></svg>