<?xml version="1.0" encoding="UTF-8"?><svg id="b" xmlns="http://www.w3.org/2000/svg" width="24" height="24" viewBox="0 0 24 24"><g id="c"><rect y="0" width="24" height="24" style="fill:none;"/><path d="m13.03,18.7c.05.02.11.03.17.03.11,0,.21,0,.3-.04" style="fill:none; stroke:#494a4a; stroke-linecap:round; stroke-linejoin:round; stroke-width:1.5px;"/><path d="m21.5,15.25c1.57-1.86,1.5-3.25,1.5-4.25,0-1.29-.89-4.28-3-6-3.19-2.6-7.16-1.99-7.16-1.99v7.76H4s-.25,2.98,1.5,4.51" style="fill:none; stroke:#494a4a; stroke-linecap:round; stroke-linejoin:round; stroke-width:1.5px;"/><path d="m6,18.96c0,2.3,1.31,2.79,2.79,2.79s2.46-.82,2.46-2.46-1.15-2.62-2.63-2.62-2.62,1.31-2.62,2.3Z" style="fill:none; stroke:#494a4a; stroke-linecap:round; stroke-linejoin:round; stroke-width:1.5px;"/><path d="m15.5,18.96c0,2.3,1.31,2.79,2.79,2.79s2.46-.82,2.46-2.46-1.15-2.62-2.62-2.62-2.62,1.31-2.62,2.3Z" style="fill:none; stroke:#494a4a; stroke-linecap:round; stroke-linejoin:round; stroke-width:1.5px;"/><path d="m4.25,11S1,8.49,1,7.25" style="fill:none; stroke:#494a4a; stroke-linecap:round; stroke-linejoin:round; stroke-width:1.5px;"/><path d="m22.25,10.75s-4.25.5-6,0" style="fill:none; stroke:#494a4a; stroke-linecap:round; stroke-linejoin:round; stroke-width:1.5px;"/></g></svg>