<?xml version="1.0" encoding="UTF-8"?><svg id="e" xmlns="http://www.w3.org/2000/svg" width="24" height="24" viewBox="0 0 24 24"><rect id="f" width="24" height="24" style="fill:#f9a835; opacity:0; stroke:#445d82; stroke-miterlimit:10;"/><path d="M21.2,10.5c.15-1.81,.02-3.74-.38-5.77-3.69-1.48-7.27-2.99-8.65-2.99S6.86,3.22,3.17,4.71c-1.49,7.5,.91,13.87,6.83,16.75" style="fill:none; stroke:#445d82; stroke-linecap:round; stroke-linejoin:round; stroke-width:1.5px;"/><path d="M14.16,16.36c1.39-.1,4.47-.16,6.57-.02,.75,.05,1.29,.51,1.41,1.21,.21,1.29,.07,2.74-.02,4.11-.06,.88-.53,1.35-1.47,1.46-1.12,.14-4.4,.11-6.11,.1-1.13,0-1.57-.51-1.61-.83-.21-1.69-.24-3.12-.04-4.84,.07-.58,.47-1.14,1.28-1.19Z" style="fill:none; stroke:#445d82; stroke-linecap:round; stroke-linejoin:round; stroke-width:1.5px;"/><path d="M14.84,16.26c-.14-1.5-.1-2.83,.5-3.58,1-1.24,3.3-1.29,4.36,0,.58,.71,.53,1.96,.55,3.57" style="fill:none; stroke:#445d82; stroke-linecap:round; stroke-linejoin:round; stroke-width:1.5px;"/><path d="M17.49,19.5c-.12,.12,.14,1,.02,1.19" style="fill:none; stroke:#445d82; stroke-linecap:round; stroke-linejoin:round; stroke-width:1.5px;"/></svg>