<?xml version="1.0" encoding="UTF-8"?><svg id="eg" xmlns="http://www.w3.org/2000/svg" width="24" height="24" viewBox="0 0 24 24"><path d="M20.78,22.29c-1.73-.15-3.12-1.89-3.31-2.53" style="fill:none; stroke:#445d82; stroke-linecap:round; stroke-linejoin:round; stroke-width:1.5px;"/><path d="M11.84,6c.35,2.54,1.67,4.1,3.07,4.5" style="fill:none; stroke:#445d82; stroke-linecap:round; stroke-linejoin:round; stroke-width:1.5px;"/><path d="M11.83,2.54c-6.39,2.11-7.57,9.34-5.08,14.23,2.5,4.89,6.91,8.12,12.87,5.58" style="fill:none; stroke:#445d82; stroke-linecap:round; stroke-linejoin:round; stroke-width:1.5px;"/><path d="M20.28,22.2c.51,.14,.98,.11,1.34-.14,1.02-.71,.74-2.9-.64-4.89s-3.33-3.03-4.35-2.33c-.44,.3-.39,1.06-.61,1.58-1.36,3.2-4.43,.8-5.52-2.09-.82-2.19-.58-6.4,2.6-5.09,0,0,.8,1.47,2.3,1.26,1.38-.19,2.04-2.71,1.55-5.37-.49-2.66-1.76-4.53-3.35-4.36-.6,.06-1.37,.57-1.61,1.62" style="fill:none; stroke:#445d82; stroke-linecap:round; stroke-linejoin:round; stroke-width:1.5px;"/><path d="M6.25,15.73s3.16,8.2-1.11,6.76c-4.27-1.45-4.44-7.16-1.71-5.02,1.98,1.55,1.74,5.74,.11,5.77-1.21,.02-2.77-1.53-2.77-1.53" style="fill:none; stroke:#445d82; stroke-linecap:round; stroke-linejoin:round; stroke-width:1.5px;"/></svg>