<svg width="24" height="24" viewBox="0 0 24 24" fill="none" xmlns="http://www.w3.org/2000/svg">
<g clip-path="url(#clip0_5201_1278)">
<g clip-path="url(#clip1_5201_1278)">
<path d="M14.8 8.59995C14.2 8.59995 13.7 8.39995 13.3 7.99995C13 7.69995 12.6 7.09995 12.6 5.99995V5.89995C12.7 4.89995 13.3 3.49995 14.6 3.49995C15.2 3.49995 15.7 3.69995 16.1 4.09995C16.5 4.49995 16.8 5.19995 16.8 5.89995C16.8 7.19995 16.1 8.59995 14.8 8.59995ZM14.1 6.19995C14.1 6.59995 14.2 6.79995 14.4 6.99995C14.5 7.09995 14.7 7.19995 14.8 7.19995C15 7.19995 15.3 6.69995 15.3 5.99995C15.3 5.69995 15.2 5.39995 15 5.29995C15 5.09995 14.8 4.99995 14.6 4.99995C14.4 4.99995 14.1 5.59995 14.1 6.09995C14.2 6.09995 14.1 6.09995 14.1 6.19995Z" fill="#494A4A"/>
<path d="M21.5 11.5H7.7C6.8 11.5 5.7 10.6 5.7 9.49995V2.69995C5.7 1.59995 6.5 0.699951 7.5 0.699951L21.5 0.799951C22.5 0.799951 23.4 1.79995 23.4 2.79995V9.49995C23.4 10.6 22.4 11.5 21.5 11.5ZM7.3 9.39995C7.3 9.69995 7.7 9.89995 7.8 9.89995H21.6C21.7 9.89995 22 9.69995 22 9.39995V2.69995C22 2.39995 21.7 2.19995 21.6 2.19995L7.6 2.09995C7.5 2.09995 7.3 2.29995 7.3 2.59995V9.39995Z" fill="#494A4A"/>
<path d="M8.7 5.59995C8.3 5.59995 7.9 5.29995 7.9 4.79995V3.39995C7.9 3.19995 8 2.99995 8.1 2.89995C8.2 2.79995 8.4 2.69995 8.6 2.69995H11.1C11.5 2.69995 11.8 2.99995 11.8 3.49995C11.8 3.89995 11.5 4.19995 11 4.19995H9.3V4.89995C9.4 5.29995 9.1 5.59995 8.7 5.59995Z" fill="#494A4A"/>
<path d="M9.6 9.39995H8.6C8.4 9.39995 8.2 9.29995 8.1 9.19995C8 8.99995 7.9 8.79995 7.9 8.59995V7.39995C7.9 6.99995 8.2 6.69995 8.7 6.69995C9.1 6.69995 9.4 6.99995 9.4 7.49995V7.99995H9.6C10 7.99995 10.4 8.29995 10.4 8.79995C10.4 9.29995 10.1 9.39995 9.6 9.39995Z" fill="#494A4A"/>
<path d="M20.5 9.39995H17.8C17.4 9.39995 17.1 9.09995 17.1 8.59995C17.1 8.19995 17.4 7.89995 17.9 7.89995H19.8V7.29995C19.8 6.89995 20.1 6.49995 20.6 6.49995C21.1 6.49995 21.4 6.79995 21.4 7.29995V8.69995C21.4 8.89995 21.3 9.09995 21.2 9.19995C20.9 9.39995 20.7 9.39995 20.5 9.39995Z" fill="#494A4A"/>
<path d="M20.5 5.29995C20.1 5.29995 19.7 4.99995 19.7 4.49995V4.09995H19.5C19.1 4.09995 18.8 3.79995 18.8 3.29995C18.8 2.89995 19.1 2.49995 19.6 2.59995H20.5C20.9 2.59995 21.2 2.89995 21.2 3.39995V4.49995C21.3 4.99995 20.9 5.29995 20.5 5.29995Z" fill="#494A4A"/>
<path d="M21.9 16.1C20.8 15.8 19.8 16.3 18.8 16.7C18.7 15.6 18.1 14.6 17 14.3C14.9 13.7 13 14.4 11 13.9C9.7 13.7 8.5 13.2 7.1 13.1C5.3 12.9 3.5 13.6 2 14.5C0.9 15 -0.0999999 16.1 1.43424e-07 17.4C1.43424e-07 17.7 1.43424e-07 18.6 1.43424e-07 18.9C-0.0999999 20.2 0.6 21.6 2 21.9C2.6 22 3 21.9 3.6 22C6.2 22.1 8.6 23.0999 11.1 23.7999C13.1 24.3999 15.3 24 17.3 23.5C19.6 23 21.3 20.8 23.2 19.5C23.3 19.4 23.6 19.2 23.7 18.9C24.5 17.5 23.1 16.3 21.9 16.1ZM18.5 21.2999C17 22.1999 15 22.4 13.2 22.5C10 22.3 7 20.5 3.7 20.4C3.2 20.3 2.5 20.5 2.1 20.2C1.8 20 1.5 19.4 1.5 19C1.5 18.8 1.5 18.3999 1.5 18.2999V17.2999C1.4 16.4999 2.1 16 2.7 15.7C3.5 15.3 4.4 14.8 5.2 14.6C7 14.1 8.8 15 10.7 15.3C12.5 15.8 15 15.2 16.5 15.6C17.4 15.9 17.6 16.9 17 17.6C16.7 17.9 16.3 18.1 15.7 18.1C13.8 18.2 11.9 17.9 10 17.7C9 17.6 8.9 19.1 9.8 19.2C11.8 19.4 13.8 19.8 15.8 19.6C16.5 19.6 17.4 19.3 18 18.6C18.1 18.5 18.2 18.3999 18.2 18.2999C19.3 18.0999 20.4 17.2 21.4 17.5C21.7 17.6 22.2 17.8 22.3 18C22.3 18 22.3 18 22.2 18.1C21 19.2 19.7 20.2999 18.5 21.2999Z" fill="#494A4A"/>
</g>
</g>
<defs>
<clipPath id="clip0_5201_1278">
<rect width="24" height="24" fill="white"/>
</clipPath>
<clipPath id="clip1_5201_1278">
<rect width="24" height="24" fill="white"/>
</clipPath>
</defs>
</svg>
