<?xml version="1.0" encoding="UTF-8"?><svg id="cs" xmlns="http://www.w3.org/2000/svg" width="24" height="24" viewBox="0 0 24 24"><path d="M16.68,22.06c-3.08,.28-9.63,.24-12.48,0-1.65-.14-3.08-1.37-3.26-3.23-.22-2.27-.17-5.37,0-7.14s1.37-3,3.26-3.23c2.73-.33,9.53-.28,12.48,0,2.2,.21,3.01,1.47,3.26,3.23,.27,1.97,.27,4.87,0,7.14-.2,1.65-1.16,3.04-3.26,3.23Z" style="fill:none; stroke:#445d82; stroke-linecap:round; stroke-linejoin:round; stroke-width:1.5px;"/><path d="M2.98,8.33c-.23-1.78,.55-3.03,2.36-3.7,2.62-.96,9.33-2.47,12.3-2.87,2.22-.29,3.3,.79,3.94,2.51,.72,1.92,1.38,4.85,1.63,7.19,.18,1.71-.45,3.33-2.47,4-.15,.05-.32,.1-.49,.16" style="fill:none; stroke:#445d82; stroke-linecap:round; stroke-linejoin:round; stroke-width:1.5px;"/><path d="M21.75,6s-11.11,2.1-11.75,2.25" style="fill:none; stroke:#445d82; stroke-linecap:round; stroke-linejoin:round; stroke-width:1.5px;"/><path d="M12.97,15.56c-1.1,0-1.99-.91-1.99-2.04s.89-2.04,1.99-2.04" style="fill:none; stroke:#445d82; stroke-linecap:round; stroke-linejoin:round; stroke-width:1.5px;"/><path d="M14.18,11.86c.33-.24,.73-.38,1.16-.38,1.1,0,1.99,.91,1.99,2.04s-.89,2.04-1.99,2.04c-.43,0-.83-.14-1.16-.38" style="fill:none; stroke:#445d82; stroke-linecap:round; stroke-linejoin:round; stroke-width:1.5px;"/><path d="M9.25,18.75c-.71-.03-4.85-.03-5.48,0" style="fill:none; stroke:#445d82; stroke-linecap:round; stroke-linejoin:round; stroke-width:1.5px;"/><path d="M14.27,18.77c-.69-.03-1.89-.04-2.5-.02" style="fill:none; stroke:#445d82; stroke-linecap:round; stroke-linejoin:round; stroke-width:1.5px;"/></svg>