<?xml version="1.0" encoding="UTF-8"?><svg id="ch" xmlns="http://www.w3.org/2000/svg" width="24" height="24" viewBox="0 0 24 24"><path d="M8.5,19.46s-1.62,4.73-5.11,1.88c-3.48-2.85-.35-5.62,1.11-5.59" style="fill:none; stroke:#445d82; stroke-linecap:round; stroke-linejoin:round; stroke-width:1.5px;"/><path d="M17,14.75c7.83,7.5-4.75,8.25-10.65,2.56C-.36,10.83,3,4.02,9.43,9.24" style="fill:none; stroke:#445d82; stroke-linecap:round; stroke-linejoin:round; stroke-width:1.5px;"/><path d="M7.64,10.5c.62,3.56,3.87,6.06,7.86,6.52" style="fill:none; stroke:#445d82; stroke-linecap:round; stroke-linejoin:round; stroke-width:1.5px;"/><path d="M8.21,12c.33-.51,.84-1.43,1.21-2.76,.51-1.83,1.14-5.51,4.89-7.07,6.37-2.64,13.27,7.37,2.81,12.14-1.78,.81-2.73,1.48-3.22,1.91" style="fill:none; stroke:#445d82; stroke-linecap:round; stroke-linejoin:round; stroke-width:1.5px;"/></svg>