<?xml version="1.0" encoding="UTF-8"?><svg id="b" xmlns="http://www.w3.org/2000/svg" width="24" height="24" viewBox="0 0 24 24"><g id="c"><path d="m15.01,13.02c.03,6.49,8.24,2.7,8.24,8.32,0,2.55-22.48,2.55-22.48,0,0-5.62,8.21-1.83,8.23-8.32" style="fill:none; fill-rule:evenodd; stroke:#494a4a; stroke-linecap:round; stroke-miterlimit:10; stroke-width:1.5px;"/><path d="m12,14.26c3.14,0,5.24-3.46,5.24-8.15,0-3.59-1.99-5.32-5.24-5.32s-5.24,1.73-5.24,5.32c0,4.7,2.12,8.15,5.23,8.15Z" style="fill:none; fill-rule:evenodd; stroke:#494a4a; stroke-miterlimit:10; stroke-width:1.5px;"/><path d="m7.25,7s2.58-.04,4.5-1c1.5-.75,2.25-1.5,2.25-1.5,0,0,1.75,2,2.5,2" style="fill:none; fill-rule:evenodd; stroke:#494a4a; stroke-linecap:round; stroke-linejoin:round; stroke-width:1.5px;"/><rect width="24" height="24" style="fill:none;"/></g></svg>