<?xml version="1.0" encoding="UTF-8"?><svg id="gp" xmlns="http://www.w3.org/2000/svg" width="24" height="24" viewBox="0 0 24 24"><path d="M4.77,13.26c-.05,1.33-.1,8.67,.47,9.35,.65,.77,10.96,.64,11.71,.61,2.17-.08,2.31-.23,2.3-2.64,0-2.11,.05-5.76,0-7.16" style="fill:none; stroke:#445d82; stroke-linecap:round; stroke-linejoin:round; stroke-width:1.5px;"/><path d="M19.43,16.24c3.76,.09,3.66-.65,3.74-2.99,.03-.94,.1-2.69,.02-4.29-.14-2.52-.74-2.91-3.24-3.05-2.18-.13-12.66-.13-15.86,0-2.74,.11-3.13,.58-3.24,3.05-.07,1.6-.03,3.51,.02,4.29,.15,2.47-.02,3.08,3.74,2.99" style="fill:none; stroke:#445d82; stroke-linecap:round; stroke-linejoin:round; stroke-width:1.5px;"/><path d="M4.81,5.74c0-1.13-.14-4.31,.39-4.65,.85-.55,13.35-.31,13.68,.26,.4,.7,.4,3.69,.4,4.53" style="fill:none; stroke:#445d82; stroke-linecap:round; stroke-linejoin:round; stroke-width:1.5px;"/><path d="M19.09,9.15c-.04,.39,.89,.16,.07-.09" style="fill:none; stroke:#445d82; stroke-linecap:round; stroke-linejoin:round; stroke-width:1.5px;"/><path d="M3.43,12.75c2.13,0,14.64,0,17.19,0" style="fill:none; stroke:#445d82; stroke-linecap:round; stroke-linejoin:round; stroke-width:1.5px;"/></svg>