<svg width="25" height="25" viewBox="0 0 25 25" fill="none" xmlns="http://www.w3.org/2000/svg">
<path d="M2.07997 16.04C1.44997 16.55 1.02997 17.17 0.889971 17.88C0.769971 18.52 0.709971 20.36 0.889971 20.73C1.86997 22.87 5.46997 23.58 9.16997 23.68M8.30997 20.46C3.64997 20.18 0.109971 18.33 1.52997 16.55M2.05997 9.81995C1.43997 10.33 1.02997 10.94 0.889971 11.65C0.769971 12.29 0.719971 14.15 0.889971 14.52C1.71997 16.33 4.39997 16.98 7.43997 17.33M8.56997 14C3.92997 13.72 0.399971 11.86 1.80997 10.09M17.24 8.95995C17.59 8.60995 17.9 8.47995 18.09 7.96995C18.33 7.33995 18.2 5.86995 18.09 5.33995C17.09 0.569952 1.84997 0.529952 0.879971 5.33995C0.759971 5.93995 0.769971 7.92995 0.939971 8.27995C1.98997 10.46 6.02997 11.12 9.97997 11.04M17.36 4.07995C18.37 5.48995 14.72 7.77995 9.50997 7.77995C4.29997 7.77995 0.0199707 5.87995 1.54997 4.07995M18.5 15.38C17.99 15.15 17.01 15.23 17.01 15.23C16.01 15.23 15.02 16.45 15.02 17.98C15.02 19.51 15.76 20.73 16.76 20.73C16.76 20.73 17.38 20.87 18.24 20.57M14.26 17.97L17.76 17.99M23.28 18C23.28 21.4462 20.4773 24.24 17.02 24.24C13.5627 24.24 10.76 21.4462 10.76 18C10.76 14.5537 13.5627 11.76 17.02 11.76C20.4773 11.76 23.28 14.5537 23.28 18Z" stroke="#494A4A" stroke-width="1.5" stroke-linecap="round" stroke-linejoin="round"/>
</svg>
