<?xml version="1.0" encoding="UTF-8"?><svg id="fu" xmlns="http://www.w3.org/2000/svg" width="24" height="24" viewBox="0 0 24 24"><path d="M1.93,6.42c.26-2.63,.77-4.15,3.59-4.42s11.69-.2,13.08,0c1.39,.2,3.33,.64,3.5,3.49,.17,2.85,.08,8.59,.03,11.21-.09,4.92-.86,5.39-5.49,5.39,0,0-9.09,.26-11.12,.12-1.45-.1-3.45-.2-3.56-4.38-.04-1.69-.4-7.79-.04-11.41Z" style="fill:none; stroke:#445d82; stroke-linecap:round; stroke-linejoin:round; stroke-width:1.5px;"/><line x1="9.29" y1="22.23" x2="9.29" y2="1.84" style="fill:none; stroke:#445d82; stroke-linecap:round; stroke-linejoin:round; stroke-width:1.5px;"/><path d="M5.8,6.15c-.37,.29-1.06-.21-.54-.57,.55-.38,.87,.31,.53,.58" style="fill:none; stroke:#445d82; stroke-linecap:round; stroke-linejoin:round; stroke-width:1.5px;"/><path d="M5.78,9.49c-.53,.47-.85-.33-.54-.57,.53-.41,.86,.29,.53,.58" style="fill:none; stroke:#445d82; stroke-linecap:round; stroke-linejoin:round; stroke-width:1.5px;"/><path d="M4.83,13.77c.28-.01,1.15-.05,1.35,0" style="fill:none; stroke:#445d82; stroke-linecap:round; stroke-linejoin:round; stroke-width:1.5px;"/></svg>