<svg width="24" height="24" viewBox="0 0 24 24" fill="none" xmlns="http://www.w3.org/2000/svg">
<g clip-path="url(#clip0_4984_1434)">
<path d="M8.74958 22.3801C8.74958 22.3801 8.30958 22.3101 7.81958 22.2901C6.07958 22.2301 4.03958 21.9601 3.88958 19.5501C3.67958 16.2501 3.74958 11.3001 3.83958 9.35014C3.89958 8.13014 4.35958 7.44014 5.00958 6.59014C5.64958 5.74014 7.74958 3.68014 8.64958 3.03014C9.55958 2.38014 10.4396 1.93014 11.4696 1.90014C12.4996 1.88014 15.0196 1.90014 16.8096 1.93014C18.5996 1.96014 20.0196 2.89014 20.1196 5.79014C20.1596 6.40014 20.2296 7.67014 20.2496 9.13014M3.79958 10.6601C3.88958 10.0101 3.72958 8.23014 5.96958 8.37014H8.10958C9.28958 8.37014 10.2496 7.41014 10.2496 6.21014V4.05014C10.2496 2.86014 11.2096 1.89014 12.3896 1.89014M17.1319 17.3052C17.1319 17.3052 17.0719 21.1052 17.1319 22.6851M12.7719 15.3853C12.7719 15.3853 16.8619 17.2152 17.1219 17.2152C17.3819 17.2152 21.5719 15.1853 21.5719 15.1853C21.5719 15.1853 17.6819 13.5953 17.0919 13.5953C16.5019 13.5953 12.6519 15.3353 12.6519 15.3353C12.6519 15.3353 11.1319 16.5952 11.2019 17.0352C11.3819 17.5352 14.8519 19.0352 15.2019 18.9852M12.9219 18.5952C12.8919 19.7252 12.8819 20.9752 13.0819 21.1952C13.4819 21.6452 16.5319 22.9051 17.0819 23.1251C17.1419 23.1451 17.2019 23.1451 17.2519 23.1251C17.8319 22.9151 21.0119 21.7652 21.5919 21.1952C21.8319 20.9552 21.9019 19.6352 21.8419 18.3652M18.9119 19.2952C20.0419 18.9752 22.4219 18.0252 23.1919 17.0652C23.3819 16.8252 21.6519 15.2353 21.6519 15.2353M17.4519 17.2152C17.5019 17.6752 18.6119 19.3052 18.8519 19.2352M15.3819 18.9452C15.7119 18.8952 16.8319 17.2152 16.8319 17.2152M12.762 15.0351L11.312 13.7351C11.162 13.5751 11.222 13.3151 11.422 13.2251L14.762 11.8352C14.942 11.7552 15.162 11.8052 15.302 11.9452L16.802 13.4451M17.252 13.4449L18.622 11.9549C18.762 11.8049 18.972 11.7549 19.162 11.8149L22.902 13.0149C23.132 13.0949 23.212 13.3849 23.052 13.5749L21.452 15.1848" stroke="#494A4A" stroke-width="1.5" stroke-linecap="round" stroke-linejoin="round"/>
</g>
<defs>
<clipPath id="clip0_4984_1434">
<rect width="24" height="24" fill="white"/>
</clipPath>
</defs>
</svg>
