<?xml version="1.0" encoding="UTF-8"?><svg id="ac" xmlns="http://www.w3.org/2000/svg" width="24" height="24" viewBox="0 0 24 24"><path d="M11.75,22.26c-.86,0-3.41-.02-3.91-.04-1.74-.06-3.78-.38-3.93-2.8-.21-3.3-.14-8.24-.05-10.19,.06-1.22,.53-1.91,1.17-2.76,.64-.85,2.74-2.9,3.65-3.56s1.79-1.1,2.82-1.13,3.56,0,5.35,.03,3.21,.96,3.32,3.86c.05,.74,.08,2.18,.1,4.07" style="fill:none; stroke:#445d82; stroke-linecap:round; stroke-linejoin:round; stroke-width:1.5px;"/><path d="M3.83,10.48c.09-.65-.07-2.42,2.15-2.28h2.12c1.17,0,2.12-.96,2.12-2.15V3.91c0-1.19,.95-2.15,2.12-2.15" style="fill:none; stroke:#445d82; stroke-linecap:round; stroke-linejoin:round; stroke-width:1.5px;"/><path d="M7.26,19.25v-6.11s2.94-.54,2.96,1.79c.02,2.33-2.45,1.35-2.45,1.35" style="fill:none; stroke:#445d82; stroke-linecap:round; stroke-linejoin:round; stroke-width:1.5px;"/><path d="M13.27,13.5v5.7s3.01,.7,3.01-2.92c0-3.45-3.01-2.97-3.01-2.97" style="fill:none; stroke:#445d82; stroke-linecap:round; stroke-linejoin:round; stroke-width:1.5px;"/><polyline points="19.25 19.25 19.25 13.28 22.21 13.28" style="fill:none; stroke:#445d82; stroke-linecap:round; stroke-linejoin:round; stroke-width:1.5px;"/><line x1="19.56" y1="16.27" x2="22.25" y2="16.27" style="fill:none; stroke:#445d82; stroke-linecap:round; stroke-linejoin:round; stroke-width:1.5px;"/></svg>