<svg width="24" height="24" viewBox="0 0 24 24" fill="none" xmlns="http://www.w3.org/2000/svg">
<g clip-path="url(#clip0_5050_1310)">
<g clip-path="url(#clip1_5050_1310)">
<path d="M9.21958 22.1802C8.35958 22.1802 8.30958 22.1602 7.81958 22.1402C6.07958 22.0802 4.03958 21.8102 3.88958 19.4002C3.67958 16.1002 3.74958 11.1502 3.83958 9.20023C3.89958 7.98023 4.35958 7.29023 5.00958 6.44023C5.64958 5.59023 7.74958 3.53023 8.64958 2.88023C9.54958 2.23023 10.4396 1.78023 11.4696 1.75023C12.4996 1.73023 15.0196 1.75023 16.8096 1.78023C18.5996 1.81023 20.0196 2.74023 20.1196 5.64023C20.1596 6.25023 20.2096 6.42023 20.2296 7.88023M3.79958 10.5102C3.88958 9.86023 3.72958 8.08023 5.96958 8.22023H8.10958C9.28958 8.22023 10.2496 7.26023 10.2496 6.06023V3.90023C10.2496 2.71023 11.2096 1.74023 12.3896 1.74023M15.3996 14.7402C16.1896 14.7402 16.0896 15.9602 15.2996 15.9602C14.5096 15.9602 14.5096 14.7402 15.2996 14.7402M12.0096 16.4302C12.0896 16.8002 18.4296 23.2602 18.8396 23.2602C19.2496 23.2602 23.3096 19.2202 23.2496 18.8502C23.1896 18.4802 16.9596 12.1602 16.4196 12.0202C15.8796 11.8802 12.6596 12.3102 12.4496 12.6602C12.2396 13.0102 11.9296 16.0702 12.0096 16.4302Z" stroke="#494A4A" stroke-width="1.5" stroke-linecap="round" stroke-linejoin="round"/>
</g>
</g>
<defs>
<clipPath id="clip0_5050_1310">
<rect width="24" height="24" fill="white"/>
</clipPath>
<clipPath id="clip1_5050_1310">
<rect width="24" height="24" fill="white"/>
</clipPath>
</defs>
</svg>
