<?xml version="1.0" encoding="UTF-8"?><svg id="b" xmlns="http://www.w3.org/2000/svg" width="24" height="24" viewBox="0 0 24 24"><g id="c"><rect width="24" height="24" style="fill:none;"/><line x1="12.74" y1="7.75" x2="16.24" y2="7.75" style="fill:none; stroke:#445d82; stroke-linecap:round; stroke-linejoin:round; stroke-width:1.5px;"/><line x1="6.74" y1="11.75" x2="9.24" y2="11.75" style="fill:none; stroke:#445d82; stroke-linecap:round; stroke-linejoin:round; stroke-width:1.5px;"/><line x1="6.74" y1="15.75" x2="7.74" y2="15.75" style="fill:none; stroke:#445d82; stroke-linecap:round; stroke-linejoin:round; stroke-width:1.5px;"/><path d="m12,22.18c-.86,0-3.69-.02-4.18-.04-1.74-.06-3.78-.33-3.93-2.74-.21-3.3-.14-8.25-.05-10.2.06-1.22.52-1.91,1.17-2.76.64-.85,2.74-2.91,3.64-3.56s1.79-1.1,2.82-1.13c1.03-.02,3.55,0,5.34.03s3.21.96,3.31,3.86c.04.61.09,3.14.11,4.6" style="fill:none; stroke:#445d82; stroke-linecap:round; stroke-linejoin:round; stroke-width:1.5px;"/><path d="m3.8,10.51c.09-.65-.07-2.43,2.17-2.29h2.14c1.18,0,2.14-.96,2.14-2.16v-2.16c0-1.19.96-2.16,2.14-2.16" style="fill:none; stroke:#445d82; stroke-linecap:round; stroke-linejoin:round; stroke-width:1.5px;"/></g><g id="d"><path d="m12.26,16.52c.08.35,6.13,6.53,6.53,6.53s4.27-3.86,4.21-4.21-6.01-6.39-6.53-6.53-3.59.27-3.79.61-.5,3.25-.42,3.6Z" style="fill:none; stroke:#445d82; stroke-linecap:round; stroke-linejoin:round; stroke-width:1.5px;"/><path d="m15.5,14.89c.75,0,.66,1.17-.09,1.17s-.75-1.17,0-1.17" style="fill:none; stroke:#445d82; stroke-linecap:round; stroke-linejoin:round; stroke-width:1.5px;"/></g></svg>