<?xml version="1.0" encoding="UTF-8"?><svg id="b" xmlns="http://www.w3.org/2000/svg" width="24" height="24" viewBox="0 0 24 24"><rect id="c" x="0" width="24.01" height="24.01" style="fill:rgba(250,169,53,0);"/><path d="M4.84,6.73c-2.12,.58-2.27,2.7-1.95,6.75,.05,.64,.36,3.87,.47,4.57,.64,4,2.01,4.02,7.5,4.12,7.71,.16,9.09,1.23,9.82-7.37,.46-5.54,1.53-8.47-1.69-8.87" style="fill:none; stroke:#505f7a; stroke-linecap:round; stroke-linejoin:round; stroke-width:1.5px;"/><path d="M10.98,7.33c.72,4.18-5.56,5.86-6.2,.75-.42-3.36,5.48-5.07,6.2-.75Z" style="fill:none; stroke:#505f7a; stroke-linecap:round; stroke-linejoin:round; stroke-width:1.5px;"/><path d="M8.28,8.06c.08,.49-.64,.68-.71,.08-.07-.38,.68-.38,.71-.08Z" style="fill:none; stroke:#505f7a; stroke-linecap:round; stroke-linejoin:round; stroke-width:1.5px;"/><path d="M16.24,7.47c.08,.49-.64,.68-.71,.08-.07-.38,.68-.38,.71-.08Z" style="fill:none; stroke:#505f7a; stroke-linecap:round; stroke-linejoin:round; stroke-width:1.5px;"/><path d="M19.2,6.89c.45,2.64-1.49,4.34-3.45,4.36-1.53,.01-3.06-1-3.46-3.4-.73-4.29,6.03-6.07,6.91-.96Z" style="fill:none; stroke:#505f7a; stroke-linecap:round; stroke-linejoin:round; stroke-width:1.5px;"/><path d="M4.76,3.28c.38-.49,3.01-2.17,3.47-1.21" style="fill:none; stroke:#505f7a; stroke-linecap:round; stroke-linejoin:round; stroke-width:1.5px;"/><path d="M14.78,1.34c.32-1.6,3.47,.59,3.47,.59" style="fill:none; stroke:#505f7a; stroke-linecap:round; stroke-linejoin:round; stroke-width:1.5px;"/><path d="M2.5,12.71s-1.71,.34-1.71,1.04-.09,2.1,0,2.41c.26,.83,1.94,1.17,2.46,1.34" style="fill:none; stroke:#505f7a; stroke-linecap:round; stroke-linejoin:round; stroke-width:1.5px;"/><path d="M20.75,17.75s1.94-.25,2.12-.78,.36-2.23,.36-2.5c0-.75-1.59-1.61-2-1.87" style="fill:none; stroke:#505f7a; stroke-linecap:round; stroke-linejoin:round; stroke-width:1.5px;"/><path d="M7.5,16.72c1.75,.75,7-.25,8.5,0" style="fill:none; stroke:#505f7a; stroke-linecap:round; stroke-linejoin:round; stroke-width:1.5px;"/></svg>