<?xml version="1.0" encoding="UTF-8"?><svg xmlns="http://www.w3.org/2000/svg" width="24" height="24" viewBox="0 0 24 24"><g id="gm"><path d="m22.21,4.99c0,3.02-2.58,6.27-3.23,6.27s-3.23-2.81-3.23-6.27c0-2.16,1.68-3.24,3.23-3.24s3.23,1.08,3.23,3.24Z" style="fill:none; stroke:#445d82; stroke-linecap:round; stroke-linejoin:round; stroke-width:1.5px;"/><circle cx="18.99" cy="5" r=".75" style="fill:none; stroke:#445d82; stroke-linecap:round; stroke-linejoin:round; stroke-width:1.5px;"/></g><g id="jd"><g id="je" style="opacity:0;"><rect x="5" y="5" width="14" height="14" style="fill:#de4c59;"/><path d="m14,10v4h-4v-4h4M24,0H0v24h24V0h0Z" style="fill:#505f7a;"/></g><circle cx="4.49" cy="19.5" r="2.75" style="fill:none; stroke:#445d82; stroke-linecap:round; stroke-linejoin:round; stroke-width:1.5px;"/><path d="m7.24,20c2.75-.25,11,1.33,12.25,1.25,4-.25,3.5-6-.75-6s-6.77.25-8.75,0-2.5-4.5,1.5-4.5c2.5,0,3.5.5,3.5.5" style="fill:none; stroke:#445d82; stroke-linecap:round; stroke-linejoin:round; stroke-width:1.5px;"/></g></svg>