<?xml version="1.0" encoding="UTF-8"?><svg id="dy" xmlns="http://www.w3.org/2000/svg" width="24" height="24" viewBox="0 0 24 24"><path d="M2.77,12.75c0,7.11-.01,9.32,4.26,9.46,2.98,.1,6.1,0,8.13,0,5.08,0,6.1-.99,6.07-6.35-.01-2.07,.03-5.94,.03-7.57,0-5.05-2.79-4.5-7.26-4.5-9.03,0-10.62-.03-11.74-.03" style="fill:none; stroke:#445d82; stroke-linecap:round; stroke-linejoin:round; stroke-width:1.5px;"/><line x1="8.79" y1="9.78" x2="15.21" y2="16.23" style="fill:none; stroke:#445d82; stroke-linecap:round; stroke-linejoin:round; stroke-width:1.5px;"/><line x1="15.24" y1="9.76" x2="8.77" y2="16.24" style="fill:none; stroke:#445d82; stroke-linecap:round; stroke-linejoin:round; stroke-width:1.5px;"/><path d="M5.25,7.25c-1.34-1.16-3.54-2.78-3.5-3.5S4.22,1.59,5.25,.75" style="fill:none; stroke:#445d82; stroke-linecap:round; stroke-linejoin:round; stroke-width:1.5px;"/></svg>