<?xml version="1.0" encoding="UTF-8"?><svg id="ge" xmlns="http://www.w3.org/2000/svg" width="24" height="24" viewBox="0 0 24 24"><path d="M9.96,22.26c-.86,0-1.62-.02-2.12-.04-1.74-.06-3.78-.38-3.93-2.8-.21-3.3-.14-8.24-.05-10.19,.06-1.22,.53-1.91,1.17-2.76,.64-.85,2.74-2.9,3.65-3.56s1.79-1.1,2.82-1.13,3.56,0,5.35,.03,3.21,.96,3.32,3.86c.05,.74,.08,1.3,.1,3.19" style="fill:none; stroke:#445d82; stroke-linecap:round; stroke-linejoin:round; stroke-width:1.5px;"/><path d="M16.93,11.79c3.65-.28,7.25,3.53,6.09,6.12-3.02,.11-4.47,.12-6.09,0-.27-.16-.19-4.81,0-6.12Z" style="fill:none; stroke:#445d82; stroke-linecap:round; stroke-linejoin:round; stroke-width:1.5px;"/><path d="M22.24,18.45c-.06,.7-.26,1.36-.56,1.95-.87,1.68-2.63,2.84-4.66,2.84-2.89,0-5.24-2.35-5.24-5.24,0-2.06,1.19-3.85,2.92-4.7,.58-.29,1.21-.47,1.89-.52" style="fill:none; stroke:#445d82; stroke-linecap:round; stroke-linejoin:round; stroke-width:1.5px;"/><path d="M3.83,10.48c.09-.65-.07-2.42,2.15-2.28h2.12c1.17,0,2.12-.96,2.12-2.15V3.91c0-1.19,.95-2.15,2.12-2.15" style="fill:none; stroke:#445d82; stroke-linecap:round; stroke-linejoin:round; stroke-width:1.5px;"/></svg>