<?xml version="1.0" encoding="UTF-8"?><svg id="fw" xmlns="http://www.w3.org/2000/svg" width="24" height="24" viewBox="0 0 24 24"><path d="M14.76,21.21c-2.26,.16-6.36-.21-8.49-.57-1.13-.19-1.5-.42-1.49-1.84,.03-2.71,.39-8.52,.77-11.99,.26-2.39,.64-3.01,2.21-3.03,2-.02,5.29,.25,7.41,.57,1.61,.24,2.12,.63,2.1,2.33-.03,2.94-.33,8.43-.71,12.11-.21,2.02-.48,2.32-1.81,2.41Z" style="fill:none; stroke:#445d82; stroke-linecap:round; stroke-linejoin:round; stroke-width:1.5px;"/><path d="M20.45,6.3c.81,1.49,1.5,2.84,2.2,2.67s.59-1.13,.59-3.27" style="fill:none; stroke:#445d82; stroke-linecap:round; stroke-linejoin:round; stroke-width:1.5px;"/><path d="M15.45,.77c4.22,.17,6.4,1.52,6.84,7.02" style="fill:none; stroke:#445d82; stroke-linecap:round; stroke-linejoin:round; stroke-width:1.5px;"/></svg>