<?xml version="1.0" encoding="UTF-8"?><svg id="e" xmlns="http://www.w3.org/2000/svg" width="24" height="24" viewBox="0 0 24 24"><path d="m3.17,8.36C1.11,8.91-.27,3.99,1.81,3.17c2.59-1.02,4.4,1.45,4.49,4.04.19,5.63-1.7,8.35-1.07,12.49.2,1.32.73,2.24,1.35,2.8l3.1-1.7,3.76,1.7,3.06-2.5,3.75,1.25" style="fill:none; stroke:#445d82; stroke-linecap:round; stroke-linejoin:round; stroke-width:1.5px;"/><path d="m20.25,21.25c-2.04-4.33-.38-9.25.13-12.25.88-5.25-1.36-8.23-4.02-8.23,0,0-11.43,1.28-14.54,2.4" style="fill:none; stroke:#445d82; stroke-linecap:round; stroke-linejoin:round; stroke-width:1.5px;"/><path d="m3.17,8.36c1.56-.57,2.11-.68,3.11-.73" style="fill:none; stroke:#445d82; stroke-linecap:round; stroke-linejoin:round; stroke-width:1.5px;"/><path d="m9.47,6.8c.59-.12,3.43-.5,4.18-.6" style="fill:none; stroke:#445d82; stroke-linecap:round; stroke-linejoin:round; stroke-width:1.5px;"/><path d="m9.5,10.26c.91-.16,6.57-.95,7.1-1.04" style="fill:none; stroke:#445d82; stroke-linecap:round; stroke-linejoin:round; stroke-width:1.5px;"/><path d="m12.75,14s.75-3,.75-4" style="fill:none; stroke:#445d82; stroke-linecap:round; stroke-linejoin:round; stroke-width:1.5px;"/><path d="m12.25,17c1.43-.21,3.38-.6,3.95-.7" style="fill:none; stroke:#445d82; stroke-linecap:round; stroke-linejoin:round; stroke-width:1.5px;"/></svg>