<?xml version="1.0" encoding="UTF-8"?><svg id="w" xmlns="http://www.w3.org/2000/svg" width="24" height="24" viewBox="0 0 24 24"><path d="M7.77,6.82c.17-.68,.75-2.02,2.63-1.78,2.17,.27,2.58,3.03,.49,4.26-1.3,.76-1,2.47-1,2.47" style="fill:none; fill-rule:evenodd; stroke:#445d82; stroke-linecap:round; stroke-miterlimit:10; stroke-width:1.5px;"/><path d="M9.87,14.99c-.43,0-.41-.71,.02-.71,.5,0,.27,.71,0,.71" style="fill:none; fill-rule:evenodd; stroke:#445d82; stroke-linecap:round; stroke-miterlimit:10; stroke-width:1.5px;"/><path d="M18.24,9.59C18.56,4.4,13.67,.92,10.37,.76,3.95,.45,.75,5.25,.75,9.59s3.37,8.66,9.59,8.66c5.44,0,7.58-3.35,7.9-8.66Z" style="fill:none; stroke:#445d82; stroke-linecap:round; stroke-linejoin:round; stroke-width:1.5px;"/><line x1="16" y1="16.25" x2="18" y2="18" style="fill:none; stroke:#445d82; stroke-linecap:round; stroke-linejoin:round; stroke-width:1.5px;"/><path d="M18.29,20.44c1.12,1.21,3.13,3.87,4.54,2.34s-1.07-3.26-2.27-4.39c-1.83-1.72-3.77,.44-2.27,2.05Z" style="fill:none; stroke:#445d82; stroke-linecap:round; stroke-linejoin:round; stroke-width:1.5px;"/></svg>