<?xml version="1.0" encoding="UTF-8"?><svg id="gq" xmlns="http://www.w3.org/2000/svg" width="24" height="24" viewBox="0 0 24 24"><path d="M7.47,16.24c-.4,1.48-2.5,4.5-2.69,5.08s2.74,.17,3.09,.21,1.74,1.38,2.07,1.69,1.92-3.63,2.07-5.69" style="fill:none; stroke:#445d82; stroke-linecap:round; stroke-linejoin:round; stroke-width:1.5px;"/><path d="M16.41,15.97c.4,1.48,2.63,4.8,2.83,5.39s-2.74,.13-3.1,.17-1.74,1.38-2.07,1.69-1.92-3.63-2.07-5.69" style="fill:none; stroke:#445d82; stroke-linecap:round; stroke-linejoin:round; stroke-width:1.5px;"/><ellipse cx="12.01" cy="9" rx="8.23" ry="8.25" style="fill:none; stroke:#445d82; stroke-linecap:round; stroke-linejoin:round; stroke-width:1.5px;"/><path d="M12.65,4.74l.78,1.61c.11,.22,.31,.37,.63,.41l1.73,.26c.52,.09,.76,.84,.33,1.28l-1.25,1.25c-.17,.17-.25,.42-.21,.66l.3,1.77c.1,.61-.52,1.08-1.06,.79l-1.55-.84c-.21-.11-.47-.11-.68,0l-1.55,.84c-.54,.29-1.16-.18-1.06-.79l.3-1.77c.04-.24-.04-.49-.21-.66l-1.25-1.25c-.43-.43-.19-1.19,.4-1.28l1.73-.26c.24-.04,.44-.19,.55-.41l.78-1.61c.27-.56,1.04-.56,1.31,0Z" style="fill:none; stroke:#445d82; stroke-linecap:round; stroke-linejoin:round; stroke-width:1.5px;"/></svg>