<?xml version="1.0" encoding="UTF-8"?><svg id="d" xmlns="http://www.w3.org/2000/svg" width="24" height="24" viewBox="0 0 24 24"><path d="m6.19,6.75c-.59,2-3.19,13.4-3.44,15.5" style="fill:none; stroke:#445d82; stroke-linecap:round; stroke-linejoin:round; stroke-width:1.5px;"/><path d="m17.73,6.75c.63,1.69,3.29,12.85,3.52,15.5" style="fill:none; stroke:#445d82; stroke-linecap:round; stroke-linejoin:round; stroke-width:1.5px;"/><line x1="2.75" y1="3.85" x2="2.75" y2="8.25" style="fill:none; stroke:#445d82; stroke-linecap:round; stroke-linejoin:round; stroke-width:1.5px;"/><path d="m21.25,3.85s.15,3.03,0,4.4" style="fill:none; stroke:#445d82; stroke-linecap:round; stroke-linejoin:round; stroke-width:1.5px;"/><path d="m1.75,3.86c1.58-.25,20.5,0,20.5,0" style="fill:none; stroke:#445d82; stroke-linecap:round; stroke-linejoin:round; stroke-width:1.5px;"/><path d="m11.98,8.75c-.02,1.89.13,3.42-.02,4.67" style="fill:none; stroke:#445d82; stroke-linecap:round; stroke-linejoin:round; stroke-width:1.5px;"/><path d="m12.04,16.92c-.07.97-.06,3.58-.06,3.58" style="fill:none; stroke:#445d82; stroke-linecap:round; stroke-linejoin:round; stroke-width:1.5px;"/><path d="m5.5,3s-.1-1,.2-1.25,3.29-.25,3.54,0,.25,1.25.25,1.25" style="fill:none; stroke:#445d82; stroke-linecap:round; stroke-linejoin:round; stroke-width:1.5px;"/><path d="m15.5,3s.03-1,.27-1.25,3.26-.25,3.62,0,.36,1.25.36,1.25" style="fill:none; stroke:#445d82; stroke-linecap:round; stroke-linejoin:round; stroke-width:1.5px;"/></svg>