<?xml version="1.0" encoding="UTF-8"?><svg id="k" xmlns="http://www.w3.org/2000/svg" width="24" height="24" viewBox="0 0 24 24"><g id="l"><path d="M23.22,10.24c.04-1.57,.02-3.02-.04-3.66-.28-2.78-2.07-4.03-4.44-4.41-2.21-.35-13.93-.91-16.38,.7C.24,4.27,.74,12.3,1.06,14.41s.92,3.59,2.27,4.32c1.12,.61,6.94,.5,6.94,.5" style="fill:none; stroke:#505f7a; stroke-linecap:round; stroke-linejoin:round; stroke-width:1.5px;"/></g><g><path d="M13.91,18.82s3.56-3.72,5.89-5.73c.5-.46,1.07-.41,1.48,0l1.66,1.65c.41,.41,.35,.92,0,1.47s-5.19,5.69-6.35,6.42c-.43,.27-.73,.46-1.09,.55s-1.66,0-1.66,0c-.58,0-1.04-.47-1.04-1.04,0,0-.05-1.22,0-1.65s1.12-1.67,1.12-1.67Z" style="fill:none; stroke:#505f7a; stroke-miterlimit:10; stroke-width:1.5px;"/><line x1="17.89" y1="14.86" x2="21.02" y2="17.98" style="fill:none; stroke:#505f7a; stroke-miterlimit:10; stroke-width:1.5px;"/></g><path d="M4.78,7.8c3.83,.06,12.47,0,12.47,0" style="fill:none; stroke:#505f7a; stroke-linecap:round; stroke-linejoin:round; stroke-width:1.5px;"/><path d="M4.78,12.75c3.83,.06,7.42,0,7.42,0" style="fill:none; stroke:#505f7a; stroke-linecap:round; stroke-linejoin:round; stroke-width:1.5px;"/></svg>