<?xml version="1.0" encoding="UTF-8"?><svg id="o" xmlns="http://www.w3.org/2000/svg" width="24" height="24" viewBox="0 0 24 24"><path d="M1.75,12.16s3.76,.2,3.84,0c.07-.18-.19-7.08,0-7.29s5.12,0,5.12,0" style="fill:none; stroke:#445d82; stroke-linecap:round; stroke-linejoin:round; stroke-width:1.5px;"/><path d="M21.97,2.14c.38,.38,.33,6.73,0,6.89s-6.48,.39-6.86,0-.52-6.37,0-6.89c.52-.52,6.49-.38,6.86,0Z" style="fill:none; stroke:#445d82; stroke-linecap:round; stroke-miterlimit:10; stroke-width:1.5px;"/><path d="M21.97,15.1c.38,.38,.33,6.74,0,6.9s-6.48,.39-6.86,0-.52-6.38,0-6.9,6.49-.38,6.86,0Z" style="fill:none; stroke:#445d82; stroke-linecap:round; stroke-miterlimit:10; stroke-width:1.5px;"/><line x1="10.75" y1="18.75" x2="11.75" y2="18.75" style="fill:none; stroke:#445d82; stroke-linecap:round; stroke-linejoin:round; stroke-width:1.5px;"/><line x1="6.75" y1="18.75" x2="7.75" y2="18.75" style="fill:none; stroke:#445d82; stroke-linecap:round; stroke-linejoin:round; stroke-width:1.5px;"/><line x1="5.5" y1="15.25" x2="5.5" y2="16.25" style="fill:none; stroke:#445d82; stroke-linecap:round; stroke-linejoin:round; stroke-width:1.5px;"/><path d="M8.72,2c1.07,.75,3.08,2.46,3.03,3.15s-2.12,2.25-3.08,2.85" style="fill:none; stroke:#445d82; stroke-linecap:round; stroke-linejoin:round; stroke-width:1.5px;"/></svg>