<?xml version="1.0" encoding="UTF-8"?><svg id="go" xmlns="http://www.w3.org/2000/svg" width="24" height="24" viewBox="0 0 24 24"><path d="M1.81,18.95c0,3.31,2.41,2.97,4,3.15s8.6,0,12.48,0c3.18,0,3.69-1.88,3.88-3.18s0-12.22,0-13.24-3.53-3.91-4.18-3.91H4.9c-1.21,0-2.83,.47-3.03,2.08s-.07,13.27-.07,15.1Z" style="fill:none; stroke:#445d82; stroke-linecap:round; stroke-linejoin:round; stroke-width:1.5px;"/><path d="M16.01,1.83c.35,.79,.39,7.2-.34,7.92-.72,.72-9.78,.72-10.39,0-.61-.72-.68-7.28-.29-7.86" style="fill:none; stroke:#445d82; stroke-linecap:round; stroke-linejoin:round; stroke-width:1.5px;"/><path d="M5.74,14.71c1.52,.03,9.78,.11,10.52,.04" style="fill:none; stroke:#445d82; stroke-linecap:round; stroke-linejoin:round; stroke-width:1.5px;"/><path d="M5.77,17.78c1.11,.02,5.76,0,6.47,0" style="fill:none; stroke:#445d82; stroke-linecap:round; stroke-linejoin:round; stroke-width:1.5px;"/><path d="M12.52,4.31c.07,.65,.03,2.63,0,3.06" style="fill:none; stroke:#445d82; stroke-linecap:round; stroke-linejoin:round; stroke-width:1.5px;"/></svg>