<?xml version="1.0" encoding="UTF-8"?><svg id="as" xmlns="http://www.w3.org/2000/svg" width="24" height="24" viewBox="0 0 24 24"><path id="at" d="M20.7,5.48c1.62-.02,2.59,.8,2.54,2.46-.07,2.12-.77,4.04-1.6,5.3-.64,.97-1.5,1.74-2.59,2.17-1.61,.63-10.22,.83-12.06,.65-1.19-.12-1.51-.56-1.57-1.65-.06-1.21-.21-5.9-1.6-10.06,2.89,1.09,13.77,1.17,16.87,1.14Z" style="fill:none; stroke:#445d82; stroke-linecap:round; stroke-linejoin:round; stroke-width:1.5px;"/><path id="au" d="M2.35,1.85c-.71-.18-1.39,.94-1.57,.39s1.01-.55,1.57-.39Z" style="fill:none; stroke:#445d82; stroke-linecap:round; stroke-linejoin:round; stroke-width:1.5px;"/><path d="M3.83,4.34c-.36-1.19-.79-2.3-1.48-2.49" style="fill:none; stroke:#445d82; stroke-linecap:round; stroke-linejoin:round; stroke-width:1.5px;"/><path d="M16.92,12.63c0,.81-1.35,1.05-1.35,.06,0-.84,1.35-.99,1.35,0" style="fill:none; stroke:#445d82; stroke-linecap:round; stroke-linejoin:round; stroke-width:1.5px;"/><path d="M19.43,8.67c0,.81-1.35,1.05-1.35,.06,0-.84,1.35-.99,1.35,0" style="fill:none; stroke:#445d82; stroke-linecap:round; stroke-linejoin:round; stroke-width:1.5px;"/><path d="M14.51,8.67c0,.81-1.35,1.05-1.35,.06,0-.84,1.35-.99,1.35,0" style="fill:none; stroke:#445d82; stroke-linecap:round; stroke-linejoin:round; stroke-width:1.5px;"/><path d="M9.92,8.67c0,.81-1.35,1.05-1.35,.06,0-.84,1.35-.99,1.35,0" style="fill:none; stroke:#445d82; stroke-linecap:round; stroke-linejoin:round; stroke-width:1.5px;"/><path d="M11.85,12.44c0,.81-1.35,1.05-1.35,.06,0-.84,1.35-.99,1.35,0" style="fill:none; stroke:#445d82; stroke-linecap:round; stroke-linejoin:round; stroke-width:1.5px;"/><path d="M5.42,14.3c.01,.71,.06,1.44,.07,1.75,.05,1.33,.32,1.84,1.17,2.09,1.44,.43,6.98,.37,8.43,.38,.94,0,1.71,.34,2.14,.99" style="fill:none; stroke:#445d82; stroke-linecap:round; stroke-linejoin:round; stroke-width:1.5px;"/><path d="M8.62,22.24c-1.01,0-1.9-2.03,.09-2.03,1.67,0,1.25,2.03,0,2.03" style="fill:none; stroke:#445d82; stroke-linecap:round; stroke-linejoin:round; stroke-width:1.5px;"/><path d="M14.59,22.24c-1.6,0-1.48-2.03,.06-2.03,1.24,0,1.02,2.04,0,2.03" style="fill:none; stroke:#445d82; stroke-linecap:round; stroke-linejoin:round; stroke-width:1.5px;"/></svg>