<svg width="24" height="24" viewBox="0 0 24 24" fill="none" xmlns="http://www.w3.org/2000/svg">
<path d="M11.9102 12.0902C11.9102 12.0902 11.8002 19.0402 11.9102 21.9202M3.9502 8.57016C3.9502 8.57016 11.4302 11.9102 11.8902 11.9102C12.3502 11.9102 20.0202 8.20016 20.0202 8.20016C20.0202 8.20016 12.9202 5.29016 11.8402 5.29016C10.7602 5.29016 3.7202 8.48015 3.7202 8.48015C3.7202 8.48015 0.950196 10.7902 1.0702 11.5902C1.4002 12.5102 7.7402 15.2502 8.3902 15.1502M4.2202 14.4302C4.1602 16.5002 4.1502 18.7902 4.5002 19.1902C5.2402 20.0002 10.8102 22.3102 11.8102 22.7202C11.9202 22.7602 12.0202 22.7602 12.1202 22.7202C13.1702 22.3402 18.9902 20.2402 20.0502 19.1902C20.4902 18.7502 20.6202 16.3302 20.5102 14.0202M15.1502 15.7302C17.2202 15.1502 21.5602 13.4002 22.9802 11.6502C23.3302 11.2202 20.1602 8.31016 20.1602 8.31016M12.4902 11.9202C12.5802 12.7502 14.6102 15.7402 15.0502 15.6202M8.7002 15.0902C9.3102 14.9902 11.3502 11.9202 11.3502 11.9202M3.9302 7.94016L1.2902 5.56016C1.0202 5.26016 1.1202 4.78016 1.5002 4.63016L7.6102 2.08016C7.9502 1.94016 8.3302 2.02016 8.5902 2.28016L11.3402 5.03016M12.1302 5.03016L14.6302 2.30016C14.8802 2.03016 15.2602 1.93016 15.6102 2.05016L22.4402 4.24016C22.8702 4.38016 23.0202 4.91016 22.7202 5.26016L19.7902 8.21016" stroke="#494A4A" stroke-width="1.5" stroke-linecap="round" stroke-linejoin="round"/>
</svg>
