<?xml version="1.0" encoding="UTF-8"?><svg id="v" xmlns="http://www.w3.org/2000/svg" width="24" height="24" viewBox="0 0 24 24"><path d="M15.25,23.23l-2.23-2.47c-.82,0-1.23,0-2.04,0l-2.23,2.47q-1.2-.5-2.4-.99l.17-3.32c-.58-.58-.87-.87-1.45-1.45l-3.32,.17-.99-2.4,2.47-2.23v-2.04S.76,8.74,.76,8.74q.5-1.2,.99-2.4l3.32,.17,1.45-1.45-.17-3.32,2.4-.99,2.23,2.47h2.04S15.25,.76,15.25,.76q1.2,.5,2.4,.99l-.17,3.32,1.45,1.45,3.32-.17,.99,2.4-2.47,2.23v2.04s2.47,2.23,2.47,2.23l-.99,2.4-3.32-.17-1.45,1.45,.17,3.32-2.4,.99Z" style="fill:none; stroke:#445d82; stroke-linecap:round; stroke-linejoin:round; stroke-width:1.5px;"/><path d="M15.52,9.15c-1.64,2.12-2.74,3.38-4.19,5.28-.28,.37-.44,.47-.84,.44-.34-.02-.75-.48-1.19-1.21-.24-.4-.52-.85-.83-1.42" style="fill:none; stroke:#445d82; stroke-linecap:round; stroke-linejoin:round; stroke-width:1.5px;"/></svg>