<?xml version="1.0" encoding="UTF-8"?><svg id="cf" xmlns="http://www.w3.org/2000/svg" width="24" height="24" viewBox="0 0 24 24"><path d="M18.61,4.13l1.15,1.06s1.86-.12,3.06-1.26c.45-.43,.88-.61-.64-1.97-1.66-1.48-1.74-1.44-2.44-.77-1.04,.99-1.13,2.94-1.13,2.94Z" style="fill:none; stroke:#445d82; stroke-linecap:round; stroke-linejoin:round; stroke-width:1.5px;"/><path d="M14.86,5.25c.09-1.04,.21-2.5-1.11-3.25" style="fill:none; stroke:#445d82; stroke-linecap:round; stroke-linejoin:round; stroke-width:1.5px;"/><path d="M18.5,8.93c1.01-.26,2.43-.62,3.39,.57" style="fill:none; stroke:#445d82; stroke-linecap:round; stroke-linejoin:round; stroke-width:1.5px;"/><line x1="17.5" y1="6.25" x2="16.73" y2="7.04" style="fill:none; stroke:#445d82; stroke-linecap:round; stroke-linejoin:round; stroke-width:1.5px;"/><path d="M7.99,12.9C2.53,14.49,.75,18.77,.75,19.25c0,1.08,2.57,3.51,4,4,.38,.13,4.94-2.16,6.78-8.07,1.07-3.46,3.22-3.92,3.22-3.92l1.4-1.14-2.72-2.57-1.17,1.44s-1.45,3.09-4.26,3.91Z" style="fill:none; stroke:#445d82; stroke-linecap:round; stroke-linejoin:round; stroke-width:1.5px;"/><line x1="2.77" y1="17.46" x2="6.51" y2="21.26" style="fill:none; stroke:#445d82; stroke-linecap:round; stroke-linejoin:round; stroke-width:1.5px;"/><line x1="5.26" y1="14.75" x2="9" y2="18.55" style="fill:none; stroke:#445d82; stroke-linecap:round; stroke-linejoin:round; stroke-width:1.5px;"/></svg>