<?xml version="1.0" encoding="UTF-8"?><svg id="cw" xmlns="http://www.w3.org/2000/svg" width="24" height="24" viewBox="0 0 24 24"><path d="M6.9,4.77c-2,.04-4.51-.05-4.78,1.8-.39,2.62-.47,9.88-.16,12.19,.21,1.55,1.21,2.4,3.62,2.54,2.41,.14,14.57-.23,14.75-.29s1.56,.27,1.76-2.69,.17-8.99,.11-9.97-.66-3.58-3.2-3.58-10.51-.03-12.1,0Z" style="fill:none; stroke:#445d82; stroke-linecap:round; stroke-linejoin:round; stroke-width:1.5px;"/><path d="M16.65,8.03s-.12,3.94-.12,5.04,.12,5.04,.12,5.04" style="fill:none; stroke:#445d82; stroke-linecap:round; stroke-linejoin:round; stroke-width:1.5px;"/><path d="M7.3,8.03s.12,3.94,.12,5.04-.12,5.04-.12,5.04" style="fill:none; stroke:#445d82; stroke-linecap:round; stroke-linejoin:round; stroke-width:1.5px;"/><line x1="4.85" y1="22.23" x2="4.85" y2="21.37" style="fill:none; stroke:#445d82; stroke-linecap:round; stroke-linejoin:round; stroke-width:1.5px;"/><line x1="19.17" y1="22.23" x2="19.17" y2="21.25" style="fill:none; stroke:#445d82; stroke-linecap:round; stroke-linejoin:round; stroke-width:1.5px;"/><path d="M7.95,4.39c0-1.72,.48-2.65,4.08-2.65,2.72,0,4,.65,4.08,2.65" style="fill:none; stroke:#445d82; stroke-linecap:round; stroke-linejoin:round; stroke-width:1.5px;"/></svg>