<?xml version="1.0" encoding="UTF-8"?><svg id="b" xmlns="http://www.w3.org/2000/svg" width="24" height="24" viewBox="0 0 24 24"><g id="c"><rect width="24" height="24" style="fill:none;"/><path d="m11.75,13.83c0-.74.4-2.17,1.47-2.17s1.74.91,1.74,1.99-.54,2.35-1.47,2.35-1.74-.72-1.74-2.17Z" style="fill:none; stroke:#494a4a; stroke-linecap:round; stroke-linejoin:round; stroke-width:1.5px;"/><path d="m3.5,17.89v-8.12c0-.84.63-1.52,1.25-1.52h16.75c.63,0,1.37.69,1.37,1.53v8.08c0,.85-.74,1.54-1.37,1.54H5c-.62,0-1.5-.68-1.5-1.52Z" style="fill:none; stroke:#494a4a; stroke-linecap:round; stroke-linejoin:round; stroke-width:1.5px;"/><path d="m2.96,16.41h-.83c-.63,0-1.13-.69-1.13-1.53V6.79c0-.85.51-1.54,1.14-1.54h17.11c.62,0,1.12.68,1.12,1.52v.91" style="fill:none; stroke:#494a4a; stroke-linecap:round; stroke-linejoin:round; stroke-width:1.5px;"/><polyline points="6.07 12.4 6.07 10.68 9 10.68" style="fill:none; stroke:#494a4a; stroke-linecap:round; stroke-linejoin:round; stroke-width:1.5px;"/><polyline points="7.68 16.9 6.07 16.9 6.07 15.28" style="fill:none; stroke:#494a4a; stroke-linecap:round; stroke-linejoin:round; stroke-width:1.5px;"/><polyline points="20.2 15.18 20.2 16.9 17 16.9" style="fill:none; stroke:#494a4a; stroke-linecap:round; stroke-linejoin:round; stroke-width:1.5px;"/><polyline points="18.6 10.68 20.2 10.68 20.2 12.31" style="fill:none; stroke:#494a4a; stroke-linecap:round; stroke-linejoin:round; stroke-width:1.5px;"/></g></svg>