<svg width="24" height="24" viewBox="0 0 24 24" fill="none" xmlns="http://www.w3.org/2000/svg">
<path d="M11.9998 15.25C13.7947 15.25 15.2498 13.7949 15.2498 12C15.2498 10.2051 13.7947 8.75001 11.9998 8.75001C10.2048 8.75001 8.74977 10.2051 8.74977 12C8.74977 13.7949 10.2048 15.25 11.9998 15.25Z" stroke="#494A4A" stroke-width="1.5" stroke-linecap="round" stroke-linejoin="round"/>
<path d="M15.2498 23.24L13.0198 20.77C12.1998 20.77 11.7898 20.77 10.9798 20.77L8.74977 23.24C7.94977 22.9067 7.14977 22.5767 6.34977 22.25L6.51977 18.93C5.93977 18.35 5.64977 18.06 5.06977 17.48L1.74977 17.65L0.759766 15.25L3.22977 13.02V10.98L0.759766 8.75001C1.0931 7.95001 1.4231 7.15001 1.74977 6.35001L5.06977 6.52001C5.64977 5.94001 5.93977 5.65001 6.51977 5.07001L6.34977 1.75001L8.74977 0.76001L10.9798 3.23001H13.0198L15.2498 0.77001C16.0498 1.10334 16.8498 1.43334 17.6498 1.76001L17.4798 5.08001L18.9298 6.53001L22.2498 6.36001L23.2398 8.76001L20.7698 10.99V13.03L23.2398 15.26L22.2498 17.66L18.9298 17.49L17.4798 18.94L17.6498 22.26L15.2498 23.25V23.24Z" stroke="#494A4A" stroke-width="1.5" stroke-linecap="round" stroke-linejoin="round"/>
</svg>
