<?xml version="1.0" encoding="UTF-8"?><svg id="cc" xmlns="http://www.w3.org/2000/svg" width="24" height="24" viewBox="0 0 24 24"><line x1="13.75" y1="3.75" x2="21.25" y2="3.75" style="fill:none; stroke:#445d82; stroke-linecap:round; stroke-linejoin:round; stroke-width:1.5px;"/><line x1="13.75" y1="7.75" x2="18.24" y2="7.75" style="fill:none; stroke:#445d82; stroke-linecap:round; stroke-linejoin:round; stroke-width:1.5px;"/><line x1="13.75" y1="15.75" x2="21.25" y2="15.75" style="fill:none; stroke:#445d82; stroke-linecap:round; stroke-linejoin:round; stroke-width:1.5px;"/><line x1="13.75" y1="19.75" x2="18.25" y2="19.75" style="fill:none; stroke:#445d82; stroke-linecap:round; stroke-linejoin:round; stroke-width:1.5px;"/><path d="M1.88,15.65c.11-1.09,.32-1.71,1.48-1.82,1.16-.11,4.82-.08,5.4,0s1.37,.26,1.44,1.44,.03,3.55,.01,4.63c-.04,2.03-.35,2.22-2.27,2.22,0,0-3.75,.11-4.59,.05-.6-.04-1.42-.08-1.47-1.81-.02-.7-.16-3.21-.01-4.71Z" style="fill:none; stroke:#445d82; stroke-linecap:round; stroke-linejoin:round; stroke-width:1.5px;"/><path d="M10.23,6.02c0,.75-.02,1.45-.02,1.92-.04,2.03-.35,2.23-2.27,2.23,0,0-3.76,.11-4.59,.05-.6-.04-1.43-.08-1.47-1.81-.02-.7-.16-3.22-.01-4.72,.11-1.09,.32-1.72,1.48-1.83,.54-.05,1.61-.07,2.67-.07" style="fill:none; stroke:#445d82; stroke-linecap:round; stroke-linejoin:round; stroke-width:1.5px;"/><path d="M4.77,5.09c.45,.47,1.14,1.15,1.48,1.15,.53,0,3.95-5.43,3.95-5.43" style="fill:none; stroke:#445d82; stroke-linecap:round; stroke-linejoin:round; stroke-width:1.5px;"/></svg>