<?xml version="1.0" encoding="UTF-8"?><svg id="bb" xmlns="http://www.w3.org/2000/svg" width="24" height="24" viewBox="0 0 24 24"><line x1="7.75" y1="8.75" x2="14.25" y2="8.75" style="fill:none; stroke:#445d82; stroke-linecap:round; stroke-linejoin:round; stroke-width:1.5px;"/><line x1="7.75" y1="13.03" x2="10.25" y2="13.03" style="fill:none; stroke:#445d82; stroke-linecap:round; stroke-linejoin:round; stroke-width:1.5px;"/><line x1="7.75" y1="17.25" x2="8.75" y2="17.25" style="fill:none; stroke:#445d82; stroke-linecap:round; stroke-linejoin:round; stroke-width:1.5px;"/><path d="M15.6,3.75h-7.18c-.28,0-.51-.17-.51-.45v-1.02c0-.28,.23-.51,.51-.51h7.18c.28,0,.51,.23,.51,.51v1.02c0,.28-.23,.45-.51,.45Z" style="fill:none; stroke:#445d82; stroke-linecap:round; stroke-linejoin:round; stroke-width:1.5px;"/><path d="M9.25,22.25h-2.23s-2.74,0-3.04-3.08c-.28-2.8-.28-11.36,0-13.31,.19-1.32,1.37-3.07,3.04-3.07h10.15c1.67,0,2.87,.35,3.04,3.07,.06,.86,.05,2.55,.04,3.39" style="fill:none; stroke:#445d82; stroke-linecap:round; stroke-linejoin:round; stroke-width:1.5px;"/><path d="M16.94,11.76c3.65-.28,7.25,3.53,6.09,6.12-3.02,.11-4.47,.12-6.09,0-.27-.16-.19-4.81,0-6.12Z" style="fill:none; stroke:#445d82; stroke-linecap:round; stroke-linejoin:round; stroke-width:1.5px;"/><path d="M22.25,18.42c-.06,.7-.26,1.36-.56,1.95-.87,1.68-2.63,2.84-4.66,2.84-2.89,0-5.24-2.35-5.24-5.24,0-2.06,1.19-3.85,2.92-4.7,.58-.29,1.21-.47,1.89-.52" style="fill:none; stroke:#445d82; stroke-linecap:round; stroke-linejoin:round; stroke-width:1.5px;"/></svg>