<?xml version="1.0" encoding="UTF-8"?><svg id="ay" xmlns="http://www.w3.org/2000/svg" width="24" height="24" viewBox="0 0 24 24"><path d="M12.76,8l.93,1.88c.13,.26,.37,.44,.75,.48l2.08,.3c.63,.1,.92,.99,.4,1.49l-1.51,1.46c-.21,.2-.3,.49-.25,.77l.36,2.07c.12,.71-.63,1.26-1.27,.92l-1.86-.98c-.26-.13-.56-.13-.82,0l-1.86,.98c-.64,.34-1.4-.21-1.27-.92l.36-2.07c.05-.28-.05-.57-.25-.77l-1.51-1.46c-.52-.51-.23-1.39,.49-1.49l2.08-.3c.29-.04,.53-.22,.66-.48l.93-1.88c.32-.65,1.25-.65,1.57,0Z" style="fill:none; stroke:#445d82; stroke-linecap:round; stroke-linejoin:round; stroke-width:1.5px;"/><path id="az" d="M6.38,1.86c3.72,0,8.87-.23,11.23,0,2.36,.23,4.37,2.03,4.49,4.5,.15,3.03,.21,9.01,0,11.26s-.79,4.37-4.49,4.5c-4.09,.15-8.84,.17-11.23,0-1.93-.13-4.33,.02-4.49-4.5-.16-4.53-.07-8.77,0-11.26,.07-2.49,.77-4.5,4.49-4.5Z" style="fill:none; stroke:#445d82; stroke-linecap:round; stroke-linejoin:round; stroke-width:1.5px;"/><line id="ba" x1="7.25" y1=".75" x2="7.25" y2="3.75" style="fill:none; stroke:#445d82; stroke-linecap:round; stroke-linejoin:round; stroke-width:1.5px;"/><line id="bb" x1="16.25" y1=".75" x2="16.25" y2="3.75" style="fill:none; stroke:#445d82; stroke-linecap:round; stroke-linejoin:round; stroke-width:1.5px;"/></svg>