<svg width="24" height="24" viewBox="0 0 24 24" fill="none" xmlns="http://www.w3.org/2000/svg">
<path d="M3.0356 10.24C3.0356 10.08 3.0256 9.91 3.0256 9.75C3.0256 6.89 4.3956 4.35 6.5256 2.75C7.9856 1.65 9.8056 1 11.7756 1C16.6056 1 20.5256 4.92 20.5256 9.75C20.5256 10.45 20.4456 11.14 20.2856 11.79M14.2556 4.69C13.7456 4.46 12.7656 4.54 12.7656 4.54C11.7656 4.54 10.7756 5.76 10.7756 7.29C10.7756 8.82 11.5156 10.04 12.5156 10.04C12.5156 10.04 13.1356 10.18 13.9956 9.88M10.0156 7.29L13.5156 7.31M17.7456 17C17.7456 17 18.6656 16.55 19.1456 16.39C19.6256 16.23 19.4956 16.19 20.7356 15.93C21.8256 15.7 22.4956 16.21 22.4956 17.43C22.4956 18.65 20.2656 19.82 19.5256 20.36C16.8756 22.35 15.4956 22.52 13.0356 22.52C10.5756 22.52 8.5056 20.83 6.1656 20.61C3.8256 20.39 5.1356 20.47 3.5356 20.38C2.1156 19.83 1.8656 19.26 2.0556 16.62C2.1656 15.05 3.0456 14.66 3.6156 14.28C6.3656 12.26 12.1956 14.02 12.1956 14.02C12.8256 14.12 13.8356 14.39 15.2156 14.22C17.5056 13.93 17.8656 15.35 17.8656 15.35C17.8656 15.35 18.3256 16.71 16.8256 17.29C15.3256 17.87 10.5756 17.08 10.5756 17.08" stroke="#494A4A" stroke-width="1.5" stroke-linecap="round" stroke-linejoin="round"/>
</svg>
