<?xml version="1.0" encoding="UTF-8"?><svg id="p" xmlns="http://www.w3.org/2000/svg" width="24" height="24" viewBox="0 0 24 24"><path d="M2.03,21.9c-.38-.38-.33-6.76,0-6.91s6.5-.39,6.88,0,.52,6.39,0,6.91-6.5,.38-6.88,0Z" style="fill:none; stroke:#445d82; stroke-linecap:round; stroke-miterlimit:10; stroke-width:1.5px;"/><path d="M21.97,2.11c.38,.38,.33,6.77,0,6.92s-6.49,.39-6.87,0-.52-6.4,0-6.92,6.5-.38,6.87,0Z" style="fill:none; stroke:#445d82; stroke-linecap:round; stroke-miterlimit:10; stroke-width:1.5px;"/><path d="M14.75,22.07c.61,.21,3.64,.22,4.25-.04,.45-.19,.25-7.53,.25-7.53" style="fill:none; stroke:#445d82; stroke-linecap:round; stroke-linejoin:round; stroke-width:1.5px;"/><path d="M16.25,16.2c.75-1.07,2.46-3.08,3.15-3.03s2.1,2.12,2.71,3.08" style="fill:none; stroke:#445d82; stroke-linecap:round; stroke-linejoin:round; stroke-width:1.5px;"/><path d="M9.25,1.84c-.61-.21-3.64-.22-4.25,.04-.45,.19-.25,7.53-.25,7.53" style="fill:none; stroke:#445d82; stroke-linecap:round; stroke-linejoin:round; stroke-width:1.5px;"/><path d="M7.75,7.72c-.75,1.07-2.46,3.08-3.15,3.03s-2.1-2.12-2.71-3.08" style="fill:none; stroke:#445d82; stroke-linecap:round; stroke-linejoin:round; stroke-width:1.5px;"/></svg>