<?xml version="1.0" encoding="UTF-8"?><svg id="am" xmlns="http://www.w3.org/2000/svg" width="24" height="24" viewBox="0 0 24 24"><path d="M9.82,14.41c-.63-.57-1.04-1.38-1.07-2.3-.06-1.79,1.34-3.3,3.14-3.36,.87-.03,1.66,.28,2.26,.81" style="fill:none; stroke:#445d82; stroke-linecap:round; stroke-linejoin:round; stroke-width:1.5px;"/><path d="M9.95,21.91l-1.21,1.34q-1.2-.5-2.4-.99l.17-3.32c-.58-.58-.87-.87-1.45-1.45l-3.32,.17-.99-2.4,2.47-2.23v-2.04S.76,8.75,.76,8.75q.5-1.2,.99-2.4l3.32,.17c.58-.58,.87-.87,1.45-1.45l-.17-3.32,2.4-.99,2.23,2.47h2.04S15.25,.77,15.25,.77q1.2,.5,2.4,.99l-.17,3.32,1.45,1.45,3.32-.17,.99,2.4-1.17,1.06" style="fill:none; stroke:#445d82; stroke-linecap:round; stroke-linejoin:round; stroke-width:1.5px;"/><circle cx="17.49" cy="17.51" r="5.74" style="fill:none; stroke:#445d82; stroke-linecap:round; stroke-linejoin:round; stroke-width:1.5px;"/><path d="M15.35,17.79c.75,.64,1.3,1.47,1.52,1.48,.25,0,1.17-2.23,2.63-3.81" style="fill:none; stroke:#445d82; stroke-linecap:round; stroke-linejoin:round; stroke-width:1.5px;"/></svg>