<svg width="24" height="24" viewBox="0 0 24 24" fill="none" xmlns="http://www.w3.org/2000/svg">
<g clip-path="url(#clip0_4984_1431)">
<g clip-path="url(#clip1_4984_1431)">
<path d="M22.7793 19.3799C23.1293 19.6599 23.3593 19.9999 23.4393 20.3899C23.5093 20.7399 23.5393 21.7499 23.4393 21.9499C22.8893 23.1199 20.5493 23.4499 18.4893 23.5099C16.4293 23.4599 14.3593 23.0799 13.8093 21.9099C13.7193 21.7099 13.7493 20.6999 13.8093 20.3499C13.8893 19.9599 14.1193 19.6199 14.4693 19.3399M23.0793 19.6599C23.8693 20.6299 21.4993 21.5399 18.8993 21.6899H18.1993C15.6093 21.5399 13.3693 20.5899 14.1593 19.6199M22.7793 15.9799C23.1193 16.2599 23.3593 16.5899 23.4293 16.9799C23.4993 17.3299 23.4493 18.2799 23.3493 18.4799C22.8893 19.4699 19.8693 20.0099 18.3393 20.0099H18.6193C16.3893 19.8699 14.2693 19.4899 13.8093 18.4999C13.7193 18.2999 13.7393 17.2799 13.8093 16.9299C13.8893 16.5399 14.1193 16.2099 14.4593 15.9299M22.9193 16.1299C23.7093 17.0999 21.2093 18.2099 18.6193 18.2099H18.0593C15.4693 18.0599 13.5293 17.0599 14.3193 16.0899M22.9893 12.7899C23.5493 13.5599 21.5193 14.8199 18.6193 14.8199C15.7193 14.8199 13.3293 13.7799 14.1793 12.7899M19.8793 16.5399C23.6393 15.9799 23.2893 15.2099 23.3993 14.9299C23.5293 14.5799 23.4593 13.7799 23.3993 13.4899C22.8393 10.8799 14.3493 10.8599 13.8093 13.4899C13.7393 13.8199 13.7493 14.9099 13.8393 15.0999C14.4193 16.2899 17.0993 16.6599 19.2993 16.6099L19.8793 16.5399Z" stroke="#494A4A" stroke-linecap="round" stroke-linejoin="round"/>
<path d="M9.99958 21.9098C6.49958 21.9998 4.03958 21.5798 3.88958 19.1698C3.67958 15.8698 3.74958 10.9198 3.83958 8.96977C3.89958 7.74977 4.35958 7.05977 5.00958 6.20977C5.64958 5.35977 7.74958 3.29977 8.64958 2.64977C9.54958 1.99977 10.4396 1.54977 11.4696 1.51977C12.4996 1.49977 15.0196 1.51977 16.8096 1.54977C18.5996 1.57977 20.0196 2.50977 20.1196 5.40977C20.1596 6.01977 20.2296 7.03977 20.2496 8.49977M3.79958 10.2798C3.88958 9.62977 3.72958 7.84977 5.96958 7.98977H8.10958C9.28958 7.98977 10.2496 7.02977 10.2496 5.82977V3.66977C10.2496 2.47977 11.2096 1.50977 12.3896 1.50977" stroke="#494A4A" stroke-width="1.5" stroke-linecap="round" stroke-linejoin="round"/>
</g>
</g>
<defs>
<clipPath id="clip0_4984_1431">
<rect width="24" height="24" fill="white"/>
</clipPath>
<clipPath id="clip1_4984_1431">
<rect width="24" height="24" fill="white"/>
</clipPath>
</defs>
</svg>
