<svg xmlns="http://www.w3.org/2000/svg" width="24" height="24" viewBox="0 0 24 24"><defs><style>.cls-1{fill:#e04c59;}.cls-1,.cls-4{fill-opacity:0;}.cls-2,.cls-3{fill:none;stroke:#445d82;stroke-linecap:round;stroke-linejoin:round;}.cls-2{stroke-width:2px;}.cls-4{fill:#d93644;}</style></defs><g id="_24_Roster" data-name="24_Roster"><rect id="Container" class="cls-1" width="24" height="24"/><path id="Rectangle_271" data-name="Rectangle 271" class="cls-2" d="M9,21c-.76,0-1.43,0-2-.09-1.71-.11-3.82,0-4-3.95s-.06-7.72,0-9.9.68-4,4-4,7.81-.21,9.89,0a4.27,4.27,0,0,1,4,4c0,.55.05,1.22.07,2"/><line id="Line_373" data-name="Line 373" class="cls-2" x1="8.03" y1="2" x2="8.03" y2="4"/><line id="Line_374" data-name="Line 374" class="cls-2" x1="16.03" y1="2" x2="16.03" y2="3.82"/><path class="cls-3" d="M15.66,8.29c.43.43,1.27,0,.72-.62C16,7.21,15.18,7.81,15.66,8.29Z"/><path class="cls-3" d="M11.63,8.29c.27.54,1.39-.09.72-.62C11.87,7.29,11.32,7.67,11.63,8.29Z"/><path class="cls-3" d="M10.47,12.3c.25.49,1.33,0,.78-.63C10.86,11.21,10.23,11.82,10.47,12.3Z"/><path class="cls-3" d="M6.63,12.29c.27.54,1.16.16.81-.61C7.26,11.29,6.32,11.67,6.63,12.29Z"/><path class="cls-3" d="M6.63,16.29c.27.54,1.39-.35.62-.72C6.7,15.31,6.32,15.67,6.63,16.29Z"/><ellipse class="cls-2" cx="17.5" cy="17.52" rx="5.5" ry="5.48"/><circle class="cls-2" cx="17.71" cy="17.59" r="0.3"/><path class="cls-3" d="M17.82,16.78l-.33-2.5c-.06.39-.17,1.93-.26,2.55"/><path class="cls-3" d="M18.43,17.36l2.59.35c-.86,0-2.14.31-2.54.3"/><path id="Container-2" data-name="Container" class="cls-4" d="M0,0H24V24H0Z"/></g></svg>