<?xml version="1.0" encoding="UTF-8"?><svg id="dg" xmlns="http://www.w3.org/2000/svg" width="24" height="24" viewBox="0 0 24 24"><path d="M2.18,22.24c-.33-.58-.74-14.33,0-15.36S10.09,1.77,12.07,1.77s9.37,4.05,9.89,5.12,.23,14.54,0,15.36" style="fill:none; stroke:#445d82; stroke-linecap:round; stroke-linejoin:round; stroke-width:1.5px;"/><path d="M5.88,10.86c.16-.19,3.58-.13,3.77,0s.12,3.5,0,3.72-3.5,.28-3.75,0-.18-3.52-.02-3.72Z" style="fill:none; stroke:#445d82; stroke-linecap:round; stroke-linejoin:round; stroke-width:1.5px;"/><path d="M5.88,18.36c.16-.19,3.58-.13,3.77,0s.12,3.49,0,3.71-3.5,.28-3.75,0-.18-3.52-.02-3.71Z" style="fill:none; stroke:#445d82; stroke-linecap:round; stroke-linejoin:round; stroke-width:1.5px;"/><path d="M12.88,18.36c.16-.19,3.58-.13,3.77,0s.12,3.49,0,3.71-3.5,.28-3.75,0-.18-3.52-.02-3.71Z" style="fill:none; stroke:#445d82; stroke-linecap:round; stroke-linejoin:round; stroke-width:1.5px;"/></svg>