<svg width="24" height="24" viewBox="0 0 24 24" fill="none" xmlns="http://www.w3.org/2000/svg">
<g clip-path="url(#clip0_4984_1432)">
<g clip-path="url(#clip1_4984_1432)">
<path d="M8.74958 22C6.24958 22 4.03958 21.58 3.88958 19.16C3.67958 15.86 3.74958 10.91 3.83958 8.96C3.89958 7.74 4.35958 7.05 5.00958 6.2C5.64958 5.35 7.74958 3.29 8.64958 2.64C9.55958 1.99 10.4396 1.54 11.4696 1.51C12.4996 1.49 15.0196 1.51 16.8096 1.54C18.5996 1.57 20.0196 2.5 20.1196 5.4C20.1596 6.01 20.2296 7.78 20.2496 9.24M3.79958 10.28C3.88958 9.63 3.72958 7.85 5.96958 7.99H8.10958C9.28958 7.99 10.2496 7.03 10.2496 5.83V3.67C10.2496 2.48 11.2096 1.51 12.3896 1.51M13.2598 15.6402V14.9302H14.4298M13.2598 18.3202V18.0602M21.3598 17.4702V18.3202H19.6198M21.2098 14.9602L21.3598 14.9302V15.1902M16.4098 16.5802C16.4098 16.2102 16.5998 15.4902 17.1098 15.4902C17.6198 15.4902 17.9298 15.9402 17.9298 16.4902C17.9298 17.0402 17.6798 17.6702 17.2298 17.6702C16.7798 17.6702 16.4098 17.3102 16.4098 16.5802ZM11.2998 19.2502V13.9102C11.2998 13.3602 11.6898 12.9102 12.0698 12.9102H22.4498C22.8398 12.9102 23.2998 13.3602 23.2998 13.9202V19.2402C23.2998 19.8002 22.8398 20.2502 22.4498 20.2502H12.2298C11.8498 20.2502 11.2998 19.8002 11.2998 19.2502Z" stroke="#494A4A" stroke-width="1.5" stroke-linecap="round" stroke-linejoin="round"/>
</g>
</g>
<defs>
<clipPath id="clip0_4984_1432">
<rect width="24" height="24" fill="white"/>
</clipPath>
<clipPath id="clip1_4984_1432">
<rect width="24" height="24" fill="white"/>
</clipPath>
</defs>
</svg>
