<?xml version="1.0" encoding="UTF-8"?><svg id="dt" xmlns="http://www.w3.org/2000/svg" width="24" height="24" viewBox="0 0 24 24"><ellipse cx="13.31" cy="20.59" rx="2.83" ry="2.65" style="fill:none; stroke:#445d82; stroke-linecap:round; stroke-linejoin:round; stroke-width:1.5px;"/><path d="M22.21,2.81s-3.02-.16-4.12,3.35c-.93,3-3.44,12.1-3.44,12.1" style="fill:none; stroke:#445d82; stroke-linecap:round; stroke-linejoin:round; stroke-width:1.5px;"/><path d="M12.4,7.84c-1.18-.24-2.52-.61-3.44-.91-.55-.18-.87-.62-.72-1.32,.19-.91,.67-2.39,.92-3.06s.66-.9,1.35-.77c1.06,.2,2.44,.53,3.44,.91,.63,.23,.86,.62,.72,1.32-.21,1.01-.59,2.24-.92,3.06-.23,.55-.67,.91-1.35,.77Z" style="fill:none; stroke:#445d82; stroke-linecap:round; stroke-linejoin:round; stroke-width:1.5px;"/><path d="M8.2,15.8c-2.07-.46-3.31-.91-4.93-1.41-.97-.3-1.57-.92-1.41-1.82,.21-1.17,.83-3.07,1.19-3.93,.35-.86,1.02-1.11,2.22-.86,1.85,.38,4.26,.98,6.04,1.59,1.12,.38,1.57,.92,1.41,1.82-.22,1.3-.47,2.06-.94,3.1" style="fill:none; stroke:#445d82; stroke-linecap:round; stroke-linejoin:round; stroke-width:1.5px;"/><line x1="3.53" y1="18.4" x2="10.48" y2="20.18" style="fill:none; stroke:#445d82; stroke-linecap:round; stroke-linejoin:round; stroke-width:1.5px;"/></svg>