<?xml version="1.0" encoding="UTF-8"?><svg id="df" xmlns="http://www.w3.org/2000/svg" width="24" height="24" viewBox="0 0 24 24"><path d="M12.03,3.46s2.17-1.88,2.74-1.77,1.5,2.91,1.5,2.91c0,0,2.72-.67,3.26-.15s-.15,3.27-.15,3.27c0,0,2.56,.7,2.9,1.5s-1.76,2.76-1.76,2.76c0,0,1.68,1.86,1.76,2.76s-2.9,1.5-2.9,1.5c0,0,.87,2.29,.15,3.27s-3.26-.15-3.26-.15c0,0-.65,2.59-1.5,2.91s-2.74-1.77-2.74-1.77c0,0-2.01,1.85-2.74,1.77-.73-.08-1.5-2.91-1.5-2.91,0,0-2.71,.73-3.26,.15s.15-3.27,.15-3.27c0,0-2.8-.7-2.9-1.5s1.76-2.76,1.76-2.76c0,0-2.37-1.8-1.76-2.76s2.9-1.5,2.9-1.5c0,0-.83-2.83-.15-3.27s3.26,.15,3.26,.15c0,0,.73-2.83,1.5-2.91s2.74,1.77,2.74,1.77Z" style="fill:none; stroke:#445d82; stroke-linecap:round; stroke-linejoin:round; stroke-width:1.5px;"/><path d="M15.52,9.15c-1.64,2.12-2.74,3.38-4.19,5.28-.28,.37-.44,.47-.84,.44-.34-.02-.75-.48-1.19-1.21-.24-.4-.52-.85-.83-1.42" style="fill:none; stroke:#445d82; stroke-linecap:round; stroke-linejoin:round; stroke-width:1.5px;"/></svg>