<?xml version="1.0" encoding="UTF-8"?><svg id="cq" xmlns="http://www.w3.org/2000/svg" width="24" height="24" viewBox="0 0 24 24"><path d="M13.13,19.53c1.17-1.79,4.1-4.82,5.74-6.13,2.33-1.86,5.72,.58,3.78,3.5-.84,1.27-3.74,4.52-5.65,5.8-2.52,1.69-5.26-1.03-3.87-3.18Z" style="fill:none; stroke:#445d82; stroke-miterlimit:10; stroke-width:1.5px;"/><path d="M16.34,15.76c-.87,1.44,3.03,4.37,3.93,3.99" style="fill:none; stroke:#445d82; stroke-linecap:round; stroke-linejoin:round; stroke-width:1.5px;"/><path d="M10,23.24c-4.14-.04-6.75-1.01-6.84-2.71-.15-2.52-.28-6.37,.06-9.54,.21-1.9,3.09-3.11,3.09-3.87-1.12-.22-1.7-.48-1.92-.89-.68-1.23-.32-3.63,0-4.61,.38-1.16,10.47-1.13,11.16,.08,.47,.82,.72,3.39,0,4.61-.23,.39-.88,.68-1.76,.88,.06,.59,1.9,1.72,2.73,2.77" style="fill:none; stroke:#445d82; stroke-linecap:round; stroke-linejoin:round; stroke-width:1.5px;"/><path d="M14.5,7c-2,.5-6.74,.33-8.75,0" style="fill:none; stroke:#445d82; stroke-linecap:round; stroke-linejoin:round; stroke-width:1.5px;"/><line x1="10" y1="16.45" x2="10" y2="12" style="fill:none; stroke:#445d82; stroke-linecap:round; stroke-linejoin:round; stroke-width:1.5px;"/><path d="M7.96,14.18c.81,.31,3.29,.29,4.08,0" style="fill:none; stroke:#445d82; stroke-linecap:round; stroke-linejoin:round; stroke-width:1.5px;"/><path d="M4.31,2.02c-.15,1.6,11.56,1.63,11.41,.12" style="fill:none; stroke:#445d82; stroke-linecap:round; stroke-linejoin:round; stroke-width:1.5px;"/></svg>