<?xml version="1.0" encoding="UTF-8"?><svg id="i" xmlns="http://www.w3.org/2000/svg" width="24" height="24" viewBox="0 0 24 24"><path d="M14.79,17.42c-1.88,.02-3.47,.11-5.36,.08" style="fill:none; stroke:#445d82; stroke-linecap:round; stroke-linejoin:round; stroke-width:1.5px;"/><path d="M13.3,6.95c2.66,.1,4.62,.28,4.95,.49,.91,.59,1.53,2.32,2.04,2.83s2.2,1.22,2.6,1.84,.55,4.59-.06,5.01c-.11,.07-1.33,.09-2.53,.15" style="fill:none; stroke:#445d82; stroke-linecap:round; stroke-linejoin:round; stroke-width:1.5px;"/><path d="M3.62,17.21c-1.37-.11-2.27-.26-2.39-.48-.57-1.04-.77-11.41,.26-12.43,.65-.65,6.81-.6,11.5-.43" style="fill:none; stroke:#445d82; stroke-linecap:round; stroke-linejoin:round; stroke-width:1.5px;"/><path d="M9.43,17.5c.14,3.23-5.36,4.05-5.59,0-.23-4.05,5.46-3.23,5.59,0Z" style="fill:none; stroke:#445d82; stroke-miterlimit:10; stroke-width:1.5px;"/><path d="M20.16,17.5c.13,3.18-5.14,3.99-5.36,0-.22-3.99,5.23-3.18,5.36,0Z" style="fill:none; stroke:#445d82; stroke-miterlimit:10; stroke-width:1.5px;"/><path d="M13,3.88c.48,2.99-.02,12.78-.02,12.78" style="fill:none; stroke:#445d82; stroke-linecap:round; stroke-linejoin:round; stroke-width:1.5px;"/></svg>