<svg width="24" height="24" viewBox="0 0 24 24" fill="none" xmlns="http://www.w3.org/2000/svg">
<g clip-path="url(#clip0_5004_1561)">
<path d="M11.8798 4.75C11.3498 9 12.0298 13.15 12.0298 12.5C12.0298 12.5 14.9098 15.89 15.4998 16M12.9798 2C16.7298 2.25 18.4098 3.79 18.9798 4.25C23.3698 7.81 23.7498 14.31 20.1898 18.71C16.6298 23.11 10.1798 23.78 5.78982 20.23C1.39982 16.68 0.719823 10.22 4.28982 5.82C6.22982 3.42 8.48982 2 12.9898 2H12.9798ZM12.7298 12.17C12.7298 12.17 11.1198 11.86 11.5798 12.38C12.0398 12.9 12.1998 12.92 12.1998 12.92L12.7398 12.18L12.7298 12.17Z" stroke="#494A4A" stroke-width="1.5" stroke-linecap="round" stroke-linejoin="round"/>
</g>
<defs>
<clipPath id="clip0_5004_1561">
<rect width="24" height="24" fill="white"/>
</clipPath>
</defs>
</svg>
