<?xml version="1.0" encoding="UTF-8"?><svg id="fm" xmlns="http://www.w3.org/2000/svg" width="24" height="24" viewBox="0 0 24 24"><path d="M20.13,18.49c-.16,2.84-2.16,3.63-3.83,3.71s-6.95,.06-8.62,0c-1.67-.06-3.63-.31-3.77-2.64-.2-3.18-.14-8.74-.05-10.62,.05-1.18,.5-1.84,1.12-2.66s2.63-2.8,3.5-3.43,1.72-1.06,2.71-1.09,4.05,0,5.77,.03c1.72,.02,3.08,.92,3.18,3.72,.11,1.82,.17,9.91,0,12.98Z" style="fill:none; stroke:#445d82; stroke-miterlimit:10; stroke-width:1.5px;"/><line x1="13.8" y1="9.79" x2="16.21" y2="9.79" style="fill:none; stroke:#445d82; stroke-linecap:round; stroke-linejoin:round; stroke-width:1.5px;"/><line x1="7.77" y1="12.77" x2="16.14" y2="12.77" style="fill:none; stroke:#445d82; stroke-linecap:round; stroke-linejoin:round; stroke-width:1.5px;"/><line x1="7.76" y1="15.75" x2="11.12" y2="15.75" style="fill:none; stroke:#445d82; stroke-linecap:round; stroke-linejoin:round; stroke-width:1.5px;"/><path d="M3.8,10.5c.09-.65-.07-2.43,2.17-2.29h2.14c1.18,0,2.14-.96,2.14-2.16V3.9c0-1.19,.96-2.16,2.14-2.16" style="fill:none; stroke:#445d82; stroke-linecap:round; stroke-linejoin:round; stroke-width:1.5px;"/></svg>