<?xml version="1.0" encoding="UTF-8"?><svg id="bq" xmlns="http://www.w3.org/2000/svg" width="24" height="24" viewBox="0 0 24 24"><path d="M6.16,6.16c-.09,.1-4.12,.12-4.3,0s-.1-4.09,0-4.3,4.17-.08,4.3,0,.09,4.2,0,4.3Z" style="fill:none; stroke:#445d82; stroke-linecap:round; stroke-linejoin:round; stroke-width:1.5px;"/><path d="M6.16,14.16c-.09,.1-4.12,.12-4.3,0s-.1-4.09,0-4.3,4.17-.08,4.3,0,.09,4.2,0,4.3Z" style="fill:none; stroke:#445d82; stroke-linecap:round; stroke-linejoin:round; stroke-width:1.5px;"/><path d="M6.16,22.16c-.09,.1-4.12,.12-4.3,0s-.1-4.09,0-4.3,4.17-.08,4.3,0,.09,4.2,0,4.3Z" style="fill:none; stroke:#445d82; stroke-linecap:round; stroke-linejoin:round; stroke-width:1.5px;"/><path d="M14.16,6.16c-.09,.1-4.12,.12-4.3,0s-.1-4.09,0-4.3,4.17-.08,4.3,0,.09,4.2,0,4.3Z" style="fill:none; stroke:#445d82; stroke-linecap:round; stroke-linejoin:round; stroke-width:1.5px;"/><path d="M14.16,14.16c-.09,.1-4.12,.12-4.3,0s-.1-4.09,0-4.3,4.17-.08,4.3,0,.09,4.2,0,4.3Z" style="fill:none; stroke:#445d82; stroke-linecap:round; stroke-linejoin:round; stroke-width:1.5px;"/><path d="M14.16,22.16c-.09,.1-4.12,.12-4.3,0s-.1-4.09,0-4.3,4.17-.08,4.3,0,.09,4.2,0,4.3Z" style="fill:none; stroke:#445d82; stroke-linecap:round; stroke-linejoin:round; stroke-width:1.5px;"/><path d="M22.16,6.16c-.09,.1-4.12,.12-4.3,0s-.1-4.09,0-4.3,4.17-.08,4.3,0,.09,4.2,0,4.3Z" style="fill:none; stroke:#445d82; stroke-linecap:round; stroke-linejoin:round; stroke-width:1.5px;"/><path d="M22.16,14.16c-.09,.1-4.12,.12-4.3,0s-.1-4.09,0-4.3,4.17-.08,4.3,0,.09,4.2,0,4.3Z" style="fill:none; stroke:#445d82; stroke-linecap:round; stroke-linejoin:round; stroke-width:1.5px;"/><path d="M22.16,22.16c-.09,.1-4.12,.12-4.3,0s-.1-4.09,0-4.3,4.17-.08,4.3,0,.09,4.2,0,4.3Z" style="fill:none; stroke:#445d82; stroke-linecap:round; stroke-linejoin:round; stroke-width:1.5px;"/></svg>