<?xml version="1.0" encoding="UTF-8"?><svg id="dv" xmlns="http://www.w3.org/2000/svg" width="24" height="24" viewBox="0 0 24 24"><path d="M8.78,10.18c-1.55,.09-3.33,.08-4.58,0-.75-.05-1.3-.52-1.38-1.49-.1-1.26-.07-3.38,0-4.36s.48-1.41,1.38-1.49c1.38-.11,3.2-.14,4.58,0,.87,.09,1.3,.52,1.38,1.49,.12,1.4,.11,3.16,0,4.36-.07,.8-.48,1.43-1.38,1.49Z" style="fill:none; stroke:#445d82; stroke-linecap:round; stroke-linejoin:round; stroke-width:1.5px;"/><path d="M8.77,21.18c-1.55,.09-3.34,.08-4.58,0-.75-.05-1.3-.52-1.38-1.49-.1-1.26-.07-3.38,0-4.36s.48-1.41,1.38-1.49c1.38-.11,3.2-.14,4.58,0,.87,.09,1.3,.52,1.38,1.49,.12,1.4,.11,3.16,0,4.36-.07,.8-.48,1.44-1.38,1.49Z" style="fill:none; stroke:#445d82; stroke-linecap:round; stroke-linejoin:round; stroke-width:1.5px;"/><path d="M19.79,10.18c-1.55,.09-3.35,.08-4.59,0-.75-.05-1.31-.52-1.38-1.49-.1-1.26-.07-3.39,0-4.36s.49-1.42,1.38-1.49c1.39-.11,3.21-.14,4.59,0,.87,.09,1.3,.52,1.38,1.49,.12,1.4,.11,3.16,0,4.36-.08,.8-.49,1.44-1.38,1.49Z" style="fill:none; stroke:#445d82; stroke-linecap:round; stroke-linejoin:round; stroke-width:1.5px;"/><path d="M19.78,21.18c-1.55,.09-3.34,.08-4.58,0-.75-.05-1.3-.52-1.38-1.49-.1-1.26-.07-3.38,0-4.36s.48-1.41,1.38-1.49c1.38-.11,3.2-.14,4.58,0,.87,.09,1.3,.52,1.38,1.49,.12,1.4,.11,3.16,0,4.36-.07,.8-.48,1.44-1.38,1.49Z" style="fill:none; stroke:#445d82; stroke-linecap:round; stroke-linejoin:round; stroke-width:1.5px;"/></svg>