<svg width="24" height="24" viewBox="0 0 24 24" fill="none" xmlns="http://www.w3.org/2000/svg">
<path d="M9.22976 21.4434C7.56976 21.4134 5.98976 21.3734 4.82976 21.3034C2.52976 21.1834 1.36976 20.8834 1.15976 17.9334C0.919763 14.5934 0.969763 8.02342 1.17976 5.08342C1.38976 2.16342 2.77976 1.30342 5.06976 1.15342C7.35976 1.00342 14.1698 0.933419 17.8398 1.08342C20.1898 1.18342 21.2498 2.01342 21.3598 4.61342C21.4198 6.08342 21.4498 7.63342 21.4698 9.23342" stroke="#494A4A" stroke-width="1.5" stroke-linecap="round" stroke-linejoin="round"/>
<path d="M1.54004 6.9834C5.74004 7.0434 16.8 6.9834 20.98 7.0034" stroke="#494A4A" stroke-width="1.5" stroke-linecap="round" stroke-linejoin="round"/>
<path d="M7.4502 20.9733C7.5102 18.0433 7.45019 10.3333 7.47019 7.41333" stroke="#494A4A" stroke-width="1.5" stroke-linecap="round" stroke-linejoin="round"/>
<path d="M14.9902 8.22333C14.9902 8.22333 14.9902 8.03333 14.9902 7.66333" stroke="#494A4A" stroke-width="1.5" stroke-linecap="round" stroke-linejoin="round"/>
<path d="M1.22949 11.9834H8.97949" stroke="#494A4A" stroke-width="1.5" stroke-linecap="round" stroke-linejoin="round"/>
<path d="M1.22949 16.9834H8.47949" stroke="#494A4A" stroke-width="1.5" stroke-linecap="round" stroke-linejoin="round"/>
<path d="M22.48 18.3034V14.8934C22.48 14.0134 22.01 13.2134 21.25 12.7734L18.17 11.0234C17.43 10.6034 16.52 10.6034 15.77 11.0234L12.69 12.7734C11.93 13.2034 11.46 14.0134 11.46 14.8934V18.3034C11.46 19.1834 11.93 19.9834 12.69 20.4234L15.77 22.1734C16.51 22.5934 17.42 22.5934 18.17 22.1734L21.25 20.4234C22.01 19.9934 22.48 19.1834 22.48 18.3034Z" stroke="#494A4A" stroke-width="1.5" stroke-linecap="round" stroke-linejoin="round"/>
<path d="M17.4601 16.9635C18.0401 15.8335 16.6901 15.7935 16.4801 16.1735C15.9001 17.2235 17.1801 17.5135 17.4601 16.9635Z" stroke="#494A4A" stroke-width="2" stroke-linecap="round" stroke-linejoin="round"/>
</svg>
