<?xml version="1.0" encoding="UTF-8"?><svg id="i" xmlns="http://www.w3.org/2000/svg" width="24" height="24" viewBox="0 0 24 24"><g><polyline points="20.71 21.75 14.78 17.71 20.71 13.67" style="fill:none; fill-rule:evenodd; stroke:#505f7a; stroke-linecap:round; stroke-linejoin:round; stroke-width:1.5px;"/><path d="M22.21,13.62c-.43-2.47-3.28-.87-2.98,.25,.59,2.19,3.24,1.33,2.97-.24" style="fill:none; fill-rule:evenodd; stroke:#505f7a; stroke-linecap:round; stroke-linejoin:round; stroke-width:1.5px;"/><path d="M13.12,17.89c.81,2.13,3.47,1.36,2.96-.25-.83-2.65-3.39-.87-2.97,.24" style="fill:none; fill-rule:evenodd; stroke:#505f7a; stroke-linecap:round; stroke-linejoin:round; stroke-width:1.5px;"/><path d="M22.15,21.66c-.19-2.77-3.4-.85-2.98,.25,.81,2.13,3.08,1.43,2.97-.24" style="fill:none; fill-rule:evenodd; stroke:#505f7a; stroke-linecap:round; stroke-linejoin:round; stroke-width:1.5px;"/></g><path d="M15.18,22.68c-1.51,.55-2.8,.59-3.18,.59C5.8,23.28,.76,18.24,.76,12.03S5.8,.78,12.01,.78c5.52,0,10.1,3.98,11.06,9.22" style="fill:none; stroke:#505f7a; stroke-linecap:round; stroke-linejoin:round; stroke-width:1.5px;"/><path d="M12,22.9c-2.91,0-5.26-4.91-5.26-10.97S9.1,.96,12,.96c2.7,0,4.93,4.25,5.23,9.71" style="fill:none; stroke:#505f7a; stroke-linecap:round; stroke-linejoin:round; stroke-width:1.5px;"/><path d="M21.36,6.66c-.96,1.49-4.79,2.6-9.36,2.6S3.6,8.15,2.64,6.66" style="fill:none; stroke:#505f7a; stroke-linecap:round; stroke-linejoin:round; stroke-width:1.5px;"/><path d="M3.11,18.28c.81-1.26,3.71-2.24,7.37-2.49" style="fill:none; stroke:#505f7a; stroke-linecap:round; stroke-linejoin:round; stroke-width:1.5px;"/></svg>