<svg width="24" height="24" viewBox="0 0 24 24" fill="none" xmlns="http://www.w3.org/2000/svg">
<g clip-path="url(#clip0_5137_1306)">
<path d="M3.78971 3.86536C3.73971 3.06636 3.74971 2.13752 3.78971 1.49832C3.80971 1.10881 4.05971 0.829156 4.55971 0.789206C5.20971 0.739269 6.30971 0.759244 6.81971 0.789206C7.32971 0.819169 7.54971 1.03889 7.58971 1.49832C7.64971 2.21742 7.65971 3.15625 7.58971 3.86536C7.53971 4.3148 7.31971 4.53452 6.81971 4.57447C6.09971 4.6344 5.17971 4.6344 4.55971 4.57447C4.14971 4.53452 3.81971 4.32479 3.78971 3.86536Z" stroke="#494A4A" stroke-width="1.5" stroke-linecap="round" stroke-linejoin="round"/>
<path d="M3.78971 10.1275C3.73971 9.32853 3.74971 8.39969 3.78971 7.76049C3.80971 7.37098 4.05971 7.09133 4.55971 7.05138C5.20971 7.00144 6.30971 7.02142 6.81971 7.05138C7.32971 7.08134 7.54971 7.30107 7.58971 7.76049C7.64971 8.47959 7.65971 9.41842 7.58971 10.1275C7.53971 10.577 7.31971 10.7967 6.81971 10.8366C6.09971 10.8966 5.17971 10.8966 4.55971 10.8366C4.14971 10.7967 3.81971 10.587 3.78971 10.1275Z" stroke="#494A4A" stroke-width="1.5" stroke-linecap="round" stroke-linejoin="round"/>
<path d="M10.0897 3.86536C10.0397 3.06636 10.0497 2.13752 10.0897 1.49832C10.1097 1.10881 10.3597 0.829156 10.8597 0.789206C11.5097 0.739269 12.6097 0.759244 13.1197 0.789206C13.6297 0.819169 13.8497 1.03889 13.8897 1.49832C13.9497 2.21742 13.9597 3.15625 13.8897 3.86536C13.8397 4.3148 13.6197 4.53452 13.1197 4.57447C12.3997 4.6344 11.4797 4.6344 10.8597 4.57447C10.4497 4.53452 10.1197 4.32479 10.0897 3.86536Z" stroke="#494A4A" stroke-width="1.5" stroke-linecap="round" stroke-linejoin="round"/>
<path d="M10.0897 10.1275C10.0397 9.32853 10.0497 8.39969 10.0897 7.76049C10.1097 7.37098 10.3597 7.09133 10.8597 7.05138C11.5097 7.00144 12.6097 7.02142 13.1197 7.05138C13.6297 7.08134 13.8497 7.30107 13.8897 7.76049C13.9497 8.47959 13.9597 9.41842 13.8897 10.1275C13.8397 10.577 13.6197 10.7967 13.1197 10.8366C12.3997 10.8966 11.4797 10.8966 10.8597 10.8366C10.4497 10.7967 10.1197 10.587 10.0897 10.1275Z" stroke="#494A4A" stroke-width="1.5" stroke-linecap="round" stroke-linejoin="round"/>
<path d="M3.78971 16.3697C3.73971 15.5707 3.74971 14.6419 3.78971 14.0027C3.80971 13.6132 4.05971 13.3335 4.55971 13.2936C5.20971 13.2436 6.30971 13.2636 6.81971 13.2936C7.32971 13.3235 7.54971 13.5433 7.58971 14.0027C7.64971 14.7218 7.65971 15.6606 7.58971 16.3697C7.53971 16.8192 7.31971 17.0389 6.81971 17.0788C6.09971 17.1388 5.17971 17.1388 4.55971 17.0788C4.14971 17.0389 3.81971 16.8292 3.78971 16.3697Z" stroke="#494A4A" stroke-width="1.5" stroke-linecap="round" stroke-linejoin="round"/>
<path d="M3.81971 22.4921C3.76971 21.6931 3.77971 20.7642 3.81971 20.125C3.83971 19.7355 4.08971 19.4559 4.58971 19.4159C5.23971 19.366 6.33971 19.386 6.84971 19.4159C7.35971 19.4459 7.57971 19.6656 7.61971 20.125C7.67971 20.8441 7.68971 21.783 7.61971 22.4921C7.56971 22.9415 7.34971 23.1612 6.84971 23.2012C6.12971 23.2611 5.20971 23.2611 4.58971 23.2012C4.17971 23.1612 3.84971 22.9515 3.81971 22.4921Z" stroke="#494A4A" stroke-width="1.5" stroke-linecap="round" stroke-linejoin="round"/>
<path d="M10.0897 16.3697C10.0397 15.5707 10.0497 14.6419 10.0897 14.0027C10.1097 13.6132 10.3597 13.3335 10.8597 13.2936C11.5097 13.2436 12.6097 13.2636 13.1197 13.2936C13.6297 13.3235 13.8497 13.5433 13.8897 14.0027C13.9497 14.7218 13.9597 15.6606 13.8897 16.3697C13.8397 16.8192 13.6197 17.0389 13.1197 17.0788C12.3997 17.1388 11.4797 17.1388 10.8597 17.0788C10.4497 17.0389 10.1197 16.8292 10.0897 16.3697Z" stroke="#494A4A" stroke-width="1.5" stroke-linecap="round" stroke-linejoin="round"/>
<path d="M10.1197 22.4921C10.0697 21.6931 10.0797 20.7642 10.1197 20.125C10.1397 19.7355 10.3897 19.4559 10.8897 19.4159C11.5397 19.366 12.6397 19.386 13.1497 19.4159C13.6597 19.4459 13.8797 19.6656 13.9197 20.125C13.9797 20.8441 13.9897 21.783 13.9197 22.4921C13.8697 22.9415 13.6497 23.1612 13.1497 23.2012C12.4297 23.2611 11.5097 23.2611 10.8897 23.2012C10.4797 23.1612 10.1497 22.9515 10.1197 22.4921Z" stroke="#494A4A" stroke-width="1.5" stroke-linecap="round" stroke-linejoin="round"/>
<path d="M16.3397 3.86536C16.2897 3.06636 16.2997 2.13752 16.3397 1.49832C16.3597 1.10881 16.6097 0.829156 17.1097 0.789206C17.7597 0.739269 18.8597 0.759244 19.3697 0.789206C19.8797 0.819169 20.0997 1.03889 20.1397 1.49832C20.1997 2.21742 20.2097 3.15625 20.1397 3.86536C20.0897 4.3148 19.8697 4.53452 19.3697 4.57447C18.6497 4.6344 17.7297 4.6344 17.1097 4.57447C16.6997 4.53452 16.3697 4.32479 16.3397 3.86536Z" stroke="#494A4A" stroke-width="1.5" stroke-linecap="round" stroke-linejoin="round"/>
<path d="M16.3397 10.1275C16.2897 9.32853 16.2997 8.39969 16.3397 7.76049C16.3597 7.37098 16.6097 7.09133 17.1097 7.05138C17.7597 7.00144 18.8597 7.02142 19.3697 7.05138C19.8797 7.08134 20.0997 7.30107 20.1397 7.76049C20.1997 8.47959 20.2097 9.41842 20.1397 10.1275C20.0897 10.577 19.8697 10.7967 19.3697 10.8366C18.6497 10.8966 17.7297 10.8966 17.1097 10.8366C16.6997 10.7967 16.3697 10.587 16.3397 10.1275Z" stroke="#494A4A" stroke-width="1.5" stroke-linecap="round" stroke-linejoin="round"/>
<path d="M16.3397 16.3697C16.2897 15.5707 16.2997 14.6419 16.3397 14.0027C16.3597 13.6132 16.6097 13.3335 17.1097 13.2936C17.7597 13.2436 18.8597 13.2636 19.3697 13.2936C19.8797 13.3235 20.0997 13.5433 20.1397 14.0027C20.1997 14.7218 20.2097 15.6606 20.1397 16.3697C20.0897 16.8192 19.8697 17.0389 19.3697 17.0788C18.6497 17.1388 17.7297 17.1388 17.1097 17.0788C16.6997 17.0389 16.3697 16.8292 16.3397 16.3697Z" stroke="#494A4A" stroke-width="1.5" stroke-linecap="round" stroke-linejoin="round"/>
<path d="M16.3697 22.4921C16.3197 21.6931 16.3297 20.7642 16.3697 20.125C16.3897 19.7355 16.6397 19.4559 17.1397 19.4159C17.7897 19.366 18.8897 19.386 19.3997 19.4159C19.9097 19.4459 20.1297 19.6656 20.1697 20.125C20.2297 20.8441 20.2397 21.783 20.1697 22.4921C20.1197 22.9415 19.8997 23.1612 19.3997 23.2012C18.6797 23.2611 17.7597 23.2611 17.1397 23.2012C16.7297 23.1612 16.3997 22.9515 16.3697 22.4921Z" stroke="#494A4A" stroke-width="1.5" stroke-linecap="round" stroke-linejoin="round"/>
</g>
<defs>
<clipPath id="clip0_5137_1306">
<rect width="24" height="24" fill="white"/>
</clipPath>
</defs>
</svg>
