<svg width="24" height="24" viewBox="0 0 24 24" fill="none" xmlns="http://www.w3.org/2000/svg">
<g clip-path="url(#clip0_5004_1562)">
<path d="M11.3402 4.51C10.7602 8.76 11.5102 12.91 11.5102 12.26C11.5102 12.26 14.6302 15.65 15.2802 15.76M22.0602 9.25C22.8202 12.34 22.1102 15.79 19.9502 18.46C16.3902 22.86 9.94025 23.53 5.55025 19.98C2.28025 17.33 1.07025 13.07 2.14025 9.26M3.50025 6.29C3.67025 6.04 3.85025 5.8 4.04025 5.57C5.98025 3.17 8.24025 1.75 12.7402 1.75C16.4902 2 18.1702 3.54 18.7402 4C19.5502 4.65 20.2202 5.41 20.7602 6.23M17.9102 6.55C19.1802 6.83 21.1202 7.33 21.5202 6.99C21.9202 6.65 21.9702 4.48 22.0102 3.5M6.50025 6.55C5.23025 6.83 3.29025 7.33 2.89025 6.99C2.49025 6.65 2.44025 4.48 2.40025 3.5M12.2702 11.93C12.2702 11.93 10.5302 11.62 11.0202 12.14C11.5102 12.66 11.6902 12.68 11.6902 12.68L12.2702 11.94V11.93Z" stroke="#494A4A" stroke-width="1.5" stroke-linecap="round" stroke-linejoin="round"/>
</g>
<defs>
<clipPath id="clip0_5004_1562">
<rect width="24" height="24" fill="white"/>
</clipPath>
</defs>
</svg>
