<?xml version="1.0" encoding="UTF-8"?><svg id="be" xmlns="http://www.w3.org/2000/svg" width="24" height="24" viewBox="0 0 24 24"><path d="M16.9,7.53c.43,.43,1.27,.03,.72-.62-.39-.46-1.2,.14-.72,.62Z" style="fill:none; stroke:#445d82; stroke-linecap:round; stroke-linejoin:round; stroke-width:1.5px;"/><path d="M10.84,7.54c.27,.54,1.39-.09,.72-.62-.49-.39-1.03,0-.72,.62Z" style="fill:none; stroke:#445d82; stroke-linecap:round; stroke-linejoin:round; stroke-width:1.5px;"/><path d="M10.8,12.04c.25,.5,1.33,.02,.78-.63-.39-.46-1.02,.15-.78,.63Z" style="fill:none; stroke:#445d82; stroke-linecap:round; stroke-linejoin:round; stroke-width:1.5px;"/><path d="M5.81,11.99c.27,.54,1.16,.16,.81-.61-.18-.39-1.12-.01-.81,.61Z" style="fill:none; stroke:#445d82; stroke-linecap:round; stroke-linejoin:round; stroke-width:1.5px;"/><path d="M5.86,16.55c.27,.54,1.39-.35,.62-.72-.55-.26-.93,.1-.62,.72Z" style="fill:none; stroke:#445d82; stroke-linecap:round; stroke-linejoin:round; stroke-width:1.5px;"/><path d="M9.75,17.87c0-1.9,3.91-4.42,6.7-4.42s6.7,2.53,6.7,4.5c0,1.82-3.91,4.35-6.7,4.35s-6.7-2.53-6.7-4.42Z" style="fill:none; stroke:#445d82; stroke-linecap:round; stroke-linejoin:round; stroke-width:1.5px;"/><ellipse cx="16.5" cy="17.5" rx="3.5" ry="3.75" style="fill:none; stroke:#445d82; stroke-linecap:round; stroke-linejoin:round; stroke-width:1.5px;"/><path d="M16.4,16.56c.47,0,.85,.38,.85,.84s-.38,.84-.85,.84-.85-.38-.85-.84" style="fill:none; stroke:#445d82; stroke-linecap:round; stroke-linejoin:round; stroke-width:1.5px;"/><path id="bf" d="M9.25,22.25c-1.07-.02-2.15-.05-2.87-.1-1.94-.14-4.33,.02-4.5-4.51-.16-4.53-.07-8.78,0-11.27S2.66,1.86,6.38,1.86s8.87-.23,11.24,0,4.37,2.03,4.5,4.51c.06,1.21,.1,3.91,.12,5.63" style="fill:none; stroke:#445d82; stroke-linecap:round; stroke-linejoin:round; stroke-width:1.5px;"/><line id="bg" x1="7.25" y1=".75" x2="7.25" y2="3.75" style="fill:none; stroke:#445d82; stroke-linecap:round; stroke-linejoin:round; stroke-width:1.5px;"/><line id="bh" x1="16.25" y1=".75" x2="16.25" y2="3.75" style="fill:none; stroke:#445d82; stroke-linecap:round; stroke-linejoin:round; stroke-width:1.5px;"/></svg>