<?xml version="1.0" encoding="UTF-8"?><svg id="b" xmlns="http://www.w3.org/2000/svg" width="24" height="24" viewBox="0 0 24 24"><g id="c"><polyline points="2.18 20.47 8.11 4.73 11.73 20.73" style="fill:none; stroke:#494a4a; stroke-linecap:round; stroke-linejoin:round; stroke-width:1.5px;"/><line x1="4.76" y1="14.02" x2="9.92" y2="14.02" style="fill:none; stroke:#494a4a; stroke-linecap:round; stroke-linejoin:round; stroke-width:1.5px;"/><path d="m21.53,20.73v-4.9s.52-5.94-3.87-5.42c-3.09.36-3.1,2.32-3.1,2.32" style="fill:none; stroke:#494a4a; stroke-linecap:round; stroke-linejoin:round; stroke-width:1.5px;"/><path d="m21.02,19.18c.36-1.04-.93,1.26-3.61,1.55-1.56.17-2.84-.52-2.84-3.1,0-1.81,1.81-3.35,4.13-2.84,1.92.43,2.58,3.35,2.58,3.35" style="fill:none; stroke:#494a4a; stroke-linecap:round; stroke-linejoin:round; stroke-width:1.5px;"/><polyline points="1.93 20.47 7.86 4.73 11.48 20.73" style="fill:none; stroke:#494a4a; stroke-linecap:round; stroke-linejoin:round; stroke-width:1.5px;"/><line x1="4.51" y1="14.02" x2="9.67" y2="14.02" style="fill:none; stroke:#494a4a; stroke-linecap:round; stroke-linejoin:round; stroke-width:1.5px;"/><path d="m21.28,20.73v-4.9s.52-5.94-3.87-5.42c-3.09.36-3.1,2.32-3.1,2.32" style="fill:none; stroke:#494a4a; stroke-linecap:round; stroke-linejoin:round; stroke-width:1.5px;"/><path d="m20.77,19.18c.36-1.04-.93,1.26-3.61,1.55-1.56.17-2.84-.52-2.84-3.1,0-1.81,1.81-3.35,4.13-2.84,1.92.43,2.58,3.35,2.58,3.35" style="fill:none; stroke:#494a4a; stroke-linecap:round; stroke-linejoin:round; stroke-width:1.5px;"/><rect width="24" height="24" style="fill:none;"/></g></svg>