<svg width="24" height="24" viewBox="0 0 24 24" fill="none" xmlns="http://www.w3.org/2000/svg">
<path d="M2.53976 7.97342C6.73976 8.03342 17.7998 7.97342 21.9798 7.99342M8.44976 21.9634C8.50976 19.0334 8.44976 11.3234 8.46976 8.40342M15.9798 22.1534C16.0398 19.2334 15.9798 11.5534 15.9998 8.64342M2.22976 12.9734H22.2298M2.22976 17.9734H22.2298M2.17976 6.08342C2.38976 3.16342 3.77976 2.30342 6.06976 2.15342C8.35976 2.00342 15.1698 1.93342 18.8398 2.08342C21.1898 2.18342 22.2498 3.01342 22.3598 5.61342C22.5198 9.59342 22.4798 14.1734 22.3998 18.4834C22.3398 21.8834 21.1798 22.1334 18.2798 22.3634C15.9598 22.5434 9.16976 22.4834 5.82976 22.3134C3.52976 22.1934 2.36976 21.8934 2.15976 18.9434C1.91976 15.6034 1.96976 9.03342 2.17976 6.09342V6.08342Z" stroke="#494A4A" stroke-width="1.5" stroke-linecap="round" stroke-linejoin="round"/>
</svg>
