<svg xmlns="http://www.w3.org/2000/svg" width="24" height="24" viewBox="0 0 24 24"><defs><style>.cls-1,.cls-2{fill:none;stroke:#445d82;stroke-linecap:round;stroke-linejoin:round;}.cls-1{stroke-width:2px;}.cls-3{fill:#d93644;fill-opacity:0;}</style></defs><g id="_24_Time_List" data-name="24_Time List"><line class="cls-1" x1="6" y1="7" x2="18" y2="7.02"/><line class="cls-1" x1="6" y1="12" x2="10.81" y2="12.02"/><line class="cls-1" x1="6" y1="17" x2="8.23" y2="17.02"/><path class="cls-1" d="M9,22.06c-2.09,0-3,0-3.66,0C4,22,2.27,21.86,2.17,18.16c0-1.49-.35-8.88,0-12.08.23-2.33.68-3.67,3.18-3.91s12.36-.17,13.59,0,2.95.57,3.1,3.09c.06,1,.08,1.82.09,3.74"/><circle class="cls-1" cx="17.52" cy="17.52" r="5.48"/><circle class="cls-2" cx="17.73" cy="17.59" r="0.76"/><path class="cls-2" d="M17.84,16.78l-.33-2.5c-.06.39-.17,1.93-.26,2.55"/><path class="cls-2" d="M18.4,17.93l1.53,1.62a18.88,18.88,0,0,0-2.2-1.2"/><path id="Container" class="cls-3" d="M0,0H24V24H0Z"/></g></svg>