<?xml version="1.0" encoding="UTF-8"?><svg id="c" xmlns="http://www.w3.org/2000/svg" width="24" height="24" viewBox="0 0 24 24"><path d="m18.69,16.76c-.64.67-12.65.67-13.29,0s-1.07-13.61,0-14.51,12.44-.67,13.29,0,.64,13.84,0,14.51Z" style="fill:none; stroke:#445d82; stroke-linecap:round; stroke-linejoin:round; stroke-width:1.5px;"/><path d="m8.5,14.25c1,0,1.31-1.5.25-1.5-1,0-1.25,1.5-.25,1.5Z" style="fill:none; stroke:#445d82; stroke-linecap:round; stroke-linejoin:round; stroke-width:1.5px;"/><path d="m15.5,14.25c1,0,.81-1.5-.25-1.5-1,0-.75,1.5.25,1.5Z" style="fill:none; stroke:#445d82; stroke-linecap:round; stroke-linejoin:round; stroke-width:1.5px;"/><path d="m6.59,19.38c-.95,1.29-2.05,2.73-2.84,3.37" style="fill:none; stroke:#445d82; stroke-linecap:round; stroke-linejoin:round; stroke-width:1.5px;"/><path d="m17.08,19.28c.97,1.31,2.1,2.82,2.92,3.47" style="fill:none; stroke:#445d82; stroke-linecap:round; stroke-linejoin:round; stroke-width:1.5px;"/><line x1="5.74" y1="20.75" x2="18.01" y2="20.75" style="fill:none; stroke:#445d82; stroke-linecap:round; stroke-linejoin:round; stroke-width:1.5px;"/><path d="m17.59,10.05c-.34.32-10.78.32-11.12,0" style="fill:none; stroke:#445d82; stroke-linecap:round; stroke-linejoin:round; stroke-width:1.5px;"/><path d="m5.32,4.83c.41-.32,12.2-.32,13.03,0" style="fill:none; stroke:#445d82; stroke-linecap:round; stroke-linejoin:round; stroke-width:1.5px;"/></svg>