<?xml version="1.0" encoding="UTF-8"?><svg id="fp" xmlns="http://www.w3.org/2000/svg" width="24" height="24" viewBox="0 0 24 24"><path d="M9.76,13.29c0,1.72,.08,4.34,.29,5.29,.38,1.67,.89,2.34,2.56,2.55,1.19,.14,2.61-.14,3.44,.17,.55,.2,1.29,1.93,1.84,1.94,.85,.01,.95-1.13,1.58-1.79s1.41-.52,2.09-.79c.93-.37,1.26-1.22,1.47-2.6s.54-7.77-.84-8.69c-.97-.65-4.16-.63-6.84-.56" style="fill:none; stroke:#445d82; stroke-linecap:round; stroke-linejoin:round; stroke-width:1.5px;"/><path d="M6.35,6.27s1.57,2.26,4.13,3.1" style="fill:none; stroke:#445d82; stroke-linecap:round; stroke-linejoin:round; stroke-width:1.5px;"/><path d="M5.38,9.34c3.76-1.1,5.16-5.08,5.16-5.08H5.38" style="fill:none; stroke:#445d82; stroke-linecap:round; stroke-linejoin:round; stroke-width:1.5px;"/><line x1="7.94" y1="4.23" x2="7.94" y2="3.22" style="fill:none; stroke:#445d82; stroke-linecap:round; stroke-linejoin:round; stroke-width:1.5px;"/><path d="M14.75,17.81s1.57-5.2,2.19-5.2,2.09,5.29,2.09,5.29" style="fill:none; stroke:#445d82; stroke-linecap:round; stroke-linejoin:round; stroke-width:1.5px;"/><line x1="15.49" y1="16.81" x2="18.25" y2="16.81" style="fill:none; stroke:#445d82; stroke-linecap:round; stroke-linejoin:round; stroke-width:1.5px;"/><path d="M1.79,1.48c1.58-1.06,9.12-.69,10.54-.46,1.52,.25,2.68,1.07,2.86,2.9,.09,.92,.09,4.38-.17,5.69-.34,1.73-2.16,3.2-3.81,3.4-1.17,.14-2.49-.1-3.31,.2-.54,.2-1.29,2.03-1.83,2.04-.84,.01-.94-1.12-1.57-1.78s-1.53-.25-2.2-.52c-.92-.37-1.12-1.48-1.33-2.85S.43,2.4,1.79,1.48Z" style="fill:none; stroke:#445d82; stroke-linecap:round; stroke-linejoin:round; stroke-width:1.5px;"/></svg>