<?xml version="1.0" encoding="UTF-8"?><svg id="hm" xmlns="http://www.w3.org/2000/svg" width="24" height="24" viewBox="0 0 24 24"><path d="M23.25,19.07v-3.41c0-.88-.47-1.68-1.23-2.12l-3.08-1.75c-.74-.42-1.65-.42-2.4,0l-3.08,1.75c-.76,.43-1.23,1.24-1.23,2.12v3.41c0,.88,.47,1.68,1.23,2.12l3.08,1.75c.74,.42,1.65,.42,2.4,0l3.08-1.75c.76-.43,1.23-1.24,1.23-2.12Z" style="fill:none; stroke:#445d82; stroke-linecap:round; stroke-linejoin:round; stroke-width:1.5px;"/><path d="M18.23,17.73c.58-1.13-.77-1.17-.98-.79-.58,1.05,.7,1.34,.98,.79" style="fill:none; stroke:#445d82; stroke-linecap:round; stroke-linejoin:round; stroke-width:2px;"/><g><path d="M11,23.22c-3.11-.1-10.24-.76-10.24-1.9,0-5.62,8.24-2.22,8.24-9.07" style="fill:none; fill-rule:evenodd; stroke:#445d82; stroke-linecap:round; stroke-miterlimit:10; stroke-width:1.5px;"/><path d="M15.92,9.01c.23-.84,.37-1.81,.37-2.9,0-3.59-1.83-5.33-4.79-5.33s-4.79,1.74-4.79,5.33,1.4,5.77,3.07,6.68" style="fill:none; fill-rule:evenodd; stroke:#445d82; stroke-linecap:round; stroke-linejoin:round; stroke-width:1.5px;"/></g></svg>