<?xml version="1.0" encoding="UTF-8"?><svg id="ez" xmlns="http://www.w3.org/2000/svg" width="24" height="24" viewBox="0 0 24 24"><path d="M8.92,20.18c-.9-.01-3.64-.05-4.02-.08-2.34-.17-2.89-.53-3.03-3.03-.09-1.53-.18-6.81,0-9.08,.08-.99,.56-2.82,3.03-3.03,1.36-.12,10.48-.24,14.16,0,1.22,.08,3.83,.48,4.06,2.91,.09,.96,.16,4.55,.1,7.11" style="fill:none; stroke:#445d82; stroke-linecap:round; stroke-linejoin:round; stroke-width:1.5px;"/><path d="M1.76,10.89s.04-3.43,.14-6.1c.1-2.67,1.35-3.03,3.01-3.03h3.87c.67,0,1.3,.34,1.67,.9l.66,1.32c.37,.56,.9,.85,1.57,.85" style="fill:none; stroke:#445d82; stroke-linecap:round; stroke-linejoin:round; stroke-width:1.5px;"/><path d="M18.91,17.38c0,3.35,4.31,2.35,4.31,4.98,0,1.2-11.44,1.2-11.44,0s4.31-1.64,4.31-4.98" style="fill:none; fill-rule:evenodd; stroke:#445d82; stroke-linecap:round; stroke-miterlimit:10; stroke-width:1.5px;"/><path d="M17.52,17.75c1.29,0,2.71-1.27,2.71-3.97,0-2.06-1.03-2.98-2.71-2.98s-2.71,.92-2.71,2.98c0,2.7,1.42,3.97,2.71,3.97Z" style="fill:none; fill-rule:evenodd; stroke:#445d82; stroke-miterlimit:10; stroke-width:1.5px;"/></svg>