<?xml version="1.0" encoding="UTF-8"?><svg xmlns="http://www.w3.org/2000/svg" width="24" height="24" viewBox="0 0 24 24"><g id="a"><rect id="b" x="-.25" y="-.25" width="24" height="24" style="fill:#d45064; opacity:0;"/></g><g id="c"><path d="m8,7.69c-1.97,1.02-3.59,1.73-3.59,2.7-.05,3.23,5.97,9.15,9.16,9.15.42,0,.56-.05.93-.55" style="fill:none; stroke:#445d82; stroke-linecap:round; stroke-linejoin:round; stroke-width:1.5px;"/><path d="m16.5,15.5c1.28-2.45,2.81-4.98,6.16-6.13.8-2.38-5.63-8.84-8.02-8.05-.7,2.04-2.1,3.49-3.64,4.6" style="fill:none; stroke:#445d82; stroke-linecap:round; stroke-linejoin:round; stroke-width:1.5px;"/><path d="m15.64,5.2c.22.7,1.73,2.81,3.22,3.22" style="fill:none; stroke:#445d82; stroke-linecap:round; stroke-linejoin:round; stroke-width:1.5px;"/><path d="m6.36,14.6S.36,21.59,1.36,22.61c1,1.02,7.92-4.85,7.92-4.85" style="fill:none; stroke:#445d82; stroke-linecap:round; stroke-linejoin:round; stroke-width:1.5px;"/></g><g id="d"><line x1="6.25" y1="3.77" x2="16.75" y2="22.25" style="fill:none; stroke:#445d82; stroke-linecap:round; stroke-linejoin:round; stroke-width:1.5px;"/></g></svg>