<?xml version="1.0" encoding="UTF-8"?><svg id="hb" xmlns="http://www.w3.org/2000/svg" width="24" height="24" viewBox="0 0 24 24"><g><path d="M14.24,12.38c0,.33,.09,.72,.13,1.01" style="fill:none; fill-rule:evenodd; stroke:#445d82; stroke-linecap:round; stroke-linejoin:round; stroke-width:1.5px;"/><path d="M17.26,22.98c-1.23,.12-3.08,.2-5.37,.24-2.3,.03-11.12-.64-11.12-1.91,0-5.62,8.24-2.22,8.24-9.07" style="fill:none; fill-rule:evenodd; stroke:#445d82; stroke-linecap:round; stroke-miterlimit:10; stroke-width:1.5px;"/><path d="M11.51,13.24c2.28,0,4.79-2.43,4.79-7.14,0-3.59-1.83-5.33-4.79-5.33s-4.79,1.74-4.79,5.33c0,4.71,2.51,7.14,4.79,7.14Z" style="fill:none; fill-rule:evenodd; stroke:#445d82; stroke-miterlimit:10; stroke-width:1.5px;"/></g><g><polyline points="21.5 21.5 15.57 17.45 21.5 13.42" style="fill:none; fill-rule:evenodd; stroke:#445d82; stroke-linecap:round; stroke-linejoin:round; stroke-width:1.5px;"/><path d="M23,13.37c-.43-2.47-3.28-.87-2.98,.25,.59,2.19,3.24,1.33,2.97-.24" style="fill:none; fill-rule:evenodd; stroke:#445d82; stroke-linecap:round; stroke-linejoin:round; stroke-width:1.5px;"/><path d="M13.91,17.64c.81,2.13,3.47,1.36,2.96-.25-.83-2.65-3.39-.87-2.97,.24" style="fill:none; fill-rule:evenodd; stroke:#445d82; stroke-linecap:round; stroke-linejoin:round; stroke-width:1.5px;"/><path d="M22.94,21.41c-.19-2.77-3.4-.85-2.98,.25,.81,2.13,3.08,1.43,2.97-.24" style="fill:none; fill-rule:evenodd; stroke:#445d82; stroke-linecap:round; stroke-linejoin:round; stroke-width:1.5px;"/></g></svg>