<?xml version="1.0" encoding="UTF-8"?><svg id="k" xmlns="http://www.w3.org/2000/svg" width="24" height="24" viewBox="0 0 24 24"><g><path d="M13.94,18.85s3.56-3.72,5.89-5.73c.5-.46,1.07-.41,1.48,0l1.66,1.65c.41,.41,.35,.92,0,1.47s-5.19,5.69-6.35,6.42c-.43,.27-.73,.46-1.09,.55s-1.66,0-1.66,0c-.58,0-1.04-.47-1.04-1.04,0,0-.05-1.22,0-1.65s1.12-1.67,1.12-1.67Z" style="fill:none; stroke:#445d82; stroke-miterlimit:10; stroke-width:1.5px;"/><line x1="17.92" y1="14.89" x2="21.05" y2="18.01" style="fill:none; stroke:#445d82; stroke-miterlimit:10; stroke-width:1.5px;"/></g><g><path d="M9.92,23.2c-4.84-.14-9.15-.77-9.15-1.89,0-5.62,8.21-1.83,8.23-8.32" style="fill:none; fill-rule:evenodd; stroke:#445d82; stroke-linecap:round; stroke-miterlimit:10; stroke-width:1.5px;"/><path d="M11.99,14.24c3.14,0,5.24-3.46,5.24-8.15,0-3.59-1.99-5.32-5.24-5.32s-5.24,1.73-5.24,5.32c0,4.7,2.12,8.15,5.23,8.15Z" style="fill:none; fill-rule:evenodd; stroke:#445d82; stroke-miterlimit:10; stroke-width:1.5px;"/></g></svg>