<?xml version="1.0" encoding="UTF-8"?><svg id="em" xmlns="http://www.w3.org/2000/svg" width="24" height="24" viewBox="0 0 24 24"><path d="M12.16,12.52c.25,2.8,3.75,2.54,5.66,3.73,.84,.52,1.44,2.78,1.44,4.28,0,2.28-18.51,2.28-18.51,0,0-1.4,.53-3.65,1.28-4.17,1.89-1.3,5.52-.86,5.77-3.82" style="fill:none; fill-rule:evenodd; stroke:#445d82; stroke-linecap:round; stroke-miterlimit:10; stroke-width:1.5px;"/><path d="M10.01,13.25c2.02,0,4.24-2.24,4.24-6.57,0-3.31-1.62-4.91-4.24-4.91s-4.24,1.6-4.24,4.91c0,4.34,2.22,6.57,4.24,6.57Z" style="fill:none; fill-rule:evenodd; stroke:#445d82; stroke-miterlimit:10; stroke-width:1.5px;"/><path d="M18.25,10.25c0,2.35,2.39,2.82,3.9,3.74,.64,.39,1.1,2.08,1.1,3.2,0,.58-1.31,1.37-3.46,1.56" style="fill:none; fill-rule:evenodd; stroke:#445d82; stroke-linecap:round; stroke-miterlimit:10; stroke-width:1.5px;"/><path d="M13.99,10c.58,.83,1.35,1.25,2.08,1.25,1.45,0,3.15-1.65,3.15-4.84,0-2.44-1.27-3.61-3.15-3.61-.94,0-1.7,.29-2.22,.89" style="fill:none; fill-rule:evenodd; stroke:#445d82; stroke-miterlimit:10; stroke-width:1.5px;"/></svg>