<?xml version="1.0" encoding="UTF-8"?><svg id="ee" xmlns="http://www.w3.org/2000/svg" width="24" height="24" viewBox="0 0 24 24"><path d="M5.51,9.93c2.73-.19,8.74-.31,12.84-.05,1.47,.09,2.53,.98,2.75,2.34,.42,2.49,.14,5.29-.05,7.94-.12,1.7-1.03,2.6-2.88,2.82-2.19,.27-8.61,.22-11.94,.2-2.21-.01-3.06-.99-3.14-1.61-.41-3.27-.47-6.02-.07-9.34,.13-1.12,.91-2.2,2.49-2.31Z" style="fill:none; stroke:#445d82; stroke-linecap:round; stroke-linejoin:round; stroke-width:1.5px;"/><path d="M6.97,9.73c-.26-2.98-.2-5.62,.95-7.1C9.84,.17,14.22,.07,16.25,2.63c.67,.85,.9,2.08,.99,3.62" style="fill:none; stroke:#445d82; stroke-linecap:round; stroke-linejoin:round; stroke-width:1.5px;"/><path d="M13.51,17.12c-.24,.17,.09,1.58-.15,1.85s-2.25,.31-2.54,.12c-.2-.13,.1-1.71-.22-1.94-1.52-1.07-.62-3.33,1.53-3.42,2.19-.09,2.87,2.33,1.39,3.38Z" style="fill:none; stroke:#445d82; stroke-linecap:round; stroke-linejoin:round; stroke-width:1.5px;"/></svg>