<?xml version="1.0" encoding="UTF-8"?><svg id="f" xmlns="http://www.w3.org/2000/svg" width="24" height="24" viewBox="0 0 24 24"><g><path d="M11,23.22c-3.11-.1-10.24-.76-10.24-1.9,0-5.62,8.24-2.22,8.24-9.07" style="fill:none; fill-rule:evenodd; stroke:#505f7a; stroke-linecap:round; stroke-miterlimit:10; stroke-width:1.5px;"/><path d="M15.92,9.01c.23-.84,.37-1.81,.37-2.9,0-3.59-1.83-5.33-4.79-5.33s-4.79,1.74-4.79,5.33,1.4,5.77,3.07,6.68" style="fill:none; fill-rule:evenodd; stroke:#505f7a; stroke-linecap:round; stroke-linejoin:round; stroke-width:1.5px;"/></g><path d="M16.89,11.75c3.65-.28,7.25,3.53,6.09,6.12-3.02,.11-4.47,.12-6.09,0-.27-.16-.19-4.81,0-6.12Z" style="fill:none; stroke:#505f7a; stroke-linecap:round; stroke-linejoin:round; stroke-width:1.5px;"/><path d="M22.2,18.41c-.06,.7-.26,1.36-.56,1.95-.87,1.68-2.63,2.84-4.66,2.84-2.89,0-5.24-2.35-5.24-5.24,0-2.06,1.19-3.85,2.92-4.7,.58-.29,1.21-.47,1.89-.52" style="fill:none; stroke:#505f7a; stroke-linecap:round; stroke-linejoin:round; stroke-width:1.5px;"/></svg>