<?xml version="1.0" encoding="UTF-8"?><svg id="fk" xmlns="http://www.w3.org/2000/svg" width="24" height="24" viewBox="0 0 24 24"><path d="M11.3,9.89c-.83-.29-1.27-.09-1.4,.47-.19,.81-.23,2.64-.03,3.39,.13,.49,.51,.65,1.25,.43,1.16-.34,2.37-1.19,2.94-1.75,.35-.34,.27-.59-.05-.86-.68-.56-1.97-1.43-2.71-1.69Z" style="fill:none; stroke:#445d82; stroke-linecap:round; stroke-linejoin:round; stroke-width:1.5px;"/><path d="M1.92,5.61c.15-2.67,.41-3.48,3.26-3.68,2.85-.19,11.18-.17,13.94,.01,2.43,.16,2.63,.93,2.86,3.38,.41,4.4,.33,9.87-.08,13.24-.29,2.36-.76,3.19-3.92,3.53-2.73,.29-9.9,.11-12.56-.06-1.82-.12-3.25-.6-3.5-3.2-.27-2.85-.16-10.33,0-13.22Z" style="fill:none; stroke:#445d82; stroke-linecap:round; stroke-linejoin:round; stroke-width:1.5px;"/><path d="M2.04,5.76c5.14,0,14.1,.11,19.93,0" style="fill:none; stroke:#445d82; stroke-linecap:round; stroke-linejoin:round; stroke-width:1.5px;"/><path d="M2.15,18.21c5.14,0,13.89,.11,19.72,0" style="fill:none; stroke:#445d82; stroke-linecap:round; stroke-linejoin:round; stroke-width:1.5px;"/><line x1="6.78" y1="2.42" x2="6.78" y2="5.11" style="fill:none; stroke:#445d82; stroke-linecap:round; stroke-linejoin:round; stroke-width:1.5px;"/><line x1="12" y1="2.36" x2="12" y2="5.06" style="fill:none; stroke:#445d82; stroke-linecap:round; stroke-linejoin:round; stroke-width:1.5px;"/><line x1="17.26" y1="2.36" x2="17.26" y2="5.06" style="fill:none; stroke:#445d82; stroke-linecap:round; stroke-linejoin:round; stroke-width:1.5px;"/><line x1="6.78" y1="21.67" x2="6.78" y2="18.96" style="fill:none; stroke:#445d82; stroke-linecap:round; stroke-linejoin:round; stroke-width:1.5px;"/><line x1="12" y1="21.67" x2="12" y2="18.96" style="fill:none; stroke:#445d82; stroke-linecap:round; stroke-linejoin:round; stroke-width:1.5px;"/><line x1="17.26" y1="21.67" x2="17.26" y2="18.96" style="fill:none; stroke:#445d82; stroke-linecap:round; stroke-linejoin:round; stroke-width:1.5px;"/></svg>