<?xml version="1.0" encoding="UTF-8"?><svg id="cv" xmlns="http://www.w3.org/2000/svg" width="24" height="24" viewBox="0 0 24 24"><path d="M6.4,4.49c-2.19,.04-4.95-.06-5.25,1.93-.43,2.81-.51,10.6-.17,13.09,.23,1.66,1.33,2.58,3.97,2.73,2.64,.15,16-.25,16.2-.31s1.71,.29,1.93-2.89,.19-9.66,.12-10.7-.73-3.85-3.51-3.85-11.54-.03-13.29,0Z" style="fill:none; stroke:#445d82; stroke-linecap:round; stroke-linejoin:round; stroke-width:1.5px;"/><path d="M1.22,17.75c1.32,0,3.98,.8,3.98,3.94" style="fill:none; stroke:#445d82; stroke-linecap:round; stroke-linejoin:round; stroke-width:1.5px;"/><path d="M5.21,4.82s.54,3.43-3.42,3.43" style="fill:none; stroke:#445d82; stroke-linecap:round; stroke-linejoin:round; stroke-width:1.5px;"/><path d="M18.77,21.45s.65-3.22,3.48-3.22" style="fill:none; stroke:#445d82; stroke-linecap:round; stroke-linejoin:round; stroke-width:1.5px;"/><path d="M22.62,8.24s-3.9,.4-3.9-3.21" style="fill:none; stroke:#445d82; stroke-linecap:round; stroke-linejoin:round; stroke-width:1.5px;"/><path d="M12.41,9.28c-.12,4.4-4.29,6.75-4.29,6.75l-2.05-3.82c1.63-.73,3.62-3.82,3.62-3.82l2.73,.89Z" style="fill:none; stroke:#445d82; stroke-linecap:round; stroke-linejoin:round; stroke-width:1.5px;"/><path d="M14.59,4.64s-2.43,1.13-3.41,3.85" style="fill:none; stroke:#445d82; stroke-linecap:round; stroke-linejoin:round; stroke-width:1.5px;"/><path d="M7.75,3.75c0-2,.67-2.99,4.27-2.99,2.71,0,4.23,.74,4.23,3.24" style="fill:none; stroke:#445d82; stroke-linecap:round; stroke-linejoin:round; stroke-width:1.5px;"/></svg>