<?xml version="1.0" encoding="UTF-8"?><svg id="q" xmlns="http://www.w3.org/2000/svg" width="24" height="24" viewBox="0 0 24 24"><line x1="15.25" y1="8.75" x2="8.75" y2="16.25" style="fill:none; stroke:#445d82; stroke-linecap:round; stroke-linejoin:round; stroke-width:1.5px;"/><line x1="9" y1="8.75" x2="7.75" y2="10.25" style="fill:none; stroke:#445d82; stroke-linecap:round; stroke-linejoin:round; stroke-width:1.5px;"/><line x1="16.25" y1="14.75" x2="15" y2="16.25" style="fill:none; stroke:#445d82; stroke-linecap:round; stroke-linejoin:round; stroke-width:1.5px;"/><path d="M19.58,1.9c.89,2.33,.85,14.67,0,20.24-.96,.2-3.37,0-3.37,0,0,0-1.72-3.07-4.19-3.03-2.71,.05-4.04,3.05-4.04,3.05,0,0-2.22,.04-3.59-.05-.83-5.27-.83-17.25,0-20.34,.98-.05,3.44-.02,3.44-.02,0,0,1.87,3.09,4.18,3.03,2.31-.06,4.16-2.94,4.16-2.94,0,0,2.5-.05,3.41,.04Z" style="fill:none; stroke:#445d82; stroke-linecap:round; stroke-linejoin:round; stroke-width:1.5px;"/></svg>