<?xml version="1.0" encoding="UTF-8"?><svg id="cg" xmlns="http://www.w3.org/2000/svg" width="24" height="24" viewBox="0 0 24 24"><path d="M12.34,4.74s5.42,1.95,1.96,8.76c0,0-6.34-3.67-2.33-8.76" style="fill:none; stroke:#445d82; stroke-linecap:round; stroke-linejoin:round; stroke-width:1.5px;"/><path d="M14.87,6.98c.92-.27,4.06-.19,6.47,1.2,0,0-.65-8.57-9.68-4.06" style="fill:none; stroke:#445d82; stroke-linecap:round; stroke-linejoin:round; stroke-width:1.5px;"/><path d="M11.12,4.86s-2.08-1.68-5.32-.84c-3.74,.96-3.69,5.38-3.67,5.95,3.87-3.97,6.62-.97,8.87-3.6" style="fill:none; stroke:#445d82; stroke-linecap:round; stroke-linejoin:round; stroke-width:1.5px;"/><path d="M8.75,8.25c-.74,1.25-2.67,6.74-.48,12.74" style="fill:none; stroke:#445d82; stroke-linecap:round; stroke-linejoin:round; stroke-width:1.5px;"/><path d="M11.12,10.83c-.37,.67-1.69,4.99,1.78,8.96" style="fill:none; stroke:#445d82; stroke-linecap:round; stroke-linejoin:round; stroke-width:1.5px;"/><path d="M11.66,3.29S9.9,.39,6.59,.8C2.78,1.28,1.89,5.07,1.89,5.07" style="fill:none; stroke:#445d82; stroke-linecap:round; stroke-linejoin:round; stroke-width:1.5px;"/><path d="M2.92,22.4c-1.45,0-2.16-.96-2.16-1.59,0-.78,2.32-3.23,6.43-3.48" style="fill:none; stroke:#445d82; stroke-linecap:round; stroke-linejoin:round; stroke-width:1.5px;"/><path d="M11.84,17c1.6-.08,3.58,.07,5.58,.34" style="fill:none; stroke:#445d82; stroke-linecap:round; stroke-linejoin:round; stroke-width:1.5px;"/><path d="M20.29,23.24c1.99-.17,2.95-1.36,2.95-2.21,0-1.65-2.05-3.08-5.82-3.69" style="fill:none; stroke:#445d82; stroke-linecap:round; stroke-linejoin:round; stroke-width:1.5px;"/></svg>