<?xml version="1.0" encoding="UTF-8"?><svg id="cx" xmlns="http://www.w3.org/2000/svg" width="24" height="24" viewBox="0 0 24 24"><path d="M22.28,6.17c1.25,.38,1.34,8.31-.1,8.76,0,0,.34,3.55-.13,5.25-.41,1.49-1.81,1.85-3.84,1.97-2.91,.18-11.29,.07-12.56,.03-2.25-.07-3.48-1.06-3.71-2.09-.4-1.78-.03-5.16-.19-5.16-1.37,0-1.09-7.6-.49-8.52,.73-1.11,19-.87,21.02-.24Z" style="fill:none; stroke:#445d82; stroke-linecap:round; stroke-linejoin:round; stroke-width:1.5px;"/><path d="M8.88,5.49c.2-1.02-.87-3.74,3.07-3.74,4.1,0,2.85,2.96,3.08,3.84" style="fill:none; stroke:#445d82; stroke-linecap:round; stroke-linejoin:round; stroke-width:1.5px;"/><path d="M1.63,14.93c.79,.11,7.25,.32,10.65,.32s9.13-.09,9.91-.32" style="fill:none; stroke:#445d82; stroke-linecap:round; stroke-linejoin:round; stroke-width:1.5px;"/><line x1="6.75" y1="12.96" x2="6.75" y2="16.02" style="fill:none; stroke:#445d82; stroke-linecap:round; stroke-linejoin:round; stroke-width:1.5px;"/><line x1="17.25" y1="15.53" x2="17.25" y2="17.52" style="fill:none; stroke:#445d82; stroke-linecap:round; stroke-linejoin:round; stroke-width:1.5px;"/><line x1="6.75" y1="15.53" x2="6.75" y2="17.52" style="fill:none; stroke:#445d82; stroke-linecap:round; stroke-linejoin:round; stroke-width:1.5px;"/><line x1="17.25" y1="12.96" x2="17.25" y2="16.02" style="fill:none; stroke:#445d82; stroke-linecap:round; stroke-linejoin:round; stroke-width:1.5px;"/></svg>