<?xml version="1.0" encoding="UTF-8"?><svg id="hc" xmlns="http://www.w3.org/2000/svg" width="24" height="24" viewBox="0 0 24 24"><circle cx="12" cy="12" r="11.24" style="fill:none; stroke:#445d82; stroke-miterlimit:10; stroke-width:1.5px;"/><path d="M7.37,2.02c.24-.11,.59,1.01,.14,1.5s-.88,1.35-1.68,1.78c-.65,.35-1.7,1.57-2.2,2.24-.68,.93-2.31,1.23-2.54,1.78" style="fill:none; stroke:#445d82; stroke-linecap:round; stroke-linejoin:round; stroke-width:1.5px;"/><path d="M1.05,9.97c.8,3.65,2.52,3.9,2.78,4.75s-.53,2.43-.27,4.42" style="fill:none; stroke:#445d82; stroke-linecap:round; stroke-linejoin:round; stroke-width:1.5px;"/><path d="M23.11,10.33c-1.65-2.3-2.43-2.13-4.5-.19-.3,.28-1.91-1.26-2.11-1.44s-.56-.02-.65,.33,.42,2.06,.92,2.5c.93,.82,1.3,.53,1.47,1.07,.22,.72-.47,.95-.83,1.43-1.04,1.36-.8,2.44-1.08,2.97-.92,1.69-2.17,2.68-2.92,2.68-.64,0-.65-2.25-.76-3.79-.15-1.94-1.11-2.71-1.83-3.08-.73-.38-1.68,.43-2.9-.14-.68-.31-1.15-2.71,.71-3.97,.99-.67,1.95-.77,2.3-.7,.34,.07,.66,.2,.85,.47,.14,.19,1.51,.43,2.14,.41s1.97-.17,2.19-.76,0-.89-.32-1.36c-.56-.8-3.61-1.22-4.75-1.15-.42,.03-.75,.17-1.53,.61-.65,.36-.5-2.85,3.38-3.55,.4-.07,.93,.71,1.37,.65,.74-.1,1.09-.88,.77-2.11" style="fill:none; stroke:#445d82; stroke-linecap:round; stroke-linejoin:round; stroke-width:1.5px;"/></svg>