<?xml version="1.0" encoding="UTF-8"?><svg id="g" xmlns="http://www.w3.org/2000/svg" width="24" height="24" viewBox="0 0 24 24"><path d="M10.06,22.21c-1.68-.03-3.28-.08-4.46-.14-2.3-.12-3.46-.42-3.67-3.37-.24-3.34-.19-9.91,.02-12.85,.21-2.92,1.6-3.78,3.89-3.93s9.1-.22,12.77-.07c2.35,.1,3.41,.93,3.52,3.53,.05,1.16,.08,2.36,.09,3.6" style="fill:none; stroke:#505f7a; stroke-linecap:round; stroke-linejoin:round; stroke-width:1.5px;"/><path d="M2.34,5.75c4.2,.06,15.26,0,19.44,.02" style="fill:none; stroke:#505f7a; stroke-linecap:round; stroke-linejoin:round; stroke-width:1.5px;"/><path d="M16.89,11.71c3.65-.28,7.25,3.53,6.09,6.12-3.02,.11-4.47,.12-6.09,0-.27-.16-.19-4.81,0-6.12Z" style="fill:none; stroke:#505f7a; stroke-linecap:round; stroke-linejoin:round; stroke-width:1.5px;"/><path d="M22.2,18.37c-.06,.7-.26,1.36-.56,1.95-.87,1.68-2.63,2.84-4.66,2.84-2.89,0-5.24-2.35-5.24-5.24,0-2.06,1.19-3.85,2.92-4.7,.58-.29,1.21-.47,1.89-.52" style="fill:none; stroke:#505f7a; stroke-linecap:round; stroke-linejoin:round; stroke-width:1.5px;"/></svg>