<?xml version="1.0" encoding="UTF-8"?><svg id="h" xmlns="http://www.w3.org/2000/svg" width="24" height="24" viewBox="0 0 24 24"><g><path d="M10.63,22.22c-1.89-.03-3.72-.08-5.03-.15-2.3-.12-3.46-.42-3.67-3.37-.24-3.34-.19-9.91,.02-12.85,.21-2.92,1.6-3.78,3.89-3.93s9.1-.22,12.77-.07c2.35,.1,3.41,.93,3.52,3.53,.06,1.39,.09,2.86,.1,4.37" style="fill:none; stroke:#505f7a; stroke-linecap:round; stroke-linejoin:round; stroke-width:1.5px;"/><path d="M2.34,5.75c4.2,.06,15.26,0,19.44,.02" style="fill:none; stroke:#505f7a; stroke-linecap:round; stroke-linejoin:round; stroke-width:1.5px;"/></g><g><path d="M23.2,19.09v-3.41c0-.88-.47-1.68-1.23-2.12l-3.08-1.75c-.74-.42-1.65-.42-2.4,0l-3.08,1.75c-.76,.43-1.23,1.24-1.23,2.12v3.41c0,.88,.47,1.68,1.23,2.12l3.08,1.75c.74,.42,1.65,.42,2.4,0l3.08-1.75c.76-.43,1.23-1.24,1.23-2.12Z" style="fill:none; stroke:#505f7a; stroke-linecap:round; stroke-linejoin:round; stroke-width:1.5px;"/><path d="M18.18,17.75c.58-1.13-.77-1.17-.98-.79-.58,1.05,.7,1.34,.98,.79" style="fill:none; stroke:#505f7a; stroke-linecap:round; stroke-linejoin:round; stroke-width:2px;"/></g></svg>