<?xml version="1.0" encoding="UTF-8"?><svg id="t" xmlns="http://www.w3.org/2000/svg" width="24" height="24" viewBox="0 0 24 24"><path d="M18.64,9.86c-.5,0-4.66-4.23-4.55-4.55S18.13,.77,18.64,.77s4.55,3.86,4.55,4.55-4.05,4.55-4.55,4.55Z" style="fill:none; stroke:#445d82; stroke-linecap:round; stroke-miterlimit:10; stroke-width:1.5px;"/><path d="M1.08,22.84c-.43-.43-.37-7.66,0-7.84s7.35-.44,7.79,0,.59,7.25,0,7.84-7.36,.43-7.79,0Z" style="fill:none; stroke:#445d82; stroke-linecap:round; stroke-miterlimit:10; stroke-width:1.5px;"/><path d="M9.27,5.01c0,2.36-1.75,4.26-4.26,4.26S.75,7.36,.75,5.01,3.1,.84,5.01,.75c1.91-.09,4.26,1.89,4.26,4.26Z" style="fill:none; stroke:#445d82; stroke-linecap:round; stroke-miterlimit:10; stroke-width:1.5px;"/><path d="M23.24,18.5c0,2.63-1.95,4.74-4.74,4.74s-4.74-2.12-4.74-4.74,2.61-4.65,4.74-4.74c2.13-.09,4.74,2.11,4.74,4.74Z" style="fill:none; stroke:#445d82; stroke-linecap:round; stroke-miterlimit:10; stroke-width:1.5px;"/><line x1="5" y1="10" x2="5" y2="14.75" style="fill:none; stroke:#445d82; stroke-linecap:round; stroke-miterlimit:10; stroke-width:1.5px;"/><line x1="9.96" y1="5" x2="14.05" y2="5" style="fill:none; stroke:#445d82; stroke-linecap:round; stroke-miterlimit:10; stroke-width:1.5px;"/><line x1="18.5" y1="9.96" x2="18.5" y2="13.5" style="fill:none; stroke:#445d82; stroke-linecap:round; stroke-miterlimit:10; stroke-width:1.5px;"/></svg>