<?xml version="1.0" encoding="UTF-8"?><svg id="cj" xmlns="http://www.w3.org/2000/svg" width="24" height="24" viewBox="0 0 24 24"><path d="M12.01,19.98c0-.06-.06,.33,0,.25" style="fill:none; stroke:#445d82; stroke-linecap:round; stroke-linejoin:round; stroke-width:1.5px;"/><path d="M19.15,11.81c0-.06-.06,.33,0,.25" style="fill:none; stroke:#445d82; stroke-linecap:round; stroke-linejoin:round; stroke-width:1.5px;"/><path d="M12,4.94c0-.06-.06,.33,0,.25" style="fill:none; stroke:#445d82; stroke-linecap:round; stroke-linejoin:round; stroke-width:1.5px;"/><path d="M4.5,3.63C6.48,1.85,9.1,.77,11.97,.77c2.53,0,4.83,.78,6.67,2.15" style="fill:none; stroke:#445d82; stroke-dasharray:0 0 2 4; stroke-linecap:round; stroke-linejoin:round; stroke-width:1.5px;"/><path d="M1.4,8.25c.31-1.02,1.01-3.05,2.02-3.6" style="fill:none; stroke:#445d82; stroke-dasharray:0 0 2 4; stroke-linecap:round; stroke-linejoin:round; stroke-width:1.5px;"/><path d="M19.7,20.41c-2.04,1.79-4.78,2.83-7.72,2.83C5.76,23.24,.75,19.17,.75,12" style="fill:none; stroke:#445d82; stroke-linecap:round; stroke-linejoin:round; stroke-width:1.5px;"/><path d="M20.71,4.34c1.76,1.74,2.44,5.4,2.53,7.67,.13,3.49-1.27,6.42-3.54,8.41" style="fill:none; stroke:#445d82; stroke-dasharray:0 0 2 4; stroke-linecap:round; stroke-linejoin:round; stroke-width:1.5px;"/><path d="M11.97,13.1c-1.03,.04-1.27-2.22,.03-2.22,1.4,0,1.2,2.15,0,2.19" style="fill:none; stroke:#445d82; stroke-linecap:round; stroke-linejoin:round; stroke-width:1.5px;"/><path d="M5.68,11.73c.82,.12,3.96,.09,4.87-.13" style="fill:none; stroke:#445d82; stroke-linecap:round; stroke-linejoin:round; stroke-width:1.5px;"/><polyline points="6.36 13.67 4.5 11.8 6.36 9.94" style="fill:none; stroke:#445d82; stroke-linecap:round; stroke-linejoin:round; stroke-width:1.5px;"/><path d="M16.17,16.1c-.5-.67-2.74-2.87-3.54-3.35" style="fill:none; stroke:#445d82; stroke-linecap:round; stroke-linejoin:round; stroke-width:1.5px;"/><polyline points="17.06 14.25 17.06 16.89 14.41 16.89" style="fill:none; stroke:#445d82; stroke-linecap:round; stroke-linejoin:round; stroke-width:1.5px;"/></svg>