<?xml version="1.0" encoding="UTF-8"?><svg id="da" xmlns="http://www.w3.org/2000/svg" width="24" height="24" viewBox="0 0 24 24"><path d="M12.75,10.75c-.13,.94-1.5,6.67-1.5,7.5" style="fill:none; stroke:#445d82; stroke-linecap:round; stroke-linejoin:round; stroke-width:1.5px;"/><path d="M8.82,12.59s-2.07,1.63-2.07,2.03,2.07,1.99,2.07,1.99" style="fill:none; stroke:#445d82; stroke-linecap:round; stroke-linejoin:round; stroke-width:1.5px;"/><path d="M15.18,16.59s2.07-1.61,2.07-2.01-2.07-2.01-2.07-2.01" style="fill:none; stroke:#445d82; stroke-linecap:round; stroke-linejoin:round; stroke-width:1.5px;"/><path d="M20.13,18.34c-.17,2.95-2.24,3.78-3.98,3.85-1.74,.08-6.57,.06-8.31,0s-3.77-.33-3.92-2.75c-.21-3.3-.14-8.25-.05-10.21,.06-1.22,.52-1.91,1.16-2.76s2.73-2.91,3.64-3.56c.91-.65,1.79-1.1,2.82-1.13s3.55,0,5.34,.03,3.21,.96,3.31,3.87c.12,1.89,.18,9.47,0,12.67Z" style="fill:none; stroke:#445d82; stroke-miterlimit:10; stroke-width:1.5px;"/><path d="M3.81,10.5c.09-.65-.07-2.43,2.17-2.29h2.14c1.18,0,2.14-.96,2.14-2.16V3.9c0-1.19,.96-2.16,2.14-2.16" style="fill:none; stroke:#445d82; stroke-linecap:round; stroke-linejoin:round; stroke-width:1.5px;"/></svg>