<?xml version="1.0" encoding="UTF-8"?><svg id="fi" xmlns="http://www.w3.org/2000/svg" width="24" height="24" viewBox="0 0 24 24"><path d="M1.95,5.86c.21-2.92,1.6-3.78,3.89-3.93s9.1-.22,12.77-.07c2.35,.1,3.41,.93,3.52,3.53,.16,3.98,.12,8.56,.04,12.87-.06,3.4-1.22,3.65-4.12,3.88-2.32,.18-9.11,.12-12.45-.05-2.3-.12-3.46-.42-3.67-3.37-.24-3.34-.19-9.91,.02-12.85Z" style="fill:none; stroke:#445d82; stroke-linecap:round; stroke-linejoin:round; stroke-width:1.5px;"/><path d="M2.34,5.75c4.2,.06,15.26,0,19.44,.02" style="fill:none; stroke:#445d82; stroke-linecap:round; stroke-linejoin:round; stroke-width:1.5px;"/><path d="M13.28,8.6c-.62,2.73-1.66,7.94-2.26,10.21" style="fill:none; stroke:#445d82; stroke-linecap:round; stroke-linejoin:round; stroke-width:1.5px;"/><path d="M16.8,16.54s2.2-2.27,2.2-2.83-2.2-2.83-2.2-2.83" style="fill:none; stroke:#445d82; stroke-linecap:round; stroke-linejoin:round; stroke-width:1.5px;"/><path d="M7.43,16.54s-2.2-2.27-2.2-2.83c0-.57,2.2-2.83,2.2-2.83" style="fill:none; stroke:#445d82; stroke-linecap:round; stroke-linejoin:round; stroke-width:1.5px;"/></svg>