<svg width="56" height="50" viewBox="0 0 56 50" fill="none" xmlns="http://www.w3.org/2000/svg">
<path d="M6.09848 6.73873L6.79313 6.01939C7.17678 5.62211 7.16573 4.98904 6.76845 4.60539C6.37117 4.22174 5.7381 4.23279 5.35446 4.63007L4.6598 5.34941C4.27615 5.74669 4.2872 6.37976 4.68448 6.76341C5.08176 7.14706 5.71483 7.13601 6.09848 6.73873Z" fill="#8A8A8A"/>
<path d="M5.33927 45.3886L4.64461 44.6693C4.26096 44.272 4.27201 43.6389 4.66929 43.2553C5.06657 42.8716 5.69964 42.8827 6.08329 43.28L6.77795 43.9993C7.1616 44.3966 7.15055 45.0297 6.75327 45.4133C6.35599 45.797 5.72292 45.7859 5.33927 45.3886Z" fill="#8A8A8A"/>
<path d="M2 33.3333V32.1667C2 31.5223 1.55228 31 1 31C0.447715 31 0 31.5223 0 32.1667L0 33.3333C0 33.9777 0.447715 34.5 1 34.5C1.55228 34.5 2 33.9777 2 33.3333Z" fill="#8A8A8A"/>
<path d="M2 17.7334V16.5667C2 15.9224 1.55228 15.4 1 15.4C0.447715 15.4 0 15.9224 0 16.5667L0 17.7334C0 18.3777 0.447715 18.9 1 18.9C1.55228 18.9 2 18.3777 2 17.7334Z" fill="#8A8A8A"/>
<path d="M28.3999 0H27.3999C26.8476 0 26.3999 0.447715 26.3999 1C26.3999 1.55228 26.8476 2 27.3999 2H28.3999C28.9522 2 29.3999 1.55228 29.3999 1C29.3999 0.447715 28.9522 0 28.3999 0Z" fill="#8A8A8A"/>
<path d="M17.5 0H16.5C15.9477 0 15.5 0.447715 15.5 1C15.5 1.55228 15.9477 2 16.5 2H17.5C18.0523 2 18.5 1.55228 18.5 1C18.5 0.447715 18.0523 0 17.5 0Z" fill="#8A8A8A"/>
<path d="M28.5 50H27.5C26.9477 50 26.5 49.5523 26.5 49C26.5 48.4477 26.9477 48 27.5 48H28.5C29.0523 48 29.5 48.4477 29.5 49C29.5 49.5523 29.0523 50 28.5 50Z" fill="#8A8A8A"/>
<path d="M17.5 50H16.5C15.9477 50 15.5 49.5523 15.5 49C15.5 48.4477 15.9477 48 16.5 48H17.5C18.0523 48 18.5 48.4477 18.5 49C18.5 49.5523 18.0523 50 17.5 50Z" fill="#8A8A8A"/>
<path d="M49.9015 6.73873L49.2069 6.01939C48.8232 5.62211 48.8343 4.98904 49.2315 4.60539C49.6288 4.22174 50.2619 4.23279 50.6455 4.63007L51.3402 5.34941C51.7239 5.74669 51.7128 6.37976 51.3155 6.76341C50.9182 7.14706 50.2852 7.13601 49.9015 6.73873Z" fill="#8A8A8A"/>
<path d="M50.6607 45.3886L51.3554 44.6693C51.739 44.272 51.728 43.6389 51.3307 43.2553C50.9334 42.8716 50.3004 42.8827 49.9167 43.28L49.2221 43.9993C48.8384 44.3966 48.8495 45.0297 49.2467 45.4133C49.644 45.797 50.2771 45.7859 50.6607 45.3886Z" fill="#8A8A8A"/>
<path d="M54 33.3333V32.1667C54 31.5223 54.4477 31 55 31C55.5523 31 56 31.5223 56 32.1667V33.3333C56 33.9777 55.5523 34.5 55 34.5C54.4477 34.5 54 33.9777 54 33.3333Z" fill="#8A8A8A"/>
<path d="M54 17.7334V16.5667C54 15.9224 54.4477 15.4 55 15.4C55.5523 15.4 56 15.9224 56 16.5667V17.7334C56 18.3777 55.5523 18.9 55 18.9C54.4477 18.9 54 18.3777 54 17.7334Z" fill="#8A8A8A"/>
<path d="M38.5 0H39.5C40.0523 0 40.5 0.447715 40.5 1C40.5 1.55228 40.0523 2 39.5 2H38.5C37.9477 2 37.5 1.55228 37.5 1C37.5 0.447715 37.9477 0 38.5 0Z" fill="#8A8A8A"/>
<path d="M38.5 50H39.5C40.0523 50 40.5 49.5523 40.5 49C40.5 48.4477 40.0523 48 39.5 48H38.5C37.9477 48 37.5 48.4477 37.5 49C37.5 49.5523 37.9477 50 38.5 50Z" fill="#8A8A8A"/>
</svg>
