<svg width="83" height="84" viewBox="0 0 83 84" fill="none" xmlns="http://www.w3.org/2000/svg">
<path d="M13.068 5.29999L13.934 4.79999C14.4123 4.52385 14.5762 3.91226 14.3 3.43396C14.0239 2.95567 13.4123 2.79179 12.934 3.06794L12.068 3.56794C11.5897 3.84408 11.4258 4.45567 11.702 4.93396C11.9781 5.41226 12.5897 5.57613 13.068 5.29999Z" fill="#1482CC"/>
<path d="M4.85664 13.9358L5.37168 13.0786C5.65613 12.6052 5.50295 11.9908 5.02955 11.7064C4.55615 11.4219 3.94179 11.5751 3.65735 12.0485L3.14231 12.9057C2.85786 13.3791 3.01104 13.9935 3.48444 14.2779C3.95784 14.5623 4.57219 14.4092 4.85664 13.9358Z" fill="#1482CC"/>
<path d="M2 36.6V35.6C2 35.0477 1.55228 34.6 1 34.6C0.447715 34.6 0 35.0477 0 35.6L0 36.6C0 37.1523 0.447715 37.6 1 37.6C1.55228 37.6 2 37.1523 2 36.6Z" fill="#1482CC"/>
<path d="M2 25.5V24.5C2 23.9477 1.55228 23.5 1 23.5C0.447715 23.5 0 23.9477 0 24.5L0 25.5C0 26.0523 0.447715 26.5 1 26.5C1.55228 26.5 2 26.0523 2 25.5Z" fill="#1482CC"/>
<path d="M2 47.8V46.8C2 46.2478 1.55228 45.8 1 45.8C0.447715 45.8 0 46.2478 0 46.8L0 47.8C0 48.3523 0.447715 48.8 1 48.8C1.55228 48.8 2 48.3523 2 47.8Z" fill="#1482CC"/>
<path d="M36.3999 0H35.3999C34.8476 0 34.3999 0.447715 34.3999 1C34.3999 1.55228 34.8476 2 35.3999 2H36.3999C36.9522 2 37.3999 1.55228 37.3999 1C37.3999 0.447715 36.9522 0 36.3999 0Z" fill="#1482CC"/>
<path d="M25.5 0H24.5C23.9477 0 23.5 0.447715 23.5 1C23.5 1.55228 23.9477 2 24.5 2H25.5C26.0523 2 26.5 1.55228 26.5 1C26.5 0.447715 26.0523 0 25.5 0Z" fill="#1482CC"/>
<path d="M13.068 78.2L13.934 78.7C14.4123 78.9761 14.5762 79.5877 14.3 80.066C14.0239 80.5443 13.4123 80.7081 12.934 80.432L12.068 79.932C11.5897 79.6559 11.4258 79.0443 11.702 78.566C11.9781 78.0877 12.5897 77.9238 13.068 78.2Z" fill="#1482CC"/>
<path d="M4.85664 69.5642L5.37168 70.4214C5.65613 70.8948 5.50295 71.5092 5.02955 71.7936C4.55615 72.0781 3.94179 71.9249 3.65735 71.4515L3.14231 70.5943C2.85786 70.1209 3.01104 69.5065 3.48444 69.2221C3.95784 68.9377 4.57219 69.0908 4.85664 69.5642Z" fill="#1482CC"/>
<path d="M2 58V59C2 59.5523 1.55228 60 1 60C0.447715 60 0 59.5523 0 59L0 58C0 57.4477 0.447715 57 1 57C1.55228 57 2 57.4477 2 58Z" fill="#1482CC"/>
<path d="M36.3999 83.5H35.3999C34.8476 83.5 34.3999 83.0523 34.3999 82.5C34.3999 81.9477 34.8476 81.5 35.3999 81.5H36.3999C36.9522 81.5 37.3999 81.9477 37.3999 82.5C37.3999 83.0523 36.9522 83.5 36.3999 83.5Z" fill="#1482CC"/>
<path d="M25.5 83.5H24.5C23.9477 83.5 23.5 83.0523 23.5 82.5C23.5 81.9477 23.9477 81.5 24.5 81.5H25.5C26.0523 81.5 26.5 81.9477 26.5 82.5C26.5 83.0523 26.0523 83.5 25.5 83.5Z" fill="#1482CC"/>
<path d="M69.632 5.29999L68.7659 4.79999C68.2876 4.52385 68.1238 3.91226 68.3999 3.43396C68.676 2.95567 69.2876 2.79179 69.7659 3.06794L70.632 3.56794C71.1102 3.84408 71.2741 4.45567 70.998 4.93396C70.7218 5.41226 70.1102 5.57613 69.632 5.29999Z" fill="#1482CC"/>
<path d="M77.8433 13.9358L77.3283 13.0786C77.0438 12.6052 77.197 11.9908 77.6704 11.7064C78.1438 11.4219 78.7582 11.5751 79.0426 12.0485L79.5576 12.9057C79.8421 13.3791 79.6889 13.9935 79.2155 14.2779C78.7421 14.5623 78.1278 14.4092 77.8433 13.9358Z" fill="#1482CC"/>
<path d="M80.7 36.6V35.6C80.7 35.0477 81.1477 34.6 81.7 34.6C82.2522 34.6 82.7 35.0477 82.7 35.6V36.6C82.7 37.1523 82.2522 37.6 81.7 37.6C81.1477 37.6 80.7 37.1523 80.7 36.6Z" fill="#1482CC"/>
<path d="M80.7 25.5V24.5C80.7 23.9477 81.1477 23.5 81.7 23.5C82.2522 23.5 82.7 23.9477 82.7 24.5V25.5C82.7 26.0523 82.2522 26.5 81.7 26.5C81.1477 26.5 80.7 26.0523 80.7 25.5Z" fill="#1482CC"/>
<path d="M80.7 47.8V46.8C80.7 46.2478 81.1477 45.8 81.7 45.8C82.2522 45.8 82.7 46.2478 82.7 46.8V47.8C82.7 48.3523 82.2522 48.8 81.7 48.8C81.1477 48.8 80.7 48.3523 80.7 47.8Z" fill="#1482CC"/>
<path d="M46.3 0H47.3C47.8523 0 48.3 0.447715 48.3 1C48.3 1.55228 47.8523 2 47.3 2H46.3C45.7478 2 45.3 1.55228 45.3 1C45.3 0.447715 45.7478 0 46.3 0Z" fill="#1482CC"/>
<path d="M57.2 0H58.2C58.7522 0 59.2 0.447715 59.2 1C59.2 1.55228 58.7522 2 58.2 2H57.2C56.6477 2 56.2 1.55228 56.2 1C56.2 0.447715 56.6477 0 57.2 0Z" fill="#1482CC"/>
<path d="M69.632 78.2L68.7659 78.7C68.2876 78.9761 68.1238 79.5877 68.3999 80.066C68.676 80.5443 69.2876 80.7081 69.7659 80.432L70.632 79.932C71.1102 79.6559 71.2741 79.0443 70.998 78.566C70.7218 78.0877 70.1102 77.9238 69.632 78.2Z" fill="#1482CC"/>
<path d="M77.8433 69.5642L77.3283 70.4214C77.0438 70.8948 77.197 71.5092 77.6704 71.7936C78.1438 72.0781 78.7582 71.9249 79.0426 71.4515L79.5576 70.5943C79.8421 70.1209 79.6889 69.5065 79.2155 69.2221C78.7421 68.9377 78.1278 69.0908 77.8433 69.5642Z" fill="#1482CC"/>
<path d="M80.7 58V59C80.7 59.5523 81.1477 60 81.7 60C82.2522 60 82.7 59.5523 82.7 59V58C82.7 57.4477 82.2522 57 81.7 57C81.1477 57 80.7 57.4477 80.7 58Z" fill="#1482CC"/>
<path d="M46.3 83.5H47.3C47.8523 83.5 48.3 83.0523 48.3 82.5C48.3 81.9477 47.8523 81.5 47.3 81.5H46.3C45.7478 81.5 45.3 81.9477 45.3 82.5C45.3 83.0523 45.7478 83.5 46.3 83.5Z" fill="#1482CC"/>
<path d="M57.2 83.5H58.2C58.7522 83.5 59.2 83.0523 59.2 82.5C59.2 81.9477 58.7522 81.5 58.2 81.5H57.2C56.6477 81.5 56.2 81.9477 56.2 82.5C56.2 83.0523 56.6477 83.5 57.2 83.5Z" fill="#1482CC"/>
</svg>
