<svg width="129" height="129" viewBox="0 0 129 129" fill="none" xmlns="http://www.w3.org/2000/svg">
<g id="Pictogram-map-location">
<g id="Default">
<path id="dash-stroke-default" d="M23.7822 90.4695C30.8522 86.0395 35.9122 82.2795 39.3222 82.2795C44.4522 82.2795 60.0622 91.0995 52.7122 96.2395C46.0822 100.87 57.6322 103.69 63.6422 107.03C65.7822 107.03 69.9122 106.01 81.6722 98.8395C89.9522 93.7995 93.1622 94.1095 98.8222 97.7895C117.882 110.16 109.932 80.2795 85.0422 86.3295" stroke="#494A4A" stroke-linecap="round" stroke-linejoin="round" stroke-dasharray="5 5"/>
<path id="2px-stroke-default" d="M72.0225 77.7396C69.1325 78.9096 64.0825 81.5796 62.4325 81.6096C59.3525 81.6596 43.5225 72.5496 40.0925 72.5496C36.6625 72.5496 21.7425 78.1996 19.2525 81.6096C13.2925 89.7596 3.4725 119.6 6.2525 121.45C9.0325 123.3 25.1625 107.9 31.6325 107.86C38.1025 107.82 57.8325 122.36 62.4425 122.36C67.0525 122.36 86.3125 107.8 92.3525 107.86C98.3925 107.92 120.313 124.51 122.263 121.45C124.203 118.4 115.713 88.3496 109.093 80.6996C106.493 77.6996 99.8025 74.4896 94.2725 73.6896" stroke="#494A4A" stroke-width="2" stroke-linecap="round" stroke-linejoin="round"/>
<path id="1px-stroke-default" d="M33.5127 98.8895L40.6927 72.2295M90.9327 97.0295L88.8927 78.4795M92.3427 107.849L91.5327 101.079" stroke="#494A4A" stroke-linecap="round" stroke-linejoin="round"/>
<path id="fill-default" d="M10.9321 115.91C13.5721 117.55 28.9121 103.91 35.0521 103.87C41.1921 103.83 59.9621 116.71 64.3421 116.71C68.7221 116.71 87.0321 103.81 92.7721 103.87C98.5121 103.93 119.352 118.61 121.202 115.91C123.052 113.21 114.982 86.5996 108.682 79.8196C106.622 77.6096 101.022 76.9896 95.4821 75.6496C92.0021 78.7596 87.2721 87.3896 84.4821 87.6496C82.6021 87.8296 78.2721 81.5196 75.4821 76.6496C69.5821 78.8796 66.0121 80.5996 64.3521 80.6196C61.4221 80.6596 46.3821 72.5896 43.1221 72.5896C39.8621 72.5896 25.6821 77.5896 23.3121 80.6196C17.6521 87.8396 8.31212 114.27 10.9521 115.91H10.9321Z" fill="#494A4A" fill-opacity="0.08"/>
</g>
<g id="Emphasis">
<g id="2px-stroke-emphasis">
<path d="M100.053 41.4994C100.053 54.0694 87.4825 84.2494 83.7025 84.2494C79.9225 84.2494 67.3525 54.0694 67.3525 41.4994C67.3525 32.4694 74.6725 25.1494 83.7025 25.1494C92.7325 25.1494 100.053 32.4694 100.053 41.4994Z" stroke="#116FAE" stroke-width="2" stroke-linecap="round" stroke-linejoin="round"/>
<path d="M83.7025 53.3994C89.5402 53.3994 94.2725 48.6671 94.2725 42.8294C94.2725 36.9918 89.5402 32.2594 83.7025 32.2594C77.8649 32.2594 73.1325 36.9918 73.1325 42.8294C73.1325 48.6671 77.8649 53.3994 83.7025 53.3994Z" stroke="#116FAE" stroke-width="2" stroke-linecap="round" stroke-linejoin="round"/>
</g>
<path id="1px-stroke-emphasis" d="M71.7421 21.9094C71.7421 20.7694 71.6521 14.7094 71.6221 14.1594M71.3921 10.3594L71.3721 6.88937M93.1021 22.3094L93.0821 14.4594M79.9521 20.0594L79.7921 1.59937M89.9121 20.4194V7.43937" stroke="#116FAE" stroke-linecap="round" stroke-linejoin="round"/>
<path id="fill-emphasis" d="M104.653 40.2294C104.023 24.3894 71.8129 22.3094 72.1829 40.9894C72.4829 55.8994 84.8629 85.9394 86.8229 85.9794C89.5229 86.0294 105.283 56.0694 104.653 40.2294ZM86.1129 56.3394C79.9829 56.3394 75.0229 51.3694 75.0229 45.2494C75.0229 39.1294 79.9929 34.1594 86.1129 34.1594C92.2329 34.1594 97.2029 39.1294 97.2029 45.2494C97.2029 51.3694 92.2329 56.3394 86.1129 56.3394Z" fill="#116FAE" fill-opacity="0.24"/>
</g>
</g>
</svg>
