<svg width="128" height="129" viewBox="0 0 128 129" fill="none" xmlns="http://www.w3.org/2000/svg">
<g id="Pictogram-idea-creativity">
<g id="Default">
<path id="dash-stroke-default" d="M64.498 65.0718H64.499" stroke="#494A4A" stroke-width="0.001"/>
<path id="2px-stroke-default" d="M76.2698 119.859C74.5598 124.659 71.4198 127.729 66.2098 127.729C60.9998 127.729 57.9598 124.729 56.2098 119.859M24.6398 23.8793C23.2898 27.2993 16.8898 30.4393 11.9798 26.8793C7.76982 23.8793 12.6398 19.6893 14.4698 23.7093C18.9298 33.5393 11.7498 42.9893 2.68982 39.0893C-1.22018 37.3993 1.41982 30.6993 5.36982 33.9093C10.6198 38.1893 12.2798 48.1493 1.92982 52.7393C10.7098 50.7393 15.1298 56.1193 9.79982 65.7393C12.5898 62.5493 17.2798 67.0493 18.7998 72.9793M112.25 32.6493C112.08 36.4793 115.62 38.7793 120.1 36.5093C116.44 39.2093 117.72 48.7893 124.86 48.2193C127.95 47.9793 127.71 42.7393 124.24 44.0293C119.62 45.7393 116.13 52.2093 122.17 57.8093C117.17 56.2393 114.86 60.2793 114.3 63.1193M76.9198 110.169C84.5998 108.169 82.3898 101.959 82.3898 101.959C80.3198 103.409 77.9598 104.389 75.4798 104.849C70.7798 105.759 65.9798 105.979 61.2198 105.509C59.5398 105.359 57.8698 105.089 56.2198 104.709C54.9598 104.419 53.7398 104.019 52.5598 103.499C51.5698 103.069 50.6498 102.479 49.8498 101.759C49.8498 101.759 47.0798 108.989 57.6898 110.759M81.4698 108.529C81.4698 108.529 83.3598 112.209 78.0898 114.659M50.7498 108.339C50.7498 108.339 49.5398 111.199 52.0998 113.569C52.8998 114.309 54.0598 114.999 55.7498 115.549M62.5998 121.219C66.4398 121.699 70.3298 121.419 74.0598 120.409C80.9398 118.589 80.3898 113.259 80.3898 113.259M51.8098 113.259C51.8098 113.259 50.8098 118.889 59.1198 120.679M56.2698 70.3293C56.2698 70.3293 58.0698 77.6793 52.4098 81.4093M51.1798 48.8493C51.1798 48.8493 50.5798 41.7893 58.7798 41.1893M52.8998 83.6493C52.8998 83.6493 52.7898 81.3393 49.8998 79.6493M53.0698 50.2993C51.8298 49.6993 50.4098 49.5493 49.0698 49.8793M66.3698 102.409C66.5298 100.929 64.9998 99.4093 65.5798 97.7793C65.7998 97.1793 68.2498 100.399 68.5798 99.5293C69.1098 98.2293 66.7598 96.6193 67.0398 94.3193M58.8398 102.459C57.8398 100.779 57.5098 98.6993 56.8398 98.3193C56.5098 98.1193 56.0798 100.579 56.0898 100.319C55.9898 99.2593 55.5798 98.2493 54.9098 97.4093M73.2398 102.579C73.2398 102.579 73.0898 99.7993 74.3498 99.7893C75.6098 99.7793 74.9498 98.8693 74.9498 98.8693" stroke="#494A4A" stroke-linecap="round" stroke-linejoin="round"/>
<path id="1px-stroke-default" d="M45.4799 32.3394C45.4799 32.3394 44.9999 25.6494 39.6399 25.1094M37.2699 49.6494C37.2699 49.6494 30.9999 47.1394 26.7899 50.9094M45.4799 68.8194C45.4799 68.8194 34.1699 67.0194 34.2099 79.6494M37.2699 56.6494C36.2099 51.8594 38.0599 46.8994 41.9999 43.9694M41.9999 34.4294C41.9999 34.4294 44.4099 32.2994 50.3199 32.3394M47.5599 70.8794C46.1399 69.6394 45.5899 67.6694 46.1699 65.8794M64.4599 50.3994C64.3399 74.0794 65.9999 86.9294 58.9999 92.5794C50.7199 99.2494 30.9999 94.5794 34.6699 75.3594C34.6699 75.3594 25.0699 75.0294 23.7399 62.7794C22.4099 50.5294 29.8699 49.2094 29.8699 49.2094C29.8699 49.2094 22.4199 39.1094 28.2099 30.8294C33.9999 22.5494 41.4499 25.5294 41.4499 25.5294C41.4499 25.5294 41.2799 14.6494 52.3699 14.6494C65.7799 14.6494 64.5599 31.6494 64.4599 50.3994Z" stroke="#494A4A" stroke-width="2" stroke-linecap="round" stroke-linejoin="round"/>
<g id="fill-default">
<path d="M63.9994 52.9294C63.8594 76.1294 65.3594 88.7194 58.9994 94.2494C51.5294 100.789 33.7594 96.2494 36.9994 77.3794C36.9994 77.3794 28.3394 77.0594 27.1394 65.0594C25.9394 53.0594 32.6694 51.7594 32.6694 51.7594C32.6694 51.7594 25.9494 41.8694 31.1794 33.7594C36.4094 25.6494 43.1794 28.5694 43.1794 28.5694C43.1794 28.5694 43.0294 17.8594 53.0394 17.8594C65.1594 17.8694 64.0594 34.5394 63.9994 52.9294Z" fill="#494A4A" fill-opacity="0.08"/>
<path d="M67.2094 126.249C63.2094 126.189 59.9494 122.579 58.9494 119.679C57.9494 116.779 57.1394 117.849 56.3194 114.169C55.4994 110.489 54.1794 110.429 54.5294 108.959C54.8794 107.489 55.4394 110.079 66.5294 109.239C77.6194 108.399 81.3994 104.019 81.0894 107.709C80.7794 111.399 80.4094 110.049 80.3694 113.129C80.3294 116.209 79.5494 117.469 78.2194 118.439C76.8894 119.409 75.8494 122.199 74.6494 123.249C73.4494 124.299 72.4094 126.319 67.2094 126.249Z" fill="#494A4A" fill-opacity="0.08"/>
</g>
</g>
<g id="Emphasis">
<path id="2px-stroke-emphasis" d="M86.6799 32.3394C86.6799 32.3394 87.1799 25.6694 92.5299 25.1094M94.8899 49.6494C94.8899 49.6494 101.21 47.0994 105.37 50.8694M86.6799 68.8194C86.6799 68.8194 97.9999 67.0194 97.9999 79.6494M94.8899 56.6494C95.9499 51.8594 94.0999 46.8994 90.1599 43.9794M90.1599 34.4294C90.1599 34.4294 87.7399 32.2994 81.8299 32.3394M84.6099 70.8794C86.0299 69.6394 86.5799 67.6694 85.9899 65.8794M67.6999 50.3994C67.8199 74.0794 66.1699 86.9294 73.1699 92.5794C81.4499 99.2494 101.17 94.5794 97.5099 75.3594C97.5099 75.3594 107.11 75.0294 108.43 62.7794C109.75 50.5294 102.31 49.2094 102.31 49.2094C102.31 49.2094 109.76 39.1094 103.96 30.8294C98.1599 22.5494 90.7199 25.5294 90.7199 25.5294C90.7199 25.5294 90.8899 14.6494 79.7899 14.6494C66.3799 14.6494 67.5999 31.6494 67.6999 50.3994Z" stroke="#116FAE" stroke-width="2" stroke-linecap="round" stroke-linejoin="round"/>
<path id="1px-stroke-emphasis" d="M75.8996 70.3295C75.8996 70.3295 74.0896 77.6495 79.7596 81.4095M80.9996 48.8495C80.9996 48.8495 81.5996 41.7895 73.3896 41.1895M79.2696 83.6495C79.2696 83.6495 79.3696 81.3395 82.2696 79.6495M79.0896 50.2995C80.3396 49.6995 81.7496 49.5594 83.0896 49.8794" stroke="#116FAE" stroke-linecap="round" stroke-linejoin="round"/>
<path id="fill-emphasis" d="M69.39 51.1094C68.05 75.2994 67.73 88.5094 74.99 94.2894C83.58 101.119 102.93 96.5094 99.15 76.8594C99.15 76.8594 109.15 76.5194 110.48 63.9794C111.81 51.4394 104.13 50.0794 104.13 50.0794C104.13 50.0794 110.92 39.8294 104.91 31.3594C98.9 22.8894 87.71 25.7194 87.71 25.7194C87.71 25.7194 87.9 17.8594 80.76 17.8594C70 17.8594 70.47 31.6494 69.39 51.1094Z" fill="#116FAE" fill-opacity="0.24"/>
</g>
</g>
</svg>
