<svg width="128" height="128" viewBox="0 0 128 128" fill="none" xmlns="http://www.w3.org/2000/svg">
<g id="Pictogram-key-user">
<g id="Default">
<path id="dash-stroke-default" d="M64.4873 69.1494H64.4883" stroke="#494A4A" stroke-width="0.001"/>
<path id="2px-stroke-default" d="M79.2888 122.919C36.8688 122.919 13.2988 118.559 13.2988 112.999C13.2988 104.869 16.2188 91.8094 20.4288 88.7894C31.2888 80.9894 52.5988 83.9694 52.5988 64.7094M76.2488 63.8994C76.2488 65.0894 76.7588 67.2094 77.8888 69.5294M64.4888 68.8894C75.3188 68.8894 87.2388 56.5094 87.2388 32.5194C87.2388 14.2194 78.5688 5.37939 64.4888 5.37939C50.4088 5.37939 41.7388 14.2194 41.7388 32.5194C41.7388 56.5094 53.6588 68.8894 64.4888 68.8894Z" stroke="#494A4A" stroke-width="2" stroke-miterlimit="10" stroke-linecap="round"/>
<path id="1px-stroke-default" d="M27.9587 90.8494C22.8287 92.5194 22.6687 93.2294 20.8887 99.9194" stroke="#494A4A" stroke-linecap="round" stroke-linejoin="round"/>
<path id="fill-default" d="M89.6792 13.8995C82.1992 2.06947 68.3392 3.71947 60.0092 12.6095C52.2292 20.9095 50.3792 40.2695 55.3392 60.8295C58.2292 72.7895 56.3492 81.7495 45.7792 85.6995C30.0892 91.5595 19.3392 111.519 24.8892 118.139C30.4492 124.759 68.0492 128.009 72.8892 127.309C76.9292 126.729 89.9992 123.179 79.7292 114.729C68.6992 105.649 60.7292 99.1195 61.0592 95.3895C61.3492 92.1095 69.0592 81.0695 77.8692 76.2295C81.7992 74.0795 76.9092 72.3295 82.6392 68.8795C87.4592 65.9795 104.939 38.0395 89.6592 13.8895L89.6792 13.8995Z" fill="#494A4A" fill-opacity="0.08"/>
</g>
<g id="Emphasis">
<path id="2px-stroke-emphasis" fill-rule="evenodd" clip-rule="evenodd" d="M64.4788 94.3797C64.4788 98.7897 74.7988 107.61 77.7488 107.65C80.9488 107.69 81.3587 106.58 82.0887 105.06C85.5687 97.8397 96.9288 104.96 91.3588 109.81C88.0088 112.73 83.3188 110.91 83.4288 113.33C83.5188 115.22 89.1187 122.81 92.9087 122.81C98.5987 122.81 102.799 111.41 105.179 111.84C107.889 112.33 106.489 120.15 111.599 122.54C116.389 124.77 125.439 114.72 119.089 108.54C116.069 105.6 112.309 107.11 111.659 104.7C111.079 102.58 121.439 98.9297 121.349 94.3797C121.239 88.9897 110.189 85.7997 110.089 82.9097C109.909 77.5797 116.999 80.9697 119.979 76.8097C125.339 69.3297 113.709 59.1497 107.639 66.9597C104.889 70.4997 108.729 77.3197 104.279 77.3197C100.489 77.3197 98.5887 65.9497 92.9087 65.9497C89.7187 65.9497 83.4487 73.5297 83.4387 75.4197C83.4287 77.3297 90.7088 76.3997 93.8888 80.3097C97.2688 84.4697 89.9187 92.9697 83.4487 89.9797C79.0987 87.9697 81.5288 81.1197 77.7388 81.1197C73.9488 81.1197 64.4688 90.5997 64.4688 94.3897L64.4788 94.3797Z" stroke="#116FAE" stroke-width="2" stroke-miterlimit="10" stroke-linecap="round"/>
<path id="1px-stroke-emphasis" d="M74.7084 88.7497C71.5384 91.3797 69.9084 94.7097 72.0984 96.4197M97.6184 103.03C96.7284 100.76 94.5384 98.5997 91.9184 97.2797M116.438 70.8197C114.168 67.7197 111.228 68.7697 110.928 71.7097" stroke="#116FAE" stroke-miterlimit="10" stroke-linecap="round"/>
<path id="fill-emphasis" fill-rule="evenodd" clip-rule="evenodd" d="M67.7885 97.4696C68.0985 102.04 79.0385 110.61 81.9885 110.48C85.1985 110.34 85.5285 109.17 86.1485 107.56C89.1185 99.8796 97.7085 105.82 92.4885 111.16C89.3485 114.37 86.2085 113.65 86.4885 116.16C86.7085 118.11 91.6985 125.37 95.4885 125.16C101.169 124.84 104.079 113.85 106.489 114.16C109.229 114.51 107.209 122.98 112.489 125.16C117.429 127.2 130.179 115.15 123.379 109.1C120.149 106.22 116.509 108 115.679 105.54C114.949 103.37 125.049 99.0196 124.629 94.3096C124.139 88.7396 112.869 86.0396 112.569 83.0496C112.009 77.5396 119.339 80.6496 122.019 76.1796C126.839 68.1296 114.509 58.2296 108.989 66.6696C106.489 70.4896 110.809 77.3396 106.369 77.5896C102.579 77.7996 99.8785 66.1196 94.1885 66.4396C91.0085 66.6196 85.2785 74.8196 85.3985 76.7796C85.5185 78.7396 92.7385 77.3896 96.1885 81.2596C99.8685 85.3796 93.1185 94.5996 86.4385 91.8596C81.9485 90.0196 83.8885 82.7896 80.0985 82.9996C76.3085 83.2096 67.5085 93.5596 67.7785 97.4896L67.7885 97.4696Z" fill="#116FAE" fill-opacity="0.24"/>
</g>
</g>
</svg>
