<svg width="128" height="128" viewBox="0 0 128 128" fill="none" xmlns="http://www.w3.org/2000/svg">
<g id="Pictogram-user-protected">
<g id="Default">
<path id="dash-stroke-default" d="M62.9766 5.29932H62.9776" stroke="#494A4A" stroke-width="0.001"/>
<path id="2px-stroke-default" d="M110.179 56.2193L110.269 57.2152L110.27 57.2151L110.179 56.2193ZM118.029 53.8593L118.486 54.7488L118.486 54.7488L118.029 53.8593ZM103.749 26.1093L103.352 25.1911L103.351 25.1917L103.749 26.1093ZM97.2287 30.0993L97.9733 30.7668L97.9742 30.7658L97.2287 30.0993ZM82.5269 123.798C83.0785 123.772 83.5041 123.303 83.4775 122.751C83.4509 122.199 82.9821 121.774 82.4305 121.8L82.5269 123.798ZM18.5187 88.4393L19.1016 89.2519L19.102 89.2515L18.5187 88.4393ZM51.6887 64.3493C51.6887 63.797 51.241 63.3493 50.6887 63.3493C50.1364 63.3493 49.6887 63.797 49.6887 64.3493H51.6887ZM75.4761 63.4805C75.5155 62.9297 75.1008 62.4512 74.5499 62.4118C73.999 62.3725 73.5206 62.7872 73.4812 63.3381L75.4761 63.4805ZM74.5977 69.2725C74.8591 69.7591 75.4654 69.9416 75.9519 69.6802C76.4384 69.4189 76.621 68.8126 76.3596 68.3261L74.5977 69.2725ZM110.27 57.2151C112.467 57.0134 115.821 56.1175 118.486 54.7488L117.572 52.9698C115.136 54.2211 112.03 55.0452 110.087 55.2235L110.27 57.2151ZM118.486 54.7488C122.25 52.8144 124.205 49.4747 124.76 45.7529C125.31 42.0608 124.491 37.9826 122.745 34.3943C120.999 30.8053 118.281 27.6159 114.927 25.7594C111.544 23.8866 107.532 23.3874 103.352 25.1911L104.145 27.0275C107.705 25.4912 111.066 25.9083 113.958 27.5092C116.88 29.1264 119.341 31.9683 120.947 35.2693C122.553 38.571 123.261 42.2415 122.782 45.4582C122.307 48.6451 120.677 51.3742 117.572 52.9698L118.486 54.7488ZM103.351 25.1917C102.423 25.5939 101.096 26.2304 99.8212 26.9638C98.5731 27.6819 97.2722 28.5503 96.4832 29.4328L97.9742 30.7658C98.5352 30.1383 99.5942 29.4017 100.819 28.6973C102.016 28.0082 103.274 27.4047 104.146 27.0269L103.351 25.1917ZM96.4841 29.4318C92.1289 34.2899 93.0246 41.5715 96.0598 47.2706C97.5962 50.1555 99.728 52.7452 102.167 54.564C104.603 56.3796 107.413 57.4741 110.269 57.2152L110.088 55.2234C107.869 55.4245 105.539 54.5828 103.363 52.9606C101.191 51.3415 99.2424 48.9918 97.8251 46.3305C94.9527 40.9371 94.4485 34.6987 97.9733 30.7668L96.4841 29.4318ZM82.4305 121.8C67.7731 122.508 50.0578 121.927 36.0235 120.197C28.9992 119.331 22.9456 118.183 18.6704 116.784C16.5262 116.082 14.8926 115.337 13.8148 114.573C12.7147 113.793 12.3887 113.141 12.3887 112.649H10.3887C10.3887 114.113 11.3648 115.288 12.6585 116.205C13.9744 117.137 15.8262 117.957 18.0482 118.684C22.5055 120.143 28.7081 121.31 35.7788 122.182C49.9345 123.927 67.7642 124.511 82.5269 123.798L82.4305 121.8ZM12.3887 112.649C12.3887 108.839 13.1037 103.629 14.341 99.0026C14.9589 96.6919 15.6994 94.5565 16.5297 92.8299C17.3733 91.0758 18.2559 89.8585 19.1016 89.2519L17.9358 87.6267C16.6764 88.5301 15.6153 90.1166 14.7273 91.9631C13.8261 93.8371 13.0472 96.0992 12.4089 98.4859C11.1336 103.254 10.3887 108.639 10.3887 112.649H12.3887ZM19.102 89.2515C21.6806 87.3995 24.9195 86.1614 28.4293 85.0476C31.8833 83.9515 35.66 82.9612 39.0433 81.6257C42.4515 80.2804 45.63 78.527 47.9515 75.7933C50.2944 73.0345 51.6887 69.3679 51.6887 64.3493H49.6887C49.6887 68.9657 48.4192 72.1528 46.4271 74.4987C44.4136 76.8697 41.5859 78.4719 38.309 79.7654C35.0073 81.0687 31.4203 82.0002 27.8243 83.1413C24.2841 84.2647 20.7867 85.5791 17.9353 87.6271L19.102 89.2515ZM73.4812 63.3381C73.3295 65.462 73.847 67.875 74.5977 69.2725L76.3596 68.3261C75.8103 67.3036 75.3478 65.2766 75.4761 63.4805L73.4812 63.3381ZM62.5787 69.5393C74.2485 69.5393 86.3287 56.3715 86.3287 32.1693H84.3287C84.3287 55.9471 72.5689 67.5393 62.5787 67.5393V69.5393ZM86.3287 32.1693C86.3287 22.8766 84.1284 15.8216 79.9869 11.079C75.8268 6.3152 69.8355 4.0293 62.5787 4.0293V6.0293C69.4019 6.0293 74.7855 8.16339 78.4804 12.3946C82.1939 16.6469 84.3287 23.162 84.3287 32.1693H86.3287ZM62.5787 4.0293C55.3219 4.0293 49.3305 6.3152 45.1704 11.079C41.0289 15.8216 38.8287 22.8766 38.8287 32.1693H40.8287C40.8287 23.162 42.9634 16.6469 46.6769 12.3946C50.3718 8.16339 55.7555 6.0293 62.5787 6.0293V4.0293ZM38.8287 32.1693C38.8287 56.3715 50.9089 69.5393 62.5787 69.5393V67.5393C52.5885 67.5393 40.8287 55.9471 40.8287 32.1693H38.8287Z" fill="#494A4A"/>
<path id="1px-stroke-default" d="M103.949 26.4492C92.9285 34.4592 104.209 57.6992 118.909 52.8592M26.0485 90.4992C20.9185 92.1692 20.7585 92.8792 18.9785 99.5692M105.929 39.3492C106.139 38.8892 109.539 37.8092 109.679 37.3192C109.819 36.8292 107.719 33.5292 107.719 32.7792C107.719 32.0792 110.509 31.5692 110.829 31.8292C111.259 32.1892 112.779 35.3392 113.289 35.6292C113.799 35.9192 115.499 34.8192 115.989 35.0292C116.589 35.2892 117.959 37.6692 117.609 38.3092C117.349 38.7792 115.169 39.6692 115.079 40.0692C114.989 40.4692 116.789 43.7092 116.699 44.3092C116.589 45.0392 114.399 46.4992 113.969 45.8592C113.539 45.2192 112.189 41.8392 111.809 41.7192C111.429 41.5992 108.919 43.5792 108.099 43.4092C107.199 43.2192 105.709 39.8292 105.929 39.3492Z" stroke="#494A4A" stroke-linecap="round" stroke-linejoin="round"/>
<path id="fill-default" d="M86.8689 14.8493C79.3889 3.01925 66.3089 5.95925 57.9789 14.8493C50.1989 23.1493 48.3489 42.5093 53.3089 63.0693C56.1989 75.0293 54.3189 83.9893 43.7489 87.9392C28.0589 93.7992 17.3089 113.759 22.8589 120.379C28.4189 126.999 66.5289 125.969 71.4189 125.709C76.7789 125.429 82.7189 125.419 75.5689 116.449C65.4689 103.779 64.3889 79.0293 68.4689 73.7793C71.2189 70.2393 73.7389 69.2293 79.4689 65.7793C84.2889 62.8793 102.139 38.9792 86.8589 14.8293L86.8689 14.8493Z" fill="#494A4A" fill-opacity="0.08"/>
</g>
<g id="Emphasis">
<path id="2px-stroke-emphasis" d="M96.968 123.909C105.728 123.909 126.758 109.059 121.318 74.3894C110.928 70.2694 100.838 66.1694 96.968 66.1694C93.098 66.1694 82.028 70.2694 71.638 74.3894C65.558 108.459 87.348 123.909 96.968 123.909V123.909Z" stroke="#116FAE" stroke-width="2" stroke-linecap="round" stroke-linejoin="round"/>
<path id="1px-stroke-emphasis" d="M117.448 94.2693C118.368 88.8393 118.638 79.9493 117.588 78.3493C117.138 77.6693 114.968 76.5893 113.398 76.2393M91.1084 116.919C92.8584 117.849 94.6684 119.279 96.7484 119.279C98.8284 119.279 100.578 117.909 102.428 116.799" stroke="#116FAE" stroke-linecap="round" stroke-linejoin="round"/>
<path id="fill-emphasis" d="M101.268 127.329C112.958 126.989 131.258 101.079 125.478 75.7993C115.088 71.6793 107.348 65.7993 103.478 65.7993C99.608 65.7993 86.138 74.1593 75.748 78.2793C71.128 101.259 89.568 127.669 101.258 127.329H101.268Z" fill="#116FAE" fill-opacity="0.24"/>
</g>
</g>
</svg>
