<svg width="129" height="129" viewBox="0 0 129 129" fill="none" xmlns="http://www.w3.org/2000/svg">
<g id="Pictogram-rcoket">
<g id="Emphasis">
<g id="2px-stroke-emphasis">
<path fill-rule="evenodd" clip-rule="evenodd" d="M68.1721 105.82C69.4921 105.62 70.7822 105.88 70.6222 107.42C70.1622 111.72 67.4722 119.17 65.5422 124.82C64.7122 122.67 64.2321 120.01 64.2321 120.01C64.2321 120.01 63.5821 123.5 62.4621 127.2C61.7721 118.86 57.6221 111.7 57.6921 106.97C57.7121 105.79 58.8822 105.52 59.7722 105.71C63.1121 106.43 65.3521 106.25 68.1721 105.82Z" stroke="#116FAE" stroke-width="2" stroke-linecap="round" stroke-linejoin="round"/>
<path fill-rule="evenodd" clip-rule="evenodd" d="M63.9721 50.1699C69.2321 50.1699 73.5021 54.4299 73.5021 59.6899C73.5021 64.9499 69.2421 69.2199 63.9821 69.2199C58.7221 69.2199 54.4521 64.9599 54.4521 59.6999C54.4521 54.4399 58.7121 50.1699 63.9721 50.1699Z" stroke="#116FAE" stroke-width="2" stroke-linecap="round" stroke-linejoin="round"/>
<path fill-rule="evenodd" clip-rule="evenodd" d="M63.5521 76.1199C66.5021 76.1199 68.9021 78.5099 68.9021 81.4699C68.9021 84.4199 66.5121 86.8199 63.5521 86.8199C60.6021 86.8199 58.2021 84.4299 58.2021 81.4699C58.2021 78.5199 60.5921 76.1199 63.5521 76.1199Z" stroke="#116FAE" stroke-width="2" stroke-linecap="round" stroke-linejoin="round"/>
</g>
<g id="1px-stroke-emphasis">
<path fill-rule="evenodd" clip-rule="evenodd" d="M68.1721 105.82C69.4921 105.62 70.7822 105.88 70.6222 107.42C70.1622 111.72 67.4722 119.17 65.5422 124.82C64.7122 122.67 64.2321 120.01 64.2321 120.01C64.2321 120.01 63.5821 123.5 62.4621 127.2C61.7721 118.86 57.6221 111.7 57.6921 106.97C57.7121 105.79 58.8822 105.52 59.7722 105.71C63.1121 106.43 65.3521 106.25 68.1721 105.82Z" stroke="#116FAE" stroke-width="2" stroke-linecap="round" stroke-linejoin="round"/>
<path fill-rule="evenodd" clip-rule="evenodd" d="M63.9721 50.1699C69.2321 50.1699 73.5021 54.4299 73.5021 59.6899C73.5021 64.9499 69.2421 69.2199 63.9821 69.2199C58.7221 69.2199 54.4521 64.9599 54.4521 59.6999C54.4521 54.4399 58.7121 50.1699 63.9721 50.1699Z" stroke="#116FAE" stroke-width="2" stroke-linecap="round" stroke-linejoin="round"/>
<path fill-rule="evenodd" clip-rule="evenodd" d="M63.5521 76.1199C66.5021 76.1199 68.9021 78.5099 68.9021 81.4699C68.9021 84.4199 66.5121 86.8199 63.5521 86.8199C60.6021 86.8199 58.2021 84.4299 58.2021 81.4699C58.2021 78.5199 60.5921 76.1199 63.5521 76.1199Z" stroke="#116FAE" stroke-width="2" stroke-linecap="round" stroke-linejoin="round"/>
</g>
<path id="fill-emphasis" fill-rule="evenodd" clip-rule="evenodd" d="M71.8218 108.02C73.1418 107.82 74.4318 108.08 74.2718 109.62C73.8118 113.92 70.3818 126.64 69.3118 126.63C68.4918 126.63 68.7418 125.6 67.8118 125.6C66.8818 125.6 67.0818 128.2 65.9518 128.2C64.8218 128.2 61.2718 113.9 61.3418 109.17C61.3618 107.99 62.5318 107.72 63.4218 107.91C66.7618 108.63 69.0018 108.45 71.8218 108.02Z" fill="#116FAE" fill-opacity="0.24"/>
</g>
<g id="Default">
<path id="dash-stroke-default" d="M9.95996 35.6992H9.96096" stroke="#494A4A" stroke-width="0.001"/>
<path id="2px-stroke-default" d="M87.8017 67.3795C87.4717 86.4795 111.102 95.7095 108.872 100.78C107.592 103.67 87.3017 100.65 81.8017 97.1695M46.8317 97.1695C41.3317 100.65 21.0317 103.67 19.7617 100.78C17.5217 95.7195 41.3417 86.4895 41.0117 67.3795M80.3717 100.2C75.3217 102.91 53.4017 102.85 48.3717 100.2C30.2717 64.1195 49.4217 8.19952 64.3717 8.19952C79.3217 8.19952 98.4517 64.0595 80.3717 100.2ZM19.3217 8.61952C7.28173 5.63952 -4.32827 18.9995 4.67173 31.9695C11.5217 41.8395 27.7917 38.1495 30.6917 26.4495C27.8417 32.5495 16.8617 33.3695 12.2817 26.4895C7.45173 19.2495 12.1717 8.62952 19.3217 8.61952Z" stroke="#494A4A" stroke-width="2" stroke-linecap="round" stroke-linejoin="round"/>
<path id="1px-stroke-default" d="M23.9022 108.81C23.2522 113.3 22.9222 119.67 23.0622 125.22M17.8221 107.29C17.4521 108.98 17.1421 112.24 17.0521 114.42M16.9621 116.96L16.9521 119.46M106.132 107.87C106.762 110.41 107.372 115.59 107.322 121.61M112.482 112.41C112.712 114.13 112.802 115 112.712 117.19M111.722 107L112.142 109.47" stroke="#494A4A" stroke-linecap="round" stroke-linejoin="round"/>
<g id="fill-default">
<path fill-rule="evenodd" clip-rule="evenodd" d="M68.9615 9.68975C49.1115 8.14975 39.4815 78.9998 52.8115 104.52C56.3415 107.01 67.2815 106.46 72.1915 104.63C94.3915 72.4098 76.8115 10.2998 68.9615 9.68975ZM64.0315 89.1098C59.7115 89.1098 56.2115 85.6898 56.2115 81.4697C56.2115 77.2497 59.7115 73.8298 64.0315 73.8298C68.3515 73.8298 71.8515 77.2497 71.8515 81.4697C71.8515 85.6898 68.3515 89.1098 64.0315 89.1098ZM66.9015 73.0698C60.0615 73.0698 54.5115 67.6498 54.5115 60.9698C54.5115 54.2898 60.0615 48.8698 66.9015 48.8698C73.7415 48.8698 79.2915 54.2898 79.2915 60.9698C79.2915 67.6498 73.7415 73.0698 66.9015 73.0698Z" fill="#494A4A" fill-opacity="0.08"/>
<path d="M119.411 33.4298L120.091 35.4798C120.151 35.6498 120.281 35.7798 120.441 35.8298L122.491 36.5098C123.001 36.6798 123.001 37.3998 122.491 37.5698L120.441 38.2498C120.271 38.3098 120.141 38.4398 120.091 38.5998L119.411 40.6498C119.241 41.1598 118.521 41.1598 118.351 40.6498L117.671 38.5998C117.611 38.4298 117.481 38.2998 117.321 38.2498L115.271 37.5698C114.761 37.3998 114.761 36.6798 115.271 36.5098L117.321 35.8298C117.491 35.7698 117.621 35.6398 117.671 35.4798L118.351 33.4298C118.521 32.9198 119.241 32.9198 119.411 33.4298Z" fill="#494A4A" fill-opacity="0.08"/>
<path d="M107.911 12.1598L109.191 16.2898C109.291 16.6298 109.541 16.8898 109.861 17.0098L113.701 18.3898C114.661 18.7298 114.661 20.1998 113.701 20.5398L109.861 21.9198C109.551 22.0298 109.301 22.2998 109.191 22.6398L107.911 26.7698C107.591 27.7998 106.231 27.7998 105.911 26.7698L104.631 22.6398C104.531 22.2998 104.281 22.0398 103.961 21.9198L100.121 20.5398C99.1615 20.1998 99.1615 18.7298 100.121 18.3898L103.961 17.0098C104.271 16.8998 104.521 16.6298 104.631 16.2898L105.911 12.1598C106.231 11.1298 107.591 11.1298 107.911 12.1598Z" fill="#494A4A" fill-opacity="0.08"/>
</g>
</g>
</g>
</svg>
