<svg width="129" height="128" viewBox="0 0 129 128" fill="none" xmlns="http://www.w3.org/2000/svg">
<g id="Pictogram-checklist-edit">
<g id="Emphasis">
<path id="2px-stroke-emphasis" d="M27.8516 42.6499C29.6116 43.1499 31.1116 44.4399 32.2716 45.9599C33.6716 42.3899 36.3416 38.6999 40.7816 36.4099M31.6216 64.7799C32.4616 65.0299 33.9016 65.9699 35.0016 66.9199C36.4016 63.3499 38.2016 61.3099 41.6416 59.3299M34.5216 85.5299C35.3616 85.7799 37.5016 87.3499 38.6016 88.2999C40.7616 83.8599 43.8216 80.5999 46.9916 78.0499M35.5316 49.8299C33.8916 50.4899 31.0616 50.8499 29.4216 50.6899C27.3616 50.4899 26.4216 49.4099 25.9316 48.0599C25.3616 46.4999 24.9316 43.6999 25.0716 41.9499C25.2116 40.1999 26.3316 38.9499 27.7016 38.4599C29.3616 37.8599 31.9816 37.5499 33.8116 37.5999C35.6416 37.6499 36.7116 38.7499 37.3016 40.2299C37.8916 41.7099 38.3616 44.6299 38.1616 46.3399C37.9916 47.8399 37.2316 49.1399 35.5316 49.8299ZM38.4316 70.4499C36.7916 71.1099 33.9616 71.4699 32.3216 71.3099C30.2616 71.1099 29.3216 70.0299 28.8316 68.6799C28.2616 67.1199 27.8316 64.3199 27.9716 62.5699C28.1116 60.7999 29.2316 59.5699 30.6016 59.0799C32.2616 58.4799 34.8816 58.1699 36.7116 58.2199C38.5416 58.2699 39.6116 59.3699 40.2016 60.8499C40.7916 62.3299 41.2616 65.2499 41.0616 66.9599C40.8916 68.4599 40.1316 69.7599 38.4316 70.4499ZM41.4516 91.8499C39.8116 92.5099 36.9816 92.8699 35.3416 92.7099C33.2816 92.5099 32.3416 91.4299 31.8516 90.0799C31.2816 88.5199 30.8516 85.7199 30.9916 83.9699C31.1316 82.1999 32.2516 80.9699 33.6216 80.4799C35.2816 79.8799 37.9016 79.5699 39.7316 79.6199C41.5616 79.6699 42.6316 80.7699 43.2216 82.2499C43.8116 83.7299 44.2816 86.6499 44.0816 88.3599C43.9116 89.8599 43.1516 91.1599 41.4516 91.8499Z" stroke="#116FAE" stroke-width="2" stroke-linecap="round" stroke-linejoin="round"/>
<path id="1px-stroke-emphasis" d="M27.8516 42.6499C29.6116 43.1499 31.1116 44.4399 32.2716 45.9599C33.6716 42.3899 36.3416 38.6999 40.7816 36.4099M31.6216 64.7799C32.4616 65.0299 33.9016 65.9699 35.0016 66.9199C36.4016 63.3499 38.2016 61.3099 41.6416 59.3299M34.5216 85.5299C35.3616 85.7799 37.5016 87.3499 38.6016 88.2999C40.7616 83.8599 43.8216 80.5999 46.9916 78.0499M35.5316 49.8299C33.8916 50.4899 31.0616 50.8499 29.4216 50.6899C27.3616 50.4899 26.4216 49.4099 25.9316 48.0599C25.3616 46.4999 24.9316 43.6999 25.0716 41.9499C25.2116 40.1999 26.3316 38.9499 27.7016 38.4599C29.3616 37.8599 31.9816 37.5499 33.8116 37.5999C35.6416 37.6499 36.7116 38.7499 37.3016 40.2299C37.8916 41.7099 38.3616 44.6299 38.1616 46.3399C37.9916 47.8399 37.2316 49.1399 35.5316 49.8299ZM38.4316 70.4499C36.7916 71.1099 33.9616 71.4699 32.3216 71.3099C30.2616 71.1099 29.3216 70.0299 28.8316 68.6799C28.2616 67.1199 27.8316 64.3199 27.9716 62.5699C28.1116 60.7999 29.2316 59.5699 30.6016 59.0799C32.2616 58.4799 34.8816 58.1699 36.7116 58.2199C38.5416 58.2699 39.6116 59.3699 40.2016 60.8499C40.7916 62.3299 41.2616 65.2499 41.0616 66.9599C40.8916 68.4599 40.1316 69.7599 38.4316 70.4499ZM41.4516 91.8499C39.8116 92.5099 36.9816 92.8699 35.3416 92.7099C33.2816 92.5099 32.3416 91.4299 31.8516 90.0799C31.2816 88.5199 30.8516 85.7199 30.9916 83.9699C31.1316 82.1999 32.2516 80.9699 33.6216 80.4799C35.2816 79.8799 37.9016 79.5699 39.7316 79.6199C41.5616 79.6699 42.6316 80.7699 43.2216 82.2499C43.8116 83.7299 44.2816 86.6499 44.0816 88.3599C43.9116 89.8599 43.1516 91.1599 41.4516 91.8499Z" stroke="#116FAE" stroke-width="2" stroke-linecap="round" stroke-linejoin="round"/>
<g id="fill-emphasis">
<path d="M28.6019 39.1299C29.0719 36.9699 38.2519 35.5299 40.1419 37.3899C42.0319 39.2599 42.4019 45.9199 41.8119 48.9399C41.2219 51.9599 35.2919 53.0999 32.2119 51.4999C29.1319 49.9099 27.9319 42.1899 28.6019 39.1199V39.1299Z" fill="#116FAE" fill-opacity="0.24"/>
<path d="M31.6219 61.8699C32.0919 59.7099 40.0019 55.9099 41.8919 57.7799C43.7819 59.6499 47.5819 67.7399 47.0019 70.7599C46.4219 73.7799 34.7819 74.5799 31.7019 72.9799C28.6219 71.3899 30.9519 64.9399 31.6219 61.8699Z" fill="#116FAE" fill-opacity="0.24"/>
<path d="M33.6919 81.2999C34.1619 79.1399 40.8219 76.1799 42.7119 78.0499C44.6019 79.9199 48.4919 87.6799 47.9119 90.6999C47.3319 93.7199 40.6119 95.7199 37.5419 94.1199C34.4719 92.5199 33.0319 84.3699 33.7019 81.2999H33.6919Z" fill="#116FAE" fill-opacity="0.24"/>
</g>
</g>
<g id="Default">
<path id="dash-stroke-default" d="M12.96 57.5H12.961" stroke="#494A4A" stroke-width="0.001"/>
<path id="2px-stroke-default" d="M47.9114 41.8499C47.9114 41.8499 49.1614 38.5599 51.5614 38.2199C53.9614 37.8799 56.1514 41.0999 57.5014 40.0799C61.4214 37.1199 60.9614 40.3699 63.1814 39.4799C65.4014 38.5899 68.8314 35.5399 69.7714 36.6599C71.3514 38.5499 74.4114 38.1199 74.4114 38.1199M50.6714 61.4399C52.4014 61.3099 54.4714 63.6099 55.3014 63.1199C57.0514 62.0799 58.2414 59.9399 60.3814 61.7399C61.6514 62.8099 65.2814 61.7599 65.2814 61.7599M69.9814 60.5599C69.9814 60.5599 70.4114 58.6599 71.3914 58.5199C72.3714 58.3799 73.1514 59.8799 73.8714 59.5899C76.0014 58.7299 78.5014 58.6299 78.8414 59.1099M91.2814 112.67C90.6514 112.99 90.1714 113.2 89.4614 113.47C79.0014 117.5 45.6314 121.89 35.5314 121.07C30.0114 120.62 24.3114 117.12 22.2214 110.81C18.6314 99.9999 9.83144 39.6999 10.3714 26.6799C10.6114 20.7899 13.9314 15.0099 20.3314 13.1399C28.0414 10.8899 41.2014 8.37991 50.8314 7.18991C55.9914 6.55991 58.1214 8.12991 59.8914 11.2699C61.4614 14.0499 61.7714 17.3499 63.3414 21.4799C65.3314 26.7199 68.8914 28.8299 73.6314 29.2099C77.5714 29.5299 80.0314 29.1699 83.3514 29.2499C88.1014 29.3599 90.4914 30.9999 91.9414 36.7599C96.1114 53.3699 98.5514 80.0499 99.3314 93.9999M52.3614 7.06991C57.9514 6.75991 63.7014 7.18991 75.2314 16.0799C84.4914 23.2099 88.2514 26.0799 91.3114 34.7099M49.3214 85.2299C47.4814 82.0399 46.3914 79.0499 47.0214 78.0899C47.6514 77.1299 50.9514 76.6499 54.7114 76.6399M47.0214 78.0999C48.2814 76.1499 60.6714 76.1699 65.2714 78.0999C74.2314 81.8599 116.641 103.07 120.201 104.89C123.761 106.71 124.701 110.42 121.511 116.65C118.321 122.88 114.401 124.83 110.841 123.01C108.171 121.64 62.0714 96.9399 57.0714 94.1299C52.0714 91.3199 45.7014 80.1499 47.0314 78.1099L47.0214 78.0999Z" stroke="#494A4A" stroke-width="2" stroke-linecap="round" stroke-linejoin="round"/>
<path id="1px-stroke-default" d="M74.7812 14.78C85.7512 15.05 100.231 16.69 104.361 17.83C110.311 19.47 114.511 23.72 115.231 30.65C116.461 42.56 114.711 73.13 112.201 94.68M38.2012 120.96C39.4012 121.71 40.6812 122.29 41.9912 122.68C51.6912 125.6 85.2412 128.29 96.3112 126.54C98.9612 126.12 101.161 125.29 102.971 124.09M127.051 105.28C126.931 102.66 126.421 100.92 118.461 98M127.931 98.79C127.461 97.4 126.361 96.71 123.201 96M49.7612 85.97C47.8812 81.73 51.8512 76.41 55.8112 76.64M64.6812 77.88C63.6012 77.85 62.1812 78.15 61.0412 79.55M57.0612 94.12C53.9612 91.92 55.5512 86.52 58.3112 82.85M112.611 123.91C107.271 121.17 115.411 107.1 119.201 106.62M104.881 119.76C99.5412 117.02 108.711 99.14 113.731 101.64" stroke="#494A4A" stroke-linecap="round" stroke-linejoin="round"/>
<g id="fill-default">
<path d="M76.8317 16.8201C87.8017 17.0901 106.722 19.1701 110.852 20.3101C116.802 21.9501 119.712 29.4701 120.432 36.4001C121.662 48.3101 118.182 76.3901 115.662 97.9401L99.7017 91.7001C99.7017 91.7001 97.5717 49.7401 90.6617 31.1001C88.7917 26.0601 82.1517 21.1101 76.8417 16.8101L76.8317 16.8201Z" fill="#494A4A" fill-opacity="0.08"/>
<path d="M47.9717 121.17C53.9317 123.76 92.0417 128.53 102.942 127.44C105.212 127.21 107.862 126.09 110.042 123.17C110.042 123.17 95.0117 114.69 91.4117 113.09C85.0117 115.81 63.1617 119.41 47.9717 121.17Z" fill="#494A4A" fill-opacity="0.08"/>
<path d="M115.462 103C109.782 104.18 104.202 113.19 104.462 120C107.022 121.03 107.932 122.06 111.472 123.91C117.742 127.2 132.962 118.85 126.662 109C123.472 104 121.142 101.82 115.472 103H115.462Z" fill="#494A4A" fill-opacity="0.08"/>
</g>
</g>
</g>
</svg>
