<svg width="129" height="128" viewBox="0 0 129 128" fill="none" xmlns="http://www.w3.org/2000/svg">
<g id="Pictogram-chat-bubbles">
<g id="Default">
<path id="dash-stroke-default" d="M61.9668 9H61.9678" stroke="#494A4A" stroke-width="0.001"/>
<path id="2px-stroke-default" d="M48.7478 84.1901C46.0778 84.2301 39.7878 83.9401 38.6378 85.3901C33.8778 91.4101 27.1878 102.45 25.5878 101.79C22.7478 100.6 24.8178 82.7101 23.5178 80.7201C21.8778 78.1901 14.6278 78.8101 10.3278 74.3901C5.03778 68.9601 -0.982218 32.0501 9.15778 22.6201C21.8678 10.8001 83.5778 4.87006 93.0578 10.5901C100.118 14.8501 101.728 33.6401 100.428 51.2401M42.4615 47.6109C42.7979 49.7942 41.2078 51.8513 38.9098 52.2054C36.6118 52.5595 34.4762 51.0766 34.1397 48.8932C33.8033 46.7098 35.3934 44.6528 37.6914 44.2987C39.9894 43.9446 42.1251 45.4275 42.4615 47.6109ZM59.2808 45.0194C59.6173 47.2028 58.0271 49.2598 55.7291 49.614C53.4311 49.9681 51.2955 48.4851 50.9591 46.3018C50.6226 44.1184 52.2128 42.0614 54.5108 41.7073C56.8088 41.3532 58.9444 42.8361 59.2808 45.0194ZM76.1895 42.1674C76.526 44.3507 74.9358 46.4078 72.6378 46.7619C70.3398 47.116 68.2042 45.6331 67.8678 43.4497C67.5313 41.2663 69.1215 39.2093 71.4195 38.8552C73.7175 38.5011 75.8531 39.984 76.1895 42.1674Z" stroke="#494A4A" stroke-width="2" stroke-linecap="round" stroke-linejoin="round"/>
<path id="1px-stroke-default" d="M27.7373 81.7001C27.9473 77.2901 25.4673 74.2401 21.0273 73.1801M69.1673 13.9201C63.3973 13.5301 58.9273 14.1501 53.8273 15.8401" stroke="#494A4A" stroke-linecap="round" stroke-linejoin="round"/>
<path id="fill-default" fill-rule="evenodd" clip-rule="evenodd" d="M98.1373 13.8101C85.1573 5.11015 28.3373 15.0801 16.3373 26.2201C6.7673 35.1001 12.4173 69.8501 17.3973 74.9601C21.4473 79.1101 28.2773 78.5201 29.8273 80.9101C31.0473 82.7901 29.0773 99.6301 31.7573 100.75C33.2673 101.38 39.5873 90.9701 44.0873 85.3001C44.9673 84.1901 49.0873 84.0401 53.1673 83.9501C54.5473 83.9201 54.4973 82.3301 54.4773 80.9501C54.4773 80.9501 53.2773 63.4101 60.6473 57.5101C66.7373 52.6301 95.5173 52.2602 102.417 54.2001C103.967 54.6301 105.507 53.5201 105.597 51.9101C106.427 36.2601 104.187 17.8701 98.1473 13.8201L98.1373 13.8101ZM44.1773 50.5802C41.4973 53.5201 38.4873 54.0001 36.8973 53.0602C35.6973 52.3502 34.3473 46.9501 37.5773 44.0401C38.7173 43.0201 40.1073 42.8001 41.1673 43.5301C42.7373 44.6101 45.1073 49.5701 44.1773 50.5901V50.5802ZM60.9973 47.9902C58.3173 50.9301 55.3073 51.4101 53.7173 50.4701C52.5173 49.7602 51.1673 44.3601 54.3973 41.4501C55.5373 40.4301 56.9273 40.2101 57.9873 40.9401C59.5573 42.0201 61.9273 46.9801 60.9973 48.0001V47.9902ZM74.3973 48.4401C70.3473 48.7501 67.8973 47.0602 67.4873 45.3102C67.1773 43.9902 70.2473 39.2101 74.6573 39.3001C76.2073 39.3301 77.3473 40.1101 77.5373 41.3501C77.8273 43.1901 75.7873 48.3401 74.3973 48.4401Z" fill="#494A4A" fill-opacity="0.08"/>
</g>
<g id="Emphasis">
<g id="2px-stroke-emphasis">
<path fill-rule="evenodd" clip-rule="evenodd" d="M118.887 63.89C109.557 55.56 68.0871 54.24 61.7671 63.05C57.0071 69.69 57.9271 94.55 64.0871 104.47C68.1071 110.95 89.1771 109.03 92.4371 110.74C95.8971 112.56 103.207 125.5 106.327 124.18C109.447 122.86 106.927 112.9 108.177 110.81C109.707 108.25 115.437 107.45 117.057 105.19C122.317 97.81 126.337 70.53 118.887 63.89Z" stroke="#116FAE" stroke-width="2" stroke-linecap="round" stroke-linejoin="round"/>
<path d="M81.2441 84.1156C81.4751 82.3244 80.1349 80.6754 78.2507 80.4323C76.3664 80.1893 74.6517 81.4443 74.4206 83.2354C74.1896 85.0265 75.5298 86.6756 77.414 86.9186C79.2983 87.1617 81.013 85.9067 81.2441 84.1156Z" stroke="#116FAE" stroke-width="2" stroke-linecap="round" stroke-linejoin="round"/>
<path d="M95.0124 85.8752C95.2435 84.0841 93.9033 82.4351 92.019 82.192C90.1348 81.949 88.42 83.2039 88.1889 84.9951C87.9579 86.7862 89.2981 88.4352 91.1824 88.6783C93.0666 88.9213 94.7814 87.6663 95.0124 85.8752Z" stroke="#116FAE" stroke-width="2" stroke-linecap="round" stroke-linejoin="round"/>
<path d="M108.917 87.4741C109.149 85.683 107.808 84.034 105.924 83.7909C104.04 83.5479 102.325 84.8028 102.094 86.594C101.863 88.3851 103.203 90.0341 105.087 90.2772C106.972 90.5202 108.686 89.2652 108.917 87.4741Z" stroke="#116FAE" stroke-width="2" stroke-linecap="round" stroke-linejoin="round"/>
</g>
<path id="1px-stroke-emphasis" d="M70.6375 63.1601C66.9875 63.6401 63.8575 64.1501 64.3175 70.9101M114.838 52.1201L119.198 46.0601M122.218 53.5201L117.538 55.7401M111.568 46.6901L111.498 49.8201" stroke="#116FAE" stroke-linecap="round" stroke-linejoin="round"/>
<path id="fill-emphasis" fill-rule="evenodd" clip-rule="evenodd" d="M126.268 69.8401C118.258 61.1501 77.2376 55.5701 70.5176 63.0901C65.4576 68.7501 64.0876 91.9101 68.9776 101.74C72.1676 108.16 92.1176 108.56 95.0176 110.48C98.1076 112.52 103.798 125.28 106.848 124.38C109.898 123.48 110.638 114.06 111.998 112.26C113.668 110.04 119.118 109.89 120.828 107.96C126.418 101.65 132.648 76.7701 126.258 69.8501L126.268 69.8401ZM81.9076 86.8201C79.1476 88.5201 76.6676 88.2101 75.6376 87.1101C74.8576 86.2801 75.0276 81.7401 78.2176 80.1901C79.3376 79.6501 80.4876 79.7901 81.1476 80.6001C82.1376 81.8101 82.8676 86.2301 81.9076 86.8101V86.8201ZM95.6776 88.6001C92.9176 90.3001 90.4376 89.9901 89.4076 88.8901C88.6276 88.0601 88.7976 83.5201 91.9876 81.9701C93.1076 81.4301 94.2576 81.5701 94.9176 82.3801C95.9076 83.5901 96.6376 88.0101 95.6776 88.5901V88.6001ZM110.148 87.1301C109.958 88.6401 107.198 92.2101 106.078 91.9801C102.838 91.3101 101.288 89.4301 101.368 87.9601C101.428 86.8501 104.918 83.8001 108.358 84.8701C109.568 85.2501 110.278 86.1201 110.148 87.1301Z" fill="#116FAE" fill-opacity="0.24"/>
</g>
</g>
</svg>
