<svg width="129" height="129" viewBox="0 0 129 129" fill="none" xmlns="http://www.w3.org/2000/svg">
<g id="Pictogram-faq-bubbles">
<g id="Default">
<path id="dash-stroke-default" d="M103.471 77.5498H103.472" stroke="#494A4A" stroke-width="0.001"/>
<path id="2px-stroke-default" fill-rule="evenodd" clip-rule="evenodd" d="M117.273 66.0897C107.943 57.7597 66.4729 56.4397 60.1529 65.2497C55.3929 71.8897 56.3129 96.7497 62.4729 106.67C66.4929 113.15 87.5629 111.23 90.8229 112.94C94.2829 114.76 101.593 127.7 104.713 126.38C107.833 125.06 105.313 115.1 106.563 113.01C108.093 110.45 113.823 109.65 115.443 107.39C120.703 100.01 124.723 72.7297 117.273 66.0897Z" stroke="#494A4A" stroke-width="2" stroke-linecap="round" stroke-linejoin="round"/>
<path id="1px-stroke-default" d="M69.0233 65.3696C65.3733 65.8496 62.2433 66.3596 62.7033 73.1196M103.013 87.8696C105.253 80.0496 103.453 69.3496 94.1732 68.3096C80.1432 66.7596 69.5832 89.7396 83.5632 98.1296C87.4932 100.48 91.5333 100.06 94.9533 98.1396L96.5732 102.92L99.7332 101.99L97.7432 96.1296C100.243 93.9096 102.143 90.8996 103.013 87.8696ZM95.7832 91.2796L95.1932 89.5396L92.3433 90.3796L93.3433 93.3196C91.1233 94.6496 88.4532 94.9896 85.8632 93.4396C80.0232 89.9396 80.9132 82.4296 84.7432 77.9596C86.7432 75.6196 91.2733 73.2196 94.3433 73.5596C100.263 74.2196 99.6832 81.9296 98.2532 86.9096C97.8032 88.4696 96.9432 89.9996 95.7932 91.2896L95.7832 91.2796Z" stroke="#494A4A" stroke-linecap="round" stroke-linejoin="round"/>
<g id="fill-default">
<path fill-rule="evenodd" clip-rule="evenodd" d="M90.3623 72.2098C80.6423 73.6598 79.4623 81.7698 81.5823 88.8998C82.9123 93.3898 86.9623 95.2498 90.7423 94.7498C90.8923 94.7298 91.0123 94.5898 91.0223 94.4398C91.1223 93.0498 91.1023 92.0698 91.1123 91.6398C91.1123 91.5098 91.1923 91.3998 91.3223 91.3598L92.6923 90.8298C92.8623 90.7698 93.0423 90.8398 93.1023 91.0098C93.2623 91.4398 93.6723 92.2198 94.2023 93.1298C94.2923 93.2898 94.5123 93.3498 94.6723 93.2398C95.3623 92.7598 95.9923 92.1798 96.5123 91.4798C100.382 86.4298 100.082 70.7798 90.3723 72.2198L90.3623 72.2098Z" fill="#494A4A" fill-opacity="0.08"/>
<path fill-rule="evenodd" clip-rule="evenodd" d="M124.652 72.0398C116.642 63.3498 75.6223 57.7698 68.9023 65.2898C63.8423 70.9498 62.4723 94.1098 67.3623 103.94C70.5523 110.36 90.5023 110.76 93.4023 112.68C96.4923 114.72 102.182 127.48 105.232 126.58C108.282 125.68 109.022 116.26 110.382 114.46C112.052 112.24 117.502 112.09 119.212 110.16C124.802 103.85 131.032 78.9698 124.642 72.0498L124.652 72.0398ZM99.0223 94.4998C98.3523 95.3698 97.5723 96.1198 96.7223 96.7398C96.5923 96.8398 96.5523 96.9998 96.6323 97.1398C97.0123 97.8098 97.4423 98.8398 97.8123 99.7898C98.3423 101.15 97.9823 102.69 96.9023 103.68C96.7523 103.82 96.5223 103.79 96.4123 103.61C95.8423 102.67 94.1823 99.9398 93.4023 98.6798C93.3223 98.5598 93.1823 98.5098 93.0523 98.5498C87.3823 100.26 80.5823 97.8998 78.5323 90.9498C75.6323 81.1798 77.2623 70.0298 90.5923 68.0398C103.922 66.0498 104.332 87.5398 99.0223 94.4798V94.4998Z" fill="#494A4A" fill-opacity="0.08"/>
</g>
</g>
<g id="Emphasis">
<path id="2px-stroke-emphasis" d="M46.8025 86.3897C44.1325 86.4297 37.8425 86.1397 36.6925 87.5897C31.9325 93.6097 25.2425 104.65 23.6425 103.99C20.8025 102.8 22.8725 84.9097 21.5725 82.9197C19.9325 80.3897 12.6825 81.0097 8.38247 76.5897C3.09247 71.1597 -2.92753 34.2497 7.21247 24.8197C19.9325 13.0097 81.6425 7.07972 91.1225 12.7997C98.1825 17.0597 99.7925 35.8497 98.4925 53.4497" stroke="#116FAE" stroke-width="2" stroke-linecap="round" stroke-linejoin="round"/>
<path id="1px-stroke-emphasis" d="M25.8028 83.9096C26.0128 79.4996 23.5328 76.4496 19.0928 75.3896M67.2328 16.1296C61.4628 15.7396 56.9928 16.3596 51.8928 18.0496M66.3028 52.3996C67.1628 45.1296 59.9028 26.5796 54.8628 24.5096C53.5428 23.9696 49.3128 25.1496 48.5328 25.2996C43.9528 26.1596 40.5728 43.5796 39.4128 44.9696C38.2528 46.3596 36.2728 46.0296 35.9128 46.7096C35.5528 47.3896 35.1428 49.4796 35.9128 49.7996C36.6828 50.1196 39.1328 48.9996 39.5128 49.7096C39.8928 50.4196 37.2228 60.8496 38.5028 61.6996C39.7828 62.5496 42.2628 62.6396 43.4828 61.4196C44.7028 60.2096 43.9428 49.6796 44.8028 48.9996C45.6628 48.3196 58.2928 44.3996 59.1628 46.7896C60.5128 48.8196 60.6928 53.8196 60.8128 54.6396M45.2528 43.0596C44.3528 42.5696 50.3828 29.3296 52.4528 29.3196C54.5228 29.3196 59.4828 40.7896 57.8728 40.9096C55.8028 41.0496 46.8428 43.9196 45.2528 43.0596Z" stroke="#116FAE" stroke-linecap="round" stroke-linejoin="round"/>
<g id="fill-emphasis">
<path fill-rule="evenodd" clip-rule="evenodd" d="M53.4427 28.6096C52.6227 28.5896 49.6227 30.3396 49.2827 31.1496C47.8927 34.4196 44.4827 42.2996 44.8227 44.7096C46.0527 45.1796 56.5227 42.7796 58.8227 42.3196C61.1227 41.8696 58.3427 34.5596 56.6127 31.5096C55.6327 29.7896 54.6227 28.6296 53.4527 28.5996L53.4427 28.6096Z" fill="#116FAE" fill-opacity="0.24"/>
<path fill-rule="evenodd" clip-rule="evenodd" d="M96.2027 16.0096C83.2227 7.30961 26.4027 17.2796 14.4027 28.4196C4.83273 37.2996 10.4827 72.0496 15.4627 77.1596C19.5127 81.3096 26.3427 80.7196 27.8927 83.1096C29.1127 84.9896 27.1427 101.83 29.8227 102.95C31.3327 103.58 37.6527 93.1696 42.1527 87.4996C43.0327 86.3896 48.6127 86.1496 52.6827 86.0596C54.0627 86.0296 55.1527 84.8996 55.1327 83.5196L55.0727 79.8396C55.0727 79.7496 55.0727 79.6696 55.0527 79.5796C54.8527 77.8896 53.4927 65.0296 60.8527 59.1296C66.9427 54.2496 93.5627 54.4496 100.463 56.3896C102.013 56.8196 103.553 55.7096 103.643 54.0996C104.473 38.4496 102.233 20.0596 96.1927 16.0096H96.2027ZM66.0227 54.7696C63.0127 55.9096 61.8727 56.1996 61.2027 51.9296C60.3627 46.6496 60.7627 46.2396 59.7027 46.3096C58.6427 46.3796 49.1127 48.7396 45.8527 49.6996C42.5927 50.6496 44.2527 58.3496 43.3127 62.0096C41.0627 62.5996 40.3327 61.6896 38.7727 61.4596C38.8027 59.3196 39.0527 56.0096 39.0527 56.0096C39.0527 56.0096 39.0227 53.8996 38.4727 52.0496C36.3027 52.6296 36.9227 48.8696 39.3927 47.8796C41.8627 46.8796 40.7027 43.5696 41.8127 37.2596C43.0427 30.2296 49.3127 24.9396 53.0727 23.6996C56.8327 22.4696 58.3127 28.7896 60.8227 34.3496C63.0427 39.2496 66.1627 49.2896 66.7627 52.9796C66.8727 53.6696 66.6727 54.5196 66.0227 54.7696Z" fill="#116FAE" fill-opacity="0.24"/>
</g>
</g>
</g>
</svg>
