<svg width="129" height="129" viewBox="0 0 129 129" fill="none" xmlns="http://www.w3.org/2000/svg">
<g id="Pictogram-selected-invoice">
<g id="Default">
<path id="dash-stroke-default" d="M11.4746 55.0947H11.4756" stroke="#494A4A" stroke-width="0.001"/>
<path id="2px-stroke-default" d="M110.539 78.4198C113.609 60.7198 116.059 36.9298 115.709 30.3398C115.459 25.7298 112.789 21.2298 107.719 19.8198C103.139 18.5498 94.5886 17.3498 91.9386 16.9398M43.2886 51.9898C40.0786 50.0298 37.2186 53.0498 37.2186 53.0498L34.1586 51.9998C34.1586 51.9998 34.5986 55.1098 31.7186 55.9098C28.8386 56.7098 25.5186 54.6498 25.5186 54.6498M77.6086 46.4498C77.6086 46.4498 74.6586 47.0098 73.0286 45.1898C72.0586 44.1198 67.0886 46.8598 64.9886 47.8398C62.8886 48.8298 63.1586 45.5598 59.5086 48.6898M30.7586 67.1598C32.4386 66.7198 34.8886 68.6098 35.6186 67.9798C37.1486 66.6498 37.9486 64.3198 40.3686 65.7098C41.8086 66.5398 45.1886 64.8498 45.1886 64.8498M80.3186 57.7498C79.9586 57.2798 77.4686 57.5098 75.3786 58.4698C74.6786 58.7898 73.8286 57.3398 72.8486 57.5198C71.8686 57.6998 71.5386 59.6298 71.5386 59.6298L68.2586 57.8098C68.2586 57.8098 65.5886 60.4798 65.5886 60.5898C65.5886 60.6998 64.6686 60.8098 63.6586 60.5898M72.8586 70.6598C74.2786 70.9598 76.5686 70.5098 77.2186 70.0298C78.5186 69.0698 82.0386 70.3098 83.0986 68.9898M32.7486 76.8998C35.8086 76.4598 39.0586 78.7198 40.5386 77.9798C43.6486 76.4198 46.2086 72.9798 49.8786 75.6598C51.4786 77.1998 52.5386 74.5898 52.5386 74.5898M38.7186 11.8998C33.3186 13.3398 27.9786 15.5398 19.7686 27.5598C13.1786 37.2198 10.4986 41.0998 10.2686 50.2598M96.1586 73.1898C92.7386 51.6898 87.5886 25.1698 84.7386 17.5098C82.6786 11.9798 77.7386 7.51978 71.0686 7.72978C63.0386 7.98978 49.7486 9.67978 40.2286 11.5498C35.1286 12.5498 33.5986 14.7098 32.8886 18.2398C32.2586 21.3698 32.9886 24.5998 32.7786 29.0198C32.5086 34.6198 29.7786 37.7298 25.3986 39.5598C21.7486 41.0898 19.3086 41.5098 16.1686 42.6098C11.6886 44.1898 9.92855 46.4898 10.3386 52.4098C11.0086 61.9998 18.2486 94.9398 20.5986 103.6C22.9486 112.26 26.2986 127.15 42.2186 125.25C53.5886 123.9 61.1186 121.95 70.4986 119.81M68.4686 20.3598C62.9086 17.4898 62.0386 25.9598 66.5586 25.2998C71.6886 24.5398 72.8186 32.9098 65.2386 31.2098M65.2986 17.0698L65.8186 19.6198M68.2686 31.3998L68.7986 33.9798" stroke="#494A4A" stroke-width="2" stroke-linecap="round" stroke-linejoin="round"/>
<path id="1px-stroke-default" d="M7.30833 113.71C7.30833 113.71 9.18832 114.56 9.95832 114.91C12.5083 116.08 14.3683 111.69 11.7883 110.66C11.7883 110.66 9.17833 109.43 7.63833 108.69C3.60833 106.88 0.138326 113.24 4.00833 115.36C6.99833 117 12.8783 119.75 14.4083 120.51C18.3083 122.47 22.2783 115.97 17.5583 113.59L15.8483 112.71M122.298 16.9299C122.298 16.9299 121.768 14.9399 121.548 14.1199C120.838 11.4099 116.268 12.7499 117.098 15.3999C117.098 15.3999 117.798 18.1999 118.208 19.8599C119.358 24.1199 126.478 22.7799 125.668 18.4399C125.038 15.0899 123.438 8.79987 123.068 7.12987C122.118 2.86987 114.568 3.91987 115.718 9.07987L116.118 10.9599" stroke="#494A4A" stroke-linecap="round" stroke-linejoin="round"/>
<path id="fill-default" d="M108.958 75.7699C111.258 42.0499 110.798 35.0199 110.438 32.2199C109.848 27.6799 106.898 23.4299 101.808 22.4199C97.9781 21.6599 96.6081 21.3499 92.0681 20.8899C88.9381 20.5799 87.3181 22.8599 87.4281 24.2699C87.6281 26.9399 93.4881 55.6199 96.4881 71.6199C96.5581 76.16 97.9481 75.6499 99.4881 76.6199C101.298 77.75 108.488 82.6199 108.958 75.7699Z" fill="#494A4A" fill-opacity="0.08"/>
</g>
<g id="Emphasis">
<path id="2px-stroke-emphasis" d="M103.298 127.18C99.4982 122.84 96.8482 119.57 93.7682 114.95C92.5382 113.1 90.6082 113.02 89.1982 114.71C87.7882 116.41 86.7782 119.17 85.7982 121.35C84.3082 124.69 80.9982 126.65 78.1282 120.26C75.0582 113.44 64.1982 82.7998 70.8082 77.3698C76.7782 72.4598 104.538 89.1098 110.698 93.5398C115.778 97.1898 113.488 100.66 110.008 101.6C107.468 102.29 105.788 102.51 102.968 103.61C101.118 104.33 101.018 106.67 102.258 108.02C105.828 111.93 108.888 115.57 112.348 119.89C114.038 122 105.258 129.43 103.298 127.18V127.18Z" stroke="#116FAE" stroke-width="2" stroke-miterlimit="10"/>
<path id="1px-stroke-emphasis" d="M75.2079 85.7198C74.9479 86.7998 75.9979 94.9898 76.9279 97.9298M60.8179 81.2198C61.9879 81.1198 62.7079 80.9098 63.0679 80.9598M58.8379 76.1298C59.7279 76.4498 62.8379 76.8498 63.3779 77.1698M64.7679 72.5098C65.1879 73.1798 65.5679 73.9898 65.8479 74.2398" stroke="#116FAE" stroke-linecap="round" stroke-linejoin="round"/>
<path id="fill-emphasis" d="M87.6083 74.6197C87.6083 74.6197 78.9083 71.8897 80.0083 81.9597C81.1083 92.0297 79.6883 108.51 83.0183 112.91C86.3383 117.32 86.8283 110.08 92.0683 113.02C97.3083 115.96 99.8583 130.31 105.588 128.48C112.488 126.28 122.568 123.54 114.228 113.03C105.888 102.52 113.548 100.05 113.708 94.0197C113.868 87.9897 87.6183 74.6197 87.6183 74.6197H87.6083Z" fill="#116FAE" fill-opacity="0.24"/>
</g>
</g>
</svg>
