<svg width="129" height="129" viewBox="0 0 129 129" fill="none" xmlns="http://www.w3.org/2000/svg">
<g id="Pictogram-global-location">
<g id="Default">
<path id="dash-stroke-default" d="M41.3926 23.0996H41.3936" stroke="#494A4A" stroke-width="0.001"/>
<path id="2px-stroke-default" d="M22.9742 41.3295C32.5042 25.8295 49.6142 15.4995 69.1342 15.4995C80.3842 15.4995 88.9942 18.2095 95.5742 22.7895M14.8242 67.8095C14.8242 72.0395 15.4042 76.4995 15.5642 77.6395C19.4242 103.76 41.9342 123.8 69.1242 123.8C99.0342 123.8 123.274 99.5595 123.274 69.6495C123.274 56.1395 118.324 43.7795 110.134 34.2895" stroke="#494A4A" stroke-width="2" stroke-linecap="round" stroke-linejoin="round"/>
<path id="1px-stroke-default" d="M41.1146 23.3095C45.6346 20.8595 49.8246 27.5495 46.7946 31.2095C42.2746 36.6795 36.5946 34.9095 34.3446 36.8895C31.1346 39.7095 34.6946 42.2195 30.9546 45.0895M22.9746 67.8095C26.5746 70.8695 26.9646 76.3295 27.0346 78.2095C27.2646 84.2695 19.6346 93.1195 28.2346 104.579M118.615 49.2195C116.605 53.8795 119.425 58.1895 117.675 58.8595C116.385 59.3495 114.955 56.7895 112.125 53.9995C109.315 51.2295 105.955 50.3995 103.645 51.9995C102.345 52.8995 107.065 53.7295 107.345 55.4995C107.595 57.1095 103.575 61.3595 101.345 61.5495C98.7846 61.7595 93.6646 54.4695 91.2746 55.8295C89.4446 56.8695 90.9746 61.3895 94.9946 63.4095C99.2146 65.5195 103.165 64.5895 103.295 66.6395C103.925 76.5595 98.3746 73.4295 94.3946 92.1395C93.1646 97.9295 85.9646 110.099 78.7646 109.239C73.8246 108.649 71.7046 96.7795 70.9546 90.1795C70.2046 83.5695 69.3646 77.2995 64.8746 74.2595C61.0646 71.6795 46.9046 80.0795 46.8046 64.3595C46.7046 48.6395 63.4546 49.3095 66.6346 49.4795C71.9446 49.7595 80.9046 56.1095 87.7146 52.3895C93.5046 49.2295 93.8746 44.3995 92.1746 42.8295C89.9946 40.8095 88.1646 44.6495 81.5846 45.1595C77.0146 45.5195 71.8546 39.4395 72.1946 41.6995C72.7046 45.0895 68.6946 46.2195 67.3946 42.7295C66.7046 40.8795 63.7646 41.1195 62.4246 44.9695C62.0346 46.0995 58.3046 47.1495 57.0146 46.3095C55.7246 45.4695 54.9346 41.4195 57.0146 40.2595C58.9746 39.1695 60.1546 40.7095 61.1746 39.3795C62.3346 37.8695 60.0546 35.7695 60.8246 34.4295C61.6846 32.9495 66.8646 33.5495 69.9146 30.9295C72.9346 28.3295 69.1446 23.7695 73.0646 21.5795C75.6846 20.1195 79.9846 21.6395 82.8346 20.9695M57.5046 77.9495C61.4446 77.2995 63.2946 77.5395 64.4946 80.1095M31.6246 76.5495C32.5546 82.5995 30.5946 85.1495 29.9146 88.6495M54.8346 56.0095C52.7746 56.4195 50.5146 59.7795 50.6546 61.6995M62.3246 21.9795C59.7046 22.4295 60.2446 29.5695 63.5446 28.7295C66.2346 28.0395 65.5146 21.4395 62.3246 21.9795Z" stroke="#494A4A" stroke-linecap="round" stroke-linejoin="round"/>
<path id="fill-default" d="M83.1441 21.5594C81.2141 22.4094 79.3841 23.5394 77.5741 24.7494C73.0641 27.7694 73.6941 32.1494 77.7041 35.1294C81.7141 38.1094 78.9641 41.8894 81.1741 41.8294C85.1341 41.7194 89.5441 37.7194 92.3841 38.8294C96.1641 40.2994 94.0941 43.6294 90.7541 46.0194C78.1441 55.0094 73.5041 44.3794 64.9541 52.0794C56.4041 59.7794 58.9441 62.5494 64.9541 65.6694C70.9641 68.7894 59.4541 102.979 81.0641 111.299C82.5441 111.869 92.8441 103.889 97.1241 96.5094C100.484 90.7194 99.8641 81.1194 103.014 78.8894C110.184 73.8094 90.8841 60.7994 98.1641 62.4194C105.444 64.0394 100.514 59.2094 102.844 56.1994C105.174 53.1994 106.554 51.4494 110.024 54.5194C113.494 57.5894 114.184 55.8294 117.194 50.3494C120.194 44.8694 109.014 31.2794 105.104 32.5294C104.724 32.6494 98.5341 38.2694 96.0441 39.3594C91.9741 41.1294 97.9541 26.1494 95.9841 26.1494C94.8541 26.1494 86.0441 20.3094 83.1641 21.5794L83.1441 21.5594Z" fill="#494A4A" fill-opacity="0.08"/>
</g>
<g id="Emphasis">
<path id="2px-stroke-emphasis" d="M101.033 22.7997C101.033 22.7997 92.6629 33.9497 94.2729 35.3897C95.8829 36.8297 105.753 27.2797 105.753 27.2797M23.3529 60.7997C23.3529 60.7997 35.0329 66.5797 36.0829 64.8597C37.1329 63.1397 26.6729 55.6997 26.6729 55.6997M112.403 29.5597C115.693 29.3497 116.253 16.9997 125.133 13.2697C126.103 9.58971 115.753 0.459705 112.233 1.89971C109.703 11.2097 97.4629 13.3197 97.6729 16.6297C97.9129 21.5197 107.603 29.8697 112.403 29.5597ZM27.6329 49.1897C26.8729 46.1997 15.4329 47.7897 10.4929 40.2797C6.94287 40.0197 0.322873 51.0797 2.24287 54.0797C11.2329 54.8097 15.2629 65.6997 18.2729 64.9397C22.7229 63.8797 28.7529 53.5597 27.6429 49.1897H27.6329Z" stroke="#116FAE" stroke-width="2" stroke-miterlimit="10" stroke-linecap="round"/>
<path id="1px-stroke-emphasis" d="M114.113 7.65967C114.513 8.69967 117.003 11.7397 119.293 12.2097M7.21289 51.3597C8.10289 50.8197 10.4729 48.0097 10.5129 45.8197" stroke="#116FAE" stroke-miterlimit="10" stroke-linecap="round"/>
<g id="fill-emphasis">
<path d="M119.303 4.36963C120.223 6.26963 118.613 8.51963 113.553 7.66963C113.763 14.1396 108.173 18.9896 102.273 20.6496C96.9332 22.1596 95.8332 37.1996 97.0032 38.3196C98.1732 39.4396 101.903 33.2896 105.283 31.7296C108.663 30.1696 114.373 32.2096 116.243 30.7996C121.073 27.1596 123.273 16.8396 125.543 15.6696C131.323 12.6696 123.843 4.37963 119.293 4.37963L119.303 4.36963Z" fill="#116FAE" fill-opacity="0.24"/>
<path d="M5.08324 53.3396C5.22324 58.7796 14.4032 57.7596 18.0132 63.4296C20.9132 67.9896 24.7332 62.1896 27.0332 62.9096C31.4032 64.2896 35.1132 65.0096 35.8432 63.8896C36.5732 62.7696 33.2032 58.8896 31.4132 56.3996C29.6332 53.9096 31.5032 50.7996 30.1532 49.4196C28.8032 48.0396 24.5232 47.7796 20.6832 45.8496C15.8632 43.4296 12.0032 41.5196 10.4732 40.2796C12.1332 44.9696 11.0332 51.2396 5.07324 53.3496L5.08324 53.3396Z" fill="#116FAE" fill-opacity="0.24"/>
</g>
</g>
</g>
</svg>
