<svg width="129" height="129" viewBox="0 0 129 129" fill="none" xmlns="http://www.w3.org/2000/svg">
<g id="Pictogram-missing-file">
<g id="Default">
<path id="dash-stroke-default" d="M16.959 52.0718H16.96" stroke="#494A4A" stroke-width="0.001"/>
<path id="2px-stroke-default" d="M18.1722 58.8694C17.1722 54.0094 18.2022 50.0694 22.1022 47.9794C24.3622 46.7694 30.2422 44.3294 33.3222 42.5794C37.9822 39.9394 39.4122 37.2094 39.1422 31.8594C38.9822 28.6894 37.7922 23.9894 37.4222 21.3494C36.8922 17.5794 39.3122 13.2494 44.9122 11.6794M104.772 110.759C95.3022 114.129 60.5322 123.629 48.6222 126.199C41.8722 127.659 37.2822 125.639 34.7122 117.049C31.3122 105.699 20.5922 67.8794 18.6522 60.9794C14.6922 46.8894 20.1922 39.8294 25.8322 29.5894C30.3622 21.3694 34.7722 14.5194 44.9722 11.6494C52.0922 9.64935 70.3422 4.68935 79.4122 3.00935C85.8022 1.82935 88.3322 4.38935 91.2722 12.0094C95.6322 23.2994 113.142 84.6294 114.872 95.1794C116.042 102.309 111.582 108.329 104.762 110.759H104.772Z" stroke="#494A4A" stroke-width="2" stroke-linecap="round" stroke-linejoin="round"/>
<path id="1px-stroke-default" d="M75.3518 10.7294C76.1918 10.2694 81.3118 8.5694 82.4118 9.2494C83.5118 9.9294 86.0218 14.1494 86.5918 16.6194M93.8418 1.6694C101.262 1.4394 109.302 3.3594 114.502 7.0094M102.312 6.9994C108.232 7.5694 114.502 11.9694 118.092 16.1694M46.8818 127.649C47.9318 127.569 73.2018 126.639 85.7318 127.649" stroke="#494A4A" stroke-linecap="round" stroke-linejoin="round"/>
<path id="fill-default" d="M39.9912 34.5094C40.8612 31.4194 45.1712 41.3494 31.3612 55.5394C25.0212 62.0594 36.6812 100.259 34.0212 109.979C32.3012 116.259 23.5612 78.3294 21.5012 71.0594C19.4412 63.7894 14.1412 54.8894 19.8512 50.0894C25.5612 45.2894 37.5712 43.0594 39.9912 34.5094Z" fill="#494A4A" fill-opacity="0.08"/>
</g>
<g id="Emphasis">
<path id="2px-stroke-emphasis" d="M49.0416 63.2293L49.4162 62.3021C49.3867 62.2902 49.3568 62.2798 49.3264 62.2707L49.0416 63.2293ZM50.6316 86.5993L50.2178 87.5098L50.2293 87.5148L50.6316 86.5993ZM49.8416 83.1993L48.8779 83.4664C48.8909 83.5133 48.9073 83.5592 48.927 83.6037L49.8416 83.1993ZM41.1116 84.2993L41.5147 83.3842C41.4202 83.3425 41.3198 83.3158 41.2171 83.3049L41.1116 84.2993ZM46.0516 70.0293L46.0116 71.0285C46.2836 71.0394 46.5482 70.939 46.7444 70.7504C46.9407 70.5619 47.0516 70.3015 47.0516 70.0293H46.0516ZM46.0516 70.0193L46.0916 69.0201C45.8196 69.0092 45.555 69.1097 45.3588 69.2982C45.1625 69.4868 45.0516 69.7472 45.0516 70.0193H46.0516ZM89.2216 52.1393H88.2216C88.2216 52.5201 88.4378 52.8678 88.7793 53.0362L89.2216 52.1393ZM89.0716 75.5493L88.5913 76.4264L88.5918 76.4267L89.0716 75.5493ZM88.5416 72.0993L87.5604 72.2922C87.5694 72.3379 87.5816 72.383 87.5968 72.4271L88.5416 72.0993ZM79.7516 72.5493L80.2205 71.6661C80.1297 71.6179 80.032 71.584 79.9309 71.5655L79.7516 72.5493ZM89.2216 52.1193H90.2216C90.2216 51.7039 89.9647 51.3317 89.5763 51.1843L89.2216 52.1193ZM82.0916 67.4493L81.2536 67.995L81.2556 67.998L82.0916 67.4493ZM68.7616 81.3193L69.061 82.2734L69.0618 82.2732L68.7616 81.3193ZM62.2916 57.8793L62.0254 56.9154L62.0251 56.9155L62.2916 57.8793ZM63.0716 62.1293L63.4409 63.0586L63.4419 63.0582L63.0716 62.1293ZM68.1716 76.5893L68.6578 77.4632L68.6599 77.462L68.1716 76.5893ZM48.667 64.1565C48.527 64.0999 48.4922 64.0279 48.5443 64.094C48.5851 64.1457 48.6494 64.245 48.7324 64.4096C48.8977 64.7376 49.0815 65.2129 49.2768 65.815C49.6651 67.0123 50.0561 68.5764 50.4181 70.1575C50.7798 71.7378 51.1032 73.2926 51.3651 74.4928C51.4944 75.0857 51.6104 75.5992 51.7069 75.9733C51.7543 76.1572 51.8028 76.3301 51.8511 76.4691C51.8741 76.5355 51.9071 76.6236 51.9512 76.7107C51.9729 76.7535 52.01 76.8216 52.0652 76.8948C52.107 76.9501 52.2314 77.1082 52.4546 77.2136L53.3086 75.4051C53.5206 75.5052 53.6329 75.652 53.6619 75.6903C53.7043 75.7465 53.7278 75.792 53.7352 75.8065C53.7506 75.837 53.7519 75.8463 53.7404 75.8131C53.7195 75.753 53.6873 75.6436 53.6435 75.4737C53.5574 75.1402 53.4486 74.6601 53.3191 74.0665C53.0631 72.8935 52.7321 71.3033 52.3676 69.7112C52.0033 68.1198 51.5963 66.4839 51.1792 65.198C50.9718 64.5585 50.7512 63.9715 50.5184 63.5095C50.4022 63.279 50.2691 63.0513 50.1149 62.8558C49.9721 62.6746 49.745 62.435 49.4162 62.3021L48.667 64.1565ZM52.4546 77.2136C52.8091 77.381 53.1442 77.32 53.2893 77.2857C53.4601 77.2452 53.6166 77.1785 53.7304 77.1255C53.9311 77.0322 54.243 76.8592 54.4061 76.7757C54.6269 76.6626 54.7832 76.5976 54.892 76.5713C55.0064 76.5438 54.9163 76.5951 54.7725 76.51L55.7907 74.7886C55.2919 74.4935 54.7693 74.5436 54.4234 74.627C54.0719 74.7117 53.7401 74.8698 53.4946 74.9955C53.1915 75.1507 53.059 75.2321 52.8868 75.3122C52.8143 75.3459 52.8022 75.3457 52.8286 75.3394C52.8293 75.3393 53.0441 75.2802 53.3086 75.4051L52.4546 77.2136ZM54.7725 76.51C54.6919 76.4624 54.6852 76.4295 54.7349 76.4986C54.7764 76.5564 54.8326 76.6509 54.8975 76.7874C55.027 77.0598 55.1548 77.4222 55.2574 77.8101C55.3598 78.1974 55.4278 78.5744 55.4522 78.8703C55.4644 79.019 55.4639 79.1258 55.4581 79.1919C55.4505 79.2794 55.4404 79.2247 55.5008 79.1177L57.2424 80.1009C57.3903 79.8389 57.4339 79.5574 57.4506 79.3648C57.4692 79.151 57.4635 78.9247 57.4454 78.7059C57.4092 78.2667 57.3159 77.7712 57.1908 77.2986C57.0659 76.8264 56.8999 76.3413 56.7038 75.9287C56.6059 75.7227 56.4913 75.5154 56.3584 75.3307C56.2337 75.1572 56.0488 74.9413 55.7907 74.7886L54.7725 76.51ZM55.5008 79.1177C55.6637 78.8292 55.9221 78.8468 55.7525 78.8674C55.6174 78.8838 55.4429 78.8764 55.1298 78.8684C54.8839 78.8621 54.4857 78.8518 54.1266 78.9415C53.934 78.9897 53.6879 79.0809 53.4643 79.2695C53.2233 79.4729 53.0594 79.7471 52.9929 80.0639L54.9503 80.4747C54.9263 80.5891 54.8583 80.7102 54.754 80.7981C54.6672 80.8714 54.5985 80.8851 54.6116 80.8818C54.6638 80.8688 54.7893 80.8603 55.0784 80.8677C55.3003 80.8734 55.6721 80.8918 55.9932 80.8528C56.2799 80.8181 56.9045 80.6995 57.2424 80.1009L55.5008 79.1177ZM52.9929 80.0639C52.9294 80.3666 52.9725 80.6746 53.0098 80.8764C53.0528 81.1087 53.1212 81.361 53.1976 81.6101C53.3503 82.1077 53.5649 82.6863 53.7626 83.2203C53.9668 83.7718 54.1524 84.2742 54.2732 84.6726C54.3339 84.8731 54.3679 85.0142 54.3819 85.1025C54.3888 85.1465 54.3868 85.1528 54.3871 85.1323C54.3873 85.1241 54.3874 85.013 54.4546 84.8682L56.2686 85.7104C56.3683 85.4956 56.3847 85.2904 56.3868 85.1668C56.3892 85.0309 56.3748 84.9006 56.3572 84.7896C56.3221 84.5679 56.2579 84.3257 56.1872 84.0926C56.0451 83.6238 55.8352 83.0581 55.6381 82.5259C55.4346 81.9761 55.2422 81.4554 55.1096 81.0233C55.0434 80.8075 54.9995 80.6374 54.9765 80.5128C54.9479 80.3578 54.9713 80.3745 54.9503 80.4747L52.9929 80.0639ZM54.4546 84.8682C54.5175 84.7327 54.5949 84.6644 54.602 84.6579C54.6173 84.6441 54.6149 84.649 54.5808 84.6703C54.5124 84.7131 54.3923 84.7752 54.2145 84.8507C53.8638 84.9998 53.3875 85.1596 52.8813 85.2989C52.3761 85.4379 51.872 85.548 51.4698 85.606C51.2673 85.6352 51.1108 85.6482 51.0031 85.6493C50.8572 85.6509 50.909 85.6289 51.0339 85.6838L50.2293 87.5148C50.5192 87.6422 50.8345 87.6512 51.0243 87.6492C51.2523 87.6468 51.5037 87.6218 51.7552 87.5855C52.2612 87.5125 52.8496 87.382 53.4119 87.2272C53.9732 87.0728 54.5394 86.8858 54.9968 86.6914C55.2231 86.5952 55.4485 86.4865 55.6408 86.3663C55.737 86.3061 55.8437 86.2316 55.9437 86.1411C56.0356 86.058 56.1732 85.916 56.2686 85.7104L54.4546 84.8682ZM51.0454 85.689C51.1819 85.751 51.2682 85.8343 51.3138 85.8875C51.3588 85.9399 51.3795 85.9806 51.384 85.9897C51.3907 86.0031 51.3766 85.9767 51.3532 85.8805C51.3068 85.6901 51.2672 85.4159 51.2211 85.0542C51.178 84.7159 51.1301 84.3095 51.0661 83.9349C51.0039 83.5709 50.9135 83.1508 50.7562 82.795L48.927 83.6037C48.9797 83.7229 49.038 83.9402 49.0946 84.2716C49.1494 84.5922 49.1902 84.939 49.2371 85.307C49.281 85.6515 49.3327 86.0367 49.41 86.3541C49.4485 86.5117 49.5044 86.7014 49.5931 86.8799C49.6697 87.034 49.8489 87.342 50.2178 87.5097L51.0454 85.689ZM50.8053 82.9322C50.6465 82.3594 50.317 81.8894 49.8127 81.595C49.3386 81.3183 48.8107 81.256 48.3428 81.2736C47.4321 81.308 46.3803 81.6659 45.45 82.0252C44.4341 82.4177 43.5715 82.8063 42.7443 83.0945C42.3483 83.2325 42.0288 83.3213 41.783 83.3595C41.5139 83.4013 41.4624 83.3611 41.5147 83.3842L40.7085 85.2145C41.1808 85.4225 41.6924 85.3976 42.0903 85.3358C42.5116 85.2703 42.9628 85.1363 43.4023 84.9832C44.246 84.6892 45.3129 84.2222 46.1707 83.8909C47.1141 83.5265 47.8804 83.2925 48.4182 83.2722C48.6745 83.2625 48.7785 83.3071 48.8045 83.3223C48.8134 83.3275 48.8182 83.3316 48.8251 83.3411C48.8336 83.3526 48.8561 83.3878 48.8779 83.4664L50.8053 82.9322ZM41.2171 83.3049C40.7134 83.2514 40.322 83.0044 39.9999 82.5249C39.6567 82.0142 39.4006 81.2419 39.2812 80.2228C39.0431 78.1894 39.3844 75.4781 40.2151 72.8131C41.0457 70.1481 42.3281 67.6505 43.8714 65.9992C45.4083 64.3548 47.0538 63.682 48.7568 64.1879L49.3264 62.2707C46.6194 61.4666 44.2324 62.6839 42.4102 64.6335C40.5945 66.5763 39.1912 69.3768 38.3057 72.218C37.4201 75.0593 37.0145 78.0624 37.2948 80.4555C37.4347 81.6498 37.7541 82.7687 38.3398 83.6404C38.9465 84.5433 39.8373 85.1697 41.0061 85.2937L41.2171 83.3049ZM46.0916 69.0301C45.7471 69.0163 45.465 69.1403 45.2732 69.2597C45.0792 69.3805 44.9163 69.5341 44.7838 69.6807C44.5191 69.9736 44.2726 70.3548 44.0499 70.7572C43.5992 71.5717 43.154 72.6426 42.7878 73.7285C42.4211 74.8157 42.1178 75.9641 41.968 76.9414C41.8935 77.4275 41.8517 77.9035 41.8699 78.3238C41.886 78.6986 41.9544 79.2208 42.2695 79.6297L43.8537 78.409C43.9338 78.5129 43.8803 78.5238 43.868 78.2377C43.8576 77.9969 43.8808 77.6623 43.9449 77.2445C44.0722 76.4139 44.3409 75.3817 44.6829 74.3677C45.0254 73.3523 45.4259 72.4013 45.7999 71.7255C45.9895 71.3828 46.1501 71.1517 46.2676 71.0217C46.3262 70.9569 46.3481 70.9464 46.3302 70.9576C46.3146 70.9673 46.1998 71.036 46.0116 71.0285L46.0916 69.0301ZM42.2695 79.6297C42.8281 80.3547 43.7041 80.4159 44.3028 80.3583C44.9423 80.2968 45.6243 80.0728 46.218 79.827C46.8244 79.5758 47.4027 79.2747 47.8521 79.0132C48.0774 78.8821 48.2773 78.757 48.4378 78.6482C48.5684 78.5596 48.7524 78.4298 48.8792 78.2953L47.424 76.9233C47.4683 76.8763 47.4607 76.8943 47.3156 76.9927C47.2003 77.0708 47.0403 77.1717 46.8464 77.2845C46.4574 77.5108 45.96 77.7691 45.4527 77.9792C44.9326 78.1946 44.4627 78.3337 44.1113 78.3675C43.7191 78.4052 43.7651 78.294 43.8537 78.409L42.2695 79.6297ZM48.8792 78.2953C49.0434 78.1212 49.1084 77.9332 49.1332 77.8533C49.1639 77.7543 49.1793 77.6622 49.1881 77.5936C49.2058 77.4551 49.2091 77.3072 49.2073 77.1712C49.2035 76.8929 49.1755 76.5456 49.1319 76.1679C49.0438 75.4066 48.8821 74.4394 48.6704 73.4852C48.4602 72.5383 48.1913 71.5609 47.8788 70.7981C47.7248 70.422 47.5397 70.0466 47.3148 69.7462C47.1237 69.4908 46.7231 69.0454 46.0916 69.0201L46.0116 71.0185C45.6926 71.0058 45.6023 70.7959 45.7137 70.9447C45.7913 71.0484 45.9009 71.2457 46.0281 71.5562C46.2781 72.1665 46.518 73.0178 46.7179 73.9185C46.9161 74.8117 47.0657 75.7108 47.1451 76.3977C47.1852 76.744 47.205 77.0162 47.2075 77.1983C47.2081 77.2422 47.2076 77.2767 47.2066 77.3026C47.2055 77.3295 47.2041 77.341 47.2042 77.3403C47.2043 77.3395 47.2052 77.3326 47.2075 77.3208C47.2098 77.3095 47.2144 77.2884 47.2231 77.2605C47.2331 77.2283 47.2804 77.0756 47.424 76.9233L48.8792 78.2953ZM45.0516 70.0193V70.0293H47.0516V70.0193H45.0516ZM88.7793 53.0362C88.6439 52.9694 88.6145 52.895 88.6616 52.9648C88.6985 53.0195 88.7554 53.1232 88.8259 53.2935C88.9666 53.6329 89.1149 54.1205 89.2652 54.7353C89.5642 55.9578 89.8388 57.5464 90.083 59.1499C90.327 60.7521 90.5346 62.3275 90.7064 63.5433C90.7914 64.1443 90.8686 64.6648 90.9366 65.0447C90.97 65.2317 91.0051 65.407 91.0423 65.5485C91.06 65.6162 91.0858 65.7054 91.1222 65.7944C91.1401 65.8381 91.1709 65.9077 91.2189 65.9838C91.2545 66.0405 91.3637 66.2072 91.5746 66.3313L92.5886 64.6074C92.7889 64.7252 92.8871 64.8797 92.9114 64.9184C92.948 64.9765 92.9672 65.0224 92.9731 65.0367C92.9855 65.0669 92.9857 65.075 92.9767 65.0406C92.9603 64.978 92.9363 64.8655 92.9054 64.6926C92.8446 64.3528 92.7718 63.8653 92.6868 63.2634C92.5186 62.0736 92.3062 60.4641 92.0602 58.8488C91.8144 57.2347 91.5291 55.5733 91.208 54.2602C91.0483 53.6072 90.8716 53.0056 90.6735 52.5277C90.5747 52.2893 90.4588 52.0525 90.3195 51.8462C90.1905 51.655 89.9818 51.3992 89.6639 51.2425L88.7793 53.0362ZM91.5746 66.3313C91.9185 66.5336 92.2633 66.4979 92.4109 66.4748C92.5853 66.4475 92.7469 66.3923 92.864 66.3481C93.0709 66.27 93.394 66.1207 93.5631 66.0493C93.7915 65.9529 93.9527 65.8992 94.064 65.8808C94.181 65.8615 94.0892 65.9061 93.953 65.8119L95.0902 64.1667C94.614 63.8376 94.0897 63.8496 93.7386 63.9075C93.3817 63.9663 93.0392 64.0995 92.7851 64.2068C92.4717 64.3392 92.3336 64.4106 92.1574 64.4771C92.0829 64.5052 92.0725 64.5034 92.1014 64.4989C92.1037 64.4985 92.3297 64.4551 92.5886 64.6074L91.5746 66.3313ZM93.953 65.8119C93.8755 65.7584 93.8709 65.7246 93.9153 65.7969C93.9524 65.8572 94.0015 65.9554 94.0562 66.0962C94.1653 66.3773 94.2661 66.7481 94.34 67.1423C94.4137 67.5359 94.4539 67.9165 94.4568 68.2124C94.4583 68.3612 94.45 68.4668 94.4397 68.5312C94.4258 68.6178 94.4201 68.5579 94.4918 68.4513L96.1514 69.5673C96.3206 69.3157 96.3843 69.0361 96.4145 68.8475C96.4483 68.6366 96.4588 68.4114 96.4567 68.1928C96.4524 67.754 96.3957 67.254 96.3057 66.7739C96.2159 66.2943 96.086 65.7982 95.9205 65.3721C95.8378 65.1593 95.7386 64.9438 95.6191 64.7496C95.507 64.5671 95.3377 64.3378 95.0902 64.1667L93.953 65.8119ZM94.4918 68.4513C94.6809 68.17 94.944 68.2099 94.7659 68.2174C94.6273 68.2233 94.4531 68.2025 94.1397 68.1716C93.8933 68.1473 93.4961 68.1087 93.1299 68.1738C92.715 68.2476 92.1239 68.5056 91.9205 69.213L93.8427 69.7656C93.7543 70.0731 93.4769 70.1435 93.4802 70.1429C93.5321 70.1337 93.6574 70.1338 93.9435 70.162C94.1626 70.1836 94.5309 70.2291 94.8504 70.2156C95.1305 70.2038 95.7673 70.1386 96.1514 69.5673L94.4918 68.4513ZM91.9205 69.213C91.8353 69.5094 91.8549 69.8188 91.877 70.0238C91.9024 70.2589 91.9517 70.5158 92.0092 70.77C92.1242 71.278 92.2946 71.8708 92.4517 72.4178C92.6139 72.9828 92.7614 73.4972 92.852 73.9033C92.8976 74.1077 92.9209 74.2509 92.9283 74.3401C92.932 74.3844 92.9295 74.3908 92.9313 74.3707C92.9321 74.3626 92.9403 74.2525 93.0174 74.1137L94.7658 75.085C94.8804 74.8786 94.9118 74.6758 94.923 74.5528C94.9354 74.4177 94.9308 74.2869 94.9215 74.175C94.903 73.9515 94.857 73.7053 94.804 73.4678C94.6974 72.9901 94.5305 72.4108 94.374 71.8658C94.2123 71.3028 94.0597 70.7694 93.9599 70.3286C93.9101 70.1084 93.8791 69.9354 93.8655 69.8091C93.8486 69.6526 93.8704 69.6692 93.8427 69.7656L91.9205 69.213ZM93.0174 74.1137C93.0901 73.9829 93.1724 73.9203 93.18 73.9143C93.1963 73.9016 93.1936 73.9063 93.158 73.9251C93.0866 73.9627 92.9623 74.0159 92.7794 74.0782C92.4185 74.2012 91.9315 74.3256 91.4162 74.4268C90.9019 74.5279 90.3912 74.5998 89.9862 74.6267C89.7823 74.6402 89.626 74.6409 89.5194 74.6335C89.3751 74.6235 89.4301 74.6056 89.5514 74.672L88.5918 76.4267C88.8731 76.5805 89.1894 76.6154 89.3809 76.6287C89.6102 76.6447 89.8644 76.6392 90.1189 76.6223C90.6308 76.5883 91.2288 76.5019 91.802 76.3893C92.3742 76.2768 92.9534 76.1318 93.4244 75.9714C93.6575 75.892 93.8905 75.7999 94.0912 75.694C94.1917 75.641 94.3037 75.5743 94.4101 75.4913C94.5079 75.4151 94.6556 75.2833 94.7658 75.085L93.0174 74.1137ZM89.5519 74.6722C89.6848 74.745 89.7651 74.8356 89.8066 74.8921C89.8475 74.9479 89.8651 74.9901 89.8688 74.9992C89.8743 75.0127 89.8622 74.985 89.8459 74.8871C89.8137 74.6936 89.7944 74.4167 89.7752 74.0529C89.7573 73.7126 89.7397 73.304 89.7045 72.9265C89.6702 72.5594 89.6127 72.1358 89.4864 71.7715L87.5968 72.4271C87.6405 72.5528 87.6818 72.7767 87.7131 73.1124C87.7435 73.4377 87.7584 73.7873 87.778 74.1582C87.7963 74.5057 87.8195 74.8932 87.8729 75.215C87.8995 75.3747 87.941 75.5674 88.0156 75.7513C88.0796 75.909 88.2348 76.2312 88.5913 76.4264L89.5519 74.6722ZM89.5228 71.9065C89.4082 71.3231 89.1152 70.8293 88.6341 70.4978C88.1819 70.1863 87.66 70.085 87.1922 70.0678C86.2816 70.0344 85.2056 70.313 84.2506 70.6022C83.2074 70.9181 82.3177 71.2416 81.4703 71.4679C81.0648 71.5762 80.739 71.6412 80.4906 71.6612C80.2185 71.6831 80.1699 71.6392 80.2205 71.6661L79.2827 73.4326C79.7383 73.6744 80.2503 73.6871 80.6514 73.6547C81.0763 73.6205 81.5364 73.5203 81.9863 73.4002C82.8499 73.1696 83.9495 72.7831 84.8302 72.5164C85.7988 72.2231 86.581 72.0467 87.1189 72.0665C87.3752 72.0759 87.4751 72.1281 87.4994 72.1448C87.5075 72.1504 87.5117 72.1545 87.5176 72.1641C87.5249 72.1759 87.5447 72.2123 87.5604 72.2922L89.5228 71.9065ZM79.9309 71.5655C79.4895 71.4851 79.1513 71.2341 78.8869 70.7399C78.6043 70.2117 78.4247 69.4259 78.3975 68.4011C78.3434 66.3588 78.9019 63.682 79.9268 61.0852C80.952 58.4877 82.3982 56.0861 84.028 54.5428C85.656 53.001 87.2896 52.4559 88.8669 53.0543L89.5763 51.1843C86.9886 50.2027 84.5672 51.2777 82.6528 53.0906C80.74 54.9019 79.1563 57.5897 78.0664 60.351C76.9763 63.1129 76.3348 66.0642 76.3982 68.4541C76.4298 69.6454 76.6383 70.7767 77.1235 71.6835C77.6269 72.6243 78.4362 73.3261 79.5723 73.5331L79.9309 71.5655ZM88.2216 52.1193V52.1393H90.2216V52.1193H88.2216ZM85.8538 57.7056C85.5111 57.6669 85.2207 57.7704 85.0212 57.8755C84.8192 57.9818 84.6458 58.1231 84.5031 58.2595C84.2181 58.5321 83.9445 58.8941 83.6929 59.279C83.1837 60.0582 82.6609 61.0933 82.2153 62.1493C81.7691 63.2066 81.3814 64.3296 81.1588 65.2932C81.0481 65.7726 80.9708 66.2441 80.9569 66.6643C80.9446 67.0392 80.9729 67.5639 81.2536 67.995L82.9296 66.9037C83.0003 67.0123 82.9464 67.0173 82.9559 66.7301C82.9638 66.4884 83.0123 66.1556 83.1075 65.7433C83.2968 64.9235 83.6416 63.9133 84.0579 62.9269C84.4748 61.9391 84.9445 61.0199 85.3671 60.3731C85.5815 60.0451 85.7587 59.8261 85.8855 59.7049C85.9487 59.6444 85.9714 59.6354 85.9529 59.6452C85.9368 59.6537 85.8171 59.7142 85.6294 59.693L85.8538 57.7056ZM81.2556 67.998C81.7585 68.7644 82.631 68.887 83.2294 68.8731C83.8709 68.8582 84.5676 68.6852 85.1782 68.4841C85.8018 68.2787 86.4013 68.0218 86.8689 67.7951C87.1033 67.6815 87.3119 67.5719 87.4797 67.4759C87.6153 67.3983 87.8095 67.2825 87.9464 67.1573L86.5968 65.6813C86.6462 65.6362 86.6391 65.6526 86.4863 65.74C86.3656 65.8091 86.1985 65.8975 85.9965 65.9954C85.5913 66.1919 85.0751 66.4124 84.5525 66.5845C84.0168 66.7609 83.5367 66.8654 83.1829 66.8737C82.7859 66.8829 82.8447 66.7743 82.9276 66.9007L81.2556 67.998ZM87.9464 67.1573C88.1247 66.9943 88.2032 66.8096 88.2332 66.7327C88.2707 66.6364 88.2925 66.546 88.3061 66.4786C88.3335 66.3425 88.3475 66.1958 88.3555 66.0605C88.3718 65.7836 88.3694 65.4359 88.3537 65.0564C88.322 64.2915 88.2326 63.3155 88.0925 62.3485C87.9535 61.3889 87.7585 60.3945 87.5042 59.6109C87.3788 59.2247 87.2225 58.8367 87.021 58.5206C86.8499 58.2523 86.4833 57.7767 85.8538 57.7056L85.6294 59.693C85.3099 59.6569 85.2345 59.4389 85.3345 59.5957C85.4039 59.7046 85.4983 59.9093 85.6018 60.2283C85.8053 60.8554 85.9809 61.7222 86.1132 62.6352C86.2443 63.5407 86.3268 64.4484 86.3554 65.1392C86.3699 65.4874 86.3697 65.7605 86.359 65.9424C86.3564 65.9863 86.3534 66.0207 86.3505 66.0466C86.3475 66.0734 86.3452 66.0848 86.3453 66.0843C86.3455 66.0836 86.3469 66.0768 86.35 66.0652C86.3531 66.0542 86.3592 66.0335 86.3698 66.0062C86.3818 65.9755 86.4404 65.8243 86.5968 65.6813L87.9464 67.1573ZM68.4622 80.3652C66.9933 80.8262 65.3255 80.1741 63.651 78.425C61.9998 76.7003 60.5518 74.0993 59.6416 71.2933C58.7298 68.4827 58.396 65.5853 58.8513 63.2796C59.299 61.0121 60.4713 59.4201 62.5581 58.8432L62.0251 56.9155C59.0119 57.7485 57.4392 60.1065 56.8891 62.8922C56.3466 65.6396 56.7621 68.8985 57.7391 71.9104C58.7176 74.9268 60.2977 77.8146 62.2063 79.8081C64.0914 81.7771 66.515 83.0725 69.061 82.2734L68.4622 80.3652ZM62.5578 58.8432C64.4357 58.3246 66.1563 59.0525 67.6742 60.7513C69.2086 62.4685 70.4182 65.0755 71.1142 67.9103C71.8091 70.7406 71.9638 73.6832 71.4912 76.0246C71.0126 78.3959 69.9599 79.8939 68.4614 80.3654L69.0618 82.2732C71.5833 81.4798 72.9131 79.089 73.4517 76.4203C73.9963 73.7217 73.8028 70.473 73.0565 67.4334C72.3113 64.3982 70.9865 61.4564 69.1656 59.4186C67.3281 57.3623 64.8725 56.1291 62.0254 56.9154L62.5578 58.8432ZM62.7023 61.2C61.9177 61.5118 61.5073 62.2223 61.2962 62.8874C61.0807 63.5666 61.0093 64.3815 61.0251 65.2272C61.0568 66.9291 61.4479 68.9987 62.0537 70.9299C62.6565 72.8515 63.504 74.7391 64.5082 76.0308C65.0077 76.6731 65.6036 77.2437 66.2992 77.5542C67.044 77.8867 67.8705 77.9012 68.6578 77.4632L67.6854 75.7155C67.4977 75.8199 67.3377 75.8276 67.1145 75.7279C66.842 75.6063 66.4885 75.3194 66.0872 74.8032C65.2898 73.7777 64.5305 72.1434 63.962 70.3313C63.3966 68.5287 63.052 66.6527 63.0247 65.1899C63.011 64.4532 63.0792 63.881 63.2025 63.4924C63.263 63.3018 63.3272 63.1862 63.376 63.122C63.3993 63.0914 63.4168 63.0755 63.4262 63.068C63.4351 63.061 63.4395 63.0592 63.4409 63.0586L62.7023 61.2ZM68.6599 77.462C69.0274 77.2564 69.2455 76.9347 69.3749 76.6506C69.505 76.3651 69.5775 76.0497 69.6189 75.7438C69.7019 75.1317 69.6817 74.3895 69.5998 73.6046C69.4347 72.0227 68.9966 70.0706 68.4089 68.2105C67.8233 66.3574 67.0665 64.5235 66.2342 63.2052C65.8227 62.5533 65.3492 61.9567 64.8121 61.5619C64.2605 61.1564 63.5072 60.8791 62.7013 61.2004L63.4419 63.0582C63.4423 63.0581 63.4408 63.0587 63.4374 63.0595C63.4341 63.0603 63.4302 63.0609 63.4263 63.0612C63.4176 63.0618 63.4157 63.0604 63.4237 63.0622C63.4433 63.0665 63.5109 63.0876 63.6274 63.1733C63.8719 63.353 64.1869 63.7088 64.543 64.2729C65.246 65.3864 65.9411 67.0388 66.5018 68.8131C67.0603 70.5805 67.4629 72.3972 67.6106 73.8122C67.6851 74.5257 67.6894 75.089 67.637 75.4753C67.6109 75.6685 67.5758 75.7755 67.5549 75.8214C67.5334 75.8687 67.5571 75.7873 67.6833 75.7167L68.6599 77.462Z" fill="#116FAE"/>
<path id="1px-stroke-emphasis" d="M49.0416 63.2293L49.4162 62.3021C49.3867 62.2902 49.3568 62.2798 49.3264 62.2707L49.0416 63.2293ZM50.6316 86.5993L50.2178 87.5098L50.2293 87.5148L50.6316 86.5993ZM49.8416 83.1993L48.8779 83.4664C48.8909 83.5133 48.9073 83.5592 48.927 83.6037L49.8416 83.1993ZM41.1116 84.2993L41.5147 83.3842C41.4202 83.3425 41.3198 83.3158 41.2171 83.3049L41.1116 84.2993ZM46.0516 70.0293L46.0116 71.0285C46.2836 71.0394 46.5482 70.939 46.7444 70.7504C46.9407 70.5619 47.0516 70.3015 47.0516 70.0293H46.0516ZM46.0516 70.0193L46.0916 69.0201C45.8196 69.0092 45.555 69.1097 45.3588 69.2982C45.1625 69.4868 45.0516 69.7472 45.0516 70.0193H46.0516ZM89.2216 52.1393H88.2216C88.2216 52.5201 88.4378 52.8678 88.7793 53.0362L89.2216 52.1393ZM89.0716 75.5493L88.5913 76.4264L88.5918 76.4267L89.0716 75.5493ZM88.5416 72.0993L87.5604 72.2922C87.5694 72.3379 87.5816 72.383 87.5968 72.4271L88.5416 72.0993ZM79.7516 72.5493L80.2205 71.6661C80.1297 71.6179 80.032 71.584 79.9309 71.5655L79.7516 72.5493ZM89.2216 52.1193H90.2216C90.2216 51.7039 89.9647 51.3317 89.5763 51.1843L89.2216 52.1193ZM82.0916 67.4493L81.2536 67.995L81.2556 67.998L82.0916 67.4493ZM68.7616 81.3193L69.061 82.2734L69.0618 82.2732L68.7616 81.3193ZM62.2916 57.8793L62.0254 56.9154L62.0251 56.9155L62.2916 57.8793ZM63.0716 62.1293L63.4409 63.0586L63.4419 63.0582L63.0716 62.1293ZM68.1716 76.5893L68.6578 77.4632L68.6599 77.462L68.1716 76.5893ZM48.667 64.1565C48.527 64.0999 48.4922 64.0279 48.5443 64.094C48.5851 64.1457 48.6494 64.245 48.7324 64.4096C48.8977 64.7376 49.0815 65.2129 49.2768 65.815C49.6651 67.0123 50.0561 68.5764 50.4181 70.1575C50.7798 71.7378 51.1032 73.2926 51.3651 74.4928C51.4944 75.0857 51.6104 75.5992 51.7069 75.9733C51.7543 76.1572 51.8028 76.3301 51.8511 76.4691C51.8741 76.5355 51.9071 76.6236 51.9512 76.7107C51.9729 76.7535 52.01 76.8216 52.0652 76.8948C52.107 76.9501 52.2314 77.1082 52.4546 77.2136L53.3086 75.4051C53.5206 75.5052 53.6329 75.652 53.6619 75.6903C53.7043 75.7465 53.7278 75.792 53.7352 75.8065C53.7506 75.837 53.7519 75.8463 53.7404 75.8131C53.7195 75.753 53.6873 75.6436 53.6435 75.4737C53.5574 75.1402 53.4486 74.6601 53.3191 74.0665C53.0631 72.8935 52.7321 71.3033 52.3676 69.7112C52.0033 68.1198 51.5963 66.4839 51.1792 65.198C50.9718 64.5585 50.7512 63.9715 50.5184 63.5095C50.4022 63.279 50.2691 63.0513 50.1149 62.8558C49.9721 62.6746 49.745 62.435 49.4162 62.3021L48.667 64.1565ZM52.4546 77.2136C52.8091 77.381 53.1442 77.32 53.2893 77.2857C53.4601 77.2452 53.6166 77.1785 53.7304 77.1255C53.9311 77.0322 54.243 76.8592 54.4061 76.7757C54.6269 76.6626 54.7832 76.5976 54.892 76.5713C55.0064 76.5438 54.9163 76.5951 54.7725 76.51L55.7907 74.7886C55.2919 74.4935 54.7693 74.5436 54.4234 74.627C54.0719 74.7117 53.7401 74.8698 53.4946 74.9955C53.1915 75.1507 53.059 75.2321 52.8868 75.3122C52.8143 75.3459 52.8022 75.3457 52.8286 75.3394C52.8293 75.3393 53.0441 75.2802 53.3086 75.4051L52.4546 77.2136ZM54.7725 76.51C54.6919 76.4624 54.6852 76.4295 54.7349 76.4986C54.7764 76.5564 54.8326 76.6509 54.8975 76.7874C55.027 77.0598 55.1548 77.4222 55.2574 77.8101C55.3598 78.1974 55.4278 78.5744 55.4522 78.8703C55.4644 79.019 55.4639 79.1258 55.4581 79.1919C55.4505 79.2794 55.4404 79.2247 55.5008 79.1177L57.2424 80.1009C57.3903 79.8389 57.4339 79.5574 57.4506 79.3648C57.4692 79.151 57.4635 78.9247 57.4454 78.7059C57.4092 78.2667 57.3159 77.7712 57.1908 77.2986C57.0659 76.8264 56.8999 76.3413 56.7038 75.9287C56.6059 75.7227 56.4913 75.5154 56.3584 75.3307C56.2337 75.1572 56.0488 74.9413 55.7907 74.7886L54.7725 76.51ZM55.5008 79.1177C55.6637 78.8292 55.9221 78.8468 55.7525 78.8674C55.6174 78.8838 55.4429 78.8764 55.1298 78.8684C54.8839 78.8621 54.4857 78.8518 54.1266 78.9415C53.934 78.9897 53.6879 79.0809 53.4643 79.2695C53.2233 79.4729 53.0594 79.7471 52.9929 80.0639L54.9503 80.4747C54.9263 80.5891 54.8583 80.7102 54.754 80.7981C54.6672 80.8714 54.5985 80.8851 54.6116 80.8818C54.6638 80.8688 54.7893 80.8603 55.0784 80.8677C55.3003 80.8734 55.6721 80.8918 55.9932 80.8528C56.2799 80.8181 56.9045 80.6995 57.2424 80.1009L55.5008 79.1177ZM52.9929 80.0639C52.9294 80.3666 52.9725 80.6746 53.0098 80.8764C53.0528 81.1087 53.1212 81.361 53.1976 81.6101C53.3503 82.1077 53.5649 82.6863 53.7626 83.2203C53.9668 83.7718 54.1524 84.2742 54.2732 84.6726C54.3339 84.8731 54.3679 85.0142 54.3819 85.1025C54.3888 85.1465 54.3868 85.1528 54.3871 85.1323C54.3873 85.1241 54.3874 85.013 54.4546 84.8682L56.2686 85.7104C56.3683 85.4956 56.3847 85.2904 56.3868 85.1668C56.3892 85.0309 56.3748 84.9006 56.3572 84.7896C56.3221 84.5679 56.2579 84.3257 56.1872 84.0926C56.0451 83.6238 55.8352 83.0581 55.6381 82.5259C55.4346 81.9761 55.2422 81.4554 55.1096 81.0233C55.0434 80.8075 54.9995 80.6374 54.9765 80.5128C54.9479 80.3578 54.9713 80.3745 54.9503 80.4747L52.9929 80.0639ZM54.4546 84.8682C54.5175 84.7327 54.5949 84.6644 54.602 84.6579C54.6173 84.6441 54.6149 84.649 54.5808 84.6703C54.5124 84.7131 54.3923 84.7752 54.2145 84.8507C53.8638 84.9998 53.3875 85.1596 52.8813 85.2989C52.3761 85.4379 51.872 85.548 51.4698 85.606C51.2673 85.6352 51.1108 85.6482 51.0031 85.6493C50.8572 85.6509 50.909 85.6289 51.0339 85.6838L50.2293 87.5148C50.5192 87.6422 50.8345 87.6512 51.0243 87.6492C51.2523 87.6468 51.5037 87.6218 51.7552 87.5855C52.2612 87.5125 52.8496 87.382 53.4119 87.2272C53.9732 87.0728 54.5394 86.8858 54.9968 86.6914C55.2231 86.5952 55.4485 86.4865 55.6408 86.3663C55.737 86.3061 55.8437 86.2316 55.9437 86.1411C56.0356 86.058 56.1732 85.916 56.2686 85.7104L54.4546 84.8682ZM51.0454 85.689C51.1819 85.751 51.2682 85.8343 51.3138 85.8875C51.3588 85.9399 51.3795 85.9806 51.384 85.9897C51.3907 86.0031 51.3766 85.9767 51.3532 85.8805C51.3068 85.6901 51.2672 85.4159 51.2211 85.0542C51.178 84.7159 51.1301 84.3095 51.0661 83.9349C51.0039 83.5709 50.9135 83.1508 50.7562 82.795L48.927 83.6037C48.9797 83.7229 49.038 83.9402 49.0946 84.2716C49.1494 84.5922 49.1902 84.939 49.2371 85.307C49.281 85.6515 49.3327 86.0367 49.41 86.3541C49.4485 86.5117 49.5044 86.7014 49.5931 86.8799C49.6697 87.034 49.8489 87.342 50.2178 87.5097L51.0454 85.689ZM50.8053 82.9322C50.6465 82.3594 50.317 81.8894 49.8127 81.595C49.3386 81.3183 48.8107 81.256 48.3428 81.2736C47.4321 81.308 46.3803 81.6659 45.45 82.0252C44.4341 82.4177 43.5715 82.8063 42.7443 83.0945C42.3483 83.2325 42.0288 83.3213 41.783 83.3595C41.5139 83.4013 41.4624 83.3611 41.5147 83.3842L40.7085 85.2145C41.1808 85.4225 41.6924 85.3976 42.0903 85.3358C42.5116 85.2703 42.9628 85.1363 43.4023 84.9832C44.246 84.6892 45.3129 84.2222 46.1707 83.8909C47.1141 83.5265 47.8804 83.2925 48.4182 83.2722C48.6745 83.2625 48.7785 83.3071 48.8045 83.3223C48.8134 83.3275 48.8182 83.3316 48.8251 83.3411C48.8336 83.3526 48.8561 83.3878 48.8779 83.4664L50.8053 82.9322ZM41.2171 83.3049C40.7134 83.2514 40.322 83.0044 39.9999 82.5249C39.6567 82.0142 39.4006 81.2419 39.2812 80.2228C39.0431 78.1894 39.3844 75.4781 40.2151 72.8131C41.0457 70.1481 42.3281 67.6505 43.8714 65.9992C45.4083 64.3548 47.0538 63.682 48.7568 64.1879L49.3264 62.2707C46.6194 61.4666 44.2324 62.6839 42.4102 64.6335C40.5945 66.5763 39.1912 69.3768 38.3057 72.218C37.4201 75.0593 37.0145 78.0624 37.2948 80.4555C37.4347 81.6498 37.7541 82.7687 38.3398 83.6404C38.9465 84.5433 39.8373 85.1697 41.0061 85.2937L41.2171 83.3049ZM46.0916 69.0301C45.7471 69.0163 45.465 69.1403 45.2732 69.2597C45.0792 69.3805 44.9163 69.5341 44.7838 69.6807C44.5191 69.9736 44.2726 70.3548 44.0499 70.7572C43.5992 71.5717 43.154 72.6426 42.7878 73.7285C42.4211 74.8157 42.1178 75.9641 41.968 76.9414C41.8935 77.4275 41.8517 77.9035 41.8699 78.3238C41.886 78.6986 41.9544 79.2208 42.2695 79.6297L43.8537 78.409C43.9338 78.5129 43.8803 78.5238 43.868 78.2377C43.8576 77.9969 43.8808 77.6623 43.9449 77.2445C44.0722 76.4139 44.3409 75.3817 44.6829 74.3677C45.0254 73.3523 45.4259 72.4013 45.7999 71.7255C45.9895 71.3828 46.1501 71.1517 46.2676 71.0217C46.3262 70.9569 46.3481 70.9464 46.3302 70.9576C46.3146 70.9673 46.1998 71.036 46.0116 71.0285L46.0916 69.0301ZM42.2695 79.6297C42.8281 80.3547 43.7041 80.4159 44.3028 80.3583C44.9423 80.2968 45.6243 80.0728 46.218 79.827C46.8244 79.5758 47.4027 79.2747 47.8521 79.0132C48.0774 78.8821 48.2773 78.757 48.4378 78.6482C48.5684 78.5596 48.7524 78.4298 48.8792 78.2953L47.424 76.9233C47.4683 76.8763 47.4607 76.8943 47.3156 76.9927C47.2003 77.0708 47.0403 77.1717 46.8464 77.2845C46.4574 77.5108 45.96 77.7691 45.4527 77.9792C44.9326 78.1946 44.4627 78.3337 44.1113 78.3675C43.7191 78.4052 43.7651 78.294 43.8537 78.409L42.2695 79.6297ZM48.8792 78.2953C49.0434 78.1212 49.1084 77.9332 49.1332 77.8533C49.1639 77.7543 49.1793 77.6622 49.1881 77.5936C49.2058 77.4551 49.2091 77.3072 49.2073 77.1712C49.2035 76.8929 49.1755 76.5456 49.1319 76.1679C49.0438 75.4066 48.8821 74.4394 48.6704 73.4852C48.4602 72.5383 48.1913 71.5609 47.8788 70.7981C47.7248 70.422 47.5397 70.0466 47.3148 69.7462C47.1237 69.4908 46.7231 69.0454 46.0916 69.0201L46.0116 71.0185C45.6926 71.0058 45.6023 70.7959 45.7137 70.9447C45.7913 71.0484 45.9009 71.2457 46.0281 71.5562C46.2781 72.1665 46.518 73.0178 46.7179 73.9185C46.9161 74.8117 47.0657 75.7108 47.1451 76.3977C47.1852 76.744 47.205 77.0162 47.2075 77.1983C47.2081 77.2422 47.2076 77.2767 47.2066 77.3026C47.2055 77.3295 47.2041 77.341 47.2042 77.3403C47.2043 77.3395 47.2052 77.3326 47.2075 77.3208C47.2098 77.3095 47.2144 77.2884 47.2231 77.2605C47.2331 77.2283 47.2804 77.0756 47.424 76.9233L48.8792 78.2953ZM45.0516 70.0193V70.0293H47.0516V70.0193H45.0516ZM88.7793 53.0362C88.6439 52.9694 88.6145 52.895 88.6616 52.9648C88.6985 53.0195 88.7554 53.1232 88.8259 53.2935C88.9666 53.6329 89.1149 54.1205 89.2652 54.7353C89.5642 55.9578 89.8388 57.5464 90.083 59.1499C90.327 60.7521 90.5346 62.3275 90.7064 63.5433C90.7914 64.1443 90.8686 64.6648 90.9366 65.0447C90.97 65.2317 91.0051 65.407 91.0423 65.5485C91.06 65.6162 91.0858 65.7054 91.1222 65.7944C91.1401 65.8381 91.1709 65.9077 91.2189 65.9838C91.2545 66.0405 91.3637 66.2072 91.5746 66.3313L92.5886 64.6074C92.7889 64.7252 92.8871 64.8797 92.9114 64.9184C92.948 64.9765 92.9672 65.0224 92.9731 65.0367C92.9855 65.0669 92.9857 65.075 92.9767 65.0406C92.9603 64.978 92.9363 64.8655 92.9054 64.6926C92.8446 64.3528 92.7718 63.8653 92.6868 63.2634C92.5186 62.0736 92.3062 60.4641 92.0602 58.8488C91.8144 57.2347 91.5291 55.5733 91.208 54.2602C91.0483 53.6072 90.8716 53.0056 90.6735 52.5277C90.5747 52.2893 90.4588 52.0525 90.3195 51.8462C90.1905 51.655 89.9818 51.3992 89.6639 51.2425L88.7793 53.0362ZM91.5746 66.3313C91.9185 66.5336 92.2633 66.4979 92.4109 66.4748C92.5853 66.4475 92.7469 66.3923 92.864 66.3481C93.0709 66.27 93.394 66.1207 93.5631 66.0493C93.7915 65.9529 93.9527 65.8992 94.064 65.8808C94.181 65.8615 94.0892 65.9061 93.953 65.8119L95.0902 64.1667C94.614 63.8376 94.0897 63.8496 93.7386 63.9075C93.3817 63.9663 93.0392 64.0995 92.7851 64.2068C92.4717 64.3392 92.3336 64.4106 92.1574 64.4771C92.0829 64.5052 92.0725 64.5034 92.1014 64.4989C92.1037 64.4985 92.3297 64.4551 92.5886 64.6074L91.5746 66.3313ZM93.953 65.8119C93.8755 65.7584 93.8709 65.7246 93.9153 65.7969C93.9524 65.8572 94.0015 65.9554 94.0562 66.0962C94.1653 66.3773 94.2661 66.7481 94.34 67.1423C94.4137 67.5359 94.4539 67.9165 94.4568 68.2124C94.4583 68.3612 94.45 68.4668 94.4397 68.5312C94.4258 68.6178 94.4201 68.5579 94.4918 68.4513L96.1514 69.5673C96.3206 69.3157 96.3843 69.0361 96.4145 68.8475C96.4483 68.6366 96.4588 68.4114 96.4567 68.1928C96.4524 67.754 96.3957 67.254 96.3057 66.7739C96.2159 66.2943 96.086 65.7982 95.9205 65.3721C95.8378 65.1593 95.7386 64.9438 95.6191 64.7496C95.507 64.5671 95.3377 64.3378 95.0902 64.1667L93.953 65.8119ZM94.4918 68.4513C94.6809 68.17 94.944 68.2099 94.7659 68.2174C94.6273 68.2233 94.4531 68.2025 94.1397 68.1716C93.8933 68.1473 93.4961 68.1087 93.1299 68.1738C92.715 68.2476 92.1239 68.5056 91.9205 69.213L93.8427 69.7656C93.7543 70.0731 93.4769 70.1435 93.4802 70.1429C93.5321 70.1337 93.6574 70.1338 93.9435 70.162C94.1626 70.1836 94.5309 70.2291 94.8504 70.2156C95.1305 70.2038 95.7673 70.1386 96.1514 69.5673L94.4918 68.4513ZM91.9205 69.213C91.8353 69.5094 91.8549 69.8188 91.877 70.0238C91.9024 70.2589 91.9517 70.5158 92.0092 70.77C92.1242 71.278 92.2946 71.8708 92.4517 72.4178C92.6139 72.9828 92.7614 73.4972 92.852 73.9033C92.8976 74.1077 92.9209 74.2509 92.9283 74.3401C92.932 74.3844 92.9295 74.3908 92.9313 74.3707C92.9321 74.3626 92.9403 74.2525 93.0174 74.1137L94.7658 75.085C94.8804 74.8786 94.9118 74.6758 94.923 74.5528C94.9354 74.4177 94.9308 74.2869 94.9215 74.175C94.903 73.9515 94.857 73.7053 94.804 73.4678C94.6974 72.9901 94.5305 72.4108 94.374 71.8658C94.2123 71.3028 94.0597 70.7694 93.9599 70.3286C93.9101 70.1084 93.8791 69.9354 93.8655 69.8091C93.8486 69.6526 93.8704 69.6692 93.8427 69.7656L91.9205 69.213ZM93.0174 74.1137C93.0901 73.9829 93.1724 73.9203 93.18 73.9143C93.1963 73.9016 93.1936 73.9063 93.158 73.9251C93.0866 73.9627 92.9623 74.0159 92.7794 74.0782C92.4185 74.2012 91.9315 74.3256 91.4162 74.4268C90.9019 74.5279 90.3912 74.5998 89.9862 74.6267C89.7823 74.6402 89.626 74.6409 89.5194 74.6335C89.3751 74.6235 89.4301 74.6056 89.5514 74.672L88.5918 76.4267C88.8731 76.5805 89.1894 76.6154 89.3809 76.6287C89.6102 76.6447 89.8644 76.6392 90.1189 76.6223C90.6308 76.5883 91.2288 76.5019 91.802 76.3893C92.3742 76.2768 92.9534 76.1318 93.4244 75.9714C93.6575 75.892 93.8905 75.7999 94.0912 75.694C94.1917 75.641 94.3037 75.5743 94.4101 75.4913C94.5079 75.4151 94.6556 75.2833 94.7658 75.085L93.0174 74.1137ZM89.5519 74.6722C89.6848 74.745 89.7651 74.8356 89.8066 74.8921C89.8475 74.9479 89.8651 74.9901 89.8688 74.9992C89.8743 75.0127 89.8622 74.985 89.8459 74.8871C89.8137 74.6936 89.7944 74.4167 89.7752 74.0529C89.7573 73.7126 89.7397 73.304 89.7045 72.9265C89.6702 72.5594 89.6127 72.1358 89.4864 71.7715L87.5968 72.4271C87.6405 72.5528 87.6818 72.7767 87.7131 73.1124C87.7435 73.4377 87.7584 73.7873 87.778 74.1582C87.7963 74.5057 87.8195 74.8932 87.8729 75.215C87.8995 75.3747 87.941 75.5674 88.0156 75.7513C88.0796 75.909 88.2348 76.2312 88.5913 76.4264L89.5519 74.6722ZM89.5228 71.9065C89.4082 71.3231 89.1152 70.8293 88.6341 70.4978C88.1819 70.1863 87.66 70.085 87.1922 70.0678C86.2816 70.0344 85.2056 70.313 84.2506 70.6022C83.2074 70.9181 82.3177 71.2416 81.4703 71.4679C81.0648 71.5762 80.739 71.6412 80.4906 71.6612C80.2185 71.6831 80.1699 71.6392 80.2205 71.6661L79.2827 73.4326C79.7383 73.6744 80.2503 73.6871 80.6514 73.6547C81.0763 73.6205 81.5364 73.5203 81.9863 73.4002C82.8499 73.1696 83.9495 72.7831 84.8302 72.5164C85.7988 72.2231 86.581 72.0467 87.1189 72.0665C87.3752 72.0759 87.4751 72.1281 87.4994 72.1448C87.5075 72.1504 87.5117 72.1545 87.5176 72.1641C87.5249 72.1759 87.5447 72.2123 87.5604 72.2922L89.5228 71.9065ZM79.9309 71.5655C79.4895 71.4851 79.1513 71.2341 78.8869 70.7399C78.6043 70.2117 78.4247 69.4259 78.3975 68.4011C78.3434 66.3588 78.9019 63.682 79.9268 61.0852C80.952 58.4877 82.3982 56.0861 84.028 54.5428C85.656 53.001 87.2896 52.4559 88.8669 53.0543L89.5763 51.1843C86.9886 50.2027 84.5672 51.2777 82.6528 53.0906C80.74 54.9019 79.1563 57.5897 78.0664 60.351C76.9763 63.1129 76.3348 66.0642 76.3982 68.4541C76.4298 69.6454 76.6383 70.7767 77.1235 71.6835C77.6269 72.6243 78.4362 73.3261 79.5723 73.5331L79.9309 71.5655ZM88.2216 52.1193V52.1393H90.2216V52.1193H88.2216ZM85.8538 57.7056C85.5111 57.6669 85.2207 57.7704 85.0212 57.8755C84.8192 57.9818 84.6458 58.1231 84.5031 58.2595C84.2181 58.5321 83.9445 58.8941 83.6929 59.279C83.1837 60.0582 82.6609 61.0933 82.2153 62.1493C81.7691 63.2066 81.3814 64.3296 81.1588 65.2932C81.0481 65.7726 80.9708 66.2441 80.9569 66.6643C80.9446 67.0392 80.9729 67.5639 81.2536 67.995L82.9296 66.9037C83.0003 67.0123 82.9464 67.0173 82.9559 66.7301C82.9638 66.4884 83.0123 66.1556 83.1075 65.7433C83.2968 64.9235 83.6416 63.9133 84.0579 62.9269C84.4748 61.9391 84.9445 61.0199 85.3671 60.3731C85.5815 60.0451 85.7587 59.8261 85.8855 59.7049C85.9487 59.6444 85.9714 59.6354 85.9529 59.6452C85.9368 59.6537 85.8171 59.7142 85.6294 59.693L85.8538 57.7056ZM81.2556 67.998C81.7585 68.7644 82.631 68.887 83.2294 68.8731C83.8709 68.8582 84.5676 68.6852 85.1782 68.4841C85.8018 68.2787 86.4013 68.0218 86.8689 67.7951C87.1033 67.6815 87.3119 67.5719 87.4797 67.4759C87.6153 67.3983 87.8095 67.2825 87.9464 67.1573L86.5968 65.6813C86.6462 65.6362 86.6391 65.6526 86.4863 65.74C86.3656 65.8091 86.1985 65.8975 85.9965 65.9954C85.5913 66.1919 85.0751 66.4124 84.5525 66.5845C84.0168 66.7609 83.5367 66.8654 83.1829 66.8737C82.7859 66.8829 82.8447 66.7743 82.9276 66.9007L81.2556 67.998ZM87.9464 67.1573C88.1247 66.9943 88.2032 66.8096 88.2332 66.7327C88.2707 66.6364 88.2925 66.546 88.3061 66.4786C88.3335 66.3425 88.3475 66.1958 88.3555 66.0605C88.3718 65.7836 88.3694 65.4359 88.3537 65.0564C88.322 64.2915 88.2326 63.3155 88.0925 62.3485C87.9535 61.3889 87.7585 60.3945 87.5042 59.6109C87.3788 59.2247 87.2225 58.8367 87.021 58.5206C86.8499 58.2523 86.4833 57.7767 85.8538 57.7056L85.6294 59.693C85.3099 59.6569 85.2345 59.4389 85.3345 59.5957C85.4039 59.7046 85.4983 59.9093 85.6018 60.2283C85.8053 60.8554 85.9809 61.7222 86.1132 62.6352C86.2443 63.5407 86.3268 64.4484 86.3554 65.1392C86.3699 65.4874 86.3697 65.7605 86.359 65.9424C86.3564 65.9863 86.3534 66.0207 86.3505 66.0466C86.3475 66.0734 86.3452 66.0848 86.3453 66.0843C86.3455 66.0836 86.3469 66.0768 86.35 66.0652C86.3531 66.0542 86.3592 66.0335 86.3698 66.0062C86.3818 65.9755 86.4404 65.8243 86.5968 65.6813L87.9464 67.1573ZM68.4622 80.3652C66.9933 80.8262 65.3255 80.1741 63.651 78.425C61.9998 76.7003 60.5518 74.0993 59.6416 71.2933C58.7298 68.4827 58.396 65.5853 58.8513 63.2796C59.299 61.0121 60.4713 59.4201 62.5581 58.8432L62.0251 56.9155C59.0119 57.7485 57.4392 60.1065 56.8891 62.8922C56.3466 65.6396 56.7621 68.8985 57.7391 71.9104C58.7176 74.9268 60.2977 77.8146 62.2063 79.8081C64.0914 81.7771 66.515 83.0725 69.061 82.2734L68.4622 80.3652ZM62.5578 58.8432C64.4357 58.3246 66.1563 59.0525 67.6742 60.7513C69.2086 62.4685 70.4182 65.0755 71.1142 67.9103C71.8091 70.7406 71.9638 73.6832 71.4912 76.0246C71.0126 78.3959 69.9599 79.8939 68.4614 80.3654L69.0618 82.2732C71.5833 81.4798 72.9131 79.089 73.4517 76.4203C73.9963 73.7217 73.8028 70.473 73.0565 67.4334C72.3113 64.3982 70.9865 61.4564 69.1656 59.4186C67.3281 57.3623 64.8725 56.1291 62.0254 56.9154L62.5578 58.8432ZM62.7023 61.2C61.9177 61.5118 61.5073 62.2223 61.2962 62.8874C61.0807 63.5666 61.0093 64.3815 61.0251 65.2272C61.0568 66.9291 61.4479 68.9987 62.0537 70.9299C62.6565 72.8515 63.504 74.7391 64.5082 76.0308C65.0077 76.6731 65.6036 77.2437 66.2992 77.5542C67.044 77.8867 67.8705 77.9012 68.6578 77.4632L67.6854 75.7155C67.4977 75.8199 67.3377 75.8276 67.1145 75.7279C66.842 75.6063 66.4885 75.3194 66.0872 74.8032C65.2898 73.7777 64.5305 72.1434 63.962 70.3313C63.3966 68.5287 63.052 66.6527 63.0247 65.1899C63.011 64.4532 63.0792 63.881 63.2025 63.4924C63.263 63.3018 63.3272 63.1862 63.376 63.122C63.3993 63.0914 63.4168 63.0755 63.4262 63.068C63.4351 63.061 63.4395 63.0592 63.4409 63.0586L62.7023 61.2ZM68.6599 77.462C69.0274 77.2564 69.2455 76.9347 69.3749 76.6506C69.505 76.3651 69.5775 76.0497 69.6189 75.7438C69.7019 75.1317 69.6817 74.3895 69.5998 73.6046C69.4347 72.0227 68.9966 70.0706 68.4089 68.2105C67.8233 66.3574 67.0665 64.5235 66.2342 63.2052C65.8227 62.5533 65.3492 61.9567 64.8121 61.5619C64.2605 61.1564 63.5072 60.8791 62.7013 61.2004L63.4419 63.0582C63.4423 63.0581 63.4408 63.0587 63.4374 63.0595C63.4341 63.0603 63.4302 63.0609 63.4263 63.0612C63.4176 63.0618 63.4157 63.0604 63.4237 63.0622C63.4433 63.0665 63.5109 63.0876 63.6274 63.1733C63.8719 63.353 64.1869 63.7088 64.543 64.2729C65.246 65.3864 65.9411 67.0388 66.5018 68.8131C67.0603 70.5805 67.4629 72.3972 67.6106 73.8122C67.6851 74.5257 67.6894 75.089 67.637 75.4753C67.6109 75.6685 67.5758 75.7755 67.5549 75.8214C67.5334 75.8687 67.5571 75.7873 67.6833 75.7167L68.6599 77.462Z" fill="#116FAE"/>
<g id="fill-emphasis">
<path d="M51.342 63.4593C52.912 64.0993 55.112 75.5893 55.442 75.3393C56.972 74.1593 58.792 77.0693 59.172 79.4593C59.712 82.9393 56.662 80.3793 56.482 81.2293C56.302 82.0793 58.592 86.7693 58.172 87.2593C57.152 88.4493 52.782 89.8493 51.792 88.8493C51.442 88.4893 51.402 86.2993 50.972 85.3093C50.152 82.3393 44.822 86.2093 43.072 85.4393C36.422 84.7293 42.442 60.8293 51.342 63.4693V63.4593ZM48.222 70.5493C45.292 68.7993 42.842 77.8993 43.822 79.1693C44.792 80.4393 48.812 78.0593 49.152 77.6993C49.492 77.3393 49.342 71.2193 48.222 70.5593V70.5493Z" fill="#116FAE" fill-opacity="0.24"/>
<path d="M93.402 52.1493C94.922 52.8993 96.022 65.8393 96.382 66.0493C96.742 66.2593 98.222 65.0593 98.932 65.5493C99.642 66.0393 100.172 69.1393 99.762 69.7493C99.352 70.3593 97.452 69.4193 97.212 70.2493C96.972 71.0793 98.582 75.0193 98.272 75.5793C97.962 76.1393 93.912 76.9293 93.252 76.5693C92.812 76.3293 93.052 73.9993 92.692 72.9693C92.092 69.9393 85.222 74.3393 83.522 73.4393C76.942 72.2393 84.712 48.8493 93.392 52.1393L93.402 52.1493ZM89.772 58.9893C88.482 58.8493 85.092 66.7693 85.962 68.1093C86.832 69.4493 90.992 67.3693 91.362 67.0393C91.732 66.7093 91.062 59.1293 89.772 58.9893Z" fill="#116FAE" fill-opacity="0.24"/>
<path d="M72.512 84.8693C62.042 87.1293 54.912 61.8993 65.542 58.9593C75.392 56.2393 81.102 83.0193 72.512 84.8693ZM66.812 64.1893C63.602 65.4593 66.552 80.6093 70.612 78.3493C72.632 77.2293 69.902 62.9593 66.812 64.1893Z" fill="#116FAE" fill-opacity="0.24"/>
</g>
</g>
</g>
</svg>
