<svg width="129" height="129" viewBox="0 0 129 129" fill="none" xmlns="http://www.w3.org/2000/svg">
<g id="Pictogram-education">
<g id="Default">
<path id="dash-stroke-default" d="M59.4824 72.5498H59.4834" stroke="#494A4A" stroke-width="0.001"/>
<path id="2px-stroke-default" d="M111.274 57.4696C117.634 54.2996 121.174 52.1396 121.374 51.2596C122.674 45.6396 72.9336 23.0596 64.2736 24.0496C55.4436 25.0596 11.8536 41.6596 8.7036 47.5696C5.9836 52.6696 55.5236 72.5996 63.0436 72.9696C69.9436 73.2996 87.3536 69.1096 102.164 62.1196M95.3636 91.1496C97.0836 89.0496 96.6036 84.8896 96.0536 80.0296C96.0536 80.0296 94.7036 67.4796 95.4036 65.7996M95.3636 91.1396C92.7036 94.3696 75.9836 102.43 65.3136 102.43C54.6436 102.43 33.3736 95.9196 30.1736 90.7996C27.8436 87.0796 28.1336 81.0996 28.3436 75.0596C28.4436 71.5796 28.7236 65.0496 28.4736 61.6496" stroke="#494A4A" stroke-width="2" stroke-linecap="round" stroke-linejoin="round"/>
<path id="1px-stroke-default" d="M105.284 56.1297C112.994 53.0997 119.484 50.2097 119.714 49.4097M8.98374 46.4597C6.31374 50.5297 54.9937 65.9997 62.3837 66.2997C68.2537 66.5297 81.7437 64.9197 95.3937 59.9597M29.3937 88.5497C32.5437 93.5897 54.8737 98.5497 65.3937 98.5497C75.9137 98.5497 93.7837 91.7297 96.3937 88.5497" stroke="#494A4A" stroke-linecap="round" stroke-linejoin="round"/>
<path id="fill-default" d="M67.3935 27.5495C61.8735 33.0695 47.1735 34.5495 30.1735 45.5495C13.1735 56.5495 38.9335 63.9595 36.4835 69.2495C34.4835 73.5795 57.6935 80.8795 67.7235 79.8795C73.7235 88.8795 62.3735 107.82 73.7235 106.69C83.7235 105.69 98.1735 101.52 99.3935 90.5495C100.394 81.5495 99.3935 78.5495 99.3935 67.5495C109.394 61.5495 125.394 57.5495 126.394 49.5495C127.394 41.5495 72.3935 22.5495 67.3935 27.5495Z" fill="#494A4A" fill-opacity="0.08"/>
</g>
<g id="Emphasis">
<path id="2px-stroke-emphasis" d="M125.913 115.93C121.753 110.07 121.023 100.64 121.043 94.3097C121.083 81.5997 105.893 81.5497 106.033 93.6597C106.113 100.2 106.933 110.06 102.423 116.94C104.243 116.18 105.843 115.02 106.803 113.79M70.8831 46.4597C70.8831 47.7299 67.9327 48.7597 64.2931 48.7597C60.6536 48.7597 57.7031 47.7299 57.7031 46.4597C57.7031 45.1894 60.6536 44.1597 64.2931 44.1597C67.9327 44.1597 70.8831 45.1894 70.8831 46.4597ZM113.433 83.5197C111.333 83.5197 111.783 75.7397 113.463 75.7397C115.143 75.7397 115.113 83.5197 113.433 83.5197Z" stroke="#116FAE" stroke-width="2" stroke-linecap="round" stroke-linejoin="round"/>
<path id="1px-stroke-emphasis" d="M126.553 120.25C124.033 117.89 121.473 114.42 120.393 110.77M117.943 127.85C116.583 123.34 115.903 118.46 115.823 112.66M123.963 125.04C122.173 121.87 120.723 118.26 119.533 114.69M112.813 116.38C112.373 118.91 111.563 121.58 110.623 124.13M104.803 123.25C107.503 119.86 109.693 116.66 110.203 110.06M68.9932 48.0696C71.1932 48.0696 110.923 58.9296 112.493 62.2496C114.063 65.5696 113.463 75.7396 113.463 75.7396" stroke="#116FAE" stroke-linecap="round" stroke-linejoin="round"/>
<path id="fill-emphasis" d="M126.313 114.38C120.773 105.24 126.123 85.5396 114.523 85.5396C105.953 85.5396 112.273 106.53 102.923 117.89C102.923 117.89 112.993 124.21 118.533 123.14C124.063 122.07 128.523 118.03 126.313 114.38Z" fill="#116FAE" fill-opacity="0.24"/>
</g>
</g>
</svg>
