<svg width="129" height="129" viewBox="0 0 129 129" fill="none" xmlns="http://www.w3.org/2000/svg">
<g id="Pictogram-air-baloon">
<g id="Default">
<path id="dash-stroke-default" d="M41.9912 55.5H41.9922" stroke="#494A4A" stroke-width="0.001"/>
<path id="2px-stroke-default" d="M78.4936 5L81.4936 3L78.4936 1V8M66.4336 95.99C63.4336 91.99 38.4336 59.99 38.4336 38.99C38.4336 17.99 63.4336 7.99 78.4336 7.99M78.4336 7.99C93.4336 7.99 118.434 17.99 118.434 38.99C118.434 59.99 93.4336 91.99 90.4336 95.99M78.4336 7.99C60.4336 7.99 48.4336 24.99 48.4336 37.99C48.4336 49.99 55.4336 70.99 71.4336 95.99M78.4336 7.99C67.4336 7.99 52.4336 38.99 76.4336 95.99M78.4336 7.99C96.4336 7.99 108.434 24.99 108.434 37.99C108.434 49.99 101.434 70.99 85.4336 95.99M78.4336 7.99C89.4336 7.99 104.434 38.99 80.4336 95.99M87.4336 100.99H69.4336C68.0636 100.99 65.5536 95.99 66.9336 95.99H89.9336C91.3036 95.99 88.8036 100.99 87.4336 100.99Z" stroke="#494A4A" stroke-width="2" stroke-linecap="round" stroke-linejoin="round"/>
<path id="1px-stroke-default" d="M0.994141 115.46C12.1341 109.8 14.4041 100.81 16.7941 100.84C18.8141 100.87 21.2041 104.02 23.2541 104.06C25.5041 104.09 33.9941 92.8799 35.9741 92.8799C38.7241 92.8799 44.7541 106.31 48.6741 106.41C51.2741 106.48 58.5741 116.47 64.1441 117.88M77.2441 127.5C84.3741 124.88 86.9441 120.56 92.0141 116.89C93.0941 116.11 97.7241 116.21 98.6741 115.49C102.704 112.46 105.774 109.48 106.944 109.48C109.094 109.48 116.414 117.58 127.924 122.82M15.4341 58.9899C19.4541 55.6099 21.3241 54.3499 25.8841 57.8299C25.3941 53.4099 27.7541 52.1599 34.2341 52.4599M53.4341 73.8099C48.8741 71.2399 45.7941 66.4599 41.9641 74.8099C41.0241 66.1099 36.8641 69.4999 31.8641 71.0599M35.9941 92.9899C40.3741 98.9399 28.0641 104.33 29.4341 107.99C30.4341 107.99 34.4341 107.99 34.4341 109.99C34.4341 111.99 23.4341 122.99 23.4341 126.99M98.6841 115.49C99.3141 116.23 103.984 117.77 104.384 118C104.784 118.23 103.454 122.04 102.464 122.9C101.474 123.76 103.634 125.49 104.064 127.37" stroke="#494A4A" stroke-linecap="round" stroke-linejoin="round"/>
<g id="fill-default">
<path d="M103.224 78.65C109.434 80.18 120.434 80.3 124.504 79.33C129.754 78.08 128.624 75.1 123.594 73.8C121.984 65.67 114.084 66.92 112.154 72.32C109.264 69.96 107.034 71.46 106.154 73.6C105.604 74.81 104.024 77.49 103.224 78.65Z" fill="#494A4A" fill-opacity="0.08"/>
<path d="M39.1738 32.43C31.7938 32.43 23.2438 32.17 18.0738 31.86C-5.20621 30.46 -2.97621 27.77 14.0638 27.26C11.1938 19.86 19.3538 14.82 24.9738 18.27C28.8038 3.30002 47.3838 -0.319976 53.4338 14.82C47.8638 18.76 40.9138 24.43 39.1638 32.43H39.1738Z" fill="#494A4A" fill-opacity="0.08"/>
<path d="M68.0838 9.30002C56.1838 10.91 38.7638 22.53 38.4338 38.56C38.1038 54.59 51.8538 76.61 66.4338 95.99C67.7238 95.99 69.4338 95.99 71.4338 95.99C54.5138 69.7 49.1938 51.24 48.4338 37.99C47.9838 30.2 53.1038 17.08 68.0838 9.30002Z" fill="#494A4A" fill-opacity="0.08"/>
<path d="M77.8738 8.02002C65.0738 28.69 71.0238 69.09 76.4438 95.99C77.7338 95.99 79.1038 95.93 81.1038 95.93C95.6838 73.49 98.0438 51.58 97.2838 38.33C96.8338 30.54 90.3438 8.02002 77.8838 8.02002H77.8738Z" fill="#494A4A" fill-opacity="0.08"/>
<path d="M91.9438 9.30002C103.844 10.91 124.674 22.15 125.004 38.18C125.334 54.21 107.464 81.53 93.4438 96.36C90.7538 98.94 87.8638 95.34 85.8638 95.34C102.784 69.05 110.834 51.25 111.594 38C112.044 30.21 106.924 17.09 91.9438 9.31002V9.30002Z" fill="#494A4A" fill-opacity="0.08"/>
<path d="M1.69379 117.91C12.8338 112.25 17.5938 102.7 19.9738 102.73C21.9938 102.76 22.9838 105.81 25.0438 105.84C27.2938 105.87 35.8738 96.93 37.8538 96.93C39.7138 96.93 44.8438 101.17 48.6138 104.01C50.4038 105.36 53.7638 104.77 54.4338 104.87C55.9138 105.09 70.3038 117.74 70.4338 120.45C68.0438 129.13 40.2838 120.25 37.9438 120.65C34.9038 121.16 30.5938 126.27 29.2238 126.81C27.8538 127.35 20.1038 128.43 18.4338 127.6C16.7638 126.76 5.05379 123.85 4.05379 123.05C3.23379 122.39 1.69379 117.92 1.69379 117.92V117.91Z" fill="#494A4A" fill-opacity="0.08"/>
<path d="M81.8238 127.99C88.1638 123.81 91.3338 122.06 96.4138 118.39C97.4938 117.61 102.124 117.71 103.074 116.99C107.104 113.96 110.174 110.98 111.344 110.98C113.494 110.98 115.254 116.33 126.824 121.43C133.874 124.54 115.134 128.76 104.004 127.92C99.1838 124.65 88.2438 126.98 81.8238 128V127.99Z" fill="#494A4A" fill-opacity="0.08"/>
</g>
</g>
<g id="Emphasis">
<path id="2px-stroke-emphasis" d="M70.8335 109.24C69.8235 110.24 70.8335 118.24 72.8635 119.24C74.8935 120.24 81.9835 120.24 84.0135 119.24C86.0435 118.24 87.0535 110.24 86.0435 109.24C85.0335 108.24 71.8535 108.24 70.8435 109.24H70.8335Z" stroke="#116FAE" stroke-width="2" stroke-linecap="round" stroke-linejoin="round"/>
<path id="1px-stroke-emphasis" d="M69.4336 100.99L71.4336 108.99M87.4336 100.99L85.4336 108.99" stroke="#116FAE" stroke-linecap="round" stroke-linejoin="round"/>
<path id="fill-emphasis" d="M74.8941 111.25C73.8841 112.25 74.8941 120.25 76.9241 121.25C78.9541 122.25 86.0441 122.25 88.0741 121.25C90.1041 120.25 91.1141 112.25 90.1041 111.25C89.0941 110.25 75.9141 110.25 74.9041 111.25H74.8941Z" fill="#116FAE" fill-opacity="0.24"/>
</g>
</g>
</svg>
