<svg width="129" height="129" viewBox="0 0 129 129" fill="none" xmlns="http://www.w3.org/2000/svg">
<g id="Pictogram-responsible">
<g id="Default">
<path id="dash-stroke-default" d="M64.4932 92.7495H64.4942" stroke="#494A4A" stroke-width="0.001"/>
<path id="2px-stroke-default" d="M42.2145 87.7993C39.0945 83.0993 35.9045 77.5093 32.5245 75.3393C27.8945 72.3793 21.4545 74.9393 24.7045 79.4393C30.4045 87.3393 34.6545 99.7893 37.9945 103.139C42.0545 107.199 45.8745 113.809 57.8145 114.649C65.6245 115.199 83.4045 111.999 92.5945 121.749C100.114 129.719 120.065 119.399 115.935 111.039C112.295 103.669 106.035 93.3793 91.2245 89.5093C78.5445 86.1893 71.0245 93.0493 62.9745 92.2893C57.7545 91.7993 52.7645 87.4893 49.9845 85.9093C43.9845 82.4893 38.8745 89.8093 43.3045 93.8093C53.7145 103.229 56.9745 105.889 73.4545 107.179M24.1745 75.8493C17.6745 72.0193 13.1445 77.9793 16.6945 80.9293C25.5245 88.2593 26.7445 93.4993 39.0945 104.299" stroke="#494A4A" stroke-width="2" stroke-linecap="round" stroke-linejoin="round"/>
<path id="1px-stroke-default" d="M86.8241 93.9795C91.0941 93.9795 95.4241 95.9695 98.2141 98.6495M28.4441 103.529C25.6141 101.249 23.5941 99.0895 21.3841 95.6395M22.6441 105.179C20.9041 103.539 19.3841 101.729 18.4941 99.5795" stroke="#494A4A" stroke-linecap="round" stroke-linejoin="round"/>
<g id="fill-default">
<path d="M115.054 113.419C110.824 108.829 105.594 96.1094 91.1245 94.6394C78.7345 93.3794 72.3945 98.8395 64.6745 98.9295C59.6645 98.9894 54.7145 95.8094 51.6745 95.6795C48.0745 95.5294 47.0445 95.1995 44.4945 97.5095C41.0445 94.6395 37.4145 91.1795 33.9745 89.9995C30.7645 88.8995 29.4645 90.8895 29.4645 90.8895C13.4845 83.9894 33.7545 117.269 61.1745 116.869C68.6545 116.759 84.9645 117.039 94.7245 122.799C102.704 127.509 119.854 118.639 115.054 113.429V113.419Z" fill="#494A4A" fill-opacity="0.08"/>
<path d="M37.6945 53.9795L38.7145 57.0295C38.7945 57.2795 38.9945 57.4795 39.2445 57.5595L42.2945 58.5795C43.0545 58.8295 43.0545 59.9095 42.2945 60.1695L39.2445 61.1895C38.9945 61.2695 38.7945 61.4695 38.7145 61.7195L37.6945 64.7694C37.4445 65.5294 36.3645 65.5294 36.1045 64.7694L35.0845 61.7195C35.0045 61.4695 34.8045 61.2695 34.5545 61.1895L31.5045 60.1695C30.7445 59.9195 30.7445 58.8395 31.5045 58.5795L34.5545 57.5595C34.8045 57.4795 35.0045 57.2795 35.0845 57.0295L36.1045 53.9795C36.3545 53.2195 37.4345 53.2195 37.6945 53.9795Z" fill="#494A4A" fill-opacity="0.08"/>
<path d="M25.4145 31.8395L27.2045 37.6395C27.3545 38.1095 27.6945 38.4895 28.1345 38.6495L33.5145 40.5795C34.8645 41.0595 34.8645 43.1095 33.5145 43.5995L28.1345 45.5295C27.6945 45.6895 27.3445 46.0595 27.2045 46.5395L25.4145 52.3395C24.9645 53.7895 23.0645 53.7895 22.6145 52.3395L20.8245 46.5395C20.6745 46.0695 20.3345 45.6895 19.8945 45.5295L14.5145 43.5995C13.1645 43.1195 13.1645 41.0695 14.5145 40.5795L19.8945 38.6495C20.3345 38.4895 20.6845 38.1195 20.8245 37.6395L22.6145 31.8395C23.0645 30.3895 24.9645 30.3895 25.4145 31.8395Z" fill="#494A4A" fill-opacity="0.08"/>
</g>
</g>
<g id="Emphasis">
<path id="2px-stroke-emphasis" d="M78.2241 22.1893C63.5641 28.2393 51.5241 51.0693 56.5941 70.6893C57.7741 75.2593 64.3541 76.2293 62.8541 74.1793C54.5241 62.7693 59.5241 37.7893 68.2741 29.2193M58.9341 62.7693C64.7541 66.7693 79.4841 66.4793 85.5341 55.6393C93.2341 41.8293 78.4241 31.1293 93.2141 19.2693C98.1541 15.3093 97.3941 12.7593 91.0641 12.7593C49.3541 12.7593 37.5841 43.7793 54.9241 59.9093" stroke="#116FAE" stroke-width="2" stroke-linecap="round" stroke-linejoin="round"/>
<path id="1px-stroke-emphasis" d="M83.1838 48.1694C83.1438 50.1894 82.7738 53.3294 80.3438 55.5894" stroke="#116FAE" stroke-linecap="round" stroke-linejoin="round"/>
<path id="fill-emphasis" d="M91.9243 23.0995C57.2743 21.5195 42.5543 46.0995 56.3343 60.3795L56.2143 66.1395C56.0143 69.0895 59.5043 73.8295 61.3943 72.8595C62.9443 72.0695 63.2343 70.6395 63.0043 69.2095C62.7743 67.7195 68.7343 67.4395 70.1943 67.6395C75.1443 68.3195 81.5943 65.8095 85.6743 59.1195C92.6243 47.7195 80.6543 38.0995 93.5343 28.6195C97.4243 25.7595 96.7043 23.3195 91.9043 23.0995H91.9243Z" fill="#116FAE" fill-opacity="0.24"/>
</g>
</g>
</svg>
