<svg width="129" height="129" viewBox="0 0 129 129" fill="none" xmlns="http://www.w3.org/2000/svg">
<g id="Pictogram-job-search">
<g id="Default">
<path id="dash-stroke-default" d="M64.9922 8.14941H64.9932" stroke="#494A4A" stroke-width="0.001"/>
<path id="2px-stroke-default" d="M108.494 79.6494C113.054 62.2794 117.334 39.8894 117.544 33.2894C117.694 28.6694 115.414 23.9694 110.474 22.1294C106.014 20.4694 97.6044 18.5494 94.9944 17.9194M92.5544 30.2894C90.4844 22.7694 84.0844 24.2894 79.6844 24.2494C76.2444 24.2194 74.4544 22.5694 73.2644 19.0994C72.2444 16.1094 71.9144 8.24938 63.5044 8.29938M68.3844 122.189C55.9044 123.849 43.1044 125.279 36.4444 125.919C30.1244 126.519 26.5244 123.579 25.1744 116.279C22.6744 102.739 13.7144 39.1494 13.1544 27.2294C12.7744 19.1894 14.0444 16.0894 20.0144 14.4294C32.6344 10.9094 54.1244 8.83938 61.4244 8.36938C70.2244 7.79938 74.9844 9.98938 80.3044 14.2094C86.8044 19.3694 91.6044 24.4394 94.0544 35.6294C95.2144 40.9194 95.9644 58.7294 97.4944 69.6494" stroke="#494A4A" stroke-width="2" stroke-linecap="round" stroke-linejoin="round"/>
<path id="1px-stroke-default" d="M68.2741 33.5318C68.0048 33.5927 67.8359 33.8604 67.8968 34.1298C67.9578 34.3991 68.2255 34.568 68.4948 34.5071L68.2741 33.5318ZM75.7289 33.4923C76.0011 33.4457 76.1839 33.1872 76.1373 32.915C76.0907 32.6429 75.8323 32.46 75.5601 32.5066L75.7289 33.4923ZM69.6441 43.3118C69.3748 43.3727 69.2059 43.6405 69.2668 43.9098C69.3278 44.1791 69.5955 44.3481 69.8648 44.2871L69.6441 43.3118ZM81.6489 42.6323C81.9211 42.5857 82.1039 42.3272 82.0573 42.055C82.0107 41.7829 81.7523 41.6 81.4801 41.6466L81.6489 42.6323ZM32.8746 78.4017C32.6052 78.4623 32.436 78.7299 32.4967 78.9993C32.5574 79.2687 32.825 79.4379 33.0944 79.3772L32.8746 78.4017ZM54.2227 76.2948C54.4962 76.2571 54.6875 76.0048 54.6498 75.7313C54.6122 75.4577 54.3599 75.2665 54.0863 75.3041L54.2227 76.2948ZM34.2547 88.1816C33.9853 88.2422 33.8161 88.5098 33.8767 88.7792C33.9373 89.0486 34.2048 89.2179 34.4743 89.1572L34.2547 88.1816ZM52.543 86.4947C52.8165 86.4569 53.0076 86.2045 52.9698 85.9309C52.932 85.6574 52.6795 85.4663 52.406 85.5042L52.543 86.4947ZM35.6144 97.9117C35.345 97.9725 35.176 98.2402 35.2368 98.5096C35.2976 98.7789 35.5653 98.948 35.8346 98.8872L35.6144 97.9117ZM53.5725 96.2948C53.8461 96.2572 54.0374 96.005 53.9998 95.7314C53.9623 95.4578 53.71 95.2665 53.4365 95.3041L53.5725 96.2948ZM60.6845 51.5994L60.1859 51.6365C60.1947 51.756 60.2463 51.8683 60.331 51.9531L60.6845 51.5994ZM57.2345 29.2094L56.7486 29.3274L56.7487 29.3279L57.2345 29.2094ZM50.8145 24.8294L50.8054 24.3295L50.8054 24.3295L50.8145 24.8294ZM32.8045 27.6894L32.7009 27.2003L32.7001 27.2004L32.8045 27.6894ZM26.9445 34.1994L26.4445 34.2022L26.4445 34.203L26.9445 34.1994ZM29.7645 54.9394L30.2577 54.857L30.2575 54.8562L29.7645 54.9394ZM34.5645 60.3294L34.6044 60.8279L34.6076 60.8276L34.5645 60.3294ZM55.9545 57.1894L56.0641 57.6773L56.0649 57.6771L55.9545 57.1894ZM60.6945 51.6094L61.1931 51.5718C61.1841 51.4525 61.1326 51.3404 61.048 51.2558L60.6945 51.6094ZM46.6496 46.5499C46.6113 46.2765 46.3584 46.0859 46.085 46.1243C45.8115 46.1627 45.621 46.4155 45.6593 46.6889L46.6496 46.5499ZM55.2645 52.1694L55.5265 51.7436L55.5254 51.7429L55.2645 52.1694ZM57.1296 56.2209C57.1691 56.4942 57.4227 56.6838 57.696 56.6443C57.9693 56.6048 58.1588 56.3513 58.1194 56.078L57.1296 56.2209ZM33.5692 59.5282C33.6072 59.8017 33.8598 59.9927 34.1333 59.9547C34.4068 59.9167 34.5977 59.6642 34.5597 59.3907L33.5692 59.5282ZM35.2345 54.9894L35.6025 55.3279L35.6038 55.3265L35.2345 54.9894ZM42.9496 47.0696C42.911 46.7961 42.6581 46.6058 42.3846 46.6443C42.1112 46.6829 41.9208 46.9359 41.9594 47.2093L42.9496 47.0696ZM44.3845 47.2994L44.3158 46.8042L43.8845 46.864V47.2994H44.3845ZM49.0245 37.5294L48.5293 37.5988L48.5294 37.5991L49.0245 37.5294ZM37.2345 39.1894L36.7393 39.2586L36.7394 39.2591L37.2345 39.1894ZM44.3845 47.3094L44.4535 47.8047L44.8845 47.7446V47.3094H44.3845ZM68.4948 34.5071C69.8374 34.2033 71.2655 34.0132 72.5508 33.8675C73.8176 33.7239 74.9804 33.6204 75.7289 33.4923L75.5601 32.5066C74.8486 32.6284 73.7514 32.725 72.4382 32.8739C71.1435 33.0206 69.6716 33.2156 68.2741 33.5318L68.4948 34.5071ZM69.8648 44.2871C71.2062 43.9836 73.7669 43.634 76.2021 43.3268C78.6116 43.0228 80.9045 42.7597 81.6489 42.6323L81.4801 41.6466C80.7645 41.7691 78.5223 42.0261 76.0769 42.3346C73.6571 42.6399 71.0428 42.9953 69.6441 43.3118L69.8648 44.2871ZM33.0944 79.3772C34.887 78.9734 45.7722 77.4576 54.2227 76.2948L54.0863 75.3041C45.6768 76.4613 34.7219 77.9855 32.8746 78.4017L33.0944 79.3772ZM34.4743 89.1572C36.0473 88.8033 44.7142 87.5773 52.543 86.4947L52.406 85.5042C44.6148 86.5815 35.8817 87.8156 34.2547 88.1816L34.4743 89.1572ZM35.8346 98.8872C37.9769 98.4034 47.8699 97.0779 53.5725 96.2948L53.4365 95.3041C47.7791 96.081 37.8121 97.4155 35.6144 97.9117L35.8346 98.8872ZM61.1831 51.5624C60.7917 46.2937 59.6086 36.835 57.7203 29.091L56.7487 29.3279C58.6204 37.0038 59.7973 46.4052 60.1859 51.6365L61.1831 51.5624ZM57.7204 29.0915C56.984 26.0581 54.2988 24.2662 50.8054 24.3295L50.8236 25.3294C53.9502 25.2727 56.145 26.8408 56.7486 29.3274L57.7204 29.0915ZM50.8054 24.3295C44.6849 24.4406 38.9545 25.8759 32.7009 27.2003L32.9081 28.1786C39.2145 26.843 44.8241 25.4383 50.8236 25.3294L50.8054 24.3295ZM32.7001 27.2004C30.6271 27.6428 29.044 28.4081 27.984 29.5863C26.9163 30.7731 26.434 32.3178 26.4445 34.2022L27.4445 34.1966C27.435 32.4911 27.8677 31.2107 28.7275 30.2551C29.595 29.2908 30.9519 28.596 32.9088 28.1784L32.7001 27.2004ZM26.4445 34.203C26.4598 36.3731 26.903 40.0068 27.4698 43.8622C28.0382 47.7284 28.7367 51.8537 29.2715 55.0226L30.2575 54.8562C29.7223 51.6851 29.0258 47.5705 28.4592 43.7167C27.891 39.8521 27.4592 36.2857 27.4445 34.1959L26.4445 34.203ZM29.2713 55.0218C30.0027 59.3994 32.7818 60.9737 34.6044 60.8278L34.5246 59.831C33.3472 59.9252 30.9263 58.8595 30.2577 54.857L29.2713 55.0218ZM34.6076 60.8276C42.4809 60.1464 48.3348 59.4139 56.0641 57.6773L55.8449 56.7016C48.1742 58.425 42.3681 59.1525 34.5214 59.8313L34.6076 60.8276ZM56.0649 57.6771C58.8485 57.0469 61.449 54.9653 61.1931 51.5718L60.1959 51.647C60.4 54.3536 58.3605 56.132 55.8441 56.7018L56.0649 57.6771ZM61.048 51.2558L61.038 51.2458L60.331 51.9531L60.341 51.9631L61.048 51.2558ZM45.6593 46.6889C45.8717 48.2015 46.3503 49.2455 47.0606 49.9643C47.7685 50.6807 48.6525 51.0185 49.56 51.2245C50.0134 51.3275 50.4845 51.4 50.951 51.4672C51.4231 51.5353 51.888 51.5978 52.3563 51.6819C53.289 51.8494 54.1853 52.0954 55.0036 52.596L55.5254 51.7429C54.5537 51.1485 53.5175 50.8745 52.5331 50.6976C52.0427 50.6095 51.5528 50.5437 51.0937 50.4775C50.629 50.4105 50.1925 50.3427 49.7815 50.2493C48.9603 50.0629 48.2886 49.7844 47.7719 49.2614C47.2575 48.7409 46.8423 47.9224 46.6496 46.5499L45.6593 46.6889ZM55.0024 52.5953C56.1473 53.2998 56.8855 54.5305 57.1296 56.2209L58.1194 56.078C57.8435 54.1684 56.9817 52.6391 55.5265 51.7436L55.0024 52.5953ZM34.5597 59.3907C34.325 57.7008 34.6969 56.3127 35.6025 55.3279L34.8665 54.651C33.7121 55.9062 33.304 57.6181 33.5692 59.5282L34.5597 59.3907ZM35.6038 55.3265C36.2508 54.6178 37.0433 54.1313 37.8926 53.7102C38.3189 53.4988 38.7481 53.3091 39.1826 53.1122C39.612 52.9176 40.0443 52.7169 40.4512 52.4921C41.2658 52.0422 42.0217 51.4734 42.5046 50.5918C42.9893 49.7068 43.1621 48.5752 42.9496 47.0696L41.9594 47.2093C42.1519 48.5736 41.9784 49.4708 41.6275 50.1114C41.2748 50.7554 40.7057 51.2091 39.9678 51.6168C39.5984 51.8207 39.1977 52.0075 38.7698 52.2014C38.347 52.393 37.8948 52.5929 37.4483 52.8143C36.5519 53.2588 35.6332 53.8111 34.8652 54.6523L35.6038 55.3265ZM44.4532 47.7947C47.6608 47.3495 50.3681 43.4909 49.5196 37.4598L48.5294 37.5991C49.3409 43.368 46.7282 46.4694 44.3158 46.8042L44.4532 47.7947ZM49.5197 37.4601C49.194 35.1336 48.3606 33.4089 47.0595 32.3394C45.7518 31.2645 44.0495 30.9154 42.1253 31.1842L42.2637 32.1746C43.9895 31.9335 45.3872 32.2593 46.4245 33.1119C47.4684 33.97 48.225 35.4253 48.5293 37.5988L49.5197 37.4601ZM42.1253 31.1842C40.2009 31.4531 38.66 32.2562 37.698 33.6505C36.741 35.0374 36.4137 36.9275 36.7393 39.2586L37.7297 39.1203C37.4253 36.9414 37.753 35.3314 38.521 34.2184C39.284 33.1126 40.5381 32.4157 42.2637 32.1746L42.1253 31.1842ZM36.7394 39.2591C37.5879 45.291 41.2577 48.2498 44.4535 47.8047L44.3155 46.8142C41.9113 47.1491 38.5411 44.8879 37.7296 39.1198L36.7394 39.2591ZM44.8845 47.3094V47.2994H43.8845V47.3094H44.8845Z" fill="#494A4A"/>
<path id="fill-default" d="M106.504 73.6493C112.214 40.4093 112.844 37.7093 112.834 34.9193C112.814 30.3993 110.674 26.0493 106.324 24.7993C103.034 23.8593 101.864 23.4793 97.9244 22.8093C95.2044 22.3393 93.5344 24.5193 93.4744 25.9193C93.3644 28.5693 96.6144 53.6793 97.5044 69.6593C97.0644 74.1493 105.354 80.4093 106.514 73.6593L106.504 73.6493Z" fill="#494A4A" fill-opacity="0.08"/>
</g>
<g id="Emphasis">
<path id="2px-stroke-emphasis" d="M102.716 108.393C102.248 108.099 101.631 108.24 101.337 108.708C101.043 109.175 101.184 109.792 101.652 110.086L102.716 108.393ZM106.442 113.096C106.909 113.39 107.527 113.249 107.82 112.782C108.114 112.314 107.973 111.697 107.506 111.403L106.442 113.096ZM105.904 115.58L105.077 116.142L105.077 116.143L105.904 115.58ZM117.964 126.8L118.544 125.985L118.544 125.985L117.964 126.8ZM123.024 127.08L123.528 127.943L123.53 127.942L123.024 127.08ZM127.314 120.67L126.333 120.472L126.333 120.476L127.314 120.67ZM125.494 116.65L124.847 117.412L124.848 117.413L125.494 116.65ZM111.634 109.47L111.899 108.505L111.899 108.505L111.634 109.47ZM103.55 91.6613C106.246 103.509 98.8277 115.298 86.9803 117.994L87.4241 119.945C100.349 117.004 108.442 104.142 105.501 91.2175L103.55 91.6613ZM86.9803 117.994C75.133 120.69 63.3432 113.272 60.6472 101.424L58.6971 101.868C61.6382 114.793 74.4997 122.886 87.4241 119.945L86.9803 117.994ZM60.6472 101.424C57.9512 89.577 65.3698 77.7873 77.2172 75.0913L76.7735 73.1411C63.849 76.0822 55.756 88.9438 58.6971 101.868L60.6472 101.424ZM77.2172 75.0913C89.0646 72.3953 100.854 79.8139 103.55 91.6613L105.501 91.2175C102.559 78.2931 89.6979 70.2 76.7735 73.1411L77.2172 75.0913ZM101.652 110.086L106.442 113.096L107.506 111.403L102.716 108.393L101.652 110.086ZM105.077 116.143C107.946 120.353 113.978 125.19 117.384 127.614L118.544 125.985C115.15 123.569 109.381 118.907 106.73 115.016L105.077 116.143ZM117.383 127.614C118.279 128.252 119.381 128.578 120.447 128.632C121.51 128.686 122.619 128.474 123.528 127.943L122.519 126.216C122.008 126.515 121.302 126.673 120.548 126.635C119.797 126.596 119.079 126.367 118.544 125.985L117.383 127.614ZM123.53 127.942C126.205 126.373 127.764 123.55 128.295 120.863L126.333 120.476C125.884 122.749 124.583 125.006 122.518 126.217L123.53 127.942ZM128.294 120.867C128.509 119.796 128.455 118.88 128.021 118.016C127.616 117.208 126.925 116.55 126.14 115.886L124.848 117.413C125.623 118.069 126.027 118.501 126.234 118.913C126.413 119.269 126.488 119.703 126.333 120.472L128.294 120.867ZM126.14 115.887C124.417 114.426 121.866 112.863 119.275 111.536C116.681 110.207 113.969 109.075 111.899 108.505L111.368 110.434C113.259 110.954 115.837 112.022 118.363 113.316C120.891 114.611 123.29 116.093 124.847 117.412L126.14 115.887ZM111.899 108.505C110.947 108.244 109.947 108.666 109.191 109.129C108.378 109.627 107.566 110.346 106.876 111.107C106.188 111.868 105.576 112.721 105.195 113.517C105.006 113.913 104.853 114.337 104.797 114.755C104.741 115.166 104.766 115.685 105.077 116.142L106.73 115.017C106.802 115.122 106.759 115.168 106.779 115.022C106.797 114.884 106.861 114.669 106.999 114.38C107.273 113.807 107.758 113.113 108.359 112.449C108.958 111.787 109.627 111.207 110.236 110.834C110.902 110.426 111.266 110.406 111.369 110.434L111.899 108.505Z" fill="#116FAE"/>
<path id="1px-stroke-emphasis" d="M118.714 117.78C119.914 118.41 122.104 119.32 122.354 120.43M68.5039 90.5596C66.1439 93.0196 65.5539 98.6496 67.6339 102.38" stroke="#116FAE" stroke-linecap="round" stroke-linejoin="round"/>
<path id="fill-emphasis" d="M108.844 91.5996C109.604 94.9296 109.134 104.87 104.574 110.26C105.354 110.83 105.844 110.92 107.714 111.2C111.274 111.75 117.544 107.81 125.714 112.92C127.564 114.08 131.494 127.86 123.274 127.63C120.354 127.55 109.174 114.44 107.774 115.25C107.224 115.57 103.834 113.25 102.184 114.51C95.7439 119.47 93.3639 119.85 91.7639 120.21C79.3739 123.03 66.9439 114.78 63.9839 101.8C61.0239 88.8196 68.6739 75.9996 81.0639 73.1796C93.4539 70.3596 105.884 78.6096 108.844 91.5896V91.5996Z" fill="#116FAE" fill-opacity="0.24"/>
</g>
</g>
</svg>
