<svg width="129" height="128" viewBox="0 0 129 128" fill="none" xmlns="http://www.w3.org/2000/svg">
<g id="Pictogram-binary-code">
<g id="Default">
<path id="dash-stroke-default" d="M113.919 70.3899C145.199 20.7799 96.7191 -5.96008 70.9091 15.8199C54.7891 29.4199 46.2391 45.6299 38.5791 45.0699" stroke="#494A4A" stroke-linecap="round" stroke-linejoin="round" stroke-dasharray="5 5"/>
<path id="2px-stroke-default" d="M49.1894 83.4599C48.6894 87.8399 49.5094 98.4499 49.1894 101.62M84.6594 83.4599C84.1594 87.8399 84.9794 98.4499 84.6594 101.62M95.5494 83.4599C95.0494 87.8399 95.8694 98.4499 95.5494 101.62M27.9094 53.6499C27.4094 58.0299 28.2294 68.6399 27.9094 71.8099M40.3294 53.6499C39.8294 58.0299 40.6494 68.6399 40.3294 71.8099M73.8894 53.6499C73.3894 58.0299 74.2094 68.6399 73.8894 71.8099M13.7894 48.8999C14.2094 61.5299 13.1594 87.0299 13.3494 94.5099C13.8094 112.98 22.7694 118.62 29.3794 119.31C35.9894 120 91.8894 119.31 91.8894 119.31C91.8894 119.31 100.979 119.31 106.239 113.51C109.559 109.84 111.279 104.17 111.279 95.0199C111.279 65.4299 111.479 52.5299 111.129 35.5099C110.899 24.1899 104.449 20.1199 95.9594 20.1199L35.8994 20.0999M37.5794 91.9199C37.5794 97.3499 36.8594 101.25 31.8994 101.25C26.9394 101.25 26.2194 98.7999 26.2194 93.3699C26.2194 87.9399 25.9294 83.0899 30.8794 83.0899C37.0394 83.0899 37.5794 86.4899 37.5794 91.9199ZM62.6894 62.4799C62.6894 67.9099 61.9694 71.8099 57.0094 71.8099C52.0494 71.8099 51.3294 69.3599 51.3294 63.9299C51.3294 58.4999 51.0394 53.6499 55.9894 53.6499C62.1494 53.6499 62.6894 57.0499 62.6894 62.4799ZM97.1494 62.4799C97.1494 67.9099 96.4294 71.8099 91.4694 71.8099C86.5094 71.8099 85.7894 69.3599 85.7894 63.9299C85.7894 58.4999 85.4994 53.6499 90.4494 53.6499C96.6094 53.6499 97.1494 57.0499 97.1494 62.4799ZM73.3094 91.9199C73.3094 97.3499 72.5894 101.25 67.6294 101.25C62.6694 101.25 61.9494 98.7999 61.9494 93.3699C61.9494 87.9399 61.6594 83.0899 66.6094 83.0899C72.7694 83.0899 73.3094 86.4899 73.3094 91.9199Z" stroke="#494A4A" stroke-width="2" stroke-linecap="round" stroke-linejoin="round"/>
<path id="1px-stroke-default" d="M40.1592 35.5399C64.6592 36.1999 95.6392 35.9699 109.099 34.9499M84.2592 27.8199C83.3392 29.3399 86.0192 30.0699 86.4492 28.7299C86.9192 27.2599 85.1892 26.2999 84.2592 27.8199ZM91.5492 27.8199C90.6292 29.3399 93.3092 30.0699 93.7392 28.7299C94.2092 27.2599 92.4792 26.2999 91.5492 27.8199ZM98.9292 27.8199C98.0092 29.3399 100.689 30.0699 101.119 28.7299C101.589 27.2599 99.8592 26.2999 98.9292 27.8199Z" stroke="#494A4A" stroke-linecap="round" stroke-linejoin="round"/>
<path id="fill-default" d="M42.159 25.52C43.709 27.97 43.609 33.31 42.499 36.22C41.059 40.01 93.809 38.33 111.639 40.11C113.889 40.33 115.689 38.15 115.899 35.9C116.329 31.24 116.209 24.82 110.429 23.45C95.989 20.04 71.479 21.88 65.589 22.41C46.499 24.12 38.219 19.31 42.149 25.52H42.159Z" fill="#494A4A" fill-opacity="0.08"/>
</g>
<g id="Emphasis">
<path id="2px-stroke-emphasis" d="M27.6189 44.8201C25.3489 42.2301 23.7689 40.2801 21.9389 37.5201C21.2089 36.4201 20.0589 36.3701 19.2189 37.3801C18.3789 38.3901 17.7689 40.0401 17.1889 41.3401C16.2989 43.3301 14.3289 44.5001 12.6089 40.6901C10.7789 36.6201 4.29887 18.3401 8.23887 15.1001C11.7989 12.1701 28.3689 22.1101 32.0389 24.7501C35.0689 26.9301 33.7089 29.0001 31.6289 29.5601C30.1089 29.9701 29.1089 30.1001 27.4289 30.7601C26.3289 31.1901 26.2689 32.5801 27.0089 33.3901C29.1389 35.7201 30.9589 37.8901 33.0289 40.4801C34.0389 41.7401 28.7989 46.1701 27.6289 44.8301L27.6189 44.8201Z" stroke="#116FAE" stroke-width="2" stroke-miterlimit="10"/>
<path id="1px-stroke-emphasis" d="M10.8593 20.0701C10.6993 20.7101 11.3293 25.6001 11.8793 27.3601" stroke="#116FAE" stroke-linecap="round" stroke-linejoin="round"/>
<path id="fill-emphasis" d="M20.3989 14.5601C20.3989 14.5601 14.6789 12.5201 14.7589 18.3301C14.8389 24.1301 12.7989 33.4501 14.7589 36.1501C16.7189 38.8501 17.5289 34.7501 20.8889 36.7101C24.2489 38.6801 26.1289 49.3601 30.4589 47.3701C34.7889 45.3801 40.8789 44.4001 35.9089 37.9401C30.9489 31.4801 36.2989 30.5001 36.8089 27.0701C37.3189 23.6401 20.3989 14.5601 20.3989 14.5601Z" fill="#116FAE" fill-opacity="0.24"/>
</g>
</g>
</svg>
