<svg width="129" height="129" viewBox="0 0 129 129" fill="none" xmlns="http://www.w3.org/2000/svg">
<g id="Pictogram-help-client">
<g id="Default">
<path id="dash-stroke-default" d="M119.962 58.6896C143.252 10.8496 109.162 -8.23042 74.2821 10.9696C69.7221 13.4796 48.6121 27.1596 33.3821 26.9496M11.9621 74.8796C11.4321 75.5396 10.9421 76.2196 10.4921 76.8996M8.10207 81.4596C-1.64793 105.57 28.7321 137.14 68.2921 112.32M70.4621 110.91C71.1421 110.45 71.8321 109.97 72.5121 109.48" stroke="#494A4A" stroke-linecap="round" stroke-linejoin="round" stroke-dasharray="5 5"/>
<path id="2px-stroke-default" d="M37.4624 19.7795C58.9224 18.4995 89.3924 18.8495 106.952 19.9295C113.792 20.3495 116.172 22.3195 117.002 29.6895C118.182 40.0995 117.152 66.1795 115.172 80.6995C114.892 82.7595 114.192 85.7995 111.652 85.8295M21.1824 85.8295C18.3124 85.8395 17.1024 83.6795 16.8024 81.3495C15.0524 67.4595 14.1324 44.4895 15.0324 32.4195M116.312 87.1195C119.102 89.7995 122.952 95.7695 124.272 98.5195C124.942 99.9195 125.122 103.23 125.122 104.6C125.122 107.83 124.132 109.36 120.782 110.02C104.382 113.25 24.8024 112.67 11.2324 109.68C8.90244 109.16 7.46244 107.19 7.22244 104.63C7.02244 102.53 7.09244 100.02 7.47244 98.6495C7.96244 96.9095 12.8424 89.4295 15.4824 86.8995C16.3524 86.0695 19.1524 85.8895 21.6524 85.8195C33.2924 85.4795 92.4224 85.5095 110.292 85.8395C113.002 85.8895 114.732 85.5995 116.312 87.1195Z" stroke="#494A4A" stroke-width="2" stroke-linecap="round" stroke-linejoin="round"/>
<path id="1px-stroke-default" d="M110.922 65.4996C110.762 77.6196 110.182 78.8596 105.742 78.8596M21.3619 50.3896C21.3619 58.9296 21.3819 62.3096 21.5519 65.6896M9.17189 97.2996C7.84189 99.3896 8.50189 101.05 11.2219 101.47C29.7519 104.35 100.942 104.5 120.452 101.26C123.232 100.8 123.272 98.4997 121.852 96.0396M23.3519 92.3796C25.3619 92.4196 31.9619 92.0097 36.1619 92.2597M43.7219 92.2597C48.9019 92.4597 50.3619 92.1796 53.5119 92.3596M60.9219 92.2597C66.1019 92.4597 67.5619 92.1796 70.7119 92.3596M78.1119 92.3096C81.1519 92.4196 86.3819 92.4196 87.6219 92.3096M95.2419 92.3796C98.2219 92.2196 106.542 92.2196 109.032 92.3796M19.4319 97.6896C22.4719 97.9296 27.2419 97.9296 30.9519 97.9296M101.382 97.9596C105.072 97.9596 110.112 97.9296 112.792 97.8396M42.4319 103.39C43.3519 100.45 44.8019 98.1796 46.1219 98.0896C50.7119 97.7596 81.1819 97.6896 85.9119 98.0896C87.4819 98.2196 89.5219 101.93 89.7819 103.33" stroke="#494A4A" stroke-linecap="round" stroke-linejoin="round"/>
<path id="fill-default" d="M119.682 90.4395C122.462 93.1195 126.302 99.0895 127.612 101.84C128.282 103.24 128.462 106.55 128.462 107.92C128.462 111.15 127.482 112.68 124.132 113.34C107.792 116.57 28.5022 115.99 14.9822 113C12.6622 112.48 11.2222 110.51 10.9822 107.95C10.7822 105.85 10.8522 103.34 11.2322 101.97C11.7222 100.23 16.5822 92.7496 19.2122 90.2196C20.0822 89.3896 22.8722 89.2096 25.3522 89.1396C36.9522 88.7996 95.8622 88.8295 113.672 89.1595C116.372 89.2095 118.102 88.9195 119.672 90.4395H119.682Z" fill="#494A4A" fill-opacity="0.08"/>
</g>
<g id="Emphasis">
<path id="2px-stroke-emphasis" d="M89.4619 58.5095C85.9119 71.6895 73.2919 79.1795 59.1719 75.9295C44.9619 72.6595 38.1919 58.8095 41.7519 45.6395C45.3019 32.4595 56.8319 24.1195 72.0419 28.2195C85.2219 31.7695 93.0219 45.3395 89.4619 58.5095Z" stroke="#116FAE" stroke-width="2" stroke-linecap="round" stroke-linejoin="round"/>
<path id="1px-stroke-emphasis" d="M68.2373 64.9928C68.1232 64.7413 67.8268 64.6301 67.5753 64.7442C67.3239 64.8584 67.2126 65.1548 67.3268 65.4062L68.2373 64.9928ZM69.0568 69.2162C69.171 69.4677 69.4674 69.5789 69.7188 69.4648C69.9702 69.3506 70.0815 69.0542 69.9673 68.8028L69.0568 69.2162ZM65.1321 68.4878C65.1311 68.7639 65.3542 68.9885 65.6304 68.9895C65.9065 68.9904 66.1311 68.7673 66.1321 68.4912L65.1321 68.4878ZM66.1421 65.5612C66.143 65.2851 65.9199 65.0604 65.6438 65.0595C65.3676 65.0586 65.143 65.2816 65.1421 65.5578L66.1421 65.5612ZM70.5669 65.4769C70.7974 65.6289 71.1075 65.5652 71.2595 65.3347C71.4115 65.1041 71.3478 64.794 71.1173 64.642L70.5669 65.4769ZM69.7673 63.752C69.5367 63.6001 69.2266 63.6637 69.0746 63.8943C68.9226 64.1248 68.9863 64.4349 69.2169 64.5869L69.7673 63.752ZM83.319 40.5795C83.4571 40.8186 83.7629 40.9006 84.002 40.7625C84.2412 40.6245 84.3232 40.3187 84.1851 40.0795L83.319 40.5795ZM72.6664 30.8639C72.4038 30.7787 72.1217 30.9225 72.0365 31.1851C71.9512 31.4478 72.0951 31.7298 72.3577 31.8151L72.6664 30.8639ZM56.6721 43.9495L57.0888 43.6732C56.9669 43.4894 56.739 43.4071 56.5278 43.4708C56.3166 43.5344 56.1721 43.7289 56.1721 43.9495H56.6721ZM65.9921 41.3295L65.7784 41.7816L65.7785 41.7816L65.9921 41.3295ZM64.6621 48.4795L64.3005 48.1341C64.2844 48.151 64.2695 48.1689 64.2559 48.1879L64.6621 48.4795ZM62.2321 55.2795L61.9956 55.72L61.9965 55.7205L62.2321 55.2795ZM71.3121 46.9295L70.9501 46.5845L70.9499 46.5847L71.3121 46.9295ZM56.6721 43.9595H56.1721C56.1721 44.2163 56.3666 44.4313 56.622 44.457C56.8775 44.4827 57.1109 44.3107 57.1621 44.0591L56.6721 43.9595ZM64.3621 58.4295L64.5825 58.8783L64.5829 58.8781L64.3621 58.4295ZM25.7521 29.6095H26.2521V29.4216L26.1284 29.2802L25.7521 29.6095ZM21.8921 24.6495L22.3088 24.3732L22.3081 24.3721L21.8921 24.6495ZM18.6621 27.2395L18.2069 27.0326L18.2064 27.0336L18.6621 27.2395ZM15.5521 26.7995L15.0957 27.0038L15.0957 27.0039L15.5521 26.7995ZM12.5821 9.39949L12.2645 9.0133L12.264 9.01373L12.5821 9.39949ZM28.7621 15.9595L28.4699 16.3653L28.4703 16.3656L28.7621 15.9595ZM28.4821 19.2295L28.352 18.7467L28.3509 18.747L28.4821 19.2295ZM25.6221 20.0495L25.8024 20.5158L25.8043 20.5151L25.6221 20.0495ZM25.3321 21.8395L24.9621 22.1758L24.9626 22.1764L25.3321 21.8395ZM29.4221 26.6595L29.8143 26.3494L29.8134 26.3482L29.4221 26.6595ZM25.7521 29.6195H25.2521V29.8062L25.3745 29.9473L25.7521 29.6195ZM14.8471 12.9108C14.9141 12.6429 14.7512 12.3714 14.4833 12.3044C14.2154 12.2374 13.944 12.4003 13.877 12.6682L14.8471 12.9108ZM14.5858 17.8916C14.6698 18.1546 14.9511 18.2998 15.2142 18.2158C15.4772 18.1318 15.6224 17.8505 15.5384 17.5874L14.5858 17.8916ZM7.5871 13.4781C7.33779 13.5968 7.23192 13.8951 7.35064 14.1445C7.46936 14.3938 7.76772 14.4996 8.01704 14.3809L7.5871 13.4781ZM9.11788 13.7959C9.38651 13.7319 9.55243 13.4623 9.48847 13.1937C9.42451 12.925 9.15489 12.7591 8.88626 12.8231L9.11788 13.7959ZM5.61314 11.0096C5.33704 11.0145 5.11722 11.2423 5.12215 11.5184C5.12708 11.7945 5.3549 12.0143 5.631 12.0094L5.61314 11.0096ZM8.27664 11.6203C8.5477 11.673 8.81017 11.496 8.86288 11.2249C8.91559 10.9539 8.73857 10.6914 8.46751 10.6387L8.27664 11.6203ZM8.45867 7.82696C8.23636 7.66316 7.92335 7.71058 7.75954 7.93289C7.59573 8.1552 7.64316 8.46821 7.86547 8.63202L8.45867 7.82696ZM8.95407 9.43674C9.21212 9.53504 9.50101 9.40554 9.59931 9.14749C9.69762 8.88944 9.56812 8.60055 9.31007 8.50225L8.95407 9.43674ZM67.3268 65.4062L69.0568 69.2162L69.9673 68.8028L68.2373 64.9928L67.3268 65.4062ZM66.1321 68.4912L66.1421 65.5612L65.1421 65.5578L65.1321 68.4878L66.1321 68.4912ZM71.1173 64.642L69.7673 63.752L69.2169 64.5869L70.5669 65.4769L71.1173 64.642ZM84.1851 40.0795C81.9962 36.2875 77.7194 32.5038 72.6664 30.8639L72.3577 31.8151C77.1647 33.3752 81.2479 36.9915 83.319 40.5795L84.1851 40.0795ZM56.2553 44.2258C56.4889 44.5781 56.884 44.7997 57.2634 44.9438C57.6567 45.0932 58.1094 45.1878 58.5482 45.2409C58.9891 45.2942 59.4343 45.3079 59.8198 45.2869C60.1866 45.2669 60.5599 45.2128 60.8195 45.0944L60.4047 44.1845C60.3242 44.2212 60.1088 44.2696 59.7653 44.2884C59.4405 44.3061 59.0537 44.2948 58.6684 44.2481C58.281 44.2012 57.9131 44.1208 57.6185 44.0089C57.3101 43.8918 57.1503 43.7659 57.0888 43.6732L56.2553 44.2258ZM60.8195 45.0944C60.9564 45.032 61.0556 44.9339 61.1212 44.8578C61.1908 44.777 61.253 44.6848 61.308 44.5948C61.4169 44.4166 61.5315 44.1902 61.6467 43.9636C61.8862 43.4924 62.159 42.9596 62.517 42.4945C62.8738 42.031 63.2857 41.6746 63.7833 41.5158C64.2687 41.361 64.9094 41.3709 65.7784 41.7816L66.2057 40.8774C65.1598 40.3831 64.2555 40.3155 63.4793 40.5631C62.7153 40.8069 62.1491 41.333 61.7246 41.8845C61.3014 42.4344 60.9898 43.0491 60.7553 43.5104C60.6334 43.75 60.5386 43.9361 60.4548 44.0733C60.4134 44.1409 60.3834 44.1821 60.3637 44.2049C60.3401 44.2324 60.3528 44.2082 60.4047 44.1845L60.8195 45.0944ZM65.7785 41.7816C66.5705 42.1557 66.8447 42.6717 66.8844 43.2369C66.9278 43.8545 66.6924 44.5932 66.3039 45.3466C65.9213 46.0886 65.4213 46.7862 65.0111 47.3033C64.8071 47.5605 64.6277 47.77 64.5 47.9146C64.4362 47.9868 64.3853 48.0427 64.3509 48.0801C64.3337 48.0987 64.3206 48.1127 64.3121 48.1218C64.3078 48.1264 64.3047 48.1297 64.3027 48.1318C64.3018 48.1328 64.3011 48.1335 64.3007 48.1339C64.3005 48.1341 64.3004 48.1342 64.3004 48.1343C64.3004 48.1343 64.3004 48.1342 64.3004 48.1343C64.3004 48.1342 64.3005 48.1341 64.6621 48.4795C65.0236 48.8249 65.0237 48.8247 65.0239 48.8246C65.0239 48.8245 65.0241 48.8244 65.0242 48.8242C65.0245 48.8239 65.0249 48.8236 65.0253 48.8231C65.0261 48.8222 65.0273 48.821 65.0288 48.8194C65.0317 48.8163 65.0359 48.8119 65.0412 48.8063C65.0518 48.795 65.067 48.7787 65.0864 48.7577C65.1251 48.7156 65.1806 48.6546 65.2493 48.5768C65.3868 48.4212 65.5778 48.198 65.7946 47.9248C66.226 47.3809 66.769 46.6266 67.1927 45.8049C67.6105 44.9946 67.9445 44.0577 67.8819 43.1668C67.8157 42.2236 67.3086 41.3983 66.2056 40.8774L65.7785 41.7816ZM64.6621 48.4795C64.2559 48.1879 64.2559 48.188 64.2558 48.1881C64.2557 48.1881 64.2556 48.1883 64.2556 48.1884C64.2554 48.1886 64.2551 48.189 64.2548 48.1894C64.2542 48.1903 64.2533 48.1915 64.2522 48.193C64.25 48.1961 64.2468 48.2007 64.2426 48.2065C64.2343 48.2182 64.2221 48.2354 64.2065 48.2576C64.1752 48.302 64.13 48.3668 64.0732 48.4492C63.9597 48.6141 63.8001 48.85 63.6142 49.1359C63.2434 49.7065 62.7647 50.4817 62.3405 51.2911C61.9206 52.0923 61.5354 52.9616 61.3759 53.7123C61.2965 54.0866 61.2639 54.472 61.3397 54.8208C61.4196 55.1879 61.6232 55.5202 61.9956 55.72L62.4685 54.8389C62.3984 54.8013 62.3462 54.7429 62.3169 54.6083C62.2836 54.4553 62.2888 54.2278 62.3541 53.9201C62.4844 53.3067 62.8173 52.5354 63.2262 51.7553C63.6307 50.9836 64.0913 50.2369 64.4527 49.6809C64.633 49.4035 64.7876 49.175 64.8969 49.0162C64.9515 48.9369 64.9948 48.875 65.0242 48.8333C65.0389 48.8124 65.0501 48.7966 65.0575 48.7861C65.0613 48.7809 65.064 48.777 65.0658 48.7744C65.0667 48.7732 65.0674 48.7723 65.0678 48.7717C65.068 48.7714 65.0681 48.7712 65.0682 48.7711C65.0682 48.7711 65.0682 48.7711 65.0683 48.7711C65.0683 48.7711 65.0682 48.7711 64.6621 48.4795ZM61.9965 55.7205C62.9755 56.2434 64.1376 56.4093 65.0986 56.3678C65.5816 56.3469 66.0338 56.273 66.4047 56.1533C66.7464 56.043 67.1254 55.8605 67.3242 55.5475L66.48 55.0115C66.4856 55.0026 66.4716 55.0277 66.3994 55.0714C66.331 55.1129 66.2312 55.1585 66.0976 55.2016C65.8304 55.2879 65.4701 55.3508 65.0555 55.3687C64.2215 55.4047 63.2486 55.2556 62.4676 54.8385L61.9965 55.7205ZM67.3242 55.5475C67.4521 55.346 67.4665 55.136 67.4622 54.9822C67.4584 54.8459 67.4334 54.6647 67.4206 54.5378C67.3918 54.2519 67.3746 53.8752 67.5107 53.334C67.7884 52.2299 68.7219 50.3755 71.6742 47.2743L70.9499 46.5847C67.9523 49.7335 66.8807 51.7391 66.5409 53.09C66.3683 53.7763 66.3892 54.2759 66.4257 54.6381C66.4456 54.8352 66.4601 54.921 66.4626 55.0101C66.4646 55.0817 66.452 55.0555 66.48 55.0115L67.3242 55.5475ZM71.674 47.2744C73.4133 45.4494 73.4782 43.2293 72.5816 41.2656C71.6963 39.3266 69.8723 37.6107 67.7577 36.6285C65.6405 35.6451 63.158 35.3654 60.9723 36.4218C58.775 37.4838 56.9997 39.8362 56.1821 43.8599L57.1621 44.0591C57.9395 40.2328 59.5779 38.2064 61.4075 37.3222C63.2487 36.4323 65.4061 36.6389 67.3364 37.5355C69.2694 38.4333 70.9004 39.9911 71.6719 41.6809C72.4322 43.346 72.3558 45.1095 70.9501 46.5845L71.674 47.2744ZM57.1721 43.9595V43.9495H56.1721V43.9595H57.1721ZM64.3621 62.5295C63.3682 62.5295 62.5621 61.7234 62.5621 60.7295H61.5621C61.5621 62.2756 62.8159 63.5295 64.3621 63.5295V62.5295ZM62.5621 60.7295C62.5621 60.2831 62.751 59.9806 63.0971 59.7036C63.4748 59.4012 63.9813 59.1736 64.5825 58.8783L64.1416 57.9807C63.6028 58.2454 62.9594 58.5328 62.4721 58.9229C61.9531 59.3384 61.5621 59.9059 61.5621 60.7295H62.5621ZM64.5829 58.8781C65.0388 58.6537 65.3969 58.7435 65.6858 58.9917C66.0045 59.2656 66.2544 59.7566 66.3303 60.32C66.4056 60.8795 66.2993 61.4347 66.0048 61.8367C65.7242 62.2198 65.2251 62.5295 64.3621 62.5295V63.5295C65.4941 63.5295 66.315 63.1055 66.8115 62.4276C67.2943 61.7686 67.4223 60.9358 67.3214 60.1865C67.221 59.4412 66.884 58.7028 66.3374 58.2332C65.761 57.738 64.9753 57.5703 64.1413 57.9809L64.5829 58.8781ZM26.1284 29.2802C24.5964 27.5294 23.532 26.2179 22.3088 24.3732L21.4754 24.9258C22.7321 26.8211 23.8277 28.1695 25.3758 29.9387L26.1284 29.2802ZM22.3081 24.3721C21.9937 23.9006 21.5431 23.5898 21.018 23.5639C20.4946 23.538 20.017 23.8011 19.6589 24.2283L20.4253 24.8707C20.6372 24.6179 20.8345 24.556 20.9686 24.5626C21.1011 24.5692 21.2904 24.6484 21.476 24.9268L22.3081 24.3721ZM19.6589 24.2283C19.3307 24.6198 19.0636 25.1207 18.8356 25.6073C18.6196 26.0683 18.3853 26.6401 18.2069 27.0326L19.1173 27.4464C19.3388 26.9589 19.5096 26.5257 19.7411 26.0316C19.9605 25.5633 20.1834 25.1592 20.4253 24.8707L19.6589 24.2283ZM18.2064 27.0336C18.0728 27.3294 17.907 27.5763 17.7324 27.7469C17.5568 27.9186 17.3994 27.9884 17.273 27.9986C17.0653 28.0154 16.5766 27.8637 16.0084 26.5951L15.0957 27.0039C15.6876 28.3253 16.4489 29.0686 17.3536 28.9954C17.7835 28.9606 18.148 28.7391 18.4314 28.462C18.7159 28.184 18.9464 27.8246 19.1177 27.4454L18.2064 27.0336ZM16.0084 26.5952C15.4008 25.2378 13.9979 21.4685 13.0824 17.7694C12.6244 15.9186 12.2949 14.1108 12.2408 12.6426C12.2137 11.9082 12.2566 11.2806 12.3756 10.7847C12.4954 10.2852 12.6806 9.96629 12.9002 9.78525L12.264 9.01373C11.8135 9.3852 11.5503 9.93782 11.4032 10.5514C11.2552 11.1685 11.2126 11.8955 11.2415 12.6795C11.2993 14.2482 11.6472 16.1329 12.1117 18.0096C13.0412 21.7655 14.4634 25.5912 15.0957 27.0038L16.0084 26.5952ZM12.8996 9.78569C13.0754 9.64114 13.3815 9.53831 13.8717 9.53619C14.3549 9.53409 14.9557 9.63036 15.6512 9.81508C17.0406 10.1841 18.7197 10.8815 20.4239 11.7081C23.8302 13.3604 27.2452 15.4834 28.4699 16.3653L29.0542 15.5537C27.779 14.6355 24.3139 12.4836 20.8603 10.8084C19.1344 9.97121 17.3885 9.24179 15.9079 8.84859C15.1685 8.65222 14.473 8.53357 13.8674 8.5362C13.2689 8.53879 12.6937 8.66034 12.2645 9.0133L12.8996 9.78569ZM28.4703 16.3656C29.4283 17.0538 29.5146 17.5903 29.4392 17.8818C29.3508 18.2237 28.965 18.5815 28.352 18.7467L28.6122 19.7123C29.4091 19.4975 30.1933 18.9603 30.4074 18.1321C30.6345 17.2537 30.1559 16.3452 29.0538 15.5534L28.4703 16.3656ZM28.3509 18.747C27.3745 19.0124 26.6222 19.1212 25.4399 19.5839L25.8043 20.5151C26.922 20.0778 27.5297 20.0065 28.6132 19.712L28.3509 18.747ZM25.4417 19.5831C24.8741 19.8027 24.5725 20.2838 24.5119 20.7872C24.4532 21.2749 24.6152 21.7942 24.9621 22.1758L25.702 21.5032C25.549 21.3348 25.481 21.1041 25.5047 20.9068C25.5266 20.7252 25.6201 20.5863 25.8024 20.5158L25.4417 19.5831ZM24.9626 22.1764C26.4039 23.7568 27.6366 25.2181 29.0308 26.9708L29.8134 26.3482C28.4075 24.5809 27.1603 23.1022 25.7015 21.5026L24.9626 22.1764ZM29.0299 26.9696C28.9924 26.9222 29.0179 26.8947 29.0025 26.9693C28.986 27.0483 28.9345 27.174 28.8262 27.342C28.6122 27.6743 28.2466 28.0654 27.82 28.4177C27.3928 28.7704 26.9416 29.0536 26.5743 29.1954C26.3892 29.2669 26.2559 29.2904 26.1735 29.2889C26.0999 29.2876 26.1103 29.2694 26.1296 29.2917L25.3745 29.9473C25.5914 30.1971 25.8858 30.2839 26.1554 30.2888C26.4163 30.2935 26.6854 30.2245 26.9345 30.1283C27.4357 29.9348 27.98 29.5824 28.4567 29.1888C28.9338 28.7948 29.38 28.329 29.667 27.8835C29.8092 27.6627 29.9304 27.4192 29.9816 27.1726C30.0337 26.9215 30.0217 26.6118 29.8143 26.3494L29.0299 26.9696ZM26.2521 29.6195V29.6095H25.2521V29.6195H26.2521ZM13.877 12.6682C13.8454 12.7946 13.8431 12.956 13.845 13.087C13.8472 13.2369 13.8573 13.419 13.8731 13.6204C13.9049 14.0243 13.9614 14.5276 14.0329 15.0509C14.1743 16.0854 14.3813 17.2512 14.5858 17.8916L15.5384 17.5874C15.3629 17.0378 15.1649 15.9486 15.0237 14.9156C14.954 14.4051 14.8999 13.9216 14.8701 13.542C14.8551 13.3518 14.8467 13.1929 14.8449 13.0724C14.8429 12.933 14.8512 12.8944 14.8471 12.9108L13.877 12.6682ZM8.01704 14.3809C8.35088 14.222 8.61325 14.0708 8.80734 13.96C8.90706 13.9031 8.98041 13.8617 9.04046 13.8313C9.10432 13.799 9.12395 13.7944 9.11788 13.7959L8.88626 12.8231C8.77519 12.8495 8.67107 12.8975 8.58868 12.9392C8.50248 12.9829 8.40708 13.0371 8.3118 13.0914C8.11589 13.2032 7.88326 13.337 7.5871 13.4781L8.01704 14.3809ZM5.631 12.0094C5.81188 12.0062 6.06494 11.9706 6.31753 11.9296C6.57872 11.8872 6.87762 11.8323 7.16019 11.7817C7.44719 11.7303 7.71764 11.6833 7.93696 11.6533C8.04673 11.6383 8.13644 11.6286 8.20472 11.6243C8.28448 11.6194 8.29829 11.6245 8.27664 11.6203L8.46751 10.6387C8.35585 10.617 8.23372 10.6206 8.14231 10.6263C8.03942 10.6327 7.92273 10.646 7.80155 10.6625C7.55901 10.6957 7.26945 10.7462 6.98395 10.7973C6.69402 10.8492 6.40792 10.9018 6.15724 10.9425C5.89795 10.9846 5.71226 11.0078 5.61314 11.0096L5.631 12.0094ZM7.86547 8.63202C8.04008 8.76068 8.21039 8.90899 8.39157 9.0593C8.4774 9.13051 8.56733 9.20336 8.65296 9.26509C8.73225 9.32225 8.83846 9.39269 8.95407 9.43674L9.31007 8.50225C9.32068 8.50629 9.30064 8.49924 9.23774 8.45389C9.18119 8.41313 9.11299 8.35847 9.03007 8.28968C8.87375 8.15999 8.66406 7.9783 8.45867 7.82696L7.86547 8.63202Z" fill="#116FAE"/>
<g id="fill-emphasis">
<path d="M80.6023 32.0596C70.2923 24.0596 48.2723 37.2396 45.2523 49.5196C42.2323 61.8096 50.9423 71.9996 62.6323 77.8096C77.8023 85.3596 114.052 58.0096 80.6023 32.0596ZM65.7523 63.4696C64.4823 63.4696 63.4523 62.4396 63.4523 61.1696C63.4523 59.8996 64.6123 59.4296 65.7523 58.8696C68.3323 57.5996 69.7423 63.4696 65.7523 63.4696ZM72.9523 45.9996C67.0023 52.2496 68.5423 54.3496 68.5423 54.3496H63.8723C62.7323 51.9096 66.4523 47.8496 66.4523 47.8496C66.4523 47.8496 71.2723 42.4996 67.6423 40.4096C63.3523 37.9396 62.4523 43.9796 62.2623 43.7196C62.0723 43.4596 58.2823 43.2196 58.3223 43.0296C61.5123 27.3296 79.2423 39.3996 72.9623 45.9996H72.9523Z" fill="#116FAE" fill-opacity="0.24"/>
<path d="M20.8523 9.0396C20.8523 9.0396 16.9623 7.6596 17.0223 11.5996C17.0823 15.5396 15.6923 21.8796 17.0223 23.7096C18.3523 25.5396 18.9023 22.7596 21.1823 24.0896C23.4623 25.4196 24.7423 32.6896 27.6823 31.3396C30.6223 29.9896 34.7623 29.3196 31.3923 24.9296C28.0223 20.5396 31.6623 19.8696 32.0023 17.5396C32.3423 15.2096 20.8423 9.0396 20.8423 9.0396H20.8523Z" fill="#116FAE" fill-opacity="0.24"/>
</g>
</g>
</g>
</svg>
