<svg width="129" height="129" viewBox="0 0 129 129" fill="none" xmlns="http://www.w3.org/2000/svg">
<g id="Pictogram-entrerprenorial-user">
<g id="Default">
<path id="dash-stroke-default" d="M64.9775 5.5498H64.9785" stroke="#494A4A" stroke-width="0.001"/>
<path id="2px-stroke-default" d="M82.989 119.51C38.009 122.44 13.959 116.02 13.959 110.6C13.959 102.67 16.809 89.9198 20.919 86.9698C31.519 79.3598 52.319 82.2698 52.319 63.4598M75.399 62.6698C75.399 63.8298 75.899 65.8998 76.999 68.1698M63.919 67.5398C74.489 67.5398 86.129 55.4598 86.129 32.0398C86.129 14.1698 77.669 5.5498 63.919 5.5498C50.169 5.5498 41.709 14.1798 41.709 32.0398C41.709 55.4498 53.339 67.5398 63.919 67.5398Z" stroke="#494A4A" stroke-width="2" stroke-miterlimit="10" stroke-linecap="round"/>
<path id="1px-stroke-default" d="M28.2691 88.9797C23.2591 90.6097 23.1091 91.2997 21.3691 97.8297" stroke="#494A4A" stroke-linecap="round" stroke-linejoin="round"/>
<path id="fill-default" d="M93.7186 27.4199C91.7586 7.32987 62.3986 8.35987 56.9486 22.8199C53.1486 32.9199 51.8986 45.7299 56.6086 65.2399C59.3486 76.5899 57.5686 85.0999 47.5386 88.8399C32.6486 94.3999 22.4486 113.34 27.7186 119.63C32.9886 125.92 69.1586 124.8 73.7986 124.69C78.4386 124.58 87.9986 126.65 87.9986 120.25C87.9986 116.45 84.6986 111.03 81.3586 100.32C76.6186 85.1399 77.8186 70.3799 83.2586 67.1099C87.8286 64.3599 96.4086 54.9699 93.7286 27.4199H93.7186Z" fill="#494A4A" fill-opacity="0.08"/>
</g>
<g id="Emphasis">
<path id="2px-stroke-emphasis" d="M87.4188 108.98C87.4188 95.6196 80.2188 93.5596 80.2188 83.5396C80.2188 59.8996 115.169 59.8996 115.169 83.5396C115.169 93.5596 107.969 95.6196 107.969 108.98M104.609 121.5C105.269 121.24 105.729 120.65 105.929 120C106.539 117.96 107.069 113.34 107.009 110.78M88.4488 110.78C88.4488 113.47 88.9188 117.94 89.4788 120.07C89.6488 120.73 90.1888 121.25 90.8488 121.51M103.659 121.79C102.649 124.63 100.789 126.45 97.6988 126.45C94.6088 126.45 92.8088 124.66 91.7688 121.79" stroke="#116FAE" stroke-width="2" stroke-linecap="round" stroke-linejoin="round"/>
<path id="1px-stroke-emphasis" d="M107.979 107.8C107.979 112.68 87.419 112.68 87.419 107.8M90.839 120.39C93.609 121.49 101.789 121.5 104.599 120.39M75.159 71.6396C76.459 74.7896 74.049 77.5096 69.149 80.2896C75.049 79.7196 74.579 89.4596 70.469 92.3596C67.139 94.7096 66.249 90.1297 69.189 90.3297C72.129 90.5297 74.629 93.3997 75.499 97.0597M121.349 71.6396C120.679 74.5596 121.809 78.4696 125.569 77.3596C116.769 86.6596 127.949 94.5997 128.449 88.9697C129.049 82.2797 118.359 88.9697 120.379 97.3997" stroke="#116FAE" stroke-linecap="round" stroke-linejoin="round"/>
<path id="fill-emphasis" d="M84.4894 82.3695C85.0894 61.3395 119.579 61.2695 120.389 82.6695C120.919 96.6695 109.809 93.7995 110.529 119.99C110.739 127.7 95.2894 131.08 94.5494 125.18C93.8094 119.28 91.5794 115.41 91.4994 111.56C91.1594 94.9295 84.1094 95.3495 84.4894 82.3695Z" fill="#116FAE" fill-opacity="0.24"/>
</g>
</g>
</svg>
