<svg width="129" height="129" viewBox="0 0 129 129" fill="none" xmlns="http://www.w3.org/2000/svg">
<g id="Pictogram-dedicated">
<g id="Default">
<path id="dash-stroke-default" d="M59.9873 39.5498H59.9883" stroke="#494A4A" stroke-width="0.001"/>
<path id="2px-stroke-default" d="M56.7686 33.3697C57.4686 29.9797 57.5686 26.3197 56.7686 22.4897C53.5286 6.96974 40.4886 8.12974 31.0986 14.9797M35.5186 17.8797C23.9486 8.96974 8.30865 14.6097 11.9186 31.8597C12.7486 35.8197 14.3386 39.2397 16.3886 42.1497M21.9286 50.5597C14.2986 47.1897 6.38865 52.4397 10.7286 61.5197C15.0686 70.5997 26.0986 72.0197 29.4786 70.4097C32.4486 68.9897 38.6786 59.3197 34.3386 50.2397C30.4286 42.0697 23.3586 44.4797 19.0786 49.5597M117.969 46.9997C106.299 36.5797 54.4186 34.9297 46.5186 45.9497C40.5686 54.2497 41.7186 85.3497 49.4186 97.7597C54.4486 105.86 80.8086 103.46 84.8786 105.61C89.2086 107.88 98.3586 124.07 102.259 122.42C106.159 120.77 103.009 108.31 104.569 105.7C106.489 102.5 113.659 101.5 115.669 98.6697C122.239 89.4297 127.269 55.3097 117.959 47.0097L117.969 46.9997ZM100.166 70.3118C102.482 70.5185 104.2 72.4698 104.004 74.6702C103.807 76.8706 101.771 78.4868 99.4548 78.2802C97.1389 78.0735 95.4206 76.1221 95.617 73.9217C95.8134 71.7213 97.85 70.1051 100.166 70.3118ZM83.2152 68.8005C85.5311 69.0072 87.2493 70.9585 87.0529 73.1589C86.8565 75.3593 84.8199 76.9755 82.504 76.7688C80.1881 76.5621 78.4699 74.6108 78.6662 72.4104C78.8626 70.21 80.8993 68.5938 83.2152 68.8005ZM66.1565 67.0257C68.4724 67.2323 70.1907 69.1837 69.9943 71.3841C69.7979 73.5844 67.7613 75.2007 65.4454 74.994C63.1294 74.7873 61.4112 72.836 61.6076 70.6356C61.804 68.4352 63.8406 66.819 66.1565 67.0257Z" stroke="#494A4A" stroke-width="2" stroke-linecap="round" stroke-linejoin="round"/>
<path id="1px-stroke-default" d="M58.4691 109.52C61.8091 110.57 68.1991 110.55 73.1491 110.07M55.3791 113.51C58.5891 114.02 62.7791 114.54 64.6791 113.97M20.3091 21.4197C17.9391 22.4797 16.8291 25.1197 17.1291 28.0297" stroke="#494A4A" stroke-linecap="round" stroke-linejoin="round"/>
<path id="fill-default" fill-rule="evenodd" clip-rule="evenodd" d="M121.008 50.5497C109.338 40.1297 65.9083 45.5297 58.0083 56.5497C52.0583 64.8497 48.2983 90.1397 56.0083 102.55C61.0383 110.65 86.9283 105.41 91.0083 107.55C95.3383 109.82 101.108 127.2 105.008 125.55C108.908 123.9 108.448 115.16 110.008 112.55C111.928 109.35 117.998 106.38 120.008 103.55C126.578 94.3097 130.318 58.8597 121.008 50.5497ZM70.4883 73.2197C70.1883 74.9897 67.8483 76.8297 63.7883 76.7797C62.3883 76.7597 60.0283 71.7497 60.1983 69.8997C60.3183 68.6597 61.3983 67.7997 62.9383 67.6697C67.3383 67.2997 70.7083 71.8797 70.4783 73.2097L70.4883 73.2197ZM84.5583 77.4897C83.0283 78.5297 79.9883 78.2397 77.1283 75.4797C76.1383 74.5297 78.1783 69.4297 79.6783 68.2497C80.6883 67.4597 82.0883 67.5897 83.2883 68.5297C86.6983 71.2297 85.6983 76.6997 84.5483 77.4897H84.5583ZM101.508 78.9997C99.9783 80.0397 96.9383 79.7497 94.0783 76.9897C93.0883 76.0397 95.1283 70.9397 96.6283 69.7597C97.6383 68.9697 99.0383 69.0997 100.238 70.0397C103.648 72.7397 102.648 78.2097 101.498 78.9997H101.508Z" fill="#494A4A" fill-opacity="0.08"/>
</g>
<g id="Emphasis">
<path id="2px-stroke-emphasis" d="M82.5493 13.2298C78.9693 5.97979 69.8193 4.98979 67.4193 14.4398C65.0093 23.8898 72.3393 31.7898 75.8593 32.6898C78.9493 33.4798 89.5893 30.1498 91.9893 20.6998C94.1593 12.1998 87.3893 9.59979 81.0593 10.7198" stroke="#116FAE" stroke-width="2" stroke-linecap="round" stroke-linejoin="round"/>
<path id="1px-stroke-emphasis" d="M92.3994 8.48988C95.0694 9.70988 97.0094 12.7699 97.0094 16.0499M94.7094 6.87988C96.0894 7.27988 97.3894 8.51988 98.2794 10.1099" stroke="#116FAE" stroke-linecap="round" stroke-linejoin="round"/>
<path id="fill-emphasis" d="M84.6196 15.9898C81.0396 8.7398 71.8896 7.7498 69.4896 17.1998C67.0796 26.6498 74.4096 34.5498 77.9296 35.4498C81.0196 36.2398 91.6596 32.9098 94.0596 23.4598C96.2296 14.9598 89.4596 12.3598 83.1296 13.4798" fill="#116FAE" fill-opacity="0.24"/>
</g>
</g>
</svg>
