<svg width="129" height="129" viewBox="0 0 129 129" fill="none" xmlns="http://www.w3.org/2000/svg">
<g id="Pictogram-new-milestone">
<g id="Default">
<path id="dash-stroke-default" d="M61.9883 21.1997H61.9893" stroke="#494A4A" stroke-width="0.001"/>
<path id="2px-stroke-default" d="M30.6395 82.6997C23.3195 83.1897 2.18952 75.2597 2.47952 71.7097C2.98952 65.4997 30.9395 69.1697 40.8995 50.0897M63.9995 102.44C62.8795 103.33 63.3695 102.93 62.1995 103.74C55.7495 103.7 34.0895 91.8597 30.5295 86.5297C32.0295 41.0797 81.0595 -3.95033 95.8595 4.08967C105.28 9.20967 102.3 37.6897 91.7395 63.3197M72.8895 45.2697C78.0995 48.0997 80.0295 54.7597 77.1995 59.9697C74.3695 65.1797 67.8595 67.1097 62.6495 64.2797C57.4395 61.4497 55.5095 54.9397 58.3395 49.7297C61.1695 44.5197 67.6795 42.4397 72.8895 45.2697ZM58.5095 70.8697C61.4295 72.4597 62.5195 76.1197 60.9295 79.0397C59.3395 81.9597 55.6795 83.0497 52.7595 81.4597C49.8395 79.8697 48.7495 76.2097 50.3395 73.2897C51.9295 70.3697 55.5895 69.2797 58.5095 70.8697ZM47.8395 106.5C43.7195 113.41 33.7895 121.61 31.9895 120.63C30.0195 119.56 31.5795 103.46 34.1895 98.8197C34.8395 97.6597 38.1695 101.03 41.0295 102.54C44.9395 104.6 48.7295 105 47.8295 106.5H47.8395Z" stroke="#494A4A" stroke-width="2" stroke-linecap="round" stroke-linejoin="round"/>
<path id="1px-stroke-default" d="M22.9493 87.8095C21.2493 90.0895 19.1493 93.5095 17.5693 96.6095M21.1393 86.4795C20.4293 87.2995 19.2793 88.9995 18.5793 90.1795M54.2893 111.189C53.8693 112.829 52.6093 115.959 50.7193 119.379M56.0593 113.319C55.3993 115.049 55.0293 115.919 53.8393 117.919" stroke="#494A4A" stroke-linecap="round" stroke-linejoin="round"/>
<g id="fill-default">
<path d="M111.589 60.2697C108.039 60.4897 102.879 60.6597 97.7891 60.6797C98.3291 59.2797 98.7491 57.9697 99.3191 56.2097C100.719 51.9697 101.799 47.7597 102.619 43.7297C104.369 45.1297 105.799 47.2997 106.599 50.4097C110.669 47.9097 116.589 51.5597 114.499 56.9297C126.849 57.2997 128.469 59.2497 111.589 60.2697Z" fill="#494A4A" fill-opacity="0.08"/>
<path d="M41.3991 49.1897C41.3691 47.6497 43.7091 47.1797 40.3191 45.5397C33.2091 42.0897 12.8091 49.5997 17.7791 59.4597C10.1591 54.7997 6.74911 61.9797 10.3191 67.4297C11.8191 69.7197 41.5791 59.2397 41.3991 49.1997V49.1897Z" fill="#494A4A" fill-opacity="0.08"/>
<path fill-rule="evenodd" clip-rule="evenodd" d="M103.259 13.3697C99.2491 2.33966 77.7191 11.1397 66.0291 26.0897C58.2491 36.0197 38.6291 62.9497 36.3191 73.5297C34.2991 82.8497 29.8091 89.4897 46.1591 99.6197C50.9691 102.6 62.6991 108.89 66.3791 106.81C67.3791 106.25 68.5991 104.89 69.3491 102.45C70.3891 99.0597 58.5691 71.5197 61.3191 67.7397C63.8791 64.2297 72.8191 65.9097 79.5691 64.1997C86.3191 62.4897 94.2491 67.9797 95.8791 64.8397C96.7391 63.1597 97.3091 61.8797 97.7891 60.6797C98.3291 59.2797 98.7491 57.9697 99.3191 56.2097C100.719 51.9697 101.799 47.7597 102.619 43.7297C105.379 30.0997 105.079 18.3797 103.259 13.3697ZM53.1791 76.1197C52.6591 78.0497 53.8391 86.0497 50.7091 79.1397C47.5791 72.2197 54.8391 68.8497 55.2891 69.8397C55.7291 70.8397 53.6991 74.1897 53.1791 76.1197ZM60.5491 53.6897C59.5891 55.8997 60.5891 58.4797 61.6591 62.3097C62.4091 64.9897 57.8191 60.5697 57.6591 56.2097C57.2991 46.5297 66.2191 40.5797 70.2691 44.2697C72.0191 45.8697 63.2691 47.3897 60.5491 53.6897Z" fill="#494A4A" fill-opacity="0.08"/>
<path d="M45.0191 17.9197C44.7691 19.5897 36.1491 20.0797 35.3991 20.6397C34.6491 21.1997 32.6591 28.8297 31.3991 28.9597C30.1391 29.0897 28.7191 21.2197 27.9991 20.5097C27.2791 19.7997 21.2791 18.1697 21.3091 16.6897C21.3391 15.2097 27.5491 13.6497 28.1291 13.1097C28.7091 12.5697 30.2991 6.05966 31.9491 6.41966C33.5991 6.77966 35.1191 12.4697 35.5291 13.2397C35.9391 14.0097 45.2691 16.2397 45.0191 17.9197Z" fill="#494A4A" fill-opacity="0.08"/>
<path d="M20.1691 24.7797C21.1991 25.1197 20.4891 28.1797 20.7591 28.7097C21.0291 29.2397 23.5891 30.8497 23.5291 31.6597C23.4691 32.4697 20.3991 33.0197 19.8691 33.3897C19.3391 33.7597 17.6491 37.4097 16.7191 37.2297C15.7891 37.0497 15.4591 32.9297 15.1891 32.4997C14.9191 32.0697 10.9491 30.3497 11.3491 29.3497C11.7491 28.3497 15.5391 27.9897 16.0791 27.8197C16.6191 27.6497 19.1291 24.4297 20.1691 24.7697V24.7797Z" fill="#494A4A" fill-opacity="0.08"/>
</g>
</g>
<g id="Emphasis">
<path id="2px-stroke-emphasis" d="M77.3698 106.01C77.3698 106.01 85.2498 98.9697 96.9598 103.39C108.28 107.66 122.37 97.4497 122.37 97.4497L118.02 65.4097C118.02 65.4097 100.45 72.6097 91.1798 70.6697C86.1198 68.9097 80.6698 68.3297 75.0098 70.1197C71.1998 71.3197 69.5498 72.3497 67.8698 73.8097M67.0898 70.8397C67.0898 70.8397 80.4798 123.5 83.2398 126.18" stroke="#116FAE" stroke-width="2" stroke-linecap="round" stroke-linejoin="round"/>
<path id="1px-stroke-emphasis" d="M103.26 100.039C108.2 100.329 112.63 97.2794 114.07 95.8494M105.62 96.1894C109.07 95.7194 111.06 94.0894 112.22 92.5694M82.1397 74.1694C78.6597 74.2494 76.4997 75.6494 75.1797 77.0294" stroke="#116FAE" stroke-linecap="round" stroke-linejoin="round"/>
<path id="fill-emphasis" d="M72.6995 77.8495C72.1295 75.3695 73.5695 72.8795 75.9895 72.0895C76.8895 71.7995 77.9595 71.5195 79.2695 71.2395C85.0595 70.0095 90.4395 70.8795 95.3295 72.7995C100.07 74.6595 111.6 72.4295 118.01 70.9495C120.37 70.3995 122.64 72.1195 122.77 74.5295L124 96.3995C124.09 97.9995 123.19 99.4995 121.73 100.16C117.07 102.26 106.58 106.12 98.3395 102.65C90.0995 99.1795 83.3795 101.35 80.3495 102.77C79.4295 103.2 78.3695 102.67 78.1395 101.69L72.6995 77.8395V77.8495Z" fill="#116FAE" fill-opacity="0.24"/>
</g>
</g>
</svg>
