<svg width="129" height="129" viewBox="0 0 129 129" fill="none" xmlns="http://www.w3.org/2000/svg">
<g id="Pictogram-user-love">
<g id="Default">
<path id="dash-stroke-default" d="M66.9824 14.7993H66.9834" stroke="#494A4A" stroke-width="0.001"/>
<path id="2px-stroke-default" d="M50.3036 89.7893C50.3036 94.2993 51.0936 101.779 52.0236 105.349C52.3136 106.459 53.2036 107.329 54.3136 107.769C58.9636 109.619 72.6536 109.639 77.3636 107.759C78.4736 107.319 79.2336 106.339 79.5636 105.239C80.5836 101.829 81.4836 94.0893 81.3736 89.7993M75.7736 108.239C74.0736 112.999 70.9636 116.049 65.7936 116.049C60.6236 116.049 57.6136 113.049 55.8636 108.239M33.6836 43.7293C33.6836 4.1293 97.3836 4.1293 97.3836 43.7293C97.3836 60.5193 85.3336 66.1093 83.0136 86.7693C82.1036 94.8993 49.6936 94.8693 48.5836 86.7693C45.7336 66.1093 33.6836 60.5093 33.6836 43.7293Z" stroke="#494A4A" stroke-width="2" stroke-linecap="round" stroke-linejoin="round"/>
<path id="1px-stroke-default" d="M59.5039 72.9993C62.5339 77.2993 63.3539 86.9093 62.9439 91.9393M73.2839 71.2793C69.8439 78.1693 69.2939 85.8593 69.2939 92.7493" stroke="#494A4A" stroke-linecap="round" stroke-linejoin="round"/>
<path id="fill-default" d="M82.304 74.2991C77.854 76.7191 79.924 83.5491 71.284 89.7891C62.644 96.0291 55.154 95.3891 55.504 101.809C55.854 108.239 54.944 122.939 64.934 121.679C74.924 120.419 71.714 115.689 77.674 114.059C83.634 112.429 85.394 106.449 85.934 95.2491C86.654 80.2491 90.334 73.9091 91.784 69.4791C93.224 65.0491 100.534 51.4991 95.294 55.0991C90.054 58.6991 86.414 65.4391 84.934 70.7591C84.934 70.7591 82.634 74.1191 82.304 74.2991Z" fill="#494A4A" fill-opacity="0.08"/>
</g>
<g id="Emphasis">
<path id="2px-stroke-emphasis" d="M62.5431 66.0791C58.2331 69.5491 47.9831 67.1191 49.8931 57.1091C49.8931 57.1091 44.9031 56.9391 44.2131 50.5591C43.5231 44.1791 47.4031 43.4891 47.4031 43.4891C47.4031 43.4891 43.5331 38.2291 46.5431 33.9191C49.5531 29.6091 53.4331 31.1591 53.4331 31.1591C53.4331 31.1591 55.0931 23.7591 62.5631 26.5391M64.6731 43.7291C64.7331 56.0591 63.8731 62.7491 67.5131 65.6891C71.8231 69.1591 82.0731 66.7291 80.1731 56.7191C80.1731 56.7191 85.1631 56.5491 85.8531 50.1691C86.5431 43.7891 82.6731 43.0991 82.6731 43.0991C82.6731 43.0991 86.5431 37.8391 83.5331 33.5291C80.5131 29.2191 76.6431 30.7691 76.6431 30.7691C76.6431 30.7691 76.7331 25.0991 70.9631 25.0991C63.9931 25.0991 64.6231 33.9491 64.6731 43.7191V43.7291Z" stroke="#116FAE" stroke-width="2" stroke-linecap="round" stroke-linejoin="round"/>
<path id="1px-stroke-emphasis" d="M55.5133 34.7093C55.5133 34.7093 55.2633 31.2293 52.4733 30.9493M51.2433 43.7293C51.2433 43.7293 47.9833 42.4193 45.7933 44.3893M58.0733 52.3393C58.0733 52.3393 59.0133 56.1693 56.0633 58.1093M53.7033 35.7993C53.7033 35.7993 54.9533 34.6893 58.0333 34.7093M57.2633 43.3093C57.2633 43.3093 56.9533 39.6293 61.2133 39.3193M74.6333 34.3593C74.6333 34.3593 74.8933 30.8893 77.6733 30.5993M78.3933 43.7293C78.3933 43.7293 82.0033 41.9493 84.1633 43.9093M74.4833 53.4493C74.4833 53.4493 80.3733 52.5093 80.3733 59.0893M78.3933 47.3693C78.9433 44.8793 77.9833 42.2893 75.9333 40.7693M73.4033 54.5193C74.1433 53.8793 74.4233 52.8493 74.1233 51.9193M95.9833 18.3993C95.7233 23.9693 100.883 27.3193 107.403 24.0093C102.073 27.9493 103.933 41.8893 114.343 41.0693C118.833 40.7193 118.483 33.0893 113.433 34.9593C106.703 37.4593 101.633 46.8793 110.423 55.0193C103.133 52.7393 99.7733 58.6293 98.9533 62.7493M40.0533 11.5093C38.3933 15.6893 30.5533 19.5493 24.5333 15.2293C19.3633 11.5193 25.3533 6.40935 27.5833 11.3293C33.0633 23.3893 24.2533 34.9793 13.1433 30.1893C8.35331 28.1193 11.5833 19.8993 16.4233 23.8393C22.8633 29.0893 24.9033 41.2993 12.2033 46.9293C22.9733 44.5093 28.3833 51.0693 21.8533 62.8893C25.2733 58.9693 31.0333 64.4993 32.9033 71.7593" stroke="#116FAE" stroke-linecap="round" stroke-linejoin="round"/>
<path id="fill-emphasis" d="M76.4929 26.3695C73.9729 27.5295 63.1129 22.1595 59.5129 29.4995C55.9129 36.8395 53.3329 32.4795 50.7329 36.8495C47.3229 42.5595 47.5129 51.8095 50.7329 52.9295C53.9529 54.0395 48.7129 63.4795 57.2729 62.1395C57.2729 62.1395 57.4829 68.4595 64.6329 68.5795C71.7829 68.6995 79.1029 73.4495 81.3929 67.1895C83.6829 60.9295 87.9029 58.6595 89.5929 53.9695C91.2829 49.2695 86.4929 49.3795 88.5429 37.6995C89.7429 30.8395 79.3929 25.0595 76.5029 26.3795L76.4929 26.3695Z" fill="#116FAE" fill-opacity="0.24"/>
</g>
</g>
</svg>
