<svg width="128" height="129" viewBox="0 0 128 129" fill="none" xmlns="http://www.w3.org/2000/svg">
<g id="Pictogram-research">
<g id="Default">
<path id="dash-stroke-default" d="M40.4794 53.0495C36.8094 50.0495 33.8894 38.0095 53.3094 36.0695C74.9994 33.8995 89.4394 33.9295 90.6194 23.1195C91.8094 12.3195 43.1894 2.45945 38.6594 8.47945C31.3394 18.2295 53.6194 17.7595 75.4694 12.5095C90.8594 8.80945 115.809 18.5895 101.139 35.3095M18.6494 102.329C1.64944 77.4495 39.0494 69.4895 77.0694 60.4995C85.0994 58.5995 82.8494 54.4595 73.6794 53.6495" stroke="#494A4A" stroke-linecap="round" stroke-linejoin="round" stroke-dasharray="5 5"/>
<path id="2px-stroke-default" d="M72.9799 23.3795C74.5599 24.2095 73.8699 28.1895 73.0599 28.9595C71.8999 30.0795 68.7299 30.1295 68.7299 30.1295C68.7299 30.1295 63.5599 38.0495 70.7299 55.3795C77.8999 72.7095 94.3899 97.9795 93.3099 106.38C91.6999 118.92 73.9799 121.73 57.3399 121.6C39.8499 121.46 23.4199 117.79 22.9799 106.54C22.3699 90.9695 39.3099 75.3695 45.3599 54.2495C48.9399 41.7195 48.9599 35.7595 47.7099 30.3495C45.3199 29.9295 43.5299 29.2395 42.8999 28.5195C41.8199 27.2695 41.9899 25.0195 42.7299 23.7995C43.8999 21.8795 71.3999 22.5495 72.9799 23.3795Z" stroke="#494A4A" stroke-width="2" stroke-miterlimit="10"/>
<path id="1px-stroke-default" d="M27.6095 92.3394C29.9995 93.8394 34.6195 95.8194 43.1795 95.3794C51.7395 94.9394 59.5695 89.2694 68.5095 89.2094C77.4495 89.1494 89.6294 93.4794 89.6294 93.4794M27.4395 91.3194C31.5795 88.3994 45.7595 84.3794 56.7595 91.7694M55.6095 56.0094C55.6095 58.3094 52.6095 57.4494 52.8095 56.0094C53.1295 53.6594 55.6095 54.6694 55.6095 56.0094ZM82.6595 97.0394C82.6595 100.399 76.6994 100.599 76.4894 96.9294C76.2994 93.6994 82.6595 92.5294 82.6595 97.0394ZM53.8695 64.0894C52.0695 66.5494 48.0595 63.8294 49.8895 61.0394C51.4995 58.5894 56.2895 60.7894 53.8695 64.0894ZM75.3794 102.439C75.3794 104.289 72.0895 104.399 71.9795 102.379C71.8795 100.599 75.3794 99.9494 75.3794 102.439Z" stroke="#494A4A" stroke-miterlimit="10" stroke-linecap="round"/>
<path id="fill-default" d="M23.2992 108.139C28.7792 96.5795 20.0492 95.9395 34.2192 91.2495C48.3892 86.5595 50.1992 91.7195 67.8592 89.6195C89.7692 87.0095 103.559 117.569 72.5292 122.589C42.5892 127.429 19.5492 116.049 23.2992 108.139Z" fill="#494A4A" fill-opacity="0.08"/>
</g>
<g id="Emphasis">
<path id="2px-stroke-emphasis" d="M92.1501 118.69C99.6201 118.69 104.95 118.69 104.95 111.85C104.95 94.0797 104.55 51.1897 104.73 47.9097C104.9 44.7297 108.39 43.8697 107.96 39.2897C98.3401 39.2497 89.9501 39.1297 81.8701 39.3597C81.6701 45.4597 85.9501 44.3897 85.9801 49.8297C85.9801 49.8297 85.7301 74.1097 85.7301 72.3597" stroke="#116FAE" stroke-width="2" stroke-linecap="round" stroke-linejoin="round"/>
<path id="1px-stroke-emphasis" d="M86.5703 69.2698C90.9003 66.7698 93.7403 69.3298 97.1803 69.9898C100.62 70.6498 103.68 69.6298 104.4 68.2798M104.4 66.7898C98.6603 63.6498 100.8 67.8798 91.6303 68.3098M93.8603 60.6498C93.8603 63.1898 89.3603 63.3398 89.2003 60.5698C89.0603 58.1298 93.8603 57.2498 93.8603 60.6498ZM97.7303 54.4698C97.7303 56.7698 94.7303 55.9098 94.9303 54.4698C95.2503 52.1198 97.7303 53.1298 97.7303 54.4698ZM99.1403 74.9898C99.1403 77.2898 96.1403 76.4298 96.3403 74.9898C96.6603 72.6398 99.1403 73.6498 99.1403 74.9898Z" stroke="#116FAE" stroke-miterlimit="10" stroke-linecap="round"/>
<path id="fill-emphasis" d="M86.3105 81.0897C86.3105 77.0697 86.6906 72.4497 87.1506 70.8697C87.6106 69.2897 94.3405 71.7097 97.5705 68.0797C100.801 64.4497 102.281 68.6397 103.211 69.1997C104.141 69.7597 104.081 77.9597 105.171 93.5197C106.291 109.6 108.291 114.03 105.011 116.49C101.721 118.95 89.0105 121.32 88.4305 117.2C87.8505 113.08 91.5706 114.82 92.8706 107.21C94.1706 99.6097 86.3105 85.0997 86.3105 81.0797V81.0897Z" fill="#116FAE" fill-opacity="0.24"/>
</g>
</g>
</svg>
