<svg width="128" height="129" viewBox="0 0 128 129" fill="none" xmlns="http://www.w3.org/2000/svg">
<g id="Pictogram-work-from-home">
<g id="Default">
<path id="dash-stroke-default" d="M39.499 21.3491H39.5" stroke="#494A4A" stroke-width="0.001"/>
<path id="2px-stroke-default" d="M83.6105 21.249C91.8005 21.409 99.2605 21.679 104.98 22.029C111.73 22.439 114.07 24.379 114.9 31.659C116.01 41.929 115.04 67.659 113.09 82.009C112.81 84.039 112.12 87.039 109.61 87.069M20.3205 87.079C17.4805 87.079 16.2905 84.949 16.0005 82.639C14.1905 68.399 13.2805 42.319 14.3805 31.079C14.9605 25.079 17.5805 23.389 22.9905 22.749C28.7805 22.069 36.8505 21.619 45.8505 21.359M114.21 88.369C117.32 91.749 119.96 95.529 122.07 99.619C122.67 101.559 122.96 103.589 122.91 105.619C122.91 108.819 121.93 110.319 118.63 110.979C102.44 114.159 23.9005 113.599 10.5205 110.639C8.22045 110.069 6.60045 108.019 6.56045 105.659C6.34045 103.689 6.42045 101.699 6.80045 99.759C7.29045 98.039 12.1005 90.649 14.7105 88.149C15.5605 87.329 18.3305 87.159 20.7905 87.039C32.2705 86.709 90.6404 86.739 108.28 87.039C110.95 87.129 112.66 86.839 114.22 88.369H114.21Z" stroke="#494A4A" stroke-width="2" stroke-linecap="round" stroke-linejoin="round"/>
<path id="1px-stroke-default" d="M108.891 67.0092C108.731 78.9692 108.171 80.1992 103.781 80.1992M39.4105 27.4092C30.9905 27.8392 27.6605 28.0392 24.3405 28.3892M7.98052 98.3992C6.67052 100.459 7.31052 102.109 10.0005 102.519C28.2905 105.369 99.4805 105.479 118.741 102.279C121.481 101.809 121.511 99.5492 120.121 97.1192M22.4405 93.5292C24.4105 93.5292 30.9305 93.1592 35.0805 93.4092M42.5705 93.4192C47.6705 93.6192 49.1205 93.3392 52.2205 93.5192M59.5305 93.4192C64.6405 93.6192 66.0905 93.3392 69.1905 93.5192M76.5105 93.4692C79.5105 93.5792 84.6805 93.5792 85.9105 93.4692M93.4505 93.5292C96.3905 93.3692 104.551 93.3692 107.061 93.5292M18.6005 98.7692C21.6005 99.0092 26.3005 99.0092 29.9605 99.0092M99.4705 99.0492C103.111 99.0492 108.091 99.0492 110.741 98.9292M41.3105 104.399C42.2205 101.499 43.6505 99.2592 44.9505 99.1692C49.4805 98.8492 79.5505 98.7692 84.2205 99.1692C85.7805 99.2992 87.7905 102.949 88.0505 104.339" stroke="#494A4A" stroke-linecap="round" stroke-linejoin="round"/>
<path id="fill-default" d="M120 89.849C123.13 93.569 123.87 97.329 126 101.849C126.61 103.989 126.04 108.339 126 110.589C126 114.099 125.02 115.759 121.64 116.489C105.28 119.999 25.9804 119.379 12.4604 116.109C10.1704 115.509 8.52036 113.259 8.46036 110.619C8.24036 108.449 8.32036 106.249 8.71036 104.109C9.20036 102.209 14.0604 94.069 16.7004 91.329C17.5704 90.419 20.3504 90.229 22.8404 90.109C34.4404 89.739 93.1704 87.519 111.01 87.859C113.72 87.979 118.44 88.219 120.01 89.859L120 89.849Z" fill="#494A4A" fill-opacity="0.08"/>
</g>
<g id="Emphasis">
<path id="2px-stroke-emphasis" d="M90.6895 41.899C86.9695 36.589 74.8295 22.779 69.5595 19.209C64.7795 15.979 61.8895 16.019 57.1795 19.599C51.4195 23.979 40.5995 35.829 36.9095 41.659C34.6395 45.259 41.5395 45.559 41.5295 46.599C41.4895 53.209 41.3495 59.769 42.0395 63.079C42.7595 66.499 44.0195 68.119 48.0495 68.489C56.1995 69.239 77.1295 68.949 80.5895 68.339C83.5695 67.809 84.9495 65.469 85.2995 62.989C86.1695 56.719 85.7595 50.319 86.0195 46.409C86.1595 44.379 92.5295 44.499 90.6995 41.889L90.6895 41.899Z" stroke="#116FAE" stroke-width="2" stroke-linecap="round" stroke-linejoin="round"/>
<path id="1px-stroke-emphasis" d="M51.5 68.5592C53.38 68.4392 54.94 66.7592 54.96 64.5592C55 61.2292 55.05 52.1492 55.59 50.5692C56.04 49.2692 56.63 48.4892 58 48.2692C60.98 47.7992 66 47.7292 68.77 48.1292C70.78 48.4192 71.7 49.9992 71.95 51.0792C72.57 53.7592 72.25 62.2391 72.53 65.2691C72.72 67.3291 73.93 68.5792 75.45 68.6792" stroke="#116FAE" stroke-linecap="round" stroke-linejoin="round"/>
<path id="fill-emphasis" d="M81.0692 24.1891C78.9692 22.3291 65.8792 13.2091 58.9092 24.6291C53.9092 32.8191 47.1792 36.1091 44.6892 40.6691C42.4292 44.8091 47.7992 42.0391 46.6792 53.9691C45.6792 64.6191 48.0292 69.9591 50.8492 70.8591C53.6292 71.7491 79.4492 73.5991 83.2292 72.0391C87.0092 70.4791 89.7892 66.1491 89.6892 60.1491C89.5792 54.1491 90.2392 53.1391 90.2492 50.3691C90.2492 46.6491 94.2892 44.6091 93.7592 42.0391C92.2192 34.5691 85.1292 27.7691 81.0792 24.1891H81.0692Z" fill="#116FAE" fill-opacity="0.24"/>
</g>
</g>
</svg>
