<svg width="129" height="129" viewBox="0 0 129 129" fill="none" xmlns="http://www.w3.org/2000/svg">
<g id="Pictogram-gift">
<g id="Default">
<path id="dash-stroke-default" d="M17.4883 96.522H17.4893" stroke="#494A4A" stroke-width="0.001"/>
<path id="2px-stroke-default" d="M15.3497 75.9095C39.5597 80.2095 83.4997 80.0595 111.07 76.3295M68.2697 45.8895C59.8197 45.8795 55.0397 45.9095 46.9597 46.0195M13.2797 46.9095C10.4397 49.5195 7.2497 67.9495 10.7597 72.4295C13.1797 75.5195 16.4297 76.1195 17.2097 77.5695C17.9897 79.0195 16.1797 116.65 18.8897 118.68C21.5997 120.71 106.48 120.42 108.75 117.67C111.02 114.92 108.65 80.1595 108.75 77.4495C108.82 75.4495 116.27 77.7995 117.21 70.6995C118.33 62.2295 116.66 46.9295 110.35 46.4595C108.95 46.3595 107.21 46.0295 102.33 46.3195" stroke="#494A4A" stroke-width="2" stroke-linecap="round" stroke-linejoin="round"/>
<path id="1px-stroke-default" d="M22.6191 107.719C22.6191 114.349 24.0191 115.079 30.3091 114.819" stroke="#494A4A" stroke-linecap="round" stroke-linejoin="round"/>
<g id="fill-default">
<path d="M31.2593 119.38C26.2193 113.43 30.1893 79.7995 29.5093 78.3495C28.8193 76.8895 21.6693 75.7595 19.5593 72.6695C16.4993 68.1795 16.9293 51.4695 23.8093 50.2595C33.1493 48.6195 50.2293 47.7995 51.2593 52.1695C50.2493 59.2895 49.4993 70.4895 49.5593 76.6895C49.5893 79.4195 51.7393 78.5095 52.6693 79.8795C54.8693 86.1795 53.3493 112.42 52.3693 119.37C47.8093 119.96 35.1993 119.63 31.2593 119.37V119.38Z" fill="#494A4A" fill-opacity="0.08"/>
<path d="M74.3493 120C77.9993 104.85 75.0593 81.3195 76.0493 79.8295C77.0393 78.3395 77.7393 56.2495 76.7193 49.6095C90.7193 45.0995 116.569 47.8695 117.979 47.9795C124.279 48.4495 129.289 64.0395 128.169 72.4995C127.229 79.5995 119.779 77.2595 119.709 79.2595C119.619 81.9595 121.909 117.6 112.859 121.81C107.619 124.25 73.0093 120.38 74.3493 120Z" fill="#494A4A" fill-opacity="0.08"/>
</g>
</g>
<g id="Emphasis">
<path id="2px-stroke-emphasis" d="M63.7796 43.8896C63.7796 43.8896 55.4796 12.8396 29.8296 12.8396C16.7796 12.8396 8.53963 36.0696 51.1896 44.9596M65.3996 44.1896C65.3996 44.1896 74.5096 14.5096 96.1496 15.6996C102.37 16.0396 107.9 24.2996 101.85 32.9096M44.7296 43.3996C39.7096 43.7096 22.9196 42.3196 12.5196 32.4496C11.3996 31.3896 9.57963 31.6696 8.75963 32.9896C6.99963 35.8196 4.61963 40.1396 5.28963 41.8996C6.31963 44.6196 24.8296 52.2296 51.1796 44.9596M64.2596 43.7596C61.0596 26.9796 65.3696 17.7496 67.1496 17.0696C68.3796 16.6096 71.3896 18.2696 73.3696 19.5096C74.2796 20.0896 74.4796 21.3596 73.7396 22.1496C66.8496 29.4496 65.7796 41.1296 65.9896 44.6496C90.1196 36.3796 98.5196 27.0096 96.8896 21.1296C96.0696 18.1596 90.9696 15.2796 81.7496 19.9796M65.5196 44.6496C37.9696 35.2096 27.4496 20.5596 29.2596 17.5596C31.0696 14.5496 36.3396 13.3896 45.7596 17.6296M106.13 33.1496C107.89 35.9796 110.27 40.2996 109.6 42.0596C108.57 44.7796 95.4296 52.0296 65.5196 44.6396M67.0196 44.2896C72.0396 44.5996 91.9796 42.4796 102.38 32.6096C103.5 31.5496 105.32 31.8296 106.14 33.1496" stroke="#116FAE" stroke-width="2" stroke-linecap="round" stroke-linejoin="round"/>
<path id="1px-stroke-emphasis" d="M53.8396 79.3997C54.7096 97.6397 53.4596 114.92 53.0596 119.38M51.8496 45.9597C52.0596 49.6297 51.0396 66.2597 50.6396 78.3497M72.7696 79.1297C71.7496 96.8797 72.9897 115.1 73.3797 119.57M75.7196 47.6697C75.5096 51.3397 76.0796 67.2097 76.4396 78.3497" stroke="#116FAE" stroke-linecap="round" stroke-linejoin="round"/>
<g id="fill-emphasis">
<path d="M73.3894 119.57C69.9094 121.51 63.2794 119.38 53.0694 119.95C54.1494 113.48 53.8493 79.3997 53.8493 79.3997C53.8493 79.3997 53.4893 78.3497 50.6493 78.3497C47.2193 78.3497 51.8793 49.5497 51.8793 49.5497C51.8793 49.5497 72.3793 49.6497 75.6693 47.6797C78.0993 48.8397 78.8493 68.8397 76.8594 75.9197C75.7894 79.7297 72.6593 80.5097 72.6593 80.5097C72.6593 80.5097 75.6593 105.46 73.3693 119.58L73.3894 119.57Z" fill="#116FAE" fill-opacity="0.24"/>
<path d="M65.3993 43.4097C64.8393 45.0697 60.9793 44.6897 58.9893 44.8197H51.7794C9.13935 35.9197 23.8293 9.87968 38.4693 13.8697C35.7093 19.4197 33.4893 36.4397 65.3993 43.4197V43.4097Z" fill="#116FAE" fill-opacity="0.24"/>
<path d="M17.5593 31.4497C16.4893 30.1897 14.7493 30.5297 13.9793 32.0797C12.2993 35.4397 10.0293 40.5497 10.6693 42.6397C11.3993 45.0497 32.0993 50.6597 47.2994 44.6397C32.3194 44.1897 21.6993 36.3197 17.5593 31.4497Z" fill="#116FAE" fill-opacity="0.24"/>
<path d="M107.219 29.7497C116.109 29.9297 114.879 41.8897 114.269 43.0297C111.319 48.4997 87.0593 52.0897 67.7993 44.6497C97.7593 43.2097 107.159 34.8697 104.769 32.6097C97.6493 39.0097 83.6394 43.7597 69.3393 42.8597C87.1693 37.8597 103.399 22.1797 100.329 16.6597C106.129 19.0497 109.049 25.9997 107.219 29.7497Z" fill="#116FAE" fill-opacity="0.24"/>
</g>
</g>
</g>
</svg>
