<svg width="129" height="129" viewBox="0 0 129 129" fill="none" xmlns="http://www.w3.org/2000/svg">
<g id="Pictogram-community">
<g id="Default">
<path id="dash-stroke-default" d="M52.4922 74.5498H52.4932" stroke="#494A4A" stroke-width="0.001"/>
<path id="2px-stroke-default" d="M70.9641 92.7199C70.9641 102.69 82.1541 101.68 88.1341 105.58C90.6841 107.24 92.4941 114.41 92.4941 119.17C92.4941 126.42 36.4941 126.42 36.4941 119.17C36.4941 114.72 38.0841 107.56 40.3741 105.91C46.2841 101.64 57.8641 103.27 57.8641 92.7199M29.5741 67.0599C29.5741 75.0499 38.3641 74.2399 43.0641 77.3699C45.0641 78.6999 46.4941 84.4499 46.4941 88.2599C46.4941 94.0699 2.49414 94.0699 2.49414 88.2599C2.49414 84.6899 3.74414 78.9599 5.54414 77.6299C10.1841 74.2099 19.2941 75.5199 19.2941 67.0599M109.704 67.0599C109.704 75.5199 118.804 74.2099 123.454 77.6299C125.254 78.9599 126.504 84.6899 126.504 88.2599C126.504 94.0699 82.5041 94.0699 82.5041 88.2599C82.5041 84.4399 83.9341 78.6999 85.9341 77.3699C90.6341 74.2499 99.4241 75.0499 99.4241 67.0599M64.4941 94.8499C70.2041 94.8499 76.4941 88.2199 76.4941 75.3699C76.4941 65.5699 71.9241 60.8299 64.4941 60.8299C57.0641 60.8299 52.4941 65.5599 52.4941 75.3699C52.4941 88.2199 58.7841 94.8499 64.4941 94.8499ZM24.4941 68.6899C29.2541 68.6899 34.4941 63.6099 34.4941 53.7599C34.4941 46.2399 30.6841 42.6199 24.4941 42.6199C18.3041 42.6199 14.4941 46.2499 14.4941 53.7599C14.4941 63.6099 19.7341 68.6899 24.4941 68.6899ZM114.494 53.7599C114.494 46.2399 110.684 42.6199 104.494 42.6199C98.3041 42.6199 94.4941 46.2499 94.4941 53.7599C94.4941 63.6099 99.7341 68.6899 104.494 68.6899C109.254 68.6899 114.494 63.6099 114.494 53.7599Z" stroke="#494A4A" stroke-width="2" stroke-miterlimit="10" stroke-linecap="round"/>
<path id="1px-stroke-default" d="M34.4946 20.6099C26.9146 22.9499 26.3446 28.6299 25.4346 35.5199M94.4946 20.6099C102.075 22.9499 102.645 28.6299 103.555 35.5199M63.5946 48.6099V53.8099" stroke="#494A4A" stroke-miterlimit="10" stroke-linecap="round"/>
<path id="fill-default" fill-rule="evenodd" clip-rule="evenodd" d="M92.6645 109.69C86.7645 105.85 73.4845 104.82 73.2945 95.5499C77.3945 93.0899 80.7245 87.0398 81.2445 78.1098C81.7845 68.7998 79.2545 64.1198 71.4545 63.6498C63.6545 63.1798 58.5945 67.3899 58.0545 76.6999C57.3445 88.8999 60.6245 95.6498 66.6245 96.0098C67.2745 96.0499 62.8645 96.0299 62.8645 96.0299C62.6745 106.25 53.1045 103.78 47.0545 107.8C44.7145 109.36 40.5745 116.2 40.4945 120.51C40.3445 128.62 93.4845 130.68 95.8545 122.35C96.6745 117.62 95.2145 111.34 92.6645 109.69Z" fill="#494A4A" fill-opacity="0.08"/>
</g>
<g id="Emphasis">
<path id="2px-stroke-emphasis" d="M68.0842 8.61991C59.4842 -1.42009 43.0342 1.02991 43.0342 16.9799C43.0342 32.9299 57.8342 42.4899 63.7642 42.4899C68.9742 42.4899 84.4942 32.9199 84.4942 16.9799C84.4942 2.62991 73.1742 0.149914 63.5842 4.47991" stroke="#116FAE" stroke-width="2" stroke-linecap="round" stroke-linejoin="round"/>
<path id="1px-stroke-emphasis" d="M52.4043 9.29004C50.1143 9.79004 48.6343 11.92 48.3643 14.56" stroke="#116FAE" stroke-linecap="round" stroke-linejoin="round"/>
<path id="fill-emphasis" d="M69.8741 6.72996C62.9441 -4.08004 51.7141 1.79996 50.4641 18.03C49.2141 34.26 61.7341 45.02 67.0541 45.43C71.7241 45.79 86.3941 37.12 87.6441 20.89C88.7641 6.27996 78.8041 2.96996 69.8741 6.71996" fill="#116FAE" fill-opacity="0.24"/>
</g>
</g>
</svg>
