<svg width="129" height="129" viewBox="0 0 129 129" fill="none" xmlns="http://www.w3.org/2000/svg">
<g id="Pictogram-laptop-statistics">
<g id="Default">
<path id="dash-stroke-default" d="M11.4746 67.0718H11.4756" stroke="#494A4A" stroke-width="0.001"/>
<path id="2px-stroke-default" d="M17.3578 85.6995C14.3578 85.6995 13.1478 83.4795 12.8378 81.0695C10.9578 66.1295 10.0078 38.8795 11.1478 27.1295C11.7578 20.8495 14.4978 19.1295 20.1478 18.4095C39.7578 16.0795 84.4678 16.3495 105.898 17.6695C112.898 18.0995 115.408 20.1295 116.268 27.7395C117.488 38.4895 116.418 65.3995 114.378 80.3995C114.088 82.5195 113.378 85.6595 110.738 85.6995M115.548 87.0195C118.438 89.7895 122.408 95.9495 123.768 98.7895C124.458 100.23 124.658 103.65 124.658 105.07C124.658 108.41 123.658 109.99 120.168 110.67C103.238 114 21.0878 113.41 7.0878 110.31C4.6778 109.78 3.1978 107.74 2.9478 105.1C2.7078 103.04 2.7978 100.95 3.2078 98.9195C3.7078 97.1195 8.7478 89.3995 11.4778 86.7895C12.3778 85.9295 15.2678 85.7895 17.8378 85.6795C29.8378 85.3295 90.8878 85.3595 109.338 85.6795C112.148 85.7595 113.938 85.4595 115.548 87.0195Z" stroke="#494A4A" stroke-width="2" stroke-linecap="round" stroke-linejoin="round"/>
<path id="1px-stroke-default" d="M80.3871 30.7695L93.0271 35.8395M47.8271 46.3695L68.1671 31.6795M36.6971 44.3495L40.7571 45.9795M111.387 66.9195C111.287 74.1795 110.927 78.5695 109.847 80.2095C109.067 81.3895 105.467 81.7395 103.547 81.7395M14.9771 49.4495C14.9771 54.3095 15.4471 61.4295 15.6471 64.9095M4.42709 97.4195C3.05709 99.5695 4.27709 101.4 7.07709 101.83C26.2071 104.83 99.6971 104.96 119.827 101.62C122.697 101.14 123.257 98.7595 121.787 96.2295M19.5971 92.4495C21.6671 92.4495 28.4771 92.0695 32.8171 92.3295M40.6271 92.3395C45.9671 92.5395 47.4771 92.2595 50.7271 92.4395M58.3771 92.3395C63.7171 92.5395 65.2371 92.2595 68.4771 92.4395M76.1271 92.3895C79.2671 92.4995 84.6671 92.4995 85.9471 92.3895M93.8171 92.4595C96.8971 92.2895 105.477 92.2895 108.057 92.4595M15.5471 97.9295C18.6771 98.1895 23.6071 98.1895 27.4371 98.1895M100.147 98.2195C103.947 98.2195 109.147 98.2195 111.927 98.0895M39.2871 103.82C40.2871 100.82 41.7371 98.4395 43.0971 98.3495C47.8371 98.0095 79.2871 97.9295 84.1771 98.3495C85.7971 98.4795 87.9071 102.35 88.1771 103.76M47.8271 48.0795C47.8271 50.1396 46.1616 51.8095 44.1071 51.8095C42.0526 51.8095 40.3871 50.1396 40.3871 48.0795C40.3871 46.0195 42.0526 44.3495 44.1071 44.3495C46.1616 44.3495 47.8271 46.0195 47.8271 48.0795ZM100.497 37.7195C100.497 39.5863 98.8271 41.0995 96.7671 41.0995C94.7071 41.0995 93.0371 39.5863 93.0371 37.7195C93.0371 35.8528 94.7071 34.3395 96.7671 34.3395C98.8271 34.3395 100.497 35.8528 100.497 37.7195ZM60.1771 56.6795C59.8971 55.7095 54.9371 55.5795 54.4671 56.5695C53.9971 57.5595 53.8471 73.3595 54.2071 74.4795C54.5671 75.5995 59.7371 75.1995 60.0971 74.4795C60.4571 73.7595 60.4571 57.6595 60.1771 56.6795ZM92.0071 62.9795C91.3371 61.6395 86.7771 61.6795 86.3171 62.4795C85.8571 63.2795 85.4771 73.0495 86.0571 73.7995C86.6371 74.5495 91.1471 74.7595 91.9371 73.7995C92.7271 72.8395 92.4771 63.9195 92.0071 62.9795ZM64.6471 60.6695C64.7071 59.6695 69.2371 59.4795 69.8271 60.2295C70.4171 60.9795 70.3271 73.9995 70.0671 74.6695C69.8071 75.3395 64.9371 75.2795 64.7371 74.6695C64.2271 73.0395 64.5571 62.0095 64.6471 60.6695ZM44.1771 64.6795C44.2371 63.6795 48.7671 63.4895 49.3571 64.2395C49.9471 64.9895 49.8571 73.9995 49.5971 74.6695C49.3371 75.3395 44.4671 75.2795 44.2671 74.6695C43.7571 73.0395 44.0871 66.0195 44.1771 64.6795ZM34.6871 70.3695C34.8171 69.5895 39.5571 69.4495 39.8671 69.9295C40.1771 70.4095 40.3971 73.9095 40.1071 74.6795C39.8171 75.4495 35.2371 75.2395 34.7771 74.6795C34.3171 74.1195 34.5571 71.1595 34.6871 70.3695Z" stroke="#494A4A" stroke-linecap="round" stroke-linejoin="round"/>
<path id="fill-default" d="M119.058 90.4495C121.918 93.2195 125.728 99.3795 127.098 102.22C127.778 103.66 127.968 107.08 127.968 108.5C127.968 111.84 127.018 113.41 123.588 114.09C107.018 117.43 26.5978 116.83 12.8978 113.74C10.5678 113.17 8.90781 111.03 8.83781 108.52C8.61781 106.46 8.6978 104.38 9.0978 102.35C9.59781 100.55 14.5178 92.8295 17.1878 90.2195C18.0778 89.3595 20.9078 89.2195 23.4178 89.1095C35.1778 88.7595 94.8978 88.7895 113.008 89.1095C115.728 89.1795 117.468 88.8895 119.058 90.4495Z" fill="#494A4A" fill-opacity="0.08"/>
</g>
<g id="Emphasis">
<g id="2px-stroke-emphasis">
<path d="M32.2288 37.8994C28.7788 34.2594 23.6788 41.0794 27.1588 42.8994C30.0688 44.4294 35.6788 41.5394 32.2288 37.8994Z" stroke="#116FAE" stroke-width="2" stroke-linecap="round" stroke-linejoin="round"/>
<path d="M69.5888 28.4294C69.0888 33.8094 77.1788 31.9894 76.7688 28.0894C76.4188 24.8094 70.0888 23.0494 69.5888 28.4294Z" stroke="#116FAE" stroke-width="2" stroke-linecap="round" stroke-linejoin="round"/>
<path d="M81.5288 55.7094C81.4588 53.4494 76.4588 52.9194 75.7988 54.7094C75.0488 56.7094 75.2588 72.1694 75.5388 73.7094C75.8188 75.2494 81.2088 75.1494 81.4288 73.7094C81.9988 69.8594 81.6288 58.8794 81.5288 55.7094Z" stroke="#116FAE" stroke-width="2" stroke-linecap="round" stroke-linejoin="round"/>
</g>
<g id="1px-stroke-emphasis">
<path d="M32.2288 37.8994C28.7788 34.2594 23.6788 41.0794 27.1588 42.8994C30.0688 44.4294 35.6788 41.5394 32.2288 37.8994Z" stroke="#116FAE" stroke-width="2" stroke-linecap="round" stroke-linejoin="round"/>
<path d="M69.5888 28.4294C69.0888 33.8094 77.1788 31.9894 76.7688 28.0894C76.4188 24.8094 70.0888 23.0494 69.5888 28.4294Z" stroke="#116FAE" stroke-width="2" stroke-linecap="round" stroke-linejoin="round"/>
<path d="M81.5288 55.7094C81.4588 53.4494 76.4588 52.9194 75.7988 54.7094C75.0488 56.7094 75.2588 72.1694 75.5388 73.7094C75.8188 75.2494 81.2088 75.1494 81.4288 73.7094C81.9988 69.8594 81.6288 58.8794 81.5288 55.7094Z" stroke="#116FAE" stroke-width="2" stroke-linecap="round" stroke-linejoin="round"/>
</g>
<g id="fill-emphasis">
<path d="M77.5189 57.5395C77.5989 55.3495 83.2989 54.8395 84.0589 56.5495C84.9189 58.5395 84.6789 73.4995 84.3489 75.0395C84.0189 76.5795 77.8489 76.4395 77.6289 75.0495C76.9889 71.3095 77.3989 60.6295 77.5189 57.5395Z" fill="#116FAE" fill-opacity="0.24"/>
<path d="M36.3889 40.6095C36.3889 38.5495 34.9489 37.3295 32.5489 37.3295C30.5989 37.2595 28.9489 38.7795 28.8789 40.7295C28.8789 40.8795 28.8789 41.0195 28.8889 41.1695C28.8889 43.0295 29.6489 44.3495 32.0489 44.3495C34.4489 44.3495 36.3889 42.6795 36.3889 40.6095Z" fill="#116FAE" fill-opacity="0.24"/>
<path d="M73.5689 26.2795C71.6589 27.5595 71.3889 29.6195 72.8289 31.7695C74.2689 33.9195 76.6389 33.9795 78.5989 32.6795C80.3189 31.5295 81.0889 30.0195 79.5989 27.8695C78.3589 25.7895 75.6789 25.0795 73.5689 26.2795Z" fill="#116FAE" fill-opacity="0.24"/>
</g>
</g>
</g>
</svg>
