<svg width="128" height="129" viewBox="0 0 128 129" fill="none" xmlns="http://www.w3.org/2000/svg">
<g id="Pictogram-file-checked">
<g id="Default">
<path id="dash-stroke-default" d="M7.49707 64.5996H7.49807" stroke="#494A4A" stroke-width="0.001"/>
<path id="2px-stroke-default" d="M60.5103 27.4196C60.5103 27.4196 59.2203 26.0996 58.0003 26.3696C56.7803 26.6396 56.4003 28.2696 55.4203 28.3696C52.4803 28.6196 49.4203 29.6496 49.1803 30.1996M72.2803 25.0996C71.7603 23.6896 71.2803 22.5196 70.8903 21.6396C68.6403 16.7996 63.8903 13.1196 57.8903 13.7796C48.5903 15.0096 39.3803 16.8896 30.3403 19.3896C25.8103 20.6496 24.5803 22.6996 24.1903 25.9396C23.8403 28.8096 24.7203 31.6696 24.8403 35.6696C25.0003 40.7396 22.7503 43.7396 18.9203 45.6696C15.7403 47.2996 13.5603 47.8496 10.8103 49.0696C6.86032 50.8596 5.43032 53.0996 6.22032 58.3696C8.49032 73.6996 15.7003 97.2096 21.1403 111.75C22.8403 116.29 24.6103 123.01 34.9003 121.62C44.9503 120.25 74.4403 113.45 82.6003 109.26C87.5303 106.78 90.5003 101.6 90.1603 96.0996C89.9303 92.8696 88.4203 85.3596 86.3203 76.2596M29.0003 19.8396C24.2203 21.5196 19.5603 23.8396 13.0003 35.2996C7.73032 44.4696 5.59032 48.1696 6.00032 56.4396M20.2903 61.9196C20.2903 61.9196 21.2903 58.3996 23.7103 57.9196C26.1303 57.4396 28.5903 60.6196 29.8803 59.4596C33.6403 56.1096 33.4203 59.5296 35.6003 58.4596C37.7803 57.3896 42.9203 54.3996 43.9503 55.5096C45.7103 57.3796 48.7803 56.7196 48.7803 56.7196M23.8803 75.0996C26.4603 74.6796 29.5603 76.7596 30.7903 76.0996C33.3903 74.7096 35.1503 72.2396 38.3403 73.7896C40.2503 74.7096 45.6303 72.9896 45.6303 72.9896M52.6103 70.9396C52.6103 70.9396 53.2303 68.8496 54.6903 68.5396C56.1503 68.2296 57.3303 69.6896 58.3903 69.2596C61.5503 67.9996 65.2803 67.4696 65.7803 67.9296M27.0003 86.0396C27.0003 86.0396 30.6603 85.2596 32.6503 87.0396C33.8203 88.0396 40.0603 84.9296 42.7003 83.7796C45.3403 82.6296 44.9103 85.9596 49.5203 82.5296C51.1103 81.3496 53.4203 82.7196 56.3003 82.1096C59.1803 81.4996 59.1603 79.7796 59.1603 79.7796C60.1603 78.3596 62.0703 80.2096 63.6003 79.7796C65.1303 79.3496 66.4603 77.5996 68.0303 77.5596" stroke="#494A4A" stroke-width="2" stroke-linecap="round" stroke-linejoin="round"/>
<path id="1px-stroke-default" d="M60.5103 27.4196C60.5103 27.4196 59.2203 26.0996 58.0003 26.3696C56.7803 26.6396 56.4003 28.2696 55.4203 28.3696C52.4803 28.6196 49.4203 29.6496 49.1803 30.1996M72.2803 25.0996C71.7603 23.6896 71.2803 22.5196 70.8903 21.6396C68.6403 16.7996 63.8903 13.1196 57.8903 13.7796C48.5903 15.0096 39.3803 16.8896 30.3403 19.3896C25.8103 20.6496 24.5803 22.6996 24.1903 25.9396C23.8403 28.8096 24.7203 31.6696 24.8403 35.6696C25.0003 40.7396 22.7503 43.7396 18.9203 45.6696C15.7403 47.2996 13.5603 47.8496 10.8103 49.0696C6.86032 50.8596 5.43032 53.0996 6.22032 58.3696C8.49032 73.6996 15.7003 97.2096 21.1403 111.75C22.8403 116.29 24.6103 123.01 34.9003 121.62C44.9503 120.25 74.4403 113.45 82.6003 109.26C87.5303 106.78 90.5003 101.6 90.1603 96.0996C89.9303 92.8696 88.4203 85.3596 86.3203 76.2596M29.0003 19.8396C24.2203 21.5196 19.5603 23.8396 13.0003 35.2996C7.73032 44.4696 5.59032 48.1696 6.00032 56.4396M20.2903 61.9196C20.2903 61.9196 21.2903 58.3996 23.7103 57.9196C26.1303 57.4396 28.5903 60.6196 29.8803 59.4596C33.6403 56.1096 33.4203 59.5296 35.6003 58.4596C37.7803 57.3896 42.9203 54.3996 43.9503 55.5096C45.7103 57.3796 48.7803 56.7196 48.7803 56.7196M23.8803 75.0996C26.4603 74.6796 29.5603 76.7596 30.7903 76.0996C33.3903 74.7096 35.1503 72.2396 38.3403 73.7896C40.2503 74.7096 45.6303 72.9896 45.6303 72.9896M52.6103 70.9396C52.6103 70.9396 53.2303 68.8496 54.6903 68.5396C56.1503 68.2296 57.3303 69.6896 58.3903 69.2596C61.5503 67.9996 65.2803 67.4696 65.7803 67.9296M27.0003 86.0396C27.0003 86.0396 30.6603 85.2596 32.6503 87.0396C33.8203 88.0396 40.0603 84.9296 42.7003 83.7796C45.3403 82.6296 44.9103 85.9596 49.5203 82.5296C51.1103 81.3496 53.4203 82.7196 56.3003 82.1096C59.1803 81.4996 59.1603 79.7796 59.1603 79.7796C60.1603 78.3596 62.0703 80.2096 63.6003 79.7796C65.1303 79.3496 66.4603 77.5996 68.0303 77.5596" stroke="#494A4A" stroke-width="2" stroke-linecap="round" stroke-linejoin="round"/>
<path id="fill-default" d="M24.3503 40.8096C25.1403 38.5596 28.0503 46.0796 16.9203 55.9996C11.8103 60.5596 15.7203 81.0196 13.3003 88.0896C11.7303 92.6596 10.0503 72.5296 8.77026 67.0696C7.48026 61.6096 3.77026 54.8196 8.33026 51.4996C12.8903 48.1796 22.1703 47.0296 24.3603 40.7996L24.3503 40.8096Z" fill="#494A4A" fill-opacity="0.08"/>
</g>
<g id="Emphasis">
<path id="2px-stroke-emphasis" d="M49.7895 105.34C47.6095 105.22 49.3195 108.56 44.8895 106.85C43.3695 106.25 42.4895 108.67 40.3895 109.21C39.2595 109.57 38.0395 109.02 37.5595 107.94C36.3095 106.85 35.8895 109.58 34.7095 109.75C33.5295 109.92 31.9495 108.63 30.9395 109.23M80.0995 93.4397C77.9695 94.2197 77.0295 99.5597 75.7295 99.1497C72.9795 98.3097 70.1695 95.1497 68.8295 99.6297C68.0195 102.3 63.0595 102.53 63.0595 102.53M118.709 53.9997C115.149 67.1697 102.539 74.6697 88.4095 71.4197C74.2795 68.1697 67.4395 54.2997 70.9995 41.0997C74.5595 27.8997 86.0895 19.5697 101.299 23.6797C114.479 27.2397 122.269 40.7997 118.719 53.9797V53.9997H118.709ZM83.4595 45.7697C83.0095 44.8297 88.6795 42.8597 89.0395 43.4497C89.8595 45.0097 90.5695 46.6197 91.1595 48.2797C91.6495 49.4597 92.5095 49.7497 93.1595 48.7997C96.2695 44.7197 99.9395 41.0897 104.039 38.0097C105.409 37.0797 109.039 41.7497 108.039 42.4297C103.039 46.1197 98.1695 51.4297 93.9295 56.8197C93.4095 57.6697 92.3695 58.0497 91.4295 57.7197C90.4095 57.5197 89.3995 57.2297 88.4295 56.8497C87.7295 56.5397 87.2095 55.9297 86.9995 55.1897C86.0195 51.9797 84.8395 48.8297 83.4595 45.7697Z" stroke="#116FAE" stroke-width="2" stroke-linecap="round" stroke-linejoin="round"/>
<path id="1px-stroke-emphasis" d="M113 35.8196C110.43 31.5896 106.45 28.3996 101.76 26.8196" stroke="#116FAE" stroke-linecap="round" stroke-linejoin="round"/>
<path id="fill-emphasis" d="M120.15 55.0997C123.15 42.8097 115.389 30.1497 102.77 26.8097C90.1495 23.4697 77.4695 30.6997 74.4495 42.9797C71.4295 55.2597 79.2095 67.9797 91.8295 71.2797C104.45 74.5797 117.13 67.3597 120.15 55.0997ZM110.8 43.5697C106.63 46.6797 101.15 51.8297 96.4595 55.9397C92.9895 58.9397 91.3995 58.6297 89.8895 57.1697C87.7395 55.0997 83.1295 46.0197 83.4295 45.0997C83.7295 44.1797 86.7495 43.9497 86.7495 43.9497C87.8695 44.7597 89.9295 49.0997 91.0795 51.3197C94.8995 45.2597 98.6095 42.3197 104.61 39.9697C105.64 39.6097 114.69 40.6697 110.8 43.5697Z" fill="#116FAE" fill-opacity="0.24"/>
</g>
</g>
</svg>
