<svg width="128" height="128" viewBox="0 0 128 128" fill="none" xmlns="http://www.w3.org/2000/svg">
<g id="Pictogram-add-invoice">
<g id="Default">
<path id="dash-stroke-default" d="M11.498 52.5H11.499" stroke="#494A4A" stroke-width="0.001"/>
<path id="2px-stroke-default" d="M110.81 75.7799C113.88 58.0799 116.33 34.2899 115.98 27.6999C115.73 23.0899 113.06 18.5899 107.99 17.1799C103.41 15.9099 94.86 14.7099 92.21 14.2999M43.56 49.3499C40.35 47.3899 37.49 50.4099 37.49 50.4099L34.43 49.3599C34.43 49.3599 34.87 52.4699 31.99 53.2699C29.11 54.0699 25.79 52.0099 25.79 52.0099M77.88 43.7999C77.88 43.7999 74.93 44.3599 73.3 42.5399C72.33 41.4699 67.36 44.2099 65.26 45.1899C63.16 46.1799 63.43 42.9099 59.78 46.0399M31.02 64.5199C32.7 64.0799 35.15 65.9699 35.88 65.3399C37.41 64.0099 38.21 61.6799 40.63 63.0699C42.07 63.8999 45.45 62.2099 45.45 62.2099M80.59 55.1099C80.23 54.6399 77.74 54.8699 75.65 55.8299C74.95 56.1499 74.1 54.6999 73.12 54.8799C72.14 55.0599 71.81 56.9899 71.81 56.9899L68.53 55.1699C68.53 55.1699 65.86 57.8399 65.86 57.9499C65.86 58.0599 64.94 58.1699 63.93 57.9499M73.13 68.0199C74.55 68.3199 76.84 67.8699 77.49 67.3899C78.79 66.4299 82.31 67.6699 83.37 66.3499M33.02 74.2499C36.08 73.8099 39.33 76.0699 40.81 75.3299C43.92 73.7699 46.48 70.3299 50.15 73.0099C51.75 74.5499 52.81 71.9399 52.81 71.9399M38.99 9.25988C33.59 10.6999 28.25 12.8999 20.04 24.9199C13.45 34.5799 10.77 38.4599 10.54 47.6199M96.43 70.5399C93.01 49.0399 87.86 22.5199 85.01 14.8599C82.95 9.32988 78.01 4.86988 71.34 5.07988C63.31 5.33988 50.02 7.02988 40.5 8.89988C35.4 9.89988 33.87 12.0599 33.16 15.5899C32.53 18.7199 33.26 21.9499 33.05 26.3699C32.78 31.9699 30.05 35.0799 25.67 36.9099C22.02 38.4399 19.58 38.8599 16.44 39.9599C11.96 41.5399 10.2 43.8399 10.61 49.7599C11.28 59.3499 18.52 92.2899 20.87 100.95C23.22 109.61 26.62 124.87 42.49 122.6C56.49 120.6 64.88 118.83 64.88 118.83M68.74 17.7199C63.18 14.8499 62.31 23.3199 66.83 22.6599C71.96 21.8999 73.09 30.2699 65.51 28.5699M65.56 14.4299L66.09 16.9699M68.53 28.7599L69.07 31.3399" stroke="#494A4A" stroke-width="2" stroke-linecap="round" stroke-linejoin="round"/>
<path id="1px-stroke-default" d="M7.57004 111.07C7.57004 111.07 9.45004 111.92 10.22 112.27C12.77 113.44 14.63 109.05 12.05 108.02C12.05 108.02 9.44004 106.79 7.90004 106.05C3.87004 104.24 0.400044 110.6 4.27004 112.72C7.26004 114.36 13.14 117.11 14.67 117.87C18.57 119.83 22.54 113.33 17.82 110.95L16.11 110.07M122.57 14.29C122.57 14.29 122.04 12.3 121.82 11.48C121.11 8.76998 116.54 10.11 117.37 12.76C117.37 12.76 118.07 15.56 118.48 17.22C119.63 21.48 126.75 20.14 125.94 15.8C125.31 12.45 123.71 6.15998 123.34 4.48998C122.39 0.229979 114.84 1.27998 115.99 6.43998L116.39 8.31998" stroke="#494A4A" stroke-linecap="round" stroke-linejoin="round"/>
<path id="fill-default" d="M109.23 73.1301C111.53 39.41 111.07 32.3801 110.71 29.5801C110.12 25.0401 107.17 20.7901 102.08 19.7801C98.2496 19.0201 96.8796 18.7101 92.3396 18.2501C89.2096 17.9401 87.5896 20.2201 87.6996 21.6301C87.8996 24.3001 93.7596 52.9801 96.7596 68.9801C96.8296 73.5201 98.2196 73.0101 99.7596 73.9801C101.57 75.1101 108.76 79.98 109.23 73.1301Z" fill="#494A4A" fill-opacity="0.08"/>
</g>
<g id="Emphasis">
<g id="2px-stroke-emphasis">
<path d="M117.18 97.97C118.79 111.11 110.18 122.45 96.2996 124.68C82.4196 126.91 71.1996 116.94 69.5896 103.8C67.9796 90.66 75.2996 78.95 90.4696 77.09C103.61 75.48 115.57 84.83 117.18 97.97Z" stroke="#116FAE" stroke-width="2" stroke-linecap="round" stroke-linejoin="round"/>
<path d="M102.42 97.56C101.69 97.22 96.6896 98.56 96.0296 98.12C95.3696 97.68 95.1896 92.5 94.4896 91.65C93.8396 90.86 89.2596 92.07 89.0396 92.63C88.7496 93.4 89.9496 98.22 89.4896 98.99C89.0296 99.76 83.6596 100.07 83.1496 100.73C82.5296 101.54 83.5396 105.58 84.6396 106C85.4496 106.31 90.1096 105.14 90.6196 105.51C91.1296 105.88 91.5596 111.05 92.2596 111.66C93.0996 112.39 97.5396 111.64 97.5596 110.56C97.5796 109.49 96.5496 104.78 96.9896 104.32C97.4296 103.86 101.84 103.72 102.86 102.83C103.98 101.86 103.19 97.91 102.42 97.55V97.56Z" stroke="#116FAE" stroke-width="2" stroke-linecap="round" stroke-linejoin="round"/>
</g>
<path id="1px-stroke-emphasis" d="M102.6 109L106.65 108.94M104.68 112.19L102.08 111.04M103.65 106.23L102.34 107.08" stroke="#116FAE" stroke-linecap="round" stroke-linejoin="round"/>
<path id="fill-emphasis" d="M116.53 98.8801C114.84 87.2401 103.7 79.0401 91.6596 80.5701C79.6196 82.1001 71.2196 92.7901 72.9096 104.43C74.5996 116.07 85.7396 124.27 97.7796 122.74C109.82 121.21 118.22 110.52 116.53 98.8801ZM105.29 103.88C104.27 104.77 99.8696 104.9 99.4196 105.37C98.9696 105.84 100.01 110.54 99.9896 111.61C99.9696 112.69 95.5296 113.44 94.6896 112.71C93.9896 112.1 93.5496 106.93 93.0496 106.56C92.5496 106.19 87.8796 107.36 87.0696 107.05C85.9596 106.63 84.9496 102.58 85.5796 101.78C86.0896 101.12 91.4596 100.8 91.9196 100.04C92.3796 99.2801 91.1796 94.4501 91.4696 93.6801C91.6896 93.1101 96.2596 91.9001 96.9196 92.7001C97.6196 93.5501 97.7996 98.7401 98.4596 99.1701C99.1196 99.6001 104.12 98.2601 104.85 98.6101C105.63 98.9701 106.41 102.92 105.29 103.89V103.88Z" fill="#116FAE" fill-opacity="0.24"/>
</g>
</g>
</svg>
