<svg width="129" height="128" viewBox="0 0 129 128" fill="none" xmlns="http://www.w3.org/2000/svg">
<g id="Pictogram-car-select">
<g id="Default">
<path id="dash-stroke-default" d="M59.9766 17H59.9776" stroke="#494A4A" stroke-width="0.001"/>
<path id="2px-stroke-default" d="M75.0584 105C69.1584 105 50.3584 104.37 44.9084 104M21.6684 100.66C15.2784 99.5099 13.8984 98.6899 12.7384 97.8899C10.6784 96.4599 9.75836 93.3999 9.51836 89.8099C9.15836 84.2799 9.51836 80.4199 10.3884 75.3999C11.4284 69.3699 16.3184 65.5899 17.9184 62.5799C19.2884 60.0299 21.2184 42.0099 24.6984 30.1999C25.7884 26.4999 27.6284 24.2499 31.9284 22.8099C41.7584 19.5199 69.3084 15.8399 83.1984 16.4099C88.6184 16.6299 92.6684 21.1899 94.0484 25.8799C96.3884 33.7899 98.9484 44.2799 100.448 57.8599C100.778 60.8199 101.858 61.2899 104.538 62.0499C107.668 62.9299 112.988 64.1699 116.538 65.8799C119.528 67.3199 120.498 68.6399 121.048 70.8899C121.798 73.9899 121.808 80.8299 120.848 87.0599M121.208 71.7099C130.128 71.7099 124.598 84.4399 121.348 84.4399M93.2184 57.7199C92.8484 59.8399 91.0884 61.7399 89.3484 61.8199C72.2284 62.6599 43.4684 62.3299 29.8784 61.1699C27.9784 61.0099 25.6484 59.0799 25.8984 56.5499C26.7284 48.3999 29.3884 39.0399 30.9784 33.4299C31.6984 30.8799 32.9184 29.4499 35.1284 28.8499C45.7484 25.9799 68.7684 23.3099 81.1184 23.1699C84.5884 23.1299 86.6884 25.0199 87.5484 27.9799C89.6784 35.2799 90.9084 39.4299 92.1184 47.8599M63.5984 71.8199C67.3484 70.4599 70.1084 70.2699 73.4184 70.5699M44.7784 100.05C44.7784 106.385 39.6431 111.52 33.3084 111.52C26.9737 111.52 21.8384 106.385 21.8384 100.05C21.8384 93.7152 26.9737 88.5799 33.3084 88.5799C39.6431 88.5799 44.7784 93.7152 44.7784 100.05ZM92.9284 48.6399C90.4984 47.5999 87.1484 46.7699 84.4784 46.7499C82.6584 46.7499 82.7884 56.7299 84.3984 57.1699C86.7284 57.7999 92.3984 57.4699 94.2884 56.7199C95.4584 56.2499 94.5884 49.3499 92.9284 48.6399Z" stroke="#494A4A" stroke-width="2" stroke-linecap="round" stroke-linejoin="round"/>
<path id="1px-stroke-default" d="M42.1188 19.7198C38.1488 13.7998 28.7488 11.2298 23.8888 11.6298M65.8388 34.0598L48.2888 47.6198M63.5988 44.3998L48.2888 54.9298M37.1288 100.05C37.1288 102.16 35.4185 103.87 33.3088 103.87C31.1991 103.87 29.4888 102.16 29.4888 100.05C29.4888 97.9401 31.1991 96.2298 33.3088 96.2298C35.4185 96.2298 37.1288 97.9401 37.1288 100.05ZM23.8888 11.5298C23.8888 13.0155 22.6844 14.2198 21.1988 14.2198C19.7131 14.2198 18.5088 13.0155 18.5088 11.5298C18.5088 10.0442 19.7131 8.83984 21.1988 8.83984C22.6844 8.83984 23.8888 10.0442 23.8888 11.5298Z" stroke="#494A4A" stroke-linecap="round" stroke-linejoin="round"/>
<path id="fill-default" d="M91.188 52.6399C90.088 44.3899 88.958 40.3399 87.018 33.1899C86.228 30.2899 84.3081 28.4399 81.1381 28.4799C69.848 28.6099 48.828 31.2299 39.118 34.0399C37.098 34.6199 35.988 36.0299 35.328 38.5199C33.878 44.0099 31.448 53.1599 30.688 61.1399C30.458 63.6099 32.588 65.4999 34.318 65.6599C46.728 66.7899 73.008 67.1099 88.648 66.2899C90.238 66.2099 91.848 64.3499 92.188 62.2799L91.188 52.6399Z" fill="#494A4A" fill-opacity="0.08"/>
</g>
<g id="Emphasis">
<path id="2px-stroke-emphasis" d="M107.878 121.85C104.298 117.76 101.798 114.68 98.8982 110.32C97.7382 108.58 95.9182 108.5 94.5982 110.1C93.2782 111.7 92.3182 114.3 91.3982 116.35C89.9882 119.49 86.8782 121.35 84.1682 115.32C81.2782 108.89 71.0382 80.03 77.2682 74.91C82.8882 70.29 109.058 85.97 114.858 90.14C119.638 93.58 117.488 96.85 114.208 97.74C111.818 98.39 110.228 98.59 107.568 99.64C105.828 100.32 105.728 102.52 106.898 103.8C110.268 107.48 113.148 110.91 116.408 114.99C117.998 116.98 109.728 123.98 107.878 121.86V121.85Z" stroke="#116FAE" stroke-width="2" stroke-miterlimit="10"/>
<path id="1px-stroke-emphasis" d="M81.4082 82.7803C81.1582 83.8003 82.1582 91.5103 83.0282 94.2903M65.4882 95.1703C67.4182 93.5303 68.3982 92.2803 69.0982 91.9103M61.4082 90.8303C62.6782 90.4403 66.5482 88.2703 67.4282 88.1903M62.7682 84.4403C64.5082 84.4403 66.4782 84.5903 67.2682 84.4403" stroke="#116FAE" stroke-linecap="round" stroke-linejoin="round"/>
<path id="fill-emphasis" d="M93.0881 72.3202C93.0881 72.3202 84.8881 69.7502 85.9281 79.2402C86.9681 88.7302 85.6281 104.25 88.7581 108.41C91.8881 112.56 92.3481 105.74 97.2881 108.51C102.218 111.28 104.628 124.8 110.028 123.08C116.538 121 126.028 118.43 118.168 108.52C110.308 98.6102 117.528 96.2902 117.678 90.6102C117.828 84.9302 93.0881 72.3302 93.0881 72.3302V72.3202Z" fill="#116FAE" fill-opacity="0.24"/>
</g>
</g>
</svg>
