<svg width="129" height="129" viewBox="0 0 129 129" fill="none" xmlns="http://www.w3.org/2000/svg">
<g id="Pictogram-group-chat">
<g id="Default">
<path id="dash-stroke-default" d="M26.9707 74.5994H26.9717" stroke="#494A4A" stroke-width="0.001"/>
<path id="2px-stroke-default" d="M9.36826 108.322C9.90516 108.451 10.4453 108.121 10.5748 107.584C10.7043 107.047 10.374 106.507 9.83706 106.378L9.36826 108.322ZM8.44266 88.6697L7.9102 87.8232L7.90899 87.824L8.44266 88.6697ZM29.0127 74.5097C29.0127 73.9574 28.5649 73.5097 28.0127 73.5097C27.4604 73.5097 27.0127 73.9574 27.0127 74.5097H29.0127ZM36.9591 37.2532C37.5078 37.3159 38.0035 36.9219 38.0662 36.3732C38.1289 35.8245 37.7349 35.3289 37.1862 35.2661L36.9591 37.2532ZM41.8718 74.2547C42.2667 73.8686 42.2738 73.2355 41.8877 72.8406C41.5016 72.4457 40.8684 72.4386 40.4735 72.8247L41.8718 74.2547ZM71.8527 75.2097C71.8527 74.6574 71.4049 74.2097 70.8527 74.2097C70.3004 74.2097 69.8527 74.6574 69.8527 75.2097H71.8527ZM98.9027 95.3197L98.3741 96.1686L98.3741 96.1686L98.9027 95.3197ZM20.8827 95.8397L20.3135 95.0175L20.3133 95.0176L20.8827 95.8397ZM50.4527 75.2097C50.4527 74.6574 50.0049 74.2097 49.4527 74.2097C48.9004 74.2097 48.4527 74.6574 48.4527 75.2097H50.4527ZM60.2927 79.3797L60.3156 80.3794L60.3159 80.3794L60.2927 79.3797ZM40.4127 47.4797L41.4126 47.4745V47.4741L40.4127 47.4797ZM9.83706 106.378C7.89827 105.91 6.47969 105.403 5.56763 104.866C4.6319 104.314 4.47266 103.887 4.47266 103.64H2.47266C2.47266 104.962 3.40842 105.915 4.55268 106.589C5.72062 107.277 7.36704 107.839 9.36826 108.322L9.83706 106.378ZM4.47266 103.64C4.47266 101.13 4.97185 97.9446 5.8259 95.1701C6.25217 93.7854 6.7581 92.5319 7.31614 91.5308C7.88473 90.5106 8.45787 89.8425 8.97632 89.5154L7.90899 87.824C6.97744 88.4118 6.20433 89.4175 5.56917 90.557C4.92346 91.7155 4.36814 93.1077 3.91441 94.5817C3.00846 97.5248 2.47266 100.909 2.47266 103.64H4.47266ZM8.97511 89.5161C10.5608 88.5187 12.5268 87.8144 14.6753 87.1447C16.78 86.4886 19.0892 85.8585 21.1598 85.0218C23.2436 84.1798 25.2187 83.0808 26.6705 81.4007C28.1456 79.6937 29.0127 77.4663 29.0127 74.5097H27.0127C27.0127 77.0381 26.286 78.7869 25.1573 80.093C24.0053 81.4261 22.3667 82.377 20.4105 83.1675C18.4411 83.9633 16.2841 84.5483 14.0801 85.2353C11.9198 85.9087 9.73455 86.6756 7.9102 87.8232L8.97511 89.5161ZM37.1862 35.2661C35.7254 35.0992 34.3864 35.0997 33.8427 35.0997V37.0997C34.3789 37.0997 35.62 37.1002 36.9591 37.2532L37.1862 35.2661ZM33.8427 35.0997C29.1113 35.0997 25.159 36.567 22.4048 39.6696C19.6671 42.7535 18.2427 47.3085 18.2427 53.2297H20.2427C20.2427 47.6009 21.5982 43.5908 23.9005 40.9973C26.1863 38.4223 29.534 37.0997 33.8427 37.0997V35.0997ZM18.2427 53.2297C18.2427 68.5992 26.0653 77.1797 33.8427 77.1797V75.1797C27.72 75.1797 20.2427 68.1401 20.2427 53.2297H18.2427ZM33.8427 77.1797C35.2957 77.1797 38.865 77.1946 41.8718 74.2547L40.4735 72.8247C38.0803 75.1647 35.2496 75.1797 33.8427 75.1797V77.1797ZM69.8527 75.2097C69.8527 79.3235 71.0661 82.389 73.1063 84.7296C75.1226 87.0427 77.8804 88.5716 80.8386 89.7556C83.784 90.9345 87.0602 91.8186 90.0991 92.7562C93.1815 93.7072 96.048 94.7201 98.3741 96.1686L99.4313 94.4708C96.8673 92.8742 93.7826 91.7996 90.6887 90.8451C87.5513 89.8771 84.4263 89.0374 81.5818 87.8988C78.7499 86.7653 76.329 85.3829 74.614 83.4154C72.9229 81.4754 71.8527 78.8909 71.8527 75.2097H69.8527ZM98.3741 96.1686C99.2064 96.6868 100.07 97.7051 100.899 99.177C101.717 100.63 102.452 102.439 103.068 104.424C104.301 108.398 105.023 112.966 105.023 116.58H107.023C107.023 112.743 106.264 107.976 104.978 103.831C104.334 101.756 103.549 99.8077 102.642 98.1961C101.745 96.603 100.679 95.2476 99.4312 94.4708L98.3741 96.1686ZM105.023 116.58C105.023 116.917 104.86 117.334 104.316 117.837C103.766 118.347 102.9 118.868 101.701 119.377C99.3092 120.393 95.828 121.263 91.5675 121.966C83.065 123.37 71.6901 124.077 60.2877 124.077C48.8852 124.077 37.5103 123.37 29.0078 121.966C24.7473 121.263 21.2661 120.393 18.8739 119.377C17.675 118.868 16.8096 118.347 16.2589 117.837C15.7149 117.334 15.5527 116.917 15.5527 116.58H13.5527C13.5527 117.658 14.1051 118.569 14.9009 119.305C15.6901 120.035 16.7899 120.665 18.0921 121.218C20.7022 122.326 24.367 123.227 28.6819 123.939C37.33 125.368 48.8226 126.077 60.2877 126.077C71.7527 126.077 83.2453 125.368 91.8934 123.939C96.2083 123.227 99.8731 122.326 102.483 121.218C103.785 120.665 104.885 120.035 105.674 119.305C106.47 118.569 107.023 117.658 107.023 116.58H105.023ZM15.5527 116.58C15.5527 113.202 16.1846 108.755 17.2783 104.84C17.8245 102.885 18.4779 101.091 19.2084 99.6451C19.9508 98.1751 20.7217 97.1675 21.452 96.6618L20.3133 95.0176C19.1737 95.8068 18.2182 97.1693 17.4232 98.7434C16.6162 100.341 15.9208 102.266 15.352 104.302C14.2157 108.369 13.5527 112.998 13.5527 116.58H15.5527ZM21.4518 96.6619C23.729 95.0856 26.5937 94.0285 29.7104 93.0747C32.7722 92.1377 36.1342 91.2869 39.1422 90.1417C42.1727 88.988 45.015 87.479 47.0961 85.1155C49.2019 82.7241 50.4527 79.5452 50.4527 75.2097H48.4527C48.4527 79.1242 47.3384 81.814 45.5951 83.7938C43.8272 85.8016 41.3364 87.1663 38.4306 88.2726C35.5024 89.3874 32.325 90.1829 29.1252 91.1622C25.9804 92.1246 22.8613 93.2538 20.3135 95.0175L21.4518 96.6619ZM60.3159 80.3794C70.5938 80.1406 81.1727 68.7522 81.1727 47.4797H79.1727C79.1727 68.2872 68.9315 78.1787 60.2694 78.3799L60.3159 80.3794ZM81.1727 47.4797C81.1727 39.3081 79.248 33.0861 75.6034 28.8959C71.9398 24.6837 66.6654 22.6697 60.2927 22.6697V24.6697C66.2299 24.6697 70.8955 26.5306 74.0944 30.2084C77.3123 33.9082 79.1727 39.5913 79.1727 47.4797H81.1727ZM60.2927 22.6697C53.9207 22.6697 48.6243 24.6832 44.9492 28.8947C41.2918 33.086 39.3669 39.3101 39.4127 47.4853L41.4126 47.4741C41.3685 39.5893 43.2285 33.9084 46.4561 30.2097C49.666 26.5312 54.3546 24.6697 60.2927 24.6697V22.6697ZM39.4127 47.4849C39.4685 58.2006 42.1871 66.4403 46.14 72.0039C50.0843 77.5555 55.3099 80.494 60.3156 80.3794L60.2698 78.3799C56.1054 78.4753 51.446 76.0189 47.7704 70.8455C44.1032 65.6841 41.4668 57.8687 41.4126 47.4745L39.4127 47.4849Z" fill="#494A4A"/>
<path id="1px-stroke-default" d="M15.133 68.9498L7.29297 71.7098M10.183 65.4098L14.413 65.2898M14.373 73.8898L16.723 71.9498M28.143 98.7098C23.633 100.18 23.483 100.8 21.923 106.69" stroke="#494A4A" stroke-linecap="round" stroke-linejoin="round"/>
<g id="fill-default">
<path fill-rule="evenodd" clip-rule="evenodd" d="M54.3425 77.6198C54.3425 77.6198 60.0125 79.4798 63.1025 79.4798C66.1925 79.4798 71.6425 75.9498 71.6425 75.9498C71.6425 91.6198 95.6825 90.5998 105.743 96.7198C110.033 99.3298 113.313 110.31 112.093 118.02C108.413 131.6 17.8525 131.18 17.8525 118.02C17.8525 111.02 24.5325 99.7998 28.3825 97.1998C38.3225 90.4898 54.3325 94.2198 54.3325 77.6198H54.3425Z" fill="#494A4A" fill-opacity="0.08"/>
<path fill-rule="evenodd" clip-rule="evenodd" d="M63.8725 78.6698C73.8725 79.0698 83.5625 67.8198 84.3625 48.0098C84.9725 32.8898 80.6225 25.3698 67.6325 24.8398C54.6425 24.3198 46.3525 31.2998 45.7425 46.4198C44.9425 66.2298 53.8825 78.2698 63.8825 78.6698H63.8725Z" fill="#494A4A" fill-opacity="0.08"/>
</g>
</g>
<g id="Emphasis">
<path id="2px-stroke-emphasis" d="M107.143 50.3696C107.143 49.8173 106.695 49.3696 106.143 49.3696C105.59 49.3696 105.143 49.8173 105.143 50.3696H107.143ZM120.703 60.9096L120.169 61.7553L120.17 61.7558L120.703 60.9096ZM87.0197 73.6602C86.523 73.4188 85.9246 73.6258 85.6833 74.1226C85.4419 74.6193 85.6489 75.2177 86.1456 75.459L87.0197 73.6602ZM88.0736 57.7423C87.5449 57.902 87.2457 58.46 87.4054 58.9887C87.5651 59.5174 88.1231 59.8166 88.6518 59.6569L88.0736 57.7423ZM98.3427 50.3596C98.3427 49.8073 97.895 49.3596 97.3427 49.3596C96.7904 49.3596 96.3427 49.8073 96.3427 50.3596H98.3427ZM101.813 51.6896L101.789 50.6899L101.788 50.6899L101.813 51.6896ZM91.2927 34.8196L90.2927 34.8243L90.2927 34.825L91.2927 34.8196ZM85.0527 10.0796C85.0527 9.79241 85.2855 9.55961 85.5727 9.55961V11.5596C86.3901 11.5596 87.0527 10.897 87.0527 10.0796H85.0527ZM85.5727 9.55961C85.8599 9.55961 86.0927 9.79243 86.0927 10.0796H84.0927C84.0927 10.897 84.7553 11.5596 85.5727 11.5596V9.55961ZM86.0927 10.0796C86.0927 10.3668 85.8599 10.5996 85.5727 10.5996V8.59961C84.7553 8.59961 84.0927 9.26224 84.0927 10.0796H86.0927ZM85.5727 10.5996C85.2855 10.5996 85.0527 10.3668 85.0527 10.0796H87.0527C87.0527 9.26222 86.3901 8.59961 85.5727 8.59961V10.5996ZM80.4427 10.6896C80.4427 10.4024 80.6755 10.1696 80.9627 10.1696V12.1696C81.7801 12.1696 82.4427 11.507 82.4427 10.6896H80.4427ZM80.9627 10.1696C81.2499 10.1696 81.4827 10.4024 81.4827 10.6896H79.4827C79.4827 11.507 80.1453 12.1696 80.9627 12.1696V10.1696ZM81.4827 10.6896C81.4827 10.9768 81.2499 11.2096 80.9627 11.2096V9.20961C80.1453 9.20961 79.4827 9.87224 79.4827 10.6896H81.4827ZM80.9627 11.2096C80.6755 11.2096 80.4427 10.9768 80.4427 10.6896H82.4427C82.4427 9.87222 81.7801 9.20961 80.9627 9.20961V11.2096ZM75.9727 11.1996C75.9727 10.9124 76.2055 10.6796 76.4927 10.6796V12.6796C77.3101 12.6796 77.9727 12.017 77.9727 11.1996H75.9727ZM76.4927 10.6796C76.7799 10.6796 77.0127 10.9124 77.0127 11.1996H75.0127C75.0127 12.017 75.6753 12.6796 76.4927 12.6796V10.6796ZM77.0127 11.1996C77.0127 11.4868 76.7799 11.7196 76.4927 11.7196V9.71961C75.6753 9.71961 75.0127 10.3822 75.0127 11.1996H77.0127ZM76.4927 11.7196C76.2055 11.7196 75.9727 11.4868 75.9727 11.1996H77.9727C77.9727 10.3822 77.3101 9.71961 76.4927 9.71961V11.7196ZM105.143 50.3696C105.143 52.6261 105.806 54.3455 106.948 55.6671C108.067 56.9618 109.58 57.798 111.147 58.4306C112.701 59.0578 114.439 59.5321 115.991 60.0163C117.588 60.5142 119.021 61.0309 120.169 61.7553L121.236 60.064C119.849 59.1884 118.195 58.6088 116.587 58.107C114.934 57.5915 113.349 57.1626 111.896 56.5761C110.456 55.9949 109.28 55.3068 108.461 54.3593C107.666 53.4387 107.143 52.1981 107.143 50.3696H105.143ZM120.17 61.7558C120.503 61.9655 120.904 62.419 121.319 63.1627C121.723 63.8873 122.093 64.8022 122.407 65.8214C123.036 67.8645 123.403 70.2102 123.403 72.0496H125.403C125.403 69.989 124.999 67.4448 124.318 65.2329C123.977 64.1245 123.557 63.0706 123.065 62.1884C122.584 61.3252 121.982 60.5337 121.236 60.0634L120.17 61.7558ZM123.403 72.0496C123.403 71.8658 123.502 71.8263 123.385 71.9408C123.278 72.0464 123.071 72.1976 122.723 72.3792C122.033 72.7392 120.983 73.121 119.626 73.4941C116.926 74.2364 113.188 74.896 109.119 75.3097C105.053 75.7232 100.691 75.8875 96.7449 75.6526C92.7728 75.4162 89.3253 74.7805 87.0197 73.6602L86.1456 75.459C88.8101 76.7538 92.5751 77.408 96.6261 77.6491C100.703 77.8917 105.175 77.7211 109.321 77.2995C113.465 76.8782 117.318 76.2028 120.156 75.4226C121.568 75.0345 122.774 74.6082 123.648 74.1522C124.082 73.9259 124.483 73.6671 124.789 73.3657C125.086 73.0732 125.403 72.6297 125.403 72.0496H123.403ZM88.6518 59.6569C90.8428 58.9952 93.2643 58.278 95.1123 56.9505C97.0498 55.5589 98.3427 53.5142 98.3427 50.3596H96.3427C96.3427 52.845 95.3806 54.2953 93.9455 55.3262C92.4211 56.4212 90.3526 57.054 88.0736 57.7423L88.6518 59.6569ZM101.837 52.6893C107.653 52.55 113.333 46.1837 113.333 34.8196H111.333C111.333 45.7155 105.992 50.5892 101.789 50.6899L101.837 52.6893ZM113.333 34.8196C113.333 30.4326 112.298 27.0156 110.268 24.6842C108.22 22.3312 105.285 21.2296 101.813 21.2296V23.2296C104.85 23.2296 107.176 24.178 108.76 25.9975C110.363 27.8386 111.333 30.7167 111.333 34.8196H113.333ZM101.813 21.2296C98.3406 21.2296 95.3968 22.3307 93.3431 24.6832C91.3071 27.0154 90.272 30.4342 90.2927 34.8243L92.2927 34.8149C92.2734 30.715 93.2433 27.8388 94.8498 25.9985C96.4386 24.1785 98.7748 23.2296 101.813 23.2296V21.2296ZM90.2927 34.825C90.3236 40.5703 91.7795 45.03 93.9375 48.0675C96.0872 51.0934 98.9861 52.7597 101.837 52.6893L101.788 50.6899C99.7793 50.7395 97.4482 49.5558 95.5679 46.9092C93.6959 44.2742 92.3218 40.2389 92.2927 34.8142L90.2927 34.825Z" fill="#116FAE"/>
<path id="1px-stroke-emphasis" d="M89.9826 24.0297C86.2826 22.3497 84.5125 19.7597 83.4625 19.3797C81.6725 18.7297 75.1325 21.2397 73.2825 19.3097C70.4425 16.3597 69.8926 8.77968 70.8326 4.95968C71.7626 1.14968 85.6125 0.769677 89.4225 2.93968C92.4625 4.66968 92.7625 12.7597 91.5025 15.6797C91.1225 16.5797 89.2026 17.2697 88.8726 18.2597C88.4326 19.5697 88.7825 22.5597 89.9925 24.0397" stroke="#116FAE" stroke-linecap="round" stroke-linejoin="round"/>
<g id="fill-emphasis">
<path fill-rule="evenodd" clip-rule="evenodd" d="M101.813 51.6897C101.813 51.6897 102.433 51.6897 103.833 51.6897C105.233 51.6897 107.623 50.0197 107.623 50.0197C107.623 57.8497 119.253 57.6797 123.813 60.7497C125.753 62.0497 128.803 70.7497 126.803 72.4097C116.903 79.1397 95.9027 77.4697 90.0927 74.5497C86.9627 72.9797 84.2327 67.3197 89.4427 63.1797C93.5027 59.9497 102.863 55.1897 101.803 51.6897H101.813Z" fill="#116FAE" fill-opacity="0.24"/>
<path fill-rule="evenodd" clip-rule="evenodd" d="M104.293 51.1497C109.173 51.3497 114.963 45.1697 115.373 34.8997C115.693 27.0597 112.533 23.4897 106.193 23.2297C99.8527 22.9697 95.7927 26.5997 95.4827 34.4497C95.0727 44.7297 99.4227 50.9597 104.303 51.1497H104.293Z" fill="#116FAE" fill-opacity="0.24"/>
<path fill-rule="evenodd" clip-rule="evenodd" d="M89.9327 23.7397C90.7027 23.0397 89.4627 20.4297 90.1627 19.2597C90.6927 18.3697 92.5727 18.0797 93.1327 17.2897C94.9527 14.7297 96.5727 6.88966 94.2427 4.63966C91.3227 1.80966 78.7827 -0.490336 77.0427 2.97966C75.3027 6.46966 74.0227 13.8597 75.8827 17.2497C77.1027 19.4597 83.5627 18.3197 85.0227 19.2897C85.8827 19.8597 86.0327 22.3197 89.9127 23.7297L89.9327 23.7397Z" fill="#116FAE" fill-opacity="0.24"/>
</g>
</g>
</g>
</svg>
