<svg width="129" height="129" viewBox="0 0 129 129" fill="none" xmlns="http://www.w3.org/2000/svg">
<g id="Pictogram-user-search">
<g id="Default">
<path id="dash-stroke-default" d="M61.9707 12.7993H61.9717" stroke="#494A4A" stroke-width="0.001"/>
<path id="2px-stroke-default" d="M79.2727 85.8993L85.5327 92.1993M84.3927 80.5793L91.3027 87.1993M94.3127 53.2193C94.3127 76.3711 75.5444 95.1393 52.3927 95.1393C29.2409 95.1393 10.4727 76.3711 10.4727 53.2193C10.4727 30.0675 29.2409 11.2993 52.3927 11.2993C75.5444 11.2993 94.3127 30.0675 94.3127 53.2193ZM84.5327 95.5993C88.1227 103.759 98.7127 116.639 104.093 121.709C106.423 123.899 110.233 124.909 113.053 123.899C117.763 122.209 121.163 118.129 122.883 113.859C124.163 110.689 123.313 108.949 120.963 106.059C116.023 99.9793 102.133 89.8393 95.4127 86.5793C91.8227 84.8393 83.2827 92.7493 84.5327 95.5993Z" stroke="#494A4A" stroke-width="2" stroke-linecap="round" stroke-linejoin="round"/>
<path id="1px-stroke-default" d="M19.5427 37.1892C21.4727 32.7892 25.0027 28.4992 28.9227 25.9792M17.1427 62.1992C15.4727 56.3592 15.6427 47.5492 18.2027 40.2392M87.1527 65.5992C85.5327 70.6392 81.8227 76.5092 76.5027 81.3792M94.0127 101.529C92.4927 99.5892 89.5227 96.4592 89.9327 94.4192M97.3927 28.6492L106.433 25.5092M99.4327 19.9092L94.6027 24.5392M101.963 33.9392L98.3727 33.0992" stroke="#494A4A" stroke-linecap="round" stroke-linejoin="round"/>
<path id="fill-default" d="M107.973 89.7994C101.013 85.6694 88.0725 84.5694 91.3025 96.9694C94.2425 108.269 108.643 125.969 118.303 125.969C124.303 125.969 129.633 116.299 126.803 107.469C123.973 98.6394 112.803 92.6794 107.973 89.7994Z" fill="#494A4A" fill-opacity="0.08"/>
</g>
<g id="Emphasis">
<path id="2px-stroke-emphasis" d="M57.1328 51.7995C57.1328 59.5095 65.4328 58.3195 69.6628 61.4395C71.3028 62.6495 72.4428 67.8695 72.4428 71.1195C72.4428 76.4095 32.3428 76.4095 32.3428 71.1195C32.3428 67.6395 33.6428 62.3995 35.4628 61.1895C39.7428 58.3395 47.7528 59.0795 47.7528 51.7995M61.5028 39.6795C61.5028 32.8295 58.0328 29.5195 52.3928 29.5195C46.7528 29.5195 43.2828 32.8295 43.2828 39.6795C43.2828 48.6495 48.0528 53.2895 52.3928 53.2895C56.7328 53.2895 61.5028 48.6595 61.5028 39.6795Z" stroke="#116FAE" stroke-width="2" stroke-miterlimit="10" stroke-linecap="round"/>
<path id="1px-stroke-emphasis" d="M71.4727 58.0098C71.4727 58.0098 74.7227 58.6798 75.0527 61.0098" stroke="#116FAE" stroke-linecap="round" stroke-linejoin="round"/>
<path id="fill-emphasis" fill-rule="evenodd" clip-rule="evenodd" d="M72.4728 61.2996C69.9828 59.3696 65.3428 57.8396 62.4728 56.2996C60.8828 55.4496 60.3328 53.4296 61.3128 51.9195C62.8628 49.5396 64.5328 45.3995 64.5328 40.9895C64.5328 33.7795 61.0628 30.2896 55.4228 30.2896C49.7828 30.2896 46.3128 33.7695 46.3128 40.9895C46.3128 47.3496 48.4828 51.6296 51.2128 53.7596H50.7928C50.7928 61.4296 42.7828 60.6596 38.5028 63.6496C36.6828 64.9296 35.3828 70.4396 35.3828 74.1096C35.3828 79.6896 75.4828 79.6896 75.4828 74.1096C75.4828 70.6796 74.1228 62.5696 72.4828 61.2896L72.4728 61.2996Z" fill="#116FAE" fill-opacity="0.24"/>
</g>
</g>
</svg>
