<svg width="129" height="129" viewBox="0 0 129 129" fill="none" xmlns="http://www.w3.org/2000/svg">
<g id="Pictogram-search-file">
<g id="Default">
<path id="dash-stroke-default" d="M12.9805 55.0947H12.9815" stroke="#494A4A" stroke-width="0.001"/>
<path id="2px-stroke-default" d="M48.3043 44.4199C48.3043 44.4199 49.5043 41.1399 51.8343 40.8099C54.1643 40.4799 56.3143 43.6999 57.6243 42.6899C61.4243 39.7499 60.9843 42.9899 63.1343 42.1099C65.2843 41.2299 70.3843 38.7499 71.2943 39.8499C72.8443 41.7499 75.8143 41.3399 75.8143 41.3399M49.8043 55.0799C51.5343 54.9599 53.6043 57.2499 54.4343 56.7599C56.1843 55.7599 57.3843 53.5799 59.5143 55.3799C60.7843 56.4499 64.4143 55.3799 64.4143 55.3799M69.1043 54.2099C69.1043 54.2099 69.5343 52.2999 70.5143 52.2099C71.4943 52.1199 72.2843 53.5699 72.9943 53.2799C75.1243 52.4199 77.6243 52.2799 77.9943 52.7999M58.6643 67.7499C60.7143 66.1999 63.2243 65.4399 65.1443 65.9099C66.0443 66.0699 66.9543 66.1299 67.8643 66.0699C68.5243 66.0699 69.2043 65.1399 69.8643 65.3199C71.3343 65.6299 72.8643 65.4799 74.2543 64.9099C75.5943 64.0099 79.0543 65.4199 80.1643 64.1599M29.5143 69.5499C32.5943 69.2599 36.0743 71.9099 37.5843 71.2399C40.7643 69.8399 43.0543 67.1199 46.6943 69.1499C48.8543 70.3699 51.9543 69.0399 51.9543 69.0399M89.4443 114.22C78.9743 118.22 45.6143 122.64 35.5143 121.82C29.4343 121.36 24.2143 117.33 22.2443 111.56C18.6443 100.75 9.85428 40.4499 10.3843 27.4299C10.6343 21.5399 13.9443 15.7599 20.3843 13.8899C30.3943 11.2199 40.5643 9.22993 50.8443 7.94993C56.0043 7.30993 58.1343 8.88993 59.9043 12.0299C61.4743 14.8099 61.7843 18.0999 63.3543 22.2399C65.3543 27.4799 68.9143 29.5899 73.6443 29.9699C77.6443 30.2799 80.0443 29.9699 83.3643 29.9699C88.1143 30.0799 90.5043 31.7199 91.9543 37.4799C96.1343 54.0899 98.6843 81.1399 99.3443 98.2799M52.3843 7.81993C57.9743 7.50993 63.7243 7.93993 75.2643 16.8199C84.5243 23.9499 88.2643 26.8199 91.3343 35.4499" stroke="#494A4A" stroke-width="2" stroke-linecap="round" stroke-linejoin="round"/>
<path id="1px-stroke-default" d="M6.19406 111.98L8.84406 113.18C11.3941 114.35 13.2541 109.97 10.6741 108.93L6.52406 106.93C2.52406 105.12 -0.975944 111.48 2.89406 113.6C5.89406 115.24 11.7641 117.99 13.2941 118.75C17.1841 120.75 21.1641 114.21 16.4441 111.83L14.7341 110.95M120.044 16.4798C120.044 16.4798 121.044 14.6698 121.454 13.9298C122.814 11.4698 118.584 9.27983 117.354 11.7698C117.354 11.7698 115.924 14.2798 115.064 15.7698C112.954 19.6498 119.064 23.5898 121.434 19.8998C123.304 17.0398 126.494 11.3898 127.374 9.89983C129.634 6.18983 123.444 1.74983 120.724 6.24983L119.724 7.87983" stroke="#494A4A" stroke-linecap="round" stroke-linejoin="round"/>
<g id="fill-default">
<path d="M74.1238 15.5298C85.1238 15.7998 100.254 17.4398 104.374 18.5298C110.324 20.1698 114.534 24.4198 115.244 31.3498C116.474 43.2598 110.804 97.4898 105.634 96.0998L99.3438 94.7498C99.3438 94.7498 96.6438 50.2398 89.7338 31.5998C87.8738 26.5598 79.4438 19.8298 74.1238 15.5298Z" fill="#494A4A" fill-opacity="0.08"/>
<path d="M33.9238 122.4C35.1038 123.14 36.3838 123.72 37.7138 124.12C47.4238 127.04 76.7738 129.66 87.8538 127.91C91.2338 127.37 95.5838 125.73 96.8538 122.65C97.4838 120.93 96.8038 119 95.2338 118.05C92.9438 116.57 90.5538 115.24 88.1038 114.05C81.6738 116.75 62.4938 121.37 33.9238 122.4Z" fill="#494A4A" fill-opacity="0.08"/>
</g>
</g>
<g id="Emphasis">
<path id="2px-stroke-emphasis" d="M26.5237 46.1795C28.3037 46.7895 29.8537 47.9495 30.9337 49.4895C32.5037 45.3695 35.5337 41.9695 39.4437 39.9395M92.3237 93.0795C92.3237 102.976 84.3006 110.999 74.4037 110.999C64.5067 110.999 56.4837 102.976 56.4837 93.0795C56.4837 83.1825 64.5067 75.1595 74.4037 75.1595C84.3006 75.1595 92.3237 83.1825 92.3237 93.0795ZM92.7737 109.519C95.5537 113.649 101.644 118.519 105.174 121.049C106.784 122.099 108.824 122.239 110.564 121.419C113.014 120.059 114.774 117.729 115.424 115.009C115.894 113.159 115.254 112.279 113.644 110.919C109.274 107.609 104.374 105.079 99.1437 103.439C96.9137 102.819 91.8037 108.079 92.7737 109.519ZM34.2037 53.3595C32.2437 54.0495 30.1637 54.3395 28.0837 54.2195C26.4737 54.1895 25.0637 53.1295 24.5937 51.5895C23.9437 49.6195 23.6537 47.5495 23.7337 45.4795C23.8437 43.8995 24.8737 42.5295 26.3637 41.9895C28.3337 41.3895 30.3837 41.0995 32.4437 41.1295C34.0537 41.1595 35.4737 42.2195 35.9637 43.7495C36.6537 45.7095 36.9437 47.7895 36.8237 49.8595C36.7237 51.4395 35.6937 52.8195 34.2037 53.3595Z" stroke="#116FAE" stroke-width="2" stroke-linecap="round" stroke-linejoin="round"/>
<path id="1px-stroke-emphasis" d="M61.3836 86.9192C59.9536 89.8092 59.5136 93.0992 60.1436 96.2592M85.6136 102.409C88.1636 99.0393 89.1236 94.7192 88.2336 90.5792C86.6536 82.6392 79.6036 77.4693 71.6636 79.0493M109.574 111.749C110.494 112.269 112.184 113.019 112.354 113.889M89.7936 102.269L94.1136 105.349" stroke="#116FAE" stroke-linecap="round" stroke-linejoin="round"/>
<g id="fill-emphasis">
<path d="M26.3336 44.2697C26.8136 42.3797 35.9836 41.1097 37.8736 42.7497C39.7636 44.3897 40.1336 50.2297 39.5536 52.8797C38.9736 55.5297 33.0236 56.5297 29.9536 55.1297C26.8836 53.7297 25.6636 46.9597 26.3336 44.2697Z" fill="#116FAE" fill-opacity="0.24"/>
<path d="M95.2436 110.6C97.7236 113.9 100.484 118.45 103.704 120.4C105.064 121.22 110.474 124.22 111.944 123.52C114.384 122.34 115.614 117.1 116.264 115.05C116.754 113.53 116.174 112.83 114.714 111.76C111.634 109.51 102.374 107.05 98.5136 106.2C96.4436 105.75 94.3736 109.45 95.2436 110.6Z" fill="#116FAE" fill-opacity="0.24"/>
<path d="M86.7536 106.01C82.2136 110.28 71.8436 112.87 65.4936 106.64C59.1436 100.41 57.9536 92.2797 62.0636 85.4597C66.6636 77.8197 81.1336 76.0397 87.4836 82.2697C93.8336 88.4997 93.2536 99.8997 86.7536 106.01Z" fill="#116FAE" fill-opacity="0.24"/>
</g>
</g>
</g>
</svg>
