<svg width="129" height="129" viewBox="0 0 129 129" fill="none" xmlns="http://www.w3.org/2000/svg">
<g id="Pictogram-teamwork">
<g id="Default">
<path id="dash-stroke-default" d="M33.9609 32.2495H33.9619" stroke="#494A4A" stroke-width="0.001"/>
<path id="2px-stroke-default" d="M26.2323 73.0895C21.3023 70.5495 19.8223 68.0395 17.3823 65.8095C14.4223 63.0995 11.2323 61.8295 9.51233 62.2195C7.79233 62.6095 7.58233 63.4395 7.57233 63.7795C7.54233 64.3795 18.5423 77.2195 23.0023 83.9695C26.1123 88.6795 30.3123 91.7695 31.6123 92.9795C36.9423 97.9595 36.6523 100.799 36.4723 104.709C36.2023 110.819 34.9223 116.879 32.9523 123.019M25.4823 28.7695C23.9723 27.9695 21.5323 28.4495 21.8723 31.7795C21.9123 32.6495 22.8923 38.4395 23.9723 45.7195C24.7823 51.1695 26.3523 55.6895 26.3523 63.3095C26.3523 65.2595 26.2123 68.7395 26.2623 72.8795M60.1223 118.249C61.1323 109.779 62.0323 101.369 63.6423 96.3295C68.0023 82.6295 59.2923 67.9395 57.8823 64.6095C55.9723 60.0995 53.1323 48.4295 50.1623 42.7895C46.4623 35.7495 43.1123 37.6995 42.4223 38.1295M43.6423 37.5095C41.2623 32.1395 39.1323 25.6095 33.8223 27.1095M26.9423 29.6295C26.6323 28.1995 26.0223 23.6195 25.9123 22.4195C25.5923 19.0695 32.3823 20.4195 33.5423 27.0995M119.092 115.339C112.512 105.359 105.672 93.4495 100.902 76.4495C100.902 76.4495 107.822 70.5795 109.402 67.0595C112.332 60.5395 113.342 55.4295 121.622 50.2895C122.882 49.5095 123.012 45.6995 116.582 46.8095C113.162 47.3995 108.352 51.4195 106.422 53.3395C105.672 52.0595 106.032 47.3395 106.152 45.4895C106.452 41.1295 105.872 37.1795 105.542 31.3695C105.402 28.8195 104.892 22.4795 105.012 18.9695C105.102 16.2495 102.202 14.8295 100.522 16.6595M100.372 16.6295C100.692 13.7595 100.752 14.1495 101.202 11.1795C101.822 7.06947 95.7223 7.02947 94.7723 11.5695C94.5123 9.39947 90.5323 9.56947 89.5323 14.1595C88.6623 18.1795 88.3923 20.3095 88.1423 22.3895M93.3323 120.679C89.0723 106.599 84.0923 83.8195 80.5423 76.4895C75.5723 66.2195 76.2523 51.5895 79.4923 41.9795C80.7223 38.3495 81.5923 36.8195 81.7323 33.6695C81.7823 32.4995 82.9723 28.1095 83.0323 27.0395C83.5223 18.1995 88.0623 19.4895 88.1623 22.3895" stroke="#494A4A" stroke-width="2" stroke-linecap="round" stroke-linejoin="round"/>
<path id="1px-stroke-default" d="M26.7721 72.3196C26.8021 74.9296 26.9121 77.5796 27.2021 79.7696M28.2021 34.0396C27.9121 32.6496 27.3721 30.6696 25.4121 29.1996M32.8821 62.5996C33.2521 58.2496 32.8521 55.1096 31.9321 50.4496C30.9121 45.2996 29.1721 38.7496 28.1921 34.0296M41.8421 38.2196C41.7221 38.8896 46.1821 49.5796 47.3221 55.9896C48.0821 60.2996 48.4421 63.1696 49.0621 66.1096M30.5921 68.8896C30.5621 70.2996 31.5521 71.1496 31.5521 71.1496M38.4921 69.3996C38.4621 70.8096 39.4521 71.6596 39.4521 71.6596M33.0221 27.1696C33.1121 29.0296 34.3721 33.4196 35.1421 35.1196C37.1021 40.7696 38.7821 45.1796 39.4021 50.3496C40.0021 55.3396 40.9921 60.1596 40.9721 63.1396M27.1521 28.1096C27.6221 30.3196 27.9821 33.1496 28.5921 35.7996M107.672 52.8396C105.802 55.5596 101.602 55.2796 97.6221 57.6496M99.9421 16.3496C99.7321 17.0396 99.4421 18.8096 99.3121 19.7396C98.4421 25.8196 99.4421 27.1596 98.8321 30.5596C97.8721 35.9096 99.2721 39.9296 98.1521 41.8296M95.2821 11.8696C93.8021 18.9396 94.2721 18.1596 92.4821 27.0196C91.4321 32.1896 92.7621 36.9996 91.3821 39.7296M84.7521 41.1196C86.5321 39.5096 85.9221 36.1396 86.9421 31.3796C87.9321 26.7296 88.5221 24.3196 88.7921 22.0296M94.6421 49.5496C92.7821 50.9496 91.7821 51.3496 87.8721 52.2196M101.152 76.0196C99.4821 77.2496 96.9421 78.5696 93.7921 78.2996M100.732 17.2796C100.172 18.0896 99.3721 18.7196 99.0921 21.5396" stroke="#494A4A" stroke-linecap="round" stroke-linejoin="round"/>
<g id="fill-default">
<path d="M105.792 22.1594C105.862 21.1294 105.872 19.7194 104.502 19.8594C103.132 19.9994 103.092 20.5894 102.322 21.4894C101.822 21.4694 102.362 15.5294 102.602 14.5794C102.842 13.6294 101.382 11.9594 100.012 12.5294C98.6418 13.0994 97.7418 14.2094 97.2018 14.6494C96.6618 15.0894 95.2618 13.3494 94.4318 14.0594C90.6518 17.2794 90.7918 21.9394 89.7418 31.7094C89.0518 30.3494 88.2118 29.6594 88.1218 27.1494C88.0418 25.0494 85.2118 23.1094 84.4618 25.9494C82.8518 32.0194 83.2518 38.5694 82.1318 41.6894C81.0018 44.8094 78.3218 54.1194 79.0618 66.4494C79.4218 72.4094 81.7418 77.6594 84.4918 84.9094C87.2418 92.1594 89.2918 97.7094 92.6118 109.959C96.6018 124.689 109.252 129.969 115.792 124.009C120.162 120.019 112.262 114.809 99.4618 79.2894C100.632 77.5394 107.372 73.8894 109.452 67.5594C112.062 59.6194 117.082 54.6394 122.302 51.3794C123.032 50.9294 120.902 48.1894 116.982 50.0294C111.092 52.7894 108.832 56.6694 106.852 57.1294C105.762 51.1694 107.002 42.7494 106.532 38.1294C106.062 33.5094 105.692 23.5594 105.782 22.1594H105.792Z" fill="#494A4A" fill-opacity="0.08"/>
<path d="M53.7018 42.5694C52.6418 40.3994 50.1218 39.1194 48.5118 39.3794C47.8918 37.0094 45.0318 32.5294 44.1518 31.7694C43.1218 30.8694 40.0318 28.6194 38.6818 29.2394C37.1218 26.1794 32.3518 23.4394 29.2218 25.2794C28.7818 26.0394 29.6418 30.0394 29.8918 31.9694C28.6018 30.0194 25.2818 29.3094 25.2918 33.3894C25.3018 37.4694 29.2118 57.8194 29.1218 61.1794C29.0318 64.5394 28.6318 71.0994 28.9818 72.7294C26.1318 71.1094 23.7518 69.5494 21.7018 68.6594C19.6518 67.7694 14.1018 63.3394 12.5218 63.7394C10.9418 64.1294 8.68181 63.6194 8.95181 66.1894C9.22181 68.7594 24.2318 88.4594 29.7718 91.2594C35.3118 94.0594 39.6318 100.679 39.7818 103.599C39.9318 106.519 32.7118 118.509 31.2518 121.659C29.7918 124.809 58.1918 130.129 59.8018 123.369C61.4218 116.609 64.2318 102.219 64.0818 99.4994C63.9318 96.7794 67.0518 80.6994 61.8518 69.2194C58.5518 61.9394 61.2818 58.0694 53.7118 42.5594L53.7018 42.5694Z" fill="#494A4A" fill-opacity="0.08"/>
</g>
</g>
<g id="Emphasis">
<path id="2px-stroke-emphasis" d="M56.4612 20.9623C56.2712 20.3523 49.1712 16.4823 49.4712 15.2123C49.7212 14.1423 57.3612 13.1723 58.1712 12.5523C58.8812 12.0123 61.4312 3.92227 62.9212 3.75227C64.3912 3.58227 67.5112 11.3223 67.9912 11.9323C68.4012 12.4623 78.0412 12.7923 78.3112 14.5823C78.5112 15.8923 73.5812 18.6123 71.6812 19.7823C71.0212 20.1823 70.4412 21.0523 70.7612 22.4823C70.9612 23.3523 72.6712 30.8723 71.4312 31.5823C70.2312 32.2723 64.4112 25.3123 62.9012 25.4223C61.5312 25.5323 56.4141 32.2017 55.4619 31.2495C53.9619 29.7495 55.9619 24.2495 56.4612 20.9623Z" stroke="#116FAE" stroke-width="2" stroke-miterlimit="10"/>
<path id="1px-stroke-emphasis" d="M73.9619 23.6694C74.3819 24.7494 75.0419 28.1094 75.0419 28.1094" stroke="#116FAE" stroke-linecap="round" stroke-linejoin="round"/>
<path id="fill-emphasis" d="M57.8417 34.6799C56.5517 34.0399 58.4217 25.3499 58.0017 24.0999C57.1217 21.4799 51.5117 19.3899 51.6017 18.1399C51.7517 16.0199 58.9517 15.8499 59.6817 15.1799C60.3117 14.5999 62.4917 7.12988 63.8917 6.81988C65.2717 6.50988 68.8317 13.6399 69.3317 14.1699C69.7617 14.6299 78.4417 13.8899 78.5917 15.7299C78.8117 18.5399 72.9817 19.7599 73.0217 22.9999C73.0317 23.8599 75.1017 31.2399 73.9817 32.0399C72.8917 32.8199 67.9317 28.6799 66.5117 28.9399C65.2117 29.1799 59.2117 35.3699 57.8317 34.6899L57.8417 34.6799Z" fill="#116FAE" fill-opacity="0.24"/>
</g>
</g>
</svg>
