<svg width="129" height="129" viewBox="0 0 129 129" fill="none" xmlns="http://www.w3.org/2000/svg">
<g id="Pictogram-laptop">
<g id="Default">
<path id="dash-stroke-default" d="M13.9824 69.1494H13.9834" stroke="#494A4A" stroke-width="0.001"/>
<path id="2px-stroke-default" d="M19.2539 86.2194C16.4339 86.2194 15.2539 84.0293 14.9639 81.6693C13.1639 67.0594 12.2639 40.2894 13.3539 28.7494C13.9239 22.5894 16.5239 20.8594 21.9039 20.1994C40.5239 17.9194 82.9739 18.1794 103.324 19.4694C110.024 19.8894 112.354 21.8794 113.174 29.3494C114.274 39.8894 113.314 66.2994 111.374 81.0194C111.094 83.0994 110.414 86.1794 107.914 86.2094M112.504 87.5594C115.594 91.0294 118.214 94.9094 120.304 99.1094C120.904 101.099 121.184 103.179 121.144 105.269C121.144 108.549 120.174 110.099 116.894 110.769C100.814 114.039 22.8039 113.459 9.51389 110.419C7.23389 109.829 5.62389 107.739 5.58389 105.309C5.36389 103.289 5.44389 101.249 5.82389 99.2494C6.30389 97.4894 11.0939 89.8994 13.6839 87.3394C14.5339 86.4994 17.2739 86.3294 19.7239 86.1994C31.1339 85.8594 89.0939 85.8894 106.614 86.1994C109.274 86.2894 110.964 85.9994 112.514 87.5694L112.504 87.5594Z" stroke="#494A4A" stroke-width="2" stroke-linecap="round" stroke-linejoin="round"/>
<path id="1px-stroke-default" d="M107.214 65.6193C107.064 77.8993 106.494 79.1593 102.134 79.1593M38.2038 25.4993C29.8438 25.7893 26.5338 25.9293 23.2438 26.1593M6.99375 97.8393C5.69375 99.9593 6.33375 101.639 9.00375 102.059C27.1638 104.989 97.8738 105.089 116.994 101.809C119.714 101.329 119.744 99.0093 118.364 96.5193M21.3538 92.8493C23.3138 92.8493 29.7838 92.4693 33.9038 92.7193M41.3438 92.7393C46.4138 92.9393 47.8438 92.6593 50.9338 92.8393M58.1938 92.7393C63.2738 92.9393 64.7038 92.6593 67.7938 92.8393M75.0538 92.7793C78.0338 92.8893 83.1638 92.8893 84.3838 92.7793M91.8838 92.8493C94.8038 92.6893 102.904 92.6893 105.404 92.8493M17.5438 98.2193C20.5238 98.4693 25.1938 98.4693 28.8238 98.4693M97.8538 98.5093C101.464 98.5093 106.414 98.5093 109.054 98.3793M40.0938 103.999C40.9938 101.029 42.4238 98.7293 43.7038 98.6393C48.2038 98.3093 78.0638 98.2293 82.7038 98.6393C84.2538 98.7793 86.2538 102.519 86.5038 103.949" stroke="#494A4A" stroke-linecap="round" stroke-linejoin="round"/>
<path id="fill-default" d="M118.244 89.0693C121.354 92.8893 122.084 96.7493 124.204 101.389C124.804 103.579 124.244 108.049 124.204 110.359C124.204 113.959 123.224 115.669 119.874 116.409C103.624 120.009 24.8643 119.369 11.4443 116.019C9.16426 115.409 7.53426 113.089 7.46426 110.379C7.24426 108.149 7.32426 105.899 7.71426 103.699C8.20426 101.749 13.0243 93.3893 15.6443 90.5793C16.5143 89.6493 19.2743 89.4493 21.7443 89.3193C33.2643 88.9393 91.5943 86.6593 109.314 87.0093C112.004 87.1393 116.694 87.3793 118.254 89.0593L118.244 89.0693Z" fill="#494A4A" fill-opacity="0.08"/>
</g>
<g id="Emphasis">
<g id="2px-stroke-emphasis">
<path d="M43.1132 41.2295C43.1132 41.2295 34.7432 49.9595 34.7432 52.6695C34.7432 55.3795 45.2632 62.2995 45.2632 62.2995C47.2632 60.3595 48.2732 57.4495 47.8032 56.8695C47.3332 56.2895 42.0032 52.5795 42.0032 52.2895C42.0032 51.9995 47.3632 45.2795 47.3632 45.2795L43.1132 41.2195V41.2295Z" stroke="#116FAE" stroke-width="2" stroke-linecap="round" stroke-linejoin="round"/>
<path d="M81.8732 41.2295C81.8732 41.2295 90.2432 49.9595 90.2432 52.6695C90.2432 55.3795 79.7332 62.2995 79.7332 62.2995C77.7332 60.3595 76.7032 57.4495 77.1832 56.8695C77.6632 56.2895 83.0032 52.4695 83.0032 52.1795C83.0032 51.8895 77.6432 45.1695 77.6432 45.1695L81.8732 41.2195V41.2295Z" stroke="#116FAE" stroke-width="2" stroke-linecap="round" stroke-linejoin="round"/>
<path d="M52.2032 68.1895L66.0732 36.4195C66.4332 35.5495 72.0632 35.4595 71.8432 37.2695C71.6232 39.0795 59.9432 66.5095 58.9932 68.8295C58.0432 71.1495 51.1132 70.6795 52.2132 68.1995L52.2032 68.1895Z" stroke="#116FAE" stroke-width="2" stroke-linecap="round" stroke-linejoin="round"/>
</g>
<path id="1px-stroke-emphasis" d="M91.6133 47.6794C94.0833 51.0594 95.1333 52.9494 93.6033 54.9594" stroke="#116FAE" stroke-linecap="round" stroke-linejoin="round"/>
<g id="fill-emphasis">
<path d="M43.963 45.2795C43.963 45.2795 37.373 51.6895 37.373 54.3295C37.373 56.9695 47.893 63.9295 47.893 63.9295C49.893 61.9895 49.163 57.6495 48.673 56.9995C48.183 56.3495 44.643 54.1595 44.643 53.8495C44.643 53.5395 48.633 49.1795 48.593 47.1895C48.543 45.1995 43.963 45.2895 43.963 45.2895V45.2795Z" fill="#116FAE" fill-opacity="0.24"/>
<path d="M84.583 42.9495C84.583 42.9495 92.963 51.6895 92.963 54.3895C92.963 57.0895 82.443 63.9895 82.443 63.9895C80.443 62.0495 79.273 57.5595 79.783 56.9095C80.293 56.2595 84.343 54.9395 84.903 52.1995C85.453 49.4695 80.733 43.5795 80.733 43.5795L84.583 42.9495Z" fill="#116FAE" fill-opacity="0.24"/>
<path d="M53.7931 69.7095L66.943 41.2295C67.293 40.3595 72.793 39.4195 72.573 41.2295C72.353 43.0395 62.593 68.2195 61.633 70.5595C60.683 72.8995 52.7131 72.2095 53.7931 69.7095Z" fill="#116FAE" fill-opacity="0.24"/>
</g>
</g>
</g>
</svg>
