<svg width="129" height="129" viewBox="0 0 129 129" fill="none" xmlns="http://www.w3.org/2000/svg">
<g id="Pictogram-file-settings">
<g id="Default">
<path id="dash-stroke-default" d="M12.9922 57.5996H12.9932" stroke="#494A4A" stroke-width="0.001"/>
<path id="2px-stroke-default" d="M35.674 89.1695C36.534 87.9595 37.814 87.1095 39.274 86.7895C41.594 86.4195 43.564 88.1295 44.914 87.4495C48.824 85.4495 48.224 87.3795 50.404 86.6995C52.584 86.0195 57.754 84.2195 58.604 84.7795C60.034 85.7695 63.004 85.3095 63.004 85.3095M28.004 48.4795C28.004 48.4795 29.024 45.4395 31.104 45.1195C33.184 44.7995 35.164 47.7295 36.334 46.7795C39.694 44.0395 39.354 47.0195 41.274 46.1895C43.194 45.3495 47.724 42.9995 48.564 44.0195C49.984 45.7595 52.644 45.3395 52.644 45.3395M30.094 65.9595C32.584 65.6895 35.434 67.8295 36.644 67.2695C39.194 66.0795 40.984 63.8095 43.964 65.4495C45.734 66.4195 50.964 65.0595 50.964 65.0595M57.704 63.4695C57.704 63.4695 58.404 61.5095 59.814 61.2895C61.224 61.0695 62.264 62.5195 63.304 62.1595C66.414 61.1195 69.994 60.8195 70.474 61.2795M32.544 76.5695C32.544 76.5695 36.084 76.0095 37.894 77.7495C38.954 78.7795 45.074 76.1095 47.674 75.1595C50.274 74.2095 49.674 77.3495 54.254 74.3095C55.834 73.2695 57.964 74.7095 60.744 74.2595C63.524 73.8195 63.564 72.1995 63.564 72.1995C64.584 70.8995 66.304 72.7995 67.804 72.4095C69.304 72.0095 70.634 70.4795 72.134 70.5295M78.654 116.43C64.364 119.38 43.214 121.79 35.524 121.17C29.444 120.71 24.224 116.68 22.254 110.91C18.654 100.1 9.86404 39.7995 10.394 26.7795C10.644 20.8895 13.954 15.1095 20.394 13.2395C30.404 10.5695 40.574 8.57954 50.854 7.29954C56.014 6.65954 58.144 8.23954 59.914 11.3795C61.484 14.1595 61.794 17.4495 63.364 21.5895C65.364 26.8295 68.924 28.9395 73.654 29.3195C77.654 29.6295 80.054 29.3195 83.374 29.3195C88.124 29.4295 90.514 31.0695 91.964 36.8295C93.904 44.5295 95.484 54.4495 96.684 64.5995M52.394 7.16954C57.984 6.85954 63.734 7.28954 75.274 16.1695C84.534 23.2995 88.274 26.1695 91.344 34.7995" stroke="#494A4A" stroke-width="2" stroke-linecap="round" stroke-linejoin="round"/>
<path id="1px-stroke-default" d="M28.4639 110.38C28.4639 110.38 30.7239 116.92 35.9539 116.38" stroke="#494A4A" stroke-linecap="round" stroke-linejoin="round"/>
<g id="fill-default">
<path d="M61.1636 7.15942C72.1636 7.42942 84.4036 9.07942 88.5236 10.1694C103.384 12.8294 109.124 23.8394 109.834 30.7694C111.064 42.6794 113.334 67.5094 108.164 66.1194C108.164 66.1194 105.534 65.8894 104.014 68.0994C102.494 70.3094 101.394 70.7194 100.124 70.0994C98.8536 69.4794 97.7736 69.2694 96.9936 65.8794C96.6436 64.3394 96.6536 49.5894 89.7436 30.9494C87.8836 25.9094 73.4936 12.6594 61.1636 7.15942Z" fill="#494A4A" fill-opacity="0.08"/>
<path d="M33.9336 121.749C35.1136 122.489 36.3936 123.069 37.7236 123.469C47.4336 126.389 71.3936 126.799 74.5636 126.879C77.7336 126.959 87.1236 127.509 88.3936 124.429C89.0236 122.709 86.2136 120.509 84.6436 119.569C82.3536 118.089 81.1036 117.619 78.6536 116.429C72.2236 119.129 62.5036 120.719 33.9336 121.749Z" fill="#494A4A" fill-opacity="0.08"/>
</g>
</g>
<g id="Emphasis">
<g id="2px-stroke-emphasis">
<path d="M125.884 101.19C124.604 102.52 119.284 102.54 119.284 102.54L116.384 107.19C116.384 107.19 119.164 111.5 118.494 113.9C117.824 116.3 110.384 119.63 108.204 119.16C107.484 119 106.754 118.36 106.094 117.58C105.614 117.01 105.174 116.34 104.804 115.74C104.194 114.72 103.804 113.88 103.804 113.88L98.3636 113.68C98.3636 113.68 96.2036 118.76 94.1936 119.15C91.8036 119.61 88.0636 117.21 85.4236 114.84C85.2436 114.68 85.0736 114.52 84.9036 114.37C83.6036 113.14 82.6536 111.98 82.3836 111.29C81.5736 109.19 86.3136 106.1 86.3136 106.1L85.0136 103.62L83.7636 101.25C83.7636 101.25 80.9936 101.11 78.8536 100.66C78.0536 100.49 77.3436 100.28 76.8936 100.02C75.2336 99.0597 76.7636 87.0997 78.0136 86.0997C79.2636 85.0997 84.2936 86.9497 84.2936 86.9497L87.1936 82.2997C87.1936 82.2997 85.0236 77.0497 85.5836 75.6797C86.1436 74.3097 92.8236 70.1097 95.2336 70.4297C96.0436 70.5397 96.8336 71.1597 97.5036 71.9497C97.8236 72.3097 98.1236 72.7097 98.3836 73.1097C99.2336 74.3797 99.7736 75.6097 99.7736 75.6097C100.414 75.5797 101.054 75.5697 101.704 75.5697C103.204 75.5697 104.684 75.6597 106.174 75.8397C107.174 76.0097 107.814 70.2897 109.624 70.0997C111.434 69.9097 122.014 76.2097 121.914 77.7797C121.914 77.8297 121.904 77.8797 121.894 77.9397C121.524 79.6097 117.264 83.3797 117.264 83.3797L119.804 88.2197C119.804 88.2197 119.934 88.2097 120.164 88.1997C121.384 88.1497 125.354 88.0797 126.454 89.4797C126.654 89.7297 126.804 90.1397 126.924 90.6697C127.564 93.6197 126.974 100.06 125.884 101.19Z" stroke="#116FAE" stroke-width="2" stroke-linecap="round" stroke-linejoin="round"/>
<path d="M108.692 92.9337C108.711 89.5372 105.991 86.7685 102.617 86.7496C99.2423 86.7308 96.4914 89.4689 96.4724 92.8654C96.4535 96.2619 99.1736 99.0306 102.548 99.0495C105.922 99.0683 108.673 96.3302 108.692 92.9337Z" stroke="#116FAE" stroke-width="2" stroke-linecap="round" stroke-linejoin="round"/>
</g>
<path id="1px-stroke-emphasis" d="M99.9035 109.65C101.274 109.52 104.704 109.28 105.784 109.83C106.844 110.58 107.664 111.62 108.134 112.83M105.404 79.5798C108.974 79.3998 110.404 78.5798 111.404 75.7498M81.8535 90.5598C85.4235 90.4898 86.8535 89.6598 87.9635 86.9198" stroke="#116FAE" stroke-linecap="round" stroke-linejoin="round"/>
<path id="fill-emphasis" d="M127.493 91.1596C127.353 90.9696 127.153 90.8096 126.923 90.6696C125.133 89.6496 121.093 90.0596 121.093 90.0596L120.163 88.1996L118.733 85.3296C118.733 85.3296 123.213 81.2696 123.343 79.7096C123.373 79.3296 122.803 78.6896 121.893 77.9396C119.063 75.5996 112.933 72.1696 111.633 72.3396C109.923 72.5596 108.373 76.7096 107.353 76.5696C105.693 76.3596 104.023 76.2896 102.353 76.3696C102.353 76.3696 102.113 76.0296 101.703 75.5696C100.973 74.7496 99.7232 73.5296 98.3832 73.1096C98.1732 73.0296 97.9732 72.9896 97.7632 72.9596C97.7132 72.9496 97.6632 72.9496 97.6032 72.9496C95.1632 72.8796 88.8932 76.9896 88.3332 78.3496C88.0032 79.1496 88.5332 81.2196 89.0332 82.8196C89.4633 84.1596 89.2832 85.6296 88.5332 86.8196V86.8996C87.6132 88.3796 85.8732 89.1196 84.1732 88.7596C82.8532 88.4696 81.4232 88.3296 80.8432 88.8396C79.8832 89.6696 78.5932 97.0396 78.8532 100.66C78.9132 101.68 79.1132 102.4 79.4632 102.6C80.6132 103.24 83.4532 103.52 85.0132 103.62C85.6532 103.67 86.0832 103.68 86.0832 103.68L88.4333 108.4C88.4333 108.4 83.8432 111.59 84.5332 113.65C84.6032 113.85 84.7233 114.09 84.9033 114.37C85.0133 114.53 85.1332 114.7 85.2832 114.88C87.2932 117.49 92.6732 121.82 95.7732 121.15C97.7732 120.73 99.9232 115.67 99.9232 115.67L104.803 115.74H105.173C105.173 115.74 105.523 116.58 106.093 117.58C106.883 118.95 108.073 120.63 109.313 120.87C111.453 121.28 119.513 117.29 120.213 114.87C120.913 112.45 118.623 108.38 118.623 108.38L120.373 104.19C120.373 104.19 125.523 104.07 126.783 102.72C128.043 101.37 128.743 92.7696 127.493 91.1596ZM104.843 101.3C101.673 101.3 98.6332 99.8396 97.7732 96.6896C97.6732 96.3696 97.6032 96.0296 97.5632 95.6796C97.3732 94.0396 97.9332 92.1596 99.0132 90.7196C100.013 89.3696 101.473 88.4096 103.183 88.4096C104.893 88.4096 106.473 88.7996 107.753 89.6296C109.193 90.5396 110.223 91.9996 110.463 94.0296C110.833 97.1896 108.373 101.3 104.843 101.3Z" fill="#116FAE" fill-opacity="0.24"/>
</g>
</g>
</svg>
