<svg width="129" height="129" viewBox="0 0 129 129" fill="none" xmlns="http://www.w3.org/2000/svg">
<g id="Pictogram-paid-invoice">
<g id="Default">
<path id="dash-stroke-default" d="M10.4766 57.5449H10.4776" stroke="#494A4A" stroke-width="0.001"/>
<path id="2px-stroke-default" d="M110.539 77.8697C113.609 60.1697 116.059 36.3797 115.709 29.7897C115.459 25.1797 112.789 20.6797 107.719 19.2697C103.139 17.9997 94.5886 16.7997 91.9386 16.3897M43.2886 51.4397C40.0786 49.4797 37.2186 52.4997 37.2186 52.4997L34.1586 51.4497C34.1586 51.4497 34.5986 54.5597 31.7186 55.3597C28.8386 56.1597 25.5186 54.0997 25.5186 54.0997M77.6086 45.8997C77.6086 45.8997 74.6586 46.4597 73.0286 44.6397C72.0586 43.5697 67.0886 46.3097 64.9886 47.2897C62.8886 48.2797 63.1586 45.0097 59.5086 48.1397M30.7586 66.6097C32.4386 66.1697 34.8886 68.0597 35.6186 67.4297C37.1486 66.0997 37.9486 63.7697 40.3686 65.1597C41.8086 65.9897 45.1886 64.2997 45.1886 64.2997M80.3186 57.1997C79.9586 56.7297 77.4686 56.9597 75.3786 57.9197C74.6786 58.2397 73.8286 56.7897 72.8486 56.9697C71.8686 57.1497 71.5386 59.0797 71.5386 59.0797L68.2586 57.2597C68.2586 57.2597 65.5886 59.9297 65.5886 60.0397C65.5886 60.1497 64.6686 60.2597 63.6586 60.0397M32.7486 76.3497C35.8086 75.9097 39.0586 78.1697 40.5386 77.4297C43.6486 75.8697 46.2086 72.4297 49.8786 75.1097C51.4786 76.6497 52.5386 74.0397 52.5386 74.0397M38.7186 11.3497C33.3186 12.7897 27.9786 14.9897 19.7686 27.0097C13.1786 36.6697 10.4986 40.5497 10.2686 49.7097M95.3386 67.5597C91.9186 46.0597 87.5986 24.6197 84.7386 16.9497C82.6786 11.4197 77.7386 6.95972 71.0686 7.16972C63.0386 7.42972 49.7486 9.11972 40.2286 10.9897C35.1286 11.9897 33.5986 14.1497 32.8886 17.6797C32.2586 20.8097 32.9886 24.0397 32.7786 28.4597C32.5086 34.0597 29.7786 37.1697 25.3986 38.9997C21.7486 40.5297 19.3086 40.9497 16.1686 42.0497C11.6886 43.6297 9.92855 45.9297 10.3386 51.8497C11.0086 61.4397 18.2486 94.3797 20.5986 103.04C22.9486 111.7 26.2986 126.59 42.2186 124.69C53.5886 123.34 60.1886 121.63 64.9986 120.52M68.4686 19.8097C62.9086 16.9397 62.0386 25.4097 66.5586 24.7497C71.6886 23.9897 72.8186 32.3597 65.2386 30.6597M65.2986 16.5197L65.8186 19.0697M68.2686 30.8497L68.7986 33.4297M93.2586 114.15C85.9586 118.16 70.0586 116.47 67.4586 110.18C66.9986 109.08 67.3686 107.04 67.5886 106.12C67.6886 105.7 67.7086 105.56 67.9286 105.19M92.6186 108.21C85.0286 111.73 70.1986 109.98 67.6586 103.84C67.2986 102.97 67.4486 101.51 67.6386 100.48M94.5486 96.6497C94.5286 97.4597 94.4586 98.2097 94.3086 98.5097C90.6586 105.83 68.3386 105.16 65.2086 97.5897C64.7486 96.4897 65.1186 94.4497 65.3386 93.5297C65.8686 91.2697 68.3286 89.6797 71.6686 88.7297M95.1086 82.8797C98.5986 84.0297 101.139 85.8297 101.519 88.2297C101.689 89.2897 101.689 91.6897 101.389 92.2897C97.7386 99.6097 75.4186 98.9397 72.2886 91.3697C72.0286 90.7397 72.0386 89.8097 72.1286 88.9497M94.8686 80.7297C95.0386 81.7897 95.0386 84.1897 94.7386 84.7897C91.0886 92.1097 68.7686 91.4397 65.6386 83.8697C65.1786 82.7697 65.5486 80.7297 65.7686 79.8097C67.7286 71.4097 93.4886 72.1697 94.8686 80.7297Z" stroke="#494A4A" stroke-width="2" stroke-linecap="round" stroke-linejoin="round"/>
<path id="1px-stroke-default" d="M87.1184 97.6098C84.5284 98.2398 82.7884 98.6198 79.6684 98.5198C70.9984 98.2398 65.0584 93.9898 66.8184 91.5498M100.208 86.1698C102.658 89.4498 94.0484 92.5398 85.3684 92.2598C81.7084 92.1398 81.1784 91.3998 78.5484 90.2898M93.5584 78.6698C96.0084 81.9498 88.7784 85.0798 80.1084 84.8098C71.4384 84.5398 65.4984 80.2798 67.2584 77.8398" stroke="#494A4A" stroke-linecap="round" stroke-linejoin="round"/>
<path id="fill-default" d="M108.959 73.9099C111.259 40.1899 110.799 33.1599 110.439 30.3599C109.849 25.8199 106.899 21.5699 101.809 20.5599C97.9786 19.7999 96.6086 19.4899 92.0686 19.0299C88.9385 18.7199 93.0586 26.9799 95.4486 43.2599C96.1286 47.8599 98.0986 73.3899 99.4886 74.7499C101.009 76.2399 108.489 80.7499 108.959 73.8999V73.9099Z" fill="#494A4A" fill-opacity="0.08"/>
</g>
<g id="Emphasis">
<path id="2px-stroke-emphasis" d="M114.139 93.4694L114.382 92.4995L114.379 92.4987L114.139 93.4694ZM108.409 92.4994L108.288 93.4921L108.289 93.4923L108.409 92.4994ZM103.659 124.269L103.889 123.296L103.888 123.296L103.659 124.269ZM107.399 125.059L107.269 126.051L107.274 126.052L107.399 125.059ZM109.234 104.836C109.48 105.33 110.081 105.531 110.575 105.284C111.069 105.038 111.27 104.437 111.023 103.943L109.234 104.836ZM106.839 107.309L107.239 106.393L107.238 106.392L106.839 107.309ZM104.24 110.529C103.87 110.119 103.238 110.087 102.828 110.458C102.418 110.828 102.386 111.46 102.757 111.87L104.24 110.529ZM110.51 100.967C110.696 100.447 110.426 99.8745 109.906 99.6881C109.386 99.5017 108.814 99.7721 108.627 100.292L110.51 100.967ZM107.867 102.412C107.681 102.932 107.951 103.504 108.471 103.691C108.991 103.877 109.564 103.607 109.75 103.087L107.867 102.412ZM106.22 112.937C106.406 112.417 106.136 111.844 105.616 111.658C105.096 111.472 104.523 111.742 104.337 112.262L106.22 112.937ZM103.567 114.412C103.381 114.932 103.652 115.505 104.171 115.691C104.691 115.877 105.264 115.607 105.45 115.087L103.567 114.412ZM114.379 92.4987C113.325 92.2378 111.724 91.8909 108.528 91.5066L108.289 93.4923C111.413 93.8679 112.932 94.201 113.898 94.4401L114.379 92.4987ZM108.529 91.5068C103.78 90.9288 99.8789 92.4985 97.0327 95.2561C94.2089 97.9919 92.4551 101.861 91.8558 105.886C90.6644 113.888 94.0294 123.025 103.429 125.243L103.888 123.296C95.8679 121.404 92.7329 113.576 93.834 106.18C94.3809 102.507 95.9715 99.0689 98.4243 96.6925C100.855 94.3378 104.162 92.9901 108.288 93.4921L108.529 91.5068ZM103.428 125.243C105.075 125.632 105.822 125.862 107.269 126.051L107.528 124.068C106.215 123.897 105.622 123.707 103.889 123.296L103.428 125.243ZM107.274 126.052C112.73 126.736 117.139 125.299 120.356 122.617C123.556 119.95 125.51 116.108 126.192 112.075C127.55 104.047 123.878 94.8816 114.382 92.4995L113.895 94.4394C122.099 96.4973 125.457 104.432 124.22 111.741C123.605 115.377 121.855 118.764 119.076 121.081C116.313 123.384 112.468 124.688 107.523 124.067L107.274 126.052ZM111.023 103.943C110.381 102.656 109.451 101.858 108.308 101.79C107.225 101.726 106.314 102.347 105.732 103.045C105.142 103.752 104.731 104.716 104.743 105.677C104.756 106.705 105.266 107.716 106.44 108.226L107.238 106.392C106.871 106.233 106.747 105.99 106.742 105.652C106.737 105.249 106.927 104.735 107.268 104.326C107.617 103.908 107.968 103.773 108.19 103.787C108.353 103.796 108.771 103.908 109.234 104.836L111.023 103.943ZM106.438 108.226C106.983 108.464 107.269 108.884 107.371 109.38C107.479 109.907 107.372 110.506 107.103 110.966C106.837 111.42 106.484 111.638 106.132 111.656C105.771 111.675 105.118 111.499 104.24 110.529L102.757 111.87C103.859 113.09 105.051 113.714 106.235 113.653C107.427 113.592 108.318 112.85 108.829 111.976C109.338 111.107 109.542 110.007 109.33 108.977C109.111 107.916 108.444 106.92 107.239 106.393L106.438 108.226ZM108.627 100.292L107.867 102.412L109.75 103.087L110.51 100.967L108.627 100.292ZM104.337 112.262L103.567 114.412L105.45 115.087L106.22 112.937L104.337 112.262Z" fill="#116FAE"/>
<path id="1px-stroke-emphasis" d="M102.009 96.7296C99.8488 97.9696 98.1088 100.48 97.2588 102.73M107.909 120.88C110.249 120.88 112.719 119.47 114.339 117.83M108.449 93.0996C128.669 95.2396 124.169 128.7 102.749 123.41" stroke="#116FAE" stroke-linecap="round" stroke-linejoin="round"/>
<path id="fill-emphasis" fill-rule="evenodd" clip-rule="evenodd" d="M97.0886 120.149C88.7186 112.119 99.3186 89.5194 119.899 96.0194C123.909 97.2894 125.269 100.399 125.749 101.399C135.749 122.319 109.719 133.099 104.629 125.219C104.409 124.879 97.7886 120.829 97.0886 120.149Z" fill="#116FAE" fill-opacity="0.24"/>
</g>
</g>
</svg>
