<svg width="129" height="129" viewBox="0 0 129 129" fill="none" xmlns="http://www.w3.org/2000/svg">
<g id="Pictogram-file">
<g id="Default">
<path id="dash-stroke-default" d="M20.959 52.0498H20.96" stroke="#494A4A" stroke-width="0.001"/>
<path id="2px-stroke-default" d="M19.1712 58.7697C18.1712 53.9097 19.2012 49.9697 23.1012 47.8797C25.3612 46.6697 31.2412 44.2297 34.3212 42.4797C38.9812 39.8397 40.4112 37.1097 40.1412 31.7597C39.9812 28.5897 38.7912 23.8897 38.4212 21.2497C37.8912 17.4797 40.3112 13.1497 45.9112 11.5797M105.771 110.66C96.3012 114.03 61.5312 123.53 49.6212 126.1C42.8712 127.56 38.2812 125.54 35.7112 116.95C32.3112 105.6 21.5912 67.7797 19.6512 60.8797C15.6912 46.7897 21.1912 39.7297 26.8312 29.4897C31.3612 21.2697 35.7712 14.4197 45.9712 11.5497C53.0912 9.54975 71.3412 4.58975 80.4112 2.90975C86.8012 1.72975 89.3312 4.28975 92.2712 11.9097C96.6312 23.1997 114.141 84.5297 115.871 95.0797C117.041 102.21 112.581 108.23 105.761 110.66H105.771Z" stroke="#494A4A" stroke-width="2" stroke-linecap="round" stroke-linejoin="round"/>
<path id="1px-stroke-default" d="M46.8809 127.55C47.9309 127.47 73.2009 126.54 85.7309 127.55M76.3509 10.6298C77.1909 10.1698 82.3109 8.46979 83.4109 9.14979C84.5109 9.82979 87.0209 14.0498 87.5909 16.5198M94.8409 1.56979C102.261 1.33979 110.301 3.25979 115.501 6.90979M103.311 6.89979C109.231 7.46979 115.501 11.8698 119.091 16.0698" stroke="#494A4A" stroke-linecap="round" stroke-linejoin="round"/>
<path id="fill-default" d="M39.9912 34.4098C40.8612 31.3198 45.1712 41.2498 31.3612 55.4398C25.0212 61.9598 36.6812 100.16 34.0212 109.88C32.3012 116.16 23.5612 78.2298 21.5012 70.9598C19.4412 63.6898 14.1412 54.7898 19.8512 49.9898C25.5612 45.1898 37.5712 42.9598 39.9912 34.4098Z" fill="#494A4A" fill-opacity="0.08"/>
</g>
<g id="Emphasis">
<path id="2px-stroke-emphasis" d="M51.2538 55.6705C50.7018 55.653 50.2402 56.0864 50.2227 56.6384C50.2053 57.1904 50.6386 57.652 51.1906 57.6695L51.2538 55.6705ZM57.6422 57.95L58.0176 58.8769C58.4008 58.7217 58.6491 58.3466 58.6421 57.9331C58.6351 57.5197 58.3744 57.1532 57.9861 57.011L57.6422 57.95ZM48.7926 61.7181C48.3387 62.0326 48.2257 62.6556 48.5403 63.1096C48.8549 63.5635 49.4779 63.6765 49.9318 63.3619L48.7926 61.7181ZM71.9215 54.1206L70.9588 54.3914L71.9215 54.1206ZM71.0793 58.5127L71.35 59.4754L71.0793 58.5127ZM68.0709 55.2037L67.1082 55.4745L68.0709 55.2037ZM68.9131 50.8116L69.1839 51.7742L68.9131 50.8116ZM49.6219 84.2723C49.1759 83.9467 48.5503 84.0443 48.2246 84.4903C47.8989 84.9364 47.9965 85.562 48.4426 85.8876L49.6219 84.2723ZM91.548 65.0522C91.5989 64.5023 91.1944 64.0152 90.6445 63.9643C90.0945 63.9133 89.6074 64.3178 89.5565 64.8678L91.548 65.0522ZM51.1906 57.6695C53.5821 57.7451 55.9434 58.3928 57.2984 58.889L57.9861 57.011C56.5011 56.4672 53.9224 55.7549 51.2538 55.6705L51.1906 57.6695ZM57.2669 57.0231C54.7625 58.0373 51.1173 60.1071 48.7926 61.7181L49.9318 63.3619C52.1672 61.8128 55.682 59.8227 58.0176 58.8769L57.2669 57.0231ZM70.9588 54.3914C71.225 55.3376 71.2587 56.2013 71.1413 56.8137C71.0826 57.1196 70.9942 57.3223 70.9151 57.4393C70.8773 57.4952 70.8469 57.5239 70.83 57.537C70.8218 57.5435 70.8162 57.5466 70.8135 57.548C70.811 57.5493 70.8095 57.5498 70.8085 57.5501L71.35 59.4754C72.4427 59.168 72.9307 58.1019 73.1055 57.1903C73.2929 56.2131 73.2161 55.0302 72.8841 53.8498L70.9588 54.3914ZM70.8085 57.5501C70.8075 57.5504 70.806 57.5507 70.8031 57.5509C70.8001 57.5512 70.7937 57.5514 70.7833 57.5502C70.7621 57.5477 70.7212 57.5391 70.6597 57.5111C70.5312 57.4525 70.3501 57.3256 70.1406 57.0952C69.7211 56.6338 69.2997 55.8792 69.0335 54.9329L67.1082 55.4745C67.4402 56.6548 67.9914 57.7043 68.6607 58.4405C69.2851 59.1273 70.2573 59.7827 71.35 59.4754L70.8085 57.5501ZM69.0335 54.9329C68.7674 53.9867 68.7336 53.123 68.8511 52.5106C68.9097 52.2047 68.9982 52.002 69.0772 51.885C69.1151 51.8291 69.1455 51.8004 69.1623 51.7873C69.1706 51.7808 69.1761 51.7777 69.1788 51.7763C69.1814 51.775 69.1829 51.7745 69.1839 51.7742L68.6423 49.8489C67.5496 50.1563 67.0616 51.2224 66.8868 52.134C66.6995 53.1112 66.7762 54.2941 67.1082 55.4745L69.0335 54.9329ZM69.1839 51.7742C69.1849 51.7739 69.1864 51.7736 69.1893 51.7734C69.1923 51.7731 69.1986 51.7729 69.2091 51.7741C69.2303 51.7766 69.2712 51.7852 69.3326 51.8132C69.4611 51.8718 69.6423 51.9987 69.8518 52.2291C70.2713 52.6905 70.6927 53.4451 70.9588 54.3914L72.8841 53.8498C72.5521 52.6695 72.001 51.62 71.3316 50.8838C70.7073 50.197 69.735 49.5416 68.6423 49.8489L69.1839 51.7742ZM48.4426 85.8876C57.3314 92.3776 67.5594 93.2129 75.869 89.348C84.1822 85.4812 90.4437 76.9735 91.548 65.0522L89.5565 64.8678C88.5108 76.1565 82.6272 83.9987 75.0255 87.5345C67.42 91.072 57.963 90.3624 49.6219 84.2723L48.4426 85.8876Z" fill="#116FAE"/>
<path id="1px-stroke-emphasis" d="M49.5522 79.56C45.8422 79.28 42.8322 82.35 43.4422 87.53M88.4022 59.65C91.1222 59.33 93.7822 59.92 95.4922 61.87" stroke="#116FAE" stroke-linecap="round" stroke-linejoin="round"/>
<path id="fill-emphasis" d="M94.8419 66.4001C98.0919 68.9001 90.3819 94.3801 65.1719 91.4601C65.1719 91.4601 86.0719 91.1601 91.0219 64.0901C91.0219 64.0901 93.1619 65.1101 94.8419 66.4001Z" fill="#116FAE" fill-opacity="0.24"/>
</g>
</g>
</svg>
