<svg width="129" height="128" viewBox="0 0 129 128" fill="none" xmlns="http://www.w3.org/2000/svg">
<g id="Pictogram-chat-bot">
<g id="Default">
<path id="dash-stroke-default" d="M53.4707 24H53.4717" stroke="#494A4A" stroke-width="0.001"/>
<path id="2px-stroke-default" d="M109.182 68.4999C111.632 40.9899 116.962 31.7899 100.532 29.8099M24.6617 34.7299C15.5717 38.6999 16.6417 47.8499 18.9317 72.2499C21.9617 104.59 25.8617 104.47 58.8017 105.08C62.7117 105.15 66.3017 105.27 69.6017 105.38M66.0917 30.2499C64.8617 30.3199 64.2617 30.3899 62.9717 30.4599C60.8017 30.5799 60.3717 30.6999 58.3917 30.7999M17.5617 65.8799C17.5617 65.8799 11.7517 67.2999 11.6417 70.4699C11.5317 73.6399 11.2317 76.4499 11.6417 77.7899C12.8017 81.5799 17.2717 81.9199 19.6117 82.6799M117.792 72.3799C117.682 68.4199 112.012 65.9699 109.962 64.5999M10.8317 74.1899C7.36167 75.0099 0.481668 70.4199 5.15167 55.1799M121.672 74.8399C124.632 72.3699 127.022 66.4999 123.872 56.1999M88.9217 39.0099C89.8117 42.7599 81.9717 44.2499 81.1617 39.6899C80.6317 36.6899 88.0017 35.1399 88.9217 39.0099ZM101.982 35.1999C106.362 60.1499 69.9617 69.3699 65.0517 40.4099C61.1717 17.5599 97.2417 8.2099 101.982 35.1999ZM46.5817 39.0399C47.4317 42.5999 39.9817 44.0099 39.2117 39.6799C38.7117 36.8299 45.7017 35.3599 46.5817 39.0399ZM59.8917 36.4299C64.0517 60.1199 29.4917 68.8799 24.8217 41.3799C21.1417 19.6799 55.3917 10.7999 59.8917 36.4299ZM40.9217 77.7699C39.6117 80.5999 44.2017 89.4799 57.4517 90.0299C64.4817 90.3199 65.8217 84.8599 64.4417 82.0499C62.7717 78.6599 59.5617 80.4899 54.1817 79.4299C48.9317 78.3899 43.0217 73.2499 40.9317 77.7699H40.9217ZM5.84167 54.8399C0.801668 53.5799 3.17167 44.8799 7.01167 46.0099C14.4017 48.1899 9.41167 55.7299 5.84167 54.8399ZM123.162 56.1299C128.252 54.9999 125.862 47.1799 121.982 48.1999C114.522 50.1599 119.562 56.9299 123.162 56.1299Z" stroke="#494A4A" stroke-width="2" stroke-linecap="round" stroke-linejoin="round"/>
<path id="1px-stroke-default" d="M12.0921 87.6298C11.4321 90.2498 11.1121 94.8998 11.4321 96.2598M9.06211 85.6198C7.93211 86.6198 7.79211 88.0698 6.36211 89.8298M7.82211 82.3798C4.41211 82.3498 2.66211 84.1098 2.66211 84.1098" stroke="#494A4A" stroke-linecap="round" stroke-linejoin="round"/>
<path id="fill-default" fill-rule="evenodd" clip-rule="evenodd" d="M66.0922 110.56C63.8122 113.94 39.4522 111.19 30.3222 101.57C25.4122 96.39 17.3122 57.1 26.8922 48.22C28.9122 49.54 29.2222 57.6 45.2222 57.6C51.3622 57.6 63.0522 49.92 58.8122 33.03C61.5822 32.22 62.9321 31.82 65.7421 31.16C61.8621 38.56 66.2922 45.72 68.0422 49.22C73.0622 59.25 88.5622 62 95.5522 54.25C109.822 38.43 96.9322 28.24 99.5322 29.06C100.712 29.43 108.002 32.34 108.842 32.91C114.882 36.96 117.122 55.36 116.292 71C116.202 72.6 109.242 70.39 106.392 70.22C99.2321 69.8 78.9222 73.41 72.8322 78.29C65.4722 84.19 69.5922 105.36 66.0922 110.55V110.56Z" fill="#494A4A" fill-opacity="0.08"/>
</g>
<g id="Emphasis">
<g id="2px-stroke-emphasis">
<path fill-rule="evenodd" clip-rule="evenodd" d="M115.363 75.7299C107.183 71.2599 76.8029 77.2399 73.6729 84.6799C71.3229 90.2899 76.1429 108.16 82.2729 114.32C86.2829 118.34 101.283 113.42 103.943 114.12C106.763 114.86 114.243 123.01 116.293 121.54C118.343 120.07 114.843 113.26 115.403 111.54C116.093 109.43 120.123 107.89 120.923 105.98C123.513 99.7499 121.883 79.2999 115.363 75.7299Z" stroke="#116FAE" stroke-width="2" stroke-linecap="round" stroke-linejoin="round"/>
<path d="M88.8317 99.4206C90.2432 99.271 91.2728 98.0679 91.1313 96.7333C90.9899 95.3987 89.731 94.4381 88.3195 94.5877C86.908 94.7373 85.8785 95.9405 86.0199 97.275C86.1614 98.6096 87.4203 99.5702 88.8317 99.4206Z" stroke="#116FAE" stroke-width="2" stroke-linecap="round" stroke-linejoin="round"/>
<path d="M99.1368 98.3997C100.548 98.2501 101.578 97.0469 101.436 95.7124C101.295 94.3778 100.036 93.4172 98.6246 93.5668C97.2131 93.7164 96.1836 94.9195 96.325 96.2541C96.4665 97.5887 97.7253 98.5493 99.1368 98.3997Z" stroke="#116FAE" stroke-width="2" stroke-linecap="round" stroke-linejoin="round"/>
<path d="M109.506 97.2332C110.917 97.0836 111.947 95.8805 111.805 94.5459C111.664 93.2113 110.405 92.2507 108.994 92.4003C107.582 92.5499 106.552 93.7531 106.694 95.0876C106.835 96.4222 108.094 97.3828 109.506 97.2332Z" stroke="#116FAE" stroke-width="2" stroke-linecap="round" stroke-linejoin="round"/>
</g>
<path id="1px-stroke-emphasis" d="M117.393 102.33C117.393 102.33 117.312 104.91 116.062 105.75" stroke="#116FAE" stroke-linecap="round" stroke-linejoin="round"/>
<path id="fill-emphasis" fill-rule="evenodd" clip-rule="evenodd" d="M121.723 78.8098C114.443 73.8598 83.6826 76.6798 80.0526 83.2498C77.3126 88.1998 80.1826 105.22 85.3826 111.53C88.7826 115.65 103.353 112.6 105.783 113.51C108.373 114.47 114.643 122.77 116.703 121.6C118.763 120.44 117.733 113.48 118.423 111.95C119.263 110.06 123.203 109.04 124.133 107.35C127.153 101.84 127.523 82.7598 121.723 78.8098ZM92.0626 98.5998C90.3326 100.29 88.4826 100.49 87.5526 99.8598C86.8426 99.3898 86.2126 96.0698 88.2726 94.4098C89.0026 93.8298 89.8526 93.7398 90.4726 94.2198C91.3926 94.9298 92.6626 98.0098 92.0626 98.5998ZM102.373 97.5798C100.643 99.2698 98.7926 99.4698 97.8626 98.8398C97.1526 98.3698 96.5226 95.0498 98.5826 93.3898C99.3126 92.8098 100.163 92.7198 100.783 93.1998C101.703 93.9098 102.973 96.9898 102.373 97.5798ZM110.503 98.2898C108.033 98.3398 106.593 97.2398 106.403 96.1698C106.263 95.3598 108.293 92.5598 110.973 92.7598C111.913 92.8298 112.583 93.3398 112.653 94.0998C112.763 95.2198 111.353 98.2798 110.503 98.2998V98.2898Z" fill="#116FAE" fill-opacity="0.24"/>
</g>
</g>
</svg>
