<svg width="129" height="129" viewBox="0 0 129 129" fill="none" xmlns="http://www.w3.org/2000/svg">
<g id="Pictogram-user-switch">
<g id="Default">
<path id="dash-stroke-default" d="M66.8873 120.259C48.6073 120.259 32.5573 110.719 23.4473 96.3391M79.7373 19.0991C101.897 24.7991 118.277 44.9191 118.277 68.8691C118.277 74.1891 117.467 79.3191 115.967 84.1491" stroke="#494A4A" stroke-linecap="round" stroke-linejoin="round" stroke-dasharray="5 5"/>
<path id="2px-stroke-default" d="M55.8472 45.8293C55.8472 58.5593 70.7672 57.2793 78.7472 62.2593C82.1472 64.3793 84.5672 73.5393 84.5672 79.6193C84.5672 88.8793 9.86719 88.8793 9.86719 79.6193C9.86719 73.9293 11.9872 64.7993 15.0372 62.6793C22.9172 57.2293 38.3672 59.3093 38.3672 45.8293M47.2172 49.2293C54.9472 49.0493 63.4572 40.3593 63.4572 23.1793C63.4572 10.0693 57.2672 3.73926 47.2172 3.73926C37.1672 3.73926 30.9072 10.0693 30.9772 23.1793C31.0672 40.4193 39.7172 49.4093 47.2172 49.2293Z" stroke="#494A4A" stroke-width="2" stroke-miterlimit="10" stroke-linecap="round"/>
<path id="1px-stroke-default" d="M20.9667 65.0194C17.2767 66.2194 17.1667 66.7294 15.8867 71.5394M78.7467 23.7894C78.7467 23.7894 75.4067 19.8394 75.4067 18.1994C75.4067 16.5594 80.9967 14.8594 80.9967 14.8594M66.9267 115.659C66.9267 115.659 71.2367 118.529 71.6967 120.099C72.1567 121.669 67.2567 124.869 67.2567 124.869" stroke="#494A4A" stroke-linecap="round" stroke-linejoin="round"/>
<path id="fill-default" fill-rule="evenodd" clip-rule="evenodd" d="M84.3476 63.3994C76.2276 58.4594 56.9976 59.1994 56.5176 46.8994C62.0276 43.5394 66.3976 35.4594 66.8776 23.6194C67.3776 11.2694 63.8276 5.12936 53.2076 4.69936C42.5976 4.26936 35.8276 9.96936 35.3276 22.3194C34.6776 38.4994 41.9776 48.3294 50.1376 48.6594C51.0476 48.6994 51.9576 48.5994 52.8476 48.3994C51.6876 48.9094 50.4676 49.3194 49.5076 49.3194C46.9876 49.3194 42.3476 47.7994 42.3476 47.7994C42.3476 61.3494 29.2776 58.2994 21.1576 63.7894C18.0076 65.9094 12.5576 75.0794 12.5576 80.7894C12.5576 91.5294 86.5176 91.8793 89.5176 80.7894C90.5076 74.4994 87.8276 65.5294 84.3276 63.3994H84.3476Z" fill="#494A4A" fill-opacity="0.08"/>
</g>
<g id="Emphasis">
<path id="2px-stroke-emphasis" d="M77.5277 91.8994C65.1377 104.899 93.7977 131.839 111.998 121.619C127.878 112.709 105.418 87.7194 90.6977 89.1094L104.638 115.119L77.5277 91.8994Z" stroke="#116FAE" stroke-width="2" stroke-linecap="round" stroke-linejoin="round"/>
<path id="1px-stroke-emphasis" d="M77.5277 91.8994C65.1377 104.899 93.7977 131.839 111.998 121.619C127.878 112.709 105.418 87.7194 90.6977 89.1094L104.638 115.119L77.5277 91.8994Z" stroke="#116FAE" stroke-width="2" stroke-linecap="round" stroke-linejoin="round"/>
<path id="fill-emphasis" d="M83.5178 91.1194C70.6178 104.649 100.448 132.669 119.388 122.039C135.918 112.769 112.538 86.7694 97.2278 88.2194L111.738 115.279L83.5278 91.1194H83.5178Z" fill="#116FAE" fill-opacity="0.24"/>
</g>
</g>
</svg>
