<svg width="129" height="129" viewBox="0 0 129 129" fill="none" xmlns="http://www.w3.org/2000/svg">
<g id="Pictogram-music-player">
<g id="Default">
<path id="dash-stroke-default" d="M3.99219 59.5449H3.99319" stroke="#494A4A" stroke-width="0.001"/>
<path id="2px-stroke-default" d="M119.451 80.1872C119.483 79.6358 119.062 79.1631 118.511 79.1314C117.959 79.0996 117.487 79.5208 117.455 80.0722L119.451 80.1872ZM117.923 85.7097L118.918 85.8072L118.918 85.8063L117.923 85.7097ZM111.063 100.476C110.68 100.874 110.692 101.507 111.089 101.89C111.487 102.273 112.12 102.261 112.503 101.864L111.063 100.476ZM61.7152 109.38C62.2675 109.373 62.7097 108.92 62.703 108.368C62.6963 107.815 62.2432 107.373 61.691 107.38L61.7152 109.38ZM26.6031 107.35L26.7019 106.355L26.7017 106.355L26.6031 107.35ZM5.4531 85.7097L4.45673 85.7949L4.45674 85.795L5.4531 85.7097ZM5.4531 32.3297L6.45059 32.4004L6.45063 32.3999L5.4531 32.3297ZM26.6031 10.6897L26.5124 9.69381L26.5122 9.69383L26.6031 10.6897ZM96.7731 10.6897L96.6759 11.685L96.676 11.685L96.7731 10.6897ZM117.923 32.3297L118.919 32.2383L118.919 32.238L117.923 32.3297ZM117.913 50.8171C117.912 51.3694 118.358 51.8183 118.911 51.8197C119.463 51.8211 119.912 51.3745 119.913 50.8223L117.913 50.8171ZM48.2131 44.1197L47.2254 43.9636L47.2252 43.9643L48.2131 44.1197ZM47.5531 68.0397L48.5485 67.9436L48.5483 67.9422L47.5531 68.0397ZM56.7931 74.0097L56.4598 73.0669L56.4593 73.0671L56.7931 74.0097ZM79.0131 62.5697L79.6395 63.3492L79.64 63.3488L79.0131 62.5697ZM77.5731 51.2097L77.0004 52.0295L77.001 52.0299L77.5731 51.2097ZM56.9031 39.5697L56.577 40.515L56.5775 40.5152L56.9031 39.5697ZM25.0369 20.1766C25.5764 20.0585 25.9181 19.5254 25.8 18.9859C25.6819 18.4464 25.1488 18.1047 24.6093 18.2228L25.0369 20.1766ZM13.3911 31.1108C13.2868 31.6531 13.6418 32.1773 14.1842 32.2817C14.7265 32.386 15.2508 32.031 15.3551 31.4886L13.3911 31.1108ZM117.455 80.0722C117.346 81.9578 117.132 83.5063 116.928 85.6131L118.918 85.8063C119.114 83.7931 119.34 82.1216 119.451 80.1872L117.455 80.0722ZM116.928 85.6123C116.33 91.7214 114.547 96.8596 111.063 100.476L112.503 101.864C116.419 97.7998 118.297 92.158 118.918 85.8072L116.928 85.6123ZM61.691 107.38C44.4124 107.59 34.7122 107.15 26.7019 106.355L26.5043 108.345C34.614 109.15 44.3937 109.59 61.7152 109.38L61.691 107.38ZM26.7017 106.355C21.16 105.805 16.4019 103.963 12.8908 100.637C9.3886 97.3204 7.0327 92.4387 6.44946 85.6244L4.45674 85.795C5.0735 93.0007 7.5926 98.374 11.5154 102.089C15.4293 105.796 20.6462 107.764 26.5045 108.345L26.7017 106.355ZM6.44947 85.6245C4.88546 67.3246 5.4727 46.1907 6.45059 32.4004L4.4556 32.259C3.47349 46.1087 2.88074 67.3548 4.45673 85.7949L6.44947 85.6245ZM6.45063 32.3999C6.94169 25.4219 8.75932 20.5958 11.9755 17.354C15.1936 14.1102 19.9634 12.2997 26.694 11.6856L26.5122 9.69383C19.5428 10.3297 14.2376 12.2342 10.5557 15.9454C6.87188 19.6586 4.96451 25.0275 4.45557 32.2595L6.45063 32.3999ZM26.6938 11.6856C47.2882 9.81063 75.645 9.63171 96.6759 11.685L96.8703 9.69443C75.7012 7.62769 47.218 7.80876 26.5124 9.69381L26.6938 11.6856ZM96.676 11.685C103.21 12.3222 107.916 14.177 111.152 17.4469C114.39 20.718 116.294 25.5454 116.927 32.4214L118.919 32.238C118.262 25.104 116.257 19.7614 112.574 16.04C108.89 12.3174 103.666 10.3572 96.8702 9.69442L96.676 11.685ZM116.927 32.4211C117.865 42.6319 117.923 46.9404 117.913 50.8171L119.913 50.8223C119.923 46.879 119.862 42.5075 118.919 32.2383L116.927 32.4211ZM47.2252 43.9643C46.2917 49.9001 45.9598 62.0352 46.5579 68.1372L48.5483 67.9422C47.9664 62.0042 48.2945 50.0393 49.201 44.2751L47.2252 43.9643ZM46.5577 68.1357C46.8614 71.2828 47.9244 73.6186 49.8848 74.8303C51.8368 76.0368 54.3621 75.9315 57.1269 74.9523L56.4593 73.0671C53.9441 73.9579 52.1394 73.8726 50.9364 73.1291C49.7418 72.3908 48.8248 70.8066 48.5485 67.9436L46.5577 68.1357ZM57.1264 74.9525C65.6068 71.9547 73.9651 67.9091 79.6395 63.3492L78.3867 61.7902C72.9611 66.1502 64.8394 70.1047 56.4598 73.0669L57.1264 74.9525ZM79.64 63.3488C82.0522 61.4079 82.9926 58.9943 82.5709 56.5649C82.1609 54.203 80.4987 52.0311 78.1452 50.3895L77.001 52.0299C79.0775 53.4782 80.3103 55.2364 80.6003 56.907C80.8786 58.5101 80.324 60.2314 78.3862 61.7906L79.64 63.3488ZM78.1458 50.3899C73.0485 46.8288 64.6402 41.1764 57.2287 38.6242L56.5775 40.5152C63.686 42.963 71.8777 48.4506 77.0004 52.0295L78.1458 50.3899ZM57.2292 38.6244C54.6116 37.7214 52.2835 37.8027 50.4786 38.826C48.6687 39.8522 47.5807 41.715 47.2254 43.9636L49.2008 44.2758C49.4855 42.4744 50.3075 41.2221 51.4651 40.5659C52.6277 39.9066 54.3246 39.738 56.577 40.515L57.2292 38.6244ZM24.6093 18.2228C21.353 18.9355 18.7803 20.9469 16.9208 23.3517C15.0641 25.7528 13.8743 28.5992 13.3911 31.1108L15.3551 31.4886C15.7819 29.2702 16.8471 26.7166 18.5029 24.5752C20.1559 22.4375 22.3532 20.7639 25.0369 20.1766L24.6093 18.2228Z" fill="#494A4A"/>
<path id="1px-stroke-default" d="M57.5234 67.5497C60.5534 66.7397 66.4734 64.0597 69.7534 62.2397" stroke="#494A4A" stroke-linecap="round" stroke-linejoin="round"/>
<path id="fill-default" d="M118.363 35.6098C117.243 21.9698 111.553 15.8098 99.9433 14.5498C81.5633 12.5498 64.1633 13.9198 43.4333 17.2598C27.4733 19.8298 18.1533 28.7298 16.3633 51.3998C15.4433 63.0998 16.8233 75.8998 18.4633 86.6298C19.7533 95.0198 25.0533 106.22 31.7933 107.21C40.1333 108.43 50.1633 108.85 65.2333 108.64C65.2333 108.64 63.1533 102.41 64.1933 96.1798C65.2333 89.9498 70.4233 81.6398 80.8033 82.6798C91.1833 83.7198 96.3833 80.5998 95.3433 76.4498C94.3033 72.2998 94.3033 51.5298 101.573 49.4498C108.843 47.3698 115.073 54.6398 117.153 53.5998C119.233 52.5598 119.183 45.5698 118.363 35.5998V35.6098ZM79.4333 62.0598C74.9933 66.0698 68.2333 69.8898 61.2333 72.9098C56.8533 74.7998 53.8433 73.5698 52.9333 68.7498C52.0233 63.9198 51.7333 57.9298 51.7333 50.4798C51.7333 45.2898 57.8433 43.2498 62.1133 44.2498C68.4833 45.7398 72.7633 47.9898 77.6933 51.5198C81.3933 54.1698 82.9033 58.9098 79.4333 62.0498V62.0598Z" fill="#494A4A" fill-opacity="0.08"/>
</g>
<g id="Emphasis">
<path id="2px-stroke-emphasis" d="M92.3743 88.9795C79.6343 83.5695 66.6743 91.9395 69.3243 106.62C72.4843 124.15 97.1843 124.92 102.244 107.2C106.704 91.5695 108.124 74.4295 109.354 68.6495C109.594 67.5095 120.054 74.1296 121.954 72.9296C123.284 72.0896 123.584 67.7195 122.914 65.2395C122.434 63.4695 111.414 55.1695 106.084 53.2995C104.334 52.6795 103.284 53.7395 102.814 56.0295C101.244 63.6795 99.7143 80.4695 98.1343 88.0195C97.6043 90.5495 94.8543 90.0195 92.3943 88.9795H92.3743Z" stroke="#116FAE" stroke-width="2" stroke-linecap="round" stroke-linejoin="round"/>
<path id="1px-stroke-emphasis" d="M81.2139 94.4097C78.0039 95.3897 75.8639 98.7197 75.5039 101.18" stroke="#116FAE" stroke-linecap="round" stroke-linejoin="round"/>
<path id="fill-emphasis" d="M89.1142 93.0697C82.8842 92.0297 69.9242 95.5397 72.5742 110.22C75.7342 127.75 100.434 128.52 105.494 110.8C109.954 95.1697 111.774 81.1897 113.004 75.4197C113.244 74.2797 123.304 77.7397 125.194 76.5397C126.524 75.6997 126.824 71.3297 126.154 68.8497C125.674 67.0797 117.294 61.7297 111.964 59.8497C110.214 59.2297 106.204 62.7597 105.734 65.0397C104.164 72.6897 101.084 83.4497 99.5042 90.9997C98.9742 93.5297 95.3542 94.1197 89.1242 93.0797L89.1142 93.0697Z" fill="#116FAE" fill-opacity="0.24"/>
</g>
</g>
</svg>
