<svg width="128" height="129" viewBox="0 0 128 129" fill="none" xmlns="http://www.w3.org/2000/svg">
<g id="Pictogram-time-expense">
<g id="Default">
<path id="dash-stroke-default" d="M7.49805 53.7993H7.49905" stroke="#494A4A" stroke-width="0.001"/>
<path id="2px-stroke-default" d="M49.1689 112.11C42.3589 112.11 30.2789 111.83 27.4289 111.64C17.2689 110.99 9.70887 104.49 8.65887 91.3696C7.27887 74.1796 7.81887 45.2696 8.72887 31.9796C9.63887 18.6896 15.3589 12.7196 27.5489 11.7596C46.3689 10.2796 71.1689 9.87958 89.9189 11.8296C101.769 13.0596 107.569 18.9896 108.689 32.0996C109.629 43.0096 109.889 52.3596 109.849 58.9996M37.0589 73.0096C40.2889 73.2396 48.8989 67.8296 54.4389 65.5196M74.8489 30.2796C72.4889 33.4996 62.7989 52.0796 61.6989 56.4396M58.8889 19.6096C59.0089 21.7096 58.7789 23.7096 58.7789 25.1396M22.5089 61.2596C20.3989 61.3896 18.3889 61.1496 16.9489 61.1496M112.139 76.4896C117.019 76.3896 118.859 79.6696 119.559 84.2896M69.8089 93.5896C69.5789 91.1296 69.6689 91.9296 69.5889 90.1496C69.3689 85.6096 70.5989 81.2996 74.3089 79.9896C75.3089 79.6396 77.8389 79.3096 79.0689 79.1396M123.809 104.98C123.999 107.26 123.869 107.36 123.869 108.38C123.849 113.37 121.429 117.67 114.799 118.85C103.339 120.9 93.6289 122.11 84.3289 122.84M73.7689 80.2096C71.1389 81.3796 70.5789 85.8396 76.2189 85.5796C86.1589 85.1396 101.349 82.0196 110.439 81.5996C116.989 81.2996 120.539 83.5396 121.909 89.3796C122.119 90.2896 122.359 91.7896 122.599 93.5896M122.349 91.6896C124.459 91.5896 125.689 92.4996 126.079 93.9896C126.599 95.9796 127.599 101.41 126.519 103.14C124.999 105.57 112.079 106.96 108.349 106.84C106.819 106.79 105.479 99.4096 106.719 97.6796C107.959 95.9496 119.649 94.8296 121.119 94.6396C123.649 94.3096 124.189 93.1296 122.699 92.6796M27.2189 78.5596C29.2489 79.4896 36.4989 82.7296 37.6989 81.0096C39.7189 78.1196 35.4889 68.1296 33.2289 67.4996C31.1989 66.9296 27.1689 73.9496 26.1389 75.4896C25.3489 76.6696 25.9689 77.9796 27.2289 78.5596H27.2189ZM76.3189 23.6096C75.3189 24.0996 70.7889 25.6896 71.3089 26.8796C72.2289 28.9796 78.0789 31.9596 79.4789 31.2696C80.7389 30.6496 79.1489 25.5696 78.7889 24.4396C78.5089 23.5696 77.1489 23.2096 76.3289 23.6096H76.3189ZM64.5689 61.1996C64.5689 64.1709 62.1602 66.5796 59.1889 66.5796C56.2176 66.5796 53.8089 64.1709 53.8089 61.1996C53.8089 58.2283 56.2176 55.8196 59.1889 55.8196C62.1602 55.8196 64.5689 58.2283 64.5689 61.1996Z" stroke="#494A4A" stroke-width="2" stroke-linecap="round" stroke-linejoin="round"/>
<path id="1px-stroke-default" d="M97.0901 22.4995C96.0901 23.4395 95.7801 23.3495 94.7201 24.6595M22.4601 95.9095C21.1301 97.4995 21.1501 96.8395 20.0801 98.1495M22.2501 25.7495C21.4201 25.0595 20.3901 24.0895 20.0901 23.8395M111.51 115.95C115.06 115.52 117.16 114.95 117.8 113.91M114.88 100.96C115.04 102.2 114.18 103.49 112.93 103.5C111.43 103.51 110.47 102.95 110.39 101.55C110.32 100.3 111.11 99.2595 112.34 99.0095C113.95 98.6895 114.72 99.7195 114.88 100.96Z" stroke="#494A4A" stroke-linecap="round" stroke-linejoin="round"/>
<g id="fill-default">
<path d="M30.169 8.68944C30.649 2.60944 54.939 3.97944 62.809 3.46944C73.119 2.80944 90.419 3.39944 98.379 4.06944C106.329 4.73944 112.359 6.08944 114.109 13.1994C117.479 26.8294 120.409 70.1394 113.659 66.0794C109.619 63.6494 113.089 26.9994 105.889 15.7794C101.339 8.68944 77.549 8.49944 71.409 7.79944C60.679 6.56944 30.129 9.14944 30.169 8.68944Z" fill="#494A4A" fill-opacity="0.08"/>
<path d="M62.089 68.9694C65.4193 68.9694 68.119 65.8578 68.119 62.0194C68.119 58.1811 65.4193 55.0694 62.089 55.0694C58.7587 55.0694 56.059 58.1811 56.059 62.0194C56.059 65.8578 58.7587 68.9694 62.089 68.9694Z" fill="#494A4A" fill-opacity="0.08"/>
</g>
</g>
<g id="Emphasis">
<path id="2px-stroke-emphasis" d="M75.8883 81.8482C75.6174 82.3295 75.7879 82.9393 76.2691 83.2102C76.7504 83.4812 77.3601 83.3107 77.6311 82.8295L75.8883 81.8482ZM107.971 78.9656C108.146 79.4895 108.713 79.7723 109.237 79.5973C109.76 79.4224 110.043 78.8559 109.868 78.332L107.971 78.9656ZM85.862 80.9347C85.3682 81.1819 85.1683 81.7827 85.4155 82.2765C85.6628 82.7704 86.2636 82.9703 86.7574 82.723L85.862 80.9347ZM104.194 79.3064C104.286 79.8509 104.803 80.2172 105.347 80.1247C105.892 80.0322 106.258 79.5158 106.166 78.9713L104.194 79.3064ZM105.466 69.7331C104.938 69.8955 104.642 70.4551 104.804 70.9829C104.966 71.5108 105.526 71.807 106.054 71.6446L105.466 69.7331ZM111.413 78.3524C111.503 78.8972 112.018 79.2657 112.563 79.1754C113.108 79.0851 113.477 78.5702 113.386 78.0253L111.413 78.3524ZM77.9497 95.3988H78.9497V94.6161L78.1899 94.4281L77.9497 95.3988ZM72.4497 94.4688L72.5709 93.4762L72.5703 93.4761L72.4497 94.4688ZM67.8897 124.969L67.6598 125.942L67.6613 125.942L67.8897 124.969ZM71.4797 125.729L71.352 126.721L71.3554 126.721L71.4797 125.729ZM77.9497 95.4088H76.9497V96.1891L77.7065 96.3788L77.9497 95.4088ZM70.8117 101.581C71.0614 101.088 70.8644 100.487 70.3718 100.237C69.8792 99.9872 69.2774 100.184 69.0277 100.677L70.8117 101.581ZM66.5197 108.059L67.4227 108.488L67.4239 108.486L66.5197 108.059ZM63.5006 112.847C63.4776 113.399 63.9063 113.865 64.4581 113.888C65.0099 113.911 65.4759 113.482 65.4989 112.93L63.5006 112.847ZM73.5203 108.025C74.0703 107.975 74.4756 107.488 74.4256 106.938C74.3756 106.388 73.8892 105.983 73.3392 106.033L73.5203 108.025ZM68.0168 107.075C67.5344 106.806 66.9254 106.979 66.6564 107.462C66.3874 107.944 66.5603 108.553 67.0426 108.822L68.0168 107.075ZM68.1033 114.754C68.1503 115.304 68.6344 115.712 69.1847 115.665C69.735 115.618 70.143 115.134 70.0961 114.584L68.1033 114.754ZM68.338 108.357C67.9175 107.999 67.2864 108.05 66.9283 108.471C66.5703 108.891 66.6209 109.522 67.0414 109.88L68.338 108.357ZM71.4315 115.75C71.2004 116.252 71.4196 116.846 71.9212 117.077C72.4228 117.308 73.0168 117.089 73.2479 116.587L71.4315 115.75ZM75.5697 109.159L75.7753 108.18C75.3188 108.084 74.8567 108.317 74.6615 108.74L75.5697 109.159ZM77.5603 111.284C77.4248 111.819 77.749 112.363 78.2844 112.498C78.8198 112.634 79.3637 112.31 79.4992 111.774L77.5603 111.284ZM77.6311 82.8295C80.4313 77.8561 86.7088 73.9828 92.571 71.3856C95.4725 70.1002 98.2124 69.1532 100.264 68.5558C101.29 68.2568 102.133 68.0486 102.73 67.9293C103.031 67.8691 103.251 67.8352 103.393 67.8214C103.466 67.8144 103.494 67.815 103.491 67.8149C103.49 67.8148 103.461 67.814 103.416 67.8055C103.383 67.7992 103.266 67.7758 103.132 67.6942L104.168 65.9835C104.011 65.8884 103.863 65.8545 103.788 65.8404C103.702 65.8241 103.623 65.8183 103.563 65.8162C103.441 65.8118 103.315 65.8196 103.199 65.8308C102.963 65.8538 102.67 65.9017 102.338 65.9681C101.669 66.1019 100.768 66.3259 99.7043 66.6356C97.5751 67.2557 94.7507 68.2325 91.7609 69.5571C85.8407 72.1799 79.0282 76.2716 75.8883 81.8482L77.6311 82.8295ZM103.132 67.6942C103.036 67.636 103.005 67.5865 103.045 67.6338C103.072 67.6657 103.117 67.7245 103.179 67.8188C103.305 68.0064 103.465 68.2787 103.656 68.6329C104.037 69.3379 104.505 70.3052 105.009 71.4283C106.016 73.6733 107.143 76.4872 107.971 78.9656L109.868 78.332C109.016 75.7805 107.863 72.9043 106.833 70.6094C106.319 69.4625 105.829 68.4473 105.417 67.6835C105.212 67.3034 105.017 66.9698 104.843 66.7081C104.756 66.5778 104.664 66.4512 104.57 66.3403C104.489 66.245 104.353 66.0954 104.168 65.9835L103.132 67.6942ZM86.7574 82.723C90.4182 80.8902 94.5056 79.3141 97.8147 78.2686C99.4701 77.7457 100.912 77.3613 101.997 77.1435C102.541 77.034 102.973 76.9713 103.285 76.9499C103.442 76.9393 103.548 76.9405 103.612 76.9458C103.693 76.9526 103.648 76.9609 103.553 76.9133L104.447 75.1244C104.209 75.0055 103.96 74.9679 103.778 74.9527C103.579 74.9362 103.365 74.9398 103.149 74.9546C102.715 74.9842 102.189 75.0647 101.603 75.1827C100.424 75.4195 98.9081 75.8258 97.2122 76.3615C93.8188 77.4336 89.6313 79.0475 85.862 80.9347L86.7574 82.723ZM103.553 76.9133C103.518 76.896 103.642 76.9427 103.803 77.4421C103.951 77.9053 104.06 78.5207 104.194 79.3064L106.166 78.9713C106.039 78.2269 105.908 77.4574 105.707 76.8306C105.517 76.24 105.181 75.4917 104.447 75.1244L103.553 76.9133ZM106.054 71.6446C106.241 71.5871 107.409 71.2354 108.562 70.9479C109.142 70.8031 109.692 70.6812 110.104 70.6185C110.315 70.5864 110.45 70.576 110.521 70.5766C110.558 70.5769 110.537 70.5803 110.482 70.5672C110.456 70.5608 110.226 70.5086 110.037 70.2711L111.603 69.0266C111.375 68.7404 111.075 68.6526 110.95 68.6227C110.797 68.5859 110.65 68.5776 110.538 68.5767C110.309 68.5747 110.05 68.6036 109.803 68.6413C109.297 68.7183 108.675 68.8583 108.078 69.0073C106.875 69.3072 105.669 69.6705 105.466 69.7331L106.054 71.6446ZM110.037 70.2711C109.961 70.1758 109.938 70.1029 109.953 70.139C109.959 70.1542 109.972 70.1918 109.992 70.2597C110.032 70.3945 110.08 70.5909 110.136 70.8498C110.247 71.3644 110.375 72.0632 110.515 72.8772C110.797 74.5101 111.11 76.5249 111.413 78.3524L113.386 78.0253C113.089 76.2328 112.768 74.1726 112.486 72.5379C112.345 71.7182 112.211 70.9852 112.09 70.4276C112.031 70.1504 111.971 69.9006 111.912 69.6988C111.883 69.5986 111.849 69.4953 111.811 69.3995C111.781 69.3246 111.717 69.1706 111.603 69.0266L110.037 70.2711ZM78.1899 94.4281C77.1741 94.1768 75.6336 93.8502 72.5709 93.4762L72.3285 95.4615C75.3258 95.8275 76.7853 96.1409 77.7095 96.3696L78.1899 94.4281ZM72.5703 93.4761C67.9986 92.9208 64.2418 94.4323 61.5014 97.0875C58.7834 99.721 57.0968 103.443 56.5206 107.314C55.3754 115.008 58.6106 123.804 67.6598 125.942L68.1196 123.996C60.4489 122.183 57.444 114.695 58.4988 107.609C59.0226 104.09 60.546 100.798 62.8931 98.5239C65.2177 96.2716 68.3808 94.9819 72.3291 95.4615L72.5703 93.4761ZM67.6613 125.942C69.2288 126.31 69.9647 126.542 71.352 126.721L71.6075 124.737C70.3548 124.576 69.7907 124.388 68.1181 123.995L67.6613 125.942ZM71.3554 126.721C76.6009 127.378 80.8439 125.995 83.9409 123.413C87.0203 120.846 88.9002 117.149 89.5569 113.271C90.864 105.552 87.3344 96.731 78.1929 94.4389L77.7065 96.3788C85.5551 98.3467 88.7705 105.936 87.585 112.937C86.9955 116.418 85.3198 119.659 82.6601 121.877C80.018 124.08 76.3385 125.33 71.604 124.737L71.3554 126.721ZM78.9497 95.4088V95.3988H76.9497V95.4088H78.9497ZM69.9197 101.129C69.0277 100.677 69.0277 100.677 69.0277 100.677C69.0277 100.677 69.0277 100.677 69.0276 100.677C69.0276 100.677 69.0275 100.677 69.0273 100.678C69.0271 100.678 69.0268 100.679 69.0263 100.68C69.0254 100.681 69.024 100.684 69.0222 100.688C69.0185 100.695 69.0132 100.706 69.0061 100.719C68.992 100.747 68.9711 100.789 68.9441 100.842C68.8899 100.95 68.811 101.106 68.7115 101.304C68.5124 101.701 68.231 102.263 67.9014 102.927C67.2426 104.254 66.3894 105.993 65.6155 107.632L67.4239 108.486C68.19 106.864 69.0368 105.138 69.693 103.816C70.0209 103.155 70.3008 102.596 70.4986 102.202C70.5975 102.005 70.6759 101.85 70.7295 101.744C70.7563 101.69 70.7769 101.65 70.7908 101.622C70.7977 101.609 70.803 101.598 70.8065 101.591C70.8082 101.588 70.8096 101.585 70.8104 101.583C70.8109 101.583 70.8112 101.582 70.8114 101.581C70.8115 101.581 70.8116 101.581 70.8116 101.581C70.8117 101.581 70.8117 101.581 70.8117 101.581C70.8117 101.581 70.8117 101.581 69.9197 101.129ZM65.6167 107.629C65.0743 108.769 64.5675 109.871 64.192 110.754C64.0048 111.194 63.8454 111.591 63.7297 111.916C63.6318 112.191 63.5129 112.552 63.5006 112.847L65.4989 112.93C65.4965 112.986 65.5001 112.906 65.6141 112.586C65.7103 112.315 65.8521 111.96 66.0324 111.537C66.3919 110.692 66.8851 109.618 67.4227 108.488L65.6167 107.629ZM73.3392 106.033C73.2045 106.045 73.0781 106.084 73.0396 106.096C72.9728 106.116 72.8974 106.141 72.8221 106.166C72.6758 106.216 72.4696 106.29 72.259 106.363C71.8193 106.516 71.2648 106.703 70.6799 106.861C70.0896 107.021 69.5013 107.142 68.9917 107.179C68.4524 107.218 68.1488 107.149 68.0168 107.075L67.0426 108.822C67.6906 109.184 68.4733 109.221 69.1349 109.174C69.8263 109.124 70.5536 108.967 71.202 108.792C71.8559 108.615 72.4632 108.41 72.917 108.252C73.1531 108.17 73.3265 108.108 73.4688 108.059C73.5378 108.035 73.5839 108.02 73.6129 108.012C73.6701 107.995 73.6137 108.016 73.5203 108.025L73.3392 106.033ZM69.0997 114.669C70.0961 114.584 70.0961 114.584 70.0961 114.584C70.0961 114.584 70.0961 114.583 70.096 114.583C70.096 114.583 70.096 114.583 70.096 114.582C70.0959 114.581 70.0958 114.58 70.0957 114.579C70.0954 114.576 70.0951 114.572 70.0946 114.567C70.0938 114.557 70.0925 114.543 70.0908 114.524C70.0874 114.488 70.0824 114.434 70.0757 114.367C70.0622 114.232 70.042 114.039 70.0146 113.806C69.9599 113.341 69.8757 112.707 69.7582 112.042C69.6416 111.383 69.4877 110.666 69.2885 110.044C69.1889 109.733 69.0713 109.424 68.9307 109.149C68.7963 108.886 68.6077 108.587 68.338 108.357L67.0414 109.88C67.0242 109.866 67.0691 109.901 67.1498 110.059C67.2245 110.205 67.3038 110.404 67.3838 110.654C67.5436 111.153 67.6791 111.77 67.7887 112.39C67.8975 113.006 67.9764 113.598 68.0283 114.039C68.0541 114.259 68.0731 114.44 68.0855 114.565C68.0917 114.627 68.0962 114.675 68.0992 114.707C68.1007 114.724 68.1017 114.736 68.1024 114.744C68.1028 114.747 68.103 114.75 68.1032 114.752C68.1032 114.753 68.1033 114.753 68.1033 114.754C68.1033 114.754 68.1033 114.754 68.1033 114.754C68.1033 114.754 68.1033 114.754 68.1033 114.754C68.1033 114.754 68.1033 114.754 69.0997 114.669ZM73.2479 116.587L76.4779 109.577L74.6615 108.74L71.4315 115.75L73.2479 116.587ZM75.5697 109.159C75.3641 110.137 75.3639 110.137 75.3637 110.137C75.3637 110.137 75.3635 110.137 75.3633 110.137C75.3631 110.137 75.363 110.137 75.3629 110.137C75.3626 110.137 75.3626 110.137 75.3627 110.137C75.3631 110.137 75.3642 110.137 75.366 110.138C75.3697 110.139 75.3764 110.14 75.3859 110.142C75.4048 110.147 75.4348 110.154 75.474 110.163C75.5528 110.183 75.6678 110.213 75.8056 110.254C76.0857 110.338 76.4396 110.46 76.7702 110.621C77.1152 110.788 77.3576 110.961 77.486 111.11C77.5872 111.228 77.5666 111.259 77.5603 111.284L79.4992 111.774C79.7028 110.969 79.4173 110.289 79.0028 109.806C78.6156 109.356 78.0918 109.039 77.6442 108.822C77.1823 108.597 76.7174 108.439 76.3769 108.337C76.2045 108.286 76.0587 108.248 75.9542 108.222C75.9019 108.209 75.8597 108.199 75.8293 108.192C75.8141 108.189 75.8019 108.186 75.7928 108.184C75.7883 108.183 75.7845 108.182 75.7816 108.182C75.7801 108.181 75.7789 108.181 75.7778 108.181C75.7773 108.181 75.7768 108.181 75.7764 108.18C75.7762 108.18 75.7759 108.18 75.7758 108.18C75.7755 108.18 75.7753 108.18 75.5697 109.159Z" fill="#116FAE"/>
<path id="1px-stroke-emphasis" d="M66.31 98.5291C64.23 99.7191 62.56 102.129 61.75 104.289M71.97 121.709C74.21 121.709 76.59 120.359 78.14 118.789M72.49 95.0391C91.9 97.0891 87.58 129.209 67.02 124.129" stroke="#116FAE" stroke-linecap="round" stroke-linejoin="round"/>
<g id="fill-emphasis">
<path d="M76.7599 82.949C74.2399 83.259 73.8599 81.999 74.6899 79.869C76.0099 76.439 79.2199 71.779 85.3599 69.289C92.6499 66.339 97.3799 64.969 99.7899 64.369C100.92 64.089 102.09 64.569 102.7 65.559L104.44 68.359L108.57 67.119C109.18 66.939 110.55 67.729 110.7 68.349L112.4 78.169C112.4 78.169 110.24 80.979 104.21 79.979C98.9999 79.119 96.9499 80.969 92.8299 81.559C89.9699 81.969 87.4099 82.149 84.5999 82.829C82.2399 83.399 78.2099 82.769 76.7499 82.949H76.7599Z" fill="#116FAE" fill-opacity="0.24"/>
<path fill-rule="evenodd" clip-rule="evenodd" d="M61.5899 121.009C53.5599 113.299 63.7299 91.599 83.4799 97.849C87.3299 99.069 88.6399 102.049 89.0999 103.009C98.6999 123.089 73.7099 133.439 68.8299 125.869C68.6199 125.549 62.2699 121.659 61.5899 120.999V121.009Z" fill="#116FAE" fill-opacity="0.24"/>
</g>
</g>
</g>
</svg>
