<svg width="128" height="127" viewBox="0 0 128 127" fill="none" xmlns="http://www.w3.org/2000/svg">
<g id="Pictogram-calendar">
<g id="Default">
<path id="dash-stroke-default" d="M96.1835 53.04C95.6435 53.72 95.1035 54.36 94.5835 54.96M91.0735 58.53C65.0335 81.71 59.0535 8.09997 17.9835 23.5C2.42352 29.34 -2.10648 49.57 4.97352 62.03M6.32352 64.12C6.81352 64.79 7.35352 65.43 7.92352 66.04" stroke="#494A4A" stroke-linecap="round" stroke-linejoin="round" stroke-dasharray="5 5"/>
<path id="2px-stroke-default" d="M97.6634 112.4C79.1834 120.64 49.9934 122.07 35.4034 121.29C25.7534 120.78 19.0734 116.36 16.0934 107.42C10.4734 90.5699 10.1634 63.5899 13.1234 42.8399M97.6634 112.4C105.873 109.57 109.893 102.8 110.583 94.6899C111.543 83.4899 110.903 69.0799 109.033 55.6999M97.6634 112.4C85.8634 116.46 70.0834 117.45 63.9134 117.38C58.9134 117.33 54.9434 115.78 53.3034 110.98C52.3534 108.21 50.6634 101.43 49.2634 97.6299C47.1434 91.8799 44.3334 89.7599 38.2434 89.0699C34.6334 88.6599 29.1034 89.1399 26.0534 89.0699C21.7034 88.9699 17.9634 85.5099 16.8734 80.1699C15.0034 70.9399 12.9034 61.1199 12.9034 47.5399C12.9034 34.8299 17.0434 27.6398 26.1734 24.9598C26.9834 24.7198 26.9334 24.7199 27.8434 24.4899M81.1934 17.5899C82.3334 17.5999 83.4134 17.6299 84.4234 17.6899C88.6634 17.9199 92.3334 18.8899 95.3634 20.6799M34.8734 22.8198C46.6034 20.3498 62.3934 18.2698 74.5434 17.7198M62.4334 117.34C51.7634 117.34 44.5734 111.19 33.9934 103.04C25.5034 96.4998 19.0334 91.1898 17.1034 81.1698M39.6834 69.5998C37.4734 46.9699 55.3934 45.3099 57.4834 66.8299C59.8634 91.3399 41.8634 91.8699 39.6834 69.5998ZM65.6234 56.1499C66.4534 66.7299 82.6034 65.3998 81.6834 54.3699C80.7634 43.3699 64.7234 44.7199 65.6234 56.1499ZM66.9234 75.2798C65.8034 61.4798 83.2634 58.3899 85.2434 72.8999C87.0934 86.5099 67.9134 87.3698 66.9234 75.2798ZM75.4434 24.6599C74.5234 21.1999 74.3034 14.8698 74.6434 12.4098C75.0734 9.24985 78.9834 8.75985 80.1034 11.6898C80.9934 14.0198 81.4634 20.7199 81.0134 24.4099C80.6334 27.4599 76.2534 27.7299 75.4434 24.6599ZM35.5134 29.6698C35.5434 26.0898 34.1934 19.9098 33.2534 17.5998C32.0534 14.6498 28.1434 15.1398 27.7834 18.2498C27.4934 20.7198 28.6934 27.3398 30.0534 30.7998C31.1734 33.6598 35.4834 32.8398 35.5134 29.6698Z" stroke="#494A4A" stroke-width="2" stroke-linecap="round" stroke-linejoin="round"/>
<path id="1px-stroke-default" d="M74.8636 117.67C61.4436 119.82 49.4436 118.29 40.8336 117.84C31.1836 117.33 24.2936 112.85 21.3236 103.92C18.5036 95.4498 16.0336 82.6798 14.8936 67.9898M20.8436 38.5498C19.0536 42.4798 19.3036 49.0298 19.8436 55.6998" stroke="#494A4A" stroke-linecap="round" stroke-linejoin="round"/>
<path id="fill-default" d="M91.5534 83.7599C80.6434 94.6699 64.3034 92.4799 58.6234 90.5599C50.3534 87.7799 50.5234 90.4299 54.8934 102.43C59.2534 114.43 62.5234 126.42 82.1534 124.24C101.783 122.06 113.773 118.79 117.053 96.9799C119.033 83.7899 117.693 67.8699 114.623 60.3099C113.753 58.1599 106.473 50.3199 104.363 51.0099C95.1634 53.9999 102.463 72.8599 91.5634 83.7699L91.5534 83.7599Z" fill="#494A4A" fill-opacity="0.08"/>
</g>
<g id="Emphasis">
<path id="2px-stroke-emphasis" d="M104.963 43.99C104.253 43.3 100.923 47.87 98.0934 46.9C95.4734 46.01 97.5934 39.83 96.1534 39.42C92.1734 38.28 86.6034 35.09 87.6134 32.62C89.6534 27.61 116.533 12.68 121.393 16.22C125.503 19.21 116.283 47.78 113.763 48.53C111.983 49.06 107.243 46.21 104.973 43.99H104.963Z" stroke="#116FAE" stroke-width="2" stroke-linecap="round" stroke-linejoin="round"/>
<path id="1px-stroke-emphasis" d="M96.153 39.42C95.823 40.03 113.483 23.19 116.603 21.24C115.403 25.5 106.593 37.69 103.573 43.99" stroke="#116FAE" stroke-linecap="round" stroke-linejoin="round"/>
<path id="fill-emphasis" d="M104.963 43.9899C104.253 43.2999 102.633 45.2599 101.653 45.0499C98.9435 44.4799 100.353 35.1899 98.9235 34.7799C94.9435 33.6399 93.7535 31.7499 94.1735 30.4899C94.8235 28.5399 122.433 13.9099 124.293 15.5999C132.953 23.4399 120.113 50.7799 113.763 51.8799C111.933 52.1999 107.243 46.1999 104.963 43.9899Z" fill="#116FAE" fill-opacity="0.24"/>
</g>
</g>
</svg>
