<svg width="129" height="129" viewBox="0 0 129 129" fill="none" xmlns="http://www.w3.org/2000/svg">
<g id="Pictogram-payment-sent">
<g id="Default">
<path id="dash-stroke-default" d="M109.753 86.54C133.083 72.15 141.993 90.07 86.173 126.79M92.063 21.27C45.7329 28.56 23.633 43.93 11.443 60.11C-14.807 94.95 14.063 140.88 59.973 117.91" stroke="#494A4A" stroke-linecap="round" stroke-linejoin="round" stroke-dasharray="5 5"/>
<path id="2px-stroke-default" d="M71.4526 19.6201C77.3926 25.8101 88.5226 35.2701 90.4826 40.4701C92.8626 46.7701 97.0226 52.7901 99.6926 56.0201C103.993 61.2101 95.5826 63.8101 92.0626 58.5501M53.7426 91.3101C50.4326 87.3501 46.9626 82.6001 43.6726 80.9701C39.1626 78.7501 33.5726 81.7301 36.9826 85.4901C42.9626 92.0901 48.0826 102.97 51.4626 105.67C55.5626 108.95 59.7126 114.57 70.6426 114.12C77.7926 113.82 93.6326 109.12 102.963 117.05C110.603 123.53 127.683 112.13 123.083 104.95C119.033 98.6301 112.303 89.9101 98.4526 87.8901C86.5926 86.1601 80.4526 93.1501 73.0626 93.2801C68.2726 93.3601 63.2926 89.9501 60.6126 88.8001C54.8126 86.3001 51.4026 92.8801 55.3426 96.6501C60.1626 101.27 68.9826 106.24 84.0926 105.74M36.1426 82.2701C29.8426 79.4501 26.3326 85.3301 29.8626 87.6501C38.6326 93.4101 40.2626 98.0501 52.5826 106.62M10.3826 16.0801C18.2626 16.6501 28.1626 16.9901 36.0926 16.6701C42.6326 16.4001 58.4426 13.1601 65.6326 15.4401C71.5026 17.3001 83.9526 33.9001 85.7326 39.1201C88.0126 45.7801 91.8026 57.1001 94.1726 65.7701C95.3226 69.9801 86.9426 70.4901 84.9426 63.8601C82.9426 57.2401 79.7326 49.7001 76.5326 46.7001C75.0126 45.2801 70.5326 43.3101 66.9026 41.1401C63.1326 38.8801 60.1726 36.4801 56.5226 38.3101C50.3226 41.4301 46.2526 52.5101 50.0226 60.4401C58.2626 77.7301 45.4626 78.0701 45.2426 73.6901C44.9926 68.9701 40.8126 62.5201 38.2126 60.1501C33.3626 55.7301 31.2726 49.0201 27.9526 45.5501C25.3426 42.8201 16.0026 41.4301 11.5526 41.5301C0.542627 41.7701 2.77263 15.5301 10.3826 16.0801Z" stroke="#494A4A" stroke-width="2" stroke-linecap="round" stroke-linejoin="round"/>
<path id="1px-stroke-default" d="M52.6633 40.8401C53.7433 39.2501 59.4933 34.6701 65.0133 33.6401M21.4033 38.5601C26.1333 38.9601 30.8833 41.4701 32.4733 44.5001M98.6233 91.9601C102.213 92.8701 104.953 94.0501 108.713 96.2901" stroke="#494A4A" stroke-linecap="round" stroke-linejoin="round"/>
<path id="fill-default" d="M46.1427 101.28C48.0927 95.35 53.0627 107.82 65.3627 108.64C79.0327 109.56 92.1227 103.31 99.6927 108.64C111.693 117.08 118.683 112.94 120.253 114.86C121.483 116.37 113.933 122.35 107.423 121.68C100.913 121.01 99.4927 114.27 90.7027 113.93C81.9127 113.59 62.7327 118.16 57.8227 113.83C52.9127 109.5 45.7727 102.42 46.1427 101.28Z" fill="#494A4A" fill-opacity="0.08"/>
</g>
<g id="Emphasis">
<path id="2px-stroke-emphasis" d="M70.6125 59.8397C63.7625 56.5897 61.9425 65.0197 67.5925 64.6397C73.9925 64.2097 74.0825 71.8397 65.0525 69.8297M67.3425 57.3597L67.4925 58.6797M68.7625 70.0797L68.9625 71.8997M82.7825 64.6297C82.7825 72.7097 76.2324 79.2597 68.1525 79.2597C60.0725 79.2597 53.5225 72.7097 53.5225 64.6297C53.5225 56.5498 60.0725 49.9997 68.1525 49.9997C76.2324 49.9997 82.7825 56.5498 82.7825 64.6297ZM105.842 21.7197C107.122 22.4197 108.922 29.1397 111.452 28.9597C113.982 28.7797 128.272 18.1197 127.542 14.9297C126.702 11.2597 102.722 3.15973 98.3025 2.78973C95.0825 2.51973 98.4625 8.75973 100.062 12.7997C100.992 15.1397 97.6725 23.0597 98.2125 24.7797C98.6725 26.2197 104.552 21.0197 105.842 21.7197Z" stroke="#116FAE" stroke-width="2" stroke-linecap="round" stroke-linejoin="round"/>
<path id="1px-stroke-emphasis" d="M101.203 13.3697C102.973 13.5797 123.373 13.6997 126.713 14.2797M98.5926 25.5597C102.243 25.2997 104.913 24.7997 107.353 24.0397M105.213 21.2697C108.213 19.8997 122.173 16.0797 127.143 14.9397M93.0626 2.28971C87.4826 2.00971 82.7826 2.39971 78.9326 3.08971M99.9426 34.2097C103.483 33.2697 106.393 32.2197 108.723 31.2097M94.2726 6.61971C90.8426 6.47971 87.9626 6.67971 85.6026 7.01971" stroke="#116FAE" stroke-linecap="round" stroke-linejoin="round"/>
<g id="fill-emphasis">
<path fill-rule="evenodd" clip-rule="evenodd" d="M72.4222 51.3698C84.9122 51.6398 84.4122 77.4398 73.4922 78.0598C72.0622 78.1398 67.3222 77.9698 66.4622 77.9598C55.7422 77.7698 54.7922 55.1698 65.6722 52.4698C66.7722 52.1998 71.8922 51.3698 72.4322 51.3798L72.4222 51.3698Z" fill="#116FAE" fill-opacity="0.24"/>
<path d="M100.522 14.6298C99.4422 13.0398 104.262 12.8198 103.552 12.0698C101.582 9.97981 101.542 4.97981 102.242 4.36981C103.322 3.43981 126.632 12.4598 127.142 14.1298C129.532 21.8698 114.302 30.9098 110.122 29.3198C109.272 28.9998 108.102 27.0598 106.802 24.5198C106.592 24.1098 98.4622 25.6598 98.2422 25.2198C97.8922 24.4998 101.522 16.1098 100.522 14.6298Z" fill="#116FAE" fill-opacity="0.24"/>
</g>
</g>
</g>
</svg>
