<svg width="129" height="129" viewBox="0 0 129 129" fill="none" xmlns="http://www.w3.org/2000/svg">
<g id="Pictogram-phone-hand">
<g id="Default">
<path id="dash-stroke-default" d="M104.617 62.6695C105.337 63.1195 106.037 63.5795 106.707 64.0395M110.737 67.0995C146.487 97.3595 84.5167 139.439 63.5167 80.1295M62.7067 77.7395C62.4567 76.9595 62.2167 76.1595 61.9767 75.3495M31.6267 40.2495C30.9267 39.8095 30.2767 39.2795 29.6967 38.6795M27.1067 34.6895C23.0767 24.8995 30.0967 9.55947 62.3567 22.3595C90.2067 33.4095 97.5167 34.1695 104.127 27.7795M105.767 26.0495C106.287 25.4495 106.817 24.8095 107.367 24.1295" stroke="#494A4A" stroke-linecap="round" stroke-linejoin="round" stroke-dasharray="5 5"/>
<path id="2px-stroke-default" d="M32.8971 47.6696C33.0971 39.7996 33.4371 26.4896 33.9071 21.2396C34.5371 14.2396 37.3671 9.72964 45.6571 8.36964C55.6371 6.72964 74.2071 7.45964 81.6171 8.36964C89.0271 9.27964 92.5571 14.4296 93.3671 21.2396C94.6971 32.4096 94.9771 60.4596 94.6771 77.9696M93.3671 104.82C92.8071 110.57 88.7071 116.7 81.6171 117.69C70.8271 119.19 56.1071 119.41 45.6571 117.69C42.6071 117.19 39.7371 116.18 37.5871 114.01M94.3571 88.3796C94.3271 89.2096 94.2871 91.0596 94.2471 91.8596M66.5671 118.91C61.6271 122.57 31.0471 136.66 10.9771 116.95C-3.75287 102.49 8.25712 66.9896 30.8471 49.6896C38.3771 43.9296 42.8071 52.4096 55.3871 57.5096C62.4471 60.3696 57.9071 72.9696 39.0571 68.4896C36.9371 70.7496 29.7871 79.4796 34.0071 91.0096C36.4971 97.8096 37.8571 107.6 36.8771 115.5M95.1971 50.7696C97.8871 52.5596 101.837 53.2596 103.487 54.3596C108.867 57.9496 103.277 65.1296 95.1971 63.3296M94.9871 66.6096C99.0071 68.5696 104.087 72.2896 105.497 76.6496C106.257 79.0096 103.077 85.1396 99.9071 88.3196C98.2171 90.0096 88.2371 88.3196 94.3771 78.4496C95.1071 77.2796 96.3171 75.7596 95.4171 73.9596M101.837 86.2096C102.577 88.8896 104.397 93.5896 104.007 96.3296C103.837 97.4896 103.387 101.57 99.9071 105.29C98.1171 107.2 91.8271 105.29 92.4471 100.46C92.8671 97.1796 94.2571 95.0896 94.2571 91.3796M99.5571 105.75C102.247 110.24 101.987 113.14 101.637 116.98C101.227 121.48 91.1571 120.74 90.2571 112.67M59.2571 51.0396C59.6671 50.0096 60.4971 47.7196 60.6671 47.2196M65.1071 56.8596C66.2671 56.2396 71.1771 53.8196 73.6971 52.4196M66.4771 65.7596C67.8771 66.1496 70.8571 66.5196 72.0071 66.6096" stroke="#494A4A" stroke-width="2" stroke-linecap="round" stroke-linejoin="round"/>
<path id="1px-stroke-default" d="M93.8573 87.1895C93.7373 90.1395 93.5973 92.8895 93.4473 95.3895" stroke="#494A4A" stroke-linecap="round" stroke-linejoin="round"/>
<g id="fill-default">
<path d="M81.1872 113.16C70.9472 114.69 59.5772 114.79 49.6772 113.04C44.1672 112.06 39.2972 109.23 38.5272 99.9496C37.9172 92.5296 38.3672 92.3896 38.2372 80.8696C38.2172 79.2196 38.5372 68.5196 40.1972 68.7396C62.3772 71.6796 60.6172 59.7996 54.0072 56.3496C50.7072 54.6296 45.6972 49.5996 37.8272 45.0096C37.9772 34.1096 37.9672 29.7196 38.5472 22.7796C39.1472 15.6596 41.8372 11.0796 49.6972 9.68959C59.1672 8.01959 74.1872 8.87959 81.2072 9.80959C88.2372 10.7396 91.5872 15.9696 92.3572 22.8996C94.4472 41.7096 94.0072 81.7496 92.3272 100.06C91.7972 105.9 87.9072 112.14 81.1772 113.15L81.1872 113.16Z" fill="#494A4A" fill-opacity="0.08"/>
<path d="M34.3872 65.2796C29.6772 63.5296 16.2972 79.8496 30.5272 90.1096C25.2972 78.3696 35.1472 67.5896 36.9772 66.8696C38.8072 66.1496 36.0572 65.8996 34.3772 65.2796H34.3872Z" fill="#494A4A" fill-opacity="0.08"/>
<path d="M13.2372 2.11959L15.3772 6.02959C15.5372 6.31959 15.7772 6.56959 16.0772 6.72959L19.9872 8.86959C21.2072 9.53959 21.2072 11.2796 19.9872 11.9496L16.0772 14.0896C15.7872 14.2496 15.5372 14.4896 15.3772 14.7896L13.2372 18.6996C12.5672 19.9196 10.8272 19.9196 10.1572 18.6996L8.01719 14.7896C7.85719 14.4996 7.61719 14.2496 7.31719 14.0896L3.40719 11.9496C2.18719 11.2796 2.18719 9.53959 3.40719 8.86959L7.31719 6.72959C7.60719 6.56959 7.85719 6.32959 8.01719 6.02959L10.1572 2.11959C10.8272 0.89959 12.5672 0.89959 13.2372 2.11959Z" fill="#494A4A" fill-opacity="0.08"/>
<path d="M118.307 36.7396L119.467 38.8596C119.557 39.0196 119.687 39.1496 119.847 39.2396L121.967 40.3996C122.627 40.7596 122.627 41.7096 121.967 42.0696L119.847 43.2296C119.687 43.3196 119.557 43.4496 119.467 43.6096L118.307 45.7296C117.947 46.3896 116.997 46.3896 116.637 45.7296L115.477 43.6096C115.387 43.4496 115.257 43.3196 115.097 43.2296L112.977 42.0696C112.317 41.7096 112.317 40.7596 112.977 40.3996L115.097 39.2396C115.257 39.1496 115.387 39.0196 115.477 38.8596L116.637 36.7396C116.997 36.0796 117.947 36.0796 118.307 36.7396Z" fill="#494A4A" fill-opacity="0.08"/>
</g>
</g>
<g id="Emphasis">
<path id="2px-stroke-emphasis" d="M114.977 17.7496C114.557 17.3496 112.617 20.0196 110.967 19.4496C109.437 18.9296 110.677 15.3196 109.837 15.0796C107.517 14.4096 104.257 12.5496 104.847 11.1096C106.037 8.17964 121.747 -0.530355 124.577 1.52965C126.977 3.27965 121.597 19.9696 120.117 20.3996C119.077 20.7096 116.307 19.0396 114.977 17.7496Z" stroke="#116FAE" stroke-width="2" stroke-linecap="round" stroke-linejoin="round"/>
<path id="1px-stroke-emphasis" d="M109.838 15.0795C109.638 15.4395 119.958 5.59947 121.778 4.45947C121.078 6.94947 115.928 14.0695 114.168 17.7495" stroke="#116FAE" stroke-linecap="round" stroke-linejoin="round"/>
<path id="fill-emphasis" d="M114.978 17.7497C114.558 17.3497 113.618 18.4897 113.038 18.3697C111.458 18.0397 112.278 12.6097 111.448 12.3697C109.128 11.6997 108.428 10.5997 108.678 9.85969C109.058 8.71969 125.188 0.179686 126.268 1.15969C131.328 5.73969 123.828 21.7097 120.118 22.3497C119.048 22.5397 116.308 19.0297 114.978 17.7397V17.7497Z" fill="#116FAE" fill-opacity="0.24"/>
</g>
</g>
</svg>
