<svg width="129" height="129" viewBox="0 0 129 129" fill="none" xmlns="http://www.w3.org/2000/svg">
<g id="Pictogram-scanned-receipt">
<g id="Default">
<path id="dash-stroke-default" d="M11.4863 52.0942H11.4873" stroke="#494A4A" stroke-width="0.001"/>
<path id="2px-stroke-default" d="M28.479 69.4592C28.479 69.4592 29.199 67.8092 30.569 67.5792C31.939 67.3492 33.199 68.8992 33.969 68.3592C36.219 66.8092 35.969 68.4192 37.219 67.9292C38.469 67.4392 41.499 66.0792 42.029 66.6092C42.799 67.1592 43.759 67.3792 44.689 67.2192M29.639 92.0392C31.979 91.9192 34.539 94.0392 35.709 93.6192C38.159 92.6192 39.529 91.8092 42.709 92.3192C44.899 92.5792 47.109 92.5792 49.299 92.3192M63.769 90.8492C64.299 89.8292 65.259 89.0992 66.379 88.8492C68.019 88.6892 69.099 90.0892 70.319 89.7892C73.959 88.9192 78.099 88.7892 78.589 89.1892M41.639 13.3492C36.459 14.2292 31.279 15.8092 22.559 26.3492C15.559 34.8092 12.719 38.2092 11.709 46.7492M31.439 104.149C31.439 104.149 35.719 103.729 37.639 104.739C38.769 105.339 46.369 103.589 49.549 102.949C52.729 102.309 51.639 104.219 57.459 102.289C59.459 101.619 61.819 102.429 65.169 102.099C68.519 101.769 68.829 100.749 68.829 100.749C70.209 99.9392 72.019 101.019 73.829 100.749C75.639 100.479 77.449 99.5192 79.219 99.5092M29.639 83.0192C29.639 83.0192 33.989 83.7492 35.679 81.7492C36.679 80.5492 44.589 81.3492 47.889 81.5292C51.189 81.7092 49.639 79.0592 55.889 80.5292C58.039 81.0492 60.159 79.2192 63.559 78.8892C66.959 78.5592 67.489 79.9992 67.489 79.9992C69.059 80.8892 70.579 78.7892 72.489 78.7092C74.399 78.6292 76.359 79.7092 78.109 79.2692M59.409 37.2992C60.029 37.8892 60.849 38.2192 61.709 38.1992C63.019 38.0992 63.849 36.8092 64.709 37.0392C67.099 37.6792 66.519 36.6292 67.789 36.7292C69.059 36.8292 72.099 37.2092 72.479 36.7292C73.129 36.1892 73.939 35.8692 74.789 35.8192M29.779 118.499C40.299 118.869 71.669 117.099 80.779 114.249C86.269 112.579 90.229 107.789 90.839 102.089C91.839 91.4392 87.409 34.3892 84.209 22.5792C82.759 17.2292 78.529 12.6292 72.279 12.2492C62.549 11.8792 52.799 12.1792 43.109 13.1392C38.249 13.6392 36.629 15.5192 35.659 18.7592C34.799 21.6392 35.199 24.7592 34.659 28.8292C33.849 34.0392 30.989 36.7492 26.769 38.0492C23.229 39.1592 20.899 39.3392 17.879 40.0992C13.549 41.1892 11.699 43.1892 11.569 48.7592C11.199 64.8392 14.439 90.1592 17.439 105.979C18.379 110.929 18.989 118.119 29.779 118.499Z" stroke="#494A4A" stroke-width="2" stroke-linecap="round" stroke-linejoin="round"/>
<path id="1px-stroke-default" d="M9.05933 109.499C9.14933 110.059 9.62933 113.309 9.98933 115.559C11.4693 124.949 10.9893 127.749 22.3293 127.639C24.5493 127.639 27.3293 127.539 31.3293 127.219M91.8393 19.6792C91.7493 19.1092 91.2793 15.8692 90.9193 13.6192C89.4393 4.22923 89.9293 1.42923 78.5793 1.53923C76.3593 1.53923 73.5793 1.62923 69.5793 1.94923M22.0693 6.16923L15.9893 7.08923C6.61933 8.57923 3.82933 8.08923 3.92933 19.4292C3.92933 21.6592 4.02933 24.4292 4.34933 28.4292M82.7693 122.799L88.8293 121.879C98.2193 120.389 101.019 120.879 100.909 109.539C100.909 107.309 100.809 104.539 100.489 100.539" stroke="#494A4A" stroke-linecap="round" stroke-linejoin="round"/>
<path id="fill-default" d="M33.4893 34.6293C34.8493 32.6693 31.5493 42.8593 22.2793 47.2893C15.2293 50.6593 19.0493 72.5293 14.8293 78.7093C12.0993 82.6993 11.2493 61.3893 11.4693 55.7893C11.6793 50.1893 9.91932 42.6493 15.1993 40.6693C20.4793 38.6893 29.7293 40.0493 33.4993 34.6293H33.4893Z" fill="#494A4A" fill-opacity="0.08"/>
</g>
<g id="Emphasis">
<path id="2px-stroke-emphasis" d="M6.62891 71.6594C7.11891 74.0494 7.26891 76.4994 7.08891 78.9394M95.9889 72.4294C95.3489 70.0694 95.0389 67.6294 95.0689 65.1894M7.14891 75.6694L95.2989 68.8094M122.769 52.1294C120.299 61.2794 111.549 66.4794 101.759 64.2094C91.9589 61.9394 87.2089 52.3294 89.6789 43.1994C92.1489 34.0694 100.149 28.2594 110.689 31.1194C119.829 33.5894 125.239 42.9894 122.769 52.1294Z" stroke="#116FAE" stroke-width="2" stroke-linecap="round" stroke-linejoin="round"/>
<path id="1px-stroke-emphasis" d="M118.179 40.7295C116.379 37.8095 113.589 35.6096 110.329 34.5396M98.3193 46.4296C97.9993 45.7696 101.939 44.3995 102.179 44.8195C102.749 45.8995 103.249 47.0195 103.659 48.1695C103.999 48.9895 104.599 49.1895 104.999 48.5295C107.169 45.6995 109.709 43.1796 112.559 41.0396C113.509 40.3996 115.999 43.6295 115.359 44.1095C111.709 47.0295 108.449 50.3996 105.639 54.1296C105.279 54.7196 104.559 54.9695 103.909 54.7495C103.209 54.6095 102.509 54.4096 101.839 54.1496C101.339 53.9396 100.949 53.5195 100.789 52.9995C100.099 50.7595 99.2693 48.5595 98.3093 46.4195L98.3193 46.4296Z" stroke="#116FAE" stroke-linecap="round" stroke-linejoin="round"/>
<path id="fill-emphasis" d="M123.748 52.8893C125.718 44.1593 120.358 35.4493 111.668 33.2693C103.278 30.8693 94.5285 35.7293 92.1285 44.1293C92.0885 44.2593 92.0585 44.3793 92.0285 44.5093C90.0585 53.2493 95.4185 61.9593 104.108 64.1393C112.518 66.5293 121.278 61.6393 123.668 53.2293C123.698 53.1193 123.728 53.0093 123.758 52.8993L123.748 52.8893ZM117.248 44.8393C114.358 46.9993 110.538 50.5693 107.308 53.4293C104.888 55.5393 103.788 55.2993 102.748 54.2793C101.258 52.8393 98.0685 46.5493 98.2685 45.9493C98.4685 45.3493 100.578 45.1393 100.578 45.1393C101.358 45.6993 102.778 48.7093 103.588 50.2493C105.668 46.5693 108.998 43.7793 112.978 42.3693C113.698 42.1693 119.978 42.9093 117.288 44.9093L117.258 44.8393H117.248Z" fill="#116FAE" fill-opacity="0.24"/>
</g>
</g>
</svg>
