<svg width="129" height="129" viewBox="0 0 129 129" fill="none" xmlns="http://www.w3.org/2000/svg">
<g id="Pictogram-newspapper">
<g id="Default">
<path id="dash-stroke-default" d="M7.98145 61.5444H7.98245" stroke="#494A4A" stroke-width="0.001"/>
<path id="2px-stroke-default" d="M11.7534 57.6694C11.7534 57.6694 8.2434 58.1794 6.7334 59.1294C14.1334 71.6094 37.6034 93.5094 47.1334 99.2994C59.9534 107.079 63.1234 91.7194 49.5834 86.6594C32.4934 80.2894 13.5034 69.0494 4.3234 40.8394C3.7634 39.0994 69.5734 8.68942 70.9034 11.2894C83.6834 36.1694 97.5034 37.9894 111.933 42.9194C121.983 46.3594 125.303 54.6794 115.123 63.0494C99.3834 75.9794 69.7834 96.2794 58.5734 101.669M8.3434 62.2794L6.1234 62.8794C6.1234 62.8794 3.9434 62.9694 9.2834 69.0494C17.7334 78.6694 27.4334 89.5894 36.0734 96.2694C50.3634 107.319 58.5834 101.669 58.5834 101.669C35.3234 113.689 18.4734 84.5394 1.4834 70.6494C2.8034 69.3894 7.4934 67.4894 7.4934 67.4894" stroke="#494A4A" stroke-width="2" stroke-linecap="round" stroke-linejoin="round"/>
<path id="1px-stroke-default" d="M84.8936 69.0596C84.8936 69.0596 78.8836 75.0496 74.0336 76.9896C69.1836 78.9296 66.0036 80.4796 63.2336 82.6696M89.6336 71.8596C89.6336 71.8596 86.0836 76.7596 80.5436 79.0396C75.0036 81.3196 72.3636 83.8096 67.2836 86.6596M89.0336 40.4896C85.8936 41.6296 82.5836 45.3496 79.1536 47.7096C75.7236 50.0696 71.7836 52.5996 70.5636 52.4996M94.5236 43.4296C94.5236 43.4296 91.0536 45.0196 87.9736 47.8296C84.8936 50.6396 81.4536 53.7696 78.1836 54.6896M53.3236 38.1696C53.3236 38.1696 56.0636 40.1996 59.6136 39.4796C60.2936 39.3396 56.3136 35.8196 57.3636 36.0296C58.9136 36.3396 63.2236 37.5496 61.5836 34.5296C61.0836 33.6096 65.5036 35.9096 65.9136 35.7296C67.7936 34.8796 62.5036 31.4596 67.0036 32.9396M29.1336 53.6096C23.5336 48.8296 36.6336 53.9496 32.1236 49.5696C29.0736 46.5996 45.9536 50.3996 40.4636 46.4996C34.9736 42.5996 45.6336 45.7796 47.0036 45.2396C48.3736 44.6996 45.8136 42.4196 47.4336 41.7096M18.4736 49.0596C18.4736 47.8896 54.3536 32.4796 65.5236 26.3896C65.5236 26.3896 72.3636 34.7096 75.5636 36.1996C75.5636 36.1996 31.4836 59.7796 27.4836 58.7796C23.4836 57.7796 18.4836 50.2296 18.4836 49.0596H18.4736Z" stroke="#494A4A" stroke-linecap="round" stroke-linejoin="round"/>
<g id="fill-default">
<path d="M35.914 67.4893C37.574 69.0593 48.144 77.3993 54.674 77.7093C58.114 77.8693 80.744 64.9693 78.824 64.1993C74.064 62.2893 66.994 57.2793 63.074 54.2493C61.774 53.2493 34.774 66.4093 35.914 67.4893Z" fill="#494A4A" fill-opacity="0.08"/>
<path d="M100.674 74.1893C104.114 69.0593 100.774 62.6693 94.5139 60.9993C91.4739 60.1893 85.4639 58.8093 85.3939 58.1093C85.2339 56.6393 96.2739 48.4793 101.684 46.4893C104.244 47.2793 107.414 48.0593 110.224 49.0493C116.034 51.0993 118.944 56.6193 116.104 61.4093C113.304 64.7093 102.144 73.4193 100.664 74.1793L100.674 74.1893Z" fill="#494A4A" fill-opacity="0.08"/>
</g>
</g>
<g id="Emphasis">
<path id="2px-stroke-emphasis" d="M90.384 116.84C92.354 117.95 97.514 117.42 99.034 115.79M101.284 102.76C98.224 100.01 96.064 96.5497 95.774 92.1997M84.344 103.17C87.664 99.9197 90.214 96.1497 90.864 91.9297M125.394 113.91C123.114 116.38 113.974 118.37 108.954 118.44C105.594 118.49 98.274 118.2 99.014 110.49C99.554 104.92 101.264 98.5697 110.974 97.8597C120.684 97.1497 121.834 102.6 122.534 106.13C123.364 110.29 127.654 111.46 125.394 113.91ZM63.584 118.21C66.014 120.54 75.254 121.97 80.274 121.73C83.634 121.57 90.924 120.85 89.714 113.19C88.844 107.66 86.744 101.43 77.004 101.32C67.264 101.21 66.454 106.71 65.964 110.28C65.394 114.48 61.184 115.91 63.584 118.22V118.21Z" stroke="#116FAE" stroke-width="2" stroke-linecap="round" stroke-linejoin="round"/>
<path id="1px-stroke-emphasis" d="M126.253 112.62C126.253 112.62 110.083 110.67 101.283 102.77M62.4531 116.26C62.4531 116.26 75.8931 111.43 84.3431 103.17" stroke="#116FAE" stroke-linecap="round" stroke-linejoin="round"/>
<g id="fill-emphasis">
<path d="M60.0733 118.24C62.0633 120.14 69.7533 121.16 73.9433 120.87C76.7533 120.68 82.8533 119.94 81.9833 113.58C81.3533 108.99 79.7133 103.84 71.5833 103.92C63.4533 104 62.6733 108.61 62.2033 111.59C61.6533 115.1 58.1033 116.37 60.0733 118.25V118.24Z" fill="#116FAE" fill-opacity="0.24"/>
<path d="M119.743 117.97C117.813 119.76 109.633 119.95 105.063 119.16C102.013 118.63 95.3332 117.12 95.5332 110.44C95.6732 105.61 96.8432 100.3 105.633 101.34C114.423 102.38 115.803 107.38 116.663 110.62C117.673 114.43 121.643 116.2 119.743 117.98V117.97Z" fill="#116FAE" fill-opacity="0.24"/>
</g>
</g>
</g>
</svg>
