<svg width="129" height="129" viewBox="0 0 129 129" fill="none" xmlns="http://www.w3.org/2000/svg">
<g id="Pictogram-hand-interactive">
<g id="Default">
<path id="dash-stroke-default" d="M104.219 21.0696C112.059 30.0696 116.799 41.8396 116.799 54.7096M20.4587 79.0896C18.1487 74.8196 16.4187 70.1796 15.3887 65.2896M88.2387 78.0296C75.2487 91.0196 54.1987 91.0196 41.2087 78.0296C28.2187 65.0396 30.4987 45.9196 41.2087 30.9996C48.1987 21.2596 75.2487 18.0096 88.2387 30.9996C101.229 43.9896 101.229 65.0396 88.2387 78.0296Z" stroke="#494A4A" stroke-linecap="round" stroke-linejoin="round" stroke-dasharray="5 5"/>
<path id="2px-stroke-default" d="M14.2882 46.8496C15.9082 36.4696 20.1182 25.8496 28.7082 18.4996C46.2882 3.45964 81.2782 -1.56036 101.338 18.4996M112.508 74.4296C110.468 79.3596 107.638 84.0396 103.998 88.2696M36.2582 95.0696C32.6582 90.7696 28.8882 85.5896 25.3082 83.8296C20.4082 81.4096 14.3282 84.6496 18.0282 88.7396C24.5282 95.9196 30.0982 107.75 33.7682 110.69C38.2282 114.26 42.7382 120.37 54.6282 119.88C62.4082 119.56 79.6282 114.45 89.7782 123.06C98.0882 130.11 116.658 117.71 111.658 109.9C107.248 103.02 99.9282 93.5396 84.8682 91.3396C71.9682 89.4596 65.2982 97.0596 57.2582 97.1996C52.0482 97.2896 46.6382 93.5796 43.7182 92.3296C37.4082 89.6096 33.7082 96.7596 37.9882 100.87C43.2282 105.9 52.8282 111.3 69.2582 110.76M17.1182 85.2496C10.2682 82.1896 6.44821 88.5696 10.2882 91.0996C19.8282 97.3696 21.5982 102.41 34.9982 111.73" stroke="#494A4A" stroke-width="2" stroke-linecap="round" stroke-linejoin="round"/>
<path id="1px-stroke-default" d="M85.0684 95.7795C88.9684 96.7695 91.9584 98.0495 96.0484 100.49" stroke="#494A4A" stroke-linecap="round" stroke-linejoin="round"/>
<path id="fill-default" d="M112.309 110.41C107.349 105.81 99.9086 92.0695 85.5686 92.6595C73.2886 93.1695 68.1386 100.41 60.6386 101.73C55.7786 102.58 50.3786 99.7095 47.3986 100.04C43.8686 100.43 42.8086 100.22 40.7586 103.26C36.8686 100.51 32.7086 97.1195 29.1486 96.3095C25.8286 95.5495 24.9286 98.0395 24.9286 98.0395C8.1186 92.6395 33.9786 127.59 60.5686 122.82C67.8186 121.52 83.7386 119.28 94.2786 124.35C102.909 128.49 117.949 115.64 112.309 110.42V110.41Z" fill="#494A4A" fill-opacity="0.08"/>
</g>
<g id="Emphasis">
<g id="2px-stroke-emphasis">
<path d="M64.7284 71.0395C73.8521 71.0395 81.2484 63.6433 81.2484 54.5195C81.2484 45.3958 73.8521 37.9995 64.7284 37.9995C55.6046 37.9995 48.2084 45.3958 48.2084 54.5195C48.2084 63.6433 55.6046 71.0395 64.7284 71.0395Z" stroke="#116FAE" stroke-width="2" stroke-linecap="round" stroke-linejoin="round"/>
<path d="M114.788 74.4895C118.754 74.4895 121.968 71.2749 121.968 67.3095C121.968 63.3441 118.754 60.1295 114.788 60.1295C110.823 60.1295 107.608 63.3441 107.608 67.3095C107.608 71.2749 110.823 74.4895 114.788 74.4895Z" stroke="#116FAE" stroke-width="2" stroke-linecap="round" stroke-linejoin="round"/>
<path d="M13.7484 61.4595C17.7138 61.4595 20.9284 58.2449 20.9284 54.2795C20.9284 50.3141 17.7138 47.0995 13.7484 47.0995C9.78295 47.0995 6.56836 50.3141 6.56836 54.2795C6.56836 58.2449 9.78295 61.4595 13.7484 61.4595Z" stroke="#116FAE" stroke-width="2" stroke-linecap="round" stroke-linejoin="round"/>
</g>
<g id="1px-stroke-emphasis">
<path d="M64.7284 71.0395C73.8521 71.0395 81.2484 63.6433 81.2484 54.5195C81.2484 45.3958 73.8521 37.9995 64.7284 37.9995C55.6046 37.9995 48.2084 45.3958 48.2084 54.5195C48.2084 63.6433 55.6046 71.0395 64.7284 71.0395Z" stroke="#116FAE" stroke-width="2" stroke-linecap="round" stroke-linejoin="round"/>
<path d="M114.788 74.4895C118.754 74.4895 121.968 71.2749 121.968 67.3095C121.968 63.3441 118.754 60.1295 114.788 60.1295C110.823 60.1295 107.608 63.3441 107.608 67.3095C107.608 71.2749 110.823 74.4895 114.788 74.4895Z" stroke="#116FAE" stroke-width="2" stroke-linecap="round" stroke-linejoin="round"/>
<path d="M13.7484 61.4595C17.7138 61.4595 20.9284 58.2449 20.9284 54.2795C20.9284 50.3141 17.7138 47.0995 13.7484 47.0995C9.78295 47.0995 6.56836 50.3141 6.56836 54.2795C6.56836 58.2449 9.78295 61.4595 13.7484 61.4595Z" stroke="#116FAE" stroke-width="2" stroke-linecap="round" stroke-linejoin="round"/>
</g>
<path id="fill-emphasis" d="M76.928 40.9194C69.798 35.3894 54.568 44.4994 52.478 52.9994C50.388 61.4994 56.418 68.5494 64.498 72.5694C74.998 77.7894 100.068 58.8794 76.928 40.9194Z" fill="#116FAE" fill-opacity="0.24"/>
</g>
</g>
</svg>
