<svg width="129" height="129" viewBox="0 0 129 129" fill="none" xmlns="http://www.w3.org/2000/svg">
<g id="Pictogram-user-love">
<g id="Default">
<path id="dash-stroke-default" d="M43.4883 13.7993H43.4893" stroke="#494A4A" stroke-width="0.001"/>
<path id="2px-stroke-default" d="M73.3699 65.2893C73.3699 83.3793 93.7999 81.5593 104.73 88.6393C109.38 91.6493 112.7 104.669 112.7 113.309C112.7 126.469 10.4199 126.469 10.4199 113.309C10.4199 105.229 13.3199 92.2393 17.4999 89.2393C28.2899 81.4893 49.4499 84.4493 49.4499 65.2893M61.2299 69.4493C72.0399 69.4493 83.9299 57.1393 83.9299 33.2893C83.9299 15.0893 75.2799 6.29932 61.2299 6.29932C47.1799 6.29932 38.5299 15.0893 38.5299 33.2893C38.5299 57.1393 50.4199 69.4493 61.2299 69.4493Z" stroke="#494A4A" stroke-width="2" stroke-miterlimit="10" stroke-linecap="round"/>
<path id="1px-stroke-default" d="M28.6196 91.5693C22.8896 93.5393 20.0596 96.6193 19.1396 102.899" stroke="#494A4A" stroke-linecap="round" stroke-linejoin="round"/>
<path id="fill-default" fill-rule="evenodd" clip-rule="evenodd" d="M112.519 94.0295C101.359 86.9495 76.2395 85.0395 75.8695 67.9395C80.2195 65.3995 84.1095 60.7695 86.8495 54.2995C88.9995 49.2295 90.4495 43.0295 90.8795 35.8095C91.2195 30.0095 90.8995 25.1795 89.7595 21.2995C87.5195 13.6995 82.1295 9.71948 72.3595 9.13948C57.6095 8.26948 48.0495 16.0195 47.0395 33.1795C45.7195 55.6695 51.9195 68.1095 63.2595 68.7795C64.4995 68.8495 56.1595 68.8095 56.1595 68.8095C55.8095 87.6495 37.7095 83.0795 26.2795 90.4995C21.8495 93.3695 14.0295 105.979 13.8795 113.929C13.5995 128.869 114.099 132.729 118.559 117.379C120.109 108.659 117.329 97.0895 112.519 94.0395V94.0295Z" fill="#494A4A" fill-opacity="0.08"/>
</g>
<g id="Emphasis">
<path id="2px-stroke-emphasis" d="M113.78 47.2496C109.88 37.3796 96.7496 34.9296 92.5796 47.0396C88.4096 59.1396 97.1296 70.2796 101.64 71.8296C105.59 73.1896 119.88 69.9896 124.05 57.8896C127.81 46.9996 119.86 42.1496 111.45 42.9296" stroke="#116FAE" stroke-width="2" stroke-linecap="round" stroke-linejoin="round"/>
<path id="1px-stroke-emphasis" d="M101.7 43.6494C99.83 43.4294 98.15 44.6594 97.25 46.5894" stroke="#116FAE" stroke-linecap="round" stroke-linejoin="round"/>
<path id="fill-emphasis" d="M115.64 46.2798C113.21 36.2598 103.14 37.7898 97.9501 49.7798C92.7501 61.7698 99.4401 73.2198 103.37 74.9198C106.82 76.4198 120.22 73.6798 125.42 61.6798C130.1 50.8898 123.4 45.7698 115.64 46.2798Z" fill="#116FAE" fill-opacity="0.24"/>
</g>
</g>
</svg>
