<svg width="128" height="129" viewBox="0 0 128 129" fill="none" xmlns="http://www.w3.org/2000/svg">
<g id="Pictogram-code-language">
<g id="Default">
<path id="dash-stroke-default" d="M112.93 70.9398C148.28 27.0398 111.41 -14.6502 78.8298 15.1098C57.3798 34.6998 56.2298 57.0398 37.5898 47.4698" stroke="#494A4A" stroke-linecap="round" stroke-linejoin="round" stroke-dasharray="5 5"/>
<path id="2px-stroke-default" d="M12.8002 49.4499C13.2202 62.0799 12.1702 87.5799 12.3602 95.0599C12.8202 113.53 21.7802 118.17 28.3902 119.86C35.0002 121.55 90.9002 119.86 90.9002 119.86C90.9002 119.86 99.9902 119.86 105.25 114.06C108.57 110.39 110.29 104.72 110.29 95.5699C110.29 65.9799 110.49 53.0799 110.14 36.0599C109.91 24.7399 103.46 20.6699 94.9702 20.6699L34.9102 20.6499" stroke="#494A4A" stroke-width="2" stroke-linecap="round" stroke-linejoin="round"/>
<path id="1px-stroke-default" d="M39.1699 36.0897C63.6699 36.7497 94.6499 36.5197 108.11 35.4997M83.2699 28.3697C82.3499 29.8897 85.0299 30.6197 85.4599 29.2797C85.9299 27.8097 84.1999 26.8497 83.2699 28.3697ZM90.5599 28.3697C89.6399 29.8897 92.3199 30.6197 92.7499 29.2797C93.2199 27.8097 91.4899 26.8497 90.5599 28.3697ZM97.9399 28.3697C97.0199 29.8897 99.6999 30.6197 100.13 29.2797C100.6 27.8097 98.8699 26.8497 97.9399 28.3697Z" stroke="#494A4A" stroke-linecap="round" stroke-linejoin="round"/>
<path id="fill-default" d="M41.1697 26.0698C42.7197 28.5198 42.6197 33.8598 41.5097 36.7698C40.0697 40.5598 92.8197 38.8798 110.65 40.6598C112.9 40.8798 114.7 38.6998 114.91 36.4498C115.34 31.7898 115.22 25.3698 109.44 23.9998C94.9997 20.5898 70.4897 22.4298 64.5997 22.9598C45.5097 24.6698 37.2297 19.8598 41.1597 26.0698H41.1697Z" fill="#494A4A" fill-opacity="0.08"/>
</g>
<g id="Emphasis">
<path id="2px-stroke-emphasis" d="M40.6306 65.9099V64.9099C40.3652 64.9099 40.1106 65.0154 39.9231 65.2032L40.6306 65.9099ZM42.8506 86.7799L42.3167 87.6255C42.7008 87.868 43.2001 87.8211 43.5324 87.5114L42.8506 86.7799ZM45.4706 81.3999L46.2345 80.7545L46.2289 80.748L45.4706 81.3999ZM45.0206 69.9299L45.7899 70.5687C46.1304 70.1586 46.0895 69.5536 45.6968 69.1932L45.0206 69.9299ZM40.6406 65.9099L41.3168 65.1732C41.1323 65.0039 40.891 64.9099 40.6406 64.9099V65.9099ZM80.6206 65.9099L81.3281 65.2032C81.1405 65.0154 80.886 64.9099 80.6206 64.9099V65.9099ZM78.4106 86.7799L77.7288 87.5114C78.0612 87.8213 78.5607 87.868 78.9448 87.6253L78.4106 86.7799ZM75.7806 81.3999L75.0222 80.748L75.0167 80.7546L75.7806 81.3999ZM76.2506 69.8199L75.583 69.0754C75.1828 69.4343 75.1379 70.0452 75.4812 70.4587L76.2506 69.8199ZM80.6106 65.9099V64.9099C80.3642 64.9099 80.1264 65.0009 79.943 65.1654L80.6106 65.9099ZM50.0106 92.5999L49.3033 93.3069C49.5352 93.5389 49.8662 93.6424 50.1889 93.5839C50.5117 93.5254 50.7852 93.3123 50.921 93.0137L50.0106 92.5999ZM64.3106 61.1399L65.221 61.5537L65.2253 61.5441L64.3106 61.1399ZM50.0006 92.5899L50.7078 91.8829C50.476 91.651 50.1452 91.5475 49.8226 91.6059C49.4999 91.6643 49.2263 91.8771 49.0905 92.1756L50.0006 92.5899ZM26.6306 45.3699L25.8786 46.029L25.9002 46.0537L25.9234 46.0769L26.6306 45.3699ZM20.9506 38.0699L21.784 37.5173L21.7838 37.517L20.9506 38.0699ZM16.2006 41.8899L17.1135 42.2982L17.1138 42.2974L16.2006 41.8899ZM11.6206 41.2399L10.7085 41.65L10.7092 41.6514L11.6206 41.2399ZM7.25059 15.6499L7.88575 16.4223L7.88607 16.422L7.25059 15.6499ZM31.0506 25.2999L31.6346 24.4882L31.6345 24.4881L31.0506 25.2999ZM30.6406 30.1099L30.3806 29.1443L30.3802 29.1444L30.6406 30.1099ZM26.4406 31.3099L26.8047 32.2413L26.8062 32.2407L26.4406 31.3099ZM26.0206 33.9399L25.2823 34.6144L25.2825 34.6146L26.0206 33.9399ZM32.0406 41.0299L31.2594 41.6542L31.2603 41.6554L32.0406 41.0299ZM26.6406 45.3799L27.3939 44.7222L27.3716 44.6968L27.3478 44.6729L26.6406 45.3799ZM40.6306 65.9099C39.9231 65.2032 39.923 65.2033 39.9229 65.2034C39.9228 65.2035 39.9226 65.2037 39.9225 65.2038C39.9221 65.2042 39.9217 65.2046 39.9211 65.2052C39.9199 65.2064 39.9182 65.2081 39.916 65.2104C39.9115 65.2148 39.905 65.2213 39.8966 65.2299C39.8796 65.2469 39.8548 65.2719 39.8225 65.3046C39.758 65.3698 39.664 65.4653 39.5445 65.5875C39.3057 65.832 38.9653 66.1834 38.557 66.6134C37.7413 67.4724 36.6512 68.6486 35.559 69.9123C34.4703 71.1719 33.363 72.5374 32.5224 73.772C32.1027 74.3884 31.7353 74.9928 31.4692 75.5495C31.215 76.0814 31.0006 76.6754 31.0006 77.2399H33.0006C33.0006 77.1319 33.0559 76.8675 33.2736 76.412C33.4795 75.9813 33.7863 75.4694 34.1756 74.8976C34.9532 73.7556 36.0034 72.4566 37.0722 71.2201C38.1375 69.9875 39.2049 68.8356 40.0073 67.9905C40.4081 67.5684 40.7419 67.2239 40.975 66.9853C41.0916 66.866 41.1829 66.7733 41.2448 66.7106C41.2758 66.6793 41.2994 66.6555 41.3151 66.6397C41.323 66.6318 41.3289 66.6259 41.3327 66.622C41.3347 66.6201 41.3361 66.6186 41.337 66.6177C41.3374 66.6173 41.3377 66.617 41.3379 66.6168C41.338 66.6167 41.3381 66.6166 41.3381 66.6166C41.3381 66.6166 41.3381 66.6166 40.6306 65.9099ZM31.0006 77.2399C31.0006 77.878 31.3061 78.4842 31.6349 78.9771C31.9822 79.4977 32.4559 80.0379 32.9877 80.5714C34.0537 81.6408 35.453 82.782 36.8229 83.8166C38.1985 84.8556 39.5708 85.8069 40.5971 86.4973C41.1109 86.8429 41.5394 87.124 41.84 87.3191C41.9903 87.4167 42.1087 87.4928 42.1899 87.5448C42.2305 87.5707 42.2619 87.5907 42.2832 87.6042C42.2939 87.611 42.3021 87.6162 42.3077 87.6198C42.3105 87.6216 42.3127 87.6229 42.3142 87.6239C42.3149 87.6244 42.3155 87.6247 42.316 87.625C42.3162 87.6251 42.3164 87.6253 42.3165 87.6253C42.3166 87.6254 42.3167 87.6255 42.8506 86.7799C43.3844 85.9343 43.3845 85.9344 43.3845 85.9343C43.3844 85.9343 43.3843 85.9343 43.3842 85.9342C43.384 85.9341 43.3836 85.9338 43.383 85.9335C43.3819 85.9328 43.3802 85.9316 43.3778 85.9301C43.3729 85.9271 43.3656 85.9224 43.3557 85.9161C43.336 85.9036 43.3064 85.8848 43.2676 85.8599C43.1898 85.8102 43.0752 85.7365 42.9288 85.6415C42.636 85.4515 42.2168 85.1765 41.7134 84.8378C40.7054 84.1598 39.3652 83.2304 38.0283 82.2207C36.6857 81.2066 35.3725 80.1309 34.4042 79.1594C33.9187 78.6724 33.5448 78.2361 33.2987 77.8672C33.0342 77.4707 33.0006 77.2743 33.0006 77.2399H31.0006ZM43.5324 87.5114C44.6737 86.4477 45.5249 85.1318 46.0307 83.9934C46.2831 83.4254 46.4653 82.8662 46.5448 82.3749C46.5843 82.1304 46.6039 81.8698 46.578 81.6168C46.5535 81.3779 46.4778 81.0426 46.2345 80.7546L44.7067 82.0453C44.5859 81.9023 44.5846 81.7838 44.5884 81.8209C44.5908 81.8439 44.5926 81.9185 44.5705 82.0555C44.5265 82.3274 44.4093 82.7169 44.203 83.1814C43.7913 84.108 43.0874 85.1922 42.1688 86.0484L43.5324 87.5114ZM46.2289 80.748C46.0939 80.591 45.8751 80.4125 45.6931 80.2686C45.4827 80.1023 45.2173 79.9028 44.9223 79.6856C44.3319 79.2511 43.5924 78.7237 42.8789 78.213C42.16 77.6984 41.4685 77.2015 40.9576 76.8168C40.7001 76.6229 40.5031 76.4685 40.3755 76.3599C40.3446 76.3337 40.3208 76.3126 40.3029 76.2963C40.2843 76.2792 40.2771 76.2716 40.2775 76.2721C40.278 76.2726 40.283 76.2779 40.291 76.2873C40.2983 76.296 40.3133 76.3144 40.3315 76.3409C40.3479 76.365 40.3797 76.414 40.4101 76.4833C40.4369 76.5441 40.4906 76.6827 40.4906 76.8699H38.4906C38.4906 77.2096 38.6629 77.4441 38.6813 77.4709C38.7345 77.5487 38.7905 77.6106 38.8272 77.6492C38.9041 77.7302 38.9949 77.8113 39.0794 77.8832C39.254 78.0317 39.4897 78.2151 39.7546 78.4146C40.2883 78.8164 41 79.3277 41.7148 79.8393C42.435 80.3548 43.16 80.8719 43.7367 81.2964C44.0253 81.5088 44.2692 81.6925 44.4529 81.8376C44.6648 82.0052 44.7248 82.0664 44.7123 82.0518L46.2289 80.748ZM40.4906 76.8699C40.4906 77.039 40.4456 77.1625 40.4363 77.1886C40.4203 77.2335 40.405 77.2644 40.3999 77.2745C40.3893 77.2956 40.3854 77.3001 40.3983 77.2796C40.4219 77.2423 40.4668 77.1764 40.5383 77.0777C40.6786 76.8838 40.8856 76.6122 41.1427 76.283C41.655 75.6272 42.3412 74.7746 43.0314 73.9258C43.7207 73.0782 44.4105 72.2388 44.9281 71.6111C45.1868 71.2973 45.4024 71.0365 45.5533 70.8543C45.6287 70.7632 45.6879 70.6917 45.7283 70.6431C45.7485 70.6187 45.7639 70.6001 45.7743 70.5876C45.7795 70.5813 45.7834 70.5766 45.786 70.5734C45.7874 70.5718 45.7883 70.5707 45.789 70.5699C45.7893 70.5695 45.7896 70.5692 45.7897 70.569C45.7898 70.5689 45.7899 70.5688 45.7899 70.5688C45.7899 70.5687 45.7899 70.5687 45.0206 69.9299C44.2512 69.2911 44.2512 69.2911 44.2512 69.2912C44.2511 69.2912 44.251 69.2913 44.251 69.2914C44.2508 69.2916 44.2505 69.2919 44.2502 69.2924C44.2495 69.2932 44.2485 69.2944 44.2471 69.296C44.2444 69.2993 44.2404 69.3041 44.2352 69.3105C44.2246 69.3232 44.209 69.342 44.1887 69.3665C44.148 69.4155 44.0885 69.4874 44.0127 69.5789C43.8611 69.762 43.6447 70.0238 43.385 70.3387C42.8657 70.9685 42.1729 71.8116 41.4798 72.664C40.7875 73.5152 40.0912 74.3801 39.5666 75.0518C39.3052 75.3864 39.0803 75.681 38.9181 75.905C38.8384 76.0151 38.7645 76.1211 38.7071 76.212C38.6795 76.2558 38.6445 76.3135 38.613 76.3762C38.5975 76.4071 38.5743 76.4559 38.5529 76.5157C38.5383 76.5567 38.4906 76.6921 38.4906 76.8699H40.4906ZM45.6968 69.1932L41.3168 65.1732L39.9644 66.6466L44.3444 70.6666L45.6968 69.1932ZM40.6406 64.9099H40.6306V66.9099H40.6406V64.9099ZM80.6206 65.9099C79.9131 66.6166 79.9131 66.6166 79.9131 66.6166C79.9131 66.6166 79.9132 66.6167 79.9133 66.6168C79.9135 66.617 79.9138 66.6173 79.9142 66.6177C79.9151 66.6186 79.9165 66.6201 79.9185 66.622C79.9223 66.6259 79.9282 66.6318 79.9361 66.6397C79.9518 66.6555 79.9754 66.6793 80.0064 66.7106C80.0683 66.7733 80.1596 66.866 80.2762 66.9853C80.5093 67.2239 80.8431 67.5684 81.2439 67.9905C82.0463 68.8356 83.1137 69.9875 84.179 71.2201C85.2478 72.4566 86.298 73.7556 87.0756 74.8976C87.4649 75.4694 87.7717 75.9813 87.9775 76.412C88.1953 76.8675 88.2506 77.1319 88.2506 77.2399H90.2506C90.2506 76.6754 90.0362 76.0814 89.782 75.5495C89.5159 74.9928 89.1485 74.3884 88.7288 73.772C87.8882 72.5374 86.7809 71.1719 85.6922 69.9123C84.6 68.6486 83.5099 67.4724 82.6942 66.6134C82.2859 66.1834 81.9455 65.832 81.7067 65.5875C81.5872 65.4653 81.4932 65.3698 81.4287 65.3046C81.3964 65.2719 81.3716 65.2469 81.3546 65.2299C81.3462 65.2213 81.3397 65.2148 81.3352 65.2104C81.333 65.2081 81.3313 65.2064 81.3301 65.2052C81.3295 65.2046 81.3291 65.2042 81.3287 65.2038C81.3286 65.2037 81.3284 65.2035 81.3283 65.2034C81.3282 65.2033 81.3281 65.2032 80.6206 65.9099ZM88.2506 77.2399C88.2506 77.2746 88.2169 77.4711 87.9527 77.8676C87.7068 78.2365 87.3333 78.6727 86.8483 79.1597C85.8808 80.1312 84.5689 81.2069 83.2275 82.221C81.8919 83.2307 80.5529 84.16 79.5459 84.8381C79.0429 85.1767 78.6241 85.4517 78.3316 85.6417C78.1854 85.7367 78.0708 85.8104 77.9932 85.8601C77.9544 85.885 77.9248 85.9038 77.9051 85.9164C77.8952 85.9226 77.8879 85.9273 77.8831 85.9303C77.8807 85.9319 77.8789 85.933 77.8778 85.9337C77.8772 85.934 77.8768 85.9343 77.8766 85.9344C77.8765 85.9345 77.8764 85.9345 77.8764 85.9346C77.8764 85.9346 77.8764 85.9346 78.4106 86.7799C78.9448 87.6253 78.9449 87.6252 78.9451 87.6251C78.9452 87.625 78.9454 87.6249 78.9456 87.6248C78.946 87.6245 78.9466 87.6241 78.9474 87.6236C78.9489 87.6227 78.951 87.6213 78.9538 87.6195C78.9595 87.616 78.9676 87.6108 78.9783 87.604C78.9996 87.5904 79.0309 87.5705 79.0715 87.5445C79.1526 87.4926 79.271 87.4165 79.4212 87.3189C79.7215 87.1238 80.1495 86.8427 80.6628 86.4971C81.6882 85.8067 83.0593 84.8554 84.4337 83.8164C85.8023 82.7817 87.2004 81.6405 88.2654 80.571C88.7967 80.0376 89.27 79.4973 89.6169 78.9767C89.9455 78.4838 90.2506 77.8777 90.2506 77.2399H88.2506ZM79.0924 86.0484C78.1731 85.1916 77.4666 84.1067 77.0524 83.1795C76.8448 82.7148 76.7266 82.3251 76.6819 82.0532C76.6594 81.9161 76.6611 81.8417 76.6634 81.819C76.6671 81.7822 76.6659 81.9015 76.5445 82.0453L75.0167 80.7546C74.7728 81.0433 74.6975 81.3795 74.6734 81.6187C74.648 81.8721 74.6682 82.1328 74.7083 82.3773C74.789 82.8685 74.9727 83.4275 75.2263 83.9953C75.7346 85.1331 76.5881 86.4483 77.7288 87.5114L79.0924 86.0484ZM76.5389 82.0518C76.5293 82.0629 76.5931 81.9985 76.8054 81.8279C76.9904 81.6793 77.2357 81.491 77.5255 81.2733C78.1047 80.8382 78.8325 80.3073 79.5552 79.7779C80.2728 79.2524 80.9867 78.7274 81.522 78.3152C81.7878 78.1107 82.0238 77.923 82.1982 77.7716C82.2827 77.6983 82.3729 77.6163 82.449 77.535C82.4852 77.4962 82.5402 77.4344 82.5925 77.3574C82.6188 77.3185 82.6578 77.2565 82.6929 77.1761C82.7241 77.1046 82.7806 76.9559 82.7806 76.7599H80.7806C80.7806 76.5727 80.8344 76.4344 80.8603 76.3751C80.8901 76.3068 80.9212 76.2585 80.9371 76.2351C80.9547 76.2091 80.9691 76.1912 80.976 76.1829C80.9835 76.1739 80.988 76.169 80.9882 76.1688C80.9886 76.1684 80.9867 76.1705 80.9818 76.1753C80.977 76.1801 80.9702 76.1866 80.9612 76.195C80.943 76.2121 80.9187 76.2339 80.8876 76.2609C80.7588 76.3727 80.5604 76.5315 80.302 76.7305C79.7889 77.1255 79.0947 77.6362 78.3735 78.1644C77.6575 78.6888 76.9159 79.2298 76.3242 79.6743C76.0285 79.8965 75.7629 80.0999 75.5527 80.2688C75.3699 80.4157 75.1543 80.5944 75.0223 80.748L76.5389 82.0518ZM82.7806 76.7599C82.7806 76.5821 82.7329 76.4467 82.7183 76.4057C82.6969 76.3459 82.6737 76.2971 82.6582 76.2662C82.6267 76.2035 82.5917 76.1458 82.5641 76.102C82.5067 76.0111 82.4328 75.9051 82.353 75.795C82.1909 75.571 81.9659 75.2764 81.7046 74.9418C81.18 74.2701 80.4837 73.4052 79.7914 72.554C79.0983 71.7016 78.4055 70.8585 77.8862 70.2287C77.6265 69.9138 77.4101 69.652 77.2585 69.4689C77.1827 69.3774 77.1232 69.3055 77.0825 69.2565C77.0622 69.232 77.0466 69.2132 77.036 69.2005C77.0308 69.1941 77.0268 69.1893 77.0241 69.186C77.0227 69.1844 77.0217 69.1832 77.021 69.1824C77.0207 69.1819 77.0204 69.1816 77.0202 69.1814C77.0201 69.1813 77.0201 69.1812 77.02 69.1812C77.02 69.1811 77.02 69.1811 76.2506 69.8199C75.4812 70.4587 75.4813 70.4587 75.4813 70.4588C75.4813 70.4588 75.4814 70.4589 75.4815 70.459C75.4816 70.4592 75.4819 70.4595 75.4822 70.4599C75.4828 70.4607 75.4838 70.4618 75.4851 70.4634C75.4878 70.4666 75.4917 70.4713 75.4969 70.4776C75.5073 70.4901 75.5227 70.5087 75.5429 70.5331C75.5833 70.5817 75.6425 70.6532 75.7179 70.7443C75.8688 70.9265 76.0844 71.1873 76.3431 71.5011C76.8607 72.1288 77.5504 72.9682 78.2398 73.8158C78.93 74.6646 79.6162 75.5172 80.1284 76.173C80.3856 76.5022 80.5926 76.7738 80.7329 76.9677C80.8044 77.0664 80.8493 77.1323 80.8729 77.1696C80.8858 77.1901 80.8819 77.1856 80.8713 77.1645C80.8662 77.1544 80.8509 77.1235 80.8349 77.0786C80.8256 77.0525 80.7806 76.929 80.7806 76.7599H82.7806ZM76.9182 70.5644L81.2782 66.6544L79.943 65.1654L75.583 69.0754L76.9182 70.5644ZM80.6106 66.9099H80.6206V64.9099H80.6106V66.9099ZM50.921 93.0137L65.221 61.5537L63.4002 60.7261L49.1002 92.1861L50.921 93.0137ZM65.2253 61.5441C65.1056 61.8148 64.9091 61.8457 65.0703 61.7784C65.1688 61.7372 65.3446 61.6862 65.6013 61.6423C66.1079 61.5558 66.7825 61.5215 67.4506 61.5641C68.133 61.6077 68.7137 61.7257 69.0754 61.8864C69.4849 62.0684 69.2373 62.097 69.2687 61.8525L71.2524 62.1074C71.3989 60.9678 70.5126 60.3364 69.8874 60.0587C69.2144 59.7597 68.3644 59.6184 67.578 59.5682C66.7774 59.5171 65.9452 59.5546 65.2645 59.6709C64.9277 59.7284 64.5898 59.8116 64.2993 59.933C64.0714 60.0282 63.6105 60.25 63.3959 60.7357L65.2253 61.5441ZM69.2687 61.8525C69.2692 61.8487 69.244 61.9658 69.1376 62.279C69.0427 62.5587 68.9063 62.9293 68.7317 63.3831C68.383 64.2893 67.8936 65.4965 67.306 66.9106C66.1317 69.7372 64.5757 73.366 62.9943 77.0148C59.8391 84.295 56.57 91.6843 56.0812 92.8265L57.9199 93.6133C58.4112 92.4655 61.6571 85.1298 64.8294 77.8101C66.4118 74.1589 67.9726 70.5189 69.153 67.678C69.7428 66.2583 70.2401 65.0321 70.5983 64.1014C70.7771 63.6368 70.9241 63.2381 71.0314 62.9221C71.1273 62.6398 71.2232 62.3348 71.2524 62.1074L69.2687 61.8525ZM56.0812 92.8265C56.0117 92.9889 55.7387 93.2655 55.0446 93.4769C54.3944 93.6749 53.5727 93.7495 52.7899 93.6891C51.9855 93.6271 51.3639 93.434 51.0407 93.2175C50.8883 93.1153 50.8719 93.0551 50.8777 93.0707C50.8928 93.1116 50.8624 93.1103 50.9107 93.0043L49.0905 92.1756C48.8587 92.6845 48.8065 93.2357 49.0016 93.7637C49.1872 94.2663 49.5526 94.6278 49.9273 94.8789C50.6585 95.3689 51.6732 95.609 52.6362 95.6832C53.621 95.7591 54.698 95.6731 55.6272 95.3901C56.5125 95.1206 57.4994 94.5959 57.9199 93.6133L56.0812 92.8265ZM49.2934 93.2969L49.3033 93.3069L50.7178 91.8929L50.7078 91.8829L49.2934 93.2969ZM27.3826 44.7108C25.1297 42.1403 23.5807 40.2271 21.784 37.5173L20.1172 38.6225C21.9805 41.4328 23.5915 43.4196 25.8786 46.029L27.3826 44.7108ZM21.7838 37.517C21.29 36.7728 20.5581 36.2529 19.6809 36.2099C18.8063 36.1669 18.0278 36.6098 17.4617 37.2905L18.9994 38.5693C19.2733 38.24 19.4899 38.2029 19.5828 38.2075C19.6731 38.2119 19.8812 38.267 20.1174 38.6229L21.7838 37.517ZM17.4617 37.2905C16.9585 37.8955 16.5529 38.6538 16.2133 39.3754C15.8828 40.0777 15.5521 40.8892 15.2874 41.4825L17.1138 42.2974C17.4291 41.5906 17.6934 40.9271 18.0229 40.227C18.3433 39.5461 18.6626 38.9743 18.9994 38.5693L17.4617 37.2905ZM15.2877 41.4816C15.1029 41.895 14.8777 42.2277 14.6514 42.4495C14.4234 42.6729 14.2478 42.7347 14.1427 42.743C14.0183 42.7529 13.3684 42.681 12.532 40.8284L10.7092 41.6514C11.5928 43.6088 12.7879 44.8569 14.301 44.7368C15.0146 44.6801 15.6059 44.3144 16.0513 43.8779C16.4985 43.4396 16.8533 42.8799 17.1135 42.2982L15.2877 41.4816ZM12.5326 40.8298C11.643 38.8513 9.58487 33.3208 8.24259 27.8936C7.5709 25.1777 7.09154 22.5386 7.0132 20.4062C6.974 19.3391 7.03726 18.4428 7.20448 17.7462C7.37339 17.0425 7.625 16.6367 7.88575 16.4223L6.61544 14.8775C5.89119 15.4731 5.48342 16.3474 5.25971 17.2794C5.03431 18.2185 4.97172 19.3136 5.01455 20.4796C5.10027 22.8131 5.61654 25.6059 6.30109 28.3737C7.67131 33.914 9.76815 39.5585 10.7085 41.65L12.5326 40.8298ZM7.88607 16.422C8.07755 16.2644 8.45651 16.118 9.14915 16.115C9.82753 16.1121 10.6864 16.2479 11.6983 16.5168C13.7185 17.0537 16.1714 18.072 18.6728 19.2858C23.6717 21.7116 28.6818 24.8278 30.4666 26.1117L31.6345 24.4881C29.7494 23.132 24.6395 19.9582 19.5459 17.4865C17.001 16.2516 14.4146 15.1693 12.212 14.5839C11.1124 14.2917 10.064 14.1111 9.14052 14.1151C8.23124 14.119 7.31363 14.3029 6.61511 14.8778L7.88607 16.422ZM30.4666 26.1116C31.839 27.0991 31.8636 27.7904 31.7934 28.0633C31.6977 28.4352 31.2378 28.9135 30.3806 29.1443L30.9006 31.0755C32.1234 30.7463 33.3835 29.9096 33.7303 28.5616C34.1026 27.1144 33.2922 25.6807 31.6346 24.4882L30.4666 26.1116ZM30.3802 29.1444C28.9672 29.5255 27.8219 29.6929 26.0749 30.3792L26.8062 32.2407C28.4193 31.607 29.274 31.5143 30.901 31.0754L30.3802 29.1444ZM26.0765 30.3785C25.1447 30.7428 24.6463 31.538 24.5476 32.3638C24.4527 33.1587 24.7185 33.9973 25.2823 34.6144L26.7589 33.2654C26.5827 33.0725 26.5084 32.8112 26.5335 32.601C26.5549 32.4218 26.6365 32.307 26.8047 32.2413L26.0765 30.3785ZM25.2825 34.6146C27.3935 36.9239 29.1989 39.076 31.2594 41.6542L32.8218 40.4056C30.7423 37.8038 28.9077 35.616 26.7587 33.2652L25.2825 34.6146ZM31.2603 41.6554C31.1391 41.5041 31.1792 41.3727 31.1668 41.4331C31.1524 41.5034 31.096 41.656 30.9463 41.8888C30.652 42.3465 30.136 42.9016 29.5216 43.4086C28.9063 43.9163 28.2664 44.3147 27.7605 44.5096C27.5046 44.6081 27.3435 44.631 27.2683 44.6296C27.2104 44.6285 27.3041 44.6193 27.3939 44.7222L25.8873 46.0376C26.2696 46.4755 26.783 46.621 27.2316 46.6292C27.663 46.6372 28.0953 46.5239 28.4795 46.3759C29.2535 46.0777 30.0799 45.541 30.7946 44.9512C31.5102 44.3607 32.1879 43.6558 32.6286 42.9704C32.8464 42.6317 33.0428 42.2419 33.1262 41.8339C33.2117 41.4162 33.1946 40.8707 32.8209 40.4045L31.2603 41.6554ZM27.3478 44.6729L27.3378 44.6629L25.9234 46.0769L25.9334 46.087L27.3478 44.6729Z" fill="#116FAE"/>
<path id="1px-stroke-emphasis" d="M9.871 20.6199C9.711 21.2599 10.341 26.1499 10.891 27.9099" stroke="#116FAE" stroke-linecap="round" stroke-linejoin="round"/>
<g id="fill-emphasis">
<path d="M19.4106 15.1099C19.4106 15.1099 13.6906 13.0699 13.7706 18.8799C13.8506 24.6799 11.8106 33.9999 13.7706 36.6999C15.7306 39.3999 16.5406 35.2999 19.9006 37.2599C23.2606 39.2299 25.1406 49.9099 29.4706 47.9199C33.8006 45.9299 39.8906 44.9499 34.9206 38.4899C29.9606 32.0299 35.3106 31.0499 35.8206 27.6199C36.3306 24.1899 19.4106 15.1099 19.4106 15.1099Z" fill="#116FAE" fill-opacity="0.24"/>
<path d="M41.5106 69.9299C41.5106 69.9299 34.7106 76.2799 34.7106 78.8899C34.7106 81.4999 45.5606 88.3899 45.5606 88.3899C47.6206 86.4699 46.8706 82.1699 46.3606 81.5199C45.8506 80.8699 42.2106 78.7099 42.2106 78.3999C42.2106 78.0899 46.3306 73.7799 46.2806 71.7999C46.2306 69.8199 41.5106 69.9199 41.5106 69.9199V69.9299Z" fill="#116FAE" fill-opacity="0.24"/>
<path d="M83.4106 67.6099C83.4106 67.6099 92.0606 76.2699 92.0606 78.9399C92.0606 81.6099 81.2106 88.4399 81.2106 88.4399C79.1506 86.5199 77.9406 82.0799 78.4606 81.4299C78.9806 80.7799 83.1706 79.4799 83.7406 76.7699C84.3106 74.0599 79.4406 68.2399 79.4406 68.2399L83.4106 67.6099Z" fill="#116FAE" fill-opacity="0.24"/>
<path d="M51.6506 94.1099L65.2206 65.9099C65.5806 65.0499 71.2506 64.1199 71.0206 65.9099C70.7906 67.6999 60.7206 92.6399 59.7406 94.9499C58.7606 97.2599 50.5406 96.5799 51.6506 94.1099Z" fill="#116FAE" fill-opacity="0.24"/>
</g>
</g>
</g>
</svg>
