<svg width="129" height="129" viewBox="0 0 129 129" fill="none" xmlns="http://www.w3.org/2000/svg">
<g id="Pictogram-mileage-expense">
<g id="Default">
<path id="dash-stroke-default" d="M52.9668 12.6494H52.9678" stroke="#494A4A" stroke-width="0.001"/>
<path id="2px-stroke-default" d="M26.2377 32.4396C16.2977 33.5396 13.4377 40.6896 13.2277 50.2796M116.998 91.8495C117.758 76.9495 117.218 59.1896 116.378 48.8696C115.618 39.5796 111.978 31.1496 104.068 29.4696C101.948 29.0196 96.7177 29.0196 94.1677 29.0196M10.1177 93.4496C10.3477 98.1296 10.6277 98.3095 10.9077 100.39C12.2777 110.53 18.3477 118.62 32.1377 119.26C41.2477 119.69 50.1277 119.44 58.2977 119.52M105.238 29.7696C110.898 31.4496 113.218 40.3596 101.688 41.3496C81.3577 43.0996 49.6577 40.8096 31.0677 42.3796C17.6777 43.5196 11.0477 49.0196 9.83774 61.2496C9.64774 63.1596 9.55774 66.2696 9.54774 69.9896M9.53774 66.0596C5.21774 66.4096 2.96774 68.5896 2.56774 71.7296C2.03774 75.9096 1.45774 87.2196 4.11774 90.4496C7.85774 94.9896 34.4877 94.3796 42.0277 93.1196C45.1177 92.6096 45.8777 77.2496 42.9077 74.0696C39.9477 70.8896 15.8677 71.7296 12.8377 71.7296C7.61774 71.7296 6.19774 69.4796 9.09774 68.1796M80.1777 36.3996C64.0877 30.8096 44.8377 27.8396 42.6777 29.3096C41.3477 30.2096 41.2277 32.7896 41.1177 35.9696M99.7277 34.8996C84.8477 15.0396 42.2677 9.48956 40.9377 10.5496C39.6277 11.5896 35.4577 25.2996 33.3777 35.9696M37.6577 18.9496C36.8277 18.8096 27.6277 17.3196 27.1077 18.1796C26.5877 19.0396 26.4277 28.4296 26.1677 35.9596" stroke="#494A4A" stroke-width="2" stroke-linecap="round" stroke-linejoin="round"/>
<path id="1px-stroke-default" d="M30.9481 113.41C25.1281 112.4 20.7281 108.699 19.6681 104.249M37.4481 108.989C33.8981 110.659 30.7981 109.599 28.3381 107.209M7.28809 83.5895C8.02809 85.9195 10.5181 87.5795 14.3781 87.5795M27.1981 82.9095C27.1981 85.4695 29.2981 87.8595 31.8381 87.5495C34.8881 87.1795 36.6881 85.7695 36.4781 82.9095C36.2981 80.3495 34.3981 78.4395 31.8381 78.2695C28.4781 78.0395 27.1981 80.3495 27.1981 82.9095Z" stroke="#494A4A" stroke-linecap="round" stroke-linejoin="round"/>
<path id="fill-default" d="M102.638 40.2496C102.638 40.2496 93.5778 25.8996 72.6178 20.3896C51.6578 14.8796 42.2978 14.6396 42.2978 14.6396L38.4278 23.0896L28.7178 21.4796L27.6078 23.0096L26.5078 42.3696C26.5078 42.3696 30.8978 44.0196 41.3978 40.8696C50.4678 38.1497 55.9178 42.0096 63.3778 42.1096C68.5578 42.1796 77.8778 41.1297 83.0478 41.7097C101.638 43.7696 102.638 40.2596 102.638 40.2596V40.2496Z" fill="#494A4A" fill-opacity="0.08"/>
</g>
<g id="Emphasis">
<path id="2px-stroke-emphasis" d="M104.087 119.069C101.227 119.269 96.8174 119.269 93.7174 119.259C90.6174 119.259 84.2474 119.259 81.3874 119.069M121.437 102.129C126.117 102.129 123.217 108.809 121.507 108.809M69.1874 117.329C65.8374 116.719 65.1074 116.289 64.4974 115.869C63.4174 115.119 62.9274 113.509 62.8074 111.629C62.6174 108.729 62.8074 106.699 63.2674 104.059C63.8074 100.899 66.3774 98.9094 67.2174 97.3294C67.9374 95.9894 68.9474 86.5394 70.7774 80.3294C71.3474 78.3894 72.3174 77.2094 74.5774 76.4494C79.7374 74.7194 94.1974 72.7894 101.487 73.0894C104.337 73.2094 106.457 75.5994 107.187 78.0594C108.417 82.2094 109.757 87.7194 110.547 94.8494C110.717 96.3994 111.287 96.6494 112.697 97.0494C114.337 97.5094 117.127 98.1594 118.997 99.0594C120.567 99.8194 121.077 100.509 121.357 101.689C121.747 103.319 121.437 112.569 119.797 115.959C119.797 115.959 118.377 118.129 116.387 118.399M81.3274 116.999C81.3274 120.324 78.6322 123.019 75.3074 123.019C71.9827 123.019 69.2874 120.324 69.2874 116.999C69.2874 113.675 71.9827 110.979 75.3074 110.979C78.6322 110.979 81.3274 113.675 81.3274 116.999ZM116.197 116.999C116.197 120.324 113.502 123.019 110.177 123.019C106.853 123.019 104.157 120.324 104.157 116.999C104.157 113.675 106.853 110.979 110.177 110.979C113.502 110.979 116.197 113.675 116.197 116.999Z" stroke="#116FAE" stroke-width="2" stroke-linecap="round" stroke-linejoin="round"/>
<path id="1px-stroke-emphasis" d="M92.3771 82.3594L83.1671 89.4794M91.2071 87.7894L83.1671 93.3094M106.747 94.7794C106.557 95.8894 105.627 96.8894 104.717 96.9294C95.7271 97.3694 80.6371 97.1994 73.5071 96.5894C72.5071 96.4994 71.2871 95.4894 71.4171 94.1694C71.8471 89.8894 73.2471 84.9794 74.0771 82.0394C74.4571 80.6994 75.0971 79.9494 76.2571 79.6394C81.8371 78.1394 93.9171 76.7294 100.397 76.6594C102.217 76.6394 103.317 77.6294 103.777 79.1894C104.897 83.0194 105.547 85.1994 106.177 89.6194M79.9271 74.8294C77.8471 71.7194 72.9071 70.3694 70.3571 70.5794M91.2071 102.179C93.1771 101.469 94.6271 101.359 96.3671 101.529M77.3171 116.999C77.3171 118.109 76.4172 119.009 75.3071 119.009C74.197 119.009 73.2971 118.109 73.2971 116.999C73.2971 115.889 74.197 114.989 75.3071 114.989C76.4172 114.989 77.3171 115.889 77.3171 116.999ZM112.187 116.999C112.187 118.109 111.287 119.009 110.177 119.009C109.067 119.009 108.167 118.109 108.167 116.999C108.167 115.889 109.067 114.989 110.177 114.989C111.287 114.989 112.187 115.889 112.187 116.999ZM106.597 90.0194C105.317 89.4694 103.567 89.0394 102.167 89.0294C101.217 89.0294 101.277 94.2694 102.127 94.4994C103.357 94.8294 106.327 94.6594 107.317 94.2594C107.927 94.0194 107.477 90.3894 106.607 90.0194H106.597ZM70.3571 70.5394C70.3571 71.3181 69.7258 71.9494 68.9471 71.9494C68.1684 71.9494 67.5371 71.3181 67.5371 70.5394C67.5371 69.7607 68.1684 69.1294 68.9471 69.1294C69.7258 69.1294 70.3571 69.7607 70.3571 70.5394Z" stroke="#116FAE" stroke-linecap="round" stroke-linejoin="round"/>
<path id="fill-emphasis" d="M120.897 122.799C122.947 122.529 124.407 120.359 124.407 120.359C126.097 116.959 126.417 107.709 126.017 106.089C125.717 104.909 125.197 104.219 123.577 103.459C121.657 102.559 118.777 101.909 117.087 101.449C115.637 101.049 115.047 100.799 114.877 99.2493C114.067 92.1193 112.677 86.6193 111.417 82.4593C110.667 79.9993 111.107 77.5893 108.177 77.4693C100.657 77.1693 109.417 81.1893 104.097 82.9093C101.767 83.6593 105.127 94.6593 104.537 96.5993C102.657 102.799 80.227 97.0193 71.057 99.6493C69.327 100.149 66.707 105.289 66.137 108.449C65.667 111.089 65.467 113.109 65.667 116.019C65.797 117.899 66.297 119.509 67.407 120.259C68.037 120.679 67.947 121.629 71.407 122.229C71.407 122.229 74.617 127.989 79.297 124.589C81.247 123.169 82.547 122.129 87.307 121.659C91.227 121.269 101.677 121.009 106.577 122.389C109.587 123.239 109.227 126.789 111.727 126.929C117.537 127.249 120.897 122.799 120.897 122.799Z" fill="#116FAE" fill-opacity="0.24"/>
</g>
</g>
</svg>
