<svg width="128" height="129" viewBox="0 0 128 129" fill="none" xmlns="http://www.w3.org/2000/svg">
<g id="Pictogram-missing-page">
<g id="Default">
<path id="dash-stroke-default" d="M119.521 61.3096C142.811 13.4596 108.721 -5.62041 73.8407 13.5896C69.2807 16.0996 48.1707 29.7796 32.9407 29.5696M11.5207 77.4896C10.9907 78.1496 10.5007 78.8296 10.0507 79.5096M7.66066 84.0696C-2.08934 108.18 28.2907 139.75 67.8507 114.93M70.0107 113.52C70.6907 113.06 71.3807 112.58 72.0607 112.09" stroke="#494A4A" stroke-linecap="round" stroke-linejoin="round" stroke-dasharray="5 5"/>
<path id="2px-stroke-default" d="M37.021 22.3896C58.481 21.1096 88.951 21.4596 106.511 22.5396C113.351 22.9596 115.731 24.9296 116.561 32.2996C117.741 42.7096 116.711 68.7896 114.731 83.3096C114.451 85.3696 113.751 88.4096 111.211 88.4396M20.741 88.4496C17.871 88.4596 16.661 86.2996 16.361 83.9696C14.611 70.0796 13.691 47.1096 14.591 35.0396M115.871 89.7296C118.661 92.4096 122.511 98.3796 123.831 101.13C124.501 102.53 124.681 105.84 124.681 107.21C124.681 110.44 123.691 111.97 120.341 112.63C103.941 115.86 24.361 115.28 10.791 112.29C8.46103 111.77 7.02103 109.8 6.78103 107.24C6.58103 105.14 6.65103 102.63 7.03103 101.26C7.52103 99.5196 12.401 92.0396 15.041 89.5096C15.911 88.6796 18.711 88.4996 21.211 88.4296C32.851 88.0896 91.981 88.1196 109.851 88.4496C112.561 88.4996 114.291 88.2096 115.871 89.7296Z" stroke="#494A4A" stroke-width="2" stroke-linecap="round" stroke-linejoin="round"/>
<path id="1px-stroke-default" d="M110.48 68.1095C110.32 80.2295 109.74 81.4695 105.3 81.4695M20.9205 52.9995C20.9205 61.5395 20.9405 64.9195 21.1105 68.2995M8.73049 99.9095C7.40049 102 8.06049 103.66 10.7805 104.08C29.3105 106.96 100.5 107.11 120.01 103.87C122.79 103.41 122.83 101.11 121.41 98.6495M22.9005 94.9895C24.9105 95.0295 31.5105 94.6195 35.7105 94.8695M43.2805 94.8795C48.4605 95.0795 49.9205 94.7995 53.0705 94.9795M60.4705 94.8795C65.6505 95.0795 67.1105 94.7995 70.2605 94.9795M77.6705 94.9295C80.7105 95.0395 85.9405 95.0395 87.1805 94.9295M94.8005 94.9895C97.7805 94.8295 106.1 94.8295 108.59 94.9895M18.9905 100.3C22.0305 100.54 26.8005 100.54 30.5105 100.54M100.93 100.58C104.62 100.58 109.66 100.55 112.34 100.46M41.9805 106C42.9005 103.06 44.3505 100.79 45.6705 100.7C50.2605 100.37 80.7305 100.3 85.4605 100.7C87.0305 100.83 89.0705 104.54 89.3305 105.94" stroke="#494A4A" stroke-linecap="round" stroke-linejoin="round"/>
<path id="fill-default" d="M119.2 93.0494C121.99 95.7294 125.83 101.699 127.15 104.449C127.82 105.849 128 109.159 128 110.529C128 113.759 127.01 115.289 123.67 115.949C107.31 119.179 27.8904 118.599 14.3504 115.609C12.0204 115.089 10.5904 113.119 10.3504 110.559C10.1504 108.459 10.2204 105.949 10.6004 104.579C11.0904 102.839 15.9604 95.3594 18.5904 92.8294C19.4604 91.9994 22.2504 91.8194 24.7404 91.7494C36.3504 91.4094 95.3604 91.4394 113.2 91.7694C115.9 91.8194 117.63 91.5294 119.21 93.0494H119.2Z" fill="#494A4A" fill-opacity="0.08"/>
</g>
<g id="Emphasis">
<path id="2px-stroke-emphasis" d="M51.6996 41.1494L52.3054 40.3538C52.2808 40.335 52.2552 40.3174 52.2289 40.3009L51.6996 41.1494ZM46.2296 67.8694L45.5876 68.6361L45.5905 68.6386L46.2296 67.8694ZM46.3996 63.8094H45.3996C45.3996 63.8563 45.4029 63.9032 45.4094 63.9496L46.3996 63.8094ZM36.2596 62.3394L36.8905 61.5635C36.8109 61.4988 36.7218 61.4467 36.6263 61.4091L36.2596 62.3394ZM46.2396 47.8594L45.9378 48.8128L45.944 48.8147L46.2396 47.8594ZM40.0896 57.0194L41.0169 56.6451L41.0161 56.6431L40.0896 57.0194ZM96.8396 41.6894H95.8396C95.8396 41.9753 95.962 42.2476 96.1758 42.4374L96.8396 41.6894ZM98.4596 62.5094L97.8097 61.7492L97.8028 61.7553L98.4596 62.5094ZM89.4196 67.9294L88.7215 68.6454L88.7245 68.6484L89.4196 67.9294ZM89.8896 63.8894L88.8924 63.8138C88.8888 63.8609 88.8886 63.9082 88.8917 63.9553L89.8896 63.8894ZM79.8796 61.6694L80.5654 60.9416C80.491 60.8715 80.4064 60.8133 80.3144 60.7689L79.8796 61.6694ZM96.8396 41.6794H97.8396C97.8396 41.3608 97.6878 41.0613 97.4309 40.8729L96.8396 41.6794ZM90.8996 47.9794L90.5282 48.9079C90.8363 49.0311 91.1854 48.9935 91.4602 48.8074C91.735 48.6214 91.8996 48.3112 91.8996 47.9794H90.8996ZM90.8996 47.9694L91.271 47.0409C90.9629 46.9177 90.6137 46.9553 90.3389 47.1413C90.0642 47.3273 89.8996 47.6376 89.8996 47.9694H90.8996ZM67.1096 68.4194L67.0749 67.42H67.0749L67.1096 68.4194ZM66.6796 45.1094L66.5718 44.1152L66.5705 44.1153L66.6796 45.1094ZM67.9196 62.9194L67.6825 61.9479L67.6825 61.9479L67.9196 62.9194ZM51.0937 41.9449C50.9865 41.8633 50.9834 41.8016 51.026 41.9025C51.0615 41.9867 51.1057 42.1294 51.149 42.3456C51.2353 42.7767 51.2948 43.3766 51.3274 44.116C51.3922 45.5876 51.3453 47.4704 51.2606 49.3583C51.1758 51.2451 51.0556 53.0939 50.9767 54.5196C50.9377 55.2252 50.9084 55.8346 50.9004 56.2807C50.8965 56.5005 50.8972 56.704 50.9077 56.868C50.9127 56.9467 50.9217 57.0472 50.942 57.1479C50.9519 57.1975 50.9701 57.2752 51.0044 57.3623C51.0304 57.4282 51.1093 57.6162 51.2988 57.7786L52.6003 56.2601C52.7789 56.4132 52.8478 56.5849 52.8647 56.6279C52.89 56.692 52.9 56.7401 52.9027 56.7535C52.9084 56.782 52.9064 56.7844 52.9036 56.7407C52.8985 56.6599 52.8964 56.5217 52.9001 56.3163C52.9073 55.9119 52.9346 55.3365 52.9737 54.6301C53.051 53.2318 53.1733 51.3474 53.2586 49.448C53.3438 47.5496 53.3944 45.593 53.3255 44.028C53.2912 43.2492 53.226 42.5315 53.11 41.9527C53.0521 41.6639 52.9757 41.3786 52.8687 41.1251C52.7688 40.8883 52.6014 40.5792 52.3054 40.3538L51.0937 41.9449ZM51.2988 57.7786C51.603 58.0394 51.9526 58.0711 52.1125 58.0766C52.2996 58.0831 52.4825 58.0586 52.6226 58.0349C52.8729 57.9927 53.2614 57.8981 53.4824 57.8523C53.7672 57.7933 53.9793 57.7651 54.1307 57.7699C54.288 57.775 54.2237 57.8103 54.1321 57.716L55.567 56.3227C55.1404 55.8834 54.5899 55.7837 54.1953 55.771C53.7948 55.7581 53.3894 55.8292 53.0767 55.8939C52.7002 55.9719 52.5112 56.0254 52.2896 56.0629C52.1938 56.079 52.1672 56.0773 52.1818 56.0778C52.1921 56.0782 52.2383 56.0802 52.3051 56.0991C52.3731 56.1184 52.4858 56.1619 52.6003 56.2601L51.2988 57.7786ZM54.1321 57.716C54.0781 57.6603 54.0901 57.6444 54.1282 57.7469C54.1613 57.8363 54.1973 57.9699 54.229 58.1494C54.2922 58.5079 54.3235 58.9651 54.3184 59.4398C54.3132 59.9139 54.2721 60.3683 54.2058 60.7194C54.1725 60.8957 54.1368 61.0247 54.1059 61.1081C54.0673 61.2123 54.0636 61.1711 54.1424 61.0923L55.5567 62.5065C55.7805 62.2826 55.9065 62.0049 55.9812 61.8034C56.0636 61.5811 56.1249 61.3354 56.1711 61.0903C56.2639 60.5986 56.3121 60.0236 56.3182 59.4615C56.3243 58.8999 56.2888 58.314 56.1986 57.8022C56.1535 57.5465 56.0911 57.2881 56.0033 57.0512C55.9202 56.8275 55.7886 56.5509 55.567 56.3227L54.1321 57.716ZM54.1424 61.0923C54.3592 60.8755 54.5747 60.9663 54.363 60.9344C54.189 60.908 53.9788 60.8403 53.6355 60.7369C53.3566 60.6528 52.9329 60.5265 52.527 60.5183C52.0724 60.5091 51.4113 60.6559 51.0593 61.3439L52.8398 62.2548C52.7078 62.5128 52.4467 62.5171 52.4865 62.5179C52.5749 62.5197 52.7401 62.5559 53.0586 62.6519C53.3128 62.7284 53.7089 62.8582 54.0642 62.9119C54.3819 62.9599 55.0499 63.0133 55.5567 62.5065L54.1424 61.0923ZM51.0593 61.3439C50.9112 61.6333 50.8664 61.9642 50.8462 62.1988C50.8234 62.4638 50.8219 62.7612 50.8304 63.0617C50.8475 63.6621 50.9082 64.3731 50.9644 65.0351C51.0221 65.7158 51.0748 66.3428 51.0862 66.8332C51.092 67.0798 51.0862 67.2571 51.073 67.3714C51.0665 67.4282 51.0608 67.4447 51.0639 67.4341C51.0659 67.4275 51.0732 67.4042 51.0894 67.3707C51.1052 67.3379 51.1359 67.2823 51.1893 67.2197L52.7098 68.519C52.8676 68.3344 52.9422 68.1342 52.9804 68.0059C53.0221 67.8662 53.0455 67.7253 53.0599 67.6005C53.0886 67.3512 53.0923 67.0675 53.0857 66.7865C53.0725 66.2216 53.0133 65.5267 52.9572 64.8661C52.8996 64.1869 52.8448 63.5373 52.8296 63.0049C52.8221 62.7389 52.8253 62.5269 52.8388 62.3703C52.8549 62.1833 52.8779 62.1804 52.8398 62.2548L51.0593 61.3439ZM51.1893 67.2197C51.2388 67.1619 51.2846 67.1254 51.312 67.1059C51.34 67.0858 51.3599 67.0755 51.3657 67.0726C51.3752 67.0678 51.3606 67.076 51.3097 67.0911C51.2075 67.1216 51.0437 67.1557 50.8162 67.1862C50.3663 67.2464 49.7741 67.2787 49.158 67.2781C48.5429 67.2775 47.9363 67.2442 47.4592 67.1827C47.2192 67.1518 47.0325 67.1163 46.9028 67.0814C46.7361 67.0365 46.7736 67.0213 46.8686 67.1002L45.5905 68.6386C45.848 68.8525 46.1714 68.9557 46.3826 69.0126C46.6306 69.0794 46.9137 69.129 47.2037 69.1663C47.7865 69.2414 48.4812 69.2775 49.1561 69.2781C49.83 69.2788 50.5166 69.2442 51.0817 69.1685C51.3617 69.131 51.6394 69.0799 51.8813 69.0077C52.0024 68.9716 52.1355 68.9241 52.2643 68.8593C52.3834 68.7994 52.5594 68.6951 52.7098 68.519L51.1893 67.2197ZM46.8715 67.1026C46.9827 67.1957 47.0405 67.2947 47.0676 67.3526C47.0944 67.4095 47.1016 67.4477 47.102 67.4501C47.1029 67.4545 47.1004 67.4431 47.0987 67.4109C47.0971 67.3797 47.0965 67.3372 47.0982 67.2817C47.1053 67.0432 47.147 66.7144 47.2069 66.2962C47.2635 65.9013 47.3349 65.4357 47.3791 65.0005C47.4223 64.5757 47.4499 64.0945 47.3897 63.6691L45.4094 63.9496C45.4342 64.1242 45.4293 64.4056 45.3894 64.7982C45.3505 65.1805 45.2881 65.5874 45.2272 66.0125C45.1696 66.4143 45.1101 66.853 45.0991 67.2221C45.0936 67.4055 45.0979 67.6214 45.1387 67.8315C45.1743 68.0147 45.2697 68.37 45.5876 68.6361L46.8715 67.1026ZM47.3996 63.8094C47.3996 63.1544 47.1887 62.5678 46.7478 62.1157C46.3314 61.6888 45.7916 61.4661 45.2781 61.345C44.2757 61.1086 43.0098 61.1806 41.8532 61.2955C40.6053 61.4195 39.4983 61.5899 38.4786 61.657C37.9874 61.6893 37.5893 61.6906 37.2866 61.6556C36.9605 61.618 36.8762 61.5519 36.8905 61.5635L35.6286 63.1152C36.0579 63.4643 36.6018 63.5898 37.0571 63.6424C37.5359 63.6977 38.0727 63.688 38.6099 63.6527C39.6471 63.5845 40.9713 63.393 42.0509 63.2857C43.2218 63.1694 44.1796 63.1408 44.8191 63.2916C45.1266 63.3641 45.2622 63.4569 45.316 63.5121C45.3454 63.5422 45.3996 63.6043 45.3996 63.8094H47.3996ZM36.6263 61.4091C36.0859 61.196 35.7256 60.789 35.5232 60.1253C35.3095 59.4246 35.2852 58.4585 35.4883 57.2687C35.8932 54.8963 37.148 51.9451 38.9143 49.1991C40.6811 46.4526 42.8924 44.0161 45.1306 42.6048C47.3669 41.1947 49.4286 40.9112 51.1703 41.9978L52.2289 40.3009C49.5706 38.6425 46.6334 39.2928 44.0639 40.913C41.4961 42.5321 39.0943 45.2224 37.2323 48.1171C35.3699 51.0124 33.9803 54.2168 33.5168 56.9322C33.2857 58.2863 33.2711 59.5972 33.6101 60.7087C33.9604 61.8573 34.6957 62.7978 35.8928 63.2697L36.6263 61.4091ZM46.5413 46.906C46.2009 46.7982 45.8819 46.8439 45.6492 46.913C45.414 46.9829 45.198 47.0967 45.0115 47.2156C44.6389 47.4529 44.2541 47.7946 43.8833 48.1735C43.1339 48.9393 42.3084 49.9951 41.5639 51.0951C40.8186 52.1963 40.1272 53.3822 39.6604 54.4199C39.428 54.9365 39.2378 55.446 39.1304 55.9075C39.0336 56.324 38.9571 56.8884 39.163 57.3956L41.0161 56.6431C41.0545 56.7378 41.0012 56.6929 41.0785 56.3605C41.1453 56.0732 41.2801 55.6943 41.4843 55.2404C41.8906 54.3372 42.518 53.2537 43.2202 52.2161C43.9232 51.1774 44.674 50.225 45.3127 49.5724C45.6359 49.2421 45.8982 49.022 46.086 48.9024C46.1797 48.8427 46.2223 48.8292 46.2189 48.8302C46.2182 48.8304 46.1045 48.8655 45.9378 48.8127L46.5413 46.906ZM39.1622 57.3937C39.5293 58.303 40.4215 58.6267 41.0935 58.7441C41.8065 58.8687 42.6227 58.8304 43.3586 58.7393C44.1084 58.6465 44.8435 58.4899 45.4231 58.3385C45.7135 58.2626 45.9724 58.1861 46.181 58.1166C46.3575 58.0578 46.582 57.9773 46.7434 57.8832L45.7357 56.1556C45.7771 56.1314 45.7404 56.1553 45.5489 56.2191C45.3896 56.2722 45.1739 56.3365 44.9176 56.4034C44.4037 56.5376 43.757 56.6747 43.113 56.7544C42.4551 56.8359 41.8658 56.8488 41.4378 56.774C40.9689 56.692 40.9849 56.5658 41.0169 56.6451L39.1622 57.3937ZM46.7434 57.8832C46.957 57.7586 47.0755 57.5895 47.1239 57.5151C47.1834 57.4237 47.2257 57.3337 47.2551 57.2643C47.3143 57.1242 47.362 56.9673 47.4014 56.8176C47.4819 56.512 47.5575 56.1198 47.6255 55.685C47.7624 54.8095 47.881 53.6791 47.9395 52.5472C47.9976 51.423 47.9989 50.2529 47.8864 49.3137C47.8308 48.85 47.7415 48.387 47.589 47.9991C47.4572 47.6638 47.1676 47.0997 46.5351 46.904L45.944 48.8147C45.659 48.7265 45.645 48.5206 45.7276 48.7308C45.7896 48.8884 45.8535 49.1583 45.9006 49.5516C45.9934 50.3265 45.9978 51.367 45.9421 52.444C45.8869 53.5134 45.7748 54.5749 45.6495 55.376C45.5864 55.7795 45.5231 56.0966 45.4673 56.3084C45.4386 56.4175 45.419 56.4712 45.4128 56.4859C45.4094 56.4938 45.4196 56.4672 45.4476 56.4243C45.4645 56.3983 45.5521 56.2627 45.7357 56.1556L46.7434 57.8832ZM96.1758 42.4374C96.0753 42.3481 96.0769 42.2867 96.1119 42.3906C96.1412 42.4774 96.1746 42.6231 96.2018 42.842C96.2561 43.2785 96.2711 43.8813 96.2489 44.6212C96.2048 46.0937 96.0191 47.9681 95.7953 49.8447C95.5717 51.7207 95.3156 53.5553 95.1321 54.9723C95.0412 55.6734 94.9673 56.2795 94.9267 56.7245C94.9067 56.9438 94.8926 57.1472 94.8911 57.312C94.8904 57.3912 94.8922 57.4924 94.9052 57.5947C94.9116 57.645 94.9241 57.7239 94.9521 57.8131C94.9735 57.8813 95.0381 58.0721 95.2124 58.2465L96.6267 56.8323C96.7907 56.9963 96.8465 57.17 96.8604 57.2145C96.881 57.28 96.8875 57.3286 96.8892 57.3422C96.8929 57.3711 96.8907 57.3734 96.8911 57.3296C96.8918 57.2487 96.8998 57.1107 96.9185 56.906C96.9552 56.5031 97.0246 55.9311 97.1155 55.2292C97.2954 53.8403 97.5562 51.9693 97.7813 50.0815C98.0063 48.1944 98.2011 46.2469 98.248 44.681C98.2713 43.9017 98.2594 43.1811 98.1865 42.5953C98.1502 42.303 98.0951 42.0129 98.0073 41.7522C97.9252 41.5086 97.7813 41.1881 97.5033 40.9414L96.1758 42.4374ZM95.2124 58.2465C95.4943 58.5283 95.8377 58.5883 96 58.6068C96.1874 58.6281 96.3725 58.6176 96.5147 58.6046C96.7713 58.581 97.1605 58.5157 97.3872 58.4857C97.6757 58.4475 97.8894 58.4343 98.0408 58.4498C98.1984 58.466 98.1324 58.4969 98.0474 58.3967L99.5718 57.102C99.1767 56.6369 98.6357 56.5003 98.2449 56.4602C97.8478 56.4195 97.4396 56.4613 97.1244 56.503C96.7473 56.553 96.5509 56.5928 96.3316 56.613C96.2358 56.6218 96.2104 56.6178 96.2261 56.6196C96.2369 56.6208 96.283 56.6266 96.3481 56.6508C96.4146 56.6755 96.5218 56.7274 96.6267 56.8323L95.2124 58.2465ZM98.0474 58.3967C97.9951 58.3351 98.0076 58.3175 98.0379 58.4216C98.0642 58.512 98.0903 58.6469 98.1088 58.8278C98.1455 59.1891 98.1432 59.647 98.1031 60.1199C98.0631 60.5923 97.9886 61.0424 97.8967 61.3873C97.8505 61.5605 97.8055 61.6861 97.7688 61.7663C97.7226 61.8671 97.7229 61.8236 97.8098 61.7493L99.1093 63.2695C99.3513 63.0627 99.498 62.7938 99.5873 62.5989C99.6859 62.3835 99.7651 62.1429 99.8293 61.9021C99.958 61.4189 100.049 60.849 100.096 60.2888C100.143 59.7293 100.151 59.1422 100.098 58.6253C100.072 58.3672 100.029 58.1048 99.958 57.862C99.8912 57.6329 99.7791 57.3461 99.5718 57.102L98.0474 58.3967ZM97.8028 61.7553C98.0352 61.5529 98.2456 61.6596 98.0381 61.6125C97.8671 61.5737 97.663 61.4907 97.3281 61.3621C97.0565 61.2578 96.6427 61.1001 96.2379 61.0623C96.022 61.0421 95.7426 61.048 95.4546 61.1583C95.1453 61.2766 94.8887 61.4916 94.713 61.7834L96.4261 62.8154C96.3754 62.8996 96.2835 62.9825 96.1692 63.0262C96.076 63.0619 96.0218 63.0508 96.0519 63.0536C96.1389 63.0618 96.3002 63.1097 96.611 63.2291C96.8587 63.3243 97.2445 63.4832 97.5954 63.5629C97.9098 63.6342 98.5739 63.7359 99.1163 63.2635L97.8028 61.7553ZM94.713 61.7834C94.5461 62.0603 94.4775 62.3857 94.4402 62.6185C94.3981 62.881 94.3747 63.1774 94.3611 63.4776C94.3337 64.0776 94.3416 64.7908 94.3484 65.4546C94.3553 66.1371 94.3611 66.7654 94.336 67.2543C94.3234 67.5002 94.3044 67.6759 94.2828 67.7881C94.2721 67.844 94.2652 67.8595 94.2694 67.8486C94.272 67.8419 94.2811 67.8189 94.3001 67.7863C94.3187 67.7545 94.3538 67.7009 94.4125 67.6423L95.8267 69.0565C95.9991 68.884 96.089 68.6895 96.1369 68.5644C96.1892 68.428 96.2231 68.2893 96.2468 68.1659C96.2942 67.9197 96.319 67.6373 96.3334 67.3569C96.3623 66.7934 96.355 66.0966 96.3483 65.4342C96.3413 64.753 96.3347 64.1012 96.359 63.5686C96.3711 63.3026 96.39 63.0909 96.415 62.935C96.4447 62.7493 96.468 62.7459 96.4261 62.8154L94.713 61.7834ZM94.4125 67.6423C94.4663 67.5884 94.5148 67.5557 94.5434 67.5385C94.5727 67.5208 94.5932 67.5121 94.599 67.5097C94.6084 67.5059 94.5929 67.513 94.5406 67.5243C94.4359 67.5471 94.2694 67.5688 94.0399 67.5822C93.5861 67.6087 92.9925 67.5969 92.3779 67.5509C91.7643 67.505 91.1619 67.4274 90.6911 67.3315C90.4542 67.2833 90.2711 67.2345 90.1448 67.1905C89.9815 67.1336 90.0231 67.122 90.1146 67.2104L88.7245 68.6484C88.966 68.8818 89.2823 69.008 89.4868 69.0792C89.7284 69.1634 90.0063 69.2331 90.2921 69.2913C90.8666 69.4083 91.556 69.495 92.2287 69.5453C92.9004 69.5956 93.5874 69.612 94.1564 69.5788C94.4383 69.5623 94.7188 69.5322 94.965 69.4788C95.0883 69.452 95.2242 69.4149 95.3572 69.3604C95.48 69.3101 95.6632 69.2199 95.8267 69.0565L94.4125 67.6423ZM90.1177 67.2134C90.222 67.3151 90.2721 67.4185 90.2947 67.478C90.3169 67.5367 90.3212 67.575 90.3214 67.5771C90.3219 67.5813 90.3203 67.5696 90.321 67.537C90.3217 67.5056 90.3243 67.4629 90.3301 67.4075C90.3549 67.1696 90.4209 66.844 90.5114 66.4309C90.5969 66.0407 90.7022 65.5813 90.7784 65.1503C90.8527 64.7294 90.9157 64.2517 90.8874 63.8234L88.8917 63.9553C88.9034 64.132 88.8776 64.4131 88.8089 64.8022C88.7419 65.1812 88.6497 65.583 88.5577 66.0028C88.4708 66.3997 88.3792 66.8329 88.3409 67.2C88.3219 67.3824 88.3101 67.5977 88.335 67.8098C88.3565 67.9939 88.4245 68.3558 88.7215 68.6454L90.1177 67.2134ZM90.8867 63.965C90.9362 63.3118 90.7702 62.7108 90.3642 62.2268C89.9808 61.7698 89.4588 61.5075 88.9557 61.3486C87.9736 61.0384 86.7053 61.0161 85.5425 61.0447C84.2881 61.0755 83.1701 61.1631 82.1471 61.1541C81.6542 61.1498 81.2564 61.1214 80.9563 61.064C80.6331 61.0021 80.5528 60.9297 80.5654 60.9416L79.1938 62.3972C79.5963 62.7765 80.1294 62.942 80.5801 63.0283C81.054 63.119 81.5905 63.1493 82.1295 63.154C83.1702 63.1632 84.506 63.0708 85.5916 63.0441C86.7688 63.0151 87.7268 63.0578 88.3534 63.2558C88.6547 63.3509 88.7827 63.4535 88.832 63.5122C88.8586 63.5439 88.9079 63.6094 88.8924 63.8138L90.8867 63.965ZM80.3144 60.7689C79.7908 60.516 79.4614 60.083 79.3086 59.4058C79.1473 58.6909 79.1947 57.7253 79.4853 56.5536C80.0648 54.2171 81.5348 51.3665 83.4995 48.7586C85.4647 46.1502 87.8499 43.8841 90.1856 42.6427C92.5193 41.4023 94.5943 41.2731 96.2482 42.4858L97.4309 40.8729C94.9048 39.0207 91.9285 39.4514 89.2469 40.8767C86.5673 42.3009 83.9732 44.8061 81.9021 47.5551C79.8306 50.3048 78.2074 53.3979 77.5441 56.0721C77.2134 57.4056 77.1018 58.7121 77.3577 59.846C77.622 61.0176 78.2858 62.0102 79.4447 62.5699L80.3144 60.7689ZM95.8396 41.6794V41.6894H97.8396V41.6794H95.8396ZM91.271 47.0509C90.9392 46.9182 90.6176 46.9405 90.3808 46.9923C90.1413 47.0448 89.9178 47.1423 89.7233 47.247C89.3347 47.4561 88.9263 47.7683 88.5288 48.1185C87.7256 48.8264 86.8249 49.8177 86.0014 50.8591C85.177 51.9017 84.3998 53.0328 83.857 54.0331C83.5868 54.531 83.3591 55.025 83.2175 55.4773C83.0895 55.8858 82.9712 56.4418 83.1365 56.9621L85.0426 56.3566C85.0729 56.4519 85.0239 56.4011 85.1261 56.075C85.2144 55.7928 85.3774 55.4246 85.6149 54.9869C86.0875 54.116 86.7934 53.082 87.5702 52.0996C88.3479 51.1161 89.1666 50.2223 89.8512 49.619C90.1977 49.3136 90.4752 49.1136 90.6711 49.0081C90.7688 48.9556 90.8121 48.9453 90.8086 48.946C90.8077 48.9462 90.6912 48.9731 90.5282 48.9079L91.271 47.0509ZM83.1365 56.9621C83.4335 57.897 84.3006 58.2854 84.9604 58.4517C85.6615 58.6284 86.4779 58.6507 87.2185 58.6144C87.973 58.5774 88.718 58.4756 89.3078 58.3671C89.6034 58.3127 89.8678 58.2551 90.0818 58.2006C90.2617 58.1547 90.4953 58.0895 90.6668 58.0038L89.7723 56.215C89.8188 56.1917 89.784 56.2125 89.5877 56.2625C89.4255 56.3039 89.2061 56.3522 88.9457 56.4001C88.4236 56.4962 87.7686 56.5851 87.1206 56.6168C86.4587 56.6493 85.8701 56.6185 85.4493 56.5124C84.9873 56.3959 85.0157 56.2717 85.0426 56.3566L83.1365 56.9621ZM90.6668 58.0038C90.8849 57.8947 91.0134 57.7366 91.0667 57.6661C91.1321 57.5798 91.1806 57.4936 91.2149 57.4266C91.284 57.2913 91.3431 57.1385 91.3934 56.992C91.4962 56.693 91.6006 56.3074 91.7005 55.8788C91.9017 55.0158 92.1034 53.8976 92.2454 52.7735C92.3865 51.6569 92.4744 50.4905 92.4322 49.5455C92.4113 49.0788 92.3567 48.6106 92.2341 48.2126C92.1282 47.8686 91.8833 47.2858 91.271 47.0409L90.5282 48.8979C90.2533 48.7879 90.2559 48.5842 90.3227 48.8012C90.3729 48.9642 90.4164 49.2389 90.4342 49.6349C90.4691 50.4151 90.3964 51.4531 90.2612 52.5228C90.127 53.5849 89.9368 54.6349 89.7527 55.4247C89.66 55.8225 89.5733 56.1344 89.502 56.342C89.4653 56.4488 89.4416 56.5016 89.434 56.5164C89.4299 56.5243 89.4416 56.4993 89.4719 56.4592C89.4902 56.4351 89.5855 56.3084 89.7723 56.215L90.6668 58.0038ZM89.8996 47.9694V47.9794H91.8996V47.9694H89.8996ZM67.0749 67.42C65.1888 67.4854 63.4725 66.1688 62.123 63.6649C60.7894 61.1907 59.9662 57.7972 59.8136 54.3477C59.6608 50.8934 60.1857 47.5079 61.428 45.0286C62.6528 42.5841 64.5103 41.1094 67.1096 41.1094V39.1094C63.5488 39.1094 61.1013 41.2159 59.6399 44.1327C58.1959 47.0146 57.6534 50.7703 57.8155 54.4361C57.9779 58.1065 58.8522 61.8118 60.3624 64.6138C61.8566 67.3862 64.1304 69.5233 67.1442 69.4188L67.0749 67.42ZM67.1096 41.1094C69.4591 41.1094 71.2116 42.5159 72.4066 44.9288C73.6125 47.3638 74.1645 50.6941 74.0675 54.1085C73.9705 57.5183 73.2294 60.8936 71.9604 63.4009C70.6778 65.9353 68.9911 67.3536 67.0749 67.42L67.1442 69.4188C70.133 69.3152 72.325 67.1097 73.7449 64.3041C75.1785 61.4714 75.9636 57.7904 76.0667 54.1653C76.1696 50.5446 75.5954 46.8612 74.1988 44.0412C72.7913 41.1991 70.4651 39.1094 67.1096 39.1094V41.1094ZM66.5705 44.1153C65.6636 44.2148 65.0195 44.8376 64.5883 45.5003C64.1492 46.1751 63.8221 47.0487 63.58 47.9944C63.0933 49.8958 62.8922 52.3237 62.9739 54.668C63.0553 57.0022 63.4206 59.3612 64.1366 61.096C64.4929 61.9593 64.9715 62.7564 65.626 63.296C66.3221 63.87 67.1926 64.1261 68.1566 63.8909L67.6825 61.9479C67.3865 62.0201 67.1536 61.9634 66.8983 61.7529C66.6014 61.5081 66.2808 61.049 65.9853 60.3331C65.3978 58.9095 65.0501 56.8178 64.9727 54.5983C64.8957 52.3888 65.0902 50.1598 65.5175 48.4903C65.7325 47.6505 65.992 47.0101 66.2647 46.5911C66.5452 46.1599 66.738 46.109 66.7886 46.1034L66.5705 44.1153ZM68.1566 63.8909C68.5879 63.7856 68.9048 63.519 69.1245 63.2568C69.3453 62.9935 69.517 62.6778 69.6547 62.3561C69.9302 61.7125 70.1352 60.8881 70.2857 59.9879C70.5888 58.1756 70.7025 55.8609 70.6201 53.5992C70.538 51.3448 70.2584 49.0676 69.7388 47.3484C69.4815 46.497 69.1424 45.7029 68.6806 45.1163C68.2078 44.5156 67.499 44.0147 66.5718 44.1152L66.7873 46.1036C66.8091 46.1012 66.826 46.102 66.8615 46.1207C66.9082 46.1455 66.9947 46.2081 67.109 46.3533C67.3465 46.655 67.5971 47.175 67.8243 47.9269C68.2738 49.4143 68.5424 51.5002 68.6215 53.672C68.7003 55.8366 68.5885 58.0113 68.3131 59.658C68.1744 60.4874 68.0019 61.135 67.8161 61.569C67.7231 61.7861 67.6432 61.9107 67.5918 61.972C67.5394 62.0345 67.5637 61.9769 67.6825 61.9479L68.1566 63.8909Z" fill="#116FAE"/>
<path id="1px-stroke-emphasis" d="M13.9197 15.3996C13.8097 15.8396 14.2397 19.1596 14.6197 20.3496M7.35969 16.5396C7.98969 16.2396 8.34969 15.9696 8.55969 15.9196M5.17969 14.1196C5.73969 14.1096 7.56969 13.6696 7.92969 13.7396M7.71969 10.8496C8.09969 11.1296 8.47969 11.5096 8.68969 11.5896M25.3097 32.2196C23.7697 30.4596 22.6897 29.1296 21.4497 27.2596C20.9497 26.5096 20.1697 26.4796 19.5997 27.1596C19.0297 27.8396 18.6197 28.9696 18.2197 29.8496C17.6097 31.1996 16.2697 31.9996 15.1097 29.4096C13.8697 26.6396 9.45969 14.2196 12.1397 12.0096C14.5597 10.0196 25.8197 16.7696 28.3197 18.5696C30.3797 20.0496 29.4497 21.4596 28.0397 21.8396C27.0097 22.1196 26.3297 22.2096 25.1797 22.6596C24.4297 22.9496 24.3897 23.8996 24.8897 24.4496C26.3397 26.0396 27.5797 27.5096 28.9797 29.2696C29.6597 30.1296 26.0997 33.1396 25.3097 32.2296V32.2196Z" stroke="#116FAE" stroke-linecap="round"/>
<g id="fill-emphasis">
<path d="M20.3992 11.6497C20.3992 11.6497 16.5092 10.2697 16.5692 14.2097C16.6292 18.1497 15.2392 24.4897 16.5692 26.3197C17.8992 28.1497 18.4492 25.3697 20.7292 26.6997C23.0092 28.0297 24.2892 35.2997 27.2292 33.9497C30.1692 32.5997 34.3092 31.9297 30.9392 27.5397C27.5692 23.1497 31.2092 22.4797 31.5492 20.1497C31.8892 17.8197 20.3892 11.6497 20.3892 11.6497H20.3992Z" fill="#116FAE" fill-opacity="0.24"/>
<path d="M53.7792 43.8297C55.2892 44.9797 54.2392 58.0097 54.6592 57.8397C56.6592 57.0197 57.7592 60.6997 57.4492 63.3797C56.9992 67.2897 54.4692 63.6197 54.0292 64.4797C53.5892 65.3397 54.6492 71.0697 54.0492 71.4697C52.5992 72.4497 47.4792 72.6497 46.7092 71.2797C46.4392 70.7897 47.0492 68.4197 46.8792 67.2197C46.8792 63.7797 39.9892 66.3597 38.3292 65.0097C31.3792 62.2697 44.9692 38.3297 53.7692 43.8197L53.7792 43.8297ZM48.3192 50.5397C45.6792 47.7897 40.3492 56.8497 41.0192 58.5097C41.6892 60.1697 46.7192 58.7897 47.1992 58.5097C47.6792 58.2297 49.3292 51.5897 48.3292 50.5397H48.3192Z" fill="#116FAE" fill-opacity="0.24"/>
<path d="M98.7092 43.8297C100.129 45.0897 97.4592 59.3497 97.7892 59.6797C98.1192 60.0097 100.059 59.1597 100.679 59.8897C101.299 60.6197 100.949 64.1197 100.329 64.6497C99.7092 65.1797 97.9392 63.6097 97.4392 64.4397C96.9392 65.2697 97.4992 69.9797 96.9892 70.4897C96.4792 70.9997 91.8892 70.6497 91.2892 70.0697C90.8892 69.6797 91.8392 67.2397 91.7592 66.0297C92.0192 62.5997 83.3092 65.2797 81.7492 63.8097C75.0192 60.5597 90.3492 37.6897 98.7092 43.8197V43.8297ZM92.7692 50.1197C91.4192 49.5797 85.4192 57.0997 85.9592 58.7997C86.4992 60.4997 91.5892 59.4997 92.0892 59.2497C92.5892 58.9997 94.1192 50.6497 92.7692 50.1097V50.1197Z" fill="#116FAE" fill-opacity="0.24"/>
<path d="M68.9692 71.7497C57.0192 71.0697 56.8492 41.7897 69.1692 41.7797C80.5792 41.7797 78.7592 72.3097 68.9692 71.7497ZM68.9792 47.7897C65.1492 48.2097 63.8092 65.3897 68.8592 64.1597C71.3592 63.5497 72.6692 47.3797 68.9792 47.7897Z" fill="#116FAE" fill-opacity="0.24"/>
</g>
</g>
</g>
</svg>
