<svg width="130" height="129" viewBox="0 0 130 129" fill="none" xmlns="http://www.w3.org/2000/svg">
<g id="Pictogram-favorite-user">
<g id="Default">
<path id="dash-stroke-default" d="M66.4668 7.0498H66.4678" stroke="#494A4A" stroke-width="0.001"/>
<path id="2px-stroke-default" d="M73.7177 122.24C45.4677 123.26 14.6777 120 14.6777 112.6C14.6777 104.6 17.5477 91.76 21.6877 88.79C32.3777 81.12 53.3277 84.05 53.3277 65.1M76.6577 64.24C76.6577 66.58 77.0877 76.43 83.9277 80.14M65.0277 69.21C75.6877 69.21 87.4077 57.03 87.4077 33.44C87.4077 15.44 78.8877 6.73999 65.0277 6.73999C51.1677 6.73999 42.6477 15.43 42.6477 33.44C42.6477 57.03 54.3677 69.21 65.0277 69.21Z" stroke="#494A4A" stroke-width="2" stroke-miterlimit="10" stroke-linecap="round"/>
<path id="1px-stroke-default" d="M29.0977 90.8198C24.0477 92.4698 23.8977 93.1598 22.1377 99.7398" stroke="#494A4A" stroke-linecap="round" stroke-linejoin="round"/>
<path id="fill-default" d="M91.0974 14.5299C83.6174 2.69992 70.5374 5.63991 62.2074 14.5299C54.4274 22.8299 52.5774 42.1899 57.5374 62.7499C60.4274 74.7099 58.5474 83.6699 47.9774 87.6199C32.2874 93.4799 21.5374 113.44 27.0874 120.06C32.6474 126.68 70.5674 126.03 75.3774 125.17C77.5574 124.78 75.8574 118.08 77.5974 106.5C78.4374 100.88 66.9874 95.6899 67.9574 88.2899C70.4974 85.8699 76.9074 84.4099 80.4574 84.5799C86.6274 84.8699 84.9574 83.3599 87.9574 78.5399C90.3274 74.7399 77.2274 68.9899 82.9574 65.5399C87.7774 62.6399 106.357 38.6699 91.0874 14.5199L91.0974 14.5299Z" fill="#494A4A" fill-opacity="0.08"/>
</g>
<g id="Emphasis">
<path id="2px-stroke-emphasis" d="M97.068 69.5498C99.978 69.5498 104.628 84.6498 106.858 86.0398C109.088 87.4398 123.448 87.6398 123.938 90.1798C124.428 92.7198 113.578 102.12 112.238 104.38C110.908 106.65 116.058 120.44 113.638 121.84C111.218 123.24 99.958 113.08 96.978 113.09C93.998 113.1 82.848 123.22 80.318 121.84C77.788 120.46 82.028 107.1 81.698 103.99C81.368 100.88 69.108 93.6998 70.018 90.1798C70.928 86.6598 85.928 86.8498 87.418 85.9898C88.908 85.1198 94.158 69.5498 97.068 69.5498Z" stroke="#116FAE" stroke-width="2" stroke-linecap="round" stroke-linejoin="round"/>
<path id="1px-stroke-emphasis" d="M94.0684 86.3398C94.6384 84.9298 95.4884 82.9998 96.0484 81.5798" stroke="#116FAE" stroke-linecap="round" stroke-linejoin="round"/>
<path id="fill-emphasis" d="M104.568 73.1499C107.468 73.3499 111.838 86.9999 113.968 88.5499C116.098 90.0999 129.648 92.9999 129.958 95.5699C130.268 98.1399 118.808 106.77 117.318 108.94C115.828 111.11 120.028 125.22 117.518 126.45C115.008 127.68 102.938 120.74 99.9578 120.55C96.9778 120.36 84.3878 124.1 81.9578 122.55C79.5278 121 86.0778 107.68 85.9578 104.55C85.8378 101.42 75.0078 95.3299 76.1578 91.8899C77.3078 88.4399 92.2578 89.6599 93.8078 88.8899C95.3577 88.1299 101.658 72.9499 104.558 73.1499H104.568Z" fill="#116FAE" fill-opacity="0.24"/>
</g>
</g>
</svg>
