<svg width="129" height="129" viewBox="0 0 129 129" fill="none" xmlns="http://www.w3.org/2000/svg">
<g id="Pictogram-statistics">
<g id="Default">
<path id="dash-stroke-default" d="M9.4668 52.2495H9.4678" stroke="#494A4A" stroke-width="0.001"/>
<path id="2px-stroke-default" d="M35.6476 20.3495C36.1999 20.3495 36.6476 19.9018 36.6476 19.3495C36.6476 18.7972 36.1999 18.3495 35.6476 18.3495V20.3495ZM6.56761 18.9795L5.91682 19.7388C5.93703 19.7561 5.95792 19.7726 5.97944 19.7882L6.56761 18.9795ZM6.01761 15.0995L5.15337 14.5964C5.14828 14.6052 5.14333 14.614 5.13851 14.6229L6.01761 15.0995ZM124.348 13.5995L125.11 12.9519C125.093 12.9324 125.076 12.9136 125.058 12.8954L124.348 13.5995ZM124.328 17.6795L123.717 16.8875C123.686 16.9116 123.656 16.9376 123.628 16.9653L124.328 17.6795ZM45.5275 18.1295C44.9752 18.1351 44.5321 18.5874 44.5377 19.1396C44.5433 19.6919 44.9955 20.135 45.5477 20.1294L45.5275 18.1295ZM62.1876 11.9095C62.1876 12.4618 62.6353 12.9095 63.1876 12.9095C63.7399 12.9095 64.1876 12.4618 64.1876 11.9095H62.1876ZM65.7376 11.9184C65.7426 12.4707 66.1943 12.9144 66.7465 12.9095C67.2988 12.9045 67.7425 12.4528 67.7376 11.9006L65.7376 11.9184ZM65.8066 112.695C66.2016 112.309 66.2088 111.675 65.8227 111.281C65.4367 110.886 64.8036 110.878 64.4086 111.264L65.8066 112.695ZM53.0876 119.249L52.3742 118.549C52.3642 118.559 52.3544 118.569 52.3448 118.58L53.0876 119.249ZM65.511 108.03C65.898 107.636 65.8924 107.003 65.4984 106.616C65.1044 106.229 64.4713 106.235 64.0843 106.629L65.511 108.03ZM69.6339 111.262C69.2375 110.877 68.6044 110.887 68.2199 111.283C67.8353 111.68 67.8449 112.313 68.2413 112.697L69.6339 111.262ZM80.9576 119.249L81.7004 118.58C81.6912 118.57 81.6818 118.56 81.6721 118.55L80.9576 119.249ZM69.9622 106.59C69.5758 106.195 68.9426 106.189 68.548 106.575C68.1534 106.961 68.1467 107.594 68.5331 107.989L69.9622 106.59ZM66.4476 107.929C66.4476 107.377 65.9999 106.929 65.4476 106.929C64.8953 106.929 64.4476 107.377 64.4476 107.929H66.4476ZM69.5972 107.902C69.5818 107.349 69.1217 106.914 68.5697 106.93C68.0176 106.945 67.5826 107.405 67.598 107.957L69.5972 107.902ZM65.6342 102.302C65.6798 101.752 65.2705 101.268 64.7201 101.223C64.1697 101.177 63.6866 101.587 63.641 102.137L65.6342 102.302ZM64.6376 106.939L63.641 107.022C63.6487 107.115 63.6694 107.206 63.7025 107.294L64.6376 106.939ZM69.2176 107.229L69.5933 108.156L69.6004 108.153L69.2176 107.229ZM70.4529 102.132C70.3992 101.583 69.9101 101.181 69.3604 101.234C68.8107 101.288 68.4087 101.777 68.4623 102.327L70.4529 102.132ZM43.3676 51.7495L44.367 51.715L44.367 51.7148L43.3676 51.7495ZM33.0176 50.0395L32.0909 49.6637L32.0905 49.6648L33.0176 50.0395ZM32.5476 81.5795L33.5284 81.384L33.5265 81.3752L32.5476 81.5795ZM43.1776 81.5795L44.1647 81.7399L44.1649 81.7384L43.1776 81.5795ZM98.1776 62.7495L99.1772 62.7224L99.1772 62.722L98.1776 62.7495ZM87.8276 60.5995L86.8756 60.2934L86.8752 60.2946L87.8276 60.5995ZM87.3576 81.0495L88.3453 80.8932L88.3447 80.889L87.3576 81.0495ZM97.9876 81.0495L98.9793 81.1784L98.9795 81.1764L97.9876 81.0495ZM49.8276 68.7495L48.83 68.6803L48.8297 68.6851L49.8276 68.7495ZM59.1976 67.9595L59.9824 67.3397L59.979 67.3355L59.1976 67.9595ZM49.9676 82.5895L49.0114 82.8822C49.0133 82.8884 49.0153 82.8946 49.0173 82.9008L49.9676 82.5895ZM119.449 17.9832C120.189 34.9009 120.855 78.7622 120.191 87.4129L122.185 87.5661C122.86 78.7768 122.186 34.7981 121.447 17.8958L119.449 17.9832ZM120.191 87.4129C119.867 91.6221 118.653 94.5025 116.56 96.4226C114.452 98.3563 111.298 99.4595 106.789 99.7719L106.927 101.767C111.657 101.439 115.333 100.263 117.912 97.8964C120.507 95.5165 121.838 92.0769 122.185 87.5661L120.191 87.4129ZM106.789 99.7719C102.219 100.088 83.9194 100.1 65.5528 99.9133C47.1809 99.7268 28.9008 99.3438 24.3582 98.8846L24.157 100.874C28.8145 101.345 47.2144 101.727 65.5325 101.913C83.8558 102.099 102.257 102.091 106.927 101.767L106.789 99.7719ZM24.3582 98.8846C19.891 98.433 16.814 97.1569 14.7481 95.0933C12.6832 93.0306 11.4945 90.0475 11.0827 85.9007L9.09251 86.0983C9.53074 90.5115 10.8271 94.0034 13.3346 96.5082C15.8412 99.0121 19.4243 100.396 24.157 100.874L24.3582 98.8846ZM11.0827 85.9007C10.664 81.6838 10.5401 68.4238 10.5526 54.4729C10.5651 40.5551 10.7126 26.0406 10.8275 19.3767L8.82776 19.3423C8.71266 26.0184 8.56512 40.5439 8.55261 54.4711C8.54014 68.3652 8.66124 81.7552 9.09251 86.0983L11.0827 85.9007ZM35.6476 18.3495C31.096 18.3495 23.9119 18.317 17.8254 18.2546C14.7816 18.2233 12.0159 18.1846 9.99211 18.1388C8.97915 18.1159 8.15832 18.0913 7.58342 18.0653C7.29429 18.0522 7.07799 18.0393 6.93427 18.0269C6.86036 18.0205 6.82121 18.0156 6.807 18.0134C6.79852 18.0121 6.81484 18.0142 6.84459 18.0218C6.85954 18.0256 6.8916 18.0342 6.93269 18.0498C6.96403 18.0616 7.05447 18.0971 7.15579 18.1708L5.97944 19.7882C6.155 19.9159 6.33546 19.9559 6.34964 19.9596C6.40833 19.9746 6.46279 19.984 6.50142 19.9899C6.58145 20.0023 6.67243 20.0117 6.76272 20.0195C6.94739 20.0354 7.19579 20.0498 7.49306 20.0633C8.09097 20.0903 8.92983 20.1153 9.94687 20.1383C11.9831 20.1844 14.7586 20.2232 17.8049 20.2544C23.8983 20.317 31.0892 20.3495 35.6476 20.3495V18.3495ZM7.21841 18.2202C7.06457 18.0884 6.85024 17.6562 6.77724 16.9547C6.74441 16.6392 6.74742 16.3278 6.77875 16.0643C6.812 15.7846 6.86897 15.6273 6.89672 15.5761L5.13851 14.6229C4.94126 14.9867 4.84073 15.4244 4.79273 15.8282C4.74281 16.2481 4.74082 16.7085 4.78799 17.1618C4.87499 17.9978 5.16066 19.0906 5.91682 19.7388L7.21841 18.2202ZM6.88186 15.6026C6.78782 15.7641 6.67789 15.8194 6.70151 15.8053C6.70939 15.8007 6.7544 15.7766 6.85755 15.7403C7.06265 15.6681 7.38436 15.586 7.83977 15.5004C8.74344 15.3305 10.0439 15.1699 11.7035 15.0208C15.0151 14.7233 19.6583 14.48 25.1999 14.2853C36.2779 13.896 50.8865 13.7026 65.4787 13.6507C80.0693 13.5989 94.6346 13.6886 105.623 13.8648C111.118 13.953 115.714 14.0627 118.969 14.187C120.598 14.2492 121.882 14.3147 122.772 14.3822C123.219 14.4161 123.55 14.4494 123.77 14.4806C123.883 14.4965 123.944 14.5089 123.969 14.515C123.982 14.5183 123.964 14.5148 123.929 14.5008C123.92 14.4972 123.778 14.445 123.638 14.3036L125.058 12.8954C124.899 12.7355 124.725 12.665 124.67 12.6431C124.589 12.6108 124.511 12.589 124.451 12.5741C124.33 12.5439 124.191 12.5202 124.051 12.5004C123.766 12.46 123.384 12.4229 122.923 12.3879C121.995 12.3176 120.682 12.251 119.045 12.1885C115.768 12.0634 111.156 11.9533 105.655 11.8651C94.6519 11.6886 80.0734 11.5989 65.4716 11.6508C50.8712 11.7026 36.2385 11.8961 25.1297 12.2865C19.5778 12.4816 14.8913 12.7264 11.5245 13.0288C9.84489 13.1797 8.46903 13.3471 7.47025 13.5348C6.97444 13.6281 6.53839 13.7323 6.19307 13.8539C6.021 13.9145 5.84264 13.9894 5.6807 14.0855C5.53452 14.1722 5.30835 14.3302 5.15337 14.5964L6.88186 15.6026ZM123.586 14.2471C123.626 14.2949 123.72 14.4519 123.806 14.7489C123.887 15.0279 123.941 15.3619 123.953 15.6982C123.966 16.0379 123.934 16.3414 123.869 16.571C123.801 16.8115 123.724 16.8823 123.717 16.8875L124.938 18.4715C125.411 18.1067 125.662 17.5825 125.794 17.1137C125.929 16.6339 125.97 16.1136 125.952 15.6258C125.934 15.1346 125.856 14.6373 125.727 14.192C125.603 13.7646 125.409 13.3041 125.11 12.9519L123.586 14.2471ZM123.628 16.9653C123.767 16.8287 123.909 16.7734 123.933 16.7639C123.98 16.7449 124.014 16.736 124.022 16.7339C124.04 16.7293 124.037 16.7312 123.999 16.7369C123.927 16.7477 123.805 16.7613 123.624 16.7765C123.265 16.8066 122.738 16.8381 122.048 16.8705C120.672 16.935 118.691 17.0012 116.222 17.0681C111.286 17.2019 104.42 17.3378 96.5785 17.4684C80.8964 17.7296 61.3262 17.9696 45.5275 18.1295L45.5477 20.1294C61.349 19.9694 80.9238 19.7294 96.6118 19.4681C104.455 19.3375 111.33 19.2015 116.277 19.0674C118.749 19.0004 120.745 18.9338 122.141 18.8683C122.838 18.8356 123.395 18.8028 123.791 18.7695C123.987 18.7531 124.159 18.7352 124.296 18.7148C124.361 18.7049 124.441 18.6913 124.519 18.6712C124.557 18.6614 124.616 18.6448 124.682 18.6181C124.725 18.6009 124.88 18.538 125.028 18.3937L123.628 16.9653ZM64.1876 11.9095C64.1876 11.2463 64.4305 10.2058 64.7754 9.30426C64.945 8.86069 65.119 8.50515 65.2637 8.28115C65.2982 8.22771 65.3272 8.18791 65.3497 8.15981C65.373 8.13075 65.3835 8.12167 65.3798 8.12496C65.3781 8.12648 65.3449 8.15689 65.2791 8.18871C65.2113 8.2215 65.0861 8.26628 64.92 8.25837L65.0152 6.26063C64.5388 6.23795 64.1986 6.49709 64.0407 6.63943C63.8573 6.80479 63.7056 7.00728 63.5837 7.19597C63.3356 7.5801 63.1039 8.07581 62.9074 8.58974C62.5197 9.60319 62.1876 10.9027 62.1876 11.9095H64.1876ZM64.92 8.25837C64.806 8.25294 64.7217 8.2228 64.6744 8.2011C64.6275 8.1796 64.6033 8.16031 64.6013 8.15876C64.6008 8.1583 64.6372 8.18911 64.703 8.27811C64.8328 8.45371 64.9956 8.74466 65.1565 9.13597C65.4776 9.91724 65.729 10.9462 65.7376 11.9184L67.7376 11.9006C67.7262 10.6328 67.4076 9.35176 67.0063 8.37553C66.8059 7.88809 66.5693 7.43841 66.3113 7.08933C66.1832 6.91598 66.0286 6.73844 65.8461 6.59332C65.6762 6.4582 65.3909 6.27852 65.0152 6.26063L64.92 8.25837ZM64.4086 111.264C63.7533 111.905 61.2621 114.274 58.7694 116.544C57.5228 117.679 56.284 118.781 55.2781 119.628C54.7743 120.052 54.3381 120.404 53.9936 120.661C53.821 120.79 53.6803 120.888 53.5714 120.958C53.4496 121.036 53.4111 121.049 53.4319 121.041L54.1233 122.918C54.4476 122.798 54.8411 122.524 55.19 122.264C55.5793 121.973 56.0491 121.593 56.5659 121.158C57.6012 120.287 58.8624 119.164 60.1159 118.023C62.6231 115.74 65.1319 113.354 65.8066 112.695L64.4086 111.264ZM53.4319 121.041C53.1999 121.127 52.9598 121.166 52.7826 121.16C52.5704 121.152 52.6347 121.095 52.7399 121.22C52.8983 121.409 52.7739 121.538 52.8655 121.292C52.9605 121.037 53.2248 120.591 53.8304 119.919L52.3448 118.58C51.6705 119.328 51.2147 119.994 50.9913 120.594C50.7645 121.203 50.7232 121.929 51.2079 122.506C51.6393 123.02 52.273 123.143 52.7148 123.158C53.1917 123.175 53.6903 123.077 54.1233 122.918L53.4319 121.041ZM53.801 119.95L65.511 108.03L64.0843 106.629L52.3742 118.549L53.801 119.95ZM68.2413 112.697C68.9187 113.354 71.4264 115.739 73.9344 118.023C75.1878 119.164 76.4491 120.287 77.4852 121.158C78.0024 121.593 78.4728 121.974 78.8631 122.264C79.213 122.525 79.6079 122.799 79.9342 122.919L80.621 121.04C80.6415 121.048 80.6027 121.034 80.4808 120.957C80.3717 120.888 80.2308 120.789 80.058 120.661C79.7131 120.404 79.2766 120.052 78.7725 119.628C77.7662 118.781 76.5274 117.679 75.2809 116.544C72.7888 114.275 70.2965 111.905 69.6339 111.262L68.2413 112.697ZM79.9342 122.919C80.3679 123.077 80.8665 123.175 81.3431 123.158C81.7842 123.143 82.4197 123.02 82.8498 122.502C83.3313 121.921 83.2834 121.195 83.0556 120.591C82.8306 119.993 82.3745 119.328 81.7004 118.58L80.2148 119.919C80.8208 120.591 81.0872 121.039 81.184 121.296C81.2781 121.546 81.1514 121.417 81.3105 121.225C81.418 121.095 81.4873 121.152 81.2752 121.16C81.0987 121.166 80.8574 121.127 80.621 121.04L79.9342 122.919ZM81.6721 118.55L69.9622 106.59L68.5331 107.989L80.2431 119.949L81.6721 118.55ZM64.4476 107.929C64.4476 111.366 64.4321 115.607 64.6497 118.986C64.758 120.669 64.927 122.195 65.2018 123.32C65.3372 123.875 65.5154 124.407 65.7704 124.823C66.0155 125.223 66.4801 125.739 67.2276 125.739V123.739C67.5151 123.739 67.5791 123.947 67.4753 123.777C67.3814 123.624 67.2624 123.328 67.1447 122.846C66.9132 121.898 66.7523 120.515 66.6456 118.858C66.4331 115.557 66.4476 111.393 66.4476 107.929H64.4476ZM67.2276 125.739C67.7683 125.739 68.1326 125.421 68.3298 125.172C68.5261 124.924 68.6597 124.626 68.7571 124.352C68.9555 123.793 69.0989 123.055 69.2088 122.248C69.431 120.616 69.5458 118.471 69.6023 116.361C69.659 114.243 69.6576 112.129 69.6423 110.546C69.6346 109.754 69.6233 109.094 69.614 108.632C69.6094 108.4 69.6052 108.218 69.6021 108.094C69.6006 108.032 69.5994 107.984 69.5986 107.952C69.5981 107.935 69.5978 107.923 69.5976 107.915C69.5975 107.91 69.5974 107.907 69.5973 107.905C69.5973 107.904 69.5973 107.903 69.5973 107.903C69.5972 107.902 69.5972 107.902 69.5972 107.902C69.5972 107.902 69.5972 107.902 68.5976 107.929C67.598 107.957 67.598 107.957 67.598 107.958C67.598 107.958 67.598 107.958 67.598 107.958C67.598 107.958 67.5981 107.959 67.5981 107.96C67.5981 107.962 67.5982 107.965 67.5983 107.969C67.5985 107.977 67.5988 107.988 67.5993 108.004C67.6001 108.035 67.6013 108.082 67.6027 108.143C67.6057 108.264 67.6098 108.444 67.6144 108.672C67.6236 109.129 67.6347 109.782 67.6423 110.566C67.6576 112.135 67.6588 114.223 67.603 116.308C67.547 118.401 67.4342 120.458 67.2271 121.978C67.1223 122.747 67.0005 123.322 66.8724 123.683C66.8066 123.868 66.7616 123.931 66.7627 123.929C66.7646 123.927 66.917 123.739 67.2276 123.739V125.739ZM63.641 102.137C63.5065 103.762 63.5065 105.397 63.641 107.022L65.6342 106.857C65.5087 105.342 65.5087 103.817 65.6342 102.302L63.641 102.137ZM63.7025 107.294C63.8552 107.697 64.1721 107.919 64.3688 108.031C64.586 108.153 64.827 108.235 65.0481 108.294C65.4953 108.411 66.032 108.475 66.5577 108.5C67.0905 108.525 67.6535 108.513 68.1668 108.462C68.6612 108.413 69.183 108.323 69.5933 108.156L68.8419 106.303C68.6972 106.361 68.4003 106.429 67.9709 106.472C67.5604 106.512 67.0948 106.523 66.6525 106.502C66.2032 106.481 65.8187 106.428 65.5572 106.359C65.4239 106.324 65.3636 106.295 65.3525 106.289C65.3209 106.271 65.4826 106.347 65.5728 106.585L63.7025 107.294ZM69.6004 108.153C70.1181 107.939 70.3081 107.448 70.3735 107.26C70.4631 107.002 70.5129 106.71 70.5439 106.44C70.6071 105.889 70.6139 105.218 70.5999 104.598C70.5856 103.969 70.5488 103.354 70.516 102.898C70.4995 102.669 70.4838 102.48 70.4723 102.346C70.4665 102.279 70.4617 102.227 70.4584 102.19C70.4567 102.172 70.4553 102.158 70.4544 102.148C70.4539 102.143 70.4536 102.14 70.4533 102.137C70.4532 102.136 70.4531 102.135 70.453 102.134C70.453 102.133 70.4529 102.133 70.4529 102.133C70.4529 102.133 70.4529 102.133 70.4529 102.132C70.4529 102.132 70.4529 102.132 69.4576 102.229C68.4623 102.327 68.4623 102.327 68.4623 102.327C68.4623 102.327 68.4623 102.327 68.4623 102.327C68.4623 102.327 68.4624 102.327 68.4624 102.327C68.4624 102.327 68.4625 102.328 68.4626 102.329C68.4627 102.331 68.463 102.334 68.4634 102.338C68.4642 102.346 68.4653 102.358 68.4669 102.375C68.4699 102.407 68.4743 102.456 68.4797 102.519C68.4906 102.644 68.5054 102.824 68.5211 103.042C68.5526 103.479 68.5871 104.059 68.6004 104.643C68.6138 105.237 68.6044 105.798 68.5569 106.212C68.5327 106.424 68.5035 106.548 68.4843 106.603C68.4409 106.728 68.4921 106.448 68.8349 106.306L69.6004 108.153ZM44.367 51.7148C44.3188 50.3282 43.4385 49.3139 42.3986 48.6517C41.3574 47.9888 40.0278 47.5844 38.7188 47.4096C37.4067 47.2343 36.0266 47.2778 34.8589 47.5863C33.7339 47.8835 32.5635 48.4982 32.0909 49.6637L33.9443 50.4153C34.0617 50.1258 34.4639 49.7593 35.3698 49.5199C36.233 49.2919 37.3423 49.2435 38.454 49.3919C39.5687 49.5408 40.5972 49.8758 41.3245 50.3388C42.0529 50.8026 42.3514 51.3008 42.3682 51.7842L44.367 51.7148ZM32.0905 49.6648C31.8625 50.229 31.7082 51.1255 31.5891 52.1481C31.4656 53.208 31.3684 54.5202 31.293 55.9894C31.1421 58.9297 31.0764 62.5463 31.0701 66.1265C31.0638 69.7083 31.1171 73.2646 31.2053 76.0878C31.2494 77.4988 31.3023 78.7316 31.3613 79.6952C31.4185 80.6299 31.485 81.3826 31.5687 81.7838L33.5265 81.3752C33.4777 81.1414 33.4167 80.5382 33.3576 79.5729C33.3002 78.6365 33.248 77.4253 33.2043 76.0253C33.1169 73.2262 33.0639 69.692 33.0701 66.13C33.0763 62.5664 33.1419 58.9862 33.2904 56.0918C33.3647 54.6436 33.4592 53.3791 33.5756 52.3796C33.6964 51.3428 33.8303 50.6975 33.9448 50.4142L32.0905 49.6648ZM31.5669 81.7749C31.822 83.055 33.0352 83.7171 34.0837 84.0544C35.2145 84.4182 36.6075 84.5601 37.9465 84.533C39.2874 84.506 40.6595 84.3077 41.7544 83.9334C42.2998 83.7469 42.824 83.5008 43.2452 83.1736C43.6649 82.8477 44.0612 82.3768 44.1647 81.7399L42.1906 81.4191C42.1966 81.3822 42.2051 81.4491 42.0185 81.594C41.8335 81.7377 41.5331 81.8954 41.1074 82.0409C40.2601 82.3306 39.104 82.5093 37.9062 82.5335C36.7065 82.5577 35.5501 82.4252 34.6962 82.1505C33.76 81.8494 33.5532 81.509 33.5283 81.3841L31.5669 81.7749ZM44.1649 81.7384C44.6959 78.4389 44.7849 72.1974 44.7263 66.2122C44.6674 60.193 44.457 54.3236 44.367 51.715L42.3682 51.784C42.4583 54.3954 42.6678 60.241 42.7264 66.2318C42.7854 72.2566 42.6893 78.3201 42.1903 81.4206L44.1649 81.7384ZM99.1772 62.722C99.135 61.188 98.3588 59.978 97.2974 59.1263C96.2506 58.2863 94.9009 57.7665 93.5617 57.542C92.223 57.3176 90.8083 57.3738 89.6075 57.7749C88.4084 58.1755 87.3008 58.9711 86.8756 60.2934L88.7796 60.9056C88.9445 60.3929 89.4093 59.9498 90.2412 59.6719C91.0713 59.3946 92.146 59.3326 93.2311 59.5145C94.3156 59.6963 95.324 60.1071 96.0457 60.6862C96.7527 61.2535 97.1552 61.951 97.178 62.777L99.1772 62.722ZM86.8752 60.2946C86.4958 61.4801 86.2556 63.1856 86.1049 65.0619C85.9525 66.9586 85.8864 69.1027 85.8801 71.204C85.8676 75.384 86.0917 79.4948 86.3706 81.21L88.3447 80.889C88.0935 79.3442 87.8676 75.37 87.8801 71.21C87.8863 69.1413 87.9515 67.0516 88.0985 65.2221C88.2471 63.3721 88.4745 61.8589 88.78 60.9044L86.8752 60.2946ZM86.3699 81.2057C86.5894 82.5933 87.6868 83.4327 88.8259 83.8922C89.9831 84.359 91.4039 84.5378 92.7629 84.5016C94.1242 84.4655 95.5198 84.2111 96.6356 83.7317C97.6894 83.279 98.8103 82.4781 98.9793 81.1784L96.996 80.9206C96.9699 81.1209 96.7345 81.5125 95.8462 81.8941C95.0198 82.2492 93.8872 82.471 92.7098 82.5023C91.5301 82.5337 90.4015 82.3712 89.5741 82.0374C88.7285 81.6963 88.4058 81.2757 88.3453 80.8932L86.3699 81.2057ZM98.9795 81.1764C100.023 73.0244 99.3549 69.2642 99.1772 62.7224L97.178 62.7766C97.3604 69.4948 98.0126 72.9746 96.9957 80.9226L98.9795 81.1764ZM50.8252 68.8187C50.8111 69.0221 50.6867 69.0623 50.812 68.9705C50.9279 68.8855 51.1489 68.7731 51.5006 68.6589C52.1942 68.4338 53.1723 68.2723 54.224 68.201C55.2699 68.13 56.3272 68.1524 57.1654 68.2654C57.5862 68.3221 57.9224 68.3978 58.1631 68.4819C58.4344 68.5766 58.4608 68.6393 58.4162 68.5835L59.979 67.3355C59.667 66.9447 59.2037 66.7268 58.8223 66.5937C58.4104 66.4498 57.931 66.3505 57.4326 66.2833C56.4324 66.1485 55.2366 66.1277 54.0887 66.2055C52.9467 66.283 51.7904 66.4621 50.8831 66.7566C50.4343 66.9023 49.9882 67.0945 49.6296 67.3573C49.2804 67.6133 48.8741 68.0444 48.83 68.6803L50.8252 68.8187ZM58.4129 68.5793C58.4012 68.5646 58.429 68.5971 58.4764 68.7225C58.5206 68.8395 58.5682 69.0005 58.6158 69.21C58.7112 69.6296 58.7924 70.1798 58.8575 70.8334C58.9875 72.1371 59.0452 73.7649 59.0501 75.4C59.0551 77.0321 59.0074 78.6504 58.9307 79.9286C58.8922 80.5686 58.847 81.1145 58.7987 81.5299C58.7746 81.7381 58.7506 81.9045 58.7281 82.029C58.7029 82.1689 58.6878 82.2073 58.6949 82.1889L60.5604 82.9101C60.6714 82.6227 60.7368 82.1791 60.7854 81.7607C60.8395 81.2953 60.8874 80.7094 60.9271 80.0485C61.0065 78.7249 61.0552 77.0645 61.0501 75.394C61.0451 73.7266 60.9865 72.0281 60.8477 70.635C60.7784 69.9402 60.6871 69.2992 60.5661 68.7667C60.4553 68.2793 60.2879 67.7266 59.9824 67.3397L58.4129 68.5793ZM58.6949 82.1889C58.7291 82.1003 58.7733 82.0391 58.8044 82.0032C58.8348 81.968 58.8578 81.9512 58.8609 81.9489C58.8633 81.9472 58.8286 81.9713 58.7316 82.0092C58.5379 82.085 58.2309 82.1646 57.8126 82.2346C56.9858 82.3729 55.8862 82.4477 54.7649 82.4508C53.6435 82.4538 52.5489 82.3849 51.7323 82.2528C51.3185 82.1859 51.0196 82.1094 50.8358 82.0378C50.7433 82.0018 50.7174 81.9812 50.7287 81.9895C50.7336 81.9932 50.8529 82.0796 50.9179 82.2782L49.0173 82.9008C49.1298 83.2444 49.3625 83.4666 49.5387 83.597C49.7211 83.7321 49.9241 83.8291 50.1101 83.9015C50.4831 84.0467 50.9392 84.1505 51.4129 84.2271C52.3713 84.3822 53.5817 84.454 54.7703 84.4508C55.9591 84.4475 57.1744 84.3692 58.1426 84.2072C58.6218 84.127 59.0823 84.0197 59.4605 83.8717C59.6494 83.7978 59.8518 83.7007 60.0341 83.5687C60.21 83.4412 60.4362 83.2312 60.5604 82.9101L58.6949 82.1889ZM50.9238 82.2968C50.7362 81.684 50.6091 80.708 50.5421 79.4809C50.4761 78.2741 50.4714 76.8959 50.4999 75.5177C50.5569 72.7614 50.7452 70.0597 50.8255 68.8139L48.8297 68.6851C48.7501 69.9193 48.5584 72.6676 48.5003 75.4763C48.4713 76.8806 48.4753 78.3137 48.545 79.59C48.6136 80.846 48.749 82.025 49.0114 82.8822L50.9238 82.2968Z" fill="#494A4A"/>
<path id="1px-stroke-default" d="M14.5771 84.1496C15.2071 89.7096 15.7171 92.2196 18.9971 93.3996M120.447 8.40959L121.927 1.57959M115.517 5.03959L115.957 8.52959M125.647 7.57959L124.187 9.79959M117.557 45.5896C117.857 55.8396 117.937 65.9196 117.847 75.6196M32.3771 43.7996L30.8172 38.7796M26.9871 43.0396L29.6771 45.5896M35.9071 40.9396L35.2171 43.0296" stroke="#494A4A" stroke-linecap="round" stroke-linejoin="round"/>
<g id="fill-default">
<path d="M51.1274 71.3195C51.2574 69.7095 59.9874 69.3195 61.1274 70.5895C62.4574 72.0495 62.1274 83.1095 61.5874 84.2295C61.0474 85.3495 51.6874 85.2295 51.3174 84.2295C50.3174 81.4795 50.9674 73.5995 51.1274 71.3195Z" fill="#494A4A" fill-opacity="0.08"/>
<path d="M34.7574 53.8795C34.8574 50.4595 41.8974 49.6595 42.8074 52.3195C43.8774 55.4195 43.5774 78.8095 43.1774 81.1795C42.7474 83.7495 35.1774 83.3695 34.9074 81.1795C34.1074 75.3595 34.6174 58.7495 34.7574 53.8795Z" fill="#494A4A" fill-opacity="0.08"/>
<path d="M88.6174 64.6495C88.7274 62.1295 96.6874 61.5495 97.7174 63.4995C98.9274 65.7795 98.5874 82.9495 98.1374 84.6795C97.6474 86.5695 89.1374 86.2895 88.7774 84.6795C87.8774 80.4095 88.4574 68.1795 88.6174 64.6495Z" fill="#494A4A" fill-opacity="0.08"/>
<path d="M105.187 124.17C93.2374 125.31 72.3274 125.4 63.1574 125.37C48.4374 125.32 35.9374 123.81 28.8674 123.2C21.7974 122.59 56.6574 119.42 65.4574 120.01C66.2774 124.99 66.8274 124.31 68.6574 120.18C69.0874 119.24 81.2774 118.69 89.3674 120.26C97.4574 121.83 112.857 123.45 105.187 124.17Z" fill="#494A4A" fill-opacity="0.08"/>
</g>
</g>
<g id="Emphasis">
<path id="2px-stroke-emphasis" d="M79.1876 48.3494C79.0576 44.2694 70.0176 43.3494 68.8376 46.4894C67.4676 50.1794 67.8376 78.0194 68.3676 80.8394C68.9276 83.8994 78.6076 83.4494 78.9976 80.8394C80.0276 73.9094 79.3676 54.0794 79.1876 48.3494Z" stroke="#116FAE" stroke-width="2" stroke-linecap="round" stroke-linejoin="round"/>
<path id="1px-stroke-emphasis" d="M79.1876 48.3494C79.0576 44.2694 70.0176 43.3494 68.8376 46.4894C67.4676 50.1794 67.8376 78.0194 68.3676 80.8394C68.9276 83.8994 78.6076 83.4494 78.9976 80.8394C80.0276 73.9094 79.3676 54.0794 79.1876 48.3494Z" stroke="#116FAE" stroke-width="2" stroke-linecap="round" stroke-linejoin="round"/>
<path id="fill-emphasis" d="M70.5276 53.7492C70.6476 50.4792 78.8276 49.7492 79.8976 52.2592C81.1376 55.2592 80.7876 77.5892 80.3276 79.8492C79.8276 82.2992 71.0476 81.9392 70.6976 79.8492C69.7676 74.2292 70.3676 58.3092 70.5276 53.7492Z" fill="#116FAE" fill-opacity="0.24"/>
</g>
</g>
</svg>
