<svg width="129" height="129" viewBox="0 0 129 129" fill="none" xmlns="http://www.w3.org/2000/svg">
<g id="Pictogram-space-location">
<g id="Emphasis">
<g id="2px-stroke-emphasis">
<path d="M71.6025 11.1495C71.6025 18.3795 64.2925 35.7495 62.1025 35.7495C59.9125 35.7495 52.6025 18.3895 52.6025 11.1495C52.6025 5.95951 56.8525 1.74951 62.1025 1.74951C67.3525 1.74951 71.6025 5.95951 71.6025 11.1495Z" stroke="#116FAE" stroke-width="2" stroke-linecap="round" stroke-linejoin="round"/>
<path d="M62.1025 16.7495C65.1401 16.7495 67.6025 14.2871 67.6025 11.2495C67.6025 8.21195 65.1401 5.74951 62.1025 5.74951C59.065 5.74951 56.6025 8.21195 56.6025 11.2495C56.6025 14.2871 59.065 16.7495 62.1025 16.7495Z" stroke="#116FAE" stroke-width="2" stroke-linecap="round" stroke-linejoin="round"/>
</g>
<g id="1px-stroke-emphasis">
<path d="M71.6025 11.1495C71.6025 18.3795 64.2925 35.7495 62.1025 35.7495C59.9125 35.7495 52.6025 18.3895 52.6025 11.1495C52.6025 5.95951 56.8525 1.74951 62.1025 1.74951C67.3525 1.74951 71.6025 5.95951 71.6025 11.1495Z" stroke="#116FAE" stroke-width="2" stroke-linecap="round" stroke-linejoin="round"/>
<path d="M62.1025 16.7495C65.1401 16.7495 67.6025 14.2871 67.6025 11.2495C67.6025 8.21195 65.1401 5.74951 62.1025 5.74951C59.065 5.74951 56.6025 8.21195 56.6025 11.2495C56.6025 14.2871 59.065 16.7495 62.1025 16.7495Z" stroke="#116FAE" stroke-width="2" stroke-linecap="round" stroke-linejoin="round"/>
</g>
<path id="fill-emphasis" d="M72.8822 9.50928C72.8822 15.7293 66.4821 22.5993 58.4521 19.2393C59.0921 22.2693 62.8622 34.4293 63.6021 34.4793C69.0721 34.7993 76.3522 19.7693 72.8822 9.51928V9.50928Z" fill="#116FAE" fill-opacity="0.24"/>
</g>
<g id="Default">
<path id="dash-stroke-default" d="M26.9707 58.0166H26.9717" stroke="#494A4A" stroke-width="0.001"/>
<path id="2px-stroke-default" d="M105.603 71.6194C117.423 71.6194 127.163 74.6794 127.463 77.4494C128.083 83.1394 100.363 90.7994 65.5532 94.5694C30.7532 98.3394 2.09323 96.7794 1.47323 91.0894C1.18323 88.3794 8.43323 83.3894 20.5032 81.0394M105.103 82.9294C105.103 97.4994 97.5932 110.309 86.2432 117.719C85.7432 118.049 85.1232 119.249 85.0032 119.839C84.0832 124.349 70.6732 127.609 66.1632 125.239C65.4932 124.879 64.3832 124.439 63.6032 124.439C54.0732 124.439 45.2932 121.229 38.2832 115.829C37.7932 115.449 36.1232 115.939 35.5032 115.849C33.3232 115.549 31.7332 113.809 31.5732 112.159C31.5332 111.699 32.1232 109.989 31.8232 109.629C25.7532 102.409 22.0932 93.0994 22.0932 82.9294C22.0932 75.4694 24.0632 68.4794 27.5032 62.4294C28.0932 61.3994 27.2832 59.7694 27.1932 58.5894C26.8932 54.5994 31.7832 49.1294 35.5132 48.9394C37.0932 48.8594 38.9832 49.4794 40.0932 48.7094C46.7732 44.1094 54.8732 41.4194 63.5932 41.4194C86.5132 41.4194 105.093 59.9994 105.093 82.9194L105.103 82.9294Z" stroke="#494A4A" stroke-width="2" stroke-linecap="round" stroke-linejoin="round"/>
<path id="1px-stroke-default" d="M105.603 71.6194C117.423 71.6194 127.163 74.6794 127.463 77.4494C128.083 83.1394 100.363 90.7994 65.5532 94.5694C30.7532 98.3394 2.09323 96.7794 1.47323 91.0894C1.18323 88.3794 8.43323 83.3894 20.5032 81.0394M105.103 82.9294C105.103 97.4994 97.5932 110.309 86.2432 117.719C85.7432 118.049 85.1232 119.249 85.0032 119.839C84.0832 124.349 70.6732 127.609 66.1632 125.239C65.4932 124.879 64.3832 124.439 63.6032 124.439C54.0732 124.439 45.2932 121.229 38.2832 115.829C37.7932 115.449 36.1232 115.939 35.5032 115.849C33.3232 115.549 31.7332 113.809 31.5732 112.159C31.5332 111.699 32.1232 109.989 31.8232 109.629C25.7532 102.409 22.0932 93.0994 22.0932 82.9294C22.0932 75.4694 24.0632 68.4794 27.5032 62.4294C28.0932 61.3994 27.2832 59.7694 27.1932 58.5894C26.8932 54.5994 31.7832 49.1294 35.5132 48.9394C37.0932 48.8594 38.9832 49.4794 40.0932 48.7094C46.7732 44.1094 54.8732 41.4194 63.5932 41.4194C86.5132 41.4194 105.093 59.9994 105.093 82.9194L105.103 82.9294Z" stroke="#494A4A" stroke-width="2" stroke-linecap="round" stroke-linejoin="round"/>
<g id="fill-default">
<path d="M35.3372 57.3098C37.1957 55.186 37.9073 52.7685 36.9264 51.9102C35.9456 51.0518 33.6438 52.0776 31.7852 54.2014C29.9267 56.3252 29.2151 58.7426 30.196 59.601C31.1768 60.4594 33.4786 59.4336 35.3372 57.3098Z" fill="#494A4A" fill-opacity="0.08"/>
<path d="M36.1057 113.449C36.344 113.181 36.035 112.517 35.4155 111.967C34.796 111.417 34.1006 111.189 33.8623 111.458C33.624 111.726 33.9329 112.39 34.5524 112.94C35.1719 113.49 35.8673 113.718 36.1057 113.449Z" fill="#494A4A" fill-opacity="0.08"/>
<path d="M12.7129 11.5495C13.2429 12.9795 13.7829 14.4495 13.8629 15.9495C14.0929 20.2095 10.8929 23.1195 7.82285 24.0095C7.06285 24.2295 6.31285 24.3395 5.60285 24.3395C4.05285 24.3395 2.65285 23.8195 1.61285 22.8695C2.14285 25.0695 3.08285 27.0995 4.36285 28.8895C8.96285 31.7795 12.3929 27.8095 16.3529 23.2095C18.4329 20.7895 20.5829 18.2895 23.0829 16.6295C25.7329 14.8595 28.8129 14.7495 31.7629 16.3295C33.1829 17.0895 34.4129 18.1795 35.3529 19.2995C34.3929 16.1995 32.3729 13.3595 29.9029 11.9495C28.4029 11.0995 26.0729 10.3995 23.5029 11.9295C21.9229 12.8695 20.3029 12.8795 18.9429 11.9695C17.2929 10.8495 16.4129 8.58951 16.7629 6.34951C17.1029 4.18951 18.5129 2.44951 20.7029 1.38951C20.0129 1.30951 19.3229 1.24951 18.6129 1.24951C16.6129 1.24951 14.7029 1.59951 12.9229 2.21951C10.5929 5.79951 11.6729 8.71951 12.7229 11.5595L12.7129 11.5495Z" fill="#494A4A" fill-opacity="0.08"/>
<path d="M31.2829 17.2095C29.4429 16.2195 26.6129 15.4695 23.6329 17.4595C21.2529 19.0495 19.1429 21.4995 17.1129 23.8595C14.1029 27.3495 11.2129 30.6995 7.78285 30.8895C9.98285 32.3995 12.2729 33.0795 14.6029 32.8695C19.2529 32.4695 23.1429 28.8495 25.5929 25.8795C28.8029 21.9795 32.7029 19.7495 34.9729 20.4295C34.1229 19.2795 32.8529 18.0495 31.2929 17.2195L31.2829 17.2095Z" fill="#494A4A" fill-opacity="0.08"/>
<path d="M22.5429 1.72951C18.8529 2.80951 17.9529 5.17951 17.7529 6.49951C17.4629 8.33951 18.1829 10.2395 19.5029 11.1395C20.5229 11.8295 21.7529 11.7995 22.9929 11.0695C25.3229 9.68951 27.9529 9.68951 30.3929 11.0895C32.9229 12.5295 34.9829 15.2495 36.0829 18.3095C35.8729 10.2095 30.1829 3.48951 22.5629 1.72951L22.5429 1.73951V1.72951Z" fill="#494A4A" fill-opacity="0.08"/>
<path d="M34.9529 21.4895C33.6628 20.7895 29.9629 22.1495 26.3629 26.5195C23.7929 29.6395 19.6829 33.4395 14.6929 33.8695C14.3929 33.8995 14.0829 33.9095 13.7829 33.9095C11.0229 33.9095 8.35285 32.8195 5.82285 30.6595C5.82285 30.6595 5.82285 30.6595 5.81285 30.6595C9.01285 34.0895 13.5529 36.2495 18.6129 36.2495C26.7029 36.2495 33.4929 30.7495 35.4929 23.2895C35.6029 22.5795 35.5528 21.8195 34.9529 21.4895Z" fill="#494A4A" fill-opacity="0.08"/>
<path d="M1.41285 21.0495C2.77285 23.4495 5.47285 23.6595 7.55285 23.0595C10.2529 22.2695 13.0729 19.7295 12.8729 16.0095C12.8029 14.6595 12.3029 13.3195 11.7829 11.8995C10.8029 9.24951 9.71285 6.28951 11.4429 2.79951C5.35285 5.53951 1.10285 11.6395 1.10285 18.7495C1.10285 19.4795 1.16285 20.1895 1.24285 20.8895C1.30285 20.9295 1.36285 20.9795 1.40285 21.0595L1.41285 21.0495Z" fill="#494A4A" fill-opacity="0.08"/>
<path d="M111.973 29.3695L113.083 32.6995C113.173 32.9695 113.383 33.1895 113.663 33.2795L116.993 34.3895C117.823 34.6695 117.823 35.8395 116.993 36.1195L113.663 37.2295C113.393 37.3195 113.173 37.5295 113.083 37.8095L111.973 41.1395C111.693 41.9695 110.523 41.9695 110.243 41.1395L109.133 37.8095C109.043 37.5395 108.833 37.3195 108.553 37.2295L105.223 36.1195C104.393 35.8395 104.393 34.6695 105.223 34.3895L108.553 33.2795C108.823 33.1895 109.043 32.9795 109.133 32.6995L110.243 29.3695C110.523 28.5395 111.693 28.5395 111.973 29.3695Z" fill="#494A4A" fill-opacity="0.08"/>
<path d="M10.1129 107.61L11.5629 112.22C11.6829 112.6 11.9629 112.89 12.3129 113.02L16.6629 114.56C17.7529 114.94 17.7529 116.57 16.6629 116.96L12.3129 118.5C11.9529 118.63 11.6729 118.92 11.5629 119.3L10.1129 123.91C9.75285 125.06 8.21285 125.06 7.85285 123.91L6.40285 119.3C6.28285 118.92 6.00285 118.63 5.65285 118.5L1.30285 116.96C0.212852 116.58 0.212852 114.95 1.30285 114.56L5.65285 113.02C6.01285 112.89 6.29285 112.6 6.40285 112.22L7.85285 107.61C8.21285 106.46 9.75285 106.46 10.1129 107.61Z" fill="#494A4A" fill-opacity="0.08"/>
<path d="M23.2729 119.23L24.1229 121.79C24.1929 122 24.3529 122.16 24.5629 122.23L27.1229 123.08C27.7628 123.29 27.7628 124.2 27.1229 124.41L24.5629 125.26C24.3529 125.33 24.1929 125.49 24.1229 125.7L23.2729 128.26C23.0629 128.9 22.1528 128.9 21.9429 128.26L21.0929 125.7C21.0229 125.49 20.8629 125.33 20.6529 125.26L18.0929 124.41C17.4529 124.2 17.4529 123.29 18.0929 123.08L20.6529 122.23C20.8629 122.16 21.0229 122 21.0929 121.79L21.9429 119.23C22.1528 118.59 23.0629 118.59 23.2729 119.23Z" fill="#494A4A" fill-opacity="0.08"/>
<path d="M97.4328 67.0295C96.9928 66.1295 96.5429 65.2595 96.0829 64.4195C95.8729 64.6895 95.6429 64.9495 95.4029 65.1895C92.2929 68.2995 86.3428 67.3795 82.1029 63.1495C77.9128 58.9595 76.9828 53.0895 79.9629 49.9595C77.3129 49.1695 74.3329 48.7595 70.9629 48.7595C70.9629 48.7595 70.9529 48.7595 70.9429 48.7595C73.1229 49.3295 74.5329 51.2195 74.0829 53.0195C73.6329 54.8295 71.4729 55.8495 69.2529 55.2995C67.0329 54.7495 65.6029 52.8395 66.0629 51.0195C66.3129 49.9995 67.1229 49.2495 68.1529 48.8695C48.2029 50.3095 32.4529 66.9395 32.4529 87.2595C32.4529 107.58 49.7929 127.86 70.9529 125.76C81.0429 124.76 80.6529 120.29 82.1129 117.61C83.3529 115.33 83.9329 112.77 87.3529 110.55C101.453 101.39 102.353 77.2095 97.4129 67.0495L97.4328 67.0295ZM61.0229 115.76C60.3928 117.74 56.7329 118.34 52.8529 117.11C48.9729 115.87 46.3329 113.27 46.9629 111.29C47.5929 109.31 51.2528 108.71 55.1329 109.94C59.0129 111.18 61.6529 113.78 61.0229 115.76ZM91.3529 107.14C90.0629 108.43 88.4128 108.88 87.6729 108.14C86.9329 107.4 87.3829 105.75 88.6729 104.46C89.9629 103.17 91.6129 102.72 92.3529 103.46C93.0928 104.2 92.6429 105.85 91.3529 107.14Z" fill="#494A4A" fill-opacity="0.08"/>
</g>
</g>
</g>
</svg>
