<svg width="129" height="129" viewBox="0 0 129 129" fill="none" xmlns="http://www.w3.org/2000/svg">
<g id="Pictogram-video">
<g id="Default">
<path id="dash-stroke-default" d="M67.46 13.2993H67.461" stroke="#494A4A" stroke-width="0.001"/>
<path id="2px-stroke-default" d="M110.462 104.299C98.9016 112.009 38.0316 108.829 30.2716 108.059C19.2916 106.969 11.0616 100.719 9.90157 87.2193C8.39157 69.5293 8.96157 49.1293 9.90157 35.8093C10.8716 22.1293 17.0716 16.1693 30.2716 14.9693C50.1516 13.1593 77.5316 12.9893 97.8416 14.9693C110.682 16.2193 117.382 22.2793 118.212 35.8093C119.462 56.2993 122.462 96.2993 110.462 104.299Z" stroke="#494A4A" stroke-width="2" stroke-linecap="round" stroke-linejoin="round"/>
<path id="1px-stroke-default" d="M28.5512 23.1694C22.8312 24.4194 19.3612 30.2594 18.4912 34.8194" stroke="#494A4A" stroke-linecap="round" stroke-linejoin="round"/>
<path id="fill-default" d="M119.131 39.2395C118.001 26.0995 118.051 13.0195 106.281 11.7995C87.6512 9.86953 63.4012 15.1195 48.1312 19.4695C19.1712 27.7095 20.0812 47.1495 21.1312 67.2595C22.1812 87.3695 22.4312 113.92 38.8012 114.3C88.6612 115.47 116.851 105.57 118.961 77.5695C119.271 73.4595 120.011 63.5695 120.011 58.5695C120.011 56.3295 119.961 48.8295 119.131 39.2395ZM85.3012 71.9795C80.2412 75.0795 68.2512 80.6395 61.2912 83.1595C50.1512 87.1895 48.7812 80.2795 47.9012 75.6395C47.0212 70.9895 47.2912 50.2695 49.2912 44.2695C50.8712 39.5295 57.2912 34.1395 66.7212 38.1395C72.9012 40.7595 83.1112 48.8095 87.8712 52.8095C92.1012 56.3695 97.2912 64.6295 85.2912 71.9895L85.3012 71.9795Z" fill="#494A4A" fill-opacity="0.08"/>
</g>
<g id="Emphasis">
<path id="2px-stroke-emphasis" d="M51.082 47.1593C50.192 52.7893 49.882 64.3893 50.442 70.1893C51.002 75.9793 54.262 77.7393 59.342 75.9393C67.462 73.0693 75.392 69.2193 80.742 64.9193C84.932 61.5493 83.622 56.9593 79.352 53.9793C74.432 50.5393 66.432 45.1693 59.452 42.7693C54.762 41.1593 51.702 43.2493 51.082 47.1593V47.1593Z" stroke="#116FAE" stroke-width="2" stroke-linecap="round" stroke-linejoin="round"/>
<path id="1px-stroke-emphasis" d="M60.042 69.7291C62.962 68.9491 68.662 66.3691 71.822 64.6191" stroke="#116FAE" stroke-linecap="round" stroke-linejoin="round"/>
<path id="fill-emphasis" d="M52.4121 49.189C51.5221 54.819 51.2121 66.419 51.7721 72.219C52.3321 78.009 59.5921 78.409 64.6821 76.609C82.8121 70.189 88.1021 62.509 80.1321 57.069C75.1721 53.689 67.7721 47.199 60.7821 44.799C56.0921 43.189 53.0321 45.279 52.4121 49.189Z" fill="#116FAE" fill-opacity="0.24"/>
</g>
</g>
</svg>
