<svg width="129" height="129" viewBox="0 0 129 129" fill="none" xmlns="http://www.w3.org/2000/svg">
<g id="Pictogram-user-checked">
<g id="Default">
<path id="dash-stroke-default" d="M63.9922 68.7993H63.9932" stroke="#494A4A" stroke-width="0.001"/>
<path id="2px-stroke-default" d="M73.8743 121.919C70.8343 122.059 67.7643 122.149 64.6943 122.189C39.2643 122.209 12.4043 118.949 12.4043 112.419C12.4043 104.409 15.2843 91.5492 19.4243 88.5692C30.1243 80.8892 51.1043 83.8192 51.1043 64.8492M74.5343 64.8492C74.5343 66.5692 74.7043 68.1092 75.0243 69.4992M62.8243 68.9692C73.4943 68.9692 85.2343 56.7692 85.2343 33.1492C85.2343 15.1192 76.6943 6.40918 62.8243 6.40918C48.9543 6.40918 40.4143 15.1092 40.4143 33.1492C40.4143 56.7792 52.1543 68.9692 62.8243 68.9692Z" stroke="#494A4A" stroke-width="2" stroke-miterlimit="10" stroke-linecap="round"/>
<path id="1px-stroke-default" d="M26.844 90.5991C21.794 92.2491 21.634 92.9391 19.874 99.5391" stroke="#494A4A" stroke-linecap="round" stroke-linejoin="round"/>
<path id="fill-default" d="M92.9243 15.7992C85.4443 3.96916 67.4943 5.28916 59.1543 14.1792C51.3743 22.4792 51.0843 41.8792 56.0443 62.4392C58.9343 74.3992 57.0543 83.3592 46.4843 87.3092C30.7943 93.1692 20.0443 113.129 25.5943 119.749C31.1543 126.369 69.2643 125.189 74.1543 125.079C79.0443 124.969 84.4843 124.399 78.8143 120.739C73.2743 117.159 65.9243 107.959 65.3743 96.1492C64.7243 82.4792 71.8243 75.1292 77.8743 70.8492C79.1243 69.9692 77.9343 66.2192 80.5043 64.8392C85.4643 62.1892 108.194 39.9392 92.9143 15.7892L92.9243 15.7992Z" fill="#494A4A" fill-opacity="0.08"/>
</g>
<g id="Emphasis">
<g id="2px-stroke-emphasis">
<path d="M95.4938 122.189C110.444 122.189 122.564 110.065 122.564 95.1093C122.564 80.1534 110.444 68.0293 95.4938 68.0293C80.5435 68.0293 68.4238 80.1534 68.4238 95.1093C68.4238 110.065 80.5435 122.189 95.4938 122.189Z" stroke="#116FAE" stroke-width="2" stroke-linecap="round" stroke-linejoin="round"/>
<path d="M80.6038 98.3293C79.7238 97.3593 86.1138 93.2293 86.8138 93.7593C90.4538 96.5393 91.7038 100.689 92.7438 100.669C93.9138 100.649 97.1438 89.7693 103.814 82.4193C105.224 80.8693 111.244 85.2493 110.374 86.3993C102.064 97.4093 97.6938 108.779 96.6638 109.649C95.7238 110.449 90.9438 110.299 90.1438 109.839C89.3438 109.379 87.6738 106.089 80.6038 98.3393V98.3293Z" stroke="#116FAE" stroke-width="2" stroke-linecap="round" stroke-linejoin="round"/>
</g>
<path id="1px-stroke-emphasis" d="M115.704 106.179C115.084 108.099 112.704 111.059 111.494 112.029" stroke="#116FAE" stroke-linecap="round" stroke-linejoin="round"/>
<path id="fill-emphasis" d="M99.4943 69.2993C84.5443 69.2993 72.3643 83.2693 72.3643 98.2193C72.3643 113.169 83.5443 126.299 98.4943 126.299C113.444 126.299 126.494 111.259 126.494 96.2993C126.494 81.3393 114.444 69.2993 99.4943 69.2993ZM110.954 86.2293C103.414 98.6793 100.014 111.089 99.0343 112.109C98.1343 113.039 93.1343 113.379 92.2543 112.969C91.3443 112.549 89.2843 109.269 81.1043 101.829C80.0843 100.899 86.3243 95.8893 87.1143 96.3893C91.1943 98.9493 92.9343 103.189 94.0143 103.069C95.2343 102.929 97.4843 91.1393 103.694 82.7193C105.004 80.9393 111.734 84.9393 110.954 86.2393V86.2293Z" fill="#116FAE" fill-opacity="0.24"/>
</g>
</g>
</svg>
