<svg width="129" height="129" viewBox="0 0 129 129" fill="none" xmlns="http://www.w3.org/2000/svg">
<g id="Pictogram-graduate-user">
<g id="Default">
<path id="dash-stroke-default" d="M66.4766 5.59961H66.4776" stroke="#494A4A" stroke-width="0.001"/>
<path id="2px-stroke-default" d="M79.2387 121.84C50.1787 123.25 14.6387 120.09 14.6387 112.36C14.6387 104.63 17.5287 91.4295 21.6787 88.4395C32.4087 80.7395 53.4587 83.6796 53.4587 64.6496M76.8887 63.7796C76.8887 66.1296 77.0687 71.7495 79.2287 74.6295M65.2087 68.7796C75.9087 68.7796 87.6887 56.5496 87.6887 32.8496C87.6887 14.7696 79.1287 6.03955 65.2087 6.03955C51.2887 6.03955 42.7287 14.7696 42.7287 32.8496C42.7287 56.5496 54.4987 68.7796 65.2087 68.7796Z" stroke="#494A4A" stroke-width="2" stroke-miterlimit="10" stroke-linecap="round"/>
<path id="1px-stroke-default" d="M29.1189 90.4795C24.0489 92.1295 23.8889 92.8295 22.1289 99.4395" stroke="#494A4A" stroke-linecap="round" stroke-linejoin="round"/>
<path id="fill-default" d="M91.199 14.4496C83.719 2.61959 70.639 5.55959 62.309 14.4496C54.529 22.7496 52.679 42.1096 57.639 62.6696C60.529 74.6296 58.649 83.5896 48.079 87.5396C32.389 93.3996 21.639 113.36 27.189 119.98C32.749 126.6 70.859 125.42 75.749 125.31C80.639 125.2 84.749 124.53 82.309 118.53C79.869 112.53 75.929 114.26 75.929 105.34C75.929 104.12 77.469 97.2496 73.699 94.9496C69.169 92.1796 61.759 90.1996 64.529 87.9796C67.309 85.7596 79.089 79.5396 83.199 77.7596C87.309 75.9796 77.129 70.9796 82.869 67.5396C87.689 64.6396 106.479 38.5996 91.199 14.4496Z" fill="#494A4A" fill-opacity="0.08"/>
</g>
<g id="Emphasis">
<path id="2px-stroke-emphasis" d="M76.879 98.4094C77.189 103.959 75.559 109.299 77.279 112.879C78.999 116.459 90.429 121.009 96.159 121.009C101.889 121.009 110.869 115.379 112.299 113.119C113.719 110.869 112.209 105.169 112.339 99.5794M121.089 126.359C121.849 126.119 125.339 126.949 125.809 125.839M118.249 126.479C122.579 121.219 118.269 113.109 122.239 113.109C126.209 113.109 122.899 121.329 125.909 125.429M95.739 76.6194C90.959 77.1694 67.399 86.1394 65.699 89.3394C64.229 92.0994 90.959 104.129 95.019 104.319C100.999 104.609 126.249 92.9094 126.609 91.3294C127.309 88.2894 100.419 76.0794 95.739 76.6194Z" stroke="#116FAE" stroke-width="2" stroke-linecap="round" stroke-linejoin="round"/>
<path id="1px-stroke-emphasis" d="M96.7188 89.3694C96.7188 89.3694 120.869 94.0494 121.719 95.8394C122.569 97.6294 122.399 111.839 122.399 111.839" stroke="#116FAE" stroke-linecap="round" stroke-linejoin="round"/>
<path id="fill-emphasis" d="M98.309 80.2394C95.439 83.1494 87.799 83.9294 78.969 89.7294C70.129 95.5294 83.519 99.4294 82.249 102.219C81.209 104.499 93.269 108.349 98.489 107.819C101.609 112.559 95.709 122.549 101.609 121.949C106.809 121.419 114.319 119.229 114.949 113.439C115.469 108.699 114.949 107.109 114.949 101.319C120.149 98.1594 128.459 96.0494 128.979 91.8294C129.499 87.6094 100.919 77.5994 98.319 80.2294L98.309 80.2394Z" fill="#116FAE" fill-opacity="0.24"/>
</g>
</g>
</svg>
