<svg width="490" height="24" viewBox="0 0 490 24" fill="none" xmlns="http://www.w3.org/2000/svg">
<path d="M484.611 21.9998H469.341L469.013 21.9994C466.905 21.9987 461.988 21.9969 460.471 21.9969C459.145 21.9969 458.087 21.79 457.236 21.3643C456.015 20.753 455.239 19.7129 454.863 18.1847C454.227 15.2762 452.864 8.95621 452.108 5.44617C451.877 4.37296 452.019 3.43817 452.508 2.81412C452.925 2.28152 453.575 2 454.389 2H469.672L469.988 2.00021C472.096 2.00073 477.012 2.00189 478.529 2.00189C479.855 2.00189 480.913 2.20898 481.764 2.63504C482.985 3.24658 483.761 4.28705 484.137 5.81549C484.773 8.72495 486.136 15.0441 486.892 18.5536C487.123 19.6268 486.981 20.5615 486.492 21.1856C486.075 21.7183 485.425 21.9998 484.611 21.9998Z" fill="#2B3033"/>
<path d="M474 11.4997C474 11.2031 474.088 10.9129 474.252 10.6663C474.417 10.4196 474.651 10.2275 474.925 10.114C475.199 10.0005 475.501 9.97068 475.792 10.0286C476.083 10.0864 476.35 10.2294 476.56 10.4392C476.77 10.649 476.913 10.9163 476.971 11.2073C477.029 11.4982 476.999 11.7999 476.885 12.074C476.772 12.3481 476.58 12.582 476.333 12.7468C476.086 12.9116 475.796 12.9997 475.5 12.9997C475.102 12.9997 474.72 12.8416 474.439 12.5603C474.158 12.279 474 11.8976 474 11.4997ZM468 11.4997C468 11.2031 468.088 10.9129 468.252 10.6663C468.417 10.4196 468.651 10.2275 468.925 10.114C469.199 10.0005 469.501 9.97068 469.792 10.0286C470.083 10.0864 470.35 10.2294 470.56 10.4392C470.77 10.649 470.913 10.9163 470.971 11.2073C471.029 11.4982 470.999 11.7999 470.885 12.074C470.772 12.3481 470.58 12.582 470.333 12.7468C470.086 12.9116 469.796 12.9997 469.5 12.9997C469.102 12.9997 468.72 12.8416 468.439 12.5603C468.158 12.279 468 11.8976 468 11.4997ZM462 11.4997C462 11.2031 462.088 10.9129 462.252 10.6663C462.417 10.4196 462.651 10.2275 462.925 10.114C463.199 10.0005 463.501 9.97068 463.792 10.0286C464.083 10.0864 464.35 10.2294 464.56 10.4392C464.77 10.649 464.913 10.9163 464.971 11.2073C465.029 11.4982 464.999 11.7999 464.885 12.074C464.772 12.3481 464.58 12.582 464.333 12.7468C464.086 12.9116 463.796 12.9997 463.5 12.9997C463.102 12.9997 462.72 12.8416 462.439 12.5603C462.158 12.279 462 11.8976 462 11.4997Z" fill="#4C545B"/>
<g filter="url(#filter0_d_231_3)">
<mask id="path-3-inside-1_231_3" fill="white">
<path d="M434.611 21.9998H419.341L419.013 21.9994C416.905 21.9987 411.988 21.9969 410.471 21.9969C409.145 21.9969 408.087 21.79 407.236 21.3643C406.015 20.753 405.239 19.7129 404.863 18.1847C404.227 15.2762 402.864 8.95621 402.108 5.44617C401.877 4.37296 402.019 3.43817 402.508 2.81412C402.925 2.28152 403.575 2 404.389 2H419.672L419.988 2.00021C422.096 2.00073 427.012 2.00189 428.529 2.00189C429.855 2.00189 430.913 2.20898 431.764 2.63504C432.985 3.24658 433.761 4.28705 434.137 5.81549C434.773 8.72495 436.136 15.0441 436.892 18.5536C437.123 19.6268 436.981 20.5615 436.492 21.1856C436.075 21.7183 435.425 21.9998 434.611 21.9998Z"/>
</mask>
<path d="M434.611 21.9998H419.341L419.013 21.9994C416.905 21.9987 411.988 21.9969 410.471 21.9969C409.145 21.9969 408.087 21.79 407.236 21.3643C406.015 20.753 405.239 19.7129 404.863 18.1847C404.227 15.2762 402.864 8.95621 402.108 5.44617C401.877 4.37296 402.019 3.43817 402.508 2.81412C402.925 2.28152 403.575 2 404.389 2H419.672L419.988 2.00021C422.096 2.00073 427.012 2.00189 428.529 2.00189C429.855 2.00189 430.913 2.20898 431.764 2.63504C432.985 3.24658 433.761 4.28705 434.137 5.81549C434.773 8.72495 436.136 15.0441 436.892 18.5536C437.123 19.6268 436.981 20.5615 436.492 21.1856C436.075 21.7183 435.425 21.9998 434.611 21.9998Z" fill="#4C545B" stroke="#6F7A82" stroke-width="2" mask="url(#path-3-inside-1_231_3)"/>
<path d="M424 11.4997C424 11.2031 424.088 10.9129 424.252 10.6663C424.417 10.4196 424.651 10.2275 424.925 10.114C425.199 10.0005 425.501 9.97068 425.792 10.0286C426.083 10.0864 426.35 10.2294 426.56 10.4392C426.77 10.649 426.913 10.9163 426.971 11.2073C427.029 11.4982 426.999 11.7999 426.885 12.074C426.772 12.3481 426.58 12.582 426.333 12.7468C426.086 12.9116 425.796 12.9997 425.5 12.9997C425.102 12.9997 424.72 12.8416 424.439 12.5603C424.158 12.279 424 11.8976 424 11.4997ZM418 11.4997C418 11.2031 418.088 10.9129 418.252 10.6663C418.417 10.4196 418.651 10.2275 418.925 10.114C419.199 10.0005 419.501 9.97068 419.792 10.0286C420.083 10.0864 420.35 10.2294 420.56 10.4392C420.77 10.649 420.913 10.9163 420.971 11.2073C421.029 11.4982 420.999 11.7999 420.885 12.074C420.772 12.3481 420.58 12.582 420.333 12.7468C420.086 12.9116 419.796 12.9997 419.5 12.9997C419.102 12.9997 418.72 12.8416 418.439 12.5603C418.158 12.279 418 11.8976 418 11.4997ZM412 11.4997C412 11.2031 412.088 10.9129 412.252 10.6663C412.417 10.4196 412.651 10.2275 412.925 10.114C413.199 10.0005 413.501 9.97068 413.792 10.0286C414.083 10.0864 414.35 10.2294 414.56 10.4392C414.77 10.649 414.913 10.9163 414.971 11.2073C415.029 11.4982 414.999 11.7999 414.885 12.074C414.772 12.3481 414.58 12.582 414.333 12.7468C414.086 12.9116 413.796 12.9997 413.5 12.9997C413.102 12.9997 412.72 12.8416 412.439 12.5603C412.158 12.279 412 11.8976 412 11.4997Z" fill="#AFBCC4"/>
</g>
<g filter="url(#filter1_d_231_3)">
<mask id="path-5-inside-2_231_3" fill="white">
<path d="M384.611 21.9998H369.341L369.013 21.9994C366.905 21.9987 361.988 21.9969 360.471 21.9969C359.145 21.9969 358.087 21.79 357.236 21.3643C356.015 20.753 355.239 19.7129 354.863 18.1847C354.227 15.2762 352.864 8.95621 352.108 5.44617C351.877 4.37296 352.019 3.43817 352.508 2.81412C352.925 2.28152 353.575 2 354.389 2H369.672L369.988 2.00021C372.096 2.00073 377.012 2.00189 378.529 2.00189C379.855 2.00189 380.913 2.20898 381.764 2.63504C382.985 3.24658 383.761 4.28705 384.137 5.81549C384.773 8.72495 386.136 15.0441 386.892 18.5536C387.123 19.6268 386.981 20.5615 386.492 21.1856C386.075 21.7183 385.425 21.9998 384.611 21.9998Z"/>
</mask>
<path d="M384.611 21.9998H369.341L369.013 21.9994C366.905 21.9987 361.988 21.9969 360.471 21.9969C359.145 21.9969 358.087 21.79 357.236 21.3643C356.015 20.753 355.239 19.7129 354.863 18.1847C354.227 15.2762 352.864 8.95621 352.108 5.44617C351.877 4.37296 352.019 3.43817 352.508 2.81412C352.925 2.28152 353.575 2 354.389 2H369.672L369.988 2.00021C372.096 2.00073 377.012 2.00189 378.529 2.00189C379.855 2.00189 380.913 2.20898 381.764 2.63504C382.985 3.24658 383.761 4.28705 384.137 5.81549C384.773 8.72495 386.136 15.0441 386.892 18.5536C387.123 19.6268 386.981 20.5615 386.492 21.1856C386.075 21.7183 385.425 21.9998 384.611 21.9998Z" fill="#4C545B" stroke="#E4EBF0" stroke-width="4" mask="url(#path-5-inside-2_231_3)"/>
<path d="M374 11.4997C374 11.2031 374.088 10.9129 374.252 10.6663C374.417 10.4196 374.651 10.2275 374.925 10.114C375.199 10.0005 375.501 9.97068 375.792 10.0286C376.083 10.0864 376.35 10.2294 376.56 10.4392C376.77 10.649 376.913 10.9163 376.971 11.2073C377.029 11.4982 376.999 11.7999 376.885 12.074C376.772 12.3481 376.58 12.582 376.333 12.7468C376.086 12.9116 375.796 12.9997 375.5 12.9997C375.102 12.9997 374.72 12.8416 374.439 12.5603C374.158 12.279 374 11.8976 374 11.4997ZM368 11.4997C368 11.2031 368.088 10.9129 368.252 10.6663C368.417 10.4196 368.651 10.2275 368.925 10.114C369.199 10.0005 369.501 9.97068 369.792 10.0286C370.083 10.0864 370.35 10.2294 370.56 10.4392C370.77 10.649 370.913 10.9163 370.971 11.2073C371.029 11.4982 370.999 11.7999 370.885 12.074C370.772 12.3481 370.58 12.582 370.333 12.7468C370.086 12.9116 369.796 12.9997 369.5 12.9997C369.102 12.9997 368.72 12.8416 368.439 12.5603C368.158 12.279 368 11.8976 368 11.4997ZM362 11.4997C362 11.2031 362.088 10.9129 362.252 10.6663C362.417 10.4196 362.651 10.2275 362.925 10.114C363.199 10.0005 363.501 9.97068 363.792 10.0286C364.083 10.0864 364.35 10.2294 364.56 10.4392C364.77 10.649 364.913 10.9163 364.971 11.2073C365.029 11.4982 364.999 11.7999 364.885 12.074C364.772 12.3481 364.58 12.582 364.333 12.7468C364.086 12.9116 363.796 12.9997 363.5 12.9997C363.102 12.9997 362.72 12.8416 362.439 12.5603C362.158 12.279 362 11.8976 362 11.4997Z" fill="#AFBCC4"/>
</g>
<g filter="url(#filter2_d_231_3)">
<mask id="path-7-inside-3_231_3" fill="white">
<path d="M334.611 21.9998H319.341L319.013 21.9994C316.905 21.9987 311.988 21.9969 310.471 21.9969C309.145 21.9969 308.087 21.79 307.236 21.3643C306.015 20.753 305.239 19.7129 304.863 18.1847C304.227 15.2762 302.864 8.95621 302.108 5.44617C301.877 4.37296 302.019 3.43817 302.508 2.81412C302.925 2.28152 303.575 2 304.389 2H319.672L319.988 2.00021C322.096 2.00073 327.012 2.00189 328.529 2.00189C329.855 2.00189 330.913 2.20898 331.764 2.63504C332.985 3.24658 333.761 4.28705 334.137 5.81549C334.773 8.72495 336.136 15.0441 336.892 18.5536C337.123 19.6268 336.981 20.5615 336.492 21.1856C336.075 21.7183 335.425 21.9998 334.611 21.9998Z"/>
</mask>
<path d="M334.611 21.9998H319.341L319.013 21.9994C316.905 21.9987 311.988 21.9969 310.471 21.9969C309.145 21.9969 308.087 21.79 307.236 21.3643C306.015 20.753 305.239 19.7129 304.863 18.1847C304.227 15.2762 302.864 8.95621 302.108 5.44617C301.877 4.37296 302.019 3.43817 302.508 2.81412C302.925 2.28152 303.575 2 304.389 2H319.672L319.988 2.00021C322.096 2.00073 327.012 2.00189 328.529 2.00189C329.855 2.00189 330.913 2.20898 331.764 2.63504C332.985 3.24658 333.761 4.28705 334.137 5.81549C334.773 8.72495 336.136 15.0441 336.892 18.5536C337.123 19.6268 336.981 20.5615 336.492 21.1856C336.075 21.7183 335.425 21.9998 334.611 21.9998Z" fill="#86929B" stroke="#9AA5AE" stroke-width="2" mask="url(#path-7-inside-3_231_3)"/>
<path d="M324 11.4997C324 11.2031 324.088 10.9129 324.252 10.6663C324.417 10.4196 324.651 10.2275 324.925 10.114C325.199 10.0005 325.501 9.97068 325.792 10.0286C326.083 10.0864 326.35 10.2294 326.56 10.4392C326.77 10.649 326.913 10.9163 326.971 11.2073C327.029 11.4982 326.999 11.7999 326.885 12.074C326.772 12.3481 326.58 12.582 326.333 12.7468C326.086 12.9116 325.796 12.9997 325.5 12.9997C325.102 12.9997 324.72 12.8416 324.439 12.5603C324.158 12.279 324 11.8976 324 11.4997ZM318 11.4997C318 11.2031 318.088 10.9129 318.252 10.6663C318.417 10.4196 318.651 10.2275 318.925 10.114C319.199 10.0005 319.501 9.97068 319.792 10.0286C320.083 10.0864 320.35 10.2294 320.56 10.4392C320.77 10.649 320.913 10.9163 320.971 11.2073C321.029 11.4982 320.999 11.7999 320.885 12.074C320.772 12.3481 320.58 12.582 320.333 12.7468C320.086 12.9116 319.796 12.9997 319.5 12.9997C319.102 12.9997 318.72 12.8416 318.439 12.5603C318.158 12.279 318 11.8976 318 11.4997ZM312 11.4997C312 11.2031 312.088 10.9129 312.252 10.6663C312.417 10.4196 312.651 10.2275 312.925 10.114C313.199 10.0005 313.501 9.97068 313.792 10.0286C314.083 10.0864 314.35 10.2294 314.56 10.4392C314.77 10.649 314.913 10.9163 314.971 11.2073C315.029 11.4982 314.999 11.7999 314.885 12.074C314.772 12.3481 314.58 12.582 314.333 12.7468C314.086 12.9116 313.796 12.9997 313.5 12.9997C313.102 12.9997 312.72 12.8416 312.439 12.5603C312.158 12.279 312 11.8976 312 11.4997Z" fill="#AFBCC4"/>
</g>
<g filter="url(#filter3_d_231_3)">
<mask id="path-9-inside-4_231_3" fill="white">
<path d="M284.611 21.9998H269.341L269.013 21.9994C266.905 21.9987 261.988 21.9969 260.471 21.9969C259.145 21.9969 258.087 21.79 257.236 21.3643C256.015 20.753 255.239 19.7129 254.863 18.1847C254.227 15.2762 252.864 8.95621 252.108 5.44617C251.877 4.37296 252.019 3.43817 252.508 2.81412C252.925 2.28152 253.575 2 254.389 2H269.672L269.988 2.00021C272.096 2.00073 277.012 2.00189 278.529 2.00189C279.855 2.00189 280.913 2.20898 281.764 2.63504C282.985 3.24658 283.761 4.28705 284.137 5.81549C284.773 8.72495 286.136 15.0441 286.892 18.5536C287.123 19.6268 286.981 20.5615 286.492 21.1856C286.075 21.7183 285.425 21.9998 284.611 21.9998Z"/>
</mask>
<path d="M284.611 21.9998H269.341L269.013 21.9994C266.905 21.9987 261.988 21.9969 260.471 21.9969C259.145 21.9969 258.087 21.79 257.236 21.3643C256.015 20.753 255.239 19.7129 254.863 18.1847C254.227 15.2762 252.864 8.95621 252.108 5.44617C251.877 4.37296 252.019 3.43817 252.508 2.81412C252.925 2.28152 253.575 2 254.389 2H269.672L269.988 2.00021C272.096 2.00073 277.012 2.00189 278.529 2.00189C279.855 2.00189 280.913 2.20898 281.764 2.63504C282.985 3.24658 283.761 4.28705 284.137 5.81549C284.773 8.72495 286.136 15.0441 286.892 18.5536C287.123 19.6268 286.981 20.5615 286.492 21.1856C286.075 21.7183 285.425 21.9998 284.611 21.9998Z" fill="#4C545B" stroke="#6F7A82" stroke-width="2" mask="url(#path-9-inside-4_231_3)"/>
<path d="M274 11.4997C274 11.2031 274.088 10.9129 274.252 10.6663C274.417 10.4196 274.651 10.2275 274.925 10.114C275.199 10.0005 275.501 9.97068 275.792 10.0286C276.083 10.0864 276.35 10.2294 276.56 10.4392C276.77 10.649 276.913 10.9163 276.971 11.2073C277.029 11.4982 276.999 11.7999 276.885 12.074C276.772 12.3481 276.58 12.582 276.333 12.7468C276.086 12.9116 275.796 12.9997 275.5 12.9997C275.102 12.9997 274.72 12.8416 274.439 12.5603C274.158 12.279 274 11.8976 274 11.4997ZM268 11.4997C268 11.2031 268.088 10.9129 268.252 10.6663C268.417 10.4196 268.651 10.2275 268.925 10.114C269.199 10.0005 269.501 9.97068 269.792 10.0286C270.083 10.0864 270.35 10.2294 270.56 10.4392C270.77 10.649 270.913 10.9163 270.971 11.2073C271.029 11.4982 270.999 11.7999 270.885 12.074C270.772 12.3481 270.58 12.582 270.333 12.7468C270.086 12.9116 269.796 12.9997 269.5 12.9997C269.102 12.9997 268.72 12.8416 268.439 12.5603C268.158 12.279 268 11.8976 268 11.4997ZM262 11.4997C262 11.2031 262.088 10.9129 262.252 10.6663C262.417 10.4196 262.651 10.2275 262.925 10.114C263.199 10.0005 263.501 9.97068 263.792 10.0286C264.083 10.0864 264.35 10.2294 264.56 10.4392C264.77 10.649 264.913 10.9163 264.971 11.2073C265.029 11.4982 264.999 11.7999 264.885 12.074C264.772 12.3481 264.58 12.582 264.333 12.7468C264.086 12.9116 263.796 12.9997 263.5 12.9997C263.102 12.9997 262.72 12.8416 262.439 12.5603C262.158 12.279 262 11.8976 262 11.4997Z" fill="#AFBCC4"/>
</g>
<path d="M234.611 21.9998H219.341L219.013 21.9994C216.905 21.9987 211.988 21.9969 210.471 21.9969C209.145 21.9969 208.087 21.79 207.236 21.3643C206.015 20.753 205.239 19.7129 204.863 18.1847C204.227 15.2762 202.864 8.95621 202.108 5.44617C201.877 4.37296 202.019 3.43817 202.508 2.81412C202.925 2.28152 203.575 2 204.389 2H219.672L219.988 2.00021C222.096 2.00073 227.012 2.00189 228.529 2.00189C229.855 2.00189 230.913 2.20898 231.764 2.63504C232.985 3.24658 233.761 4.28705 234.137 5.81549C234.773 8.72495 236.136 15.0441 236.892 18.5536C237.123 19.6268 236.981 20.5615 236.492 21.1856C236.075 21.7183 235.425 21.9998 234.611 21.9998Z" fill="#F2F2F2"/>
<path d="M224 11.4997C224 11.2031 224.088 10.9129 224.252 10.6663C224.417 10.4196 224.651 10.2275 224.925 10.114C225.199 10.0005 225.501 9.97068 225.792 10.0286C226.083 10.0864 226.35 10.2294 226.56 10.4392C226.77 10.649 226.913 10.9163 226.971 11.2073C227.029 11.4982 226.999 11.7999 226.885 12.074C226.772 12.3481 226.58 12.582 226.333 12.7468C226.086 12.9116 225.796 12.9997 225.5 12.9997C225.102 12.9997 224.72 12.8416 224.439 12.5603C224.158 12.279 224 11.8976 224 11.4997ZM218 11.4997C218 11.2031 218.088 10.9129 218.252 10.6663C218.417 10.4196 218.651 10.2275 218.925 10.114C219.199 10.0005 219.501 9.97068 219.792 10.0286C220.083 10.0864 220.35 10.2294 220.56 10.4392C220.77 10.649 220.913 10.9163 220.971 11.2073C221.029 11.4982 220.999 11.7999 220.885 12.074C220.772 12.3481 220.58 12.582 220.333 12.7468C220.086 12.9116 219.796 12.9997 219.5 12.9997C219.102 12.9997 218.72 12.8416 218.439 12.5603C218.158 12.279 218 11.8976 218 11.4997ZM212 11.4997C212 11.2031 212.088 10.9129 212.252 10.6663C212.417 10.4196 212.651 10.2275 212.925 10.114C213.199 10.0005 213.501 9.97068 213.792 10.0286C214.083 10.0864 214.35 10.2294 214.56 10.4392C214.77 10.649 214.913 10.9163 214.971 11.2073C215.029 11.4982 214.999 11.7999 214.885 12.074C214.772 12.3481 214.58 12.582 214.333 12.7468C214.086 12.9116 213.796 12.9997 213.5 12.9997C213.102 12.9997 212.72 12.8416 212.439 12.5603C212.158 12.279 212 11.8976 212 11.4997Z" fill="#8A8A8A"/>
<g filter="url(#filter4_d_231_3)">
<mask id="path-13-inside-5_231_3" fill="white">
<path d="M184.611 21.9998H169.341L169.013 21.9994C166.905 21.9987 161.988 21.9969 160.471 21.9969C159.145 21.9969 158.087 21.79 157.236 21.3643C156.015 20.753 155.239 19.7129 154.863 18.1847C154.227 15.2762 152.864 8.95621 152.108 5.44617C151.877 4.37296 152.019 3.43817 152.508 2.81412C152.925 2.28152 153.575 2 154.389 2H169.672L169.988 2.00021C172.096 2.00073 177.012 2.00189 178.529 2.00189C179.855 2.00189 180.913 2.20898 181.764 2.63504C182.985 3.24658 183.761 4.28705 184.137 5.81549C184.773 8.72495 186.136 15.0441 186.892 18.5536C187.123 19.6268 186.981 20.5615 186.492 21.1856C186.075 21.7183 185.425 21.9998 184.611 21.9998Z"/>
</mask>
<path d="M184.611 21.9998H169.341L169.013 21.9994C166.905 21.9987 161.988 21.9969 160.471 21.9969C159.145 21.9969 158.087 21.79 157.236 21.3643C156.015 20.753 155.239 19.7129 154.863 18.1847C154.227 15.2762 152.864 8.95621 152.108 5.44617C151.877 4.37296 152.019 3.43817 152.508 2.81412C152.925 2.28152 153.575 2 154.389 2H169.672L169.988 2.00021C172.096 2.00073 177.012 2.00189 178.529 2.00189C179.855 2.00189 180.913 2.20898 181.764 2.63504C182.985 3.24658 183.761 4.28705 184.137 5.81549C184.773 8.72495 186.136 15.0441 186.892 18.5536C187.123 19.6268 186.981 20.5615 186.492 21.1856C186.075 21.7183 185.425 21.9998 184.611 21.9998Z" fill="#DADADA" stroke="#8A8A8A" stroke-width="2" mask="url(#path-13-inside-5_231_3)"/>
<path d="M174 11.4997C174 11.2031 174.088 10.9129 174.252 10.6663C174.417 10.4196 174.651 10.2275 174.925 10.114C175.199 10.0005 175.501 9.97068 175.792 10.0286C176.083 10.0864 176.35 10.2294 176.56 10.4392C176.77 10.649 176.913 10.9163 176.971 11.2073C177.029 11.4982 176.999 11.7999 176.885 12.074C176.772 12.3481 176.58 12.582 176.333 12.7468C176.086 12.9116 175.796 12.9997 175.5 12.9997C175.102 12.9997 174.72 12.8416 174.439 12.5603C174.158 12.279 174 11.8976 174 11.4997ZM168 11.4997C168 11.2031 168.088 10.9129 168.252 10.6663C168.417 10.4196 168.651 10.2275 168.925 10.114C169.199 10.0005 169.501 9.97068 169.792 10.0286C170.083 10.0864 170.35 10.2294 170.56 10.4392C170.77 10.649 170.913 10.9163 170.971 11.2073C171.029 11.4982 170.999 11.7999 170.885 12.074C170.772 12.3481 170.58 12.582 170.333 12.7468C170.086 12.9116 169.796 12.9997 169.5 12.9997C169.102 12.9997 168.72 12.8416 168.439 12.5603C168.158 12.279 168 11.8976 168 11.4997ZM162 11.4997C162 11.2031 162.088 10.9129 162.252 10.6663C162.417 10.4196 162.651 10.2275 162.925 10.114C163.199 10.0005 163.501 9.97068 163.792 10.0286C164.083 10.0864 164.35 10.2294 164.56 10.4392C164.77 10.649 164.913 10.9163 164.971 11.2073C165.029 11.4982 164.999 11.7999 164.885 12.074C164.772 12.3481 164.58 12.582 164.333 12.7468C164.086 12.9116 163.796 12.9997 163.5 12.9997C163.102 12.9997 162.72 12.8416 162.439 12.5603C162.158 12.279 162 11.8976 162 11.4997Z" fill="#494A4A"/>
</g>
<g filter="url(#filter5_d_231_3)">
<mask id="path-15-inside-6_231_3" fill="white">
<path d="M134.611 21.9998H119.341L119.013 21.9994C116.905 21.9987 111.988 21.9969 110.471 21.9969C109.145 21.9969 108.087 21.79 107.236 21.3643C106.015 20.753 105.239 19.7129 104.863 18.1847C104.227 15.2762 102.864 8.95621 102.108 5.44617C101.877 4.37296 102.019 3.43817 102.508 2.81412C102.925 2.28152 103.575 2 104.389 2H119.672L119.988 2.00021C122.096 2.00073 127.012 2.00189 128.529 2.00189C129.855 2.00189 130.913 2.20898 131.764 2.63504C132.985 3.24658 133.761 4.28705 134.137 5.81549C134.773 8.72495 136.136 15.0441 136.892 18.5536C137.123 19.6268 136.981 20.5615 136.492 21.1856C136.075 21.7183 135.425 21.9998 134.611 21.9998Z"/>
</mask>
<path d="M134.611 21.9998H119.341L119.013 21.9994C116.905 21.9987 111.988 21.9969 110.471 21.9969C109.145 21.9969 108.087 21.79 107.236 21.3643C106.015 20.753 105.239 19.7129 104.863 18.1847C104.227 15.2762 102.864 8.95621 102.108 5.44617C101.877 4.37296 102.019 3.43817 102.508 2.81412C102.925 2.28152 103.575 2 104.389 2H119.672L119.988 2.00021C122.096 2.00073 127.012 2.00189 128.529 2.00189C129.855 2.00189 130.913 2.20898 131.764 2.63504C132.985 3.24658 133.761 4.28705 134.137 5.81549C134.773 8.72495 136.136 15.0441 136.892 18.5536C137.123 19.6268 136.981 20.5615 136.492 21.1856C136.075 21.7183 135.425 21.9998 134.611 21.9998Z" fill="white" stroke="#1482CC" stroke-width="4" mask="url(#path-15-inside-6_231_3)"/>
<path d="M124 11.4997C124 11.2031 124.088 10.9129 124.252 10.6663C124.417 10.4196 124.651 10.2275 124.925 10.114C125.199 10.0005 125.501 9.97068 125.792 10.0286C126.083 10.0864 126.35 10.2294 126.56 10.4392C126.77 10.649 126.913 10.9163 126.971 11.2073C127.029 11.4982 126.999 11.7999 126.885 12.074C126.772 12.3481 126.58 12.582 126.333 12.7468C126.086 12.9116 125.796 12.9997 125.5 12.9997C125.102 12.9997 124.72 12.8416 124.439 12.5603C124.158 12.279 124 11.8976 124 11.4997ZM118 11.4997C118 11.2031 118.088 10.9129 118.252 10.6663C118.417 10.4196 118.651 10.2275 118.925 10.114C119.199 10.0005 119.501 9.97068 119.792 10.0286C120.083 10.0864 120.35 10.2294 120.56 10.4392C120.77 10.649 120.913 10.9163 120.971 11.2073C121.029 11.4982 120.999 11.7999 120.885 12.074C120.772 12.3481 120.58 12.582 120.333 12.7468C120.086 12.9116 119.796 12.9997 119.5 12.9997C119.102 12.9997 118.72 12.8416 118.439 12.5603C118.158 12.279 118 11.8976 118 11.4997ZM112 11.4997C112 11.2031 112.088 10.9129 112.252 10.6663C112.417 10.4196 112.651 10.2275 112.925 10.114C113.199 10.0005 113.501 9.97068 113.792 10.0286C114.083 10.0864 114.35 10.2294 114.56 10.4392C114.77 10.649 114.913 10.9163 114.971 11.2073C115.029 11.4982 114.999 11.7999 114.885 12.074C114.772 12.3481 114.58 12.582 114.333 12.7468C114.086 12.9116 113.796 12.9997 113.5 12.9997C113.102 12.9997 112.72 12.8416 112.439 12.5603C112.158 12.279 112 11.8976 112 11.4997Z" fill="#494A4A"/>
</g>
<g filter="url(#filter6_d_231_3)">
<mask id="path-17-inside-7_231_3" fill="white">
<path d="M84.6108 21.9998H69.341L69.0131 21.9994C66.9045 21.9987 61.988 21.9969 60.4714 21.9969C59.1449 21.9969 58.0866 21.79 57.236 21.3643C56.0148 20.753 55.2386 19.7129 54.8634 18.1847C54.2273 15.2762 52.8644 8.95621 52.1081 5.44617C51.8771 4.37296 52.019 3.43817 52.5076 2.81412C52.9247 2.28152 53.5752 2 54.389 2H69.6723L69.9877 2.00021C72.096 2.00073 77.0118 2.00189 78.5286 2.00189C79.8548 2.00189 80.913 2.20898 81.7638 2.63504C82.9851 3.24658 83.7613 4.28705 84.1365 5.81549C84.7729 8.72495 86.1356 15.0441 86.8918 18.5536C87.1229 19.6268 86.9811 20.5615 86.4924 21.1856C86.0753 21.7183 85.4247 21.9998 84.6108 21.9998Z"/>
</mask>
<path d="M84.6108 21.9998H69.341L69.0131 21.9994C66.9045 21.9987 61.988 21.9969 60.4714 21.9969C59.1449 21.9969 58.0866 21.79 57.236 21.3643C56.0148 20.753 55.2386 19.7129 54.8634 18.1847C54.2273 15.2762 52.8644 8.95621 52.1081 5.44617C51.8771 4.37296 52.019 3.43817 52.5076 2.81412C52.9247 2.28152 53.5752 2 54.389 2H69.6723L69.9877 2.00021C72.096 2.00073 77.0118 2.00189 78.5286 2.00189C79.8548 2.00189 80.913 2.20898 81.7638 2.63504C82.9851 3.24658 83.7613 4.28705 84.1365 5.81549C84.7729 8.72495 86.1356 15.0441 86.8918 18.5536C87.1229 19.6268 86.9811 20.5615 86.4924 21.1856C86.0753 21.7183 85.4247 21.9998 84.6108 21.9998Z" fill="#D2EAFA" stroke="#1482CC" stroke-width="2" mask="url(#path-17-inside-7_231_3)"/>
<path d="M73.9995 11.4997C73.9995 11.2031 74.0876 10.9129 74.2524 10.6663C74.4173 10.4196 74.6512 10.2275 74.9253 10.114C75.1994 10.0005 75.501 9.97068 75.792 10.0286C76.083 10.0864 76.3503 10.2294 76.5601 10.4392C76.7698 10.649 76.9128 10.9163 76.9707 11.2073C77.0286 11.4982 76.9988 11.7999 76.8853 12.074C76.7717 12.3481 76.5797 12.582 76.333 12.7468C76.0863 12.9116 75.7962 12.9997 75.4995 12.9997C75.1017 12.9997 74.7203 12.8416 74.439 12.5603C74.1577 12.279 73.9995 11.8976 73.9995 11.4997ZM67.9995 11.4997C67.9995 11.2031 68.0876 10.9129 68.2524 10.6663C68.4173 10.4196 68.6512 10.2275 68.9253 10.114C69.1994 10.0005 69.501 9.97068 69.792 10.0286C70.083 10.0864 70.3503 10.2294 70.5601 10.4392C70.7698 10.649 70.9128 10.9163 70.9707 11.2073C71.0286 11.4982 70.9988 11.7999 70.8853 12.074C70.7717 12.3481 70.5797 12.582 70.333 12.7468C70.0863 12.9116 69.7962 12.9997 69.4995 12.9997C69.1017 12.9997 68.7203 12.8416 68.439 12.5603C68.1577 12.279 67.9995 11.8976 67.9995 11.4997ZM61.9995 11.4997C61.9995 11.2031 62.0876 10.9129 62.2524 10.6663C62.4173 10.4196 62.6512 10.2275 62.9253 10.114C63.1994 10.0005 63.501 9.97068 63.792 10.0286C64.083 10.0864 64.3503 10.2294 64.5601 10.4392C64.7698 10.649 64.9128 10.9163 64.9707 11.2073C65.0286 11.4982 64.9988 11.7999 64.8853 12.074C64.7717 12.3481 64.5797 12.582 64.333 12.7468C64.0863 12.9116 63.7962 12.9997 63.4995 12.9997C63.1017 12.9997 62.7203 12.8416 62.439 12.5603C62.1577 12.279 61.9995 11.8976 61.9995 11.4997Z" fill="#494A4A"/>
</g>
<g filter="url(#filter7_d_231_3)">
<mask id="path-19-inside-8_231_3" fill="white">
<path d="M34.6108 21.9998H19.341L19.0131 21.9994C16.9045 21.9987 11.988 21.9969 10.4714 21.9969C9.1449 21.9969 8.08657 21.79 7.23602 21.3643C6.01477 20.753 5.2386 19.7129 4.86337 18.1847C4.22728 15.2762 2.86441 8.95621 2.10812 5.44617C1.87713 4.37296 2.01898 3.43817 2.50763 2.81412C2.92475 2.28152 3.57524 2 4.38901 2H19.6723L19.9877 2.00021C22.096 2.00073 27.0118 2.00189 28.5286 2.00189C29.8548 2.00189 30.913 2.20898 31.7638 2.63504C32.9851 3.24658 33.7613 4.28705 34.1365 5.81549C34.7729 8.72495 36.1356 15.0441 36.8918 18.5536C37.1229 19.6268 36.9811 20.5615 36.4924 21.1856C36.0753 21.7183 35.4247 21.9998 34.6108 21.9998Z"/>
</mask>
<path d="M34.6108 21.9998H19.341L19.0131 21.9994C16.9045 21.9987 11.988 21.9969 10.4714 21.9969C9.1449 21.9969 8.08657 21.79 7.23602 21.3643C6.01477 20.753 5.2386 19.7129 4.86337 18.1847C4.22728 15.2762 2.86441 8.95621 2.10812 5.44617C1.87713 4.37296 2.01898 3.43817 2.50763 2.81412C2.92475 2.28152 3.57524 2 4.38901 2H19.6723L19.9877 2.00021C22.096 2.00073 27.0118 2.00189 28.5286 2.00189C29.8548 2.00189 30.913 2.20898 31.7638 2.63504C32.9851 3.24658 33.7613 4.28705 34.1365 5.81549C34.7729 8.72495 36.1356 15.0441 36.8918 18.5536C37.1229 19.6268 36.9811 20.5615 36.4924 21.1856C36.0753 21.7183 35.4247 21.9998 34.6108 21.9998Z" fill="white" stroke="#8A8A8A" stroke-width="2" mask="url(#path-19-inside-8_231_3)"/>
<path d="M23.9995 11.4997C23.9995 11.2031 24.0876 10.9129 24.2524 10.6663C24.4173 10.4196 24.6512 10.2275 24.9253 10.114C25.1994 10.0005 25.501 9.97068 25.792 10.0286C26.083 10.0864 26.3503 10.2294 26.5601 10.4392C26.7698 10.649 26.9128 10.9163 26.9707 11.2073C27.0286 11.4982 26.9988 11.7999 26.8853 12.074C26.7717 12.3481 26.5797 12.582 26.333 12.7468C26.0863 12.9116 25.7962 12.9997 25.4995 12.9997C25.1017 12.9997 24.7203 12.8416 24.439 12.5603C24.1577 12.279 23.9995 11.8976 23.9995 11.4997ZM17.9995 11.4997C17.9995 11.2031 18.0876 10.9129 18.2524 10.6663C18.4173 10.4196 18.6512 10.2275 18.9253 10.114C19.1994 10.0005 19.501 9.97068 19.792 10.0286C20.083 10.0864 20.3503 10.2294 20.5601 10.4392C20.7698 10.649 20.9128 10.9163 20.9707 11.2073C21.0286 11.4982 20.9988 11.7999 20.8853 12.074C20.7717 12.3481 20.5797 12.582 20.333 12.7468C20.0863 12.9116 19.7962 12.9997 19.4995 12.9997C19.1017 12.9997 18.7203 12.8416 18.439 12.5603C18.1577 12.279 17.9995 11.8976 17.9995 11.4997ZM11.9995 11.4997C11.9995 11.2031 12.0876 10.9129 12.2524 10.6663C12.4173 10.4196 12.6512 10.2275 12.9253 10.114C13.1994 10.0005 13.501 9.97068 13.792 10.0286C14.083 10.0864 14.3503 10.2294 14.5601 10.4392C14.7698 10.649 14.9128 10.9163 14.9707 11.2073C15.0286 11.4982 14.9988 11.7999 14.8853 12.074C14.7717 12.3481 14.5797 12.582 14.333 12.7468C14.0863 12.9116 13.7962 12.9997 13.4995 12.9997C13.1017 12.9997 12.7203 12.8416 12.439 12.5603C12.1577 12.279 11.9995 11.8976 11.9995 11.4997Z" fill="#494A4A"/>
</g>
<defs>
<filter id="filter0_d_231_3" x="401" y="2" width="37" height="22" filterUnits="userSpaceOnUse" color-interpolation-filters="sRGB">
<feFlood flood-opacity="0" result="BackgroundImageFix"/>
<feColorMatrix in="SourceAlpha" type="matrix" values="0 0 0 0 0 0 0 0 0 0 0 0 0 0 0 0 0 0 127 0" result="hardAlpha"/>
<feOffset dy="1"/>
<feGaussianBlur stdDeviation="0.5"/>
<feColorMatrix type="matrix" values="0 0 0 0 0.0862745 0 0 0 0 0.243137 0 0 0 0 0.34902 0 0 0 0.1 0"/>
<feBlend mode="normal" in2="BackgroundImageFix" result="effect1_dropShadow_231_3"/>
<feBlend mode="normal" in="SourceGraphic" in2="effect1_dropShadow_231_3" result="shape"/>
</filter>
<filter id="filter1_d_231_3" x="351" y="2" width="37" height="21.9998" filterUnits="userSpaceOnUse" color-interpolation-filters="sRGB">
<feFlood flood-opacity="0" result="BackgroundImageFix"/>
<feColorMatrix in="SourceAlpha" type="matrix" values="0 0 0 0 0 0 0 0 0 0 0 0 0 0 0 0 0 0 127 0" result="hardAlpha"/>
<feOffset dy="1"/>
<feGaussianBlur stdDeviation="0.5"/>
<feColorMatrix type="matrix" values="0 0 0 0 0.0862745 0 0 0 0 0.243137 0 0 0 0 0.34902 0 0 0 0.1 0"/>
<feBlend mode="normal" in2="BackgroundImageFix" result="effect1_dropShadow_231_3"/>
<feBlend mode="normal" in="SourceGraphic" in2="effect1_dropShadow_231_3" result="shape"/>
</filter>
<filter id="filter2_d_231_3" x="301" y="2" width="37" height="21.9998" filterUnits="userSpaceOnUse" color-interpolation-filters="sRGB">
<feFlood flood-opacity="0" result="BackgroundImageFix"/>
<feColorMatrix in="SourceAlpha" type="matrix" values="0 0 0 0 0 0 0 0 0 0 0 0 0 0 0 0 0 0 127 0" result="hardAlpha"/>
<feOffset dy="1"/>
<feGaussianBlur stdDeviation="0.5"/>
<feColorMatrix type="matrix" values="0 0 0 0 0.0862745 0 0 0 0 0.243137 0 0 0 0 0.34902 0 0 0 0.1 0"/>
<feBlend mode="normal" in2="BackgroundImageFix" result="effect1_dropShadow_231_3"/>
<feBlend mode="normal" in="SourceGraphic" in2="effect1_dropShadow_231_3" result="shape"/>
</filter>
<filter id="filter3_d_231_3" x="251" y="2" width="37" height="21.9998" filterUnits="userSpaceOnUse" color-interpolation-filters="sRGB">
<feFlood flood-opacity="0" result="BackgroundImageFix"/>
<feColorMatrix in="SourceAlpha" type="matrix" values="0 0 0 0 0 0 0 0 0 0 0 0 0 0 0 0 0 0 127 0" result="hardAlpha"/>
<feOffset dy="1"/>
<feGaussianBlur stdDeviation="0.5"/>
<feColorMatrix type="matrix" values="0 0 0 0 0.0862745 0 0 0 0 0.243137 0 0 0 0 0.34902 0 0 0 0.1 0"/>
<feBlend mode="normal" in2="BackgroundImageFix" result="effect1_dropShadow_231_3"/>
<feBlend mode="normal" in="SourceGraphic" in2="effect1_dropShadow_231_3" result="shape"/>
</filter>
<filter id="filter4_d_231_3" x="151" y="2" width="37" height="22" filterUnits="userSpaceOnUse" color-interpolation-filters="sRGB">
<feFlood flood-opacity="0" result="BackgroundImageFix"/>
<feColorMatrix in="SourceAlpha" type="matrix" values="0 0 0 0 0 0 0 0 0 0 0 0 0 0 0 0 0 0 127 0" result="hardAlpha"/>
<feOffset dy="1"/>
<feGaussianBlur stdDeviation="0.5"/>
<feColorMatrix type="matrix" values="0 0 0 0 0.0862745 0 0 0 0 0.243137 0 0 0 0 0.34902 0 0 0 0.1 0"/>
<feBlend mode="normal" in2="BackgroundImageFix" result="effect1_dropShadow_231_3"/>
<feBlend mode="normal" in="SourceGraphic" in2="effect1_dropShadow_231_3" result="shape"/>
</filter>
<filter id="filter5_d_231_3" x="101" y="2" width="37" height="21.9998" filterUnits="userSpaceOnUse" color-interpolation-filters="sRGB">
<feFlood flood-opacity="0" result="BackgroundImageFix"/>
<feColorMatrix in="SourceAlpha" type="matrix" values="0 0 0 0 0 0 0 0 0 0 0 0 0 0 0 0 0 0 127 0" result="hardAlpha"/>
<feOffset dy="1"/>
<feGaussianBlur stdDeviation="0.5"/>
<feColorMatrix type="matrix" values="0 0 0 0 0.0862745 0 0 0 0 0.243137 0 0 0 0 0.34902 0 0 0 0.1 0"/>
<feBlend mode="normal" in2="BackgroundImageFix" result="effect1_dropShadow_231_3"/>
<feBlend mode="normal" in="SourceGraphic" in2="effect1_dropShadow_231_3" result="shape"/>
</filter>
<filter id="filter6_d_231_3" x="51" y="2" width="37" height="21.9998" filterUnits="userSpaceOnUse" color-interpolation-filters="sRGB">
<feFlood flood-opacity="0" result="BackgroundImageFix"/>
<feColorMatrix in="SourceAlpha" type="matrix" values="0 0 0 0 0 0 0 0 0 0 0 0 0 0 0 0 0 0 127 0" result="hardAlpha"/>
<feOffset dy="1"/>
<feGaussianBlur stdDeviation="0.5"/>
<feColorMatrix type="matrix" values="0 0 0 0 0.0862745 0 0 0 0 0.243137 0 0 0 0 0.34902 0 0 0 0.1 0"/>
<feBlend mode="normal" in2="BackgroundImageFix" result="effect1_dropShadow_231_3"/>
<feBlend mode="normal" in="SourceGraphic" in2="effect1_dropShadow_231_3" result="shape"/>
</filter>
<filter id="filter7_d_231_3" x="1" y="2" width="37" height="21.9998" filterUnits="userSpaceOnUse" color-interpolation-filters="sRGB">
<feFlood flood-opacity="0" result="BackgroundImageFix"/>
<feColorMatrix in="SourceAlpha" type="matrix" values="0 0 0 0 0 0 0 0 0 0 0 0 0 0 0 0 0 0 127 0" result="hardAlpha"/>
<feOffset dy="1"/>
<feGaussianBlur stdDeviation="0.5"/>
<feColorMatrix type="matrix" values="0 0 0 0 0.0862745 0 0 0 0 0.243137 0 0 0 0 0.34902 0 0 0 0.1 0"/>
<feBlend mode="normal" in2="BackgroundImageFix" result="effect1_dropShadow_231_3"/>
<feBlend mode="normal" in="SourceGraphic" in2="effect1_dropShadow_231_3" result="shape"/>
</filter>
</defs>
</svg>
