<svg width="26" height="692" viewBox="0 0 26 692" fill="none" xmlns="http://www.w3.org/2000/svg">
<path d="M25.0183 188H0.0183411V190H25.0183V188Z" fill="white"/>
<rect width="25" height="2" transform="matrix(-1 0 0 1 25.0183 187)" fill="#4E9C54"/>
<path d="M2.50187 150.006C7.15409 149.889 8.50995 151.461 9.08556 153.681C10.0346 157.341 10.9524 161.129 11.8308 164.755C12.3096 166.731 12.7766 168.658 13.2305 170.49C13.395 171.154 13.5584 171.814 13.7198 172.466L13.8379 172.943C15.1273 178.15 16.2604 182.725 16.6251 184.079L16.6321 184.106L16.6406 184.131C17.1657 185.723 17.6349 186.724 18.2458 187.481C18.3989 187.671 18.5589 187.842 18.7244 188H25.0183V190H0.0183411V188.998H0.00121307L0 150.006H2.50187Z" fill="white"/>
<path d="M0 150.001H3.28292H3.29392C4.86872 149.983 6.13813 150.327 7.23113 151.175C8.35433 152.046 9.15354 153.319 9.47094 154.771L9.47404 154.785L9.47764 154.799C10.177 157.604 11.6448 163.938 13.0355 169.961C13.2214 170.766 13.4059 171.566 13.587 172.351C14.7578 177.425 15.7867 181.883 16.1179 183.202L16.1242 183.228L16.1319 183.253C16.6087 184.804 17.0348 185.779 17.5894 186.517C18.0642 187.148 18.5976 187.571 19.168 188C20.8751 188 24.0162 187.996 25.0183 187.996" stroke="#4E9C54" stroke-width="2"/>
<rect width="25" height="2" transform="matrix(-1 0 0 1 25.0183 538)" fill="#4E9C54"/>
<path d="M2.50187 501.006H2.48976H-3.7908e-07L0.00121345 539.998H0.0831513H3.20198C5.78304 539.999 9.22444 539.999 12.666 540C15.2292 540 17.7923 540 20 540C19.3719 539.56 18.7687 539.129 18.2458 538.481C17.6349 537.724 17.1657 536.723 16.6406 535.131L16.6321 535.106L16.6251 535.079C16.2604 533.725 15.1273 529.15 13.8379 523.943C13.6384 523.137 13.4352 522.316 13.2305 521.49C11.9438 516.297 10.5518 510.336 9.08556 504.681C8.50995 502.461 7.15409 500.889 2.50187 501.006Z" fill="#4C545B"/>
<rect width="25" height="2" transform="matrix(-1 0 0 1 25.0183 539)" fill="#4C545B"/>
<path d="M0 501.001H3.28292H3.29392C4.86872 500.983 6.13813 501.327 7.23113 502.175C8.35433 503.046 9.15354 504.319 9.47094 505.771L9.47404 505.785L9.47764 505.799C10.177 508.604 11.6448 514.938 13.0355 520.961C13.2214 521.766 13.4059 522.566 13.587 523.351C14.7578 528.425 15.7867 532.883 16.1179 534.202L16.1242 534.228L16.1319 534.253C16.6087 535.804 17.0348 536.779 17.5894 537.517C18.0642 538.148 18.5976 538.571 19.168 539C20.8751 539 24.0162 538.996 25.0183 538.996" stroke="#4E9C54" stroke-width="2"/>
<path d="M2.50187 201.006H2.48976H-3.7908e-07L0.00121345 239.998H0.0831513H3.20198C5.78304 239.999 9.22444 239.999 12.666 240C15.2292 240 17.7923 240 20 240C19.3719 239.56 18.7687 239.129 18.2458 238.481C17.6349 237.724 17.1657 236.723 16.6406 235.131L16.6321 235.106L16.6251 235.079C16.2604 233.725 15.1273 229.15 13.8379 223.943C13.6384 223.137 13.4352 222.316 13.2305 221.49C11.9438 216.297 10.5518 210.336 9.08556 204.681C8.50995 202.461 7.15409 200.889 2.50187 201.006Z" fill="white"/>
<path d="M18.6785 240H21.7371C21.2171 239.61 18.7822 237.441 18.3822 236.911C17.9222 236.291 17.5322 235.411 17.0822 233.951C16.3122 230.871 15.5922 227.711 14.9022 224.661C14.6022 223.351 14.3122 222.041 14.0022 220.731C12.6522 214.891 11.1522 208.421 10.4422 205.551C10.0722 203.881 9.15218 202.401 7.84218 201.381C6.59218 200.421 5.15218 199.981 3.27218 200.001L0.0183411 200V202L3.28218 202.001C4.73218 201.981 5.73218 202.281 6.60218 202.961C7.54218 203.691 8.21218 204.761 8.48218 205.981C9.20218 208.881 10.7022 215.351 12.0522 221.181C12.3522 222.491 12.6522 223.791 12.9522 225.101C13.6422 228.161 14.3622 231.331 15.1422 234.441L15.1722 234.541C15.7022 236.251 16.1622 237.291 16.7822 238.111C17.3545 238.87 17.9681 239.387 18.6785 240Z" fill="#2181C4"/>
<rect width="25" height="2" transform="matrix(-1 0 0 1 25.0183 238)" fill="#4E9C54"/>
<path d="M2.50187 251.006H2.48976H-3.7908e-07L0.00121345 289.998H0.0831513H3.20198C5.78304 289.999 9.22444 289.999 12.666 290C15.2292 290 17.7923 290 20 290C19.3719 289.56 18.7687 289.129 18.2458 288.481C17.6349 287.724 17.1657 286.723 16.6406 285.131L16.6321 285.106L16.6251 285.079C16.2604 283.725 15.1273 279.15 13.8379 273.943C13.6384 273.137 13.4352 272.316 13.2305 271.49C11.9438 266.297 10.5518 260.336 9.08556 254.681C8.50995 252.461 7.15409 250.889 2.50187 251.006Z" fill="#D2EAFA"/>
<path d="M18.6785 290H21.7371C21.2171 289.61 18.7822 287.441 18.3822 286.911C17.9222 286.291 17.5322 285.411 17.0822 283.951C16.3122 280.871 15.5922 277.711 14.9022 274.661C14.6022 273.351 14.3122 272.041 14.0022 270.731C12.6522 264.891 11.1522 258.421 10.4422 255.551C10.0722 253.881 9.15218 252.401 7.84218 251.381C6.59218 250.421 5.15218 249.981 3.27218 250.001L0.0183411 250V252L3.28218 252.001C4.73218 251.981 5.73218 252.281 6.60218 252.961C7.54218 253.691 8.21218 254.761 8.48218 255.981C9.20218 258.881 10.7022 265.351 12.0522 271.181C12.3522 272.491 12.6522 273.791 12.9522 275.101C13.6422 278.161 14.3622 281.331 15.1422 284.441L15.1722 284.541C15.7022 286.251 16.1622 287.291 16.7822 288.111C17.3545 288.87 17.9681 289.387 18.6785 290Z" fill="#2181C4"/>
<rect width="25" height="2" transform="matrix(-1 0 0 1 25.0183 288)" fill="#4E9C54"/>
<path d="M2.50187 301.506H2.48976L0.0183411 301.5V340.498H0.0831509H3.20198C5.78304 340.499 9.22444 340.499 12.666 340.5C15.2292 340.5 17.7923 340.5 20 340.5C19.3719 340.06 18.7687 339.629 18.2458 338.981C17.6349 338.224 17.1657 337.223 16.6406 335.631L16.6321 335.606L16.6251 335.579C16.2604 334.225 15.1273 329.65 13.8379 324.443C13.6384 323.637 13.4352 322.816 13.2305 321.99C11.9438 316.797 10.5518 310.836 9.08556 305.181C8.50995 302.961 7.15409 301.389 2.50187 301.506Z" fill="white"/>
<rect width="6" height="2" transform="matrix(-1 0 0 1 25.0183 338)" fill="#4E9C54"/>
<path d="M18.6785 340H21.7371C21.2171 339.61 18.7822 337.441 18.3822 336.911C17.9222 336.291 17.5322 335.411 17.0822 333.951C16.3122 330.871 15.5922 327.711 14.9022 324.661C14.6022 323.351 14.3122 322.041 14.0022 320.731C12.6522 314.891 11.1522 308.421 10.4422 305.551C10.0722 303.881 9.15218 302.401 7.84218 301.381C6.59218 300.421 5.15218 299.981 3.27218 300.001L0.0183411 300V302L3.28218 302.001C4.73218 301.981 5.73218 302.281 6.60218 302.961C7.54218 303.691 8.21218 304.761 8.48218 305.981C9.20218 308.881 10.7022 315.351 12.0522 321.181C12.3522 322.491 12.6522 323.791 12.9522 325.101C13.6422 328.161 14.3622 331.331 15.1422 334.441L15.1722 334.541C15.7022 336.251 16.1622 337.291 16.7822 338.111C17.3545 338.87 17.9681 339.387 18.6785 340Z" fill="#2181C4"/>
<rect width="25" height="2" transform="matrix(-1 0 0 1 25.0183 689)" fill="#4E9C54"/>
<path d="M2.50187 652.006H2.48976L0.0183411 652V690.998H0.0831509H3.20198C5.78304 690.999 9.22444 690.999 12.666 691C15.2292 691 17.7923 691 20 691C19.3719 690.56 18.7687 690.129 18.2458 689.481C17.6349 688.724 17.1657 687.723 16.6406 686.131L16.6321 686.106L16.6251 686.079C16.2604 684.725 15.1273 680.15 13.8379 674.943C13.6384 674.137 13.4352 673.316 13.2305 672.49C11.9438 667.297 10.5518 661.336 9.08556 655.681C8.50995 653.461 7.15409 651.889 2.50187 652.006Z" fill="#4C545B"/>
<rect width="20" height="2" transform="matrix(-1 0 0 1 20.0183 690)" fill="#4C545B"/>
<path d="M18.6785 691H21.7371C21.2171 690.61 18.7822 688.441 18.3822 687.911C17.9222 687.291 17.5322 686.411 17.0822 684.951C16.3122 681.871 15.5922 678.711 14.9022 675.661C14.6022 674.351 14.3122 673.041 14.0022 671.731C12.6522 665.891 11.1522 659.421 10.4422 656.551C10.0722 654.881 9.15218 653.401 7.84218 652.381C6.59218 651.421 5.15218 650.981 3.27218 651.001L0.0183411 651V653L3.28218 653.001C4.73218 652.981 5.73218 653.281 6.60218 653.961C7.54218 654.691 8.21218 655.761 8.48218 656.981C9.20218 659.881 10.7022 666.351 12.0522 672.181C12.3522 673.491 12.6522 674.791 12.9522 676.101C13.6422 679.161 14.3622 682.331 15.1422 685.441L15.1722 685.541C15.7022 687.251 16.1622 688.291 16.7822 689.111C17.3545 689.87 17.9681 690.387 18.6785 691Z" fill="#E4EBF0"/>
<path d="M2.50187 551.006H2.48976H-3.7908e-07L0.00121345 589.998H0.0831513H3.20198C5.78304 589.999 9.22444 589.999 12.666 590C15.2292 590 17.7923 590 20 590C19.3719 589.56 18.7687 589.129 18.2458 588.481C17.6349 587.724 17.1657 586.723 16.6406 585.131L16.6321 585.106L16.6251 585.079C16.2604 583.725 15.1273 579.15 13.8379 573.943C13.6384 573.137 13.4352 572.316 13.2305 571.49C11.9438 566.297 10.5518 560.336 9.08556 554.681C8.50995 552.461 7.15409 550.889 2.50187 551.006Z" fill="#4C545B"/>
<path d="M0 551.001H3.28292H3.29392C4.86872 550.983 6.13813 551.327 7.23113 552.175C8.35433 553.046 9.15354 554.319 9.47094 555.771L9.47404 555.785L9.47764 555.799C10.177 558.604 11.6448 564.938 13.0355 570.961C13.2214 571.766 13.4059 572.566 13.587 573.351C14.7578 578.425 15.7867 582.883 16.1179 584.202L16.1242 584.228L16.1319 584.253C16.6087 585.804 17.0348 586.779 17.5894 587.517C18.0642 588.148 18.5976 588.571 19.168 589" stroke="#E4EBF0" stroke-width="2"/>
<rect width="25" height="2" transform="matrix(-1 0 0 1 25.0183 588)" fill="#4E9C54"/>
<path d="M2.50187 601.006H2.48976H-3.7908e-07L0.00121345 639.998H0.0831513H3.20198C5.78304 639.999 9.22444 639.999 12.666 640C15.2292 640 17.7923 640 20 640C19.3719 639.56 18.7687 639.129 18.2458 638.481C17.6349 637.724 17.1657 636.723 16.6406 635.131L16.6321 635.106L16.6251 635.079C16.2604 633.725 15.1273 629.15 13.8379 623.943C13.6384 623.137 13.4352 622.316 13.2305 621.49C11.9438 616.297 10.5518 610.336 9.08556 604.681C8.50995 602.461 7.15409 600.889 2.50187 601.006Z" fill="#86929B"/>
<path d="M0 601.001H3.28292H3.29392C4.86872 600.983 6.13813 601.327 7.23113 602.175C8.35433 603.046 9.15354 604.319 9.47094 605.771L9.47404 605.785L9.47764 605.799C10.177 608.604 11.6448 614.938 13.0355 620.961C13.2214 621.766 13.4059 622.566 13.587 623.351C14.7578 628.425 15.7867 632.883 16.1179 634.202L16.1242 634.228L16.1319 634.253C16.6087 635.804 17.0348 636.779 17.5894 637.517C18.0642 638.148 18.5976 638.571 19.168 639" stroke="#E4EBF0" stroke-width="2"/>
<rect width="25" height="2" transform="matrix(-1 0 0 1 25.0183 638)" fill="#4E9C54"/>
<path d="M3.07844 100.5L0.0183411 100.915L0.0183392 138.915C7.27183 138.915 14.5279 139.046 21.7878 139.046C21.1933 138.599 18.729 138.114 18.2341 137.457C17.3695 136.307 16.8838 135.079 16.2837 133.23C13.7241 123.041 12.0595 114.594 9.60351 104.436C8.91761 101.599 5.4399 100.831 3.07844 100.5Z" fill="#D2EAFA"/>
<path d="M0.0137348 100.5L2.60628 100.5C4.55142 100.5 5.96289 100.566 7.39359 101.758C8.7765 102.808 9.43669 103.832 9.89774 105.437C12.3167 115.039 14.2764 124.709 16.6401 134.269L16.6472 134.296L16.6558 134.321C17.1873 135.896 17.6622 136.885 18.2805 137.634C18.8097 138.275 20.04 139.14 20.04 139.14" stroke="#1482CC"/>
<rect width="25" height="2" transform="matrix(-1 0 0 1 25.0183 138)" fill="#4E9C54"/>
<path d="M3.07844 351.5L0.0183411 351.915L0.0183392 389.915C7.27183 389.915 14.5279 390.046 21.7878 390.046C21.1933 389.599 18.729 389.114 18.2341 388.457C17.3695 387.307 16.8838 386.079 16.2837 384.23C13.7241 374.041 12.0595 365.594 9.60351 355.436C8.91761 352.599 5.4399 351.831 3.07844 351.5Z" fill="#4C545B"/>
<path d="M0.0137348 351.5L2.60628 351.5C4.55142 351.5 5.96289 351.566 7.39359 352.758C8.7765 353.808 9.43669 354.832 9.89774 356.437C12.3167 366.039 14.2764 375.709 16.6401 385.269L16.6472 385.296L16.6558 385.321C17.1873 386.896 17.6622 387.885 18.2805 388.634C18.8097 389.275 20.04 390.14 20.04 390.14" stroke="#6F7A82"/>
<rect width="25" height="2" transform="matrix(-1 0 0 1 25.0183 389)" fill="#4E9C54"/>
<path d="M3.07844 401.5L0.0183411 401.915L0.0183392 439.915C7.27183 439.915 14.5279 440.046 21.7878 440.046C21.1933 439.599 18.729 439.114 18.2341 438.457C17.3695 437.307 16.8838 436.079 16.2837 434.23C13.7241 424.041 12.0595 415.594 9.60351 405.436C8.91761 402.599 5.4399 401.831 3.07844 401.5Z" fill="#2B3033"/>
<path d="M0.0137348 401.5L2.60628 401.5C4.55142 401.5 5.96289 401.566 7.39359 402.758C8.7765 403.808 9.43669 404.832 9.89774 406.437C12.3167 416.039 14.2764 425.709 16.6401 435.269L16.6472 435.296L16.6558 435.321C17.1873 436.896 17.6622 437.885 18.2805 438.634C18.8097 439.275 20.04 440.14 20.04 440.14" stroke="#4C545B"/>
<rect width="25" height="2" transform="matrix(-1 0 0 1 25.0183 439)" fill="#4E9C54"/>
<path d="M3.07844 451.5L0.0183411 451.915L0.0183392 489.915C7.27183 489.915 14.5279 490.046 21.7878 490.046C21.1933 489.599 18.729 489.114 18.2341 488.457C17.3695 487.307 16.8838 486.079 16.2837 484.23C13.7241 474.041 12.0595 465.594 9.60351 455.436C8.91761 452.599 5.4399 451.831 3.07844 451.5Z" fill="#86929B"/>
<path d="M0.0137348 451.5L2.60628 451.5C4.55142 451.5 5.96289 451.566 7.39359 452.758C8.7765 453.808 9.43669 454.832 9.89774 456.437C12.3167 466.039 14.2764 475.709 16.6401 485.269L16.6472 485.296L16.6558 485.321C17.1873 486.896 17.6622 487.885 18.2805 488.634C18.8097 489.275 20.04 490.14 20.04 490.14" stroke="#9AA5AE"/>
<rect width="25" height="2" transform="matrix(-1 0 0 1 25.0183 489)" fill="#4E9C54"/>
<path d="M3.07844 50.5L0.0183411 50.9149L0.0183392 88.9149C7.27183 88.9149 14.5279 89.0455 21.7878 89.0455C21.1933 88.5986 18.729 88.1141 18.2341 87.4567C17.3695 86.307 16.8838 85.0791 16.2837 83.2299C13.7241 73.0409 12.0595 64.5943 9.60351 54.4358C8.91761 51.5987 5.4399 50.8314 3.07844 50.5Z" fill="white"/>
<path d="M0.0137348 50.5L2.60628 50.5C4.55142 50.5 5.96289 50.5659 7.39359 51.7577C8.7765 52.8078 9.43669 53.832 9.89774 55.4365C12.3167 65.0392 14.2764 74.7089 16.6401 84.2693L16.6472 84.2957L16.6558 84.3211C17.1873 85.8955 17.6622 86.8853 18.2805 87.6344C18.8097 88.275 20.04 89.1399 20.04 89.1399" stroke="#C0C0C0"/>
<rect width="25" height="2" transform="matrix(-1 0 0 1 25.0183 88)" fill="#4E9C54"/>
<path d="M3.07844 0.5L0.0183411 0.914856L0.0183392 38.9149C7.27183 38.9149 14.5279 39.0455 21.7878 39.0455C21.1933 38.5986 18.729 38.1141 18.2341 37.4567C17.3695 36.307 16.8838 35.0791 16.2837 33.2299C13.7241 23.0409 12.0595 14.5943 9.60351 4.43575C8.91761 1.59868 5.4399 0.831432 3.07844 0.5Z" fill="white"/>
<path d="M0.0137348 0.5L2.60628 0.5C4.55142 0.499979 5.96289 0.565918 7.39359 1.75768C8.7765 2.80778 9.43669 3.83205 9.89774 5.43651C12.3167 15.0392 14.2764 24.7089 16.6401 34.2693L16.6472 34.2957L16.6558 34.3211C17.1873 35.8955 17.6622 36.8853 18.2805 37.6344C18.8097 38.275 20.04 39.1399 20.04 39.1399" stroke="#8A8A8A"/>
<rect width="25" height="2" transform="matrix(-1 0 0 1 25.0183 38)" fill="#4E9C54"/>
</svg>
