<svg width="26" height="692" viewBox="0 0 26 692" fill="none" xmlns="http://www.w3.org/2000/svg">
<path d="M0 188H25V190H0V188Z" fill="white"/>
<rect y="187" width="25" height="2" fill="#4E9C54"/>
<path d="M22.5165 150.006C17.8643 149.889 16.5084 151.461 15.9328 153.681C14.9838 157.341 14.0659 161.129 13.1875 164.755C12.7088 166.731 12.2418 168.658 11.7878 170.49C11.6234 171.154 11.4599 171.814 11.2986 172.466L11.1805 172.943C9.89104 178.15 8.75793 182.725 8.39321 184.079L8.3862 184.106L8.37777 184.131C7.85266 185.723 7.38341 186.724 6.77255 187.481C6.61942 187.671 6.45941 187.842 6.2939 188H0V190H25V188.998H25.0171L25.0183 150.006H22.5165Z" fill="white"/>
<path d="M25.0183 150.001H21.7354H21.7244C20.1496 149.983 18.8802 150.327 17.7872 151.175C16.664 152.046 15.8648 153.319 15.5474 154.771L15.5443 154.785L15.5407 154.799C14.8413 157.604 13.3735 163.938 11.9828 169.961C11.7969 170.766 11.6124 171.566 11.4313 172.351C10.2605 177.425 9.23164 181.883 8.90047 183.202L8.89411 183.228L8.88645 183.253C8.40965 184.804 7.98357 185.779 7.42891 186.517C6.95412 187.148 6.42069 187.571 5.85037 188C4.14325 188 1.00213 187.996 0 187.996" stroke="#4E9C54" stroke-width="2"/>
<rect y="538" width="25" height="2" fill="#4E9C54"/>
<path d="M22.5165 501.006H22.5286H25.0183L25.0171 539.998H24.9352H21.8164C19.2353 539.999 15.7939 539.999 12.3524 540C9.78916 540 7.22602 540 5.01834 540C5.64645 539.56 6.24965 539.129 6.77255 538.481C7.38341 537.724 7.85266 536.723 8.37777 535.131L8.3862 535.106L8.39321 535.079C8.75793 533.725 9.89104 529.15 11.1805 523.943C11.3799 523.137 11.5831 522.316 11.7878 521.49C13.0746 516.297 14.4666 510.336 15.9328 504.681C16.5084 502.461 17.8643 500.889 22.5165 501.006Z" fill="#4C545B"/>
<rect y="539" width="25" height="2" fill="#4C545B"/>
<path d="M25.0183 501.001H21.7354H21.7244C20.1496 500.983 18.8802 501.327 17.7872 502.175C16.664 503.046 15.8648 504.319 15.5474 505.771L15.5443 505.785L15.5407 505.799C14.8413 508.604 13.3735 514.938 11.9828 520.961C11.7969 521.766 11.6124 522.566 11.4313 523.351C10.2605 528.425 9.23164 532.883 8.90047 534.202L8.89411 534.228L8.88645 534.253C8.40965 535.804 7.98357 536.779 7.42891 537.517C6.95412 538.148 6.42069 538.571 5.85037 539C4.14325 539 1.00213 538.996 0 538.996" stroke="#4E9C54" stroke-width="2"/>
<path d="M22.5165 201.006H22.5286H25.0183L25.0171 239.998H24.9352H21.8164C19.2353 239.999 15.7939 239.999 12.3524 240C9.78916 240 7.22602 240 5.01834 240C5.64645 239.56 6.24965 239.129 6.77255 238.481C7.38341 237.724 7.85266 236.723 8.37777 235.131L8.3862 235.106L8.39321 235.079C8.75793 233.725 9.89104 229.15 11.1805 223.943C11.3799 223.137 11.5831 222.316 11.7878 221.49C13.0746 216.297 14.4666 210.336 15.9328 204.681C16.5084 202.461 17.8643 200.889 22.5165 201.006Z" fill="white"/>
<path d="M6.33984 240H3.28125C3.80125 239.61 6.23616 237.441 6.63616 236.911C7.09616 236.291 7.48616 235.411 7.93616 233.951C8.70616 230.871 9.42616 227.711 10.1162 224.661C10.4162 223.351 10.7062 222.041 11.0162 220.731C12.3662 214.891 13.8662 208.421 14.5762 205.551C14.9462 203.881 15.8662 202.401 17.1762 201.381C18.4262 200.421 19.8662 199.981 21.7462 200.001L25 200V202L21.7362 202.001C20.2862 201.981 19.2862 202.281 18.4162 202.961C17.4762 203.691 16.8062 204.761 16.5362 205.981C15.8162 208.881 14.3162 215.351 12.9662 221.181C12.6662 222.491 12.3662 223.791 12.0662 225.101C11.3762 228.161 10.6562 231.331 9.87616 234.441L9.84616 234.541C9.31616 236.251 8.85616 237.291 8.23616 238.111C7.66389 238.87 7.05027 239.387 6.33984 240Z" fill="#2181C4"/>
<rect y="238" width="25" height="2" fill="#4E9C54"/>
<path d="M22.5165 251.006H22.5286H25.0183L25.0171 289.998H24.9352H21.8164C19.2353 289.999 15.7939 289.999 12.3524 290C9.78916 290 7.22602 290 5.01834 290C5.64645 289.56 6.24965 289.129 6.77255 288.481C7.38341 287.724 7.85266 286.723 8.37777 285.131L8.3862 285.106L8.39321 285.079C8.75793 283.725 9.89104 279.15 11.1805 273.943C11.3799 273.137 11.5831 272.316 11.7878 271.49C13.0746 266.297 14.4666 260.336 15.9328 254.681C16.5084 252.461 17.8643 250.889 22.5165 251.006Z" fill="#D2EAFA"/>
<path d="M6.33984 290H3.28125C3.80125 289.61 6.23616 287.441 6.63616 286.911C7.09616 286.291 7.48616 285.411 7.93616 283.951C8.70616 280.871 9.42616 277.711 10.1162 274.661C10.4162 273.351 10.7062 272.041 11.0162 270.731C12.3662 264.891 13.8662 258.421 14.5762 255.551C14.9462 253.881 15.8662 252.401 17.1762 251.381C18.4262 250.421 19.8662 249.981 21.7462 250.001L25 250V252L21.7362 252.001C20.2862 251.981 19.2862 252.281 18.4162 252.961C17.4762 253.691 16.8062 254.761 16.5362 255.981C15.8162 258.881 14.3162 265.351 12.9662 271.181C12.6662 272.491 12.3662 273.791 12.0662 275.101C11.3762 278.161 10.6562 281.331 9.87616 284.441L9.84616 284.541C9.31616 286.251 8.85616 287.291 8.23616 288.111C7.66389 288.87 7.05027 289.387 6.33984 290Z" fill="#2181C4"/>
<rect y="288" width="25" height="2" fill="#4E9C54"/>
<path d="M22.5165 301.506H22.5286L25 301.5V340.498H24.9352H21.8164C19.2353 340.499 15.7939 340.499 12.3524 340.5C9.78916 340.5 7.22602 340.5 5.01834 340.5C5.64645 340.06 6.24965 339.629 6.77255 338.981C7.38341 338.224 7.85266 337.223 8.37777 335.631L8.3862 335.606L8.39321 335.579C8.75793 334.225 9.89104 329.65 11.1805 324.443C11.3799 323.637 11.5831 322.816 11.7878 321.99C13.0746 316.797 14.4666 310.836 15.9328 305.181C16.5084 302.961 17.8643 301.389 22.5165 301.506Z" fill="white"/>
<rect y="338" width="6" height="2" fill="#4E9C54"/>
<path d="M6.33984 340H3.28125C3.80125 339.61 6.23616 337.441 6.63616 336.911C7.09616 336.291 7.48616 335.411 7.93616 333.951C8.70616 330.871 9.42616 327.711 10.1162 324.661C10.4162 323.351 10.7062 322.041 11.0162 320.731C12.3662 314.891 13.8662 308.421 14.5762 305.551C14.9462 303.881 15.8662 302.401 17.1762 301.381C18.4262 300.421 19.8662 299.981 21.7462 300.001L25 300V302L21.7362 302.001C20.2862 301.981 19.2862 302.281 18.4162 302.961C17.4762 303.691 16.8062 304.761 16.5362 305.981C15.8162 308.881 14.3162 315.351 12.9662 321.181C12.6662 322.491 12.3662 323.791 12.0662 325.101C11.3762 328.161 10.6562 331.331 9.87616 334.441L9.84616 334.541C9.31616 336.251 8.85616 337.291 8.23616 338.111C7.66389 338.87 7.05027 339.387 6.33984 340Z" fill="#2181C4"/>
<rect y="689" width="25" height="2" fill="#4E9C54"/>
<path d="M22.5165 652.006H22.5286L25 652V690.998H24.9352H21.8164C19.2353 690.999 15.7939 690.999 12.3524 691C9.78916 691 7.22602 691 5.01834 691C5.64645 690.56 6.24965 690.129 6.77255 689.481C7.38341 688.724 7.85266 687.723 8.37777 686.131L8.3862 686.106L8.39321 686.079C8.75793 684.725 9.89104 680.15 11.1805 674.943C11.3799 674.137 11.5831 673.316 11.7878 672.49C13.0746 667.297 14.4666 661.336 15.9328 655.681C16.5084 653.461 17.8643 651.889 22.5165 652.006Z" fill="#4C545B"/>
<rect x="5" y="690" width="20" height="2" fill="#4C545B"/>
<path d="M6.33984 691H3.28125C3.80125 690.61 6.23616 688.441 6.63616 687.911C7.09616 687.291 7.48616 686.411 7.93616 684.951C8.70616 681.871 9.42616 678.711 10.1162 675.661C10.4162 674.351 10.7062 673.041 11.0162 671.731C12.3662 665.891 13.8662 659.421 14.5762 656.551C14.9462 654.881 15.8662 653.401 17.1762 652.381C18.4262 651.421 19.8662 650.981 21.7462 651.001L25 651V653L21.7362 653.001C20.2862 652.981 19.2862 653.281 18.4162 653.961C17.4762 654.691 16.8062 655.761 16.5362 656.981C15.8162 659.881 14.3162 666.351 12.9662 672.181C12.6662 673.491 12.3662 674.791 12.0662 676.101C11.3762 679.161 10.6562 682.331 9.87616 685.441L9.84616 685.541C9.31616 687.251 8.85616 688.291 8.23616 689.111C7.66389 689.87 7.05027 690.387 6.33984 691Z" fill="#E4EBF0"/>
<path d="M22.5165 551.006H22.5286H25.0183L25.0171 589.998H24.9352H21.8164C19.2353 589.999 15.7939 589.999 12.3524 590C9.78916 590 7.22602 590 5.01834 590C5.64645 589.56 6.24965 589.129 6.77255 588.481C7.38341 587.724 7.85266 586.723 8.37777 585.131L8.3862 585.106L8.39321 585.079C8.75793 583.725 9.89104 579.15 11.1805 573.943C11.3799 573.137 11.5831 572.316 11.7878 571.49C13.0746 566.297 14.4666 560.336 15.9328 554.681C16.5084 552.461 17.8643 550.889 22.5165 551.006Z" fill="#4C545B"/>
<path d="M25.0183 551.001H21.7354H21.7244C20.1496 550.983 18.8802 551.327 17.7872 552.175C16.664 553.046 15.8648 554.319 15.5474 555.771L15.5443 555.785L15.5407 555.799C14.8413 558.604 13.3735 564.938 11.9828 570.961C11.7969 571.766 11.6124 572.566 11.4313 573.351C10.2605 578.425 9.23164 582.883 8.90047 584.202L8.89411 584.228L8.88645 584.253C8.40965 585.804 7.98357 586.779 7.42891 587.517C6.95412 588.148 6.42069 588.571 5.85037 589" stroke="#E4EBF0" stroke-width="2"/>
<rect y="588" width="25" height="2" fill="#4E9C54"/>
<path d="M22.5165 601.006H22.5286H25.0183L25.0171 639.998H24.9352H21.8164C19.2353 639.999 15.7939 639.999 12.3524 640C9.78916 640 7.22602 640 5.01834 640C5.64645 639.56 6.24965 639.129 6.77255 638.481C7.38341 637.724 7.85266 636.723 8.37777 635.131L8.3862 635.106L8.39321 635.079C8.75793 633.725 9.89104 629.15 11.1805 623.943C11.3799 623.137 11.5831 622.316 11.7878 621.49C13.0746 616.297 14.4666 610.336 15.9328 604.681C16.5084 602.461 17.8643 600.889 22.5165 601.006Z" fill="#86929B"/>
<path d="M25.0183 601.001H21.7354H21.7244C20.1496 600.983 18.8802 601.327 17.7872 602.175C16.664 603.046 15.8648 604.319 15.5474 605.771L15.5443 605.785L15.5407 605.799C14.8413 608.604 13.3735 614.938 11.9828 620.961C11.7969 621.766 11.6124 622.566 11.4313 623.351C10.2605 628.425 9.23164 632.883 8.90047 634.202L8.89411 634.228L8.88645 634.253C8.40965 635.804 7.98357 636.779 7.42891 637.517C6.95412 638.148 6.42069 638.571 5.85037 639" stroke="#E4EBF0" stroke-width="2"/>
<rect y="638" width="25" height="2" fill="#4E9C54"/>
<path d="M21.9399 100.5L25 100.915L25 138.915C17.7465 138.915 10.4905 139.046 3.2305 139.046C3.825 138.599 6.28935 138.114 6.78427 137.457C7.64882 136.307 8.13449 135.079 8.73459 133.23C11.2943 123.041 12.9589 114.594 15.4148 104.436C16.1007 101.599 19.5784 100.831 21.9399 100.5Z" fill="#D2EAFA"/>
<path d="M25.0046 100.5L22.4121 100.5C20.4669 100.5 19.0554 100.566 17.6247 101.758C16.2418 102.808 15.5816 103.832 15.1206 105.437C12.7016 115.039 10.7419 124.709 8.37819 134.269L8.3711 134.296L8.36257 134.321C7.83108 135.896 7.35614 136.885 6.73787 137.634C6.20863 138.275 4.9783 139.14 4.9783 139.14" stroke="#1482CC"/>
<rect y="138" width="25" height="2" fill="#4E9C54"/>
<path d="M21.9399 351.5L25 351.915L25 389.915C17.7465 389.915 10.4905 390.046 3.2305 390.046C3.825 389.599 6.28935 389.114 6.78427 388.457C7.64882 387.307 8.13449 386.079 8.73459 384.23C11.2943 374.041 12.9589 365.594 15.4148 355.436C16.1007 352.599 19.5784 351.831 21.9399 351.5Z" fill="#4C545B"/>
<path d="M25.0046 351.5L22.4121 351.5C20.4669 351.5 19.0554 351.566 17.6247 352.758C16.2418 353.808 15.5816 354.832 15.1206 356.437C12.7016 366.039 10.7419 375.709 8.37819 385.269L8.3711 385.296L8.36257 385.321C7.83108 386.896 7.35614 387.885 6.73787 388.634C6.20863 389.275 4.9783 390.14 4.9783 390.14" stroke="#6F7A82"/>
<rect y="389" width="25" height="2" fill="#4E9C54"/>
<path d="M21.9399 401.5L25 401.915L25 439.915C17.7465 439.915 10.4905 440.046 3.2305 440.046C3.825 439.599 6.28935 439.114 6.78427 438.457C7.64882 437.307 8.13449 436.079 8.73459 434.23C11.2943 424.041 12.9589 415.594 15.4148 405.436C16.1007 402.599 19.5784 401.831 21.9399 401.5Z" fill="#2B3033"/>
<path d="M25.0046 401.5L22.4121 401.5C20.4669 401.5 19.0554 401.566 17.6247 402.758C16.2418 403.808 15.5816 404.832 15.1206 406.437C12.7016 416.039 10.7419 425.709 8.37819 435.269L8.3711 435.296L8.36257 435.321C7.83108 436.896 7.35614 437.885 6.73787 438.634C6.20863 439.275 4.9783 440.14 4.9783 440.14" stroke="#4C545B"/>
<rect y="439" width="25" height="2" fill="#4E9C54"/>
<path d="M21.9399 451.5L25 451.915L25 489.915C17.7465 489.915 10.4905 490.046 3.2305 490.046C3.825 489.599 6.28935 489.114 6.78427 488.457C7.64882 487.307 8.13449 486.079 8.73459 484.23C11.2943 474.041 12.9589 465.594 15.4148 455.436C16.1007 452.599 19.5784 451.831 21.9399 451.5Z" fill="#86929B"/>
<path d="M25.0046 451.5L22.4121 451.5C20.4669 451.5 19.0554 451.566 17.6247 452.758C16.2418 453.808 15.5816 454.832 15.1206 456.437C12.7016 466.039 10.7419 475.709 8.37819 485.269L8.3711 485.296L8.36257 485.321C7.83108 486.896 7.35614 487.885 6.73787 488.634C6.20863 489.275 4.9783 490.14 4.9783 490.14" stroke="#9AA5AE"/>
<rect y="489" width="25" height="2" fill="#4E9C54"/>
<path d="M21.9399 50.5L25 50.9149L25 88.9149C17.7465 88.9149 10.4905 89.0455 3.2305 89.0455C3.825 88.5986 6.28935 88.1141 6.78427 87.4567C7.64882 86.307 8.13449 85.0791 8.73459 83.2299C11.2943 73.0409 12.9589 64.5943 15.4148 54.4358C16.1007 51.5987 19.5784 50.8314 21.9399 50.5Z" fill="white"/>
<path d="M25.0046 50.5L22.4121 50.5C20.4669 50.5 19.0554 50.5659 17.6247 51.7577C16.2418 52.8078 15.5816 53.832 15.1206 55.4365C12.7016 65.0392 10.7419 74.7089 8.37819 84.2693L8.3711 84.2957L8.36257 84.3211C7.83108 85.8955 7.35614 86.8853 6.73787 87.6344C6.20863 88.275 4.9783 89.1399 4.9783 89.1399" stroke="#C0C0C0"/>
<rect y="88" width="25" height="2" fill="#4E9C54"/>
<path d="M21.9399 0.5L25 0.914856L25 38.9149C17.7465 38.9149 10.4905 39.0455 3.2305 39.0455C3.825 38.5986 6.28935 38.1141 6.78427 37.4567C7.64882 36.307 8.13449 35.0791 8.73459 33.2299C11.2943 23.0409 12.9589 14.5943 15.4148 4.43575C16.1007 1.59868 19.5784 0.831432 21.9399 0.5Z" fill="white"/>
<path d="M25.0046 0.5L22.4121 0.5C20.4669 0.499979 19.0554 0.565918 17.6247 1.75768C16.2418 2.80778 15.5816 3.83205 15.1206 5.43651C12.7016 15.0392 10.7419 24.7089 8.37819 34.2693L8.3711 34.2957L8.36257 34.3211C7.83108 35.8955 7.35614 36.8853 6.73787 37.6344C6.20863 38.275 4.9783 39.1399 4.9783 39.1399" stroke="#8A8A8A"/>
<rect y="38" width="25" height="2" fill="#4E9C54"/>
</svg>
