<svg width="25" height="692" viewBox="0 0 25 692" fill="none" xmlns="http://www.w3.org/2000/svg">
<rect y="0.496094" width="25" height="37.981" fill="white"/>
<rect y="38" width="25" height="2" fill="#4E9C54"/>
<path d="M25 0.5L0 0.50001" stroke="#8A8A8A"/>
<rect y="50.4961" width="25" height="37.981" fill="white"/>
<rect y="88" width="25" height="2" fill="#4E9C54"/>
<path d="M25 50.5L0 50.5" stroke="#C0C0C0"/>
<rect y="100.496" width="25" height="37.981" fill="#D2EAFA"/>
<path d="M25 100.5L0 100.5" stroke="#1482CC"/>
<rect y="138" width="25" height="2" fill="#4E9C54"/>
<rect y="351.996" width="25" height="37.981" fill="#4C545B"/>
<path d="M25 351.5L0 351.5" stroke="#6F7A82"/>
<rect y="389" width="25" height="2" fill="#4E9C54"/>
<rect y="401.996" width="25" height="37.981" fill="#2B3033"/>
<rect y="439" width="25" height="2" fill="#4E9C54"/>
<path d="M25 401.5L0 401.5" stroke="#4C545B"/>
<rect y="451.996" width="25" height="37.981" fill="#86929B"/>
<rect y="489" width="25" height="2" fill="#4E9C54"/>
<path d="M25 451.5L0 451.5" stroke="#9AA5AE"/>
<path d="M25 150H0V189.981H25V150Z" fill="white"/>
<path d="M25 150L0 150" stroke="#4E9C54" stroke-width="2"/>
<path d="M0 188H25V190H0V188Z" fill="white"/>
<rect y="201" width="25" height="37.981" fill="white"/>
<rect y="238" width="25" height="2" fill="#4E9C54"/>
<path d="M25 201L0 201" stroke="#1482CC" stroke-width="2"/>
<rect y="251.515" width="25" height="37.981" fill="#D2EAFA"/>
<rect y="288" width="25" height="2" fill="#4E9C54"/>
<path d="M25 251L0 251" stroke="#1482CC" stroke-width="2"/>
<rect y="551.018" width="25" height="37.981" fill="#4C545B"/>
<rect y="588" width="25" height="2" fill="#4E9C54"/>
<path d="M25 551L0 551" stroke="#E4EBF0" stroke-width="2"/>
<rect y="601.018" width="25" height="37.981" fill="#86929B"/>
<rect y="638" width="25" height="2" fill="#4E9C54"/>
<path d="M25 601L0 601" stroke="#E4EBF0" stroke-width="2"/>
<rect y="301.519" width="25" height="38.9813" fill="white"/>
<path d="M25 301L0 301" stroke="#1482CC" stroke-width="2"/>
<rect y="501.019" width="25" height="38.9813" fill="#4C545B"/>
<path d="M25 501L0 501" stroke="#4E9C54" stroke-width="2"/>
<rect y="539" width="25" height="2" fill="#4C545B"/>
<rect y="652.019" width="25" height="38.9813" fill="#4C545B"/>
<path d="M25 652L0 652" stroke="#E4EBF0" stroke-width="2"/>
<rect y="690" width="25" height="2" fill="#4C545B"/>
</svg>
