<svg width="16" height="16" viewBox="0 0 16 16" fill="none" xmlns="http://www.w3.org/2000/svg">
<path d="M8 0C6.41775 0 4.87103 0.469192 3.55544 1.34824C2.23985 2.22729 1.21447 3.47672 0.608967 4.93853C0.00346625 6.40034 -0.15496 8.00887 0.153721 9.56072C0.462403 11.1126 1.22433 12.538 2.34315 13.6569C3.46197 14.7757 4.88743 15.5376 6.43928 15.8463C7.99113 16.155 9.59967 15.9965 11.0615 15.391C12.5233 14.7855 13.7727 13.7602 14.6518 12.4446C15.5308 11.129 16 9.58225 16 8C16 5.87827 15.1571 3.84344 13.6569 2.34315C12.1566 0.842855 10.1217 0 8 0ZM9.5 10.9C9.3433 11.2415 9.08837 11.5286 8.76775 11.7245C8.44714 11.9204 8.07539 12.0163 7.7 12C7.1 12 6.5 11.3 6.6 10.9L7.5 8C7.5 7.9 7.50001 7.8 7.40001 7.8L6.2 8.2V8C6.44362 7.6302 6.76842 7.32088 7.14967 7.09559C7.53092 6.87031 7.95856 6.73501 8.40001 6.7C8.90001 6.8 9.00001 7.3 8.90001 7.8L8.1 10.8C8.1 11 8.2 11.1 8.5 11.1C8.8 11.1 9.5 10.3 9.5 10.4V10.9ZM8.43001 6C8.14903 6.01126 7.87457 5.9135 7.66399 5.72714C7.45341 5.54079 7.323 5.28026 7.30001 5C7.30001 4.70826 7.4159 4.42847 7.62219 4.22218C7.82848 4.01589 8.10827 3.9 8.40001 3.9C8.69174 3.9 8.97153 4.01589 9.17782 4.22218C9.38411 4.42847 9.5 4.70826 9.5 5C9.47991 5.27063 9.35866 5.52378 9.1604 5.70907C8.96213 5.89437 8.70137 5.99823 8.43001 6Z" fill="var(--visma-informative-info-color, var(--icon-informative-info-bg, #1482CC))"/>
</svg>
