<svg width="48" height="48" viewBox="0 0 48 48" fill="none" xmlns="http://www.w3.org/2000/svg">
<path d="M24 0C19.2533 0 14.6131 1.40758 10.6663 4.04473C6.71955 6.68188 3.64341 10.4302 1.82691 14.8156C0.0104057 19.201 -0.464884 24.0266 0.461162 28.6822C1.38721 33.3377 3.67299 37.6141 7.02945 40.9706C10.3859 44.327 14.6623 46.6128 19.3178 47.5388C23.9734 48.4649 28.799 47.9896 33.1844 46.1731C37.5699 44.3566 41.3181 41.2805 43.9553 37.3337C46.5924 33.3869 48 28.7468 48 24C48 17.6348 45.4715 11.5303 40.9706 7.02944C36.4697 2.52856 30.3652 0 24 0ZM24.96 14.4C25.3398 14.4 25.711 14.5126 26.0267 14.7236C26.3425 14.9346 26.5885 15.2344 26.7339 15.5852C26.8792 15.9361 26.9172 16.3221 26.8431 16.6946C26.769 17.067 26.5862 17.4091 26.3177 17.6776C26.0491 17.9462 25.707 18.129 25.3346 18.2031C24.9621 18.2772 24.5761 18.2392 24.2253 18.0938C23.8744 17.9485 23.5746 17.7024 23.3636 17.3867C23.1526 17.071 23.04 16.6997 23.04 16.32C23.04 15.8108 23.2423 15.3224 23.6024 14.9624C23.9624 14.6023 24.4508 14.4 24.96 14.4ZM26.88 30.432C26.4643 31.0814 25.8984 31.6211 25.2299 32.0054C24.5615 32.3898 23.8104 32.6074 23.04 32.64C21.12 32.64 20.928 31.104 21.216 29.856L23.04 24C23.0772 23.872 23.0688 23.735 23.0163 23.6125C22.9638 23.4899 22.8704 23.3894 22.752 23.328C21.8504 23.3496 20.978 23.6516 20.256 24.192C20.208 23.7453 20.208 23.2947 20.256 22.848C22.08 21.024 23.04 20.16 24.096 20.16C25.152 20.16 26.016 21.408 25.728 23.232L24 29.664C23.904 30.336 24.192 30.528 24.672 30.528C25.152 30.528 26.976 28.704 26.976 28.704C26.976 28.704 26.88 30.144 26.88 30.432Z" fill="var(--visma-informative-info-color, var(--icon-informative-info-bg, #1482CC))"/>
</svg>
