<svg width="24" height="25" viewBox="0 0 24 25" fill="none" xmlns="http://www.w3.org/2000/svg">
<path d="M12 0.0300293C9.62663 0.0300293 7.30656 0.733817 5.33317 2.05239C3.35978 3.37097 1.8217 5.24511 0.913451 7.43783C0.00519943 9.63054 -0.232441 12.0433 0.230582 14.3711C0.693605 16.6989 1.8365 18.8371 3.51473 20.5153C5.19296 22.1935 7.33115 23.3364 9.65892 23.7995C11.9867 24.2625 14.3995 24.0248 16.5922 23.1166C18.7849 22.2083 20.6591 20.6703 21.9776 18.6969C23.2962 16.7235 24 14.4034 24 12.03C24 8.84743 22.7357 5.79518 20.4853 3.54475C18.2348 1.29431 15.1826 0.0300293 12 0.0300293ZM13 18.03H11V16.03H13V18.03ZM14 12.73C13.6087 12.9835 13.2796 13.3219 13.0373 13.7201C12.7949 14.1183 12.6454 14.5661 12.6 15.03L11.3 14.93C11.3085 14.2471 11.4755 13.5755 11.7879 12.9681C12.1003 12.3607 12.5494 11.8342 13.1 11.43C13.3301 11.2336 13.5126 10.9876 13.6339 10.7105C13.7551 10.4333 13.8119 10.1323 13.8 9.83003C13.7528 9.38722 13.5422 8.97791 13.2093 8.68205C12.8765 8.38619 12.4453 8.22503 12 8.23003C11.4834 8.21465 10.9748 8.36043 10.5447 8.64712C10.1147 8.93382 9.78452 9.34723 9.60001 9.83003C9.60001 9.83003 7.80001 10.53 8.30001 8.83003C8.54915 8.0366 9.03938 7.34055 9.70252 6.83871C10.3657 6.33688 11.1687 6.05421 12 6.03003C12.5521 6.04071 13.0938 6.18225 13.5806 6.44301C14.0673 6.70377 14.4852 7.07632 14.8 7.53003C15.0902 7.9235 15.2998 8.37046 15.4167 8.84521C15.5336 9.31995 15.5555 9.81312 15.4812 10.2964C15.4068 10.7796 15.2377 11.2434 14.9835 11.661C14.7293 12.0787 14.3951 12.442 14 12.73Z" fill="var(--visma-informative-help-color, var(--icon-informative-help-bg, #1482CC))"/>
</svg>
