<svg width="48" height="48" viewBox="0 0 48 48" fill="none" xmlns="http://www.w3.org/2000/svg">
<path d="M24.3 0C19.6521 0 15.1086 1.39291 11.2441 4.0026C7.37954 6.61228 4.36749 10.3215 2.58883 14.6613C0.810169 19.001 0.344792 23.7763 1.25154 28.3834C2.1583 32.9904 4.39645 37.2223 7.68299 40.5438C10.9695 43.8653 15.1568 46.1272 19.7154 47.0436C24.2739 47.96 28.999 47.4897 33.2931 45.6921C37.5871 43.8945 41.2573 40.8505 43.8395 36.9448C46.4217 33.0391 47.8 28.4473 47.8 23.75C47.8 17.4511 45.3241 11.4102 40.917 6.95621C36.5099 2.50222 30.5326 0 24.3 0ZM24.3 14.25C24.864 14.25 25.804 14.63 25.804 15.2L25.24 26.6C25.24 26.8519 25.141 27.0936 24.9647 27.2717C24.7884 27.4499 24.5493 27.55 24.3 27.55C24.0507 27.55 23.8116 27.4499 23.6353 27.2717C23.459 27.0936 23.36 26.8519 23.36 26.6L22.796 15.2C22.796 14.725 23.736 14.25 24.3 14.25ZM24.3 34.2C23.9282 34.2 23.5647 34.0886 23.2555 33.8798C22.9464 33.671 22.7054 33.3743 22.5631 33.0271C22.4208 32.6799 22.3836 32.2979 22.4561 31.9293C22.5287 31.5608 22.7077 31.2222 22.9706 30.9565C23.2336 30.6908 23.5685 30.5098 23.9332 30.4365C24.2979 30.3632 24.6759 30.4008 25.0194 30.5446C25.363 30.6884 25.6566 30.932 25.8632 31.2444C26.0697 31.5569 26.18 31.9242 26.18 32.3C26.18 32.8039 25.9819 33.2872 25.6294 33.6435C25.2768 33.9998 24.7986 34.2 24.3 34.2Z" fill="var(--visma-informative-error-color, var(--icon-informative-error-bg, #D44F64))"/>
</svg>
