<svg width="48" height="48" viewBox="0 0 48 48" fill="none" xmlns="http://www.w3.org/2000/svg">
<path d="M47.2078 42.9943C46.0711 40.7158 28.2635 5.54627 26.2743 1.38537C26.0382 0.843396 25.6086 0.419647 25.0775 0.204856C24.5464 -0.00993604 23.956 0.00130416 23.4327 0.23617C22.9275 0.45352 22.5208 0.86465 22.296 1.38537C20.3069 5.64534 2.49921 40.7158 1.36255 42.9943C0.22589 45.2729 1.64671 47.5515 3.54114 47.5515H45.2186C47.0183 47.5515 49.1022 46.6599 47.2078 42.9943ZM24.2852 17.8308C24.8535 17.8308 25.8007 18.2271 25.8007 18.8215L25.2324 30.7098C25.2324 30.9725 25.1326 31.2245 24.9549 31.4103C24.7773 31.5961 24.5364 31.7005 24.2852 31.7005C24.0339 31.7005 23.793 31.5961 23.6154 31.4103C23.4377 31.2245 23.3379 30.9725 23.3379 30.7098L22.7696 18.8215C22.7696 18.2271 23.7168 17.8308 24.2852 17.8308ZM24.2852 38.6353C23.9105 38.6353 23.5442 38.5191 23.2327 38.3014C22.9211 38.0837 22.6783 37.7742 22.5349 37.4122C22.3915 37.0501 22.354 36.6517 22.4271 36.2674C22.5002 35.883 22.6807 35.53 22.9456 35.2529C23.2105 34.9758 23.5481 34.7871 23.9156 34.7106C24.2831 34.6342 24.664 34.6734 25.0101 34.8234C25.3563 34.9733 25.6522 35.2273 25.8603 35.5531C26.0685 35.879 26.1796 36.262 26.1796 36.6539C26.1796 37.1794 25.98 37.6834 25.6247 38.055C25.2695 38.4266 24.7876 38.6353 24.2852 38.6353Z" fill="var(--visma-informative-warning-color, var(--icon-informative-warning-bg, #CA7900))"/>
</svg>
