<svg width="24" height="24" viewBox="0 0 24 24" fill="none" xmlns="http://www.w3.org/2000/svg">
<path d="M11.9 0C9.54641 0 7.24567 0.697923 5.28872 2.00551C3.33178 3.3131 1.80652 5.17163 0.905839 7.34607C0.0051561 9.52051 -0.230504 11.9132 0.22866 14.2216C0.687824 16.5299 1.82119 18.6503 3.48543 20.3146C5.14968 21.9788 7.27005 23.1122 9.57843 23.5713C11.8868 24.0305 14.2795 23.7948 16.4539 22.8942C18.6284 21.9935 20.4869 20.4682 21.7945 18.5113C23.1021 16.5543 23.8 14.2536 23.8 11.9C23.8 8.74392 22.5463 5.71711 20.3146 3.48543C18.0829 1.25375 15.0561 0 11.9 0ZM13.7842 16.3625C13.5279 16.8484 13.142 17.2538 12.6695 17.5339C12.1969 17.8139 11.6559 17.9577 11.1067 17.9492C10.115 17.9492 9.2225 16.9575 9.42084 16.3625L10.8092 11.9992C10.8132 11.9455 10.8064 11.8915 10.7894 11.8405C10.7724 11.7894 10.7454 11.7422 10.71 11.7017C10.0886 11.8096 9.48691 12.0102 8.925 12.2967V11.9992C9.3059 11.4563 9.81007 11.0115 10.3962 10.7012C10.9823 10.3909 11.6336 10.224 12.2967 10.2142C12.9908 10.3133 13.09 11.1067 12.9908 11.8008L11.8008 16.1642C11.7017 16.4617 11.9 16.66 12.2967 16.66C12.6933 16.66 13.7842 15.3708 13.7842 15.5692V16.3625ZM12.2967 8.925C12.0025 8.925 11.7149 8.83776 11.4703 8.67431C11.2256 8.51086 11.035 8.27855 10.9224 8.00674C10.8098 7.73494 10.7804 7.43585 10.8378 7.1473C10.8952 6.85875 11.0368 6.59371 11.2448 6.38568C11.4529 6.17765 11.7179 6.03598 12.0065 5.97858C12.295 5.92119 12.5941 5.95064 12.8659 6.06323C13.1377 6.17581 13.37 6.36647 13.5335 6.61109C13.6969 6.85571 13.7842 7.1433 13.7842 7.4375C13.7842 7.83201 13.6275 8.21036 13.3485 8.48932C13.0695 8.76828 12.6912 8.925 12.2967 8.925Z" fill="var(--visma-informative-info-color, var(--icon-informative-info-bg, #1482CC))"/>
</svg>
