<svg width="48" height="48" viewBox="0 0 48 48" fill="none" xmlns="http://www.w3.org/2000/svg">
<path d="M24 0C19.2533 0 14.6131 1.40758 10.6663 4.04473C6.71955 6.68188 3.64341 10.4302 1.8269 14.8156C0.0103987 19.201 -0.464881 24.0266 0.461164 28.6822C1.38721 33.3377 3.67299 37.6141 7.02945 40.9706C10.3859 44.327 14.6623 46.6128 19.3178 47.5388C23.9734 48.4649 28.799 47.9896 33.1844 46.1731C37.5698 44.3566 41.3181 41.2805 43.9553 37.3337C46.5924 33.3869 48 28.7468 48 24C48 17.6348 45.4715 11.5303 40.9706 7.02944C36.4697 2.52856 30.3652 0 24 0ZM20.352 32.64C17.184 28.608 14.4 25.536 14.4 25.536L15.456 24.384C17.2258 25.802 18.8644 27.3764 20.352 29.088C24.6686 24.0303 29.494 19.4301 34.752 15.36L35.52 16.224C30.1466 21.3939 25.0818 26.8754 20.352 32.64Z" fill="var(--visma-informative-success-color, var(--icon-informative-success-bg, #4E9C54))"/>
</svg>
