<svg width="16" height="16" viewBox="0 0 16 16" fill="none" xmlns="http://www.w3.org/2000/svg">
<path d="M7.9 0.0899658C6.33753 0.0899658 4.81014 0.553293 3.511 1.42136C2.21185 2.28942 1.19929 3.52323 0.601355 4.96677C0.00342292 6.4103 -0.153023 7.99873 0.1518 9.53118C0.456623 11.0636 1.20903 12.4713 2.31386 13.5761C3.4187 14.6809 4.82634 15.4333 6.35879 15.7382C7.89124 16.043 9.47967 15.8865 10.9232 15.2886C12.3667 14.6907 13.6005 13.6781 14.4686 12.379C15.3367 11.0798 15.8 9.55244 15.8 7.98996C15.8 5.89475 14.9677 3.88536 13.4861 2.40382C12.0046 0.922285 9.99521 0.0899658 7.9 0.0899658ZM8.8875 11.94H6.9125V10.755H8.8875V11.94ZM9.2825 8.48371C9.08616 8.67583 8.93205 8.9068 8.83003 9.16185C8.72801 9.4169 8.68032 9.69043 8.69001 9.96496H6.9125C6.91703 9.48146 7.03566 9.00585 7.25874 8.57686C7.48181 8.14786 7.80304 7.7776 8.19626 7.49621C8.59126 7.19996 8.98625 7.00246 8.98625 6.40996C8.98625 5.81746 8.59125 5.52121 7.9 5.52121C7.5587 5.56654 7.24384 5.72935 7.00956 5.98165C6.77528 6.23396 6.63621 6.55999 6.61625 6.90371C6.61625 6.90371 5.3325 6.80496 5.43125 5.91621C5.58196 5.37711 5.90472 4.90203 6.3504 4.56332C6.79607 4.2246 7.34023 4.04083 7.9 4.03996C8.44714 3.97917 8.99838 4.11074 9.45908 4.41209C9.91978 4.71344 10.2612 5.16577 10.4247 5.69142C10.5883 6.21707 10.5637 6.78326 10.3553 7.29279C10.1469 7.80231 9.76756 8.22338 9.2825 8.48371Z" fill="var(--visma-informative-help-color, var(--icon-informative-help-bg, #1482CC))"/>
</svg>
