<svg width="48" height="48" viewBox="0 0 48 48" fill="none" xmlns="http://www.w3.org/2000/svg">
<path d="M24.1 0C19.373 0 14.7522 1.40171 10.8219 4.02788C6.89156 6.65404 3.82824 10.3867 2.01931 14.7539C0.210373 19.121 -0.262934 23.9265 0.659253 28.5627C1.58144 33.1988 3.8577 37.4574 7.20017 40.7998C10.5426 44.1423 14.8012 46.4186 19.4374 47.3408C24.0735 48.2629 28.879 47.7896 33.2462 45.9807C37.6133 44.1718 41.346 41.1085 43.9721 37.1781C46.5983 33.2478 48 28.627 48 23.9C48 17.5613 45.482 11.4823 40.9999 7.00015C36.5178 2.51803 30.4387 0 24.1 0ZM24.1 34.1292C23.7786 34.1292 23.4644 34.0339 23.1971 33.8553C22.9298 33.6767 22.7215 33.4229 22.5985 33.1259C22.4755 32.829 22.4433 32.5022 22.5061 32.1869C22.5688 31.8717 22.7235 31.5821 22.9508 31.3548C23.1781 31.1275 23.4677 30.9727 23.783 30.91C24.0982 30.8473 24.425 30.8795 24.722 31.0025C25.0189 31.1255 25.2727 31.3338 25.4513 31.6011C25.6299 31.8683 25.7252 32.1826 25.7252 32.504C25.7252 32.935 25.554 33.3484 25.2492 33.6532C24.9444 33.958 24.531 34.1292 24.1 34.1292ZM27.5416 24.1868V24.0912C26.5856 25.1428 25.056 26.3856 25.056 28.1064V28.7756C25.0693 28.888 25.0604 29.0019 25.0296 29.1108C24.9989 29.2197 24.9469 29.3215 24.8768 29.4103C24.8066 29.4991 24.7196 29.5732 24.6208 29.6283C24.5219 29.6835 24.4132 29.7185 24.3008 29.7316H24.1C23.8465 29.7316 23.6033 29.6309 23.424 29.4516C23.2447 29.2723 23.144 29.0291 23.144 28.7756V27.9152C23.5092 26.0573 24.4851 24.3748 25.9164 23.1352C26.8058 22.0551 27.3103 20.7097 27.3504 19.3112C27.3504 17.4948 26.2988 16.0608 23.9088 16.0608C21.5188 16.0608 20.1804 18.7376 20.1804 18.7376C20.1804 18.7376 20.4672 20.2672 19.2244 20.2672C17.9816 20.2672 18.2684 18.7376 18.2684 18.7376C18.2684 16.3476 20.276 13.6708 24.0044 13.6708C24.7451 13.6581 25.4811 13.7915 26.1703 14.0633C26.8595 14.3352 27.4884 14.7401 28.021 15.255C28.5537 15.7699 28.9797 16.3847 29.2747 17.0643C29.5697 17.7438 29.728 18.4749 29.7404 19.2156V19.3112C29.6356 21.1524 28.8522 22.8894 27.5416 24.1868Z" fill="var(--visma-informative-help-color, var(--icon-informative-help-bg, #1482CC))"/>
</svg>
