<svg width="24" height="24" viewBox="0 0 24 24" fill="none" xmlns="http://www.w3.org/2000/svg">
<path d="M22.6607 20.341C22.0823 19.2184 13.9838 3.19445 13.0197 1.05113C12.8497 0.634991 12.5325 0.305863 12.1361 0.134186C11.7397 -0.0374902 11.2955 -0.0380746 10.8987 0.132558C10.5227 0.33055 10.218 0.653078 10.031 1.05113C9.06691 3.09239 0.96847 19.2184 0.39001 20.341C-0.188451 21.4637 0.100778 23.505 1.93257 23.505H21.2146C23.0464 23.505 23.6248 22.1782 22.6607 20.341ZM11.5736 7.17491C12.0556 7.17491 12.8269 7.58316 12.8269 8.19554L12.3449 14.5235C12.3257 14.7331 12.2382 14.9292 12.0975 15.0781C11.9568 15.2271 11.7716 15.3196 11.5736 15.34H11.4772C11.2791 15.3196 11.0939 15.2271 10.9532 15.0781C10.8125 14.9292 10.7251 14.7331 10.7059 14.5235L10.3202 8.19554C10.3202 7.68523 10.9951 7.17491 11.5736 7.17491ZM11.5736 19.4225C11.2876 19.4225 11.0079 19.3327 10.7701 19.1645C10.5323 18.9962 10.347 18.7571 10.2375 18.4774C10.128 18.1977 10.0994 17.8898 10.1552 17.5929C10.211 17.2959 10.3487 17.0231 10.551 16.809C10.7532 16.5949 11.0109 16.4491 11.2914 16.39C11.572 16.3309 11.8627 16.3612 12.127 16.4771C12.3912 16.593 12.6171 16.7892 12.776 17.041C12.9349 17.2927 13.0197 17.5887 13.0197 17.8915C13.0197 18.2976 12.8674 18.687 12.5962 18.9741C12.325 19.2612 11.9571 19.4225 11.5736 19.4225Z" fill="var(--visma-informative-warning-color, var(--icon-informative-warning-bg, #CA7900))"/>
</svg>
