<svg width="16" height="16" viewBox="0 0 16 16" fill="none" xmlns="http://www.w3.org/2000/svg">
<path d="M7.95 0.0899658C6.37764 0.0899658 4.84059 0.556225 3.53322 1.42978C2.22585 2.30334 1.20688 3.54496 0.605161 4.99763C0.00344458 6.4503 -0.153992 8.04878 0.152761 9.59093C0.459513 11.1331 1.21668 12.5496 2.3285 13.6615C3.44033 14.7733 4.85689 15.5305 6.39903 15.8372C7.94118 16.144 9.53966 15.9865 10.9923 15.3848C12.445 14.7831 13.6866 13.7641 14.5602 12.4567C15.4337 11.1494 15.9 9.61232 15.9 8.03996C15.9 5.93149 15.0624 3.90938 13.5715 2.41847C12.0806 0.927553 10.0585 0.0899658 7.95 0.0899658ZM8.94375 12.015H6.95625V10.0275H8.94375V12.015ZM8.745 7.64246C8.745 7.94059 8.54625 9.03371 7.95 9.03371C7.35375 9.03371 7.155 7.94059 7.155 7.54309L6.95625 5.05871C6.95625 4.66121 6.95625 4.06496 7.95 4.06496C8.94375 4.06496 8.94375 4.66121 8.94375 5.05871L8.745 7.64246Z" fill="var(--visma-informative-error-color, var(--icon-informative-error-bg, #D44F64))"/>
</svg>
