<svg width="24" height="24" viewBox="0 0 24 24" fill="none" xmlns="http://www.w3.org/2000/svg">
<path d="M11.9 0.0300293C9.54641 0.0300293 7.24566 0.727952 5.28872 2.03554C3.33177 3.34313 1.80652 5.20165 0.905839 7.37609C0.0051561 9.55053 -0.230504 11.9432 0.22866 14.2516C0.687825 16.56 1.82119 18.6803 3.48543 20.3446C5.14968 22.0088 7.27005 23.1422 9.57843 23.6014C11.8868 24.0605 14.2795 23.8249 16.4539 22.9242C18.6284 22.0235 20.4869 20.4983 21.7945 18.5413C23.1021 16.5844 23.8 14.2836 23.8 11.93C23.8 8.77395 22.5463 5.74714 20.3146 3.51546C18.0829 1.28378 15.0561 0.0300293 11.9 0.0300293ZM11.9 5.98003C12.495 5.98003 13.1892 6.37669 13.1892 6.97169L12.6933 13.12C12.6736 13.3237 12.5837 13.5143 12.4389 13.659C12.2942 13.8037 12.1037 13.8936 11.9 13.9134H11.8008C11.5971 13.8936 11.4066 13.8037 11.2619 13.659C11.1172 13.5143 11.0272 13.3237 11.0075 13.12L10.6108 6.97169C10.6108 6.47586 11.305 5.98003 11.9 5.98003ZM11.9 17.88C11.6058 17.88 11.3182 17.7928 11.0736 17.6293C10.829 17.4659 10.6383 17.2336 10.5257 16.9618C10.4131 16.69 10.3837 16.3909 10.4411 16.1023C10.4985 15.8138 10.6401 15.5487 10.8482 15.3407C11.0562 15.1327 11.3213 14.991 11.6098 14.9336C11.8984 14.8762 12.1974 14.9057 12.4692 15.0183C12.741 15.1308 12.9734 15.3215 13.1368 15.5661C13.3003 15.8107 13.3875 16.0983 13.3875 16.3925C13.3875 16.787 13.2308 17.1654 12.9518 17.4443C12.6729 17.7233 12.2945 17.88 11.9 17.88Z" fill="var(--visma-informative-error-color, var(--icon-informative-error-bg, #D44F64))"/>
</svg>
