<svg width="16" height="16" viewBox="0 0 16 16" fill="none" xmlns="http://www.w3.org/2000/svg">
<path d="M15.6845 13.417L9.29081 0.94106C9.15679 0.577816 8.89274 0.285219 8.55603 0.126843C8.21932 -0.0315325 7.83717 -0.0428909 7.49259 0.095236C7.09299 0.306692 6.79328 0.518148 6.69338 0.94106L0.299709 13.417C0.06125 13.7535 -0.0411383 14.1764 0.015067 14.5928C0.0712723 15.0092 0.281466 15.3849 0.599411 15.6373C0.737716 15.7913 0.913272 15.9024 1.10701 15.9583C1.30074 16.0142 1.50526 16.0129 1.69833 15.9544H14.2859C14.6794 15.9877 15.0706 15.8657 15.3841 15.6119C15.6977 15.3582 15.9114 14.9906 15.9842 14.58C16.0135 14.3747 16.002 14.1652 15.9504 13.965C15.8988 13.7647 15.8082 13.5781 15.6845 13.417ZM8.99111 13.8399H6.99309V11.7253H8.99111V13.8399ZM8.79131 9.18784C8.79131 9.50503 8.5915 10.668 7.9921 10.668C7.39269 10.668 7.19289 9.50503 7.19289 9.08212L6.99309 5.38164C6.99309 4.95872 6.99309 4.32436 7.9921 4.32436C8.99111 4.32436 8.99111 4.95872 8.99111 5.38164L8.79131 9.18784Z" fill="var(--visma-informative-warning-color, var(--icon-informative-warning-bg, #CA7900))"/>
</svg>
