<svg width="24" height="24" viewBox="0 0 24 24" fill="none" xmlns="http://www.w3.org/2000/svg">
<path d="M11.85 0.0300293C9.50629 0.0300293 7.21522 0.725019 5.2665 2.02711C3.31777 3.32921 1.79893 5.17993 0.902033 7.34523C0.00513444 9.51053 -0.229535 11.8932 0.2277 14.1918C0.684934 16.4905 1.81354 18.602 3.47079 20.2592C5.12804 21.9165 7.23951 23.0451 9.53818 23.5023C11.8369 23.9596 14.2195 23.7249 16.3848 22.828C18.5501 21.9311 20.4008 20.4123 21.7029 18.4635C23.005 16.5148 23.7 14.2237 23.7 11.88C23.7 8.73721 22.4515 5.72312 20.2292 3.50081C18.0069 1.27851 14.9928 0.0300293 11.85 0.0300293ZM9.97375 16.62C8.4925 14.645 6.715 12.67 6.715 12.67L7.60375 11.7813C8.49979 12.4914 9.32641 13.285 10.0725 14.1513C12.135 11.672 14.4891 9.45049 17.0838 7.53503L17.5775 8.12753C17.5775 8.12753 14.0225 11.6825 9.97375 16.62Z" fill="var(--visma-informative-success-color, var(--icon-informative-success-bg, #4E9C54))"/>
</svg>
