<svg width="64" height="64" viewBox="0 0 64 64" fill="none" xmlns="http://www.w3.org/2000/svg">
<g id="Pictogram-coffee-break-2" clip-path="url(#clip0_632_20715)">
<g id="stroke-default">
<path id="2px" d="M31.3001 59C29.6301 59 26.1701 58.87 25.6101 58.83C19.0001 58.44 17.3101 53.29 16.0001 47C15.0001 42.3 12.4501 40 7.00008 41C3.82008 41.57 1.51008 41.59 1.19008 38C0.770077 33.24 1.19008 22.22 1.62008 16.15C2.07008 9.83 5.39008 6.15 12.1901 5.59H12.8101M42.5001 5.47L43.8801 5.59C50.1901 6.15 53.8801 9.84 54.4401 16.15C54.9877 23.0388 55.1746 29.9516 55.0001 36.86M16.4101 5.31C23.8043 4.91559 31.2136 4.89223 38.6101 5.24M25.3601 58.84C20.3601 58.84 12.5701 54.84 7.92008 50.24C4.19008 46.57 1.18008 43 1.18008 38M15.9401 20.68C23.1901 16.13 30.3401 22.37 22.0601 30.57C19.4401 33.16 17.6301 34.98 17.0601 35.57C15.6701 36.76 16.0601 37.77 17.8301 37.46C20.8507 36.8788 23.9403 36.744 27.0001 37.06M32.0001 19C33.5901 18.94 37.8401 19 39.0001 19C40.8501 19 41.7201 20.2 40.6801 22.36C39.6401 24.52 38.8201 26.25 38.2401 27.43M59.4001 45.74C59.4001 44.69 59.4001 43.85 59.4001 43.37C59.4701 38.92 32.9601 38.84 32.9601 43.37C33.0001 44.78 32.7001 53 34.7501 57C39.0001 65.3 53.0901 64.43 57.1401 57.78M33.6301 42.94C31.3301 47.75 60.7401 47.66 58.7401 42.85M56.1801 48.85C55.6701 48.41 56.3201 47.25 57.0001 46.98C58.4501 46.41 60.7701 45.39 62.0001 46.51C63.7001 48.09 64.3901 58 54.2801 58C53.6401 58 54.1201 55.14 55.6601 55M38.7101 9.13C38.5164 6.85544 38.6546 4.56481 39.1201 2.33C39.1905 1.97604 39.3815 1.65746 39.6605 1.42853C39.9395 1.19959 40.2892 1.07446 40.6501 1.07446C41.011 1.07446 41.3607 1.19959 41.6397 1.42853C41.9187 1.65746 42.1096 1.97604 42.1801 2.33C42.4533 4.68789 42.3248 7.07505 41.8001 9.39C41.6997 9.74224 41.4801 10.0487 41.1787 10.2569C40.8774 10.4651 40.5131 10.5621 40.1481 10.5314C39.7831 10.5007 39.4401 10.3441 39.1778 10.0885C38.9155 9.83288 38.7502 9.49406 38.7101 9.13ZM16.4001 9.13C16.592 6.85586 16.4573 4.56596 16.0001 2.33C15.9296 1.97604 15.7387 1.65746 15.4597 1.42853C15.1807 1.19959 14.831 1.07446 14.4701 1.07446C14.1092 1.07446 13.7595 1.19959 13.4805 1.42853C13.2015 1.65746 13.0105 1.97604 12.9401 2.33C12.6668 4.68789 12.7953 7.07505 13.3201 9.39C13.4249 9.7365 13.6454 10.0365 13.9449 10.2399C14.2444 10.4432 14.6046 10.5375 14.9654 10.5071C15.3261 10.4766 15.6654 10.3232 15.9265 10.0726C16.1877 9.8219 16.3549 9.48916 16.4001 9.13Z" stroke="#494A4A" stroke-width="2" stroke-linecap="round" stroke-linejoin="round"/>
<path id="1px" d="M55.6101 48.9C56.0201 50.05 58.4301 49.27 59.1401 49.53C59.8501 49.79 60.0201 53.87 55.4901 54.53M37.8001 45.84C38.4601 45.17 45.0501 42.91 48.1501 44C52.0401 45.37 54.1501 43.15 55.4901 45.53M36.4901 48.51C36.3941 49.8647 36.5709 51.2249 37.0101 52.51M45.4601 36.48C45.4601 34.81 43.9401 34.05 44.0501 32.38C44.1601 30.71 46.6901 30.52 46.6401 27.63M48.4901 36.48C48.4901 34.96 49.7501 33.59 49.6701 32.68M41.0001 36.48C41.1201 35.42 40.4001 34.73 40.4301 33.97M5.52011 18.5C5.35011 13.27 7.25011 10.65 9.58011 10.5" stroke="#494A4A" stroke-linecap="round" stroke-linejoin="round"/>
</g>
</g>
<defs>
<clipPath id="clip0_632_20715">
<rect width="64" height="64" fill="white"/>
</clipPath>
</defs>
</svg>
