<svg width="64" height="64" viewBox="0 0 64 64" fill="none" xmlns="http://www.w3.org/2000/svg">
<g id="  Pictogram-silver-rank-1">
<g id="stroke-default">
<path id="2px" d="M15.2999 46.4C15.1999 51.3 13.7999 61.6 15.8999 62.6C18.8999 64 31.4999 57.6 33.4999 57.8C36.5999 58 47.8999 64.1 50.2999 62.7C52.6999 61.3 50.9999 45.8 50.9999 44M56 29C56 42.2548 45.2548 53 32 53C18.7452 53 8 42.2548 8 29C8 15.7452 18.7452 5 32 5C45.2548 5 56 15.7452 56 29ZM31.9999 16.6C33.3999 16.6 35.4999 23.6 36.5999 24.3C37.6999 25 44.2999 25 44.4999 26.2C44.6999 27.4 39.6999 31.8 39.0999 32.8C38.4999 33.8 40.8999 40.3 39.7999 40.9C38.6999 41.5 33.3999 36.8 32.0999 36.8C30.7999 36.8 25.4999 41.5 24.3999 40.9C23.2999 40.3 25.1999 34 24.9999 32.6C24.7999 31.2 19.0999 27.8 19.5999 26.2C20.0999 24.6 26.9999 24.7 27.6999 24.2C28.3999 23.7 30.7999 16.5 32.1999 16.5L31.9999 16.6Z" stroke="#494A4A" stroke-width="2" stroke-linecap="round" stroke-linejoin="round"/>
<path id="1px" d="M32.7012 48.9999C34.2012 48.8999 35.4012 48.6999 36.7012 48.3999M40.1011 47.1001C46.4011 44.3001 49.9011 39.4001 51.6011 33.1001M17.4008 15.1001C12.7008 20.1001 11.4008 26.0001 12.2008 32.5001M30.6011 24.4998C30.9011 23.7998 31.3011 22.8998 31.5011 22.2998" stroke="#494A4A" stroke-linecap="round" stroke-linejoin="round"/>
</g>
</g>
</svg>
