<svg width="64" height="64" viewBox="0 0 64 64" fill="none" xmlns="http://www.w3.org/2000/svg">
<g id="Pictogram-clock">
<g id="stroke-default">
<path id="2px" d="M38.85 20.64C37.34 21.55 35.19 26.64 33.44 29.44M44.88 46.4C43.71 44.55 36.14 35.89 34.12 34.46M32 6C32.08 7.13 32 8.22 32 9M32.05 55C32.12 56.16 31.99 57.25 31.99 58M58 32C56.85 32.07 55.75 31.94 55 31.94M9 32.06C7.84 32.13 6.74 32 6 32M41.51 15.08C40.31 15.3 36.06 16.08 36.06 17.27C36.06 19.19 41.06 22.33 42.29 21.9C43.52 21.47 42.98 17.12 42.96 16.11C42.9519 15.9388 42.905 15.7718 42.8228 15.6214C42.7406 15.4711 42.6253 15.3414 42.4857 15.2421C42.346 15.1429 42.1855 15.0767 42.0165 15.0487C41.8475 15.0206 41.6743 15.0313 41.51 15.08ZM48 48.48C48 47.87 48 45.24 47.33 45.27C46.07 45.27 43.38 47.72 43.45 48.57C43.52 49.42 46.45 49.57 47.08 49.57C47.71 49.57 48 49 48 48.48ZM62 32C62 48.57 49.58 61.34 32 62C14.42 62.66 2 48.57 2 32C2 15.43 12.88 2 32 2C39.9565 2 47.5871 5.16071 53.2132 10.7868C58.8393 16.4129 62 24.0435 62 32ZM34.95 32C34.95 33.6237 33.6337 34.94 32.01 34.94C30.3863 34.94 29.07 33.6237 29.07 32C29.07 30.3763 30.3863 29.06 32.01 29.06C33.6337 29.06 34.95 30.3763 34.95 32Z" stroke="#494A4A" stroke-width="2" stroke-linecap="round" stroke-linejoin="round"/>
<path id="1px" d="M50.3199 13.21C49.7693 13.6339 49.2543 14.1021 48.7799 14.61M14.4999 49.09C13.8599 49.85 13.4199 49.95 12.9099 50.58M14.7599 15.18C14.25 14.777 13.7626 14.3464 13.2999 13.89M51.3099 45.91C53.0575 44.2604 54.2225 42.0883 54.6299 39.72M50.2699 43C51.1424 42.0902 51.7418 40.9537 51.9999 39.72" stroke="#494A4A" stroke-linecap="round" stroke-linejoin="round"/>
</g>
</g>
</svg>
