<svg width="64" height="64" viewBox="0 0 64 64" fill="none" xmlns="http://www.w3.org/2000/svg">
<g id="Pictogram-buyer2" clip-path="url(#clip0_624_21090)">
<g id="stroke-default">
<path id="2px" d="M39.5384 63.8288C40.09 63.8021 40.5155 63.3333 40.4888 62.7816C40.4621 62.23 39.9933 61.8045 39.4416 61.8312L39.5384 63.8288ZM8.76 45L9.34228 45.813L9.34378 45.8119L8.76 45ZM26.76 32.29C26.76 31.7377 26.3123 31.29 25.76 31.29C25.2077 31.29 24.76 31.7377 24.76 32.29H26.76ZM39.308 31.8529C39.3428 31.3017 38.9241 30.8267 38.3729 30.792C37.8218 30.7572 37.3467 31.1759 37.312 31.7271L39.308 31.8529ZM37.9275 35.386C38.1407 35.8955 38.7265 36.1357 39.236 35.9225C39.7455 35.7093 39.9857 35.1235 39.7725 34.614L37.9275 35.386ZM52.68 36.65L52.892 35.6727L52.8868 35.6716L52.68 36.65ZM48.11 36L48.0205 36.996L48.0281 36.9967L48.0358 36.9972L48.11 36ZM45.11 61.31L45.3389 60.3366L45.3241 60.3331L45.3091 60.33L45.11 61.31ZM48.11 61.84L47.9916 62.833L48.0036 62.8344L48.0157 62.8355L48.11 61.84ZM48.9008 45.8865C49.164 46.3721 49.771 46.5523 50.2565 46.2892C50.7421 46.026 50.9223 45.419 50.6592 44.9335L48.9008 45.8865ZM47.24 47.81L46.8667 48.7377L46.8669 48.7378L47.24 47.81ZM45.4108 50.2869C45.028 49.8888 44.395 49.8764 43.9969 50.2592C43.5988 50.642 43.5864 51.275 43.9692 51.6731L45.4108 50.2869ZM50.1914 42.7478C50.3615 42.2224 50.0733 41.6586 49.5478 41.4886C49.0224 41.3186 48.4586 41.6067 48.2886 42.1322L50.1914 42.7478ZM47.7386 43.8322C47.5686 44.3576 47.8567 44.9214 48.3822 45.0914C48.9076 45.2614 49.4714 44.9733 49.6414 44.4478L47.7386 43.8322ZM47.0914 52.348C47.2615 51.8225 46.9734 51.2587 46.448 51.0886C45.9225 50.9185 45.3587 51.2066 45.1886 51.732L47.0914 52.348ZM44.6286 53.462C44.4585 53.9875 44.7466 54.5513 45.272 54.7214C45.7975 54.8915 46.3613 54.6034 46.5314 54.078L44.6286 53.462ZM39.4416 61.8312C31.742 62.204 23.1789 61.9692 16.5615 61.1341C13.2441 60.7155 10.4696 60.1524 8.54856 59.463C7.58296 59.1165 6.89708 58.7602 6.47067 58.4197C6.04289 58.078 6 57.8586 6 57.77H4C4 58.7114 4.55086 59.446 5.22265 59.9825C5.89581 60.5201 6.81532 60.9659 7.873 61.3454C9.99849 62.1082 12.9421 62.6933 16.3111 63.1184C23.0661 63.9708 31.748 64.206 39.5384 63.8288L39.4416 61.8312ZM6 57.77C6 55.7233 6.37054 53.0161 7.01303 50.6328C7.33371 49.4433 7.71456 48.3631 8.13482 47.501C8.56748 46.6135 8.99061 46.0649 9.34228 45.813L8.17772 44.187C7.41939 44.7301 6.81752 45.639 6.33706 46.6246C5.84419 47.6356 5.42379 48.8442 5.08197 50.1122C4.39946 52.6439 4 55.5267 4 57.77H6ZM9.34378 45.8119C10.6396 44.8802 12.2887 44.2447 14.1357 43.6594C15.9267 43.0918 17.9678 42.5558 19.7751 41.8442C21.6074 41.1229 23.3707 40.1628 24.671 38.6352C25.9929 37.0823 26.76 35.0341 26.76 32.29H24.76C24.76 34.6309 24.1184 36.1989 23.1481 37.3388C22.1562 38.5041 20.7439 39.3134 19.0424 39.9833C17.3159 40.663 15.4652 41.1401 13.5315 41.7528C11.6538 42.3478 9.74545 43.0598 8.17622 44.1881L9.34378 45.8119ZM37.312 31.7271C37.2331 32.9778 37.4437 34.2299 37.9275 35.386L39.7725 34.614C39.4074 33.7416 39.2485 32.7968 39.308 31.8529L37.312 31.7271ZM32 35.5C38.5496 35.5 45 28.1825 45 15.32H43C43 27.7575 36.8704 33.5 32 33.5V35.5ZM45 15.32C45 10.3476 43.8249 6.4976 41.5396 3.87984C39.2356 1.24075 35.9315 0 32 0V2C35.4985 2 38.1944 3.08925 40.0329 5.19516C41.8901 7.3224 43 10.6324 43 15.32H45ZM32 0C28.0685 0 24.7644 1.24075 22.4604 3.87984C20.1751 6.4976 19 10.3476 19 15.32H21C21 10.6324 22.1099 7.3224 23.9671 5.19516C25.8056 3.08925 28.5015 2 32 2V0ZM19 15.32C19 28.2137 25.4513 35.5 32 35.5V33.5C27.1287 33.5 21 27.7863 21 15.32H19ZM52.8868 35.6716C51.336 35.3438 49.7649 35.1204 48.1842 35.0028L48.0358 36.9972C49.5274 37.1082 51.0098 37.3191 52.4732 37.6284L52.8868 35.6716ZM48.1995 35.004C44.3541 34.6584 41.2396 36.0256 39.0101 38.3265C36.8025 40.6049 35.4931 43.7616 35.113 47.0049C34.3588 53.4416 37.2751 60.7386 44.9109 62.29L45.3091 60.33C39.0649 59.0614 36.4162 53.0684 37.0995 47.2376C37.4382 44.3472 38.5982 41.6257 40.4465 39.7182C42.2729 37.8332 44.8009 36.7066 48.0205 36.996L48.1995 35.004ZM44.8811 62.2834C45.9068 62.5247 46.9453 62.7081 47.9916 62.833L48.2285 60.847C47.2565 60.7311 46.2918 60.5607 45.3389 60.3366L44.8811 62.2834ZM48.0157 62.8355C52.4166 63.2523 55.9388 61.9913 58.4718 59.7465C60.9878 57.5169 62.4627 54.3758 62.9095 51.121C63.7978 44.6496 60.6183 37.349 52.892 35.6727L52.468 37.6273C58.8917 39.021 61.7172 45.1004 60.928 50.849C60.5361 53.7042 59.2516 56.3831 57.1453 58.2497C55.0562 60.1012 52.0934 61.2127 48.2043 60.8445L48.0157 62.8355ZM50.6592 44.9335C50.0961 43.8947 49.2834 43.218 48.2754 43.1907C47.3259 43.1649 46.5648 43.7319 46.0981 44.3295C45.624 44.9366 45.3018 45.7568 45.337 46.5752C45.375 47.458 45.8431 48.3258 46.8667 48.7377L47.6133 46.8823C47.4793 46.8284 47.426 46.7684 47.4001 46.7292C47.3703 46.6843 47.3404 46.6099 47.3352 46.4892C47.3238 46.2257 47.4398 45.8609 47.6744 45.5605C47.9164 45.2506 48.1348 45.1876 48.2211 45.1899C48.2491 45.1907 48.5289 45.2003 48.9008 45.8865L50.6592 44.9335ZM46.8669 48.7378C47.2355 48.886 47.4314 49.1543 47.5114 49.4894C47.5985 49.8546 47.5368 50.2807 47.3585 50.6094C47.1831 50.9327 46.9627 51.0572 46.7724 51.0729C46.5729 51.0894 46.1075 51.0114 45.4108 50.2869L43.9692 51.6731C44.8975 52.6386 45.9146 53.1506 46.937 53.0661C47.9685 52.9809 48.7094 52.3135 49.1165 51.5631C49.5207 50.818 49.6627 49.8885 49.4568 49.0252C49.2436 48.132 48.6495 47.299 47.6131 46.8822L46.8669 48.7378ZM48.2886 42.1322L47.7386 43.8322L49.6414 44.4478L50.1914 42.7478L48.2886 42.1322ZM45.1886 51.732L44.6286 53.462L46.5314 54.078L47.0914 52.348L45.1886 51.732Z" fill="#494A4A"/>
<path id="1px" d="M43.14 39.54C41.4415 40.7344 40.1751 42.4464 39.53 44.42M48.43 58.54C50.3607 58.3358 52.1448 57.4152 53.43 55.96M12.73 46.09C10 47 9.94 47.34 9 50.87M48.16 36.5C64.25 37.68 61.52 64.33 44.4 60.67" stroke="#494A4A" stroke-linecap="round" stroke-linejoin="round"/>
</g>
</g>
<defs>
<clipPath id="clip0_624_21090">
<rect width="64" height="64" fill="white"/>
</clipPath>
</defs>
</svg>
