<svg width="64" height="64" viewBox="0 0 64 64" fill="none" xmlns="http://www.w3.org/2000/svg">
<g id="  Pictogram-gold-rank-2" clip-path="url(#clip0_622_41968)">
<g id="stroke-default">
<path id="2px" d="M16.0009 43.7002C15.9009 48.6002 14.4009 61.6002 16.5009 62.6002C19.5009 64.0002 29.9009 57.6002 32.0009 57.7002C35.1009 57.9002 45.6009 63.8002 48.0009 62.5002C50.4009 61.2002 47.1009 45.4002 47.1009 43.7002M14.9009 11.1999C11.8009 7.89991 7.10092 5.99991 5.30092 6.89991C4.20092 7.49991 2.60093 11.7999 3.20093 14.1999C3.40093 15.1999 3.90093 16.0999 4.50093 16.9999C3.30093 16.5999 2.00121 16.7 1.40121 17.5C0.601206 18.5 1.10121 22.8 1.70121 24.1C2.60121 26.2 6.60121 29 9.10121 30M47.8008 11.1004C50.9008 7.90039 56.9008 6.00039 58.7008 6.90039C59.8008 7.50039 61.4008 11.8004 60.8008 14.2004C60.6008 15.2004 60.1008 16.1004 59.5008 17.0004C60.7008 16.6004 62.0009 16.7 62.6009 17.5C63.4009 18.5 62.9009 22.8 62.3009 24.1C61.4009 26.2 57.4009 28.8 54.9009 29.7M32.0008 16.3002C33.4008 16.3002 35.5008 23.3002 36.5008 24.0002C37.5008 24.7002 44.2008 24.7002 44.4008 25.9002C44.6008 27.1002 39.6008 31.5002 39.0008 32.5002C38.4008 33.5002 40.8008 40.0002 39.7008 40.6002C38.6008 41.2002 33.3008 36.5002 32.0008 36.5002C30.7008 36.5002 25.4008 41.2002 24.3008 40.6002C23.2008 40.0002 25.1008 33.7002 24.9008 32.3002C24.7008 30.9002 19.0008 27.5002 19.5008 25.9002C20.0008 24.3002 26.9008 24.4002 27.6008 23.9002C28.3008 23.4002 30.7008 16.2002 32.1008 16.2002L32.0008 16.3002ZM31.9012 52.8996C44.2012 49.4996 57.8012 35.1996 55.6012 15.1996C50.3012 12.9996 35.1012 6.09961 31.9012 6.09961C28.7012 6.09961 15.0012 12.1996 8.3012 14.9996C7.5012 33.3996 15.1012 47.6996 31.9012 52.8996Z" stroke="#494A4A" stroke-width="2" stroke-linecap="round" stroke-linejoin="round"/>
<path id="1px" d="M8.30156 20.8004C6.90156 19.5004 5.70156 18.1004 4.60156 16.4004M55.6016 20.8004C57.0016 19.5004 58.2016 18.1004 59.3016 16.4004M30.6016 24.1004C30.9016 23.4004 31.3016 22.5004 31.5016 21.9004M33.7017 48.5996C34.8017 48.2996 36.5017 47.3996 37.4017 46.5996M40.0015 44.9998C43.2015 42.5998 45.3015 40.5998 47.5015 36.2998" stroke="#494A4A" stroke-linecap="round" stroke-linejoin="round"/>
</g>
</g>
<defs>
<clipPath id="clip0_622_41968">
<rect width="64" height="64" fill="white"/>
</clipPath>
</defs>
</svg>
