<svg width="64" height="64" viewBox="0 0 64 64" fill="none" xmlns="http://www.w3.org/2000/svg">
<g id="Pictogram-budget" clip-path="url(#clip0_426_2798)">
<g id="stroke-default">
<path id="2px" d="M13.5 13.8701C8.15002 14.4601 6.61002 18.3101 6.50002 23.4601M4.83002 46.6901C4.86869 47.9428 5.00915 49.1903 5.25002 50.4201C5.99002 55.8801 9.25002 60.2302 16.67 60.5802C27.9596 61.147 39.2705 61.147 50.56 60.5802C56.74 60.2602 61.34 57.0001 62 50.4201C62.697 41.1966 62.697 31.9337 62 22.7101C61.59 17.7101 59.63 13.1701 55.38 12.2701C53.5953 12.053 51.7975 11.9628 50 12.0001M56 12.4301C59 13.3401 60.3 18.1301 54.1 18.6601C43.16 19.6001 26.1 18.3701 16.1 19.2201C8.89002 19.8301 5.32002 22.7901 4.67002 29.3701C4.57002 30.3701 4.52002 32.0701 4.52002 34.0701M4.52002 32.0001C2.19002 32.1401 1.00002 33.3101 0.770017 35.0001C0.480017 37.2501 0.170017 43.3401 1.60002 45.0701C3.60002 47.5101 17.94 47.1801 22 46.5101C23.66 46.2301 24.07 37.9701 22.47 36.2601C20.87 34.5501 7.93002 35.0001 6.29002 35.0001C3.48002 35.0001 2.72002 33.7901 4.29002 33.0901M42.52 16.0001C33.86 13.0001 23.52 11.4001 22.34 12.1801C21.63 12.6701 21.56 14.0501 21.5 15.7701M53 15.1901C45 4.51015 22.12 1.52015 21.41 2.09015C20.7 2.66015 18.46 10.0001 17.34 15.7701M19.64 6.61015C19.2 6.53015 14.24 5.73015 13.96 6.20015C13.68 6.67015 13.6 11.7101 13.46 15.7701" stroke="#494A4A" stroke-width="2" stroke-linecap="round" stroke-linejoin="round"/>
<path id="1px" d="M14.0002 40.9999C13.9861 41.3311 14.0409 41.6617 14.1609 41.9707C14.2809 42.2797 14.4637 42.5605 14.6976 42.7953C14.9315 43.0302 15.2116 43.2141 15.5201 43.3354C15.8286 43.4566 16.1589 43.5127 16.4902 43.4999C18.1302 43.2999 19.1002 42.4999 18.9902 40.9999C18.9565 40.3478 18.6822 39.7314 18.2205 39.2696C17.7588 38.8079 17.1423 38.5337 16.4902 38.4999C14.7102 38.3999 14.0002 39.6399 14.0002 40.9999Z" stroke="#494A4A" stroke-linecap="round" stroke-linejoin="round"/>
</g>
</g>
<defs>
<clipPath id="clip0_426_2798">
<rect width="64" height="64" fill="white"/>
</clipPath>
</defs>
</svg>
