<svg width="64" height="64" viewBox="0 0 64 64" fill="none" xmlns="http://www.w3.org/2000/svg">
<g id="  Pictogram-bulb-1" clip-path="url(#clip0_426_2054)">
<g id="stroke-default">
<path id="2px" d="M22.6699 47.75C22.7084 50.7755 23.0433 53.7899 23.6699 56.75C23.7631 57.0776 23.932 57.3786 24.1631 57.6287C24.3941 57.8789 24.6808 58.0712 24.9999 58.19C27.6899 59.26 35.6499 59.27 38.3799 58.19C38.6908 58.0608 38.9678 57.862 39.1897 57.6089C39.4116 57.3557 39.5725 57.0551 39.6599 56.73C40.3546 53.7812 40.6904 50.7593 40.6599 47.73M37.4699 58.46C36.4699 61.23 34.6699 63 31.6699 63C28.6699 63 26.9199 61.26 25.8999 58.46M14.6699 21.25C14.6699 -1.75 48.6699 -1.75 48.6699 21.25C48.6699 31 41.6699 33 41.6699 46C41.6699 50.75 21.6699 50.75 21.6699 46C21.6699 33 14.6699 31 14.6699 21.25Z" stroke="#494A4A" stroke-width="2" stroke-linecap="round" stroke-linejoin="round"/>
<path id="1px" d="M17.7014 2.29C16.7014 4.72 12.1814 6.96 8.70136 4.44C5.70136 2.29 9.17136 -0.680001 10.4714 2.18C13.6514 9.18 8.53136 15.92 2.08136 13.18C-0.698642 11.98 1.18136 7.18 3.99136 9.5C7.72136 12.5 8.90136 19.59 1.53136 22.86C7.78136 21.45 10.9314 25.26 7.13136 32.13C9.13136 29.85 12.4614 33.06 13.5514 37.29M50.1914 6.29C50.0014 9.52 53.0014 11.46 56.8214 9.54C53.7314 11.83 54.8214 19.93 60.8214 19.45C63.4314 19.25 63.2314 14.82 60.2914 15.91C56.3914 17.36 53.4414 22.83 58.5514 27.56C54.3114 26.23 52.3614 29.65 51.8814 32.05M30.7014 45.16C29.9414 38.84 36.5214 36 36.0014 24.21C35.7314 18.35 41.9214 20.8 40.0014 24.92C37.7314 29.92 24.5414 28.92 23.1214 23.81C22.1214 20.11 27.0014 19.07 26.9214 23.32C26.6914 37 31.2014 36.61 33.6914 43.68" stroke="#494A4A" stroke-linecap="round" stroke-linejoin="round"/>
</g>
</g>
<defs>
<clipPath id="clip0_426_2054">
<rect width="64" height="64" fill="white"/>
</clipPath>
</defs>
</svg>
