<svg width="64" height="64" viewBox="0 0 64 64" fill="none" xmlns="http://www.w3.org/2000/svg">
<g id="Pictogram-invoice-edit">
<g id="stroke-default">
<path id="2px" d="M11 22.1C11.2 19.6 12.2 17.9 14.4 17.4C15.6 17.1 18.8 16.7 20.5 16.3C23.1 15.7 24.2 14.5 24.8 11.9C25.2 10.3 25.2 7.9 25.4 6.6C25.7 4.7 27.4 3 30.3 3M39.7 12.8C36.4 10.1 34.6 15.7 37.7 15.9C41.3 16.1 40.9 21.9 36 19.7M38 10.1V11.9M38 20.2V22M53 43.1C53 47.8 53 51.6 53 53.8C53.1 56.6 51 58.5 48.4 58.7C48.4 58.7 48.3 58.7 48.2 58.7C42.8 59.1 37.4 59.1 32.1 59.1C26.8 59.1 21.4 59.1 16 58.7C16 58.7 15.9 58.7 15.8 58.7C13.2 58.5 11.2 56.3 11.4 53.7C11.3 47.8 11.2 26.8 11.2 23.3C11.2 16 14.8 13.3 18.9 9.1C22.2 5.8 25.2 3.1 30.5 3.1C34.2 3.1 43.7 3.1 48.2 3.6C51.4 3.9 52.3 5.5 52.7 9.5C52.8 11.1 53 12.9 53 14.8M31.3 54C30.4 53.2 31.5 46.9 33 44.9C36 40.9 50.9 22.8 52.2 21.2C53.5 19.6 55.4 19.5 58.2 21.6C61 23.7 61.6 25.9 60.4 27.5C59.5 28.7 42.5 48.4 40.3 50.4C38.1 52.4 32.3 54.8 31.4 53.9L31.3 54Z" stroke="#494A4A" stroke-width="2" stroke-linecap="round" stroke-linejoin="round"/>
<path id="1px" d="M14.4998 51.4999C14.4998 54.4999 14.2998 55.4999 20.3998 55.4999M24.9998 28.4999C26.3998 28.3999 38.1998 28.4999 38.9998 28.4999M21.3998 34.4999C22.8998 34.3999 35.1998 34.4999 35.9998 34.4999M21.3998 40.4999C22.8998 40.3999 30.1998 40.4999 30.9998 40.4999M40.1998 50.4999C37.1998 52.4999 31.3998 47.2999 33.2998 44.2999M60.9998 26.7999C59.0998 29.1999 52.8998 23.7999 52.9998 21.8999M58.1998 30.1999C56.2998 32.5999 48.1998 26.3999 49.9998 24.0999" stroke="#494A4A" stroke-linecap="round" stroke-linejoin="round"/>
</g>
</g>
</svg>
