<svg width="65" height="64" viewBox="0 0 65 64" fill="none" xmlns="http://www.w3.org/2000/svg">
<g id="Pictogram-megaphone">
<g id="stroke-default">
<path id="2px" d="M58.872 33.1996C59.172 36.6996 58.672 39.1996 57.472 39.7996C53.772 41.4996 47.972 34.9996 42.872 23.8996C38.072 13.3996 36.772 3.69961 40.072 2.29961C41.572 1.59961 43.372 2.29961 45.372 4.09961M38.172 41.8996L54.972 39.9996M38.572 4.19961L25.972 15.7996M26.072 15.7996L11.272 24.2996C6.47205 26.9996 4.57205 32.9996 6.87205 37.9996L8.67205 41.9996C10.972 46.9996 16.672 49.4996 21.972 47.5996L38.0721 41.8996M5.27205 36.5996C3.77205 37.3996 3.27205 39.1996 3.97205 40.7996L4.67205 42.3996C5.37205 43.8996 7.07205 44.6996 8.67205 44.0996M45.672 26.9996C47.172 26.1996 47.672 24.3996 46.972 22.7996L46.272 21.1996C45.572 19.6996 43.872 18.8996 42.272 19.4996M24.872 46.8996L30.672 59.6996C31.072 60.4996 31.872 60.8996 32.772 60.5996L35.272 59.6996C36.172 59.3996 36.572 58.2996 36.172 57.4996L30.472 44.9996" stroke="#494A4A" stroke-width="2" stroke-linecap="round" stroke-linejoin="round"/>
<path id="1px" d="M38.072 41.9996C35.472 41.4996 31.972 37.0996 28.872 30.2996C27.472 27.2996 26.472 24.3996 25.972 21.8996M53.4722 18.6996C55.1722 17.9996 56.1722 15.4996 58.1722 15.0996C58.8722 14.9996 56.3722 19.4996 57.4722 19.2996C59.0722 19.0996 59.8722 15.5996 62.5722 14.5996M47.9722 13.6004C49.3722 11.5004 51.5722 10.0004 51.6722 9.10039C51.6722 8.60039 48.6722 9.40039 48.9722 9.30039C50.3722 8.70039 51.1722 7.20039 51.6722 6.40039M54.0723 25.1001C54.0723 25.1001 57.5723 24.7001 57.6723 26.3001C57.7723 27.9001 60.3723 26.3001 60.3723 26.3001M7.77207 20.8L2.37207 15M8.77207 14.5L10.6721 19.2M2.57207 22.4L5.27207 23.2" stroke="#494A4A" stroke-linecap="round" stroke-linejoin="round"/>
</g>
</g>
</svg>
