<svg width="64" height="64" viewBox="0 0 64 64" fill="none" xmlns="http://www.w3.org/2000/svg">
<g id="Pictogram-mail-invoice-electricity-bill">
<g id="stroke-default">
<path id="2px" d="M12.0602 29.9999C9.22022 30.1099 8.48022 31.3499 8.18022 33.9099C7.77022 37.3599 8.06022 52.9099 8.97022 56.4899C9.06663 57.1584 9.33996 57.7891 9.76192 58.3165C10.1839 58.844 10.7391 59.2491 11.3702 59.4899C18.8102 61.4299 43.1102 61.3399 50.9002 60.3099C53.7802 59.9299 54.8202 58.4399 55.1902 56.0999C55.9902 50.9099 56.1302 38.7399 55.9002 34.2799C55.7902 31.9999 54.5402 29.9999 52.3102 29.9999M12.3602 34.0499C11.9602 25.4299 11.9602 13.9399 12.3602 8.23987C12.5502 5.70987 13.6302 4.95987 16.0602 4.56987C20.6202 3.82987 49.7402 3.56987 51.0002 5.30987C52.2602 7.04987 52.0602 25.1999 51.5702 33.6299" stroke="#494A4A" stroke-width="2" stroke-linecap="round" stroke-linejoin="round"/>
<path id="1px" d="M8.49023 32.2198C19.5902 39.8698 41.6702 52.4298 54.4902 58.2198M31.0002 45.9998C39.9002 41.7998 50.4802 35.5098 55.1902 31.5598M21.0802 26.3698C22.8202 26.5998 40.5902 26.4398 41.9202 26.4398M21.0802 31.3698C22.8202 31.5998 40.5902 31.4398 41.9202 31.4398M21.1302 36.3598C22.0102 36.7098 30.9002 36.4598 31.5602 36.4598M18.7602 7.58984C16.2702 7.58984 15.6602 7.96984 15.6602 10.5898M37.0002 51.6598C38.0602 52.2198 42.7602 54.3298 43.5502 54.8698M28.6302 9.81984C27.9802 10.5098 27.0702 15.6498 26.8502 16.3498C26.6302 17.0498 27.0802 17.3498 28.0902 16.8698C29.1002 16.3898 31.7302 15.2398 31.9602 15.4498C32.1902 15.6598 30.4402 21.9798 31.1802 22.1598C32.1002 22.3998 35.5602 15.0998 36.1802 12.6798C36.4002 11.7598 36.1202 11.3798 35.3702 11.5698C34.3702 11.8098 32.9202 12.2398 32.7602 12.0098C32.6002 11.7798 34.1302 9.68984 33.6002 9.21984C33.0702 8.74984 29.2302 9.17984 28.6302 9.81984Z" stroke="#494A4A" stroke-linecap="round" stroke-linejoin="round"/>
</g>
</g>
</svg>
