<svg width="64" height="64" viewBox="0 0 64 64" fill="none" xmlns="http://www.w3.org/2000/svg">
<g id="Pictogram-time-report-2">
<g id="stroke-default">
<path id="2px" d="M34.6201 59C32.9401 59 30.8001 58.94 29.6201 58.86C23.0001 58.44 21.2801 53.29 20.0001 47C19.0001 42.3 16.4501 40 11.0001 41C7.82008 41.57 5.51008 41.59 5.19008 38C4.77008 33.24 5.19008 22.22 5.62008 16.15C6.00008 9.83 9.34008 6.17 16.1501 5.59H16.7701M46.4701 5.47L47.8401 5.59C54.1601 6.15 57.8401 9.84 58.4101 16.15C58.8901 21.46 59.1001 28.35 59.0601 34.47M20.3801 5.31C27.7743 4.91556 35.1836 4.89219 42.5801 5.24M29.3301 58.84C24.3301 58.84 16.5401 54.84 11.8901 50.24C8.16008 46.57 5.15008 43 5.15008 38M20.0001 21.43C27.3501 17.04 34.3601 23.43 25.9001 31.43C23.2201 33.97 21.3701 35.75 20.7301 36.27C19.3201 37.44 19.6501 38.46 21.4501 38.18C24.5127 37.6744 27.6335 37.6272 30.7101 38.04M35.8401 20C37.4401 19.95 41.6801 20 42.8401 20C44.6901 20 45.5501 21.19 44.5201 23.36L40.5201 31.54M42.6801 9.13C42.4814 6.8555 42.6196 4.56414 43.0901 2.33C43.1605 1.97604 43.3515 1.65746 43.6305 1.42853C43.9095 1.19959 44.2592 1.07446 44.6201 1.07446C44.981 1.07446 45.3307 1.19959 45.6097 1.42853C45.8887 1.65746 46.0796 1.97604 46.1501 2.33C46.4233 4.68789 46.2948 7.07505 45.7701 9.39C45.6697 9.74224 45.4501 10.0487 45.1487 10.2569C44.8474 10.4651 44.4831 10.5621 44.1181 10.5314C43.7531 10.5007 43.4101 10.3441 43.1478 10.0885C42.8855 9.83288 42.7202 9.49406 42.6801 9.13ZM20.3601 9.13C20.5566 6.85592 20.4218 4.56536 19.9601 2.33C19.8896 1.97604 19.6987 1.65746 19.4197 1.42853C19.1407 1.19959 18.791 1.07446 18.4301 1.07446C18.0692 1.07446 17.7195 1.19959 17.4405 1.42853C17.1615 1.65746 16.9705 1.97604 16.9001 2.33C16.6225 4.68776 16.751 7.07565 17.2801 9.39C17.3752 9.74595 17.5925 10.0571 17.894 10.269C18.1954 10.4809 18.5617 10.58 18.9289 10.549C19.296 10.518 19.6406 10.3589 19.9022 10.0995C20.1639 9.84004 20.3259 9.49686 20.3601 9.13ZM62.0001 48C62.0001 55.732 55.7321 62 48.0001 62C40.2681 62 34.0001 55.732 34.0001 48C34.0001 40.268 40.2681 34 48.0001 34C55.7321 34 62.0001 40.268 62.0001 48ZM49.4901 48C49.4901 48.8229 48.823 49.49 48.0001 49.49C47.1772 49.49 46.5101 48.8229 46.5101 48C46.5101 47.1771 47.1772 46.51 48.0001 46.51C48.823 46.51 49.4901 47.1771 49.4901 48ZM47.4201 36.69C47.0101 37.08 45.0801 38.53 45.5001 39.03C46.2401 39.93 49.5001 40.53 50.0301 39.98C50.5601 39.43 49.0301 37.23 48.7201 36.73C48.5529 36.5524 48.3221 36.4484 48.0784 36.4409C47.8346 36.4334 47.5978 36.523 47.4201 36.69ZM57.4501 54.17C57.3001 53.52 56.9201 51.63 55.9001 51.53C54.8801 51.43 53.3301 54.53 53.5201 55.06C53.7101 55.59 56.1401 55.51 56.7301 55.36C56.8643 55.3465 56.9935 55.3019 57.1076 55.2298C57.2216 55.1578 57.3173 55.0602 57.3872 54.9448C57.457 54.8293 57.499 54.6992 57.51 54.5648C57.5209 54.4303 57.5004 54.2952 57.4501 54.17Z" stroke="#494A4A" stroke-width="2" stroke-linecap="round" stroke-linejoin="round"/>
<path id="1px" d="M47.82 39.83C47.6467 42.0569 47.707 44.2957 48 46.51M48.86 49.22C49.86 49.94 52.19 51.67 54.27 53.1M48.44 57.48C48.44 58.48 48.26 59.08 48.3 59.48M59.48 47.57C58.9808 47.5283 58.4791 47.5283 57.98 47.57M38 47.58C37.49 47.58 36.88 47.49 36.46 47.58" stroke="#494A4A" stroke-linecap="round" stroke-linejoin="round"/>
</g>
</g>
</svg>
