<svg width="64" height="64" viewBox="0 0 64 64" fill="none" xmlns="http://www.w3.org/2000/svg">
<g id="Pictogram-search-code">
<g id="stroke-default">
<path id="2px-stroke-default" d="M19.4002 39.5001C19.4002 38.9478 18.9525 38.5001 18.4002 38.5001C17.8479 38.5001 17.4002 38.9478 17.4002 39.5001H19.4002ZM17.4002 39.6001C17.4002 40.1524 17.8479 40.6001 18.4002 40.6001C18.9525 40.6001 19.4002 40.1524 19.4002 39.6001H17.4002ZM33.5999 22.9C33.5999 22.3477 33.1522 21.9 32.5999 21.9C32.0476 21.9 31.5999 22.3477 31.5999 22.9H33.5999ZM31.5999 23C31.5999 23.5523 32.0476 24 32.5999 24C33.1522 24 33.5999 23.5523 33.5999 23H31.5999ZM52.9998 22.9C52.9998 22.3477 52.5521 21.9 51.9998 21.9C51.4475 21.9 50.9998 22.3477 50.9998 22.9H52.9998ZM50.9998 23C50.9998 23.5523 51.4475 24 51.9998 24C52.5521 24 52.9998 23.5523 52.9998 23H50.9998ZM25.793 34.9189C25.8588 34.3706 25.4677 33.8727 24.9193 33.8069C24.371 33.7411 23.8731 34.1323 23.8073 34.6807L25.793 34.9189ZM23.8063 44.8894C23.7453 45.4383 24.1408 45.9327 24.6897 45.9937C25.2386 46.0547 25.7331 45.6591 25.794 45.1102L23.8063 44.8894ZM13.6929 18.1191C13.7587 17.5708 13.3676 17.0729 12.8192 17.0071C12.2709 16.9413 11.773 17.3325 11.7072 17.8809L13.6929 18.1191ZM11.7062 28.0896C11.6452 28.6385 12.0407 29.1329 12.5896 29.1939C13.1385 29.2549 13.633 28.8593 13.694 28.3104L11.7062 28.0896ZM20.4928 18.1191C20.5586 17.5708 20.1674 17.0729 19.619 17.0071C19.0707 16.9413 18.5728 17.3325 18.507 17.8809L20.4928 18.1191ZM18.506 28.0896C18.445 28.6385 18.8405 29.1329 19.3894 29.1939C19.9383 29.2549 20.4328 28.8593 20.4938 28.3104L18.506 28.0896ZM39.8927 18.1191C39.9585 17.5708 39.5673 17.0729 39.0189 17.0071C38.4706 16.9413 37.9727 17.3325 37.9069 17.8809L39.8927 18.1191ZM37.9059 28.0896C37.8449 28.6385 38.2404 29.1329 38.7893 29.1939C39.3383 29.2549 39.8327 28.8593 39.8937 28.3104L37.9059 28.0896ZM52.6002 55.2V54.2C52.274 54.2 51.9683 54.3591 51.7811 54.6263C51.594 54.8935 51.5489 55.2352 51.6604 55.5417L52.6002 55.2ZM57.0002 61.6L56.2674 62.2804C56.2758 62.2895 56.2844 62.2984 56.2931 62.3071L57.0002 61.6ZM59.3002 62.3L59.5749 63.2615C59.5888 63.2575 59.6027 63.2533 59.6164 63.2487L59.3002 62.3ZM62.0002 59.8L61.1058 59.3528C61.1002 59.3638 61.0949 59.375 61.0898 59.3862L62.0002 59.8ZM61.6002 57.8L60.8002 58.4C60.8132 58.4174 60.8268 58.4343 60.8409 58.4508L61.6002 57.8ZM56.0002 53L55.5146 53.8742C55.5204 53.8774 55.5264 53.8806 55.5323 53.8838L56.0002 53ZM52.7002 55.2V56.2C53.0363 56.2 53.35 56.0311 53.535 55.7505C53.7201 55.4699 53.7518 55.115 53.6193 54.8061L52.7002 55.2ZM48.3665 61.8979C48.9175 61.8611 49.3345 61.3846 49.2977 60.8336C49.261 60.2825 48.7845 59.8656 48.2334 59.9023L48.3665 61.8979ZM4.79996 47.0001L5.79978 46.9809L5.79967 46.9763L4.79996 47.0001ZM4.99996 16.1001L4.00037 16.131L4.00085 16.1423L4.99996 16.1001ZM59.9 13.8001L60.8998 13.7793L60.8995 13.7689L59.9 13.8001ZM58.9 49.3001C58.9 49.8524 59.3477 50.3001 59.9 50.3001C60.4522 50.3001 60.9 49.8524 60.9 49.3001H58.9ZM17.4002 39.5001C17.4002 41.0627 17.2885 42.172 16.9487 42.8799C16.794 43.2022 16.6054 43.4096 16.3729 43.5469C16.1333 43.6884 15.7707 43.8001 15.2002 43.8001V45.8001C16.0297 45.8001 16.7671 45.6368 17.39 45.269C18.02 44.8969 18.4564 44.3605 18.7517 43.7453C19.3119 42.5782 19.4002 41.0375 19.4002 39.5001H17.4002ZM15.2002 43.8001C13.9512 43.8001 13.584 43.4945 13.3998 43.1977C13.122 42.7501 13.0002 41.9383 13.0002 40.4001H11.0002C11.0002 41.8619 11.0784 43.2501 11.7006 44.2525C12.4163 45.4057 13.6492 45.8001 15.2002 45.8001V43.8001ZM13.0002 40.4001C13.0002 38.8085 12.9607 37.5494 13.2134 36.6439C13.3302 36.2252 13.4846 35.9915 13.6491 35.8558C13.803 35.7288 14.0716 35.6001 14.6002 35.6001V33.6001C13.7288 33.6001 12.9724 33.8214 12.3763 34.3131C11.7908 34.7962 11.4702 35.45 11.287 36.1063C10.9397 37.3508 11.0002 38.9917 11.0002 40.4001H13.0002ZM14.6002 35.6001C16.176 35.6001 16.6963 36.0164 16.953 36.4484C17.3023 37.0363 17.4002 38 17.4002 39.6001H19.4002C19.4002 38.1002 19.348 36.5639 18.6724 35.4268C17.9041 34.1338 16.5244 33.6001 14.6002 33.6001V35.6001ZM19.4002 39.6001V39.5001H17.4002V39.6001H19.4002ZM31.5999 22.9C31.5999 24.4626 31.4882 25.5719 31.1484 26.2798C30.9937 26.6021 30.8051 26.8095 30.5726 26.9468C30.333 27.0883 29.9704 27.2 29.3999 27.2V29.2C30.2294 29.2 30.9668 29.0367 31.5897 28.6689C32.2197 28.2968 32.6561 27.7604 32.9514 27.1452C33.5116 25.9781 33.5999 24.4374 33.5999 22.9H31.5999ZM29.3999 27.2C28.1509 27.2 27.7838 26.8944 27.5995 26.5976C27.3217 26.15 27.1999 25.3382 27.1999 23.8H25.1999C25.1999 25.2618 25.2781 26.65 25.9003 27.6524C26.6161 28.8056 27.8489 29.2 29.3999 29.2V27.2ZM27.1999 23.8C27.1999 22.2084 27.1604 20.9493 27.4131 20.0438C27.5299 19.6251 27.6843 19.3914 27.8488 19.2557C28.0027 19.1287 28.2713 19 28.7999 19V17C27.9285 17 27.1721 17.2213 26.576 17.713C25.9905 18.1961 25.6699 18.8499 25.4867 19.5062C25.1394 20.7507 25.1999 22.3916 25.1999 23.8H27.1999ZM28.7999 19C30.3757 19 30.896 19.4163 31.1527 19.8483C31.5021 20.4362 31.5999 21.3999 31.5999 23H33.5999C33.5999 21.5001 33.5478 19.9638 32.8721 18.8267C32.1038 17.5337 30.7241 17 28.7999 17V19ZM33.5999 23V22.9H31.5999V23H33.5999ZM50.9998 22.9C50.9998 24.4626 50.8881 25.5719 50.5483 26.2798C50.3936 26.6021 50.205 26.8095 49.9725 26.9468C49.7329 27.0883 49.3703 27.2 48.7998 27.2V29.2C49.6293 29.2 50.3667 29.0367 50.9896 28.6689C51.6196 28.2968 52.056 27.7604 52.3513 27.1452C52.9115 25.9781 52.9998 24.4374 52.9998 22.9H50.9998ZM48.7998 27.2C47.5508 27.2 47.1837 26.8944 46.9994 26.5976C46.7216 26.15 46.5998 25.3382 46.5998 23.8H44.5998C44.5998 25.2618 44.678 26.65 45.3002 27.6524C46.016 28.8056 47.2488 29.2 48.7998 29.2V27.2ZM46.5998 23.8C46.5998 22.2084 46.5603 20.9493 46.813 20.0438C46.9298 19.6251 47.0842 19.3914 47.2487 19.2557C47.4026 19.1287 47.6712 19 48.1998 19V17C47.3284 17 46.572 17.2213 45.9759 17.713C45.3904 18.1961 45.0698 18.8499 44.8866 19.5062C44.5393 20.7507 44.5998 22.3916 44.5998 23.8H46.5998ZM48.1998 19C49.7756 19 50.2959 19.4163 50.5526 19.8483C50.902 20.4362 50.9998 21.3999 50.9998 23H52.9998C52.9998 21.5001 52.9477 19.9638 52.272 18.8267C51.5037 17.5337 50.124 17 48.1998 17V19ZM52.9998 23V22.9H50.9998V23H52.9998ZM23.8073 34.6807C23.6462 36.0228 23.7016 38.2106 23.7631 40.1933C23.8275 42.264 23.896 44.0815 23.8063 44.8894L25.794 45.1102C25.9043 44.1181 25.8229 42.0857 25.7622 40.1313C25.6988 38.089 25.6541 36.0768 25.793 34.9189L23.8073 34.6807ZM11.7072 17.8809C11.5461 19.223 11.6015 21.4108 11.6631 23.3935C11.7274 25.4642 11.796 27.2817 11.7062 28.0896L13.694 28.3104C13.8042 27.3183 13.7228 25.2858 13.6621 23.3315C13.5987 21.2892 13.554 19.277 13.6929 18.1191L11.7072 17.8809ZM18.507 17.8809C18.3459 19.223 18.4013 21.4108 18.4629 23.3935C18.5272 25.4642 18.5958 27.2817 18.506 28.0896L20.4938 28.3104C20.604 27.3183 20.5226 25.2858 20.4619 23.3315C20.3985 21.2892 20.3538 19.277 20.4928 18.1191L18.507 17.8809ZM37.9069 17.8809C37.7458 19.223 37.8012 21.4108 37.8628 23.3935C37.9271 25.4642 37.9957 27.2817 37.9059 28.0896L39.8937 28.3104C40.0039 27.3183 39.9225 25.2858 39.8618 23.3315C39.7984 21.2892 39.7537 19.277 39.8927 18.1191L37.9069 17.8809ZM53.5002 43.9C53.5002 49.3676 49.0678 53.8 43.6002 53.8V55.8C50.1724 55.8 55.5002 50.4722 55.5002 43.9H53.5002ZM43.6002 53.8C38.1326 53.8 33.7002 49.3676 33.7002 43.9H31.7002C31.7002 50.4722 37.028 55.8 43.6002 55.8V53.8ZM33.7002 43.9C33.7002 38.4324 38.1326 34 43.6002 34V32C37.028 32 31.7002 37.3278 31.7002 43.9H33.7002ZM43.6002 34C49.0678 34 53.5002 38.4324 53.5002 43.9H55.5002C55.5002 37.3278 50.1724 32 43.6002 32V34ZM50.8931 52.6071L52.7931 54.5071L54.2073 53.0929L52.3073 51.1929L50.8931 52.6071ZM51.6604 55.5417C52.1087 56.7747 52.9495 58.1149 53.8043 59.2887C54.6691 60.4761 55.5953 61.5567 56.2674 62.2804L57.733 60.9195C57.105 60.2433 56.2313 59.2239 55.4211 58.1113C54.6009 56.9851 53.8917 55.8253 53.54 54.8583L51.6604 55.5417ZM56.2931 62.3071C56.7239 62.7379 57.2735 63.0406 57.8227 63.207C58.3645 63.3712 58.9921 63.4281 59.5749 63.2615L59.0255 61.3385C58.9083 61.3719 58.6859 61.3788 58.4027 61.293C58.1269 61.2094 57.8765 61.0621 57.7073 60.8929L56.2931 62.3071ZM59.6164 63.2487C61.1133 62.7497 62.3108 61.5334 62.9106 60.2138L61.0898 59.3862C60.6896 60.2666 59.8871 61.0503 58.984 61.3513L59.6164 63.2487ZM62.8946 60.2472C63.1663 59.7038 63.2928 59.1344 63.1476 58.5291C63.0146 57.9751 62.6812 57.5246 62.3595 57.1492L60.8409 58.4508C61.1192 58.7754 61.1858 58.9249 61.2028 58.9959C61.2075 59.0156 61.2341 59.0962 61.1058 59.3528L62.8946 60.2472ZM62.4002 57.2C61.7383 56.3175 60.7024 55.2883 59.6377 54.3776C58.5737 53.4674 57.4103 52.615 56.4681 52.1162L55.5323 53.8838C56.2901 54.285 57.3267 55.0326 58.3377 55.8974C59.348 56.7617 60.2621 57.6825 60.8002 58.4L62.4002 57.2ZM56.4858 52.1258C55.8633 51.78 55.1584 51.9449 54.7394 52.0881C54.2514 52.2548 53.7547 52.5312 53.3267 52.8308C52.8999 53.1296 52.4854 53.4907 52.1852 53.8617C52.0372 54.0447 51.885 54.2691 51.7868 54.522C51.6931 54.7632 51.598 55.1668 51.7811 55.5939L53.6193 54.8061C53.673 54.9312 53.6808 55.0443 53.6757 55.1207C53.6709 55.1931 53.6545 55.2372 53.6511 55.246C53.6467 55.2575 53.6632 55.2147 53.7401 55.1196C53.89 54.9343 54.1505 54.6954 54.4737 54.4692C54.7956 54.2438 55.124 54.0702 55.386 53.9807C55.717 53.8676 55.6871 53.97 55.5146 53.8742L56.4858 52.1258ZM52.7002 54.2H52.6002V56.2H52.7002V54.2ZM48.2334 59.9023C46.773 59.9997 45.2081 60.0001 43.4 60.0001V62.0001C45.1919 62.0001 46.8269 62.0005 48.3665 61.8979L48.2334 59.9023ZM43.4 60.0001H13.8V62.0001H43.4V60.0001ZM13.8 60.0001C11.6805 60.0001 9.79497 59.2225 8.37932 57.306C6.928 55.3411 5.89781 52.079 5.79977 46.9809L3.80014 47.0193C3.9021 52.3212 4.97191 56.0591 6.77059 58.4942C8.60495 60.9777 11.1194 62.0001 13.8 62.0001V60.0001ZM5.79967 46.9763C5.7503 44.9027 5.87446 38.9895 5.97483 32.6534C6.07466 26.352 6.15057 19.6435 5.99907 16.0579L4.00085 16.1423C4.14934 19.6567 4.07526 26.2982 3.97508 32.6218C3.87546 38.9106 3.74961 44.8975 3.80024 47.0239L5.79967 46.9763ZM5.99948 16.0692C5.8558 11.4236 7.16915 9.04509 8.8953 7.76607C10.6955 6.43215 13.1862 6.1001 15.8 6.1001V4.1001C13.1137 4.1001 10.0544 4.41804 7.70461 6.15913C5.28077 7.95511 3.84411 11.0766 4.00044 16.131L5.99948 16.0692ZM15.8 6.1001H51.3V4.1001H15.8V6.1001ZM51.3 6.1001C53.5542 6.1001 55.3776 6.64073 56.6553 7.79279C57.9199 8.933 58.8061 10.8138 58.9004 13.8313L60.8995 13.7689C60.7938 10.3864 59.78 7.91719 57.9946 6.30741C56.2223 4.70946 53.8458 4.1001 51.3 4.1001V6.1001ZM58.9002 13.8209C59.0999 23.4086 58.9 30.6716 58.9 47.4001H60.9C60.9 30.7286 61.1 23.3916 60.8997 13.7793L58.9002 13.8209ZM58.9 47.4001C58.9 47.4015 58.9 47.4028 58.9 47.4042C58.9 47.4056 58.9 47.4069 58.9 47.4083C58.9 47.4097 58.9 47.411 58.9 47.4124C58.9 47.4138 58.9 47.4151 58.9 47.4165C58.9 47.4178 58.9 47.4192 58.9 47.4206C58.9 47.4219 58.9 47.4233 58.9 47.4247C58.9 47.426 58.9 47.4274 58.9 47.4287C58.9 47.4301 58.9 47.4315 58.9 47.4328C58.9 47.4342 58.9 47.4356 58.9 47.4369C58.9 47.4383 58.9 47.4396 58.9 47.441C58.9 47.4424 58.9 47.4437 58.9 47.4451C58.9 47.4464 58.9 47.4478 58.9 47.4492C58.9 47.4505 58.9 47.4519 58.9 47.4532C58.9 47.4546 58.9 47.4559 58.9 47.4573C58.9 47.4586 58.9 47.46 58.9 47.4614C58.9 47.4627 58.9 47.4641 58.9 47.4654C58.9 47.4668 58.9 47.4681 58.9 47.4695C58.9 47.4708 58.9 47.4722 58.9 47.4736C58.9 47.4749 58.9 47.4763 58.9 47.4776C58.9 47.479 58.9 47.4803 58.9 47.4817C58.9 47.483 58.9 47.4844 58.9 47.4857C58.9 47.4871 58.9 47.4884 58.9 47.4898C58.9 47.4911 58.9 47.4925 58.9 47.4938C58.9 47.4952 58.9 47.4965 58.9 47.4979C58.9 47.4992 58.9 47.5006 58.9 47.5019C58.9 47.5033 58.9 47.5046 58.9 47.506C58.9 47.5073 58.9 47.5087 58.9 47.51C58.9 47.5114 58.9 47.5127 58.9 47.5141C58.9 47.5154 58.9 47.5168 58.9 47.5181C58.9 47.5194 58.9 47.5208 58.9 47.5221C58.9 47.5235 58.9 47.5248 58.9 47.5262C58.9 47.5275 58.9 47.5289 58.9 47.5302C58.9 47.5315 58.9 47.5329 58.9 47.5342C58.9 47.5356 58.9 47.5369 58.9 47.5383C58.9 47.5396 58.9 47.5409 58.9 47.5423C58.9 47.5436 58.9 47.545 58.9 47.5463C58.9 47.5476 58.9 47.549 58.9 47.5503C58.9 47.5517 58.9 47.553 58.9 47.5543C58.9 47.5557 58.9 47.557 58.9 47.5584C58.9 47.5597 58.9 47.561 58.9 47.5624C58.9 47.5637 58.9 47.565 58.9 47.5664C58.9 47.5677 58.9 47.5691 58.9 47.5704C58.9 47.5717 58.9 47.5731 58.9 47.5744C58.9 47.5757 58.9 47.5771 58.9 47.5784C58.9 47.5797 58.9 47.5811 58.9 47.5824C58.9 47.5837 58.9 47.5851 58.9 47.5864C58.9 47.5877 58.9 47.5891 58.9 47.5904C58.9 47.5917 58.9 47.5931 58.9 47.5944C58.9 47.5957 58.9 47.5971 58.9 47.5984C58.9 47.5997 58.9 47.6011 58.9 47.6024C58.9 47.6037 58.9 47.6051 58.9 47.6064C58.9 47.6077 58.9 47.6091 58.9 47.6104C58.9 47.6117 58.9 47.613 58.9 47.6144C58.9 47.6157 58.9 47.617 58.9 47.6184C58.9 47.6197 58.9 47.621 58.9 47.6223C58.9 47.6237 58.9 47.625 58.9 47.6263C58.9 47.6277 58.9 47.629 58.9 47.6303C58.9 47.6316 58.9 47.633 58.9 47.6343C58.9 47.6356 58.9 47.6369 58.9 47.6383C58.9 47.6396 58.9 47.6409 58.9 47.6422C58.9 47.6436 58.9 47.6449 58.9 47.6462C58.9 47.6475 58.9 47.6488 58.9 47.6502C58.9 47.6515 58.9 47.6528 58.9 47.6541C58.9 47.6555 58.9 47.6568 58.9 47.6581C58.9 47.6594 58.9 47.6607 58.9 47.6621C58.9 47.6634 58.9 47.6647 58.9 47.666C58.9 47.6673 58.9 47.6687 58.9 47.67C58.9 47.6713 58.9 47.6726 58.9 47.6739C58.9 47.6753 58.9 47.6766 58.9 47.6779C58.9 47.6792 58.9 47.6805 58.9 47.6819C58.9 47.6832 58.9 47.6845 58.9 47.6858C58.9 47.6871 58.9 47.6884 58.9 47.6898C58.9 47.6911 58.9 47.6924 58.9 47.6937C58.9 47.695 58.9 47.6963 58.9 47.6976C58.9 47.699 58.9 47.7003 58.9 47.7016C58.9 47.7029 58.9 47.7042 58.9 47.7055C58.9 47.7068 58.9 47.7082 58.9 47.7095C58.9 47.7108 58.9 47.7121 58.9 47.7134C58.9 47.7147 58.9 47.716 58.9 47.7173C58.9 47.7187 58.9 47.72 58.9 47.7213C58.9 47.7226 58.9 47.7239 58.9 47.7252C58.9 47.7265 58.9 47.7278 58.9 47.7291C58.9 47.7304 58.9 47.7318 58.9 47.7331C58.9 47.7344 58.9 47.7357 58.9 47.737C58.9 47.7383 58.9 47.7396 58.9 47.7409C58.9 47.7422 58.9 47.7435 58.9 47.7448C58.9 47.7461 58.9 47.7475 58.9 47.7488C58.9 47.7501 58.9 47.7514 58.9 47.7527C58.9 47.754 58.9 47.7553 58.9 47.7566C58.9 47.7579 58.9 47.7592 58.9 47.7605C58.9 47.7618 58.9 47.7631 58.9 47.7644C58.9 47.7657 58.9 47.767 58.9 47.7683C58.9 47.7696 58.9 47.7709 58.9 47.7722C58.9 47.7735 58.9 47.7748 58.9 47.7761C58.9 47.7775 58.9 47.7788 58.9 47.7801C58.9 47.7814 58.9 47.7827 58.9 47.784C58.9 47.7853 58.9 47.7866 58.9 47.7879C58.9 47.7892 58.9 47.7905 58.9 47.7918C58.9 47.7931 58.9 47.7944 58.9 47.7957C58.9 47.797 58.9 47.7983 58.9 47.7995C58.9 47.8008 58.9 47.8021 58.9 47.8034C58.9 47.8047 58.9 47.806 58.9 47.8073C58.9 47.8086 58.9 47.8099 58.9 47.8112C58.9 47.8125 58.9 47.8138 58.9 47.8151C58.9 47.8164 58.9 47.8177 58.9 47.819C58.9 47.8203 58.9 47.8216 58.9 47.8229C58.9 47.8242 58.9 47.8255 58.9 47.8268C58.9 47.8281 58.9 47.8294 58.9 47.8307C58.9 47.8319 58.9 47.8332 58.9 47.8345C58.9 47.8358 58.9 47.8371 58.9 47.8384C58.9 47.8397 58.9 47.841 58.9 47.8423C58.9 47.8436 58.9 47.8449 58.9 47.8462C58.9 47.8475 58.9 47.8487 58.9 47.85C58.9 47.8513 58.9 47.8526 58.9 47.8539C58.9 47.8552 58.9 47.8565 58.9 47.8578C58.9 47.8591 58.9 47.8604 58.9 47.8616C58.9 47.8629 58.9 47.8642 58.9 47.8655C58.9 47.8668 58.9 47.8681 58.9 47.8694C58.9 47.8707 58.9 47.8719 58.9 47.8732C58.9 47.8745 58.9 47.8758 58.9 47.8771C58.9 47.8784 58.9 47.8797 58.9 47.8809C58.9 47.8822 58.9 47.8835 58.9 47.8848C58.9 47.8861 58.9 47.8874 58.9 47.8887C58.9 47.8899 58.9 47.8912 58.9 47.8925C58.9 47.8938 58.9 47.8951 58.9 47.8964C58.9 47.8976 58.9 47.8989 58.9 47.9002C58.9 47.9015 58.9 47.9028 58.9 47.9041C58.9 47.9053 58.9 47.9066 58.9 47.9079C58.9 47.9092 58.9 47.9105 58.9 47.9118C58.9 47.913 58.9 47.9143 58.9 47.9156C58.9 47.9169 58.9 47.9182 58.9 47.9194C58.9 47.9207 58.9 47.922 58.9 47.9233C58.9 47.9246 58.9 47.9258 58.9 47.9271C58.9 47.9284 58.9 47.9297 58.9 47.9309C58.9 47.9322 58.9 47.9335 58.9 47.9348C58.9 47.9361 58.9 47.9373 58.9 47.9386C58.9 47.9399 58.9 47.9412 58.9 47.9424C58.9 47.9437 58.9 47.945 58.9 47.9463C58.9 47.9475 58.9 47.9488 58.9 47.9501C58.9 47.9514 58.9 47.9527 58.9 47.9539C58.9 47.9552 58.9 47.9565 58.9 47.9578C58.9 47.959 58.9 47.9603 58.9 47.9616C58.9 47.9628 58.9 47.9641 58.9 47.9654C58.9 47.9667 58.9 47.9679 58.9 47.9692C58.9 47.9705 58.9 47.9718 58.9 47.973C58.9 47.9743 58.9 47.9756 58.9 47.9768C58.9 47.9781 58.9 47.9794 58.9 47.9807C58.9 47.9819 58.9 47.9832 58.9 47.9845C58.9 47.9857 58.9 47.987 58.9 47.9883C58.9 47.9896 58.9 47.9908 58.9 47.9921C58.9 47.9934 58.9 47.9946 58.9 47.9959C58.9 47.9972 58.9 47.9984 58.9 47.9997C58.9 48.001 58.9 48.0022 58.9 48.0035C58.9 48.0048 58.9 48.006 58.9 48.0073C58.9 48.0086 58.9 48.0098 58.9 48.0111C58.9 48.0124 58.9 48.0136 58.9 48.0149C58.9 48.0162 58.9 48.0174 58.9 48.0187C58.9 48.02 58.9 48.0212 58.9 48.0225C58.9 48.0238 58.9 48.025 58.9 48.0263C58.9 48.0276 58.9 48.0288 58.9 48.0301C58.9 48.0314 58.9 48.0326 58.9 48.0339C58.9 48.0352 58.9 48.0364 58.9 48.0377C58.9 48.0389 58.9 48.0402 58.9 48.0415C58.9 48.0427 58.9 48.044 58.9 48.0453C58.9 48.0465 58.9 48.0478 58.9 48.049C58.9 48.0503 58.9 48.0516 58.9 48.0528C58.9 48.0541 58.9 48.0553 58.9 48.0566C58.9 48.0579 58.9 48.0591 58.9 48.0604C58.9 48.0616 58.9 48.0629 58.9 48.0642C58.9 48.0654 58.9 48.0667 58.9 48.0679C58.9 48.0692 58.9 48.0705 58.9 48.0717C58.9 48.073 58.9 48.0742 58.9 48.0755C58.9 48.0768 58.9 48.078 58.9 48.0793C58.9 48.0805 58.9 48.0818 58.9 48.083C58.9 48.0843 58.9 48.0856 58.9 48.0868C58.9 48.0881 58.9 48.0893 58.9 48.0906C58.9 48.0918 58.9 48.0931 58.9 48.0943C58.9 48.0956 58.9 48.0969 58.9 48.0981C58.9 48.0994 58.9 48.1006 58.9 48.1019C58.9 48.1031 58.9 48.1044 58.9 48.1056C58.9 48.1069 58.9 48.1082 58.9 48.1094C58.9 48.1107 58.9 48.1119 58.9 48.1132C58.9 48.1144 58.9 48.1157 58.9 48.1169C58.9 48.1182 58.9 48.1194 58.9 48.1207C58.9 48.1219 58.9 48.1232 58.9 48.1244C58.9 48.1257 58.9 48.1269 58.9 48.1282C58.9 48.1294 58.9 48.1307 58.9 48.1319C58.9 48.1332 58.9 48.1344 58.9 48.1357C58.9 48.1369 58.9 48.1382 58.9 48.1394C58.9 48.1407 58.9 48.1419 58.9 48.1432C58.9 48.1444 58.9 48.1457 58.9 48.1469C58.9 48.1482 58.9 48.1494 58.9 48.1507C58.9 48.1519 58.9 48.1532 58.9 48.1544C58.9 48.1557 58.9 48.1569 58.9 48.1582C58.9 48.1594 58.9 48.1607 58.9 48.1619C58.9 48.1632 58.9 48.1644 58.9 48.1656C58.9 48.1669 58.9 48.1681 58.9 48.1694C58.9 48.1706 58.9 48.1719 58.9 48.1731C58.9 48.1744 58.9 48.1756 58.9 48.1769C58.9 48.1781 58.9 48.1793 58.9 48.1806C58.9 48.1818 58.9 48.1831 58.9 48.1843C58.9 48.1856 58.9 48.1868 58.9 48.1881C58.9 48.1893 58.9 48.1905 58.9 48.1918C58.9 48.193 58.9 48.1943 58.9 48.1955C58.9 48.1968 58.9 48.198 58.9 48.1992C58.9 48.2005 58.9 48.2017 58.9 48.203C58.9 48.2042 58.9 48.2054 58.9 48.2067C58.9 48.2079 58.9 48.2092 58.9 48.2104C58.9 48.2117 58.9 48.2129 58.9 48.2141C58.9 48.2154 58.9 48.2166 58.9 48.2179C58.9 48.2191 58.9 48.2203 58.9 48.2216C58.9 48.2228 58.9 48.2241 58.9 48.2253C58.9 48.2265 58.9 48.2278 58.9 48.229C58.9 48.2302 58.9 48.2315 58.9 48.2327C58.9 48.234 58.9 48.2352 58.9 48.2364C58.9 48.2377 58.9 48.2389 58.9 48.2401C58.9 48.2414 58.9 48.2426 58.9 48.2439C58.9 48.2451 58.9 48.2463 58.9 48.2476C58.9 48.2488 58.9 48.25 58.9 48.2513C58.9 48.2525 58.9 48.2537 58.9 48.255C58.9 48.2562 58.9 48.2575 58.9 48.2587C58.9 48.2599 58.9 48.2612 58.9 48.2624C58.9 48.2636 58.9 48.2649 58.9 48.2661C58.9 48.2673 58.9 48.2686 58.9 48.2698C58.9 48.271 58.9 48.2723 58.9 48.2735C58.9 48.2747 58.9 48.276 58.9 48.2772C58.9 48.2784 58.9 48.2797 58.9 48.2809C58.9 48.2821 58.9 48.2834 58.9 48.2846C58.9 48.2858 58.9 48.2871 58.9 48.2883C58.9 48.2895 58.9 48.2907 58.9 48.292C58.9 48.2932 58.9 48.2944 58.9 48.2957C58.9 48.2969 58.9 48.2981 58.9 48.2994C58.9 48.3006 58.9 48.3018 58.9 48.3031C58.9 48.3043 58.9 48.3055 58.9 48.3067C58.9 48.308 58.9 48.3092 58.9 48.3104C58.9 48.3117 58.9 48.3129 58.9 48.3141C58.9 48.3153 58.9 48.3166 58.9 48.3178C58.9 48.319 58.9 48.3203 58.9 48.3215C58.9 48.3227 58.9 48.3239 58.9 48.3252C58.9 48.3264 58.9 48.3276 58.9 48.3289C58.9 48.3301 58.9 48.3313 58.9 48.3325C58.9 48.3338 58.9 48.335 58.9 48.3362C58.9 48.3374 58.9 48.3387 58.9 48.3399C58.9 48.3411 58.9 48.3423 58.9 48.3436C58.9 48.3448 58.9 48.346 58.9 48.3472C58.9 48.3485 58.9 48.3497 58.9 48.3509C58.9 48.3521 58.9 48.3534 58.9 48.3546C58.9 48.3558 58.9 48.357 58.9 48.3583C58.9 48.3595 58.9 48.3607 58.9 48.3619C58.9 48.3632 58.9 48.3644 58.9 48.3656C58.9 48.3668 58.9 48.368 58.9 48.3693C58.9 48.3705 58.9 48.3717 58.9 48.3729C58.9 48.3742 58.9 48.3754 58.9 48.3766C58.9 48.3778 58.9 48.379 58.9 48.3803C58.9 48.3815 58.9 48.3827 58.9 48.3839C58.9 48.3852 58.9 48.3864 58.9 48.3876C58.9 48.3888 58.9 48.39 58.9 48.3913C58.9 48.3925 58.9 48.3937 58.9 48.3949C58.9 48.3961 58.9 48.3974 58.9 48.3986C58.9 48.3998 58.9 48.401 58.9 48.4022C58.9 48.4035 58.9 48.4047 58.9 48.4059C58.9 48.4071 58.9 48.4083 58.9 48.4095C58.9 48.4108 58.9 48.412 58.9 48.4132C58.9 48.4144 58.9 48.4156 58.9 48.4169C58.9 48.4181 58.9 48.4193 58.9 48.4205C58.9 48.4217 58.9 48.4229 58.9 48.4242C58.9 48.4254 58.9 48.4266 58.9 48.4278C58.9 48.429 58.9 48.4302 58.9 48.4315C58.9 48.4327 58.9 48.4339 58.9 48.4351C58.9 48.4363 58.9 48.4375 58.9 48.4388C58.9 48.44 58.9 48.4412 58.9 48.4424C58.9 48.4436 58.9 48.4448 58.9 48.446C58.9 48.4473 58.9 48.4485 58.9 48.4497C58.9 48.4509 58.9 48.4521 58.9 48.4533C58.9 48.4545 58.9 48.4558 58.9 48.457C58.9 48.4582 58.9 48.4594 58.9 48.4606C58.9 48.4618 58.9 48.463 58.9 48.4643C58.9 48.4655 58.9 48.4667 58.9 48.4679C58.9 48.4691 58.9 48.4703 58.9 48.4715C58.9 48.4727 58.9 48.474 58.9 48.4752C58.9 48.4764 58.9 48.4776 58.9 48.4788C58.9 48.48 58.9 48.4812 58.9 48.4824C58.9 48.4837 58.9 48.4849 58.9 48.4861C58.9 48.4873 58.9 48.4885 58.9 48.4897C58.9 48.4909 58.9 48.4921 58.9 48.4933C58.9 48.4945 58.9 48.4958 58.9 48.497C58.9 48.4982 58.9 48.4994 58.9 48.5006C58.9 48.5018 58.9 48.503 58.9 48.5042C58.9 48.5054 58.9 48.5066 58.9 48.5079C58.9 48.5091 58.9 48.5103 58.9 48.5115C58.9 48.5127 58.9 48.5139 58.9 48.5151C58.9 48.5163 58.9 48.5175 58.9 48.5187C58.9 48.5199 58.9 48.5211 58.9 48.5224C58.9 48.5236 58.9 48.5248 58.9 48.526C58.9 48.5272 58.9 48.5284 58.9 48.5296C58.9 48.5308 58.9 48.532 58.9 48.5332C58.9 48.5344 58.9 48.5356 58.9 48.5368C58.9 48.538 58.9 48.5392 58.9 48.5405C58.9 48.5417 58.9 48.5429 58.9 48.5441C58.9 48.5453 58.9 48.5465 58.9 48.5477C58.9 48.5489 58.9 48.5501 58.9 48.5513C58.9 48.5525 58.9 48.5537 58.9 48.5549C58.9 48.5561 58.9 48.5573 58.9 48.5585C58.9 48.5597 58.9 48.5609 58.9 48.5621C58.9 48.5633 58.9 48.5645 58.9 48.5658C58.9 48.567 58.9 48.5682 58.9 48.5694C58.9 48.5706 58.9 48.5718 58.9 48.573C58.9 48.5742 58.9 48.5754 58.9 48.5766C58.9 48.5778 58.9 48.579 58.9 48.5802C58.9 48.5814 58.9 48.5826 58.9 48.5838C58.9 48.585 58.9 48.5862 58.9 48.5874C58.9 48.5886 58.9 48.5898 58.9 48.591C58.9 48.5922 58.9 48.5934 58.9 48.5946C58.9 48.5958 58.9 48.597 58.9 48.5982C58.9 48.5994 58.9 48.6006 58.9 48.6018C58.9 48.603 58.9 48.6042 58.9 48.6054C58.9 48.6066 58.9 48.6078 58.9 48.609C58.9 48.6102 58.9 48.6114 58.9 48.6126C58.9 48.6138 58.9 48.615 58.9 48.6162C58.9 48.6174 58.9 48.6186 58.9 48.6198C58.9 48.621 58.9 48.6222 58.9 48.6234C58.9 48.6246 58.9 48.6258 58.9 48.627C58.9 48.6282 58.9 48.6294 58.9 48.6306C58.9 48.6318 58.9 48.633 58.9 48.6342C58.9 48.6354 58.9 48.6366 58.9 48.6378C58.9 48.639 58.9 48.6402 58.9 48.6414C58.9 48.6426 58.9 48.6438 58.9 48.645C58.9 48.6462 58.9 48.6474 58.9 48.6486C58.9 48.6498 58.9 48.651 58.9 48.6522C58.9 48.6534 58.9 48.6546 58.9 48.6558C58.9 48.657 58.9 48.6582 58.9 48.6594C58.9 48.6605 58.9 48.6617 58.9 48.6629C58.9 48.6641 58.9 48.6653 58.9 48.6665C58.9 48.6677 58.9 48.6689 58.9 48.6701C58.9 48.6713 58.9 48.6725 58.9 48.6737C58.9 48.6749 58.9 48.6761 58.9 48.6773C58.9 48.6785 58.9 48.6797 58.9 48.6809C58.9 48.6821 58.9 48.6833 58.9 48.6845C58.9 48.6856 58.9 48.6868 58.9 48.688C58.9 48.6892 58.9 48.6904 58.9 48.6916C58.9 48.6928 58.9 48.694 58.9 48.6952C58.9 48.6964 58.9 48.6976 58.9 48.6988C58.9 48.7 58.9 48.7012 58.9 48.7024C58.9 48.7036 58.9 48.7047 58.9 48.7059C58.9 48.7071 58.9 48.7083 58.9 48.7095C58.9 48.7107 58.9 48.7119 58.9 48.7131C58.9 48.7143 58.9 48.7155 58.9 48.7167C58.9 48.7179 58.9 48.7191 58.9 48.7202C58.9 48.7214 58.9 48.7226 58.9 48.7238C58.9 48.725 58.9 48.7262 58.9 48.7274C58.9 48.7286 58.9 48.7298 58.9 48.731C58.9 48.7322 58.9 48.7334 58.9 48.7345C58.9 48.7357 58.9 48.7369 58.9 48.7381C58.9 48.7393 58.9 48.7405 58.9 48.7417C58.9 48.7429 58.9 48.7441 58.9 48.7453C58.9 48.7465 58.9 48.7476 58.9 48.7488C58.9 48.75 58.9 48.7512 58.9 48.7524C58.9 48.7536 58.9 48.7548 58.9 48.756C58.9 48.7572 58.9 48.7584 58.9 48.7595C58.9 48.7607 58.9 48.7619 58.9 48.7631C58.9 48.7643 58.9 48.7655 58.9 48.7667C58.9 48.7679 58.9 48.7691 58.9 48.7702C58.9 48.7714 58.9 48.7726 58.9 48.7738C58.9 48.775 58.9 48.7762 58.9 48.7774C58.9 48.7786 58.9 48.7797 58.9 48.7809C58.9 48.7821 58.9 48.7833 58.9 48.7845C58.9 48.7857 58.9 48.7869 58.9 48.7881C58.9 48.7892 58.9 48.7904 58.9 48.7916C58.9 48.7928 58.9 48.794 58.9 48.7952C58.9 48.7964 58.9 48.7976 58.9 48.7987C58.9 48.7999 58.9 48.8011 58.9 48.8023C58.9 48.8035 58.9 48.8047 58.9 48.8059C58.9 48.8071 58.9 48.8082 58.9 48.8094C58.9 48.8106 58.9 48.8118 58.9 48.813C58.9 48.8142 58.9 48.8154 58.9 48.8165C58.9 48.8177 58.9 48.8189 58.9 48.8201C58.9 48.8213 58.9 48.8225 58.9 48.8237C58.9 48.8248 58.9 48.826 58.9 48.8272C58.9 48.8284 58.9 48.8296 58.9 48.8308C58.9 48.832 58.9 48.8331 58.9 48.8343C58.9 48.8355 58.9 48.8367 58.9 48.8379C58.9 48.8391 58.9 48.8402 58.9 48.8414C58.9 48.8426 58.9 48.8438 58.9 48.845C58.9 48.8462 58.9 48.8474 58.9 48.8485C58.9 48.8497 58.9 48.8509 58.9 48.8521C58.9 48.8533 58.9 48.8545 58.9 48.8556C58.9 48.8568 58.9 48.858 58.9 48.8592C58.9 48.8604 58.9 48.8616 58.9 48.8627C58.9 48.8639 58.9 48.8651 58.9 48.8663C58.9 48.8675 58.9 48.8687 58.9 48.8698C58.9 48.871 58.9 48.8722 58.9 48.8734C58.9 48.8746 58.9 48.8758 58.9 48.8769C58.9 48.8781 58.9 48.8793 58.9 48.8805C58.9 48.8817 58.9 48.8828 58.9 48.884C58.9 48.8852 58.9 48.8864 58.9 48.8876C58.9 48.8888 58.9 48.8899 58.9 48.8911C58.9 48.8923 58.9 48.8935 58.9 48.8947C58.9 48.8959 58.9 48.897 58.9 48.8982C58.9 48.8994 58.9 48.9006 58.9 48.9018C58.9 48.9029 58.9 48.9041 58.9 48.9053C58.9 48.9065 58.9 48.9077 58.9 48.9088C58.9 48.91 58.9 48.9112 58.9 48.9124C58.9 48.9136 58.9 48.9147 58.9 48.9159C58.9 48.9171 58.9 48.9183 58.9 48.9195C58.9 48.9207 58.9 48.9218 58.9 48.923C58.9 48.9242 58.9 48.9254 58.9 48.9266C58.9 48.9277 58.9 48.9289 58.9 48.9301C58.9 48.9313 58.9 48.9325 58.9 48.9336C58.9 48.9348 58.9 48.936 58.9 48.9372C58.9 48.9384 58.9 48.9395 58.9 48.9407C58.9 48.9419 58.9 48.9431 58.9 48.9443C58.9 48.9454 58.9 48.9466 58.9 48.9478C58.9 48.949 58.9 48.9501 58.9 48.9513C58.9 48.9525 58.9 48.9537 58.9 48.9549C58.9 48.956 58.9 48.9572 58.9 48.9584C58.9 48.9596 58.9 48.9608 58.9 48.9619C58.9 48.9631 58.9 48.9643 58.9 48.9655C58.9 48.9667 58.9 48.9678 58.9 48.969C58.9 48.9702 58.9 48.9714 58.9 48.9725C58.9 48.9737 58.9 48.9749 58.9 48.9761C58.9 48.9773 58.9 48.9784 58.9 48.9796C58.9 48.9808 58.9 48.982 58.9 48.9832C58.9 48.9843 58.9 48.9855 58.9 48.9867C58.9 48.9879 58.9 48.989 58.9 48.9902C58.9 48.9914 58.9 48.9926 58.9 48.9937C58.9 48.9949 58.9 48.9961 58.9 48.9973C58.9 48.9985 58.9 48.9996 58.9 49.0008C58.9 49.002 58.9 49.0032 58.9 49.0043C58.9 49.0055 58.9 49.0067 58.9 49.0079C58.9 49.0091 58.9 49.0102 58.9 49.0114C58.9 49.0126 58.9 49.0138 58.9 49.0149C58.9 49.0161 58.9 49.0173 58.9 49.0185C58.9 49.0196 58.9 49.0208 58.9 49.022C58.9 49.0232 58.9 49.0243 58.9 49.0255C58.9 49.0267 58.9 49.0279 58.9 49.0291C58.9 49.0302 58.9 49.0314 58.9 49.0326C58.9 49.0338 58.9 49.0349 58.9 49.0361C58.9 49.0373 58.9 49.0385 58.9 49.0396C58.9 49.0408 58.9 49.042 58.9 49.0432C58.9 49.0443 58.9 49.0455 58.9 49.0467C58.9 49.0479 58.9 49.049 58.9 49.0502C58.9 49.0514 58.9 49.0526 58.9 49.0537C58.9 49.0549 58.9 49.0561 58.9 49.0573C58.9 49.0585 58.9 49.0596 58.9 49.0608C58.9 49.062 58.9 49.0632 58.9 49.0643C58.9 49.0655 58.9 49.0667 58.9 49.0679C58.9 49.069 58.9 49.0702 58.9 49.0714C58.9 49.0726 58.9 49.0737 58.9 49.0749C58.9 49.0761 58.9 49.0773 58.9 49.0784C58.9 49.0796 58.9 49.0808 58.9 49.082C58.9 49.0831 58.9 49.0843 58.9 49.0855C58.9 49.0867 58.9 49.0878 58.9 49.089C58.9 49.0902 58.9 49.0914 58.9 49.0925C58.9 49.0937 58.9 49.0949 58.9 49.096C58.9 49.0972 58.9 49.0984 58.9 49.0996C58.9 49.1007 58.9 49.1019 58.9 49.1031C58.9 49.1043 58.9 49.1054 58.9 49.1066C58.9 49.1078 58.9 49.109 58.9 49.1101C58.9 49.1113 58.9 49.1125 58.9 49.1137C58.9 49.1148 58.9 49.116 58.9 49.1172C58.9 49.1184 58.9 49.1195 58.9 49.1207C58.9 49.1219 58.9 49.1231 58.9 49.1242C58.9 49.1254 58.9 49.1266 58.9 49.1277C58.9 49.1289 58.9 49.1301 58.9 49.1313C58.9 49.1324 58.9 49.1336 58.9 49.1348C58.9 49.136 58.9 49.1371 58.9 49.1383C58.9 49.1395 58.9 49.1407 58.9 49.1418C58.9 49.143 58.9 49.1442 58.9 49.1453C58.9 49.1465 58.9 49.1477 58.9 49.1489C58.9 49.15 58.9 49.1512 58.9 49.1524C58.9 49.1536 58.9 49.1547 58.9 49.1559C58.9 49.1571 58.9 49.1583 58.9 49.1594C58.9 49.1606 58.9 49.1618 58.9 49.1629C58.9 49.1641 58.9 49.1653 58.9 49.1665C58.9 49.1676 58.9 49.1688 58.9 49.17C58.9 49.1712 58.9 49.1723 58.9 49.1735C58.9 49.1747 58.9 49.1758 58.9 49.177C58.9 49.1782 58.9 49.1794 58.9 49.1805C58.9 49.1817 58.9 49.1829 58.9 49.1841C58.9 49.1852 58.9 49.1864 58.9 49.1876C58.9 49.1887 58.9 49.1899 58.9 49.1911C58.9 49.1923 58.9 49.1934 58.9 49.1946C58.9 49.1958 58.9 49.197 58.9 49.1981C58.9 49.1993 58.9 49.2005 58.9 49.2016C58.9 49.2028 58.9 49.204 58.9 49.2052C58.9 49.2063 58.9 49.2075 58.9 49.2087C58.9 49.2099 58.9 49.211 58.9 49.2122C58.9 49.2134 58.9 49.2145 58.9 49.2157C58.9 49.2169 58.9 49.2181 58.9 49.2192C58.9 49.2204 58.9 49.2216 58.9 49.2227C58.9 49.2239 58.9 49.2251 58.9 49.2263C58.9 49.2274 58.9 49.2286 58.9 49.2298C58.9 49.231 58.9 49.2321 58.9 49.2333C58.9 49.2345 58.9 49.2356 58.9 49.2368C58.9 49.238 58.9 49.2392 58.9 49.2403C58.9 49.2415 58.9 49.2427 58.9 49.2438C58.9 49.245 58.9 49.2462 58.9 49.2474C58.9 49.2485 58.9 49.2497 58.9 49.2509C58.9 49.252 58.9 49.2532 58.9 49.2544C58.9 49.2556 58.9 49.2567 58.9 49.2579C58.9 49.2591 58.9 49.2603 58.9 49.2614C58.9 49.2626 58.9 49.2638 58.9 49.2649C58.9 49.2661 58.9 49.2673 58.9 49.2685C58.9 49.2696 58.9 49.2708 58.9 49.272C58.9 49.2731 58.9 49.2743 58.9 49.2755C58.9 49.2767 58.9 49.2778 58.9 49.279C58.9 49.2802 58.9 49.2813 58.9 49.2825C58.9 49.2837 58.9 49.2849 58.9 49.286C58.9 49.2872 58.9 49.2884 58.9 49.2896C58.9 49.2907 58.9 49.2919 58.9 49.2931C58.9 49.2942 58.9 49.2954 58.9 49.2966C58.9 49.2978 58.9 49.2989 58.9 49.3001H60.9C60.9 49.2989 60.9 49.2978 60.9 49.2966C60.9 49.2954 60.9 49.2942 60.9 49.2931C60.9 49.2919 60.9 49.2907 60.9 49.2896C60.9 49.2884 60.9 49.2872 60.9 49.286C60.9 49.2849 60.9 49.2837 60.9 49.2825C60.9 49.2813 60.9 49.2802 60.9 49.279C60.9 49.2778 60.9 49.2767 60.9 49.2755C60.9 49.2743 60.9 49.2731 60.9 49.272C60.9 49.2708 60.9 49.2696 60.9 49.2685C60.9 49.2673 60.9 49.2661 60.9 49.2649C60.9 49.2638 60.9 49.2626 60.9 49.2614C60.9 49.2603 60.9 49.2591 60.9 49.2579C60.9 49.2567 60.9 49.2556 60.9 49.2544C60.9 49.2532 60.9 49.252 60.9 49.2509C60.9 49.2497 60.9 49.2485 60.9 49.2474C60.9 49.2462 60.9 49.245 60.9 49.2438C60.9 49.2427 60.9 49.2415 60.9 49.2403C60.9 49.2392 60.9 49.238 60.9 49.2368C60.9 49.2356 60.9 49.2345 60.9 49.2333C60.9 49.2321 60.9 49.231 60.9 49.2298C60.9 49.2286 60.9 49.2274 60.9 49.2263C60.9 49.2251 60.9 49.2239 60.9 49.2227C60.9 49.2216 60.9 49.2204 60.9 49.2192C60.9 49.2181 60.9 49.2169 60.9 49.2157C60.9 49.2145 60.9 49.2134 60.9 49.2122C60.9 49.211 60.9 49.2099 60.9 49.2087C60.9 49.2075 60.9 49.2063 60.9 49.2052C60.9 49.204 60.9 49.2028 60.9 49.2016C60.9 49.2005 60.9 49.1993 60.9 49.1981C60.9 49.197 60.9 49.1958 60.9 49.1946C60.9 49.1934 60.9 49.1923 60.9 49.1911C60.9 49.1899 60.9 49.1887 60.9 49.1876C60.9 49.1864 60.9 49.1852 60.9 49.1841C60.9 49.1829 60.9 49.1817 60.9 49.1805C60.9 49.1794 60.9 49.1782 60.9 49.177C60.9 49.1758 60.9 49.1747 60.9 49.1735C60.9 49.1723 60.9 49.1712 60.9 49.17C60.9 49.1688 60.9 49.1676 60.9 49.1665C60.9 49.1653 60.9 49.1641 60.9 49.1629C60.9 49.1618 60.9 49.1606 60.9 49.1594C60.9 49.1583 60.9 49.1571 60.9 49.1559C60.9 49.1547 60.9 49.1536 60.9 49.1524C60.9 49.1512 60.9 49.15 60.9 49.1489C60.9 49.1477 60.9 49.1465 60.9 49.1453C60.9 49.1442 60.9 49.143 60.9 49.1418C60.9 49.1407 60.9 49.1395 60.9 49.1383C60.9 49.1371 60.9 49.136 60.9 49.1348C60.9 49.1336 60.9 49.1324 60.9 49.1313C60.9 49.1301 60.9 49.1289 60.9 49.1277C60.9 49.1266 60.9 49.1254 60.9 49.1242C60.9 49.1231 60.9 49.1219 60.9 49.1207C60.9 49.1195 60.9 49.1184 60.9 49.1172C60.9 49.116 60.9 49.1148 60.9 49.1137C60.9 49.1125 60.9 49.1113 60.9 49.1101C60.9 49.109 60.9 49.1078 60.9 49.1066C60.9 49.1054 60.9 49.1043 60.9 49.1031C60.9 49.1019 60.9 49.1007 60.9 49.0996C60.9 49.0984 60.9 49.0972 60.9 49.096C60.9 49.0949 60.9 49.0937 60.9 49.0925C60.9 49.0914 60.9 49.0902 60.9 49.089C60.9 49.0878 60.9 49.0867 60.9 49.0855C60.9 49.0843 60.9 49.0831 60.9 49.082C60.9 49.0808 60.9 49.0796 60.9 49.0784C60.9 49.0773 60.9 49.0761 60.9 49.0749C60.9 49.0737 60.9 49.0726 60.9 49.0714C60.9 49.0702 60.9 49.069 60.9 49.0679C60.9 49.0667 60.9 49.0655 60.9 49.0643C60.9 49.0632 60.9 49.062 60.9 49.0608C60.9 49.0596 60.9 49.0585 60.9 49.0573C60.9 49.0561 60.9 49.0549 60.9 49.0537C60.9 49.0526 60.9 49.0514 60.9 49.0502C60.9 49.049 60.9 49.0479 60.9 49.0467C60.9 49.0455 60.9 49.0443 60.9 49.0432C60.9 49.042 60.9 49.0408 60.9 49.0396C60.9 49.0385 60.9 49.0373 60.9 49.0361C60.9 49.0349 60.9 49.0338 60.9 49.0326C60.9 49.0314 60.9 49.0302 60.9 49.0291C60.9 49.0279 60.9 49.0267 60.9 49.0255C60.9 49.0243 60.9 49.0232 60.9 49.022C60.9 49.0208 60.9 49.0196 60.9 49.0185C60.9 49.0173 60.9 49.0161 60.9 49.0149C60.9 49.0138 60.9 49.0126 60.9 49.0114C60.9 49.0102 60.9 49.0091 60.9 49.0079C60.9 49.0067 60.9 49.0055 60.9 49.0043C60.9 49.0032 60.9 49.002 60.9 49.0008C60.9 48.9996 60.9 48.9985 60.9 48.9973C60.9 48.9961 60.9 48.9949 60.9 48.9937C60.9 48.9926 60.9 48.9914 60.9 48.9902C60.9 48.989 60.9 48.9879 60.9 48.9867C60.9 48.9855 60.9 48.9843 60.9 48.9832C60.9 48.982 60.9 48.9808 60.9 48.9796C60.9 48.9784 60.9 48.9773 60.9 48.9761C60.9 48.9749 60.9 48.9737 60.9 48.9725C60.9 48.9714 60.9 48.9702 60.9 48.969C60.9 48.9678 60.9 48.9667 60.9 48.9655C60.9 48.9643 60.9 48.9631 60.9 48.9619C60.9 48.9608 60.9 48.9596 60.9 48.9584C60.9 48.9572 60.9 48.956 60.9 48.9549C60.9 48.9537 60.9 48.9525 60.9 48.9513C60.9 48.9501 60.9 48.949 60.9 48.9478C60.9 48.9466 60.9 48.9454 60.9 48.9443C60.9 48.9431 60.9 48.9419 60.9 48.9407C60.9 48.9395 60.9 48.9384 60.9 48.9372C60.9 48.936 60.9 48.9348 60.9 48.9336C60.9 48.9325 60.9 48.9313 60.9 48.9301C60.9 48.9289 60.9 48.9277 60.9 48.9266C60.9 48.9254 60.9 48.9242 60.9 48.923C60.9 48.9218 60.9 48.9207 60.9 48.9195C60.9 48.9183 60.9 48.9171 60.9 48.9159C60.9 48.9147 60.9 48.9136 60.9 48.9124C60.9 48.9112 60.9 48.91 60.9 48.9088C60.9 48.9077 60.9 48.9065 60.9 48.9053C60.9 48.9041 60.9 48.9029 60.9 48.9018C60.9 48.9006 60.9 48.8994 60.9 48.8982C60.9 48.897 60.9 48.8959 60.9 48.8947C60.9 48.8935 60.9 48.8923 60.9 48.8911C60.9 48.8899 60.9 48.8888 60.9 48.8876C60.9 48.8864 60.9 48.8852 60.9 48.884C60.9 48.8828 60.9 48.8817 60.9 48.8805C60.9 48.8793 60.9 48.8781 60.9 48.8769C60.9 48.8758 60.9 48.8746 60.9 48.8734C60.9 48.8722 60.9 48.871 60.9 48.8698C60.9 48.8687 60.9 48.8675 60.9 48.8663C60.9 48.8651 60.9 48.8639 60.9 48.8627C60.9 48.8616 60.9 48.8604 60.9 48.8592C60.9 48.858 60.9 48.8568 60.9 48.8556C60.9 48.8545 60.9 48.8533 60.9 48.8521C60.9 48.8509 60.9 48.8497 60.9 48.8485C60.9 48.8474 60.9 48.8462 60.9 48.845C60.9 48.8438 60.9 48.8426 60.9 48.8414C60.9 48.8402 60.9 48.8391 60.9 48.8379C60.9 48.8367 60.9 48.8355 60.9 48.8343C60.9 48.8331 60.9 48.832 60.9 48.8308C60.9 48.8296 60.9 48.8284 60.9 48.8272C60.9 48.826 60.9 48.8248 60.9 48.8237C60.9 48.8225 60.9 48.8213 60.9 48.8201C60.9 48.8189 60.9 48.8177 60.9 48.8165C60.9 48.8154 60.9 48.8142 60.9 48.813C60.9 48.8118 60.9 48.8106 60.9 48.8094C60.9 48.8082 60.9 48.8071 60.9 48.8059C60.9 48.8047 60.9 48.8035 60.9 48.8023C60.9 48.8011 60.9 48.7999 60.9 48.7987C60.9 48.7976 60.9 48.7964 60.9 48.7952C60.9 48.794 60.9 48.7928 60.9 48.7916C60.9 48.7904 60.9 48.7892 60.9 48.7881C60.9 48.7869 60.9 48.7857 60.9 48.7845C60.9 48.7833 60.9 48.7821 60.9 48.7809C60.9 48.7797 60.9 48.7786 60.9 48.7774C60.9 48.7762 60.9 48.775 60.9 48.7738C60.9 48.7726 60.9 48.7714 60.9 48.7702C60.9 48.7691 60.9 48.7679 60.9 48.7667C60.9 48.7655 60.9 48.7643 60.9 48.7631C60.9 48.7619 60.9 48.7607 60.9 48.7595C60.9 48.7584 60.9 48.7572 60.9 48.756C60.9 48.7548 60.9 48.7536 60.9 48.7524C60.9 48.7512 60.9 48.75 60.9 48.7488C60.9 48.7476 60.9 48.7465 60.9 48.7453C60.9 48.7441 60.9 48.7429 60.9 48.7417C60.9 48.7405 60.9 48.7393 60.9 48.7381C60.9 48.7369 60.9 48.7357 60.9 48.7345C60.9 48.7334 60.9 48.7322 60.9 48.731C60.9 48.7298 60.9 48.7286 60.9 48.7274C60.9 48.7262 60.9 48.725 60.9 48.7238C60.9 48.7226 60.9 48.7214 60.9 48.7202C60.9 48.7191 60.9 48.7179 60.9 48.7167C60.9 48.7155 60.9 48.7143 60.9 48.7131C60.9 48.7119 60.9 48.7107 60.9 48.7095C60.9 48.7083 60.9 48.7071 60.9 48.7059C60.9 48.7047 60.9 48.7036 60.9 48.7024C60.9 48.7012 60.9 48.7 60.9 48.6988C60.9 48.6976 60.9 48.6964 60.9 48.6952C60.9 48.694 60.9 48.6928 60.9 48.6916C60.9 48.6904 60.9 48.6892 60.9 48.688C60.9 48.6868 60.9 48.6856 60.9 48.6845C60.9 48.6833 60.9 48.6821 60.9 48.6809C60.9 48.6797 60.9 48.6785 60.9 48.6773C60.9 48.6761 60.9 48.6749 60.9 48.6737C60.9 48.6725 60.9 48.6713 60.9 48.6701C60.9 48.6689 60.9 48.6677 60.9 48.6665C60.9 48.6653 60.9 48.6641 60.9 48.6629C60.9 48.6617 60.9 48.6605 60.9 48.6594C60.9 48.6582 60.9 48.657 60.9 48.6558C60.9 48.6546 60.9 48.6534 60.9 48.6522C60.9 48.651 60.9 48.6498 60.9 48.6486C60.9 48.6474 60.9 48.6462 60.9 48.645C60.9 48.6438 60.9 48.6426 60.9 48.6414C60.9 48.6402 60.9 48.639 60.9 48.6378C60.9 48.6366 60.9 48.6354 60.9 48.6342C60.9 48.633 60.9 48.6318 60.9 48.6306C60.9 48.6294 60.9 48.6282 60.9 48.627C60.9 48.6258 60.9 48.6246 60.9 48.6234C60.9 48.6222 60.9 48.621 60.9 48.6198C60.9 48.6186 60.9 48.6174 60.9 48.6162C60.9 48.615 60.9 48.6138 60.9 48.6126C60.9 48.6114 60.9 48.6102 60.9 48.609C60.9 48.6078 60.9 48.6066 60.9 48.6054C60.9 48.6042 60.9 48.603 60.9 48.6018C60.9 48.6006 60.9 48.5994 60.9 48.5982C60.9 48.597 60.9 48.5958 60.9 48.5946C60.9 48.5934 60.9 48.5922 60.9 48.591C60.9 48.5898 60.9 48.5886 60.9 48.5874C60.9 48.5862 60.9 48.585 60.9 48.5838C60.9 48.5826 60.9 48.5814 60.9 48.5802C60.9 48.579 60.9 48.5778 60.9 48.5766C60.9 48.5754 60.9 48.5742 60.9 48.573C60.9 48.5718 60.9 48.5706 60.9 48.5694C60.9 48.5682 60.9 48.567 60.9 48.5658C60.9 48.5645 60.9 48.5633 60.9 48.5621C60.9 48.5609 60.9 48.5597 60.9 48.5585C60.9 48.5573 60.9 48.5561 60.9 48.5549C60.9 48.5537 60.9 48.5525 60.9 48.5513C60.9 48.5501 60.9 48.5489 60.9 48.5477C60.9 48.5465 60.9 48.5453 60.9 48.5441C60.9 48.5429 60.9 48.5417 60.9 48.5405C60.9 48.5392 60.9 48.538 60.9 48.5368C60.9 48.5356 60.9 48.5344 60.9 48.5332C60.9 48.532 60.9 48.5308 60.9 48.5296C60.9 48.5284 60.9 48.5272 60.9 48.526C60.9 48.5248 60.9 48.5236 60.9 48.5224C60.9 48.5211 60.9 48.5199 60.9 48.5187C60.9 48.5175 60.9 48.5163 60.9 48.5151C60.9 48.5139 60.9 48.5127 60.9 48.5115C60.9 48.5103 60.9 48.5091 60.9 48.5079C60.9 48.5066 60.9 48.5054 60.9 48.5042C60.9 48.503 60.9 48.5018 60.9 48.5006C60.9 48.4994 60.9 48.4982 60.9 48.497C60.9 48.4958 60.9 48.4945 60.9 48.4933C60.9 48.4921 60.9 48.4909 60.9 48.4897C60.9 48.4885 60.9 48.4873 60.9 48.4861C60.9 48.4849 60.9 48.4837 60.9 48.4824C60.9 48.4812 60.9 48.48 60.9 48.4788C60.9 48.4776 60.9 48.4764 60.9 48.4752C60.9 48.474 60.9 48.4727 60.9 48.4715C60.9 48.4703 60.9 48.4691 60.9 48.4679C60.9 48.4667 60.9 48.4655 60.9 48.4643C60.9 48.463 60.9 48.4618 60.9 48.4606C60.9 48.4594 60.9 48.4582 60.9 48.457C60.9 48.4558 60.9 48.4545 60.9 48.4533C60.9 48.4521 60.9 48.4509 60.9 48.4497C60.9 48.4485 60.9 48.4473 60.9 48.446C60.9 48.4448 60.9 48.4436 60.9 48.4424C60.9 48.4412 60.9 48.44 60.9 48.4388C60.9 48.4375 60.9 48.4363 60.9 48.4351C60.9 48.4339 60.9 48.4327 60.9 48.4315C60.9 48.4302 60.9 48.429 60.9 48.4278C60.9 48.4266 60.9 48.4254 60.9 48.4242C60.9 48.4229 60.9 48.4217 60.9 48.4205C60.9 48.4193 60.9 48.4181 60.9 48.4169C60.9 48.4156 60.9 48.4144 60.9 48.4132C60.9 48.412 60.9 48.4108 60.9 48.4095C60.9 48.4083 60.9 48.4071 60.9 48.4059C60.9 48.4047 60.9 48.4035 60.9 48.4022C60.9 48.401 60.9 48.3998 60.9 48.3986C60.9 48.3974 60.9 48.3961 60.9 48.3949C60.9 48.3937 60.9 48.3925 60.9 48.3913C60.9 48.39 60.9 48.3888 60.9 48.3876C60.9 48.3864 60.9 48.3852 60.9 48.3839C60.9 48.3827 60.9 48.3815 60.9 48.3803C60.9 48.379 60.9 48.3778 60.9 48.3766C60.9 48.3754 60.9 48.3742 60.9 48.3729C60.9 48.3717 60.9 48.3705 60.9 48.3693C60.9 48.368 60.9 48.3668 60.9 48.3656C60.9 48.3644 60.9 48.3632 60.9 48.3619C60.9 48.3607 60.9 48.3595 60.9 48.3583C60.9 48.357 60.9 48.3558 60.9 48.3546C60.9 48.3534 60.9 48.3521 60.9 48.3509C60.9 48.3497 60.9 48.3485 60.9 48.3472C60.9 48.346 60.9 48.3448 60.9 48.3436C60.9 48.3423 60.9 48.3411 60.9 48.3399C60.9 48.3387 60.9 48.3374 60.9 48.3362C60.9 48.335 60.9 48.3338 60.9 48.3325C60.9 48.3313 60.9 48.3301 60.9 48.3289C60.9 48.3276 60.9 48.3264 60.9 48.3252C60.9 48.3239 60.9 48.3227 60.9 48.3215C60.9 48.3203 60.9 48.319 60.9 48.3178C60.9 48.3166 60.9 48.3153 60.9 48.3141C60.9 48.3129 60.9 48.3117 60.9 48.3104C60.9 48.3092 60.9 48.308 60.9 48.3067C60.9 48.3055 60.9 48.3043 60.9 48.3031C60.9 48.3018 60.9 48.3006 60.9 48.2994C60.9 48.2981 60.9 48.2969 60.9 48.2957C60.9 48.2944 60.9 48.2932 60.9 48.292C60.9 48.2907 60.9 48.2895 60.9 48.2883C60.9 48.2871 60.9 48.2858 60.9 48.2846C60.9 48.2834 60.9 48.2821 60.9 48.2809C60.9 48.2797 60.9 48.2784 60.9 48.2772C60.9 48.276 60.9 48.2747 60.9 48.2735C60.9 48.2723 60.9 48.271 60.9 48.2698C60.9 48.2686 60.9 48.2673 60.9 48.2661C60.9 48.2649 60.9 48.2636 60.9 48.2624C60.9 48.2612 60.9 48.2599 60.9 48.2587C60.9 48.2575 60.9 48.2562 60.9 48.255C60.9 48.2537 60.9 48.2525 60.9 48.2513C60.9 48.25 60.9 48.2488 60.9 48.2476C60.9 48.2463 60.9 48.2451 60.9 48.2439C60.9 48.2426 60.9 48.2414 60.9 48.2401C60.9 48.2389 60.9 48.2377 60.9 48.2364C60.9 48.2352 60.9 48.234 60.9 48.2327C60.9 48.2315 60.9 48.2302 60.9 48.229C60.9 48.2278 60.9 48.2265 60.9 48.2253C60.9 48.2241 60.9 48.2228 60.9 48.2216C60.9 48.2203 60.9 48.2191 60.9 48.2179C60.9 48.2166 60.9 48.2154 60.9 48.2141C60.9 48.2129 60.9 48.2117 60.9 48.2104C60.9 48.2092 60.9 48.2079 60.9 48.2067C60.9 48.2054 60.9 48.2042 60.9 48.203C60.9 48.2017 60.9 48.2005 60.9 48.1992C60.9 48.198 60.9 48.1968 60.9 48.1955C60.9 48.1943 60.9 48.193 60.9 48.1918C60.9 48.1905 60.9 48.1893 60.9 48.1881C60.9 48.1868 60.9 48.1856 60.9 48.1843C60.9 48.1831 60.9 48.1818 60.9 48.1806C60.9 48.1793 60.9 48.1781 60.9 48.1769C60.9 48.1756 60.9 48.1744 60.9 48.1731C60.9 48.1719 60.9 48.1706 60.9 48.1694C60.9 48.1681 60.9 48.1669 60.9 48.1656C60.9 48.1644 60.9 48.1632 60.9 48.1619C60.9 48.1607 60.9 48.1594 60.9 48.1582C60.9 48.1569 60.9 48.1557 60.9 48.1544C60.9 48.1532 60.9 48.1519 60.9 48.1507C60.9 48.1494 60.9 48.1482 60.9 48.1469C60.9 48.1457 60.9 48.1444 60.9 48.1432C60.9 48.1419 60.9 48.1407 60.9 48.1394C60.9 48.1382 60.9 48.1369 60.9 48.1357C60.9 48.1344 60.9 48.1332 60.9 48.1319C60.9 48.1307 60.9 48.1294 60.9 48.1282C60.9 48.1269 60.9 48.1257 60.9 48.1244C60.9 48.1232 60.9 48.1219 60.9 48.1207C60.9 48.1194 60.9 48.1182 60.9 48.1169C60.9 48.1157 60.9 48.1144 60.9 48.1132C60.9 48.1119 60.9 48.1107 60.9 48.1094C60.9 48.1082 60.9 48.1069 60.9 48.1056C60.9 48.1044 60.9 48.1031 60.9 48.1019C60.9 48.1006 60.9 48.0994 60.9 48.0981C60.9 48.0969 60.9 48.0956 60.9 48.0943C60.9 48.0931 60.9 48.0918 60.9 48.0906C60.9 48.0893 60.9 48.0881 60.9 48.0868C60.9 48.0856 60.9 48.0843 60.9 48.083C60.9 48.0818 60.9 48.0805 60.9 48.0793C60.9 48.078 60.9 48.0768 60.9 48.0755C60.9 48.0742 60.9 48.073 60.9 48.0717C60.9 48.0705 60.9 48.0692 60.9 48.0679C60.9 48.0667 60.9 48.0654 60.9 48.0642C60.9 48.0629 60.9 48.0616 60.9 48.0604C60.9 48.0591 60.9 48.0579 60.9 48.0566C60.9 48.0553 60.9 48.0541 60.9 48.0528C60.9 48.0516 60.9 48.0503 60.9 48.049C60.9 48.0478 60.9 48.0465 60.9 48.0453C60.9 48.044 60.9 48.0427 60.9 48.0415C60.9 48.0402 60.9 48.0389 60.9 48.0377C60.9 48.0364 60.9 48.0352 60.9 48.0339C60.9 48.0326 60.9 48.0314 60.9 48.0301C60.9 48.0288 60.9 48.0276 60.9 48.0263C60.9 48.025 60.9 48.0238 60.9 48.0225C60.9 48.0212 60.9 48.02 60.9 48.0187C60.9 48.0174 60.9 48.0162 60.9 48.0149C60.9 48.0136 60.9 48.0124 60.9 48.0111C60.9 48.0098 60.9 48.0086 60.9 48.0073C60.9 48.006 60.9 48.0048 60.9 48.0035C60.9 48.0022 60.9 48.001 60.9 47.9997C60.9 47.9984 60.9 47.9972 60.9 47.9959C60.9 47.9946 60.9 47.9934 60.9 47.9921C60.9 47.9908 60.9 47.9896 60.9 47.9883C60.9 47.987 60.9 47.9857 60.9 47.9845C60.9 47.9832 60.9 47.9819 60.9 47.9807C60.9 47.9794 60.9 47.9781 60.9 47.9768C60.9 47.9756 60.9 47.9743 60.9 47.973C60.9 47.9718 60.9 47.9705 60.9 47.9692C60.9 47.9679 60.9 47.9667 60.9 47.9654C60.9 47.9641 60.9 47.9628 60.9 47.9616C60.9 47.9603 60.9 47.959 60.9 47.9578C60.9 47.9565 60.9 47.9552 60.9 47.9539C60.9 47.9527 60.9 47.9514 60.9 47.9501C60.9 47.9488 60.9 47.9475 60.9 47.9463C60.9 47.945 60.9 47.9437 60.9 47.9424C60.9 47.9412 60.9 47.9399 60.9 47.9386C60.9 47.9373 60.9 47.9361 60.9 47.9348C60.9 47.9335 60.9 47.9322 60.9 47.9309C60.9 47.9297 60.9 47.9284 60.9 47.9271C60.9 47.9258 60.9 47.9246 60.9 47.9233C60.9 47.922 60.9 47.9207 60.9 47.9194C60.9 47.9182 60.9 47.9169 60.9 47.9156C60.9 47.9143 60.9 47.913 60.9 47.9118C60.9 47.9105 60.9 47.9092 60.9 47.9079C60.9 47.9066 60.9 47.9053 60.9 47.9041C60.9 47.9028 60.9 47.9015 60.9 47.9002C60.9 47.8989 60.9 47.8976 60.9 47.8964C60.9 47.8951 60.9 47.8938 60.9 47.8925C60.9 47.8912 60.9 47.8899 60.9 47.8887C60.9 47.8874 60.9 47.8861 60.9 47.8848C60.9 47.8835 60.9 47.8822 60.9 47.8809C60.9 47.8797 60.9 47.8784 60.9 47.8771C60.9 47.8758 60.9 47.8745 60.9 47.8732C60.9 47.8719 60.9 47.8707 60.9 47.8694C60.9 47.8681 60.9 47.8668 60.9 47.8655C60.9 47.8642 60.9 47.8629 60.9 47.8616C60.9 47.8604 60.9 47.8591 60.9 47.8578C60.9 47.8565 60.9 47.8552 60.9 47.8539C60.9 47.8526 60.9 47.8513 60.9 47.85C60.9 47.8487 60.9 47.8475 60.9 47.8462C60.9 47.8449 60.9 47.8436 60.9 47.8423C60.9 47.841 60.9 47.8397 60.9 47.8384C60.9 47.8371 60.9 47.8358 60.9 47.8345C60.9 47.8332 60.9 47.8319 60.9 47.8307C60.9 47.8294 60.9 47.8281 60.9 47.8268C60.9 47.8255 60.9 47.8242 60.9 47.8229C60.9 47.8216 60.9 47.8203 60.9 47.819C60.9 47.8177 60.9 47.8164 60.9 47.8151C60.9 47.8138 60.9 47.8125 60.9 47.8112C60.9 47.8099 60.9 47.8086 60.9 47.8073C60.9 47.806 60.9 47.8047 60.9 47.8034C60.9 47.8021 60.9 47.8008 60.9 47.7995C60.9 47.7983 60.9 47.797 60.9 47.7957C60.9 47.7944 60.9 47.7931 60.9 47.7918C60.9 47.7905 60.9 47.7892 60.9 47.7879C60.9 47.7866 60.9 47.7853 60.9 47.784C60.9 47.7827 60.9 47.7814 60.9 47.7801C60.9 47.7788 60.9 47.7775 60.9 47.7761C60.9 47.7748 60.9 47.7735 60.9 47.7722C60.9 47.7709 60.9 47.7696 60.9 47.7683C60.9 47.767 60.9 47.7657 60.9 47.7644C60.9 47.7631 60.9 47.7618 60.9 47.7605C60.9 47.7592 60.9 47.7579 60.9 47.7566C60.9 47.7553 60.9 47.754 60.9 47.7527C60.9 47.7514 60.9 47.7501 60.9 47.7488C60.9 47.7475 60.9 47.7461 60.9 47.7448C60.9 47.7435 60.9 47.7422 60.9 47.7409C60.9 47.7396 60.9 47.7383 60.9 47.737C60.9 47.7357 60.9 47.7344 60.9 47.7331C60.9 47.7318 60.9 47.7304 60.9 47.7291C60.9 47.7278 60.9 47.7265 60.9 47.7252C60.9 47.7239 60.9 47.7226 60.9 47.7213C60.9 47.72 60.9 47.7187 60.9 47.7173C60.9 47.716 60.9 47.7147 60.9 47.7134C60.9 47.7121 60.9 47.7108 60.9 47.7095C60.9 47.7082 60.9 47.7068 60.9 47.7055C60.9 47.7042 60.9 47.7029 60.9 47.7016C60.9 47.7003 60.9 47.699 60.9 47.6976C60.9 47.6963 60.9 47.695 60.9 47.6937C60.9 47.6924 60.9 47.6911 60.9 47.6898C60.9 47.6884 60.9 47.6871 60.9 47.6858C60.9 47.6845 60.9 47.6832 60.9 47.6819C60.9 47.6805 60.9 47.6792 60.9 47.6779C60.9 47.6766 60.9 47.6753 60.9 47.6739C60.9 47.6726 60.9 47.6713 60.9 47.67C60.9 47.6687 60.9 47.6673 60.9 47.666C60.9 47.6647 60.9 47.6634 60.9 47.6621C60.9 47.6607 60.9 47.6594 60.9 47.6581C60.9 47.6568 60.9 47.6555 60.9 47.6541C60.9 47.6528 60.9 47.6515 60.9 47.6502C60.9 47.6488 60.9 47.6475 60.9 47.6462C60.9 47.6449 60.9 47.6436 60.9 47.6422C60.9 47.6409 60.9 47.6396 60.9 47.6383C60.9 47.6369 60.9 47.6356 60.9 47.6343C60.9 47.633 60.9 47.6316 60.9 47.6303C60.9 47.629 60.9 47.6277 60.9 47.6263C60.9 47.625 60.9 47.6237 60.9 47.6223C60.9 47.621 60.9 47.6197 60.9 47.6184C60.9 47.617 60.9 47.6157 60.9 47.6144C60.9 47.613 60.9 47.6117 60.9 47.6104C60.9 47.6091 60.9 47.6077 60.9 47.6064C60.9 47.6051 60.9 47.6037 60.9 47.6024C60.9 47.6011 60.9 47.5997 60.9 47.5984C60.9 47.5971 60.9 47.5957 60.9 47.5944C60.9 47.5931 60.9 47.5917 60.9 47.5904C60.9 47.5891 60.9 47.5877 60.9 47.5864C60.9 47.5851 60.9 47.5837 60.9 47.5824C60.9 47.5811 60.9 47.5797 60.9 47.5784C60.9 47.5771 60.9 47.5757 60.9 47.5744C60.9 47.5731 60.9 47.5717 60.9 47.5704C60.9 47.5691 60.9 47.5677 60.9 47.5664C60.9 47.565 60.9 47.5637 60.9 47.5624C60.9 47.561 60.9 47.5597 60.9 47.5584C60.9 47.557 60.9 47.5557 60.9 47.5543C60.9 47.553 60.9 47.5517 60.9 47.5503C60.9 47.549 60.9 47.5476 60.9 47.5463C60.9 47.545 60.9 47.5436 60.9 47.5423C60.9 47.5409 60.9 47.5396 60.9 47.5383C60.9 47.5369 60.9 47.5356 60.9 47.5342C60.9 47.5329 60.9 47.5315 60.9 47.5302C60.9 47.5289 60.9 47.5275 60.9 47.5262C60.9 47.5248 60.9 47.5235 60.9 47.5221C60.9 47.5208 60.9 47.5194 60.9 47.5181C60.9 47.5168 60.9 47.5154 60.9 47.5141C60.9 47.5127 60.9 47.5114 60.9 47.51C60.9 47.5087 60.9 47.5073 60.9 47.506C60.9 47.5046 60.9 47.5033 60.9 47.5019C60.9 47.5006 60.9 47.4992 60.9 47.4979C60.9 47.4965 60.9 47.4952 60.9 47.4938C60.9 47.4925 60.9 47.4911 60.9 47.4898C60.9 47.4884 60.9 47.4871 60.9 47.4857C60.9 47.4844 60.9 47.483 60.9 47.4817C60.9 47.4803 60.9 47.479 60.9 47.4776C60.9 47.4763 60.9 47.4749 60.9 47.4736C60.9 47.4722 60.9 47.4708 60.9 47.4695C60.9 47.4681 60.9 47.4668 60.9 47.4654C60.9 47.4641 60.9 47.4627 60.9 47.4614C60.9 47.46 60.9 47.4586 60.9 47.4573C60.9 47.4559 60.9 47.4546 60.9 47.4532C60.9 47.4519 60.9 47.4505 60.9 47.4492C60.9 47.4478 60.9 47.4464 60.9 47.4451C60.9 47.4437 60.9 47.4424 60.9 47.441C60.9 47.4396 60.9 47.4383 60.9 47.4369C60.9 47.4356 60.9 47.4342 60.9 47.4328C60.9 47.4315 60.9 47.4301 60.9 47.4287C60.9 47.4274 60.9 47.426 60.9 47.4247C60.9 47.4233 60.9 47.4219 60.9 47.4206C60.9 47.4192 60.9 47.4178 60.9 47.4165C60.9 47.4151 60.9 47.4138 60.9 47.4124C60.9 47.411 60.9 47.4097 60.9 47.4083C60.9 47.4069 60.9 47.4056 60.9 47.4042C60.9 47.4028 60.9 47.4015 60.9 47.4001H58.9Z" fill="#494A4A"/>
<path id="1px-stroke-default" d="M37.9002 39.7C36.6002 40.6 35.7002 43.1 36.3002 45.1M5.6001 13.2998C14.4001 14.1998 48.9001 14.1998 58.7001 13.3998M44.7001 9.40023C44.2001 10.3002 45.7001 10.7002 45.9001 9.90023C46.2001 9.10023 45.2001 8.50023 44.7001 9.40023ZM48.8002 9.40023C48.3002 10.3002 49.8002 10.7002 50.0002 9.90023C50.3002 9.10023 49.3002 8.50023 48.8002 9.40023ZM52.9999 9.40023C52.4999 10.3002 53.9999 10.7002 54.1999 9.90023C54.4999 9.10023 53.4999 8.50023 52.9999 9.40023Z" stroke="#494A4A" stroke-linecap="round" stroke-linejoin="round"/>
</g>
</g>
</svg>
