<svg width="64" height="64" viewBox="0 0 64 64" fill="none" xmlns="http://www.w3.org/2000/svg">
<g id="Pictogram-invoice-declined-1">
<g id="stroke-default">
<g id="Invoice-Confirmation">
<path id="2px" d="M11 22.1C11.2 19.6 12.2 17.9 14.4 17.4C15.6 17.1 18.8 16.7 20.5 16.3C23.1 15.7 24.2 14.5 24.8 11.9C25.2 10.3 25.2 7.9 25.4 6.6C25.7 4.7 27.4 3 30.3 3M30.3 3C33.9 3 43.4 3.1 48 3.5C51.3 3.8 52.1 5.3 52.5 9.4C53.1 15.5 53 26.9 53 32M30.3 3C25 3 22 5.7 18.7 9C14.6 13.2 11 15.9 11 23.2C11 26.8 11.1 47.7 11.2 53.6C11 56.2 13 58.4 15.6 58.6C15.6 58.6 15.7 58.6 15.8 58.6C21.2 59 25.6 59 30.9 59M39.7 12.8C36.4 10.1 34.6 15.7 37.7 15.9C41.3 16.1 40.9 21.9 36 19.7M38 10.1V11.9M38 20.2V22" stroke="#494A4A" stroke-width="2" stroke-linecap="round" stroke-linejoin="round"/>
<path id="1px" d="M14.4998 51.5C14.4998 54.5 14.2998 55.5 20.3998 55.5M24.9998 28.5C26.3998 28.4 42.2998 28.5 42.9998 28.5M21.3998 34.5C22.8998 34.4 35.1998 34.5 35.9998 34.5M21.3998 40.5C22.8998 40.4 30.1998 40.5 30.9998 40.5" stroke="#494A4A" stroke-linecap="round" stroke-linejoin="round"/>
</g>
<path id="Vector" d="M61 56.2002C60.8 55.0002 55.2 50.2002 55.1 49.0002C55 47.8002 61.1 43.4002 61.6 41.9002C62 40.5002 56.9 36.0002 56 36.2002C54.8 36.5002 50 41.8002 48.8 41.9002C47.6 42.0002 42.8 35.8002 41.6 35.7002C40.1 35.7002 36.1 40.1002 36.5 41.8002C36.8 43.0002 42 47.6002 41.9 48.6002C41.8 49.6002 36 54.2002 35.9 55.5002C35.7 57.1002 40.2 61.8002 41.5 60.9002C42.8 60.0002 47.6 55.0002 48.5 55.2002C49.4 55.4002 53.1 60.5002 55 61.0002C57.1 61.5002 61.1 57.4002 61 56.2002V56.2002Z" stroke="#494A4A" stroke-width="2" stroke-linecap="round" stroke-linejoin="round"/>
</g>
</g>
</svg>
