<svg width="64" height="64" viewBox="0 0 64 64" fill="none" xmlns="http://www.w3.org/2000/svg">
<g id="  Pictogram-flying-paper-plane">
<g id="stroke-default">
<path id="2px" d="M29.7012 41.7C32.1012 40.4 34.4012 38.8 36.0012 37.5M12.0007 28.0997C12.9007 20.6997 57.5007 4.99971 60.3007 5.99971C63.1007 6.99971 56.2007 44.6997 48.5007 47.5997C44.5007 49.0997 36.3007 35.4997 33.7007 36.1997C32.1007 36.5997 30.7007 41.9997 29.5007 41.5997C27.8007 40.9997 28.9007 35.4997 26.4007 33.9997C24.3007 32.6997 11.4007 32.2997 12.0007 27.9997V28.0997Z" stroke="#494A4A" stroke-width="2" stroke-linecap="round" stroke-linejoin="round"/>
<path id="1px" d="M26.0395 33.7549C25.849 33.9548 25.8565 34.2713 26.0563 34.4618C26.2561 34.6524 26.5726 34.6449 26.7632 34.4451L26.0395 33.7549ZM60.3014 6L60.6792 6.32754C60.8431 6.13844 60.842 5.85724 60.6765 5.66946C60.5111 5.48167 60.2323 5.44515 60.024 5.58397L60.3014 6ZM32.7442 35.7501C32.5509 35.9474 32.5542 36.2639 32.7515 36.4572C32.9487 36.6504 33.2653 36.6472 33.4585 36.4499L32.7442 35.7501ZM25.7379 45.0702C25.9422 44.8844 25.9573 44.5682 25.7715 44.3639C25.5858 44.1595 25.2696 44.1445 25.0652 44.3302L25.7379 45.0702ZM1.06478 55.6016C0.789383 55.6219 0.582602 55.8616 0.602917 56.137C0.623233 56.4124 0.862954 56.6192 1.13835 56.5988L1.06478 55.6016ZM27.9962 46.307C28.1658 46.089 28.1265 45.7749 27.9085 45.6053C27.6906 45.4358 27.3764 45.4751 27.2069 45.693L27.9962 46.307ZM4.8734 62.7551C4.62769 62.8811 4.53065 63.1824 4.65665 63.4282C4.78266 63.6739 5.084 63.7709 5.32972 63.6449L4.8734 62.7551ZM46.2045 42.7043C46.0412 42.4816 45.7283 42.4335 45.5056 42.5968C45.2829 42.7601 45.2348 43.073 45.3981 43.2957L46.2045 42.7043ZM51.6555 40.709C51.7709 40.4581 51.6611 40.1612 51.4102 40.0458C51.1594 39.9304 50.8624 40.0402 50.747 40.291L51.6555 40.709ZM47.9014 51.4004L48.3094 51.6894C48.4595 51.4774 48.4223 51.1858 48.2238 51.0182C48.0252 50.8507 47.7315 50.8632 47.5478 51.0468L47.9014 51.4004ZM45.9014 53.9004V54.4004C45.9551 54.4004 46.0085 54.3917 46.0595 54.3747L45.9014 53.9004ZM42.3014 53.6004L41.9014 53.3004C41.8958 53.3078 41.8905 53.3153 41.8853 53.323L42.3014 53.6004ZM44.1014 56.5004H44.6014C44.6014 56.4595 44.5963 56.4188 44.5864 56.3791L44.1014 56.5004ZM48.8014 57.3004L49.2486 57.524C49.2592 57.5028 49.2682 57.481 49.2757 57.4585L48.8014 57.3004ZM51.9014 55.4004L51.4111 55.4984C51.4151 55.5188 51.4205 55.5388 51.427 55.5585L51.9014 55.4004ZM47.8014 51.5004L47.4478 51.1468C47.3048 51.2898 47.262 51.5049 47.3394 51.6917C47.4168 51.8786 47.5991 52.0004 47.8014 52.0004V51.5004ZM13.6016 5.07802H13.1016V5.22409L13.1802 5.34719L13.6016 5.07802ZM14.6016 7L14.1543 6.77639L14.1016 6.88197V7H14.6016ZM13.3016 9.3L12.8855 9.57735L12.913 9.61855L12.948 9.65355L13.3016 9.3ZM15.8016 9L15.6434 9.47434L15.7204 9.5H15.8016V9ZM18.1016 8L18.5488 8.22361L18.6016 8.11803V8H18.1016ZM17.5016 3.5L17.6597 3.02566L17.5827 3H17.5016V3.5ZM13.6016 5L13.1543 4.77639L13.1016 4.88197V5H13.6016ZM3.40137 44.3998H2.90137V44.5341L2.96865 44.6503L3.40137 44.3998ZM4.40137 46.4998L3.95415 46.2762L3.90137 46.3818V46.4998H4.40137ZM3.10137 48.7998L2.68534 49.0772L2.71281 49.1184L2.74781 49.1534L3.10137 48.7998ZM5.60137 48.4998L5.44325 48.9741L5.52023 48.9998H5.60137V48.4998ZM7.90137 47.3998L8.34858 47.6234L8.40137 47.5178V47.3998H7.90137ZM10.5014 45.7998H10.0014V45.9178L10.0542 46.0234L10.5014 45.7998ZM3.40137 44.2998L2.95415 44.0762L2.90137 44.1818V44.2998H3.40137ZM17.6015 41.1997L17.2945 40.805C17.2782 40.8177 17.2626 40.8314 17.2479 40.8461L17.6015 41.1997ZM5.90144 34.3997L6.29187 34.0874C6.28035 34.073 6.26804 34.0592 6.25499 34.0462L5.90144 34.3997ZM4.10144 34.2997L4.41379 34.6901C4.42819 34.6786 4.44195 34.6663 4.45499 34.6533L4.10144 34.2997ZM13.3171 20.1111C13.5441 20.2683 13.8556 20.2116 14.0128 19.9846C14.1699 19.7576 14.1133 19.4461 13.8863 19.2889L13.3171 20.1111ZM8.77583 17.5055C8.50274 17.4646 8.24816 17.6527 8.20719 17.9258C8.16623 18.1989 8.3544 18.4535 8.62749 18.4945L8.77583 17.5055ZM16.5335 17.4383C16.7205 17.6416 17.0368 17.6547 17.24 17.4678C17.4432 17.2808 17.4564 16.9645 17.2694 16.7613L16.5335 17.4383ZM7.64647 11.3213C7.38219 11.2412 7.10304 11.3905 7.02295 11.6548C6.94287 11.9191 7.09219 12.1982 7.35646 12.2783L7.64647 11.3213ZM21.8013 14.6004C21.8013 14.8765 22.0251 15.1004 22.3013 15.1004C22.5774 15.1004 22.8013 14.8765 22.8013 14.6004H21.8013ZM25.3961 8.36087C25.6504 8.25328 25.7693 7.95989 25.6618 7.70557C25.5542 7.45125 25.2608 7.33231 25.0064 7.43991L25.3961 8.36087ZM26.7632 34.4451C33.9382 26.9212 42.3909 19.9139 49.0563 14.7837C52.3877 12.2197 55.2698 10.1267 57.3186 8.67516C58.3429 7.94941 59.1587 7.38407 59.7181 7.00043C59.9978 6.80862 60.2134 6.66224 60.3588 6.56395C60.4316 6.5148 60.4867 6.47768 60.5236 6.45291C60.5421 6.44053 60.556 6.43124 60.5652 6.42508C60.5698 6.422 60.5732 6.4197 60.5755 6.41819C60.5766 6.41743 60.5774 6.41687 60.578 6.41651C60.5783 6.41633 60.5784 6.41621 60.5786 6.41612C60.5787 6.41605 60.5787 6.41603 60.3014 6C60.024 5.58397 60.0239 5.58405 60.0237 5.58418C60.0236 5.58428 60.0233 5.58446 60.023 5.58468C60.0223 5.58511 60.0214 5.58574 60.0201 5.58656C60.0177 5.58822 60.014 5.59066 60.0092 5.59388C59.9995 5.60033 59.9852 5.60992 59.9664 5.62259C59.9286 5.64794 59.8725 5.68566 59.7989 5.73542C59.6516 5.83493 59.4342 5.98259 59.1526 6.17574C58.5893 6.56202 57.7692 7.13028 56.7404 7.85921C54.6829 9.317 51.79 11.4178 48.4464 13.9913C41.7618 19.1361 33.2645 26.1787 26.0395 33.7549L26.7632 34.4451ZM60.3014 6C59.9236 5.67246 59.9235 5.67254 59.9234 5.67268C59.9233 5.67284 59.9231 5.67306 59.9228 5.67337C59.9223 5.67398 59.9215 5.6749 59.9204 5.67612C59.9183 5.67857 59.9151 5.68224 59.9109 5.68712C59.9024 5.69689 59.8897 5.71149 59.873 5.73081C59.8394 5.76945 59.7895 5.82698 59.7239 5.90245C59.5928 6.05339 59.3992 6.2761 59.1493 6.56306C58.6495 7.13699 57.9248 7.96791 57.0252 8.99567C55.2258 11.0512 52.7266 13.894 49.9277 17.0428C44.3275 23.3429 37.5348 30.8597 32.7442 35.7501L33.4585 36.4499C38.268 31.5403 45.0752 24.0071 50.6751 17.7072C53.4761 14.556 55.977 11.7113 57.7776 9.65433C58.6779 8.62584 59.4032 7.79426 59.9035 7.21975C60.1536 6.93249 60.3475 6.7095 60.4788 6.55829C60.5445 6.48269 60.5946 6.42503 60.6282 6.38626C60.645 6.36687 60.6578 6.35221 60.6663 6.34238C60.6705 6.33747 60.6738 6.33376 60.6759 6.33128C60.677 6.33005 60.6778 6.32911 60.6783 6.32849C60.6786 6.32817 60.6788 6.32794 60.6789 6.32778C60.6791 6.32762 60.6792 6.32754 60.3014 6ZM25.0652 44.3302C22.8737 46.3226 13.0833 54.7149 1.06478 55.6016L1.13835 56.5988C13.5199 55.6855 23.5295 47.0778 25.7379 45.0702L25.0652 44.3302ZM27.2069 45.693C26.5396 46.551 23.8716 49.3242 19.8939 52.641C15.9246 55.9508 10.6806 59.777 4.8734 62.7551L5.32972 63.6449C11.2225 60.623 16.5285 56.7492 20.5343 53.409C24.5316 50.0758 27.2636 47.249 27.9962 46.307L27.2069 45.693ZM45.3981 43.2957C45.9732 44.0799 46.9204 44.9269 48.1506 44.6775C48.7501 44.556 49.339 44.1829 49.9133 43.5457C50.487 42.9091 51.0683 41.9855 51.6555 40.709L50.747 40.291C50.1842 41.5145 49.653 42.3409 49.1705 42.8762C48.6885 43.4109 48.2774 43.6315 47.9519 43.6975C47.3322 43.8231 46.7294 43.4201 46.2045 42.7043L45.3981 43.2957ZM47.9014 51.4004C47.4933 51.1114 47.4934 51.1114 47.4933 51.1114C47.4933 51.1114 47.4933 51.1114 47.4933 51.1114C47.4933 51.1115 47.4932 51.1116 47.4931 51.1117C47.4929 51.112 47.4926 51.1124 47.4923 51.1129C47.4915 51.114 47.4903 51.1157 47.4888 51.1179C47.4856 51.1223 47.4809 51.1288 47.4748 51.1375C47.4625 51.1548 47.4443 51.1803 47.421 51.2129C47.3744 51.278 47.3074 51.3713 47.2261 51.4837C47.0632 51.7087 46.8434 52.0089 46.6148 52.3116C46.3853 52.6156 46.151 52.9165 45.9582 53.1453C45.8611 53.2605 45.7805 53.3501 45.7199 53.4107C45.6893 53.4413 45.6703 53.458 45.6615 53.4649C45.6421 53.4804 45.6747 53.4489 45.7432 53.426L46.0595 54.3747C46.1655 54.3394 46.2466 54.2774 46.285 54.2467C46.3341 54.2076 46.3824 54.1624 46.427 54.1178C46.5168 54.028 46.6182 53.9138 46.7227 53.7899C46.9329 53.5405 47.1799 53.2227 47.4129 52.9142C47.6468 52.6044 47.8708 52.2984 48.036 52.0702C48.1187 51.956 48.1869 51.8611 48.2344 51.7946C48.2582 51.7613 48.2769 51.7351 48.2896 51.7172C48.296 51.7083 48.3009 51.7014 48.3042 51.6967C48.3059 51.6944 48.3071 51.6926 48.308 51.6913C48.3084 51.6907 48.3088 51.6903 48.309 51.6899C48.3091 51.6898 48.3092 51.6897 48.3093 51.6896C48.3093 51.6895 48.3093 51.6895 48.3093 51.6895C48.3094 51.6894 48.3094 51.6894 47.9014 51.4004ZM45.9014 53.4004C45.9322 53.4004 45.9453 53.4041 45.9049 53.3981C45.8777 53.394 45.8391 53.3876 45.7881 53.3786C45.6861 53.3607 45.5508 53.3356 45.387 53.3055C45.0629 53.246 44.6403 53.1697 44.2127 53.1059C43.7887 53.0426 43.3429 52.9889 42.9762 52.9787C42.7949 52.9737 42.6114 52.9784 42.4511 53.0054C42.3707 53.0189 42.2799 53.0405 42.1918 53.0784C42.1064 53.1151 41.9911 53.1807 41.9014 53.3004L42.7014 53.9004C42.6491 53.9701 42.5932 53.9943 42.5863 53.9973C42.5766 54.0015 42.5834 53.9971 42.6169 53.9915C42.6843 53.9802 42.7938 53.974 42.9483 53.9783C43.2535 53.9868 43.6515 54.0332 44.065 54.0949C44.4749 54.1561 44.8836 54.2298 45.2064 54.289C45.366 54.3183 45.508 54.3448 45.615 54.3636C45.6685 54.3729 45.7173 54.3812 45.7576 54.3872C45.7848 54.3912 45.8455 54.4004 45.9014 54.4004V53.4004ZM41.8853 53.323C41.783 53.4765 41.7817 53.6358 41.7895 53.723C41.798 53.8166 41.8238 53.9017 41.848 53.9675C41.8969 54.1005 41.9737 54.2437 42.0545 54.3795C42.219 54.6559 42.4531 54.988 42.6841 55.3065C42.9225 55.635 43.154 55.9444 43.3416 56.2095C43.4343 56.3404 43.5088 56.4503 43.5616 56.5359C43.6264 56.6408 43.6252 56.6572 43.6163 56.6217L44.5864 56.3791C44.5525 56.2436 44.4701 56.1038 44.4126 56.0106C44.3431 55.8982 44.2544 55.7682 44.1579 55.6319C43.9674 55.3626 43.7178 55.0283 43.4936 54.7193C43.2621 54.4003 43.0525 54.1012 42.9138 53.8681C42.8431 53.7493 42.8034 53.6683 42.7864 53.622C42.7776 53.5981 42.7829 53.6048 42.7855 53.633C42.7875 53.6548 42.7947 53.7617 42.7174 53.8777L41.8853 53.323ZM43.6014 56.5004C43.6014 56.4238 43.6231 56.3798 43.6119 56.4102C43.6067 56.4244 43.5952 56.4517 43.5741 56.4955C43.5324 56.5824 43.4697 56.6998 43.3888 56.8459C43.2327 57.128 43.012 57.5116 42.8102 57.8901C42.6081 58.2689 42.4056 58.6778 42.2799 59.034C42.2175 59.2106 42.1651 59.3987 42.1488 59.5775C42.1338 59.7407 42.1392 59.9981 42.3109 60.2127L43.0918 59.588C43.1635 59.6777 43.1376 59.7445 43.1446 59.6686C43.1501 59.6083 43.1727 59.509 43.2229 59.3668C43.3221 59.0855 43.4946 58.7319 43.6925 58.3607C43.8907 57.9892 44.095 57.6352 44.2639 57.3299C44.3456 57.1823 44.4203 57.0434 44.4754 56.9287C44.5028 56.8717 44.5296 56.812 44.5506 56.7548C44.5656 56.714 44.6014 56.6144 44.6014 56.5004H43.6014ZM42.3109 60.2127C42.5092 60.4606 42.8088 60.4906 42.9705 60.4924C43.16 60.4944 43.3691 60.4582 43.5698 60.41C43.9765 60.3122 44.4633 60.1354 44.9235 59.9526C45.3867 59.7686 45.8489 59.5678 46.2011 59.4186C46.3802 59.3427 46.5274 59.2816 46.6374 59.2398C46.6928 59.2188 46.7315 59.2054 46.7562 59.1979C46.7989 59.185 46.7649 59.2004 46.7014 59.2004V58.2004C46.6003 58.2004 46.5054 58.229 46.4666 58.2408C46.4098 58.258 46.3465 58.2806 46.2821 58.3051C46.1526 58.3543 45.9897 58.4221 45.811 58.4978C45.4476 58.6518 45.0036 58.8447 44.5543 59.0232C44.1019 59.2029 43.67 59.3574 43.336 59.4377C43.1664 59.4785 43.0498 59.4931 42.9811 59.4924C42.8846 59.4914 42.9935 59.4652 43.0918 59.588L42.3109 60.2127ZM46.7014 59.2004C46.5937 59.2004 46.5295 59.1594 46.5691 59.1786C46.5833 59.1854 46.6124 59.2013 46.6598 59.231C46.753 59.2895 46.8803 59.3781 47.0365 59.4919C47.348 59.719 47.7377 60.0197 48.1358 60.3231C48.5282 60.622 48.9296 60.9241 49.2476 61.1394C49.4041 61.2454 49.5575 61.3421 49.6876 61.4067C49.7494 61.4374 49.8328 61.4747 49.9229 61.4951C49.9681 61.5054 50.04 61.5174 50.1246 61.5089C50.2124 61.5001 50.3434 61.4655 50.4549 61.3539L49.7478 60.6468C49.8468 60.5478 49.96 60.5204 50.0252 60.5139C50.087 60.5077 50.1312 60.517 50.1441 60.5199C50.1697 60.5257 50.17 60.5298 50.1327 60.5112C50.0647 60.4775 49.9564 60.4116 49.8082 60.3113C49.5169 60.1141 49.1371 59.8288 48.7419 59.5277C48.3526 59.2311 47.9484 58.9192 47.6256 58.6839C47.4646 58.5665 47.3146 58.4613 47.191 58.3838C47.1299 58.3455 47.0658 58.308 47.0044 58.2783C46.9685 58.2609 46.8465 58.2004 46.7014 58.2004V59.2004ZM50.4549 61.3539C50.5443 61.2645 50.577 61.166 50.5897 61.1155C50.6035 61.0608 50.6058 61.0144 50.6061 60.9868C50.6067 60.9316 50.5992 60.8839 50.5943 60.8562C50.5836 60.7965 50.5658 60.7326 50.5485 60.6756C50.5126 60.5573 50.4581 60.4036 50.395 60.2338C50.2678 59.8921 50.0903 59.4452 49.9165 59.0045C49.741 58.5594 49.5689 58.1198 49.447 57.78C49.3856 57.6089 49.3406 57.473 49.3143 57.3787C49.3008 57.3301 49.2959 57.3054 49.2949 57.2985C49.2943 57.2946 49.2968 57.3081 49.2966 57.3323C49.2965 57.3436 49.2971 57.4269 49.2486 57.524L48.3541 57.0768C48.2993 57.1864 48.2969 57.2884 48.2966 57.3243C48.2962 57.3731 48.3014 57.4171 48.3063 57.4491C48.3162 57.514 48.3332 57.583 48.3509 57.6467C48.3872 57.777 48.4421 57.9404 48.5057 58.1177C48.6338 58.4747 48.8118 58.9289 48.9862 59.3713C49.1624 59.8181 49.3349 60.2525 49.4577 60.5826C49.5196 60.7488 49.5651 60.8787 49.5917 60.9662C49.5981 60.9873 49.6028 61.0038 49.606 61.0163C49.6094 61.0295 49.6103 61.0344 49.61 61.033C49.6099 61.032 49.609 61.0272 49.6081 61.0193C49.6073 61.0121 49.606 60.9969 49.6062 60.9763C49.6064 60.9581 49.6079 60.9195 49.62 60.8711C49.6312 60.8269 49.6615 60.7331 49.7478 60.6468L50.4549 61.3539ZM49.2757 57.4585C49.2542 57.523 49.2241 57.5635 49.2135 57.5771C49.2066 57.5858 49.2011 57.5919 49.1981 57.5951C49.1965 57.5968 49.1953 57.598 49.1945 57.5988C49.1941 57.5991 49.1938 57.5994 49.1937 57.5996C49.1938 57.5995 49.1933 57.6 49.1934 57.5998C49.1936 57.5996 49.1932 57.6001 49.1934 57.5999C49.1936 57.5997 49.1932 57.6 49.1934 57.5998C49.1937 57.5996 49.1933 57.5999 49.1936 57.5996C49.1938 57.5995 49.1941 57.5992 49.1944 57.5989C49.1952 57.5983 49.1962 57.5974 49.1976 57.5963C49.2003 57.5939 49.2042 57.5908 49.2092 57.5869C49.2195 57.579 49.2333 57.5689 49.251 57.5567C49.3252 57.5056 49.4375 57.4382 49.5852 57.356C49.8793 57.1923 50.2624 56.9977 50.6557 56.7947C51.0407 56.596 51.4373 56.3883 51.7326 56.2091C51.8773 56.1213 52.0194 56.0275 52.127 55.9349C52.1786 55.8905 52.2468 55.8259 52.3012 55.7436C52.3463 55.6754 52.4558 55.4825 52.3757 55.2423L51.427 55.5585C51.3594 55.3558 51.4564 55.2082 51.467 55.1921C51.487 55.162 51.4987 55.1564 51.4749 55.1768C51.4318 55.2139 51.3473 55.2732 51.2139 55.3542C50.9529 55.5125 50.587 55.7048 50.197 55.9061C49.8154 56.1031 49.4109 56.3085 49.0988 56.4823C48.9433 56.5688 48.7978 56.6546 48.6838 56.7332C48.6274 56.772 48.5672 56.8168 48.5141 56.8659C48.4775 56.8999 48.376 56.9953 48.327 57.1423L49.2757 57.4585ZM52.3917 55.3023C52.3258 54.9733 52.0412 54.8349 51.9197 54.7852C51.7645 54.7218 51.5819 54.6852 51.4087 54.6613C51.0555 54.6126 50.611 54.6004 50.1889 54.6004C49.7638 54.6004 49.3315 54.6131 49.0091 54.6192C48.8442 54.6224 48.7116 54.6237 48.616 54.6216C48.5676 54.6205 48.5376 54.6188 48.5219 54.6172C48.4784 54.6129 48.5436 54.6125 48.625 54.6532L48.1778 55.5476C48.2841 55.6008 48.3978 55.6098 48.4232 55.6123C48.4763 55.6176 48.5357 55.6201 48.5941 55.6214C48.7123 55.624 48.8632 55.6222 49.028 55.6191C49.3649 55.6127 49.7764 55.6004 50.1889 55.6004C50.6042 55.6004 50.991 55.6132 51.2721 55.652C51.4161 55.6718 51.5015 55.6946 51.5413 55.7109C51.6147 55.7409 51.4519 55.7025 51.4111 55.4984L52.3917 55.3023ZM48.625 54.6532C48.7351 54.7082 48.7883 54.7881 48.801 54.8076C48.8195 54.8359 48.8275 54.8562 48.8278 54.8572C48.8289 54.8599 48.8231 54.8449 48.8128 54.8015C48.7931 54.7183 48.7706 54.591 48.7461 54.4234C48.6976 54.0913 48.6486 53.654 48.5982 53.2069C48.5486 52.7663 48.4975 52.315 48.4457 51.9739C48.4202 51.8057 48.3921 51.6472 48.3602 51.5248C48.3452 51.4674 48.3229 51.3916 48.2884 51.3207C48.2719 51.2869 48.2395 51.2264 48.1838 51.1673C48.1306 51.1109 48.0018 51.0004 47.8014 51.0004V52.0004C47.6134 52.0004 47.4972 51.8967 47.4564 51.8535C47.4132 51.8077 47.3933 51.7668 47.3894 51.7587C47.3799 51.7392 47.3825 51.7386 47.3925 51.7771C47.4106 51.8465 47.4325 51.9623 47.457 52.1238C47.5053 52.442 47.5542 52.872 47.6045 53.3189C47.6541 53.7593 47.7051 54.2158 47.7566 54.568C47.7821 54.7426 47.8096 54.9052 47.8399 55.0325C47.8546 55.0944 47.8738 55.1648 47.8999 55.2298C47.9128 55.2619 47.9332 55.3076 47.9642 55.355C47.9894 55.3936 48.0552 55.4863 48.1778 55.5476L48.625 54.6532ZM48.1549 51.8539L48.2549 51.7539L47.5478 51.0468L47.4478 51.1468L48.1549 51.8539ZM13.6016 5.07802C13.1802 5.34719 13.1802 5.34718 13.1802 5.34717C13.1802 5.34718 13.1802 5.34718 13.1802 5.34719C13.1802 5.34722 13.1802 5.34727 13.1803 5.34735C13.1804 5.34751 13.1806 5.34777 13.1808 5.34813C13.1813 5.34885 13.182 5.34998 13.1829 5.3515C13.1849 5.35454 13.1878 5.35916 13.1917 5.36526C13.1994 5.37746 13.2109 5.39555 13.2255 5.41875C13.2547 5.46517 13.2965 5.53196 13.3464 5.61281C13.4464 5.77488 13.578 5.99178 13.7059 6.21367C13.8351 6.43788 13.9549 6.65753 14.035 6.82794C14.0758 6.91496 14.0993 6.97436 14.1097 7.0079C14.1151 7.02546 14.112 7.02027 14.1097 6.99945C14.1092 6.99449 14.0952 6.89471 14.1543 6.77639L15.0488 7.22361C15.1204 7.08029 15.1096 6.94362 15.1039 6.89146C15.0965 6.82344 15.08 6.76075 15.0649 6.71209C15.0343 6.61317 14.9882 6.50523 14.94 6.4027C14.842 6.19398 14.7056 5.94564 14.5723 5.71435C14.4376 5.48075 14.3005 5.25466 14.1974 5.08761C14.1457 5.0039 14.1023 4.93459 14.0718 4.88606C14.0565 4.86179 14.0444 4.84269 14.0361 4.82956C14.0319 4.823 14.0287 4.81792 14.0265 4.81444C14.0254 4.8127 14.0245 4.81135 14.0239 4.81042C14.0236 4.80995 14.0234 4.80959 14.0232 4.80932C14.0231 4.80919 14.0231 4.80909 14.023 4.80901C14.023 4.80897 14.023 4.80893 14.023 4.80891C14.0229 4.80888 14.0229 4.80886 13.6016 5.07802ZM14.1016 7C14.1016 6.93609 14.1151 6.8904 14.119 6.87741C14.1219 6.86792 14.1245 6.86095 14.1261 6.85697C14.1277 6.85288 14.1288 6.85043 14.129 6.84987C14.1294 6.84906 14.128 6.85213 14.1239 6.85987C14.1199 6.86735 14.1143 6.87734 14.1067 6.89012C14.075 6.94403 14.025 7.02057 13.9573 7.1198C13.8906 7.21749 13.813 7.3283 13.7279 7.44975C13.6437 7.5701 13.553 7.69967 13.4637 7.83052C13.2877 8.08818 13.1047 8.36797 12.9777 8.60958C12.9154 8.72822 12.8543 8.86023 12.8184 8.98874C12.8004 9.05327 12.7832 9.13594 12.7832 9.22693C12.7832 9.31688 12.8003 9.44943 12.8855 9.57735L13.7176 9.02265C13.7779 9.11307 13.7832 9.1964 13.7832 9.22693C13.7832 9.2585 13.7777 9.27154 13.7816 9.25775C13.7894 9.22962 13.8128 9.17021 13.8629 9.0748C13.9609 8.88828 14.1154 8.64932 14.2895 8.39448C14.3751 8.26908 14.4626 8.14396 14.5471 8.0233C14.6308 7.90374 14.7125 7.7872 14.7834 7.68333C14.8532 7.581 14.9188 7.48175 14.9683 7.39778C14.9927 7.35639 15.0189 7.30904 15.0405 7.26111C15.0524 7.23482 15.1016 7.12955 15.1016 7H14.1016ZM12.948 9.65355C13.051 9.75652 13.1693 9.7959 13.2347 9.81271C13.3073 9.83141 13.3777 9.83781 13.4344 9.84004C13.5483 9.84453 13.6747 9.83425 13.7942 9.81984C14.0366 9.79063 14.3329 9.73364 14.6121 9.67779C14.9008 9.62006 15.1726 9.56328 15.3952 9.52592C15.5063 9.50729 15.5928 9.49566 15.6546 9.49091C15.7423 9.48416 15.7127 9.49742 15.6434 9.47434L15.9597 8.52566C15.8155 8.47758 15.6577 8.48771 15.5779 8.49386C15.4721 8.50199 15.3515 8.51927 15.2298 8.53971C14.9868 8.58047 14.6899 8.64244 14.416 8.69721C14.1327 8.75386 13.8728 8.80313 13.6745 8.82703C13.5737 8.83918 13.5087 8.84219 13.4738 8.84082C13.4561 8.84012 13.4627 8.83881 13.4839 8.84427C13.4978 8.84786 13.5771 8.86848 13.6551 8.94645L12.948 9.65355ZM15.8016 9.5C15.7035 9.5 15.6331 9.46958 15.6042 9.4555C15.5715 9.4396 15.551 9.42414 15.5446 9.4192C15.5323 9.40965 15.5338 9.40883 15.5522 9.42887C15.5872 9.46681 15.6397 9.53182 15.7113 9.62707C15.858 9.82209 16.0236 10.0602 16.223 10.3328C16.4111 10.5897 16.6205 10.8649 16.8154 11.0722C16.9114 11.1742 17.0219 11.2796 17.1394 11.3583C17.2318 11.4201 17.4536 11.5524 17.7228 11.4851L17.4803 10.5149C17.6495 10.4726 17.7463 10.5611 17.6957 10.5273C17.6703 10.5103 17.6199 10.468 17.544 10.3872C17.3951 10.2289 17.217 9.99777 17.0301 9.74225C16.8545 9.50227 16.6576 9.22166 16.5106 9.02605C16.4353 8.92599 16.3581 8.82772 16.2876 8.75121C16.2533 8.71402 16.2082 8.66818 16.1561 8.62792C16.1298 8.60762 16.0911 8.58038 16.0422 8.55654C15.997 8.53452 15.9121 8.5 15.8016 8.5V9.5ZM17.7228 11.4851C17.879 11.446 17.9854 11.3537 18.0494 11.28C18.1136 11.2062 18.1575 11.126 18.1882 11.0592C18.2493 10.9262 18.2916 10.7702 18.3233 10.6218C18.388 10.3196 18.4306 9.94066 18.4622 9.58119C18.4939 9.21981 18.5164 8.85018 18.5362 8.57488C18.5464 8.43373 18.5555 8.32002 18.5647 8.23744C18.5693 8.19576 18.5732 8.16936 18.5758 8.15489C18.5816 8.12312 18.5779 8.16532 18.5488 8.22361L17.6543 7.77639C17.6127 7.85968 17.5973 7.94642 17.5919 7.97621C17.5834 8.02332 17.5766 8.07553 17.5708 8.12701C17.5593 8.23076 17.549 8.36159 17.5388 8.50324C17.5179 8.79357 17.4968 9.14269 17.466 9.49381C17.435 9.84685 17.3964 10.1742 17.3454 10.4126C17.3194 10.5345 17.2953 10.6074 17.2794 10.6419C17.2716 10.659 17.2744 10.6473 17.2946 10.6241C17.3146 10.601 17.3741 10.5415 17.4803 10.5149L17.7228 11.4851ZM18.6016 8C18.6016 8.12295 18.5546 8.2078 18.5369 8.23702C18.5158 8.27204 18.496 8.2928 18.4911 8.29789C18.4811 8.30837 18.4826 8.3048 18.509 8.28539C18.5586 8.24904 18.642 8.19587 18.7597 8.1272C18.9916 7.99193 19.3067 7.82516 19.632 7.65625C19.9514 7.49041 20.2837 7.32098 20.5302 7.18985C20.6531 7.12443 20.7645 7.06339 20.8476 7.0134C20.8874 6.98948 20.933 6.96078 20.973 6.93064C20.9914 6.91679 21.0244 6.891 21.0576 6.85583C21.0741 6.8384 21.1022 6.80655 21.1289 6.76194C21.1519 6.72348 21.2016 6.63009 21.2016 6.5H20.2016C20.2016 6.37304 20.25 6.2833 20.2705 6.24903C20.2946 6.2086 20.319 6.18145 20.3306 6.16924C20.3438 6.15525 20.3546 6.14567 20.3602 6.14096C20.3661 6.13585 20.3703 6.13267 20.3717 6.13162C20.3737 6.13014 20.3634 6.13767 20.3321 6.15653C20.273 6.19208 20.1812 6.24276 20.0605 6.30703C19.8194 6.43527 19.5018 6.59709 19.1712 6.76875C18.8465 6.93734 18.5115 7.11432 18.2559 7.26342C18.1298 7.33694 18.0102 7.41112 17.9176 7.47906C17.8729 7.5118 17.8185 7.55462 17.7704 7.6047C17.7464 7.62959 17.7121 7.66845 17.6811 7.71975C17.6536 7.76525 17.6016 7.86455 17.6016 8H18.6016ZM21.2016 6.5C21.2016 6.34305 21.131 6.23007 21.0783 6.16895C21.028 6.11048 20.9754 6.07641 20.9474 6.0599C20.8911 6.0267 20.8388 6.00994 20.8157 6.00292C20.7622 5.98663 20.7053 5.97614 20.6614 5.969C20.5673 5.95367 20.4437 5.93991 20.3096 5.92723C20.0382 5.90153 19.6784 5.87609 19.3241 5.85123C18.9657 5.82608 18.6123 5.80147 18.3419 5.77703C18.2058 5.76473 18.0991 5.75319 18.0267 5.74268C18.0092 5.74015 17.9953 5.73789 17.9846 5.73597C17.9793 5.73502 17.9752 5.73423 17.9721 5.7336C17.9706 5.7333 17.9695 5.73305 17.9687 5.73287C17.9683 5.73279 17.968 5.73272 17.9678 5.73267C17.9676 5.73262 17.9675 5.7326 17.9675 5.7326C17.9675 5.7326 17.9676 5.73263 17.9678 5.73269C17.9681 5.73274 17.9684 5.73284 17.9689 5.73296C17.9698 5.73321 17.9714 5.73364 17.9735 5.73426C17.9774 5.73538 17.9854 5.73783 17.9962 5.74193C17.9987 5.74289 18.0787 5.77007 18.1551 5.84645L17.448 6.55355C17.5306 6.63618 17.6222 6.66961 17.6412 6.67682C17.6771 6.69044 17.7104 6.69929 17.7337 6.7049C17.7817 6.71643 17.8344 6.72525 17.8831 6.73232C17.983 6.74681 18.1114 6.76027 18.2519 6.77297C18.5346 6.79853 18.8999 6.82392 19.2541 6.84877C19.6122 6.87391 19.9587 6.89847 20.2154 6.92277C20.3454 6.93509 20.4413 6.94633 20.5007 6.956C20.5336 6.96136 20.537 6.96337 20.5245 6.95958C20.522 6.95881 20.4853 6.9483 20.4396 6.92135C20.4169 6.90797 20.3684 6.87702 20.3207 6.82167C20.2708 6.76368 20.2016 6.65383 20.2016 6.5H21.2016ZM18.1551 5.84645C18.1948 5.88609 18.2164 5.92307 18.2261 5.94149C18.2365 5.96126 18.2414 5.97519 18.2425 5.97873C18.2446 5.98471 18.2415 5.97698 18.2367 5.94791C18.227 5.89061 18.2185 5.80199 18.2117 5.68025C18.1983 5.4373 18.1954 5.13044 18.189 4.8027C18.1828 4.4865 18.1733 4.1492 18.1439 3.88143C18.1295 3.75022 18.1078 3.60944 18.0696 3.48732C18.0507 3.42675 18.0208 3.348 17.9711 3.27166C17.9233 3.19829 17.8269 3.08141 17.6597 3.02566L17.3434 3.97434C17.2137 3.93109 17.1509 3.84468 17.1332 3.81755C17.1136 3.78745 17.1105 3.77071 17.1152 3.78573C17.1242 3.81478 17.1377 3.87947 17.1499 3.99045C17.1736 4.20705 17.1829 4.501 17.1892 4.8223C17.1952 5.13206 17.1985 5.46895 17.2133 5.73538C17.2206 5.86832 17.2315 6.00079 17.2504 6.11342C17.2598 6.16931 17.2733 6.23375 17.2945 6.2969C17.3115 6.34758 17.3524 6.45799 17.448 6.55355L18.1551 5.84645ZM17.5016 3C17.2392 3 17.0577 3.16493 16.982 3.24041C16.8847 3.33737 16.7977 3.45754 16.7234 3.57305C16.5725 3.80739 16.4206 4.10635 16.2878 4.38464C16.1554 4.66216 16.027 4.95129 15.9367 5.1465C15.889 5.24972 15.8535 5.32359 15.829 5.36936C15.8156 5.39437 15.8135 5.39575 15.8207 5.38567C15.8231 5.3822 15.8405 5.35735 15.8717 5.32821C15.8792 5.32128 15.9994 5.2 16.2016 5.2V6.2C16.41 6.2 16.5378 6.07443 16.5542 6.05917C16.5943 6.0217 16.6219 5.9845 16.6358 5.96492C16.6659 5.92261 16.6916 5.87673 16.7105 5.84158C16.7504 5.76704 16.7969 5.66903 16.8445 5.566C16.9449 5.34871 17.0603 5.08785 17.1903 4.81536C17.32 4.54365 17.4494 4.29261 17.5641 4.11445C17.6226 4.02371 17.6645 3.972 17.6879 3.94866C17.7329 3.90382 17.6639 4 17.5016 4V3ZM16.2016 5.2C16.2395 5.2 16.268 5.20462 16.2751 5.20577C16.2862 5.20756 16.2939 5.20928 16.2962 5.20982C16.301 5.21091 16.301 5.21105 16.2933 5.20887C16.2786 5.20473 16.2542 5.19727 16.2182 5.18568C16.1469 5.16279 16.0481 5.12963 15.9271 5.08878C15.688 5.00803 15.3711 4.90029 15.054 4.79879C14.7394 4.69813 14.411 4.59919 14.1498 4.53813C14.0225 4.50838 13.8895 4.48234 13.7741 4.47397C13.7194 4.47 13.6384 4.46741 13.5527 4.48372C13.4924 4.49518 13.2701 4.54492 13.1543 4.77639L14.0488 5.22361C13.9455 5.43008 13.7537 5.46341 13.7396 5.46609C13.7001 5.47361 13.681 5.46984 13.7017 5.47135C13.7371 5.47391 13.8087 5.48537 13.9221 5.51187C14.1422 5.56331 14.4387 5.65187 14.7492 5.75121C15.057 5.84972 15.3651 5.95447 15.6072 6.03622C15.7269 6.07662 15.8328 6.11221 15.9123 6.13776C15.9516 6.15039 15.9891 6.16207 16.0207 6.17101C16.0361 6.17537 16.0552 6.18054 16.0749 6.18503C16.0798 6.18613 16.1356 6.2 16.2016 6.2V5.2ZM13.1016 5V5.07802H14.1016V5H13.1016ZM3.40137 44.3998C2.96865 44.6503 2.96865 44.6503 2.96865 44.6503C2.96865 44.6503 2.96865 44.6503 2.96866 44.6503C2.96868 44.6504 2.96872 44.6504 2.96877 44.6505C2.96888 44.6507 2.96905 44.651 2.96928 44.6514C2.96975 44.6522 2.97048 44.6535 2.97146 44.6552C2.97342 44.6586 2.97638 44.6637 2.98028 44.6705C2.98806 44.684 2.99956 44.7041 3.01422 44.7297C3.04354 44.7811 3.08545 44.8549 3.13549 44.9442C3.23576 45.1232 3.36776 45.3626 3.49617 45.6072C3.62571 45.854 3.74683 46.0969 3.82827 46.2855C3.86975 46.3816 3.89486 46.4497 3.9067 46.4907C3.91288 46.5121 3.91095 46.511 3.90924 46.4945C3.90833 46.4856 3.90647 46.463 3.90931 46.4314C3.91197 46.4018 3.92051 46.3435 3.95415 46.2762L4.84858 46.7234C4.92107 46.5784 4.90883 46.4391 4.90399 46.3921C4.89715 46.3257 4.88185 46.2632 4.86752 46.2136C4.83834 46.1124 4.79392 45.9993 4.74634 45.8891C4.64966 45.6652 4.51453 45.3956 4.38157 45.1424C4.24747 44.887 4.11073 44.6389 4.00787 44.4554C3.95634 44.3634 3.9131 44.2873 3.88266 44.2339C3.86743 44.2073 3.8554 44.1863 3.84712 44.1719C3.84298 44.1647 3.83977 44.1591 3.83758 44.1553C3.83648 44.1534 3.83563 44.152 3.83505 44.151C3.83475 44.1504 3.83453 44.1501 3.83436 44.1498C3.83428 44.1496 3.83422 44.1495 3.83417 44.1494C3.83415 44.1494 3.83413 44.1494 3.83411 44.1493C3.83409 44.1493 3.83408 44.1493 3.40137 44.3998ZM3.90137 46.4998C3.90137 46.4359 3.91488 46.3902 3.91884 46.3772C3.92174 46.3677 3.92432 46.3608 3.92587 46.3568C3.92746 46.3527 3.92856 46.3502 3.92881 46.3497C3.92917 46.3489 3.9278 46.3519 3.92366 46.3597C3.91966 46.3671 3.91406 46.3771 3.90653 46.3899C3.87476 46.4438 3.82476 46.5204 3.75707 46.6196C3.69043 46.7173 3.61276 46.8281 3.52772 46.9496C3.44345 47.0699 3.35283 47.1995 3.26347 47.3303C3.0875 47.588 2.9045 47.8678 2.77752 48.1094C2.71517 48.228 2.65413 48.36 2.61824 48.4885C2.60021 48.5531 2.58301 48.6357 2.58301 48.7267C2.58301 48.8167 2.60006 48.9492 2.68534 49.0772L3.51739 48.5225C3.57767 48.6129 3.58301 48.6962 3.58301 48.7267C3.58301 48.7583 3.57752 48.7713 3.58137 48.7575C3.58923 48.7294 3.61257 48.67 3.66272 48.5746C3.76074 48.3881 3.91523 48.1491 4.08927 47.8943C4.17491 47.7689 4.26241 47.6438 4.34689 47.5231C4.4306 47.4035 4.51231 47.287 4.58316 47.1831C4.65297 47.0808 4.7186 46.9816 4.76808 46.8976C4.79247 46.8562 4.81871 46.8088 4.84033 46.7609C4.8522 46.7346 4.90137 46.6294 4.90137 46.4998H3.90137ZM2.74781 49.1534C2.85078 49.2563 2.96914 49.2957 3.03449 49.3125C3.10713 49.3312 3.17751 49.3376 3.23424 49.3398C3.3481 49.3443 3.4745 49.3341 3.59403 49.3196C3.83636 49.2904 4.1327 49.2334 4.41193 49.1776C4.70056 49.1199 4.97237 49.0631 5.19504 49.0257C5.30608 49.0071 5.39258 48.9955 5.45436 48.9907C5.54208 48.984 5.51248 48.9972 5.44325 48.9741L5.75948 48.0255C5.61526 47.9774 5.45753 47.9875 5.37767 47.9937C5.27187 48.0018 5.15134 48.0191 5.02957 48.0395C4.78662 48.0803 4.48967 48.1422 4.21581 48.197C3.93254 48.2537 3.67262 48.3029 3.47433 48.3268C3.37355 48.339 3.30855 48.342 3.27358 48.3406C3.25588 48.3399 3.2625 48.3386 3.28373 48.3441C3.29765 48.3477 3.37695 48.3683 3.45492 48.4463L2.74781 49.1534ZM5.60137 48.9998C5.50335 48.9998 5.43288 48.9694 5.40398 48.9553C5.37135 48.9394 5.35082 48.9239 5.34442 48.919C5.33206 48.9095 5.33357 48.9086 5.35204 48.9287C5.387 48.9666 5.43949 49.0316 5.51113 49.1269C5.65778 49.3219 5.82344 49.56 6.02285 49.8326C6.21088 50.0895 6.42033 50.3647 6.61521 50.572C6.71116 50.674 6.82169 50.7794 6.93925 50.8581C7.03165 50.9199 7.25345 51.0522 7.52263 50.9849L7.2801 50.0147C7.44929 49.9724 7.54609 50.0609 7.49552 50.0271C7.47011 50.0101 7.4197 49.9678 7.34378 49.887C7.1949 49.7287 7.01685 49.4976 6.82988 49.2421C6.65429 49.0021 6.45745 48.7215 6.31036 48.5259C6.23512 48.4258 6.15792 48.3275 6.08742 48.251C6.05315 48.2138 6.00798 48.168 5.95587 48.1277C5.9296 48.1074 5.89093 48.0802 5.84201 48.0563C5.79681 48.0343 5.71189 47.9998 5.60137 47.9998V48.9998ZM7.52263 50.9849C7.6835 50.9447 7.79096 50.8477 7.85382 50.7733C7.9172 50.6982 7.96041 50.6168 7.99046 50.5493C8.05049 50.4143 8.09229 50.2551 8.12383 50.1026C8.18804 49.7919 8.23057 49.4013 8.26208 49.0295C8.29375 48.6559 8.3163 48.274 8.3361 47.9892C8.34624 47.8433 8.35546 47.7255 8.36469 47.64C8.36935 47.5968 8.37326 47.5692 8.37598 47.5538C8.38198 47.52 8.37847 47.5636 8.34858 47.6234L7.45415 47.1762C7.41176 47.261 7.39654 47.3499 7.39135 47.3791C7.3829 47.4268 7.37616 47.4799 7.37047 47.5327C7.35899 47.6389 7.34868 47.7735 7.33851 47.9198C7.31768 48.2194 7.29649 48.5812 7.26565 48.9451C7.23466 49.3108 7.19595 49.6514 7.14453 49.9002C7.11825 50.0273 7.09365 50.1049 7.07673 50.1429C7.0683 50.1619 7.07039 50.1511 7.08978 50.1281C7.10865 50.1058 7.16923 50.0424 7.2801 50.0147L7.52263 50.9849ZM8.40137 47.3998C8.40137 47.5277 8.35072 47.6151 8.33272 47.6438C8.31073 47.6789 8.29045 47.6994 8.28587 47.704C8.27627 47.7136 8.27876 47.7094 8.30689 47.6894C8.35965 47.6518 8.44721 47.5977 8.56975 47.5277C8.81211 47.3892 9.13657 47.2193 9.47243 47.0419C9.80101 46.8683 10.1419 46.6867 10.395 46.5345C10.5186 46.4602 10.6411 46.3812 10.7341 46.3054C10.7772 46.2704 10.8414 46.2142 10.8943 46.1408C10.9231 46.1008 11.0912 45.8615 10.9486 45.5762L10.0542 46.0234C9.92398 45.7631 10.0827 45.5566 10.083 45.5563C10.1073 45.5225 10.1238 45.5128 10.1026 45.5301C10.0671 45.559 9.9951 45.6081 9.87964 45.6776C9.65462 45.8129 9.33922 45.9813 9.00531 46.1577C8.67867 46.3303 8.33437 46.5104 8.07361 46.6594C7.94459 46.7332 7.82199 46.8071 7.72749 46.8743C7.68198 46.9067 7.62656 46.9489 7.57746 46.9982C7.55313 47.0226 7.5177 47.0612 7.4855 47.1126C7.45728 47.1576 7.40137 47.2594 7.40137 47.3998H8.40137ZM11.0014 45.7998C11.0014 45.6428 10.9308 45.5299 10.8781 45.4688C10.8278 45.4103 10.7753 45.3762 10.7473 45.3597C10.6909 45.3265 10.6386 45.3097 10.6155 45.3027C10.562 45.2864 10.5051 45.2759 10.4612 45.2688C10.3671 45.2535 10.2435 45.2397 10.1094 45.227C9.83802 45.2013 9.47818 45.1759 9.12387 45.151C8.76551 45.1259 8.41206 45.1013 8.14169 45.0768C8.0056 45.0645 7.89888 45.053 7.8265 45.0425C7.80902 45.04 7.79509 45.0377 7.78437 45.0358C7.77907 45.0348 7.77497 45.034 7.77193 45.0334C7.77044 45.0331 7.7693 45.0329 7.76849 45.0327C7.76809 45.0326 7.76779 45.0325 7.76758 45.0325C7.76737 45.0324 7.76727 45.0324 7.76727 45.0324C7.76727 45.0324 7.76739 45.0324 7.76763 45.0325C7.76786 45.0325 7.76822 45.0326 7.7687 45.0328C7.76964 45.033 7.77122 45.0334 7.77335 45.0341C7.77716 45.0352 7.78516 45.0376 7.79596 45.0417C7.79847 45.0427 7.87854 45.0699 7.95492 45.1463L7.24781 45.8534C7.33044 45.936 7.42204 45.9694 7.44101 45.9766C7.47688 45.9902 7.51019 45.9991 7.53356 46.0047C7.58151 46.0162 7.63418 46.0251 7.68288 46.0321C7.78276 46.0466 7.91119 46.0601 8.05167 46.0728C8.33442 46.0983 8.69973 46.1237 9.05387 46.1486C9.41205 46.1737 9.75846 46.1983 10.0152 46.2226C10.1452 46.2349 10.2411 46.2461 10.3005 46.2558C10.3334 46.2612 10.3368 46.2632 10.3243 46.2594C10.3218 46.2586 10.2851 46.2481 10.2394 46.2211C10.2167 46.2078 10.1682 46.1768 10.1205 46.1215C10.0706 46.0635 10.0014 45.9536 10.0014 45.7998H11.0014ZM7.95492 45.1463C7.99612 45.1875 8.01812 45.226 8.0276 45.2442C8.03792 45.2641 8.04252 45.2779 8.0435 45.2809C8.04511 45.2858 8.04186 45.2767 8.03685 45.246C8.02698 45.1854 8.01833 45.0927 8.01159 44.9668C7.99813 44.7156 7.99519 44.399 7.98877 44.0652C7.98259 43.7434 7.97311 43.402 7.94358 43.138C7.92934 43.0106 7.90713 42.8675 7.86503 42.7451C7.84469 42.6859 7.80784 42.5953 7.73852 42.5108C7.66376 42.4197 7.51776 42.2998 7.30137 42.2998V43.2998C7.12247 43.2998 7.01007 43.1995 6.96543 43.1451C6.92624 43.0973 6.91605 43.0606 6.91934 43.0702C6.92451 43.0852 6.93746 43.139 6.94978 43.2491C6.97338 43.4601 6.98265 43.7562 6.98896 44.0844C6.99504 44.4006 6.99835 44.7465 7.01302 45.0203C7.02034 45.1569 7.03122 45.2923 7.04987 45.4068C7.05911 45.4635 7.07237 45.5286 7.09317 45.5921C7.10942 45.6418 7.15004 45.7556 7.24781 45.8534L7.95492 45.1463ZM7.30137 42.2998C7.03903 42.2998 6.85751 42.4647 6.78179 42.5402C6.6845 42.6372 6.59755 42.7573 6.52317 42.8729C6.37227 43.1072 6.22044 43.4062 6.08763 43.6844C5.95517 43.962 5.82676 44.2511 5.73655 44.4463C5.68885 44.5495 5.65331 44.6234 5.62879 44.6692C5.6154 44.6942 5.61332 44.6955 5.62048 44.6855C5.62294 44.682 5.64034 44.6572 5.67155 44.628C5.67898 44.6211 5.79918 44.4998 6.00137 44.4998V45.4998C6.20981 45.4998 6.33763 45.3742 6.35397 45.359C6.3941 45.3215 6.42171 45.2843 6.43563 45.2647C6.46569 45.2224 6.49144 45.1765 6.51027 45.1414C6.5502 45.0668 6.5967 44.9688 6.64431 44.8658C6.74472 44.6485 6.86006 44.3876 6.99011 44.1152C7.11979 43.8435 7.24922 43.5924 7.36394 43.4143C7.42237 43.3235 7.46432 43.2718 7.48775 43.2485C7.53273 43.2036 7.46371 43.2998 7.30137 43.2998V42.2998ZM6.00137 44.4998C6.03935 44.4998 6.06781 44.5044 6.0749 44.5056C6.08598 44.5074 6.09367 44.5091 6.09605 44.5096C6.10085 44.5107 6.10076 44.5109 6.09307 44.5087C6.07845 44.5045 6.05405 44.4971 6.01796 44.4855C5.94672 44.4626 5.84795 44.4294 5.72695 44.3886C5.48783 44.3078 5.17093 44.2001 4.85376 44.0986C4.53919 43.9979 4.21078 43.899 3.94956 43.8379C3.82232 43.8082 3.6893 43.7821 3.57387 43.7738C3.51919 43.7698 3.43818 43.7672 3.35249 43.7835C3.29223 43.795 3.06989 43.8447 2.95415 44.0762L3.84858 44.5234C3.74535 44.7299 3.55347 44.7632 3.53941 44.7659C3.49991 44.7734 3.48081 44.7696 3.50152 44.7711C3.53687 44.7737 3.60854 44.7852 3.72193 44.8117C3.94196 44.8631 4.23855 44.9517 4.54898 45.051C4.8568 45.1495 5.16491 45.2543 5.40703 45.336C5.52666 45.3764 5.63258 45.412 5.71211 45.4376C5.75142 45.4502 5.78894 45.4619 5.8205 45.4708C5.83591 45.4752 5.85499 45.4803 5.87474 45.4848C5.87958 45.4859 5.93538 45.4998 6.00137 45.4998V44.4998ZM2.90137 44.2998V44.3998H3.90137V44.2998H2.90137ZM17.5252 38.7289C18.0347 39.3112 17.969 40.2804 17.2945 40.805L17.9085 41.5943C19.034 40.7189 19.1682 39.0881 18.2778 38.0704L17.5252 38.7289ZM17.2479 40.8461C17.2495 40.8445 17.2308 40.8624 17.1751 40.8897C17.1224 40.9155 17.0506 40.9429 16.9607 40.9677C16.7804 41.0174 16.5534 41.0497 16.314 41.0497C15.8092 41.0497 15.3878 40.9104 15.1778 40.6704L14.4252 41.3289C14.9152 41.8889 15.6938 42.0497 16.314 42.0497C16.637 42.0497 16.9539 42.0069 17.2266 41.9316C17.4824 41.8611 17.7636 41.7446 17.955 41.5532L17.2479 40.8461ZM15.1778 40.6704C14.7031 40.1279 14.7796 39.2286 15.455 38.5532L14.7479 37.8461C13.8234 38.7707 13.4999 40.2714 14.4252 41.3289L15.1778 40.6704ZM15.455 38.5532C15.8562 38.152 16.2262 38.0709 16.538 38.1188C16.8754 38.1707 17.2269 38.3879 17.5252 38.7289L18.2778 38.0704C17.8761 37.6114 17.3276 37.2286 16.69 37.1305C16.0268 37.0284 15.3468 37.2473 14.7479 37.8461L15.455 38.5532ZM5.511 34.7121C5.77506 35.0421 5.72133 35.4855 5.42409 35.6837L5.97879 36.5157C6.88155 35.9139 6.82782 34.7573 6.29187 34.0874L5.511 34.7121ZM5.42409 35.6837C5.37578 35.7159 5.15086 35.8021 4.85859 35.8125C4.57057 35.8228 4.36327 35.7544 4.25499 35.6462L3.54789 36.3533C3.93961 36.745 4.48231 36.8266 4.89429 36.8119C5.30202 36.7973 5.7271 36.6835 5.97879 36.5157L5.42409 35.6837ZM4.25499 35.6462C4.13494 35.5261 4.09154 35.37 4.12016 35.1912C4.15036 35.0025 4.26006 34.8131 4.41379 34.6901L3.78909 33.9093C3.44281 34.1863 3.20252 34.597 3.13272 35.0332C3.06133 35.4794 3.16794 35.9733 3.54789 36.3533L4.25499 35.6462ZM4.45499 34.6533C4.6562 34.4521 4.83233 34.416 4.97937 34.4336C5.14864 34.454 5.35083 34.5562 5.54789 34.7533L6.25499 34.0462C5.95204 33.7432 5.55423 33.4955 5.09851 33.4408C4.62055 33.3834 4.14668 33.5474 3.74789 33.9462L4.45499 34.6533ZM13.8863 19.2889C12.4979 18.3278 10.8133 17.8111 8.77583 17.5055L8.62749 18.4945C10.5901 18.7889 12.1054 19.2722 13.3171 20.1111L13.8863 19.2889ZM17.2694 16.7613C14.8814 14.1656 10.9821 12.3321 7.64647 11.3213L7.35646 12.2783C10.6208 13.2675 14.3215 15.034 16.5335 17.4383L17.2694 16.7613ZM22.8013 14.6004C22.8013 13.5149 22.8766 12.1768 23.2529 10.9889C23.6278 9.80574 24.2796 8.83323 25.3961 8.36087L25.0064 7.43991C23.5229 8.06756 22.7248 9.34504 22.2996 10.6869C21.876 12.024 21.8013 13.4859 21.8013 14.6004H22.8013Z" fill="#494A4A"/>
</g>
</g>
</svg>
