<svg width="64" height="64" viewBox="0 0 64 64" fill="none" xmlns="http://www.w3.org/2000/svg">
<g id="Pictogram-documents">
<g id="stroke-default">
<path id="2px" d="M2.49928 33.9998C1.89928 39.8998 1.89928 51.9998 2.29928 55.7998C2.49928 57.8998 3.89928 59.2998 6.99928 59.4998C14.6993 59.8998 46.8993 60.3998 57.2993 59.1998C59.7993 58.8998 61.4993 57.3998 61.6993 53.7998C61.9993 49.2998 62.0993 39.9998 61.3993 33.2998M6.7997 26.4C5.7997 27.6 3.4997 30.8 2.8997 32.3C1.9997 34.5 2.4997 35.6 4.9997 35.8C12.2997 36.2 54.5997 36.1 60.1997 35.6C61.5997 35.5 61.8997 33.6 60.8997 32.1C59.8997 30.6 56.7997 26.1 55.8997 25M6.99951 31.5002C6.99951 29.5002 6.99951 21.5002 7.09951 19.8002C7.39951 17.5002 7.99951 16.5002 10.1995 16.2002C12.1995 15.9002 17.9995 15.9002 19.8995 16.0002C21.5995 16.0002 22.4995 16.4002 23.4995 17.3002C24.2995 18.0002 25.0995 19.7002 25.7995 20.3002C26.7995 21.0002 27.7995 21.0002 29.1995 21.0002C37.0995 21.0002 48.5995 21.0002 52.2995 21.2002C54.4995 21.3002 55.4995 22.5002 55.7995 23.9002C55.9995 24.8002 55.9995 30.6002 55.8995 31.4002M10.0996 16.2002C10.0996 15.2002 10.0996 15.2002 10.0996 14.8002C10.3996 12.5002 10.9996 11.5002 13.1996 11.2002C15.1996 10.9002 20.9996 10.9002 22.8996 11.0002C24.5996 11.0002 25.4996 11.4002 26.4996 12.3002C27.2996 13.0002 28.0996 14.7002 28.7996 15.3002C29.7996 16.0002 30.7996 16.0002 32.1996 16.0002C40.0996 16.0002 45.5996 16.0002 49.2996 16.2002C51.4996 16.3002 52.4996 17.5002 52.7996 18.9002C52.9996 19.8002 52.9996 20.5002 52.9996 21.2002M12.9995 11.0002C12.9995 10.5002 12.9995 10.1002 12.9995 9.80024C13.2995 7.50024 13.8995 6.50024 16.0995 6.20024C18.0995 5.90024 23.6995 5.90024 25.4995 6.00024C27.1995 6.00024 28.0995 6.40024 29.0995 7.30024C29.8995 8.00024 30.2995 8.70024 30.9995 9.60024C31.6995 10.5002 32.5995 11.0002 33.8995 11.0002C35.5995 11.0002 43.3995 11.1002 45.1995 11.2002C47.3995 11.3002 48.3995 12.5002 48.6995 13.9002C48.8995 14.8002 48.8995 15.5002 48.8995 16.1002" stroke="#494A4A" stroke-width="2" stroke-linecap="round" stroke-linejoin="round"/>
<path id="1px" d="M58.4994 52.5C58.5994 54.6 57.5994 56.4 55.3994 56.4M11.5994 39.2002C11.3994 39.9002 10.6994 41.8002 10.3994 42.4002M13.2996 41C12.9996 42 12.3996 43.9 12.0996 44.8M24.4995 23.7998C25.5995 24.6998 27.6995 24.6998 30.1995 24.6998M22.9997 42.6996C22.3997 43.0996 22.0997 46.6996 22.9997 46.9996C24.4997 47.5996 38.4997 47.8996 39.7997 46.9996C40.6997 46.3996 40.7997 42.4996 39.7997 41.7996C38.7997 41.0996 23.6997 42.1996 22.8997 42.7996L22.9997 42.6996Z" stroke="#494A4A" stroke-linecap="round" stroke-linejoin="round"/>
</g>
</g>
</svg>
