<svg width="64" height="64" viewBox="0 0 64 64" fill="none" xmlns="http://www.w3.org/2000/svg">
<g id="Pictogram-mail-information">
<g id="stroke-default">
<path id="2px" d="M60.9999 34.0001C61.0799 26.2201 60.9999 18.5001 60.5799 15.7501C60.1599 13.0001 58.7199 11.9101 55.5799 11.6201C48.6399 10.9801 14.7599 10.5301 7.80987 11.8201C5.03987 12.3401 4.13987 13.4401 3.52987 15.5801C2.52987 19.1201 2.96987 46.8901 3.87987 50.5001C3.97738 51.1669 4.24996 51.7958 4.66982 52.3228C5.08968 52.8499 5.6418 53.2561 6.26987 53.5001C10.1699 54.5001 20.1599 54.9701 31.1499 55.0301M4.60987 13.4001C12.9199 24.0001 25.3399 32.0001 31.9999 32.0001C38.1699 32.0001 50.4299 24.3301 59.6699 13.3301M62.9999 48.5001C62.9999 56.5083 56.5125 63.0001 48.5099 63.0001C40.5073 63.0001 34.0199 56.5083 34.0199 48.5001C34.0199 40.492 40.5073 34.0001 48.5099 34.0001C56.5125 34.0001 62.9999 40.492 62.9999 48.5001Z" stroke="#494A4A" stroke-width="2" stroke-linecap="round" stroke-linejoin="round"/>
<path id="1px" d="M17.4608 51.5101C19.1308 51.5101 23.1208 51.6701 24.4608 51.5101M57.0908 54.5201C58.6608 53.2001 59.5408 50.0901 59.5108 47.5201M6.58078 22.4301C6.58078 24.1001 6.39078 28.2001 6.58078 29.5701M4.30078 51.5801C6.50078 51.5801 8.47078 50.3101 10.3608 48.5801C12.8108 46.3301 24.7508 30.0001 24.7508 30.0001M41.5108 32.6001L39.5608 29.8501M44.5608 50.2701C45.2508 50.9901 46.2208 50.0401 46.5608 50.4901C46.9008 50.9401 45.0708 55.7501 45.5008 56.7001C46.0408 57.8701 49.2208 57.5201 49.9908 57.1001C50.5708 56.7801 51.9908 54.1001 51.5108 53.6001C51.0308 53.1001 49.6808 53.7801 49.3608 53.5201C49.0408 53.2601 50.9708 47.2301 50.3608 46.7301C49.7508 46.2301 46.9308 46.4401 46.2108 46.8301C45.4908 47.2201 43.8808 49.5401 44.5608 50.2701ZM51.5008 42.0101C51.5008 43.3908 50.3815 44.5101 49.0008 44.5101C47.6201 44.5101 46.5008 43.3908 46.5008 42.0101C46.5008 40.6294 47.6201 39.5101 49.0008 39.5101C50.3815 39.5101 51.5008 40.6294 51.5008 42.0101Z" stroke="#494A4A" stroke-linecap="round" stroke-linejoin="round"/>
</g>
</g>
</svg>
