<svg width="64" height="64" viewBox="0 0 64 64" fill="none" xmlns="http://www.w3.org/2000/svg">
<g id="Pictogram-budget-1" clip-path="url(#clip0_426_2720)">
<g id="stroke-default">
<path id="2px" d="M11.0599 56C14.9099 62.52 34.9399 64 40.4099 62.45C46.2199 60.85 46.2599 57 51.0499 55M45.2699 60C54.9199 63 61.8099 58.6 60.9999 55.41C60.2499 52.63 56.4499 54.22 56.8699 48.32C57.3199 41.94 57.2799 34.04 51.7999 27.67C45.4399 20.32 38.9999 20.78 38.9999 16C38.9999 11.22 43.6999 14.12 44.4999 14.07C45.5699 14 44.8099 6.61003 42.9099 6.07003M39.3999 8.65003C40.4799 6.65003 43.7099 5.60003 43.7099 4.42003C43.7099 3.59003 41.6399 1.83003 40.3299 1.72003C38.8199 1.58003 36.3299 2.89003 35.6399 2.80003C34.9499 2.71003 33.8999 1.00003 32.4499 1.00003C23.6599 0.860032 21.9999 4.00003 21.3799 3.73003C20.0912 3.20998 18.709 2.96146 17.3199 3.00003C15.8699 3.13003 12.2599 6.76003 13.8199 6.87003C18.5299 7.21003 24.8899 10.87 22.9699 15.87C21.4899 19.71 17.8899 19.02 11.9699 26.73C5.67988 34.76 7.99988 47.45 7.99988 49.81C7.91988 53.48 5.69988 55.81 6.06988 56.99C6.43988 58.17 8.75988 59.72 13.3999 58.44M23.1899 14C20.6299 14 19.0399 19.29 26.4399 21C38.3699 23.82 52.2999 22.88 58.0799 19.27M39.9999 15.42C40.5099 13.6 23.9999 12.61 23.2399 14.74M41.2899 17.86C34.3399 16.59 23.3999 17.53 23.1899 15.68M33.6799 36.73C30.3299 34.02 28.5599 39.62 31.6799 39.8C35.2499 40.01 34.8399 45.8 29.9699 43.6M31.9999 34.07V35.86M31.9999 44.16V45.98" stroke="#494A4A" stroke-width="2" stroke-linecap="round" stroke-linejoin="round"/>
<path id="1px" d="M20.47 3.89008C21.7032 4.41095 22.8192 5.17413 23.752 6.13435C24.6847 7.09458 25.4151 8.2323 25.9 9.48007M26.71 16.8101C22.82 24.7101 19.55 23.9601 17.58 28.4201M12 48.9401C12.337 51.025 13.182 52.9949 14.4603 54.6761C15.7386 56.3573 17.411 57.698 19.33 58.5801M54.19 57.7101C55.41 57.2501 57.65 56.7101 57.34 55.9201M19.12 54.6501C19.61 56.2501 21.96 58.3601 23.07 58.9801M53 49.6401C54 48.3101 54.35 45.1601 54.21 43.9101M50.24 49.8901C51.24 48.5601 51.46 48.0301 51.31 46.7701" stroke="#494A4A" stroke-linecap="round" stroke-linejoin="round"/>
</g>
</g>
<defs>
<clipPath id="clip0_426_2720">
<rect width="64" height="64" fill="white"/>
</clipPath>
</defs>
</svg>
