<svg width="64" height="64" viewBox="0 0 64 64" fill="none" xmlns="http://www.w3.org/2000/svg">
<g id="Pictogram-mail-invoice-euro">
<g id="stroke-default">
<path id="2px" d="M12.0992 28C9.89923 30 8.29923 31.7 8.19923 32.7C7.79923 37.7 8.09923 52.9 8.99923 56.5C9.29923 57.8 10.0992 59.2 11.3992 59.5C18.7992 61.4 43.0992 61.3 50.8992 60.3C53.7992 59.9 54.7992 58.4 55.1992 56.1C55.9992 50.9 56.1992 37.1 55.8992 32.4C55.8992 31.7 53.7992 29.5 51.9992 28M12.299 32.3997C11.899 23.7997 11.899 13.8997 12.299 8.19973C12.499 5.69973 13.599 4.89973 15.999 4.49973C20.599 3.79973 49.699 3.49973 50.899 5.19973C52.199 7.09973 51.999 24.0997 51.499 32.4997M34.999 10.3002C30.399 9.20023 28.999 11.0002 28.999 14.0002C28.999 18.0002 30.199 19.6002 34.999 18.8002" stroke="#494A4A" stroke-width="2" stroke-linecap="round" stroke-linejoin="round"/>
<path id="1px" d="M9.99951 58.0004C31.5995 36.5004 32.2995 36.4004 54.5995 58.0004M21.0996 26.4004C22.7996 26.6004 40.5996 26.4004 41.8996 26.4004M21.0996 31.4004C22.7996 31.6004 40.5996 31.4004 41.8996 31.4004M21.0996 36.4004C21.9996 36.8004 30.8996 36.5004 31.4996 36.5004M18.7997 7.59961C16.2997 7.59961 15.6997 7.99961 15.6997 10.5996M17.4995 57.2002C18.6995 57.4002 23.7995 57.6002 24.7995 57.8002M8.09961 32C9.69961 32 11.2996 32 13.1996 33.8C15.6996 36 25.0996 44.3 25.0996 44.3M55.9993 32C54.3993 32 52.8993 32 50.9993 33.8C48.4993 36 39.2993 44.5 39.2993 44.5M27.4995 15.5002H33.0995M27.4995 13.5002H33.0995" stroke="#494A4A" stroke-linecap="round" stroke-linejoin="round"/>
</g>
</g>
</svg>
