<svg width="64" height="65" viewBox="0 0 64 65" fill="none" xmlns="http://www.w3.org/2000/svg">
<g id="Pictogram-recycle-bin" clip-path="url(#clip0_426_103)">
<g id="stroke-default">
<path id="2px" d="M11.1801 15.2592C11.1801 20.4292 11.8901 31.2592 12.3201 34.8592C12.4601 35.9392 16.1701 37.8592 16.1701 37.8592C12.9701 38.1492 12.5501 38.6092 12.6901 40.3792C12.9001 42.8792 13.6201 53.1492 14.6901 57.7392C15.1701 59.8592 16.4501 63.0392 31.4501 63.0392C48.4501 63.0392 48.8201 59.7792 49.2901 57.4992C51.0701 48.7692 51.9001 23.2192 51.7701 14.0392C51.7701 12.3992 51.3701 11.7492 50.0101 11.7692C48.6501 11.7892 46.0101 11.8492 45.1401 11.8592M25.1001 6.59925C24.8803 5.67515 24.8463 4.71659 25.0001 3.77925C25.1096 3.32154 25.3491 2.90526 25.6897 2.58057C26.0304 2.25588 26.4577 2.03663 26.9201 1.94925C29.9955 1.40747 33.108 1.10324 36.2301 1.03925C36.6834 1.06134 37.1206 1.21364 37.4895 1.47791C37.8585 1.74217 38.1434 2.1072 38.3101 2.52925C38.7975 3.81046 39.0809 5.1602 39.1501 6.52925M27.0501 46.4992C26.1601 40.7592 26.5201 38.8992 26.2801 36.6192C26.0001 34.0392 24.9101 31.0392 24.6101 26.2592M39.4201 25.8792C39.4201 30.8792 38.8701 40.8792 38.3201 46.3092M9.2501 14.1492C9.01867 12.6593 9.00183 11.1439 9.2001 9.64925C9.26773 9.20675 9.48185 8.79973 9.80819 8.49333C10.1345 8.18693 10.5542 7.99887 11.0001 7.95925C16.1701 7.83925 34.0001 7.70925 37.2901 7.09925C40.5801 6.48925 46.9101 2.62925 48.2001 1.88925C48.6642 1.6558 49.181 1.5469 49.6999 1.57319C50.2188 1.59948 50.7219 1.76008 51.1601 2.03925C52.2119 3.18041 52.9854 4.54944 53.4201 6.03925C53.5443 6.41341 53.5321 6.81944 53.3857 7.18547C53.2392 7.5515 52.9681 7.85393 52.6201 8.03925C51.8901 8.58925 42.3001 13.6792 38.9001 14.2592C34.4801 15.0292 15.7501 15.2592 10.8101 15.2592C10.4615 15.285 10.1148 15.1882 9.82997 14.9855C9.54514 14.7828 9.34004 14.4871 9.2501 14.1492Z" stroke="#494A4A" stroke-width="2" stroke-linecap="round" stroke-linejoin="round"/>
<path id="1px" d="M56.9 16.6392C60.06 13.5492 62.78 14.3592 63.18 15.5192C63.58 16.6792 61 18.9392 58.09 18.2792M56.59 16.4292C56.86 13.3192 61.27 10.5092 60.59 14.4892M5.09999 8.66923C3.36999 6.03923 4.49999 4.03923 5.49999 3.88923C8.23999 3.39923 6.87999 6.93923 5.09999 8.66923ZM5.09999 8.66923C0.749993 8.13923 1.74999 4.14923 4.20999 6.40923M9.90011 23.3393C9.40011 23.2393 8.90011 23.2393 8.40011 23.2393M56.2654 27.0393C55.7135 26.0298 55.2896 25.0272 55.1001 24.0393M59.8881 32.5393C59.3392 31.7093 58.747 30.8745 58.1705 30.0393M62.1905 39.258C62.4943 37.6799 61.9286 36.0324 61 34.3522M59.3244 43.0393C60.2731 42.3918 60.9595 41.724 61.43 41.0393M57.6118 44.0393C56.8019 44.4491 55.869 44.8494 54.8001 45.2393C53.9714 45.5407 53.1543 45.8303 52.3487 46.1085M1.2835 37.5393C1.57294 39.0631 2.09386 40.5863 2.88266 42.0393M16 50.9378C17.7255 51.3191 19.6237 51.5782 21.7063 51.6927M42.7452 49.0393C44.4836 48.5847 46.2873 48.068 48.1584 47.4855M34.5 50.8274C36.0976 50.5591 37.7636 50.2294 39.5 49.834M24 51.759C26.1518 51.7675 28.4816 51.632 31 51.3319M8.5 47.9571C9.5413 48.6196 10.7051 49.2152 12 49.7277M4.17995 44.0393C4.85488 44.9214 5.64773 45.761 6.56819 46.5393M4.90011 24.7393C3.86238 25.6156 2.98152 26.8336 2.32116 28.2716M1.2835 31.5565C1.04102 32.8248 0.94853 34.1698 1.03314 35.5393M55.1001 22.0393C55.1001 22.0393 55.4001 21.1393 55.6001 20.6393M56 16.7392C56.87 16.1492 58.53 18.3692 57.47 19.0692C56.41 19.7692 54.78 17.5592 56 16.7392Z" stroke="#494A4A" stroke-linecap="round" stroke-linejoin="round"/>
</g>
</g>
<defs>
<clipPath id="clip0_426_103">
<rect width="64" height="64" fill="white" transform="translate(0 0.0393066)"/>
</clipPath>
</defs>
</svg>
