<svg width="64" height="64" viewBox="0 0 64 64" fill="none" xmlns="http://www.w3.org/2000/svg">
<g id="Pictogram-profile  ">
<g id="stroke-default">
<path id="2px" d="M53.3007 16.2001C52.8007 12.3001 49.3007 12.6001 47.0007 12.2001C45.2007 11.9001 44.4007 11.0001 44.0007 9.2001C43.7007 7.6001 44.0007 3.7001 39.7007 3.1001M15.4005 60.8001C12.1005 60.7001 10.4005 58.9001 10.2005 55.2001C9.90047 48.2001 9.80047 15.5001 10.4005 9.40012C10.8005 5.30012 11.7005 3.90012 14.9005 3.50012C21.7005 2.60012 34.9005 2.70012 38.7005 3.00012C43.3005 3.30012 45.6005 4.80012 48.1005 7.30012C51.1005 10.4001 53.2005 13.2001 53.7005 19.0001C54.3005 26.1001 53.9005 49.7001 53.7005 55.6001C53.7005 58.9001 51.5005 60.4001 49.1005 60.5001C43.7005 60.9001 22.1005 61.1001 15.4005 60.8001Z" stroke="#494A4A" stroke-width="2" stroke-linecap="round" stroke-linejoin="round"/>
<path id="1px" d="M51.0001 53.5C51.0001 53.2239 50.7762 53 50.5001 53C50.224 53 50.0001 53.2239 50.0001 53.5H51.0001ZM44.6001 57C44.324 57 44.1001 57.2239 44.1001 57.5C44.1001 57.7761 44.324 58 44.6001 58V57ZM39.4644 16.0013C39.1889 16.021 38.9816 16.2602 39.0013 16.5356C39.0209 16.8111 39.2602 17.0184 39.5356 16.9987L39.4644 16.0013ZM43.2 17C43.4761 17 43.7 16.7762 43.7 16.5C43.7 16.2239 43.4761 16 43.2 16V17ZM39.4644 21.0013C39.1889 21.021 38.9816 21.2602 39.0013 21.5356C39.0209 21.8111 39.2602 22.0184 39.5356 21.9987L39.4644 21.0013ZM45.5 22C45.7761 22 46 21.7762 46 21.5C46 21.2239 45.7761 21 45.5 21V22ZM18.4667 36.1012C18.1912 36.1196 17.9827 36.3578 18.0011 36.6334C18.0195 36.9089 18.2577 37.1174 18.5333 37.099L18.4667 36.1012ZM34.5 37.1001C34.7761 37.1001 35 36.8763 35 36.6001C35 36.324 34.7761 36.1001 34.5 36.1001V37.1001ZM18.4667 41.1012C18.1912 41.1196 17.9827 41.3578 18.0011 41.6334C18.0195 41.9089 18.2577 42.1174 18.5333 42.099L18.4667 41.1012ZM34.5 42.1001C34.7761 42.1001 35 41.8763 35 41.6001C35 41.324 34.7761 41.1001 34.5 41.1001V42.1001ZM18.4667 46.0011C18.1912 46.0195 17.9827 46.2577 18.0011 46.5333C18.0195 46.8088 18.2577 47.0173 18.5333 46.9989L18.4667 46.0011ZM29.6 47C29.8761 47 30.1 46.7762 30.1 46.5C30.1 46.2239 29.8761 46 29.6 46V47ZM34.4 24.7999L33.9013 24.7629C33.891 24.9016 33.939 25.0382 34.0336 25.1401C34.1282 25.242 34.2609 25.2999 34.4 25.2999V24.7999ZM34.2 13.2999L33.7012 13.3355C33.7016 13.3402 33.702 13.3449 33.7024 13.3496L34.2 13.2999ZM31.3 10.5999L31.236 11.0958L31.2415 11.0964L31.3 10.5999ZM22.1 10.7999L22.1237 11.2994L22.1311 11.2989L22.1 10.7999ZM18.6999 13.6999L19.1949 13.7706C19.1958 13.7645 19.1966 13.7583 19.1972 13.7522L18.6999 13.6999ZM18.6999 24.2999H19.1999C19.1999 24.2947 19.1999 24.2894 19.1997 24.2842L18.6999 24.2999ZM20.6999 27.2999L20.7249 26.8005C20.7166 26.8001 20.7083 26.7999 20.6999 26.7999V27.2999ZM31.7 27.2999L31.6643 26.8011L31.6626 26.8013L31.7 27.2999ZM34.5 24.7999L34.999 24.8311C35.0076 24.6933 34.9589 24.5581 34.8644 24.4575C34.7699 24.3569 34.638 24.2999 34.5 24.2999V24.7999ZM27.8999 21.2998C27.8999 21.0237 27.676 20.7998 27.3999 20.7998C27.1238 20.7998 26.8999 21.0237 26.8999 21.2998H27.8999ZM31.5999 24.6998L31.92 24.3157L31.9119 24.309L31.9036 24.3026L31.5999 24.6998ZM31.9999 26.8998C31.9999 27.1759 32.2238 27.3998 32.4999 27.3998C32.776 27.3998 32.9999 27.1759 32.9999 26.8998H31.9999ZM19.8999 26.8998C19.8999 27.1759 20.1238 27.3998 20.3999 27.3998C20.676 27.3998 20.8999 27.1759 20.8999 26.8998H19.8999ZM21.2999 24.6998L21.6201 25.084L21.6292 25.0761L21.2999 24.6998ZM25.9999 21.2998C25.9999 21.0237 25.776 20.7998 25.4999 20.7998C25.2238 20.7998 24.9999 21.0237 24.9999 21.2998H25.9999ZM50.0001 53.5C50.0001 54.2487 50.0111 54.8106 49.9416 55.2743C49.8753 55.7162 49.7442 56.0001 49.5042 56.2149C49.2486 56.4436 48.8085 56.6489 48.0083 56.7905C47.2125 56.9312 46.1157 57 44.6001 57V58C46.1345 58 47.3002 57.9313 48.1825 57.7752C49.0604 57.6199 49.7141 57.3689 50.171 56.9601C50.6435 56.5374 50.8436 56.0025 50.9305 55.4225C51.0141 54.8644 51.0001 54.2013 51.0001 53.5H50.0001ZM39.5356 16.9987C40.9152 16.9002 42.4477 17 43.2 17V16C42.5523 16 40.8848 15.8998 39.4644 16.0013L39.5356 16.9987ZM39.5356 21.9987C40.9129 21.9004 44.7618 22 45.5 22V21C44.8382 21 40.8871 20.8997 39.4644 21.0013L39.5356 21.9987ZM18.5333 37.099C20.0112 37.0005 33.6732 37.1001 34.5 37.1001V36.1001C33.7268 36.1001 19.9888 35.9997 18.4667 36.1012L18.5333 37.099ZM18.5333 42.099C20.0112 42.0005 33.6732 42.1001 34.5 42.1001V41.1001C33.7268 41.1001 19.9888 40.9997 18.4667 41.1012L18.5333 42.099ZM18.5333 46.9989C20.0114 46.9004 28.7709 47 29.6 47V46C28.8292 46 19.9886 45.8997 18.4667 46.0011L18.5333 46.9989ZM34.8986 24.8368C35.1007 22.1083 35.1004 17.2793 34.6975 13.2501L33.7024 13.3496C34.0995 17.3204 34.0992 22.0914 33.9013 24.7629L34.8986 24.8368ZM34.6987 13.2642C34.5787 11.5842 33.2538 10.3263 31.3584 10.1033L31.2415 11.0964C32.7461 11.2734 33.6212 12.2156 33.7012 13.3355L34.6987 13.2642ZM31.3639 10.104C28.2013 9.69589 25.2217 10.1038 22.0688 10.3008L22.1311 11.2989C25.3782 11.0959 28.1986 10.7038 31.236 11.0958L31.3639 10.104ZM22.0762 10.3004C20.9669 10.3533 20.0432 10.62 19.3649 11.1928C18.677 11.7737 18.312 12.609 18.2027 13.6475L19.1972 13.7522C19.2879 12.8907 19.5729 12.326 20.01 11.9569C20.4567 11.5797 21.133 11.3465 22.1237 11.2993L22.0762 10.3004ZM18.205 13.6292C18.0486 14.7239 18.0251 16.6127 18.05 18.5937C18.0751 20.5871 18.1503 22.7185 18.2002 24.3155L19.1997 24.2842C19.1496 22.6812 19.0748 20.5626 19.0499 18.5811C19.0248 16.587 19.0513 14.7759 19.1949 13.7706L18.205 13.6292ZM18.1999 24.2999C18.1999 26.7074 19.6599 27.7999 20.6999 27.7999V26.7999C20.34 26.7999 19.1999 26.2923 19.1999 24.2999H18.1999ZM20.675 27.7992C24.6806 27.9995 27.7056 28.1008 31.7373 27.7985L31.6626 26.8013C27.6943 27.0989 24.7193 27.0002 20.7249 26.8005L20.675 27.7992ZM31.7356 27.7986C32.5134 27.743 33.2924 27.4917 33.901 27.0019C34.5204 26.5033 34.94 25.7744 34.999 24.8311L34.0009 24.7687C33.9599 25.4253 33.6795 25.8964 33.2739 26.2229C32.8575 26.558 32.2865 26.7567 31.6643 26.8011L31.7356 27.7986ZM34.5 24.2999H34.4V25.2999H34.5V24.2999ZM26.8999 21.2998C26.8999 22.1172 27.0704 22.7385 27.4131 23.2085C27.7554 23.6779 28.2238 23.9327 28.6876 24.1058C28.9187 24.192 29.1591 24.2616 29.3906 24.3257C29.6283 24.3914 29.8519 24.4501 30.0798 24.52C30.5304 24.6583 30.94 24.8246 31.2962 25.097L31.9036 24.3026C31.4098 23.925 30.8694 23.7163 30.3732 23.564C30.1276 23.4886 29.8786 23.4231 29.6572 23.3618C29.4298 23.2989 29.2249 23.2389 29.0372 23.1689C28.6635 23.0294 28.4006 22.8655 28.2211 22.6193C28.0419 22.3736 27.8999 21.9824 27.8999 21.2998H26.8999ZM31.2798 25.0839C31.7412 25.4684 31.9999 26.0129 31.9999 26.8998H32.9999C32.9999 25.7867 32.6586 24.9312 31.92 24.3157L31.2798 25.0839ZM20.8999 26.8998C20.8999 26.1033 21.1645 25.4635 21.62 25.0839L20.9798 24.3157C20.2353 24.9361 19.8999 25.8963 19.8999 26.8998H20.8999ZM21.6292 25.0761C21.9581 24.7883 22.35 24.608 22.7907 24.4596C23.0123 24.385 23.2359 24.3216 23.4707 24.2538C23.7005 24.1874 23.9413 24.1166 24.1724 24.0316C24.6344 23.8617 25.1111 23.6172 25.4632 23.1647C25.8197 22.7067 25.9999 22.0997 25.9999 21.2998H24.9999C24.9999 21.9499 24.8551 22.3179 24.6741 22.5505C24.4887 22.7887 24.2154 22.9504 23.8274 23.093C23.6336 23.1643 23.4243 23.2263 23.1931 23.2931C22.967 23.3584 22.7187 23.4287 22.4716 23.5119C21.9748 23.6791 21.4417 23.9113 20.9707 24.3235L21.6292 25.0761ZM26.5 22C28.3041 22 30 20.0278 30 16.9H29C29 19.7722 27.4959 21 26.5 21V22ZM30 16.9C30 15.6671 29.6778 14.6791 29.0405 13.9963C28.3992 13.3091 27.503 13 26.5 13V14C27.297 14 27.9009 14.2409 28.3095 14.6787C28.7222 15.1209 29 15.8329 29 16.9H30ZM26.5 13C25.497 13 24.6009 13.3091 23.9595 13.9963C23.3222 14.6791 23 15.6671 23 16.9H24C24 15.8329 24.2778 15.1209 24.6905 14.6787C25.0992 14.2409 25.703 14 26.5 14V13ZM23 16.9C23 20.0278 24.6959 22 26.5 22V21C25.5041 21 24 19.7722 24 16.9H23Z" fill="#494A4A"/>
</g>
</g>
</svg>
