<svg width="64" height="64" viewBox="0 0 64 64" fill="none" xmlns="http://www.w3.org/2000/svg">
<g id="Pictogram-files-sent" clip-path="url(#clip0_426_2320)">
<g id="stroke-default">
<path id="2px" d="M55 37.1101C55 30.5401 54.85 17.9801 54.62 15.4801C54.23 11.4201 53.36 9.84006 50.13 9.54006C45.53 9.12006 41.13 9.04006 37.39 9.04006C32.09 9.04006 29.04 11.7401 25.75 15.0401C21.64 19.2501 18 21.9001 18 29.2201C18 32.8001 18.12 49.6901 18.23 55.6101C18.1907 56.2459 18.2808 56.883 18.4948 57.483C18.7088 58.083 19.0423 58.6333 19.4751 59.1007C19.908 59.5681 20.4311 59.9429 21.0129 60.2023C21.5947 60.4617 22.2231 60.6005 22.86 60.6101C25.46 60.8301 30.56 61.0201 31.86 61.0301M18.06 28.1301C18.23 25.6501 19.26 23.9001 21.43 23.4201C22.68 23.1401 25.84 22.7601 27.56 22.3401C30.16 21.6901 31.22 20.5801 31.81 17.9701C32.16 16.4201 32.22 13.9701 32.4 12.6701C32.66 10.7901 34.4 9.03006 37.32 9.03006M50.06 9.40006C49.94 7.06006 48.64 5.62006 47.06 5.40006C39.56 4.24006 18.31 6.00006 14.17 6.87006C11.17 7.52006 10.07 9.71006 9.99 12.6201C9.84 18.0501 11.57 45.1401 12.53 54.2201C12.85 57.2201 13.73 59.0101 19.06 59.0101M42.75 5.00006C42.26 2.20006 40.53 1.25006 38.89 1.10006C31.54 0.450059 10.89 2.80006 6.89 3.82006C4 4.58006 3 6.76006 3 9.61006C3.06 14.9101 6 42.4401 6.9 50.3901C7.25 53.3901 8.31 55.1501 12.46 54.9901M32 42.0001C38.7 41.7201 44.63 42.9401 49.64 43.0001C49.93 43.0001 50.11 42.7901 50.1 42.4101C50.1 41.6201 49.74 39.0701 50.91 38.9901C52.46 38.8801 62.91 46.1001 63 48.0501C63.09 50.0001 51.82 57.4601 50.69 56.8801C49.74 56.3901 50.17 54.3501 50.04 53.5601C50.003 53.4127 49.9267 53.2782 49.8193 53.1708C49.7119 53.0634 49.5773 52.9871 49.43 52.9501C44.67 52.9001 32.08 56.4201 31.06 54.2001C30.47 52.9401 35 49.0001 35 47.9201C35 47.0001 31.06 42.0001 32 42.0001Z" stroke="#494A4A" stroke-width="2" stroke-linecap="round" stroke-linejoin="round"/>
<path id="1px" d="M14.4902 11.5001C13.1802 12.1301 13.5502 14.6901 13.5502 16.6001M46.4302 28.5801C45.0102 28.4601 32.2202 28.5801 31.4302 28.5801M46.4302 33.5701C44.9102 33.4401 28.4902 33.5701 27.6902 33.5701M21.5302 53.4801C21.5302 56.4801 21.3102 57.4801 27.4702 57.4801M54.1902 43.7001C55.3902 44.5701 58.0002 46.4101 58.3502 46.7001M37.6002 49.4001C35.1402 52.7701 36.3502 52.0001 39.4102 51.0001" stroke="#494A4A" stroke-linecap="round" stroke-linejoin="round"/>
</g>
</g>
<defs>
<clipPath id="clip0_426_2320">
<rect width="64" height="64" fill="white"/>
</clipPath>
</defs>
</svg>
