<svg width="64" height="64" viewBox="0 0 64 64" fill="none" xmlns="http://www.w3.org/2000/svg">
<g id="Pictogram-juice-can">
<g id="stroke-default">
<path id="2px" d="M8.10004 47.0002L5.00004 49.5002L3.60004 57.5002C3.60004 57.5002 0.300037 58.9002 3.40004 60.8002C6.10004 62.4002 11.9 62.4002 15.3 61.8002C19 61.1002 21.2 59.1002 18.2 57.6002L16.3 49.4002L13.3 47.0002M62.3 56.1003L61.3 52.3003L54.5 47.8003C54.5 47.8003 54.5 44.2003 51.6 46.3003C49 48.2003 46.8 53.5003 46 56.9003C45.2 60.6003 46.2 63.4003 48.7 61.3003L56.9 62.8003L60.3 60.9003M25.7 10.8C27.7 10.6 29.9 10.5 32.1 10.5C41.5 10.5 48.9 13.2 48.9 15.7C48.9 19.1 42.1 21.2 32.1 21.2C22.7 21.2 15 18.8 15 15.9C15 14.5 16.2 13.4 18.1 12.6M16 17.6C16 17.6 17.1 23.8 18.4 30.9C18.5 31.7 18.3 32.3 18.4 33.1C18.5 33.8 19.1 34.6 19.2 35.3C19.4 36.1 19.2 37 19.3 37.9C19.5 38.8 20 39.6 20.2 40.5C20.4 41.6 20.3 42.6 20.5 43.6C20.7 44.5 21.2 45.3 21.4 46.1C22 48.6 22.6 50.4 23.1 50.9C26.5 54.7 38.5 54.3 41.3 50.9C41.7 50.4 42.2 48.6 42.8 46.1C43 45.4 43.4 44.6 43.6 43.9C43.8 43 43.6 42.1 43.9 41.1C44.1 40.3 44.6 39.6 44.7 38.8C44.9 37.9 44.7 36.9 44.9 35.9C45.1 35.1 45.6 34.2 45.8 33.4C46 32.6 45.8 31.7 45.8 30.8C47.1 23.8 48.1 17.6 48.1 17.6" stroke="#494A4A" stroke-width="2" stroke-linecap="round" stroke-linejoin="round"/>
<path id="1px" d="M8.20004 46.9002C8.70004 46.3002 9.70004 46.2002 10.7 46.2002C11.9 46.2002 12.9 46.5002 13.2 46.9002M13.1 47.2002C13.1 47.2002 12.9 47.7002 12.6 47.8002C12.2 48.1002 11.5 48.2002 10.7 48.3002C10 48.3002 9.30004 48.3002 8.90004 48.0002C8.50004 47.8002 8.30004 47.6002 8.30004 47.4002M14.8 50.6002C14.8 50.6002 12.9 52.1002 7.90004 51.4002M3.50004 57.5002C3.50004 57.5002 4.40004 59.5002 9.80004 59.9002M18.2 57.5002C18.2 57.5002 17.3 59.1002 14.2 59.4002M62.3 56.2003C62.6 56.9003 62.3 57.9003 62 58.8003C61.5 59.9003 60.9 60.7003 60.4 60.8003M60.1 60.6003C60.1 60.6003 59.7 60.3003 59.7 59.9003C59.7 59.4003 59.7 58.7003 60 58.0003C60.3 57.3003 60.6 56.8003 61 56.4003C61.3 56.1003 61.6 56.0003 61.8 56.1003M56.4 60.8003C56.4 60.8003 55.8 58.5003 58.4 54.1003M54.5 47.8003C54.5 47.8003 52.3 47.8003 49.9 52.6003M48.7 61.2003C48.7 61.2003 47.6 59.8003 48.5 56.8003M42.9 36.8C42.9 36.8 31.3 41.5 21.2 36M44 40.5C44 40.5 39.7 44.9 27.3 43.3M21.6 44.9C21.6 44.9 23 48 33 48M43.1 44.9C43.1 44.9 42 47.1 37.8 47.5M24.4998 17.6004C24.1998 16.2004 23.0998 8.90037 22.5998 6.90037L23.1998 5.10037L21.5998 4.60037V2.80037L19.4998 3.10037C19.5998 3.10037 6.79982 1.20037 4.09982 0.700372C2.49982 0.400372 1.99982 3.80037 3.69982 4.00037C6.89982 4.40037 18.5998 6.20037 18.5998 6.20037V7.60037L19.7998 7.80037C20.0998 9.20037 21.2998 16.0004 21.4998 16.9004M45.4002 16.1004C45.4002 16.1004 43.6002 14.5004 36.2002 13.9004" stroke="#494A4A" stroke-linecap="round" stroke-linejoin="round"/>
</g>
</g>
</svg>
