<svg width="64" height="64" viewBox="0 0 64 64" fill="none" xmlns="http://www.w3.org/2000/svg">
<g id="Pictogram-phone-charged">
<g id="stroke-default">
<path id="2px-stroke-default" d="M43.3001 61.5001C38.3001 62.2001 25.6001 62.2001 21.3001 61.5001C17.7001 60.9001 15.0001 58.1001 14.7001 54.0001C13.6001 42.0001 13.7001 20.3001 14.7001 12.0001C15.4001 6.0001 18.1001 3.1001 22.4001 2.5001C28.3001 1.8001 37 1.8001 42.4 2.5001C46.6 3.1001 49.4001 6.0001 50.0001 12.0001C51.2001 24.3001 51.0001 43.2001 50.0001 54.0001C49.6001 58.0001 47.7001 60.9001 43.4001 61.5001H43.3001Z" stroke="#494A4A" stroke-width="2" stroke-miterlimit="10"/>
<path id="1px-stroke-default" d="M43.1001 58.5001L43.041 58.0036L43.0393 58.0038L43.1001 58.5001ZM21.6001 58.5001L21.5294 58.9951L21.6001 58.5001ZM15.1001 51.8001L14.6026 51.8508L14.6031 51.8553L15.1001 51.8001ZM15.1001 14.0001L14.6042 13.9358L14.6036 13.9405L15.1001 14.0001ZM22.6001 5.50011L22.5477 5.00281L22.541 5.00362L22.6001 5.50011ZM42.2001 5.50011L42.2606 5.00377L42.2563 5.00328L42.2001 5.50011ZM49.6001 14.0001L50.0972 13.9464L50.097 13.9449L49.6001 14.0001ZM49.6001 51.8001L50.097 51.8553L50.0974 51.8514L49.6001 51.8001ZM28.9002 26.3002L29.3414 26.5355C29.424 26.3805 29.4193 26.1936 29.3289 26.043C29.2386 25.8924 29.0758 25.8002 28.9002 25.8002V26.3002ZM37.1002 30.5002L37.5791 30.3565C37.5755 30.3445 37.5714 30.3325 37.5669 30.3207L37.1002 30.5002ZM35.5002 25.1002L35.1206 25.4256C35.1289 25.4353 35.1376 25.4447 35.1466 25.4538L35.5002 25.1002ZM28.8002 26.3002L28.359 26.0649C28.2764 26.2199 28.2811 26.4069 28.3715 26.5575C28.4618 26.7081 28.6246 26.8002 28.8002 26.8002V26.3002ZM54.5673 30.701C54.2917 30.7191 54.0831 30.9572 54.1012 31.2327C54.1193 31.5083 54.3574 31.717 54.6329 31.6988L54.5673 30.701ZM62.2329 31.1988C62.5085 31.1807 62.7172 30.9426 62.699 30.6671C62.6809 30.3915 62.4428 30.1829 62.1673 30.201L62.2329 31.1988ZM58.6303 26.8438C58.8754 26.7167 58.9711 26.4149 58.844 26.1698C58.7169 25.9246 58.4151 25.8289 58.17 25.956L58.6303 26.8438ZM55.47 27.356C55.2248 27.4831 55.1291 27.7849 55.2562 28.0301C55.3834 28.2752 55.6851 28.3709 55.9303 28.2438L55.47 27.356ZM59.4228 35.6674C59.681 35.7653 59.9697 35.6354 60.0676 35.3772C60.1656 35.119 60.0356 34.8304 59.7774 34.7324L59.4228 35.6674ZM56.8774 33.6324C56.6193 33.5345 56.3306 33.6644 56.2326 33.9226C56.1347 34.1808 56.2646 34.4695 56.5228 34.5674L56.8774 33.6324ZM43.0393 58.0038C40.6213 58.2999 36.3219 58.4501 32.0876 58.4501C27.8495 58.4501 23.7317 58.2995 21.6708 58.0051L21.5294 58.9951C23.6684 59.3007 27.8507 59.4501 32.0876 59.4501C36.3282 59.4501 40.6788 59.3003 43.1608 58.9964L43.0393 58.0038ZM21.6708 58.0051C18.3925 57.5368 15.9714 55.1143 15.597 51.7449L14.6031 51.8553C15.0288 55.6859 17.8076 58.4634 21.5294 58.9951L21.6708 58.0051ZM15.5975 51.7494C14.5009 40.9824 14.7013 21.5195 15.5965 14.0597L14.6036 13.9405C13.6988 21.4807 13.4993 41.0178 14.6026 51.8508L15.5975 51.7494ZM15.5959 14.0644C15.9376 11.4284 16.7355 9.53706 17.9074 8.24911C19.0729 6.96816 20.6527 6.23547 22.6592 5.9966L22.541 5.00362C20.3474 5.26475 18.5272 6.08206 17.1678 7.57611C15.8147 9.06316 14.9625 11.1718 14.6042 13.9358L15.5959 14.0644ZM22.6524 5.99736C28.319 5.40088 36.8825 5.40131 42.1438 5.99694L42.2563 5.00328C36.9177 4.39891 28.2812 4.39934 22.5477 5.00286L22.6524 5.99736ZM42.1395 5.99643C44.0954 6.23495 45.6762 6.96709 46.8428 8.24911C48.014 9.5363 48.8109 11.4256 49.1031 14.0553L50.097 13.9449C49.7892 11.1747 48.9362 9.06392 47.5824 7.57611C46.2239 6.08313 44.4047 5.26527 42.2606 5.00379L42.1395 5.99643ZM49.103 14.0539C50.2988 25.115 50.0995 42.0795 49.1027 51.7488L50.0974 51.8514C51.1006 42.1207 51.3014 25.0852 50.0972 13.9464L49.103 14.0539ZM49.1031 51.7449C48.9109 53.4747 48.3638 54.9148 47.404 55.9775C46.4495 57.0342 45.0442 57.7651 43.041 58.0036L43.1592 58.9966C45.356 58.7351 47.0006 57.916 48.1461 56.6478C49.2863 55.3854 49.8892 53.7255 50.097 51.8553L49.1031 51.7449ZM32.9001 9.00011C32.9001 9.55239 32.4524 10.0001 31.9001 10.0001V11.0001C33.0046 11.0001 33.9001 10.1047 33.9001 9.00011H32.9001ZM31.9001 10.0001C31.3478 10.0001 30.9001 9.55239 30.9001 9.00011H29.9001C29.9001 10.1047 30.7955 11.0001 31.9001 11.0001V10.0001ZM30.9001 9.00011C30.9001 8.44782 31.3478 8.00011 31.9001 8.00011V7.00011C30.7955 7.00011 29.9001 7.89554 29.9001 9.00011H30.9001ZM31.9001 8.00011C32.4524 8.00011 32.9001 8.44782 32.9001 9.00011H33.9001C33.9001 7.89554 33.0046 7.00011 31.9001 7.00011V8.00011ZM28.459 26.0649C28.0373 26.8556 27.3264 28.665 26.7856 30.388C26.5141 31.2532 26.2796 32.1147 26.1448 32.8312C26.0775 33.1885 26.0325 33.5228 26.0229 33.8099C26.014 34.0769 26.0315 34.3809 26.153 34.6238L27.0474 34.1766C27.0498 34.1813 27.039 34.1604 27.0306 34.096C27.0226 34.0345 27.0188 33.9511 27.0224 33.8433C27.0296 33.6269 27.0651 33.3478 27.1275 33.0161C27.252 32.3545 27.4738 31.5348 27.7398 30.6874C28.274 28.9854 28.9631 27.2448 29.3414 26.5355L28.459 26.0649ZM26.153 34.6238C26.3039 34.9257 26.6099 35.0067 26.7773 35.033C26.9689 35.0631 27.1865 35.0546 27.3941 35.0336C27.8142 34.9913 28.3368 34.8814 28.8291 34.7768C29.3377 34.6687 29.8196 34.565 30.206 34.5167C30.3997 34.4924 30.5448 34.4856 30.6434 34.4928C30.7671 34.5019 30.7187 34.5258 30.6466 34.4538L31.3537 33.7467C31.1567 33.5496 30.8864 33.5079 30.7164 33.4955C30.5212 33.4812 30.3007 33.497 30.0819 33.5244C29.6433 33.5792 29.1127 33.6942 28.6213 33.7986C28.1136 33.9065 27.6487 34.0029 27.2938 34.0387C27.1139 34.0568 26.9971 34.0553 26.9324 34.0451C26.8436 34.0312 26.9715 34.0247 27.0474 34.1766L26.153 34.6238ZM30.6466 34.4538C30.5584 34.3655 30.5409 34.2741 30.5398 34.2691C30.536 34.252 30.5381 34.2514 30.5384 34.2778C30.539 34.3295 30.5328 34.4186 30.5148 34.5525C30.4793 34.8164 30.4079 35.1849 30.3114 35.6342C30.2154 36.0809 30.0975 36.5939 29.9714 37.1438C29.8457 37.6921 29.7122 38.2755 29.5865 38.8571C29.3364 40.0135 29.1109 41.1895 29.0393 42.0902C29.004 42.534 29.0018 42.9551 29.0732 43.2854C29.1089 43.4506 29.1714 43.6344 29.2919 43.7889C29.4249 43.9594 29.6205 44.0815 29.8646 44.0989L29.9358 43.1015C30.0049 43.1064 30.0591 43.1465 30.0805 43.174C30.0895 43.1855 30.0704 43.1653 30.0506 43.074C30.0111 42.8915 30.0027 42.5899 30.0361 42.1696C30.102 41.3422 30.314 40.2244 30.5639 39.0684C30.6882 38.4937 30.8203 37.9161 30.9461 37.3672C31.0716 36.8198 31.1913 36.2992 31.289 35.8443C31.3862 35.3921 31.4648 34.9911 31.5059 34.6858C31.5262 34.5352 31.5399 34.3898 31.5383 34.2656C31.5376 34.2042 31.5331 34.1303 31.5167 34.0556C31.5031 33.9931 31.467 33.8599 31.3537 33.7467L30.6466 34.4538ZM29.8646 44.0989C30.1257 44.1176 30.3503 43.9951 30.4996 43.8917C30.6639 43.778 30.8294 43.6219 30.9916 43.4458C31.3178 43.0915 31.6866 42.5943 32.0739 42.0136C32.8516 40.8479 33.7451 39.2841 34.5803 37.6954C35.4162 36.1053 36.2002 34.4777 36.758 33.1805C37.0363 32.5331 37.262 31.9596 37.4094 31.5102C37.4829 31.2865 37.5405 31.0827 37.5746 30.9103C37.5917 30.8241 37.6047 30.7365 37.6092 30.6526C37.6133 30.5753 37.6123 30.4673 37.5791 30.3565L36.6213 30.6439C36.6068 30.5956 36.6121 30.572 36.6106 30.5995C36.6095 30.6205 36.6051 30.6581 36.5937 30.7162C36.5707 30.8323 36.5267 30.993 36.4593 31.1984C36.3251 31.6073 36.1125 32.1501 35.8393 32.7855C35.2939 34.0539 34.5217 35.6576 33.6951 37.2301C32.8678 38.8039 31.9925 40.3338 31.2421 41.4587C30.8654 42.0233 30.5302 42.4706 30.256 42.7683C30.118 42.9182 30.0093 43.0149 29.9305 43.0694C29.8369 43.1343 29.8497 43.0953 29.9358 43.1015L29.8646 44.0989ZM37.5669 30.3207C37.4089 29.9101 37.1648 29.6022 36.8013 29.435C36.4623 29.2791 36.0921 29.2816 35.7619 29.3153C35.438 29.3484 35.0427 29.4272 34.673 29.4861C34.2838 29.5482 33.8628 29.6002 33.4002 29.6002V30.6002C33.9376 30.6002 34.4166 30.5397 34.8305 30.4737C35.2639 30.4045 35.5749 30.3396 35.8635 30.3101C36.1458 30.2813 36.2943 30.3025 36.3835 30.3435C36.4481 30.3733 36.5415 30.4404 36.6335 30.6797L37.5669 30.3207ZM33.4002 29.6002C33.4754 29.6002 33.6384 29.6373 33.7329 29.803C33.7987 29.9184 33.7761 30.0095 33.78 29.9831C33.7855 29.9457 33.8217 29.8329 33.9244 29.6229C34.1191 29.2247 34.4484 28.6793 34.8047 28.0811C35.152 27.4982 35.5221 26.8697 35.766 26.3456C35.8867 26.0862 35.9905 25.8234 36.0391 25.5885C36.0786 25.397 36.1262 25.0191 35.8538 24.7467L35.1466 25.4538C35.0242 25.3313 35.0936 25.2221 35.0598 25.3862C35.0349 25.5067 34.9699 25.6861 34.8594 25.9236C34.6408 26.3933 34.2984 26.9772 33.9456 27.5693C33.602 28.1461 33.2438 28.7382 33.026 29.1837C32.9224 29.3956 32.8211 29.6313 32.7907 29.8368C32.7767 29.9319 32.7614 30.1181 32.8642 30.2983C32.9956 30.5288 33.225 30.6002 33.4002 30.6002V29.6002ZM35.8798 24.7748C35.699 24.5639 35.4196 24.4629 35.1989 24.4054C34.953 24.3414 34.6591 24.3024 34.3442 24.2825C33.7119 24.2425 32.9349 24.2762 32.1591 24.3796C31.3844 24.4829 30.5874 24.6589 29.921 24.9147C29.2833 25.1594 28.6496 25.5202 28.359 26.0649L29.2414 26.5355C29.3508 26.3303 29.6796 26.0785 30.2794 25.8483C30.8505 25.629 31.566 25.4675 32.2913 25.3708C33.0155 25.2743 33.726 25.2454 34.2812 25.2805C34.56 25.2981 34.7849 25.3309 34.9468 25.3731C35.134 25.4219 35.1514 25.4615 35.1206 25.4256L35.8798 24.7748ZM28.8002 26.8002H28.9002V25.8002H28.8002V26.8002ZM54.6329 31.6988L62.2329 31.1988L62.1673 30.201L54.5673 30.701L54.6329 31.6988ZM58.17 25.956L55.47 27.356L55.9303 28.2438L58.6303 26.8438L58.17 25.956ZM59.7774 34.7324L56.8774 33.6324L56.5228 34.5674L59.4228 35.6674L59.7774 34.7324Z" fill="#494A4A"/>
</g>
</g>
</svg>
