<svg width="64" height="64" viewBox="0 0 64 64" fill="none" xmlns="http://www.w3.org/2000/svg">
<g id="Pictogram-locked-file" clip-path="url(#clip0_426_1532)">
<g id="stroke-default">
<path id="2px" d="M10.53 22.09C10.7 19.61 11.73 17.86 13.89 17.38C15.14 17.1 18.3 16.72 20.02 16.3C22.63 15.66 23.68 14.54 24.28 11.93C24.63 10.38 24.69 7.92999 24.87 6.62999C25.13 4.74999 26.87 2.98999 29.78 2.98999M52.53 29.69C52.59 24.6 52.65 15.46 52.08 9.43999C51.7 5.36999 50.83 3.79999 47.59 3.49999C43 3.07999 33.54 2.99999 29.85 2.99999C24.55 2.99999 21.49 5.69999 18.2 8.99999C14.11 13.16 10.5 15.81 10.5 23.13C10.5 26.72 10.62 47.65 10.73 53.57C10.6907 54.2058 10.7808 54.843 10.9948 55.4429C11.2088 56.0429 11.5423 56.5933 11.9751 57.0607C12.408 57.5281 12.9311 57.9028 13.5129 58.1622C14.0947 58.4217 14.7231 58.5604 15.36 58.57C20.76 59 32.77 59 34 59M39.17 12.76C35.82 10.04 34.05 15.64 37.17 15.82C40.74 16.03 40.33 21.82 35.46 19.62M37.49 10.1V11.89M37.49 20.18V22M41.51 46C41.51 40 42.51 33.44 48.51 33C54.74 32.54 55.51 40 55.51 46M40.77 46.4C45.8359 46.111 50.9141 46.111 55.98 46.4C56.7832 46.4187 57.5534 46.7228 58.1526 47.2579C58.7518 47.793 59.1409 48.5241 59.25 49.32C59.6096 52.6202 59.6096 55.9498 59.25 59.25C59.262 59.7063 59.1828 60.1603 59.017 60.5856C58.8513 61.0109 58.6023 61.3988 58.2848 61.7266C57.9672 62.0544 57.5874 62.3156 57.1676 62.4948C56.7478 62.6739 56.2964 62.7675 55.84 62.77C53.24 63.11 45.64 63.04 41.69 63.01C39 63 38 61.73 37.92 61C37.4065 57.1289 37.3729 53.2093 37.82 49.33C37.8591 48.5621 38.183 47.8364 38.7285 47.2946C39.274 46.7528 40.0019 46.4338 40.77 46.4Z" stroke="#494A4A" stroke-width="2" stroke-linecap="round" stroke-linejoin="round"/>
<path id="1px" d="M14 51.53C14 54.48 13.78 55.53 19.94 55.53M56 55.56C56.11 58 55.69 59.3 54 59.48M24.51 28.51C25.93 28.4 41.76 28.51 42.51 28.51M20.94 34.52C22.46 34.4 39.26 34.52 40.07 34.52M20.94 40.48C22.46 40.36 36.94 40.48 37.71 40.48M58.9 37.54L63.03 36.54M60.06 33.39L57.58 34.97M61.01 40.9L59.11 40.46M50.12 55C49.84 55.26 50.2 57.83 49.93 58.24C49.66 58.65 47.45 58.65 47.12 58.37C46.79 58.09 47.2 55.27 46.83 54.93C46.4376 54.5924 46.1587 54.1422 46.0312 53.6405C45.9037 53.1389 45.9338 52.6101 46.1173 52.1262C46.3008 51.6422 46.629 51.2265 47.0571 50.9355C47.4851 50.6446 47.9924 50.4925 48.51 50.5C51 50.37 51.82 53.44 50.12 55Z" stroke="#494A4A" stroke-linecap="round" stroke-linejoin="round"/>
</g>
</g>
<defs>
<clipPath id="clip0_426_1532">
<rect width="64" height="64" fill="white"/>
</clipPath>
</defs>
</svg>
