<svg width="64" height="64" viewBox="0 0 64 64" fill="none" xmlns="http://www.w3.org/2000/svg">
<g id="Pictogram-baby-2">
<g id="stroke-default">
<path id="2px" d="M40.2702 35.3504C25.0002 34.7104 22.9002 9.61039 35.7502 6.15039M38.5205 4.59009C40.2705 3.22009 46.7405 3.28009 49.8405 4.59009M47 5.31968C55.47 4.58968 61.76 9.21968 63 16.2097M55 31C57.46 32.95 57.94 36.54 54.56 39C51.48 41.24 45.27 40.09 43.29 37.43M39.9205 39.5898C42.3805 38.3198 46.1905 44.2498 50.1405 46.0598C50.5905 46.2698 53.4105 43.5498 56.5205 45.2998C59.0105 46.7098 53.5205 47.5398 54.0505 47.9998C55.0505 48.9998 54.4705 49.9998 52.0505 49.5598C50.4805 49.2898 43.9105 51.6598 37.5205 45.0598M41.1 48.1299C38.8534 50.9957 35.5994 52.8981 32 53.4499M40.2402 49.1104C39.7802 50.7004 40.0102 53.7303 40.5502 53.9403C45.3902 55.8803 46.9402 57.8203 41.9002 58.0303C39.9002 58.1203 37.1402 58.0304 36.6802 56.3204C36.369 55.0131 35.9646 53.7299 35.4702 52.4804M23.4403 52.82C15.5803 49.56 13.6703 40.92 19.0003 37.2C22.7603 34.6 26.4303 35.91 30.0003 36M28.0002 47.3203C30.6602 48.6103 32.8302 53.3203 31.3802 56.6603C30.3802 58.9903 28.6102 59.2403 25.7202 59.0103C19.4102 58.5103 18.4802 59.7403 16.9302 60.0103C13.2002 60.6503 13.0402 56.7303 16.8802 55.8603C19.1802 55.3403 17.9902 52.8603 25.0602 53.2003M16.5602 46.4805C15.5325 47.4843 14.746 48.7084 14.2602 50.0605C13.4702 49.6005 12.6602 49.2205 10.5702 49.7805C8.48024 50.3405 6.66024 51.3005 6.24024 51.3405C5.82024 51.3805 4.51024 50.5305 2.75024 53.4505C2.30024 54.1905 1.12024 54.7805 1.05024 55.4505C0.98024 56.1205 1.05024 57.6305 3.62024 56.7505C6.87024 55.6605 9.99024 57.4805 14.5002 57.0605M60.8102 15.1104C61.8115 17.1493 62.1809 19.441 61.8708 21.6913C61.5608 23.9417 60.5856 26.0481 59.0702 27.7404C56.9802 30.1604 56.6802 31.6403 56.7802 33.5103M57.48 30C59.71 31.45 60.68 34.36 57.04 34.43" stroke="#494A4A" stroke-width="2" stroke-linecap="round" stroke-linejoin="round"/>
<path id="1px" d="M59.7904 38.21L63.1404 39.79M63.4906 35.4805L60.9506 35.5705M59.3606 42.2697L57.8306 40.4297M31.8007 38.2104C33.9962 37.7666 35.9869 36.6185 37.4707 34.9404M30.3706 35.9404C31.9506 39.0304 32.3706 46.6404 31.5706 48.4404M29.3007 38.7803C29.5335 39.6569 29.628 40.5645 29.5807 41.4703M5.64062 51.7598C6.02326 51.7897 6.3912 51.9201 6.70726 52.1379C7.02332 52.3556 7.2763 52.6529 7.44063 52.9998M41.7506 24.9997C35.8206 19.9297 34.5706 32.5197 41.0806 29.6297M43.0004 18.5304C44.7504 17.7504 46.8904 15.7604 47.2004 14.1504M48.7504 11.2998C50.8042 11.3024 52.7885 12.0443 54.3404 13.3898M54.8906 11.2998C56.6506 11.9598 58.4706 12.7398 59.2006 14.2998M58.7004 20.7495C58.2848 20.6503 57.8534 20.6363 57.4323 20.7085C57.0112 20.7807 56.6091 20.9375 56.2504 21.1695M36.8306 5.99969C35.8306 5.52969 31.9506 5.23969 30.2206 6.79969M38.3707 4.59016C37.4407 4.59016 35.5007 3.59016 35.4207 2.41016M20.4806 50.4996C19.0106 48.2896 21.4806 45.7696 24.5306 46.6696M55.4308 28.5099C54.2108 28.0199 55.3608 24.5099 56.0808 25.0299C56.8008 25.5499 56.0808 28.7699 55.4308 28.5099Z" stroke="#494A4A" stroke-linecap="round" stroke-linejoin="round"/>
</g>
</g>
</svg>
