<svg width="64" height="64" viewBox="0 0 64 64" fill="none" xmlns="http://www.w3.org/2000/svg">
<g id="Pictogram-smiley">
<g id="stroke-default">
<path id="2px" d="M59.7803 28.53L58.788 28.6536L58.788 28.6541L59.7803 28.53ZM35.4703 59.78L35.3835 58.7838L35.383 58.7838L35.4703 59.78ZM4.22029 35.47L5.19992 35.2692L5.19974 35.2683L4.22029 35.47ZM25.3103 3.77001L25.1649 2.78063L25.164 2.78077L25.3103 3.77001ZM14.3301 35.312C14.3202 34.7599 13.8645 34.3203 13.3123 34.3302C12.7601 34.3401 12.3205 34.7958 12.3305 35.348L14.3301 35.312ZM53.0526 34.2963C52.9843 33.7482 52.4846 33.3594 51.9366 33.4277C51.3885 33.496 50.9996 33.9957 51.068 34.5437L53.0526 34.2963ZM23.9167 13.8666C24.4505 13.725 24.7685 13.1774 24.6269 12.6436C24.4852 12.1098 23.9377 11.7918 23.4039 11.9334L23.9167 13.8666ZM17.859 16.7511C17.6442 17.2599 17.8826 17.8465 18.3914 18.0613C18.9002 18.2761 19.4868 18.0377 19.7016 17.5289L17.859 16.7511ZM42.3175 14.0958C41.8181 13.8599 41.222 14.0735 40.9861 14.5728C40.7502 15.0722 40.9638 15.6683 41.4631 15.9042L42.3175 14.0958ZM44.6925 20.2157C44.7784 20.7612 45.2904 21.1338 45.8359 21.0478C46.3815 20.9619 46.7541 20.4499 46.6681 19.9044L44.6925 20.2157ZM58.788 28.6541C60.6474 43.5194 51.2734 57.3995 35.3835 58.7838L35.5571 60.7762C52.7271 59.2805 62.7532 44.2407 60.7726 28.4059L58.788 28.6541ZM35.383 58.7838C20.5372 60.0844 8.14008 49.611 5.19992 35.2692L3.24066 35.6708C6.3605 50.889 19.5834 62.1756 35.5576 60.7762L35.383 58.7838ZM5.19974 35.2683C3.70422 28.0064 5.75492 20.8215 9.7207 15.2096C13.6946 9.58631 19.5236 5.63663 25.4566 4.75925L25.164 2.78077C18.587 3.75339 12.311 8.07871 8.08738 14.0554C3.85566 20.0436 1.61636 27.7836 3.24084 35.6717L5.19974 35.2683ZM25.4556 4.75939C32.3707 3.74345 40.2601 6.00042 46.6723 10.4255C53.0825 14.8493 57.8775 21.3411 58.788 28.6536L60.7726 28.4065C59.7731 20.3789 54.5481 13.4307 47.8083 8.77947C41.0704 4.12959 32.6798 1.67657 25.1649 2.78063L25.4556 4.75939ZM37.4203 23.61C37.4203 24.2084 37.2551 24.7054 37.0404 25.024C36.8215 25.3487 36.626 25.4 36.5403 25.4V27.4C37.4928 27.4 38.2373 26.8267 38.6989 26.1416C39.1646 25.4505 39.4203 24.5525 39.4203 23.61H37.4203ZM36.5403 25.4C36.4545 25.4 36.259 25.3487 36.0402 25.024C35.8255 24.7054 35.6603 24.2084 35.6603 23.61H33.6603C33.6603 24.5525 33.9159 25.4505 34.3816 26.1416C34.8433 26.8267 35.5878 27.4 36.5403 27.4V25.4ZM35.6603 23.61C35.6603 23.0116 35.8255 22.5147 36.0402 22.196C36.259 21.8713 36.4545 21.82 36.5403 21.82V19.82C35.5878 19.82 34.8433 20.3933 34.3816 21.0784C33.9159 21.7695 33.6603 22.6675 33.6603 23.61H35.6603ZM36.5403 21.82C36.626 21.82 36.8215 21.8713 37.0404 22.196C37.2551 22.5147 37.4203 23.0116 37.4203 23.61H39.4203C39.4203 22.6675 39.1646 21.7695 38.6989 21.0784C38.2373 20.3933 37.4928 19.82 36.5403 19.82V21.82ZM28.2803 23.03C28.2803 23.8346 28.0696 24.5163 27.7819 24.9658C27.4871 25.4266 27.2011 25.53 27.0403 25.53V27.53C28.1166 27.53 28.9506 26.85 29.4665 26.0439C29.9895 25.2267 30.2803 24.1584 30.2803 23.03H28.2803ZM27.0403 25.53C26.8795 25.53 26.5935 25.4266 26.2986 24.9658C26.0109 24.5163 25.8003 23.8346 25.8003 23.03H23.8003C23.8003 24.1584 24.0911 25.2267 24.6141 26.0439C25.13 26.85 25.964 27.53 27.0403 27.53V25.53ZM25.8003 23.03C25.8003 22.2254 26.0109 21.5437 26.2986 21.0942C26.5935 20.6335 26.8795 20.53 27.0403 20.53V18.53C25.964 18.53 25.13 19.2101 24.6141 20.0161C24.0911 20.8333 23.8003 21.9016 23.8003 23.03H25.8003ZM27.0403 20.53C27.2011 20.53 27.4871 20.6335 27.7819 21.0942C28.0696 21.5437 28.2803 22.2254 28.2803 23.03H30.2803C30.2803 21.9016 29.9895 20.8333 29.4665 20.0161C28.9506 19.2101 28.1166 18.53 27.0403 18.53V20.53ZM12.3305 35.348C12.4322 41.0122 15.2605 45.0966 19.3477 47.6643C23.3976 50.2085 28.6673 51.2634 33.7845 51.0239C38.9007 50.7845 43.9907 49.2452 47.6781 46.4549C51.3995 43.6389 53.7043 39.5238 53.0526 34.2963L51.068 34.5437C51.6162 38.9413 49.7273 42.3961 46.4712 44.8601C43.1811 47.3498 38.5099 48.8006 33.691 49.0261C28.8733 49.2516 24.0342 48.2465 20.4116 45.9707C16.8263 43.7184 14.4184 40.2228 14.3301 35.312L12.3305 35.348ZM23.4039 11.9334C22.1732 12.2599 21.0336 12.8639 20.0725 13.699L21.3842 15.2087C22.1149 14.5739 22.9812 14.1148 23.9167 13.8666L23.4039 11.9334ZM20.0725 13.699C19.1114 14.534 18.3542 15.5781 17.859 16.7511L19.7016 17.5289C20.078 16.6372 20.6536 15.8435 21.3842 15.2087L20.0725 13.699ZM41.4631 15.9042C42.312 16.3052 43.05 16.9077 43.6129 17.6592L45.2136 16.4602C44.4554 15.4478 43.4611 14.6361 42.3175 14.0958L41.4631 15.9042ZM43.6129 17.6592C44.1757 18.4106 44.5463 19.2882 44.6925 20.2157L46.6681 19.9044C46.4712 18.6549 45.9719 17.4725 45.2136 16.4602L43.6129 17.6592Z" fill="#494A4A"/>
<path id="1px" d="M8.68017 21.8C7.37017 23.73 6.68017 28.29 6.84017 31.19M48.6702 5.64002L52.2202 0.52002M46.4402 0.89002L45.4502 4.37002M52.6002 6.54002L50.9102 7.76002" stroke="#494A4A" stroke-linecap="round" stroke-linejoin="round"/>
</g>
</g>
</svg>
