<svg width="64" height="64" viewBox="0 0 64 64" fill="none" xmlns="http://www.w3.org/2000/svg">
<g id="  Pictogram-bronze-rank-3">
<g id="stroke-default">
<g id="2px">
<path d="M31.601 16.6996C33.001 16.6996 35.101 23.6996 36.201 24.3996C37.301 25.0996 43.901 25.0996 44.101 26.2996C44.301 27.4996 39.301 31.8996 38.701 32.8996C38.101 33.8996 40.501 40.3996 39.401 40.9996C38.301 41.5996 33.001 36.8996 31.701 36.8996C30.401 36.8996 25.101 41.5996 24.001 40.9996C22.901 40.3996 24.801 34.0996 24.601 32.6996C24.401 31.2996 18.701 27.8996 19.201 26.2996C19.701 24.6996 26.601 24.7996 27.301 24.2996C28.001 23.7996 30.401 16.5996 31.801 16.5996L31.601 16.6996Z" stroke="#494A4A" stroke-width="2" stroke-linecap="round" stroke-linejoin="round"/>
<path d="M44.2012 9.49958C41.7012 8.19958 24.0012 7.99958 20.9012 9.49958C17.8012 10.9996 9.20117 25.5996 9.20117 29.6996C9.20117 33.7996 18.1012 48.2996 20.9012 49.8996C23.7012 51.4996 41.6012 51.0996 44.2012 49.8996C46.8012 48.6996 55.9012 34.3996 55.9012 29.6996C55.9012 24.9996 46.8012 10.7996 44.2012 9.49958Z" stroke="#494A4A" stroke-width="2" stroke-linecap="round" stroke-linejoin="round"/>
</g>
<path id="1px" d="M30.2012 24.4998C30.5012 23.7998 30.9012 22.8998 31.1012 22.2998M47.3008 40.3004C48.6008 38.0004 49.9008 35.5004 50.4008 33.9004M44.8008 44.2004C45.2008 43.7004 45.5008 43.1004 45.9008 42.4004" stroke="#494A4A" stroke-linecap="round" stroke-linejoin="round"/>
</g>
</g>
</svg>
