<svg width="64" height="64" viewBox="0 0 64 64" fill="none" xmlns="http://www.w3.org/2000/svg">
<g id="Pictogram-clock-3">
<g id="stroke-default">
<path id="2px" d="M34.42 31.74C37.14 29.58 41.42 19.52 40.42 18.89C39.42 18.26 31.21 25.29 30.27 29.32M32.39 34.8C34.34 38 47.05 48.39 47.48 48C47.91 47.61 37.79 35.23 34.24 33M31.5 9C31.56 10 31.44 11 31.44 11.67M31.53 52.33C31.59 53.33 31.48 54.33 31.48 55.01M54.49 32C53.49 32.06 52.49 31.95 51.81 31.95M11.16 32.05C10.16 32.12 9.16 32.05 8.48 32.05M61.5 32C61.5 48.57 49.08 61.34 31.5 62C13.92 62.66 1.5 48.57 1.5 32C1.5 15.43 12.37 2 31.5 2C39.4565 2 47.0871 5.16071 52.7132 10.7868C58.3393 16.4129 61.5 24.0435 61.5 32ZM34.44 32C34.44 33.6237 33.1237 34.94 31.5 34.94C29.8763 34.94 28.56 33.6237 28.56 32C28.56 30.3763 29.8763 29.06 31.5 29.06C33.1237 29.06 34.44 30.3763 34.44 32Z" stroke="#494A4A" stroke-width="2" stroke-linecap="round" stroke-linejoin="round"/>
<path id="1px" d="M47.67 15.4001C47.1843 15.7764 46.7295 16.191 46.31 16.64M16 47.1C15.44 47.77 15 47.87 14.6 48.42M16.26 17.14C15.8185 16.7846 15.3978 16.4039 15 16.0001M50 45.41C51.6149 43.4358 52.6223 41.0355 52.9 38.5M48.52 43C49.2331 42.1021 49.7847 41.087 50.15 40M58 32.0001C58 46.6301 47.67 58.8501 31.5 58.4901C15.87 58.1301 5 46.6301 5 32.0001C5 17.3701 16.26 5.78005 31.5 5.52005C46.56 5.25005 58 17.3701 58 32.0001Z" stroke="#494A4A" stroke-linecap="round" stroke-linejoin="round"/>
</g>
</g>
</svg>
