<svg width="64" height="64" viewBox="0 0 64 64" fill="none" xmlns="http://www.w3.org/2000/svg">
<g id="Pictogram-organisation-building-3" clip-path="url(#clip0_426_1410)">
<g id="stroke-default">
<path id="2px" d="M49.9998 17.7801C50.0598 16.7801 49.9998 12.3901 49.9998 10.6901C49.9998 8.69005 49.5198 8.20005 47.6398 8.12005C38.1498 7.69005 14.0898 8.44005 6.77979 9.82005C5.09979 10.1301 4.09979 10.8001 3.99979 12.0001C2.79979 26.4201 5.12979 46 6.60979 57.94M43.9998 58C26.1698 58.05 7.35979 58.52 4.18979 59C3.64979 59.08 4.18979 62 4.54979 62H42.3898M8.42979 9.50005C8.18979 7.15005 7.58979 3.50005 8.42979 2.63005C9.73979 1.23005 41.4298 2.45005 44.5698 3.12005C44.9624 3.20579 45.3156 3.41905 45.5742 3.72657C45.8329 4.03409 45.9825 4.41857 45.9998 4.82005C45.9703 5.88887 45.8464 6.953 45.6298 8.00005M55.1198 27.9301C58.5898 27.9301 60.2998 30.0101 59.9698 33.9301M57.9398 35.12C60.2898 34.49 62.9998 35.75 62.9998 40C62.9998 43.51 60.5598 45.5301 56.5898 44.8101M41.1798 29.4901C34.4298 31.8001 36.2398 45.4101 43.7398 45.4901M54.9998 29.7201C55.6098 18.7201 40.7698 17.0901 41.9998 30.9401M42.9998 43C43.9998 49.66 55.8498 50 56.9998 42M46.7298 47.59C48.7298 53.76 48.4098 59.5901 45.5498 62.9901M53.0698 52.5601C52.9998 51.0001 52.8498 48.31 53.9398 47M50.9998 57.1101C50.9998 55.8501 51.7298 53.1101 52.0698 52.9701C52.7898 52.7801 56.4298 53.32 56.0698 54.03C53.8098 57.98 53.0698 60.3 56.0698 63.03" stroke="#494A4A" stroke-width="2" stroke-linecap="round" stroke-linejoin="round"/>
<path id="1px" d="M4.75 26.5501C12.96 25.1501 19.12 26.2601 39.39 25.3401M5.09 42.4901C9.09 42.4901 26.14 41.3501 35.25 41.4901M15.53 9.08006C14.74 21.2001 15.46 46.4801 15.88 58.0001M37.57 47.0501C37.39 50.1001 37.46 54.9401 37.25 57.8301M38.58 8.00006C38.81 14.0001 38.23 25.0001 38.09 27.5501M27 58.0001C27.2 55.0001 27 43.6801 27.07 42.2801M29.99 49.3801V51.6801M23.98 49.9801V51.8101M51.73 53.7501C51.44 55.8801 54.93 56.5201 55.85 54.6801M52.54 44.4201C53.3643 43.8687 53.9776 43.0545 54.28 42.1101M44.58 28.8201C44.31 26.8201 45.11 25.0701 46.58 24.5301" stroke="#494A4A" stroke-linecap="round" stroke-linejoin="round"/>
</g>
</g>
<defs>
<clipPath id="clip0_426_1410">
<rect width="64" height="64" fill="white"/>
</clipPath>
</defs>
</svg>
