<svg width="64" height="64" viewBox="0 0 64 64" fill="none" xmlns="http://www.w3.org/2000/svg">
<g id="Pictogram-paper-plane">
<g id="stroke-default">
<path id="2px" d="M48.111 18.4939C48.111 12.196 45.7118 2.89901 44.0124 1.9993C39.114 -0.599846 10.1235 2.09927 3.82554 7.7974C-1.27279 12.2959 1.72623 30.0901 4.42534 32.6892C6.62462 34.7885 10.2234 34.4886 11.0232 35.6883C11.7229 36.6879 10.6233 45.2851 12.0228 45.7849C13.0225 46.1848 16.9212 40.9865 19.2205 37.9875C19.2205 37.9875 22.1195 37.9875 23.0192 37.7876M60.7069 25.9914C55.5086 21.293 32.2162 20.5932 28.6174 25.5916C25.9183 29.2904 26.4181 43.2858 29.917 48.8839C32.2162 52.4827 44.0124 51.4831 45.8118 52.3828C47.7111 53.3824 51.8098 60.6801 53.6092 59.9803C55.4086 59.2805 53.9091 53.6824 54.6089 52.4827C55.5086 51.0832 58.7075 50.5834 59.6072 49.2838C62.6063 45.0852 64.8055 29.7902 60.7069 26.0914V25.9914Z" stroke="#494A4A" stroke-width="1.99934" stroke-linecap="round" stroke-linejoin="round"/>
<path id="1px" d="M13.822 36.1881C13.922 34.0888 12.7224 32.5893 10.623 32.0894M34.5152 26.6912C32.4159 26.9911 30.6165 27.291 30.8164 31.1897M20.4198 27.0911C20.1199 20.5932 21.7194 11.0963 23.6188 9.5968C26.018 7.69742 30.2166 17.4942 29.7168 19.8934M17.6208 21.193C20.9197 17.5942 29.8168 14.995 31.5162 14.995M46.8112 40.5866C48.6106 42.0861 49.3104 44.3854 49.6103 44.5853M50.7099 36.6879C52.7092 26.0914 38.9138 28.4906 38.4139 36.6879C37.9141 44.8852 48.7106 47.2844 50.7099 36.6879Z" stroke="#494A4A" stroke-width="0.999672" stroke-linecap="round" stroke-linejoin="round"/>
</g>
</g>
</svg>
