<svg width="64" height="64" viewBox="0 0 64 64" fill="none" xmlns="http://www.w3.org/2000/svg">
<g id="Pictogram-clipboard">
<g id="stroke-default">
<path id="2px" d="M20.9993 5C19.4993 5 18.0993 5 16.9993 5.1C12.7993 5.3 11.1993 6.6 10.5993 10.9C9.49934 18.9 9.99934 49.7 10.1993 55.6C10.1993 58.9 12.3993 60.4 14.7993 60.5C20.1993 60.9 41.8993 61.1 48.5993 60.8C51.8993 60.7 53.5993 58.9 53.7993 55.2C54.0993 48.2 54.1993 17.4 53.5993 11.4C53.1993 7.3 52.2993 5.8 49.0993 5.5C47.8993 5.4 46.0993 5.3 42.9993 5.2M28.9995 4C28.9995 2.3 30.6995 1 31.9995 1C33.2995 1 34.9995 2.4 34.9995 4M19.8993 32.1004C20.3993 32.4004 21.1993 33.0004 21.7993 33.9004C22.7993 31.9004 25.4993 29.8004 27.1993 28.8004M19.8993 19.2004C20.3993 19.5004 21.1993 20.1004 21.7993 21.0004C22.7993 19.0004 25.4993 16.9004 27.1993 15.9004M21.6996 4.40006C20.5996 5.10006 21.0996 7.90006 21.6996 8.50006C21.9996 8.80006 27.2996 9.00006 31.7996 9.00006C36.5996 9.00006 42.3996 9.00006 42.5996 8.60006C43.1996 7.90006 43.1996 4.60006 42.5996 4.40006C41.4996 4.00006 22.4996 3.90006 21.6996 4.40006Z" stroke="#494A4A" stroke-width="2" stroke-linecap="round" stroke-linejoin="round"/>
<path id="1px" d="M13.3992 53.4999C13.3992 56.3999 13.1992 57.4999 19.2992 57.4999M31.499 46.6003C31.899 44.4003 35.899 46.2003 37.199 46.4003C38.999 46.8003 38.299 45.4003 40.299 45.4003C42.299 45.4003 44.199 46.6003 44.499 46.6003M31.499 20.4999C32.099 20.4999 34.099 19.4999 36.399 19.4999C37.699 19.4999 38.899 21.8999 39.799 20.9999C41.399 19.4999 44.099 20.4999 44.399 20.4999M31.499 33.4998C31.499 33.4998 33.499 33.2998 34.399 32.1998C34.799 31.6998 36.099 33.3998 36.899 33.3998C38.799 33.3998 40.799 31.8998 42.299 31.9998C43.499 31.9998 44.199 33.4998 44.399 33.4998M23.3993 23.8003C22.2993 24.1003 20.5993 24.0003 19.5993 23.8003C18.3993 23.5003 17.8993 22.8003 17.6993 21.9003C17.4993 20.9003 17.4993 19.1003 17.6993 18.1003C17.8993 17.1003 18.6993 16.4003 19.5993 16.2003C20.6993 16.0003 22.2993 16.0003 23.3993 16.2003C24.4993 16.4003 25.0993 17.2003 25.2993 18.1003C25.4993 19.0003 25.5993 20.9003 25.2993 21.9003C25.0993 22.8003 24.4993 23.5003 23.3993 23.8003ZM23.3993 36.8003C22.2993 37.1003 20.5993 37.0003 19.5993 36.8003C18.3993 36.5003 17.8993 35.8003 17.6993 34.9003C17.4993 33.9003 17.4993 32.1003 17.6993 31.1003C17.8993 30.1003 18.6993 29.4003 19.5993 29.2003C20.6993 29.0003 22.2993 29.0003 23.3993 29.2003C24.4993 29.4003 25.0993 30.2003 25.2993 31.1003C25.4993 32.0003 25.5993 33.9003 25.2993 34.9003C25.0993 35.8003 24.4993 36.5003 23.3993 36.8003ZM23.3993 49.8003C22.2993 50.1003 20.5993 50.0003 19.5993 49.8003C18.3993 49.5003 17.8993 48.8003 17.6993 47.9003C17.4993 46.9003 17.4993 45.1003 17.6993 44.1003C17.8993 43.1003 18.6993 42.4003 19.5993 42.2003C20.6993 42.0003 22.2993 42.0003 23.3993 42.2003C24.4993 42.4003 25.0993 43.2003 25.2993 44.1003C25.4993 45.0003 25.5993 46.9003 25.2993 47.9003C25.0993 48.8003 24.4993 49.5003 23.3993 49.8003Z" stroke="#494A4A" stroke-linecap="round" stroke-linejoin="round"/>
</g>
</g>
</svg>
