<svg width="64" height="64" viewBox="0 0 64 64" fill="none" xmlns="http://www.w3.org/2000/svg">
<g id="Pictogram-file-restore">
<g id="stroke-default">
<path id="2px" d="M10 22.1C10.2 19.6 11.2 17.9 13.4 17.4C14.6 17.1 17.8 16.7 19.5 16.3C22.1 15.7 23.2 14.5 23.8 11.9C24.2 10.4 24.2 7.9 24.4 6.6C24.7 4.7 26.4 3 29.3 3M54 28.3C54 19.8 53.8 12.1 53.6 9.4C53.2 5.3 52.3 3.8 49.1 3.5C44.5 3.1 33.1 3 29.4 3C24.1 3 21 5.7 17.8 9C13.7 13.2 10.1 15.8 10.1 23.1C10.1 26.7 10.2 49.6 10.3 55.5C10.3 58.8 12.5 60.3 14.9 60.4C17.8 60.6 25.3 60.8 32.6 60.8M55.3002 42.7996C55.3002 42.7996 52.8002 43.5996 52.9002 44.2996C53.0002 44.9996 58.4002 46.9996 59.6002 46.3996C60.8002 45.7996 62.4002 40.2996 61.7002 39.5996C61.2002 39.0996 59.6002 40.1996 59.4002 40.2996C55.9002 32.4996 38.7002 29.9996 34.8002 43.6996C34.5002 44.6996 40.1002 45.2996 40.2002 44.5996C41.6002 37.6996 51.8002 36.7996 55.2002 42.6996L55.3002 42.7996ZM41.4 52.3997C41.4 52.3997 43.9 51.5997 43.8 50.8997C43.7 50.1997 38.3 48.1998 37.1 48.7998C35.9 49.3998 34.3 54.8997 35 55.5997C35.5 56.0997 37.1 54.9997 37.3 54.8997C40.8 62.6997 58 65.1997 61.9 51.4997C62.2 50.4997 56.6 49.8997 56.5 50.5997C55.1 57.4997 44.9 58.3997 41.5 52.4997L41.4 52.3997Z" stroke="#494A4A" stroke-width="2" stroke-linecap="round" stroke-linejoin="round"/>
<path id="1px" d="M13.4998 53.5C13.4998 56.4 13.2998 57.5 19.3998 57.5M21.3998 24C23.1998 23.9 44.4998 24 45.4998 24M21.3998 30C22.8998 29.9 44.6998 30 45.4998 30M21.3998 36C22.8998 35.9 32.4998 36 33.2998 36" stroke="#494A4A" stroke-linecap="round" stroke-linejoin="round"/>
</g>
</g>
</svg>
