<svg width="64" height="64" viewBox="0 0 64 64" fill="none" xmlns="http://www.w3.org/2000/svg">
<g id="Pictogram-code-language">
<g id="stroke-default">
<path id="2px-stroke-default" d="M25 40.7999C24.7 43.2999 25.2 49.1999 25 50.9999M45 40.7999C44.7 43.2999 45.2 49.1999 45 50.9999M51.1 40.7999C50.8 43.2999 51.3 49.1999 51.1 50.9999M13 23.9999C12.7 26.4999 13.2 32.3999 13 34.1999M20 23.9999C19.7 26.4999 20.2 32.3999 20 34.1999M38.9 23.9999C38.6 26.4999 39.1 32.3999 38.9 34.1999M18.4 45.5999C18.4 48.6999 18 50.8999 15.2 50.8999C12.4 50.8999 12 49.4999 12 46.4999C12 43.4999 11.8 40.6999 14.6 40.6999C18.1 40.6999 18.4 42.5999 18.4 45.6999V45.5999ZM32.6 28.9999C32.6 32.0999 32.2 34.2999 29.4 34.2999C26.6 34.2999 26.2 32.8999 26.2 29.8999C26.2 26.8999 26 24.0999 28.8 24.0999C32.3 24.0999 32.6 25.9999 32.6 29.0999V28.9999ZM52 28.9999C52 32.0999 51.6 34.2999 48.8 34.2999C46 34.2999 45.6 32.8999 45.6 29.8999C45.6 26.8999 45.4 24.0999 48.2 24.0999C51.7 24.0999 52 25.9999 52 29.0999V28.9999ZM38.6 45.5999C38.6 48.6999 38.2 50.8999 35.4 50.8999C32.6 50.8999 32.2 49.4999 32.2 46.4999C32.2 43.4999 32 40.6999 34.8 40.6999C38.3 40.6999 38.6 42.5999 38.6 45.6999V45.5999ZM5.00002 16.0999C4.70002 6.39985 10.5 5.09985 15.8 5.09985H51.3C56.1 5.09985 59.7 7.39985 59.9 13.7999C60.1 23.3999 59.9 30.6999 59.9 47.3998C59.9 59.5998 54.7 61.0999 43.4 61.0999H13.8C9.00002 61.0999 5.00002 57.4999 4.80002 47.0999C4.70002 42.8999 5.30002 23.2999 5.00002 16.1999V16.0999Z" stroke="#494A4A" stroke-width="2" stroke-linecap="round" stroke-linejoin="round"/>
<path id="1px-stroke-default" d="M5.60013 13.2999C14.4001 14.1999 48.9001 14.1999 58.7001 13.3999M44.7001 9.39987C44.2001 10.2999 45.7001 10.6999 45.9001 9.89987C46.2001 9.09987 45.2001 8.49987 44.7001 9.39987ZM48.8001 9.39987C48.3001 10.2999 49.8001 10.6999 50.0001 9.89987C50.3001 9.09987 49.3001 8.49987 48.8001 9.39987ZM53.0001 9.39987C52.5001 10.2999 54.0001 10.6999 54.2001 9.89987C54.5001 9.09987 53.5001 8.49987 53.0001 9.39987Z" stroke="#494A4A" stroke-linecap="round" stroke-linejoin="round"/>
</g>
</g>
</svg>
