<svg width="64" height="64" viewBox="0 0 64 64" fill="none" xmlns="http://www.w3.org/2000/svg">
<g id="Pictogram-user-arrow-up">
<g id="stroke-default">
<path id="2px" d="M39.5515 63.7989C40.1031 63.7704 40.5271 63.3002 40.4987 62.7487C40.4702 62.1971 40 61.7731 39.4485 61.8015L39.5515 63.7989ZM8.8 44.9002L9.37106 45.7211L9.37753 45.7166L9.38393 45.712L8.8 44.9002ZM26.8 32.2002C26.8 31.6479 26.3523 31.2002 25.8 31.2002C25.2477 31.2002 24.8 31.6479 24.8 32.2002H26.8ZM39.3 31.7002C39.3 31.1479 38.8523 30.7002 38.3 30.7002C37.7477 30.7002 37.3 31.1479 37.3 31.7002H39.3ZM38.8443 38.1551C39.206 38.5725 39.8376 38.6176 40.2549 38.2559C40.6723 37.8942 40.7174 37.2626 40.3557 36.8453L38.8443 38.1551ZM44.9 62V63C45.1729 63 45.434 62.8884 45.6227 62.6911C45.8114 62.4938 45.9112 62.228 45.899 61.9553L44.9 62ZM45.9 44.4L46.8998 44.42C46.8999 44.4133 46.9 44.4067 46.9 44.4H45.9ZM41.9 43.1L40.9019 43.1624C40.9023 43.1693 40.9028 43.1762 40.9034 43.183L41.9 43.1ZM51 31V30C50.9833 30 50.9666 30.0004 50.95 30.0012L51 31ZM59.8 43.3L58.9221 42.8211C58.9164 42.8316 58.9109 42.8421 58.9055 42.8528L59.8 43.3ZM56.5 43.9V44.9C56.5414 44.9 56.5828 44.8974 56.624 44.8923L56.5 43.9ZM57.1 62.9L57.5191 63.808L57.5314 63.8021L57.1 62.9ZM44.8 62V61C44.5155 61 44.2445 61.1211 44.0548 61.3331C43.8651 61.545 43.7747 61.8277 43.8061 62.1104L44.8 62ZM39.4485 61.8015C31.7451 62.1991 23.1808 61.9742 16.5636 61.1332C13.2463 60.7115 10.473 60.1416 8.55338 59.4419C7.58876 59.0903 6.90363 58.7284 6.47741 58.382C6.0517 58.036 6 57.8068 6 57.7002H4C4 58.6436 4.54205 59.3863 5.21595 59.934C5.88934 60.4813 6.80967 60.9351 7.86849 61.321C9.99576 62.0963 12.9412 62.6889 16.3114 63.1172C23.0692 63.9762 31.7549 64.2013 39.5515 63.7989L39.4485 61.8015ZM6 57.7002C6 55.6969 6.36101 52.984 7.00349 50.5838C7.32418 49.3857 7.70723 48.2952 8.13389 47.4247C8.57286 46.529 9.00573 45.9752 9.37106 45.7211L8.22894 44.0793C7.44427 44.6251 6.82714 45.5464 6.33798 46.5445C5.83652 47.5677 5.41332 48.7897 5.07151 50.0666C4.38899 52.6164 4 55.5035 4 57.7002H6ZM9.38393 45.712C10.6711 44.7861 12.3153 44.1556 14.1613 43.5743C15.951 43.0108 17.993 42.4784 19.8026 41.7686C21.6371 41.0491 23.4037 40.0894 24.7066 38.5595C26.0311 37.0044 26.8 34.9516 26.8 32.2002H24.8C24.8 34.5488 24.1564 36.121 23.184 37.2627C22.1901 38.4297 20.7753 39.2388 19.0724 39.9067C17.3445 40.5845 15.4927 41.0583 13.5606 41.6667C11.6847 42.2573 9.77888 42.9643 8.21607 44.0884L9.38393 45.712ZM37.3 31.7002C37.3 32.3476 37.2987 33.4901 37.4732 34.6713C37.6431 35.8212 38.0019 37.1831 38.8443 38.1551L40.3557 36.8453C39.8981 36.3173 39.6069 35.4292 39.4518 34.3791C39.3013 33.3603 39.3 32.3528 39.3 31.7002H37.3ZM32 35.5C38.5389 35.5 45 28.2134 45 15.3H43C43 27.7866 36.8611 33.5 32 33.5V35.5ZM45 15.3C45 10.3546 43.816 6.5108 41.5281 3.89206C39.2222 1.2528 35.9199 0 32 0V2C35.4801 2 38.1778 3.0972 40.0219 5.20794C41.884 7.3392 43 10.6454 43 15.3H45ZM32 0C28.0801 0 24.7778 1.2528 22.4719 3.89206C20.184 6.5108 19 10.3546 19 15.3H21C21 10.6454 22.116 7.3392 23.9781 5.20794C25.8222 3.0972 28.5199 2 32 2V0ZM19 15.3C19 28.2134 25.4611 35.5 32 35.5V33.5C27.1389 33.5 21 27.7866 21 15.3H19ZM45.899 61.9553C45.7521 58.6754 45.9718 55.5802 46.2456 52.6557C46.517 49.7565 46.8488 46.9686 46.8998 44.42L44.9002 44.38C44.8511 46.8314 44.5329 49.4935 44.2543 52.4693C43.9781 55.4198 43.7478 58.6246 43.901 62.0447L45.899 61.9553ZM46.9 44.4C46.9 44.0175 46.7642 43.5962 46.4085 43.2849C46.0702 42.9889 45.6557 42.9 45.3 42.9V44.9C45.3443 44.9 45.2298 44.9111 45.0915 44.7901C44.9357 44.6538 44.9 44.4825 44.9 44.4H46.9ZM45.3 42.9C45.0648 42.9 44.6891 42.9292 44.3915 42.9452C44.0534 42.9634 43.7116 42.9731 43.4051 42.9523C43.0802 42.9303 42.8923 42.8792 42.8102 42.8379C42.7754 42.8204 42.8855 42.8848 42.8965 43.017L40.9034 43.183C40.9644 43.9152 41.4245 44.3796 41.9115 44.6246C42.3513 44.8458 42.8572 44.9197 43.2698 44.9477C43.7008 44.9769 44.1403 44.9616 44.499 44.9423C44.8983 44.9208 45.1351 44.9 45.3 44.9V42.9ZM42.898 43.0376C42.9026 43.1104 42.887 43.1079 42.9239 42.9808C42.9555 42.8721 43.0111 42.7209 43.0966 42.5251C43.2673 42.1345 43.5283 41.6319 43.8649 41.0476C44.5361 39.8825 45.4692 38.4589 46.4723 37.0742C47.4769 35.6875 48.5335 34.3651 49.4484 33.3933C49.9077 32.9053 50.3109 32.5278 50.6385 32.2771C50.802 32.1518 50.9282 32.0727 51.0177 32.0275C51.1163 31.9777 51.1192 31.9953 51.0499 31.9988L50.95 30.0012C50.6307 30.0172 50.343 30.1277 50.1165 30.2421C49.8808 30.361 49.6473 30.5171 49.4228 30.6889C48.9742 31.0324 48.4875 31.4962 47.9922 32.0223C46.9977 33.0787 45.8855 34.475 44.8526 35.9008C43.8183 37.3286 42.8451 38.8112 42.1319 40.0493C41.7763 40.6665 41.4756 41.2397 41.2639 41.7245C41.1582 41.9664 41.0673 42.2028 41.0035 42.4222C40.945 42.6234 40.8849 42.8896 40.9019 43.1624L42.898 43.0376ZM51 32C50.8745 32 50.8386 31.9589 50.9316 32.0085C51.009 32.0497 51.1274 32.128 51.2882 32.259C51.6091 32.5201 52.0116 32.9185 52.4739 33.4345C53.3939 34.4612 54.4684 35.8604 55.4799 37.3098C56.4908 38.7584 57.4194 40.2293 58.0531 41.3924C58.372 41.978 58.6013 42.4585 58.7313 42.806C58.7973 42.9824 58.8245 43.0901 58.8327 43.141C58.8491 43.2415 58.791 43.0615 58.9221 42.8211L60.6779 43.7789C60.884 43.401 60.8368 43.0046 60.8068 42.8202C60.7688 42.5861 60.6925 42.3405 60.6046 42.1054C60.4267 41.6298 60.1466 41.0548 59.8094 40.4357C59.1305 39.1894 58.1591 37.6541 57.12 36.1652C56.0815 34.6771 54.956 33.2075 53.9635 32.0999C53.4696 31.5487 52.9877 31.0635 52.5507 30.7078C52.3327 30.5304 52.1038 30.367 51.8724 30.2436C51.6566 30.1286 51.3504 30 51 30V32ZM58.9055 42.8528C58.9292 42.8055 58.9581 42.8215 58.8534 42.8585C58.7314 42.9015 58.5337 42.9322 58.2436 42.9377C57.9584 42.9431 57.6614 42.9243 57.3385 42.9062C57.0571 42.8905 56.6839 42.8692 56.3759 42.9077L56.624 44.8923C56.716 44.8808 56.8928 44.8845 57.227 44.9031C57.5197 44.9195 57.904 44.9444 58.2813 44.9373C58.6537 44.9303 59.0998 44.8923 59.5184 44.7447C59.9543 44.591 60.4208 44.2945 60.6944 43.7472L58.9055 42.8528ZM56.5 42.9C55.9316 42.9 55.532 43.2473 55.3442 43.456C55.232 43.5807 55.1328 43.7233 55.0571 43.8747C54.9906 44.0077 54.9 44.2309 54.9 44.5H56.9C56.9 44.5945 56.8832 44.6633 56.8733 44.6973C56.8625 44.7343 56.8514 44.7582 56.8459 44.7691C56.84 44.7809 56.8359 44.7872 56.8345 44.7892C56.8329 44.7915 56.8318 44.7928 56.8307 44.794C56.8297 44.7951 56.8264 44.7987 56.8198 44.8042C56.8134 44.8095 56.8005 44.8196 56.7799 44.8315C56.7438 44.8524 56.6467 44.9 56.5 44.9V42.9ZM54.9 44.5C54.9 45.7884 55.1317 47.5421 55.423 49.4002C55.7242 51.3222 56.0762 53.2808 56.3738 55.2379C56.6672 57.1664 56.8784 58.9181 56.8828 60.2393C56.885 60.9043 56.8338 61.3979 56.7439 61.7275C56.6468 62.084 56.5623 62.0486 56.6685 61.9979L57.5314 63.8021C58.2126 63.4764 58.5219 62.8098 58.6735 62.2534C58.8326 61.6701 58.8852 60.9692 58.8828 60.2326C58.8778 58.7506 58.6453 56.8711 58.3511 54.9371C58.0613 53.0317 57.6819 50.8965 57.3988 49.0905C57.1057 47.2204 56.9 45.6116 56.9 44.5H54.9ZM56.6809 61.992C56.8255 61.9253 56.8957 61.9769 56.772 61.9421C56.6592 61.9103 56.4818 61.8327 56.2342 61.685C55.7407 61.3905 55.1491 60.9288 54.5107 60.4031C53.9002 59.9003 53.2321 59.326 52.6722 58.8987C52.3889 58.6826 52.0997 58.4776 51.8273 58.3228C51.5943 58.1904 51.2168 58 50.8 58V60C50.6581 60 50.6431 59.9502 50.8391 60.0616C50.9956 60.1505 51.2017 60.2924 51.459 60.4888C51.9803 60.8865 52.5747 61.3997 53.2393 61.9469C53.8758 62.4712 54.5717 63.022 55.2094 63.4025C55.5275 63.5923 55.8766 63.7678 56.2302 63.8673C56.573 63.9638 57.0494 64.0247 57.519 63.808L56.6809 61.992ZM50.8 58C50.587 58 50.3968 58.0528 50.2726 58.0937C50.1344 58.1392 49.9947 58.1986 49.8623 58.2609C49.5975 58.3854 49.2969 58.5525 48.9893 58.7337C48.3764 59.0947 47.6391 59.5698 46.9686 59.9904C46.2739 60.4261 45.6578 60.7989 45.2195 61.0098C44.9806 61.1247 44.8942 61.1415 44.9124 61.139C44.9134 61.1388 45.093 61.1077 45.3162 61.2177C45.6236 61.3693 45.7681 61.6582 45.7938 61.8896L43.8061 62.1104C43.8443 62.4543 44.0396 62.8182 44.4317 63.0115C44.7395 63.1633 45.0377 63.1407 45.1868 63.12C45.501 63.0765 45.8286 62.9362 46.0866 62.8121C46.6421 62.5448 47.3511 62.1114 48.0313 61.6846C48.7359 61.2427 49.4235 60.7991 50.0043 60.457C50.2936 60.2866 50.5321 60.156 50.7134 60.0708C50.8041 60.0281 50.8641 60.0046 50.8981 59.9934C50.9461 59.9776 50.9004 60 50.8 60V58ZM44.8 63H44.9V61H44.8V63Z" fill="#494A4A"/>
<path id="1px" d="M12.7 46.1001C10 47.0001 9.9 47.4001 9 50.9001M46.7 39.8C47.6 38.6 49.4 36 49.7 35.6M52.4 56.4C55.8 58.9 55 57.7 54 54.6" stroke="#494A4A" stroke-linecap="round" stroke-linejoin="round"/>
</g>
</g>
</svg>
