<svg width="64" height="64" viewBox="0 0 64 64" fill="none" xmlns="http://www.w3.org/2000/svg">
<g id="Pictogram-folder-files">
<g id="stroke-default">
<path id="2px" d="M2.49928 34C1.89928 39.9 1.89928 52 2.29928 55.8C2.49928 57.9 3.89928 59.3 6.99928 59.5C14.6993 59.9 46.8993 60.4 57.2993 59.2C59.7993 58.9 61.4993 57.4 61.6993 53.8C61.9993 49.3 62.0993 40 61.3993 33.3M6.79928 26.4C5.79928 27.6 3.49928 30.8 2.89928 32.3C1.99928 34.5 2.49928 35.6 4.99928 35.8C12.2993 36.2 54.5993 36.1 60.1993 35.6C61.5993 35.5 61.8993 33.6 60.8993 32.1C59.8993 30.6 56.7993 26.1 55.8993 25M55.9995 35.7002C55.9995 29.1002 55.8995 21.7002 55.5995 19.2002C55.1995 15.1002 54.2995 13.6002 51.0995 13.3002C46.4995 12.9002 24.4995 12.9002 20.7995 13.2002C15.6995 13.6002 14.6995 15.3002 12.0995 18.2002C9.49951 21.1002 8.09951 23.6002 8.09951 26.7002C8.09951 30.3002 8.09951 35.1002 8.09951 35.8002M7.99951 27.1002C7.99951 25.0002 9.69951 23.2002 13.7995 22.6002C15.6995 22.3002 16.3995 21.4002 16.7995 19.5002C16.9995 18.4002 17.0995 16.7002 17.1995 15.8002C17.3995 14.5002 18.5995 13.2002 20.6995 13.2002M52.0995 13.1998C52.0995 10.8998 50.8995 9.3998 49.2995 8.9998C41.9995 7.3998 20.7995 7.89981 16.6995 8.4998C13.6995 8.9998 12.6995 10.9998 12.3995 13.8998C12.1995 15.6998 11.9995 17.5998 11.9995 18.1998M48.9994 9.00039C48.9994 6.30039 47.9994 4.50039 46.6994 4.10039C40.4994 2.50039 23.0994 3.00039 19.5994 3.60039C16.9994 4.10039 15.8994 6.40039 15.9994 8.60039" stroke="#494A4A" stroke-width="2" stroke-linecap="round" stroke-linejoin="round"/>
<path id="1px" d="M58.4984 52.5C58.5984 54.6 57.5984 56.3999 55.3984 56.3999M11.5984 39.2C11.3984 39.9 10.6984 41.7999 10.3984 42.3999M13.2984 41C12.9984 42 12.3984 43.9 12.0984 44.8M22.9984 42.6999C22.3984 43.0999 22.0984 46.6999 22.9984 46.9999C24.4984 47.5999 38.4984 47.8999 39.7984 46.9999C40.6984 46.3999 40.7984 42.4999 39.7984 41.7999C38.7984 41.0999 23.6984 42.2 22.8984 42.8L22.9984 42.6999Z" stroke="#494A4A" stroke-linecap="round" stroke-linejoin="round"/>
</g>
</g>
</svg>
