<svg width="64" height="64" viewBox="0 0 64 64" fill="none" xmlns="http://www.w3.org/2000/svg">
<g id="Pictogram-checkmark-edit" clip-path="url(#clip0_622_41940)">
<g id="stroke-default">
<path id="2px" d="M19.4004 39.1002C20.3004 39.4002 21.1004 40.0002 21.6004 40.8002C22.0004 39.3002 22.8004 38.1002 23.6004 37.2002M30.2007 36.1002C30.2007 36.1002 34.5007 34.7002 35.8007 35.1002M16.6006 27.6004C17.5006 27.9004 18.3006 28.5004 18.8006 29.3004C19.5006 27.5004 20.9006 25.6004 23.1006 24.4004M28.5005 26.2998C30.9005 26.1998 30.2005 25.2998 33.6005 25.2998C34.8005 25.2998 36.4005 24.7998 38.7005 24.2998M20.7006 3C18.0006 3.7 15.2006 4.8 11.0006 10.8C7.60059 15.7 6.30059 18 6.10059 22.7M51.1006 44.1004C51.4006 46.4004 51.4006 47.6004 51.5006 48.6004C51.7006 52.2004 49.2006 55.0004 45.7006 55.9004C39.0006 57.7004 23.7006 60.2004 18.9006 60.0004C15.8006 59.9004 14.2006 59.1004 13.1006 56.2004C10.8006 50.4004 6.10059 29.1004 6.10059 23.2004C6.10059 20.2004 6.80059 19.0004 9.10059 18.3004C10.7006 17.8004 11.9006 17.6004 13.8006 16.8004C16.0006 15.9004 17.4006 14.3004 17.6006 11.5004C17.7006 9.30039 17.4006 7.60039 17.7006 6.00039C18.1006 4.20039 18.9006 3.10039 21.5006 2.70039C26.3006 1.80039 33.1006 1.00039 37.1006 0.900391C40.5006 0.900391 43.0006 3.10039 44.0006 5.90039C44.7006 7.90039 44.9006 11.4004 45.9006 16.7004M38.8006 47.8999C37.8006 47.2999 37.7006 40.8999 38.8006 38.5999C41.0006 34.1999 52.4006 13.5999 53.3006 11.7999C54.2006 9.99991 56.1006 9.49992 59.3006 11.0999C62.5006 12.6999 63.5006 14.6999 62.5006 16.4999C61.8006 17.8999 48.8006 40.2999 46.9006 42.6999C45.0006 45.0999 39.8006 48.4999 38.8006 47.7999V47.8999Z" stroke="#494A4A" stroke-width="2" stroke-linecap="round" stroke-linejoin="round"/>
<path id="1px" d="M41.3993 7.70018C40.7993 5.10018 38.7993 4.10018 37.2993 4.50018M46.9006 42.8999C44.3006 45.3999 37.6006 41.2999 39.0006 37.9999M63.0006 15.6999C61.6006 18.3999 54.4006 14.2999 54.2006 12.2999M60.9006 19.5999C59.5006 22.2999 50.4006 17.6999 51.7006 15.0999M18.4004 51.4996C20.2004 50.5996 20.8004 51.6996 22.9004 51.6996C25.0004 51.6996 21.7004 49.3996 23.5004 48.8996C25.3004 48.3996 26.3004 51.2996 28.6004 50.5996C30.9004 49.8996 30.2004 41.8996 27.1004 43.6996C24.0004 45.4996 32.0004 50.9996 32.0004 49.4996C32.0004 48.6996 33.1004 48.8996 34.1004 49.0996" stroke="#494A4A" stroke-linecap="round" stroke-linejoin="round"/>
</g>
</g>
<defs>
<clipPath id="clip0_622_41940">
<rect width="64" height="64" fill="white"/>
</clipPath>
</defs>
</svg>
