<svg width="64" height="64" viewBox="0 0 64 64" fill="none" xmlns="http://www.w3.org/2000/svg">
<g id="  Pictogram-data-dashboard">
<g id="stroke-default">
<path id="2px" d="M61.4 41.6998L60.4043 41.6072L60.4042 41.6076L61.4 41.6998ZM51.5 51.6998L51.4376 50.7017L51.432 50.7021L51.5 51.6998ZM14.3 51.6998L14.4012 50.7049L14.3939 50.7042L14.3 51.6998ZM4.39999 41.6998L3.4086 41.831L3.40973 41.839L4.39999 41.6998ZM26.0435 36.4313C25.6744 36.0205 25.0422 35.9866 24.6313 36.3557C24.2205 36.7248 24.1866 37.357 24.5557 37.7679L26.0435 36.4313ZM33.4888 46.4914C33.9261 46.8287 34.554 46.7477 34.8914 46.3104C35.2287 45.8731 35.1477 45.2452 34.7104 44.9078L33.4888 46.4914ZM34.8067 37.2071C35.1972 36.8166 35.1972 36.1834 34.8067 35.7929C34.4162 35.4024 33.783 35.4024 33.3925 35.7929L34.8067 37.2071ZM24.1306 44.9567C23.7201 45.3262 23.6868 45.9584 24.0563 46.369C24.4258 46.7795 25.0581 46.8127 25.4686 46.4433L24.1306 44.9567ZM43.5435 18.9313C43.1744 18.5205 42.5422 18.4866 42.1313 18.8557C41.7205 19.2248 41.6866 19.857 42.0557 20.2679L43.5435 18.9313ZM50.9888 28.9914C51.4261 29.3287 52.054 29.2477 52.3914 28.8104C52.7287 28.3731 52.6477 27.7451 52.2104 27.4078L50.9888 28.9914ZM52.3067 19.7071C52.6972 19.3166 52.6972 18.6834 52.3067 18.2929C51.9162 17.9024 51.283 17.9024 50.8925 18.2929L52.3067 19.7071ZM41.6306 27.4567C41.2201 27.8262 41.1868 28.4584 41.5563 28.869C41.9258 29.2795 42.5581 29.3127 42.9686 28.9433L41.6306 27.4567ZM31.1019 31.203C31.4348 31.6437 32.0618 31.7312 32.5026 31.3984C32.9433 31.0656 33.0308 30.4385 32.698 29.9978L31.1019 31.203ZM28.2 25.7004L27.8749 24.7547C27.5719 24.8588 27.3372 25.1018 27.2436 25.4082C27.15 25.7146 27.2089 26.0473 27.4019 26.303L28.2 25.7004ZM34.0476 23.6623C34.4684 23.3046 34.5196 22.6735 34.1619 22.2527C33.8042 21.8319 33.1731 21.7808 32.7523 22.1384L34.0476 23.6623ZM30.0848 24.7417C29.5554 24.5842 28.9986 24.8857 28.8411 25.415C28.6836 25.9444 28.9851 26.5012 29.5144 26.6587L30.0848 24.7417ZM44.4295 43.5427C44.5634 44.0785 45.1063 44.4043 45.6421 44.2703C46.1779 44.1364 46.5037 43.5934 46.3697 43.0576L44.4295 43.5427ZM59.4039 11.1885C60.3055 21.3063 61.1944 33.1137 60.4043 41.6072L62.3957 41.7924C63.2056 33.0859 62.2945 21.0933 61.396 11.011L59.4039 11.1885ZM60.4042 41.6076C60.1682 44.1564 59.3505 46.3302 57.9223 47.9024C56.5087 49.4585 54.4157 50.5156 51.4376 50.7017L51.5624 52.6978C54.9843 52.484 57.5913 51.2411 59.4027 49.2472C61.1994 47.2693 62.1317 44.6432 62.3957 41.792L60.4042 41.6076ZM51.432 50.7021C42.664 51.2999 20.225 51.2972 14.4012 50.7049L14.1988 52.6947C20.175 53.3024 42.736 53.2997 51.568 52.6975L51.432 50.7021ZM14.3939 50.7042C11.9167 50.4705 9.89637 49.6395 8.39373 48.1921C6.89061 46.7442 5.81685 44.5942 5.39024 41.5605L3.40973 41.839C3.88313 45.2054 5.10936 47.8054 7.00624 49.6325C8.9036 51.4601 11.3833 52.4291 14.2061 52.6954L14.3939 50.7042ZM5.39134 41.5686C4.50258 34.8535 4.39969 18.6272 4.49988 11.8145L2.5001 11.7851C2.40028 18.5723 2.4974 34.9461 3.40863 41.831L5.39134 41.5686ZM22.9997 24.3996C22.9997 22.6419 22.2589 21.2846 21.1561 20.3867C20.0788 19.5094 18.6968 19.0996 17.3997 19.0996V21.0996C18.3026 21.0996 19.2206 21.3898 19.8933 21.9375C20.5405 22.4646 20.9997 23.2573 20.9997 24.3996H22.9997ZM17.3997 19.0996C14.6474 19.0996 12.3997 21.3473 12.3997 24.0996H14.3997C14.3997 22.4519 15.752 21.0996 17.3997 21.0996V19.0996ZM12.3997 24.0996C12.3997 25.4565 12.947 26.8275 13.8047 27.8626C14.6622 28.8976 15.9223 29.6996 17.3997 29.6996V27.6996C16.6771 27.6996 15.9372 27.3016 15.3447 26.5866C14.7523 25.8717 14.3997 24.9427 14.3997 24.0996H12.3997ZM17.3997 29.6996C18.6803 29.6996 20.0639 29.3239 21.1494 28.4555C22.265 27.563 22.9997 26.199 22.9997 24.3996H20.9997C20.9997 25.6002 20.5344 26.3862 19.9 26.8937C19.2355 27.4253 18.3191 27.6996 17.3997 27.6996V29.6996ZM25.2996 37.0996C24.5557 37.7679 24.5557 37.7679 24.5558 37.768C24.5559 37.7681 24.5559 37.7682 24.556 37.7683C24.5563 37.7685 24.5565 37.7688 24.5569 37.7692C24.5576 37.7701 24.5587 37.7712 24.5601 37.7727C24.5628 37.7758 24.5668 37.7802 24.5721 37.7861C24.5826 37.7977 24.598 37.8149 24.6183 37.8372C24.6587 37.882 24.7182 37.9476 24.7949 38.0318C24.9483 38.2003 25.171 38.4434 25.4489 38.7433C26.0044 39.343 26.782 40.1709 27.6702 41.0842C29.4347 42.8988 31.6775 45.0941 33.4888 46.4914L34.7104 44.9078C33.0217 43.6051 30.8645 41.5004 29.104 39.69C28.2297 38.7908 27.4635 37.975 26.916 37.384C26.6423 37.0886 26.4235 36.8497 26.2734 36.685C26.1984 36.6026 26.1406 36.5388 26.1017 36.4958C26.0822 36.4743 26.0675 36.458 26.0578 36.4471C26.0529 36.4417 26.0492 36.4377 26.0468 36.435C26.0456 36.4337 26.0448 36.4327 26.0442 36.4321C26.0439 36.4318 26.0437 36.4316 26.0436 36.4315C26.0436 36.4314 26.0435 36.4314 26.0435 36.4313C26.0435 36.4313 26.0435 36.4313 25.2996 37.0996ZM34.0996 36.5C33.3925 35.7929 33.3925 35.7929 33.3924 35.793C33.3923 35.793 33.3922 35.7931 33.3921 35.7933C33.3919 35.7935 33.3915 35.7939 33.391 35.7944C33.39 35.7954 33.3885 35.7969 33.3865 35.7989C33.3825 35.8028 33.3766 35.8088 33.3687 35.8167C33.353 35.8324 33.3297 35.8557 33.2992 35.8862C33.2382 35.9471 33.1486 36.0367 33.0342 36.151C32.8054 36.3796 32.4774 36.7072 32.0807 37.1031C31.2872 37.895 30.2189 38.9602 29.1195 40.0534C26.9047 42.2556 24.6065 44.5285 24.1306 44.9567L25.4686 46.4433C25.9927 45.9715 28.3445 43.6444 30.5297 41.4716C31.6303 40.3773 32.6995 39.3112 33.4935 38.5187C33.8905 38.1225 34.2188 37.7946 34.4478 37.5658C34.5623 37.4514 34.652 37.3617 34.7131 37.3007C34.7436 37.2701 34.767 37.2468 34.7828 37.231C34.7907 37.2231 34.7966 37.2172 34.8007 37.2131C34.8027 37.2111 34.8042 37.2096 34.8052 37.2086C34.8057 37.2081 34.8061 37.2077 34.8063 37.2075C34.8064 37.2074 34.8065 37.2073 34.8066 37.2072C34.8067 37.2071 34.8067 37.2071 34.0996 36.5ZM42.7996 19.5996C42.0557 20.2679 42.0557 20.2679 42.0558 20.268C42.0559 20.2681 42.056 20.2682 42.0561 20.2683C42.0563 20.2685 42.0565 20.2688 42.0569 20.2692C42.0576 20.2701 42.0587 20.2712 42.0601 20.2727C42.0628 20.2758 42.0668 20.2802 42.0721 20.2861C42.0826 20.2977 42.098 20.3149 42.1183 20.3372C42.1587 20.382 42.2182 20.4476 42.2949 20.5318C42.4483 20.7003 42.671 20.9434 42.9489 21.2433C43.5044 21.843 44.282 22.6709 45.1702 23.5842C46.9347 25.3988 49.1775 27.5941 50.9888 28.9914L52.2104 27.4078C50.5217 26.1051 48.3645 24.0004 46.604 22.1899C45.7297 21.2908 44.9635 20.475 44.416 19.884C44.1423 19.5886 43.9235 19.3497 43.7734 19.185C43.6984 19.1026 43.6406 19.0388 43.6017 18.9958C43.5822 18.9743 43.5675 18.958 43.5578 18.9471C43.5529 18.9417 43.5492 18.9377 43.5468 18.935C43.5457 18.9337 43.5448 18.9327 43.5442 18.9321C43.5439 18.9318 43.5437 18.9316 43.5436 18.9315C43.5436 18.9314 43.5435 18.9314 43.5435 18.9313C43.5435 18.9313 43.5435 18.9313 42.7996 19.5996ZM51.5996 19C50.8925 18.2929 50.8925 18.2929 50.8924 18.293C50.8923 18.293 50.8922 18.2931 50.8921 18.2933C50.8919 18.2935 50.8915 18.2939 50.891 18.2944C50.89 18.2954 50.8885 18.2969 50.8865 18.2989C50.8825 18.3028 50.8766 18.3088 50.8687 18.3166C50.853 18.3324 50.8297 18.3557 50.7992 18.3862C50.7382 18.4471 50.6486 18.5367 50.5342 18.651C50.3054 18.8796 49.9774 19.2072 49.5807 19.6031C48.7872 20.395 47.7189 21.4602 46.6195 22.5534C44.4047 24.7556 42.1065 27.0285 41.6306 27.4567L42.9686 28.9433C43.4927 28.4715 45.8445 26.1444 48.0297 23.9716C49.1303 22.8773 50.1995 21.8112 50.9935 21.0187C51.3905 20.6225 51.7188 20.2946 51.9478 20.0658C52.0623 19.9514 52.152 19.8617 52.2131 19.8007C52.2436 19.7701 52.267 19.7468 52.2828 19.731C52.2907 19.7231 52.2966 19.7172 52.3006 19.7131C52.3027 19.7111 52.3042 19.7096 52.3052 19.7086C52.3057 19.7081 52.3061 19.7077 52.3063 19.7075C52.3064 19.7074 52.3065 19.7073 52.3066 19.7072C52.3067 19.7071 52.3067 19.7071 51.5996 19ZM32.698 29.9978L28.998 25.0978L27.4019 26.303L31.1019 31.203L32.698 29.9978ZM28.2 25.7004C28.5251 26.6461 28.5252 26.646 28.5254 26.646C28.5254 26.6459 28.5256 26.6459 28.5257 26.6458C28.526 26.6457 28.5263 26.6456 28.5267 26.6455C28.5274 26.6452 28.5284 26.6449 28.5295 26.6445C28.5318 26.6438 28.5348 26.6427 28.5386 26.6414C28.5461 26.6387 28.5567 26.635 28.5702 26.6303C28.5971 26.6207 28.6356 26.6069 28.6846 26.5891C28.7825 26.5533 28.9225 26.501 29.0958 26.4331C29.442 26.2976 29.9239 26.099 30.4711 25.8449C31.5507 25.3436 32.9459 24.5988 34.0476 23.6623L32.7523 22.1384C31.8541 22.9019 30.6493 23.5571 29.6289 24.0309C29.1261 24.2643 28.683 24.4469 28.3667 24.5708C28.2088 24.6326 28.0831 24.6795 27.9982 24.7105C27.9558 24.726 27.9236 24.7376 27.9026 24.745C27.8922 24.7487 27.8846 24.7513 27.8799 24.753C27.8776 24.7538 27.876 24.7543 27.8751 24.7546C27.8747 24.7548 27.8745 24.7548 27.8744 24.7549C27.8744 24.7549 27.8745 24.7548 27.8745 24.7548C27.8746 24.7548 27.8747 24.7548 27.8747 24.7548C27.8748 24.7547 27.8749 24.7547 28.2 25.7004ZM29.7996 25.7002C29.5144 26.6587 29.514 26.6585 29.5136 26.6584C29.5136 26.6584 29.5133 26.6583 29.5131 26.6583C29.5129 26.6582 29.5128 26.6582 29.5129 26.6582C29.5132 26.6583 29.5141 26.6586 29.5158 26.6591C29.5191 26.6601 29.5253 26.662 29.5342 26.6648C29.5521 26.6704 29.5811 26.6797 29.6205 26.6928C29.6994 26.7191 29.82 26.7607 29.9773 26.8193C30.2921 26.9366 30.7533 27.1216 31.3212 27.3872C32.4578 27.9189 34.0154 28.7708 35.6793 30.0443C39.0009 32.5864 42.7451 36.8054 44.4295 43.5427L46.3697 43.0576C44.5541 35.795 40.4983 31.214 36.8949 28.4561C35.0963 27.0795 33.4101 26.1564 32.1686 25.5756C31.5474 25.285 31.036 25.0794 30.6754 24.9451C30.4951 24.8779 30.3523 24.8285 30.2522 24.7952C30.2021 24.7786 30.1627 24.7659 30.1346 24.7571C30.1206 24.7526 30.1093 24.7492 30.101 24.7466C30.0968 24.7453 30.0934 24.7443 30.0907 24.7435C30.0893 24.7431 30.0881 24.7427 30.0872 24.7424C30.0867 24.7423 30.0861 24.7421 30.0858 24.742C30.0853 24.7419 30.0848 24.7417 29.7996 25.7002Z" fill="#494A4A"/>
<path id="1px" d="M17.0012 11.7998C12.3012 11.7998 2.30117 11.7998 2.10117 11.5998C1.30117 10.9998 1.60117 8.29981 1.80117 7.89981C2.80117 6.19981 61.4012 6.4998 62.0012 7.0998C62.8012 7.9998 63.2012 10.1998 62.5012 10.9998C62.2012 11.1998 38.3012 11.5998 22.1012 11.6998M31.1012 60.6998C30.5012 60.9998 26.3012 62.9998 25.8012 62.9998C25.3012 62.9998 24.9012 61.9998 26.2012 61.1998L31.0012 58.6998M33.0012 58.7998L37.9012 61.2998C39.2012 61.9998 38.8012 63.0998 38.3012 63.0998C37.8012 63.0998 33.6012 60.9998 33.0012 60.5998M31.1012 52.3998V60.5998C31.1012 61.4998 31.7012 62.3998 32.0012 62.4998C32.3012 62.5998 32.9012 61.2998 32.9012 60.5998V52.3998M31.1012 6.1998C31.1012 5.2998 31.7012 3.7998 32.0012 3.7998C32.3012 3.7998 32.9012 4.9998 32.9012 6.1998M8.50117 43.2998C8.90117 45.5998 11.2012 47.9998 13.2012 47.9998" stroke="#494A4A" stroke-linecap="round" stroke-linejoin="round"/>
</g>
</g>
</svg>
