<svg width="64" height="64" viewBox="0 0 64 64" fill="none" xmlns="http://www.w3.org/2000/svg">
<g id="Pictogram-buyer" clip-path="url(#clip0_624_21102)">
<g id="stroke-default">
<path id="2px" d="M39.5384 63.8288C40.09 63.8021 40.5155 63.3333 40.4888 62.7816C40.4621 62.23 39.9933 61.8045 39.4416 61.8312L39.5384 63.8288ZM8.76 45L9.34228 45.813L9.34378 45.8119L8.76 45ZM26.76 32.29C26.76 31.7377 26.3123 31.29 25.76 31.29C25.2077 31.29 24.76 31.7377 24.76 32.29H26.76ZM39.2696 31.8025C39.2545 31.2505 38.7946 30.8152 38.2425 30.8304C37.6905 30.8455 37.2552 31.3054 37.2704 31.8575L39.2696 31.8025ZM38.0698 35.7671C38.2726 36.2809 38.8534 36.5329 39.3671 36.3302C39.8809 36.1274 40.1329 35.5466 39.9302 35.0329L38.0698 35.7671ZM50.0722 46.4384C50.5021 46.7851 51.1317 46.7177 51.4784 46.2878C51.8251 45.8579 51.7577 45.2283 51.3278 44.8816L50.0722 46.4384ZM48.7 48.73L48.6394 49.7282L48.6441 49.7284L48.7 48.73ZM47.3917 51.6187C46.8884 51.3913 46.296 51.615 46.0687 52.1183C45.8413 52.6216 46.065 53.214 46.5683 53.4413L47.3917 51.6187ZM50.01 43C50.01 42.4477 49.5623 42 49.01 42C48.4577 42 48.01 42.4477 48.01 43H50.01ZM48.01 44.79C48.01 45.3423 48.4577 45.79 49.01 45.79C49.5623 45.79 50.01 45.3423 50.01 44.79H48.01ZM50.01 53.09C50.01 52.5377 49.5623 52.09 49.01 52.09C48.4577 52.09 48.01 52.5377 48.01 53.09H50.01ZM48.01 54.9C48.01 55.4523 48.4577 55.9 49.01 55.9C49.5623 55.9 50.01 55.4523 50.01 54.9H48.01ZM39.4416 61.8312C31.742 62.204 23.1789 61.9692 16.5615 61.1341C13.2441 60.7155 10.4696 60.1524 8.54856 59.463C7.58296 59.1165 6.89708 58.7602 6.47067 58.4197C6.04289 58.078 6 57.8586 6 57.77H4C4 58.7114 4.55086 59.446 5.22265 59.9825C5.89581 60.5201 6.81532 60.9659 7.873 61.3454C9.99849 62.1082 12.9421 62.6933 16.3111 63.1184C23.0661 63.9708 31.748 64.206 39.5384 63.8288L39.4416 61.8312ZM6 57.77C6 55.7233 6.37054 53.0161 7.01303 50.6328C7.33371 49.4433 7.71456 48.3631 8.13482 47.501C8.56748 46.6135 8.99061 46.0649 9.34228 45.813L8.17772 44.187C7.41939 44.7301 6.81752 45.639 6.33706 46.6246C5.84419 47.6356 5.42379 48.8442 5.08197 50.1122C4.39946 52.6439 4 55.5267 4 57.77H6ZM9.34378 45.8119C10.6396 44.8802 12.2887 44.2447 14.1357 43.6594C15.9267 43.0918 17.9678 42.5558 19.7751 41.8442C21.6074 41.1229 23.3707 40.1628 24.671 38.6352C25.9929 37.0823 26.76 35.0341 26.76 32.29H24.76C24.76 34.6309 24.1184 36.1989 23.1481 37.3388C22.1562 38.5041 20.7439 39.3134 19.0424 39.9833C17.3159 40.663 15.4652 41.1401 13.5315 41.7528C11.6538 42.3478 9.74545 43.0598 8.17622 44.1881L9.34378 45.8119ZM37.2704 31.8575C37.3072 33.1973 37.5777 34.5204 38.0698 35.7671L39.9302 35.0329C39.5236 34.0028 39.3 32.9096 39.2696 31.8025L37.2704 31.8575ZM32 35.5C38.5496 35.5 45 28.1825 45 15.32H43C43 27.7575 36.8704 33.5 32 33.5V35.5ZM45 15.32C45 10.3476 43.8249 6.4976 41.5396 3.87984C39.2356 1.24075 35.9315 0 32 0V2C35.4985 2 38.1944 3.08925 40.0329 5.19516C41.8901 7.3224 43 10.6324 43 15.32H45ZM32 0C28.0685 0 24.7644 1.24075 22.4604 3.87984C20.1751 6.4976 19 10.3476 19 15.32H21C21 10.6324 22.1099 7.3224 23.9671 5.19516C25.8056 3.08925 28.5015 2 32 2V0ZM19 15.32C19 28.2137 25.4513 35.5 32 35.5V33.5C27.1287 33.5 21 27.7863 21 15.32H19ZM61 49C61 55.6274 55.6274 61 49 61V63C56.732 63 63 56.732 63 49H61ZM49 61C42.3726 61 37 55.6274 37 49H35C35 56.732 41.268 63 49 63V61ZM37 49C37 42.3726 42.3726 37 49 37V35C41.268 35 35 41.268 35 49H37ZM49 37C55.6274 37 61 42.3726 61 49H63C63 41.268 56.732 35 49 35V37ZM51.3278 44.8816C50.3256 44.0733 49.2713 43.756 48.2896 43.999C47.33 44.2365 46.6784 44.9524 46.3494 45.7083C46.0238 46.4563 45.9508 47.3813 46.3029 48.1888C46.6838 49.0623 47.5047 49.6593 48.6394 49.7282L48.7606 47.7318C48.3302 47.7057 48.1987 47.5327 48.1362 47.3893C48.0449 47.18 48.0375 46.8412 48.1831 46.5067C48.3253 46.1801 48.5506 45.9947 48.7701 45.9404C48.9675 45.8915 49.3944 45.8917 50.0722 46.4384L51.3278 44.8816ZM48.6441 49.7284C49.7634 49.7911 50.1732 50.6656 50.029 51.3124C49.9626 51.6101 49.7837 51.8389 49.4705 51.9502C49.1295 52.0714 48.4697 52.1057 47.3917 51.6187L46.5683 53.4413C47.9253 54.0543 49.1443 54.1886 50.1401 53.8348C51.1638 53.4711 51.7799 52.6499 51.981 51.7476C52.3718 49.9944 51.2066 47.8689 48.7559 47.7316L48.6441 49.7284ZM48.01 43V44.79H50.01V43H48.01ZM48.01 53.09V54.9H50.01V53.09H48.01Z" fill="#494A4A"/>
<path id="1px" d="M42.41 41.91C40.8028 43.3501 39.7665 45.3198 39.49 47.46M51.52 58.51C53.6076 57.9608 55.4283 56.6796 56.65 54.9M12.73 46.09C10 47 9.94 47.34 9 50.87" stroke="#494A4A" stroke-linecap="round" stroke-linejoin="round"/>
</g>
</g>
<defs>
<clipPath id="clip0_624_21102">
<rect width="64" height="64" fill="white"/>
</clipPath>
</defs>
</svg>
