<svg width="64" height="64" viewBox="0 0 64 64" fill="none" xmlns="http://www.w3.org/2000/svg">
<g id="Pictogram-folder-user">
<g id="stroke-default">
<path id="2px" d="M59.3933 49.9194C59.3488 50.4699 59.759 50.9522 60.3095 50.9968C60.86 51.0413 61.3423 50.6311 61.3868 50.0806L59.3933 49.9194ZM60.6601 22.22L59.6601 22.2174C59.66 22.2492 59.6614 22.2809 59.6644 22.3125L60.6601 22.22ZM56.7701 18.33L56.7148 19.3285C56.7341 19.3295 56.7534 19.3301 56.7727 19.33L56.7701 18.33ZM6.94008 18.53L6.95512 19.5299C6.97427 19.5296 6.9934 19.5288 7.0125 19.5274L6.94008 18.53ZM3.43008 21.77L4.4209 21.9052C4.42273 21.8918 4.42428 21.8783 4.42557 21.8649L3.43008 21.77ZM4.23008 52L3.23886 52.1322L3.23898 52.1332L4.23008 52ZM10.1601 56.71L10.0741 57.7063L10.077 57.7066L10.1601 56.71ZM31.7211 58.02C32.2734 58.0194 32.7207 57.5712 32.7201 57.019C32.7195 56.4667 32.2713 56.0194 31.719 56.02L31.7211 58.02ZM5.00132 18.3498C5.0288 18.9014 5.49823 19.3263 6.04983 19.2988C6.60144 19.2713 7.02632 18.8018 6.99884 18.2502L5.00132 18.3498ZM6.17008 11.8L5.1812 11.6512C5.17886 11.6668 5.17689 11.6824 5.17528 11.6981L6.17008 11.8ZM9.82008 8.22001L9.7449 7.22284C9.73384 7.22367 9.7228 7.22469 9.71177 7.22589L9.82008 8.22001ZM18.8201 8.06001L18.7804 9.05922C18.8074 9.06029 18.8344 9.06027 18.8614 9.05915L18.8201 8.06001ZM23.0301 9.33001L22.4431 10.1396C22.4494 10.1442 22.4557 10.1487 22.4622 10.1531L23.0301 9.33001ZM25.7701 12.33L25.2375 13.1764L25.2414 13.1788L25.7701 12.33ZM52.5801 13.24L52.5249 14.2385L52.5255 14.2385L52.5801 13.24ZM56.6501 15.97L55.6788 16.2079C55.68 16.2129 55.6813 16.2179 55.6826 16.2229L56.6501 15.97ZM55.8083 18.2016C55.7375 18.7494 56.124 19.2508 56.6717 19.3217C57.2194 19.3926 57.7209 19.0061 57.7918 18.4584L55.8083 18.2016ZM52.6201 48C52.6201 47.4477 52.1724 47 51.6201 47C51.0678 47 50.6201 47.4477 50.6201 48H52.6201ZM59.9001 54L60.4387 53.1575L60.4317 53.153L60.4245 53.1486L59.9001 54ZM36.8701 54.16L36.3034 53.336L36.2966 53.3408L36.8701 54.16ZM46.3001 48C46.3001 47.4477 45.8524 47 45.3001 47C44.7478 47 44.3001 47.4477 44.3001 48H46.3001ZM61.3868 50.0806C62.0191 42.2622 62.3133 29.2084 61.6558 22.1275L59.6644 22.3125C60.3069 29.2317 60.021 42.1578 59.3933 49.9194L61.3868 50.0806ZM61.6601 22.2226C61.6617 21.5796 61.5363 20.9427 61.291 20.3483L59.4423 21.1113C59.587 21.4621 59.6611 21.838 59.6601 22.2174L61.6601 22.2226ZM61.291 20.3483C61.0457 19.754 60.6854 19.214 60.2308 18.7593L58.8166 20.1735C59.0849 20.4418 59.2975 20.7605 59.4423 21.1113L61.291 20.3483ZM60.2308 18.7593C59.7761 18.3047 59.2361 17.9443 58.6418 17.6991L57.8788 19.5478C58.2295 19.6926 58.5482 19.9052 58.8166 20.1735L60.2308 18.7593ZM58.6418 17.6991C58.0474 17.4538 57.4105 17.3284 56.7675 17.33L56.7727 19.33C57.1521 19.329 57.528 19.403 57.8788 19.5478L58.6418 17.6991ZM56.8253 17.3315C49.5649 16.9298 17.8007 16.7388 6.86766 17.5326L7.0125 19.5274C17.8395 18.7412 49.5153 18.9302 56.7148 19.3285L56.8253 17.3315ZM6.92503 17.5301C5.79756 17.5471 4.71597 17.9794 3.88741 18.7442L5.24397 20.2138C5.71072 19.783 6.31999 19.5395 6.95512 19.5299L6.92503 17.5301ZM3.88741 18.7442C3.05885 19.509 2.54155 20.5526 2.43459 21.6751L4.42557 21.8649C4.48582 21.2325 4.77723 20.6447 5.24397 20.2138L3.88741 18.7442ZM2.43926 21.6348C1.5725 27.9876 2.00264 42.8656 3.23886 52.1322L5.22129 51.8678C3.99751 42.6944 3.58765 28.0124 4.4209 21.9052L2.43926 21.6348ZM3.23898 52.1332C3.48779 53.9848 4.3214 55.3499 5.59995 56.2665C6.84155 57.1566 8.41797 57.5634 10.0741 57.7063L10.246 55.7137C8.77219 55.5866 7.5986 55.2385 6.7652 54.641C5.96876 54.0701 5.40236 53.2152 5.22117 51.8668L3.23898 52.1332ZM10.077 57.7066C13.1301 57.961 22.1842 58.03 31.7211 58.02L31.719 56.02C22.1359 56.03 13.19 55.959 10.2431 55.7135L10.077 57.7066ZM6.99884 18.2502C6.89335 16.133 6.94886 14.0108 7.16487 11.9019L5.17528 11.6981C4.94895 13.9077 4.89079 16.1313 5.00132 18.3498L6.99884 18.2502ZM7.15895 11.9488C7.32138 10.8691 7.55446 10.3029 7.88375 9.95634C8.19713 9.62654 8.74711 9.34283 9.92838 9.21413L9.71177 7.22589C8.32304 7.37719 7.21802 7.75348 6.43391 8.57868C5.66569 9.38714 5.35877 10.471 5.1812 11.6512L7.15895 11.9488ZM9.89525 9.21718C12.8515 8.99432 15.8181 8.94158 18.7804 9.05922L18.8598 7.0608C15.8209 6.94011 12.7776 6.99422 9.7449 7.22284L9.89525 9.21718ZM18.8614 9.05915C20.1429 9.0061 21.4048 9.38676 22.4431 10.1396L23.6171 8.52042C22.2144 7.50343 20.5098 6.9892 18.7787 7.06087L18.8614 9.05915ZM22.4622 10.1531C22.8012 10.3871 23.1628 10.8456 23.6435 11.4817C23.8626 11.7715 24.1051 12.0937 24.3524 12.3781C24.5954 12.6576 24.8914 12.9586 25.2375 13.1764L26.3026 11.4836C26.2038 11.4214 26.0597 11.2936 25.8618 11.0659C25.6682 10.8432 25.4688 10.5798 25.2391 10.2758C24.8224 9.72441 24.2589 8.96296 23.598 8.50693L22.4622 10.1531ZM25.2414 13.1788C26.6745 14.0714 28.2541 14 29.7701 14V12C28.066 12 27.1456 12.0086 26.2987 11.4812L25.2414 13.1788ZM29.7701 14C39.0983 14 48.2203 14.0004 52.5249 14.2385L52.6353 12.2415C48.2599 11.9996 39.0619 12 29.7701 12V14ZM52.5255 14.2385C53.6744 14.3013 54.3954 14.5783 54.8465 14.911C55.2841 15.2338 55.5461 15.6661 55.6788 16.2079L57.6214 15.7321C57.3941 14.804 56.901 13.9412 56.0336 13.3015C55.1798 12.6717 54.0458 12.3187 52.6347 12.2415L52.5255 14.2385ZM55.6826 16.2229C55.8513 16.8683 55.894 17.5401 55.8083 18.2016L57.7918 18.4584C57.9104 17.5419 57.8513 16.6112 57.6176 15.7171L55.6826 16.2229ZM50.6201 48C50.6201 49.3835 51.0252 50.4717 51.7476 51.316C52.4479 52.1343 53.3809 52.646 54.3013 53.0183C55.2093 53.3856 56.2291 53.662 57.094 53.9272C58.0017 54.2055 58.7717 54.4795 59.3757 54.8515L60.4245 53.1486C59.5835 52.6306 58.596 52.2958 57.6802 52.015C56.7217 51.7211 55.8521 51.4882 55.0513 51.1642C54.263 50.8453 53.6679 50.4838 53.2672 50.0156C52.8887 49.5733 52.6201 48.9615 52.6201 48H50.6201ZM59.3614 54.8425C59.4606 54.9059 59.6454 55.0933 59.8673 55.4955C60.0783 55.878 60.2784 56.3737 60.4512 56.9395C60.7982 58.0761 61.0001 59.38 61.0001 60.39H63.0001C63.0001 59.16 62.762 57.6589 62.364 56.3555C62.1643 55.7014 61.9156 55.0682 61.6185 54.5295C61.3322 54.0104 60.9496 53.4841 60.4387 53.1575L59.3614 54.8425ZM61.0001 60.39C61.0001 60.2401 61.0824 60.1944 61.0108 60.2619C60.9317 60.3365 60.7591 60.4542 60.4426 60.5913C59.8146 60.8632 58.853 61.1136 57.6153 61.322C55.1581 61.7358 51.8431 61.9475 48.5001 61.9475C45.157 61.9475 41.842 61.7358 39.3849 61.322C38.1471 61.1136 37.1856 60.8632 36.5576 60.5913C36.2411 60.4542 36.0685 60.3365 35.9894 60.2619C35.9178 60.1944 36.0001 60.2401 36.0001 60.39H34.0001C34.0001 60.9662 34.2933 61.4115 34.6172 61.717C34.9336 62.0153 35.3411 62.2439 35.7629 62.4266C36.6115 62.794 37.7593 63.0764 39.0528 63.2942C41.6581 63.733 45.0931 63.9475 48.5001 63.9475C51.907 63.9475 55.342 63.733 57.9474 63.2942C59.2409 63.0764 60.3887 62.794 61.2373 62.4266C61.659 62.2439 62.0665 62.0153 62.3829 61.717C62.7068 61.4115 63.0001 60.9662 63.0001 60.39H61.0001ZM36.0001 60.39C36.0001 59.4457 36.1774 58.1702 36.4868 57.0452C36.6409 56.4849 36.8199 55.991 37.0095 55.6091C37.2116 55.2022 37.3745 55.0275 37.4435 54.9792L36.2966 53.3408C35.8156 53.6775 35.4698 54.2129 35.2182 54.7196C34.954 55.2515 34.7343 55.8751 34.5584 56.5149C34.2078 57.7898 34.0001 59.2443 34.0001 60.39H36.0001ZM37.4367 54.984C38.0127 54.5879 38.7674 54.306 39.6785 54.0311C40.5354 53.7726 41.5915 53.5058 42.5112 53.154C43.453 52.7937 44.4171 52.2894 45.1412 51.449C45.8875 50.5829 46.3001 49.4532 46.3001 48H44.3001C44.3001 49.0469 44.0151 49.6921 43.6261 50.1435C43.2149 50.6207 42.6059 50.9764 41.7965 51.286C40.9649 51.6042 40.0916 51.8174 39.1008 52.1164C38.164 52.399 37.1525 52.7522 36.3034 53.336L37.4367 54.984ZM48.5001 50C50.2243 50 51.8775 48.9794 53.0586 47.2487C54.2444 45.511 55.0001 43.0118 55.0001 39.84H53.0001C53.0001 42.7083 52.3158 44.789 51.4066 46.1213C50.4926 47.4606 49.3959 48 48.5001 48V50ZM55.0001 39.84C55.0001 37.4005 54.4463 35.4271 53.2916 34.049C52.1136 32.6432 50.4312 32 48.5001 32V34C49.9689 34 51.0366 34.4718 51.7586 35.3335C52.5039 36.2229 53.0001 37.6695 53.0001 39.84H55.0001ZM48.5001 32C46.5689 32 44.8866 32.6432 43.7086 34.049C42.5539 35.4271 42.0001 37.4005 42.0001 39.84H44.0001C44.0001 37.6695 44.4963 36.2229 45.2416 35.3335C45.9636 34.4718 47.0312 34 48.5001 34V32ZM42.0001 39.84C42.0001 43.0118 42.7558 45.511 43.9416 47.2487C45.1226 48.9794 46.7759 50 48.5001 50V48C47.6043 48 46.5075 47.4606 45.5936 46.1213C44.6844 44.789 44.0001 42.7083 44.0001 39.84H42.0001Z" fill="#494A4A"/>
<path id="1px" d="M8.53027 49C8.53027 50.16 8.61027 51.34 9.12027 51.76C9.89027 52.39 11.0503 52.41 12.7603 52.48M11.3003 33.51C13.5803 33.37 16.8003 33.51 19.0603 33.51M11.3003 36.51C13.5803 36.37 19.3003 36.51 21.5203 36.51M22.4903 33.52C23.1203 33.63 24.2603 33.44 24.6003 33.52M11.5003 39.48C12.1303 39.59 15.5003 39.4 15.8803 39.48M27.3903 29.34C24.9703 29.51 13.4803 29.59 11.6103 29.34C11.3465 29.2942 11.1029 29.1692 10.9118 28.9817C10.7206 28.7941 10.5911 28.5529 10.5403 28.29C10.4592 27.4453 10.4592 26.5948 10.5403 25.75C10.5858 25.4915 10.7136 25.2545 10.9046 25.0744C11.0955 24.8942 11.3395 24.7805 11.6003 24.75C16.8348 24.4099 22.0858 24.4099 27.3203 24.75C27.5764 24.7488 27.8246 24.8387 28.0206 25.0035C28.2166 25.1684 28.3476 25.3975 28.3903 25.65C28.5397 26.5606 28.5397 27.4895 28.3903 28.4C28.3584 28.6483 28.2412 28.8778 28.0588 29.0493C27.8764 29.2208 27.6401 29.3235 27.3903 29.34Z" stroke="#494A4A" stroke-linecap="round" stroke-linejoin="round"/>
</g>
</g>
</svg>
