<svg width="64" height="64" viewBox="0 0 64 64" fill="none" xmlns="http://www.w3.org/2000/svg">
<g id="  Pictogram-silver-rank-3" clip-path="url(#clip0_622_42024)">
<g id="stroke-default">
<path id="2px" d="M15.0009 43.1001C14.8009 48.6001 13.0009 61.8001 15.0009 62.8001C18.0009 64.2001 29.1009 58.0001 31.2009 58.1001C34.3009 58.3001 44.9009 64.2001 47.3009 62.9001C49.2009 61.8001 47.9009 51.0001 47.6009 45.8001M31.101 16.7001C32.501 16.7001 34.601 23.7001 35.701 24.4001C36.801 25.1001 43.401 25.1001 43.601 26.3001C43.801 27.5001 38.801 31.9001 38.201 32.9001C37.601 33.9001 40.001 40.4001 38.901 41.0001C37.801 41.6001 32.501 36.9001 31.201 36.9001C29.901 36.9001 24.601 41.6001 23.501 41.0001C22.401 40.4001 24.301 34.1001 24.101 32.7001C23.901 31.3001 18.201 27.9001 18.701 26.3001C19.201 24.7001 26.101 24.8001 26.801 24.3001C27.501 23.8001 29.901 16.6001 31.301 16.6001L31.101 16.7001ZM43.7012 9.50007C41.2012 8.20007 23.5012 8.00007 20.4012 9.50007C17.3012 11.0001 8.70117 25.6001 8.70117 29.7001C8.70117 33.8001 17.6012 48.3001 20.4012 49.9001C23.2012 51.5001 41.1012 51.1001 43.7012 49.9001C46.3012 48.7001 55.4012 34.4001 55.4012 29.7001C55.4012 25.0001 46.3012 10.8001 43.7012 9.50007Z" stroke="#494A4A" stroke-width="2" stroke-linecap="round" stroke-linejoin="round"/>
<path id="1px" d="M29.6992 24.4998C29.9992 23.7998 30.3992 22.8998 30.5992 22.2998M46.8989 40.2999C48.1989 37.9999 49.4989 35.4999 49.9989 33.8999M44.2988 44.1999C44.6988 43.6999 44.9988 43.0999 45.3988 42.3999" stroke="#494A4A" stroke-linecap="round" stroke-linejoin="round"/>
</g>
</g>
<defs>
<clipPath id="clip0_622_42024">
<rect width="64" height="64" fill="white"/>
</clipPath>
</defs>
</svg>
