<svg width="64" height="64" viewBox="0 0 64 64" fill="none" xmlns="http://www.w3.org/2000/svg">
<g id="Pictogram-community-chat" clip-path="url(#clip0_622_41945)">
<g id="stroke-default">
<path id="2px" d="M27.3255 14.7953C27.7253 12.9958 27.7253 10.9965 27.3255 8.99711C25.526 0.699724 18.6282 1.29954 13.6298 4.99837M15.9291 6.4979C9.73101 1.69941 1.43363 4.79843 3.33303 13.9955C3.7329 16.0949 4.63262 17.8943 5.73227 19.4938M41.1211 3.99868C39.2217 0.0999134 34.3233 -0.399929 33.0237 4.5985C31.7241 9.59692 35.6229 13.8956 37.5223 14.3954C39.2217 14.7953 44.82 12.9959 46.1195 7.99743C47.3192 3.49884 43.6203 2.09928 40.3214 2.69909M8.63136 23.9924C4.53265 22.193 0.333975 24.9921 2.63325 29.8905C4.93253 34.789 10.8307 35.4888 12.6301 34.689C14.2296 33.8893 17.5286 28.7909 15.2293 23.8924C13.1299 19.4938 9.33114 20.7934 7.03187 23.4925M34.2233 34.2891C34.2233 34.2891 34.7231 34.589 34.7231 34.789C34.7231 34.9889 34.9231 34.9889 34.4232 35.3888C34.2233 35.5887 33.9234 35.3888 33.8234 35.0889C33.7235 34.789 33.5235 34.3891 34.1233 34.4891M41.2211 34.9889C41.2211 34.9889 41.7209 35.0889 41.8209 35.3888C41.9209 35.6887 42.0208 35.7887 41.521 35.9886C41.1211 36.1885 41.0212 35.9886 40.9212 35.6887C40.8212 35.3888 40.9212 35.0889 41.2211 35.0889M48.2189 35.3888C48.2189 35.3888 48.5188 35.5887 48.7187 35.7887C48.9187 35.9886 48.7187 36.2885 48.4188 36.3885C48.1189 36.4884 47.919 36.3885 47.819 36.0886C47.719 35.7887 47.819 35.5887 48.1189 35.4888M60.0152 22.093C53.8171 16.4947 26.0259 15.595 21.8272 21.4932C18.6282 25.8918 19.228 42.5865 23.4267 49.1844C26.1258 53.4831 40.2214 52.2835 42.4207 53.3831C44.72 54.5827 49.6184 63.28 51.7178 62.3803C53.8171 61.4806 52.1177 54.8827 52.9174 53.4831C53.9171 51.7836 57.8159 51.2838 58.8155 49.6843C62.3144 44.7858 65.0136 26.4916 60.0152 22.093Z" stroke="#494A4A" stroke-width="1.99937" stroke-linecap="round" stroke-linejoin="round"/>
<path id="1px" d="M7.82895 8.3974C6.52936 8.99721 5.92955 10.3968 6.12948 11.8963" stroke="#494A4A" stroke-width="0.999685" stroke-linecap="round" stroke-linejoin="round"/>
</g>
</g>
<defs>
<clipPath id="clip0_622_41945">
<rect width="64" height="64" fill="white"/>
</clipPath>
</defs>
</svg>
