<svg width="64" height="64" viewBox="0 0 64 64" fill="none" xmlns="http://www.w3.org/2000/svg">
<g id="Pictogram-building" clip-path="url(#clip0_622_41935)">
<g id="stroke-default">
<path id="2px" d="M40 61.9004C43.6 61.9004 44.9 61.7004 47 61.6004C49.1 61.5004 50.6 60.5004 50.7 57.5004C51.1 46.7004 51.1 27.2004 50.8 13.4004M13.1001 13.5996C13.1001 24.0996 12.8001 48.2996 13.1001 58.6996C13.1001 60.6996 14.0001 61.4996 15.9001 61.6996C17.7001 61.8996 20.1001 61.8996 23.8001 61.9996M50.7002 58.0005C51.3002 58.0005 57.7002 58.0005 59.7002 58.0005C61.7002 58.0005 62.5002 57.8005 62.7002 54.8005C63.1002 48.7005 63.1002 38.6005 62.7002 32.5005C62.6002 30.5005 61.8002 29.7005 60.6002 29.4005C58.4002 29.0005 53.4002 29.0005 51.2002 29.1005M12.9998 58C12.3998 58 5.49984 58 3.49984 57.8C1.49984 57.6 1.29984 56.7 1.19984 54.5C0.999837 47.7 1.09984 39 1.29984 30.8C1.29984 29.5 2.19984 28.5 3.59984 28.3C5.39984 28 8.79984 28.1 12.7998 28.1M26.2001 60.0002C26.2001 60.0002 25.9001 49.7002 26.4001 49.3002C26.8001 49.0002 37.0001 48.8002 37.5001 49.4002C37.9001 49.8002 38.2001 59.8003 37.7001 60.1003M53.1 11.2C46.2 7 35.1 1 32 1C28.9 1 17.3 7.4 10.4 11.9C8.80003 13 11.4 13.9 14 13.2C20.7 11.3 29.4 7 32 7C35 7 43 11 49.9 13.2C51.2 13.6 55 12.4 53 11.2H53.1ZM24.3002 62.8002C24.3002 62.8002 24.0002 60.7002 24.5002 60.3002C24.9002 60.0002 38.8002 59.8002 39.4002 60.4002C39.8002 60.8002 40.1002 62.6002 39.6002 62.9002C39.1002 63.2002 24.7002 63.1002 24.3002 62.9002V62.8002Z" stroke="#494A4A" stroke-width="2" stroke-linecap="round" stroke-linejoin="round"/>
<path id="1px" d="M47.5 55.2998C47.6 57.7998 47.1 58.3998 45.5 58.3998M10.4999 53.5C10.3999 54.7 8.1999 54.5 7.3999 54.5M22.7998 29.4001C22.1998 29.5001 19.2998 29.5001 18.6998 29.4001C17.9998 29.3001 17.6998 28.9001 17.5998 28.5001C17.4998 28.0001 17.3998 22.9001 17.5998 21.9001C17.6998 21.2001 18.2998 20.7001 19.1998 20.6001C19.8998 20.6001 22.1998 20.5001 22.9998 20.6001C23.5998 20.7001 24.2998 21.0001 24.3998 21.6001C24.4998 22.1001 24.5998 26.8001 24.3998 27.9001C24.1998 28.8001 23.7998 29.3001 22.8998 29.5001L22.7998 29.4001ZM33.7998 29.4001C33.1998 29.5001 30.2998 29.5001 29.6998 29.4001C28.9998 29.3001 28.6998 28.9001 28.5998 28.5001C28.4998 28.0001 28.3998 22.9001 28.5998 21.9001C28.6998 21.2001 29.2998 20.7001 30.1998 20.6001C30.8998 20.6001 33.1998 20.5001 33.9998 20.6001C34.5998 20.7001 35.2998 21.0001 35.3998 21.6001C35.4998 22.1001 35.5998 26.8001 35.3998 27.9001C35.1998 28.8001 34.7998 29.3001 33.8998 29.5001L33.7998 29.4001ZM44.7998 29.4001C44.1998 29.5001 41.2998 29.5001 40.6998 29.4001C39.9998 29.3001 39.6998 28.9001 39.5998 28.5001C39.4998 28.0001 39.3998 22.9001 39.5998 21.9001C39.6998 21.2001 40.2998 20.7001 41.1998 20.6001C41.8998 20.6001 44.1998 20.5001 44.9998 20.6001C45.5998 20.7001 46.2998 21.0001 46.3998 21.6001C46.4998 22.1001 46.5998 26.8001 46.3998 27.9001C46.1998 28.8001 45.7998 29.3001 44.8998 29.5001L44.7998 29.4001ZM22.7998 41.4001C22.1998 41.5001 19.2998 41.5001 18.6998 41.4001C17.9998 41.3001 17.6998 40.9001 17.5998 40.5001C17.4998 40.0001 17.3998 34.9001 17.5998 33.9001C17.6998 33.2001 18.2998 32.7001 19.1998 32.6001C19.8998 32.6001 22.1998 32.5001 22.9998 32.6001C23.5998 32.7001 24.2998 33.0001 24.3998 33.6001C24.4998 34.1001 24.5998 38.8001 24.3998 39.9001C24.1998 40.8001 23.7998 41.3001 22.8998 41.5001L22.7998 41.4001ZM33.7998 41.4001C33.1998 41.5001 30.2998 41.5001 29.6998 41.4001C28.9998 41.3001 28.6998 40.9001 28.5998 40.5001C28.4998 40.0001 28.3998 34.9001 28.5998 33.9001C28.6998 33.2001 29.2998 32.7001 30.1998 32.6001C30.8998 32.6001 33.1998 32.5001 33.9998 32.6001C34.5998 32.7001 35.2998 33.0001 35.3998 33.6001C35.4998 34.1001 35.5998 38.8001 35.3998 39.9001C35.1998 40.8001 34.7998 41.3001 33.8998 41.5001L33.7998 41.4001ZM44.7998 41.4001C44.1998 41.5001 41.2998 41.5001 40.6998 41.4001C39.9998 41.3001 39.6998 40.9001 39.5998 40.5001C39.4998 40.0001 39.3998 34.9001 39.5998 33.9001C39.6998 33.2001 40.2998 32.7001 41.1998 32.6001C41.8998 32.6001 44.1998 32.5001 44.9998 32.6001C45.5998 32.7001 46.2998 33.0001 46.3998 33.6001C46.4998 34.1001 46.5998 38.8001 46.3998 39.9001C46.1998 40.8001 45.7998 41.3001 44.8998 41.5001L44.7998 41.4001ZM58.3001 40.4001C58.3001 40.4001 55.8001 40.4001 55.4001 40.4001C54.9001 40.3001 54.7001 39.9001 54.6001 39.6001C54.6001 39.2001 54.5001 34.7001 54.6001 33.7001C54.6001 33.1001 55.1001 32.6001 55.7001 32.6001C56.2001 32.6001 57.8001 32.5001 58.4001 32.6001C58.8001 32.6001 59.3001 33.0001 59.4001 33.5001C59.4001 33.9001 59.5001 38.1001 59.4001 39.0001C59.2001 39.8001 59.0001 40.2001 58.3001 40.4001ZM58.3001 51.4001C58.3001 51.4001 55.8001 51.5001 55.4001 51.4001C54.9001 51.3001 54.7001 50.9001 54.6001 50.6001C54.6001 50.2001 54.5001 45.7001 54.6001 44.7001C54.6001 44.1001 55.1001 43.6001 55.7001 43.6001C56.2001 43.6001 57.8001 43.5001 58.4001 43.6001C58.8001 43.6001 59.3001 44.0001 59.4001 44.5001C59.4001 44.9001 59.5001 49.1001 59.4001 50.1001C59.2001 50.9001 59.0001 51.3001 58.3001 51.5001V51.4001ZM5.70011 39.3995C5.70011 39.3995 7.80011 39.3995 8.30011 39.3995C9.00011 39.3995 9.40011 38.8995 9.40011 38.4995C9.40011 38.0995 9.50011 33.5995 9.40011 32.5995C9.40011 31.9995 8.90011 31.4995 8.30011 31.4995C7.80011 31.4995 6.20011 31.3995 5.60011 31.4995C5.20011 31.4995 4.70011 31.8995 4.60011 32.3995C4.60011 32.7995 4.50011 36.9995 4.60011 37.8995C4.80011 38.6995 5.00011 39.0995 5.70011 39.2995V39.3995ZM8.3001 50.3995C8.3001 50.3995 5.8001 50.4995 5.4001 50.3995C4.9001 50.2995 4.6001 49.8995 4.6001 49.0995C4.6001 48.4995 4.6001 44.5995 4.6001 43.5995C4.6001 42.9995 5.1001 42.4995 5.7001 42.4995C6.2001 42.4995 7.8001 42.3995 8.4001 42.4995C8.8001 42.4995 9.3001 42.8995 9.4001 43.3995C9.4001 43.7995 9.5001 47.6995 9.4001 48.7995C9.4001 49.5995 8.9001 50.1995 8.3001 50.2995V50.3995Z" stroke="#494A4A" stroke-linecap="round" stroke-linejoin="round"/>
</g>
</g>
<defs>
<clipPath id="clip0_622_41935">
<rect width="64" height="64" fill="white"/>
</clipPath>
</defs>
</svg>
