<svg width="64" height="64" viewBox="0 0 64 64" fill="none" xmlns="http://www.w3.org/2000/svg">
<g id="Pictogram-shop">
<g id="stroke-default">
<path id="2px" d="M6.99948 13.0002C6.19948 9.40018 5.59948 3.70018 6.99948 3.40018C18.1995 1.10018 48.6995 0.900179 57.9995 2.40018C60.0995 2.80018 58.6995 8.70018 56.9995 13.0002M6.99948 13.0002C5.89948 13.5002 2.59961 18.8001 1.99961 21.0001C1.49961 23.0001 1.09961 28.4001 2.99961 29.0001C8.29961 30.6001 9.99961 26.0001 12.9996 26.0001C15.9996 26.0001 16.9996 29.0001 21.9996 29.0001C26.9996 29.0001 28.9996 26.0001 31.9996 26.0001C34.9996 26.0001 36.9996 29.0001 41.9996 29.0001C46.9996 29.0001 47.9996 26.0001 50.9996 26.0001C53.9996 26.0001 57.3996 31.4001 60.9996 29.0001C62.6996 27.9001 62.3996 23.0001 61.9996 21.0001C61.4996 18.8001 57.5995 13.4002 56.9995 13.0002M6.99948 13.0002C9.19948 12.0002 55.7995 12.1002 56.9995 13.0002M4.9995 30C4.5995 36.5 4.2995 47.6 4.9995 55C5.1995 57 5.9995 58.8 7.9995 59C15.5995 59.8 28.2995 60.1 35.3995 59C37.3995 58.7 38.6995 57.6 38.9995 55.7C39.6995 49.9 39.4995 37 38.9995 29M58.9995 30C59.6995 38.2 59.3995 51.1 58.9995 57.4C58.9995 58.7 58.4995 59 56.4995 59C54.4995 59 53.9995 58.6 53.9995 57.3C53.9995 48.9 53.9995 36.9 53.9995 28M53.9995 56C52.9995 56 41.0995 56 38.9995 56" stroke="#494A4A" stroke-width="2" stroke-linecap="round" stroke-linejoin="round"/>
<path id="1px" d="M4.7998 52.1001C12.4998 52.8001 29.7998 52.8001 38.9998 52.3001M26.3998 33.6001L16.7998 46.2001M27.4998 36.5L21.2998 45.3M19.0001 39.2002L16.1001 42.8002M49.8998 35.7998L44.2998 42.7998M48.6998 41.2002L44.2998 46.6002M13.5 26V21.5L14.9 12.5M31.7998 12.2998L31.8998 21.4998L31.9998 25.9998M2 21.0001C17.7 22.6001 45.8 22.1001 61.5 19.6001M47.6001 12.2998L50.3001 20.8998V25.9998M14.8999 2.7002V8.9002M31.3999 2.3999L31.5999 8.8999M47.5 2.2002V7.10019" stroke="#494A4A" stroke-linecap="round" stroke-linejoin="round"/>
</g>
</g>
</svg>
