<svg width="64" height="64" viewBox="0 0 64 64" fill="none" xmlns="http://www.w3.org/2000/svg">
<g id="Pictogram-calendar-search">
<g id="stroke-default">
<path id="2px" d="M38.6999 60.0004C39.2521 60.0004 39.6999 59.5527 39.6999 59.0004C39.6999 58.4481 39.2521 58.0004 38.6999 58.0004V60.0004ZM29.5999 58.9004L29.6829 57.9038C29.6754 57.9032 29.6679 57.9027 29.6604 57.9022L29.5999 58.9004ZM19.9999 47.1004L20.9786 46.8952L20.978 46.8923L19.9999 47.1004ZM10.9999 41.1004L10.821 40.1165L10.8156 40.1175L10.9999 41.1004ZM5.19987 38.1004L6.19641 38.0173L5.19987 38.1004ZM16.0999 5.60039V4.60039C16.0705 4.60039 16.0412 4.60168 16.012 4.60426L16.0999 5.60039ZM16.6999 6.60039C17.2521 6.60039 17.6999 6.15268 17.6999 5.60039C17.6999 5.04811 17.2521 4.60039 16.6999 4.60039V6.60039ZM46.4999 4.50039C45.9476 4.50039 45.4999 4.94811 45.4999 5.50039C45.4999 6.05268 45.9476 6.50039 46.4999 6.50039V4.50039ZM47.8999 5.60039L47.7355 6.58678C47.7585 6.59063 47.7818 6.59367 47.8051 6.59589L47.8999 5.60039ZM58.4999 16.2004L59.4954 16.1065L59.4954 16.1056L58.4999 16.2004ZM58.0999 38.0004C58.0999 38.5527 58.5476 39.0004 59.0999 39.0004C59.6521 39.0004 60.0999 38.5527 60.0999 38.0004H58.0999ZM20.3403 4.30217C19.789 4.33508 19.3687 4.80868 19.4016 5.35999C19.4346 5.91129 19.9082 6.33153 20.4595 6.29861L20.3403 4.30217ZM42.5452 6.29889C43.0966 6.32911 43.5682 5.90656 43.5984 5.3551C43.6286 4.80365 43.206 4.3321 42.6546 4.30189L42.5452 6.29889ZM29.2999 59.8004C29.8521 59.8004 30.2999 59.3527 30.2999 58.8004C30.2999 58.2481 29.8521 57.8004 29.2999 57.8004V59.8004ZM6.19987 38.0004C6.19987 37.4481 5.75215 37.0004 5.19987 37.0004C4.64758 37.0004 4.19987 37.4481 4.19987 38.0004H6.19987ZM42.6999 9.10039H43.6999C43.6999 9.05074 43.6962 9.00115 43.6888 8.95205L42.6999 9.10039ZM43.0999 2.30039L44.0557 2.5945L44.0592 2.58256L43.0999 2.30039ZM46.1999 2.30039L47.1743 2.07553C47.1698 2.05628 47.1648 2.03717 47.1592 2.01822L46.1999 2.30039ZM45.7999 9.40039L44.8296 9.15783L44.8264 9.17135L45.7999 9.40039ZM42.6999 9.20039H41.6999C41.6999 9.25865 41.705 9.3168 41.7151 9.37418L42.6999 9.20039ZM20.3999 9.10039L19.4109 8.95205C19.4036 9.00115 19.3999 9.05074 19.3999 9.10039H20.3999ZM19.9999 2.30039L19.0404 2.58258L19.0441 2.59448L19.9999 2.30039ZM16.8999 2.30039L15.9405 2.01822C15.9349 2.03717 15.9299 2.05628 15.9255 2.07553L16.8999 2.30039ZM17.2999 9.40039L18.2734 9.17133L18.27 9.15786L17.2999 9.40039ZM20.3999 9.20039L21.3846 9.37418C21.3948 9.3168 21.3999 9.25865 21.3999 9.20039H20.3999ZM52.8999 55.4L53.8311 55.0356C53.6811 54.6523 53.3115 54.4 52.8999 54.4V55.4ZM57.4999 62.2L58.2592 61.5492L58.2525 61.5415L57.4999 62.2ZM59.8999 62.9L60.1424 63.8701C60.1597 63.8658 60.1769 63.861 60.194 63.8558L59.8999 62.9ZM62.6999 60.3L63.6103 60.7138L63.6137 60.7061L62.6999 60.3ZM62.2999 58.1L63.132 57.5453C63.12 57.5273 63.1074 57.5097 63.0943 57.4926L62.2999 58.1ZM56.2999 53.1L55.8527 53.9944L56.2999 53.1ZM52.7999 55.4L51.8636 55.7511C52.0099 56.1414 52.3831 56.4 52.7999 56.4V55.4ZM38.6999 58.0004C35.2631 58.0004 30.8285 57.9993 29.6829 57.9038L29.5168 59.8969C30.7712 60.0015 35.3366 60.0004 38.6999 60.0004V58.0004ZM29.6604 57.9022C26.6761 57.7214 24.8858 56.4882 23.6452 54.6218C22.3512 52.6751 21.63 50.0019 20.9786 46.8952L19.0211 47.3056C19.6697 50.3989 20.4485 53.4257 21.9796 55.729C23.564 58.1126 25.9236 59.6794 29.5394 59.8986L29.6604 57.9022ZM20.978 46.8923C20.4548 44.4332 19.4998 42.3986 17.7726 41.152C16.0308 39.8949 13.7163 39.5901 10.821 40.1165L11.1788 42.0843C13.7834 41.6107 15.469 41.9559 16.6021 42.7738C17.7499 43.6022 18.545 45.0676 19.0218 47.3085L20.978 46.8923ZM10.8156 40.1175C9.18257 40.4237 8.07603 40.503 7.35968 40.2376C7.05057 40.1232 6.81709 39.9432 6.63277 39.6456C6.43534 39.3269 6.2634 38.8212 6.19641 38.0173L4.20332 38.1834C4.28633 39.1796 4.51439 40.0238 4.93258 40.6989C5.36389 41.3951 5.96166 41.8526 6.66505 42.1131C7.9737 42.5978 9.61716 42.3771 11.1842 42.0833L10.8156 40.1175ZM6.19641 38.0173C5.80339 33.3011 6.19743 22.3702 6.59765 16.3669L4.60208 16.2339C4.2023 22.2306 3.79634 33.2996 4.20332 38.1834L6.19641 38.0173ZM6.59765 16.3669C6.78676 13.5303 7.65325 11.2461 9.18125 9.60736C10.7029 7.97542 12.9773 6.8798 16.1878 6.59652L16.012 4.60426C12.4224 4.92099 9.64681 6.17536 7.71848 8.24342C5.79648 10.3047 4.81297 13.0705 4.60208 16.2339L6.59765 16.3669ZM16.0999 6.60039C16.1005 6.60039 16.101 6.60039 16.1016 6.60039C16.1022 6.60039 16.1028 6.60039 16.1034 6.60039C16.1039 6.60039 16.1045 6.60039 16.1051 6.60039C16.1057 6.60039 16.1063 6.60039 16.1068 6.60039C16.1074 6.60039 16.108 6.60039 16.1086 6.60039C16.1091 6.60039 16.1097 6.60039 16.1103 6.60039C16.1109 6.60039 16.1114 6.60039 16.112 6.60039C16.1126 6.60039 16.1131 6.60039 16.1137 6.60039C16.1143 6.60039 16.1148 6.60039 16.1154 6.60039C16.116 6.60039 16.1165 6.60039 16.1171 6.60039C16.1177 6.60039 16.1182 6.60039 16.1188 6.60039C16.1194 6.60039 16.1199 6.60039 16.1205 6.60039C16.121 6.60039 16.1216 6.60039 16.1221 6.60039C16.1227 6.60039 16.1233 6.60039 16.1238 6.60039C16.1244 6.60039 16.1249 6.60039 16.1255 6.60039C16.126 6.60039 16.1266 6.60039 16.1271 6.60039C16.1277 6.60039 16.1282 6.60039 16.1288 6.60039C16.1293 6.60039 16.1299 6.60039 16.1304 6.60039C16.131 6.60039 16.1315 6.60039 16.1321 6.60039C16.1326 6.60039 16.1331 6.60039 16.1337 6.60039C16.1342 6.60039 16.1348 6.60039 16.1353 6.60039C16.1358 6.60039 16.1364 6.60039 16.1369 6.60039C16.1375 6.60039 16.138 6.60039 16.1385 6.60039C16.1391 6.60039 16.1396 6.60039 16.1401 6.60039C16.1407 6.60039 16.1412 6.60039 16.1417 6.60039C16.1423 6.60039 16.1428 6.60039 16.1433 6.60039C16.1439 6.60039 16.1444 6.60039 16.1449 6.60039C16.1454 6.60039 16.146 6.60039 16.1465 6.60039C16.147 6.60039 16.1475 6.60039 16.1481 6.60039C16.1486 6.60039 16.1491 6.60039 16.1496 6.60039C16.1502 6.60039 16.1507 6.60039 16.1512 6.60039C16.1517 6.60039 16.1522 6.60039 16.1527 6.60039C16.1533 6.60039 16.1538 6.60039 16.1543 6.60039C16.1548 6.60039 16.1553 6.60039 16.1558 6.60039C16.1564 6.60039 16.1569 6.60039 16.1574 6.60039C16.1579 6.60039 16.1584 6.60039 16.1589 6.60039C16.1594 6.60039 16.1599 6.60039 16.1604 6.60039C16.1609 6.60039 16.1614 6.60039 16.1619 6.60039C16.1625 6.60039 16.163 6.60039 16.1635 6.60039C16.164 6.60039 16.1645 6.60039 16.165 6.60039C16.1655 6.60039 16.166 6.60039 16.1665 6.60039C16.167 6.60039 16.1675 6.60039 16.168 6.60039C16.1685 6.60039 16.169 6.60039 16.1695 6.60039C16.17 6.60039 16.1704 6.60039 16.1709 6.60039C16.1714 6.60039 16.1719 6.60039 16.1724 6.60039C16.1729 6.60039 16.1734 6.60039 16.1739 6.60039C16.1744 6.60039 16.1749 6.60039 16.1754 6.60039C16.1759 6.60039 16.1763 6.60039 16.1768 6.60039C16.1773 6.60039 16.1778 6.60039 16.1783 6.60039C16.1788 6.60039 16.1792 6.60039 16.1797 6.60039C16.1802 6.60039 16.1807 6.60039 16.1812 6.60039C16.1817 6.60039 16.1821 6.60039 16.1826 6.60039C16.1831 6.60039 16.1836 6.60039 16.1841 6.60039C16.1845 6.60039 16.185 6.60039 16.1855 6.60039C16.186 6.60039 16.1864 6.60039 16.1869 6.60039C16.1874 6.60039 16.1878 6.60039 16.1883 6.60039C16.1888 6.60039 16.1893 6.60039 16.1897 6.60039C16.1902 6.60039 16.1907 6.60039 16.1911 6.60039C16.1916 6.60039 16.1921 6.60039 16.1925 6.60039C16.193 6.60039 16.1935 6.60039 16.1939 6.60039C16.1944 6.60039 16.1949 6.60039 16.1953 6.60039C16.1958 6.60039 16.1963 6.60039 16.1967 6.60039C16.1972 6.60039 16.1976 6.60039 16.1981 6.60039C16.1986 6.60039 16.199 6.60039 16.1995 6.60039C16.1999 6.60039 16.2004 6.60039 16.2008 6.60039C16.2013 6.60039 16.2018 6.60039 16.2022 6.60039C16.2027 6.60039 16.2031 6.60039 16.2036 6.60039C16.204 6.60039 16.2045 6.60039 16.2049 6.60039C16.2054 6.60039 16.2058 6.60039 16.2063 6.60039C16.2067 6.60039 16.2072 6.60039 16.2076 6.60039C16.2081 6.60039 16.2085 6.60039 16.209 6.60039C16.2094 6.60039 16.2099 6.60039 16.2103 6.60039C16.2107 6.60039 16.2112 6.60039 16.2116 6.60039C16.2121 6.60039 16.2125 6.60039 16.213 6.60039C16.2134 6.60039 16.2138 6.60039 16.2143 6.60039C16.2147 6.60039 16.2152 6.60039 16.2156 6.60039C16.216 6.60039 16.2165 6.60039 16.2169 6.60039C16.2173 6.60039 16.2178 6.60039 16.2182 6.60039C16.2186 6.60039 16.2191 6.60039 16.2195 6.60039C16.2199 6.60039 16.2204 6.60039 16.2208 6.60039C16.2212 6.60039 16.2217 6.60039 16.2221 6.60039C16.2225 6.60039 16.223 6.60039 16.2234 6.60039C16.2238 6.60039 16.2242 6.60039 16.2247 6.60039C16.2251 6.60039 16.2255 6.60039 16.2259 6.60039C16.2264 6.60039 16.2268 6.60039 16.2272 6.60039C16.2276 6.60039 16.2281 6.60039 16.2285 6.60039C16.2289 6.60039 16.2293 6.60039 16.2298 6.60039C16.2302 6.60039 16.2306 6.60039 16.231 6.60039C16.2314 6.60039 16.2318 6.60039 16.2323 6.60039C16.2327 6.60039 16.2331 6.60039 16.2335 6.60039C16.2339 6.60039 16.2343 6.60039 16.2348 6.60039C16.2352 6.60039 16.2356 6.60039 16.236 6.60039C16.2364 6.60039 16.2368 6.60039 16.2372 6.60039C16.2377 6.60039 16.2381 6.60039 16.2385 6.60039C16.2389 6.60039 16.2393 6.60039 16.2397 6.60039C16.2401 6.60039 16.2405 6.60039 16.2409 6.60039C16.2413 6.60039 16.2417 6.60039 16.2421 6.60039C16.2426 6.60039 16.243 6.60039 16.2434 6.60039C16.2438 6.60039 16.2442 6.60039 16.2446 6.60039C16.245 6.60039 16.2454 6.60039 16.2458 6.60039C16.2462 6.60039 16.2466 6.60039 16.247 6.60039C16.2474 6.60039 16.2478 6.60039 16.2482 6.60039C16.2486 6.60039 16.249 6.60039 16.2494 6.60039C16.2498 6.60039 16.2502 6.60039 16.2506 6.60039C16.251 6.60039 16.2514 6.60039 16.2518 6.60039C16.2522 6.60039 16.2525 6.60039 16.2529 6.60039C16.2533 6.60039 16.2537 6.60039 16.2541 6.60039C16.2545 6.60039 16.2549 6.60039 16.2553 6.60039C16.2557 6.60039 16.2561 6.60039 16.2565 6.60039C16.2569 6.60039 16.2572 6.60039 16.2576 6.60039C16.258 6.60039 16.2584 6.60039 16.2588 6.60039C16.2592 6.60039 16.2596 6.60039 16.26 6.60039C16.2603 6.60039 16.2607 6.60039 16.2611 6.60039C16.2615 6.60039 16.2619 6.60039 16.2623 6.60039C16.2626 6.60039 16.263 6.60039 16.2634 6.60039C16.2638 6.60039 16.2642 6.60039 16.2646 6.60039C16.2649 6.60039 16.2653 6.60039 16.2657 6.60039C16.2661 6.60039 16.2664 6.60039 16.2668 6.60039C16.2672 6.60039 16.2676 6.60039 16.268 6.60039C16.2683 6.60039 16.2687 6.60039 16.2691 6.60039C16.2695 6.60039 16.2698 6.60039 16.2702 6.60039C16.2706 6.60039 16.271 6.60039 16.2713 6.60039C16.2717 6.60039 16.2721 6.60039 16.2725 6.60039C16.2728 6.60039 16.2732 6.60039 16.2736 6.60039C16.2739 6.60039 16.2743 6.60039 16.2747 6.60039C16.275 6.60039 16.2754 6.60039 16.2758 6.60039C16.2762 6.60039 16.2765 6.60039 16.2769 6.60039C16.2773 6.60039 16.2776 6.60039 16.278 6.60039C16.2784 6.60039 16.2787 6.60039 16.2791 6.60039C16.2795 6.60039 16.2798 6.60039 16.2802 6.60039C16.2805 6.60039 16.2809 6.60039 16.2813 6.60039C16.2816 6.60039 16.282 6.60039 16.2824 6.60039C16.2827 6.60039 16.2831 6.60039 16.2834 6.60039C16.2838 6.60039 16.2842 6.60039 16.2845 6.60039C16.2849 6.60039 16.2852 6.60039 16.2856 6.60039C16.286 6.60039 16.2863 6.60039 16.2867 6.60039C16.287 6.60039 16.2874 6.60039 16.2877 6.60039C16.2881 6.60039 16.2885 6.60039 16.2888 6.60039C16.2892 6.60039 16.2895 6.60039 16.2899 6.60039C16.2902 6.60039 16.2906 6.60039 16.2909 6.60039C16.2913 6.60039 16.2916 6.60039 16.292 6.60039C16.2923 6.60039 16.2927 6.60039 16.293 6.60039C16.2934 6.60039 16.2937 6.60039 16.2941 6.60039C16.2944 6.60039 16.2948 6.60039 16.2951 6.60039C16.2955 6.60039 16.2958 6.60039 16.2962 6.60039C16.2965 6.60039 16.2969 6.60039 16.2972 6.60039C16.2976 6.60039 16.2979 6.60039 16.2983 6.60039C16.2986 6.60039 16.299 6.60039 16.2993 6.60039C16.2997 6.60039 16.3 6.60039 16.3003 6.60039C16.3007 6.60039 16.301 6.60039 16.3014 6.60039C16.3017 6.60039 16.3021 6.60039 16.3024 6.60039C16.3027 6.60039 16.3031 6.60039 16.3034 6.60039C16.3038 6.60039 16.3041 6.60039 16.3045 6.60039C16.3048 6.60039 16.3051 6.60039 16.3055 6.60039C16.3058 6.60039 16.3062 6.60039 16.3065 6.60039C16.3068 6.60039 16.3072 6.60039 16.3075 6.60039C16.3078 6.60039 16.3082 6.60039 16.3085 6.60039C16.3089 6.60039 16.3092 6.60039 16.3095 6.60039C16.3099 6.60039 16.3102 6.60039 16.3105 6.60039C16.3109 6.60039 16.3112 6.60039 16.3115 6.60039C16.3119 6.60039 16.3122 6.60039 16.3125 6.60039C16.3129 6.60039 16.3132 6.60039 16.3135 6.60039C16.3139 6.60039 16.3142 6.60039 16.3145 6.60039C16.3149 6.60039 16.3152 6.60039 16.3155 6.60039C16.3159 6.60039 16.3162 6.60039 16.3165 6.60039C16.3168 6.60039 16.3172 6.60039 16.3175 6.60039C16.3178 6.60039 16.3182 6.60039 16.3185 6.60039C16.3188 6.60039 16.3191 6.60039 16.3195 6.60039C16.3198 6.60039 16.3201 6.60039 16.3205 6.60039C16.3208 6.60039 16.3211 6.60039 16.3214 6.60039C16.3218 6.60039 16.3221 6.60039 16.3224 6.60039C16.3227 6.60039 16.3231 6.60039 16.3234 6.60039C16.3237 6.60039 16.324 6.60039 16.3244 6.60039C16.3247 6.60039 16.325 6.60039 16.3253 6.60039C16.3257 6.60039 16.326 6.60039 16.3263 6.60039C16.3266 6.60039 16.3269 6.60039 16.3273 6.60039C16.3276 6.60039 16.3279 6.60039 16.3282 6.60039C16.3285 6.60039 16.3289 6.60039 16.3292 6.60039C16.3295 6.60039 16.3298 6.60039 16.3301 6.60039C16.3305 6.60039 16.3308 6.60039 16.3311 6.60039C16.3314 6.60039 16.3317 6.60039 16.3321 6.60039C16.3324 6.60039 16.3327 6.60039 16.333 6.60039C16.3333 6.60039 16.3336 6.60039 16.334 6.60039C16.3343 6.60039 16.3346 6.60039 16.3349 6.60039C16.3352 6.60039 16.3355 6.60039 16.3359 6.60039C16.3362 6.60039 16.3365 6.60039 16.3368 6.60039C16.3371 6.60039 16.3374 6.60039 16.3378 6.60039C16.3381 6.60039 16.3384 6.60039 16.3387 6.60039C16.339 6.60039 16.3393 6.60039 16.3396 6.60039C16.3399 6.60039 16.3403 6.60039 16.3406 6.60039C16.3409 6.60039 16.3412 6.60039 16.3415 6.60039C16.3418 6.60039 16.3421 6.60039 16.3424 6.60039C16.3428 6.60039 16.3431 6.60039 16.3434 6.60039C16.3437 6.60039 16.344 6.60039 16.3443 6.60039C16.3446 6.60039 16.3449 6.60039 16.3452 6.60039C16.3455 6.60039 16.3459 6.60039 16.3462 6.60039C16.3465 6.60039 16.3468 6.60039 16.3471 6.60039C16.3474 6.60039 16.3477 6.60039 16.348 6.60039C16.3483 6.60039 16.3486 6.60039 16.3489 6.60039C16.3492 6.60039 16.3496 6.60039 16.3499 6.60039C16.3502 6.60039 16.3505 6.60039 16.3508 6.60039C16.3511 6.60039 16.3514 6.60039 16.3517 6.60039C16.352 6.60039 16.3523 6.60039 16.3526 6.60039C16.3529 6.60039 16.3532 6.60039 16.3535 6.60039C16.3538 6.60039 16.3541 6.60039 16.3544 6.60039C16.3548 6.60039 16.3551 6.60039 16.3554 6.60039C16.3557 6.60039 16.356 6.60039 16.3563 6.60039C16.3566 6.60039 16.3569 6.60039 16.3572 6.60039C16.3575 6.60039 16.3578 6.60039 16.3581 6.60039C16.3584 6.60039 16.3587 6.60039 16.359 6.60039C16.3593 6.60039 16.3596 6.60039 16.3599 6.60039C16.3602 6.60039 16.3605 6.60039 16.3608 6.60039C16.3611 6.60039 16.3614 6.60039 16.3617 6.60039C16.362 6.60039 16.3623 6.60039 16.3626 6.60039C16.3629 6.60039 16.3632 6.60039 16.3635 6.60039C16.3638 6.60039 16.3641 6.60039 16.3644 6.60039C16.3647 6.60039 16.365 6.60039 16.3653 6.60039C16.3656 6.60039 16.3659 6.60039 16.3662 6.60039C16.3665 6.60039 16.3668 6.60039 16.3671 6.60039C16.3674 6.60039 16.3677 6.60039 16.368 6.60039C16.3683 6.60039 16.3686 6.60039 16.3689 6.60039C16.3692 6.60039 16.3695 6.60039 16.3698 6.60039C16.3701 6.60039 16.3704 6.60039 16.3707 6.60039C16.371 6.60039 16.3713 6.60039 16.3716 6.60039C16.3719 6.60039 16.3722 6.60039 16.3725 6.60039C16.3728 6.60039 16.3731 6.60039 16.3734 6.60039C16.3737 6.60039 16.374 6.60039 16.3743 6.60039C16.3746 6.60039 16.3749 6.60039 16.3752 6.60039C16.3755 6.60039 16.3757 6.60039 16.376 6.60039C16.3763 6.60039 16.3766 6.60039 16.3769 6.60039C16.3772 6.60039 16.3775 6.60039 16.3778 6.60039C16.3781 6.60039 16.3784 6.60039 16.3787 6.60039C16.379 6.60039 16.3793 6.60039 16.3796 6.60039C16.3799 6.60039 16.3802 6.60039 16.3805 6.60039C16.3808 6.60039 16.3811 6.60039 16.3814 6.60039C16.3817 6.60039 16.382 6.60039 16.3823 6.60039C16.3825 6.60039 16.3828 6.60039 16.3831 6.60039C16.3834 6.60039 16.3837 6.60039 16.384 6.60039C16.3843 6.60039 16.3846 6.60039 16.3849 6.60039C16.3852 6.60039 16.3855 6.60039 16.3858 6.60039C16.3861 6.60039 16.3864 6.60039 16.3867 6.60039C16.387 6.60039 16.3873 6.60039 16.3875 6.60039C16.3878 6.60039 16.3881 6.60039 16.3884 6.60039C16.3887 6.60039 16.389 6.60039 16.3893 6.60039C16.3896 6.60039 16.3899 6.60039 16.3902 6.60039C16.3905 6.60039 16.3908 6.60039 16.3911 6.60039C16.3914 6.60039 16.3917 6.60039 16.392 6.60039C16.3922 6.60039 16.3925 6.60039 16.3928 6.60039C16.3931 6.60039 16.3934 6.60039 16.3937 6.60039C16.394 6.60039 16.3943 6.60039 16.3946 6.60039C16.3949 6.60039 16.3952 6.60039 16.3955 6.60039C16.3958 6.60039 16.3961 6.60039 16.3963 6.60039C16.3966 6.60039 16.3969 6.60039 16.3972 6.60039C16.3975 6.60039 16.3978 6.60039 16.3981 6.60039C16.3984 6.60039 16.3987 6.60039 16.399 6.60039C16.3993 6.60039 16.3996 6.60039 16.3999 6.60039C16.4002 6.60039 16.4005 6.60039 16.4007 6.60039C16.401 6.60039 16.4013 6.60039 16.4016 6.60039C16.4019 6.60039 16.4022 6.60039 16.4025 6.60039C16.4028 6.60039 16.4031 6.60039 16.4034 6.60039C16.4037 6.60039 16.404 6.60039 16.4043 6.60039C16.4046 6.60039 16.4048 6.60039 16.4051 6.60039C16.4054 6.60039 16.4057 6.60039 16.406 6.60039C16.4063 6.60039 16.4066 6.60039 16.4069 6.60039C16.4072 6.60039 16.4075 6.60039 16.4078 6.60039C16.4081 6.60039 16.4084 6.60039 16.4087 6.60039C16.409 6.60039 16.4092 6.60039 16.4095 6.60039C16.4098 6.60039 16.4101 6.60039 16.4104 6.60039C16.4107 6.60039 16.411 6.60039 16.4113 6.60039C16.4116 6.60039 16.4119 6.60039 16.4122 6.60039C16.4125 6.60039 16.4128 6.60039 16.4131 6.60039C16.4134 6.60039 16.4137 6.60039 16.4139 6.60039C16.4142 6.60039 16.4145 6.60039 16.4148 6.60039C16.4151 6.60039 16.4154 6.60039 16.4157 6.60039C16.416 6.60039 16.4163 6.60039 16.4166 6.60039C16.4169 6.60039 16.4172 6.60039 16.4175 6.60039C16.4178 6.60039 16.4181 6.60039 16.4184 6.60039C16.4187 6.60039 16.419 6.60039 16.4192 6.60039C16.4195 6.60039 16.4198 6.60039 16.4201 6.60039C16.4204 6.60039 16.4207 6.60039 16.421 6.60039C16.4213 6.60039 16.4216 6.60039 16.4219 6.60039C16.4222 6.60039 16.4225 6.60039 16.4228 6.60039C16.4231 6.60039 16.4234 6.60039 16.4237 6.60039C16.424 6.60039 16.4243 6.60039 16.4246 6.60039C16.4249 6.60039 16.4252 6.60039 16.4255 6.60039C16.4258 6.60039 16.4261 6.60039 16.4264 6.60039C16.4266 6.60039 16.4269 6.60039 16.4272 6.60039C16.4275 6.60039 16.4278 6.60039 16.4281 6.60039C16.4284 6.60039 16.4287 6.60039 16.429 6.60039C16.4293 6.60039 16.4296 6.60039 16.4299 6.60039C16.4302 6.60039 16.4305 6.60039 16.4308 6.60039C16.4311 6.60039 16.4314 6.60039 16.4317 6.60039C16.432 6.60039 16.4323 6.60039 16.4326 6.60039C16.4329 6.60039 16.4332 6.60039 16.4335 6.60039C16.4338 6.60039 16.4341 6.60039 16.4344 6.60039C16.4347 6.60039 16.435 6.60039 16.4353 6.60039C16.4356 6.60039 16.4359 6.60039 16.4362 6.60039C16.4365 6.60039 16.4368 6.60039 16.4371 6.60039C16.4374 6.60039 16.4377 6.60039 16.438 6.60039C16.4383 6.60039 16.4386 6.60039 16.4389 6.60039C16.4392 6.60039 16.4395 6.60039 16.4398 6.60039C16.4401 6.60039 16.4404 6.60039 16.4407 6.60039C16.441 6.60039 16.4413 6.60039 16.4416 6.60039C16.4419 6.60039 16.4422 6.60039 16.4425 6.60039C16.4429 6.60039 16.4432 6.60039 16.4435 6.60039C16.4438 6.60039 16.4441 6.60039 16.4444 6.60039C16.4447 6.60039 16.445 6.60039 16.4453 6.60039C16.4456 6.60039 16.4459 6.60039 16.4462 6.60039C16.4465 6.60039 16.4468 6.60039 16.4471 6.60039C16.4474 6.60039 16.4477 6.60039 16.448 6.60039C16.4483 6.60039 16.4486 6.60039 16.4489 6.60039C16.4493 6.60039 16.4496 6.60039 16.4499 6.60039C16.4502 6.60039 16.4505 6.60039 16.4508 6.60039C16.4511 6.60039 16.4514 6.60039 16.4517 6.60039C16.452 6.60039 16.4523 6.60039 16.4526 6.60039C16.4529 6.60039 16.4533 6.60039 16.4536 6.60039C16.4539 6.60039 16.4542 6.60039 16.4545 6.60039C16.4548 6.60039 16.4551 6.60039 16.4554 6.60039C16.4557 6.60039 16.456 6.60039 16.4564 6.60039C16.4567 6.60039 16.457 6.60039 16.4573 6.60039C16.4576 6.60039 16.4579 6.60039 16.4582 6.60039C16.4585 6.60039 16.4588 6.60039 16.4592 6.60039C16.4595 6.60039 16.4598 6.60039 16.4601 6.60039C16.4604 6.60039 16.4607 6.60039 16.461 6.60039C16.4613 6.60039 16.4617 6.60039 16.462 6.60039C16.4623 6.60039 16.4626 6.60039 16.4629 6.60039C16.4632 6.60039 16.4636 6.60039 16.4639 6.60039C16.4642 6.60039 16.4645 6.60039 16.4648 6.60039C16.4651 6.60039 16.4654 6.60039 16.4658 6.60039C16.4661 6.60039 16.4664 6.60039 16.4667 6.60039C16.467 6.60039 16.4674 6.60039 16.4677 6.60039C16.468 6.60039 16.4683 6.60039 16.4686 6.60039C16.4689 6.60039 16.4693 6.60039 16.4696 6.60039C16.4699 6.60039 16.4702 6.60039 16.4705 6.60039C16.4709 6.60039 16.4712 6.60039 16.4715 6.60039C16.4718 6.60039 16.4721 6.60039 16.4725 6.60039C16.4728 6.60039 16.4731 6.60039 16.4734 6.60039C16.4738 6.60039 16.4741 6.60039 16.4744 6.60039C16.4747 6.60039 16.475 6.60039 16.4754 6.60039C16.4757 6.60039 16.476 6.60039 16.4763 6.60039C16.4767 6.60039 16.477 6.60039 16.4773 6.60039C16.4776 6.60039 16.478 6.60039 16.4783 6.60039C16.4786 6.60039 16.4789 6.60039 16.4793 6.60039C16.4796 6.60039 16.4799 6.60039 16.4803 6.60039C16.4806 6.60039 16.4809 6.60039 16.4812 6.60039C16.4816 6.60039 16.4819 6.60039 16.4822 6.60039C16.4826 6.60039 16.4829 6.60039 16.4832 6.60039C16.4835 6.60039 16.4839 6.60039 16.4842 6.60039C16.4845 6.60039 16.4849 6.60039 16.4852 6.60039C16.4855 6.60039 16.4859 6.60039 16.4862 6.60039C16.4865 6.60039 16.4869 6.60039 16.4872 6.60039C16.4875 6.60039 16.4879 6.60039 16.4882 6.60039C16.4885 6.60039 16.4889 6.60039 16.4892 6.60039C16.4895 6.60039 16.4899 6.60039 16.4902 6.60039C16.4905 6.60039 16.4909 6.60039 16.4912 6.60039C16.4916 6.60039 16.4919 6.60039 16.4922 6.60039C16.4926 6.60039 16.4929 6.60039 16.4932 6.60039C16.4936 6.60039 16.4939 6.60039 16.4943 6.60039C16.4946 6.60039 16.4949 6.60039 16.4953 6.60039C16.4956 6.60039 16.496 6.60039 16.4963 6.60039C16.4966 6.60039 16.497 6.60039 16.4973 6.60039C16.4977 6.60039 16.498 6.60039 16.4984 6.60039C16.4987 6.60039 16.499 6.60039 16.4994 6.60039C16.4997 6.60039 16.5001 6.60039 16.5004 6.60039C16.5008 6.60039 16.5011 6.60039 16.5015 6.60039C16.5018 6.60039 16.5021 6.60039 16.5025 6.60039C16.5028 6.60039 16.5032 6.60039 16.5035 6.60039C16.5039 6.60039 16.5042 6.60039 16.5046 6.60039C16.5049 6.60039 16.5053 6.60039 16.5056 6.60039C16.506 6.60039 16.5063 6.60039 16.5067 6.60039C16.507 6.60039 16.5074 6.60039 16.5077 6.60039C16.5081 6.60039 16.5084 6.60039 16.5088 6.60039C16.5091 6.60039 16.5095 6.60039 16.5099 6.60039C16.5102 6.60039 16.5106 6.60039 16.5109 6.60039C16.5113 6.60039 16.5116 6.60039 16.512 6.60039C16.5123 6.60039 16.5127 6.60039 16.5131 6.60039C16.5134 6.60039 16.5138 6.60039 16.5141 6.60039C16.5145 6.60039 16.5148 6.60039 16.5152 6.60039C16.5156 6.60039 16.5159 6.60039 16.5163 6.60039C16.5166 6.60039 16.517 6.60039 16.5174 6.60039C16.5177 6.60039 16.5181 6.60039 16.5185 6.60039C16.5188 6.60039 16.5192 6.60039 16.5195 6.60039C16.5199 6.60039 16.5203 6.60039 16.5206 6.60039C16.521 6.60039 16.5214 6.60039 16.5217 6.60039C16.5221 6.60039 16.5225 6.60039 16.5228 6.60039C16.5232 6.60039 16.5236 6.60039 16.5239 6.60039C16.5243 6.60039 16.5247 6.60039 16.5251 6.60039C16.5254 6.60039 16.5258 6.60039 16.5262 6.60039C16.5265 6.60039 16.5269 6.60039 16.5273 6.60039C16.5276 6.60039 16.528 6.60039 16.5284 6.60039C16.5288 6.60039 16.5291 6.60039 16.5295 6.60039C16.5299 6.60039 16.5303 6.60039 16.5306 6.60039C16.531 6.60039 16.5314 6.60039 16.5318 6.60039C16.5321 6.60039 16.5325 6.60039 16.5329 6.60039C16.5333 6.60039 16.5337 6.60039 16.534 6.60039C16.5344 6.60039 16.5348 6.60039 16.5352 6.60039C16.5356 6.60039 16.5359 6.60039 16.5363 6.60039C16.5367 6.60039 16.5371 6.60039 16.5375 6.60039C16.5379 6.60039 16.5382 6.60039 16.5386 6.60039C16.539 6.60039 16.5394 6.60039 16.5398 6.60039C16.5402 6.60039 16.5405 6.60039 16.5409 6.60039C16.5413 6.60039 16.5417 6.60039 16.5421 6.60039C16.5425 6.60039 16.5429 6.60039 16.5433 6.60039C16.5437 6.60039 16.544 6.60039 16.5444 6.60039C16.5448 6.60039 16.5452 6.60039 16.5456 6.60039C16.546 6.60039 16.5464 6.60039 16.5468 6.60039C16.5472 6.60039 16.5476 6.60039 16.548 6.60039C16.5484 6.60039 16.5488 6.60039 16.5492 6.60039C16.5496 6.60039 16.55 6.60039 16.5503 6.60039C16.5507 6.60039 16.5511 6.60039 16.5515 6.60039C16.5519 6.60039 16.5523 6.60039 16.5527 6.60039C16.5531 6.60039 16.5535 6.60039 16.5539 6.60039C16.5543 6.60039 16.5547 6.60039 16.5552 6.60039C16.5556 6.60039 16.556 6.60039 16.5564 6.60039C16.5568 6.60039 16.5572 6.60039 16.5576 6.60039C16.558 6.60039 16.5584 6.60039 16.5588 6.60039C16.5592 6.60039 16.5596 6.60039 16.56 6.60039C16.5604 6.60039 16.5608 6.60039 16.5613 6.60039C16.5617 6.60039 16.5621 6.60039 16.5625 6.60039C16.5629 6.60039 16.5633 6.60039 16.5637 6.60039C16.5641 6.60039 16.5646 6.60039 16.565 6.60039C16.5654 6.60039 16.5658 6.60039 16.5662 6.60039C16.5666 6.60039 16.567 6.60039 16.5675 6.60039C16.5679 6.60039 16.5683 6.60039 16.5687 6.60039C16.5691 6.60039 16.5696 6.60039 16.57 6.60039C16.5704 6.60039 16.5708 6.60039 16.5712 6.60039C16.5717 6.60039 16.5721 6.60039 16.5725 6.60039C16.5729 6.60039 16.5734 6.60039 16.5738 6.60039C16.5742 6.60039 16.5746 6.60039 16.5751 6.60039C16.5755 6.60039 16.5759 6.60039 16.5763 6.60039C16.5768 6.60039 16.5772 6.60039 16.5776 6.60039C16.5781 6.60039 16.5785 6.60039 16.5789 6.60039C16.5794 6.60039 16.5798 6.60039 16.5802 6.60039C16.5807 6.60039 16.5811 6.60039 16.5815 6.60039C16.582 6.60039 16.5824 6.60039 16.5828 6.60039C16.5833 6.60039 16.5837 6.60039 16.5841 6.60039C16.5846 6.60039 16.585 6.60039 16.5855 6.60039C16.5859 6.60039 16.5863 6.60039 16.5868 6.60039C16.5872 6.60039 16.5877 6.60039 16.5881 6.60039C16.5885 6.60039 16.589 6.60039 16.5894 6.60039C16.5899 6.60039 16.5903 6.60039 16.5908 6.60039C16.5912 6.60039 16.5917 6.60039 16.5921 6.60039C16.5926 6.60039 16.593 6.60039 16.5935 6.60039C16.5939 6.60039 16.5944 6.60039 16.5948 6.60039C16.5953 6.60039 16.5957 6.60039 16.5962 6.60039C16.5966 6.60039 16.5971 6.60039 16.5975 6.60039C16.598 6.60039 16.5984 6.60039 16.5989 6.60039C16.5993 6.60039 16.5998 6.60039 16.6003 6.60039C16.6007 6.60039 16.6012 6.60039 16.6016 6.60039C16.6021 6.60039 16.6026 6.60039 16.603 6.60039C16.6035 6.60039 16.6039 6.60039 16.6044 6.60039C16.6049 6.60039 16.6053 6.60039 16.6058 6.60039C16.6063 6.60039 16.6067 6.60039 16.6072 6.60039C16.6077 6.60039 16.6081 6.60039 16.6086 6.60039C16.6091 6.60039 16.6095 6.60039 16.61 6.60039C16.6105 6.60039 16.6109 6.60039 16.6114 6.60039C16.6119 6.60039 16.6124 6.60039 16.6128 6.60039C16.6133 6.60039 16.6138 6.60039 16.6143 6.60039C16.6147 6.60039 16.6152 6.60039 16.6157 6.60039C16.6162 6.60039 16.6166 6.60039 16.6171 6.60039C16.6176 6.60039 16.6181 6.60039 16.6186 6.60039C16.619 6.60039 16.6195 6.60039 16.62 6.60039C16.6205 6.60039 16.621 6.60039 16.6214 6.60039C16.6219 6.60039 16.6224 6.60039 16.6229 6.60039C16.6234 6.60039 16.6239 6.60039 16.6244 6.60039C16.6249 6.60039 16.6253 6.60039 16.6258 6.60039C16.6263 6.60039 16.6268 6.60039 16.6273 6.60039C16.6278 6.60039 16.6283 6.60039 16.6288 6.60039C16.6293 6.60039 16.6298 6.60039 16.6303 6.60039C16.6308 6.60039 16.6313 6.60039 16.6318 6.60039C16.6323 6.60039 16.6328 6.60039 16.6333 6.60039C16.6338 6.60039 16.6343 6.60039 16.6348 6.60039C16.6353 6.60039 16.6358 6.60039 16.6363 6.60039C16.6368 6.60039 16.6373 6.60039 16.6378 6.60039C16.6383 6.60039 16.6388 6.60039 16.6393 6.60039C16.6398 6.60039 16.6403 6.60039 16.6408 6.60039C16.6413 6.60039 16.6418 6.60039 16.6424 6.60039C16.6429 6.60039 16.6434 6.60039 16.6439 6.60039C16.6444 6.60039 16.6449 6.60039 16.6454 6.60039C16.646 6.60039 16.6465 6.60039 16.647 6.60039C16.6475 6.60039 16.648 6.60039 16.6485 6.60039C16.6491 6.60039 16.6496 6.60039 16.6501 6.60039C16.6506 6.60039 16.6511 6.60039 16.6517 6.60039C16.6522 6.60039 16.6527 6.60039 16.6532 6.60039C16.6538 6.60039 16.6543 6.60039 16.6548 6.60039C16.6553 6.60039 16.6559 6.60039 16.6564 6.60039C16.6569 6.60039 16.6575 6.60039 16.658 6.60039C16.6585 6.60039 16.6591 6.60039 16.6596 6.60039C16.6601 6.60039 16.6607 6.60039 16.6612 6.60039C16.6617 6.60039 16.6623 6.60039 16.6628 6.60039C16.6633 6.60039 16.6639 6.60039 16.6644 6.60039C16.665 6.60039 16.6655 6.60039 16.666 6.60039C16.6666 6.60039 16.6671 6.60039 16.6677 6.60039C16.6682 6.60039 16.6688 6.60039 16.6693 6.60039C16.6699 6.60039 16.6704 6.60039 16.671 6.60039C16.6715 6.60039 16.672 6.60039 16.6726 6.60039C16.6732 6.60039 16.6737 6.60039 16.6743 6.60039C16.6748 6.60039 16.6754 6.60039 16.6759 6.60039C16.6765 6.60039 16.677 6.60039 16.6776 6.60039C16.6781 6.60039 16.6787 6.60039 16.6793 6.60039C16.6798 6.60039 16.6804 6.60039 16.6809 6.60039C16.6815 6.60039 16.6821 6.60039 16.6826 6.60039C16.6832 6.60039 16.6838 6.60039 16.6843 6.60039C16.6849 6.60039 16.6855 6.60039 16.686 6.60039C16.6866 6.60039 16.6872 6.60039 16.6877 6.60039C16.6883 6.60039 16.6889 6.60039 16.6894 6.60039C16.69 6.60039 16.6906 6.60039 16.6912 6.60039C16.6917 6.60039 16.6923 6.60039 16.6929 6.60039C16.6935 6.60039 16.694 6.60039 16.6946 6.60039C16.6952 6.60039 16.6958 6.60039 16.6964 6.60039C16.6969 6.60039 16.6975 6.60039 16.6981 6.60039C16.6987 6.60039 16.6993 6.60039 16.6999 6.60039V4.60039C16.6993 4.60039 16.6987 4.60039 16.6981 4.60039C16.6975 4.60039 16.6969 4.60039 16.6964 4.60039C16.6958 4.60039 16.6952 4.60039 16.6946 4.60039C16.694 4.60039 16.6935 4.60039 16.6929 4.60039C16.6923 4.60039 16.6917 4.60039 16.6912 4.60039C16.6906 4.60039 16.69 4.60039 16.6894 4.60039C16.6889 4.60039 16.6883 4.60039 16.6877 4.60039C16.6872 4.60039 16.6866 4.60039 16.686 4.60039C16.6855 4.60039 16.6849 4.60039 16.6843 4.60039C16.6838 4.60039 16.6832 4.60039 16.6826 4.60039C16.6821 4.60039 16.6815 4.60039 16.6809 4.60039C16.6804 4.60039 16.6798 4.60039 16.6793 4.60039C16.6787 4.60039 16.6781 4.60039 16.6776 4.60039C16.677 4.60039 16.6765 4.60039 16.6759 4.60039C16.6754 4.60039 16.6748 4.60039 16.6743 4.60039C16.6737 4.60039 16.6732 4.60039 16.6726 4.60039C16.672 4.60039 16.6715 4.60039 16.671 4.60039C16.6704 4.60039 16.6699 4.60039 16.6693 4.60039C16.6688 4.60039 16.6682 4.60039 16.6677 4.60039C16.6671 4.60039 16.6666 4.60039 16.666 4.60039C16.6655 4.60039 16.665 4.60039 16.6644 4.60039C16.6639 4.60039 16.6633 4.60039 16.6628 4.60039C16.6623 4.60039 16.6617 4.60039 16.6612 4.60039C16.6607 4.60039 16.6601 4.60039 16.6596 4.60039C16.6591 4.60039 16.6585 4.60039 16.658 4.60039C16.6575 4.60039 16.6569 4.60039 16.6564 4.60039C16.6559 4.60039 16.6553 4.60039 16.6548 4.60039C16.6543 4.60039 16.6538 4.60039 16.6532 4.60039C16.6527 4.60039 16.6522 4.60039 16.6517 4.60039C16.6511 4.60039 16.6506 4.60039 16.6501 4.60039C16.6496 4.60039 16.6491 4.60039 16.6485 4.60039C16.648 4.60039 16.6475 4.60039 16.647 4.60039C16.6465 4.60039 16.646 4.60039 16.6454 4.60039C16.6449 4.60039 16.6444 4.60039 16.6439 4.60039C16.6434 4.60039 16.6429 4.60039 16.6424 4.60039C16.6418 4.60039 16.6413 4.60039 16.6408 4.60039C16.6403 4.60039 16.6398 4.60039 16.6393 4.60039C16.6388 4.60039 16.6383 4.60039 16.6378 4.60039C16.6373 4.60039 16.6368 4.60039 16.6363 4.60039C16.6358 4.60039 16.6353 4.60039 16.6348 4.60039C16.6343 4.60039 16.6338 4.60039 16.6333 4.60039C16.6328 4.60039 16.6323 4.60039 16.6318 4.60039C16.6313 4.60039 16.6308 4.60039 16.6303 4.60039C16.6298 4.60039 16.6293 4.60039 16.6288 4.60039C16.6283 4.60039 16.6278 4.60039 16.6273 4.60039C16.6268 4.60039 16.6263 4.60039 16.6258 4.60039C16.6253 4.60039 16.6249 4.60039 16.6244 4.60039C16.6239 4.60039 16.6234 4.60039 16.6229 4.60039C16.6224 4.60039 16.6219 4.60039 16.6214 4.60039C16.621 4.60039 16.6205 4.60039 16.62 4.60039C16.6195 4.60039 16.619 4.60039 16.6186 4.60039C16.6181 4.60039 16.6176 4.60039 16.6171 4.60039C16.6166 4.60039 16.6162 4.60039 16.6157 4.60039C16.6152 4.60039 16.6147 4.60039 16.6143 4.60039C16.6138 4.60039 16.6133 4.60039 16.6128 4.60039C16.6124 4.60039 16.6119 4.60039 16.6114 4.60039C16.6109 4.60039 16.6105 4.60039 16.61 4.60039C16.6095 4.60039 16.6091 4.60039 16.6086 4.60039C16.6081 4.60039 16.6077 4.60039 16.6072 4.60039C16.6067 4.60039 16.6063 4.60039 16.6058 4.60039C16.6053 4.60039 16.6049 4.60039 16.6044 4.60039C16.6039 4.60039 16.6035 4.60039 16.603 4.60039C16.6026 4.60039 16.6021 4.60039 16.6016 4.60039C16.6012 4.60039 16.6007 4.60039 16.6003 4.60039C16.5998 4.60039 16.5993 4.60039 16.5989 4.60039C16.5984 4.60039 16.598 4.60039 16.5975 4.60039C16.5971 4.60039 16.5966 4.60039 16.5962 4.60039C16.5957 4.60039 16.5953 4.60039 16.5948 4.60039C16.5944 4.60039 16.5939 4.60039 16.5935 4.60039C16.593 4.60039 16.5926 4.60039 16.5921 4.60039C16.5917 4.60039 16.5912 4.60039 16.5908 4.60039C16.5903 4.60039 16.5899 4.60039 16.5894 4.60039C16.589 4.60039 16.5885 4.60039 16.5881 4.60039C16.5877 4.60039 16.5872 4.60039 16.5868 4.60039C16.5863 4.60039 16.5859 4.60039 16.5855 4.60039C16.585 4.60039 16.5846 4.60039 16.5841 4.60039C16.5837 4.60039 16.5833 4.60039 16.5828 4.60039C16.5824 4.60039 16.582 4.60039 16.5815 4.60039C16.5811 4.60039 16.5807 4.60039 16.5802 4.60039C16.5798 4.60039 16.5794 4.60039 16.5789 4.60039C16.5785 4.60039 16.5781 4.60039 16.5776 4.60039C16.5772 4.60039 16.5768 4.60039 16.5763 4.60039C16.5759 4.60039 16.5755 4.60039 16.5751 4.60039C16.5746 4.60039 16.5742 4.60039 16.5738 4.60039C16.5734 4.60039 16.5729 4.60039 16.5725 4.60039C16.5721 4.60039 16.5717 4.60039 16.5712 4.60039C16.5708 4.60039 16.5704 4.60039 16.57 4.60039C16.5696 4.60039 16.5691 4.60039 16.5687 4.60039C16.5683 4.60039 16.5679 4.60039 16.5675 4.60039C16.567 4.60039 16.5666 4.60039 16.5662 4.60039C16.5658 4.60039 16.5654 4.60039 16.565 4.60039C16.5646 4.60039 16.5641 4.60039 16.5637 4.60039C16.5633 4.60039 16.5629 4.60039 16.5625 4.60039C16.5621 4.60039 16.5617 4.60039 16.5613 4.60039C16.5608 4.60039 16.5604 4.60039 16.56 4.60039C16.5596 4.60039 16.5592 4.60039 16.5588 4.60039C16.5584 4.60039 16.558 4.60039 16.5576 4.60039C16.5572 4.60039 16.5568 4.60039 16.5564 4.60039C16.556 4.60039 16.5556 4.60039 16.5552 4.60039C16.5547 4.60039 16.5543 4.60039 16.5539 4.60039C16.5535 4.60039 16.5531 4.60039 16.5527 4.60039C16.5523 4.60039 16.5519 4.60039 16.5515 4.60039C16.5511 4.60039 16.5507 4.60039 16.5503 4.60039C16.55 4.60039 16.5496 4.60039 16.5492 4.60039C16.5488 4.60039 16.5484 4.60039 16.548 4.60039C16.5476 4.60039 16.5472 4.60039 16.5468 4.60039C16.5464 4.60039 16.546 4.60039 16.5456 4.60039C16.5452 4.60039 16.5448 4.60039 16.5444 4.60039C16.544 4.60039 16.5437 4.60039 16.5433 4.60039C16.5429 4.60039 16.5425 4.60039 16.5421 4.60039C16.5417 4.60039 16.5413 4.60039 16.5409 4.60039C16.5405 4.60039 16.5402 4.60039 16.5398 4.60039C16.5394 4.60039 16.539 4.60039 16.5386 4.60039C16.5382 4.60039 16.5379 4.60039 16.5375 4.60039C16.5371 4.60039 16.5367 4.60039 16.5363 4.60039C16.5359 4.60039 16.5356 4.60039 16.5352 4.60039C16.5348 4.60039 16.5344 4.60039 16.534 4.60039C16.5337 4.60039 16.5333 4.60039 16.5329 4.60039C16.5325 4.60039 16.5321 4.60039 16.5318 4.60039C16.5314 4.60039 16.531 4.60039 16.5306 4.60039C16.5303 4.60039 16.5299 4.60039 16.5295 4.60039C16.5291 4.60039 16.5288 4.60039 16.5284 4.60039C16.528 4.60039 16.5276 4.60039 16.5273 4.60039C16.5269 4.60039 16.5265 4.60039 16.5262 4.60039C16.5258 4.60039 16.5254 4.60039 16.5251 4.60039C16.5247 4.60039 16.5243 4.60039 16.5239 4.60039C16.5236 4.60039 16.5232 4.60039 16.5228 4.60039C16.5225 4.60039 16.5221 4.60039 16.5217 4.60039C16.5214 4.60039 16.521 4.60039 16.5206 4.60039C16.5203 4.60039 16.5199 4.60039 16.5195 4.60039C16.5192 4.60039 16.5188 4.60039 16.5185 4.60039C16.5181 4.60039 16.5177 4.60039 16.5174 4.60039C16.517 4.60039 16.5166 4.60039 16.5163 4.60039C16.5159 4.60039 16.5156 4.60039 16.5152 4.60039C16.5148 4.60039 16.5145 4.60039 16.5141 4.60039C16.5138 4.60039 16.5134 4.60039 16.5131 4.60039C16.5127 4.60039 16.5123 4.60039 16.512 4.60039C16.5116 4.60039 16.5113 4.60039 16.5109 4.60039C16.5106 4.60039 16.5102 4.60039 16.5099 4.60039C16.5095 4.60039 16.5091 4.60039 16.5088 4.60039C16.5084 4.60039 16.5081 4.60039 16.5077 4.60039C16.5074 4.60039 16.507 4.60039 16.5067 4.60039C16.5063 4.60039 16.506 4.60039 16.5056 4.60039C16.5053 4.60039 16.5049 4.60039 16.5046 4.60039C16.5042 4.60039 16.5039 4.60039 16.5035 4.60039C16.5032 4.60039 16.5028 4.60039 16.5025 4.60039C16.5021 4.60039 16.5018 4.60039 16.5015 4.60039C16.5011 4.60039 16.5008 4.60039 16.5004 4.60039C16.5001 4.60039 16.4997 4.60039 16.4994 4.60039C16.499 4.60039 16.4987 4.60039 16.4984 4.60039C16.498 4.60039 16.4977 4.60039 16.4973 4.60039C16.497 4.60039 16.4966 4.60039 16.4963 4.60039C16.496 4.60039 16.4956 4.60039 16.4953 4.60039C16.4949 4.60039 16.4946 4.60039 16.4943 4.60039C16.4939 4.60039 16.4936 4.60039 16.4932 4.60039C16.4929 4.60039 16.4926 4.60039 16.4922 4.60039C16.4919 4.60039 16.4916 4.60039 16.4912 4.60039C16.4909 4.60039 16.4905 4.60039 16.4902 4.60039C16.4899 4.60039 16.4895 4.60039 16.4892 4.60039C16.4889 4.60039 16.4885 4.60039 16.4882 4.60039C16.4879 4.60039 16.4875 4.60039 16.4872 4.60039C16.4869 4.60039 16.4865 4.60039 16.4862 4.60039C16.4859 4.60039 16.4855 4.60039 16.4852 4.60039C16.4849 4.60039 16.4845 4.60039 16.4842 4.60039C16.4839 4.60039 16.4835 4.60039 16.4832 4.60039C16.4829 4.60039 16.4826 4.60039 16.4822 4.60039C16.4819 4.60039 16.4816 4.60039 16.4812 4.60039C16.4809 4.60039 16.4806 4.60039 16.4803 4.60039C16.4799 4.60039 16.4796 4.60039 16.4793 4.60039C16.4789 4.60039 16.4786 4.60039 16.4783 4.60039C16.478 4.60039 16.4776 4.60039 16.4773 4.60039C16.477 4.60039 16.4767 4.60039 16.4763 4.60039C16.476 4.60039 16.4757 4.60039 16.4754 4.60039C16.475 4.60039 16.4747 4.60039 16.4744 4.60039C16.4741 4.60039 16.4738 4.60039 16.4734 4.60039C16.4731 4.60039 16.4728 4.60039 16.4725 4.60039C16.4721 4.60039 16.4718 4.60039 16.4715 4.60039C16.4712 4.60039 16.4709 4.60039 16.4705 4.60039C16.4702 4.60039 16.4699 4.60039 16.4696 4.60039C16.4693 4.60039 16.4689 4.60039 16.4686 4.60039C16.4683 4.60039 16.468 4.60039 16.4677 4.60039C16.4674 4.60039 16.467 4.60039 16.4667 4.60039C16.4664 4.60039 16.4661 4.60039 16.4658 4.60039C16.4654 4.60039 16.4651 4.60039 16.4648 4.60039C16.4645 4.60039 16.4642 4.60039 16.4639 4.60039C16.4636 4.60039 16.4632 4.60039 16.4629 4.60039C16.4626 4.60039 16.4623 4.60039 16.462 4.60039C16.4617 4.60039 16.4613 4.60039 16.461 4.60039C16.4607 4.60039 16.4604 4.60039 16.4601 4.60039C16.4598 4.60039 16.4595 4.60039 16.4592 4.60039C16.4588 4.60039 16.4585 4.60039 16.4582 4.60039C16.4579 4.60039 16.4576 4.60039 16.4573 4.60039C16.457 4.60039 16.4567 4.60039 16.4564 4.60039C16.456 4.60039 16.4557 4.60039 16.4554 4.60039C16.4551 4.60039 16.4548 4.60039 16.4545 4.60039C16.4542 4.60039 16.4539 4.60039 16.4536 4.60039C16.4533 4.60039 16.4529 4.60039 16.4526 4.60039C16.4523 4.60039 16.452 4.60039 16.4517 4.60039C16.4514 4.60039 16.4511 4.60039 16.4508 4.60039C16.4505 4.60039 16.4502 4.60039 16.4499 4.60039C16.4496 4.60039 16.4493 4.60039 16.4489 4.60039C16.4486 4.60039 16.4483 4.60039 16.448 4.60039C16.4477 4.60039 16.4474 4.60039 16.4471 4.60039C16.4468 4.60039 16.4465 4.60039 16.4462 4.60039C16.4459 4.60039 16.4456 4.60039 16.4453 4.60039C16.445 4.60039 16.4447 4.60039 16.4444 4.60039C16.4441 4.60039 16.4438 4.60039 16.4435 4.60039C16.4432 4.60039 16.4429 4.60039 16.4425 4.60039C16.4422 4.60039 16.4419 4.60039 16.4416 4.60039C16.4413 4.60039 16.441 4.60039 16.4407 4.60039C16.4404 4.60039 16.4401 4.60039 16.4398 4.60039C16.4395 4.60039 16.4392 4.60039 16.4389 4.60039C16.4386 4.60039 16.4383 4.60039 16.438 4.60039C16.4377 4.60039 16.4374 4.60039 16.4371 4.60039C16.4368 4.60039 16.4365 4.60039 16.4362 4.60039C16.4359 4.60039 16.4356 4.60039 16.4353 4.60039C16.435 4.60039 16.4347 4.60039 16.4344 4.60039C16.4341 4.60039 16.4338 4.60039 16.4335 4.60039C16.4332 4.60039 16.4329 4.60039 16.4326 4.60039C16.4323 4.60039 16.432 4.60039 16.4317 4.60039C16.4314 4.60039 16.4311 4.60039 16.4308 4.60039C16.4305 4.60039 16.4302 4.60039 16.4299 4.60039C16.4296 4.60039 16.4293 4.60039 16.429 4.60039C16.4287 4.60039 16.4284 4.60039 16.4281 4.60039C16.4278 4.60039 16.4275 4.60039 16.4272 4.60039C16.4269 4.60039 16.4266 4.60039 16.4264 4.60039C16.4261 4.60039 16.4258 4.60039 16.4255 4.60039C16.4252 4.60039 16.4249 4.60039 16.4246 4.60039C16.4243 4.60039 16.424 4.60039 16.4237 4.60039C16.4234 4.60039 16.4231 4.60039 16.4228 4.60039C16.4225 4.60039 16.4222 4.60039 16.4219 4.60039C16.4216 4.60039 16.4213 4.60039 16.421 4.60039C16.4207 4.60039 16.4204 4.60039 16.4201 4.60039C16.4198 4.60039 16.4195 4.60039 16.4192 4.60039C16.419 4.60039 16.4187 4.60039 16.4184 4.60039C16.4181 4.60039 16.4178 4.60039 16.4175 4.60039C16.4172 4.60039 16.4169 4.60039 16.4166 4.60039C16.4163 4.60039 16.416 4.60039 16.4157 4.60039C16.4154 4.60039 16.4151 4.60039 16.4148 4.60039C16.4145 4.60039 16.4142 4.60039 16.4139 4.60039C16.4137 4.60039 16.4134 4.60039 16.4131 4.60039C16.4128 4.60039 16.4125 4.60039 16.4122 4.60039C16.4119 4.60039 16.4116 4.60039 16.4113 4.60039C16.411 4.60039 16.4107 4.60039 16.4104 4.60039C16.4101 4.60039 16.4098 4.60039 16.4095 4.60039C16.4092 4.60039 16.409 4.60039 16.4087 4.60039C16.4084 4.60039 16.4081 4.60039 16.4078 4.60039C16.4075 4.60039 16.4072 4.60039 16.4069 4.60039C16.4066 4.60039 16.4063 4.60039 16.406 4.60039C16.4057 4.60039 16.4054 4.60039 16.4051 4.60039C16.4048 4.60039 16.4046 4.60039 16.4043 4.60039C16.404 4.60039 16.4037 4.60039 16.4034 4.60039C16.4031 4.60039 16.4028 4.60039 16.4025 4.60039C16.4022 4.60039 16.4019 4.60039 16.4016 4.60039C16.4013 4.60039 16.401 4.60039 16.4007 4.60039C16.4005 4.60039 16.4002 4.60039 16.3999 4.60039C16.3996 4.60039 16.3993 4.60039 16.399 4.60039C16.3987 4.60039 16.3984 4.60039 16.3981 4.60039C16.3978 4.60039 16.3975 4.60039 16.3972 4.60039C16.3969 4.60039 16.3966 4.60039 16.3963 4.60039C16.3961 4.60039 16.3958 4.60039 16.3955 4.60039C16.3952 4.60039 16.3949 4.60039 16.3946 4.60039C16.3943 4.60039 16.394 4.60039 16.3937 4.60039C16.3934 4.60039 16.3931 4.60039 16.3928 4.60039C16.3925 4.60039 16.3922 4.60039 16.392 4.60039C16.3917 4.60039 16.3914 4.60039 16.3911 4.60039C16.3908 4.60039 16.3905 4.60039 16.3902 4.60039C16.3899 4.60039 16.3896 4.60039 16.3893 4.60039C16.389 4.60039 16.3887 4.60039 16.3884 4.60039C16.3881 4.60039 16.3878 4.60039 16.3875 4.60039C16.3873 4.60039 16.387 4.60039 16.3867 4.60039C16.3864 4.60039 16.3861 4.60039 16.3858 4.60039C16.3855 4.60039 16.3852 4.60039 16.3849 4.60039C16.3846 4.60039 16.3843 4.60039 16.384 4.60039C16.3837 4.60039 16.3834 4.60039 16.3831 4.60039C16.3828 4.60039 16.3825 4.60039 16.3823 4.60039C16.382 4.60039 16.3817 4.60039 16.3814 4.60039C16.3811 4.60039 16.3808 4.60039 16.3805 4.60039C16.3802 4.60039 16.3799 4.60039 16.3796 4.60039C16.3793 4.60039 16.379 4.60039 16.3787 4.60039C16.3784 4.60039 16.3781 4.60039 16.3778 4.60039C16.3775 4.60039 16.3772 4.60039 16.3769 4.60039C16.3766 4.60039 16.3763 4.60039 16.376 4.60039C16.3757 4.60039 16.3755 4.60039 16.3752 4.60039C16.3749 4.60039 16.3746 4.60039 16.3743 4.60039C16.374 4.60039 16.3737 4.60039 16.3734 4.60039C16.3731 4.60039 16.3728 4.60039 16.3725 4.60039C16.3722 4.60039 16.3719 4.60039 16.3716 4.60039C16.3713 4.60039 16.371 4.60039 16.3707 4.60039C16.3704 4.60039 16.3701 4.60039 16.3698 4.60039C16.3695 4.60039 16.3692 4.60039 16.3689 4.60039C16.3686 4.60039 16.3683 4.60039 16.368 4.60039C16.3677 4.60039 16.3674 4.60039 16.3671 4.60039C16.3668 4.60039 16.3665 4.60039 16.3662 4.60039C16.3659 4.60039 16.3656 4.60039 16.3653 4.60039C16.365 4.60039 16.3647 4.60039 16.3644 4.60039C16.3641 4.60039 16.3638 4.60039 16.3635 4.60039C16.3632 4.60039 16.3629 4.60039 16.3626 4.60039C16.3623 4.60039 16.362 4.60039 16.3617 4.60039C16.3614 4.60039 16.3611 4.60039 16.3608 4.60039C16.3605 4.60039 16.3602 4.60039 16.3599 4.60039C16.3596 4.60039 16.3593 4.60039 16.359 4.60039C16.3587 4.60039 16.3584 4.60039 16.3581 4.60039C16.3578 4.60039 16.3575 4.60039 16.3572 4.60039C16.3569 4.60039 16.3566 4.60039 16.3563 4.60039C16.356 4.60039 16.3557 4.60039 16.3554 4.60039C16.3551 4.60039 16.3548 4.60039 16.3544 4.60039C16.3541 4.60039 16.3538 4.60039 16.3535 4.60039C16.3532 4.60039 16.3529 4.60039 16.3526 4.60039C16.3523 4.60039 16.352 4.60039 16.3517 4.60039C16.3514 4.60039 16.3511 4.60039 16.3508 4.60039C16.3505 4.60039 16.3502 4.60039 16.3499 4.60039C16.3496 4.60039 16.3492 4.60039 16.3489 4.60039C16.3486 4.60039 16.3483 4.60039 16.348 4.60039C16.3477 4.60039 16.3474 4.60039 16.3471 4.60039C16.3468 4.60039 16.3465 4.60039 16.3462 4.60039C16.3459 4.60039 16.3455 4.60039 16.3452 4.60039C16.3449 4.60039 16.3446 4.60039 16.3443 4.60039C16.344 4.60039 16.3437 4.60039 16.3434 4.60039C16.3431 4.60039 16.3428 4.60039 16.3424 4.60039C16.3421 4.60039 16.3418 4.60039 16.3415 4.60039C16.3412 4.60039 16.3409 4.60039 16.3406 4.60039C16.3403 4.60039 16.3399 4.60039 16.3396 4.60039C16.3393 4.60039 16.339 4.60039 16.3387 4.60039C16.3384 4.60039 16.3381 4.60039 16.3378 4.60039C16.3374 4.60039 16.3371 4.60039 16.3368 4.60039C16.3365 4.60039 16.3362 4.60039 16.3359 4.60039C16.3355 4.60039 16.3352 4.60039 16.3349 4.60039C16.3346 4.60039 16.3343 4.60039 16.334 4.60039C16.3336 4.60039 16.3333 4.60039 16.333 4.60039C16.3327 4.60039 16.3324 4.60039 16.3321 4.60039C16.3317 4.60039 16.3314 4.60039 16.3311 4.60039C16.3308 4.60039 16.3305 4.60039 16.3301 4.60039C16.3298 4.60039 16.3295 4.60039 16.3292 4.60039C16.3289 4.60039 16.3285 4.60039 16.3282 4.60039C16.3279 4.60039 16.3276 4.60039 16.3273 4.60039C16.3269 4.60039 16.3266 4.60039 16.3263 4.60039C16.326 4.60039 16.3257 4.60039 16.3253 4.60039C16.325 4.60039 16.3247 4.60039 16.3244 4.60039C16.324 4.60039 16.3237 4.60039 16.3234 4.60039C16.3231 4.60039 16.3227 4.60039 16.3224 4.60039C16.3221 4.60039 16.3218 4.60039 16.3214 4.60039C16.3211 4.60039 16.3208 4.60039 16.3205 4.60039C16.3201 4.60039 16.3198 4.60039 16.3195 4.60039C16.3191 4.60039 16.3188 4.60039 16.3185 4.60039C16.3182 4.60039 16.3178 4.60039 16.3175 4.60039C16.3172 4.60039 16.3168 4.60039 16.3165 4.60039C16.3162 4.60039 16.3159 4.60039 16.3155 4.60039C16.3152 4.60039 16.3149 4.60039 16.3145 4.60039C16.3142 4.60039 16.3139 4.60039 16.3135 4.60039C16.3132 4.60039 16.3129 4.60039 16.3125 4.60039C16.3122 4.60039 16.3119 4.60039 16.3115 4.60039C16.3112 4.60039 16.3109 4.60039 16.3105 4.60039C16.3102 4.60039 16.3099 4.60039 16.3095 4.60039C16.3092 4.60039 16.3089 4.60039 16.3085 4.60039C16.3082 4.60039 16.3078 4.60039 16.3075 4.60039C16.3072 4.60039 16.3068 4.60039 16.3065 4.60039C16.3062 4.60039 16.3058 4.60039 16.3055 4.60039C16.3051 4.60039 16.3048 4.60039 16.3045 4.60039C16.3041 4.60039 16.3038 4.60039 16.3034 4.60039C16.3031 4.60039 16.3027 4.60039 16.3024 4.60039C16.3021 4.60039 16.3017 4.60039 16.3014 4.60039C16.301 4.60039 16.3007 4.60039 16.3003 4.60039C16.3 4.60039 16.2997 4.60039 16.2993 4.60039C16.299 4.60039 16.2986 4.60039 16.2983 4.60039C16.2979 4.60039 16.2976 4.60039 16.2972 4.60039C16.2969 4.60039 16.2965 4.60039 16.2962 4.60039C16.2958 4.60039 16.2955 4.60039 16.2951 4.60039C16.2948 4.60039 16.2944 4.60039 16.2941 4.60039C16.2937 4.60039 16.2934 4.60039 16.293 4.60039C16.2927 4.60039 16.2923 4.60039 16.292 4.60039C16.2916 4.60039 16.2913 4.60039 16.2909 4.60039C16.2906 4.60039 16.2902 4.60039 16.2899 4.60039C16.2895 4.60039 16.2892 4.60039 16.2888 4.60039C16.2885 4.60039 16.2881 4.60039 16.2877 4.60039C16.2874 4.60039 16.287 4.60039 16.2867 4.60039C16.2863 4.60039 16.286 4.60039 16.2856 4.60039C16.2852 4.60039 16.2849 4.60039 16.2845 4.60039C16.2842 4.60039 16.2838 4.60039 16.2834 4.60039C16.2831 4.60039 16.2827 4.60039 16.2824 4.60039C16.282 4.60039 16.2816 4.60039 16.2813 4.60039C16.2809 4.60039 16.2805 4.60039 16.2802 4.60039C16.2798 4.60039 16.2795 4.60039 16.2791 4.60039C16.2787 4.60039 16.2784 4.60039 16.278 4.60039C16.2776 4.60039 16.2773 4.60039 16.2769 4.60039C16.2765 4.60039 16.2762 4.60039 16.2758 4.60039C16.2754 4.60039 16.275 4.60039 16.2747 4.60039C16.2743 4.60039 16.2739 4.60039 16.2736 4.60039C16.2732 4.60039 16.2728 4.60039 16.2725 4.60039C16.2721 4.60039 16.2717 4.60039 16.2713 4.60039C16.271 4.60039 16.2706 4.60039 16.2702 4.60039C16.2698 4.60039 16.2695 4.60039 16.2691 4.60039C16.2687 4.60039 16.2683 4.60039 16.268 4.60039C16.2676 4.60039 16.2672 4.60039 16.2668 4.60039C16.2664 4.60039 16.2661 4.60039 16.2657 4.60039C16.2653 4.60039 16.2649 4.60039 16.2646 4.60039C16.2642 4.60039 16.2638 4.60039 16.2634 4.60039C16.263 4.60039 16.2626 4.60039 16.2623 4.60039C16.2619 4.60039 16.2615 4.60039 16.2611 4.60039C16.2607 4.60039 16.2603 4.60039 16.26 4.60039C16.2596 4.60039 16.2592 4.60039 16.2588 4.60039C16.2584 4.60039 16.258 4.60039 16.2576 4.60039C16.2572 4.60039 16.2569 4.60039 16.2565 4.60039C16.2561 4.60039 16.2557 4.60039 16.2553 4.60039C16.2549 4.60039 16.2545 4.60039 16.2541 4.60039C16.2537 4.60039 16.2533 4.60039 16.2529 4.60039C16.2525 4.60039 16.2522 4.60039 16.2518 4.60039C16.2514 4.60039 16.251 4.60039 16.2506 4.60039C16.2502 4.60039 16.2498 4.60039 16.2494 4.60039C16.249 4.60039 16.2486 4.60039 16.2482 4.60039C16.2478 4.60039 16.2474 4.60039 16.247 4.60039C16.2466 4.60039 16.2462 4.60039 16.2458 4.60039C16.2454 4.60039 16.245 4.60039 16.2446 4.60039C16.2442 4.60039 16.2438 4.60039 16.2434 4.60039C16.243 4.60039 16.2426 4.60039 16.2421 4.60039C16.2417 4.60039 16.2413 4.60039 16.2409 4.60039C16.2405 4.60039 16.2401 4.60039 16.2397 4.60039C16.2393 4.60039 16.2389 4.60039 16.2385 4.60039C16.2381 4.60039 16.2377 4.60039 16.2372 4.60039C16.2368 4.60039 16.2364 4.60039 16.236 4.60039C16.2356 4.60039 16.2352 4.60039 16.2348 4.60039C16.2343 4.60039 16.2339 4.60039 16.2335 4.60039C16.2331 4.60039 16.2327 4.60039 16.2323 4.60039C16.2318 4.60039 16.2314 4.60039 16.231 4.60039C16.2306 4.60039 16.2302 4.60039 16.2298 4.60039C16.2293 4.60039 16.2289 4.60039 16.2285 4.60039C16.2281 4.60039 16.2276 4.60039 16.2272 4.60039C16.2268 4.60039 16.2264 4.60039 16.2259 4.60039C16.2255 4.60039 16.2251 4.60039 16.2247 4.60039C16.2242 4.60039 16.2238 4.60039 16.2234 4.60039C16.223 4.60039 16.2225 4.60039 16.2221 4.60039C16.2217 4.60039 16.2212 4.60039 16.2208 4.60039C16.2204 4.60039 16.2199 4.60039 16.2195 4.60039C16.2191 4.60039 16.2186 4.60039 16.2182 4.60039C16.2178 4.60039 16.2173 4.60039 16.2169 4.60039C16.2165 4.60039 16.216 4.60039 16.2156 4.60039C16.2152 4.60039 16.2147 4.60039 16.2143 4.60039C16.2138 4.60039 16.2134 4.60039 16.213 4.60039C16.2125 4.60039 16.2121 4.60039 16.2116 4.60039C16.2112 4.60039 16.2107 4.60039 16.2103 4.60039C16.2099 4.60039 16.2094 4.60039 16.209 4.60039C16.2085 4.60039 16.2081 4.60039 16.2076 4.60039C16.2072 4.60039 16.2067 4.60039 16.2063 4.60039C16.2058 4.60039 16.2054 4.60039 16.2049 4.60039C16.2045 4.60039 16.204 4.60039 16.2036 4.60039C16.2031 4.60039 16.2027 4.60039 16.2022 4.60039C16.2018 4.60039 16.2013 4.60039 16.2008 4.60039C16.2004 4.60039 16.1999 4.60039 16.1995 4.60039C16.199 4.60039 16.1986 4.60039 16.1981 4.60039C16.1976 4.60039 16.1972 4.60039 16.1967 4.60039C16.1963 4.60039 16.1958 4.60039 16.1953 4.60039C16.1949 4.60039 16.1944 4.60039 16.1939 4.60039C16.1935 4.60039 16.193 4.60039 16.1925 4.60039C16.1921 4.60039 16.1916 4.60039 16.1911 4.60039C16.1907 4.60039 16.1902 4.60039 16.1897 4.60039C16.1893 4.60039 16.1888 4.60039 16.1883 4.60039C16.1878 4.60039 16.1874 4.60039 16.1869 4.60039C16.1864 4.60039 16.186 4.60039 16.1855 4.60039C16.185 4.60039 16.1845 4.60039 16.1841 4.60039C16.1836 4.60039 16.1831 4.60039 16.1826 4.60039C16.1821 4.60039 16.1817 4.60039 16.1812 4.60039C16.1807 4.60039 16.1802 4.60039 16.1797 4.60039C16.1792 4.60039 16.1788 4.60039 16.1783 4.60039C16.1778 4.60039 16.1773 4.60039 16.1768 4.60039C16.1763 4.60039 16.1759 4.60039 16.1754 4.60039C16.1749 4.60039 16.1744 4.60039 16.1739 4.60039C16.1734 4.60039 16.1729 4.60039 16.1724 4.60039C16.1719 4.60039 16.1714 4.60039 16.1709 4.60039C16.1704 4.60039 16.17 4.60039 16.1695 4.60039C16.169 4.60039 16.1685 4.60039 16.168 4.60039C16.1675 4.60039 16.167 4.60039 16.1665 4.60039C16.166 4.60039 16.1655 4.60039 16.165 4.60039C16.1645 4.60039 16.164 4.60039 16.1635 4.60039C16.163 4.60039 16.1625 4.60039 16.1619 4.60039C16.1614 4.60039 16.1609 4.60039 16.1604 4.60039C16.1599 4.60039 16.1594 4.60039 16.1589 4.60039C16.1584 4.60039 16.1579 4.60039 16.1574 4.60039C16.1569 4.60039 16.1564 4.60039 16.1558 4.60039C16.1553 4.60039 16.1548 4.60039 16.1543 4.60039C16.1538 4.60039 16.1533 4.60039 16.1527 4.60039C16.1522 4.60039 16.1517 4.60039 16.1512 4.60039C16.1507 4.60039 16.1502 4.60039 16.1496 4.60039C16.1491 4.60039 16.1486 4.60039 16.1481 4.60039C16.1475 4.60039 16.147 4.60039 16.1465 4.60039C16.146 4.60039 16.1454 4.60039 16.1449 4.60039C16.1444 4.60039 16.1439 4.60039 16.1433 4.60039C16.1428 4.60039 16.1423 4.60039 16.1417 4.60039C16.1412 4.60039 16.1407 4.60039 16.1401 4.60039C16.1396 4.60039 16.1391 4.60039 16.1385 4.60039C16.138 4.60039 16.1375 4.60039 16.1369 4.60039C16.1364 4.60039 16.1358 4.60039 16.1353 4.60039C16.1348 4.60039 16.1342 4.60039 16.1337 4.60039C16.1331 4.60039 16.1326 4.60039 16.1321 4.60039C16.1315 4.60039 16.131 4.60039 16.1304 4.60039C16.1299 4.60039 16.1293 4.60039 16.1288 4.60039C16.1282 4.60039 16.1277 4.60039 16.1271 4.60039C16.1266 4.60039 16.126 4.60039 16.1255 4.60039C16.1249 4.60039 16.1244 4.60039 16.1238 4.60039C16.1233 4.60039 16.1227 4.60039 16.1221 4.60039C16.1216 4.60039 16.121 4.60039 16.1205 4.60039C16.1199 4.60039 16.1194 4.60039 16.1188 4.60039C16.1182 4.60039 16.1177 4.60039 16.1171 4.60039C16.1165 4.60039 16.116 4.60039 16.1154 4.60039C16.1148 4.60039 16.1143 4.60039 16.1137 4.60039C16.1131 4.60039 16.1126 4.60039 16.112 4.60039C16.1114 4.60039 16.1109 4.60039 16.1103 4.60039C16.1097 4.60039 16.1091 4.60039 16.1086 4.60039C16.108 4.60039 16.1074 4.60039 16.1068 4.60039C16.1063 4.60039 16.1057 4.60039 16.1051 4.60039C16.1045 4.60039 16.1039 4.60039 16.1034 4.60039C16.1028 4.60039 16.1022 4.60039 16.1016 4.60039C16.101 4.60039 16.1005 4.60039 16.0999 4.60039V6.60039ZM46.4999 6.50039C47.075 6.50039 47.2132 6.49973 47.7355 6.58678L48.0643 4.614C47.3866 4.50105 47.1247 4.50039 46.4999 4.50039V6.50039ZM47.8051 6.59589C50.7787 6.87909 53.0424 7.88212 54.6303 9.47C56.2181 11.0579 57.2212 13.3216 57.5044 16.2952L59.4954 16.1056C59.1786 12.7792 58.0316 10.0429 56.0445 8.05578C54.0573 6.06866 51.3211 4.92169 47.9947 4.60489L47.8051 6.59589ZM57.5043 16.2943C57.999 21.5385 58.0999 31.8889 58.0999 38.0004H60.0999C60.0999 31.9119 60.0007 21.4623 59.4954 16.1065L57.5043 16.2943ZM20.4595 6.29861C27.1182 5.90108 35.2799 5.9008 42.5452 6.29889L42.6546 4.30189C35.3198 3.89998 27.0815 3.8997 20.3403 4.30217L20.4595 6.29861ZM29.2999 57.8004C27.0233 57.8004 23.9858 56.8753 20.8971 55.331C17.8273 53.7961 14.8194 51.7057 12.607 49.4933L11.1928 50.9075C13.5804 53.2951 16.7724 55.5047 20.0027 57.1198C23.2139 58.7254 26.5764 59.8004 29.2999 59.8004V57.8004ZM12.607 49.4933C8.89944 45.7857 6.19987 42.5491 6.19987 38.0004H4.19987C4.19987 43.4517 7.5003 47.215 11.1928 50.9075L12.607 49.4933ZM43.6888 8.95205C43.5544 8.05603 43.5496 6.76351 43.6351 5.5057C43.7213 4.2371 43.8906 3.13082 44.0556 2.59448L42.1441 2.0063C41.9091 2.76996 41.7285 4.06369 41.6397 5.37009C41.5501 6.68727 41.5453 8.14475 41.7109 9.24873L43.6888 8.95205ZM44.0592 2.58256C44.1914 2.13309 44.469 2.02539 44.6499 2.02539C44.8307 2.02539 45.1083 2.13309 45.2405 2.58256L47.1592 2.01822C46.7914 0.767686 45.769 0.0253906 44.6499 0.0253906C43.5307 0.0253906 42.5083 0.767686 42.1405 2.01822L44.0592 2.58256ZM45.2255 2.52525C45.3403 3.02267 45.3764 4.16951 45.3014 5.53293C45.228 6.86565 45.0579 8.24504 44.8297 9.15786L46.77 9.64293C47.0418 8.55574 47.2217 7.03513 47.2984 5.64285C47.3733 4.28127 47.3595 2.87811 47.1743 2.07553L45.2255 2.52525ZM44.8264 9.17135C44.7817 9.36152 44.6982 9.44992 44.628 9.49754C44.5466 9.55265 44.4278 9.58842 44.2849 9.57802C43.9985 9.5572 43.7457 9.37283 43.6846 9.02661L41.7151 9.37418C41.954 10.728 43.0512 11.4936 44.1398 11.5728C45.2495 11.6535 46.4458 11.0211 46.7733 9.62943L44.8264 9.17135ZM43.6999 9.20039V9.10039H41.6999V9.20039H43.6999ZM21.3888 9.24873C21.5544 8.14475 21.5496 6.68727 21.4601 5.37009C21.3713 4.06369 21.1906 2.76996 20.9556 2.0063L19.0441 2.59448C19.2091 3.13082 19.3785 4.23709 19.4647 5.5057C19.5501 6.76351 19.5453 8.05603 19.4109 8.95205L21.3888 9.24873ZM20.9592 2.01822C20.5914 0.767686 19.569 0.0253906 18.4499 0.0253906C17.3307 0.0253906 16.3083 0.767686 15.9405 2.01822L17.8592 2.58256C17.9914 2.13309 18.269 2.02539 18.4499 2.02539C18.6307 2.02539 18.9083 2.13309 19.0405 2.58256L20.9592 2.01822ZM15.9255 2.07553C15.7403 2.87811 15.7264 4.28127 15.8014 5.64285C15.878 7.03513 16.0579 8.55574 16.3297 9.64293L18.27 9.15786C18.0418 8.24504 17.8717 6.86565 17.7984 5.53293C17.7233 4.16951 17.7595 3.02267 17.8743 2.52525L15.9255 2.07553ZM16.3264 9.62943C16.6539 11.0211 17.8503 11.6535 18.9599 11.5728C20.0485 11.4936 21.1457 10.728 21.3846 9.37418L19.4151 9.02661C19.354 9.37283 19.1012 9.5572 18.8148 9.57802C18.6719 9.58842 18.5531 9.55265 18.4718 9.49754C18.4015 9.44992 18.318 9.36152 18.2733 9.17135L16.3264 9.62943ZM21.3999 9.20039V9.10039H19.3999V9.20039H21.3999ZM53.8999 43.5C53.8999 49.299 49.1989 54 43.3999 54V56C50.3035 56 55.8999 50.4036 55.8999 43.5H53.8999ZM43.3999 54C37.6009 54 32.8999 49.299 32.8999 43.5H30.8999C30.8999 50.4036 36.4963 56 43.3999 56V54ZM32.8999 43.5C32.8999 37.701 37.6009 33 43.3999 33V31C36.4963 31 30.8999 36.5964 30.8999 43.5H32.8999ZM43.3999 33C49.1989 33 53.8999 37.701 53.8999 43.5H55.8999C55.8999 36.5964 50.3035 31 43.3999 31V33ZM51.1928 52.7071L53.1928 54.7071L54.607 53.2929L52.607 51.2929L51.1928 52.7071ZM51.9687 55.7644C52.939 58.2443 55.349 61.2605 56.7473 62.8585L58.2525 61.5415C56.8508 59.9395 54.6608 57.1557 53.8311 55.0356L51.9687 55.7644ZM56.7406 62.8508C57.6359 63.8953 59.0538 64.1423 60.1424 63.8701L59.6574 61.9299C59.146 62.0577 58.5639 61.9047 58.2592 61.5492L56.7406 62.8508ZM60.194 63.8558C61.8344 63.351 63.0243 62.003 63.6103 60.7138L61.7895 59.8862C61.3755 60.797 60.5654 61.649 59.6058 61.9442L60.194 63.8558ZM63.6137 60.7061C63.8639 60.1432 63.9905 59.5872 63.8493 58.9751C63.7264 58.4426 63.4139 57.9682 63.132 57.5453L61.4678 58.6547C61.7859 59.1318 61.8734 59.3074 61.9005 59.4249C61.9093 59.4628 61.9359 59.5568 61.7861 59.8939L63.6137 60.7061ZM63.0943 57.4926C62.3805 56.5592 61.2678 55.4798 60.1267 54.5311C58.9872 53.5836 57.745 52.7045 56.7471 52.2056L55.8527 53.9944C56.6548 54.3955 57.7626 55.1664 58.8481 56.0689C59.932 56.9702 60.9193 57.9408 61.5055 58.7075L63.0943 57.4926ZM56.7471 52.2056C56.1274 51.8957 55.4337 52.0372 54.9795 52.185C54.4687 52.3513 53.9489 52.6292 53.4987 52.9366C53.0503 53.2426 52.616 53.6152 52.3016 54.0046C52.1456 54.1977 51.9895 54.4312 51.8891 54.6939C51.7909 54.9507 51.7087 55.3382 51.8636 55.7511L53.7362 55.0489C53.7757 55.1541 53.7807 55.2469 53.7761 55.3097C53.7718 55.3695 53.7588 55.404 53.7572 55.4081C53.7564 55.4102 53.7776 55.3601 53.8576 55.2611C54.015 55.0661 54.287 54.8199 54.6261 54.5885C54.9634 54.3583 55.3124 54.18 55.5985 54.0868C55.9411 53.9753 55.9724 54.0543 55.8527 53.9944L56.7471 52.2056ZM52.7999 56.4H52.8999V54.4H52.7999V56.4Z" fill="#494A4A"/>
<path id="1px" d="M46.2998 29.6004C47.1998 29.4004 48.6998 29.4004 49.6998 29.6004C50.6998 29.8004 51.1998 30.4004 51.3998 31.3004M33.4998 32.9004C33.4998 32.3004 33.4998 31.7004 33.5998 31.3004C33.7998 30.4004 34.4998 29.8004 35.2998 29.6004C36.1998 29.4004 37.6998 29.4004 38.5998 29.6004M28.5998 46.8004C28.5998 46.8004 28.0998 47.2004 27.6998 47.2004C26.7998 47.4004 25.2998 47.4004 24.3998 47.2004C23.2998 46.9004 22.8998 46.3004 22.6998 45.5004C22.4998 44.6004 22.4998 43.1004 22.6998 42.2004C22.8998 41.3004 23.5998 40.7004 24.3998 40.5004C25.2998 40.3004 26.6998 40.3004 27.6998 40.5004C28.0998 40.5004 28.3998 40.7004 28.6998 40.9004M58.8998 57.9C59.3998 58.3 60.3998 59.0001 60.3998 59.6001M37.4998 39.1C36.0998 40.0001 35.1998 42.7 35.7998 44.8M49.6998 25.3004C48.7998 25.5004 47.1998 25.5004 46.3998 25.3004C45.2998 25.0004 44.8998 24.4004 44.6998 23.6004C44.4998 22.7004 44.4998 21.2004 44.6998 20.3004C44.8998 19.4004 45.5998 18.8004 46.3998 18.6004C47.2998 18.4004 48.7998 18.4004 49.6998 18.6004C50.5998 18.8004 51.1998 19.4004 51.3998 20.3004C51.5998 21.2004 51.5998 22.7004 51.3998 23.6004C51.1998 24.4004 50.6998 25.0004 49.6998 25.3004ZM38.6998 25.3004C37.7998 25.5004 36.1998 25.5004 35.3998 25.3004C34.2998 25.0004 33.8998 24.4004 33.6998 23.6004C33.4998 22.7004 33.4998 21.2004 33.6998 20.3004C33.8998 19.4004 34.5998 18.8004 35.3998 18.6004C36.2998 18.4004 37.6998 18.4004 38.6998 18.6004C39.6998 18.8004 40.1998 19.4004 40.3998 20.3004C40.5998 21.2004 40.5998 22.7004 40.3998 23.6004C40.1998 24.4004 39.6998 25.0004 38.6998 25.3004ZM27.6998 25.3004C26.7998 25.5004 25.1998 25.5004 24.3998 25.3004C23.2998 25.0004 22.8998 24.4004 22.6998 23.6004C22.4998 22.7004 22.4998 21.2004 22.6998 20.3004C22.8998 19.4004 23.5998 18.8004 24.3998 18.6004C25.2998 18.4004 26.7998 18.4004 27.6998 18.6004C28.5998 18.8004 29.1998 19.4004 29.3998 20.3004C29.5998 21.2004 29.5998 22.7004 29.3998 23.6004C29.1998 24.4004 28.6998 25.0004 27.6998 25.3004ZM27.6998 36.3004C26.7998 36.5004 24.5998 36.5004 23.7998 36.3004C22.9998 36.1004 22.7998 35.7004 22.6998 35.0004C22.4998 34.1004 22.5998 32.2004 22.6998 31.3004C22.7998 30.4004 23.5998 29.8004 24.3998 29.6004C25.2998 29.4004 26.7998 29.4004 27.6998 29.6004C28.5998 29.8004 29.1998 30.4004 29.3998 31.3004C29.5998 32.2004 29.5998 33.7004 29.3998 34.6004C29.1998 35.4004 28.6998 36.0004 27.6998 36.3004ZM16.6998 36.3004C15.7998 36.5004 14.1998 36.5004 13.3998 36.3004C12.2998 36.0004 11.8998 35.4004 11.6998 34.6004C11.4998 33.7004 11.4998 32.2004 11.6998 31.3004C11.8998 30.4004 12.5998 29.8004 13.3998 29.6004C14.2998 29.4004 16.1998 29.5004 17.0998 29.6004C17.9998 29.7004 18.1998 30.4004 18.3998 31.2004C18.5998 32.0004 18.5998 33.6004 18.3998 34.5004C18.1998 35.3004 17.6998 35.9004 16.6998 36.2004V36.3004Z" stroke="#494A4A" stroke-linecap="round" stroke-linejoin="round"/>
</g>
</g>
</svg>
