<svg width="65" height="64" viewBox="0 0 65 64" fill="none" xmlns="http://www.w3.org/2000/svg">
<g id="Pictogram-image" clip-path="url(#clip0_426_1678)">
<g id="stroke-default">
<path id="2px" d="M51.0075 59.58L51.0542 60.5789L51.0546 60.5789L51.0075 59.58ZM13.1075 59.58L13.0557 60.5786L13.056 60.5786L13.1075 59.58ZM1.68749 49.42L0.692315 49.5181L0.692332 49.5183L1.68749 49.42ZM13.1575 6.64997L13.223 7.64782L13.2259 7.64763L13.1575 6.64997ZM51.0575 6.64997L51.1419 5.65354L51.1339 5.65286L51.1259 5.65231L51.0575 6.64997ZM62.4775 16.8L63.4735 16.7108L63.4728 16.7032L63.472 16.6955L62.4775 16.8ZM62.4775 49.42L63.4701 49.5415L63.4721 49.5253L63.4735 49.5091L62.4775 49.42ZM4.7096 41.1269C4.29366 41.4902 4.25103 42.1219 4.61438 42.5379C4.97772 42.9538 5.60945 42.9964 6.02538 42.6331L4.7096 41.1269ZM16.6275 41.1L16.6129 42.0999L16.6142 42.0999L16.6275 41.1ZM42.0475 43.45L42.0218 44.4496C42.0304 44.4499 42.0389 44.45 42.0475 44.45V43.45ZM52.4684 55.692C52.8838 56.056 53.5156 56.0144 53.8796 55.599C54.2436 55.1837 54.2019 54.5519 53.7866 54.1879L52.4684 55.692ZM43.802 44.3093C43.3543 44.6326 43.2534 45.2577 43.5768 45.7055C43.9002 46.1532 44.5252 46.254 44.973 45.9306L43.802 44.3093ZM49.8175 43.38L50.6964 43.8571L50.6993 43.8515L49.8175 43.38ZM55.5875 37.01L55.7948 36.0317C55.7267 36.0173 55.6572 36.01 55.5875 36.01V37.01ZM58.7364 39.107C59.2373 39.3396 59.8319 39.122 60.0645 38.6211C60.2971 38.1201 60.0795 37.5255 59.5786 37.293L58.7364 39.107ZM50.9607 58.5811C38.1721 59.1796 23.4049 59.1095 13.159 58.5813L13.056 60.5786C23.3701 61.1104 38.2029 61.1803 51.0542 60.5789L50.9607 58.5811ZM13.1593 58.5813C10.2298 58.4294 7.76419 57.5842 5.96965 56.0809C4.19093 54.5909 2.98507 52.3831 2.68264 49.3217L0.692332 49.5183C1.03991 53.0368 2.45904 55.7491 4.68533 57.614C6.89579 59.4658 9.81519 60.4106 13.0557 60.5786L13.1593 58.5813ZM2.68266 49.3218C1.84038 40.7801 2.1572 23.5132 2.68435 16.8792L0.69063 16.7208C0.157775 23.4267 -0.165401 40.8199 0.692315 49.5181L2.68266 49.3218ZM2.68435 16.8792C2.93677 13.7024 3.87522 11.5725 5.48391 10.1586C7.11522 8.72477 9.59332 7.88623 13.223 7.64782L13.0919 5.65212C9.26166 5.90371 6.26975 6.80516 4.16356 8.65636C2.03475 10.5274 0.968206 13.2275 0.69063 16.7208L2.68435 16.8792ZM13.2259 7.64763C25.7989 6.78575 38.4161 6.78575 50.9891 7.64763L51.1259 5.65231C38.4618 4.78419 25.7532 4.78419 13.0891 5.65231L13.2259 7.64763ZM50.9731 7.6464C54.469 7.94259 56.9073 8.80072 58.5491 10.2416C60.171 11.6649 61.1549 13.7808 61.483 16.9044L63.472 16.6955C63.1101 13.2491 61.984 10.595 59.8683 8.73836C57.7727 6.89922 54.8459 5.96735 51.1419 5.65354L50.9731 7.6464ZM61.4815 16.8891C62.4472 27.6814 62.4472 38.5385 61.4815 49.3308L63.4735 49.5091C64.4498 38.5981 64.4498 27.6218 63.4735 16.7108L61.4815 16.8891ZM61.4849 49.2984C61.1703 51.8671 60.2306 54.0881 58.5751 55.7045C56.9272 57.3135 54.4765 58.4152 50.9604 58.5811L51.0546 60.5789C54.9585 60.3947 57.9078 59.1514 59.9724 57.1355C62.0294 55.1269 63.1147 52.4428 63.4701 49.5415L61.4849 49.2984ZM6.02538 42.6331C7.35046 41.4755 8.30096 40.425 8.94246 39.8028C9.65738 39.1094 9.94019 39 10.1575 39V37C9.05479 37 8.24759 37.6906 7.55001 38.3671C6.77901 39.1149 5.99451 40.0044 4.7096 41.1269L6.02538 42.6331ZM10.1575 39C10.4148 39 10.7669 39.1033 11.2511 39.3621C11.7292 39.6176 12.2325 39.966 12.7994 40.3599C13.3435 40.738 13.9497 41.1604 14.5577 41.485C15.1607 41.8071 15.8645 42.089 16.6129 42.0999L16.642 40.1001C16.3605 40.096 15.9905 39.9829 15.4998 39.7208C15.014 39.4614 14.5064 39.1106 13.9406 38.7175C13.3975 38.3401 12.7945 37.9192 12.1939 37.5982C11.5993 37.2804 10.9002 37 10.1575 37V39ZM16.6142 42.0999C16.948 42.1043 17.2599 42.0084 17.5126 41.9021C17.7753 41.7917 18.0423 41.6407 18.3045 41.4709C18.8282 41.1316 19.4134 40.6636 20.023 40.1318C21.2445 39.0662 22.6673 37.6525 24.0519 36.2685C25.4507 34.8703 26.8102 33.5029 27.9446 32.4818C28.5128 31.9704 28.9992 31.5692 29.3875 31.3012C29.5818 31.1671 29.7303 31.0813 29.8363 31.0322C29.9569 30.9762 29.9542 31 29.8675 31V29C29.5321 29 29.2258 29.1107 28.9949 29.2177C28.7493 29.3317 28.4982 29.4849 28.2516 29.6551C27.758 29.9957 27.1972 30.4637 26.6066 30.9953C25.4236 32.0602 24.0192 33.4734 22.638 34.854C21.2427 36.2487 19.8692 37.6119 18.7082 38.6247C18.1266 39.1321 17.6239 39.5288 17.217 39.7924C17.0139 39.924 16.8549 40.0091 16.7376 40.0584C16.6103 40.1119 16.5882 40.0994 16.6408 40.1001L16.6142 42.0999ZM29.8675 31C29.8324 31 29.9824 30.9997 30.3632 31.3296C30.7101 31.6301 31.1193 32.0908 31.5876 32.6982C32.5252 33.9139 33.5681 35.5401 34.6922 37.2392C35.7971 38.9093 36.9757 40.6419 38.1368 41.9656C38.718 42.6283 39.3233 43.2218 39.942 43.6596C40.5527 44.0918 41.2577 44.43 42.0218 44.4496L42.0732 42.4503C41.8648 42.4449 41.5454 42.3441 41.0973 42.027C40.6572 41.7156 40.1693 41.2498 39.6404 40.6468C38.5811 39.4392 37.4716 37.8156 36.3602 36.1357C35.2681 34.4848 34.1666 32.7673 33.1714 31.4768C32.6734 30.831 32.169 30.2479 31.6728 29.818C31.2104 29.4174 30.5876 29 29.8675 29V31ZM42.0475 44.45C42.0094 44.45 42.0983 44.442 42.3578 44.6118C42.5991 44.7697 42.8991 45.0224 43.2605 45.3791C43.9834 46.0925 44.8342 47.1031 45.8054 48.2877C47.7131 50.6147 50.0456 53.5689 52.4684 55.692L53.7866 54.1879C51.5194 52.2011 49.3119 49.4103 47.3521 47.0197C46.3895 45.8456 45.4747 44.7544 44.6654 43.9556C44.2607 43.5562 43.853 43.2001 43.453 42.9384C43.0714 42.6886 42.5856 42.45 42.0475 42.45V44.45ZM44.973 45.9306C45.0622 45.8662 45.3192 45.7592 45.834 45.6416C46.3185 45.5309 46.8665 45.4437 47.4701 45.3355C48.0434 45.2328 48.6695 45.1106 49.1985 44.9332C49.6626 44.7775 50.3539 44.4879 50.6963 43.8571L48.9386 42.9029C48.9961 42.7971 49.0011 42.8899 48.5625 43.037C48.1886 43.1624 47.6953 43.2634 47.1174 43.3669C46.5697 43.465 45.9346 43.5671 45.3887 43.6918C44.8733 43.8095 44.2528 43.9837 43.802 44.3093L44.973 45.9306ZM50.6993 43.8515C51.1502 43.0085 52.2475 41.4792 53.3962 40.1466C53.9663 39.4852 54.5225 38.9036 54.9899 38.4962C55.225 38.2914 55.4154 38.1502 55.557 38.0658C55.7283 37.9635 55.7194 38.01 55.5875 38.01V36.01C55.1631 36.01 54.7857 36.197 54.5323 36.3482C54.2492 36.5171 53.9586 36.7421 53.676 36.9884C53.1081 37.4832 52.4824 38.1435 51.8813 38.8408C50.6875 40.2258 49.4848 41.8815 48.9357 42.9084L50.6993 43.8515ZM55.3802 37.9882C56.5375 38.2335 57.6634 38.6088 58.7364 39.107L59.5786 37.293C58.3689 36.7313 57.0996 36.3082 55.7948 36.0317L55.3802 37.9882Z" fill="#494A4A"/>
<path id="1px" d="M6.69735 52.34C8.75735 54.78 10.6973 55.79 13.0073 55.47M43.6673 49.54C43.3537 48.7255 42.8204 48.0138 42.1266 47.4842C41.4328 46.9546 40.6057 46.6278 39.7374 46.54M57.6273 40.58C56.2373 40.01 55.8673 40.42 54.6273 41.71M58.4273 23.33C54.8409 23.6168 51.2358 23.5733 47.6573 23.2C38.4673 22.25 38.8173 20.2 45.5673 19.95C45.3349 19.3703 45.293 18.7315 45.448 18.1265C45.6029 17.5214 45.9465 16.9813 46.429 16.5847C46.9114 16.188 47.5077 15.9553 48.1313 15.9203C48.7549 15.8853 49.3735 16.0498 49.8973 16.39C50.7973 12.87 53.1973 11.54 55.5173 11.58M29.8773 30.12C34.2573 36.07 21.4373 41.37 22.7973 45C23.7973 45 27.7973 45 27.7973 47C27.7973 48.25 26.5773 51.65 29.4273 54.38M5.15735 28.1C9.15735 28.75 14.5973 28.63 16.9473 27.92C21.1073 26.65 20.3773 25.27 16.1873 24.46C15.6473 18.07 7.58735 18.07 6.67735 23.53C6.18535 23.3484 5.67602 23.2177 5.15735 23.14" stroke="#494A4A" stroke-linecap="round" stroke-linejoin="round"/>
</g>
</g>
<defs>
<clipPath id="clip0_426_1678">
<rect width="64" height="64" fill="white" transform="translate(0.157471)"/>
</clipPath>
</defs>
</svg>
