<svg width="64" height="64" viewBox="0 0 64 64" fill="none" xmlns="http://www.w3.org/2000/svg">
<g id="Pictogram-receive">
<g id="stroke-default">
<path id="2px" d="M38.3502 6.72013C41.2002 10.4401 46.6802 16.2601 47.4302 19.2001C48.3201 22.3901 49.6926 25.4252 51.5002 28.2001C53.5002 31.2901 48.7902 32.2001 47.1902 29.1101M24.3802 44.6101C22.8202 42.2601 21.2202 39.4601 19.5302 38.3801C17.2202 36.9001 14.0002 38.1801 15.6202 40.3801C18.4702 44.3801 20.6202 50.5501 22.2702 52.2301C24.2702 54.2301 26.2102 57.5701 32.1802 57.9801C36.0802 58.2501 44.9702 56.6601 49.5702 61.5301C53.3302 65.5301 63.3002 60.3601 61.2402 56.1801C59.4202 52.4901 56.2402 47.3501 48.8902 45.4101C42.5502 43.7501 38.7802 47.1801 34.7602 46.8001C32.1502 46.5501 29.6502 44.4001 28.2702 43.6101C25.2702 41.9001 22.7102 45.6101 24.9202 47.6101C30.1302 52.3201 31.7602 53.6101 40.0002 54.2901M15.3602 38.6301C12.1102 36.7201 9.84022 39.7001 11.6202 41.1701C16.0402 44.8401 16.6202 47.4601 22.8202 52.8601M35.6302 28.5401C32.1002 26.3601 30.6302 30.8301 33.7002 30.9701C37.2002 31.1201 36.7902 35.2801 32.0002 33.6401M34.0002 27.0001V27.7301M34.0002 34.0001V35.0001M5.37021 1.09013C9.97816 1.96256 14.6275 2.60005 19.3002 3.00013C22.8802 3.25013 31.6602 2.44013 35.4302 4.12013C38.5102 5.49013 44.2702 15.2601 44.9202 18.2101C45.7602 21.9701 47.1302 28.3501 47.9202 33.2101C48.2902 35.5601 43.7002 35.3301 43.0202 31.6101C42.3402 27.8901 41.0202 23.6101 39.4902 21.7801C38.7502 20.9101 36.4302 19.5701 34.5902 18.1701C32.7502 16.7701 31.1902 15.2001 29.1002 16.0001C25.5402 17.3201 22.6602 23.1001 24.2302 27.6401C27.6602 37.5401 20.6802 36.9501 20.8302 34.5501C20.9802 31.9701 19.0902 28.2101 17.8302 26.7701C15.4602 24.0701 14.7302 20.3001 13.1302 18.2101C11.8802 16.5701 6.89022 15.2101 4.46022 15.0301C-1.52978 14.4601 1.26021 0.330131 5.37021 1.09013ZM42.0002 31.0001C42.0002 35.4184 38.4185 39.0001 34.0002 39.0001C29.5819 39.0001 26.0002 35.4184 26.0002 31.0001C26.0002 26.5819 29.5819 23.0001 34.0002 23.0001C38.4185 23.0001 42.0002 26.5819 42.0002 31.0001Z" stroke="#494A4A" stroke-width="2" stroke-linecap="round" stroke-linejoin="round"/>
<path id="1px" d="M26.7803 16.9101C28.8509 15.2409 31.3564 14.1998 34.0003 13.9101M10.5303 13.0001C13.0803 13.5101 15.5303 15.1601 16.1903 16.9101M46.6803 47.6901C48.8001 47.7312 50.83 48.5538 52.3803 50.0001" stroke="#494A4A" stroke-linecap="round" stroke-linejoin="round"/>
</g>
</g>
</svg>
