<svg width="64" height="64" viewBox="0 0 64 64" fill="none" xmlns="http://www.w3.org/2000/svg">
<g id="Pictogram-budget2" clip-path="url(#clip0_426_2775)">
<g id="stroke-default">
<path id="2px" d="M13.5 13.8701C8.15002 14.4601 6.61002 18.3101 6.50002 23.4601M62.42 31.0001C62.32 27.8501 62.17 25.0001 61.99 22.7501C61.58 17.7501 59.62 13.2101 55.37 12.3101C53.5896 12.0801 51.7951 11.9765 50 12.0001M4.83002 46.6901C4.86869 47.9428 5.00915 49.1902 5.25002 50.4201C5.99002 55.8801 9.25002 60.2301 16.67 60.5801C22.87 60.8701 28.59 61.0001 34 61.0001M56 12.4301C59 13.3401 60.3 18.1301 54.1 18.6601C43.16 19.6001 26.1 18.3701 16.1 19.2201C8.89002 19.8301 5.32002 22.7901 4.67002 29.3701C4.57002 30.3701 4.52002 32.0701 4.52002 34.0701M4.52002 32.0001C2.19002 32.1401 1.00002 33.3101 0.770017 35.0001C0.480017 37.2501 0.170017 43.3401 1.60002 45.0701C3.60002 47.5101 17.94 47.1801 22 46.5101C23.66 46.2301 24.07 37.9701 22.47 36.2601C20.87 34.5501 7.93002 35.0001 6.29002 35.0001C3.48002 35.0001 2.72002 33.7901 4.29002 33.0901M42.52 16.0001C33.86 13.0001 23.52 11.4001 22.34 12.1801C21.63 12.6701 21.56 14.0501 21.5 15.7701M53 15.1901C45 4.51015 22.12 1.52015 21.41 2.09015C20.7 2.66015 18.46 10.0001 17.34 15.7701M19.64 6.61015C19.2 6.53015 14.24 5.73015 13.96 6.20015C13.68 6.67015 13.6 11.7101 13.46 15.7701M63 47.0001C61.34 64.9001 48.26 64.0001 42.91 61.8501C36.57 59.3701 32.13 51.3101 34.78 43.0001C38.34 31.8801 47.43 32.3301 51.26 34.5101C51.72 34.7701 47.26 48.6001 47.84 49.2101C49 50.3701 63.08 46.3201 63 47.0001ZM51.52 45.8201C51.3 45.6101 56.33 34.0001 56.7 34.0601C60.53 34.3201 63.32 39.5001 62.98 43.0601C62.93 43.5501 51.69 46.0001 51.52 45.8201Z" stroke="#494A4A" stroke-width="2" stroke-linecap="round" stroke-linejoin="round"/>
<path id="1px" d="M14.0002 40.9999C13.9861 41.3311 14.0409 41.6617 14.1609 41.9707C14.2809 42.2797 14.4637 42.5605 14.6976 42.7953C14.9315 43.0302 15.2116 43.2141 15.5201 43.3354C15.8286 43.4566 16.1589 43.5127 16.4902 43.4999C18.1302 43.2999 19.1002 42.4999 18.9902 40.9999C18.9565 40.3478 18.6822 39.7314 18.2205 39.2696C17.7588 38.8079 17.1423 38.5337 16.4902 38.4999C14.7102 38.3999 14.0002 39.6399 14.0002 40.9999Z" stroke="#494A4A" stroke-linecap="round" stroke-linejoin="round"/>
</g>
</g>
<defs>
<clipPath id="clip0_426_2775">
<rect width="64" height="64" fill="white"/>
</clipPath>
</defs>
</svg>
