<svg width="64" height="64" viewBox="0 0 64 64" fill="none" xmlns="http://www.w3.org/2000/svg">
<g id="Pictogram-files-undo " clip-path="url(#clip0_426_2302)">
<g id="stroke-default">
<path id="2px" d="M55 37.1101C55 30.5401 54.85 17.9801 54.62 15.4801C54.23 11.4201 53.36 9.84006 50.13 9.54006C45.53 9.12006 41.13 9.04006 37.39 9.04006C32.09 9.04006 29.04 11.7401 25.75 15.0401C21.64 19.2501 18 21.9001 18 29.2201C18 32.8001 18.12 49.6901 18.23 55.6101C18.1907 56.2459 18.2808 56.883 18.4948 57.483C18.7088 58.083 19.0423 58.6333 19.4751 59.1007C19.908 59.5681 20.4311 59.9429 21.0129 60.2023C21.5947 60.4617 22.2231 60.6005 22.86 60.6101C25.49 60.7801 35 61.0001 40 61.0001M18.06 28.1301C18.23 25.6501 19.26 23.9001 21.43 23.4201C22.68 23.1401 25.84 22.7601 27.56 22.3401C30.16 21.6901 31.22 20.5801 31.81 17.9701C32.16 16.4201 32.22 13.9701 32.4 12.6701C32.66 10.7901 34.4 9.03006 37.32 9.03006M50.06 9.40006C49.94 7.06006 48.64 5.62006 47.06 5.40006C39.56 4.24006 18.31 6.00006 14.17 6.87006C11.17 7.52006 10.07 9.71006 9.99 12.6201C9.84 18.0501 11.57 45.1401 12.53 54.2201C12.85 57.2201 13.73 59.0101 19.06 59.0101M42.75 5.00006C42.26 2.20006 40.53 1.25006 38.89 1.10006C31.54 0.450059 10.89 2.80006 6.89 3.82006C4 4.58006 3 6.76006 3 9.61006C3.06 14.9101 6 42.4401 6.9 50.3901C7.25 53.3901 8.31 55.1501 12.46 54.9901M62 42.0001C55.3 41.7201 49.37 42.9401 44.36 43.0001C44.08 43.0001 43.9 42.7901 43.9 42.4101C43.9 41.6201 44.27 39.0701 43.1 38.9901C41.55 38.8901 31 45.6001 31 48.0601C31 51.1301 42.18 57.4701 43.3 56.8901C44.3 56.4001 43.83 54.3601 43.95 53.5701C43.988 53.4232 44.0646 53.2892 44.1719 53.1819C44.2791 53.0747 44.4131 52.9981 44.56 52.9601C49.32 52.9101 61.91 56.4301 62.94 54.2101C63.52 52.9401 58.94 49.0301 58.94 47.9201C59 47.0001 62.94 42.0001 62 42.0001Z" stroke="#494A4A" stroke-width="2" stroke-linecap="round" stroke-linejoin="round"/>
<path id="1px" d="M14.4902 11.5001C13.1802 12.1301 13.5502 14.6901 13.5502 16.6001M46.4302 28.5801C45.0102 28.4601 32.2202 28.5801 31.4302 28.5801M46.4302 33.5701C44.9102 33.4401 28.4902 33.5701 27.6902 33.5701M33.6802 39.5301C32.1602 39.4001 28.4902 39.5301 27.6802 39.4801M21.5302 53.4801C21.5302 56.4801 21.3102 57.4801 27.4702 57.4801M57.0502 51.5401C55.5802 51.3601 52.8602 50.7101 52.4102 50.6901M41.4502 52.7101C41.6802 50.3801 42.8602 49.6401 45.5902 50.0901" stroke="#494A4A" stroke-linecap="round" stroke-linejoin="round"/>
</g>
</g>
<defs>
<clipPath id="clip0_426_2302">
<rect width="64" height="64" fill="white"/>
</clipPath>
</defs>
</svg>
