<svg width="64" height="64" viewBox="0 0 64 64" fill="none" xmlns="http://www.w3.org/2000/svg">
<g id="Pictogram-contract-signed" clip-path="url(#clip0_426_563)">
<g id="stroke-default">
<path id="2px" d="M22.7101 56.5698C23.5401 55.5698 25.6001 57.2498 25.5901 59.9498C25.5901 65.2098 14.9801 64.1298 13.3101 53.3098C11.5601 41.9098 16.7801 34.4298 16.2501 18.9398C16.0001 11.7898 11.0001 4.99984 3.87011 7.80984M3.87011 7.80984C-1.85989 10.0698 1.94011 23.6098 7.63011 22.0898M3.87011 7.80984C13.2901 4.42984 38.7301 1.14984 46.4801 1.08984C47.7101 1.08984 49.3101 2.25984 50.8101 4.93984M7.63011 22.0898C11.8301 20.9698 10.1401 16.0898 7.44011 15.4698C6.14011 15.1498 9.05011 13.0198 14.8501 13.1098M7.63011 22.0898C11.9301 20.5298 13.4401 20.2298 16.2301 20.0898M53.0801 30.3498C52.0001 38.1398 51.1201 46.9998 54.3901 50.2998M23.2801 56.2898C25.6301 55.6398 57.9501 49.4898 59.7301 49.8898C62.3201 50.4598 64.2001 55.7698 60.7301 57.1798C56.3701 58.9198 32.7301 62.2698 23.3301 63.0298M29.0001 47.9998C34.2001 28.4298 41.6301 16.6898 55.4701 10.9498M31.3801 40.1898C31.3101 38.3998 30.6401 35.7998 30.5101 34.4598C30.5335 32.8983 30.6975 31.342 31.0001 29.8098M45.1201 34.2898C44.1514 35.6434 43.0382 36.8874 41.8001 37.9998C40.0401 39.1698 33.3501 38.9998 31.0801 40.9998M39.5701 16.6798C42.2501 12.9598 49.6701 9.24984 52.1301 8.67984C54.5901 8.10984 62.4801 7.67984 62.9301 8.47984C63.3801 9.27984 62.2001 13.8498 61.3101 15.8998C60.4201 17.9498 55.1201 22.1598 52.8901 24.7198C51.3901 26.4198 49.8901 28.2798 48.4901 30.0498M33.1801 25.2898C33.9815 23.1285 35.252 21.1715 36.9001 19.5598" stroke="#494A4A" stroke-width="2" stroke-linecap="round" stroke-linejoin="round"/>
<path id="1px" d="M19.5596 7.48987C17.7496 7.67987 16.9796 7.87987 16.5596 8.30987C17.6166 9.49211 18.3109 10.9536 18.5596 12.5199M42.2396 32.7999C43.1816 33.287 44.1937 33.6244 45.2396 33.7999M48.7096 30.4799C45.9635 32.0445 42.8695 32.8971 39.7096 32.9599M33.1596 30.9999C32.7554 29.1351 32.5907 27.2263 32.6696 25.3199M38.2196 21.5099C38.2612 19.829 38.5544 18.1638 39.0896 16.5699M25.5396 14.4099C26.6296 14.1799 35.2096 12.8399 37.6796 12.5199M25.9996 21.3899C27.0696 21.2999 29.8296 20.8699 30.9296 20.7099M25.5396 27.5099C26.0996 27.4099 27.4496 27.0999 28.2996 26.9499M24.9296 33.6599C25.5134 33.5972 26.0896 33.4766 26.6496 33.2999M23.2196 39.9299L26.7996 39.3799" stroke="#494A4A" stroke-linecap="round" stroke-linejoin="round"/>
</g>
</g>
<defs>
<clipPath id="clip0_426_563">
<rect width="64" height="64" fill="white"/>
</clipPath>
</defs>
</svg>
