<svg width="64" height="64" viewBox="0 0 64 64" fill="none" xmlns="http://www.w3.org/2000/svg">
<g id="  Pictogram-graph-grow">
<g id="stroke-default">
<g id="2px">
<path d="M16.9997 46.5997C16.3997 44.1997 10.1997 44.9997 9.39974 45.9997C8.39974 47.1997 8.29974 55.3997 9.09974 57.1997C9.89974 58.9997 15.6997 59.3997 16.8997 57.1997C18.0997 54.9997 17.4997 48.4997 16.9997 46.5997Z" stroke="#494A4A" stroke-width="2" stroke-linecap="round" stroke-linejoin="round"/>
<path d="M22.7997 44.1997C23.4997 40.5997 29.3997 38.6997 30.3997 39.8997C31.3997 41.0997 31.0997 55.4997 30.3997 57.1997C29.6997 58.8997 23.7997 59.3997 22.5997 57.1997C21.3997 54.9997 22.3997 46.5997 22.7997 44.1997Z" stroke="#494A4A" stroke-width="2" stroke-linecap="round" stroke-linejoin="round"/>
<path d="M38.5997 57.9997C37.3997 57.7997 36.2997 57.3997 35.8997 56.6997C34.5997 54.6997 35.8997 37.6997 36.3997 35.4997C37.0997 32.1997 42.9997 31.9997 44.0997 33.0997C44.7997 33.7997 45.0997 42.1997 44.6997 48.7997C44.0997 57.3997 43.9997 58.7997 38.5997 57.9997Z" stroke="#494A4A" stroke-width="2" stroke-linecap="round" stroke-linejoin="round"/>
<path d="M48.9997 44.4997C49.0997 38.2997 49.5997 32.0997 49.7997 30.8997C50.4997 27.5997 56.9997 27.3997 58.0997 28.4997C58.7997 29.1997 58.5997 38.9997 58.3997 47.6997C58.1997 54.8997 57.3997 56.7997 52.4997 56.8997C48.7997 56.8997 48.8997 54.6997 49.0997 44.4997H48.9997Z" stroke="#494A4A" stroke-width="2" stroke-linecap="round" stroke-linejoin="round"/>
</g>
<path id="1px" d="M53.7114 13.3857C53.8693 13.1592 53.8138 12.8475 53.5873 12.6895C53.3608 12.5315 53.0491 12.5871 52.8912 12.8136L53.7114 13.3857ZM6.71375 34.9073C6.44187 34.9557 6.26065 35.2153 6.30899 35.4871C6.35732 35.759 6.61691 35.9402 6.88879 35.8919L6.71375 34.9073ZM55.3013 6.99961L55.4936 7.46118L55.4982 7.45919L55.3013 6.99961ZM50.3013 10.5996L49.8092 10.6891L49.812 10.7026L50.3013 10.5996ZM57.4013 13.6996L57.6697 14.1214C57.6759 14.1175 57.682 14.1134 57.688 14.1092L57.4013 13.6996ZM56.9013 7.69961L57.3916 7.60156C57.39 7.59378 57.3883 7.58604 57.3863 7.57835L56.9013 7.69961ZM58.1224 23.1569C58.0435 23.4215 58.1942 23.7 58.4588 23.7788C58.7235 23.8576 59.0019 23.707 59.0808 23.4424L58.1224 23.1569ZM60.4808 18.7424C60.5596 18.4777 60.409 18.1993 60.1443 18.1204C59.8797 18.0416 59.6012 18.1922 59.5224 18.4569L60.4808 18.7424ZM56.0965 19.7289C56.0575 19.4555 55.8042 19.2656 55.5309 19.3046C55.2575 19.3437 55.0675 19.597 55.1066 19.8703L56.0965 19.7289ZM55.6066 23.3703C55.6456 23.6437 55.8989 23.8336 56.1723 23.7946C56.4456 23.7555 56.6356 23.5023 56.5965 23.2289L55.6066 23.3703ZM62.5418 23.366C62.7441 23.1781 62.7559 22.8617 62.568 22.6594C62.3801 22.457 62.0637 22.4453 61.8613 22.6332L62.5418 23.366ZM60.4613 23.9332C60.259 24.1211 60.2473 24.4375 60.4352 24.6398C60.6231 24.8422 60.9394 24.8539 61.1418 24.666L60.4613 23.9332ZM9.50146 6.5L9.27818 6.05262L9.16813 6.10755L9.09612 6.20726L9.50146 6.5ZM7.9014 8.40021V8.90021H7.98254L8.05951 8.87455L7.9014 8.40021ZM6.3014 10.7002H6.8014V10.6387L6.78647 10.5789L6.3014 10.7002ZM11.7014 14.8002V14.3002H11.4943L11.3478 14.4467L11.7014 14.8002ZM10.5014 11.5002L10.9486 11.7238L10.9645 11.692L10.9757 11.6583L10.5014 11.5002ZM13.3014 9.80021L12.8111 9.89827L12.8172 9.92879L12.8271 9.95832L13.3014 9.80021ZM9.7014 6.40021V5.90021H9.58355L9.47811 5.95283L9.7014 6.40021ZM20.5024 7.00001L20.1489 6.64649L20.1074 6.68791L20.0767 6.73778L20.5024 7.00001ZM19.5016 8.40001V8.90001H19.6197L19.7253 8.84723L19.5016 8.40001ZM17.5016 8.20001L17.1481 7.84646L17.0907 7.90383L17.0544 7.97641L17.5016 8.20001ZM18.5016 9.80001H19.0016V9.68198L18.9489 9.57641L18.5016 9.80001ZM21.5024 12.5H22.0024V12.4412L21.9888 12.384L21.5024 12.5ZM21.1016 10.3L21.4552 10.6536L21.6016 10.5071V10.3H21.1016ZM22.8016 9.20001H22.3016V9.31805L22.3544 9.42362L22.8016 9.20001ZM11.1586 29.0369C11.4 29.171 11.7044 29.084 11.8385 28.8426C11.9726 28.6012 11.8857 28.2968 11.6443 28.1627L11.1586 29.0369ZM5.00146 26.7998C4.72532 26.7998 4.50146 27.0237 4.50146 27.2998C4.50146 27.576 4.72532 27.7998 5.00146 27.7998V26.7998ZM14.5837 25.8864C14.7969 26.0619 15.112 26.0314 15.2875 25.8183C15.4631 25.6051 15.4326 25.29 15.2194 25.1144L14.5837 25.8864ZM2.1819 19.9069C1.90935 19.8625 1.65243 20.0475 1.60806 20.3201C1.56369 20.5926 1.74867 20.8495 2.02122 20.8939L2.1819 19.9069ZM22.5043 22.6467C22.4749 22.9213 22.6736 23.1677 22.9482 23.1972C23.2228 23.2266 23.4692 23.0278 23.4986 22.7533L22.5043 22.6467ZM27.5465 14.9785C27.8107 14.8984 27.9601 14.6193 27.88 14.355C27.7999 14.0907 27.5207 13.9414 27.2565 14.0215L27.5465 14.9785ZM52.8912 12.8136C48.8261 18.6418 40.6891 23.5715 31.8055 27.352C22.9426 31.1237 13.4292 33.7135 6.71375 34.9073L6.88879 35.8919C13.6733 34.6858 23.2599 32.0755 32.1971 28.2722C41.1134 24.4777 49.4764 19.4574 53.7114 13.3857L52.8912 12.8136ZM55.109 6.53808C54.4873 6.79709 53.1629 7.43407 52.0121 8.15009C51.4389 8.50679 50.8862 8.89686 50.4836 9.28218C50.283 9.47429 50.1016 9.68209 49.9761 9.9003C49.8523 10.1155 49.755 10.3903 49.8093 10.6891L50.7932 10.5102C50.7975 10.534 50.7815 10.5056 50.8429 10.3989C50.9025 10.2953 51.0102 10.1624 51.1751 10.0046C51.5039 9.68987 51.9887 9.34244 52.5404 8.99914C53.6397 8.31515 54.9152 7.70214 55.4936 7.46115L55.109 6.53808ZM49.812 10.7026C49.9523 11.3692 50.5116 11.9391 51.131 12.3886C51.7735 12.855 52.586 13.2672 53.4056 13.5899C54.2262 13.9129 55.0771 14.1554 55.8053 14.2715C56.1688 14.3295 56.515 14.3581 56.8186 14.3448C57.1087 14.3322 57.4218 14.2792 57.6697 14.1214L57.1328 13.2778C57.1057 13.295 57.0032 13.3358 56.7749 13.3458C56.5602 13.3552 56.2853 13.3354 55.9628 13.284C55.3192 13.1813 54.5388 12.9613 53.7719 12.6594C53.004 12.357 52.2727 11.9817 51.7184 11.5793C51.1409 11.1602 50.8502 10.78 50.7905 10.4966L49.812 10.7026ZM57.688 14.1092C57.9346 13.9366 58.0725 13.6802 58.1512 13.4344C58.2306 13.1868 58.2643 12.9064 58.2729 12.6225C58.2901 12.0544 58.2082 11.3806 58.0938 10.726C57.9785 10.0663 57.8255 9.40083 57.6903 8.84283C57.5518 8.27074 57.439 7.83856 57.3916 7.60156L56.411 7.79767C56.4636 8.06067 56.5883 8.54099 56.7185 9.07827C56.852 9.62965 56.999 10.2704 57.1087 10.8982C57.2193 11.5311 57.2875 12.1261 57.2734 12.5923C57.2663 12.8256 57.2391 13.0039 57.1989 13.1293C57.1582 13.2565 57.1179 13.2877 57.1145 13.29L57.688 14.1092ZM57.3863 7.57835C57.2528 7.04401 56.9298 6.65102 56.471 6.47149C56.0301 6.29897 55.5403 6.35317 55.1043 6.54004L55.4982 7.45919C55.7622 7.34606 55.9725 7.35026 56.1066 7.40274C56.2228 7.44821 56.3498 7.55522 56.4162 7.82088L57.3863 7.57835ZM59.0808 23.4424L60.4808 18.7424L59.5224 18.4569L58.1224 23.1569L59.0808 23.4424ZM55.1066 19.8703L55.6066 23.3703L56.5965 23.2289L56.0965 19.7289L55.1066 19.8703ZM61.8613 22.6332L60.4613 23.9332L61.1418 24.666L62.5418 23.366L61.8613 22.6332ZM9.50146 6.5C9.09612 6.20726 9.09612 6.20725 9.09612 6.20725C9.09612 6.20726 9.09612 6.20726 9.0961 6.20728C9.09608 6.20731 9.09604 6.20737 9.09597 6.20746C9.09585 6.20763 9.09565 6.20791 9.09537 6.2083C9.0948 6.20908 9.09394 6.21028 9.09277 6.21189C9.09044 6.21511 9.08691 6.21998 9.08225 6.22639C9.07294 6.2392 9.05914 6.25817 9.0414 6.28243C9.00591 6.33097 8.95472 6.40063 8.89231 6.48463C8.76728 6.65288 8.59814 6.87738 8.42039 7.10417C8.24153 7.33239 8.05887 7.55664 7.90584 7.72717C7.82875 7.81307 7.76573 7.87799 7.71877 7.92096C7.69523 7.94249 7.6817 7.953 7.67709 7.9563C7.66683 7.96368 7.6919 7.943 7.74329 7.92587L8.05951 8.87455C8.1484 8.84492 8.21878 8.79845 8.26052 8.76847C8.30792 8.73442 8.35308 8.696 8.39381 8.65874C8.47536 8.58412 8.56312 8.49199 8.6501 8.39505C8.82521 8.19992 9.02381 7.95537 9.20747 7.72103C9.39224 7.48527 9.56686 7.25346 9.69497 7.08106C9.75913 6.99472 9.81185 6.92296 9.84863 6.87266C9.86703 6.8475 9.88145 6.82769 9.89133 6.81409C9.89627 6.80729 9.90008 6.80203 9.90268 6.79844C9.90399 6.79664 9.90499 6.79526 9.90568 6.7943C9.90602 6.79382 9.90629 6.79345 9.90648 6.79319C9.90658 6.79306 9.90665 6.79295 9.90671 6.79288C9.90673 6.79284 9.90676 6.7928 9.90677 6.79278C9.9068 6.79275 9.90681 6.79273 9.50146 6.5ZM7.9014 7.90021C7.92791 7.90021 7.91316 7.90096 7.7959 7.88165C7.70308 7.86637 7.57973 7.84468 7.43159 7.81867C7.13827 7.76719 6.75753 7.70053 6.37557 7.64324C5.99681 7.58643 5.60146 7.53641 5.28156 7.52109C5.12408 7.51355 4.96364 7.51321 4.82461 7.53101C4.75568 7.53984 4.67209 7.55548 4.58921 7.58723C4.51402 7.61604 4.38043 7.68027 4.28537 7.82286L5.11742 8.37756C5.04736 8.48265 4.95909 8.51641 4.94698 8.52104C4.92719 8.52863 4.92446 8.52639 4.95162 8.52292C5.00479 8.51611 5.09747 8.51342 5.23374 8.51995C5.50134 8.53276 5.85599 8.57649 6.22723 8.63218C6.59527 8.68738 6.96453 8.75198 7.25871 8.80362C7.40432 8.82918 7.53409 8.85201 7.63346 8.86837C7.70839 8.88071 7.82488 8.90021 7.9014 8.90021V7.90021ZM4.28537 7.82286C4.19245 7.96225 4.18141 8.10686 4.18591 8.19884C4.19049 8.29264 4.21308 8.37708 4.23497 8.44181C4.27882 8.57148 4.34936 8.70638 4.42161 8.82963C4.56883 9.08076 4.77967 9.37744 4.9857 9.65839C5.19981 9.95036 5.40537 10.221 5.57386 10.4575C5.65675 10.5739 5.72277 10.6711 5.76943 10.7472C5.8259 10.8394 5.82449 10.8541 5.81633 10.8215L6.78647 10.5789C6.75331 10.4463 6.6769 10.3142 6.62204 10.2247C6.55737 10.1192 6.47574 9.99999 6.38831 9.87728C6.21618 9.63566 5.99049 9.33756 5.7921 9.06703C5.58563 8.78547 5.40272 8.5259 5.28431 8.32391C5.22375 8.2206 5.19351 8.15471 5.18228 8.1215C5.17663 8.10478 5.18311 8.11725 5.18472 8.15006C5.18623 8.18105 5.18535 8.27567 5.11742 8.37756L4.28537 7.82286ZM5.8014 10.7002C5.8014 10.6307 5.81957 10.5908 5.81126 10.6147C5.80741 10.6258 5.79813 10.6491 5.78007 10.688C5.74419 10.7651 5.68968 10.8695 5.6185 11.0002C5.48309 11.249 5.2848 11.597 5.1093 11.9291C4.93257 12.2637 4.75397 12.6277 4.64662 12.9444C4.59361 13.1008 4.54786 13.2742 4.53884 13.4419C4.53049 13.5973 4.54856 13.8545 4.74785 14.0538L5.45495 13.3467C5.55424 13.4459 5.53481 13.5438 5.5374 13.4956C5.53932 13.4598 5.55294 13.3856 5.59368 13.2654C5.67383 13.029 5.82022 12.7242 5.9935 12.3963C6.168 12.066 6.34471 11.7577 6.4968 11.4783C6.56937 11.345 6.63674 11.2173 6.68679 11.1097C6.7117 11.0562 6.7364 10.9989 6.7558 10.9432C6.77073 10.9002 6.8014 10.8073 6.8014 10.7002H5.8014ZM4.74785 14.0538C4.94678 14.2527 5.21451 14.2721 5.35863 14.2721C5.53047 14.2721 5.71899 14.2414 5.90038 14.2005C6.26701 14.1179 6.70202 13.9707 7.11209 13.8193C7.52404 13.6671 7.93707 13.5008 8.25036 13.3785C8.41029 13.3161 8.54152 13.2662 8.63993 13.2323C8.6894 13.2152 8.72382 13.2046 8.74561 13.1987C8.78081 13.1893 8.75417 13.2002 8.7014 13.2002V12.2002C8.61113 12.2002 8.52668 12.2221 8.48624 12.2329C8.4324 12.2474 8.37336 12.2664 8.31404 12.2869C8.19487 12.328 8.0472 12.3843 7.88682 12.4469C7.55948 12.5747 7.16626 12.7333 6.76571 12.8812C6.36328 13.0297 5.97954 13.1576 5.68054 13.2249C5.52912 13.2591 5.42311 13.2721 5.35863 13.2721C5.26642 13.2721 5.35602 13.2477 5.45495 13.3467L4.74785 14.0538ZM8.7014 13.2002C8.61381 13.2002 8.55277 13.1751 8.55015 13.1741C8.53549 13.1685 8.52939 13.1649 8.53537 13.168C8.54664 13.1739 8.57144 13.1882 8.61302 13.215C8.6944 13.2674 8.80777 13.3465 8.94731 13.4474C9.22508 13.6485 9.57953 13.9166 9.93778 14.1869C10.2925 14.4545 10.6517 14.7247 10.9289 14.9218C11.066 15.0193 11.193 15.106 11.2936 15.1667C11.341 15.1954 11.4003 15.2291 11.46 15.2542C11.4869 15.2655 11.5413 15.2869 11.609 15.2972C11.6419 15.3023 11.8699 15.3388 12.055 15.1538L11.3478 14.4467C11.5266 14.2679 11.7433 14.3062 11.7601 14.3087C11.8117 14.3166 11.8452 14.3314 11.8468 14.332C11.8559 14.3358 11.8467 14.3326 11.8104 14.3106C11.7434 14.2702 11.6415 14.2015 11.5083 14.1068C11.2449 13.9195 10.8978 13.6584 10.54 13.3885C10.1858 13.1213 9.82147 12.8457 9.53362 12.6374C9.39034 12.5337 9.25918 12.4416 9.15423 12.3741C9.10265 12.3409 9.04884 12.308 8.99853 12.2818C8.97373 12.2688 8.9411 12.2528 8.90449 12.239C8.87991 12.2296 8.80149 12.2002 8.7014 12.2002V13.2002ZM11.7014 15.3002C11.9067 15.3002 12.063 15.1808 12.1404 15.0437C12.1982 14.9414 12.2044 14.8466 12.2059 14.8157C12.2094 14.7431 12.1968 14.6825 12.1928 14.6635C12.1817 14.6102 12.1639 14.5535 12.1486 14.5078C12.1156 14.4094 12.0654 14.2772 12.0073 14.1296C11.8903 13.8325 11.7254 13.4326 11.5646 13.037C11.402 12.6366 11.2428 12.2385 11.1308 11.9297C11.0743 11.774 11.0337 11.6514 11.0105 11.5671C11.005 11.5469 11.001 11.5308 10.9982 11.5186C10.9954 11.506 10.9946 11.5005 10.9946 11.5006C10.9947 11.5009 10.9951 11.5042 10.9955 11.5098C10.9959 11.5153 10.9965 11.5255 10.9962 11.5395C10.9958 11.5549 10.9942 11.6327 10.9486 11.7238L10.0542 11.2766C10.0024 11.3803 9.99743 11.4762 9.99648 11.515C9.99528 11.564 9.99987 11.6079 10.0044 11.6398C10.0134 11.7043 10.0296 11.7714 10.0462 11.8318C10.0801 11.9552 10.1316 12.1077 10.1907 12.2707C10.31 12.5995 10.4758 13.0138 10.6382 13.4134C10.8024 13.8178 10.9625 14.2054 11.0768 14.4958C11.1343 14.642 11.1762 14.7535 11.2003 14.8254C11.2136 14.8649 11.2154 14.875 11.2138 14.8672C11.2131 14.8638 11.2112 14.8545 11.2096 14.8413C11.2082 14.8301 11.2053 14.8029 11.2071 14.7669C11.2083 14.7419 11.2135 14.6516 11.2696 14.5522C11.3453 14.4181 11.4992 14.3002 11.7014 14.3002V15.3002ZM10.9757 11.6583C10.956 11.7174 10.9291 11.7557 10.9174 11.7712C10.9043 11.7886 10.8947 11.7975 10.8943 11.7979C10.8941 11.7981 10.9062 11.7872 10.9387 11.7647C11.0028 11.7205 11.1016 11.6617 11.2346 11.5892C11.4994 11.4447 11.8436 11.2756 12.2 11.0974C12.5472 10.9238 12.9082 10.7405 13.1774 10.579C13.3089 10.5001 13.4424 10.4124 13.545 10.3217C13.5945 10.278 13.6615 10.2123 13.7142 10.1262C13.7633 10.0457 13.8494 9.86321 13.7757 9.64209L12.8271 9.95832C12.7659 9.77471 12.8418 9.63593 12.8609 9.60472C12.8835 9.5678 12.9005 9.55675 12.8828 9.57242C12.851 9.60053 12.7814 9.65034 12.6629 9.72146C12.4321 9.85994 12.1056 10.0266 11.7528 10.203C11.4092 10.3748 11.0409 10.5557 10.7557 10.7113C10.6137 10.7887 10.4782 10.8674 10.3703 10.942C10.3169 10.9789 10.2586 11.0226 10.2066 11.072C10.1671 11.1093 10.0739 11.2016 10.0271 11.3421L10.9757 11.6583ZM13.7917 9.70215C13.7297 9.39219 13.4761 9.24877 13.3469 9.19128C13.1966 9.12435 13.0225 9.08694 12.8615 9.06332C12.5328 9.01509 12.1251 9.00641 11.7431 9.01278C11.3555 9.01924 10.9706 9.04176 10.6787 9.06239C10.5323 9.07273 10.4084 9.08266 10.3188 9.08993C10.2074 9.09897 10.187 9.10021 10.2014 9.10021V10.1002C10.2408 10.1002 10.3329 10.0921 10.3996 10.0867C10.4882 10.0795 10.608 10.0699 10.7491 10.0599C11.0322 10.0399 11.3973 10.0187 11.7597 10.0126C12.1277 10.0065 12.47 10.0166 12.7163 10.0527C12.8428 10.0713 12.9125 10.0925 12.9402 10.1048C12.9892 10.1266 12.8481 10.0832 12.8111 9.89827L13.7917 9.70215ZM10.2014 9.10021C10.3762 9.10021 10.492 9.1886 10.5419 9.23625C10.5924 9.28448 10.6197 9.33157 10.6302 9.35078C10.6429 9.37396 10.6504 9.39253 10.6538 9.40145C10.6576 9.41138 10.6598 9.41839 10.6606 9.42105C10.6621 9.42633 10.6587 9.41517 10.6518 9.37588C10.639 9.30297 10.6235 9.18969 10.6057 9.04074C10.5701 8.74387 10.5304 8.35225 10.4859 7.94584C10.4422 7.5464 10.3942 7.13468 10.3434 6.82051C10.3185 6.66622 10.2903 6.51781 10.2572 6.40134C10.2418 6.34686 10.2179 6.27196 10.1802 6.20121C10.162 6.16686 10.1269 6.10735 10.0681 6.05035C10.0094 5.99342 9.88502 5.90021 9.7014 5.90021V6.90021C9.53028 6.90021 9.41841 6.81324 9.37216 6.76842C9.32585 6.72353 9.30332 6.682 9.29751 6.67108C9.2848 6.64721 9.2858 6.64106 9.29516 6.67407C9.31175 6.7326 9.3327 6.83419 9.35623 6.9799C9.40238 7.26574 9.44805 7.65401 9.49186 8.05457C9.53491 8.44816 9.57645 8.85655 9.61276 9.15968C9.63086 9.31073 9.649 9.44744 9.667 9.54954C9.6755 9.59774 9.68686 9.65534 9.70245 9.70749C9.70915 9.7299 9.72446 9.77876 9.75323 9.83127C9.76708 9.85654 9.79763 9.90822 9.85136 9.95953C9.90448 10.0102 10.0235 10.1002 10.2014 10.1002V9.10021ZM9.47811 5.95283L9.27818 6.05262L9.72475 6.94737L9.92469 6.84758L9.47811 5.95283ZM20.5024 7.00001C20.0767 6.73778 20.0767 6.73776 20.0767 6.73776C20.0767 6.73776 20.0767 6.73776 20.0767 6.73777C20.0767 6.73779 20.0767 6.73783 20.0767 6.73788C20.0766 6.738 20.0765 6.73819 20.0763 6.73846C20.076 6.73899 20.0755 6.73984 20.0748 6.74098C20.0733 6.74326 20.0712 6.74673 20.0684 6.75131C20.0627 6.76047 20.0542 6.77407 20.0434 6.79151C20.0216 6.82639 19.9902 6.87654 19.9518 6.93712C19.8749 7.05853 19.7708 7.22061 19.6611 7.38499C19.5506 7.55072 19.4382 7.71281 19.3442 7.83674C19.2967 7.89928 19.2591 7.94517 19.2322 7.97471C19.1886 8.02262 19.2099 7.98686 19.278 7.9528L19.7253 8.84723C19.8434 8.78816 19.9335 8.6899 19.972 8.64758C20.0272 8.58689 20.0849 8.51481 20.1406 8.44141C20.2529 8.29347 20.3783 8.1118 20.493 7.94003C20.6085 7.76691 20.7171 7.59774 20.7966 7.47228C20.8364 7.40942 20.8691 7.35723 20.8919 7.32063C20.9033 7.30232 20.9123 7.28789 20.9184 7.27796C20.9215 7.273 20.9239 7.26915 20.9255 7.26651C20.9263 7.26519 20.927 7.26417 20.9274 7.26345C20.9276 7.2631 20.9278 7.26282 20.9279 7.26262C20.928 7.26252 20.928 7.26243 20.9281 7.26237C20.9281 7.26234 20.9281 7.26231 20.9281 7.2623C20.9281 7.26227 20.9282 7.26225 20.5024 7.00001ZM19.5016 7.90001C19.5425 7.90001 19.5708 7.90616 19.544 7.90186C19.5325 7.90002 19.5141 7.89677 19.487 7.89172C19.4331 7.88164 19.3609 7.86743 19.2706 7.84985C19.0935 7.81536 18.8588 7.77031 18.6192 7.73146C18.3828 7.69312 18.1265 7.65828 17.9092 7.6475C17.8021 7.64219 17.6862 7.64167 17.5791 7.65502C17.5252 7.66173 17.4603 7.6735 17.3936 7.6964C17.3307 7.71798 17.2344 7.76017 17.1481 7.84646L17.8552 8.55357C17.7939 8.61485 17.7343 8.63673 17.7184 8.64219C17.6986 8.64899 17.6907 8.64884 17.7027 8.64735C17.7272 8.64429 17.7778 8.64221 17.8597 8.64627C18.0205 8.65425 18.233 8.6819 18.4591 8.71857C18.682 8.75471 18.9036 8.79716 19.0795 8.83142C19.1658 8.84822 19.2445 8.8637 19.3034 8.87471C19.3328 8.8802 19.3613 8.88536 19.3859 8.88928C19.395 8.89074 19.4483 8.90001 19.5016 8.90001V7.90001ZM17.0544 7.97641C16.9901 8.10498 16.9911 8.2269 16.9975 8.29534C17.0043 8.36863 17.0226 8.4329 17.0389 8.48032C17.0715 8.57527 17.12 8.67017 17.1664 8.75229C17.2613 8.92027 17.393 9.11308 17.5198 9.29063C17.6479 9.47003 17.7836 9.65101 17.8871 9.79096C17.94 9.86263 17.9837 9.92236 18.0165 9.96918C18.0559 10.0253 18.061 10.0368 18.0544 10.0236L18.9489 9.57641C18.9173 9.51321 18.8693 9.44348 18.8352 9.3949C18.7946 9.33704 18.7445 9.26864 18.6912 9.19657C18.5822 9.04901 18.4554 8.87999 18.3335 8.70939C18.2103 8.53695 18.1045 8.37976 18.0369 8.26023C18.0021 8.1986 17.9881 8.16538 17.9847 8.15564C17.983 8.15071 17.99 8.16851 17.9931 8.20215C17.9958 8.23093 18.0006 8.32005 17.9489 8.42362L17.0544 7.97641ZM18.0016 9.80001C18.0016 9.75773 18.0078 9.72682 18.0106 9.71415C18.0138 9.6996 18.0168 9.69071 18.0173 9.6893C18.0181 9.68711 18.0155 9.69467 18.0059 9.7153C17.9869 9.75614 17.9558 9.81519 17.9118 9.89398C17.8099 10.0768 17.7236 10.219 17.5909 10.4549C17.4778 10.6559 17.3574 10.8803 17.2787 11.0753C17.2404 11.1701 17.2002 11.2859 17.1836 11.4032C17.1715 11.488 17.1444 11.7498 17.3481 11.9536L18.0552 11.2465C18.135 11.3262 18.1618 11.4142 18.1704 11.4643C18.1786 11.5116 18.1739 11.5421 18.1736 11.5437C18.1734 11.5454 18.1786 11.5174 18.2059 11.4497C18.2584 11.3197 18.3505 11.1441 18.4624 10.9451C18.5547 10.781 18.7059 10.5232 18.7852 10.381C18.8319 10.2973 18.8774 10.2126 18.9122 10.1378C18.9296 10.1007 18.9483 10.0574 18.9636 10.0127C18.9752 9.97878 19.0016 9.89769 19.0016 9.80001H18.0016ZM17.3481 11.9536C17.4575 12.063 17.5843 12.1009 17.6575 12.116C17.7362 12.1322 17.8107 12.1335 17.8687 12.1313C17.985 12.1268 18.1105 12.1044 18.2257 12.0784C18.4607 12.0254 18.7408 11.937 19.0007 11.8482C19.2637 11.7584 19.5228 11.6624 19.7165 11.5911C19.8152 11.5548 19.8938 11.526 19.9505 11.5064C19.9793 11.4964 19.9968 11.4907 20.0057 11.488C20.0105 11.4866 20.0074 11.4877 19.9995 11.4895C19.9955 11.4904 19.9863 11.4925 19.9737 11.4945C19.9637 11.496 19.937 11.5 19.9016 11.5V10.5C19.8371 10.5 19.7843 10.5129 19.7747 10.5151C19.7537 10.5199 19.7343 10.5255 19.7196 10.5299C19.6896 10.5388 19.6558 10.5501 19.6227 10.5616C19.5556 10.5849 19.4678 10.6171 19.3712 10.6527C19.1742 10.7251 18.9271 10.8166 18.6776 10.9018C18.425 10.9881 18.1864 11.0621 18.0057 11.1029C17.9131 11.1238 17.8566 11.131 17.8303 11.132C17.817 11.1325 17.8301 11.1305 17.8589 11.1365C17.8823 11.1413 17.9708 11.162 18.0552 11.2465L17.3481 11.9536ZM19.9016 11.5C19.8074 11.5 19.7379 11.4728 19.7102 11.4609C19.6771 11.4467 19.6533 11.432 19.6417 11.4244C19.6287 11.4159 19.6195 11.4089 19.6148 11.4052C19.6097 11.4012 19.6066 11.3984 19.6055 11.3975C19.6044 11.3965 19.6131 11.4043 19.6352 11.4279C19.6774 11.4726 19.7377 11.5411 19.8151 11.631C19.964 11.8039 20.1686 12.0471 20.3653 12.2691C20.5576 12.4861 20.7721 12.7172 20.9485 12.8625C20.9946 12.9005 21.0475 12.9405 21.1041 12.9748C21.1532 13.0046 21.2425 13.0536 21.356 13.0724C21.4858 13.0939 21.7036 13.079 21.8647 12.8915C21.9935 12.7416 22.0024 12.5708 22.0024 12.5H21.0024C21.0024 12.4917 20.9996 12.3639 21.1064 12.2397C21.2455 12.0778 21.431 12.0712 21.5195 12.0858C21.5601 12.0926 21.5885 12.1037 21.6013 12.1092C21.6086 12.1123 21.6139 12.115 21.6171 12.1167C21.6203 12.1184 21.6221 12.1195 21.6225 12.1197C21.6228 12.1199 21.6196 12.1179 21.6124 12.1127C21.6054 12.1075 21.596 12.1003 21.5843 12.0907C21.4762 12.0016 21.3092 11.8265 21.1138 11.6059C20.9228 11.3904 20.7334 11.1649 20.5728 10.9784C20.4955 10.8886 20.4221 10.8048 20.3631 10.7421C20.3346 10.7119 20.3008 10.6773 20.2667 10.6472C20.2506 10.633 20.2231 10.6097 20.1884 10.5871C20.171 10.5757 20.1421 10.5581 20.1045 10.542C20.0724 10.5282 19.9991 10.5 19.9016 10.5V11.5ZM21.5024 12.5C21.9888 12.384 21.9888 12.384 21.9888 12.384C21.9888 12.384 21.9888 12.384 21.9888 12.384C21.9888 12.3839 21.9888 12.3839 21.9887 12.3838C21.9887 12.3835 21.9886 12.3832 21.9885 12.3827C21.9883 12.3818 21.9879 12.3804 21.9875 12.3784C21.9866 12.3746 21.9852 12.3689 21.9834 12.3613C21.9799 12.3462 21.9746 12.324 21.9679 12.2955C21.9546 12.2386 21.9356 12.1571 21.9132 12.0588C21.8682 11.8621 21.8094 11.5997 21.7539 11.3349C21.698 11.0684 21.647 10.8067 21.6161 10.6089C21.6004 10.5082 21.5919 10.4361 21.5892 10.3925C21.5878 10.369 21.5891 10.3696 21.5878 10.3848C21.5871 10.392 21.5847 10.418 21.5745 10.4533C21.5671 10.4791 21.5397 10.569 21.4552 10.6536L20.7481 9.94646C20.6573 10.0372 20.6249 10.1373 20.6135 10.177C20.5993 10.2261 20.594 10.2695 20.5916 10.2976C20.5866 10.3546 20.5884 10.4106 20.5911 10.454C20.5967 10.5444 20.6109 10.6527 20.6281 10.763C20.663 10.9871 20.7184 11.2691 20.7752 11.5401C20.8324 11.8129 20.8926 12.0817 20.9383 12.2818C20.9613 12.382 20.9806 12.4653 20.9943 12.5236C21.0011 12.5528 21.0065 12.5758 21.0103 12.5915C21.0121 12.5993 21.0136 12.6054 21.0145 12.6095C21.015 12.6116 21.0154 12.6132 21.0157 12.6143C21.0158 12.6148 21.0159 12.6152 21.016 12.6155C21.016 12.6157 21.016 12.6158 21.016 12.6158C21.0161 12.6159 21.0161 12.6159 21.0161 12.6159C21.0161 12.616 21.0161 12.616 21.5024 12.5ZM21.6016 10.3C21.6016 10.4632 21.5181 10.5621 21.5096 10.5726C21.4898 10.5968 21.4773 10.6049 21.4885 10.5961C21.5088 10.58 21.5539 10.5498 21.632 10.5045C21.7853 10.4157 21.9922 10.3107 22.2178 10.1947C22.4324 10.0843 22.6677 9.96206 22.8436 9.8519C22.9277 9.79924 23.0271 9.73179 23.1064 9.65443C23.1443 9.61754 23.2061 9.55137 23.2505 9.45796C23.2985 9.35714 23.347 9.17271 23.2489 8.97641L22.3544 9.42362C22.2688 9.25231 22.315 9.09679 22.3475 9.02829C22.3636 8.99455 22.3802 8.97159 22.3895 8.95985C22.3991 8.94751 22.4063 8.94039 22.4082 8.93856C22.4082 8.93854 22.3834 8.96016 22.3128 9.00438C22.1794 9.08797 21.9834 9.19072 21.7605 9.30537C21.5486 9.41434 21.3117 9.53436 21.1307 9.63927C21.0416 9.69089 20.9468 9.74969 20.8691 9.81097C20.8313 9.84081 20.7802 9.88463 20.7341 9.9412C20.6992 9.98405 20.6016 10.1118 20.6016 10.3H21.6016ZM23.3016 9.20001C23.3016 8.86155 23.0373 8.70452 22.9384 8.65763C22.8209 8.60192 22.6913 8.57622 22.5915 8.56156C22.3817 8.53077 22.1213 8.52501 21.8891 8.52501C21.7695 8.52501 21.6498 8.52663 21.5397 8.52819C21.4279 8.52977 21.3277 8.53126 21.2407 8.53126C21.1513 8.53126 21.0895 8.5296 21.0517 8.52659C21.0317 8.525 21.0331 8.52408 21.0467 8.52708C21.0536 8.52859 21.0749 8.5335 21.1034 8.54501C21.1261 8.5542 21.1909 8.58215 21.2552 8.64646L20.5481 9.35357C20.6187 9.42413 20.693 9.45774 20.7284 9.47206C20.7696 9.48869 20.8067 9.49819 20.8322 9.5038C20.8832 9.515 20.9335 9.52034 20.9723 9.52343C21.0521 9.5298 21.1473 9.53126 21.2407 9.53126C21.3365 9.53126 21.4449 9.52963 21.5538 9.52809C21.6644 9.52652 21.7775 9.52501 21.8891 9.52501C22.1195 9.52501 22.3154 9.53176 22.4462 9.55096C22.5167 9.5613 22.5285 9.56998 22.5098 9.56115C22.5098 9.56113 22.3016 9.46347 22.3016 9.20001H23.3016ZM21.2552 8.64646C21.3342 8.72549 21.3614 8.80836 21.3659 8.82128C21.3748 8.84724 21.3779 8.86513 21.3782 8.86672C21.379 8.87084 21.3772 8.86163 21.3751 8.83087C21.3711 8.77195 21.3689 8.68452 21.3674 8.5684C21.3644 8.34678 21.3644 8.03806 21.3515 7.75246C21.3394 7.48375 21.3142 7.15941 21.2351 6.92672C21.2136 6.86341 21.1815 6.78589 21.1312 6.71109C21.0817 6.63766 20.9946 6.53717 20.8535 6.47762C20.5144 6.33449 20.2473 6.54801 20.1489 6.64649L20.856 7.35354C20.856 7.3536 20.8495 7.36013 20.8363 7.36945C20.8233 7.37869 20.7997 7.39352 20.7655 7.40647C20.6878 7.43595 20.577 7.44636 20.4646 7.39891C20.3661 7.35733 20.317 7.29238 20.3016 7.26954C20.2853 7.24532 20.2832 7.23342 20.2882 7.24823C20.3153 7.32803 20.3399 7.5162 20.3526 7.7975C20.3645 8.06191 20.3643 8.34071 20.3674 8.5816C20.369 8.69674 20.3713 8.80931 20.3774 8.89884C20.3804 8.94229 20.3851 8.99442 20.3941 9.04444C20.3986 9.06898 20.4063 9.10595 20.4204 9.14683C20.4299 9.17467 20.4628 9.26829 20.5481 9.35357L21.2552 8.64646ZM11.6443 28.1627C9.7347 27.1019 7.53394 26.7998 5.00146 26.7998V27.7998C7.46899 27.7998 9.46823 28.0978 11.1586 29.0369L11.6443 28.1627ZM15.2194 25.1144C11.7199 22.2325 6.5179 20.6128 2.1819 19.9069L2.02122 20.8939C6.28522 21.588 11.2832 23.1683 14.5837 25.8864L15.2194 25.1144ZM23.4986 22.7533C23.6474 21.3643 23.9168 19.6226 24.5387 18.1158C25.1609 16.6081 26.1003 15.4167 27.5465 14.9785L27.2565 14.0215C25.4026 14.5833 24.2921 16.0919 23.6143 17.7343C22.9361 19.3775 22.6555 21.2357 22.5043 22.6467L23.4986 22.7533Z" fill="#494A4A"/>
</g>
</g>
</svg>
