<svg width="64" height="64" viewBox="0 0 64 64" fill="none" xmlns="http://www.w3.org/2000/svg">
<g id="Pictogram-hacker" clip-path="url(#clip0_622_42033)">
<g id="stroke-default">
<path id="2px" d="M15.2998 30.3997C15.2998 30.3997 9.69976 30.2997 8.19976 34.1997C6.89976 37.7997 2.19976 52.7997 4.49976 56.2997C6.79976 59.7997 13.7998 60.3997 13.7998 60.3997M46.6001 30.6001C46.6001 30.6001 52.9001 30.3001 54.6001 34.2001C56.2001 37.7001 60.6001 52.8001 58.3001 56.3001C56.0001 59.8001 48.8001 60.8001 48.8001 60.8001M20.8999 35.6998C20.8999 35.6998 14.3999 30.9998 14.3999 27.3998C14.3999 25.8998 19.8999 24.7998 19.8999 24.7998M43.1002 34.6998C43.1002 34.6998 48.5002 29.1998 48.1002 26.9998C47.7002 24.7998 42.7002 24.7998 42.7002 24.7998M42.5999 20.2998C42.4999 22.1998 42.0999 36.3998 30.5999 35.6998C20.2999 33.8998 20.5999 22.3998 20.3999 20.3998M40.8 11.0996C56.1 14.5996 46.2 21.3996 31.6 21.3996C17 21.3996 5.69997 11.9996 20.4 11.1996M20.2002 13.0001C21.0002 12.3001 22.8002 1.80014 26.8002 1.90014C28.2002 1.90014 30.7002 2.80014 30.7002 2.80014C30.7002 2.80014 32.8002 2.00014 34.6002 1.90014C37.5002 1.80014 40.5002 12.1001 41.4002 13.0001M11.7002 46.4996C11.7002 44.9996 12.5002 43.7996 14.4002 43.6996C19.5002 43.3996 43.9002 43.3996 48.9002 43.6996C50.8002 43.7996 51.5002 44.8996 51.5002 46.4996C51.5002 49.2996 50.2002 57.2996 48.9002 60.8996C48.5002 61.8996 47.6002 62.5996 46.3002 62.6996C40.1002 63.1996 23.8002 62.9996 16.9002 62.6996C15.6002 62.6996 14.8002 62.0996 14.3002 60.8996C13.1002 57.4996 11.7002 49.1996 11.7002 46.4996ZM10.0002 18.6002C10.0002 21.0302 8.03025 23.0002 5.6002 23.0002C3.17014 23.0002 1.2002 21.0302 1.2002 18.6002C1.2002 16.1701 3.17014 14.2002 5.6002 14.2002C8.03025 14.2002 10.0002 16.1701 10.0002 18.6002ZM56.1999 1.2002C57.4999 1.2002 60.1999 1.5002 60.6999 1.9002C63.6999 4.1002 63.3999 10.4002 61.1999 12.0002C60.0999 12.8002 57.1999 13.0002 56.1999 13.0002C53.5999 13.0002 51.3999 10.3002 51.3999 7.10019C51.3999 3.9002 53.4999 1.2002 56.1999 1.2002Z" stroke="#494A4A" stroke-width="2" stroke-linecap="round" stroke-linejoin="round"/>
<path id="1px" d="M6.50023 17.1999C4.60023 15.9999 3.70023 18.4999 5.40023 18.4999C7.30023 18.4999 7.10023 20.8999 4.50023 19.9999M5.6001 16.4004V16.8004M5.6001 20.2002V20.8002M17.2 46.2998C14.7 46.2998 14.6 46.6998 14.9 48.4998M32.7 49.2998L30 57.5998M27.2 50.7002L24.5 53.5002L27.2 56.2002M35.3999 50.7002L38.1999 53.5002L35.3999 56.2002M57.1999 5.30038C55.0999 3.70038 54.1999 7.00038 56.0999 7.10038C58.1999 7.20038 57.8999 10.3004 55.0999 9.10038M56.2002 4.09961V4.69961M56.2002 9.60492V10.3452M57.1001 1.2002C59.8001 2.1002 61.8001 7.3002 59.6001 10.0002M53.7002 16.5996V20.5996M57 17.4004V23.0004M60.2002 16.5996V18.9996M2.2002 24.9004V32.7004M5.1001 28.8004V25.9004" stroke="#494A4A" stroke-linecap="round" stroke-linejoin="round"/>
</g>
</g>
<defs>
<clipPath id="clip0_622_42033">
<rect width="64" height="64" fill="white"/>
</clipPath>
</defs>
</svg>
