<svg width="64" height="64" viewBox="0 0 64 64" fill="none" xmlns="http://www.w3.org/2000/svg">
<g id="  Pictogram-leaning-book 1">
<g id="stroke-default">
<path id="2px" d="M57.3986 11.2001C58.4986 11.4001 60.1986 12.2001 60.3986 13.9001C61.9986 25.3001 62.1986 43.7001 61.7986 53.1001C61.7986 54.8001 60.1986 56.0001 57.8986 56.0001C55.5986 56.0001 43.5986 55.4001 39.9986 55.5001C37.6986 55.5001 36.7986 56.3001 36.4986 57.8001C36.1986 59.4001 27.4986 59.4001 27.3986 57.8001C27.2986 56.2001 26.0986 55.5001 23.9986 55.5001C20.3986 55.5001 8.29863 56.0001 5.99863 56.0001C3.69863 56.0001 2.19863 54.9001 2.09863 53.1001C1.69863 44.0001 2.39863 23.5001 3.69863 12.4001C3.79863 11.5001 5.89863 11.0001 6.79863 11.0001M12.1986 20.0001C12.1986 20.0001 12.8986 20.2001 12.9986 20.6001C13.0986 21.0001 12.7986 21.5001 12.3986 21.6001C11.9986 21.7001 11.4986 21.4001 11.3986 21.0001C11.2986 20.6001 11.5986 20.1001 11.9986 20.0001M12.2986 26.4001C12.2986 26.4001 12.8986 26.6001 12.9986 27.0001C13.0986 27.4001 12.7986 27.9001 12.3986 28.0001C11.9986 28.1001 11.4986 27.8001 11.3986 27.4001C11.2986 27.0001 11.5986 26.5001 11.9986 26.4001M12.2986 32.3001C12.2986 32.3001 12.8986 32.5001 12.8986 32.9001C12.8986 33.3001 12.6986 33.8001 12.2986 33.9001C11.8986 34.0001 11.3986 33.7001 11.2986 33.3001C11.1986 32.9001 11.4986 32.4001 11.8986 32.3001M17.0986 38.5001C17.0986 38.5001 17.6986 38.7001 17.7986 39.1001C17.8986 39.5001 17.5986 40.0001 17.1986 40.1001C16.7986 40.2001 16.2986 39.9001 16.1986 39.5001C16.0986 39.1001 16.3986 38.6001 16.7986 38.5001M36.9986 19.2001C36.9986 19.2001 37.5986 19.4001 37.6986 19.8001C37.7986 20.2001 37.4986 20.7001 37.0986 20.8001C36.6986 20.9001 36.1986 20.6001 36.0986 20.2001C35.9986 19.8001 36.2986 19.3001 36.6986 19.2001M36.8986 25.6001C36.8986 25.6001 37.4986 25.8001 37.5986 26.2001C37.6986 26.6001 37.3986 27.1001 36.9986 27.2001C36.5986 27.3001 36.0986 27.0001 35.9986 26.6001C35.8986 26.2001 36.1986 25.7001 36.5986 25.6001" stroke="#494A4A" stroke-width="2" stroke-linecap="round" stroke-linejoin="round"/>
<path id="1px" d="M29.5982 55.4C28.0982 51.4 24.1982 51.4 21.6982 51.4C16.3982 51.5 12.0982 52.9 7.69823 52.3C6.69823 52.2 5.99823 51.5 5.99823 49.9C5.49823 40.3 6.49823 20.5 7.49823 9.50002C7.59823 8.10002 8.69823 7.50002 10.1982 7.50002C15.1982 7.60002 18.9982 6.40002 22.9982 6.40002C26.9982 6.40002 29.5982 7.70002 31.9982 9.90002C34.3982 7.70002 36.9982 6.40002 40.9982 6.40002C44.9982 6.40002 48.9982 7.60002 53.9982 7.50002C55.4982 7.50002 56.5982 8.10002 56.6982 9.50002C57.6982 20.5 58.6982 40.3 58.1982 49.9C58.1982 51.5 57.4982 52.2 56.4982 52.3C52.0982 52.9 45.9982 51.3 40.6982 51.4C36.3982 51.4 35.0982 52.1 34.1982 55.5M31.9982 10.3C30.6982 28.4 32.7982 40 31.7982 55.5M9.59823 14.9C9.99823 10.8 9.59823 10 11.9982 9.80002M17.0982 20.5C20.6982 19.9 23.1982 18.9 27.2982 20.4M58.2982 37.4C58.5982 42.2 56.8982 44 54.8982 46.3C51.2982 50.5 46.5982 52.2 42.0982 51.5C48.4982 51.5 50.4982 45 51.1982 40.3C51.5982 37.6 52.9982 37.6 54.0982 38.5C55.1982 39.4 58.2982 40.5 58.2982 37.9M17.0982 26.9C21.0982 27.9 23.1982 25.3 27.2982 26.8M17.0982 32.8C20.5982 32.5 23.1982 31.2 27.2982 32.7M21.3982 39C23.0982 38.3 24.8982 38.7 27.2982 39M41.7982 19.7C45.3982 19.1 47.8982 18.1 51.9982 19.6M41.7982 26.1C45.7982 27.1 47.8982 24.5 51.9982 26" stroke="#494A4A" stroke-linecap="round" stroke-linejoin="round"/>
</g>
</g>
</svg>
