<svg width="64" height="64" viewBox="0 0 64 64" fill="none" xmlns="http://www.w3.org/2000/svg">
<g id="Pictogram-code-browser">
<g id="stroke-default">
<path id="2px-stroke-default" d="M35.2002 24.7998C34.7002 28.4998 29.7002 47.9998 29.7002 51.2998M22.7998 30.4004C22.7998 30.4004 14.7998 36.7004 14.7998 38.3004C14.7998 39.9004 22.7998 46.2004 22.7998 46.2004M41.8999 46.2004C41.8999 46.2004 49.8999 39.9004 49.8999 38.3004C49.8999 36.7004 41.8999 30.4004 41.8999 30.4004M4.99996 16.0996C4.69996 6.39961 10.5 5.09961 15.8 5.09961H51.3C56.1 5.09961 59.7 7.39961 59.9 13.7996C60.1 23.3996 59.9 30.6996 59.9 47.3996C59.9 59.5996 54.7 61.0996 43.4 61.0996H13.8C8.99996 61.0996 4.99996 57.4996 4.79996 47.0996C4.69996 42.8996 5.29996 23.2996 4.99996 16.1996V16.0996Z" stroke="#494A4A" stroke-width="2" stroke-linecap="round" stroke-linejoin="round"/>
<path id="1px-stroke-default" d="M5.6001 15.4004C14.4001 16.3004 48.9001 16.3004 58.7001 15.5004M54.8002 52.5C54.8002 52.5 54.4002 56.9 49.2002 57.2M44.7001 10.5003C44.2001 11.4003 45.7001 11.8003 45.9001 11.0003C46.2001 10.2003 45.2001 9.60033 44.7001 10.5003ZM48.8002 10.5003C48.3002 11.4003 49.8002 11.8003 50.0002 11.0003C50.3002 10.2003 49.3002 9.60033 48.8002 10.5003ZM52.9999 10.5003C52.4999 11.4003 53.9999 11.8003 54.1999 11.0003C54.4999 10.2003 53.4999 9.60033 52.9999 10.5003Z" stroke="#494A4A" stroke-linecap="round" stroke-linejoin="round"/>
</g>
</g>
</svg>
