<svg width="64" height="64" viewBox="0 0 64 64" fill="none" xmlns="http://www.w3.org/2000/svg">
<g id="Pictogram-home" clip-path="url(#clip0_426_1697)">
<g id="stroke-default">
<path id="2px" d="M15.0003 62.9999C15.1003 62.3799 15.1103 60.6699 15.6103 60.2799C16.1103 59.8899 34.1103 59.7599 34.6103 60.3999C35.0003 60.8399 34.9703 61.9999 34.9703 62.9999M19.1603 59.9999C18.9203 56.0599 18.9703 47.4099 19.0803 45.2899C19.3103 40.9199 30.4003 40.9299 30.8803 45.1699C30.9503 45.7599 30.9603 55.8399 30.8803 59.6899M15.0003 61.9999C14.4703 61.9999 12.3303 61.9999 11.8303 61.9999M48.0003 61.8699C44.7703 61.9999 40.6703 61.9999 35.0003 61.9999M4.0003 50.1199C4.0603 42.5199 4.3603 33.9599 4.6203 28.3999M45.8303 61.8299C46.0703 55.0799 45.8803 35.8299 45.6803 28.0399M15.0003 63.5099C18.6903 63.5099 29.2603 63.5099 35.0003 63.5099M56.6303 18.8199C63.7603 3.84986 41.1403 -5.24014 35.0003 5.99986M61.1903 27.4199C64.4103 22.6599 63.4203 16.5099 57.5703 16.3299M52.0003 43.6699C62.1803 45.8999 66.3403 32.1799 60.0003 25.9999M52.1403 59.0799C50.3203 51.9999 50.8003 47.1299 53.0003 39.7799M36.3903 3.79986C32.2903 -0.000136375 21.3003 2.29986 22.0003 10.2599M50.0003 39.7199C51.7103 40.3499 54.5903 40.1599 56.0903 36.7699M4.4103 58.5899C1.2503 55.0799 -1.6997 62.6599 5.3003 62.9999C7.2203 63.0799 10.6103 63.3399 11.5103 60.9199M3.8403 57.6799C4.1003 53.8999 5.9203 52.5399 7.0003 52.1799C10.0003 51.1799 14.5303 54.4699 11.1903 61.6199M29.5303 35.9399C28.9903 36.0899 20.5303 36.0299 20.0403 35.9399C19.7823 35.8893 19.5467 35.7588 19.3672 35.5667C19.1876 35.3745 19.0733 35.1307 19.0403 34.8699C18.9253 32.668 18.9253 30.4617 19.0403 28.2599C19.0815 28.0022 19.1986 27.7627 19.3768 27.5721C19.555 27.3814 19.786 27.2483 20.0403 27.1899C20.5803 27.0599 28.9303 27.0299 29.5003 27.1299C29.8765 27.1638 30.2274 27.3339 30.4871 27.6082C30.7467 27.8826 30.8972 28.2423 30.9103 28.6199C30.9803 29.1699 31.0103 33.6199 30.9103 34.2399C30.8852 34.6314 30.7388 35.0054 30.4916 35.3101C30.2443 35.6147 29.9083 35.8348 29.5303 35.9399ZM3.5503 28.8399C1.6503 29.4799 0.000297368 27.9999 1.7703 26.6599C7.7703 22.3299 17.2603 16.1999 22.8903 13.7799C24.8903 12.8999 26.0003 12.7799 27.9903 13.7799C31.3303 15.4899 40.5503 19.5199 47.9903 26.3699C49.6403 27.8899 49.1103 29.2699 47.8503 29.0099C46.8503 28.8099 27.5203 19.0099 25.5203 19.0099C23.5203 19.0099 5.7803 28.0899 3.5503 28.8399Z" stroke="#494A4A" stroke-width="2" stroke-linecap="round" stroke-linejoin="round"/>
<path id="1px" d="M7.51041 33.5299C7.51041 30.5299 7.24041 30.4099 10.5604 29.5299M27.5004 50.4999C27.5004 51.9599 27.5004 53.0499 27.5004 53.4999M54.4104 11.4099C54.6704 12.7099 54.6204 15.2399 53.4104 16.4099M30.4104 7.67994C30.9772 6.79026 31.6751 5.99125 32.4804 5.30994" stroke="#494A4A" stroke-linecap="round" stroke-linejoin="round"/>
</g>
</g>
<defs>
<clipPath id="clip0_426_1697">
<rect width="64" height="64" fill="white"/>
</clipPath>
</defs>
</svg>
