<svg width="64" height="64" viewBox="0 0 64 64" fill="none" xmlns="http://www.w3.org/2000/svg">
<g id="  Pictogram-creative">
<g id="stroke-default">
<path id="2px" d="M39.4989 18.9004C39.4989 18.9004 31.7989 25.7004 19.8989 38.0004C7.99886 50.3004 2.29886 59.0004 2.99886 59.8004C3.69886 60.5004 12.399 54.8002 24.599 43.1002C36.799 31.4002 43.499 23.7002 43.499 23.7002M45.8988 12.5L39.2988 19L43.6988 23.4L50.1988 16.9M47.499 7.90039C45.499 9.90039 45.499 13.2004 47.499 15.2004C49.499 17.2004 52.799 17.2004 54.799 15.2004C55.799 14.2004 55.9976 13.6996 56.2967 12C56.3967 5.9 59.599 4.09961 59.599 4.09961C59.599 4.09961 50.299 4.80039 47.499 7.90039ZM41.1988 39.3002C40.6988 39.7002 42.9988 46.0002 42.5988 46.6002C42.2988 47.1002 36.2988 51.5002 36.6988 52.5002C36.9988 53.4002 43.7988 53.2002 44.5988 53.6002C45.2988 54.0002 47.0988 61.2002 48.5988 61.2002C50.0988 61.2002 52.1988 52.7002 52.5988 52.2002C52.8988 51.7002 61.8988 50.1002 61.8988 49.5002C61.8988 49.1002 53.3988 46.7002 53.1988 46.3002C52.7988 45.6002 55.1988 38.1002 54.4988 37.8002C53.2988 37.3002 49.0988 43.5002 48.7988 43.6002C48.4988 43.7002 41.8988 38.9002 41.3988 39.2002L41.1988 39.3002Z" stroke="#494A4A" stroke-width="2" stroke-linecap="round" stroke-linejoin="round"/>
<path id="1px" d="M5.50156 47.0998L0.601562 43.6998M5.70156 40.7998L8.10156 44.8998M1.50156 49.7998L4.00156 49.8998M55.4014 22.9999C55.9014 22.5999 58.5014 24.4999 59.3014 26.6999C60.5014 30.0999 55.0014 31.4999 54.9014 27.1999C54.9014 25.9999 55.1014 23.1999 55.4014 22.9999ZM57.6016 19.0995C57.8016 18.4995 60.3016 18.3995 61.9016 19.0995C64.3016 20.1995 62.6016 23.9995 60.1016 21.8995C58.9016 20.8995 57.4016 19.3995 57.6016 19.0995ZM53.1015 21.9004C53.1015 21.9004 51.0015 23.1004 50.7015 23.8004C50.0015 25.6004 52.3015 26.2004 52.9015 24.2004C53.0015 23.7004 53.2015 22.1004 53.1015 21.9004ZM11.8014 11.0997C11.8014 11.0997 13.7014 9.39969 13.9014 9.39969C14.1014 9.39969 16.5014 10.5997 16.8014 10.2997C17.0014 10.0997 15.9014 7.89969 15.9014 7.59969C15.9014 7.29969 17.9014 5.49969 17.7014 5.09969C17.5014 4.69969 14.4014 5.39969 14.2014 5.29969C14.0014 5.29969 12.0014 2.69969 11.8014 2.79969C11.7014 2.79969 12.3014 5.99969 12.2014 6.09969C12.1014 6.29969 9.20136 6.79969 9.30136 7.09969C9.30136 7.59969 12.0014 7.89969 12.1014 7.99969C12.2014 8.09969 11.7014 10.9997 11.9014 11.0997H11.8014ZM2.30156 22.3997C2.30156 22.3997 3.80156 21.4998 3.90156 21.4998C4.00156 21.4998 5.60156 22.5998 5.80156 22.4998C6.00156 22.3998 5.40156 20.7998 5.50156 20.4998C5.50156 20.2998 7.10156 19.2998 7.00156 18.9998C6.90156 18.6998 4.70156 18.7998 4.50156 18.6998C4.40156 18.6998 3.30156 16.5997 3.10156 16.6997C3.00156 16.6997 3.10156 18.8998 3.10156 18.9998C3.00156 19.0998 1.10156 18.7998 1.10156 18.9998C1.10156 19.2998 2.80156 20.1997 2.80156 20.2997C2.80156 20.3997 2.20156 22.2997 2.30156 22.3997ZM14.3015 22.5002C14.3015 22.5002 15.3015 21.9002 15.4015 21.9002C15.4015 21.9002 16.5015 22.7002 16.7015 22.6002C16.8015 22.6002 16.4015 21.4002 16.5015 21.3002C16.5015 21.2002 17.6015 20.5002 17.5015 20.3002C17.4015 20.1002 15.9015 20.2002 15.8015 20.1002C15.8015 20.1002 15.0015 18.7002 14.9015 18.7002C14.9015 18.7002 14.9015 20.2002 14.9015 20.3002C14.9015 20.3002 13.5015 20.3002 13.5015 20.5002C13.5015 20.7002 14.7015 21.1002 14.7015 21.1002C14.7015 21.1002 14.3015 22.5002 14.4015 22.5002H14.3015Z" stroke="#494A4A" stroke-linecap="round" stroke-linejoin="round"/>
</g>
</g>
</svg>
