<svg width="64" height="64" viewBox="0 0 64 64" fill="none" xmlns="http://www.w3.org/2000/svg">
<g id="Pictogram-coffee-can" clip-path="url(#clip0_622_42000)">
<g id="stroke-default">
<path id="1px" d="M19.6001 10.3996C19.6001 10.3996 35.1001 13.7996 48.1001 9.59961M37.1001 7.6C39.5001 7.5 41.4001 7.2 42.3001 7M33 7.69961C34.1 7.69961 36.2 7.69961 37.2 7.59961M18.1002 5.7998C18.1002 5.7998 17.1002 6.9998 25.4002 7.5998C27.3002 7.6998 30.8002 7.7998 32.9002 7.6998M48.9002 28.3002C46.0002 32.0002 17.0002 32.7002 14.7002 27.7002M18.7002 43.5C18.7002 43.5 18.7002 45.1 20.0002 45.3M44.8001 43.7998C44.8001 43.7998 44.2001 45.0998 40.6001 45.7998" stroke="#494A4A" stroke-linecap="round" stroke-linejoin="round"/>
<path id="2px" d="M48.3999 27.9004L49.8999 14.4004M17.8999 47.9L18.9999 57.3C19.1999 59.2 20.4999 60.8 22.3999 61.4C26.1999 62.7 35.3999 64.2 41.9999 61.5C43.6999 60.8 44.7999 59.3 44.9999 57.5L46.3999 47.5M14.2002 14.4004L15.3002 27.3004M14.2998 26.7002C13.0998 27.8002 14.6998 36.0002 16.2998 45.9002C17.1998 51.4002 47.0998 50.9002 47.9998 45.5002C50.2998 30.5002 51.0998 26.7002 48.9998 27.0002M12 13.4004V11.8004C12 10.6004 12.5 9.40038 13.4 8.50038C13.4 8.50038 14.2 7.40038 14.3 6.70038L14.5 5.50038C14.9 3.50038 16.3 3.20038 18.2 2.70038C22.8 1.40038 34.4 -0.399617 44.9 2.50038C47.2 3.10038 49.1 3.80038 49.5 6.20038V6.70038C49.7 7.40038 50.1 8.00038 50.6 8.50038C51.5 9.40038 52 10.5004 52 11.8004V13.4004C52 13.4004 31.9 21.1004 12 13.4004Z" stroke="#494A4A" stroke-width="2" stroke-linecap="round" stroke-linejoin="round"/>
</g>
</g>
<defs>
<clipPath id="clip0_622_42000">
<rect width="64" height="64" fill="white"/>
</clipPath>
</defs>
</svg>
