<svg width="64" height="64" viewBox="0 0 64 64" fill="none" xmlns="http://www.w3.org/2000/svg">
<g id="Pictogram-organisation-settings" clip-path="url(#clip0_622_42013)">
<g id="stroke-default">
<path id="2px" d="M50.9998 30C50.9998 24.2 50.9998 18.4 50.7998 13.4M13.0998 13.6C13.0998 24.1 12.7998 48.3 13.0998 58.7C13.0998 60.7 13.9998 61.5 15.8998 61.7C17.6998 61.9 20.0998 61.9 23.7998 62M62.8998 34.8C62.8998 34 62.8998 33.2 62.7998 32.4C62.6998 30.4 61.8998 29.6 60.6998 29.3C58.4998 28.9 53.4998 28.9 51.2998 29M12.9998 58C12.3998 58 5.49984 58 3.49984 57.8C1.49984 57.6 1.29984 56.7 1.19984 54.5C0.999837 47.7 1.09984 39 1.29984 30.8C1.29984 29.5 2.19984 28.5 3.59984 28.3C5.39984 28 8.79984 28.1 12.7998 28.1M35.2998 63C30.8998 63 24.4998 63 24.2998 62.8C23.9998 62.6 23.9998 60.7 24.4998 60.3C24.6998 60.1 29.4998 60 33.5998 60M26.1998 60C26.1998 60 25.8998 49.7 26.3998 49.3C26.5998 49.2 28.2998 49.1 30.3998 49M53.0998 11.2C46.1998 7 35.0998 1 31.9998 1C28.8998 1 17.2998 7.4 10.3998 11.9C8.79984 13 11.3998 13.9 13.9998 13.2C20.6998 11.3 29.3998 7 31.9998 7C34.9998 7 42.9998 11 49.8998 13.2C51.1998 13.6 54.9998 12.4 52.9998 11.2H53.0998ZM59.8998 39.4001C59.8998 40.3001 57.2998 42.6001 57.2998 42.6001L58.7998 45.3001C58.7998 45.3001 61.7998 45.1001 62.5998 46.0001C63.3998 46.9001 62.9998 51.9001 62.2998 52.7001C61.5998 53.5001 58.4998 53.5001 58.4998 53.5001L56.8998 56.1001C56.8998 56.1001 58.4998 58.5001 58.0998 59.9001C57.6998 61.3001 53.4998 63.2001 52.2998 62.9001C51.0998 62.6001 49.7998 59.9001 49.7998 59.9001H46.6998C46.6998 59.9001 45.4998 62.7001 44.2998 62.9001C42.1998 63.3001 37.9998 59.7001 37.5998 58.5001C37.1998 57.3001 39.7998 55.5001 39.7998 55.5001L38.2998 52.8001C38.2998 52.8001 35.2998 52.7001 34.3998 52.1001C33.4998 51.5001 34.2998 44.8001 34.9998 44.2001C35.6998 43.6001 38.5998 44.7001 38.5998 44.7001L40.1998 42.1001C40.1998 42.1001 38.9998 39.1001 39.2998 38.3001C39.5998 37.5001 43.3998 35.1001 44.7998 35.3001C46.1998 35.5001 47.3998 38.2001 47.3998 38.2001C47.3998 38.2001 49.4998 38.1001 50.9998 38.3001C51.5998 38.3001 51.8998 35.1001 52.8998 35.0001C53.8998 34.9001 59.9998 38.5001 59.8998 39.4001Z" stroke="#494A4A" stroke-width="2" stroke-linecap="round" stroke-linejoin="round"/>
<path id="1px" d="M10.4996 53.5C10.3996 54.7 8.19962 54.5 7.39962 54.5M42.8996 43.3001C42.5996 43.8001 41.4996 45.5001 41.1996 46.3001M47.7996 56.6001C48.5996 56.6001 50.4996 56.4001 51.0996 56.6001C51.6996 56.8001 52.0996 57.7001 52.3996 58.3001M52.4996 48.0001C52.4996 49.9331 50.9326 51.5001 48.9996 51.5001C47.0666 51.5001 45.4996 49.9331 45.4996 48.0001C45.4996 46.0671 47.0666 44.5001 48.9996 44.5001C50.9326 44.5001 52.4996 46.0671 52.4996 48.0001ZM22.7996 29.4C22.1996 29.5 19.2996 29.5 18.6996 29.4C17.9996 29.3 17.6996 28.9 17.5996 28.5C17.4996 28 17.3996 22.9 17.5996 21.9C17.6996 21.2 18.2996 20.7 19.1996 20.6C19.8996 20.6 22.1996 20.5 22.9996 20.6C23.5996 20.7 24.2996 21 24.3996 21.6C24.4996 22.1 24.5996 26.8 24.3996 27.9C24.1996 28.8 23.7996 29.3 22.8996 29.5L22.7996 29.4ZM33.7996 29.4C33.1996 29.5 30.2996 29.5 29.6996 29.4C28.9996 29.3 28.6996 28.9 28.5996 28.5C28.4996 28 28.3996 22.9 28.5996 21.9C28.6996 21.2 29.2996 20.7 30.1996 20.6C30.8996 20.6 33.1996 20.5 33.9996 20.6C34.5996 20.7 35.2996 21 35.3996 21.6C35.4996 22.1 35.5996 26.8 35.3996 27.9C35.1996 28.8 34.7996 29.3 33.8996 29.5L33.7996 29.4ZM44.7996 29.4C44.1996 29.5 41.2996 29.5 40.6996 29.4C39.9996 29.3 39.6996 28.9 39.5996 28.5C39.4996 28 39.3996 22.9 39.5996 21.9C39.6996 21.2 40.2996 20.7 41.1996 20.6C41.8996 20.6 44.1996 20.5 44.9996 20.6C45.5996 20.7 46.2996 21 46.3996 21.6C46.4996 22.1 46.5996 26.8 46.3996 27.9C46.1996 28.8 45.7996 29.3 44.8996 29.5L44.7996 29.4ZM22.7996 41.4C22.1996 41.5 19.2996 41.5 18.6996 41.4C17.9996 41.3 17.6996 40.9 17.5996 40.5C17.4996 40 17.3996 34.9 17.5996 33.9C17.6996 33.2 18.2996 32.7 19.1996 32.6C19.8996 32.6 22.1996 32.5 22.9996 32.6C23.5996 32.7 24.2996 33 24.3996 33.6C24.4996 34.1 24.5996 38.8 24.3996 39.9C24.1996 40.8 23.7996 41.3 22.8996 41.5L22.7996 41.4ZM33.7996 41.4C33.1996 41.5 30.2996 41.5 29.6996 41.4C28.9996 41.3 28.6996 40.9 28.5996 40.5C28.4996 40 28.3996 34.9 28.5996 33.9C28.6996 33.2 29.2996 32.7 30.1996 32.6C30.8996 32.6 33.1996 32.5 33.9996 32.6C34.5996 32.7 35.2996 33 35.3996 33.6C35.4996 34.1 35.5996 38.8 35.3996 39.9C35.1996 40.8 34.7996 41.3 33.8996 41.5L33.7996 41.4ZM5.69962 39.4C5.69962 39.4 7.79962 39.4 8.29962 39.4C8.99962 39.4 9.39962 38.9 9.39962 38.5C9.39962 38.1 9.49962 33.6 9.39962 32.6C9.39962 32 8.89962 31.5 8.29962 31.5C7.79962 31.5 6.19962 31.4 5.59962 31.5C5.19962 31.5 4.69962 31.9 4.59962 32.4C4.59962 32.8 4.49962 37 4.59962 37.9C4.79962 38.7 4.99962 39.1 5.69962 39.3V39.4ZM8.29962 50.4C8.29962 50.4 5.79962 50.5 5.39962 50.4C4.89962 50.3 4.59962 49.9 4.59962 49.1C4.59962 48.5 4.59962 44.6 4.59962 43.6C4.59962 43 5.09962 42.5 5.69962 42.5C6.19962 42.5 7.79962 42.4 8.39962 42.5C8.79962 42.5 9.29962 42.9 9.39962 43.4C9.39962 43.8 9.49962 47.7 9.39962 48.8C9.39962 49.6 8.89962 50.2 8.29962 50.3V50.4Z" stroke="#494A4A" stroke-linecap="round" stroke-linejoin="round"/>
</g>
</g>
<defs>
<clipPath id="clip0_622_42013">
<rect width="64" height="64" fill="white"/>
</clipPath>
</defs>
</svg>
