<svg width="64" height="64" viewBox="0 0 64 64" fill="none" xmlns="http://www.w3.org/2000/svg">
<g id="Pictogram-buyer3" clip-path="url(#clip0_624_21113)">
<g id="stroke-default">
<path id="2px" d="M38.0983 63.8888C38.65 63.8622 39.0755 63.3933 39.0488 62.8417C39.0222 62.2901 38.5534 61.8645 38.0017 61.8912L38.0983 63.8888ZM5.05001 57.77H6.05008L6.04994 57.7583L5.05001 57.77ZM8.76001 45L9.34229 45.813L9.34379 45.8119L8.76001 45ZM26.76 32.29C26.76 31.7377 26.3123 31.29 25.76 31.29C25.2077 31.29 24.76 31.7377 24.76 32.29H26.76ZM39.342 31.886C39.4116 31.3381 39.0239 30.8375 38.476 30.768C37.9281 30.6984 37.4275 31.0862 37.358 31.634L39.342 31.886ZM38.1208 35.7065C38.384 36.192 38.9909 36.3723 39.4765 36.1092C39.962 35.846 40.1423 35.2391 39.8792 34.7535L38.1208 35.7065ZM41.1797 56.0628C41.4961 55.6101 41.3855 54.9867 40.9328 54.6703C40.4801 54.354 39.8567 54.4645 39.5403 54.9172L41.1797 56.0628ZM40.03 56.36L41.0142 56.5373C41.0179 56.5166 41.021 56.4958 41.0234 56.4749L40.03 56.36ZM40.03 59.15L39.0458 59.3273C39.0608 59.41 39.086 59.4906 39.1211 59.567L40.03 59.15ZM60.03 59.15L60.9398 59.565C60.9642 59.5115 60.9838 59.456 60.9985 59.3991L60.03 59.15ZM60.03 56.36L59.0374 56.4817C59.0427 56.5246 59.0508 56.5672 59.0615 56.6091L60.03 56.36ZM60.6676 55.2057C60.3836 54.732 59.7693 54.5784 59.2957 54.8624C58.8221 55.1465 58.6684 55.7607 58.9524 56.2343L60.6676 55.2057ZM42.0132 50.763C42.4733 50.4575 42.5986 49.8368 42.293 49.3768C41.9875 48.9167 41.3668 48.7914 40.9068 49.097L42.0132 50.763ZM40 52L39.0296 51.7584C39.0243 51.7797 39.0197 51.8012 39.0158 51.8227L40 52ZM40 54.79L39.0158 54.9673C39.0308 55.05 39.056 55.1306 39.0911 55.207L40 54.79ZM60 54.79L60.9098 55.205C60.9297 55.1614 60.9464 55.1165 60.9599 55.0705L60 54.79ZM61.057 52.2769C60.9394 51.7373 60.4065 51.3953 59.8669 51.513C59.3273 51.6307 58.9853 52.1635 59.103 52.7031L61.057 52.2769ZM42.7182 49.3503C42.7515 48.799 42.3316 48.3251 41.7803 48.2918C41.229 48.2585 40.7551 48.6784 40.7218 49.2297L42.7182 49.3503ZM41.85 50.57L40.8843 50.8297C40.8989 50.8839 40.918 50.9367 40.9414 50.9877L41.85 50.57ZM61.85 50.57L62.7595 50.9857C62.7848 50.9304 62.805 50.8729 62.8198 50.8139L61.85 50.57ZM61.85 47.78L60.8692 47.9749C60.8725 47.9913 60.8761 48.0076 60.8802 48.0239L61.85 47.78ZM57.9273 43.3984C57.4017 43.2287 56.8381 43.5172 56.6684 44.0427C56.4987 44.5683 56.7872 45.1319 57.3128 45.3016L57.9273 43.3984ZM41.9215 40.7996C42.4515 40.6441 42.755 40.0884 42.5996 39.5585C42.4441 39.0285 41.8884 38.725 41.3585 38.8804L41.9215 40.7996ZM37.13 43.36L36.1476 43.1732L36.1468 43.1774L37.13 43.36ZM37.13 46.15L36.1468 46.3326C36.1618 46.4135 36.1868 46.4922 36.2211 46.567L37.13 46.15ZM57.13 46.15L58.0392 46.5665C58.0521 46.5383 58.0637 46.5094 58.0739 46.4801L57.13 46.15ZM58.2798 44.3574C58.201 43.8107 57.694 43.4314 57.1474 43.5102C56.6007 43.589 56.2215 44.096 56.3002 44.6426L58.2798 44.3574ZM41.85 38.36L40.8689 38.1668C40.8678 38.1721 40.8668 38.1774 40.8658 38.1827L41.85 38.36ZM41.85 41.15L40.8658 41.3273C40.8808 41.41 40.906 41.4906 40.9411 41.567L41.85 41.15ZM61.85 41.15L62.7598 41.565C62.785 41.5099 62.805 41.4526 62.8198 41.3939L61.85 41.15ZM61.85 38.36L60.8705 38.5613C60.8734 38.5756 60.8767 38.5898 60.8802 38.6039L61.85 38.36ZM38.0017 61.8912C30.2918 62.264 22.1051 62.014 15.8686 61.1654C12.7413 60.7399 10.161 60.1711 8.38753 59.4816C7.49697 59.1353 6.87231 58.7821 6.48672 58.4479C6.10632 58.1183 6.05001 57.893 6.05001 57.77H4.05001C4.05001 58.677 4.54026 59.4076 5.17694 59.9594C5.80842 60.5066 6.67134 60.9602 7.6628 61.3456C9.65339 62.1196 12.415 62.7139 15.5989 63.1471C21.9849 64.016 30.2982 64.266 38.0983 63.8888L38.0017 61.8912ZM6.04994 57.7583C6.02615 55.7168 6.3837 53.0129 7.01991 50.6305C7.33735 49.4417 7.71657 48.3621 8.13591 47.5004C8.56759 46.6133 8.9907 46.0648 9.34229 45.813L8.17773 44.187C7.41932 44.7302 6.81743 45.6392 6.33755 46.6252C5.84533 47.6367 5.42642 48.8458 5.08762 50.1145C4.41132 52.6471 4.02387 55.5332 4.05008 57.7817L6.04994 57.7583ZM9.34379 45.8119C10.6396 44.8802 12.2887 44.2447 14.1357 43.6594C15.9267 43.0918 17.9678 42.5558 19.7751 41.8442C21.6074 41.1229 23.3707 40.1628 24.671 38.6352C25.9929 37.0823 26.76 35.0341 26.76 32.29H24.76C24.76 34.6309 24.1184 36.1989 23.1481 37.3388C22.1562 38.5041 20.7439 39.3134 19.0424 39.9833C17.316 40.663 15.4652 41.1401 13.5315 41.7528C11.6538 42.3478 9.74546 43.0598 8.17623 44.1881L9.34379 45.8119ZM37.358 31.634C37.1797 33.0379 37.4465 34.4623 38.1208 35.7065L39.8792 34.7535C39.4044 33.8775 39.2165 32.8745 39.342 31.886L37.358 31.634ZM32 35.5C38.5496 35.5 45 28.1825 45 15.32H43C43 27.7575 36.8704 33.5 32 33.5V35.5ZM45 15.32C45 10.3476 43.8249 6.4976 41.5396 3.87984C39.2356 1.24075 35.9315 0 32 0V2C35.4985 2 38.1944 3.08925 40.0329 5.19516C41.8901 7.3224 43 10.6324 43 15.32H45ZM32 0C28.0685 0 24.7644 1.24075 22.4604 3.87984C20.1751 6.4976 19 10.3476 19 15.32H21C21 10.6324 22.1099 7.3224 23.9671 5.19516C25.8056 3.08925 28.5015 2 32 2V0ZM19 15.32C19 28.2137 25.4513 35.5 32 35.5V33.5C27.1287 33.5 21 27.7863 21 15.32H19ZM39.5403 54.9172C39.265 55.3112 39.0919 55.7675 39.0366 56.2451L41.0234 56.4749C41.0405 56.3267 41.0942 56.1851 41.1797 56.0628L39.5403 54.9172ZM39.0458 56.1827C38.8586 57.2225 38.8586 58.2875 39.0458 59.3273L41.0142 58.9727C40.8691 58.1674 40.8691 57.3426 41.0142 56.5373L39.0458 56.1827ZM39.1211 59.567C39.8737 61.2073 41.5813 62.2916 43.4785 62.9653C45.4112 63.6516 47.7361 63.9843 50.0292 63.9863C52.3222 63.9882 54.6476 63.6595 56.5811 62.9739C58.4799 62.3006 60.1878 61.2137 60.9398 59.565L59.1202 58.735C58.7022 59.6513 57.6176 60.4844 55.9127 61.0889C54.2424 61.6811 52.1529 61.9881 50.0309 61.9863C47.9089 61.9845 45.8188 61.674 44.1478 61.0806C42.4413 60.4746 41.3563 59.6427 40.9389 58.733L39.1211 59.567ZM60.9985 59.3991C61.2759 58.3206 61.2759 57.1894 60.9985 56.1109L59.0615 56.6091C59.2549 57.3608 59.2549 58.1492 59.0615 58.9009L60.9985 59.3991ZM61.0226 56.2383C60.9778 55.8731 60.8569 55.5213 60.6676 55.2057L58.9524 56.2343C58.9977 56.3099 59.0267 56.3942 59.0374 56.4817L61.0226 56.2383ZM40.9068 49.097C39.9707 49.7186 39.3011 50.668 39.0296 51.7584L40.9704 52.2416C41.1212 51.6358 41.4932 51.1084 42.0132 50.763L40.9068 49.097ZM39.0158 51.8227C38.8286 52.8625 38.8286 53.9275 39.0158 54.9673L40.9842 54.6127C40.8391 53.8074 40.8391 52.9826 40.9842 52.1773L39.0158 51.8227ZM39.0911 55.207C39.8437 56.8473 41.5513 57.9316 43.4485 58.6053C45.3812 59.2916 47.7061 59.6243 49.9992 59.6263C52.2922 59.6282 54.6176 59.2995 56.5511 58.6139C58.4499 57.9406 60.1578 56.8537 60.9098 55.205L59.0902 54.375C58.6722 55.2913 57.5876 56.1244 55.8827 56.7289C54.2124 57.3211 52.1229 57.6281 50.0009 57.6263C47.8789 57.6245 45.7888 57.314 44.1178 56.7206C42.4113 56.1146 41.3263 55.2827 40.9089 54.373L39.0911 55.207ZM60.9599 55.0705C61.2253 54.162 61.2587 53.2016 61.057 52.2769L59.103 52.7031C59.2334 53.301 59.2118 53.9221 59.0401 54.5095L60.9599 55.0705ZM40.7218 49.2297C40.6893 49.7683 40.7442 50.3087 40.8843 50.8297L42.8157 50.3103C42.7316 49.9976 42.6987 49.6734 42.7182 49.3503L40.7218 49.2297ZM40.9414 50.9877C41.6944 52.6256 43.4023 53.7077 45.2991 54.3799C47.2316 55.0648 49.5563 55.3968 51.8492 55.3988C54.142 55.4007 56.4672 55.0727 58.4005 54.3885C60.2989 53.7167 62.0071 52.632 62.7595 50.9857L60.9405 50.1543C60.5229 51.068 59.4387 51.8996 57.7333 52.5031C56.0628 53.0942 53.973 53.4006 51.8509 53.3988C49.7288 53.3969 47.6384 53.0871 45.9672 52.4948C44.2602 51.8898 43.1756 51.0594 42.7586 50.1523L40.9414 50.9877ZM62.8198 50.8139C63.0904 49.738 63.0904 48.612 62.8198 47.5361L60.8802 48.0239C61.0702 48.7795 61.0702 49.5705 60.8802 50.3261L62.8198 50.8139ZM62.8308 47.5851C62.6143 46.4956 61.9295 45.6264 61.0669 44.9591C60.2059 44.293 59.1102 43.7803 57.9273 43.3984L57.3128 45.3016C58.3599 45.6397 59.2241 46.062 59.8431 46.5409C60.4605 47.0186 60.7757 47.5044 60.8692 47.9749L62.8308 47.5851ZM41.3585 38.8804C40.0791 39.2558 38.9083 39.7717 37.9952 40.4539C37.0791 41.1385 36.3635 42.0382 36.1476 43.1732L38.1124 43.5468C38.2066 43.0518 38.5359 42.5466 39.1923 42.0561C39.8518 41.5633 40.7809 41.1342 41.9215 40.7996L41.3585 38.8804ZM36.1468 43.1774C35.9532 44.2202 35.9532 45.2898 36.1468 46.3326L38.1132 45.9674C37.9644 45.166 37.9644 44.344 38.1132 43.5426L36.1468 43.1774ZM36.2211 46.567C36.9736 48.2071 38.6804 49.2915 40.577 49.9653C42.5089 50.6516 44.8329 50.9843 47.1254 50.9863C49.4178 50.9882 51.7429 50.6595 53.6768 49.9739C55.5762 49.3006 57.2844 48.214 58.0392 46.5665L56.2209 45.7335C55.8006 46.651 54.7139 47.4844 53.0086 48.0889C51.3377 48.6812 49.2484 48.9881 47.1271 48.9863C45.0058 48.9845 42.9167 48.674 41.2465 48.0807C39.5409 47.4748 38.4564 46.6429 38.0389 45.733L36.2211 46.567ZM58.0739 46.4801C58.3121 45.7994 58.3827 45.0712 58.2798 44.3574L56.3002 44.6426C56.3573 45.0385 56.3181 45.4423 56.1861 45.8199L58.0739 46.4801ZM40.8658 38.1827C40.6786 39.2225 40.6786 40.2875 40.8658 41.3273L42.8342 40.9727C42.6891 40.1674 42.6891 39.3426 42.8342 38.5373L40.8658 38.1827ZM40.9411 41.567C41.6937 43.2073 43.4013 44.2916 45.2985 44.9653C47.2312 45.6516 49.5561 45.9843 51.8492 45.9863C54.1422 45.9882 56.4676 45.6595 58.4011 44.9739C60.2999 44.3006 62.0078 43.2137 62.7598 41.565L60.9402 40.735C60.5222 41.6513 59.4376 42.4844 57.7327 43.0889C56.0624 43.6811 53.9729 43.9881 51.8509 43.9863C49.7289 43.9845 47.6388 43.674 45.9678 43.0806C44.2613 42.4746 43.1763 41.6427 42.7589 40.733L40.9411 41.567ZM62.8198 41.3939C63.0904 40.318 63.0904 39.192 62.8198 38.1161L60.8802 38.6039C61.0702 39.3595 61.0702 40.1505 60.8802 40.9061L62.8198 41.3939ZM62.8295 38.1587C62.4282 36.2058 60.6938 34.9335 58.7523 34.1661C56.7642 33.3803 54.2779 33.002 51.8363 32.9988C49.3951 32.9955 46.9099 33.3671 44.925 34.1521C42.9846 34.9196 41.2565 36.1981 40.8689 38.1668L42.8312 38.5532C43.0185 37.6019 43.9292 36.6967 45.6606 36.0119C47.3476 35.3447 49.5674 34.9957 51.8337 34.9987C54.0996 35.0018 56.3233 35.3566 58.0171 36.0261C59.7574 36.714 60.6768 37.6192 60.8705 38.5613L62.8295 38.1587Z" fill="#494A4A"/>
<path id="1px" d="M12.73 46.09C10 47 9.94 47.34 9 50.87M60.8398 46.3901C61.9998 48.1001 57.8398 50.8901 51.8398 50.8901C50.1162 50.8951 48.4024 50.632 46.7598 50.1101M52.82 45.28C51 45.98 50.62 46.48 48.11 46.48C42.11 46.48 36.32 44.17 38.11 41.98M60.84 37C62 38.71 57.84 41.5 51.84 41.5C45.84 41.5 41 39.17 42.79 37" stroke="#494A4A" stroke-linecap="round" stroke-linejoin="round"/>
</g>
</g>
<defs>
<clipPath id="clip0_624_21113">
<rect width="64" height="64" fill="white"/>
</clipPath>
</defs>
</svg>
