<svg width="64" height="64" viewBox="0 0 64 64" fill="none" xmlns="http://www.w3.org/2000/svg">
<g id="Pictogram-user-graduation">
<g id="stroke-default">
<path id="2px" d="M39.5515 63.7987C40.1031 63.7702 40.5271 63.3 40.4987 62.7485C40.4702 62.1969 40 61.7729 39.4485 61.8013L39.5515 63.7987ZM8.8 44.9L9.37106 45.7209L9.37753 45.7164L9.38393 45.7118L8.8 44.9ZM26.8 32.2C26.8 31.6477 26.3523 31.2 25.8 31.2C25.2477 31.2 24.8 31.6477 24.8 32.2H26.8ZM39.3 31.7C39.3 31.1477 38.8523 30.7 38.3 30.7C37.7477 30.7 37.3 31.1477 37.3 31.7H39.3ZM38.8443 38.1549C39.206 38.5723 39.8376 38.6174 40.2549 38.2557C40.6723 37.894 40.7174 37.2624 40.3557 36.8451L38.8443 38.1549ZM47.8002 39.0002V38.0002C47.757 38.0002 47.7138 38.003 47.6709 38.0086L47.8002 39.0002ZM33.4002 45.1002L34.2807 45.5743L34.2826 45.5708L33.4002 45.1002ZM47.5002 52.3002L47.4503 53.2989C47.4554 53.2992 47.4606 53.2994 47.4658 53.2996L47.5002 52.3002ZM62.7002 46.1002L63.6617 46.3749C63.6692 46.349 63.6755 46.3227 63.6808 46.2963L62.7002 46.1002ZM47.9002 39.0002V40.0002C47.9304 40.0002 47.9607 39.9988 47.9908 39.9961L47.9002 39.0002ZM39.6995 49.4632C39.6791 48.9113 39.2151 48.4804 38.6632 48.5009C38.1113 48.5213 37.6805 48.9853 37.7009 49.5372L39.6995 49.4632ZM56.8002 50.1002C56.8002 49.5479 56.3525 49.1002 55.8002 49.1002C55.2479 49.1002 54.8002 49.5479 54.8002 50.1002H56.8002ZM57.8345 62.357C57.4793 62.7799 57.5341 63.4106 57.957 63.7659C58.3799 64.1211 59.0107 64.0662 59.3659 63.6434L57.8345 62.357ZM61.5153 63.1198C61.8576 63.5533 62.4864 63.6273 62.9199 63.285C63.3533 62.9428 63.4273 62.314 63.0851 61.8805L61.5153 63.1198ZM39.4485 61.8013C31.7451 62.1989 23.1808 61.974 16.5636 61.133C13.2463 60.7113 10.473 60.1414 8.55338 59.4417C7.58876 59.0901 6.90363 58.7282 6.47741 58.3818C6.0517 58.0358 6 57.8066 6 57.7H4C4 58.6434 4.54205 59.3861 5.21595 59.9338C5.88934 60.4811 6.80967 60.9349 7.86849 61.3208C9.99576 62.0961 12.9412 62.6887 16.3114 63.117C23.0692 63.976 31.7549 64.2011 39.5515 63.7987L39.4485 61.8013ZM6 57.7C6 55.6967 6.36101 52.9838 7.00349 50.5836C7.32418 49.3855 7.70723 48.295 8.13389 47.4245C8.57286 46.5288 9.00573 45.975 9.37106 45.7209L8.22894 44.0791C7.44427 44.6249 6.82714 45.5462 6.33798 46.5443C5.83652 47.5675 5.41332 48.7895 5.07151 50.0664C4.38899 52.6162 4 55.5033 4 57.7H6ZM9.38393 45.7118C10.6711 44.7859 12.3153 44.1554 14.1613 43.5741C15.951 43.0106 17.993 42.4782 19.8026 41.7685C21.6371 41.0489 23.4037 40.0892 24.7066 38.5593C26.0311 37.0042 26.8 34.9514 26.8 32.2H24.8C24.8 34.5486 24.1564 36.1208 23.184 37.2625C22.1901 38.4296 20.7753 39.2386 19.0724 39.9065C17.3445 40.5843 15.4927 41.0581 13.5606 41.6665C11.6847 42.2571 9.77888 42.9641 8.21607 44.0882L9.38393 45.7118ZM37.3 31.7C37.3 32.3474 37.2987 33.4899 37.4732 34.6711C37.6431 35.821 38.0019 37.1829 38.8443 38.1549L40.3557 36.8451C39.8981 36.3171 39.6069 35.429 39.4518 34.3789C39.3013 33.3601 39.3 32.3526 39.3 31.7H37.3ZM32 35.5C38.5389 35.5 45 28.2134 45 15.3H43C43 27.7866 36.8611 33.5 32 33.5V35.5ZM45 15.3C45 10.3546 43.816 6.5108 41.5281 3.89206C39.2222 1.2528 35.9199 0 32 0V2C35.4801 2 38.1778 3.0972 40.0219 5.20794C41.884 7.3392 43 10.6454 43 15.3H45ZM32 0C28.0801 0 24.7778 1.2528 22.4719 3.89206C20.184 6.5108 19 10.3546 19 15.3H21C21 10.6454 22.116 7.3392 23.9781 5.20794C25.8222 3.0972 28.5199 2 32 2V0ZM19 15.3C19 28.2134 25.4611 35.5 32 35.5V33.5C27.1389 33.5 21 27.7866 21 15.3H19ZM47.6709 38.0086C46.9841 38.0981 45.7563 38.4566 44.374 38.921C42.9578 39.3967 41.2857 40.0164 39.6626 40.6732C38.0423 41.3289 36.4529 42.0288 35.2083 42.6664C34.588 42.9842 34.0333 43.2966 33.5971 43.5893C33.3792 43.7355 33.175 43.8874 33.0014 44.0428C32.8391 44.1881 32.6484 44.3848 32.5179 44.6296L34.2826 45.5708C34.252 45.6281 34.2433 45.6153 34.3356 45.5327C34.4166 45.4602 34.5394 45.3656 34.7115 45.2501C35.0554 45.0193 35.5327 44.7474 36.1202 44.4464C37.2913 43.8465 38.8206 43.1715 40.4128 42.5271C42.0022 41.884 43.6364 41.2786 45.0109 40.8169C46.4192 40.3437 47.4664 40.0522 47.9296 39.9918L47.6709 38.0086ZM32.5197 44.6261C32.2616 45.1055 32.3942 45.5707 32.5231 45.834C32.6509 46.0949 32.8443 46.3163 33.0206 46.4904C33.3826 46.8477 33.903 47.226 34.4861 47.6008C35.6685 48.3608 37.3069 49.231 39.0026 50.0505C40.7039 50.8727 42.4927 51.6581 43.989 52.2464C44.7364 52.5403 45.4206 52.7889 45.99 52.9689C46.5261 53.1383 47.0568 53.2792 47.4503 53.2989L47.5502 51.3014C47.4436 51.2961 47.1368 51.2339 46.5928 51.0619C46.0821 50.9005 45.4437 50.6694 44.7208 50.3851C43.2765 49.8172 41.534 49.0526 39.8728 48.2498C38.2061 47.4443 36.6507 46.6146 35.5675 45.9183C35.0177 45.565 34.6373 45.276 34.4256 45.067C34.315 44.9578 34.3031 44.9213 34.3193 44.9544C34.3367 44.9898 34.4513 45.2574 34.2807 45.5743L32.5197 44.6261ZM47.4658 53.2996C47.9666 53.3168 48.5793 53.214 49.2093 53.064C49.8584 52.9095 50.6011 52.6861 51.3905 52.4195C52.9704 51.8859 54.7881 51.1621 56.5095 50.4181C58.2316 49.6737 59.8745 48.9017 61.1064 48.2674C61.72 47.9515 62.2467 47.662 62.6345 47.4222C62.8259 47.3039 63.0049 47.1845 63.1492 47.0702C63.2204 47.0138 63.3036 46.9427 63.3806 46.8596C63.4357 46.8002 63.5886 46.631 63.6617 46.3749L61.7387 45.8254C61.7732 45.7048 61.8237 45.6215 61.85 45.582C61.8788 45.5388 61.9036 45.5111 61.9139 45.5C61.9332 45.4792 61.9367 45.4792 61.9076 45.5023C61.8513 45.5468 61.747 45.6195 61.5827 45.7211C61.2593 45.9211 60.7852 46.1832 60.1909 46.4892C59.0072 47.0987 57.4063 47.8516 55.716 48.5822C54.0249 49.3132 52.2613 50.0144 50.7506 50.5246C49.9947 50.7799 49.3147 50.983 48.7462 51.1184C48.1587 51.2582 47.7588 51.3085 47.5347 51.3008L47.4658 53.2996ZM63.6808 46.2963C63.7735 45.833 63.5871 45.4499 63.454 45.2385C63.3086 45.0074 63.1127 44.7995 62.9173 44.62C62.5219 44.2565 61.9735 43.8695 61.354 43.482C60.1037 42.7 58.4098 41.8211 56.6599 41.0061C54.9064 40.1895 53.0677 39.4237 51.5184 38.8722C50.7449 38.5968 50.0296 38.3697 49.4254 38.2169C48.8606 38.0739 48.2709 37.9623 47.8097 38.0043L47.9908 39.9961C48.0795 39.988 48.3743 40.0139 48.9348 40.1557C49.456 40.2876 50.1071 40.4926 50.8476 40.7563C52.3265 41.2828 54.1065 42.0233 55.8156 42.8192C57.5282 43.6168 59.1405 44.4566 60.2934 45.1777C60.8754 45.5417 61.3028 45.8525 61.564 46.0925C61.6969 46.2147 61.7495 46.285 61.7612 46.3036C61.7853 46.3418 61.6645 46.1798 61.7196 45.904L63.6808 46.2963ZM47.9002 38.0002H47.8002V40.0002H47.9002V38.0002ZM37.7009 49.5372C37.7487 50.8284 37.6059 52.0152 37.5391 53.2851C37.4762 54.4808 37.4812 55.7695 37.9864 56.9063L39.814 56.094C39.5193 55.4308 39.4743 54.5695 39.5363 53.3902C39.5945 52.2852 39.7517 50.8719 39.6995 49.4632L37.7009 49.5372ZM37.9864 56.9063C38.3065 57.6266 39.0033 58.2269 39.7094 58.6998C40.4526 59.1976 41.3664 59.6582 42.3201 60.0501C44.2036 60.8241 46.4163 61.4002 48.0002 61.4002V59.4002C46.7842 59.4002 44.8468 58.9262 43.0803 58.2002C42.2091 57.8422 41.4229 57.4403 40.8223 57.0381C40.1846 56.6109 39.8939 56.2737 39.814 56.094L37.9864 56.9063ZM48.0002 61.4002C49.6544 61.4002 51.6095 60.627 53.161 59.7936C53.9562 59.3664 54.6895 58.8995 55.2788 58.4588C55.8345 58.0432 56.364 57.5769 56.6439 57.137L54.9566 56.0633C54.8865 56.1735 54.6159 56.4571 54.081 56.8572C53.5797 57.2321 52.9317 57.6464 52.2145 58.0317C50.7409 58.8233 49.146 59.4002 48.0002 59.4002V61.4002ZM56.6439 57.137C56.9499 56.6561 57.0555 56.0859 57.0929 55.5729C57.1313 55.0459 57.1044 54.4602 57.0598 53.8743C56.9668 52.6514 56.8002 51.4006 56.8002 50.1002H54.8002C54.8002 51.4997 54.9836 52.9489 55.0656 54.026C55.1085 54.5901 55.1254 55.0545 55.0982 55.4274C55.07 55.8144 55.0005 55.9943 54.9566 56.0633L56.6439 57.137ZM59.3659 63.6434C60.6878 62.0697 60.6493 60.0916 60.625 58.8433C60.6111 58.1266 60.6052 57.7348 60.6661 57.4955C60.6893 57.4046 60.6956 57.4576 60.6146 57.5279C60.5184 57.6114 60.44 57.6002 60.5002 57.6002V55.6002C60.0854 55.6002 59.657 55.7108 59.3038 56.0174C58.9657 56.3107 58.808 56.6879 58.7281 57.0017C58.5828 57.5718 58.6143 58.3112 58.6254 58.8821C58.6512 60.2087 58.6127 61.4306 57.8345 62.357L59.3659 63.6434ZM60.5002 57.6002C60.5519 57.6002 60.5023 57.6091 60.4359 57.5559C60.3834 57.5138 60.3957 57.4916 60.4275 57.5831C60.5066 57.8108 60.5372 58.2033 60.5504 58.8579C60.5623 59.4436 60.5619 60.199 60.6632 60.9165C60.765 61.6383 60.9832 62.4458 61.5153 63.1198L63.0851 61.8805C62.8672 61.6045 62.7229 61.1995 62.6435 60.637C62.5635 60.0701 62.5632 59.4692 62.55 58.8175C62.5382 58.2346 62.5188 57.5083 62.3167 56.9266C62.2079 56.6134 62.0217 56.2639 61.6872 55.9956C61.3387 55.7162 60.9236 55.6002 60.5002 55.6002V57.6002Z" fill="#494A4A"/>
<path id="1px" d="M12.7 46.0999C10 46.9999 9.9 47.3999 9 50.8999M48.3002 45.1001C48.3002 45.1001 59.9002 47.4001 60.3002 48.2001C60.7002 49.0001 60.6002 55.9001 60.6002 55.9001" stroke="#494A4A" stroke-linecap="round" stroke-linejoin="round"/>
</g>
</g>
</svg>
