<svg width="64" height="64" viewBox="0 0 64 64" fill="none" xmlns="http://www.w3.org/2000/svg">
<g id="  Pictogram-leaf">
<g id="stroke-default">
<path id="2px" d="M32.0002 10.82C18.2902 16.48 7.05021 37.82 11.7802 56.16C12.8802 60.43 19.0302 61.35 17.6302 59.43C9.84021 48.76 14.5102 25.43 22.7002 17.43M14.0002 48.76C19.4402 52.5 33.2102 52.23 38.8702 42.09C46.0702 29.19 32.2202 19.18 46.0402 8.09C50.6302 4.39 49.9202 2 44.0002 2C5.00021 2 -5.99979 31 10.2102 46.08M41.8302 48.55C41.9962 50.4883 41.9223 52.4398 41.6102 54.36M39.21 51.34C40.9586 51.2441 42.7113 51.2441 44.46 51.34M56.5802 49.64L58.0902 52.41C58.1998 52.6194 58.3708 52.7904 58.5802 52.9L61.3402 54.41C61.5365 54.5164 61.7003 54.6739 61.8145 54.8658C61.9287 55.0576 61.989 55.2767 61.989 55.5C61.989 55.7233 61.9287 55.9424 61.8145 56.1342C61.7003 56.3261 61.5365 56.4836 61.3402 56.59L58.5802 58.1C58.3708 58.2096 58.1998 58.3806 58.0902 58.59L56.5802 61.36C56.473 61.5538 56.3158 61.7154 56.125 61.8279C55.9342 61.9404 55.7167 61.9997 55.4952 61.9997C55.2737 61.9997 55.0562 61.9404 54.8654 61.8279C54.6746 61.7154 54.5174 61.5538 54.4102 61.36L52.9002 58.59C52.7841 58.382 52.6105 58.2119 52.4002 58.1L49.6402 56.59C49.4466 56.4813 49.2855 56.3231 49.1734 56.1315C49.0612 55.94 49.0021 55.722 49.0021 55.5C49.0021 55.278 49.0612 55.06 49.1734 54.8685C49.2855 54.6769 49.4466 54.5187 49.6402 54.41L52.4002 52.9C52.6105 52.7881 52.7841 52.618 52.9002 52.41L54.4102 49.64C54.5174 49.4462 54.6746 49.2846 54.8654 49.1721C55.0562 49.0596 55.2737 49.0003 55.4952 49.0003C55.7167 49.0003 55.9342 49.0596 56.125 49.1721C56.3158 49.2846 56.473 49.4462 56.5802 49.64Z" stroke="#494A4A" stroke-width="2" stroke-linecap="round" stroke-linejoin="round"/>
<path id="1px" d="M54.9998 4C55.4998 4.2 55.9998 4.3 56.3998 4.5M59.7998 6.7C60.7058 7.54688 61.3664 8.49268 61.8152 9.50005M62.5007 12C62.6218 12.983 62.59 13.9924 62.4304 15M61.8356 17.3415C61.5795 18.0779 61.2632 18.8013 60.8973 19.5M59.901 21.165C59.3405 21.9925 58.7134 22.7646 58.0412 23.4573M58.0412 23.4573C57.0967 24.4307 56.0631 25.2476 55 25.8415M58.0412 23.4573C57.666 22.4829 57.1902 21.4336 56.5998 20.3M58.0412 23.4573C58.5451 24.7657 58.8676 25.9391 59.043 27M53 26.674C51.3964 27.1081 49.8094 26.9565 48.4355 26M46.5998 24C45.0347 21.4317 45.6115 18.9439 47.154 17.4413M49.1189 16.251C51.0652 15.6106 53.4892 16.1137 55.4292 18.5M59.1478 30C58.9164 32.0414 58.0426 33.5716 57 34.9051M55.6361 36.5C54.1442 38.1585 52.7063 39.6977 52.4998 41.9M52.4998 43.8C52.4998 43.8 52.6998 44.7 52.8998 45.3" stroke="#494A4A" stroke-linecap="round" stroke-linejoin="round"/>
</g>
</g>
</svg>
