<svg width="64" height="64" viewBox="0 0 64 64" fill="none" xmlns="http://www.w3.org/2000/svg">
<g id="Pictogram-water-bottle" clip-path="url(#clip0_622_42043)">
<g id="stroke-default">
<path id="2px" d="M35.1 9.69983C34.9 10.9998 35.4 10.9998 35.4 10.9998C39.2 10.9998 42.8 12.7998 42.9 16.3998C43.3 25.2998 42.9 37.5998 42.9 44.4998C42.9 48.9998 41.9 50.1998 41.9 50.1998C41.9 50.1998 43.6 50.6998 43.6 56.5998C43.6 63.5998 34 63.2998 27.5 62.9998C20.4 62.6998 18 60.3998 18 55.4998C18 51.5998 19.6 50.2998 19.6 50.2998C19.6 50.2998 18.9 49.2998 18.6 47.8998C17.9 44.1998 17.9 24.6998 18.6 16.1998C19.1 10.3998 26.5 10.8998 26.5 10.8998C26.5 10.8998 26.7 10.3998 26.5 9.59983M24.3 7.99983C24.3 7.99983 30.8 9.99983 37.8 7.99983C37.8 7.99983 38.4 4.69983 37.8 2.89983C37.2 1.09983 35.4 0.799831 31.9 0.899831C28.4 0.999831 25.7 0.499831 24.6 2.49983C23.5 4.49983 24.3 7.99983 24.3 7.99983Z" stroke="#494A4A" stroke-width="2" stroke-linecap="round" stroke-linejoin="round"/>
<path id="1px" d="M22.2 50.2998C22.2 50.2998 26.1 51.5998 36.2 50.8998M35.0998 6.1001C35.0998 6.1001 34.2998 6.4001 32.7998 6.4001M12 21.9998L2 22.4998M7 16.9998L13 18.9998M9 26.9998L12 25.0998M36.5 22.8998L26.5 37.4998M35.2 29.4998L29.9 37.4998M21.6001 16.2002C21.6001 16.2002 21.6001 14.6002 23.4001 14.2002M52 51.1998C52 51.9998 55.8 52.9998 58.6 51.9998C62.7 50.4998 59.7 44.1998 55.6 47.4998C54.5 48.3998 52 50.6998 52 51.1998ZM47.6 54.4998C47 55.0998 48.1 57.7998 49.7 59.2998C52.1 61.4998 55.5 57.5998 52 55.9998C50.3 55.1998 47.9 54.2998 47.6 54.5998V54.4998ZM48.5 48.5998C48.5 48.5998 48.9 45.6998 49.4 45.0998C51 43.3998 52.9 45.6998 50.9 47.2998C50.4 47.6998 48.7 48.6998 48.4 48.5998H48.5Z" stroke="#494A4A" stroke-linecap="round" stroke-linejoin="round"/>
</g>
</g>
<defs>
<clipPath id="clip0_622_42043">
<rect width="64" height="64" fill="white"/>
</clipPath>
</defs>
</svg>
