<svg width="64" height="64" viewBox="0 0 64 64" fill="none" xmlns="http://www.w3.org/2000/svg">
<g id="Pictogram-apple-waste">
<g id="stroke-default">
<path id="1px" d="M53.1199 27.4899C56.7099 23.9799 59.7999 24.8999 60.2599 26.2199C60.7199 27.5399 57.7999 30.0999 54.4699 29.3499M52.7699 27.2599C53.0799 23.7199 58.0899 20.5199 57.3499 25.0399M15.1995 51.1098C14.6995 51.0298 14.1995 50.9398 13.7295 50.8298M57.9674 38.4998C57.9814 37.4614 57.7265 36.3699 57.1595 35.2898M29.9952 34.4998C31.2487 35.2073 32.4038 35.968 33.4991 36.7439M9.84947 49.5998C9.18703 49.3104 8.5704 48.9928 7.99905 48.651C7.55359 48.3845 7.13565 48.1033 6.74499 47.8094M43.6468 43.4998C44.2738 43.7636 44.9216 43.9927 45.5971 44.1803M17.9991 30.7721C18.6885 30.8397 19.3547 30.9251 19.9991 31.0269M36.9991 39.3476C37.5197 39.7407 38.0359 40.1265 38.5528 40.4998C39.0328 40.8465 39.5135 41.1823 39.9991 41.5031M10.6795 31.0269C11.4065 30.8592 12.18 30.7373 12.9991 30.6669M2.47852 39.3476C2.53372 38.6323 2.68251 37.9279 2.92311 37.2481M4.15764 45.1683C3.77896 44.6275 3.46434 44.0689 3.21286 43.4998M5.4097 33.6176C5.73259 33.332 6.08138 33.0617 6.45578 32.8089C6.89229 32.5142 7.36361 32.2433 7.86931 31.9998M24.8278 32.1936C25.4043 32.3855 25.9607 32.5913 26.4991 32.8089M49.8841 44.7545C50.3956 44.7554 50.9235 44.7344 51.4695 44.6898M54.7586 43.7179C55.3558 43.3811 55.8821 42.9697 56.3268 42.4998M55.9995 33.6698C55.6915 33.2871 55.3574 32.9262 54.9995 32.5898M52.0799 27.5999C53.0799 26.9399 54.9599 29.4499 53.7499 30.2399C52.5399 31.0299 50.7199 28.5299 52.0799 27.5999Z" stroke="#494A4A" stroke-linecap="round" stroke-linejoin="round"/>
<path id="2px" d="M29.3799 12.44C27.2099 6.99005 24.8199 3.44005 20.6599 1.44005C19.0499 0.68005 17.2999 1.05005 14.8499 1.72005M54.8499 52.93C55.8099 52.8 61.5399 48.97 56.5399 55.5201C49.2099 65.0301 39.2099 62.2701 34.2099 62.3301C29.6499 62.3901 13.7799 65.69 8.9299 56.82C7.9999 55.19 8.8399 53.5301 11.0699 54.4701C19.3599 57.9001 29.3099 56.59 35.0699 54.35C41.5899 51.8 47.0599 53.93 54.8499 52.93ZM54.8499 52.93C42.1899 51.18 39.9999 37.1801 39.1099 29.2801C38.7499 26.0801 45.5299 18.08 51.6799 16.74M12.9999 21.21C19.8499 23.39 22.9199 32.39 24.4799 37.43C25.1099 39.43 18.3999 53.77 11.8199 54.67M25.5899 11.85C27.8899 13.41 31.0499 12.85 31.9999 10.71M6.8399 19.16C7.1299 22.42 16.7599 19.84 30.2499 21.16C35.7499 21.69 34.0099 18.16 36.8199 16.99C44.3299 13.75 56.7199 18.62 56.5999 16.5C55.6499 -0.269951 5.6599 6.24005 6.8399 19.16Z" stroke="#494A4A" stroke-width="2" stroke-linecap="round" stroke-linejoin="round"/>
</g>
</g>
</svg>
