<svg width="64" height="64" viewBox="0 0 64 64" fill="none" xmlns="http://www.w3.org/2000/svg">
<g id="Pictogram-invoice-selected" clip-path="url(#clip0_426_2225)">
<g id="stroke-default">
<path id="2px" d="M10.0023 22.0216C9.96457 22.5726 10.3806 23.0499 10.9316 23.0877C11.4826 23.1254 11.9599 22.7094 11.9977 22.1584L10.0023 22.0216ZM14.36 17.38L14.5769 18.3562L14.5786 18.3558L14.36 17.38ZM20.49 16.3L20.7272 17.2714L20.7282 17.2712L20.49 16.3ZM24.75 11.93L25.7246 12.154L25.7254 12.1503L24.75 11.93ZM25.34 6.62999L26.3306 6.76714L26.3306 6.76698L25.34 6.62999ZM30.25 3.98999C30.8023 3.98999 31.25 3.54228 31.25 2.98999C31.25 2.43771 30.8023 1.98999 30.25 1.98999V3.98999ZM52.06 36.25C52.06 36.8023 52.5077 37.25 53.06 37.25C53.6123 37.25 54.06 36.8023 54.06 36.25H52.06ZM52.57 9.43999L51.5743 9.53295L51.5745 9.53425L52.57 9.43999ZM48.08 3.49999L48.1722 2.50425L48.1711 2.50415L48.08 3.49999ZM18.69 8.99999L17.9828 8.29283L17.9744 8.30145L18.69 8.99999ZM11.23 53.61L12.2281 53.6717C12.2297 53.645 12.2303 53.6182 12.2298 53.5914L11.23 53.61ZM15.86 58.61L15.9465 57.6137C15.9227 57.6117 15.8989 57.6105 15.8751 57.6101L15.86 58.61ZM35.6159 60.1093C36.1678 60.0895 36.5992 59.626 36.5794 59.0741C36.5595 58.5222 36.096 58.0908 35.5441 58.1106L35.6159 60.1093ZM39.0297 13.5363C39.4584 13.8844 40.0882 13.8191 40.4363 13.3903C40.7844 12.9616 40.7191 12.3318 40.2903 11.9837L39.0297 13.5363ZM37.66 15.82L37.7187 14.8217L37.7176 14.8217L37.66 15.82ZM36.3617 18.7087C35.8584 18.4813 35.266 18.705 35.0387 19.2083C34.8113 19.7116 35.035 20.3039 35.5383 20.5313L36.3617 18.7087ZM38.98 10.1C38.98 9.54771 38.5323 9.09999 37.98 9.09999C37.4277 9.09999 36.98 9.54771 36.98 10.1H38.98ZM36.98 11.89C36.98 12.4423 37.4277 12.89 37.98 12.89C38.5323 12.89 38.98 12.4423 38.98 11.89H36.98ZM38.98 20.18C38.98 19.6277 38.5323 19.18 37.98 19.18C37.4277 19.18 36.98 19.6277 36.98 20.18H38.98ZM36.98 22C36.98 22.5523 37.4277 23 37.98 23C38.5323 23 38.98 22.5523 38.98 22H36.98ZM50.14 62.64L51.037 62.1981L51.0328 62.1894L51.0284 62.1809L50.14 62.64ZM47.05 55.44L46.0723 55.6501L46.0852 55.7099L46.1052 55.7676L47.05 55.44ZM44.85 54.74L45.5074 55.4935L45.5171 55.4851L45.5265 55.4765L44.85 54.74ZM42.34 57.55L43.1188 58.1773L43.1418 58.1487L43.1627 58.1185L42.34 57.55ZM38.72 56.04L37.7335 56.204L37.7352 56.2139L38.72 56.04ZM40.63 34.13L41.0501 35.0375L41.0504 35.0373L40.63 34.13ZM58.06 47.13L57.2829 47.7594L57.2866 47.7639L58.06 47.13ZM56.7 50.99L56.6545 51.989L56.6827 51.9902L56.711 51.9899L56.7 50.99ZM52.99 51.07L52.9015 50.0739L52.8509 50.0784L52.8011 50.088L52.99 51.07ZM52.08 53.13L52.9645 52.6635L52.9497 52.6354L52.9332 52.6083L52.08 53.13ZM55.5 60.23L56.4141 59.8245L56.4135 59.8232L55.5 60.23ZM11.9977 22.1584C12.0751 21.0288 12.3434 20.1614 12.7608 19.5471C13.162 18.9567 13.738 18.5426 14.5769 18.3562L14.1431 16.4038C12.822 16.6974 11.803 17.3983 11.1067 18.4229C10.4266 19.4236 10.0949 20.6712 10.0023 22.0216L11.9977 22.1584ZM14.5786 18.3558C15.1624 18.225 16.2157 18.0671 17.404 17.8804C18.5564 17.6993 19.8192 17.4932 20.7272 17.2714L20.2528 15.3285C19.4408 15.5268 18.2636 15.7207 17.0935 15.9046C15.9593 16.0829 14.8076 16.2549 14.1414 16.4042L14.5786 18.3558ZM20.7282 17.2712C22.1263 16.9284 23.2457 16.4246 24.0925 15.549C24.9366 14.6763 25.4055 13.5419 25.7246 12.154L23.7754 11.7059C23.4945 12.9281 23.1384 13.6587 22.655 14.1585C22.1743 14.6554 21.4637 15.0316 20.2518 15.3288L20.7282 17.2712ZM25.7254 12.1503C25.9176 11.2994 26.0243 10.2354 26.1053 9.26982C26.1896 8.2639 26.2455 7.38154 26.3306 6.76714L24.3495 6.49284C24.2545 7.17844 24.1904 8.17108 24.1122 9.10266C24.0307 10.0746 23.9324 11.0106 23.7746 11.7097L25.7254 12.1503ZM26.3306 6.76698C26.5139 5.44111 27.7769 3.98999 30.25 3.98999V1.98999C26.9031 1.98999 24.6861 4.05888 24.3494 6.493L26.3306 6.76698ZM54.06 36.25C54.06 26.6258 54.1413 15.4268 53.5655 9.34573L51.5745 9.53425C52.1387 15.4932 52.06 26.5542 52.06 36.25H54.06ZM53.5657 9.34703C53.3754 7.30946 53.052 5.65306 52.2115 4.47531C51.3065 3.20733 49.9449 2.66839 48.1722 2.50425L47.9878 4.49573C49.4551 4.63159 50.1485 5.02765 50.5835 5.63717C51.083 6.33692 51.3846 7.50052 51.5743 9.53295L53.5657 9.34703ZM48.1711 2.50415C43.5271 2.07921 33.9893 1.99999 30.34 1.99999V3.99999C34.0107 3.99999 43.4529 4.08077 47.9889 4.49583L48.1711 2.50415ZM30.34 1.99999C24.565 1.99999 21.3103 4.9655 17.9829 8.29288L19.3971 9.7071C22.6897 6.41448 25.435 3.99999 30.34 3.99999V1.99999ZM17.9744 8.30145C15.9924 10.3318 13.9546 12.1547 12.477 14.358C10.9522 16.6316 10 19.3194 10 23.17H12C12 19.7005 12.8428 17.4034 14.138 15.472C15.4804 13.4703 17.2876 11.8681 19.4056 9.69853L17.9744 8.30145ZM10 23.17C10 26.7624 10.12 47.6995 10.2302 53.6286L12.2298 53.5914C12.12 47.6805 12 26.7575 12 23.17H10ZM10.2319 53.5483C10.1843 54.3191 10.2935 55.0915 10.5529 55.8189L12.4367 55.147C12.2681 54.6744 12.1971 54.1725 12.2281 53.6717L10.2319 53.5483ZM10.5529 55.8189C10.8124 56.5463 11.2167 57.2135 11.7414 57.7801L13.2089 56.4212C12.868 56.0531 12.6053 55.6196 12.4367 55.147L10.5529 55.8189ZM11.7414 57.7801C12.2661 58.3467 12.9003 58.8011 13.6056 59.1156L14.4201 57.2889C13.9619 57.0846 13.5498 56.7894 13.2089 56.4212L11.7414 57.7801ZM13.6056 59.1156C14.311 59.4301 15.0727 59.5982 15.8449 59.6099L15.8751 57.6101C15.3734 57.6025 14.8784 57.4933 14.4201 57.2889L13.6056 59.1156ZM15.7735 59.6062C22.3711 60.1791 28.9977 60.3471 35.6159 60.1093L35.5441 58.1106C29.0075 58.3455 22.4628 58.1795 15.9465 57.6137L15.7735 59.6062ZM40.2903 11.9837C39.2912 11.1724 38.238 10.8518 37.2557 11.0945C36.2961 11.3315 35.6455 12.0484 35.3169 12.8033C34.9917 13.5504 34.9176 14.4748 35.2679 15.2817C35.6473 16.1557 36.4678 16.7529 37.6024 16.8183L37.7176 14.8217C37.2922 14.7971 37.1639 14.6268 37.1024 14.4852C37.0118 14.2765 37.0046 13.9371 37.1506 13.6016C37.2933 13.274 37.5182 13.0897 37.7353 13.0361C37.9295 12.9881 38.3538 12.9876 39.0297 13.5363L40.2903 11.9837ZM37.6013 16.8183C38.7252 16.8844 39.1361 17.7634 38.9936 18.4079C38.9281 18.7041 38.7509 18.931 38.4395 19.0414C38.0996 19.162 37.4404 19.196 36.3617 18.7087L35.5383 20.5313C36.8946 21.144 38.1129 21.2793 39.108 20.9264C40.1316 20.5634 40.7469 19.7422 40.9464 18.8396C41.3339 17.0866 40.1648 14.9656 37.7187 14.8217L37.6013 16.8183ZM36.98 10.1V11.89H38.98V10.1H36.98ZM36.98 20.18V22H38.98V20.18H36.98ZM51.0284 62.1809C49.8497 59.9002 48.8359 57.538 47.9948 55.1124L46.1052 55.7676C46.9776 58.2834 48.0291 60.7336 49.2516 63.0991L51.0284 62.1809ZM48.0277 55.2298C47.9414 54.8285 47.7506 54.4571 47.4747 54.1532L45.994 55.4977C46.0331 55.5407 46.0601 55.5933 46.0723 55.6501L48.0277 55.2298ZM47.4747 54.1532C47.1987 53.8492 46.8473 53.6236 46.4562 53.4992L45.8498 55.405C45.9052 55.4227 45.9549 55.4546 45.994 55.4977L47.4747 54.1532ZM46.4562 53.4992C46.065 53.3747 45.6479 53.3558 45.247 53.4444L45.6785 55.3973C45.7353 55.3847 45.7944 55.3874 45.8498 55.405L46.4562 53.4992ZM45.247 53.4444C44.8462 53.5329 44.4759 53.7258 44.1735 54.0035L45.5265 55.4765C45.5693 55.4371 45.6217 55.4098 45.6785 55.3973L45.247 53.4444ZM44.1926 53.9865C43.18 54.8699 42.2813 55.876 41.5173 56.9815L43.1627 58.1185C43.8323 57.1496 44.6199 56.2678 45.5074 55.4935L44.1926 53.9865ZM41.5612 56.9227C41.3268 57.2137 41.0837 57.4265 40.8707 57.55C40.6554 57.6748 40.5371 57.6727 40.4989 57.666C40.4853 57.6637 40.3785 57.6492 40.2173 57.4062C40.0438 57.1449 39.8467 56.6698 39.7048 55.866L37.7352 56.2139C38.0539 58.0179 38.7846 59.3978 40.1561 59.6364C40.8004 59.7485 41.3984 59.5558 41.8737 59.2803C42.3513 59.0034 42.7732 58.6062 43.1188 58.1773L41.5612 56.9227ZM39.7065 55.876C39.4065 54.0712 38.9107 49.1058 38.9762 44.3788C39.0089 42.013 39.182 39.7592 39.571 38.0095C39.7657 37.1339 40.0054 36.4274 40.2821 35.909C40.5624 35.3839 40.834 35.1375 41.0501 35.0375L40.2099 33.2225C39.4485 33.575 38.9079 34.2361 38.5177 34.9673C38.1239 35.7051 37.8348 36.6036 37.6187 37.5754C37.1861 39.5208 37.0098 41.932 36.9763 44.3511C36.9093 49.1942 37.4135 54.2788 37.7335 56.204L39.7065 55.876ZM41.0504 35.0373C41.1956 34.9701 41.497 34.9233 42.049 35.0638C42.5872 35.2008 43.2487 35.4872 44.0142 35.9187C45.5419 36.7797 47.3255 38.1269 49.1123 39.6508C52.6846 42.6976 56.1124 46.3143 57.2829 47.7594L58.8371 46.5006C57.5776 44.9457 54.0604 41.2424 50.4102 38.1291C48.5858 36.5731 46.6887 35.1303 44.9962 34.1763C44.1514 33.7002 43.3179 33.323 42.5423 33.1256C41.7805 32.9317 40.9494 32.8799 40.2096 33.2226L41.0504 35.0373ZM57.2866 47.7639C58.1763 48.8493 58.0087 49.3542 57.9368 49.4847C57.8178 49.7005 57.4103 49.9821 56.689 49.9901L56.711 51.9899C57.8097 51.9779 59.0822 51.5495 59.6882 50.4503C60.3413 49.2658 59.9437 47.8507 58.8334 46.4961L57.2866 47.7639ZM56.7455 49.991C55.4637 49.9327 54.1795 49.9604 52.9015 50.0739L53.0785 52.0661C54.2674 51.9604 55.4621 51.9347 56.6545 51.989L56.7455 49.991ZM52.8011 50.088C52.425 50.1603 52.0721 50.3227 51.7725 50.5613L53.0183 52.1259C53.0651 52.0886 53.1202 52.0633 53.1789 52.052L52.8011 50.088ZM51.7725 50.5613C51.473 50.7998 51.2357 51.1074 51.0809 51.4577L52.9104 52.2658C52.9345 52.2111 52.9716 52.1631 53.0183 52.1259L51.7725 50.5613ZM51.0809 51.4577C50.9262 51.8079 50.8586 52.1905 50.884 52.5726L52.8796 52.4399C52.8757 52.3802 52.8862 52.3205 52.9104 52.2658L51.0809 51.4577ZM50.884 52.5726C50.9095 52.9547 51.0271 53.3249 51.2268 53.6516L52.9332 52.6083C52.902 52.5573 52.8836 52.4995 52.8796 52.4399L50.884 52.5726ZM51.1955 53.5965C52.4325 55.9419 53.4528 58.091 54.5865 60.6368L56.4135 59.8232C55.2672 57.249 54.2275 55.0581 52.9645 52.6635L51.1955 53.5965ZM54.5859 60.6354C54.493 60.4261 54.5717 60.2759 54.5594 60.3006C54.5434 60.3328 54.4781 60.4319 54.3118 60.5849C53.9861 60.8844 53.458 61.2226 52.8551 61.5036C52.2507 61.7853 51.6582 61.9689 51.225 62.0179C51.0054 62.0428 50.8917 62.0253 50.8582 62.0158C50.8425 62.0113 50.9626 62.0469 51.037 62.1981L49.243 63.0819C49.4849 63.5731 49.9153 63.8271 50.3122 63.9398C50.6914 64.0474 51.0927 64.0457 51.45 64.0052C52.1706 63.9236 52.9793 63.6522 53.6999 63.3164C54.422 62.9799 55.1426 62.538 55.6657 62.057C55.9238 61.8196 56.1828 61.5283 56.3507 61.1901C56.5224 60.8444 56.6445 60.3439 56.4141 59.8245L54.5859 60.6354Z" fill="#494A4A"/>
<path id="1px" d="M14.5195 51.53C14.5195 54.48 14.2995 55.53 20.4595 55.53M21.2495 28.51C22.6695 28.4 30.5595 28.51 31.3095 28.51M21.4295 34.52C22.9495 34.4 26.5695 34.52 27.3695 34.52M21.4295 40.48C22.9495 40.36 26.5695 40.48 27.3695 40.48M41.7095 38.77C41.2386 40.8132 41.0004 42.9032 40.9995 45M34.5895 33.11C35.3695 33.51 35.8995 33.66 36.1095 33.83M35.3495 29.12C35.7895 29.67 37.5895 31.12 37.7995 31.57M40.5195 29.18C40.4785 29.6858 40.4785 30.1942 40.5195 30.7" stroke="#494A4A" stroke-linecap="round" stroke-linejoin="round"/>
</g>
</g>
<defs>
<clipPath id="clip0_426_2225">
<rect width="64" height="64" fill="white"/>
</clipPath>
</defs>
</svg>
