<svg width="64" height="64" viewBox="0 0 64 64" fill="none" xmlns="http://www.w3.org/2000/svg">
<g id="Pictogram-tv">
<g id="stroke-default">
<path id="2px-stroke-default" d="M51.48 53.68C42.72 54.28 20.17 54.24 14.26 53.68C9.00003 53.18 5.25003 50.24 4.40003 44C3.42834 36.0877 2.96073 28.1216 3.00003 20.15C3.12003 13.78 6.49003 11.15 12.87 10.48C25.7749 9.3061 38.734 8.83541 51.69 9.07001C57.93 9.25001 60.69 12.07 61.34 19.07C62.2217 27.3533 62.2217 35.7067 61.34 43.99C60.82 49.22 57.88 53.25 51.48 53.68Z" stroke="#494A4A" stroke-width="2" stroke-miterlimit="10"/>
<path id="1px-stroke-default" d="M42.0001 49.76L42.0264 50.2595L42.0395 50.2584L42.0001 49.76ZM14.8801 49.76L14.8263 50.2571L14.84 50.2586L14.8537 50.2593L14.8801 49.76ZM7.88008 41.84L7.38291 41.8932L7.38317 41.8955L7.88008 41.84ZM6.88008 22.3L6.38011 22.2914L6.38008 22.2979L6.88008 22.3ZM13.8801 14.37L13.8295 13.8724L13.8174 13.8739L13.8801 14.37ZM42.1301 13.23L42.1458 12.7302L42.1404 12.7301L42.1301 13.23ZM49.0201 21.43L48.5217 21.471L48.5222 21.4763L49.0201 21.43ZM49.0201 41.84L48.5222 41.7937L48.5219 41.7968L49.0201 41.84ZM47.1801 9L46.7715 9.28821C46.8679 9.42481 47.0261 9.50422 47.1932 9.49983C47.3603 9.49543 47.5142 9.40782 47.6032 9.26635L47.1801 9ZM44.1887 3.89179C44.0295 3.66614 43.7175 3.61225 43.4919 3.77142C43.2662 3.9306 43.2123 4.24256 43.3715 4.46821L44.1887 3.89179ZM49.9132 5.59635C50.0603 5.36264 49.9901 5.05394 49.7564 4.90685C49.5227 4.75975 49.214 4.82995 49.0669 5.06365L49.9132 5.59635ZM19.7036 54.1876C19.8072 53.9316 19.6836 53.6401 19.4276 53.5365C19.1717 53.4329 18.8802 53.5565 18.7766 53.8124L19.7036 54.1876ZM17.5001 58.3L17.0366 58.1124C17.0338 58.1194 17.0311 58.1264 17.0286 58.1334L17.5001 58.3ZM24.68 54.2753C24.821 54.0378 24.7428 53.7311 24.5053 53.5901C24.2679 53.4491 23.9611 53.5273 23.8202 53.7647L24.68 54.2753ZM45.2339 53.8134C45.1309 53.5572 44.8396 53.4331 44.5835 53.5361C44.3273 53.6392 44.2031 53.9304 44.3062 54.1866L45.2339 53.8134ZM46.5001 58.3L46.9715 58.1334C46.9691 58.1267 46.9666 58.12 46.9639 58.1134L46.5001 58.3ZM40.1771 53.7598C40.0334 53.524 39.7257 53.4493 39.4899 53.593C39.2541 53.7367 39.1794 54.0444 39.3231 54.2802L40.1771 53.7598ZM53.0001 21C52.7239 21 52.5001 21.2239 52.5001 21.5C52.5001 21.7761 52.7239 22 53.0001 22V21ZM57.0001 22C57.2762 22 57.5001 21.7761 57.5001 21.5C57.5001 21.2239 57.2762 21 57.0001 21V22ZM53.2001 24C52.9239 24 52.7001 24.2239 52.7001 24.5C52.7001 24.7761 52.9239 25 53.2001 25V24ZM57.2001 25C57.4762 25 57.7001 24.7761 57.7001 24.5C57.7001 24.2239 57.4762 24 57.2001 24V25ZM53.3001 27C53.0239 27 52.8001 27.2239 52.8001 27.5C52.8001 27.7761 53.0239 28 53.3001 28V27ZM57.3001 28C57.5762 28 57.8001 27.7761 57.8001 27.5C57.8001 27.2239 57.5762 27 57.3001 27V28ZM14.0934 17.4912C14.3647 17.4397 14.5428 17.178 14.4913 16.9067C14.4397 16.6354 14.178 16.4572 13.9067 16.5088L14.0934 17.4912ZM9.50008 21C9.50008 21.2761 9.72394 21.5 10.0001 21.5C10.2762 21.5 10.5001 21.2761 10.5001 21H9.50008ZM34.0063 23.805C34.1747 23.5862 34.1339 23.2723 33.9151 23.1038C33.6963 22.9354 33.3823 22.9762 33.2139 23.195L34.0063 23.805ZM20.8039 39.315C20.6354 39.5338 20.6763 39.8477 20.8951 40.0162C21.1139 40.1846 21.4278 40.1438 21.5963 39.925L20.8039 39.315ZM32.4201 31.0899C32.5858 30.869 32.541 30.5556 32.32 30.3899C32.0991 30.2243 31.7857 30.2691 31.62 30.4901L32.4201 31.0899ZM25 39.3201C24.8344 39.541 24.8792 39.8544 25.1002 40.0201C25.3211 40.1857 25.6345 40.1409 25.8001 39.9199L25 39.3201ZM41.9737 49.2607C32.9576 49.7363 23.9226 49.7363 14.9064 49.2607L14.8537 50.2593C23.905 50.7367 32.9752 50.7367 42.0264 50.2593L41.9737 49.2607ZM14.9339 49.2629C13.1341 49.0682 11.6462 48.405 10.5381 47.2176C9.42623 46.0261 8.65372 44.2605 8.37699 41.7845L7.38317 41.8955C7.67644 44.5195 8.50893 46.5089 9.80703 47.8999C11.109 49.295 12.836 50.0418 14.8263 50.2571L14.9339 49.2629ZM8.37725 41.7868C7.68527 35.3153 7.35237 28.8105 7.38008 22.3021L6.38008 22.2979C6.35222 28.8431 6.68701 35.3849 7.38291 41.8932L8.37725 41.7868ZM7.38001 22.3086C7.42379 19.7691 8.02786 18.0682 9.08808 16.9324C10.1511 15.7936 11.7462 15.1437 13.9428 14.8661L13.8174 13.8739C11.504 14.1663 9.64402 14.8714 8.35708 16.2501C7.0673 17.6318 6.42637 19.6109 6.38015 22.2914L7.38001 22.3086ZM13.9306 14.8674C23.2952 13.9162 32.709 13.5363 42.1198 13.7299L42.1404 12.7301C32.689 12.5357 23.2345 12.9172 13.8296 13.8726L13.9306 14.8674ZM42.1144 13.7298C44.2568 13.797 45.7036 14.3888 46.6883 15.5626C47.694 16.7615 48.2895 18.6494 48.5218 21.471L49.5184 21.389C49.2807 18.5006 48.6612 16.3585 47.4544 14.9199C46.2266 13.4562 44.4633 12.803 42.1458 12.7302L42.1144 13.7298ZM48.5222 21.4763C49.1506 28.2342 49.1506 35.0358 48.5222 41.7937L49.5179 41.8863C50.152 35.0668 50.152 28.2032 49.5179 21.3837L48.5222 21.4763ZM48.5219 41.7968C48.3425 43.8681 47.747 45.6511 46.6897 46.9507C45.6429 48.2374 44.1108 49.0914 41.9606 49.2616L42.0395 50.2584C44.4394 50.0686 46.2322 49.0976 47.4654 47.5818C48.6882 46.0789 49.3277 44.0819 49.5182 41.8832L48.5219 41.7968ZM47.5887 8.71179L44.1887 3.89179L43.3715 4.46821L46.7715 9.28821L47.5887 8.71179ZM47.6032 9.26635L49.9132 5.59635L49.0669 5.06365L46.7569 8.73365L47.6032 9.26635ZM51.1801 3.99C51.1801 4.54228 50.7324 4.99 50.1801 4.99V5.99C51.2846 5.99 52.1801 5.09457 52.1801 3.99H51.1801ZM50.1801 4.99C49.6278 4.99 49.1801 4.54228 49.1801 3.99H48.1801C48.1801 5.09457 49.0755 5.99 50.1801 5.99V4.99ZM49.1801 3.99C49.1801 3.43772 49.6278 2.99 50.1801 2.99V1.99C49.0755 1.99 48.1801 2.88543 48.1801 3.99H49.1801ZM50.1801 2.99C50.7324 2.99 51.1801 3.43772 51.1801 3.99H52.1801C52.1801 2.88543 51.2846 1.99 50.1801 1.99V2.99ZM44.1801 2.5C44.1801 3.32843 43.5085 4 42.6801 4V5C44.0608 5 45.1801 3.88071 45.1801 2.5H44.1801ZM42.6801 4C41.8517 4 41.1801 3.32843 41.1801 2.5H40.1801C40.1801 3.88071 41.2994 5 42.6801 5V4ZM41.1801 2.5C41.1801 1.67157 41.8517 1 42.6801 1V0C41.2994 0 40.1801 1.11929 40.1801 2.5H41.1801ZM42.6801 1C43.5085 1 44.1801 1.67157 44.1801 2.5H45.1801C45.1801 1.11929 44.0608 0 42.6801 0V1ZM18.7766 53.8124L17.0366 58.1124L17.9636 58.4876L19.7036 54.1876L18.7766 53.8124ZM17.0286 58.1334C16.853 58.6304 16.9506 59.0863 17.2419 59.4358C17.5066 59.7536 17.899 59.947 18.2702 60.0615C18.6508 60.1789 19.0672 60.2314 19.4433 60.2273C19.8053 60.2234 20.1943 60.1664 20.4854 60.0112L20.0148 59.1288C19.9308 59.1736 19.7299 59.2241 19.4324 59.2274C19.1492 59.2305 18.8369 59.1898 18.5649 59.106C18.2837 59.0192 18.0998 58.9033 18.0102 58.7957C17.947 58.7199 17.9121 58.6346 17.9715 58.4666L17.0286 58.1334ZM20.4854 60.0112C20.6606 59.9177 20.8371 59.746 20.9883 59.5829C21.1532 59.4051 21.3382 59.1811 21.5327 58.9311C21.9224 58.4301 22.3701 57.7991 22.8017 57.167C23.6646 55.9035 24.4832 54.6068 24.68 54.2753L23.8202 53.7647C23.637 54.0732 22.8306 55.3515 21.9759 56.603C21.5488 57.2284 21.1146 57.8399 20.7434 58.317C20.5574 58.5561 20.3922 58.755 20.2551 58.903C20.1865 58.9769 20.1291 59.0336 20.083 59.0744C20.0334 59.1183 20.0119 59.1304 20.0148 59.1288L20.4854 60.0112ZM44.3062 54.1866L46.0362 58.4866L46.9639 58.1134L45.2339 53.8134L44.3062 54.1866ZM46.0287 58.4666C46.088 58.6346 46.0531 58.7199 45.99 58.7957C45.9004 58.9033 45.7165 59.0192 45.4352 59.106C45.1633 59.1898 44.8509 59.2305 44.5677 59.2274C44.2703 59.2241 44.0693 59.1736 43.9854 59.1288L43.5148 60.0112C43.8058 60.1664 44.1949 60.2234 44.5568 60.2273C44.933 60.2314 45.3494 60.1789 45.7299 60.0615C46.1012 59.947 46.4935 59.7536 46.7583 59.4358C47.0495 59.0863 47.1472 58.6304 46.9715 58.1334L46.0287 58.4666ZM43.9854 59.1288C43.9884 59.1304 43.9669 59.1184 43.9175 59.0746C43.8715 59.0338 43.8142 58.9772 43.7458 58.9033C43.6089 58.7554 43.444 58.5565 43.2585 58.3174C42.888 57.8403 42.4547 57.2288 42.0282 56.6033C41.1755 55.353 40.3677 54.0726 40.1771 53.7598L39.3231 54.2802C39.5225 54.6074 40.3396 55.902 41.202 57.1667C41.633 57.7987 42.0796 58.4297 42.4686 58.9307C42.6627 59.1807 42.8474 59.4048 43.0119 59.5826C43.163 59.7457 43.3394 59.9176 43.5148 60.0112L43.9854 59.1288ZM56.5001 44.5C56.5001 45.6046 55.6046 46.5 54.5001 46.5V47.5C56.1569 47.5 57.5001 46.1569 57.5001 44.5H56.5001ZM54.5001 46.5C53.3955 46.5 52.5001 45.6046 52.5001 44.5H51.5001C51.5001 46.1569 52.8432 47.5 54.5001 47.5V46.5ZM52.5001 44.5C52.5001 43.3954 53.3955 42.5 54.5001 42.5V41.5C52.8432 41.5 51.5001 42.8431 51.5001 44.5H52.5001ZM54.5001 42.5C55.6046 42.5 56.5001 43.3954 56.5001 44.5H57.5001C57.5001 42.8431 56.1569 41.5 54.5001 41.5V42.5ZM53.0001 22H57.0001V21H53.0001V22ZM53.2001 25H57.2001V24H53.2001V25ZM53.3001 28H57.3001V27H53.3001V28ZM13.9067 16.5088C12.7926 16.7205 11.7062 17.3574 10.8983 18.1572C10.099 18.9485 9.50008 19.9737 9.50008 21H10.5001C10.5001 20.3463 10.9011 19.5616 11.6019 18.8678C12.294 18.1826 13.2075 17.6595 14.0934 17.4912L13.9067 16.5088ZM33.2139 23.195L20.8039 39.315L21.5963 39.925L34.0063 23.805L33.2139 23.195ZM31.62 30.4901L25 39.3201L25.8001 39.9199L32.4201 31.0899L31.62 30.4901Z" fill="#494A4A"/>
</g>
</g>
</svg>
