<svg width="64" height="64" viewBox="0 0 64 64" fill="none" xmlns="http://www.w3.org/2000/svg">
<g id="Pictogram-laptop-graph" clip-path="url(#clip0_622_41983)">
<g id="stroke-default">
<path id="2px-stroke-default" d="M8.40012 44.1C6.90012 44.1 6.30012 43 6.10012 41.7C5.10012 34.1 4.70012 20.2 5.20012 14.2C5.50012 11 6.90012 10.1 9.80012 9.79996C19.8001 8.59996 42.5001 8.79996 53.4001 9.39996C57.0001 9.59996 58.2001 10.7 58.7001 14.5C59.3001 20 58.7001 33.7 57.7001 41.3C57.6001 42.4 57.2001 44 55.8001 44M58.3999 44.7996C59.8999 46.1996 61.8999 49.2996 62.5999 50.7996C62.9999 51.4996 62.9999 53.2996 62.9999 53.9996C62.9999 55.6996 62.4999 56.4996 60.6999 56.7996C52.0999 58.4996 10.2999 58.1996 3.09992 56.5996C1.89992 56.2996 1.09992 55.2996 0.999917 53.8996C0.899917 52.7996 0.999917 51.4996 1.09992 50.7996C1.39992 49.8996 3.89992 45.9996 5.29992 44.5996C5.79992 44.1996 7.19992 44.0996 8.49992 43.9996C14.5999 43.7996 45.6999 43.7996 55.0999 43.9996C56.4999 43.9996 57.3999 43.8996 58.2999 44.6996L58.3999 44.7996Z" stroke="#494A4A" stroke-width="2" stroke-linecap="round" stroke-linejoin="round"/>
<path id="1px-stroke-default" d="M55.4998 33.5C55.4998 39.9 55.0998 40.5 52.7998 40.5M8.5 25.5C8.5 30 8.5 31.8 8.6 33.5M2.10007 50.1996C1.40007 51.2996 1.70007 52.1996 3.20007 52.3996C12.9001 53.8996 50.3001 53.9996 60.6001 52.2996C62.1001 52.0996 62.1001 50.7996 61.3001 49.5996M9.5 47.6C10.6 47.6 14 47.4 16.2 47.6M20.2 47.5C22.9 47.6 23.7 47.5 25.3 47.5M29.3 47.5C32 47.6 32.8 47.5 34.4 47.5M38.3 47.5C39.9 47.5 42.6 47.5 43.3 47.5M47.3 47.6C48.9 47.6 53.2 47.6 54.5 47.6M7.5 50.4C9.1 50.5 11.6 50.5 13.6 50.5M50.5 50.5C52.4 50.5 55.1 50.5 56.5 50.5M19.6 53.4C20.1 51.9 20.8 50.7 21.5 50.6C23.9 50.4 39.9 50.4 42.4 50.6C43.2 50.6 44.3 52.6 44.4 53.4M15.1999 29.9004C15.7999 28.9004 23.4999 21.6004 25.9999 21.6004C28.0999 21.6004 32.3999 28.6004 33.9999 28.6004C35.3999 28.6004 41.8999 21.8004 41.7999 21.5004C41.5999 21.0004 39.0999 19.1004 39.6999 18.5004C40.3999 17.6004 48.0999 15.8004 49.1999 16.7004C50.1999 17.6004 48.5999 25.7004 47.6999 26.0004C46.9999 26.3004 44.9999 24.3004 44.4999 24.0004C43.9999 23.7004 36.7999 33.7004 34.0999 33.7004C31.3999 33.7004 27.5999 27.7004 26.1999 27.6004C24.4999 27.6004 16.5999 38.3004 15.3999 37.6004C14.2999 37.0004 14.6999 31.2004 15.3999 29.9004H15.1999Z" stroke="#494A4A" stroke-linecap="round" stroke-linejoin="round"/>
</g>
</g>
<defs>
<clipPath id="clip0_622_41983">
<rect width="64" height="64" fill="white"/>
</clipPath>
</defs>
</svg>
