<svg width="64" height="64" viewBox="0 0 64 64" fill="none" xmlns="http://www.w3.org/2000/svg">
<g id="Pictogram-user-Laptop" clip-path="url(#clip0_622_41993)">
<g id="stroke-default">
<path id="2px-stroke-default" d="M20.1489 34.9635C19.6318 35.1574 19.3698 35.7338 19.5637 36.2509C19.7576 36.768 20.334 37.0301 20.8511 36.8361L20.1489 34.9635ZM27.3 28.2998C27.3 27.7475 26.8523 27.2998 26.3 27.2998C25.7477 27.2998 25.3 27.7475 25.3 28.2998H27.3ZM38.5 28.2998C38.5 27.7475 38.0523 27.2998 37.5 27.2998C36.9477 27.2998 36.5 27.7475 36.5 28.2998H38.5ZM39.1 33.0998L38.3318 33.74L38.3469 33.7581L38.3628 33.7755L39.1 33.0998ZM42.9193 36.7245C43.4299 36.9348 44.0144 36.6912 44.2247 36.1806C44.435 35.6699 44.1914 35.0854 43.6807 34.8751L42.9193 36.7245ZM43 13.4H44H43ZM5 36.3L5.03446 37.2994C5.03962 37.2992 5.04478 37.299 5.04994 37.2988L5 36.3ZM59 36.3L58.9494 37.2987C58.9552 37.299 58.9609 37.2993 58.9667 37.2994L59 36.3ZM59 60L59.9191 60.3939C59.9237 60.3832 59.9281 60.3724 59.9324 60.3615L59 60ZM55 62.5L54.9501 61.5012C54.943 61.5016 54.9359 61.502 54.9288 61.5025L55 62.5ZM9 62.5L9.04668 61.5011C9.03113 61.5004 9.01556 61.5 9 61.5V62.5ZM5 60L4.07289 60.3748C4.07642 60.3835 4.08007 60.3922 4.08384 60.4008L5 60ZM20.8511 36.8361C22.5414 36.2023 24.0779 35.3362 25.3071 34.1069L23.8929 32.6927C22.9221 33.6634 21.6586 34.3973 20.1489 34.9635L20.8511 36.8361ZM25.3071 34.1069C26.657 32.757 27.3 30.7613 27.3 28.2998H25.3C25.3 30.4383 24.743 31.8426 23.8929 32.6927L25.3071 34.1069ZM36.5 28.2998C36.5 30.6173 37.1718 32.348 38.3318 33.74L39.8682 32.4596C39.0282 31.4516 38.5 30.1823 38.5 28.2998H36.5ZM38.3628 33.7755C39.6037 35.1292 41.1556 35.9983 42.9193 36.7245L43.6807 34.8751C42.0444 34.2013 40.7963 33.4704 39.8372 32.4241L38.3628 33.7755ZM32 31C37.9966 31 44 24.5712 44 13.4H42C42 24.0288 36.4034 29 32 29V31ZM44 13.4C44 9.04508 42.911 5.66581 40.7834 3.37024C38.6451 1.06304 35.5968 0 32 0V2C35.2032 2 37.6549 2.93696 39.3166 4.72976C40.989 6.53419 42 9.35492 42 13.4H44ZM32 0C28.4032 0 25.3549 1.06304 23.2166 3.37024C21.089 5.66581 20 9.04508 20 13.4H22C22 9.35492 23.011 6.53419 24.6834 4.72976C26.3451 2.93696 28.7968 2 32 2V0ZM20 13.4C20 24.6758 26.0069 31 32 31V29C27.5931 29 22 24.1242 22 13.4H20ZM2 40.1C2 39.2166 2.23003 38.5702 2.63951 38.1366C3.04433 37.708 3.76065 37.3433 5.03446 37.2994L4.96554 35.3006C3.33935 35.3567 2.05567 35.842 1.18549 36.7634C0.319965 37.6798 0 38.8834 0 40.1H2ZM5.04994 37.2988C13.0169 36.9004 51.0833 36.9004 58.9494 37.2987L59.0506 35.3013C51.1167 34.8996 12.9831 34.8996 4.95006 35.3012L5.04994 37.2988ZM58.9667 37.2994C60.299 37.3439 61.0055 37.7128 61.3912 38.1294C61.7842 38.5538 62 39.1952 62 40.1H64C64 38.9048 63.7158 37.6962 62.8588 36.7706C61.9945 35.8372 60.701 35.3561 59.0333 35.3006L58.9667 37.2994ZM62 40.1C62 41.9442 61.4931 45.6108 60.7313 49.4819C59.9716 53.343 58.9849 57.2729 58.0676 59.6385L59.9324 60.3615C60.9151 57.8271 61.9284 53.757 62.6937 49.8681C63.4569 45.9892 64 42.1558 64 40.1H62ZM58.0809 59.6061C57.6511 60.6088 56.6215 61.4177 54.9501 61.5012L55.0499 63.4988C57.3785 63.3823 59.1489 62.1912 59.9191 60.3939L58.0809 59.6061ZM54.9288 61.5025C45.1855 62.1985 19.7301 62.0003 9.04668 61.5011L8.95332 63.4989C19.6699 63.9997 45.2145 64.2015 55.0712 63.4975L54.9288 61.5025ZM9 61.5C8.15228 61.5 7.52378 61.3107 7.05245 61.0083C6.58284 60.707 6.20079 60.2498 5.91616 59.5992L4.08384 60.4008C4.49921 61.3502 5.11716 62.143 5.97255 62.6917C6.82622 63.2393 7.84772 63.5 9 63.5V61.5ZM5.92711 59.6252C5.01529 57.3697 4.02973 53.4245 3.26903 49.5212C2.50714 45.6118 2 41.8949 2 40.1H0C0 42.1052 0.542865 45.9882 1.30597 49.9038C2.07027 53.8255 3.08471 57.9303 4.07289 60.3748L5.92711 59.6252Z" fill="#494A4A"/>
<path id="1px-stroke-default" d="M7.99976 39.4999C4.09976 39.3999 3.89976 40.0999 4.39976 42.4999M32 53.5C26.3 53.5 24.4 47.5 32 47.5C39.6 47.5 37.7 53.5 32 53.5Z" stroke="#494A4A" stroke-linecap="round" stroke-linejoin="round"/>
</g>
</g>
<defs>
<clipPath id="clip0_622_41993">
<rect width="64" height="64" fill="white"/>
</clipPath>
</defs>
</svg>
