<svg width="64" height="64" viewBox="0 0 64 64" fill="none" xmlns="http://www.w3.org/2000/svg">
<g id="Pictogram-phone-declined">
<g id="stroke-default">
<path id="2px-stroke-default" d="M34.34 61.93C29.0262 62.1749 23.7015 62.0245 18.41 61.48C16.6198 61.1712 14.988 60.2624 13.783 58.9029C12.5781 57.5434 11.8717 55.8143 11.78 54C10.68 42 10.78 20.32 11.78 12C12.47 6.00002 15.14 3.07002 19.47 2.55002C26.1178 1.83977 32.8223 1.83977 39.47 2.55002C43.69 3.11002 46.47 6.00002 47.05 12C47.38 15.45 47.84 23.05 48.05 30.42M63 48.5C63 56.5082 56.5126 63 48.51 63C40.5074 63 34.02 56.5082 34.02 48.5C34.02 40.4919 40.5074 34 48.51 34C56.5126 34 63 40.4919 63 48.5Z" stroke="#494A4A" stroke-width="2" stroke-linecap="round" stroke-linejoin="round"/>
<path id="1px-stroke-default" d="M34.0211 59.4995C34.297 59.4879 34.5113 59.2549 34.4997 58.979C34.4881 58.7031 34.2551 58.4888 33.9792 58.5004L34.0211 59.4995ZM18.6502 58.5899L18.5886 59.0863L18.6026 59.0877L18.6502 58.5899ZM12.1702 51.8499L12.6684 51.8079L12.6677 51.8004L12.1702 51.8499ZM12.1702 13.9999L12.6662 14.0623L12.6663 14.0615L12.1702 13.9999ZM19.6902 5.48993L19.6412 4.99222L19.6304 4.99351L19.6902 5.48993ZM39.2502 5.48993L39.3116 4.99356L39.2991 4.99233L39.2502 5.48993ZM46.6601 13.9999L46.1629 14.0523L46.1629 14.0526L46.6601 13.9999ZM46.9502 29.3563C46.9537 29.6324 47.1804 29.8534 47.4565 29.8499C47.7326 29.8464 47.9536 29.6197 47.9501 29.3436L46.9502 29.3563ZM35.6063 22.3851C35.7748 22.1663 35.734 21.8523 35.5153 21.6838C35.2965 21.5153 34.9826 21.556 34.814 21.7748L35.6063 22.3851ZM22.404 37.8848C22.2355 38.1036 22.2763 38.4175 22.495 38.586C22.7138 38.7546 23.0277 38.7138 23.1963 38.4951L22.404 37.8848ZM34.02 29.6701C34.1858 29.4492 34.1411 29.1358 33.9203 28.97C33.6994 28.8043 33.386 28.8489 33.2203 29.0698L34.02 29.6701ZM26.6003 37.8898C26.4345 38.1106 26.4792 38.4241 26.7 38.5898C26.9209 38.7556 27.2343 38.7109 27.4 38.4901L26.6003 37.8898ZM54.5002 52.2199L54.9943 52.1433L54.9936 52.1392L54.5002 52.2199ZM42.8202 45.3499L42.334 45.4668L42.3341 45.4672L42.8202 45.3499ZM33.9792 58.5004C28.882 58.7141 23.7762 58.5777 18.6977 58.0922L18.6026 59.0877C23.7266 59.5775 28.8782 59.7151 34.0211 59.4995L33.9792 58.5004ZM18.7117 58.0937C17.1362 57.8982 15.6758 57.1669 14.5755 56.0224L13.8546 56.7155C15.1139 58.0253 16.7854 58.8624 18.5886 59.0861L18.7117 58.0937ZM14.5755 56.0224C13.4751 54.8779 12.8018 53.3899 12.6684 51.8079L11.6719 51.8919C11.8246 53.7026 12.5952 55.4056 13.8546 56.7155L14.5755 56.0224ZM12.6677 51.8004C11.5907 40.9803 11.7317 21.4985 12.6662 14.0623L11.6741 13.9376C10.7286 21.4613 10.5896 41.0195 11.6726 51.8995L12.6677 51.8004ZM12.6663 14.0615C12.9933 11.4265 13.7861 9.53645 14.9609 8.24806C16.1297 6.96617 17.7218 6.23029 19.7499 5.98635L19.6304 4.99351C17.4185 5.25957 15.5856 6.07868 14.2219 7.5743C12.8642 9.06341 12.017 11.1733 11.674 13.9384L12.6663 14.0615ZM19.7391 5.98752C26.2108 5.35051 32.7295 5.35051 39.2012 5.98752L39.2991 4.99233C32.7623 4.34891 26.178 4.34891 19.6412 4.99233L19.7391 5.98752ZM39.1887 5.98614C41.1563 6.2297 42.7472 6.9626 43.9171 8.24448C45.0911 9.53092 45.8854 11.4189 46.1629 14.0523L47.1574 13.9475C46.8649 11.1709 46.0142 9.05894 44.6557 7.57038C43.2931 6.07726 41.464 5.26015 39.3116 4.99372L39.1887 5.98614ZM46.1629 14.0526C46.6307 18.4718 46.8803 23.8552 46.9502 29.3563L47.9501 29.3436C47.88 23.8247 47.6296 18.4081 47.1574 13.9473L46.1629 14.0526ZM30.0002 9.01993C30.0002 9.57221 29.5524 10.0199 29.0002 10.0199V11.0199C30.1047 11.0199 31.0002 10.1245 31.0002 9.01993H30.0002ZM29.0002 10.0199C28.4479 10.0199 28.0002 9.57221 28.0002 9.01993H27.0002C27.0002 10.1245 27.8956 11.0199 29.0002 11.0199V10.0199ZM28.0002 9.01993C28.0002 8.46764 28.4479 8.01993 29.0002 8.01993V7.01993C27.8956 7.01993 27.0002 7.91536 27.0002 9.01993H28.0002ZM29.0002 8.01993C29.5524 8.01993 30.0002 8.46764 30.0002 9.01993H31.0002C31.0002 7.91536 30.1047 7.01993 29.0002 7.01993V8.01993ZM34.814 21.7748L22.404 37.8848L23.1963 38.4951L35.6063 22.3851L34.814 21.7748ZM33.2203 29.0698L26.6003 37.8898L27.4 38.4901L34.02 29.6701L33.2203 29.0698ZM54.9936 52.1392C54.9621 51.9465 54.8459 51.7668 54.7644 51.6505C54.6674 51.5119 54.5417 51.3583 54.4047 51.201C54.1305 50.8863 53.7759 50.5167 53.4371 50.1612C53.0923 49.7994 52.7634 49.4518 52.5202 49.1628C52.3981 49.0177 52.3077 48.8993 52.2501 48.8094C52.2213 48.7646 52.2069 48.7364 52.201 48.7228C52.1927 48.7034 52.209 48.7315 52.2101 48.7907L51.2102 48.8092C51.2126 48.9359 51.2511 49.0454 51.2832 49.1198C51.3179 49.1999 51.3624 49.2777 51.4083 49.3493C51.5001 49.4924 51.6222 49.6488 51.7551 49.8067C52.0219 50.1237 52.373 50.4942 52.7132 50.8511C53.0594 51.2144 53.3948 51.5642 53.6506 51.8579C53.7786 52.0048 53.8779 52.1278 53.9452 52.224C54.0282 52.3425 54.0158 52.3559 54.0067 52.3007L54.9936 52.1392ZM52.2101 48.7907C52.2114 48.8623 52.1902 48.9008 52.1958 48.8886C52.1989 48.8817 52.2108 48.8591 52.2395 48.8186C52.297 48.7374 52.3903 48.6284 52.5205 48.4923C52.7797 48.2213 53.1332 47.8961 53.5108 47.5495C53.8812 47.2094 54.2735 46.8499 54.5858 46.5286C54.7422 46.3678 54.887 46.208 55.0027 46.0578C55.11 45.9185 55.2272 45.744 55.2807 45.5582L54.3196 45.2817C54.3206 45.2784 54.3015 45.3294 54.2106 45.4474C54.1281 45.5545 54.0128 45.6834 53.8688 45.8316C53.5805 46.1281 53.2116 46.4667 52.8345 46.8129C52.4646 47.1525 52.0843 47.5016 51.7979 47.801C51.6553 47.9501 51.5229 48.1002 51.4234 48.2406C51.3736 48.3109 51.3242 48.3897 51.286 48.4734C51.2502 48.5518 51.2077 48.67 51.2102 48.8092L52.2101 48.7907ZM55.2807 45.5582C55.3502 45.3165 55.2949 45.0825 55.2299 44.9116C55.1615 44.7318 55.0559 44.5528 54.9388 44.3858C54.7035 44.0503 54.3753 43.6974 54.0409 43.3839C53.7049 43.0689 53.3449 42.777 53.035 42.5665C52.8814 42.4621 52.7281 42.3696 52.5887 42.3048C52.5193 42.2725 52.441 42.2412 52.3594 42.2209C52.2877 42.203 52.1605 42.1795 52.0189 42.2149L52.2614 43.185C52.2112 43.1976 52.1718 43.1971 52.1518 43.1959C52.1309 43.1945 52.1185 43.1914 52.1171 43.1911C52.1156 43.1907 52.1311 43.1948 52.1671 43.2116C52.2385 43.2447 52.3422 43.3047 52.4731 43.3937C52.7323 43.5697 53.0517 43.8272 53.3569 44.1134C53.6638 44.4012 53.9387 44.7014 54.12 44.96C54.2112 45.09 54.2672 45.1933 54.2952 45.2671C54.3267 45.3499 54.3026 45.3408 54.3196 45.2817L55.2807 45.5582ZM52.0189 42.2149C51.9179 42.2401 51.8321 42.289 51.7818 42.3197C51.7223 42.356 51.6608 42.3995 51.6008 42.4448C51.4805 42.5356 51.3396 42.6538 51.1898 42.7842C50.8917 43.0437 50.5206 43.3852 50.1598 43.7092C49.792 44.0395 49.4294 44.3569 49.1248 44.5921C48.9719 44.7101 48.8441 44.7992 48.7447 44.8574C48.6244 44.9277 48.6108 44.9132 48.6656 44.9105L48.7147 45.9093C48.922 45.8991 49.1181 45.7974 49.2495 45.7206C49.4019 45.6315 49.5679 45.5133 49.7359 45.3837C50.0728 45.1236 50.4596 44.7841 50.828 44.4532C51.2035 44.116 51.5555 43.7918 51.8464 43.5385C51.9912 43.4124 52.1113 43.3124 52.2034 43.2429C52.2496 43.208 52.2821 43.1859 52.3026 43.1734C52.3322 43.1553 52.3124 43.1722 52.2614 43.185L52.0189 42.2149ZM48.6656 44.9105C48.7598 44.9059 48.7755 44.9461 48.66 44.8722C48.5709 44.8152 48.4528 44.7224 48.3072 44.5933C48.0173 44.3362 47.6731 43.9847 47.3142 43.6144C46.9627 43.2518 46.5961 42.8702 46.2821 42.5794C46.1254 42.4342 45.9694 42.2999 45.8255 42.198C45.7534 42.147 45.6749 42.0973 45.5934 42.0579C45.5172 42.0212 45.4062 41.9775 45.2764 41.9706L45.2239 42.9692C45.1653 42.9662 45.1388 42.9489 45.1587 42.9585C45.1732 42.9655 45.2022 42.982 45.2477 43.0142C45.3389 43.0787 45.4577 43.1788 45.6025 43.313C45.8917 43.5809 46.2351 43.938 46.5961 44.3104C46.9497 44.6752 47.3205 45.0549 47.6437 45.3415C47.8047 45.4843 47.9677 45.6165 48.1212 45.7147C48.2482 45.7959 48.468 45.9215 48.7147 45.9093L48.6656 44.9105ZM45.2764 41.9706C45.068 41.9596 44.8749 42.0416 44.7458 42.1079C44.5996 42.183 44.4474 42.2855 44.2987 42.3996C44.0001 42.629 43.6739 42.9382 43.3778 43.2688C43.0824 43.5984 42.8016 43.9662 42.604 44.3169C42.5052 44.4921 42.4198 44.6759 42.3667 44.858C42.3152 45.0343 42.2818 45.2498 42.334 45.4668L43.3063 45.233C43.311 45.2525 43.3001 45.229 43.3266 45.1383C43.3514 45.0533 43.3995 44.9421 43.4751 44.8079C43.6262 44.5399 43.8579 44.2315 44.1225 43.9361C44.3864 43.6416 44.6678 43.3771 44.9078 43.1927C45.0285 43.1 45.1285 43.0356 45.2028 42.9974C45.2941 42.9505 45.2898 42.9727 45.2239 42.9692L45.2764 41.9706ZM42.3341 45.4672C42.3751 45.6372 42.4776 45.8008 42.5614 45.9219C42.6558 46.0581 42.7756 46.2079 42.9056 46.3609C43.1657 46.6671 43.4959 47.0206 43.8094 47.357C44.1284 47.6994 44.4294 48.0233 44.6497 48.2873C44.7605 48.4201 44.8404 48.5253 44.8895 48.6019C44.9142 48.6404 44.9239 48.6605 44.9259 48.6653C44.9318 48.6792 44.9068 48.6308 44.9107 48.5467L45.9096 48.5932C45.916 48.4553 45.874 48.3393 45.8459 48.2732C45.8138 48.1981 45.7724 48.1261 45.7312 48.0619C45.6485 47.9331 45.5376 47.7905 45.4175 47.6466C45.176 47.3572 44.8544 47.0117 44.541 46.6753C44.2219 46.333 43.9097 45.9984 43.6678 45.7136C43.5469 45.5712 43.4509 45.4498 43.3835 45.3524C43.3055 45.2399 43.3002 45.2076 43.3062 45.2326L42.3341 45.4672ZM44.9107 48.5467C44.9146 48.4618 44.9445 48.4167 44.934 48.4363C44.9293 48.4452 44.9149 48.4689 44.8842 48.5101C44.823 48.5917 44.7277 48.7015 44.5998 48.8379C44.3447 49.1099 44.0042 49.4414 43.6466 49.7939C43.2955 50.14 42.9294 50.5051 42.6452 50.8259C42.5035 50.986 42.3728 51.1453 42.2722 51.2932C42.1843 51.4225 42.0702 51.6113 42.0441 51.8169L43.0362 51.9429C43.0301 51.991 43.0201 51.9717 43.099 51.8557C43.1653 51.7583 43.2643 51.6351 43.3938 51.4889C43.6522 51.1972 43.9948 50.8549 44.3487 50.506C44.6961 50.1635 45.0568 49.8125 45.3292 49.5219C45.4651 49.3771 45.5901 49.2356 45.6846 49.1095C45.7316 49.0467 45.7789 48.9774 45.817 48.9058C45.8493 48.8449 45.9032 48.7318 45.9096 48.5932L44.9107 48.5467ZM42.0441 51.8169C42.0172 52.0295 42.0844 52.236 42.145 52.3813C42.2125 52.5432 42.3086 52.7136 42.4176 52.881C42.6364 53.2169 42.9362 53.5843 43.255 53.913C43.5713 54.2392 43.9275 54.5493 44.2648 54.7541C44.4319 54.8557 44.6187 54.9465 44.8104 54.9899C45.0007 55.0329 45.2582 55.0417 45.4929 54.889L44.9474 54.0509C45.0246 54.0006 45.0777 54.025 45.0312 54.0145C44.9862 54.0043 44.9038 53.9723 44.784 53.8995C44.5471 53.7556 44.2578 53.5107 43.9728 53.2168C43.6904 52.9256 43.4332 52.608 43.2555 52.3351C43.1662 52.1981 43.1042 52.0833 43.068 51.9965C43.025 51.8933 43.0432 51.8879 43.0362 51.9429L42.0441 51.8169ZM45.4929 54.889C45.6913 54.7599 45.9831 54.5028 46.2825 54.2302C46.5789 53.9603 46.967 53.5962 47.2975 53.2939C47.6469 52.9745 47.9781 52.6812 48.2444 52.4737C48.3787 52.369 48.4832 52.2968 48.5568 52.2549C48.5938 52.2338 48.6104 52.2277 48.61 52.2279C48.6091 52.2282 48.5974 52.2322 48.5771 52.2351C48.5574 52.238 48.5193 52.2415 48.4698 52.2334L48.6305 51.2464C48.4858 51.2229 48.3602 51.2565 48.2876 51.2812C48.2065 51.3089 48.1295 51.3474 48.0621 51.3858C47.9268 51.4628 47.7785 51.569 47.6297 51.6849C47.3297 51.9187 46.9734 52.2354 46.6228 52.5559C46.2533 52.8937 45.9289 53.1996 45.6091 53.4909C45.2922 53.7795 45.064 53.975 44.9474 54.0509L45.4929 54.889ZM48.4698 52.2334C48.4067 52.2232 48.376 52.2011 48.391 52.2099C48.3996 52.215 48.4206 52.229 48.4559 52.2576C48.5265 52.3149 48.6202 52.4025 48.7373 52.5206C48.9729 52.7582 49.2528 53.0668 49.5678 53.403C49.875 53.7309 50.2092 54.0779 50.5277 54.36C50.8261 54.6243 51.1825 54.899 51.53 54.9927L51.7903 54.0272C51.6928 54.0009 51.4917 53.878 51.1908 53.6114C50.9099 53.3626 50.6028 53.0452 50.2975 52.7193C50 52.4018 49.6961 52.0673 49.4474 51.8164C49.3223 51.6903 49.1986 51.5724 49.0856 51.4808C49.029 51.4349 48.9666 51.3887 48.9013 51.3499C48.8424 51.315 48.7473 51.2654 48.6305 51.2464L48.4698 52.2334ZM51.53 54.9927C51.9401 55.1033 52.3792 54.951 52.7163 54.7818C53.0794 54.5995 53.4497 54.333 53.7756 54.0499C54.1021 53.7662 54.4032 53.4491 54.6217 53.1532C54.7305 53.006 54.8278 52.8519 54.8962 52.7004C54.9579 52.5636 55.028 52.3607 54.9942 52.1433L54.0061 52.2966C53.9948 52.2242 54.0208 52.2091 53.9847 52.289C53.9553 52.3542 53.9011 52.4457 53.8173 52.5591C53.6509 52.7845 53.4032 53.0487 53.1197 53.295C52.8356 53.5418 52.5347 53.7541 52.2677 53.8881C51.9748 54.0351 51.8252 54.0366 51.7903 54.0272L51.53 54.9927Z" fill="#494A4A"/>
</g>
</g>
</svg>
