<svg width="64" height="64" viewBox="0 0 64 64" fill="none" xmlns="http://www.w3.org/2000/svg">
<g id="Pictogram-user-search" clip-path="url(#clip0_622_42002)">
<g id="stroke-default">
<path id="2px" d="M27.6 23.2C27.6 22.6477 27.1523 22.2 26.6 22.2C26.0477 22.2 25.6 22.6477 25.6 23.2H27.6ZM33.5 28.5L34.1139 27.7106L34.1043 27.7031L34.0944 27.6958L33.5 28.5ZM14.7 28.4L15.2145 29.2575L15.2349 29.2452L15.2547 29.232L14.7 28.4ZM22.4 23.2C22.4 22.6477 21.9523 22.2 21.4 22.2C20.8477 22.2 20.4 22.6477 20.4 23.2H22.4ZM39.5173 41.2032C39.1325 40.8071 38.4994 40.7979 38.1032 41.1827C37.7071 41.5675 37.6979 42.2006 38.0827 42.5968L39.5173 41.2032ZM41.4827 46.0968C41.8675 46.4929 42.5006 46.5021 42.8968 46.1173C43.2929 45.7325 43.3021 45.0994 42.9173 44.7032L41.4827 46.0968ZM42.2877 38.274C41.8868 37.8942 41.2539 37.9113 40.874 38.3123C40.4942 38.7132 40.5113 39.3461 40.9123 39.726L42.2877 38.274ZM44.7123 43.326C45.1132 43.7058 45.7461 43.6887 46.126 43.2877C46.5058 42.8868 46.4887 42.2539 46.0877 41.8741L44.7123 43.326ZM41.6 47.3L42.5138 46.8939C42.464 46.7817 42.3939 46.6797 42.3071 46.5929L41.6 47.3ZM52.3 61.6L51.6054 62.3194C51.6108 62.3246 51.6162 62.3297 51.6217 62.3348L52.3 61.6ZM57.2 62.8L56.8729 61.855C56.858 61.8602 56.8432 61.8657 56.8286 61.8715L57.2 62.8ZM62.6 57.3L61.6753 56.9193C61.6731 56.9247 61.6709 56.9301 61.6688 56.9356L62.6 57.3ZM61.5 53L62.2761 52.3694L62.274 52.3668L61.5 53ZM47.5 42.3L47.0528 43.1945L47.0625 43.1992L47.5 42.3ZM41.5 47.2L40.5938 47.6229C40.6431 47.7285 40.7105 47.8247 40.7929 47.9071L41.5 47.2ZM25.6 23.2C25.6 24.4487 25.9484 25.435 26.5863 26.2009C27.2043 26.9429 28.0238 27.3922 28.8092 27.7132C29.5695 28.0239 30.4543 28.2698 31.1389 28.4952C31.8789 28.7388 32.4672 28.9801 32.9056 29.3042L34.0944 27.6958C33.3828 27.1699 32.5336 26.8487 31.7642 26.5955C30.9395 26.3239 30.243 26.1386 29.5658 25.8618C28.9137 25.5953 28.4395 25.3008 28.1231 24.921C27.8266 24.565 27.6 24.0513 27.6 23.2H25.6ZM32.8861 29.2894C32.9254 29.32 33.0497 29.4565 33.209 29.7956C33.3576 30.1118 33.4983 30.521 33.6195 30.9885C33.8628 31.9269 34 32.9924 34 33.8H36C36 32.8076 35.8372 31.5731 35.5555 30.4865C35.4142 29.9415 35.2362 29.4069 35.0191 28.945C34.8128 28.5059 34.5246 28.03 34.1139 27.7106L32.8861 29.2894ZM34 33.8C34 33.6342 34.0865 33.5626 34.0515 33.5971C34.0076 33.6402 33.8889 33.7291 33.6428 33.8403C33.1545 34.061 32.3913 34.2703 31.3894 34.4463C29.4041 34.7953 26.7166 34.975 24 34.975C21.2834 34.975 18.5959 34.7953 16.6106 34.4463C15.6087 34.2703 14.8455 34.061 14.3572 33.8403C14.1111 33.7291 13.9924 33.6402 13.9485 33.5971C13.9135 33.5626 14 33.6342 14 33.8H12C12 34.3283 12.2584 34.7398 12.5456 35.0225C12.824 35.2965 13.1779 35.5021 13.5335 35.6628C14.2482 35.9859 15.2038 36.2297 16.2644 36.4162C18.4041 36.7922 21.2166 36.975 24 36.975C26.7834 36.975 29.5959 36.7922 31.7356 36.4162C32.7962 36.2297 33.7518 35.9859 34.4665 35.6628C34.8221 35.5021 35.176 35.2965 35.4544 35.0225C35.7416 34.7398 36 34.3283 36 33.8H34ZM14 33.8C14 32.9523 14.1593 31.8459 14.4356 30.8903C14.5733 30.4141 14.7313 30.0063 14.8945 29.701C14.9755 29.5493 15.0503 29.4373 15.1139 29.3594C15.1793 29.2795 15.2158 29.2567 15.2145 29.2575L14.1855 27.5425C13.7034 27.8317 13.3665 28.3168 13.1305 28.7584C12.8812 29.2249 12.6767 29.7734 12.5144 30.3347C12.1907 31.4541 12 32.7477 12 33.8H14ZM15.2547 29.232C15.7371 28.9104 16.3475 28.6695 17.0792 28.4225C17.7679 28.19 18.6099 27.9395 19.3499 27.6165C20.1071 27.2861 20.8863 26.8301 21.4711 26.1002C22.0731 25.3488 22.4 24.3944 22.4 23.2H20.4C20.4 24.0056 20.1894 24.5012 19.9102 24.8498C19.6137 25.2199 19.1679 25.5139 18.5501 25.7835C17.9151 26.0605 17.2321 26.26 16.4396 26.5275C15.69 26.7805 14.8629 27.0896 14.1453 27.5679L15.2547 29.232ZM30 16.6C30 14.5452 29.486 12.8643 28.3939 11.693C27.2916 10.5109 25.7432 10 24 10V12C25.3568 12 26.3084 12.3891 26.9311 13.057C27.564 13.7357 28 14.8548 28 16.6H30ZM24 10C22.2568 10 20.7084 10.5109 19.6061 11.693C18.514 12.8643 18 14.5452 18 16.6H20C20 14.8548 20.436 13.7357 21.0689 13.057C21.6916 12.3891 22.6432 12 24 12V10ZM18 16.6C18 21.77 20.8025 25.1 24 25.1V23.1C22.3975 23.1 20 21.23 20 16.6H18ZM24 25.1C27.1898 25.1 30 21.8802 30 16.6H28C28 21.3198 25.6102 23.1 24 23.1V25.1ZM46 24C46 36.1503 36.1503 46 24 46V48C37.2548 48 48 37.2548 48 24H46ZM24 46C11.8497 46 2 36.1503 2 24H0C0 37.2548 10.7452 48 24 48V46ZM2 24C2 11.8497 11.8497 2 24 2V0C10.7452 0 0 10.7452 0 24H2ZM24 2C36.1503 2 46 11.8497 46 24H48C48 10.7452 37.2548 0 24 0V2ZM38.0827 42.5968L41.4827 46.0968L42.9173 44.7032L39.5173 41.2032L38.0827 42.5968ZM40.9123 39.726L44.7123 43.326L46.0877 41.8741L42.2877 38.274L40.9123 39.726ZM40.6862 47.7061C41.737 50.0704 43.7483 53.0231 45.8219 55.6999C47.9042 58.3879 50.1112 60.8767 51.6054 62.3194L52.9946 60.8806C51.5888 59.5233 49.4458 57.1121 47.403 54.4751C45.3517 51.8269 43.463 49.0296 42.5138 46.8939L40.6862 47.7061ZM51.6217 62.3348C52.4006 63.0538 53.4007 63.5799 54.426 63.8435C55.4453 64.1056 56.5723 64.1281 57.5714 63.7285L56.8286 61.8715C56.3277 62.0719 55.6547 62.0944 54.924 61.9065C54.1993 61.7201 53.4994 61.3462 52.9783 60.8652L51.6217 62.3348ZM57.5271 63.745C60.473 62.7252 62.5545 60.1605 63.5312 57.6644L61.6688 56.9356C60.8455 59.0395 59.127 61.0747 56.8729 61.855L57.5271 63.745ZM63.5247 57.6807C63.9405 56.6709 64.0387 55.7556 63.7573 54.8235C63.4954 53.956 62.9295 53.1735 62.2761 52.3694L60.7239 53.6306C61.3706 54.4265 61.7046 54.944 61.8427 55.4015C61.9613 55.7944 61.9595 56.2291 61.6753 56.9193L63.5247 57.6807ZM62.274 52.3668C60.8443 50.6194 58.1887 48.3353 55.4774 46.2893C52.759 44.238 49.8738 42.3428 47.9375 41.4008L47.0625 43.1992C48.8262 44.0572 51.591 45.862 54.2726 47.8857C56.9613 49.9147 59.4557 52.0806 60.726 53.6332L62.274 52.3668ZM47.9472 41.4056C47.0501 40.957 46.0303 41.1797 45.2367 41.5093C44.3993 41.8571 43.5557 42.4283 42.8315 43.0577C42.1071 43.6874 41.4484 44.4221 41.0089 45.1374C40.7899 45.4939 40.603 45.8814 40.5046 46.2754C40.4079 46.6626 40.374 47.1519 40.5938 47.6229L42.4062 46.7771C42.451 46.8731 42.4109 46.8968 42.445 46.7601C42.4774 46.6303 42.5586 46.4357 42.713 46.1844C43.0203 45.6842 43.5304 45.1001 44.1435 44.5673C44.7568 44.0342 45.4194 43.5991 46.0039 43.3563C46.6323 43.0953 46.9499 43.143 47.0528 43.1944L47.9472 41.4056ZM40.7929 47.9071L40.8929 48.0071L42.3071 46.5929L42.2071 46.4929L40.7929 47.9071Z" fill="#494A4A"/>
<path id="1px" d="M6.29976 29.3001C3.39976 17.9001 10.1998 8.1001 20.1998 5.6001M37.5998 36.7001C34.3998 40.3001 28.8998 42.4001 24.1998 42.8001M48.6998 10.5001L53.5998 8.8001M49.7998 5.7001L47.1998 8.3001M51.1998 13.4001L49.1998 13.0001" stroke="#494A4A" stroke-linecap="round" stroke-linejoin="round"/>
</g>
</g>
<defs>
<clipPath id="clip0_622_42002">
<rect width="64" height="64" fill="white"/>
</clipPath>
</defs>
</svg>
