<svg width="65" height="65" viewBox="0 0 65 65" fill="none" xmlns="http://www.w3.org/2000/svg">
<g id="Pictogram-target" clip-path="url(#clip0_426_417)">
<g id="stroke-default">
<path id="2px" d="M50.0861 18.2992C52.2082 22.2066 53.2928 26.593 53.2361 31.0392C53.2361 44.2892 43.6461 54.0392 29.2361 55.0392C16.0161 55.9392 5.23608 44.2892 5.23608 31.0392C5.23608 17.7892 14.4661 7.03918 29.2361 7.03918C36.0061 7.03918 41.4661 9.12918 45.4661 12.5892M14.9661 51.0392C13.9661 52.4392 10.1361 60.6592 10.3261 61.5692C10.5161 62.4792 14.6961 63.3192 15.8061 62.8592C17.4161 62.2192 19.2361 55.4592 20.2361 54.0392M41.2361 52.1892C41.9161 55.6892 43.5561 62.3392 44.4361 62.7392C45.2984 63.0157 46.2096 63.1062 47.1094 63.0044C48.0092 62.9027 48.8773 62.6112 49.6561 62.1492C50.4061 61.5792 46.9761 53.5492 44.8361 49.2692M27.6861 55.0892C27.3861 56.0892 27.0061 58.2492 27.2961 58.7692C27.4961 59.1092 32.0061 59.1092 32.2361 58.7692C32.4661 58.4292 32.1461 56.0292 31.7661 54.9192M29.2361 30.7092C36.8661 26.2992 53.9061 9.27918 61.9361 4.57918M58.2361 14.0392C57.4046 14.8202 56.4772 15.4923 55.4761 16.0392C54.2661 16.3992 51.3861 14.8392 50.0161 14.5592M49.7561 13.9092C49.7561 13.3492 49.0161 9.52918 49.3661 8.36918C49.7161 7.20918 52.6261 5.36918 53.2361 4.81918C53.8461 4.26918 57.5961 0.569182 58.2961 1.08918C58.7761 1.44918 57.8661 6.56918 58.2961 7.08918C58.7261 7.60918 63.2961 8.19918 63.2961 9.01918C63.2961 9.37918 62.1861 10.5592 60.7961 11.8692" stroke="#494A4A" stroke-width="2" stroke-linecap="round" stroke-linejoin="round"/>
<path id="1px" d="M44.3561 22.1493C45.9474 24.8411 46.7834 27.9122 46.7761 31.0393C46.7761 40.7293 39.8661 49.3293 29.2361 48.5793C19.5761 47.8993 11.6961 40.7293 11.6961 31.0393C11.6961 18.5093 19.5461 13.4993 29.2361 13.4993C33.5771 13.5041 37.7613 15.1222 40.9761 18.0393M39.2361 26.4993C39.8747 27.9324 40.241 29.472 40.3161 31.0393C40.7061 37.7093 35.3161 42.1193 29.2361 42.1193C26.2975 42.1193 23.4792 40.9519 21.4013 38.874C19.3234 36.7961 18.1561 33.9779 18.1561 31.0393C18.1561 23.2493 23.1561 19.9593 29.2361 19.9593C31.7298 19.9487 34.1477 20.816 36.0661 22.4093M33.8561 31.0393C33.5461 33.5693 31.7861 35.6593 29.2361 35.6593C28.0108 35.6593 26.8357 35.1725 25.9693 34.3061C25.1028 33.4397 24.6161 32.2646 24.6161 31.0393C24.5731 30.4215 24.6632 29.8017 24.8801 29.2217C25.0971 28.6417 25.436 28.1149 25.8739 27.677C26.3118 27.2392 26.8385 26.9003 27.4185 26.6833C27.9985 26.4663 28.6183 26.3763 29.2361 26.4193C29.7613 26.4191 30.2836 26.4966 30.7861 26.6493M14.9661 14.0393C13.4885 15.3439 12.2292 16.8766 11.2361 18.5793M25.7261 45.5393C27.3011 46.2951 29.042 46.6391 30.7861 46.5393M60.8661 12.3093C59.1348 12.6963 57.3327 12.6274 55.6361 12.1093M47.2161 4.06925L43.9461 1.35925M43.2061 5.61925L45.9561 6.65925M48.6461 0.359253L49.4361 2.14925" stroke="#494A4A" stroke-linecap="round" stroke-linejoin="round"/>
</g>
</g>
<defs>
<clipPath id="clip0_426_417">
<rect width="64" height="64" fill="white" transform="translate(0.236084 0.0393066)"/>
</clipPath>
</defs>
</svg>
