<svg width="64" height="64" viewBox="0 0 64 64" fill="none" xmlns="http://www.w3.org/2000/svg">
<g id="Pictogram-rocket">
<g id="stroke-default">
<path id="2px" d="M44.1301 32.1301C44.0001 42.1501 56.3701 47.0001 55.1901 49.6601C54.5201 51.1701 43.8701 49.5901 40.9801 47.7601M22.6301 47.7601C19.7401 49.5901 9.09008 51.1701 8.42008 49.6601C7.25008 47.0001 19.7501 42.1501 19.5801 32.1301M35.0001 53.6801C34.8201 57.4301 32.5801 63.0001 31.6301 63.0001C30.6801 63.0001 27.6301 56.0701 27.6801 53.5801C27.6801 52.9601 29.8001 53.5801 31.3001 53.5801C33.3601 53.5401 35.0001 52.8701 35.0001 53.6801ZM40.2301 49.3501C37.5801 50.7701 26.0801 50.7401 23.4401 49.3501C13.9401 30.4101 23.9901 1.06006 31.8401 1.06006C40.0001 1.06006 49.7301 30.3801 40.2301 49.3501ZM31.6301 23.0901C32.619 23.0901 33.5857 23.3833 34.4079 23.9327C35.2302 24.4821 35.871 25.263 36.2495 26.1766C36.6279 27.0903 36.7269 28.0956 36.534 29.0655C36.3411 30.0354 35.8649 30.9263 35.1656 31.6256C34.4664 32.3249 33.5754 32.8011 32.6055 32.994C31.6356 33.1869 30.6303 33.0879 29.7167 32.7095C28.803 32.331 28.0221 31.6902 27.4727 30.8679C26.9233 30.0457 26.6301 29.079 26.6301 28.0901C26.6301 26.764 27.1569 25.4922 28.0945 24.5545C29.0322 23.6168 30.304 23.0901 31.6301 23.0901ZM31.4101 36.7201C31.9663 36.7201 32.51 36.8851 32.9723 37.1943C33.4346 37.5035 33.7947 37.943 34.0071 38.457C34.2195 38.9711 34.2746 39.5366 34.1653 40.082C34.0561 40.6273 33.7875 41.128 33.3935 41.5206C32.9995 41.9131 32.4979 42.18 31.9521 42.2873C31.4064 42.3946 30.8411 42.3375 30.3278 42.1233C29.8145 41.9091 29.3763 41.5473 29.0688 41.0839C28.7612 40.6205 28.5981 40.0762 28.6001 39.5201C28.6001 39.1515 28.6728 38.7866 28.8142 38.4462C28.9555 38.1059 29.1626 37.7967 29.4237 37.5366C29.6848 37.2765 29.9946 37.0704 30.3355 36.9303C30.6764 36.7902 31.0415 36.7187 31.4101 36.7201Z" stroke="#494A4A" stroke-width="2" stroke-linecap="round" stroke-linejoin="round"/>
<path id="1px" d="M10.6 53.87C10.2296 56.7242 10.0825 59.6029 10.16 62.48M7.40003 53.07C7.18422 54.3064 7.0506 55.5558 7.00003 56.81M53.76 53.38C54.2269 55.7538 54.4348 58.1713 54.38 60.59M57.09 55.76C57.2211 56.5898 57.2614 57.4314 57.21 58.27M56 19.76L56.68 21.76C56.7079 21.8427 56.7552 21.9176 56.8178 21.9784C56.8804 22.0393 56.9565 22.0844 57.04 22.11L59.04 22.8C59.1506 22.8377 59.2466 22.9091 59.3146 23.0041C59.3826 23.0992 59.4192 23.2131 59.4192 23.33C59.4192 23.4468 59.3826 23.5608 59.3146 23.6558C59.2466 23.7508 59.1506 23.8222 59.04 23.86L57.04 24.54C56.9566 24.5686 56.8808 24.616 56.8184 24.6784C56.756 24.7407 56.7087 24.8165 56.68 24.9L56 27C55.9598 27.1095 55.8869 27.204 55.7912 27.2708C55.6955 27.3375 55.5817 27.3733 55.465 27.3733C55.3484 27.3733 55.2345 27.3375 55.1388 27.2708C55.0432 27.204 54.9703 27.1095 54.93 27L54.23 25C54.2044 24.9165 54.1594 24.8403 54.0985 24.7777C54.0376 24.7151 53.9628 24.6679 53.88 24.64L51.83 23.96C51.7194 23.9222 51.6234 23.8508 51.5554 23.7558C51.4874 23.6608 51.4509 23.5468 51.4509 23.43C51.4509 23.3131 51.4874 23.1992 51.5554 23.1041C51.6234 23.0091 51.7194 22.9377 51.83 22.9L53.88 22.21C53.9633 22.1861 54.0391 22.1415 54.1003 22.0803C54.1616 22.019 54.2062 21.9432 54.23 21.86L54.91 19.86C54.9335 19.7388 54.9957 19.6286 55.0872 19.5459C55.1787 19.4631 55.2946 19.4123 55.4175 19.401C55.5404 19.3897 55.6636 19.4186 55.7686 19.4833C55.8737 19.5481 55.9549 19.6451 56 19.76ZM10.15 4.20997C4.00003 2.68997 -1.99997 9.50997 2.63003 16.13C6.13003 21.13 14.47 19.28 15.95 13.31C13.95 15.54 8.85003 15.1 7.09003 12.48C5.20003 9.64997 7.06003 5.08997 10.15 4.20997Z" stroke="#494A4A" stroke-linecap="round" stroke-linejoin="round"/>
</g>
</g>
</svg>
