<svg width="64" height="64" viewBox="0 0 64 64" fill="none" xmlns="http://www.w3.org/2000/svg">
<g id="Pictogram-file-heart">
<g id="stroke-default">
<path id="2px" d="M50.7 39.8C45.3 33.5 35 35 35 45C35 55 44.3 61 48 61C51.3 61 61 55 61 45C61 36 53.9 34.4 47.9 37.2M11 22.1C11.2 19.6 12.2 17.9 14.4 17.4C15.6 17.1 18.8 16.7 20.5 16.3C23.1 15.7 24.2 14.5 24.8 11.9C25.2 10.4 25.2 7.9 25.4 6.6C25.7 4.7 27.4 3 30.3 3M53.1001 32C53.1001 22.3 53.1001 15.5 52.6001 9.4C52.2001 5.3 51.3001 3.8 48.1001 3.5C43.5001 3.1 34.1001 3 30.4001 3C25.1001 3 22.0001 5.7 18.8001 9C14.7001 13.2 11.1001 15.8 11.1001 23.1C11.1001 26.7 11.2001 47.6 11.3001 53.5C11.3001 56.8 13.5001 58.3 15.9001 58.4C21.3001 58.8 28.1001 59.1 37.7001 58.9" stroke="#494A4A" stroke-width="2" stroke-linecap="round" stroke-linejoin="round"/>
<path id="1px" d="M14.4998 51.5C14.4998 54.4 14.2998 55.5 20.3998 55.5M21.2002 22.6001C24.2002 22.3001 41.1002 22.6001 42.7002 22.6001M21.2002 27.6001C24.2002 27.3001 41.1002 27.6001 42.7002 27.6001M21.3999 32.6997C24.3999 32.3997 31.6999 32.6997 33.2999 32.6997M40.8999 40.2002C39.4999 40.5002 38.4999 41.9002 38.3999 43.5002" stroke="#494A4A" stroke-linecap="round" stroke-linejoin="round"/>
</g>
</g>
</svg>
