<svg width="64" height="64" viewBox="0 0 64 64" fill="none" xmlns="http://www.w3.org/2000/svg">
<g id="  Pictogram-platinum-rank-1" clip-path="url(#clip0_622_42009)">
<g id="stroke-default">
<path id="2px" d="M15.3014 46.5002C15.2014 51.4002 13.8014 61.7002 15.9014 62.7002C18.9014 64.1002 31.5014 57.8002 33.5014 57.9002C36.6014 58.1002 47.9014 64.2002 50.3014 62.8002C52.7014 61.4002 51.0014 45.9002 51.0014 44.2002M52.9014 40.8998C57.6014 40.1998 60.1014 36.7998 61.4014 30.6998C61.7014 29.2998 61.1014 27.6998 60.0014 27.2998M59.9015 27.3998C61.1015 26.4998 61.8015 25.5998 62.3015 24.3998C62.8015 23.0998 63.4015 18.7998 62.6015 17.7998C62.0015 16.9998 60.7015 16.9001 59.5015 17.3001C60.1015 16.4001 60.6015 15.5001 60.8015 14.5001C61.4015 12.1001 59.8015 7.8001 58.7015 7.2001C57.6015 6.6001 55.6015 6.9001 55.0015 7.5001C55.2015 4.5001 51.3013 0.70011 49.8013 1.00011C47.9013 1.40011 46.1013 4.00011 44.3013 8.20011M11.1014 40.8998C6.40138 40.1998 3.90138 36.7998 2.60138 30.6998C2.30138 29.2998 2.90138 27.6998 4.00138 27.2998M4.10154 27.3998C2.90154 26.4998 2.20154 25.5998 1.70154 24.3998C1.20154 23.0998 0.601543 18.7998 1.40154 17.7998C2.00154 16.9998 3.30141 16.9001 4.50141 17.3001C3.90141 16.4001 3.40141 15.5001 3.20141 14.5001C2.60141 12.1001 4.20141 7.8001 5.30141 7.2001C6.40141 6.6001 8.40141 6.9001 9.00141 7.5001C8.80141 4.5001 12.7016 0.70011 14.2016 1.00011C16.1016 1.40011 17.9016 4.00011 19.7016 8.20011M56.0015 29C56.0015 42.2548 45.2563 53 32.0015 53C18.7466 53 8.00146 42.2548 8.00146 29C8.00146 15.7452 18.7466 5 32.0015 5C45.2563 5 56.0015 15.7452 56.0015 29ZM32.0014 16.6C33.4014 16.6 35.5014 23.6 36.6014 24.3C37.7014 25 44.3014 25 44.5014 26.2C44.7014 27.4 39.7014 31.8 39.1014 32.8C38.5014 33.8 40.9014 40.3 39.8014 40.9C38.7014 41.5 33.4014 36.8 32.1014 36.8C30.8014 36.8 25.5014 41.5 24.4014 40.9C23.3014 40.3 25.2014 34 25.0014 32.6C24.8014 31.2 19.1014 27.8 19.6014 26.2C20.1014 24.6 27.0014 24.7 27.7014 24.2C28.4014 23.7 30.8014 16.5 32.2014 16.5L32.0014 16.6Z" stroke="#494A4A" stroke-width="2" stroke-linecap="round" stroke-linejoin="round"/>
<path id="1px" d="M54.9014 21.8002C56.7014 20.4002 58.1014 18.7002 59.4014 16.7002M59.9015 26.7998C58.8015 27.5998 57.8015 28.1998 56.0015 28.9998M54.5015 7.2002C54.3015 9.9002 52.5015 12.7002 51.0015 14.5002M9.10156 21.8002C7.30156 20.4002 5.90156 18.7002 4.60156 16.7002M4.10156 26.7998C5.20156 27.5998 6.20156 28.1998 8.00156 28.9998M9.50146 7.2002C9.70146 9.9002 11.5015 12.7002 13.0015 14.5002M32.7017 48.9999C34.2017 48.8999 35.4017 48.6999 36.7017 48.3999M40.1016 47.1001C46.4016 44.3001 49.9016 39.4001 51.6016 33.1001M17.4013 15.1001C12.7013 20.1001 11.4013 26.0001 12.2013 32.5001M30.6016 24.4998C30.9016 23.7998 31.3016 22.8998 31.5016 22.2998" stroke="#494A4A" stroke-linecap="round" stroke-linejoin="round"/>
</g>
</g>
<defs>
<clipPath id="clip0_622_42009">
<rect width="64" height="64" fill="white"/>
</clipPath>
</defs>
</svg>
