<svg width="64" height="64" viewBox="0 0 64 64" fill="none" xmlns="http://www.w3.org/2000/svg">
<g id="  Pictogram-platinum-rank-3" clip-path="url(#clip0_622_42026)">
<g id="stroke-default">
<path id="2px" d="M16.3013 45.2002C16.1013 50.8002 15.3013 61.5002 17.2013 62.5002C20.2013 63.9002 29.9013 58.0002 32.0013 58.1002C35.1013 58.3002 44.7013 64.2002 47.1013 62.9002C49.0013 61.9002 48.1013 52.1002 47.8013 46.9002M55.0015 7.6002C55.6015 7.0002 57.6015 6.7002 58.7015 7.3002C59.8015 7.9002 61.4015 12.2002 60.8015 14.6002C60.6015 15.6002 60.1015 16.5002 59.5015 17.4002C60.7015 17.0002 62.0015 17.0999 62.6015 17.8999C63.4015 18.8999 62.8015 23.1999 62.3015 24.4999C61.8015 25.6999 61.1015 26.5999 59.9015 27.4999M52.0015 40.7999C56.3015 39.7999 60.2015 36.3999 61.3015 30.7999C61.6015 29.3999 61.0015 27.7999 59.9015 27.3999M44.3013 7.80011C46.1013 3.50011 47.9013 1.40011 49.8013 1.00011C51.3013 0.70011 55.2013 4.50011 55.0013 7.50011M9.00141 7.6002C8.40141 7.0002 6.40141 6.7002 5.30141 7.3002C4.20141 7.9002 2.60141 12.2002 3.20141 14.6002C3.40141 15.6002 3.90141 16.5002 4.50141 17.4002C3.30141 17.0002 2.00154 17.0999 1.40154 17.8999C0.601543 18.8999 1.20154 23.1999 1.70154 24.4999C2.20154 25.6999 2.90154 26.5999 4.10154 27.4999M13.8015 40.7999C9.10147 40.0999 3.90147 36.8999 2.70147 30.7999C2.40147 29.3999 3.00147 27.7999 4.10147 27.3999M20.4016 8.80011C18.6016 4.50011 16.1016 1.40011 14.2016 1.00011C12.7016 0.70011 8.80155 4.50011 9.00155 7.50011M32.0014 16.7001C33.4014 16.7001 35.5014 23.7001 36.6014 24.4001C37.7014 25.1001 44.3014 25.1001 44.5014 26.3001C44.7014 27.5001 39.7014 31.9001 39.1014 32.9001C38.5014 33.9001 40.9014 40.4001 39.8014 41.0001C38.7014 41.6001 33.4014 36.9001 32.1014 36.9001C30.8014 36.9001 25.5014 41.6001 24.4014 41.0001C23.3014 40.4001 25.2014 34.1001 25.0014 32.7001C24.8014 31.3001 19.1014 27.9001 19.6014 26.3001C20.1014 24.7001 27.0014 24.8001 27.7014 24.3001C28.4014 23.8001 30.8014 16.6001 32.2014 16.6001L32.0014 16.7001ZM44.4016 9.10016C41.8016 7.80016 24.1016 7.60016 20.9016 9.10016C17.7016 10.6002 9.10156 25.4002 9.10156 29.5002C9.10156 33.6002 18.1016 48.3002 20.9016 49.9002C23.7016 51.5002 41.8016 51.1002 44.4016 49.9002C47.0016 48.7002 56.2016 34.2002 56.2016 29.5002C56.2016 24.8002 47.0016 10.4002 44.4016 9.10016Z" stroke="#494A4A" stroke-width="2" stroke-linecap="round" stroke-linejoin="round"/>
<path id="1px" d="M53.9014 22.2998C55.5014 21.1998 58.3014 18.1998 59.3014 16.7998M59.9015 26.7998C58.8015 27.5998 57.8015 28.1998 56.0015 28.9998M54.5017 7.2998C54.3017 9.9998 51.9017 13.7998 50.2017 15.2998M11.0017 22.7002C9.10166 21.6002 5.70166 18.2002 4.70166 16.7002M4.10156 26.7998C5.20156 27.5998 6.20156 28.1998 8.00156 28.9998M9.50146 7.2998C9.70146 9.9998 12.9015 14.5998 14.3015 16.3998M30.6016 24.4998C30.9016 23.7998 31.3016 22.8998 31.5016 22.2998M47.7017 40.2999C49.0017 37.9999 50.3017 35.4999 50.8017 33.8999M45.2017 44.1999C45.6017 43.6999 45.9017 43.0999 46.3017 42.3999" stroke="#494A4A" stroke-linecap="round" stroke-linejoin="round"/>
</g>
</g>
<defs>
<clipPath id="clip0_622_42026">
<rect width="64" height="64" fill="white"/>
</clipPath>
</defs>
</svg>
