<svg width="65" height="64" viewBox="0 0 65 64" fill="none" xmlns="http://www.w3.org/2000/svg">
<g id="Pictogram-firework" clip-path="url(#clip0_426_1860)">
<g id="stroke-default">
<path id="2px" d="M34.2986 12.9999C30.2986 17.4799 19.2286 31.0699 14.8986 36.6499C8.14859 45.3499 21.9686 56.6499 28.1886 51.9299C32.6286 48.5699 50.0786 32.9999 52.0786 31.1599M13.2186 43.1099C9.18859 47.2399 3.78859 53.1799 1.27859 56.1999C0.628594 56.9799 1.80859 60.1399 3.77859 58.5899C7.80223 55.1341 11.6188 51.4444 15.2086 47.5399M20.6986 51.9999C14.4886 57.3999 20.3186 65.7799 27.5586 61.9999C34.2186 58.4999 35.3886 49.3899 40.3286 48.9999C42.7386 48.7999 44.1886 51.8499 44.0786 52.9999M15.7886 35.4999C12.2886 39.6199 33.2686 47.7199 39.7186 42.1499M21.8586 27.8799C17.9286 32.5499 42.2086 39.9999 48.2886 34.5899M28.6486 19.6899C25.8486 22.9899 35.6486 27.1099 44.8486 26.2699M33.7386 9.44986C32.5486 16.7499 51.6086 34.7799 56.5986 31.5899C61.3386 28.5899 63.1886 11.6599 63.0686 4.28986C63.0786 1.62986 62.3686 0.939863 59.5286 0.999863C54.6186 1.20986 34.6686 3.68986 33.7386 9.44986Z" stroke="#494A4A" stroke-width="2" stroke-linecap="round" stroke-linejoin="round"/>
<path id="1px" d="M50.0788 50.9998C49.2288 51.8198 48.8588 51.6598 47.6188 52.2398M50.8688 56.6198C49.7383 56.038 48.5727 55.527 47.3788 55.0898M44.5988 60.1398C44.3688 59.5898 44.7188 57.4298 44.5988 56.5698M39.8688 57.2398C40.2288 56.7798 40.9188 56.4198 41.5988 55.5598M53.5988 27.4898C56.5988 28.4898 56.4488 24.5798 57.5488 20.4898M22.5488 48.4898C24.9088 50.2398 26.4588 49.4898 28.7288 47.4898M58.7388 14.3798C58.5188 15.0898 58.3688 17.1998 58.2288 17.6198" stroke="#494A4A" stroke-linecap="round" stroke-linejoin="round"/>
</g>
</g>
<defs>
<clipPath id="clip0_426_1860">
<rect width="64" height="64" fill="white" transform="translate(0.0786133)"/>
</clipPath>
</defs>
</svg>
