<svg width="64" height="64" viewBox="0 0 64 64" fill="none" xmlns="http://www.w3.org/2000/svg">
<g id="Pictogram-coffee-break">
<g id="stroke-default">
<path id="2px" d="M31.4301 58.93C30.7601 58.93 30.1401 58.93 29.5801 58.84C23.0001 58.44 21.2801 53.29 20.0001 47C19.0001 42.3 16.4501 40 11.0001 41C7.82008 41.57 5.51008 41.59 5.19008 38C4.77008 33.24 5.19008 22.22 5.62008 16.15C6.00008 9.83 9.34008 6.17 16.1501 5.59H16.7701M46.4701 5.47L47.8401 5.59C54.1601 6.15 57.8401 9.84 58.4101 16.15C58.9674 23.2221 59.1643 30.3179 59.0001 37.41M20.3801 5.31C27.7743 4.91556 35.1836 4.89219 42.5801 5.24M29.3301 58.84C24.3301 58.84 16.5401 54.84 11.8901 50.24C8.16008 46.57 5.15008 43 5.15008 38M59.4001 45.74C59.4001 44.69 59.4001 43.85 59.4001 43.37C59.4701 38.92 32.9601 38.84 32.9601 43.37C33.0001 44.78 32.7001 53 34.7501 57C39.0001 65.3 53.0601 64.42 57.1401 57.58M56.1801 48.85C55.6701 48.41 56.3201 47.25 57.0001 46.98C58.4501 46.41 60.7701 45.39 62.0001 46.51C63.6001 48 64.3901 58 54.2801 58C53.6401 58 54.1201 55.14 55.6601 55M42.6801 9.13C42.4814 6.8555 42.6196 4.56414 43.0901 2.33C43.1605 1.97604 43.3515 1.65746 43.6305 1.42853C43.9095 1.19959 44.2592 1.07446 44.6201 1.07446C44.981 1.07446 45.3307 1.19959 45.6097 1.42853C45.8887 1.65746 46.0796 1.97604 46.1501 2.33C46.4233 4.68789 46.2948 7.07505 45.7701 9.39C45.6697 9.74224 45.4501 10.0487 45.1487 10.2569C44.8474 10.4651 44.4831 10.5621 44.1181 10.5314C43.7531 10.5007 43.4101 10.3441 43.1478 10.0885C42.8855 9.83288 42.7202 9.49406 42.6801 9.13ZM20.3601 9.13C20.5566 6.85592 20.4218 4.56536 19.9601 2.33C19.8896 1.97604 19.6987 1.65746 19.4197 1.42853C19.1407 1.19959 18.791 1.07446 18.4301 1.07446C18.0692 1.07446 17.7195 1.19959 17.4405 1.42853C17.1615 1.65746 16.9705 1.97604 16.9001 2.33C16.6225 4.68776 16.751 7.07565 17.2801 9.39C17.3752 9.74595 17.5925 10.0571 17.894 10.269C18.1954 10.4809 18.5617 10.58 18.9289 10.549C19.296 10.518 19.6406 10.3589 19.9022 10.0995C20.1639 9.84004 20.3259 9.49686 20.3601 9.13Z" stroke="#494A4A" stroke-width="2" stroke-linecap="round" stroke-linejoin="round"/>
<path id="1px" d="M33.5301 31.68C33.4656 30.8848 33.5059 30.0846 33.6501 29.3C33.7339 28.8885 33.9369 28.5107 34.2338 28.2138C34.5308 27.9168 34.9085 27.7138 35.3201 27.63C35.9797 27.5112 36.6506 27.4676 37.3201 27.5C37.7724 27.5147 38.2233 27.5581 38.6701 27.63M33.6301 42.94C31.3301 47.75 60.7401 47.66 58.7401 42.85M55.6101 48.9C56.0201 50.05 58.4301 49.27 59.1401 49.53C59.8501 49.79 60.0201 53.87 55.4901 54.53M37.8001 45.84C38.4601 45.17 45.0501 42.91 48.1501 44C52.0401 45.37 54.1501 43.15 55.4901 45.53M36.4901 48.51C36.394 49.8647 36.5709 51.2249 37.0101 52.51M45.4601 36.48C45.4601 34.81 43.9401 34.05 44.0501 32.38C44.1601 30.71 46.6901 30.52 46.6401 27.63M48.4901 36.48C48.4901 34.96 49.7501 33.59 49.6701 32.68M41.0001 36.48C41.1201 35.42 40.4001 34.73 40.4301 33.97M9.47006 18.5C9.30006 13.27 11.2001 10.65 13.5301 10.5M49.6601 23.31C48.561 23.5301 47.4292 23.5301 46.3301 23.31C45.9105 23.245 45.5225 23.0481 45.2222 22.7478C44.922 22.4476 44.7251 22.0596 44.6601 21.64C44.4602 20.539 44.4602 19.411 44.6601 18.31C44.7439 17.8985 44.9469 17.5207 45.2438 17.2238C45.5408 16.9268 45.9185 16.7238 46.3301 16.64C47.4332 16.4651 48.557 16.4651 49.6601 16.64C50.0778 16.707 50.4636 16.9047 50.7619 17.2048C51.0602 17.5049 51.2556 17.8918 51.3201 18.31C51.545 19.4086 51.545 20.5414 51.3201 21.64C51.2346 22.0491 51.0323 22.4247 50.7376 22.7211C50.443 23.0175 50.0687 23.2221 49.6601 23.31ZM38.6501 23.3C37.5543 23.5201 36.4258 23.5201 35.3301 23.3C34.9137 23.2336 34.529 23.0373 34.2309 22.7392C33.9328 22.4411 33.7365 22.0563 33.6701 21.64C33.4702 20.539 33.4702 19.411 33.6701 18.31C33.75 17.8995 33.9507 17.5221 34.2464 17.2264C34.5422 16.9306 34.9195 16.7299 35.3301 16.65C36.429 16.465 37.5511 16.465 38.6501 16.65C39.0682 16.7145 39.4552 16.9099 39.7552 17.2082C40.0553 17.5065 40.2531 17.8922 40.3201 18.31C40.5352 19.4096 40.5352 20.5404 40.3201 21.64C40.231 22.0481 40.026 22.4218 39.7298 22.7162C39.4336 23.0107 39.0587 23.2134 38.6501 23.3ZM27.6601 23.31C26.561 23.5301 25.4291 23.5301 24.3301 23.31C23.9105 23.245 23.5225 23.0481 23.2222 22.7478C22.922 22.4476 22.7251 22.0596 22.6601 21.64C22.4602 20.539 22.4602 19.411 22.6601 18.31C22.7438 17.8985 22.9469 17.5207 23.2438 17.2238C23.5408 16.9268 23.9185 16.7238 24.3301 16.64C25.4332 16.4651 26.557 16.4651 27.6601 16.64C28.0778 16.707 28.4636 16.9047 28.7619 17.2048C29.0602 17.5049 29.2556 17.8918 29.3201 18.31C29.545 19.4086 29.545 20.5414 29.3201 21.64C29.2346 22.0491 29.0323 22.4247 28.7376 22.7211C28.443 23.0175 28.0687 23.2221 27.6601 23.31ZM27.6601 34.32C26.3551 34.5298 25.025 34.5298 23.7201 34.32C22.9301 34.14 22.7201 33.76 22.5801 33C22.4037 31.7576 22.4273 30.4949 22.6501 29.26C22.7338 28.8485 22.9369 28.4707 23.2338 28.1738C23.5308 27.8768 23.9085 27.6738 24.3201 27.59C25.4265 27.415 26.5536 27.415 27.6601 27.59C28.0796 27.655 28.4676 27.8519 28.7679 28.1522C29.0681 28.4524 29.265 28.8404 29.3301 29.26C29.555 30.3653 29.555 31.5047 29.3301 32.61C29.2485 33.0267 29.047 33.4105 28.7503 33.7143C28.4536 34.0181 28.0747 34.2286 27.6601 34.32ZM16.6601 34.32C15.5576 34.5401 14.4225 34.5401 13.3201 34.32C12.9005 34.255 12.5125 34.0581 12.2122 33.7578C11.912 33.4576 11.7151 33.0696 11.6501 32.65C11.4501 31.5423 11.4501 30.4077 11.6501 29.3C11.7338 28.8885 11.9369 28.5107 12.2338 28.2138C12.5308 27.9168 12.9085 27.7138 13.3201 27.63C14.5602 27.4497 15.8199 27.4497 17.0601 27.63C17.9901 27.78 18.1301 28.43 18.3301 29.27C18.555 30.3753 18.555 31.5147 18.3301 32.62C18.2467 33.0349 18.0444 33.4165 17.7479 33.7184C17.4514 34.0203 17.0734 34.2293 16.6601 34.32ZM27.6501 45.29C26.5543 45.5101 25.4258 45.5101 24.3301 45.29C23.9155 45.2217 23.5331 45.0245 23.2369 44.7266C22.9407 44.4286 22.7459 44.0449 22.6801 43.63C22.4799 42.5357 22.4799 41.4143 22.6801 40.32C22.7605 39.9113 22.9602 39.5357 23.2538 39.2403C23.5474 38.9448 23.9219 38.743 24.3301 38.66C25.4294 38.4799 26.5507 38.4799 27.6501 38.66C28.0646 38.7283 28.4471 38.9255 28.7432 39.2234C29.0394 39.5214 29.2342 39.9051 29.3001 40.32C29.5251 41.4119 29.5251 42.5381 29.3001 43.63C29.2159 44.037 29.0151 44.4108 28.7221 44.7056C28.4291 45.0004 28.0566 45.2034 27.6501 45.29Z" stroke="#494A4A" stroke-linecap="round" stroke-linejoin="round"/>
</g>
</g>
</svg>
