<svg width="64" height="64" viewBox="0 0 64 64" fill="none" xmlns="http://www.w3.org/2000/svg">
<g id="Pictogram-service" clip-path="url(#clip0_624_21126)">
<g id="stroke-default">
<path id="2px" d="M32.12 33.28C32.12 32.7277 31.6723 32.28 31.12 32.28C30.5677 32.28 30.12 32.7277 30.12 33.28H32.12ZM45.62 44.08L45.0753 44.9186L45.0771 44.9198L45.62 44.08ZM5.28 44.35L4.69784 43.5369L4.69757 43.5371L5.28 44.35ZM21.05 33.28C21.05 32.7277 20.6023 32.28 20.05 32.28C19.4977 32.28 19.05 32.7277 19.05 33.28H21.05ZM44.52 3.09998L44.1859 2.15743L44.1847 2.15786L44.52 3.09998ZM57.9 22.65L57.313 21.8404L57.3123 21.8409L57.9 22.65ZM47.56 20.87L47.3923 19.8841L47.3872 19.885L47.56 20.87ZM40.09 24.41L39.372 23.7139C39.0608 24.035 39.0005 24.5236 39.2244 24.9107C39.4483 25.2977 39.9019 25.4891 40.3353 25.3794L40.09 24.41ZM42.28 18.75L43.2795 18.7185C43.2783 18.6795 43.2748 18.6407 43.269 18.6021L42.28 18.75ZM40.07 15.65L41.0479 15.4404L41.0448 15.4269L40.07 15.65ZM47.13 12.54C47.6823 12.54 48.13 12.0922 48.13 11.54C48.13 10.9877 47.6823 10.54 47.13 10.54V12.54ZM46.63 11.04C46.63 11.5922 47.0777 12.04 47.63 12.04C48.1823 12.04 48.63 11.5922 48.63 11.04H46.63ZM51.7 14C52.2523 14 52.7 13.5522 52.7 13C52.7 12.4477 52.2523 12 51.7 12V14ZM51.2 12.5C51.2 13.0522 51.6477 13.5 52.2 13.5C52.7523 13.5 53.2 13.0522 53.2 12.5H51.2ZM56.15 15.33C56.7023 15.33 57.15 14.8822 57.15 14.33C57.15 13.7777 56.7023 13.33 56.15 13.33V15.33ZM55.65 13.83C55.65 14.3822 56.0977 14.83 56.65 14.83C57.2023 14.83 57.65 14.3822 57.65 13.83H55.65ZM30.12 33.28C30.12 35.579 30.7761 37.3309 31.9098 38.6805C33.0226 40.0053 34.5295 40.8628 36.0926 41.5122C37.6407 42.1554 39.3733 42.642 40.9183 43.1379C42.5075 43.6481 43.9335 44.177 45.0753 44.9186L46.1647 43.2413C44.7815 42.3429 43.1325 41.7482 41.5295 41.2336C39.8823 40.7049 38.3056 40.2659 36.8599 39.6653C35.4292 39.0709 34.258 38.3666 33.4412 37.3941C32.6452 36.4465 32.12 35.1659 32.12 33.28H30.12ZM45.0771 44.9198C45.4081 45.1338 45.8095 45.5993 46.2249 46.364C46.6293 47.1085 46.9996 48.0479 47.3134 49.0936C47.9424 51.1897 48.31 53.5978 48.31 55.49H50.31C50.31 53.3822 49.9076 50.7803 49.2291 48.5188C48.8891 47.3858 48.4713 46.3096 47.9823 45.4094C47.5043 44.5294 46.9069 43.7212 46.1629 43.2402L45.0771 44.9198ZM48.31 55.49C48.31 55.5135 48.3066 55.6258 48.0863 55.8372C47.8579 56.0563 47.4673 56.3084 46.8739 56.5699C45.6918 57.0907 43.9381 57.5492 41.7489 57.9243C37.389 58.6714 31.5362 59.05 25.655 59.05C19.7738 59.05 13.921 58.6714 9.56108 57.9243C7.37187 57.5492 5.6182 57.0907 4.43607 56.5699C3.84274 56.3084 3.45206 56.0563 3.22368 55.8372C3.0034 55.6258 3 55.5135 3 55.49H1C1 56.2264 1.36621 56.8267 1.83894 57.2803C2.30358 57.7261 2.92933 58.0915 3.62964 58.4001C5.03477 59.0192 6.97719 59.5107 9.2233 59.8956C13.734 60.6685 19.7087 61.05 25.655 61.05C31.6013 61.05 37.576 60.6685 42.0867 59.8956C44.3328 59.5107 46.2752 59.0192 47.6804 58.4001C48.3807 58.0915 49.0064 57.7261 49.4711 57.2803C49.9438 56.8267 50.31 56.2264 50.31 55.49H48.31ZM3 55.49C3 53.7181 3.32059 51.3683 3.87808 49.2988C4.15626 48.2662 4.48584 47.3321 4.84795 46.5893C5.22237 45.8212 5.58054 45.3648 5.86243 45.1629L4.69757 43.5371C4.00946 44.0301 3.47263 44.8463 3.05018 45.7129C2.61541 46.6048 2.24624 47.6675 1.94692 48.7786C1.34941 50.9967 1 53.5219 1 55.49H3ZM5.86216 45.163C6.97618 44.3654 8.3956 43.8178 9.99947 43.3091C11.5481 42.818 13.3325 42.3475 14.9076 41.725C16.5074 41.0926 18.0604 40.2455 19.2083 38.8904C20.3774 37.5104 21.05 35.6953 21.05 33.28H19.05C19.05 35.2947 18.5014 36.6308 17.6823 37.5977C16.8421 38.5894 15.6401 39.2848 14.1724 39.865C12.68 40.4549 11.0844 40.8669 9.3949 41.4027C7.76065 41.9209 6.08383 42.5445 4.69784 43.5369L5.86216 45.163ZM25.5 36.2C31.337 36.2 37 29.7262 37 18.48H35C35 29.2938 29.663 34.2 25.5 34.2V36.2ZM37 18.48C37 14.1267 35.967 10.736 33.9395 8.42326C31.8938 6.08984 28.9652 4.99998 25.5 4.99998V6.99998C28.5348 6.99998 30.8562 7.94011 32.4355 9.74169C34.033 11.5639 35 14.4133 35 18.48H37ZM25.5 4.99998C22.0348 4.99998 19.1062 6.08984 17.0605 8.42326C15.033 10.736 14 14.1267 14 18.48H16C16 14.4133 16.967 11.5639 18.5645 9.74169C20.1438 7.94011 22.4652 6.99998 25.5 6.99998V4.99998ZM14 18.48C14 29.7262 19.663 36.2 25.5 36.2V34.2C21.337 34.2 16 29.2938 16 18.48H14ZM44.8541 4.04252C45.7204 3.73546 47.2243 3.62116 49.1066 3.74259C50.9536 3.86174 53.0462 4.19923 55.0187 4.70602C56.9995 5.21497 58.807 5.88135 60.1097 6.63471C60.7615 7.01163 61.2476 7.388 61.5664 7.74439C61.8843 8.09966 61.9893 8.38088 62.0018 8.58942L63.9982 8.47053C63.9506 7.67158 63.5664 6.98029 63.0571 6.41095C62.5488 5.84273 61.8701 5.34238 61.1109 4.90337C59.5918 4.02486 57.593 3.30249 55.5163 2.76893C53.4313 2.23322 51.2152 1.87446 49.2353 1.74674C47.2907 1.62129 45.4496 1.70949 44.1859 2.15744L44.8541 4.04252ZM62.0018 8.58942C62.1126 10.4501 61.7207 13.2333 60.8709 15.8638C60.0094 18.5307 58.7559 20.7941 57.313 21.8404L58.487 23.4595C60.4641 22.0258 61.8806 19.2442 62.7741 16.4786C63.6793 13.6767 64.1274 10.6398 63.9982 8.47053L62.0018 8.58942ZM57.3123 21.8409C57.0727 22.015 56.5952 22.1248 55.742 22.0168C54.9228 21.9131 53.9599 21.6363 52.9378 21.2952C51.9737 20.9734 50.8604 20.5588 49.9798 20.2825C49.5211 20.1387 49.0693 20.0131 48.6541 19.9353C48.2538 19.8602 47.8081 19.8134 47.3923 19.8841L47.7277 21.8558C47.7969 21.844 47.9684 21.8416 48.2856 21.901C48.5879 21.9577 48.9537 22.0568 49.3812 22.1908C50.2727 22.4705 51.2051 22.8253 52.3047 23.1923C53.3463 23.5399 54.4654 23.8712 55.4909 24.001C56.4823 24.1264 57.6123 24.095 58.4877 23.459L57.3123 21.8409ZM47.3872 19.885C46.8952 19.9713 46.3914 20.2528 45.9707 20.5045C45.7412 20.6419 45.4924 20.7988 45.2364 20.9598C44.9768 21.1229 44.7032 21.2945 44.4085 21.4717C43.2353 22.1771 41.7474 22.959 39.8447 23.4405L40.3353 25.3794C42.5026 24.8309 44.1797 23.9429 45.439 23.1858C45.7525 22.9973 46.0411 22.8162 46.3008 22.653C46.5641 22.4875 46.7914 22.3442 46.9977 22.2207C47.4486 21.9509 47.6548 21.8686 47.7328 21.8549L47.3872 19.885ZM40.808 25.106C41.6269 24.2612 42.2677 23.2605 42.6923 22.1632L40.827 21.4415C40.4992 22.2888 40.0044 23.0616 39.372 23.7139L40.808 25.106ZM42.6923 22.1632C43.1168 21.0659 43.3165 19.8945 43.2795 18.7185L41.2805 18.7815C41.3091 19.6896 41.1549 20.5941 40.827 21.4415L42.6923 22.1632ZM43.269 18.6021C43.193 18.0938 42.9343 17.6686 42.6965 17.3518C42.4538 17.0283 42.1578 16.7223 41.9094 16.4678C41.6418 16.1936 41.4271 15.9764 41.259 15.7686C41.1785 15.669 41.1238 15.5894 41.0883 15.527C41.0526 15.4641 41.047 15.4369 41.0478 15.4404L39.0922 15.8595C39.1949 16.3388 39.4705 16.7376 39.7038 17.026C39.9448 17.3241 40.2394 17.6201 40.4781 17.8647C40.7359 18.1289 40.9431 18.3473 41.0969 18.5522C41.2557 18.7639 41.287 18.8711 41.291 18.8979L43.269 18.6021ZM41.0448 15.4269C40.7351 14.0738 40.9479 11.4324 41.7038 8.92067C42.0757 7.68522 42.5604 6.54637 43.1285 5.66414C43.7072 4.76529 44.3034 4.23851 44.8553 4.04209L44.1847 2.15786C43.0366 2.56644 42.1353 3.51216 41.4469 4.58144C40.7477 5.66733 40.1956 6.99224 39.7887 8.34428C38.9871 11.0075 38.6749 14.0362 39.0952 15.873L41.0448 15.4269ZM47.13 10.54C47.4061 10.54 47.63 10.7638 47.63 11.04H45.63C45.63 11.8684 46.3016 12.54 47.13 12.54V10.54ZM47.63 11.04C47.63 11.3161 47.4061 11.54 47.13 11.54V9.53995C46.3016 9.53995 45.63 10.2115 45.63 11.04H47.63ZM47.13 11.54C46.8539 11.54 46.63 11.3161 46.63 11.04H48.63C48.63 10.2115 47.9584 9.53995 47.13 9.53995V11.54ZM51.7 12C51.9761 12 52.2 12.2238 52.2 12.5H50.2C50.2 13.3284 50.8716 14 51.7 14V12ZM52.2 12.5C52.2 12.7761 51.9761 13 51.7 13V11C50.8716 11 50.2 11.6715 50.2 12.5H52.2ZM51.7 13C51.4239 13 51.2 12.7761 51.2 12.5H53.2C53.2 11.6715 52.5284 11 51.7 11V13ZM56.15 13.33C56.4261 13.33 56.65 13.5538 56.65 13.83H54.65C54.65 14.6584 55.3216 15.33 56.15 15.33V13.33ZM56.65 13.83C56.65 14.1061 56.4261 14.33 56.15 14.33V12.33C55.3216 12.33 54.65 13.0015 54.65 13.83H56.65ZM56.15 14.33C55.8739 14.33 55.65 14.1061 55.65 13.83H57.65C57.65 13.0015 56.9784 12.33 56.15 12.33V14.33Z" fill="#494A4A"/>
<path id="1px" d="M13.07 31.95L8.59 33.52M10.25 29.27L12.66 29.2M13.07 35.2L14.42 34.1M10.42 45.43C9.22131 45.719 8.14618 46.3831 7.35117 47.3256C6.55616 48.2681 6.08279 49.4398 6 50.67" stroke="#494A4A" stroke-linecap="round" stroke-linejoin="round"/>
</g>
</g>
<defs>
<clipPath id="clip0_624_21126">
<rect width="64" height="64" fill="white"/>
</clipPath>
</defs>
</svg>
