<svg width="64" height="64" viewBox="0 0 64 64" fill="none" xmlns="http://www.w3.org/2000/svg">
<g id="Pictogram-file-server">
<g id="stroke-default">
<path id="2px" d="M11 22.1C11.2 19.6 12.2 17.9 14.4 17.4C15.6 17.1 18.8 16.7 20.5 16.3C23.1 15.7 24.2 14.5 24.8 11.9C25.2 10.4 25.2 7.9 25.4 6.6C25.7 4.7 27.4 3 30.3 3M53 29.4996C53 24.3996 53.1 15.4996 52.5 9.49961C52.1 5.39961 51.2 3.89961 48 3.59961C43.4 3.19961 34 3.09961 30.3 3.09961C25 3.09961 21.9 5.79961 18.7 9.09961C14.6 13.2996 11 15.8996 11 23.1996C11 26.7996 11.1 47.6996 11.2 53.5996C11.2 56.8996 13.4 58.3996 15.8 58.4996C21.2 58.8996 31.3 58.8996 32.5 58.8996M37.5998 52C36.5998 52.5 36.0998 53.3 35.9998 53.9C35.7998 54.6 35.9998 57.8 36.1998 58.2C39.0998 63.3 57.9998 63.3 60.7998 58.2C61.1998 57.5 61.1998 54.6 60.9998 53.9C60.7998 53.2 60.3998 52.6 59.3998 52M37.5998 44C36.5998 44.5 36.0998 45.3 35.9998 45.9C35.7998 46.6 35.9998 49.8 36.1998 50.2C39.0998 55.3 57.9998 55.3 60.7998 50.2C61.1998 49.5 61.1998 46.6 60.9998 45.9C60.7998 45.2 60.3998 44.6 59.3998 44M35.9998 37.0002C35.7998 37.7002 35.9998 41.8002 36.1998 42.2002C39.0998 47.3002 57.9998 47.3002 60.7998 42.2002C61.1998 41.5002 61.1998 37.7002 60.9998 37.0002C59.7998 31.6002 37.1998 31.6002 35.9998 37.0002Z" stroke="#494A4A" stroke-width="2" stroke-linecap="round" stroke-linejoin="round"/>
<path id="1px" d="M14.4998 51.5C14.4998 54.4 14.2998 55.5 20.3998 55.5M25 25.6001C26.4 25.5001 42.2 25.6001 43 25.6001M21.3999 31.6001C22.8999 31.5001 35.7999 31.6001 36.5999 31.6001M21.3999 37.4995C22.8999 37.3995 31.6999 37.4995 32.4999 37.4995M43.2 40.1C37 39.3 36.2 37 37.2 36M59.5 36C60 36.6 59.6 37.5 58.5 38.2M57.5 49C57.5 49.5523 57.2761 50 57 50C56.7239 50 56.5 49.5523 56.5 49C56.5 48.4477 56.7239 48 57 48C57.2761 48 57.5 48.4477 57.5 49ZM57.5 57C57.5 57.5523 57.2761 58 57 58C56.7239 58 56.5 57.5523 56.5 57C56.5 56.4477 56.7239 56 57 56C57.2761 56 57.5 56.4477 57.5 57ZM57.5 41C57.5 41.5523 57.2761 42 57 42C56.7239 42 56.5 41.5523 56.5 41C56.5 40.4477 56.7239 40 57 40C57.2761 40 57.5 40.4477 57.5 41Z" stroke="#494A4A" stroke-linecap="round" stroke-linejoin="round"/>
</g>
</g>
</svg>
