<svg width="64" height="64" viewBox="0 0 64 64" fill="none" xmlns="http://www.w3.org/2000/svg">
<g id="Pictogram-report-sent">
<g id="stroke-default">
<path id="2px" d="M10.0027 23.0203C9.95865 23.5708 10.3692 24.0528 10.9198 24.0968C11.4703 24.1409 11.9523 23.7303 11.9963 23.1797L10.0027 23.0203ZM14.3995 18.4L14.6211 19.3751C14.6281 19.3735 14.6351 19.3719 14.642 19.3701L14.3995 18.4ZM20.4995 17.3L20.2746 16.3256L20.2705 16.3266L20.4995 17.3ZM24.7995 12.9L23.8333 12.6423C23.8304 12.6532 23.8277 12.6642 23.8251 12.6751L24.7995 12.9ZM25.3995 7.6L24.4117 7.44404L24.4111 7.44794L25.3995 7.6ZM30.2995 5C30.8518 5 31.2995 4.55228 31.2995 4C31.2995 3.44772 30.8518 3 30.2995 3V5ZM28.8994 60.0001C29.4517 60.0001 29.8994 59.5524 29.8994 59.0001C29.8994 58.4478 29.4517 58.0001 28.8994 58.0001V60.0001ZM16.4994 58.7001L16.4407 59.6984C16.4475 59.6988 16.4542 59.6991 16.461 59.6994L16.4994 58.7001ZM10.9994 52.4001L9.99954 52.417L9.99966 52.4223L10.9994 52.4001ZM47.8994 4.6001L47.789 5.59398C47.7947 5.59461 47.8004 5.5952 47.8061 5.59573L47.8994 4.6001ZM52.3994 10.5001L53.3953 10.4096L53.3944 10.4006L52.3994 10.5001ZM51.8994 34.1001C51.8994 34.6524 52.3471 35.1001 52.8994 35.1001C53.4517 35.1001 53.8994 34.6524 53.8994 34.1001H51.8994ZM31.9995 42.0001H30.9995C30.9995 42.273 31.1111 42.5341 31.3084 42.7228C31.5057 42.9115 31.7715 43.0113 32.0442 42.9991L31.9995 42.0001ZM49.5995 43.0001L49.5795 43.9999C49.5862 44 49.5928 44.0001 49.5995 44.0001V43.0001ZM50.8995 39.0001L50.8371 38.002C50.8302 38.0024 50.8234 38.0029 50.8165 38.0035L50.8995 39.0001ZM62.9995 48.1001H63.9995C63.9995 48.0834 63.9991 48.0667 63.9983 48.0501L62.9995 48.1001ZM50.6995 56.9001L51.1784 56.0222C51.1679 56.0165 51.1574 56.0109 51.1467 56.0056L50.6995 56.9001ZM50.0995 53.6001H49.0995C49.0995 53.6415 49.1021 53.6829 49.1072 53.7241L50.0995 53.6001ZM31.0995 54.2001L30.1915 54.6192L30.1974 54.6315L31.0995 54.2001ZM31.9995 41.9001H32.9995C32.9995 41.6156 32.8784 41.3446 32.6664 41.1549C32.4545 40.9652 32.1718 40.8748 31.8891 40.9062L31.9995 41.9001ZM11.9963 23.1797C12.0882 22.0316 12.3572 21.1721 12.7736 20.5665C13.172 19.987 13.7498 19.5732 14.6211 19.3751L14.1779 17.4249C12.8492 17.7268 11.827 18.413 11.1255 19.4335C10.4418 20.4279 10.1108 21.6684 10.0027 23.0203L11.9963 23.1797ZM14.642 19.3701C15.1891 19.2334 16.2318 19.0666 17.4212 18.8747C18.5717 18.6892 19.8363 18.4834 20.7285 18.2734L20.2705 16.3266C19.4627 16.5166 18.2773 16.7108 17.1028 16.9003C15.9672 17.0834 14.8099 17.2666 14.157 17.4299L14.642 19.3701ZM20.7244 18.2744C22.133 17.9493 23.2625 17.4327 24.1194 16.5441C24.971 15.6609 25.4536 14.513 25.7739 13.1249L23.8251 12.6751C23.5455 13.887 23.178 14.6391 22.6797 15.1559C22.1865 15.6673 21.4661 16.0507 20.2747 16.3256L20.7244 18.2744ZM25.7657 13.1577C25.9927 12.3066 26.0971 11.2193 26.1716 10.2517C26.2502 9.2291 26.2956 8.35206 26.3879 7.75206L24.4111 7.44794C24.3034 8.14794 24.2488 9.1709 24.1775 10.0983C24.1019 11.0807 24.0063 11.9934 23.8333 12.6423L25.7657 13.1577ZM26.3873 7.75596C26.6023 6.39392 27.8371 5 30.2995 5V3C26.9619 3 24.7967 5.00608 24.4117 7.44404L26.3873 7.75596ZM28.8994 58.0001C23.922 58.0001 19.1415 57.801 16.5378 57.7008L16.461 59.6994C19.0573 59.7992 23.8768 60.0001 28.8994 60.0001V58.0001ZM16.5581 57.7018C14.988 57.6095 13.9301 57.204 13.2371 56.4741C12.5393 55.739 12.0463 54.501 11.9992 52.3779L9.99966 52.4223C10.0525 54.7992 10.6095 56.6112 11.7867 57.8511C12.9688 59.0962 14.6108 59.5907 16.4407 59.6984L16.5581 57.7018ZM11.9993 52.3832C11.8995 46.4941 11.8994 27.8061 11.8994 24.2001H9.89941C9.89941 27.7941 9.89937 46.5061 9.99956 52.417L11.9993 52.3832ZM11.8994 24.2001C11.8994 20.741 12.7445 18.4367 14.0417 16.5082C15.383 14.514 17.194 12.9197 19.3065 10.8072L17.8923 9.39299C15.9048 11.3805 13.8658 13.1862 12.3822 15.392C10.8543 17.6635 9.89941 20.3592 9.89941 24.2001H11.8994ZM19.3065 10.8072C22.5919 7.52185 25.3363 5.1001 30.1994 5.1001V3.1001C24.4625 3.1001 21.207 6.07834 17.8923 9.39299L19.3065 10.8072ZM30.1994 5.1001C33.9283 5.1001 43.3583 5.10169 47.789 5.59398L48.0098 3.60621C43.4405 3.09851 33.8705 3.1001 30.1994 3.1001V5.1001ZM47.8061 5.59573C49.2451 5.73064 49.9439 6.13029 50.3879 6.7469C50.8936 7.44932 51.2052 8.60794 51.4044 10.5996L53.3944 10.4006C53.1936 8.39226 52.8552 6.75087 52.0109 5.57829C51.1049 4.31991 49.7538 3.76956 47.9928 3.60446L47.8061 5.59573ZM51.4035 10.5906C51.6986 13.8368 51.8994 23.7888 51.8994 34.1001H53.8994C53.8994 23.8114 53.7002 13.7634 53.3953 10.4096L51.4035 10.5906ZM37.835 11.9864C37.6892 11.9621 37.5869 11.9037 37.5313 11.8642C37.4773 11.8258 37.4512 11.794 37.449 11.7914C37.4482 11.7904 37.478 11.8293 37.5313 11.9388C37.6361 12.1544 37.7493 12.4684 37.8741 12.8491C37.9882 13.197 38.121 13.6304 38.2371 13.9611C38.2973 14.1324 38.3641 14.3094 38.4368 14.4667C38.4967 14.5964 38.6088 14.8236 38.7922 15.0071L40.2065 13.5929C40.29 13.6764 40.2989 13.7286 40.2525 13.6282C40.219 13.5555 40.1764 13.4473 40.1241 13.2983C40.0153 12.9884 39.9105 12.6405 39.7746 12.226C39.6494 11.8441 39.5001 11.4144 39.3299 11.0643C39.2457 10.8911 39.1349 10.6917 38.9903 10.5168C38.8624 10.3622 38.5929 10.0851 38.1638 10.0136L37.835 11.9864ZM38.7922 15.0071C39.0489 15.2638 39.3723 15.352 39.523 15.3882C39.7144 15.4341 39.9202 15.4584 40.1069 15.4734C40.479 15.5032 40.9278 15.5064 41.3087 15.5124C41.7192 15.5188 42.0564 15.5284 42.2978 15.5592C42.4218 15.575 42.4624 15.5898 42.4528 15.5862C42.4458 15.5835 42.3935 15.5637 42.3254 15.5117C42.2544 15.4577 42.1422 15.3497 42.0709 15.1714L43.9278 14.4286C43.7409 13.9614 43.3291 13.7796 43.1631 13.7166C42.9551 13.6375 42.7332 13.5985 42.5509 13.5752C42.1798 13.5279 41.7295 13.5187 41.34 13.5126C40.9209 13.5061 40.5572 13.503 40.2668 13.4798C40.1223 13.4682 40.0344 13.4541 39.9898 13.4434C39.9046 13.423 40.0498 13.4362 40.2065 13.5929L38.7922 15.0071ZM42.0709 15.1714C41.9964 14.9853 42.0051 14.8202 42.0236 14.7216C42.0411 14.6284 42.0708 14.5722 42.0766 14.5615C42.0857 14.5445 42.0693 14.5773 41.9868 14.6666C41.8284 14.8381 41.5756 15.0598 41.2653 15.3142C41.1147 15.4377 40.9603 15.5611 40.8067 15.6839C40.6554 15.8048 40.5029 15.9267 40.366 16.0397C40.2312 16.1509 40.0959 16.2662 39.9825 16.3743C39.9031 16.45 39.7178 16.6271 39.6049 16.8528L41.3938 17.7472C41.331 17.8729 41.2675 17.9125 41.3623 17.8222C41.4231 17.7642 41.5144 17.685 41.639 17.5822C41.7615 17.4811 41.9011 17.3694 42.0553 17.2462C42.2072 17.1249 42.3715 16.9936 42.5334 16.8608C42.8482 16.6027 43.1953 16.3057 43.4557 16.024C43.5825 15.8867 43.7302 15.7094 43.8386 15.5077C43.9258 15.3451 44.1234 14.9176 43.9278 14.4286L42.0709 15.1714ZM39.6049 16.8528C39.5006 17.0615 39.4832 17.2595 39.4793 17.3647C39.4749 17.4843 39.4851 17.596 39.497 17.6854C39.5208 17.8639 39.566 18.0557 39.6123 18.2306C39.7031 18.574 39.8442 19.0175 39.9532 19.3846C40.0722 19.7855 40.1624 20.1247 40.1993 20.3724C40.2182 20.4991 40.214 20.5458 40.2149 20.5377C40.2157 20.5305 40.2213 20.4806 40.2517 20.4088C40.2837 20.3332 40.3494 20.2194 40.4747 20.1191L41.7241 21.6809C42.0954 21.3838 42.1795 20.9701 42.203 20.756C42.2292 20.5168 42.2071 20.2759 42.1775 20.0776C42.1175 19.6753 41.989 19.2145 41.8705 18.8154C41.742 18.3825 41.6269 18.026 41.5458 17.7194C41.5061 17.5693 41.4865 17.4736 41.4794 17.4209C41.4759 17.3946 41.4792 17.4048 41.4779 17.4392C41.4772 17.4593 41.4731 17.5885 41.3938 17.7472L39.6049 16.8528ZM40.4747 20.1191C40.7297 19.9151 40.9881 19.9499 41.0372 19.9592C41.0847 19.9682 41.0725 19.9747 40.9791 19.924C40.7975 19.8256 40.55 19.6474 40.2294 19.4038C39.938 19.1823 39.5823 18.9036 39.2655 18.6912C39.1044 18.5832 38.9242 18.4722 38.7401 18.3852C38.5749 18.3072 38.3082 18.2 37.9994 18.2V20.2C37.8655 20.2 37.8113 20.1584 37.886 20.1937C37.9417 20.22 38.0287 20.2699 38.1519 20.3525C38.4039 20.5214 38.6857 20.7427 39.0193 20.9962C39.3238 21.2276 39.6887 21.4994 40.0259 21.6822C40.1918 21.7722 40.4156 21.8771 40.6654 21.9244C40.9169 21.9719 41.344 21.9849 41.7241 21.6809L40.4747 20.1191ZM37.9994 18.2C37.6852 18.2 37.4183 18.3104 37.2516 18.3926C37.0687 18.4828 36.8933 18.5972 36.7396 18.7062C36.4422 18.9171 36.0979 19.2028 35.8287 19.416C35.5259 19.6556 35.2925 19.8252 35.117 19.9171C34.8629 20.05 35.0741 19.8481 35.3955 20.0318L34.4032 21.7682C35.0746 22.1519 35.7608 21.8375 36.0442 21.6892C36.4062 21.4998 36.7728 21.2194 37.0701 20.984C37.4008 20.7222 37.6565 20.5079 37.8967 20.3375C38.0117 20.2559 38.0894 20.2094 38.1362 20.1863C38.1991 20.1553 38.1385 20.2 37.9994 20.2V18.2ZM35.3955 20.0318C35.7828 20.2531 35.6737 20.6229 35.6946 20.3608C35.7083 20.1895 35.7734 19.9207 35.8902 19.5519C35.9457 19.3766 36.0071 19.1959 36.0711 19.0088C36.1338 18.8257 36.2 18.633 36.2588 18.4509C36.3611 18.1339 36.4994 17.6838 36.4994 17.3H34.4994C34.4994 17.2833 34.5001 17.3191 34.4723 17.4355C34.4469 17.5416 34.4079 17.6743 34.3555 17.8366C34.3034 17.9982 34.2439 18.1712 34.1788 18.3615C34.115 18.5479 34.0468 18.7484 33.9835 18.9481C33.8628 19.3293 33.7342 19.7855 33.701 20.2017C33.675 20.5271 33.6659 21.3469 34.4032 21.7682L35.3955 20.0318ZM36.4994 17.3C36.4994 16.9207 36.3425 16.6188 36.2102 16.4245C36.0736 16.2239 35.9041 16.0521 35.7496 15.913C35.4434 15.6374 35.0565 15.3694 34.7436 15.1528C34.3971 14.9129 34.1388 14.7339 33.97 14.5838C33.8842 14.5076 33.8802 14.4889 33.9015 14.5236C33.9204 14.5543 34.0564 14.7913 33.948 15.1162L32.0507 14.4838C31.8924 14.9587 32.0689 15.3613 32.1972 15.5701C32.3278 15.7829 32.502 15.9549 32.6412 16.0787C32.9224 16.3286 33.3016 16.5871 33.6051 16.7972C33.9422 17.0306 34.2178 17.2251 34.4116 17.3995C34.5071 17.4854 34.547 17.5355 34.5572 17.5505C34.5718 17.5718 34.4994 17.4793 34.4994 17.3H36.4994ZM33.948 15.1162C33.8517 15.4053 33.64 15.5125 33.6102 15.5266C33.5763 15.5426 33.5903 15.5296 33.6951 15.5139C33.9008 15.4829 34.2033 15.475 34.5994 15.475C34.9607 15.475 35.4056 15.4817 35.7824 15.461C35.9746 15.4504 36.1813 15.4314 36.3771 15.3931C36.556 15.358 36.8162 15.2906 37.0541 15.1321L35.9447 13.468C36.0325 13.4094 36.0771 13.4138 35.9927 13.4304C35.9252 13.4436 35.821 13.4558 35.6725 13.464C35.3681 13.4808 35.013 13.475 34.5994 13.475C34.2204 13.475 33.773 13.4796 33.3974 13.5361C33.2115 13.5641 32.9771 13.6136 32.755 13.7187C32.5368 13.8219 32.197 14.0447 32.0507 14.4838L33.948 15.1162ZM37.0541 15.1321C37.3283 14.9492 37.493 14.6914 37.5854 14.5253C37.689 14.339 37.7732 14.1336 37.8425 13.9426C37.9796 13.5648 38.1043 13.1103 38.2109 12.7372C38.3274 12.3294 38.4216 12.0217 38.5096 11.8243C38.5562 11.7199 38.5675 11.7252 38.5261 11.7705C38.483 11.8179 38.2374 12.0535 37.835 11.9864L38.1638 10.0136C37.6113 9.92153 37.2251 10.229 37.0484 10.4228C36.8734 10.6147 36.7582 10.8411 36.6829 11.0101C36.5271 11.3596 36.3963 11.8081 36.2878 12.1878C36.1694 12.6022 36.0691 12.9665 35.9624 13.2605C35.9099 13.4055 35.8675 13.4993 35.8375 13.5533C35.7963 13.6273 35.8205 13.5508 35.9447 13.468L37.0541 15.1321ZM32.0442 42.9991C35.3241 42.8522 38.4194 43.0719 41.3438 43.3457C44.243 43.6171 47.0309 43.9489 49.5795 43.9999L49.6195 42.0003C47.1681 41.9512 44.506 41.633 41.5302 41.3544C38.5797 41.0782 35.3749 40.8479 31.9548 41.0011L32.0442 42.9991ZM49.5995 44.0001C49.982 44.0001 50.4033 43.8643 50.7146 43.5086C51.0106 43.1703 51.0995 42.7557 51.0995 42.4001H49.0995C49.0995 42.4444 49.0884 42.3298 49.2094 42.1916C49.3457 42.0358 49.517 42.0001 49.5995 42.0001V44.0001ZM51.0995 42.4001C51.0995 42.1649 51.0703 41.7892 51.0543 41.4916C51.0361 41.1535 51.0264 40.8117 51.0472 40.5052C51.0692 40.1803 51.1203 39.9924 51.1616 39.9103C51.1791 39.8755 51.1147 39.9856 50.9826 39.9966L50.8165 38.0035C50.0843 38.0645 49.6199 38.5246 49.3749 39.0116C49.1537 39.4514 49.0798 39.9573 49.0518 40.3699C49.0226 40.8009 49.0379 41.2404 49.0572 41.5991C49.0787 41.9984 49.0995 42.2352 49.0995 42.4001H51.0995ZM50.9619 39.9981C50.8891 40.0027 50.8917 39.9871 51.0187 40.024C51.1274 40.0556 51.2786 40.1112 51.4744 40.1967C51.865 40.3674 52.3676 40.6284 52.9519 40.965C54.117 41.6362 55.5406 42.5692 56.9253 43.5724C58.312 44.577 59.6344 45.6336 60.6062 46.5485C61.0942 47.0078 61.4717 47.411 61.7224 47.7386C61.8477 47.9021 61.9268 48.0283 61.972 48.1178C62.0218 48.2164 62.0042 48.2193 62.0008 48.15L63.9983 48.0501C63.9823 47.7308 63.8718 47.4431 63.7575 47.2166C63.6385 46.9809 63.4824 46.7474 63.3106 46.5229C62.9672 46.0743 62.5033 45.5876 61.9772 45.0923C60.9208 44.0978 59.5245 42.9856 58.0987 41.9527C56.6709 40.9184 55.1883 39.9452 53.9502 39.232C53.333 38.8764 52.7598 38.5757 52.275 38.364C52.0331 38.2583 51.7968 38.1674 51.5773 38.1036C51.3761 38.0451 51.1099 37.985 50.8371 38.002L50.9619 39.9981ZM61.9995 48.1001C61.9995 47.9747 62.0406 47.9387 61.991 48.0317C61.9498 48.1091 61.8715 48.2275 61.7405 48.3883C61.4794 48.7092 61.081 49.1117 60.565 49.574C59.5383 50.494 58.1391 51.5685 56.6897 52.58C55.2411 53.5909 53.7702 54.5195 52.6071 55.1531C52.0215 55.4721 51.541 55.7014 51.1936 55.8314C51.0171 55.8974 50.9094 55.9246 50.8586 55.9328C50.758 55.9492 50.938 55.8911 51.1784 56.0222L50.2207 57.778C50.5985 57.9841 50.9949 57.9369 51.1793 57.9069C51.4134 57.8689 51.6591 57.7926 51.8941 57.7047C52.3698 57.5268 52.9447 57.2467 53.5638 56.9095C54.8101 56.2306 56.3454 55.2592 57.8343 54.2201C59.3224 53.1816 60.792 52.0561 61.8997 51.0636C62.4508 50.5697 62.936 50.0878 63.2917 49.6508C63.4692 49.4328 63.6325 49.2039 63.7559 48.9725C63.871 48.7567 63.9995 48.4505 63.9995 48.1001H61.9995ZM51.1467 56.0056C51.194 56.0293 51.178 56.0582 51.141 55.9535C51.098 55.8315 51.0673 55.6338 51.0618 55.3437C51.0565 55.0585 51.0752 54.7615 51.0933 54.4386C51.109 54.1572 51.1303 53.784 51.0918 53.476L49.1072 53.7241C49.1187 53.8161 49.115 53.9929 49.0964 54.3271C49.08 54.6198 49.0551 55.0041 49.0622 55.3814C49.0692 55.7538 49.1073 56.1999 49.2549 56.6185C49.4086 57.0544 49.705 57.5209 50.2523 57.7945L51.1467 56.0056ZM51.0995 53.6001C51.0995 53.0317 50.7522 52.6321 50.5435 52.4443C50.4188 52.3321 50.2762 52.2329 50.1248 52.1572C49.9918 52.0907 49.7686 52.0001 49.4995 52.0001V54.0001C49.405 54.0001 49.3362 53.9833 49.3022 53.9734C49.2652 53.9626 49.2413 53.9515 49.2304 53.946C49.2186 53.9401 49.2123 53.936 49.2103 53.9346C49.2081 53.933 49.2068 53.9319 49.2056 53.9309C49.2044 53.9298 49.2008 53.9265 49.1953 53.9199C49.19 53.9135 49.1799 53.9006 49.168 53.88C49.1471 53.8439 49.0995 53.7468 49.0995 53.6001H51.0995ZM49.4995 52.0001C48.2111 52.0001 46.4574 52.2318 44.5993 52.5231C42.6773 52.8243 40.7187 53.1763 38.7616 53.4739C36.8332 53.7673 35.0814 53.9785 33.7602 53.9829C33.0952 53.9851 32.6016 53.9339 32.2721 53.844C31.9156 53.7469 31.9509 53.6624 32.0016 53.7686L30.1974 54.6315C30.5232 55.3127 31.1897 55.622 31.7461 55.7736C32.3295 55.9327 33.0303 55.9853 33.7669 55.9829C35.2489 55.9779 37.1284 55.7454 39.0624 55.4512C40.9678 55.1614 43.103 54.782 44.9091 54.4989C46.7791 54.2058 48.3879 54.0001 49.4995 54.0001V52.0001ZM32.0075 53.781C32.0742 53.9256 32.0226 53.9958 32.0574 53.8721C32.0892 53.7593 32.1668 53.5819 32.3145 53.3343C32.609 52.8408 33.0707 52.2492 33.5964 51.6108C34.0992 51.0003 34.6735 50.3322 35.1008 49.7723C35.3169 49.489 35.5219 49.1998 35.6767 48.9273C35.8091 48.6944 35.9995 48.3169 35.9995 47.9001H33.9995C33.9995 47.7582 34.0493 47.7432 33.9379 47.9392C33.849 48.0957 33.7071 48.3018 33.5108 48.5591C33.113 49.0804 32.5999 49.6748 32.0526 50.3393C31.5284 50.9759 30.9775 51.6718 30.597 52.3095C30.4072 52.6276 30.2317 52.9767 30.1322 53.3303C30.0358 53.6731 29.9748 54.1495 30.1916 54.6191L32.0075 53.781ZM35.9995 47.9001C35.9995 47.6871 35.9467 47.4969 35.9058 47.3727C35.8603 47.2345 35.8009 47.0948 35.7386 46.9624C35.6141 46.6976 35.447 46.397 35.2658 46.0894C34.9048 45.4765 34.4297 44.7392 34.0091 44.0687C33.5734 43.374 33.2006 42.7579 32.9897 42.3196C32.8748 42.0807 32.858 41.9943 32.8606 42.0125C32.8607 42.0135 32.8918 42.1931 32.7818 42.4163C32.6302 42.7237 32.3413 42.8682 32.1099 42.8939L31.8891 40.9062C31.5452 40.9444 31.1813 41.1397 30.988 41.5318C30.8362 41.8396 30.8588 42.1378 30.8795 42.2869C30.923 42.6011 31.0633 42.9287 31.1875 43.1867C31.4547 43.7422 31.8882 44.4512 32.3149 45.1314C32.7568 45.8359 33.2004 46.5236 33.5426 47.1044C33.713 47.3937 33.8435 47.6322 33.9287 47.8135C33.9714 47.9042 33.9949 47.9642 34.0061 47.9982C34.0219 48.0462 33.9995 48.0005 33.9995 47.9001H35.9995ZM30.9995 41.9001V42.0001H32.9995V41.9001H30.9995Z" fill="#494A4A"/>
<path id="1px" d="M26.1992 27.5C26.8992 27.5 41.0992 27.3 42.4992 27.5M22.499 33.5C23.799 33.5 41.699 33.5 42.499 33.5M22.499 39.5C25.199 39.5 26.899 39.5 27.599 39.5M22.499 45.5C23.999 45.5 27.199 45.5 27.599 45.5M54.199 43.8001C55.399 44.7001 57.999 46.5001 58.399 46.8001M37.599 49.5001C35.099 52.9001 36.299 52.1001 39.399 51.1001M14.4988 51.5C14.4988 54.4 14.2988 55.5 20.3988 55.5" stroke="#494A4A" stroke-linecap="round" stroke-linejoin="round"/>
</g>
</g>
</svg>
