<svg width="64" height="64" viewBox="0 0 64 64" fill="none" xmlns="http://www.w3.org/2000/svg">
<g id="Pictogram-cloud-security" clip-path="url(#clip0_622_41942)">
<g id="stroke-default">
<path id="2px-stroke-default" d="M46.9998 29.3003C51.8998 28.7003 54.9998 31.5003 55.8998 36.2003M49.9998 48.0003C67.4998 52.2003 66.0998 29.4003 53.1998 30.9003M52.3998 48.8003C51.4998 53.4003 44.6998 55.0003 39.8998 52.5003M43.5998 47.7003C36.4998 59.7003 19.4998 61.4003 12.6998 45.0003M14.0998 48.5003C-1.70021 48.9003 -3.80021 30.7003 10.9998 28.5003M11.2998 30.6003C10.1998 22.9003 19.7998 19.3003 24.6998 22.9003M23.6998 24.8003C28.9998 13.4003 50.6998 12.6003 52.9998 30.7003" stroke="#494A4A" stroke-width="2" stroke-linecap="round" stroke-linejoin="round"/>
<path id="1px-stroke-default" d="M17 51.9004L11 57M26.1001 15L28.8001 19.1M28.2002 8.9002L34.0002 5.2002M19.4999 10.2996L15.3999 9.59961M50.2002 22.8L54.9002 19M17.6001 45.7998C18.3001 47.3998 19.9001 49.1998 21.5001 50.1998M28.5 10.9999C28.5 13.4999 26.5 15.4999 24 15.4999C21.5 15.4999 19.5 13.4999 19.5 10.9999C19.5 8.4999 21.6 6.8999 24 6.4999C27 5.9999 28.5 8.4999 28.5 10.9999ZM39.5 3.5C39.5 5.2 38.7 6.3 36.5 6.5C34.9 6.7 33.5 5.2 33.5 3.5C33.5 1.8 34.8 0.5 36.5 0.5C38.2 0.5 39.5 1.8 39.5 3.5ZM15.5 9C15.5 10.4 14.4 11.7 13 11.5C11.6 11.3 10.5 10.4 10.5 9C10.5 7.6 12.2 6.5 13 6.5C14.2 6.5 15.5 7.6 15.5 9ZM4.90016 57.2002C4.00016 58.9002 4.70005 61.1002 6.30005 62.1002C7.90005 63.1002 10.4 62.6002 11.4 60.9002C12.1 59.7002 11.4 56.9002 9.70005 55.9002C8.00005 54.9002 5.70016 55.9002 4.90016 57.2002ZM63.5 15.5001C63.5 19.0001 61.3 20.5001 58.5 20.5001C55.7 20.5001 53.5 18.3001 53.5 15.5001C53.5 12.7001 54.7 10.2001 58.5 10.5001C61.3 10.7001 63.5 12.7001 63.5 15.5001Z" stroke="#494A4A" stroke-linecap="round"/>
</g>
</g>
<defs>
<clipPath id="clip0_622_41942">
<rect width="64" height="64" fill="white"/>
</clipPath>
</defs>
</svg>
