<svg width="64" height="64" viewBox="0 0 64 64" fill="none" xmlns="http://www.w3.org/2000/svg">
<g id="  Pictogram-search" clip-path="url(#clip0_426_761)">
<g id="stroke-default">
<path id="2px" d="M39.2012 41.7998L43.0012 45.6998M41.7012 39.2998L45.9012 43.2998M32.9009 14C33.6009 14 34.2009 14 34.9009 14M38.7009 14.7C40.3009 15.2 41.9009 15.9 43.2009 16.8M44.6009 18C44.6009 18 45.5009 19 45.9009 19.5M22.9011 45.7C22.3011 45.3 21.8011 44.9 21.3011 44.4M18.6011 41.1C14.8011 34.8 15.3011 26 19.1011 20.8M20.5011 19.2C20.5011 19.2 21.5011 18.3 22.1011 18M47.001 25C47.001 37.1503 37.1512 47 25.001 47C12.8507 47 3.00098 37.1503 3.00098 25C3.00098 12.8497 12.8507 3 25.001 3C37.1512 3 47.001 12.8497 47.001 25ZM42.3007 47.8003C44.2007 52.1003 49.8007 59.0003 52.7007 61.7003C53.9007 62.9003 56.0007 63.4003 57.5007 62.9003C60.0007 62.0003 61.8007 59.8003 62.7007 57.6003C63.4007 55.9003 62.9007 55.0003 61.7007 53.5003C59.1007 50.3003 51.7007 44.9003 48.1007 43.2003C46.2007 42.3003 41.7007 46.5003 42.3007 48.0003V47.8003ZM28.001 15C28.001 15.5523 27.5533 16 27.001 16C26.4487 16 26.001 15.5523 26.001 15C26.001 14.4477 26.4487 14 27.001 14C27.5533 14 28.001 14.4477 28.001 15ZM55.001 27C55.001 27.5523 54.5533 28 54.001 28C53.4487 28 53.001 27.5523 53.001 27C53.001 26.4477 53.4487 26 54.001 26C54.5533 26 55.001 26.4477 55.001 27ZM4.80078 58.5C4.80078 59.0523 4.35307 59.5 3.80078 59.5C3.2485 59.5 2.80078 59.0523 2.80078 58.5C2.80078 57.9477 3.2485 57.5 3.80078 57.5C4.35307 57.5 4.80078 57.9477 4.80078 58.5Z" stroke="#494A4A" stroke-width="2" stroke-linecap="round" stroke-linejoin="round"/>
<path id="1px" d="M52.1985 41.0001C50.7985 39.6001 49.0985 39.3001 46.9985 39.9001M50.5985 38.2001C49.5985 37.6001 48.7985 37.5001 47.5985 37.7001M47.3983 50.8996C46.5983 49.8996 44.9983 48.1996 45.1983 47.0996M10.1983 15.7002C7.69834 18.1002 6.79834 22.3002 7.29834 26.6002M57.7984 25.5997C57.7984 25.5997 58.5984 24.8997 58.7984 24.4997M59.0984 20.6997C58.6984 19.4997 58.0984 18.2997 57.2984 17.2997C51.9984 10.6997 59.7984 5.79969 62.5984 10.1997M63.2984 11.9997C63.2984 11.9997 63.4984 12.9997 63.4984 13.4997M47.0986 26.5C47.7986 26.9 49.0986 27.3 49.8986 27.4M6.29834 61.6002C6.29834 61.6002 7.19834 62.1002 7.69834 62.2002M11.2983 63.3002C20.0983 64.8002 28.4983 58.4002 29.3983 50.1002M29.5983 48.2002C29.5983 47.7002 29.5983 47.2002 29.4983 46.7002M13.3984 56.5995C13.5984 56.0995 13.6984 55.5995 13.7984 55.0995M13.5984 51.5995C11.5984 45.8995 1.49844 46.1995 0.898438 52.2995M0.998437 53.9995C0.998437 53.9995 1.19844 54.9995 1.39844 55.4995" stroke="#494A4A" stroke-linecap="round" stroke-linejoin="round"/>
</g>
</g>
<defs>
<clipPath id="clip0_426_761">
<rect width="64" height="64" fill="white"/>
</clipPath>
</defs>
</svg>
