<svg width="64" height="64" viewBox="0 0 64 64" fill="none" xmlns="http://www.w3.org/2000/svg">
<g id="Pictogram-mail-sent" clip-path="url(#clip0_426_1512)">
<g id="stroke-default">
<path id="2px-stroke-default" d="M16.1001 23.7003C16.2001 19.8003 16.4001 13.1003 16.6001 10.5003C16.9001 7.00027 18.3001 4.70027 22.5001 4.10027C27.5001 3.30027 36.8001 3.60027 40.5001 4.10027C44.2001 4.60027 46.0001 7.10027 46.4001 10.5003C47.1001 16.1003 47.3001 32.5003 46.9001 43.2003M46.6 47.5C46.6 50 46.5 50.9 46.3 52.7C46 55.5 43.9 58.3 40.5 58.7C35.1 59.5 27.7 59.6 22.5 58.7C21 58.4 19.5 57.9 18.5 56.9M32.9001 59.2999C30.4001 61.0999 15.1001 68.1999 5.10011 58.2999C-2.29989 51.0999 3.70011 33.2999 15.0001 24.6999C18.8001 21.7999 21.0001 26.0999 27.3001 28.5999C30.8001 29.9999 28.6001 36.2999 19.1001 34.0999C18.0001 35.1999 14.5001 39.5999 16.6001 45.3999C17.8001 48.7999 18.5001 53.6999 18.0001 57.5999M47 24.7002C48.8 26.1002 52 26.8002 53 27.5002C56.3 29.7002 52.9 34.2002 47.9 33.1002M47.7 35.0996C50.2 36.2996 53.3 38.5996 54.2 41.2996C54.7 42.7996 52.7 46.5996 50.7 48.4996C49.7 49.4996 43.5 48.4996 47.3 42.3996C47.7 41.6996 48.5 40.6996 47.9 39.5996M50.0999 48.7998C51.3999 50.9998 52.1999 53.8998 51.7999 56.8998C51.3999 60.0998 46.0999 59.7998 45.3999 55.2998M56 10.7004C56 10.7004 54.6 12.0004 53.6 11.7004C52.7 11.4004 53.4 9.30042 52.9 9.10042C51.5 8.70042 49.6 7.60042 50 6.80042C50.7 5.10042 59.9 0.000424355 61.6 1.20042C63 2.20042 59.8 12.0004 59 12.3004C58.4 12.5004 56.8 11.5004 56 10.7004Z" stroke="#494A4A" stroke-width="2" stroke-linecap="round" stroke-linejoin="round"/>
<path id="1px-stroke-default" d="M31.1997 36.6996C31.1997 36.6996 30.8997 37.6996 30.6997 38.0996M52.8838 23.3455C51.8377 21.528 51.1806 19.7052 51.2997 17.7996M56.7898 28.8429C55.9241 27.7082 55.0596 26.5995 54.2808 25.5M60.0221 33.5C59.4186 32.4695 58.7382 31.4728 58.03 30.5M56.6609 53C57.5442 52.1935 58.3636 51.262 59.0997 50.1996M45.5 57.1228C47.0053 57.1507 48.5222 56.9812 50 56.5991M32.4734 50.5C33.3108 51.7112 34.337 52.775 35.5 53.6756M62.2902 39.8288C62.1446 38.4913 61.7845 37.2196 61.2792 36M60.6309 47.6908C61.4894 46.0374 61.9944 44.4787 62.22 43M52.2207 55.8478C53.1819 55.4412 54.1136 54.9342 55 54.3222M37.5146 55C38.6096 55.6066 39.7819 56.0906 41 56.4426M30.0997 42.1996C30.0317 44.1994 30.356 46.0382 30.9894 47.6908M51.5997 15.9996C51.5997 15.9996 51.9997 15.0996 52.1997 14.5996M53 9.2C53 9.2 59 3.6 60 3C59.6 4.5 56.6 8.6 55.5 10.8M29.2998 25.4C29.4998 24.9 29.8998 23.7 29.9998 23.5M32.2002 28.2996C32.8002 27.9996 35.2002 26.7996 36.5002 26.0996M32.8999 32.7998C33.5999 32.9998 35.0999 33.1998 35.6999 33.1998" stroke="#494A4A" stroke-linecap="round" stroke-linejoin="round"/>
</g>
</g>
<defs>
<clipPath id="clip0_426_1512">
<rect width="64" height="64" fill="white"/>
</clipPath>
</defs>
</svg>
