<svg width="64" height="64" viewBox="0 0 64 64" fill="none" xmlns="http://www.w3.org/2000/svg">
<g id="Pictogram-global-settings">
<g id="stroke-default">
<path id="2px" d="M35 61.8499C34.0032 61.9513 33.0019 62.0013 32 61.9999C26.0666 61.9999 20.2664 60.2404 15.3329 56.944C10.3994 53.6475 6.55426 48.9622 4.28363 43.4804C2.013 37.9986 1.4189 31.9666 2.57645 26.1472C3.73401 20.3278 6.59123 14.9823 10.7868 10.7867C14.9824 6.59111 20.3279 3.73389 26.1473 2.57633C31.9667 1.41878 37.9987 2.01288 43.4805 4.28351C48.9623 6.55413 53.6477 10.3993 56.9441 15.3328C60.2405 20.2663 62 26.0665 62 31.9999C62.0198 32.8112 61.9864 33.6229 61.9 34.4299M59.91 38.3799C59.91 39.2799 57.26 41.5899 57.26 41.5899L58.74 44.3499C58.74 44.3499 61.81 44.0999 62.56 45.0499C63.31 45.9999 63 50.9999 62.27 51.7399C61.54 52.4799 58.48 52.5299 58.48 52.5299L56.83 55.1999C56.83 55.1999 58.44 57.6499 58.06 59.0199C57.68 60.3899 53.42 62.3199 52.16 62.0199C50.9 61.7199 49.61 59.0199 49.61 59.0199L46.48 58.9999C46.48 58.9999 45.25 61.9099 44.1 62.1399C41.92 62.5699 37.73 58.8899 37.28 57.6899C36.83 56.4899 39.52 54.6899 39.52 54.6899L38 51.8899C36.6575 51.8538 35.3273 51.6248 34.05 51.2099C33.05 50.6599 33.93 43.8499 34.65 43.2099C35.37 42.5699 38.26 43.6699 38.26 43.6699L40 40.9999C40 40.9999 38.74 37.9999 39.06 37.2199C39.38 36.4399 43.21 34.0199 44.59 34.2199C45.97 34.4199 47.22 37.2199 47.22 37.2199C48.4476 37.1546 49.6785 37.1914 50.9 37.3299C51.51 37.4199 51.83 34.1599 52.9 34.0399C53.97 33.9199 60 37.4799 59.91 38.3799Z" stroke="#494A4A" stroke-width="2" stroke-linecap="round" stroke-linejoin="round"/>
<path id="1px" d="M16.47 6.32986C19 4.99986 21.3 8.67986 19.62 10.6999C17.11 13.6999 13.97 12.7599 12.72 13.8499C10.94 15.4099 11.4 19.3299 9.32002 20.9199C6.91002 22.7599 3.41002 21.6199 2.70002 26.3299M2.56002 26.9999C2.27002 33.2499 8.56002 32.7999 8.67002 36.7499C8.80002 40.0999 4.58002 44.9999 9.34002 51.3499M59.41 20.6799C58.3 23.2599 59.86 25.6799 58.89 26.0199C58.18 26.2899 57.38 24.8699 55.81 23.3299C54.24 21.7899 52.4 21.3299 51.11 22.2199C50.39 22.7199 53.01 23.2199 53.11 24.1599C53.21 25.0999 51.03 27.4099 49.79 27.5099C48.37 27.6299 45.54 23.5899 44.21 24.3399C43.21 24.9099 44.04 27.4199 46.27 28.5399C48.5 29.6599 50.69 29.1999 50.87 30.3299C50.95 30.8299 50.41 31.2699 50.06 31.9999M32.53 39.8699C32.08 37.6599 31.27 35.6599 29.63 34.5499C27.52 33.1199 19.63 37.7699 19.63 29.0599C19.63 20.3499 28.85 20.7199 30.63 20.8199C33.57 20.9699 38.54 24.4899 42.31 22.4299C45.52 20.6799 45.73 18.0099 44.78 17.1299C43.58 16.0199 42.56 18.1299 38.92 18.4199C36.38 18.6199 33.52 15.2499 33.71 16.5099C34 18.3899 31.78 19.0099 31.06 17.0799C30.67 16.0799 29.06 16.1799 28.3 18.3199C28.09 18.9499 26.02 19.5299 25.3 19.0599C24.58 18.5899 24.15 16.3499 25.3 15.7099C26.45 15.0699 27.04 15.9599 27.61 15.2199C28.18 14.4799 26.98 13.2199 27.41 12.4799C27.84 11.7399 30.75 11.9899 32.41 10.5399C34.07 9.08986 31.98 6.53986 34.15 5.35986C36.32 4.17986 40.46 6.56986 41.08 3.35986M25.56 36.5899C27.74 36.2299 28.77 36.3699 29.43 37.7899M11.22 35.8199C11.73 39.1699 10.65 40.5899 10.22 42.5199M24.08 24.4399C23.4402 24.6996 22.8848 25.1313 22.4753 25.6873C22.0658 26.2433 21.8182 26.9018 21.76 27.5899M42.7 42.3699C42.0454 43.3385 41.4766 44.3624 41 45.4299M47.59 55.6999C48.7131 55.5345 49.8561 55.5616 50.97 55.7799C51.5859 56.2035 52.0598 56.8029 52.33 57.4999M59.14 49.0699C57.06 49.2099 56.2 49.8199 55.44 51.7399M28.22 5.58986C26.77 5.83986 27.07 9.78986 28.9 9.32986C30.39 8.99986 30 5.28986 28.22 5.58986ZM52.36 47.2099C52.36 49.1539 50.7841 50.7299 48.84 50.7299C46.896 50.7299 45.32 49.1539 45.32 47.2099C45.32 45.2658 46.896 43.6899 48.84 43.6899C50.7841 43.6899 52.36 45.2658 52.36 47.2099Z" stroke="#494A4A" stroke-linecap="round" stroke-linejoin="round"/>
</g>
</g>
</svg>
