<svg width="64" height="64" viewBox="0 0 64 64" fill="none" xmlns="http://www.w3.org/2000/svg">
<g id="Pictogram-files-settings" clip-path="url(#clip0_426_2282)">
<g id="stroke-default">
<path id="2px" d="M55 30.5901C55 24.0001 54.84 18.0001 54.61 15.4801C54.22 11.4201 53.35 9.84006 50.12 9.54006C45.52 9.12006 41.12 9.04006 37.38 9.04006C32.08 9.04006 29.03 11.7401 25.74 15.0401C21.64 19.2501 18 21.9001 18 29.2201C18 32.8001 18.12 49.6901 18.23 55.6101C18.1907 56.2459 18.2808 56.883 18.4948 57.483C18.7088 58.083 19.0423 58.6333 19.4751 59.1007C19.908 59.5681 20.4311 59.9429 21.0129 60.2023C21.5947 60.4617 22.2231 60.6005 22.86 60.6101C25.46 60.8301 30.29 61.0101 35.24 61.0601M18.06 28.1301C18.23 25.6501 19.26 23.9001 21.43 23.4201C22.68 23.1401 25.84 22.7601 27.56 22.3401C30.16 21.6901 31.22 20.5801 31.81 17.9701C32.16 16.4201 32.22 13.9701 32.4 12.6701C32.66 10.7901 34.4 9.03006 37.32 9.03006M50.06 9.40006C49.94 7.06006 48.64 5.62006 47.06 5.40006C39.56 4.24006 18.31 6.00006 14.17 6.87006C11.17 7.52006 10.07 9.71006 9.99 12.6201C9.84 18.0501 11.57 45.1401 12.53 54.2201C12.85 57.2201 13.73 59.0101 19.06 59.0101M42.75 5.00006C42.26 2.20006 40.53 1.25006 38.89 1.10006C31.54 0.450059 10.89 2.80006 6.89 3.82006C4 4.58006 3 6.76006 3 9.61006C3.06 14.9101 6 42.4401 6.9 50.3901C7.25 53.3901 8.31 55.1501 12.46 54.9901M60 38.3601C59.94 39.2501 57.37 41.5501 57.37 41.5501L58.84 44.3001C58.84 44.3001 61.84 44.0501 62.62 45.0001C63.4 45.9501 63.05 50.8901 62.33 51.6501C61.61 52.4101 58.58 52.4401 58.58 52.4401L56.9 55.0901C56.9 55.0901 58.5 57.5401 58.12 58.9001C57.74 60.2601 53.53 62.1801 52.29 61.9001C51.05 61.6201 49.77 58.9001 49.77 58.9001L46.67 58.8001C46.67 58.8001 45.46 61.7001 44.32 61.9301C42.17 62.3501 38.02 58.6801 37.58 57.4901C37.14 56.3001 39.8 54.4901 39.8 54.4901L38.33 51.8001C37.0007 51.7635 35.6836 51.5345 34.42 51.1201C33.48 50.5801 34.31 43.8001 35.02 43.2001C35.73 42.6001 38.59 43.6601 38.59 43.6601L40.22 41.0001C40.22 41.0001 38.98 38.0001 39.29 37.2401C39.6 36.4801 43.39 34.0501 44.76 34.2401C46.13 34.4301 47.35 37.1701 47.35 37.1701C48.5646 37.1104 49.782 37.1506 50.99 37.2901C51.59 37.3801 51.91 34.1301 52.94 34.0101C53.97 33.8901 60 37.4601 60 38.3601Z" stroke="#494A4A" stroke-width="2" stroke-linecap="round" stroke-linejoin="round"/>
<path id="1px" d="M14.4902 11.5001C13.1802 12.1301 13.5502 14.6901 13.5502 16.6001M46.4302 28.5801C45.0102 28.4601 32.2202 28.5801 31.4302 28.5801M35.6902 33.5701C34.1702 33.4401 28.4902 33.5701 27.6902 33.5701M33.6802 39.5301C32.1602 39.4001 28.4902 39.5301 27.6802 39.4801M21.5302 53.4801C21.5302 56.4801 21.3102 57.4801 27.4702 57.4801M42.9402 42.3301C42.2894 43.2782 41.7238 44.2821 41.2502 45.3301M47.7702 55.5901C48.8804 55.4275 50.0103 55.4579 51.1102 55.6801C51.7196 56.0995 52.1897 56.6915 52.4602 57.3801M59.1902 49.0001C57.1302 49.1401 56.2802 49.7401 55.5202 51.6501M52.4802 47.0101C52.4802 48.9431 50.9221 50.5101 49.0002 50.5101C47.0782 50.5101 45.5202 48.9431 45.5202 47.0101C45.5202 45.0771 47.0782 43.5101 49.0002 43.5101C50.9221 43.5101 52.4802 45.0771 52.4802 47.0101Z" stroke="#494A4A" stroke-linecap="round" stroke-linejoin="round"/>
</g>
</g>
<defs>
<clipPath id="clip0_426_2282">
<rect width="64" height="64" fill="white"/>
</clipPath>
</defs>
</svg>
