<svg width="64" height="64" viewBox="0 0 64 64" fill="none" xmlns="http://www.w3.org/2000/svg">
<g id="Pictogram-folder-settings">
<g id="stroke-default">
<path id="2px" d="M61.0006 32.8002C61.0006 29.4002 60.9006 23.3002 60.7006 21.2002C60.5006 19.1002 59.4006 17.5002 56.8006 17.3002C49.6006 16.9002 15.9006 16.7002 5.00057 17.5002C2.90057 17.7002 1.70057 19.0002 1.50057 20.7002C0.600573 26.9002 1.10057 42.7002 2.30057 51.9002C2.70057 55.1002 5.10057 56.3002 8.20057 56.6002C11.3006 56.9002 20.8006 56.9002 30.4006 56.9002M4.00049 17.3002C4.00049 15.3002 4.00049 12.4002 4.20049 10.8002C4.50049 8.50024 5.30049 7.50024 7.90049 7.20024C10.2005 6.90024 14.8005 6.90024 16.9005 7.00024C18.9005 7.00024 19.9005 7.40024 21.1005 8.30024C22.1005 9.00024 23.0005 10.7002 23.8005 11.3002C24.9005 12.0002 26.2005 12.0002 27.8005 12.0002C37.1005 12.0002 48.3005 12.0002 52.6005 12.2002C55.2005 12.3002 56.3005 13.5002 56.7005 14.9002C56.9005 15.8002 57.0005 16.5002 56.9005 17.3002M53.0005 48C53.0005 50.7614 50.7619 53 48.0005 53C45.2391 53 43.0005 50.7614 43.0005 48C43.0005 45.2386 45.2391 43 48.0005 43C50.7619 43 53.0005 45.2386 53.0005 48ZM41.0005 39C41.0005 40.1046 40.1051 41 39.0005 41C37.8959 41 37.0005 40.1046 37.0005 39C37.0005 37.8954 37.8959 37 39.0005 37C40.1051 37 41.0005 37.8954 41.0005 39ZM63.0005 40C63.0005 41.6569 61.6573 43 60.0005 43C58.3436 43 57.0005 41.6569 57.0005 40C57.0005 38.3431 58.3436 37 60.0005 37C61.6573 37 63.0005 38.3431 63.0005 40ZM51.0005 32.5C51.0005 34.433 49.4335 36 47.5005 36C45.5675 36 44.0005 34.433 44.0005 32.5C44.0005 30.567 45.5675 29 47.5005 29C49.4335 29 51.0005 30.567 51.0005 32.5ZM40.0005 51C40.0005 53.2091 38.2096 55 36.0005 55C33.7913 55 32.0005 53.2091 32.0005 51C32.0005 48.7909 33.7913 47 36.0005 47C38.2096 47 40.0005 48.7909 40.0005 51ZM48.0005 60C48.0005 61.1046 47.1051 62 46.0005 62C44.8959 62 44.0005 61.1046 44.0005 60C44.0005 58.8954 44.8959 58 46.0005 58C47.1051 58 48.0005 58.8954 48.0005 60ZM63.0005 59.5C63.0005 61.433 61.4335 63 59.5005 63C57.5675 63 56.0005 61.433 56.0005 59.5C56.0005 57.567 57.5675 56 59.5005 56C61.4335 56 63.0005 57.567 63.0005 59.5Z" stroke="#494A4A" stroke-width="2" stroke-linecap="round" stroke-linejoin="round"/>
<path id="1px" d="M6.5 49C6.5 50.2 6.5 51.3 7.1 51.8C7.9 52.4 9 52.5 10.7 52.5M52.5 45.7004L57.7 41.9004M51.3999 51.5996L56.8999 57.0996M46.3999 58.0004L47.1999 52.9004M39.8999 50.2L43.1999 49.5M40.5 40.2998L44.6 44.2998M47.7002 36L48.0002 43" stroke="#494A4A" stroke-linecap="round" stroke-linejoin="round"/>
</g>
</g>
</svg>
