<svg width="64" height="64" viewBox="0 0 64 64" fill="none" xmlns="http://www.w3.org/2000/svg">
<g id="  Pictogram-gold-rank-3" clip-path="url(#clip0_622_41971)">
<g id="stroke-default">
<path id="2px" d="M15.9016 43.2998C15.7016 48.7998 13.8016 61.7998 15.8016 62.7998C18.8016 64.1998 29.9016 57.9998 31.9016 58.0998C35.0016 58.2998 45.5016 64.1998 47.9016 62.8998C49.8016 61.8998 48.7016 51.6998 48.4016 46.4998M16.7013 12.5003C13.5013 9.20034 7.00132 6.40034 5.20132 7.30034C4.10132 7.90034 2.50132 12.2003 3.10132 14.6003C3.30132 15.6003 3.80132 16.5003 4.40132 17.4003C3.20132 17.0003 1.9016 17.1004 1.3016 17.9004C0.501597 18.9004 1.0016 23.2004 1.6016 24.5004C2.5016 26.4004 6.7016 28.9004 9.2016 30.1004M47.3013 11.2003C50.4013 8.00028 56.9013 6.40028 58.7013 7.30028C59.8013 7.90028 61.4013 12.2003 60.8013 14.6003C60.6013 15.6003 60.1013 16.5003 59.5013 17.4003C60.7013 17.0003 62.0014 17.1004 62.6014 17.9004C63.4014 18.9004 62.9014 23.2004 62.3014 24.5004C61.5014 26.3004 58.8014 28.3004 56.4014 29.4004M31.9017 16.6996C33.3017 16.6996 35.4017 23.6996 36.4017 24.3996C37.4017 25.0996 44.1017 25.0996 44.3017 26.2996C44.5017 27.4996 39.5017 31.8996 38.9017 32.8996C38.3017 33.8996 40.7017 40.3996 39.6017 40.9996C38.5017 41.5996 33.2017 36.8996 31.9017 36.8996C30.6017 36.8996 25.3017 41.5996 24.2017 40.9996C23.1017 40.3996 25.0017 34.0996 24.8017 32.6996C24.6017 31.2996 18.9017 27.8996 19.4017 26.2996C19.9017 24.6996 26.8017 24.7996 27.5017 24.2996C28.2017 23.7996 30.6017 16.5996 32.0017 16.5996L31.9017 16.6996ZM44.5015 9.49958C42.0015 8.19958 24.3015 7.99958 21.2015 9.49958C18.1015 10.9996 9.50146 25.5996 9.50146 29.6996C9.50146 33.7996 18.4015 48.2996 21.2015 49.8996C24.0015 51.4996 41.9015 51.0996 44.5015 49.8996C47.1015 48.6996 56.2015 34.3996 56.2015 29.6996C56.2015 24.9996 47.1015 10.7996 44.5015 9.49958Z" stroke="#494A4A" stroke-width="2" stroke-linecap="round" stroke-linejoin="round"/>
<path id="1px" d="M10.9016 22.6002C9.50156 21.3002 5.70156 18.4002 4.60156 16.7002M54.1016 21.8998C55.5016 20.5998 58.2016 18.3998 59.3016 16.7998M30.6016 24.4998C30.9016 23.7998 31.3016 22.8998 31.5016 22.2998M47.7017 40.3004C49.0017 38.0004 50.3017 35.5004 50.8017 33.9004M45.1016 44.2004C45.5016 43.7004 45.8016 43.1004 46.2016 42.4004" stroke="#494A4A" stroke-linecap="round" stroke-linejoin="round"/>
</g>
</g>
<defs>
<clipPath id="clip0_622_41971">
<rect width="64" height="64" fill="white"/>
</clipPath>
</defs>
</svg>
