<svg width="64" height="64" viewBox="0 0 64 64" fill="none" xmlns="http://www.w3.org/2000/svg">
<g id="Pictogram-whistblower">
<g id="stroke-default">
<path id="2px-stroke-default" d="M48.0002 53.3998C39.3002 41.0998 27.1002 38.3998 25.1002 36.9998C23.1002 35.5998 22.7002 33.2998 22.7002 33.2998C22.7002 33.2998 20.1002 23.9998 11.3002 22.5998C8.70021 22.1998 0.500205 22.0998 2.30021 34.7998C4.10021 47.4998 11.5002 52.8998 14.6002 53.7998C19.7002 55.2998 22.6002 48.5998 22.1002 43.6998C22.1002 43.6998 23.1002 43.2998 24.5002 43.3998C25.9002 43.4998 42.7002 59.8998 45.0002 61.0998M6.5 23C9 21 22.8999 15.0999 26.8999 14.8999C29.1999 14.8999 31.6999 15.2999 33.3999 16.2999C37.6999 18.8999 38.2999 23.8999 40.0999 24.9999C41.8999 26.0999 45.4999 24.5999 48.4999 29.6999C50.5999 33.1999 60.2999 43.8999 61.7999 47.2999M19.2002 27.0999L36.4002 19.8999M41.8001 25.7998L22.6001 33.1998M61.5 47.5C58.3 49.7 51.6 52.6 48 53.3M47.3999 53.8999C46.3999 55.0999 44.2999 58.4999 44.9999 60.9999C47.8999 61.1999 55.7 57.6998 58.2 55.9998C60.7 54.2998 61.9 50.3998 61.9 47.7998M17.1001 53.8C17.1001 53.8 29.3001 50.6 30.7001 49M21.7001 15.7999C21.7001 15.7999 15.6001 13.1999 13.1001 14.8999C10.6001 16.5999 10.6001 19.8999 10.6001 19.8999" stroke="#494A4A" stroke-width="2" stroke-linecap="round" stroke-linejoin="round"/>
<path id="1px-stroke-default" d="M49.8999 48.9998C49.8999 48.9998 54.3999 47.6998 56.3999 46.2998M17.8999 2.70024C15.6999 8.30024 11.7999 7.50024 9.79991 5.90024C3.69991 0.800244 16.3999 0.500245 10.5999 11.9002C10.5999 11.9002 7.7 16.4 14.5 14.5M44.7 15.7002L48.6 10.7002M49.9 16.6002L47.2 18.5002M42.2 12.1002L41.5 14.3002M17.3 45.3999C17.3 45.3999 17.8 49.6999 15 49.7999C12.9 49.7999 10 45.9999 10 45.7999" stroke="#494A4A" stroke-linecap="round" stroke-linejoin="round"/>
</g>
</g>
</svg>
