<svg width="64" height="64" viewBox="0 0 64 64" fill="none" xmlns="http://www.w3.org/2000/svg">
<g id="Pictogram-organisation-added-2">
<g id="stroke-default">
<path id="2px" d="M35.5 61.0002C31.2 61.0002 24.6 61.0002 24.3 60.8002C24 60.6002 24 58.7002 24.5 58.3002C24.8 58.1002 29 57.9002 33.3 58.0002M26.1998 58C25.9998 54.1 25.9998 47.5 26.1998 45.3C26.3998 43.1 28.8998 42.1 31.6998 42M23.9999 59.8999C16.6999 60.1999 9.1999 59.8999 3.8999 59.9999M6.30016 59.6C5.80016 51.5 6.00016 28.1 6.30016 21M58 33.5001C58 28.5001 58 23.8001 58 21.1001M18 20.9998H4C2 20.9998 1.5 19.4998 2.5 17.4998C3.5 15.4998 9.9 5.39979 10.9 4.39979C12.3 2.89979 13.4 2.39979 16 2.29979C21.5 1.89979 42.2 2.09979 48 2.29979C50.4 2.29979 51.8 3.49979 53.3 5.09979C55.9 7.79979 60.2 13.8998 61.7 17.4998C62.6 19.5998 62.1 21.0998 60 21.0998H45.9C43.9 21.0998 33.9 7.09979 31.9 7.09979C29.9 7.09979 19.9 21.0998 17.9 21.0998L18 20.9998ZM63 48.5C63 56.5081 56.5081 63 48.5 63C40.4919 63 34 56.5081 34 48.5C34 40.4919 40.4919 34 48.5 34C56.5081 34 63 40.4919 63 48.5Z" stroke="#494A4A" stroke-width="2" stroke-linecap="round" stroke-linejoin="round"/>
<path id="1px" d="M12.3999 8.5C12.8999 6.2 13.9999 5.5 16.4999 5.5M50.4999 17.5C47.3999 17.5 46.7999 17.4 45.4999 15.5M43.5 31.2998C43.5 29.6998 43.5 28.0998 43.5 27.7998C43.6 27.0998 44.1 26.6998 44.6 26.5998C45.2 26.4998 50.2 26.3998 50.8 26.5998C51.6 26.7998 52.2 27.1998 52.3 28.2998C52.3 28.5998 52.3 29.9998 52.3 31.3998M33.9999 36.4999C32.2999 36.4999 29.0999 36.4999 28.6999 36.3999C27.9999 36.1999 27.6999 35.7999 27.5999 35.1999C27.4999 34.5999 27.4999 28.4999 27.5999 27.8999C27.6999 27.2999 28.1999 26.7999 28.6999 26.6999C29.2999 26.5999 34.2999 26.4999 34.9999 26.6999C35.7999 26.8999 36.3999 27.2999 36.5999 28.3999C36.5999 28.7999 36.5999 31.4999 36.5999 33.1999M18.8999 36.3999C18.2999 36.5999 13.1999 36.3999 12.6999 36.3999C11.9999 36.1999 11.6999 35.7999 11.5999 35.1999C11.4999 34.5999 11.4999 28.4999 11.5999 27.8999C11.6999 27.2999 12.1999 26.7999 12.6999 26.6999C13.2999 26.5999 18.2999 26.4999 18.8999 26.6999C19.6999 26.8999 20.2999 27.2999 20.3999 28.3999C20.3999 28.9999 20.3999 33.9999 20.3999 34.5999C20.2999 35.6999 19.6999 36.2999 18.8999 36.4999V36.3999ZM18.8999 50.3999C18.2999 50.5999 13.1999 50.3999 12.6999 50.3999C11.9999 50.1999 11.6999 49.7999 11.5999 49.1999C11.4999 48.5999 11.4999 42.4999 11.5999 41.8999C11.6999 41.2999 12.1999 40.7999 12.6999 40.6999C13.2999 40.5999 18.2999 40.4999 18.8999 40.6999C19.6999 40.8999 20.2999 41.2999 20.3999 42.3999C20.3999 42.9999 20.3999 47.9999 20.3999 48.5999C20.2999 49.6999 19.6999 50.2999 18.8999 50.4999V50.3999ZM35.5 19C35.5 20.933 33.933 22.5 32 22.5C30.067 22.5 28.5 20.933 28.5 19C28.5 17.067 30.067 15.5 32 15.5C33.933 15.5 35.5 17.067 35.5 19ZM55.2002 46.5999C55.2002 46.5999 51.2002 46.5999 50.8002 46.2999C50.4002 45.9999 50.8002 42.3999 50.5002 41.6999C50.1002 41.0999 46.9002 41.3999 46.7002 41.6999C46.4002 42.1999 46.7002 45.5999 46.3002 46.0999C45.9002 46.5999 42.2002 46.1999 41.8002 46.5999C41.3002 47.0999 41.5002 49.8999 42.2002 50.2999C42.7002 50.5999 46.0002 50.2999 46.3002 50.5999C46.6002 50.8999 46.3002 54.4999 46.7002 54.9999C47.2002 55.5999 50.3002 55.5999 50.4002 54.7999C50.5002 53.9999 50.4002 50.7999 50.7002 50.4999C51.0002 50.1999 54.1002 50.5999 54.8002 50.0999C55.7002 49.5999 55.6002 46.7999 55.1002 46.4999L55.2002 46.5999Z" stroke="#494A4A" stroke-linecap="round" stroke-linejoin="round"/>
</g>
</g>
</svg>
