<svg width="64" height="64" viewBox="0 0 64 64" fill="none" xmlns="http://www.w3.org/2000/svg">
<g id="Pictogram-payment-received" clip-path="url(#clip0_622_42040)">
<g id="stroke-default">
<g id="Group">
<path id="Vector" d="M54.4001 42.8999C50.8001 40.2999 46.4001 37.9999 41.1001 37.9999C37.0001 37.9999 33.8001 39.9999 30.3001 39.9999C25.1001 39.9999 21.6001 36.7999 18.8001 36.9999C15.4001 37.2999 14.1001 40.1999 15.8001 41.1999C18.5001 42.7999 21.9001 46.4999 30.1001 47.0999" stroke="#494A4A" stroke-width="2" stroke-linecap="round" stroke-linejoin="round"/>
<path id="Vector_2" d="M15.2999 37.6999C13.6999 35.2999 11.2999 32.3999 9.59988 31.2999C7.29988 29.7999 4.09988 31.0999 5.69988 33.3999C8.49988 37.2999 10.6999 43.4999 12.2999 45.1999C14.3999 47.3999 19.7999 50.8999 22.7999 51.6999C26.5999 52.5999 41.1999 50.4999 47.8999 54.6999" stroke="#494A4A" stroke-width="2" stroke-linecap="round" stroke-linejoin="round"/>
<path id="Vector_3" d="M5.40008 31.4999C2.10008 29.5999 -0.0999196 32.5999 1.70008 33.9999C6.10008 37.6999 6.70008 40.2999 12.9001 45.6999" stroke="#494A4A" stroke-width="2" stroke-linecap="round" stroke-linejoin="round"/>
<path id="Vector_4" d="M45.0996 41.4999C47.1996 41.4999 49.3996 42.4999 50.7996 43.7999" stroke="#494A4A" stroke-linecap="round" stroke-linejoin="round"/>
<path id="Vector_5" d="M52.1004 40.7999C52.1004 40.7999 53.6004 39.9999 54.7004 39.9999C56.0004 39.9999 62.0004 44.8999 62.8004 46.7999C63.6004 48.4999 61.6004 60.2999 54.9004 61.9999C52.6004 62.5999 45.6004 59.5999 45.1004 58.2999C44.8004 57.3999 45.3004 55.5999 45.9004 54.4999" stroke="#494A4A" stroke-width="2" stroke-linecap="round" stroke-linejoin="round"/>
<path id="Vector_6" d="M54.8996 40.4999C56.9996 41.5999 47.5996 58.4999 45.5996 57.4999" stroke="#494A4A" stroke-linecap="round" stroke-linejoin="round"/>
<path id="Vector_7" d="M17.9004 39.5999C18.6004 39.8999 20.8004 40.7999 21.0004 41.4999C21.1004 41.7999 21.0004 43.9999 19.6004 43.4999" stroke="#494A4A" stroke-linecap="round" stroke-linejoin="round"/>
</g>
<g id="Group_2">
<path id="Vector_8" d="M38.4998 19.5001C36.4998 16.3001 34.2998 18.1001 32.9998 20.2001C31.3998 22.9001 31.6998 25.4001 34.8998 26.0001" stroke="#494A4A" stroke-linecap="round" stroke-linejoin="round"/>
<path id="Vector_9" d="M31.6992 20.7001L35.1992 23.1001" stroke="#494A4A" stroke-linecap="round" stroke-linejoin="round"/>
<path id="Vector_10" d="M32.5 19.1L36 21.4" stroke="#494A4A" stroke-linecap="round" stroke-linejoin="round"/>
<path id="Vector_11" d="M35.7997 31.9001C34.5997 31.8001 32.7997 31.2001 31.1997 30.3001C27.5997 28.4001 27.0997 22.8001 29.0997 18.5001C31.3997 13.5001 36.2997 11.9001 39.6997 13.7001C40.6997 14.3001 42.7997 15.2001 43.5997 16.2001C47.6997 20.9001 42.7997 32.6001 35.7997 31.9001Z" stroke="#494A4A" stroke-width="2" stroke-linecap="round" stroke-linejoin="round"/>
<path id="Vector_12" d="M40.1998 14.7001C45.7998 18.3001 39.6998 34.5001 30.7998 29.5001" stroke="#494A4A" stroke-linecap="round" stroke-linejoin="round"/>
</g>
<g id="Group_3">
<path id="Vector_13" d="M20.4998 6.70013C18.1998 5.20013 17.9998 7.90013 18.2998 10.3001C18.6998 13.4001 19.8998 15.3001 21.5998 14.0001" stroke="#494A4A" stroke-linecap="round" stroke-linejoin="round"/>
<path id="Vector_14" d="M17.7998 11.4001H20.4998" stroke="#494A4A" stroke-linecap="round" stroke-linejoin="round"/>
<path id="Vector_15" d="M17.5 9.7001L20.1 9.6001" stroke="#494A4A" stroke-linecap="round" stroke-linejoin="round"/>
<path id="Vector_16" d="M16.8998 21.0001C18.1998 21.0001 20.7998 21.0001 21.6998 20.6001C26.0998 18.3001 24.2998 1.4001 18.4998 1.1001C17.2998 1.1001 14.6998 1.8001 13.6998 2.2001C10.0998 3.8001 12.5998 21.1001 16.9998 21.0001H16.8998Z" stroke="#494A4A" stroke-width="2" stroke-linecap="round" stroke-linejoin="round"/>
<path id="Vector_17" d="M17.5996 1.1001C13.0996 2.6001 16.4996 20.6001 20.7996 20.9001" stroke="#494A4A" stroke-linecap="round" stroke-linejoin="round"/>
</g>
<path id="Vector_18" d="M52.6 58.9999C52.6 58.9999 51.4 58.3999 51 58.0999C50.5 57.6999 50.5 57.2999 50.5 56.9999C50.5 56.5999 50.9 56.0999 51.2 55.7999C51.5 55.4999 52 55.4999 52.4 55.6999C52.9 55.8999 53.6 56.2999 54 56.5999C54.4 56.8999 54.5 57.2999 54.5 57.6999C54.5 58.0999 54.1 58.6999 53.8 58.8999C53.5 59.0999 53.2 59.1999 52.6 58.9999Z" stroke="#494A4A" stroke-linecap="round" stroke-linejoin="round"/>
</g>
</g>
<defs>
<clipPath id="clip0_622_42040">
<rect width="64" height="64" fill="white"/>
</clipPath>
</defs>
</svg>
