<svg width="64" height="64" viewBox="0 0 64 64" fill="none" xmlns="http://www.w3.org/2000/svg">
<g id="Pictogram-calendar" clip-path="url(#clip0_622_41937)">
<g id="stroke-default">
<path id="2px" d="M51.4999 58.0004C41.2999 62.6004 25.0999 63.4004 16.9999 62.9004C11.5999 62.6004 7.89987 60.2004 6.29987 55.2004C3.19987 45.9004 2.99987 30.9004 4.69987 19.4004M42.4 5.40039C43 5.40039 43.6 5.40039 44.2 5.40039C49.6 5.70039 53.3 8.10039 54.9 13.1004C58 22.4004 59.6 37.8004 58.7 48.1004C58.3 52.6004 56.1 56.4004 51.5 57.9004C45 60.2004 36.2 60.7004 32.8 60.7004C30 60.7004 27.8 59.8004 26.9 57.2004C26.4 55.7004 25.4 51.9004 24.7 49.8004C23.5 46.6004 22 45.4004 18.6 45.1004C16.6 44.9004 13.5 45.1004 11.8 45.1004C9.4 45.1004 7.3 43.1004 6.7 40.2004C5.7 35.1004 4.5 29.6004 4.5 22.1004C4.5 15.1004 6.8 11.1004 11.9 9.60039C12.3 9.50039 12.3 9.50039 12.8 9.30039M31.9998 60.7002C26.0998 60.7002 22.0998 57.3002 16.1998 52.8002C11.4998 49.2002 7.8998 46.2002 6.7998 40.7002M39.2002 9.29956C38.7002 7.39956 38.6002 3.89956 38.8002 2.49956C39.0002 0.699558 41.2002 0.499558 41.8002 2.09956C42.3002 3.39956 42.6002 7.09956 42.3002 9.19956C42.1002 10.8996 39.7002 10.9996 39.2002 9.29956ZM17.1001 12.1003C17.1001 10.1003 16.4001 6.70034 15.8001 5.40034C15.1001 3.80034 13.0001 4.00034 12.8001 5.80034C12.6001 7.20034 13.3001 10.8003 14.1001 12.8003C14.7001 14.4003 17.1001 13.9003 17.1001 12.2003V12.1003Z" stroke="#494A4A" stroke-width="2" stroke-linecap="round" stroke-linejoin="round"/>
<path id="1px" d="M38.9001 60.8998C31.5001 62.0998 24.8001 61.1998 20.0001 60.8998C14.6001 60.5998 10.8001 58.0998 9.2001 53.1998C7.6001 48.4998 6.3001 41.3998 5.6001 33.2998M16.7002 8.3C23.2002 6.9 32.0002 5.8 38.7002 5.5M8.90017 17C7.90017 19.2 8.00017 22.8 8.30017 26.5M19.4 34.1997C18.2 21.6997 28.1 20.6997 29.3 32.6997C30.6 46.2997 20.6 46.5997 19.4 34.1997ZM33.8001 26.8004C34.3001 32.7004 43.2001 31.9004 42.7001 25.8004C42.2001 19.7004 33.3001 20.5004 33.8001 26.8004ZM34.4998 37.4005C33.8998 29.7005 43.5998 28.0005 44.6998 36.1005C45.6998 43.6005 35.0998 44.1005 34.4998 37.4005Z" stroke="#494A4A" stroke-linecap="round" stroke-linejoin="round"/>
</g>
</g>
<defs>
<clipPath id="clip0_622_41937">
<rect width="64" height="64" fill="white"/>
</clipPath>
</defs>
</svg>
