<svg width="65" height="64" viewBox="0 0 65 64" fill="none" xmlns="http://www.w3.org/2000/svg">
<g id="Pictogram-like-v1">
<g id="stroke-default">
<path id="2px" d="M18.3945 32.9999C22.8945 33.1999 26.1745 27.1199 29.4645 24.2899C35.1545 19.4099 41.3845 14.3999 40.6545 3.59987C40.4445 0.449873 45.8945 0.0998737 47.5945 2.94987C53.3145 12.4099 45.7145 20.1099 45.0845 25.2999M42.7345 25.5699C48.5745 26.2099 53.1245 25.4099 55.2945 25.3999C59.5745 25.3999 61.2945 32.2199 57.8545 33.2499C56.9293 33.4841 55.979 33.605 55.0245 33.6099M57.5345 33.3299C61.6345 32.3799 62.0045 41.0599 58.0645 41.8599C57.0192 42.0732 55.9597 42.2103 54.8945 42.2699M58.5545 41.7099C60.5545 41.9199 59.8245 49.9099 55.9945 50.0499C54.9945 50.0499 53.7245 50.0499 52.3245 50.0499M55.1345 50.0899C56.8145 50.6299 57.1345 54.9299 52.2445 56.2499C32.4045 61.6699 24.6445 52.4799 18.3145 52.9999M18.8245 36.6799C18.8945 34.6199 18.4345 32.0699 17.3245 31.0099C15.7345 29.4799 5.32452 29.7399 4.23452 31.6799C2.02452 35.5899 2.65452 53.5599 4.51452 54.9199C6.84452 56.6299 14.8945 56.0199 16.9645 54.9199C18.0645 54.3299 18.8245 50.8199 18.8245 49.0699" stroke="#494A4A" stroke-width="2" stroke-linecap="round" stroke-linejoin="round"/>
<path id="1px" d="M40.3146 10.5599C42.0146 11.0799 43.9646 11.1599 44.3146 9.12988M41.4046 54.2599C39.7323 54.6056 38.0069 54.6056 36.3346 54.2599M11.3146 50.4099C10.6841 50.5349 10.0351 50.5349 9.40461 50.4099C9.15035 50.3784 8.91389 50.2629 8.73273 50.0818C8.55157 49.9006 8.43609 49.6641 8.40461 49.4099C8.28961 48.7784 8.28961 48.1314 8.40461 47.4999C8.44816 47.2506 8.56756 47.0208 8.74652 46.8418C8.92549 46.6628 9.1553 46.5434 9.40461 46.4999C10.0374 46.3999 10.6819 46.3999 11.3146 46.4999C11.5591 46.543 11.7834 46.6633 11.9544 46.8433C12.1254 47.0234 12.2341 47.2535 12.2646 47.4999C12.3948 48.1299 12.3948 48.7799 12.2646 49.4099C12.2231 49.6519 12.1106 49.8761 11.9415 50.0542C11.7724 50.2322 11.5542 50.356 11.3146 50.4099Z" stroke="#494A4A" stroke-linecap="round" stroke-linejoin="round"/>
</g>
</g>
</svg>
