<svg width="64" height="64" viewBox="0 0 64 64" fill="none" xmlns="http://www.w3.org/2000/svg">
<g id="Pictogram-purchase-order3" clip-path="url(#clip0_426_1026)">
<g id="stroke-default">
<path id="2px" d="M11 22.1C11.2 19.6 12.2 17.9 14.4 17.4C15.6 17.1 18.8 16.7 20.5 16.3C23.1 15.7 24.2 14.5 24.8 11.9C25.2 10.4 25.2 7.9 25.4 6.6C25.7 4.7 27.4 3 30.3 3M30.3 3C34 3 43.4 3.1 48 3.5C51.2 3.8 52.1 5.3 52.5 9.4C53.1 15.5 53 24.9 53 30M30.3 3C25 3 21.9 5.7 18.7 9C14.6 13.2 11 15.8 11 23.1C11 26.7 11.1 47.6 11.2 53.5C11.2 56.8 13.4 58.3 15.8 58.4C21.2 58.8 28.7 58.8 34 58.8M39.7 12.7997C36.3 10.0997 34.6 15.6997 37.7 15.8997C41.3 16.0997 40.9 21.8997 36 19.6997M38 10.0996V11.8996M38 20.2002V22.0002M39.3998 55.4998C39.3998 55.4998 39.0998 55.9998 39.0998 56.3998C38.9998 57.0998 38.8998 58.7998 39.0998 59.1998C41.3998 64.2998 56.7998 64.2998 59.0998 59.1998C59.3998 58.4998 59.1998 57.0998 59.0998 56.3998C59.0998 56.0998 59.0998 55.9998 58.8998 55.7998M40.4998 49.8998C39.6998 50.4998 39.1998 51.1998 39.0998 51.9998C38.9998 52.6998 38.8998 54.3998 39.0998 54.7998C41.3998 59.8998 56.7998 59.8998 59.0998 54.7998C59.3998 54.1998 59.2998 53.1998 59.0998 52.4998M40.6998 49.2998C40.6998 49.8998 40.6998 50.3998 40.7998 50.5998C43.0998 55.6998 58.4998 55.6998 60.7998 50.5998C61.0998 49.8998 60.8998 48.4998 60.7998 47.7998C60.4998 46.1998 58.7998 45.0998 56.5998 44.3998M40.5998 39.8998C38.1998 40.5998 36.3998 41.7998 36.0998 43.3998C35.9998 44.0998 35.8998 45.7998 36.0998 46.1998C38.3998 51.2998 53.7998 51.2998 56.0998 46.1998C56.2998 45.7998 56.2998 45.0998 56.2998 44.4998M40.7998 38.3998C40.6998 39.0998 40.5998 40.7998 40.7998 41.1998C43.0998 46.2998 58.4998 46.2998 60.7998 41.1998C61.0998 40.4998 60.8998 39.0998 60.7998 38.3998C59.5998 32.5998 41.9998 32.5998 40.7998 38.3998Z" stroke="#494A4A" stroke-width="2" stroke-linecap="round" stroke-linejoin="round"/>
<path id="1px" d="M14.4998 51.5C14.4998 54.4 14.2998 55.5 20.3998 55.5M25 28.4995C26.4 28.3995 42.2 28.4995 43 28.4995M21.3999 34.4995C22.8999 34.3995 37.1999 34.4995 37.9999 34.4995M21.3999 40.4995C22.8999 40.3995 32.4999 40.4995 33.2999 40.4995M59.7998 46.3998C60.9998 48.0998 56.7998 50.8998 50.7998 50.8998C48.6998 50.8998 47.4998 50.5998 45.6998 50.0998M51.7998 45.2998C49.9998 45.9998 49.5998 46.4998 47.0998 46.4998C41.0998 46.4998 35.2998 44.1998 37.0998 41.9998M59.7998 36.9998C60.9998 38.6998 56.7998 41.4998 50.7998 41.4998C44.7998 41.4998 39.9998 39.1998 41.6998 36.9998" stroke="#494A4A" stroke-linecap="round" stroke-linejoin="round"/>
</g>
</g>
<defs>
<clipPath id="clip0_426_1026">
<rect width="64" height="64" fill="white"/>
</clipPath>
</defs>
</svg>
