<svg width="65" height="65" viewBox="0 0 65 65" fill="none" xmlns="http://www.w3.org/2000/svg">
<g id="Pictogram-video-player">
<g id="stroke-default">
<path id="2px" d="M48.4146 58.627L48.4692 59.6255L48.4718 59.6254L48.4146 58.627ZM15.4146 58.627L15.3538 59.6252L15.36 59.6255L15.4146 58.627ZM5.4546 47.917L4.45627 47.9748L4.45684 47.9847L4.45761 47.9946L5.4546 47.917ZM5.4546 16.477L4.4568 16.41L4.45627 16.4192L5.4546 16.477ZM15.4546 5.757L15.5343 6.75381L15.5367 6.75362L15.4546 5.757ZM48.4546 5.757L48.5577 4.76233L48.5472 4.76124L48.5367 4.76037L48.4546 5.757ZM58.4046 16.477L59.4014 16.3964L59.4008 16.3894L58.4046 16.477ZM58.4046 47.917L59.3996 48.017L59.4006 48.0073L59.4013 47.9976L58.4046 47.917ZM24.1446 22.967L23.1567 22.8117L23.1541 22.8283L23.1521 22.845L24.1446 22.967ZM23.7746 36.437L22.7769 36.5043L22.7779 36.5191L22.7793 36.5339L23.7746 36.437ZM28.9746 39.807L28.6629 38.8568L28.6521 38.8604L28.6413 38.8642L28.9746 39.807ZM41.4946 33.357L42.0874 34.1624L42.1068 34.1481L42.1254 34.1329L41.4946 33.357ZM40.6846 26.957L40.1129 27.7774L40.1133 27.7778L40.6846 26.957ZM29.0446 20.397L29.3705 19.4516L29.368 19.4507L29.0446 20.397ZM11.9946 50.577C11.4423 50.577 10.9946 51.0247 10.9946 51.577C10.9946 52.1293 11.4423 52.577 11.9946 52.577V50.577ZM51.9946 52.577C52.5469 52.577 52.9946 52.1293 52.9946 51.577C52.9946 51.0247 52.5469 50.577 51.9946 50.577V52.577ZM48.36 57.6285C37.4046 58.2277 26.4246 58.2277 15.4692 57.6285L15.36 59.6255C26.3882 60.2287 37.441 60.2287 48.4692 59.6255L48.36 57.6285ZM15.4754 57.6288C12.9644 57.476 10.8579 56.6108 9.31647 55.0484C7.77344 53.4844 6.70771 51.1311 6.45159 47.8394L4.45761 47.9946C4.74149 51.6429 5.94575 54.4796 7.89273 56.4531C9.84133 58.4282 12.4448 59.448 15.3538 59.6251L15.4754 57.6288ZM6.45293 47.8592C5.8487 37.4265 5.8487 26.9675 6.45293 16.5348L4.45627 16.4192C3.84758 26.9289 3.84758 37.4651 4.45627 47.9748L6.45293 47.8592ZM6.45235 16.544C6.67958 13.1598 7.51604 10.8739 8.92341 9.37038C10.3211 7.87721 12.4266 7.00243 15.5343 6.75381L15.3749 4.76018C11.9826 5.03156 9.32309 6.01678 7.46329 8.00361C5.61316 9.98011 4.69962 12.7942 4.45685 16.41L6.45235 16.544ZM15.5367 6.75362C26.4635 5.85361 37.4457 5.85361 48.3725 6.75362L48.5367 4.76037C37.5006 3.85136 26.4085 3.85136 15.3725 4.76037L15.5367 6.75362ZM48.3515 6.75167C51.3451 7.06201 53.4171 7.94717 54.8235 9.44318C56.2381 10.948 57.1139 13.2132 57.4084 16.5646L59.4008 16.3894C59.0853 12.8008 58.1211 10.031 56.2807 8.07331C54.4321 6.10683 51.8341 5.10198 48.5577 4.76233L48.3515 6.75167ZM57.4079 16.5576C58.2495 26.9669 58.2495 37.4271 57.4079 47.8364L59.4013 47.9976C60.2517 37.481 60.2517 26.913 59.4013 16.3964L57.4079 16.5576ZM57.4096 47.817C57.1326 50.573 56.298 52.9426 54.8515 54.6507C53.4266 56.3333 51.3387 57.4579 48.3574 57.6286L48.4718 59.6254C51.9505 59.4261 54.5676 58.0807 56.3777 55.9433C58.1662 53.8314 59.0966 51.031 59.3996 48.017L57.4096 47.817ZM23.1521 22.845C22.5952 27.376 22.4696 31.9496 22.7769 36.5043L24.7723 36.3697C24.4736 31.9412 24.5957 27.4944 25.1371 23.089L23.1521 22.845ZM22.7793 36.5339C22.958 38.3699 23.5881 39.8501 24.8578 40.637C26.1198 41.4191 27.698 41.319 29.3079 40.7498L28.6413 38.8642C27.2812 39.345 26.4244 39.2549 25.9114 38.937C25.4061 38.6239 24.9212 37.8941 24.7699 36.3401L22.7793 36.5339ZM29.2863 40.7572C33.876 39.2517 38.1971 37.0256 42.0874 34.1624L40.9018 32.5516C37.1824 35.2891 33.0511 37.4175 28.6629 38.8568L29.2863 40.7572ZM42.1254 34.1329C43.5862 32.9453 44.2048 31.4365 43.9347 29.8877C43.6765 28.4069 42.6417 27.1007 41.2559 26.1362L40.1133 27.7778C41.2275 28.5532 41.8277 29.4471 41.9645 30.2313C42.0894 30.9475 41.863 31.7687 40.8638 32.5811L42.1254 34.1329ZM41.2563 26.1366C38.4013 24.147 33.6121 20.9139 29.3705 19.4516L28.7187 21.3424C32.6571 22.7001 37.2278 25.767 40.1129 27.7774L41.2563 26.1366ZM29.368 19.4507C27.8125 18.9191 26.3626 18.9451 25.2054 19.6007C24.0419 20.2598 23.3718 21.4435 23.1567 22.8117L25.1325 23.1223C25.2774 22.2005 25.6823 21.6292 26.1913 21.3408C26.7065 21.0489 27.5267 20.9349 28.7212 21.3432L29.368 19.4507ZM24.9946 51.577C24.9946 52.6816 24.0992 53.577 22.9946 53.577V55.577C25.2037 55.577 26.9946 53.7861 26.9946 51.577H24.9946ZM22.9946 53.577C21.89 53.577 20.9946 52.6816 20.9946 51.577H18.9946C18.9946 53.7861 20.7855 55.577 22.9946 55.577V53.577ZM20.9946 51.577C20.9946 50.4724 21.89 49.577 22.9946 49.577V47.577C20.7855 47.577 18.9946 49.3679 18.9946 51.577H20.9946ZM22.9946 49.577C24.0992 49.577 24.9946 50.4724 24.9946 51.577H26.9946C26.9946 49.3679 25.2037 47.577 22.9946 47.577V49.577ZM11.9946 52.577H19.9946V50.577H11.9946V52.577ZM25.9946 52.577H51.9946V50.577H25.9946V52.577Z" fill="#494A4A"/>
<path id="1px" d="M14.9946 10.077C11.9946 10.737 10.1746 13.797 9.7146 16.187M29.3946 36.167C31.7813 35.3881 34.0884 34.3836 36.2846 33.167" stroke="#494A4A" stroke-linecap="round" stroke-linejoin="round"/>
</g>
</g>
</svg>
