<svg width="65" height="64" viewBox="0 0 65 64" fill="none" xmlns="http://www.w3.org/2000/svg">
<g id="Pictogram-video" clip-path="url(#clip0_622_42030)">
<path id="2px" d="M62.1511 42.7998C62.1511 42.2475 61.7034 41.7998 61.1511 41.7998C60.5988 41.7998 60.1511 42.2475 60.1511 42.7998H62.1511ZM60.8511 45.5998L59.8561 45.5003L59.8558 45.5035L60.8511 45.5998ZM57.044 52.6927C56.6535 53.0832 56.6535 53.7164 57.044 54.1069C57.4345 54.4974 58.0677 54.4974 58.4582 54.1069L57.044 52.6927ZM32.4626 58.1001C33.0148 58.0938 33.4574 57.6409 33.451 57.0887C33.4447 56.5364 32.9918 56.0939 32.4396 56.1003L32.4626 58.1001ZM14.7511 56.6002L14.6482 57.5949L14.6516 57.5952L14.7511 56.6002ZM4.05108 45.7002L5.04753 45.616L5.0474 45.6145L4.05108 45.7002ZM14.7511 7.7002L14.8377 8.69648L14.8468 8.6956L14.7511 7.7002ZM50.2511 7.7002L50.355 6.70555L50.3441 6.70453L50.2511 7.7002ZM60.9511 18.6002L61.9465 18.5045L61.9461 18.5007L60.9511 18.6002ZM60.4511 27.9002C60.4511 28.4525 60.8988 28.9002 61.4511 28.9002C62.0034 28.9002 62.4511 28.4525 62.4511 27.9002H60.4511ZM25.651 24.5999V23.5999H24.8039L24.6646 24.4355L25.651 24.5999ZM30.051 39.6999L29.7216 38.7557L29.7126 38.7589L29.7037 38.7622L30.051 39.6999ZM41.251 33.8999L40.6178 33.126L40.6163 33.1272L41.251 33.8999ZM40.551 28.1999L39.9818 29.0222L39.9877 29.0262L40.551 28.1999ZM30.151 22.2999L30.4906 21.3594L30.4733 21.3531L30.4558 21.3475L30.151 22.2999ZM25.751 24.5999V25.5999H26.6122L26.7399 24.7483L25.751 24.5999ZM47.9509 47.3H48.9509V46.6365L48.3396 46.3786L47.9509 47.3ZM36.3509 56.2L37.3352 56.0231L37.3335 56.0141L36.3509 56.2ZM52.9509 56.5L51.9907 56.2205L51.9882 56.2296L52.9509 56.5ZM56.5509 37L57.5302 37.2026L57.5341 37.1836L57.5373 37.1644L56.5509 37ZM62.9509 39.2L62.4548 38.3318L62.4455 38.337L62.4364 38.3425L62.9509 39.2ZM63.4509 35.3L62.4747 35.5169L62.4765 35.5249L63.4509 35.3ZM54.9509 29.3L55.2671 28.3513L54.9509 29.3ZM53.2509 30.7L52.2808 30.4575L52.2756 30.4782L52.2713 30.4991L53.2509 30.7ZM50.8509 46.9L51.8253 47.1249L51.828 47.1129L51.8305 47.1009L50.8509 46.9ZM47.9509 47.4H46.9509V48.0667L47.5663 48.3231L47.9509 47.4ZM60.1511 42.7998C60.1511 43.2323 60.1082 43.6299 60.0481 44.0622C59.9902 44.4788 59.9086 44.9752 59.8561 45.5003L61.8461 45.6993C61.8936 45.2244 61.962 44.8208 62.0291 44.3374C62.094 43.8697 62.1511 43.3673 62.1511 42.7998H60.1511ZM59.8558 45.5035C59.566 48.498 58.7088 51.0279 57.044 52.6927L58.4582 54.1069C60.5934 51.9717 61.5362 48.9016 61.8465 45.6961L59.8558 45.5035ZM32.4396 56.1003C23.7568 56.2001 18.7982 55.9999 14.8506 55.6052L14.6516 57.5952C18.704 58.0005 23.7453 58.2003 32.4626 58.1001L32.4396 56.1003ZM14.854 55.6055C12.104 55.321 9.80793 54.4307 8.13599 52.8591C6.47467 51.2974 5.33103 48.9707 5.04753 45.616L3.05463 45.7844C3.37113 49.5297 4.67749 52.353 6.76617 54.3163C8.84422 56.2697 11.5981 57.2794 14.6482 57.5949L14.854 55.6055ZM5.0474 45.6145C4.25346 36.385 4.55068 25.7414 5.04854 18.7714L3.05362 18.6289C2.55148 25.659 2.24869 36.4154 3.05476 45.7859L5.0474 45.6145ZM5.04854 18.7714C5.28897 15.4053 6.1915 13.0675 7.71807 11.4973C9.24248 9.92931 11.528 8.98423 14.8377 8.69644L14.6644 6.70395C11.0741 7.01616 8.25967 8.07108 6.28408 10.1031C4.31066 12.1329 3.31318 14.9951 3.05362 18.6289L5.04854 18.7714ZM14.8468 8.6956C25.1822 7.70181 39.519 7.70156 50.158 8.69586L50.3441 6.70453C39.5831 5.69883 25.1199 5.69858 14.6554 6.70479L14.8468 8.6956ZM50.1472 8.69478C53.3662 9.0311 55.612 9.95194 57.1415 11.4923C58.6717 13.0334 59.6191 15.33 59.956 18.6997L61.9461 18.5007C61.5831 14.8704 60.5305 12.067 58.5607 10.0831C56.5901 8.09845 53.836 7.0693 50.355 6.70561L50.1472 8.69478ZM59.9557 18.6959C60.4521 23.8584 60.4511 26.0259 60.4511 27.9002H62.4511C62.4511 25.9745 62.4501 23.742 61.9465 18.5045L59.9557 18.6959ZM24.6646 24.4355C24.1477 27.5372 24.0489 33.6265 24.3557 36.7963L26.3464 36.6036C26.0531 33.5734 26.1543 27.6627 26.6374 24.7643L24.6646 24.4355ZM24.3557 36.7963C24.5185 38.4785 25.0875 39.8643 26.2806 40.5914C27.4655 41.3134 28.9324 41.1806 30.3983 40.6377L29.7037 38.7622C28.4696 39.2193 27.7365 39.1364 27.3214 38.8835C26.9145 38.6356 26.4836 38.0213 26.3464 36.6036L24.3557 36.7963ZM30.3804 40.6441C34.7343 39.1253 38.9575 37.078 41.8857 34.6727L40.6163 33.1272C37.9445 35.3219 33.9677 37.2745 29.7216 38.7557L30.3804 40.6441ZM41.8842 34.6739C43.2157 33.5845 43.7826 32.1915 43.5364 30.7671C43.3012 29.4066 42.3592 28.2225 41.1143 27.3737L39.9877 29.0262C40.9428 29.6774 41.4508 30.4432 41.5656 31.1078C41.6694 31.7084 41.4863 32.4154 40.6178 33.126L41.8842 34.6739ZM41.1202 27.3778C38.5329 25.5865 34.2312 22.7102 30.4906 21.3594L29.8114 23.2405C33.2708 24.4897 37.3691 27.2134 39.9818 29.0221L41.1202 27.3778ZM30.4558 21.3475C29.0284 20.8908 27.6962 20.9274 26.633 21.5299C25.5593 22.1383 24.9471 23.2178 24.7621 24.4516L26.7399 24.7483C26.8549 23.9821 27.1927 23.5116 27.619 23.27C28.0558 23.0225 28.7736 22.9091 29.8462 23.2524L30.4558 21.3475ZM25.751 23.5999H25.651V25.5999H25.751V23.5999ZM48.3396 46.3786C44.8557 44.9089 41.2311 45.2871 38.6417 47.1509C36.0246 49.0347 34.6025 52.3379 35.3683 56.3859L37.3335 56.0141C36.6993 52.6621 37.8772 50.1653 39.8101 48.7741C41.7707 47.3629 44.6461 46.9911 47.5622 48.2214L48.3396 46.3786ZM35.3667 56.3769C36.2615 61.3546 40.2416 63.9413 44.2928 64.0248C48.3393 64.1082 52.5282 61.7027 53.9136 56.7704L51.9882 56.2296C50.8736 60.1973 47.5625 62.0918 44.334 62.0252C41.1102 61.9587 38.0403 59.9454 37.3351 56.0231L35.3667 56.3769ZM53.911 56.7795C55.0791 52.7674 55.8369 48.5673 56.377 45.0257C56.9262 41.4238 57.2363 38.6231 57.5302 37.2026L55.5716 36.7974C55.2655 38.2769 54.9256 41.2762 54.3998 44.7243C53.8649 48.2327 53.1227 52.3326 51.9908 56.2205L53.911 56.7795ZM57.5373 37.1644C57.5051 37.3576 57.4059 37.5596 57.2276 37.7132C57.0658 37.8524 56.9001 37.8992 56.8093 37.9159C56.6517 37.9449 56.554 37.9137 56.599 37.9236C56.6563 37.9362 56.8009 37.9841 57.0595 38.0946C57.56 38.3084 58.2249 38.6398 58.9817 39.002C59.7115 39.3513 60.5151 39.7232 61.211 39.9682C61.5568 40.09 61.9168 40.1953 62.2516 40.2431C62.5383 40.284 63.0293 40.3192 63.4654 40.0575L62.4364 38.3425C62.6225 38.2308 62.7291 38.291 62.5342 38.2632C62.3873 38.2422 62.1684 38.185 61.8752 38.0818C61.2929 37.8768 60.5778 37.5487 59.8451 37.198C59.1394 36.8602 58.3981 36.4916 57.8454 36.2554C57.5774 36.1409 57.2838 36.0263 57.0282 35.9702C56.9167 35.9457 56.6939 35.9035 56.4472 35.949C56.3119 35.9739 56.1106 36.0357 55.9229 36.1973C55.7185 36.3732 55.603 36.6049 55.5645 36.8356L57.5373 37.1644ZM63.447 40.0682C63.9338 39.7901 64.1773 39.3004 64.306 38.9473C64.4478 38.5585 64.5288 38.1157 64.5711 37.6854C64.6555 36.8275 64.6024 35.8425 64.4253 35.0751L62.4765 35.5249C62.5994 36.0575 62.6463 36.8225 62.5807 37.4896C62.548 37.8218 62.4915 38.0852 62.427 38.2621C62.3495 38.4746 62.318 38.4099 62.4548 38.3318L63.447 40.0682ZM64.4271 35.0831C64.3759 34.8525 64.2659 34.6642 64.1887 34.5464C64.102 34.4139 63.9982 34.284 63.8913 34.1619C63.6769 33.9171 63.3988 33.6459 63.0861 33.3652C62.4573 32.8008 61.6249 32.1411 60.7245 31.4898C58.955 30.2097 56.7738 28.8535 55.2671 28.3513L54.6347 30.2487C55.828 30.6465 57.7968 31.8403 59.5523 33.1102C60.4144 33.7339 61.1882 34.3492 61.7501 34.8535C62.0327 35.1072 62.246 35.3188 62.3867 35.4795C62.4573 35.5602 62.497 35.6137 62.5156 35.642C62.5437 35.685 62.5009 35.635 62.4747 35.5169L64.4271 35.0831ZM55.2671 28.3513C54.5817 28.1228 53.8347 28.1518 53.2223 28.6807C52.7045 29.1278 52.4429 29.809 52.2808 30.4575L54.221 30.9425C54.2853 30.6856 54.352 30.5007 54.4149 30.372C54.4782 30.2426 54.5231 30.1998 54.5295 30.1943C54.5312 30.1929 54.5248 30.1985 54.5109 30.2049C54.4967 30.2113 54.4844 30.2141 54.4782 30.2149C54.4677 30.2163 54.5114 30.2076 54.6347 30.2487L55.2671 28.3513ZM52.2713 30.4991C51.8621 32.4938 51.457 35.6133 51.0593 38.671C50.657 41.7633 50.2621 44.7938 49.8713 46.6991L51.8305 47.1009C52.2397 45.1062 52.6448 41.9867 53.0425 38.929C53.4448 35.8367 53.8397 32.8062 54.2305 30.9009L52.2713 30.4991ZM49.8765 46.6751C49.8436 46.8177 49.8067 46.8222 49.8328 46.8023C49.848 46.7907 49.8235 46.82 49.6919 46.8261C49.3888 46.8402 48.9126 46.7174 48.3355 46.4769L47.5663 48.3231C48.1892 48.5826 49.013 48.8598 49.7849 48.8239C50.1908 48.805 50.6476 48.6968 51.0472 48.3914C51.4576 48.0778 51.7082 47.6323 51.8253 47.1249L49.8765 46.6751ZM48.9509 47.4V47.3H46.9509V47.4H48.9509Z" fill="#494A4A"/>
<path id="1px" d="M13.8509 12C10.8509 12.7 9.0509 15.7 8.5509 18.1M42.3508 50C40.7508 50.5 39.6508 52.2 39.4508 53.4M30.3507 36.4002C31.8507 36.0002 34.8507 34.6002 36.5507 33.7002" stroke="#494A4A" stroke-linecap="round" stroke-linejoin="round"/>
</g>
<defs>
<clipPath id="clip0_622_42030">
<rect width="64" height="64" fill="white" transform="translate(0.550903)"/>
</clipPath>
</defs>
</svg>
