<svg width="64" height="64" viewBox="0 0 64 64" fill="none" xmlns="http://www.w3.org/2000/svg">
<g id="Pictogram-warehouse" clip-path="url(#clip0_426_120)">
<g id="stroke-default">
<path id="2px" d="M3.99998 55.09C1.99998 54.88 1.43998 53.64 1.29998 50.63C1.12998 47.25 0.759982 27.34 1.21998 21.46C1.35998 19.65 27 6 32 6C37 6 62.51 17.79 62.74 21.26C63.17 27.68 63.01 43.75 62.57 53.47C62.57 54.6 62.26 54.83 61 55C60.0023 55.0963 58.9977 55.0963 58 55C56.47 54.81 56 54.18 56 52.93C56 51.68 56.17 39.93 55.7 35.93C55.47 34.03 55.13 33.31 53.5 33.2C44.7923 32.8018 36.0693 32.8786 27.37 33.43C25.26 33.63 24.55 34.65 24.37 36.12C23.75 40.64 24.23 50.12 24.08 52.86C24.0469 53.4375 23.7945 53.9806 23.3745 54.3783C22.9545 54.776 22.3984 54.9984 21.82 55C20.75 55.06 20.33 55 20.01 55M17.8 59.3C13.8707 59.5906 9.92434 59.5605 5.99998 59.21C4.99998 59.05 4.69998 58.44 4.61998 57.28C4.40998 54.28 4.50998 48.6 4.61998 46.28C4.60609 46.0617 4.63767 45.8429 4.71274 45.6375C4.7878 45.432 4.90471 45.2444 5.05605 45.0864C5.2074 44.9285 5.38988 44.8037 5.59196 44.72C5.79403 44.6363 6.01129 44.5954 6.22998 44.6C10.0126 44.3534 13.8073 44.3534 17.59 44.6C18.81 44.73 19.14 45.23 19.27 46.5C19.5292 50.1107 19.586 53.733 19.44 57.35C19.38 58.7 19 59.15 17.8 59.3Z" stroke="#494A4A" stroke-width="2" stroke-linecap="round" stroke-linejoin="round"/>
<path id="1px" d="M23.9997 36.52C30.6297 36.75 46.7797 36.29 55.9997 36.52M23.9997 39.52C23.9997 39.52 33.9997 39.67 40.9997 39.52C47.9997 39.37 55.9997 39.52 55.9997 39.52M55.9997 53.49C54.8597 53.49 51.5697 53.64 50.8597 52.94C50.3297 52.41 50.3797 43.29 50.8597 42.81C51.3397 42.33 55.5097 42.48 55.9497 42.54M43.49 44.71L43.4799 46.48L46.5 46.5L46.4799 44.57M8.50971 44.76L8.51971 47.49L15.4797 47.48L15.4597 44.59M7.50971 36.63V38.47L10.4997 38.48L10.5197 36.59M12.4097 33.5C13.0884 33.4302 13.7699 33.6027 14.3336 33.987C14.8972 34.3714 15.3068 34.9427 15.4897 35.6M14.5197 31.51C14.9238 31.508 15.3182 31.6336 15.6468 31.8688C15.9753 32.104 16.2213 32.4369 16.3497 32.82M28.0597 10.22C29.302 9.61183 30.6311 9.20026 31.9997 9C32.9437 9.03781 33.8756 9.22688 34.7597 9.56M40.9097 45C40.2397 45.68 40.4397 52.75 40.9097 53.12C41.5497 53.64 48.7097 53.62 49.2197 53.12C49.7297 52.62 49.6197 45.49 49.2197 45C48.6197 44.24 41.3797 44.51 40.9097 45ZM5.88971 36.9C5.29971 37.5 5.47971 42.9 5.88971 43.18C6.29971 43.46 11.7897 43.62 12.2397 43.18C12.6897 42.74 12.5897 37.34 12.2397 36.9C11.7197 36.25 6.29971 36.49 5.88971 36.9ZM6.88971 24.2C6.29971 24.5 6.47971 27.2 6.88971 27.36C9.00066 27.58 11.1288 27.58 13.2397 27.36C13.5797 27.19 13.5897 24.42 13.2397 24.2C12.7197 23.88 7.29971 24 6.88971 24.2ZM17.8897 24.2C17.3097 24.5 17.4897 27.2 17.8897 27.36C20.004 27.58 22.1354 27.58 24.2497 27.36C24.5797 27.19 24.5997 24.42 24.2497 24.2C23.7197 23.88 18.2997 24 17.8897 24.2ZM28.8697 24.2C28.2897 24.5 28.4697 27.2 28.8697 27.36C30.9807 27.5801 33.1088 27.5801 35.2197 27.36C35.5597 27.19 35.5797 24.42 35.2197 24.2C34.6997 23.88 29.2797 24 28.8697 24.2ZM39.8797 24.2C39.2897 24.5 39.4697 27.2 39.8797 27.36C41.9907 27.58 44.1188 27.58 46.2297 27.36C46.5697 27.19 46.5797 24.42 46.2297 24.2C45.6997 23.88 40.2797 24 39.8797 24.2ZM50.8397 24.2C50.2597 24.5 50.4397 27.2 50.8397 27.36C52.9507 27.5801 55.0788 27.5801 57.1897 27.36C57.5297 27.19 57.5497 24.42 57.1897 24.2C56.6697 23.88 51.2497 24 50.8397 24.2Z" stroke="#494A4A" stroke-linecap="round" stroke-linejoin="round"/>
</g>
</g>
<defs>
<clipPath id="clip0_426_120">
<rect width="64" height="64" fill="white"/>
</clipPath>
</defs>
</svg>
