<svg width="64" height="64" viewBox="0 0 64 64" fill="none" xmlns="http://www.w3.org/2000/svg">
<g id="Pictogram-retail-payment">
<g id="stroke-default">
<path id="2px" d="M38.0002 9.11985C42.5002 9.11985 45.1302 11.1199 45.6302 15.8198C46.1502 20.6898 46.1002 52.4099 45.6302 56.6799C45.3402 59.3199 43.2502 61.1499 40.0002 61.9999C34.7302 63.3899 22.0002 63.2499 16.1402 61.9999C11.7302 61.0699 9.80023 59.4699 9.35023 55.9999C8.92023 52.7999 8.98023 21.6499 9.35023 17.8499C10.0002 11.4099 11.1102 9.35985 16.0002 9.15985M17.2802 20.4799C17.0602 14.9699 16.9202 9.13985 17.1102 1.47985C17.1902 -0.220149 20.5802 3.53985 21.5802 3.53985C22.5802 3.53985 22.8802 2.05985 23.9202 2.05985C24.9602 2.05985 25.9202 5.05985 26.9202 5.05985C27.9202 5.05985 29.4002 3.05985 29.9202 3.05985C30.4402 3.05985 32.5302 4.05985 33.0502 4.05985C33.5702 4.05985 35.2602 4.25985 36.1902 3.36985C36.9402 2.64985 37.7002 3.49985 37.7502 4.22985C38.0804 9.61813 38.0804 15.0216 37.7502 20.4099M38.0002 16.9999C39.5602 16.9999 38.8802 20.8299 38.0002 20.8499C29.2802 20.9799 23.0002 21.2599 16.9102 20.6399C15.3602 20.4799 16.0502 17.4399 16.9102 17.1699M48.9402 21.0699C51.8181 20.9846 54.6984 21.0447 57.5702 21.2499C58.8608 21.315 60.0841 21.8451 61.0142 22.7421C61.9443 23.6392 62.5184 24.8425 62.6302 26.1299C63.1502 30.2199 63.0802 43.3899 62.6302 47.8199C62.3002 51.1199 60.3302 52.3299 57.5702 52.6999C54.7246 53.0081 51.8604 53.1083 49.0002 52.9999" stroke="#494A4A" stroke-width="2" stroke-linecap="round" stroke-linejoin="round"/>
<path id="1px" d="M22.5601 28.8799C22.2801 29.1699 20.6501 31.3299 20.3401 31.5799M24.1401 30.2299C23.6301 30.7099 23.1401 31.7899 22.8701 31.9599M21.5201 15.5099H25.1501M21.5201 12.4999C22.2601 12.4999 23.9101 12.4999 24.4701 12.4999M21.5201 9.53986C22.2601 9.53986 25.0401 9.53986 25.5201 9.53986M29.8601 15.4899C30.7323 15.5776 31.6119 15.5609 32.4801 15.4399M31.0001 12.5299C31.3701 12.5299 31.8201 12.5299 32.4201 12.5299M29.7601 9.53986C30.5201 9.53986 31.8601 9.53986 32.3801 9.53986M12.4201 51.4399C12.2501 54.2699 12.1401 56.0599 13.5001 57.4399M57.9401 43.5599C58.303 44.0971 58.4948 44.7316 58.4901 45.3799C58.4901 46.1755 58.174 46.9386 57.6114 47.5012C57.0488 48.0638 56.2857 48.3799 55.4901 48.3799C54.6944 48.3799 53.9314 48.0638 53.3688 47.5012C52.8062 46.9386 52.4901 46.1755 52.4901 45.3799C52.4703 44.7322 52.6482 44.0939 53.0001 43.5499M57.5101 32.6099C57.5601 31.6099 57.5101 26.4499 57.5101 25.6099M54.5301 29.6699C54.5301 28.8399 54.5301 26.3099 54.5301 25.5699M58.5201 17.4699C58.5201 15.0799 58.4201 12.9099 58.4201 10.4099M61.4301 18.4099C61.2501 16.4999 61.5001 13.5999 61.4301 12.5199M54.4901 17.4699C54.4401 16.6999 54.5701 15.6699 54.4901 14.5899M19.9201 46.3799C18.9729 46.5698 17.9973 46.5698 17.0501 46.3799C16.1101 46.1599 15.6801 45.7299 15.5801 45.0699C15.4863 43.7387 15.4596 42.4037 15.5001 41.0699C15.5704 40.6956 15.759 40.3538 16.0379 40.0946C16.3169 39.8354 16.6717 39.6725 17.0501 39.6299C18.0009 39.4799 18.9693 39.4799 19.9201 39.6299C20.7301 39.7699 21.4601 39.9399 21.5001 40.6299C21.5421 42.068 21.4953 43.5074 21.3601 44.9399C21.2975 45.2989 21.1257 45.63 20.8679 45.8877C20.6102 46.1454 20.2792 46.3173 19.9201 46.3799ZM20.2801 56.2899C19.2053 56.4881 18.1085 56.5385 17.0201 56.4399C16.6383 56.4013 16.2821 56.2301 16.0135 55.956C15.7449 55.682 15.5809 55.3224 15.5501 54.9399C15.4901 54.2599 15.4601 51.6599 15.5501 50.8399C15.6401 50.0199 16.4201 49.7599 17.0801 49.6199C18.0309 49.4699 18.9993 49.4699 19.9501 49.6199C20.3086 49.6838 20.6389 49.8561 20.8964 50.1136C21.1539 50.3711 21.3262 50.7014 21.3901 51.0599C21.5407 52.3445 21.5608 53.6411 21.4501 54.9299C21.3201 55.7299 21.1101 56.0799 20.2801 56.2899ZM29.3001 46.3699C28.111 46.5598 26.8992 46.5598 25.7101 46.3699C25.4101 46.2741 25.144 46.094 24.9436 45.851C24.7432 45.6081 24.617 45.3126 24.5801 44.9999C24.445 43.5296 24.445 42.0501 24.5801 40.5799C24.7601 39.7699 24.9301 39.6899 25.5801 39.5799C26.685 39.4301 27.8051 39.4301 28.9101 39.5799C29.282 39.6202 29.6305 39.7806 29.903 40.0368C30.1755 40.2931 30.357 40.6312 30.4201 40.9999C30.5001 41.5499 30.5001 44.3499 30.4201 44.9299C30.4265 45.2618 30.3188 45.586 30.1149 45.8481C29.9111 46.1102 29.6234 46.2943 29.3001 46.3699ZM38.0001 46.3699C37.0495 46.5598 36.0707 46.5598 35.1201 46.3699C34.758 46.312 34.4233 46.1419 34.1631 45.8835C33.9029 45.6251 33.7305 45.2915 33.6701 44.9299C33.505 43.5113 33.505 42.0784 33.6701 40.6599C33.8601 39.8399 34.4701 39.7399 35.1401 39.5999C36.178 39.4498 37.2322 39.4498 38.2701 39.5999C39.0801 39.7399 39.2701 39.9199 39.4201 40.5999C39.6304 42.1516 39.6505 43.7232 39.4801 45.2799C39.2501 45.9999 38.7901 46.1699 38.0001 46.3699ZM24.5501 55.3699C24.435 53.9021 24.435 52.4276 24.5501 50.9599C24.6193 50.6148 24.7976 50.3012 25.0587 50.0653C25.3198 49.8294 25.6498 49.6838 26.0001 49.6499C27.4001 49.4399 35.4301 49.4799 38.0001 49.6499C38.3463 49.6746 38.6755 49.8091 38.9399 50.034C39.2043 50.2588 39.3901 50.5621 39.4701 50.8999C39.6177 52.2291 39.6177 53.5706 39.4701 54.8999C39.3484 55.262 39.1158 55.5766 38.8053 55.7991C38.4948 56.0217 38.1221 56.1409 37.7401 56.1399C33.7493 56.4851 29.7387 56.5386 25.7401 56.2999C25.4634 56.3125 25.1913 56.2256 24.973 56.0551C24.7547 55.8845 24.6047 55.6414 24.5501 55.3699ZM38.3301 36.3799C35.9201 36.5099 19.2301 36.6299 17.3301 36.4399C15.9901 36.3099 15.5501 35.2999 15.4701 33.9099C15.4701 33.3999 15.3901 29.6199 15.5701 27.9099C15.7501 26.1999 16.7501 25.7999 18.2401 25.7399C20.9801 25.6299 33.1301 25.3999 36.3001 25.6499C38.2201 25.7999 39.0401 26.2799 39.3801 27.6499C39.5201 28.2299 39.4701 34.2199 39.3801 34.6999C39.3201 35.6099 39.0001 36.3399 38.3301 36.3799ZM58.4901 41.5199C58.4901 43.1822 57.1425 44.5299 55.4801 44.5299C53.8177 44.5299 52.4701 43.1822 52.4701 41.5199C52.4701 39.8575 53.8177 38.5099 55.4801 38.5099C57.1425 38.5099 58.4901 39.8575 58.4901 41.5199Z" stroke="#494A4A" stroke-linecap="round" stroke-linejoin="round"/>
</g>
</g>
</svg>
