<svg width="64" height="64" viewBox="0 0 64 64" fill="none" xmlns="http://www.w3.org/2000/svg">
<g id="Pictogram-global">
<g id="stroke-default">
<path id="2px-stroke-default" d="M32 62C48.5685 62 62 48.5685 62 32C62 15.4315 48.5685 2 32 2C15.4315 2 2 15.4315 2 32C2 48.5685 15.4315 62 32 62Z" stroke="#494A4A" stroke-width="2" stroke-linecap="round" stroke-linejoin="round"/>
<path id="1px-stroke-default" d="M16.47 6.32999C19 4.99999 21.3 8.67999 19.62 10.7C17.11 13.7 13.97 12.76 12.72 13.85C10.94 15.41 11.4 19.33 9.32002 20.92C6.91002 22.76 3.41002 21.62 2.70002 26.33M2.56002 27C2.27002 33.25 8.56002 32.8 8.67002 36.75C8.80002 40.1 4.58002 45 9.34002 51.35M59.41 20.68C58.3 23.26 59.86 25.68 58.89 26.02C58.18 26.29 57.38 24.87 55.81 23.33C54.24 21.79 52.4 21.33 51.11 22.22C50.39 22.72 53.01 23.22 53.11 24.16C53.21 25.1 51.03 27.41 49.79 27.51C48.37 27.63 45.54 23.59 44.21 24.34C43.21 24.91 44.04 27.42 46.27 28.54C48.5 29.66 50.8 29.19 50.87 30.33C51.22 35.82 48.14 34.09 45.94 44.46C45.26 47.66 41.27 54.41 37.28 53.93C34.59 53.61 33.42 47 33 43.37C32.58 39.74 32.12 36.23 29.63 34.55C27.52 33.12 19.63 37.77 19.63 29.06C19.63 20.35 28.85 20.72 30.63 20.82C33.57 20.97 38.54 24.49 42.31 22.43C45.52 20.68 45.73 18.01 44.78 17.13C43.58 16.02 42.56 18.13 38.92 18.42C36.38 18.62 33.52 15.25 33.71 16.51C34 18.39 31.78 19.01 31.06 17.08C30.67 16.08 29.06 16.18 28.3 18.32C28.09 18.95 26.02 19.53 25.3 19.06C24.58 18.59 24.15 16.35 25.3 15.71C26.45 15.07 27.04 15.96 27.61 15.22C28.18 14.48 26.98 13.22 27.41 12.48C27.84 11.74 30.75 11.99 32.41 10.54C34.07 9.08999 31.98 6.53999 34.15 5.35999C36.32 4.17999 40.46 6.56999 41.08 3.35999M25.56 36.59C27.74 36.23 28.77 36.37 29.43 37.79M11.22 35.82C11.73 39.17 10.65 40.59 10.22 42.52M24.08 24.44C23.4402 24.6997 22.8848 25.1315 22.4753 25.6875C22.0658 26.2434 21.8182 26.9019 21.76 27.59M28.22 5.58999C26.77 5.83999 27.07 9.78999 28.9 9.32999C30.39 8.99999 30 5.28999 28.22 5.58999Z" stroke="#494A4A" stroke-linecap="round" stroke-linejoin="round"/>
</g>
</g>
</svg>
