<svg width="64" height="64" viewBox="0 0 64 64" fill="none" xmlns="http://www.w3.org/2000/svg">
<g id="Pictogram-user-money">
<g id="stroke-default">
<path id="2px" d="M56.1 27.9999L56.0095 27.004L56.0021 27.0047L56.1 27.9999ZM60.1 26.5999L59.6309 25.7168C59.6122 25.7267 59.5939 25.7372 59.5759 25.7483L60.1 26.5999ZM62 16.1999L62.9128 15.7916L62.9104 15.7861L62 16.1999ZM52.7 11.9999L52.2294 11.1176C52.2244 11.1203 52.2194 11.123 52.2144 11.1258L52.7 11.9999ZM49.3 14.1999L48.5474 13.5414L48.5408 13.5491L49.3 14.1999ZM38.5515 63.7987C39.1031 63.7703 39.5271 63.3001 39.4987 62.7485C39.4702 62.197 39 61.7729 38.4485 61.8014L38.5515 63.7987ZM7.8 44.9001L8.37106 45.721L8.37753 45.7165L8.38393 45.7119L7.8 44.9001ZM25.8 32.2001C25.8 31.6478 25.3523 31.2001 24.8 31.2001C24.2477 31.2001 23.8 31.6478 23.8 32.2001H25.8ZM38.3 31.7001C38.3 31.1478 37.8523 30.7001 37.3 30.7001C36.7477 30.7001 36.3 31.1478 36.3 31.7001H38.3ZM37.0318 35.3962C37.3058 35.8757 37.9166 36.0423 38.3961 35.7683C38.8757 35.4943 39.0423 34.8834 38.7682 34.4039L37.0318 35.3962ZM52.9 37.4001L52.6574 38.3702L52.6962 38.3799L52.7356 38.3865L52.9 37.4001ZM48.4 36.8001L48.3133 37.7963L48.3202 37.7969L48.4 36.8001ZM45.5 61.5001L45.7248 60.5257L45.7133 60.523L45.7016 60.5206L45.5 61.5001ZM48.4 62.0001L48.4927 61.0044L48.4905 61.0042L48.4 62.0001ZM53.5 37.5001L53.7124 36.5229L53.6885 36.5177L53.6644 36.5137L53.5 37.5001ZM56.1906 28.9958C57.4523 28.8811 59.1997 28.3282 60.6241 27.4516L59.5759 25.7483C58.4004 26.4717 56.9478 26.9187 56.0095 27.004L56.1906 28.9958ZM60.5692 27.483C62.5341 26.4392 63.5583 24.4525 63.8764 22.3361C64.1947 20.2186 63.8341 17.851 62.9128 15.7916L61.0872 16.6083C61.8659 18.3489 62.1553 20.3312 61.8986 22.0388C61.6418 23.7473 60.866 25.0607 59.6309 25.7168L60.5692 27.483ZM62.9104 15.7861C60.7242 10.9766 55.8445 9.18951 52.2294 11.1176L53.1706 12.8823C55.5555 11.6103 59.2758 12.6233 61.0896 16.6137L62.9104 15.7861ZM52.2144 11.1258C51.8015 11.3552 51.0784 11.7318 50.413 12.1285C49.7646 12.515 49.0128 13.0095 48.5474 13.5414L50.0526 14.8584C50.2872 14.5903 50.7854 14.2348 51.4371 13.8464C52.0717 13.4681 52.6986 13.1447 53.1857 12.8741L52.2144 11.1258ZM48.5408 13.5491C47.4431 14.8297 46.9946 16.5094 46.986 18.2073C46.9773 19.9093 47.4075 21.7037 48.1549 23.3197C49.6145 26.4756 52.5177 29.3571 56.1979 28.9951L56.0021 27.0047C53.5823 27.2427 51.2856 25.3243 49.9701 22.4801C49.33 21.0961 48.979 19.5905 48.9859 18.2175C48.9929 16.8404 49.3569 15.6702 50.0593 14.8507L48.5408 13.5491ZM38.4485 61.8014C30.7451 62.199 22.1808 61.9741 15.5636 61.133C12.2463 60.7114 9.47299 60.1414 7.55338 59.4418C6.58876 59.0902 5.90363 58.7283 5.47741 58.3819C5.0517 58.0359 5 57.8067 5 57.7001H3C3 58.6435 3.54205 59.3861 4.21595 59.9339C4.88934 60.4812 5.80967 60.9349 6.8685 61.3209C8.99576 62.0962 11.9412 62.6887 15.3114 63.1171C22.0692 63.976 30.7549 64.2011 38.5515 63.7987L38.4485 61.8014ZM5 57.7001C5 55.6967 5.36101 52.9839 6.00349 50.5836C6.32418 49.3856 6.70723 48.2951 7.13389 47.4245C7.57286 46.5289 8.00573 45.9751 8.37106 45.721L7.22894 44.0792C6.44427 44.625 5.82714 45.5463 5.33798 46.5443C4.83652 47.5675 4.41332 48.7895 4.07151 50.0665C3.38899 52.6163 3 55.5034 3 57.7001H5ZM8.38393 45.7119C9.67112 44.786 11.3153 44.1554 13.1613 43.5742C14.951 43.0107 16.993 42.4783 18.8026 41.7685C20.6372 41.049 22.4037 40.0893 23.7066 38.5594C25.0311 37.0043 25.8 34.9515 25.8 32.2001H23.8C23.8 34.5486 23.1564 36.1208 22.184 37.2626C21.1901 38.4296 19.7753 39.2387 18.0724 39.9066C16.3445 40.5843 14.4927 41.0582 12.5606 41.6665C10.6847 42.2572 8.77888 42.9641 7.21607 44.0883L8.38393 45.7119ZM36.3 31.7001C36.3 32.2577 36.355 32.9388 36.4642 33.5804C36.5687 34.1942 36.7413 34.8879 37.0318 35.3962L38.7682 34.4039C38.6587 34.2122 38.5313 33.8059 38.4358 33.2448C38.345 32.7113 38.3 32.1424 38.3 31.7001H36.3ZM31 35.5001C37.5389 35.5001 44 28.2135 44 15.3001H42C42 27.7866 35.8611 33.5001 31 33.5001V35.5001ZM44 15.3001C44 10.3547 42.816 6.51086 40.5281 3.89212C38.2222 1.25286 34.9199 6.10352e-05 31 6.10352e-05V2.00006C34.4801 2.00006 37.1778 3.09726 39.0219 5.208C40.884 7.33926 42 10.6455 42 15.3001H44ZM31 6.10352e-05C27.0801 6.10352e-05 23.7778 1.25286 21.4719 3.89212C19.184 6.51086 18 10.3547 18 15.3001H20C20 10.6455 21.116 7.33926 22.9781 5.208C24.8222 3.09726 27.5199 2.00006 31 2.00006V6.10352e-05ZM18 15.3001C18 28.2135 24.4611 35.5001 31 35.5001V33.5001C26.1389 33.5001 20 27.7866 20 15.3001H18ZM53.1425 36.4299C52.2634 36.2102 50.9998 36.0049 48.4797 35.8033L48.3202 37.7969C50.8002 37.9953 51.9365 38.19 52.6574 38.3702L53.1425 36.4299ZM48.4866 35.8038C44.7255 35.4768 41.6773 36.8151 39.495 39.0629C37.3341 41.2886 36.0526 44.3688 35.6818 47.5337C34.9456 53.8173 37.8092 60.9377 45.2983 62.4795L45.7016 60.5206C39.5908 59.2625 37.0043 53.4328 37.6682 47.7664C37.9974 44.9564 39.1284 42.3116 40.9299 40.4561C42.7101 38.6225 45.1744 37.5234 48.3133 37.7963L48.4866 35.8038ZM45.2751 62.4745C46.5962 62.7793 47.1455 62.8902 48.3094 62.996L48.4905 61.0042C47.4545 60.91 47.0038 60.8208 45.7248 60.5257L45.2751 62.4745ZM48.3072 62.9958C52.5886 63.3947 56.0553 62.1628 58.5826 59.9841C61.0938 57.8192 62.6221 54.769 63.1489 51.6016C64.1966 45.3026 61.2821 38.1685 53.7124 36.5229L53.2876 38.4772C59.5179 39.8317 62.1034 45.6975 61.176 51.2735C60.7153 54.0436 59.3874 56.6497 57.2767 58.4692C55.1822 60.2749 52.2613 61.3555 48.4927 61.0044L48.3072 62.9958ZM53.6644 36.5137L53.0643 36.4137L52.7356 38.3865L53.3356 38.4865L53.6644 36.5137Z" fill="#494A4A"/>
<path id="1px" d="M56.9 16.2999C53.5 15.7999 54.6 20.0999 56.7 18.9999C59.1 17.7999 60.8 21.3999 56.7 21.7999M55.1 15.6999L55.4 16.2999M58.3 21.3999L58.8 22.1999M52.2 12.7999C47.3 15.9999 52.6 30.1999 60.5 25.7999M11.7 46.1001C9 47.0001 8.9 47.4001 8 50.9001M43.6 40.2001C42 41.2001 40.7 43.2001 40.1 45.0001M48.7 58.7001C50.5 58.7001 52.4 57.5001 53.6 56.2001M48.5 37.2001C64.2 38.4001 61.5 64.3001 44.8 60.8001M53.2 48.2001C53.2 48.2001 50.7 47.4001 50.4 47.0001C50.1 46.6001 51 44.2001 50.8 43.6001C50.7 43.0001 48.1 42.6001 47.9 42.9001C47.6 43.2001 46.8 45.9001 46.4 46.2001C46 46.5001 43.6 45.6001 43.1 45.8001C42.6 46.1001 42.3 48.3001 42.8 48.8001C43.1 49.2001 44.9 49.7001 45.1 50.0001C45.3 50.3001 44 53.0001 44.2 53.4001C44.5 54.0001 47.5 54.9001 47.7 54.3001C47.9 53.7001 48.4 50.8001 49.2 51.2001C49.5 51.4001 51 51.7001 51.7 51.5001C52.5 51.3001 53.4 48.7001 53.1 48.3001L53.2 48.2001Z" stroke="#494A4A" stroke-linecap="round" stroke-linejoin="round"/>
</g>
</g>
</svg>
