<svg width="64" height="64" viewBox="0 0 64 64" fill="none" xmlns="http://www.w3.org/2000/svg">
<g id="  Pictogram-graduation">
<g id="stroke-default">
<path id="2px" d="M56.1006 28.5004C59.4006 26.8004 61.2006 25.7004 61.4006 25.3004C62.1006 22.4004 36.2006 10.6004 31.7006 11.1004C27.2006 11.6004 4.40063 20.3004 2.70063 23.4004C1.30063 26.1004 27.0006 37.6004 30.9006 37.8004C34.5006 38.0004 43.6006 34.6004 51.3006 30.9004M13.0006 30.7004C13.1006 32.5004 13.0006 35.9004 13.0006 37.7004C12.9006 40.8004 12.7006 44.0004 14.0006 45.9004C15.7006 48.6004 26.7006 51.9004 32.3006 51.9004C37.9006 51.9004 46.5006 47.7004 47.9006 46.0004C48.8006 44.9004 48.5006 42.7004 48.3006 40.2004C48.3006 40.2004 47.6006 33.7004 48.0006 32.8004M51.8006 59.4004C56.0006 54.3004 53.3006 46.2004 57.1006 46.2004C60.9006 46.2004 58.0006 54.5004 60.9006 58.4004M35.0006 22.8004C35.0006 23.4631 33.4784 24.0004 31.6006 24.0004C29.7229 24.0004 28.2006 23.4631 28.2006 22.8004C28.2006 22.1376 29.7229 21.6004 31.6006 21.6004C33.4784 21.6004 35.0006 22.1376 35.0006 22.8004ZM57.2006 42.7004C56.3006 42.7004 56.3006 39.5004 57.2006 39.5004C58.1006 39.5004 58.1006 42.7004 57.2006 42.7004Z" stroke="#494A4A" stroke-width="2" stroke-linecap="round" stroke-linejoin="round"/>
<path id="1px" d="M24.7004 2.7002C24.7004 2.7002 25.3004 3.7002 25.7004 3.8002C26.1004 3.8002 26.6004 3.2002 27.1004 3.3002C27.6004 3.4002 28.1004 4.5002 28.7004 4.6002C29.3004 4.7002 29.4004 3.9002 29.9004 3.9002C30.4004 3.9002 31.2004 5.0002 31.2004 5.0002M4.30035 9.3002C4.30035 9.3002 4.30035 10.5002 4.70035 10.7002C5.10035 10.9002 5.80035 10.6002 6.20035 10.9002C6.60035 11.2002 6.60035 12.5002 7.00035 12.8002C7.40035 13.1002 8.00035 12.4002 8.50035 12.7002C9.00035 13.0002 9.20035 14.3002 9.20035 14.3002M11.2004 3.2002C11.2004 3.2002 12.7004 4.4002 12.9004 5.0002M44.7003 6.0002C44.7003 6.0002 43.7003 7.7002 43.1003 7.9002M57.7004 6.0002C57.7004 6.0002 57.7004 7.2002 57.3004 7.4002C56.9004 7.6002 56.2004 7.30019 55.8004 7.60019C55.4004 7.90019 55.4004 9.2002 55.0004 9.5002C54.6004 9.8002 54.0004 9.1002 53.5004 9.4002C53.0004 9.7002 52.8004 11.0002 52.8004 11.0002M21.6004 8.8002C21.6004 8.8002 20.6004 9.7002 20.5004 10.0002M61.0004 14.6002C61.0004 14.6002 60.0003 15.5002 59.9003 15.8002M52.9007 27.8004C56.9007 26.2004 60.3007 24.7004 60.4007 24.3004M2.90068 22.8004C1.50068 24.9004 26.8007 34.2004 30.6007 34.3004C33.7007 34.4004 40.7007 32.4004 47.8007 29.8004M34.1007 23.6004C35.2007 23.6004 55.8007 27.9004 56.6007 29.6004C57.4007 31.3004 57.1007 45.6004 57.1007 45.6004M61.4007 58.7004C61.4007 57.9004 58.1007 58.9004 56.2007 59.1004C53.8007 59.4004 51.3007 58.9004 51.3007 59.7004C51.3007 60.5004 53.9007 61.5004 56.7007 61.5004C59.5007 61.5004 61.4007 59.5004 61.4007 58.7004Z" stroke="#494A4A" stroke-linecap="round" stroke-linejoin="round"/>
</g>
</g>
</svg>
