<svg width="64" height="64" viewBox="0 0 64 64" fill="none" xmlns="http://www.w3.org/2000/svg">
<g id="Pictogram-report-user ">
<g id="stroke-default">
<path id="2px" d="M10.0032 22.0203C9.95914 22.5708 10.3697 23.0528 10.9203 23.0968C11.4708 23.1409 11.9528 22.7303 11.9968 22.1797L10.0032 22.0203ZM14.4 17.4L14.6216 18.3751C14.6286 18.3735 14.6356 18.3719 14.6425 18.3701L14.4 17.4ZM20.5 16.3L20.2751 15.3256L20.271 15.3266L20.5 16.3ZM24.8 11.9L23.8338 11.6423C23.8309 11.6532 23.8281 11.6642 23.8256 11.6751L24.8 11.9ZM25.4 6.6L24.4122 6.44404L24.4116 6.44794L25.4 6.6ZM30.3 4C30.8523 4 31.3 3.55228 31.3 3C31.3 2.44772 30.8523 2 30.3 2V4ZM52.0001 30.2C52.0001 30.7523 52.4478 31.2 53.0001 31.2C53.5524 31.2 54.0001 30.7523 54.0001 30.2H52.0001ZM52.6001 9.4L51.6048 9.4971L51.6049 9.49789L52.6001 9.4ZM48.1001 3.5L48.1934 2.50434L48.1867 2.50376L48.1001 3.5ZM18.8001 9L19.5157 9.69854L19.518 9.69615L18.8001 9ZM11.3001 53.5H12.3001C12.3001 53.4943 12.3 53.4887 12.3 53.4831L11.3001 53.5ZM15.9001 58.4L15.974 57.4027C15.9632 57.4019 15.9525 57.4013 15.9417 57.4009L15.9001 58.4ZM31.5001 59.8C32.0524 59.8 32.5001 59.3523 32.5001 58.8C32.5001 58.2477 32.0524 57.8 31.5001 57.8V59.8ZM52.6 48C52.6 47.4477 52.1523 47 51.6 47C51.0477 47 50.6 47.4477 50.6 48H52.6ZM59.9 54L60.4547 53.1679L60.4412 53.1589L60.4274 53.1504L59.9 54ZM36.9 54.2L37.4369 55.0437L37.4595 55.0293L37.4812 55.0137L36.9 54.2ZM46.3 48C46.3 47.4477 45.8523 47 45.3 47C44.7477 47 44.3 47.4477 44.3 48H46.3ZM11.9968 22.1797C12.0887 21.0316 12.3577 20.1721 12.774 19.5665C13.1725 18.987 13.7503 18.5732 14.6216 18.3751L14.1784 16.4249C12.8497 16.7268 11.8275 17.413 11.126 18.4335C10.4423 19.4279 10.1113 20.6684 10.0032 22.0203L11.9968 22.1797ZM14.6425 18.3701C15.1896 18.2334 16.2323 18.0666 17.4217 17.8747C18.5722 17.6892 19.8368 17.4834 20.729 17.2734L20.271 15.3266C19.4632 15.5166 18.2778 15.7108 17.1033 15.9003C15.9677 16.0834 14.8104 16.2666 14.1575 16.4299L14.6425 18.3701ZM20.7249 17.2744C22.1334 16.9493 23.263 16.4327 24.1198 15.5441C24.9715 14.6609 25.4541 13.513 25.7744 12.1249L23.8256 11.6751C23.5459 12.887 23.1785 13.6391 22.6802 14.1559C22.187 14.6673 21.4665 15.0507 20.2751 15.3256L20.7249 17.2744ZM25.7662 12.1577C25.9932 11.3066 26.0976 10.2193 26.1721 9.2517C26.2507 8.2291 26.2961 7.35206 26.3884 6.75206L24.4116 6.44794C24.3039 7.14794 24.2493 8.1709 24.1779 9.0983C24.1024 10.0807 24.0068 10.9934 23.8338 11.6423L25.7662 12.1577ZM26.3878 6.75596C26.6028 5.39392 27.8376 4 30.3 4V2C26.9624 2 24.7972 4.00608 24.4122 6.44404L26.3878 6.75596ZM54.0001 30.2C54.0001 25.1485 54.2016 15.4666 53.5953 9.30211L51.6049 9.49789C52.1986 15.5334 52.0001 25.0515 52.0001 30.2H54.0001ZM53.5954 9.3029C53.3949 7.24812 53.0576 5.59989 52.2079 4.43553C51.2952 3.18479 49.9373 2.66786 48.1934 2.50437L48.0068 4.49563C49.4629 4.63214 50.155 5.01521 50.5923 5.61447C51.0926 6.30011 51.4053 7.45188 51.6048 9.4971L53.5954 9.3029ZM48.1867 2.50376C43.5366 2.0994 34.0937 2 30.4001 2V4C34.1064 4 43.4636 4.1006 48.0135 4.49624L48.1867 2.50376ZM30.4001 2C24.6668 2 21.3145 4.97051 18.0822 8.30385L19.518 9.69615C22.6857 6.42949 25.5334 4 30.4001 4V2ZM18.0845 8.30146C16.1061 10.3281 14.0636 12.141 12.5844 14.3271C11.0557 16.5863 10.1001 19.2579 10.1001 23.1H12.1001C12.1001 19.6421 12.9445 17.3637 14.2408 15.4479C15.5866 13.459 17.3941 11.8719 19.5157 9.69854L18.0845 8.30146ZM10.1001 23.1C10.1001 26.7016 10.2001 47.6083 10.3002 53.5169L12.3 53.4831C12.2001 47.5917 12.1001 26.6984 12.1001 23.1H10.1001ZM10.3001 53.5C10.3001 55.3875 10.9377 56.8645 12.0147 57.8782C13.0751 58.8762 14.4717 59.3414 15.8585 59.3991L15.9417 57.4009C14.9285 57.3587 14.0251 57.0238 13.3855 56.4218C12.7625 55.8355 12.3001 54.9125 12.3001 53.5H10.3001ZM15.8262 59.3973C21.2706 59.8006 30.3108 59.8 31.5001 59.8V57.8C30.2894 57.8 21.3295 57.7994 15.974 57.4027L15.8262 59.3973ZM50.6 48C50.6 49.3859 51.0058 50.475 51.7305 51.3187C52.4327 52.1363 53.3681 52.6454 54.2899 53.0155C55.1986 53.3803 56.2218 53.6555 57.0871 53.9203C57.9959 54.1984 58.7673 54.4739 59.3726 54.8496L60.4274 53.1504C59.5826 52.6261 58.5916 52.2891 57.6723 52.0078C56.7095 51.7132 55.8389 51.4822 55.0351 51.1595C54.2444 50.8421 53.6486 50.4824 53.2477 50.0156C52.8692 49.575 52.6 48.9641 52.6 48H50.6ZM59.3453 54.8321C59.4463 54.8994 59.6327 55.0953 59.8558 55.5057C60.0679 55.8958 60.2695 56.3982 60.4438 56.9677C60.7943 58.1127 61 59.4136 61 60.4H63C63 59.1864 62.7557 57.6873 62.3562 56.3823C62.1555 55.7268 61.9071 55.0917 61.6129 54.5505C61.3298 54.0297 60.9537 53.5006 60.4547 53.1679L59.3453 54.8321ZM61 60.4C61 60.2484 61.0834 60.2018 61.0118 60.2691C60.9328 60.3434 60.7601 60.4608 60.4435 60.5975C59.8153 60.8688 58.8535 61.1185 57.6157 61.3263C55.1583 61.7389 51.8432 61.95 48.5 61.95C45.1568 61.95 41.8417 61.7389 39.3843 61.3263C38.1465 61.1185 37.1847 60.8688 36.5565 60.5975C36.2399 60.4608 36.0672 60.3434 35.9882 60.2691C35.9166 60.2018 36 60.2484 36 60.4H34C34 60.9766 34.2943 61.4217 34.6182 61.7262C34.9347 62.0238 35.3422 62.2517 35.7638 62.4337C36.6122 62.8 37.7598 63.0815 39.0532 63.2987C41.6583 63.7361 45.0932 63.95 48.5 63.95C51.9068 63.95 55.3417 63.7361 57.9468 63.2987C59.2402 63.0815 60.3878 62.8 61.2362 62.4337C61.6578 62.2517 62.0653 62.0238 62.3818 61.7262C62.7057 61.4217 63 60.9766 63 60.4H61ZM36 60.4C36 59.4537 36.1839 58.1702 36.5002 57.0457C36.6577 56.4857 36.8394 55.9962 37.0297 55.6234C37.2348 55.2215 37.3908 55.073 37.4369 55.0437L36.3631 53.3563C35.8592 53.677 35.5027 54.216 35.2484 54.7141C34.9793 55.2413 34.7548 55.8643 34.5749 56.5043C34.2161 57.7798 34 59.2463 34 60.4H36ZM37.4812 55.0137C38.0422 54.613 38.7852 54.3258 39.6894 54.0459C40.5368 53.7836 41.5945 53.5111 42.5099 53.158C43.4498 52.7955 44.4139 52.2901 45.1385 51.45C45.8856 50.5838 46.3 49.4542 46.3 48H44.3C44.3 49.0458 44.0144 49.6912 43.624 50.1437C43.2111 50.6224 42.6002 50.9795 41.7901 51.292C40.9555 51.6139 40.0882 51.8289 39.0981 52.1353C38.1648 52.4242 37.1578 52.787 36.3188 53.3863L37.4812 55.0137ZM48.5 50C50.2137 50 51.867 48.9849 53.0508 47.2515C54.2395 45.5109 55 43.0013 55 39.8H53C53 42.6987 52.3105 44.7891 51.3992 46.1235C50.483 47.4651 49.3862 48 48.5 48V50ZM55 39.8C55 37.3652 54.446 35.4 53.289 34.0298C52.1093 32.6328 50.4269 32 48.5 32V34C49.9731 34 51.0407 34.4672 51.761 35.3202C52.504 36.2 53 37.6348 53 39.8H55ZM48.5 32C46.5731 32 44.8907 32.6328 43.711 34.0298C42.554 35.4 42 37.3652 42 39.8H44C44 37.6348 44.496 36.2 45.239 35.3202C45.9593 34.4672 47.0269 34 48.5 34V32ZM42 39.8C42 42.9546 42.7619 45.4613 43.9471 47.2108C45.1242 48.9485 46.7754 50 48.5 50V48C47.6245 48 46.5258 47.4515 45.6029 46.0892C44.6881 44.7387 44 42.6454 44 39.8H42Z" fill="#494A4A"/>
<path id="1px" d="M14.4998 51.5C14.4998 54.4 14.2998 55.5 20.3998 55.5M21.5 34.6001C22.9 34.5001 36.7 34.6001 37.5 34.6001M24.7998 24.9999C25.8998 23.5999 27.1998 22.0999 27.9998 20.8999M31.1001 20.7998C32.4001 22.0998 33.9001 23.1998 35.0001 24.1998M38.1001 24.3C39.5001 22.9 40.6001 21.5 42.2001 20M21.3999 40.6001C22.8999 40.5001 36.6999 40.6001 37.4999 40.6001M21.3999 46.5C22.8999 46.4 32.4999 46.5 33.2999 46.5M25.5 26.5C25.5 27.6046 24.6046 28.5 23.5 28.5C22.3954 28.5 21.5 27.6046 21.5 26.5C21.5 25.3954 22.3954 24.5 23.5 24.5C24.6046 24.5 25.5 25.3954 25.5 26.5ZM38.5 25.5C38.5 26.6046 37.6046 27.5 36.5 27.5C35.3954 27.5 34.5 26.6046 34.5 25.5C34.5 24.3954 35.3954 23.5 36.5 23.5C37.6046 23.5 38.5 24.3954 38.5 25.5ZM31.5 19.5C31.5 20.6046 30.6046 21.5 29.5 21.5C28.3954 21.5 27.5 20.6046 27.5 19.5C27.5 18.3954 28.3954 17.5 29.5 17.5C30.6046 17.5 31.5 18.3954 31.5 19.5ZM45.5 18.5C45.5 19.6046 44.6046 20.5 43.5 20.5C42.3954 20.5 41.5 19.6046 41.5 18.5C41.5 17.3954 42.3954 16.5 43.5 16.5C44.6046 16.5 45.5 17.3954 45.5 18.5Z" stroke="#494A4A" stroke-linecap="round" stroke-linejoin="round"/>
</g>
</g>
</svg>
