<svg width="64" height="64" viewBox="0 0 64 64" fill="none" xmlns="http://www.w3.org/2000/svg">
<g id="Pictogram-ski-1">
<g id="stroke-default">
<path id="2px" d="M15.7 32.6001C15.7 26.3001 15.9 17.5001 16.1 11.2001C16.1 11.1001 16.1 10.9001 16.1 10.8001C17 7.7001 18.2 5.0001 19.6 3.0001C20.1 2.3001 21 2.3001 21.4 3.0001C22.9 5.2001 24 7.8001 24.9 10.8001C24.9 10.9001 24.9 11.1001 24.9 11.2001C24.9 12.9001 24.9 17.0001 25 18.7001M53.1 13.5999C50 29.3999 46.7 44.1999 42.9 57.5999M46.0001 14.3001C48.1001 29.6001 50.8001 44.4001 54.0001 58.8001M25.5 35.7001C25.5 42.9001 25.4 52.5001 25.2 59.6001C25.2 60.3001 24.8 60.8001 24.2 60.9001C21.8 61.3001 19.5 61.3001 17.1 60.9001C16.5 60.9001 16.1 60.3001 16.1 59.6001C16.1 57.2001 15.9 52.4001 15.9 50.0001M8.69995 58.6001C6.49995 57.7001 4.49995 56.4001 2.79995 54.8001C2.39995 54.4001 2.29995 53.7001 2.69995 53.2001C11 39.7001 20.1 26.1001 29.7 12.5001C29.7 12.4001 29.9 12.3001 30 12.2001C32.5 10.1001 35 8.5001 37.3 7.5001C38.1 7.2001 38.8 7.7001 38.8 8.5001C38.8 11.1001 38.3 13.9001 37.4 16.9001C37.4 17.0001 37.3 17.2001 37.2 17.3001C28.5 31.3001 19.5 44.9001 10.2 58.0001C9.79995 58.5001 9.19995 58.8001 8.59995 58.6001H8.69995ZM54.6 13.0999C53.6 13.0999 52.7 12.8999 51.9 12.3999C52.3 9.9999 52.8 7.5999 53.5 5.3999C54.4 5.4999 55.3 5.6999 56.2 6.0999C55.9 8.5999 55.3 10.8999 54.6 13.0999ZM47.1001 13.2001C46.2001 13.6001 45.3001 13.8001 44.4001 13.6001C43.8001 11.2001 43.3001 8.9001 43.1001 6.5001C44.0001 6.2001 44.9001 6.1001 45.8001 6.1001C46.5001 8.5001 46.9001 10.9001 47.1001 13.2001Z" stroke="#494A4A" stroke-width="2" stroke-linecap="round" stroke-linejoin="round"/>
<path id="1px" d="M41.9 61.1999L42.2 60.0999M54.5001 62.4001L54.3001 61.2001M17.2998 37.3999C17.2998 37.3999 18.4998 37.9999 18.8998 38.2999M20.2002 32.6C20.2002 32.6 22.5002 30.4 21.9002 33.3M32.1001 13.7998C32.1001 13.7998 34.1001 14.4998 35.3001 15.4998M18.8999 10.7998C18.8999 10.7998 20.9999 10.4998 22.4999 10.7998M42.9609 56.8976C44.9448 57.3871 46.3816 58.4794 46.1699 59.3374C45.9582 60.1953 44.1783 60.4939 42.1943 60.0044C40.2104 59.5149 38.7737 58.4226 38.9853 57.5647C39.197 56.7068 40.9769 56.4081 42.9609 56.8976ZM57.5832 58.9967C57.7262 59.8687 56.2073 60.8436 54.1908 61.1742C52.1743 61.5048 50.4236 61.0659 50.2807 60.1939C50.1377 59.3218 51.6566 58.3469 53.6731 58.0164C55.6896 57.6858 57.4403 58.1247 57.5832 58.9967Z" stroke="#494A4A" stroke-linecap="round" stroke-linejoin="round"/>
</g>
</g>
</svg>
