<svg width="64" height="64" viewBox="0 0 64 64" fill="none" xmlns="http://www.w3.org/2000/svg">
<g id="Pictogram-ski-2">
<g id="stroke-default">
<path id="2px" d="M24.3002 52.7999C32.4002 49.4999 39.8002 46.6999 45.7002 43.8999C43.6002 43.1999 41.8002 42.7999 39.1002 42.5999C39.1002 42.1999 23.6002 49.1999 7.2002 54.1999M31.5999 59.5002C23.7999 60.3002 21.5999 52.7002 20.1999 52.7002C18.7999 52.7002 16.7999 59.1002 22.3999 60.4002C26.7999 61.4002 31.5999 59.5002 31.5999 59.5002ZM31.5999 59.5002C41.2999 55.9002 51.4998 51.0002 62.0998 45.5002C59.8998 44.9002 57.6998 44.3002 54.9998 44.2002C54.9998 44.4002 31.1998 55.1002 24.2998 56.9002M48.6999 11.3C35.5999 19.7 22.9999 27.4 11.0999 33.8M40.1 9.8C30 20.7 20.5 31.6 11.7 42.7M15.7 56.3999L14.5 56.8999M5.2001 58.0002C-0.299902 56.6002 1.8001 50.2002 3.1001 50.2002C4.4001 50.2002 6.5001 57.5002 14.4001 56.9002C14.4001 56.9002 9.6001 59.1002 5.2001 58.0002ZM50.0999 11.9C49.3999 11.3 48.8999 10.5 48.6999 9.6C50.5999 8.2 52.5999 7 54.6999 6C55.1999 6.7 55.6999 7.4 56.0999 8.3C54.1999 9.7 52.1999 10.9 50.0999 11.9ZM41.6 10C40.7 9.6 40.1 9 39.6 8.3C41 6.4 42.5 4.6 44.1 3C44.8 3.5 45.5 4.1 46.1 4.7C44.7 6.7 43.2 8.4 41.6 10Z" stroke="#494A4A" stroke-width="2" stroke-linecap="round" stroke-linejoin="round"/>
<path id="1px" d="M7.99973 35.5L8.99973 34.9M9.29982 45.3L9.99982 44.4M33.1997 5.8999C32.6997 5.8999 21.4997 9.1999 20.8997 9.3999M28.4997 1.3999C28.2997 2.2999 25.1997 11.2999 24.8997 13.7999M31.0997 12.1999C30.4997 11.3999 26.0997 7.1999 22.8997 2.7999M29.8997 10.6999C29.8997 10.6999 31.1997 10.6999 31.4997 10.6999M29.6997 10.6999C29.6997 11.1999 29.6997 12.2999 29.6997 12.4999M25.3997 11.8999C25.8997 12.4999 26.0997 13.0999 26.2997 13.3999M25.2997 11.8999C25.2997 11.8999 24.4997 12.4999 23.8997 12.9999M22.8997 8.9999C22.5997 9.7999 22.2997 9.9999 22.0997 10.3999M22.6997 8.5999C22.6997 8.5999 21.6997 8.2999 21.3997 7.8999M28.0997 3.1999C28.6997 3.0999 29.1997 2.6999 29.4997 2.2999M32.2997 4.8999C31.8997 5.5999 31.3997 6.0999 31.2997 6.2999M31.3997 6.4999C31.3997 6.4999 32.3997 6.9999 32.8997 7.2999M27.8997 3.0999C27.8997 3.0999 27.1997 1.9999 27.0997 1.8999M22.3997 4.0999C23.0997 4.0999 23.7997 4.3999 24.0997 4.2999M23.9997 4.0999C23.9997 3.5999 24.1997 3.1999 24.1997 2.5999M18.2998 14.7998C18.2998 14.7998 15.0998 23.0998 14.8998 23.4998M13.6998 15.4998C14.0998 15.9998 18.2998 21.8998 19.5998 23.0998M21.2998 18.6998C20.5998 18.6998 15.8998 19.4998 11.9998 19.4998M20.4998 17.6998C20.2998 17.8998 19.6998 18.8998 19.6998 18.8998C19.6998 18.8998 20.5998 19.6998 20.6998 19.7998M18.7998 21.8998C19.3998 21.9998 19.8998 21.8998 20.0998 21.8998M18.4998 22.0998C18.4998 22.0998 18.2998 22.5998 18.1998 23.1998M15.4998 22.0998C15.7998 22.5998 15.9998 23.1998 16.0998 23.4998M15.1998 22.0998C15.1998 22.0998 14.2998 22.5998 13.8998 22.5998M14.5998 16.6998C14.5998 16.6998 14.7998 16.1998 14.8998 15.7998M16.9998 15.0998C17.1998 15.5998 17.3998 15.8998 17.6998 16.1998M17.8998 16.1998C17.8998 16.1998 18.6998 15.9998 19.0998 15.7998M14.1998 16.8998C14.1998 16.8998 13.4998 16.8998 13.3998 16.8998M12.7998 20.4998C12.7998 20.4998 13.3998 19.8998 13.4998 19.5998M13.3998 19.2998C13.3998 19.2998 12.8998 18.7998 12.5998 18.5998M11.6023 33.1598C12.6189 34.8039 12.8337 36.5134 12.0821 36.9781C11.3306 37.4429 9.89717 36.4868 8.88058 34.8427C7.86398 33.1987 7.64914 31.4891 8.40072 31.0244C9.1523 30.5597 10.5857 31.5157 11.6023 33.1598ZM12.0425 42.0012C13.5267 43.2395 14.271 44.7935 13.7049 45.472C13.1388 46.1505 11.4767 45.6966 9.99243 44.4582C8.5082 43.2199 7.76392 41.6659 8.33003 40.9874C8.89615 40.3089 10.5583 40.7628 12.0425 42.0012Z" stroke="#494A4A" stroke-linecap="round" stroke-linejoin="round"/>
</g>
</g>
</svg>
