<svg width="64" height="64" viewBox="0 0 64 64" fill="none" xmlns="http://www.w3.org/2000/svg">
<g id="Pictogram-organisation-structure" clip-path="url(#clip0_426_1176)">
<g id="stroke-default">
<path id="2px" d="M49.9998 29.2001C50.0998 22.8701 49.9298 12.9101 49.7998 10.3401C49.6998 8.34013 48.7298 7.19013 46.8498 7.10013C37.3598 6.68013 14.0398 7.46013 6.72979 8.83013C5.09979 9.15013 4.09979 9.82013 3.99979 11.0001C2.79979 25.4401 5.12979 46.0001 6.60979 57.9401M30.0898 58.0001C12.2598 58.0501 7.38979 58.5201 4.21979 59.0001C3.67979 59.0801 4.21979 62.0001 4.57979 62.0001H30.0898M8.42979 8.52013C8.18979 6.16013 7.58979 2.52013 8.42979 1.65013C9.73979 0.250133 41.4298 1.46013 44.5698 2.13013C44.9616 2.21743 45.3138 2.43114 45.5723 2.73833C45.8307 3.04552 45.9809 3.42916 45.9998 3.83013C45.9621 4.9132 45.8283 5.99077 45.5998 7.05013M43.9098 33.1601C46.9062 32.9522 49.9134 32.9522 52.9098 33.1601C53.4269 33.2236 53.9046 33.4685 54.2581 33.8512C54.6115 34.2339 54.8176 34.7297 54.8398 35.2501C55.0497 37.6021 55.0497 39.9681 54.8398 42.3201C54.7598 43.8301 54.1198 44.6301 52.8398 44.8201C50.0607 45.0093 47.2737 45.056 44.4898 44.9601C42.9498 44.9601 42.3498 44.0801 42.2898 43.5201C41.9879 40.7596 41.9611 37.9759 42.2098 35.2101C42.192 34.7193 42.3554 34.2391 42.669 33.861C42.9825 33.483 43.4242 33.2335 43.9098 33.1601ZM35.7698 52.1601C38.5333 51.9739 41.3063 51.9739 44.0698 52.1601C44.5461 52.2125 44.9878 52.4341 45.3144 52.7846C45.6411 53.1352 45.8311 53.5913 45.8498 54.0701C46.0496 56.2222 46.0496 58.3881 45.8498 60.5401C45.7798 61.9301 45.1898 62.6501 43.9998 62.8301C42.5798 63.0501 38.4398 62.9901 36.2798 62.9701C34.8498 62.9701 34.2798 62.1501 34.2798 61.6501C33.9777 59.111 33.9375 56.5475 34.1598 54.0001C34.1584 53.5501 34.3212 53.115 34.6175 52.7763C34.9139 52.4376 35.3235 52.2185 35.7698 52.1601ZM52.7798 52.2001C55.54 52.0139 58.3096 52.0139 61.0698 52.2001C61.5463 52.25 61.989 52.4692 62.3175 52.8178C62.646 53.1665 62.8384 53.6215 62.8598 54.1001C63.0597 56.2421 63.0597 58.3981 62.8598 60.5401C62.7798 61.9201 62.1998 62.6401 61.0098 62.8201C59.5898 63.0301 55.4398 62.9801 53.2898 62.9501C51.8598 62.9501 51.2898 62.1401 51.2898 61.6401C51.0063 59.1226 50.9828 56.5825 51.2198 54.0601C51.2119 53.6141 51.3654 53.1803 51.652 52.8385C51.9387 52.4967 52.3392 52.27 52.7798 52.2001Z" stroke="#494A4A" stroke-width="2" stroke-linecap="round" stroke-linejoin="round"/>
<path id="1px" d="M4.18994 25.0501C15.3199 23.8701 29.4799 25.0501 49.6699 24.5301M5.08994 42.4901C9.08994 42.4901 29.2399 41.3501 38.3599 41.4901M16.5399 8.10012C16.3599 20.9101 16.4699 46.4801 16.8799 58.0001M36.5299 7.00012C36.7699 13.0001 36.7299 43.7001 36.5899 46.2301M26.3899 58.0001C26.5899 55.0001 26.3899 43.2401 26.3899 41.8401M29.4799 49.4901V51.2901M23.5399 49.6201V51.4401M39.5199 51.7901C39.5199 49.7901 39.9199 48.7301 41.2399 48.6201C43.1899 48.4501 51.3599 48.3801 54.9799 48.6201C56.7599 48.7101 57.5699 49.6201 57.5699 51.6201M48.4899 46.0001C48.535 46.7494 48.535 47.5008 48.4899 48.2501" stroke="#494A4A" stroke-linecap="round" stroke-linejoin="round"/>
</g>
</g>
<defs>
<clipPath id="clip0_426_1176">
<rect width="64" height="64" fill="white"/>
</clipPath>
</defs>
</svg>
