<svg width="64" height="64" viewBox="0 0 64 64" fill="none" xmlns="http://www.w3.org/2000/svg">
<g id="Pictogram-lock">
<g id="stroke-default">
<path id="2px-stroke-default" d="M49.2999 23.9004L53.3999 24.3004C55.3999 24.6004 57.3999 26.7004 57.5999 29.3004C58.0999 38.2004 58.0999 44.6004 57.7999 52.4004C57.7999 54.4004 54.4999 60.3004 51.2999 60.9004C44.5999 62.3004 24.4999 62.3004 13.1999 61.1004C11.3999 60.7004 9.49989 59.3004 8.99989 57.2004C7.59989 50.4004 7.19989 41.8004 7.69989 33.6004C7.69989 32.0004 8.29989 30.5004 9.29989 29.4004L12.7999 26.2004C13.8999 25.2004 15.1999 24.6004 16.5999 24.2004M23.8999 23.9004H42.4999M17.5999 27.5004C17.5999 27.5004 9.39986 2.80035 30.8999 2.00035C55.8999 1.00035 47.9999 28.4004 47.9999 28.4004C47.9999 28.4004 45.6999 30.0004 42.1999 28.4004C42.1999 28.4004 46.7999 9.20035 32.5999 9.00035C21.1999 8.80035 21.6999 18.0004 23.7999 27.5004C23.7999 27.5004 20.0999 30.1004 17.4999 27.5004H17.5999Z" stroke="#494A4A" stroke-width="2" stroke-linecap="round" stroke-linejoin="round"/>
<path id="1px-stroke-default" d="M13.5 32.7998H46C48.3 32.7998 50.5 31.8998 52.1 30.1998L54 28.2998M57.3999 2.7002L54.8999 6.0002M59.1998 15C57.8998 14.5 56.7998 14.2 55.7998 14M60.9999 8.40039C58.9999 9.10039 56.3999 10.1004 55.8999 10.1004M49.1001 41.5C49.1001 41.5 49.9001 51.8 49.6001 54.5M29.9999 46.5998C30.3999 45.3998 29.1999 44.3998 29.5999 42.6998C30.0999 40.8998 33.1999 40.4998 33.9999 42.4998C34.5999 43.9998 33.0999 44.8998 33.3999 46.2998C33.5999 47.1998 34.8999 51.1998 34.5999 51.4998C34.1999 51.7998 30.6999 52.2998 28.8999 51.4998" stroke="#494A4A" stroke-linecap="round" stroke-linejoin="round"/>
</g>
</g>
</svg>
