<svg width="64" height="64" viewBox="0 0 64 64" fill="none" xmlns="http://www.w3.org/2000/svg">
<g id="  Pictogram-needle" clip-path="url(#clip0_622_41994)">
<g id="stroke-default">
<path id="2px" d="M1.2004 62.5996L0.410725 61.9861C0.322031 62.1002 0.259143 62.2323 0.226397 62.3731L1.2004 62.5996ZM47.7004 3.29959L48.4678 3.94081L48.4686 3.93977L47.7004 3.29959ZM53.5004 8.09959L54.3142 8.68085L54.319 8.67402L53.5004 8.09959ZM44.4003 43.9545H43.4003V44.0824L43.4325 44.2062L44.4003 43.9545ZM45.1003 48.2001L44.3003 47.6001L44.2029 47.7299L44.1516 47.8839L45.1003 48.2001ZM41.6003 51.7001L42.5288 51.3287L42.5133 51.2901L42.4947 51.2529L41.6003 51.7001ZM46.3003 52.4001L45.7858 53.2576L45.8187 53.2774L45.8531 53.2945L46.3003 52.4001ZM51.1003 51.5001L51.9003 52.1001L51.917 52.0779L51.9324 52.0548L51.1003 51.5001ZM51.4003 48.0001L52.349 47.6839L52.3265 47.6165L52.2947 47.5529L51.4003 48.0001ZM52.2003 42.9001L52.6475 42.0057L52.6212 41.9925L52.5942 41.981L52.2003 42.9001ZM1.2004 62.5996C1.99008 63.2131 1.99024 63.2129 1.99054 63.2125C1.99085 63.2121 1.99131 63.2115 1.99192 63.2107C1.99315 63.2092 1.99499 63.2068 1.99743 63.2037C2.00233 63.1974 2.00965 63.1879 2.01936 63.1754C2.0388 63.1504 2.06781 63.1131 2.10611 63.0638C2.18272 62.9652 2.2965 62.8188 2.44518 62.6275C2.74253 62.2449 3.17945 61.6828 3.73771 60.9648C4.85423 59.5287 6.45609 57.4691 8.39738 54.9747C12.28 49.9859 17.5203 43.2582 22.9511 36.3025C33.8211 22.3804 45.4315 7.57431 48.4678 3.94081L46.933 2.65837C43.8693 6.32487 32.2297 21.1688 21.3747 35.0717C15.943 42.0285 10.7021 48.757 6.81905 53.7463C4.87754 56.241 3.27548 58.3009 2.1588 59.7372C1.60046 60.4553 1.16345 61.0175 0.86603 61.4002C0.717318 61.5915 0.6035 61.738 0.526856 61.8366C0.488534 61.8859 0.459505 61.9233 0.440055 61.9483C0.43033 61.9608 0.423 61.9703 0.4181 61.9766C0.41565 61.9797 0.413807 61.9821 0.412576 61.9837C0.411961 61.9845 0.411498 61.9851 0.41119 61.9855C0.410881 61.9859 0.410725 61.9861 1.2004 62.5996ZM48.4686 3.93977C50.2409 1.81306 52.1046 1.89023 53.0004 2.56209C53.8547 3.20279 54.5045 4.92794 52.6818 7.52516L54.319 8.67402C56.4963 5.57124 56.2461 2.49639 54.2004 0.96209C52.1962 -0.541049 49.1599 -0.0138847 46.9322 2.65941L48.4686 3.93977ZM52.6867 7.51835C51.8548 8.68294 48.1397 12.9141 42.9705 18.6154C37.8297 24.2855 31.3121 31.3433 24.935 38.114C18.5561 44.8864 12.3253 51.3634 7.75561 55.8755C5.46612 58.1361 3.61316 59.884 2.37287 60.9284C1.73257 61.4676 1.3253 61.7588 1.12718 61.8607C1.08357 61.8831 1.08987 61.875 1.13354 61.8637C1.15483 61.8582 1.34902 61.8052 1.59855 61.8973C1.93369 62.0209 2.11277 62.3028 2.16601 62.5396C2.18771 62.6361 2.18678 62.712 2.18428 62.7521C2.18166 62.7939 2.17578 62.8202 2.17441 62.8261L0.226397 62.3731C0.19719 62.4987 0.157549 62.724 0.214725 62.9783C0.285578 63.2934 0.506344 63.6261 0.906494 63.7737C1.22103 63.8897 1.50354 63.8339 1.63575 63.7996C1.79032 63.7595 1.93011 63.6967 2.04184 63.6393C2.46506 63.4216 3.02859 62.9909 3.66114 62.4583C4.96655 61.359 6.8675 59.5631 9.16082 57.2987C13.7567 52.7607 20.0072 46.2628 26.3908 39.4852C32.7762 32.7059 39.3024 25.6387 44.4522 19.9588C49.5737 14.3101 53.396 9.96624 54.3141 8.68083L52.6867 7.51835ZM44.4003 43.9545C43.4325 44.2062 43.4325 44.2062 43.4325 44.2061C43.4325 44.2061 43.4325 44.2061 43.4325 44.2062C43.4325 44.2062 43.4325 44.2063 43.4326 44.2065C43.4327 44.2068 43.4328 44.2074 43.433 44.2082C43.4334 44.2098 43.4341 44.2123 43.435 44.2157C43.4367 44.2225 43.4394 44.2327 43.4428 44.2463C43.4498 44.2734 43.4601 44.3137 43.4731 44.3654C43.4993 44.4688 43.5364 44.6176 43.5801 44.7976C43.6677 45.1584 43.7808 45.6408 43.8842 46.1329C43.9886 46.63 44.0787 47.1159 44.1251 47.4908C44.1486 47.6813 44.1572 47.8143 44.1564 47.8933C44.156 47.9335 44.1533 47.9334 44.1582 47.9069C44.1591 47.9017 44.1809 47.7593 44.3003 47.6001L45.9003 48.8001C46.0572 48.5909 46.1064 48.3716 46.1256 48.2661C46.1488 48.1393 46.1553 48.0156 46.1563 47.9124C46.1583 47.7046 46.1379 47.4715 46.1099 47.2452C46.0532 46.7866 45.9495 46.2361 45.8414 45.7217C45.7323 45.2024 45.6141 44.6984 45.5236 44.3257C45.4783 44.1389 45.4396 43.9841 45.4122 43.8756C45.3985 43.8214 45.3876 43.7787 45.3801 43.7493C45.3763 43.7346 45.3734 43.7232 45.3714 43.7154C45.3704 43.7115 45.3696 43.7085 45.369 43.7064C45.3688 43.7053 45.3686 43.7045 45.3684 43.7039C45.3683 43.7036 45.3683 43.7034 45.3682 43.7032C45.3682 43.7031 45.3682 43.703 45.3682 43.703C45.3681 43.7029 45.3681 43.7028 44.4003 43.9545ZM44.1516 47.8839C44.1963 47.7498 44.2591 47.6643 44.2701 47.6492C44.281 47.634 44.2897 47.6233 44.2943 47.6177C44.2992 47.6119 44.3021 47.6087 44.3022 47.6085C44.3025 47.6082 44.3012 47.6097 44.2979 47.6131C44.2947 47.6164 44.2901 47.6211 44.2839 47.6271C44.2714 47.6393 44.2547 47.6551 44.2332 47.6749C44.1429 47.7576 44.008 47.8724 43.8309 48.0193C43.4931 48.2993 43.0069 48.6908 42.5539 49.0746C42.1001 49.4591 41.6219 49.8835 41.2707 50.2652C41.0996 50.4511 40.9181 50.6698 40.789 50.8993C40.7243 51.0143 40.6483 51.1742 40.6093 51.365C40.5695 51.5599 40.557 51.8495 40.7059 52.1473L42.4947 51.2529C42.6061 51.4757 42.5874 51.6747 42.5688 51.7655C42.5511 51.8521 42.524 51.8943 42.5319 51.8802C42.5481 51.8515 42.6073 51.7663 42.7424 51.6194C43.0037 51.3355 43.4006 50.9786 43.8467 50.6006C44.2937 50.2219 44.7326 49.8697 45.1073 49.5591C45.2863 49.4106 45.4546 49.2684 45.5846 49.1492C45.6485 49.0906 45.7183 49.0239 45.7802 48.956C45.811 48.9222 45.8513 48.8758 45.8912 48.8205C45.922 48.7779 45.998 48.6692 46.049 48.5163L44.1516 47.8839ZM40.6718 52.0715C40.7902 52.3674 41.0024 52.5373 41.1277 52.6204C41.2623 52.7096 41.3997 52.7668 41.5064 52.8044C41.7208 52.8801 41.9652 52.9296 42.191 52.9657C42.6517 53.0393 43.2274 53.0854 43.769 53.1227C44.3325 53.1616 44.8585 53.1911 45.2929 53.2304C45.5082 53.2499 45.6756 53.2698 45.7944 53.2901C45.9642 53.3191 45.9045 53.3288 45.7858 53.2576L46.8148 51.5426C46.5712 51.3964 46.277 51.3436 46.1316 51.3187C45.9351 51.2851 45.7065 51.2597 45.4733 51.2386C45.0109 51.1967 44.4307 51.1636 43.9066 51.1275C43.3607 51.0898 42.8677 51.0484 42.5064 50.9907C42.3214 50.9612 42.2165 50.9342 42.172 50.9184C42.1492 50.9104 42.1796 50.9181 42.2334 50.9538C42.2779 50.9833 42.4354 51.0954 42.5288 51.3287L40.6718 52.0715ZM45.8531 53.2945C45.7339 53.235 45.6597 53.165 45.6286 53.1336C45.5937 53.0983 45.574 53.071 45.5687 53.0636C45.5592 53.0503 45.5668 53.059 45.5916 53.1072C45.6398 53.2013 45.7052 53.3505 45.7897 53.5607C45.8724 53.7663 45.9631 54.0041 46.0638 54.2681C46.1632 54.5289 46.2712 54.812 46.3836 55.0947C46.6041 55.6491 46.8612 56.2523 47.1371 56.7273C47.2734 56.962 47.4416 57.2138 47.6451 57.4191C47.8282 57.6037 48.1875 57.9001 48.7003 57.9001V55.9001C48.9881 55.9001 49.1161 56.0621 49.0652 56.0108C49.0348 55.9801 48.9663 55.8945 48.8666 55.7229C48.6706 55.3854 48.459 54.9011 48.242 54.3555C48.1357 54.0882 48.0327 53.8182 47.9325 53.5555C47.8336 53.2961 47.736 53.0402 47.6453 52.8145C47.5564 52.5935 47.4632 52.3739 47.3712 52.1945C47.3258 52.106 47.2679 52.0019 47.1979 51.9036C47.1502 51.8366 47.0041 51.634 46.7475 51.5057L45.8531 53.2945ZM48.7003 57.9001C49.2697 57.9001 49.6427 57.5264 49.8042 57.3406C50.001 57.1142 50.166 56.8353 50.3025 56.5692C50.5801 56.0283 50.8425 55.3353 51.0703 54.6772C51.3001 54.0133 51.5123 53.3319 51.6773 52.8186C51.7617 52.556 51.8319 52.3433 51.8884 52.187C51.9168 52.1085 51.9373 52.0565 51.9508 52.0256C51.9736 51.9731 51.9573 52.0241 51.9003 52.1001L50.3003 50.9001C50.2058 51.0261 50.145 51.1631 50.1168 51.2278C50.0793 51.314 50.0424 51.4104 50.0076 51.5069C49.9375 51.7007 49.8576 51.9442 49.7733 52.2066C49.6008 52.7433 49.4005 53.387 49.1803 54.023C48.9581 54.665 48.7331 55.2469 48.5231 55.6561C48.4159 55.865 48.3371 55.9798 48.2948 56.0284C48.2173 56.1176 48.3559 55.9001 48.7003 55.9001V57.9001ZM51.9324 52.0548C51.8309 52.2069 51.715 52.2841 51.6921 52.2995C51.671 52.3137 51.6545 52.3233 51.6451 52.3285C51.6354 52.3338 51.6291 52.3369 51.6273 52.3377C51.6271 52.3379 51.6532 52.326 51.7204 52.3028C51.8502 52.258 52.0462 52.2004 52.3028 52.1317C52.8123 51.9952 53.4777 51.8364 54.1594 51.6723C54.8298 51.5109 55.518 51.3439 56.0398 51.1971C56.2965 51.125 56.5428 51.0495 56.7354 50.9744C56.8256 50.9392 56.9485 50.8873 57.0642 50.8163C57.1194 50.7823 57.2182 50.717 57.3145 50.6143C57.3969 50.5265 57.6003 50.2808 57.6003 49.9001H55.6003C55.6003 49.5382 55.7934 49.3126 55.8557 49.2462C55.9319 49.1649 56.0009 49.1222 56.0173 49.1122C56.0552 49.0889 56.0641 49.0895 56.009 49.111C55.911 49.1492 55.7417 49.2034 55.4983 49.2718C55.0201 49.4063 54.3708 49.5643 53.6913 49.7279C53.0229 49.8888 52.3259 50.055 51.7853 50.1998C51.5169 50.2717 51.266 50.3438 51.0677 50.4123C50.9708 50.4457 50.8626 50.4864 50.7627 50.5343C50.7132 50.558 50.6458 50.5929 50.5752 50.6404C50.5206 50.6772 50.3822 50.7745 50.2683 50.9454L51.9324 52.0548ZM57.6003 49.9001C57.6003 49.6315 57.4955 49.4361 57.4304 49.3377C57.3625 49.2353 57.2902 49.1659 57.2476 49.1283C57.1627 49.0534 57.0802 49.0043 57.0384 48.9804C56.9459 48.9277 56.8451 48.8833 56.7646 48.8499C56.5937 48.7789 56.3689 48.6981 56.1255 48.6149C55.6338 48.4467 54.9798 48.2393 54.3429 48.0353C53.6965 47.8282 53.066 47.624 52.5927 47.4542C52.3532 47.3682 52.1761 47.299 52.0645 47.2485C52.0055 47.2218 51.9923 47.2127 52.0052 47.2207C52.0107 47.2242 52.0485 47.2476 52.0972 47.2919C52.1264 47.3185 52.2707 47.4489 52.349 47.6839L50.4516 48.3163C50.5362 48.5701 50.6964 48.7214 50.7509 48.7709C50.8247 48.8381 50.8968 48.8864 50.9451 48.9167C51.0437 48.9783 51.1504 49.0302 51.2405 49.0709C51.4269 49.1552 51.6646 49.246 51.9173 49.3367C52.4284 49.52 53.0917 49.7345 53.7327 49.9399C54.3833 50.1484 55.0105 50.3473 55.4783 50.5072C55.7146 50.5881 55.8889 50.6518 55.9974 50.6968C56.0565 50.7214 56.0653 50.7279 56.0477 50.7178C56.0432 50.7153 55.9894 50.6854 55.9238 50.6275C55.8908 50.5984 55.8258 50.537 55.7629 50.442C55.7026 50.3511 55.6003 50.1625 55.6003 49.9001H57.6003ZM52.2947 47.5529C52.3513 47.6659 52.3682 47.7594 52.3737 47.7934C52.3802 47.8344 52.3806 47.8608 52.3806 47.864C52.3807 47.8694 52.3804 47.8477 52.3873 47.7871C52.4007 47.6687 52.4307 47.4927 52.4775 47.26C52.5709 46.796 52.7095 46.2118 52.85 45.5985C52.9866 45.0027 53.1257 44.3763 53.2038 43.8807C53.2418 43.6391 53.2732 43.382 53.2726 43.1575C53.2723 43.0501 53.2652 42.8927 53.2212 42.7278C53.1871 42.6004 53.0651 42.2145 52.6475 42.0057L51.7531 43.7945C51.3855 43.6107 51.2994 43.2834 51.2889 43.2441C51.2684 43.1672 51.2725 43.1275 51.2726 43.163C51.2727 43.2244 51.2619 43.3549 51.2281 43.5695C51.1624 43.9865 51.039 44.5475 50.9006 45.1517C50.7661 45.7384 50.6172 46.3667 50.5168 46.8653C50.4668 47.1138 50.4233 47.3565 50.4 47.5615C50.3886 47.6626 50.3791 47.7788 50.3808 47.8942C50.382 47.9685 50.3854 48.2064 50.5059 48.4473L52.2947 47.5529ZM52.5942 41.981C52.0635 41.7535 51.5814 41.9759 51.3895 42.0786C51.1468 42.2085 50.9199 42.3926 50.7282 42.5674C50.3364 42.9245 49.9146 43.4084 49.5393 43.8663C49.1585 44.3311 48.795 44.8072 48.5242 45.16C48.3857 45.3405 48.2766 45.4819 48.1968 45.5808C48.1561 45.6313 48.1328 45.6584 48.1227 45.6695C48.1172 45.6757 48.1251 45.6664 48.1428 45.6499C48.1519 45.6414 48.1707 45.6242 48.1975 45.6034C48.2197 45.5862 48.2741 45.5452 48.3531 45.5057L49.2475 47.2945C49.3922 47.2222 49.4897 47.1285 49.5085 47.111C49.5475 47.0746 49.5809 47.0389 49.6048 47.0125C49.6536 46.9586 49.7052 46.8963 49.7534 46.8366C49.8513 46.7152 49.9759 46.5535 50.1108 46.3777C50.3869 46.018 50.7297 45.5691 51.0863 45.1339C51.4485 44.6919 51.7955 44.3007 52.0756 44.0454C52.2198 43.9139 52.3046 43.8573 52.3333 43.8419C52.413 43.7993 52.1621 43.9717 51.8064 43.8193L52.5942 41.981ZM48.3531 45.5057C48.6733 45.3456 48.9623 45.419 48.9716 45.4209C49.0421 45.4355 49.0877 45.4543 49.0915 45.4559C49.1047 45.4612 49.09 45.4559 49.0339 45.4252C48.9291 45.3679 48.7708 45.2722 48.5632 45.1408C48.1512 44.8801 47.6202 44.5269 47.0749 44.1682C46.5405 43.8166 45.9896 43.4579 45.5689 43.209C45.3665 43.0893 45.1537 42.9705 44.9739 42.8937C44.906 42.8647 44.736 42.7932 44.5361 42.7755C44.448 42.7676 44.1813 42.7515 43.9037 42.9154C43.534 43.1338 43.4003 43.5072 43.4003 43.8001H45.4003C45.4003 44.0707 45.2748 44.4284 44.921 44.6374C44.6593 44.792 44.4163 44.7727 44.359 44.7676C44.2207 44.7553 44.1411 44.7128 44.1885 44.733C44.2391 44.7546 44.356 44.8152 44.5505 44.9303C44.9235 45.151 45.4351 45.4834 45.9757 45.8391C46.5054 46.1875 47.0619 46.5576 47.4937 46.8308C47.7079 46.9664 47.9105 47.0903 48.0737 47.1797C48.1516 47.2223 48.2477 47.2721 48.3444 47.3111C48.3899 47.3294 48.4704 47.3597 48.5686 47.3799C48.6055 47.3875 48.9148 47.4609 49.2475 47.2945L48.3531 45.5057ZM43.4003 43.8001V43.9545H45.4003V43.8001H43.4003Z" fill="#494A4A"/>
<path id="1px" d="M48.3315 10.2654L48.7121 10.5896C48.8903 10.3804 48.8663 10.0666 48.6583 9.88698C48.4503 9.70735 48.1363 9.72923 47.9553 9.93597L48.3315 10.2654ZM51.401 4.60009L51.0666 4.97174C51.0704 4.97515 51.0742 4.9785 51.0781 4.98179L51.401 4.60009ZM48.301 10.3001L47.9248 9.97084C47.7429 10.1786 47.764 10.4945 47.9717 10.6763C48.1795 10.8582 48.4953 10.8372 48.6772 10.6295L48.301 10.3001ZM44.8745 14.2777C45.0833 14.4584 45.3991 14.4356 45.5798 14.2268C45.7605 14.018 45.7377 13.7022 45.5289 13.5215L44.8745 14.2777ZM23.8017 18.2996L23.5045 17.8975L23.5033 17.8984L23.8017 18.2996ZM3.63187 0.85442C3.7726 0.616827 3.69408 0.310138 3.45648 0.16941C3.21889 0.0286819 2.9122 0.107206 2.77147 0.344799L3.63187 0.85442ZM63.7012 47.0004C63.7012 46.7242 63.4774 46.5004 63.2012 46.5004C62.9251 46.5004 62.7012 46.7242 62.7012 47.0004H63.7012ZM33.2012 47.9004L33.7009 47.9183L33.7009 47.9177L33.2012 47.9004ZM47.3037 15.6037C47.1398 15.3814 46.8268 15.3341 46.6045 15.498C46.3823 15.6618 46.3349 15.9749 46.4988 16.1971L47.3037 15.6037ZM21.9095 14.3107C22.0811 14.5271 22.3956 14.5633 22.612 14.3917C22.8283 14.2202 22.8646 13.9057 22.693 13.6893L21.9095 14.3107ZM20.393 10.7893C20.2214 10.5729 19.9069 10.5367 19.6906 10.7083C19.4742 10.8798 19.4379 11.1943 19.6095 11.4107L20.393 10.7893ZM17.9936 14.4385C17.7387 14.3323 17.4459 14.4528 17.3397 14.7077C17.2335 14.9626 17.3541 15.2553 17.609 15.3615L17.9936 14.4385ZM20.009 16.3615C20.2639 16.4677 20.5566 16.3472 20.6628 16.0923C20.769 15.8374 20.6485 15.5447 20.3936 15.4385L20.009 16.3615ZM24.8796 10.3544C24.7992 10.0902 24.5199 9.94126 24.2557 10.0217C23.9915 10.1021 23.8425 10.3814 23.9229 10.6456L24.8796 10.3544ZM24.6229 12.9456C24.7033 13.2098 24.9827 13.3587 25.2469 13.2783C25.511 13.1979 25.66 12.9186 25.5796 12.6544L24.6229 12.9456ZM51.843 24.2201C51.5782 24.1419 51.3001 24.2931 51.2219 24.5579C51.1436 24.8228 51.2949 25.1009 51.5597 25.1791L51.843 24.2201ZM55.9597 26.4791C56.2245 26.5574 56.5026 26.4061 56.5809 26.1413C56.6591 25.8765 56.5079 25.5983 56.243 25.5201L55.9597 26.4791ZM55.0014 20.9996C55.2223 20.8339 55.267 20.5205 55.1014 20.2996C54.9357 20.0787 54.6223 20.0339 54.4014 20.1996L55.0014 20.9996ZM52.2393 21.0035C51.9653 21.0377 51.771 21.2876 51.8052 21.5616C51.8395 21.8356 52.0894 22.03 52.3634 21.9958L52.2393 21.0035ZM51.923 29.7264C52.1035 29.9354 52.4192 29.9585 52.6282 29.778C52.8372 29.5975 52.8603 29.2818 52.6798 29.0728L51.923 29.7264ZM50.7798 26.8728C50.5993 26.6638 50.2835 26.6407 50.0746 26.8212C49.8656 27.0017 49.8425 27.3174 50.023 27.5264L50.7798 26.8728ZM11.3017 32.0998V32.5998H11.3315L11.3612 32.5962L11.3017 32.0998ZM14.0016 31.9998L13.6481 32.3534L13.7055 32.4107L13.778 32.447L14.0016 31.9998ZM15.8017 34.3998V33.8998H15.7401L15.6804 33.9147L15.8017 34.3998ZM16.5016 28.7998L16.0544 29.0234L16.0907 29.096L16.1481 29.1534L16.5016 28.7998ZM16.1017 25.2998L16.3253 24.8526L16.2197 24.7998H16.1017V25.2998ZM11.5016 27.2998L11.0856 27.0225L11.0684 27.0484L11.0544 27.0762L11.5016 27.2998ZM1.20141 35.7998L1.23077 35.3007L1.21611 35.2998H1.20141V35.7998ZM3.10141 35.9998L3.57058 35.827L3.50213 35.6411L3.32502 35.5526L3.10141 35.9998ZM5.20141 34.1998H4.70141V34.4069L4.84786 34.5534L5.20141 34.1998ZM5.20141 31.7998V31.2998H4.94576L4.79607 31.5071L5.20141 31.7998ZM1.10141 35.7998L0.74786 36.1534L0.894306 36.2998H1.10141V35.7998ZM47.9508 9.94114C46.8065 11.2844 44.9067 13.4094 43.2212 15.1332C42.3768 15.9968 41.5963 16.7493 40.9958 17.2518C40.6925 17.5057 40.4542 17.6795 40.2873 17.7735C40.2473 17.796 40.2158 17.8114 40.1921 17.8215C40.1677 17.8319 40.1577 17.834 40.1599 17.8335C40.1607 17.8334 40.1887 17.8269 40.2342 17.8327C40.2842 17.8391 40.3547 17.8606 40.4211 17.916L39.781 18.6842C39.9938 18.8615 40.2415 18.8394 40.3743 18.8103C40.5173 18.7789 40.6563 18.7133 40.778 18.6448C41.0264 18.5049 41.3209 18.2838 41.6376 18.0187C42.2772 17.4835 43.0856 16.7023 43.9363 15.8323C45.641 14.0888 47.5564 11.9463 48.7121 10.5896L47.9508 9.94114ZM40.4211 17.916C40.4813 17.9661 40.5143 18.025 40.5304 18.0704C40.5452 18.1121 40.5454 18.1405 40.5454 18.1439C40.5454 18.1462 40.5466 18.1117 40.5736 18.0255C40.6263 17.8578 40.7392 17.609 40.9168 17.2829C41.2678 16.638 41.8213 15.7805 42.4749 14.8343C43.7791 12.9463 45.4469 10.7556 46.5928 9.31079L45.8093 8.68939C44.6552 10.1446 42.973 12.3539 41.6522 14.2659C40.9933 15.2197 40.4155 16.1122 40.0385 16.8048C39.8519 17.1474 39.7016 17.4643 39.6195 17.7262C39.5791 17.8549 39.5451 18.0012 39.5454 18.1463C39.5457 18.2861 39.5803 18.517 39.781 18.6842L40.4211 17.916ZM46.5928 9.31079C47.7518 7.84943 48.7775 6.55692 49.6344 5.73619C50.0665 5.32235 50.4138 5.07053 50.6779 4.96348C50.8044 4.9122 50.8869 4.90463 50.9363 4.90945C50.9774 4.91346 51.0174 4.92746 51.0666 4.97174L51.7355 4.22845C51.5347 4.04773 51.2966 3.93985 51.0334 3.91417C50.7785 3.8893 50.5305 3.94424 50.3023 4.0367C49.8571 4.21715 49.3981 4.57784 48.9427 5.01399C48.0246 5.89326 46.9503 7.25075 45.8093 8.68939L46.5928 9.31079ZM51.0781 4.98179C51.2533 5.13008 51.3076 5.29014 51.2671 5.53602C51.2196 5.82404 51.0393 6.20339 50.7133 6.68044C50.0607 7.63509 49.0008 8.74109 47.9248 9.97084L48.6773 10.6293C49.7013 9.45909 50.8414 8.2651 51.5388 7.24475C51.8877 6.73429 52.17 6.20739 52.2538 5.69854C52.3445 5.14755 52.1988 4.62011 51.724 4.2184L51.0781 4.98179ZM48.6772 10.6295L48.7076 10.5948L47.9553 9.93597L47.9249 9.97069L48.6772 10.6295ZM45.5289 13.5215C42.7908 11.1521 39.5713 10.5322 35.8901 11.3747C32.2394 12.2103 28.123 14.4839 23.5045 17.8975L24.0989 18.7017C28.6804 15.3154 32.6639 13.139 36.1132 12.3495C39.532 11.567 42.4125 12.1472 44.8745 14.2777L45.5289 13.5215ZM23.5033 17.8984C19.5721 20.8222 15.9104 21.965 12.7632 21.8826C9.61899 21.8003 6.94505 20.4949 4.97501 18.441C1.02658 14.3245 -0.110221 7.17224 3.63187 0.85442L2.77147 0.344799C-1.18643 7.02698 -0.0232373 14.6747 4.25333 19.1332C6.3958 21.3669 9.31561 22.7927 12.737 22.8823C16.1554 22.9717 20.0313 21.727 24.1001 18.7008L23.5033 17.8984ZM62.7012 47.0004C62.7012 52.556 60.8268 56.5291 58.0744 59.094C55.315 61.6654 51.6314 62.8604 47.9503 62.7755C40.5805 62.6055 33.363 57.3327 33.7009 47.9183L32.7016 47.8825C32.3395 57.9681 40.122 63.5952 47.9272 63.7753C51.8336 63.8654 55.7812 62.5979 58.7562 59.8256C61.7382 57.0467 63.7012 52.7948 63.7012 47.0004H62.7012ZM33.7009 47.9177C33.8217 44.4393 35.15 41.346 36.9991 38.4893C38.8536 35.6242 41.2044 33.0357 43.3551 30.5392C45.4843 28.0676 47.4379 25.6644 48.3771 23.232C48.851 22.0045 49.074 20.7531 48.9257 19.4697C48.7771 18.1848 48.2601 16.9008 47.3037 15.6037L46.4988 16.1971C47.3674 17.375 47.8066 18.4972 47.9323 19.5846C48.0582 20.6735 47.8733 21.7604 47.4442 22.8719C46.5771 25.1176 44.7432 27.3957 42.5974 29.8866C40.4731 32.3526 38.0614 35.0078 36.1596 37.9459C34.2525 40.8922 32.8308 44.1615 32.7015 47.883L33.7009 47.9177ZM22.693 13.6893L20.393 10.7893L19.6095 11.4107L21.9095 14.3107L22.693 13.6893ZM17.609 15.3615L20.009 16.3615L20.3936 15.4385L17.9936 14.4385L17.609 15.3615ZM23.9229 10.6456L24.6229 12.9456L25.5796 12.6544L24.8796 10.3544L23.9229 10.6456ZM51.5597 25.1791L55.9597 26.4791L56.243 25.5201L51.843 24.2201L51.5597 25.1791ZM54.4014 20.1996C53.6972 20.7277 52.9927 20.9093 52.2393 21.0035L52.3634 21.9958C53.21 21.8899 54.1055 21.6715 55.0014 20.9996L54.4014 20.1996ZM52.6798 29.0728L50.7798 26.8728L50.023 27.5264L51.923 29.7264L52.6798 29.0728ZM11.3017 32.0998C11.3612 32.5962 11.3612 32.5962 11.3612 32.5962C11.3612 32.5962 11.3612 32.5962 11.3613 32.5962C11.3613 32.5962 11.3614 32.5962 11.3615 32.5962C11.3618 32.5962 11.3621 32.5961 11.3627 32.5961C11.3638 32.5959 11.3654 32.5957 11.3677 32.5955C11.3722 32.5949 11.379 32.5941 11.3879 32.5931C11.4057 32.591 11.4321 32.5879 11.4659 32.5841C11.5335 32.5764 11.6306 32.5656 11.7477 32.5533C11.9825 32.5286 12.2963 32.4979 12.615 32.4733C12.9361 32.4486 13.2523 32.4311 13.4954 32.4311C13.6186 32.4311 13.7089 32.4357 13.7662 32.4428C13.7955 32.4465 13.8023 32.4492 13.7947 32.4469C13.7903 32.4456 13.7747 32.4407 13.7527 32.4297C13.7323 32.4195 13.6913 32.3966 13.6481 32.3534L14.3552 31.6463C14.2533 31.5443 14.1341 31.5047 14.082 31.4891C14.0158 31.4692 13.9485 31.4578 13.8902 31.4505C13.7725 31.4358 13.6347 31.4311 13.4954 31.4311C13.2135 31.4311 12.8672 31.451 12.5383 31.4763C12.207 31.5018 11.8833 31.5335 11.6431 31.5588C11.5227 31.5715 11.4229 31.5826 11.353 31.5905C11.318 31.5945 11.2905 31.5977 11.2717 31.5999C11.2622 31.601 11.2549 31.6018 11.25 31.6024C11.2475 31.6027 11.2456 31.603 11.2442 31.6031C11.2436 31.6032 11.2431 31.6032 11.2427 31.6033C11.2425 31.6033 11.2424 31.6033 11.2423 31.6033C11.2422 31.6033 11.2422 31.6034 11.2421 31.6034C11.2421 31.6034 11.2421 31.6034 11.3017 32.0998ZM13.778 32.447C13.6923 32.4041 13.6521 32.3481 13.6718 32.3709C13.6762 32.376 13.6888 32.3917 13.711 32.4233C13.7547 32.4855 13.8131 32.5765 13.8858 32.694C14.0194 32.9101 14.2204 33.2482 14.4027 33.5398C14.5913 33.8416 14.7986 34.1576 14.991 34.3955C15.0855 34.5122 15.1934 34.6319 15.3085 34.7224C15.3662 34.7679 15.4427 34.8196 15.5348 34.8558C15.6276 34.8922 15.7658 34.9242 15.9229 34.8849L15.6804 33.9147C15.7875 33.888 15.8695 33.9128 15.9006 33.9251C15.9312 33.9371 15.9406 33.9473 15.9269 33.9366C15.8989 33.9146 15.846 33.8624 15.7685 33.7666C15.6172 33.5795 15.437 33.308 15.2506 33.0098C15.0579 32.7014 14.8964 32.427 14.7363 32.1681C14.6621 32.0481 14.5908 31.936 14.529 31.8482C14.4985 31.8048 14.4644 31.7588 14.4291 31.7178C14.409 31.6945 14.336 31.608 14.2253 31.5526L13.778 32.447ZM15.8017 34.8998C16.0033 34.8998 16.141 34.7944 16.2079 34.7287C16.2769 34.661 16.3235 34.5857 16.3534 34.5305C16.4147 34.4176 16.4633 34.2815 16.5028 34.1538C16.5838 33.8916 16.6598 33.552 16.7283 33.2283C16.7992 32.8932 16.862 32.5755 16.9215 32.3191C16.9511 32.1916 16.9768 32.0932 16.9985 32.0253C17.0094 31.991 17.0164 31.974 17.0185 31.9692C17.0261 31.9526 17.0089 31.9996 16.9552 32.0534L16.2481 31.3463C16.1694 31.425 16.1265 31.515 16.1075 31.557C16.0831 31.6107 16.0628 31.668 16.0458 31.7212C16.0117 31.8283 15.9788 31.958 15.9474 32.093C15.8851 32.3616 15.8166 32.7065 15.75 33.0213C15.681 33.3476 15.6132 33.6455 15.5474 33.8583C15.5135 33.9681 15.4879 34.0289 15.4745 34.0535C15.4671 34.0671 15.4763 34.0456 15.5078 34.0147C15.5373 33.9857 15.6375 33.8998 15.8017 33.8998V34.8998ZM16.9552 32.0534C16.8993 32.1093 16.8497 32.1266 16.8685 32.1183C16.8743 32.1157 16.8926 32.1085 16.929 32.0971C17.0011 32.0745 17.1047 32.0478 17.2391 32.0163C17.3719 31.9852 17.523 31.9521 17.6884 31.9156C17.8523 31.8795 18.0282 31.8405 18.2042 31.7989C18.5506 31.717 18.9202 31.6199 19.2158 31.5048C19.3621 31.4479 19.5143 31.3775 19.6423 31.2884C19.7547 31.2101 19.9406 31.0544 19.9919 30.7979L19.0114 30.6017C19.0377 30.4702 19.1205 30.4332 19.0708 30.4678C19.0366 30.4916 18.9677 30.5283 18.8531 30.5729C18.6268 30.661 18.3152 30.7451 17.9741 30.8257C17.8063 30.8654 17.637 30.9029 17.4731 30.9391C17.3108 30.9749 17.1517 31.0097 17.011 31.0427C16.872 31.0752 16.7389 31.1087 16.6301 31.1428C16.5761 31.1597 16.518 31.1799 16.4637 31.2039C16.4224 31.2222 16.329 31.2653 16.2481 31.3463L16.9552 32.0534ZM19.9919 30.7979C20.0534 30.4906 19.8737 30.255 19.7878 30.1557C19.6793 30.0302 19.536 29.9146 19.3934 29.8129C19.1034 29.6063 18.7189 29.3903 18.3467 29.1947C17.9715 28.9975 17.5852 28.8091 17.2915 28.6631C17.1421 28.5887 17.0195 28.5268 16.9292 28.4782C16.8839 28.4538 16.8523 28.4357 16.8322 28.4233C16.801 28.404 16.8227 28.4137 16.8552 28.4463L16.1481 29.1534C16.2056 29.2109 16.2734 29.2534 16.3066 29.274C16.3509 29.3013 16.402 29.33 16.4549 29.3585C16.5612 29.4158 16.6971 29.4843 16.8462 29.5584C17.1493 29.7092 17.5193 29.8896 17.8816 30.0799C18.2469 30.2718 18.5811 30.4621 18.8131 30.6273C18.9314 30.7116 18.9998 30.7733 19.0315 30.8099C19.0859 30.8728 18.9749 30.784 19.0114 30.6017L19.9919 30.7979ZM16.9489 28.5762C16.9789 28.6364 16.9823 28.6801 16.9748 28.639C16.9712 28.6192 16.9663 28.5861 16.9605 28.5371C16.9489 28.44 16.9366 28.306 16.9235 28.1425C16.897 27.8137 16.8695 27.4008 16.8378 26.9751C16.8065 26.5564 16.7714 26.13 16.7307 25.7996C16.7106 25.6363 16.6875 25.4826 16.6598 25.3603C16.6464 25.301 16.628 25.2312 16.6014 25.1656C16.5882 25.133 16.5672 25.0868 16.5348 25.0387C16.5067 24.9969 16.4417 24.9108 16.3253 24.8526L15.878 25.747C15.7741 25.695 15.7215 25.6212 15.7054 25.5974C15.6852 25.5674 15.6761 25.5448 15.6746 25.5412C15.6715 25.5335 15.6759 25.543 15.6845 25.5811C15.701 25.6538 15.7193 25.768 15.7382 25.9219C15.7756 26.2259 15.8093 26.6307 15.8405 27.0495C15.8713 27.4614 15.9001 27.8921 15.9267 28.2228C15.9401 28.3889 15.9536 28.5385 15.9674 28.6551C15.9743 28.7129 15.982 28.7691 15.991 28.8182C15.996 28.8461 16.0119 28.9383 16.0544 29.0234L16.9489 28.5762ZM16.1017 24.7998C15.9584 24.7998 15.8583 24.8601 15.8232 24.883C15.7793 24.9115 15.7485 24.9411 15.7324 24.9575C15.6994 24.9911 15.6749 25.0243 15.6616 25.0431C15.6324 25.0843 15.6037 25.1321 15.5787 25.1755C15.5268 25.266 15.4625 25.3883 15.3924 25.5252C15.2521 25.7996 15.0706 26.1688 14.8919 26.5262C14.7105 26.889 14.5307 27.2423 14.3852 27.5032C14.3115 27.6354 14.2534 27.7317 14.2126 27.7906C14.1909 27.8219 14.1846 27.8273 14.192 27.8197C14.1953 27.8163 14.2146 27.7963 14.2485 27.774C14.2741 27.7571 14.3654 27.6998 14.5016 27.6998V28.6998C14.6504 28.6998 14.7564 28.6369 14.7986 28.609C14.8492 28.5757 14.8872 28.5394 14.911 28.5147C14.9594 28.4647 15.0016 28.4077 15.0349 28.3597C15.1038 28.2601 15.1808 28.1298 15.2587 27.9901C15.4164 27.7073 15.6053 27.3356 15.7864 26.9734C15.9702 26.6058 16.1449 26.25 16.2827 25.9806C16.3518 25.8457 16.4069 25.7415 16.4461 25.6733C16.4555 25.6568 16.4631 25.644 16.469 25.6345C16.4752 25.6245 16.4778 25.6208 16.4772 25.6216C16.4769 25.6222 16.4745 25.6255 16.4702 25.6308C16.4664 25.6355 16.458 25.6459 16.4452 25.6588C16.4345 25.6697 16.4086 25.6951 16.369 25.7208C16.3381 25.741 16.2418 25.7998 16.1017 25.7998V24.7998ZM14.5016 27.6998C14.5476 27.6998 14.5701 27.7084 14.5421 27.7013C14.524 27.6968 14.4947 27.6883 14.4518 27.6741C14.3664 27.6459 14.2527 27.6038 14.1143 27.5505C13.8593 27.4522 13.4738 27.2967 13.1425 27.1702C12.7975 27.0385 12.4352 26.9081 12.1398 26.8303C11.9955 26.7924 11.84 26.7595 11.6989 26.7529C11.6291 26.7496 11.5359 26.7512 11.4384 26.7768C11.3413 26.8022 11.1904 26.8652 11.0856 27.0225L11.9177 27.5772C11.8379 27.6969 11.7299 27.7341 11.6917 27.7442C11.6529 27.7543 11.6341 27.751 11.6524 27.7518C11.6875 27.7534 11.7625 27.7651 11.8853 27.7974C12.1244 27.8603 12.4433 27.9736 12.7858 28.1044C13.142 28.2404 13.4503 28.3662 13.7546 28.4835C13.8959 28.538 14.0283 28.5873 14.1378 28.6235C14.1924 28.6416 14.2477 28.6585 14.2994 28.6715C14.341 28.6819 14.4182 28.6998 14.5016 28.6998V27.6998ZM11.0544 27.0762C10.93 27.325 11.0075 27.5739 11.0494 27.6854C11.1018 27.8249 11.1837 27.9652 11.268 28.0921C11.4391 28.3497 11.6795 28.6392 11.914 28.9053C12.1509 29.1742 12.3972 29.4366 12.5841 29.6373C12.6792 29.7395 12.7566 29.8232 12.8128 29.8869C12.8411 29.9188 12.8602 29.9414 12.8719 29.9561C12.8916 29.9808 12.8742 29.963 12.8544 29.9234L13.7489 29.4762C13.7166 29.4116 13.6726 29.3563 13.6536 29.3325C13.6266 29.2986 13.5948 29.2617 13.562 29.2245C13.496 29.1498 13.4101 29.057 13.3161 28.956C13.1248 28.7505 12.8899 28.5004 12.6643 28.2443C12.4363 27.9854 12.2329 27.7374 12.1009 27.5387C12.0337 27.4375 11.9991 27.37 11.9855 27.3338C11.9614 27.2695 12.0233 27.3746 11.9489 27.5234L11.0544 27.0762ZM12.8544 29.9234C12.7843 29.7832 12.8049 29.6579 12.8156 29.6116C12.8275 29.5601 12.8453 29.5273 12.849 29.5206C12.857 29.5059 12.8563 29.5109 12.8303 29.5425C12.782 29.6011 12.6993 29.6886 12.5827 29.804C12.3484 30.0363 12.0461 30.3153 11.735 30.6143C11.4394 30.8983 11.1325 31.2035 10.9438 31.4457C10.895 31.5083 10.8468 31.5759 10.8068 31.645C10.7708 31.7072 10.7211 31.8047 10.7014 31.9215C10.6801 32.0473 10.6864 32.2689 10.8713 32.4411C11.0275 32.5865 11.2145 32.5998 11.3017 32.5998V31.5998C11.3029 31.5998 11.4311 31.5959 11.5526 31.709C11.7028 31.8488 11.6984 32.023 11.6874 32.0883C11.6778 32.1446 11.6593 32.1684 11.6723 32.1459C11.6813 32.1304 11.6999 32.1022 11.7327 32.0602C11.8702 31.8836 12.125 31.6263 12.4278 31.3353C12.7151 31.0593 13.048 30.7508 13.2866 30.5143C13.4066 30.3954 13.5198 30.2782 13.6022 30.1782C13.6414 30.1306 13.6897 30.0678 13.7273 29.9988C13.7456 29.965 13.7733 29.9085 13.7899 29.837C13.8052 29.7706 13.8252 29.629 13.7489 29.4762L12.8544 29.9234ZM1.20141 35.7998C1.17205 36.2989 1.17205 36.2989 1.17205 36.2989C1.17206 36.2989 1.17206 36.2989 1.17208 36.2989C1.17211 36.2989 1.17218 36.299 1.17226 36.299C1.17243 36.299 1.17271 36.299 1.17308 36.299C1.17383 36.299 1.17498 36.2991 1.17652 36.2992C1.1796 36.2994 1.18424 36.2997 1.19034 36.3C1.20253 36.3008 1.22057 36.3019 1.24366 36.3033C1.28986 36.3062 1.35624 36.3105 1.43659 36.3159C1.59748 36.3267 1.81341 36.3421 2.03489 36.3606C2.25748 36.3791 2.48078 36.4003 2.65815 36.4225C2.74737 36.4337 2.81888 36.4443 2.87021 36.4539C2.94299 36.4676 2.92435 36.4703 2.87781 36.447L3.32502 35.5526C3.22848 35.5043 3.11296 35.482 3.05449 35.4711C2.97457 35.4561 2.88045 35.4425 2.78218 35.4302C2.58454 35.4055 2.34534 35.383 2.11793 35.364C1.88942 35.345 1.66784 35.3292 1.50374 35.3181C1.42158 35.3126 1.35359 35.3082 1.30604 35.3053C1.28226 35.3038 1.26357 35.3026 1.25077 35.3019C1.24437 35.3015 1.23944 35.3012 1.23607 35.301C1.23439 35.3009 1.2331 35.3008 1.23221 35.3008C1.23177 35.3007 1.23142 35.3007 1.23118 35.3007C1.23106 35.3007 1.23097 35.3007 1.2309 35.3007C1.23087 35.3007 1.23083 35.3007 1.23082 35.3007C1.23079 35.3007 1.23077 35.3007 1.20141 35.7998ZM3.10141 35.9998C2.63224 36.1727 2.63225 36.1727 2.63227 36.1727C2.63227 36.1727 2.63229 36.1728 2.6323 36.1728C2.63234 36.1729 2.63238 36.173 2.63243 36.1732C2.63254 36.1735 2.63269 36.1739 2.63288 36.1744C2.63326 36.1754 2.6338 36.1769 2.63451 36.1788C2.63593 36.1826 2.638 36.1882 2.64069 36.1954C2.64605 36.2099 2.65388 36.2308 2.66386 36.2574C2.68383 36.3105 2.71247 36.3861 2.74745 36.4767C2.81724 36.6575 2.91296 36.9001 3.0156 37.1438C3.11709 37.3849 3.22998 37.6383 3.33395 37.8358C3.38471 37.9322 3.44219 38.0325 3.50279 38.1148C3.53217 38.1546 3.57529 38.2083 3.63154 38.2569C3.67238 38.2921 3.80365 38.3998 4.00141 38.3998V37.3998C4.17418 37.3998 4.27654 37.4926 4.28516 37.5001C4.30918 37.5208 4.31675 37.5336 4.30785 37.5216C4.29189 37.4999 4.26187 37.4518 4.21887 37.3701C4.13534 37.2113 4.03573 36.9897 3.93723 36.7558C3.83987 36.5245 3.74809 36.2921 3.68037 36.1166C3.6466 36.0291 3.619 35.9563 3.5999 35.9055C3.59036 35.8801 3.58294 35.8602 3.57796 35.8468C3.57547 35.8401 3.57358 35.8351 3.57234 35.8317C3.57172 35.83 3.57126 35.8288 3.57097 35.828C3.57082 35.8276 3.57071 35.8273 3.57065 35.8271C3.57062 35.827 3.5706 35.827 3.57059 35.827C3.57058 35.8269 3.57058 35.8269 3.57058 35.8269C3.57058 35.8269 3.57058 35.827 3.10141 35.9998ZM4.00141 38.3998C4.17812 38.3998 4.30123 38.315 4.35479 38.2721C4.41522 38.2237 4.45971 38.17 4.48888 38.1312C4.54829 38.0522 4.60052 37.9585 4.64367 37.8739C4.73229 37.7002 4.8269 37.4761 4.91375 37.2652C5.00433 37.0452 5.08735 36.8375 5.16243 36.6663C5.19966 36.5814 5.23077 36.5152 5.25568 36.468C5.28864 36.4056 5.28856 36.4198 5.25497 36.4534L4.54786 35.7463C4.46426 35.8298 4.40481 35.9378 4.37136 36.0011C4.32986 36.0797 4.28755 36.1713 4.24664 36.2646C4.16548 36.4497 4.0735 36.6794 3.98907 36.8844C3.90093 37.0985 3.82054 37.2869 3.75291 37.4194C3.71793 37.488 3.69672 37.5208 3.68973 37.5301C3.68569 37.5355 3.69874 37.5163 3.72978 37.4915C3.75394 37.4721 3.8497 37.3998 4.00141 37.3998V38.3998ZM5.25497 36.4534C5.19198 36.5163 5.12902 36.5438 5.11015 36.5517C5.08461 36.5625 5.06595 36.5673 5.06107 36.5685C5.05126 36.5709 5.05343 36.5696 5.07595 36.5669C5.11881 36.5618 5.18654 36.557 5.28183 36.5523C5.37496 36.5478 5.48218 36.5441 5.60164 36.5397C5.71962 36.5354 5.84765 36.5306 5.97638 36.5242C6.2286 36.5116 6.50552 36.4918 6.73251 36.4515C6.84369 36.4318 6.96918 36.4028 7.08177 36.355C7.16412 36.3201 7.3901 36.2149 7.47575 35.9579L6.52707 35.6417C6.58773 35.4597 6.73245 35.417 6.69137 35.4344C6.68052 35.439 6.64039 35.4522 6.55782 35.4669C6.3973 35.4953 6.17423 35.513 5.92644 35.5254C5.80518 35.5315 5.6832 35.5361 5.56524 35.5404C5.44877 35.5446 5.33412 35.5486 5.2335 35.5535C5.13503 35.5583 5.03715 35.5644 4.95656 35.5741C4.91736 35.5788 4.86837 35.5859 4.81968 35.598C4.79537 35.6041 4.76035 35.614 4.72175 35.6303C4.68982 35.6437 4.61709 35.677 4.54786 35.7463L5.25497 36.4534ZM7.47575 35.9579C7.52609 35.8069 7.50263 35.6716 7.47702 35.5876C7.45098 35.5022 7.41105 35.4307 7.37695 35.3778C7.30879 35.2723 7.21745 35.1712 7.12997 35.0838C6.95104 34.9048 6.71232 34.7082 6.48338 34.5301C6.25121 34.3495 6.01411 34.1766 5.83217 34.0448C5.73967 33.9779 5.66423 33.9235 5.60725 33.8818C5.53061 33.8256 5.53308 33.8244 5.55497 33.8463L4.84786 34.5534C4.89474 34.6002 4.97534 34.6584 5.01589 34.6882C5.07609 34.7323 5.15691 34.7905 5.24566 34.8548C5.42621 34.9855 5.65162 35.1501 5.86944 35.3195C6.09051 35.4914 6.28929 35.6573 6.42286 35.7909C6.49162 35.8596 6.52529 35.9024 6.53681 35.9202C6.54256 35.9291 6.53114 35.9142 6.52053 35.8794C6.51035 35.846 6.48923 35.7552 6.52707 35.6417L7.47575 35.9579ZM5.70141 34.1998C5.70141 34.2102 5.70227 34.1902 5.70839 34.1029C5.7134 34.0314 5.72053 33.9321 5.72838 33.8166C5.74412 33.5852 5.7632 33.2835 5.77596 32.9836C5.78858 32.6869 5.79566 32.3787 5.78532 32.1392C5.78034 32.0237 5.77046 31.8989 5.74749 31.7929C5.73696 31.7443 5.7161 31.6619 5.66981 31.5799C5.63204 31.513 5.49046 31.2998 5.20141 31.2998V32.2998C4.93737 32.2998 4.81766 32.1046 4.79894 32.0714C4.77169 32.0231 4.76704 31.9902 4.77018 32.0047C4.77455 32.0249 4.78186 32.0806 4.78625 32.1823C4.79466 32.3771 4.78924 32.6502 4.77686 32.941C4.76463 33.2286 4.74621 33.5206 4.73069 33.7487C4.71679 33.953 4.70141 34.1522 4.70141 34.1998H5.70141ZM5.20141 31.7998C4.79607 31.5071 4.79608 31.5071 4.79608 31.5071C4.79607 31.5071 4.79607 31.5071 4.79606 31.5071C4.79603 31.5071 4.79598 31.5072 4.79592 31.5073C4.79579 31.5075 4.79558 31.5077 4.7953 31.5081C4.79473 31.5089 4.79386 31.5101 4.79268 31.5117C4.79034 31.515 4.7868 31.5199 4.78214 31.5263C4.77282 31.5391 4.75903 31.5581 4.74135 31.5823C4.70598 31.6307 4.65511 31.7001 4.59338 31.7834C4.46974 31.9504 4.3035 32.172 4.13174 32.3928C3.95866 32.6154 3.7854 32.8301 3.64646 32.9864C3.5758 33.0659 3.52297 33.1201 3.48881 33.1508C3.47088 33.1669 3.46923 33.1665 3.48084 33.159C3.48692 33.1551 3.50538 33.1436 3.534 33.1319C3.55926 33.1215 3.6192 33.0998 3.70141 33.0998V34.0998C3.86853 34.0998 3.99081 34.02 4.0216 34.0002C4.07422 33.9664 4.12101 33.9272 4.15777 33.8941C4.23298 33.8264 4.31453 33.74 4.39387 33.6507C4.55493 33.4695 4.74417 33.2342 4.92109 33.0068C5.09933 32.7776 5.27059 32.5492 5.39694 32.3787C5.46022 32.2932 5.51247 32.222 5.54898 32.172C5.56723 32.147 5.58157 32.1273 5.59139 32.1137C5.5963 32.107 5.60009 32.1018 5.60267 32.0982C5.60396 32.0964 5.60496 32.095 5.60564 32.0941C5.60598 32.0936 5.60625 32.0933 5.60643 32.093C5.60652 32.0929 5.6066 32.0928 5.60665 32.0927C5.60668 32.0927 5.6067 32.0926 5.60672 32.0926C5.60674 32.0926 5.60675 32.0926 5.20141 31.7998ZM3.70141 33.0998C3.74761 33.0998 3.78092 33.1071 3.7924 33.1098C3.80653 33.1131 3.81468 33.116 3.81481 33.116C3.81559 33.1163 3.81303 33.1154 3.80648 33.1126C3.80013 33.1099 3.79155 33.1061 3.7805 33.1009C3.73377 33.0787 3.6668 33.0431 3.58025 32.9942C3.40786 32.8968 3.19382 32.7672 2.97116 32.6336C2.75447 32.5035 2.52781 32.3687 2.34743 32.2726C2.25957 32.2258 2.16576 32.179 2.08191 32.147C2.04285 32.132 1.98093 32.1104 1.91049 32.1C1.87529 32.0948 1.8156 32.0887 1.74445 32.0989C1.67379 32.109 1.55309 32.141 1.44786 32.2463L2.15497 32.9534C2.05599 33.0523 1.94447 33.0805 1.88573 33.0889C1.82652 33.0973 1.78151 33.0918 1.76358 33.0891C1.72765 33.0838 1.71056 33.0756 1.72521 33.0812C1.74879 33.0902 1.79794 33.1129 1.87727 33.1552C2.03126 33.2372 2.23586 33.3586 2.45667 33.4911C2.67151 33.62 2.90121 33.7591 3.0882 33.8648C3.18134 33.9174 3.27296 33.967 3.35241 34.0046C3.39176 34.0232 3.43635 34.0429 3.48162 34.0589C3.51321 34.0701 3.59885 34.0998 3.70141 34.0998V33.0998ZM1.44786 32.2463C1.23131 32.4628 1.27701 32.7442 1.29068 32.8196C1.31204 32.9375 1.35696 33.055 1.40007 33.1529C1.48892 33.3546 1.62198 33.5872 1.74881 33.7965C1.87725 34.0084 2.01347 34.2193 2.11032 34.3721C2.16054 34.4514 2.19807 34.5117 2.22247 34.5536C2.23512 34.5753 2.23939 34.5838 2.23914 34.5833C2.23877 34.5825 2.23754 34.58 2.23579 34.576C2.23413 34.5721 2.23116 34.5651 2.2277 34.5554C2.22621 34.5513 2.20141 34.4876 2.20141 34.3998H3.20141C3.20141 34.3057 3.17446 34.2331 3.16882 34.2174C3.15841 34.1884 3.14703 34.1637 3.13908 34.1473C3.12281 34.1137 3.10365 34.0796 3.08661 34.0503C3.05163 33.9903 3.00478 33.9154 2.95501 33.8369C2.85185 33.6741 2.72557 33.4787 2.60401 33.2782C2.48084 33.0749 2.37641 32.8887 2.31526 32.7499C2.30065 32.7167 2.29022 32.69 2.28319 32.6695C2.27584 32.6481 2.27431 32.6394 2.27465 32.6413C2.2749 32.6427 2.27612 32.6497 2.27674 32.6612C2.27734 32.6724 2.27762 32.6921 2.27419 32.7179C2.26749 32.7682 2.24269 32.8656 2.15497 32.9534L1.44786 32.2463ZM2.20141 34.3998C2.20141 34.2551 2.26627 34.1575 2.27106 34.1497C2.28793 34.1224 2.3026 34.1056 2.30486 34.103C2.31071 34.0963 2.30853 34.0996 2.29007 34.1166C2.2557 34.1482 2.19963 34.1956 2.1222 34.2585C1.96815 34.3836 1.76553 34.5408 1.55448 34.7071C1.34918 34.8688 1.13568 35.0393 0.978548 35.1779C0.902723 35.2448 0.823575 35.3184 0.763665 35.3875C0.737431 35.4178 0.689475 35.4756 0.65326 35.55C0.635587 35.5864 0.603338 35.6611 0.597946 35.7601C0.591753 35.8737 0.622792 36.0283 0.74786 36.1534L1.45497 35.4463C1.57378 35.5651 1.60209 35.7113 1.59646 35.8145C1.59164 35.903 1.56326 35.9654 1.55254 35.9874C1.53025 36.0332 1.50856 36.0549 1.51924 36.0426C1.53316 36.0265 1.57042 35.9892 1.6399 35.928C1.7734 35.8103 1.96614 35.6558 2.17335 35.4925C2.3748 35.3338 2.59093 35.166 2.7525 35.0349C2.83288 34.9696 2.90885 34.9061 2.96706 34.8526C2.99488 34.827 3.02913 34.7941 3.05983 34.7588C3.07452 34.7419 3.09873 34.7127 3.12202 34.675C3.13323 34.6568 3.20141 34.5508 3.20141 34.3998H2.20141ZM1.10141 36.2998H1.20141V35.2998H1.10141V36.2998Z" fill="#494A4A"/>
</g>
</g>
<defs>
<clipPath id="clip0_622_41994">
<rect width="64" height="64" fill="white"/>
</clipPath>
</defs>
</svg>
