<svg width="64" height="64" viewBox="0 0 64 64" fill="none" xmlns="http://www.w3.org/2000/svg">
<g id="Pictogram-admin">
<g id="stroke-default">
<path id="2px" d="M58.4079 52.6109C58.2924 52.0708 57.761 51.7266 57.2209 51.8421C56.6808 51.9576 56.3366 52.489 56.4521 53.0291L58.4079 52.6109ZM58 57.93H59.0001L58.9999 57.9185L58 57.93ZM45.778 61.2963C45.2292 61.3581 44.8344 61.8532 44.8963 62.402C44.9581 62.9508 45.4532 63.3456 46.002 63.2837L45.778 61.2963ZM30.1657 63.8394C30.7176 63.8584 31.1804 63.4263 31.1994 62.8743C31.2184 62.3224 30.7863 61.8596 30.2343 61.8406L30.1657 63.8394ZM8.76 45L9.34228 45.813L9.34378 45.8119L8.76 45ZM26.76 32.29C26.76 31.7377 26.3123 31.29 25.76 31.29C25.2077 31.29 24.76 31.7377 24.76 32.29H26.76ZM39.2277 31.9271C39.2648 31.376 38.8481 30.8993 38.2971 30.8623C37.746 30.8252 37.2693 31.2419 37.2323 31.7929L39.2277 31.9271ZM39.1145 39.2488C39.4562 39.6826 40.085 39.7573 40.5188 39.4155C40.9526 39.0738 41.0273 38.445 40.6855 38.0112L39.1145 39.2488ZM44.41 44.66L45.1966 45.2775C45.2016 45.2711 45.2065 45.2646 45.2114 45.2581L44.41 44.66ZM44.64 42.79L43.6969 43.1225C43.7033 43.1405 43.7101 43.1584 43.7175 43.1761L44.64 42.79ZM59.3 33.87L58.6456 34.6261L58.6461 34.6266L59.3 33.87ZM51.05 48.51L51.4311 47.5855L51.4298 47.5849L51.05 48.51ZM49.46 48.91L48.6877 48.2748L48.6862 48.2765L49.46 48.91ZM46.3 52.66L45.5428 52.0068C45.4258 52.1424 45.3474 52.3069 45.3157 52.4832L46.3 52.66ZM45.79 55.5L45.8953 56.4944C46.3375 56.4476 46.6957 56.1144 46.7743 55.6768L45.79 55.5ZM42.2 55.88L42.0947 54.8856C41.7804 54.9188 41.5003 55.0988 41.3393 55.3708C41.1784 55.6429 41.1555 55.975 41.2777 56.2666L42.2 55.88ZM43.6 59.22L43.6655 60.2179C43.9879 60.1967 44.2803 60.021 44.4503 59.7462C44.6204 59.4715 44.6472 59.1315 44.5223 58.8334L43.6 59.22ZM39.79 59.47L39.7245 58.4721C39.2625 58.5025 38.8817 58.846 38.8041 59.3024L39.79 59.47ZM39.28 62.47L39.5648 63.4286C39.9301 63.3201 40.202 63.0133 40.2659 62.6376L39.28 62.47ZM34.61 56.47L33.8464 55.8243C33.7451 55.9441 33.6734 56.0861 33.6371 56.2387L34.61 56.47ZM56.4521 53.0291C56.7975 54.6443 56.9811 56.2899 57.0001 57.9415L58.9999 57.9185C58.9794 56.134 58.7811 54.356 58.4079 52.6109L56.4521 53.0291ZM57 57.93C57 58.0141 56.9574 58.2422 56.4887 58.5982C56.0254 58.9502 55.2852 59.3131 54.2539 59.6613C52.2027 60.3538 49.2575 60.9042 45.778 61.2963L46.002 63.2837C49.5325 62.8858 52.6423 62.3162 54.8936 61.5562C56.0135 61.1781 56.9865 60.7317 57.6985 60.1908C58.4051 59.654 59 58.9059 59 57.93H57ZM30.2343 61.8406C22.1087 61.5614 15.8732 60.9167 11.6913 60.046C9.59186 59.6089 8.0689 59.1264 7.09468 58.6363C6.60682 58.3909 6.30878 58.1692 6.14426 57.9935C6.06527 57.9091 6.02912 57.8481 6.01334 57.8136C5.99916 57.7826 6 57.7706 6 57.77H4C4 58.4043 4.29064 58.9399 4.68425 59.3604C5.07013 59.7725 5.59474 60.1206 6.19595 60.423C7.39985 61.0286 9.12064 61.5536 11.2837 62.004C15.6268 62.9083 21.9913 63.5586 30.1657 63.8394L30.2343 61.8406ZM6 57.77C6 55.7233 6.37054 53.0161 7.01303 50.6328C7.33371 49.4433 7.71456 48.3631 8.13482 47.501C8.56748 46.6135 8.99061 46.0649 9.34228 45.813L8.17772 44.187C7.41939 44.7301 6.81752 45.639 6.33706 46.6246C5.84419 47.6356 5.42379 48.8442 5.08197 50.1122C4.39946 52.6439 4 55.5267 4 57.77H6ZM9.34378 45.8119C10.6396 44.8802 12.2887 44.2447 14.1357 43.6594C15.9267 43.0918 17.9678 42.5558 19.7751 41.8442C21.6074 41.1229 23.3707 40.1628 24.671 38.6352C25.9929 37.0823 26.76 35.0341 26.76 32.29H24.76C24.76 34.6309 24.1184 36.1989 23.1481 37.3388C22.1562 38.5041 20.7439 39.3134 19.0424 39.9833C17.3159 40.663 15.4652 41.1401 13.5315 41.7528C11.6538 42.3478 9.74545 43.0598 8.17622 44.1881L9.34378 45.8119ZM37.2323 31.7929C37.0665 34.2586 37.2143 36.8366 39.1145 39.2488L40.6855 38.0112C39.2457 36.1834 39.0735 34.2214 39.2277 31.9271L37.2323 31.7929ZM32 35.5C38.5496 35.5 45 28.1825 45 15.32H43C43 27.7575 36.8704 33.5 32 33.5V35.5ZM45 15.32C45 10.3476 43.8249 6.4976 41.5396 3.87984C39.2356 1.24075 35.9315 0 32 0V2C35.4985 2 38.1944 3.08925 40.0329 5.19516C41.8901 7.3224 43 10.6324 43 15.32H45ZM32 0C28.0685 0 24.7644 1.24075 22.4604 3.87984C20.1751 6.4976 19 10.3476 19 15.32H21C21 10.6324 22.1099 7.3224 23.9671 5.19516C25.8056 3.08925 28.5015 2 32 2V0ZM19 15.32C19 28.2137 25.4513 35.5 32 35.5V33.5C27.1287 33.5 21 27.7863 21 15.32H19ZM45.2114 45.2581C45.513 44.854 45.7041 44.3781 45.7656 43.8776L43.7806 43.6334C43.7615 43.7888 43.7022 43.9365 43.6086 44.0619L45.2114 45.2581ZM45.7656 43.8776C45.8272 43.377 45.7572 42.8691 45.5625 42.4039L43.7175 43.1761C43.778 43.3205 43.7997 43.4781 43.7806 43.6334L45.7656 43.8776ZM45.5831 42.4575C44.2575 38.6972 45.88 35.3775 48.6682 33.6486C51.4594 31.9179 55.3926 31.8108 58.6456 34.6261L59.9544 33.1139C55.9974 29.6892 51.1006 29.7871 47.6143 31.9489C44.125 34.1125 42.0225 38.3728 43.6969 43.1225L45.5831 42.4575ZM58.6461 34.6266C61.4058 37.0118 61.6138 41.0383 60.0007 44.1752C59.2045 45.7234 57.9996 46.9672 56.551 47.6272C55.1243 48.2771 53.3927 48.3941 51.4311 47.5855L50.6689 49.4345C53.1223 50.4459 55.4307 50.3354 57.3802 49.4472C59.3078 48.569 60.8155 46.9641 61.7793 45.0898C63.6862 41.3817 63.6042 36.2682 59.9539 33.1134L58.6461 34.6266ZM51.4298 47.5849C50.959 47.3916 50.4387 47.3543 49.9452 47.4785L50.4331 49.4181C50.5119 49.3982 50.595 49.4042 50.6702 49.4351L51.4298 47.5849ZM49.9452 47.4785C49.4517 47.6027 49.0109 47.8817 48.6877 48.2748L50.2323 49.5452C50.284 49.4824 50.3543 49.4379 50.4331 49.4181L49.9452 47.4785ZM48.6862 48.2765C47.9919 49.1246 47.2064 50.0568 46.593 50.7787C46.2866 51.1393 46.0238 51.4466 45.8377 51.6637C45.7446 51.7722 45.6708 51.8581 45.6203 51.9169C45.595 51.9462 45.5756 51.9688 45.5625 51.984C45.556 51.9915 45.551 51.9973 45.5477 52.0011C45.5461 52.003 45.5448 52.0045 45.544 52.0054C45.5436 52.0059 45.5433 52.0062 45.5431 52.0065C45.543 52.0066 45.5429 52.0067 45.5429 52.0067C45.5429 52.0067 45.5429 52.0067 45.5429 52.0068C45.5428 52.0068 45.5428 52.0068 46.3 52.66C47.0572 53.3132 47.0572 53.3132 47.0572 53.3132C47.0572 53.3132 47.0572 53.3131 47.0573 53.3131C47.0573 53.313 47.0574 53.3129 47.0575 53.3128C47.0578 53.3125 47.0581 53.3121 47.0585 53.3116C47.0594 53.3106 47.0607 53.3091 47.0625 53.3071C47.0659 53.3031 47.071 53.2972 47.0777 53.2894C47.0911 53.2738 47.1109 53.2509 47.1364 53.2212C47.1876 53.1616 47.2622 53.0749 47.3561 52.9654C47.5437 52.7466 47.8084 52.437 48.117 52.0738C48.7336 51.3482 49.5281 50.4054 50.2338 49.5435L48.6862 48.2765ZM45.3157 52.4832L44.8057 55.3232L46.7743 55.6768L47.2843 52.8368L45.3157 52.4832ZM45.6847 54.5056L42.0947 54.8856L42.3053 56.8744L45.8953 56.4944L45.6847 54.5056ZM41.2777 56.2666L42.6777 59.6066L44.5223 58.8334L43.1223 55.4934L41.2777 56.2666ZM43.5345 58.2221L39.7245 58.4721L39.8555 60.4679L43.6655 60.2179L43.5345 58.2221ZM38.8041 59.3024L38.2941 62.3024L40.2659 62.6376L40.7759 59.6376L38.8041 59.3024ZM39.28 62.47C38.9952 61.5114 38.9954 61.5114 38.9955 61.5113C38.9955 61.5113 38.9956 61.5113 38.9957 61.5113C38.9958 61.5112 38.9958 61.5112 38.9958 61.5112C38.9958 61.5112 38.9956 61.5113 38.9951 61.5114C38.9942 61.5117 38.9924 61.5122 38.9897 61.513C38.9844 61.5146 38.9757 61.5171 38.9637 61.5205C38.9397 61.5273 38.9029 61.5376 38.8548 61.5507C38.7585 61.5767 38.6175 61.6134 38.4444 61.6544C38.096 61.7369 37.6279 61.8342 37.1367 61.8984C36.6374 61.9637 36.1569 61.9888 35.7693 61.948C35.5777 61.9278 35.4354 61.8941 35.3369 61.8567C35.2391 61.8195 35.2131 61.7899 35.2161 61.7931L33.7439 63.1469C34.252 63.6994 34.9855 63.8765 35.5597 63.937C36.1688 64.0012 36.8239 63.9563 37.3958 63.8816C37.9759 63.8058 38.5147 63.6931 38.9053 63.6006C39.1017 63.5541 39.2633 63.512 39.3772 63.4812C39.4342 63.4658 39.4794 63.4532 39.5111 63.4441C39.527 63.4396 39.5396 63.436 39.5486 63.4333C39.5531 63.432 39.5567 63.431 39.5594 63.4302C39.5608 63.4298 39.5619 63.4295 39.5628 63.4292C39.5632 63.4291 39.5636 63.4289 39.564 63.4288C39.5641 63.4288 39.5643 63.4287 39.5644 63.4287C39.5646 63.4286 39.5648 63.4286 39.28 62.47ZM35.2161 61.7931C35.2347 61.8133 35.1973 61.7811 35.1534 61.6229C35.1117 61.4731 35.0796 61.2662 35.0641 61.0014C35.0329 60.4711 35.0742 59.8224 35.1518 59.1677C35.2286 58.5202 35.3367 57.9011 35.4263 57.4415C35.471 57.2125 35.5107 57.025 35.539 56.8958C35.5532 56.8313 35.5644 56.7814 35.572 56.7482C35.5758 56.7317 35.5787 56.7193 35.5805 56.7114C35.5814 56.7074 35.5821 56.7046 35.5825 56.7029C35.5827 56.702 35.5828 56.7015 35.5829 56.7012C35.5829 56.7011 35.583 56.701 35.583 56.701C35.583 56.701 35.5829 56.7011 35.5829 56.7011C35.5829 56.7012 35.5829 56.7013 34.61 56.47C33.6371 56.2387 33.6371 56.2389 33.637 56.239C33.637 56.2391 33.637 56.2393 33.6369 56.2394C33.6369 56.2397 33.6368 56.2401 33.6367 56.2406C33.6365 56.2415 33.6362 56.2427 33.6358 56.2442C33.6351 56.2472 33.6341 56.2514 33.6329 56.2567C33.6304 56.2673 33.6269 56.2825 33.6224 56.3019C33.6135 56.3408 33.6009 56.3968 33.5853 56.4679C33.5542 56.61 33.5113 56.8125 33.4633 57.0585C33.3677 57.5489 33.2502 58.2198 33.1657 58.9323C33.0821 59.6376 33.0264 60.4189 33.0675 61.1186C33.0881 61.4688 33.1343 61.8269 33.2264 62.1583C33.3161 62.4814 33.4678 62.8467 33.7439 63.1469L35.2161 61.7931ZM34.61 56.47C35.3736 57.1157 35.3737 57.1156 35.3737 57.1156C35.3738 57.1155 35.3739 57.1154 35.374 57.1152C35.3742 57.115 35.3745 57.1146 35.375 57.114C35.3759 57.113 35.3773 57.1114 35.379 57.1092C35.3826 57.105 35.388 57.0987 35.395 57.0904C35.4091 57.0737 35.4301 57.0489 35.4575 57.0165C35.5123 56.9516 35.5929 56.8561 35.6964 56.7335C35.9034 56.4882 36.2017 56.1346 36.5672 55.7006C37.2982 54.8327 38.298 53.6433 39.3733 52.3579C41.5194 49.7923 43.9801 46.8271 45.1966 45.2775L43.6234 44.0425C42.4299 45.5629 39.9906 48.5027 37.8392 51.0746C36.7658 52.3579 35.7674 53.5455 35.0375 54.4122C34.6725 54.8456 34.3746 55.1987 34.1681 55.4435C34.0648 55.5658 33.9843 55.6611 33.9297 55.7257C33.9024 55.7581 33.8815 55.7827 33.8675 55.7993C33.8605 55.8076 33.8552 55.8139 33.8517 55.8181C33.8499 55.8202 33.8486 55.8217 33.8477 55.8228C33.8473 55.8233 33.8469 55.8237 33.8467 55.824C33.8466 55.8241 33.8465 55.8242 33.8465 55.8242C33.8464 55.8243 33.8464 55.8243 34.61 56.47Z" fill="#494A4A"/>
<path id="1px" d="M12.73 46.09C10 47 9.94 47.34 9 50.87M47.37 39.44C47 41.51 48.61 43.63 47 46M52 31.42C47.43 15 56.4 13.3701 58.93 25.2001C61.08 35.2001 56 38.26 54.32 35.6M57.52 38.01C57.52 39.3963 56.3962 40.5201 55.01 40.5201C53.6238 40.5201 52.5 39.3963 52.5 38.01C52.5 36.6238 53.6238 35.5 55.01 35.5C56.3962 35.5 57.52 36.6238 57.52 38.01Z" stroke="#494A4A" stroke-linecap="round" stroke-linejoin="round"/>
</g>
</g>
</svg>
