<svg width="64" height="64" viewBox="0 0 64 64" fill="none" xmlns="http://www.w3.org/2000/svg">
<g id="Pictogram-check-mark">
<g id="stroke-default">
<g id="2px">
<path d="M62 32C62 48.57 49.58 61.34 32 62C14.42 62.66 2 48.57 2 32C2 15.43 12.87 2 32 2C39.9565 2 47.5871 5.16071 53.2132 10.7868C58.8393 16.4129 62 24.0435 62 32Z" stroke="#494A4A" stroke-width="2" stroke-linecap="round" stroke-linejoin="round"/>
<path d="M18.08 33.5C17.25 32.5 23.27 28.43 23.89 29.01C25.3362 30.5832 26.6726 32.2538 27.89 34.01C28.82 35.23 29.89 35.31 30.44 34.01C32.8034 28.2316 35.9531 22.8071 39.8 17.89C41.11 16.36 46.8 20.7 45.94 21.79C41.28 27.68 37.24 35.5 33.94 43.12C33.7847 43.6881 33.4384 44.1852 32.9593 44.5277C32.4802 44.8701 31.8977 45.0369 31.31 45C30.0598 45.079 28.805 45.0488 27.56 44.91C27.09 44.8557 26.6383 44.6963 26.2384 44.4435C25.8385 44.1908 25.5007 43.8512 25.25 43.45C23.0783 39.9813 20.6833 36.6577 18.08 33.5Z" stroke="#494A4A" stroke-width="2" stroke-linecap="round" stroke-linejoin="round"/>
</g>
<path id="1px" d="M37.2501 46.67L41.5501 49.37M37.2601 51.43L35.3201 48.46M40.2401 44.47L38.2801 44.48M49.5601 12.49C45.2169 8.34613 39.5511 5.86733 33.5601 5.48999" stroke="#494A4A" stroke-linecap="round" stroke-linejoin="round"/>
</g>
</g>
</svg>
