<svg width="64" height="64" viewBox="0 0 64 64" fill="none" xmlns="http://www.w3.org/2000/svg">
<g id="Pictogram-edit-content">
<g id="stroke-default">
<path id="2px" d="M29.0602 57.9998C23.8102 57.9998 19.5302 57.8198 15.4102 57.5598C10.0002 57.2198 6.00024 53.7798 5.46024 46.8398C4.72024 37.7398 4.99024 19.4398 5.46024 12.3998C5.93024 5.35985 9.00024 2.19985 15.4102 1.67985C26.3916 0.775337 37.4288 0.775337 48.4102 1.67985C54.6802 2.32985 57.7502 5.45985 58.3602 12.3998C58.6902 16.2498 58.8802 20.5298 58.9502 25.2998M58.2602 47.7598C57.5502 52.7598 54.9002 56.6798 49.5502 57.4398M33.3102 62.8198C32.4502 62.0098 33.4902 55.7299 35.0102 53.6999C38.0002 49.7399 53.0002 31.6298 54.2002 29.9998C55.4002 28.3698 57.3802 28.2598 60.2002 30.4398C63.0202 32.6198 63.6202 34.7599 62.3802 36.3699C61.4502 37.5799 44.5302 57.2399 42.2602 59.2699C39.9902 61.2999 34.2102 63.6798 33.3102 62.8198Z" stroke="#494A4A" stroke-width="2" stroke-linecap="round" stroke-linejoin="round"/>
<path id="1px" d="M11.3602 51.5298C12.1902 53.1198 15.2302 53.5998 17.3602 53.4798M31.1702 53.9198C30.6702 53.8098 30.1702 54.0398 29.6802 53.8098M32.2002 51.1498C31.4702 50.8798 29.3302 50.6598 28.8402 50.3798M33.3202 49.1298C33.0702 48.8498 32.5202 48.3598 32.3802 48.1298M6.16016 9.46984C17.4302 9.96984 40.5602 8.91984 57.7702 9.67984M46.1502 33.3398C37.6902 33.5798 15.9502 33.5598 14.8102 33.2098C12.6402 32.5498 13.4202 27.7698 14.8902 27.7198C23.3902 27.4598 47.2702 27.4098 49.3202 27.6198C49.4858 27.6523 49.6405 27.7262 49.7699 27.8346C49.8993 27.943 49.9992 28.0824 50.0602 28.2398M36.6702 44.4798C27.2902 44.5498 15.6702 44.4798 14.8102 44.2198C12.6402 43.5598 13.4202 38.7798 14.8902 38.7298C20.8902 38.5398 34.0502 38.4598 41.9902 38.5098M42.2402 59.3598C39.2402 61.3598 33.4002 56.1098 35.3502 53.1298M63.0002 35.5798C61.1402 37.9998 54.8602 32.5798 55.0002 30.6798M60.2102 39.0598C58.3402 41.4798 50.2102 35.2298 51.9702 32.9498M49.5202 21.8598C48.1402 22.6598 42.2202 22.5898 40.8302 22.1598C40.4971 22.0577 40.2022 21.8584 39.9831 21.5877C39.7639 21.3169 39.6306 20.9868 39.6002 20.6398C39.4117 19.7362 39.4117 18.8035 39.6002 17.8998C39.6701 17.5284 39.8734 17.1954 40.1717 16.9633C40.4701 16.7313 40.8429 16.6162 41.2202 16.6398C43.9464 16.4754 46.6812 16.5222 49.4002 16.7798C51.0002 17.1098 50.6402 21.2098 49.5202 21.8598ZM35.5702 21.8598C34.1902 22.6598 16.2802 22.5898 14.8902 22.1598C14.5565 22.0589 14.2608 21.86 14.0415 21.589C13.8221 21.3179 13.6893 20.9873 13.6602 20.6398C13.4882 19.7328 13.5052 18.8 13.7102 17.8998C13.7801 17.5284 13.9834 17.1954 14.2818 16.9633C14.5801 16.7313 14.9529 16.6162 15.3302 16.6398C20.9502 16.4098 31.5602 16.5098 34.4502 16.6398C34.8764 16.6179 35.2977 16.7402 35.646 16.9869C35.9943 17.2336 36.2494 17.5904 36.3702 17.9998C36.7102 19.3198 36.4102 21.3798 35.5702 21.8598Z" stroke="#494A4A" stroke-linecap="round" stroke-linejoin="round"/>
</g>
</g>
</svg>
