<svg width="64" height="64" viewBox="0 0 64 64" fill="none" xmlns="http://www.w3.org/2000/svg">
<g id="Pictogram-bank">
<g id="stroke-default">
<path id="2px" d="M58.7402 57C59.1702 56.13 59.1502 52.41 58.0102 52.39C37.3402 52.08 10.5002 51.84 5.34022 52.08C4.79022 52.08 5.01022 55.94 5.07022 56.71M58.7402 16.74C58.9994 17.4633 59.0884 18.2367 59.0002 19C59.0002 19.5304 58.7895 20.0391 58.4144 20.4142C58.0394 20.7893 57.5307 21 57.0002 21C36.3402 21.12 11.7702 21 6.61022 21C6.39919 21.0274 6.18469 21.0074 5.98237 20.9414C5.78005 20.8754 5.59502 20.7651 5.44075 20.6185C5.28649 20.4719 5.16689 20.2927 5.09068 20.0941C5.01447 19.8954 4.98356 19.6822 5.00022 19.47C4.92894 18.6158 4.96252 17.7561 5.10022 16.91M33.6502 6.37C29.7802 4.49 28.7502 8.43 31.6502 8.87C35.4002 9.42 34.3902 13.21 29.9402 11.67M32.0002 4V5.38M31.9902 12.19V14M9.00022 21.29C9.00022 22.46 9.00022 24.14 9.50022 24.6C10.0002 25.06 16.7802 25.18 17.5602 24.6C18.1302 24.2 18.0402 22.6 18.0402 21.39M27.0002 21.29C27.0002 22.46 27.0002 24.14 27.5002 24.6C28.0002 25.06 34.7702 25.18 35.5602 24.6C36.1202 24.2 36.0402 22.6 36.0402 21.39M46.0002 21.29C46.0002 22.46 46.0002 24.14 46.5002 24.6C47.0002 25.06 53.7702 25.18 54.5602 24.6C55.1202 24.2 55.0402 22.6 55.0402 21.39M9.00022 51.73C9.00022 50.57 9.00022 48.89 9.50022 48.42C10.0002 47.95 16.7802 47.84 17.5602 48.42C18.1302 48.81 18.0402 50.42 18.0402 51.63M27.0002 51.73C27.0002 50.57 27.0002 48.89 27.5002 48.42C28.0002 47.95 34.7702 47.84 35.5602 48.42C36.1202 48.81 36.0402 50.42 36.0402 51.63M46.0002 51.73C46.0002 50.57 46.0002 48.89 46.5002 48.42C47.0002 47.95 53.7702 47.84 54.5602 48.42C55.1202 48.81 55.0402 50.42 55.0402 51.63M2.23022 57.38C1.68022 57.47 2.23022 63 2.58022 63H60.0002C61.5402 63 62.6202 57.24 61.4802 57.22C44.3502 57 5.59022 56.86 2.23022 57.38ZM4.66022 16.74C3.56022 16.74 3.00022 16.15 3.00022 14.74C3.00022 13.74 3.17022 10.81 4.00022 10.01C5.00022 9 28.0002 1 32.0002 1C36.0002 1 59.0002 9 60.0002 10C60.7802 10.76 61.0002 13.59 61.0002 14.59C61.0232 14.8727 60.9858 15.157 60.8904 15.424C60.7951 15.6911 60.6441 15.9349 60.4474 16.1392C60.2507 16.3434 60.0128 16.5035 59.7495 16.6088C59.4862 16.7142 59.2035 16.7623 58.9202 16.75C46.4602 17.11 15.3702 17 4.66022 16.74Z" stroke="#494A4A" stroke-width="2" stroke-linecap="round" stroke-linejoin="round"/>
<path id="1px" d="M10.5 25.21V47.61M16.53 25.21V47.61M28.51 25.21V47.61M34.55 25.21V47.61M47.51 25.21V47.61M53.55 25.21V47.61" stroke="#494A4A" stroke-linecap="round" stroke-linejoin="round"/>
</g>
</g>
</svg>
