<svg width="64" height="64" viewBox="0 0 64 64" fill="none" xmlns="http://www.w3.org/2000/svg">
<g id="Pictogram-search-invoice" clip-path="url(#clip0_426_725)">
<g id="stroke-default">
<path id="2px" d="M10.0021 23.0276C9.9621 23.5784 10.3762 24.0574 10.9271 24.0974C11.4779 24.1374 11.9568 23.7232 11.9968 23.1724L10.0021 23.0276ZM14.3695 18.39L14.5864 19.3662L14.588 19.3658L14.3695 18.39ZM20.4995 17.3L20.2604 16.329L20.2569 16.3299L20.4995 17.3ZM24.7595 12.93L25.7342 13.1532L25.7346 13.1516L24.7595 12.93ZM25.3495 7.64L26.3399 7.7782L26.3407 7.77182L25.3495 7.64ZM30.2595 5C30.8117 5 31.2595 4.55228 31.2595 4C31.2595 3.44772 30.8117 3 30.2595 3V5ZM51.3277 58.4248C51.7335 58.0502 51.7589 57.4176 51.3843 57.0117C51.0097 56.6059 50.377 56.5806 49.9712 56.9552L51.3277 58.4248ZM45.6495 59.8L45.5962 58.8014C45.5913 58.8017 45.5865 58.802 45.5816 58.8023L45.6495 59.8ZM16.5295 59.63L16.4685 60.6281L16.4691 60.6282L16.5295 59.63ZM11.0695 53.34L10.0696 53.3569L10.0696 53.3579L11.0695 53.34ZM18.6395 10.04L19.35 10.7437L19.3529 10.7407L18.6395 10.04ZM47.9995 4.51L47.9058 5.50561L47.91 5.50599L47.9995 4.51ZM52.4895 10.44L51.4938 10.5332L51.494 10.5355L52.4895 10.44ZM51.9695 31.4433C51.9713 31.9956 52.4205 32.4418 52.9728 32.44C53.525 32.4382 53.9713 31.989 53.9695 31.4367L51.9695 31.4433ZM52.9995 55.42L52.0686 55.7853C52.078 55.8093 52.0883 55.8329 52.0995 55.856L52.9995 55.42ZM57.6295 62.23L56.893 62.9065C56.8982 62.9121 56.9034 62.9177 56.9087 62.9232L57.6295 62.23ZM60.0695 62.93L60.3131 63.8999C60.345 63.8918 60.3765 63.8823 60.4074 63.8712L60.0695 62.93ZM62.8795 60.28L61.9647 59.8758L61.9597 59.8875L62.8795 60.28ZM62.4295 58.12L63.2235 57.5122C63.2137 57.4994 63.2036 57.4868 63.1932 57.4744L62.4295 58.12ZM56.4295 53.12L55.9136 53.9767C55.9198 53.9804 55.926 53.984 55.9322 53.9876L56.4295 53.12ZM40.0039 12.5306C40.4516 12.854 41.0767 12.7533 41.4001 12.3056C41.7235 11.8579 41.6227 11.2328 41.175 10.9094L40.0039 12.5306ZM38.3995 14.72L38.4494 13.7212L38.4425 13.7209L38.3995 14.72ZM36.8744 17.543C36.3624 17.3359 35.7795 17.5831 35.5724 18.0951C35.3653 18.607 35.6125 19.19 36.1245 19.397L36.8744 17.543ZM39.5095 9.1C39.5095 8.54772 39.0617 8.1 38.5095 8.1C37.9572 8.1 37.5095 8.54772 37.5095 9.1H39.5095ZM37.5095 10.86C37.5095 11.4123 37.9572 11.86 38.5095 11.86C39.0617 11.86 39.5095 11.4123 39.5095 10.86H37.5095ZM39.5095 19.05C39.5095 18.4977 39.0617 18.05 38.5095 18.05C37.9572 18.05 37.5095 18.4977 37.5095 19.05H39.5095ZM37.5095 20.84C37.5095 21.3923 37.9572 21.84 38.5095 21.84C39.0617 21.84 39.5095 21.3923 39.5095 20.84H37.5095ZM11.9968 23.1724C12.0789 22.0417 12.3494 21.1732 12.7685 20.5579C13.1712 19.9667 13.7476 19.5526 14.5864 19.3662L14.1525 17.4138C12.8313 17.7074 11.8128 18.4083 11.1155 19.4321C10.4345 20.4318 10.1 21.6783 10.0021 23.0276L11.9968 23.1724ZM14.588 19.3658C15.1724 19.2349 16.2251 19.0772 17.4145 18.889C18.5671 18.7066 19.8317 18.4977 20.742 18.2701L20.2569 16.3299C19.4472 16.5323 18.2718 16.7284 17.1019 16.9135C15.9688 17.0928 14.8165 17.2651 14.1509 17.4142L14.588 19.3658ZM20.7385 18.271C22.13 17.9285 23.2488 17.4277 24.097 16.5541C24.943 15.6826 25.4149 14.5477 25.7342 13.1532L23.7847 12.7068C23.504 13.9323 23.146 14.6624 22.662 15.1609C22.1801 15.6573 21.4689 16.0315 20.2604 16.329L20.7385 18.271ZM25.7346 13.1516C25.927 12.3048 26.0338 11.2399 26.1147 10.2748C26.1991 9.26853 26.2549 8.3869 26.3399 7.7782L24.359 7.5018C24.264 8.1831 24.1998 9.17648 24.1217 10.1077C24.0401 11.0801 23.9419 12.0152 23.7843 12.7084L25.7346 13.1516ZM26.3407 7.77182C26.516 6.45408 27.782 5 30.2595 5V3C26.9169 3 24.6829 5.06592 24.3582 7.50818L26.3407 7.77182ZM49.9712 56.9552C48.7725 58.0615 47.2251 58.7146 45.5962 58.8014L45.7027 60.7986C47.797 60.6869 49.7866 59.8473 51.3277 58.4248L49.9712 56.9552ZM45.5816 58.8023C40.637 59.1385 22.682 59.0001 16.5898 58.6318L16.4691 60.6282C22.6169 60.9999 40.662 61.1415 45.7173 60.7977L45.5816 58.8023ZM16.5904 58.6319C14.9972 58.5346 13.9478 58.1261 13.2688 57.4022C12.5837 56.6716 12.1071 55.4407 12.0693 53.3221L10.0696 53.3579C10.1118 55.7193 10.6452 57.5284 11.8101 58.7703C12.9811 60.0189 14.6217 60.5154 16.4685 60.6281L16.5904 58.6319ZM12.0693 53.3231C11.9695 47.4135 11.9395 27.7634 11.9395 24.18H9.93945C9.93945 27.7566 9.96942 47.4265 10.0696 53.3569L12.0693 53.3231ZM11.9395 24.18C11.9395 20.7106 12.7847 18.4062 14.082 16.4752C15.4248 14.4765 17.2351 12.8792 19.35 10.7437L17.9289 9.33633C15.9438 11.3408 13.9042 13.1535 12.4219 15.3598C10.8942 17.6338 9.93945 20.3294 9.93945 24.18H11.9395ZM19.3529 10.7407C22.6084 7.42565 25.4348 5 30.2695 5V3C24.5641 3 21.2305 5.97435 17.926 9.33933L19.3529 10.7407ZM30.2695 5C34.0108 5 43.3914 5.08084 47.9058 5.5056L48.0931 3.5144C43.4675 3.07916 33.9881 3 30.2695 3V5ZM47.91 5.50599C49.3696 5.63704 50.0634 6.0326 50.4998 6.6429C51.0004 7.34304 51.3042 8.50726 51.4938 10.5332L53.4851 10.3468C53.2947 8.31274 52.9685 6.65696 52.1266 5.4796C51.2205 4.2124 49.8593 3.67296 48.0889 3.51401L47.91 5.50599ZM51.494 10.5355C51.7686 13.399 51.9394 22.3259 51.9695 31.4433L53.9695 31.4367C53.9395 22.3541 53.7703 13.321 53.4849 10.3445L51.494 10.5355ZM53.9995 43.5C53.9995 49.299 49.2984 54 43.4995 54V56C50.403 56 55.9995 50.4036 55.9995 43.5H53.9995ZM43.4995 54C37.7005 54 32.9995 49.299 32.9995 43.5H30.9995C30.9995 50.4036 36.5959 56 43.4995 56V54ZM32.9995 43.5C32.9995 37.701 37.7005 33 43.4995 33V31C36.5959 31 30.9995 36.5964 30.9995 43.5H32.9995ZM43.4995 33C49.2984 33 53.9995 37.701 53.9995 43.5H55.9995C55.9995 36.5964 50.403 31 43.4995 31V33ZM51.2923 52.7071L53.2923 54.7071L54.7066 53.2929L52.7066 51.2929L51.2923 52.7071ZM52.0995 55.856C53.3453 58.4272 54.9602 60.8024 56.893 62.9065L58.3659 61.5535C56.5649 59.593 55.0602 57.3797 53.8994 54.984L52.0995 55.856ZM56.9087 62.9232C57.3398 63.3715 57.8817 63.6979 58.4795 63.8694L59.0311 61.9469C58.772 61.8726 58.5371 61.7311 58.3502 61.5368L56.9087 62.9232ZM58.4795 63.8694C59.0774 64.0409 59.7099 64.0514 60.3131 63.8999L59.8258 61.9601C59.5643 62.0258 59.2902 62.0213 59.0311 61.9469L58.4795 63.8694ZM60.4074 63.8712C61.1624 63.6 61.8534 63.176 62.437 62.6256L61.0648 61.1706C60.6814 61.5322 60.2275 61.8107 59.7315 61.9888L60.4074 63.8712ZM62.437 62.6256C63.0206 62.0752 63.4843 61.4103 63.7992 60.6725L61.9597 59.8875C61.7529 60.3722 61.4482 60.809 61.0648 61.1706L62.437 62.6256ZM63.7941 60.6842C64.0451 60.1161 64.151 59.5465 63.9998 58.9396C63.8633 58.3913 63.5392 57.9246 63.2235 57.5122L61.6354 58.7278C61.9397 59.1253 62.0307 59.3087 62.0591 59.4229C62.073 59.4785 62.0938 59.5839 61.9648 59.8758L63.7941 60.6842ZM63.1932 57.4744C61.4244 55.3821 59.3037 53.6148 56.9267 52.2524L55.9322 53.9876C58.1071 55.2342 60.0474 56.8511 61.6658 58.7656L63.1932 57.4744ZM56.9453 52.2633C56.3151 51.8839 55.5872 52.0372 55.146 52.1818C54.6382 52.3483 54.1213 52.6327 53.6758 52.9446C53.2312 53.256 52.8004 53.6351 52.4894 54.0283C52.3354 54.2232 52.1812 54.4584 52.0829 54.7214C51.9874 54.977 51.9054 55.3695 52.0686 55.7853L53.9303 55.0547C53.9728 55.1629 53.9787 55.2586 53.9746 55.3224C53.9707 55.3831 53.9577 55.4179 53.9564 55.4214C53.9561 55.4222 53.9779 55.3704 54.0582 55.2688C54.2161 55.0692 54.4877 54.8177 54.8231 54.5829C55.1577 54.3486 55.4982 54.1711 55.7691 54.0823C56.1067 53.9716 56.0788 54.0761 55.9136 53.9767L56.9453 52.2633ZM41.175 10.9094C40.0808 10.1189 38.9758 9.83982 37.9769 10.0606C36.9894 10.2789 36.2738 10.9509 35.899 11.7213C35.531 12.4776 35.4452 13.43 35.8565 14.2566C36.2954 15.1385 37.1929 15.6689 38.3564 15.7191L38.4425 13.7209C37.866 13.6961 37.7035 13.479 37.6471 13.3656C37.5631 13.1969 37.5467 12.9061 37.6974 12.5962C37.8414 12.3003 38.0939 12.083 38.4086 12.0135C38.7119 11.9464 39.2432 11.9811 40.0039 12.5306L41.175 10.9094ZM38.3495 15.7188C39.815 15.792 40.1242 16.7585 40.0015 17.2411C39.9385 17.4892 39.7539 17.7455 39.3327 17.8779C38.8835 18.0192 38.0901 18.0346 36.8744 17.543L36.1245 19.397C37.6038 19.9954 38.8954 20.112 39.9327 19.7858C40.9981 19.4508 41.7017 18.6708 41.9399 17.7339C42.4197 15.8465 40.9839 13.848 38.4494 13.7212L38.3495 15.7188ZM37.5095 9.1V10.86H39.5095V9.1H37.5095ZM37.5095 19.05V20.84H39.5095V19.05H37.5095Z" fill="#494A4A"/>
<path id="1px" d="M58.9993 57.91C59.5093 58.35 60.4793 59.04 60.4793 59.61M37.5393 39.07C36.1193 40.01 35.2093 42.69 35.7993 44.74M26.2293 27.53C26.9593 27.53 41.1593 27.33 42.4893 27.44M22.4893 33.49C23.7793 33.49 27.9993 33.56 28.7593 33.49M22.4893 39.5C25.1493 39.5 26.8593 39.43 27.6193 39.5M22.4893 45.52C23.9693 45.52 27.1593 45.52 27.6193 45.52" stroke="#494A4A" stroke-linecap="round" stroke-linejoin="round"/>
</g>
</g>
<defs>
<clipPath id="clip0_426_725">
<rect width="64" height="64" fill="white"/>
</clipPath>
</defs>
</svg>
