<svg width="64" height="64" viewBox="0 0 64 64" fill="none" xmlns="http://www.w3.org/2000/svg">
<g id="  Pictogram-silver-rank-2" clip-path="url(#clip0_622_42021)">
<g id="stroke-default">
<path id="2px" d="M15.6011 43.1001C15.5011 48.0001 13.7011 61.7001 15.9011 62.8001C18.9011 64.2001 30.0011 58.0001 32.1011 58.1001C35.2011 58.3001 45.8011 64.2001 48.2011 62.9001C50.6011 61.6001 48.7011 44.3001 48.7011 42.6001M32.0009 16.7001C33.4009 16.7001 35.5009 23.7001 36.6009 24.4001C37.7009 25.1001 44.3009 25.1001 44.5009 26.3001C44.7009 27.5001 39.7009 31.9001 39.1009 32.9001C38.5009 33.9001 40.9009 40.4001 39.8009 41.0001C38.7009 41.6001 33.4009 36.9001 32.1009 36.9001C30.8009 36.9001 25.5009 41.6001 24.4009 41.0001C23.3009 40.4001 25.2009 34.1001 25.0009 32.7001C24.8009 31.3001 19.1009 27.9001 19.6009 26.3001C20.1009 24.7001 27.0009 24.8001 27.7009 24.3001C28.4009 23.8001 30.8009 16.6001 32.2009 16.6001L32.0009 16.7001ZM31.9012 53.3C44.2012 49.9 57.8012 35.6 55.6012 15.6C50.3012 13.4 35.1012 6.5 31.9012 6.5C28.7012 6.5 15.0012 12.6 8.3012 15.3C7.5012 33.7 15.1012 48 31.9012 53.2V53.3Z" stroke="#494A4A" stroke-width="2" stroke-linecap="round" stroke-linejoin="round"/>
<path id="1px" d="M30.6016 24.4998C30.9016 23.7998 31.3016 22.8998 31.5016 22.2998M33.8013 48.8999C34.9013 48.5999 36.6013 47.6999 37.5013 46.8999M40.0015 45.3001C43.2015 42.9001 45.3015 40.9001 47.5015 36.6001" stroke="#494A4A" stroke-linecap="round" stroke-linejoin="round"/>
</g>
</g>
<defs>
<clipPath id="clip0_622_42021">
<rect width="64" height="64" fill="white"/>
</clipPath>
</defs>
</svg>
