<svg width="64" height="64" viewBox="0 0 64 64" fill="none" xmlns="http://www.w3.org/2000/svg">
<g id="Pictogram-calendar-3">
<g id="stroke-default">
<path id="2px" d="M46.4999 5.7002C47.0999 5.7002 47.2999 5.7002 47.8999 5.8002C54.1999 6.4002 57.8999 10.1002 58.4999 16.4002C59.3999 26.1002 59.3999 39.6002 58.4999 48.1002C57.9999 53.4002 54.1999 58.1002 47.8999 58.7002C42.0999 59.3002 33.8999 59.4002 29.5999 59.1002C22.9999 58.7002 21.2999 53.5002 19.9999 47.3002C18.9999 42.6002 16.4999 40.3002 10.9999 41.3002C7.79987 41.9002 5.49987 41.9002 5.19987 38.3002M5.19987 38.3002C4.79987 33.5002 5.19987 22.5002 5.59987 16.5002C5.99987 10.5002 9.29986 6.4002 16.0999 5.8002C16.3999 5.8002 16.3999 5.8002 16.6999 5.8002M5.19987 38.3002C5.19987 43.3002 8.2002 46.7998 11.9002 50.4998C16.5002 55.0998 24.3002 59.0998 29.3002 59.0998M20.3999 5.5002C27.0999 5.1002 35.2999 5.1002 42.5999 5.5002M19.7002 23.7002C27.0002 19.3002 34.1002 25.7002 25.6002 33.7002C22.9002 36.2002 21.1002 38.0002 20.4002 38.5002C19.0002 39.7002 19.3002 40.7002 21.1002 40.4002C23.7002 40.0002 25.9002 39.8002 30.4002 40.3002M45.7002 29.9002C43.9002 35.3002 34.8002 35.2002 34.9002 28.1002C35.0002 20.5002 46.4002 19.8002 45.6002 30.6002C45.2002 36.4002 41.7002 40.5002 36.0002 40.5002M42.7 9.4002C42.4 7.4002 42.7 3.9002 43.1 2.6002C43.6 0.900195 45.7 0.900195 46.2 2.6002C46.5 3.9002 46.3 7.7002 45.8 9.7002C45.4 11.4002 43 11.2002 42.7 9.5002V9.4002ZM20.4002 9.4002C20.7002 7.4002 20.4002 3.9002 20.0002 2.6002C19.5002 0.900195 17.4002 0.900195 16.9002 2.6002C16.6002 3.9002 16.8002 7.7002 17.3002 9.7002C17.7002 11.4002 20.1002 11.2002 20.4002 9.5002V9.4002Z" stroke="#494A4A" stroke-width="2" stroke-linecap="round" stroke-linejoin="round"/>
<path id="1px" d="M47.5 53C50.6 52.7 52.7 49.8 53.4 47.5" stroke="#494A4A" stroke-linecap="round" stroke-linejoin="round"/>
</g>
</g>
</svg>
