<svg width="64" height="64" viewBox="0 0 64 64" fill="none" xmlns="http://www.w3.org/2000/svg">
<g id="Pictogram-calendar-2">
<g id="stroke-default">
<path id="2px" d="M46.4701 5.70998L47.8401 5.81998C54.1601 6.37998 57.8401 10.07 58.4101 16.39C59.2808 26.9354 59.2808 37.5346 58.4101 48.08C58.2007 50.8138 57.0199 53.3823 55.0812 55.3211C53.1424 57.2598 50.5739 58.4406 47.8401 58.65C41.7693 59.1915 35.6696 59.3352 29.5801 59.08C23.0001 58.67 21.2801 53.52 20.0001 47.23C19.0001 42.52 16.4501 40.23 11.0001 41.23C7.82008 41.8 5.51008 41.81 5.19008 38.23C4.77008 33.47 5.19008 22.45 5.62008 16.39C6.00008 10.06 9.34008 6.39998 16.1501 5.81998L16.7701 5.76998M29.3301 59.07C24.3301 59.07 16.5401 55.07 11.8901 50.47C8.16008 46.8 5.15008 43.23 5.15008 38.23M42.6801 9.35998C42.4814 7.08548 42.6196 4.79412 43.0901 2.55998C43.1605 2.20602 43.3515 1.88744 43.6305 1.65851C43.9095 1.42957 44.2592 1.30444 44.6201 1.30444C44.981 1.30444 45.3307 1.42957 45.6097 1.65851C45.8887 1.88744 46.0796 2.20602 46.1501 2.55998C46.4227 4.92122 46.2942 7.31156 45.7701 9.62998C45.669 9.98241 45.4484 10.2887 45.1462 10.4964C44.8441 10.704 44.4791 10.8001 44.1138 10.7682C43.7486 10.7363 43.4058 10.5783 43.1442 10.3214C42.8826 10.0645 42.7185 9.7246 42.6801 9.35998ZM20.3601 9.35998C20.5566 7.0859 20.4218 4.79534 19.9601 2.55998C19.8896 2.20602 19.6987 1.88744 19.4197 1.65851C19.1407 1.42957 18.791 1.30444 18.4301 1.30444C18.0692 1.30444 17.7195 1.42957 17.4405 1.65851C17.1615 1.88744 16.9705 2.20602 16.9001 2.55998C16.6226 4.92107 16.7511 7.31223 17.2801 9.62998C17.3759 9.98618 17.5941 10.2973 17.8964 10.5086C18.1987 10.72 18.5658 10.8182 18.9333 10.786C19.3007 10.7538 19.6451 10.5932 19.906 10.3325C20.1669 10.0717 20.3277 9.72742 20.3601 9.35998Z" stroke="#494A4A" stroke-width="2" stroke-linecap="round" stroke-linejoin="round"/>
<path id="1px" d="M20.38 5.54003C27.7742 5.14559 35.1835 5.12223 42.58 5.47003M47.53 53C50.59 52.65 52.72 49.8 53.42 47.47M49.66 25.55C48.56 25.76 47.4301 25.76 46.33 25.55C45.9104 25.485 45.5224 25.2881 45.2222 24.9879C44.922 24.6876 44.7251 24.2996 44.66 23.88C44.46 22.7757 44.46 21.6444 44.66 20.54C44.7438 20.1285 44.9468 19.7507 45.2438 19.4538C45.5407 19.1568 45.9185 18.9538 46.33 18.87C47.4331 18.6951 48.5569 18.6951 49.66 18.87C50.0748 18.9441 50.4567 19.1441 50.7537 19.4429C51.0507 19.7417 51.2485 20.1248 51.32 20.54C51.545 21.642 51.545 22.7781 51.32 23.88C51.2322 24.2881 51.0292 24.6624 50.7349 24.9584C50.4406 25.2545 50.0676 25.4598 49.66 25.55ZM38.65 25.54C37.5543 25.7601 36.4258 25.7601 35.33 25.54C34.9123 25.473 34.5265 25.2753 34.2282 24.9752C33.9299 24.6751 33.7345 24.2882 33.67 23.87C33.4699 22.769 33.4699 21.641 33.67 20.54C33.7537 20.1311 33.9556 19.7558 34.2507 19.4607C34.5458 19.1656 34.9211 18.9637 35.33 18.88C36.4298 18.705 37.5503 18.705 38.65 18.88C39.0682 18.9445 39.4551 19.1399 39.7552 19.4382C40.0553 19.7365 40.253 20.1223 40.32 20.54C40.5349 21.6396 40.5349 22.7704 40.32 23.87C40.2304 24.2789 40.0254 24.6535 39.7294 24.9494C39.4335 25.2454 39.0589 25.4504 38.65 25.54ZM27.66 25.55C26.56 25.76 25.4301 25.76 24.33 25.55C23.9104 25.485 23.5224 25.2881 23.2222 24.9879C22.922 24.6876 22.7251 24.2996 22.66 23.88C22.46 22.7757 22.46 21.6444 22.66 20.54C22.7438 20.1285 22.9468 19.7507 23.2438 19.4538C23.5407 19.1568 23.9185 18.9538 24.33 18.87C25.4331 18.6951 26.5569 18.6951 27.66 18.87C28.0748 18.9441 28.4567 19.1441 28.7537 19.4429C29.0507 19.7417 29.2485 20.1248 29.32 20.54C29.545 21.642 29.545 22.7781 29.32 23.88C29.2322 24.2881 29.0291 24.6624 28.7349 24.9584C28.4406 25.2545 28.0676 25.4598 27.66 25.55ZM49.67 36.57C48.5608 36.7902 47.4192 36.7902 46.31 36.57C45.889 36.5044 45.4999 36.3061 45.1995 36.0039C44.8991 35.7017 44.7031 35.3114 44.64 34.89C44.44 33.779 44.44 32.6411 44.64 31.53C44.7233 31.1172 44.9259 30.738 45.2228 30.4393C45.5197 30.1406 45.8977 29.9357 46.31 29.85C47.4228 29.67 48.5573 29.67 49.67 29.85C50.0887 29.9237 50.4745 30.1244 50.775 30.425C51.0756 30.7256 51.2764 31.1114 51.35 31.53C51.5651 32.6397 51.5651 33.7803 51.35 34.89C51.2602 35.3015 51.0541 35.6785 50.7563 35.9763C50.4585 36.2741 50.0815 36.4802 49.67 36.57ZM38.66 36.56C37.5566 36.7701 36.4234 36.7701 35.32 36.56C34.899 36.4944 34.5099 36.2961 34.2095 35.9939C33.9091 35.6917 33.7131 35.3014 33.65 34.88C33.45 33.7757 33.45 32.6444 33.65 31.54C33.7333 31.1272 33.9359 30.748 34.2328 30.4493C34.5297 30.1506 34.9077 29.9457 35.32 29.86C36.4265 29.685 37.5536 29.685 38.66 29.86C39.078 29.9328 39.4631 30.1335 39.7622 30.4344C40.0614 30.7353 40.2597 31.1216 40.33 31.54C40.555 32.642 40.555 33.7781 40.33 34.88C40.2421 35.2907 40.0379 35.6674 39.7418 35.9653C39.4457 36.2632 39.0702 36.4696 38.66 36.56ZM27.66 36.56C26.3547 36.7648 25.0254 36.7648 23.72 36.56C22.93 36.39 22.72 36 22.58 35.24C22.4037 34.001 22.4273 32.7416 22.65 31.51C22.7333 31.0972 22.9359 30.718 23.2328 30.4193C23.5297 30.1206 23.9077 29.9157 24.32 29.83C25.4265 29.655 26.5536 29.655 27.66 29.83C28.078 29.9028 28.4631 30.1035 28.7622 30.4044C29.0614 30.7053 29.2597 31.0916 29.33 31.51C29.555 32.612 29.555 33.7481 29.33 34.85C29.2472 35.2662 29.0453 35.6494 28.7489 35.9529C28.4524 36.2565 28.0741 36.4674 27.66 36.56ZM16.66 36.56C15.5566 36.7701 14.4234 36.7701 13.32 36.56C12.899 36.4944 12.5099 36.2961 12.2095 35.9939C11.9091 35.6917 11.7131 35.3014 11.65 34.88C11.45 33.7757 11.45 32.6444 11.65 31.54C11.7333 31.1272 11.9359 30.748 12.2328 30.4493C12.5297 30.1506 12.9077 29.9457 13.32 29.86C14.5606 29.6852 15.8195 29.6852 17.06 29.86C17.99 30.02 18.13 30.67 18.33 31.51C18.555 32.612 18.555 33.7481 18.33 34.85C18.2472 35.2662 18.0453 35.6494 17.7489 35.9529C17.4524 36.2565 17.0741 36.4674 16.66 36.56ZM38.67 47.57C37.5608 47.7902 36.4192 47.7902 35.31 47.57C34.8872 47.5064 34.4959 47.3089 34.1935 47.0065C33.8912 46.7042 33.6937 46.3129 33.63 45.89C33.4349 44.7181 33.4349 43.522 33.63 42.35C33.84 41.41 34.16 41.04 35.1 40.87C36.2862 40.7348 37.4839 40.7348 38.67 40.87C39.0929 40.9337 39.4842 41.1312 39.7865 41.4335C40.0889 41.7359 40.2864 42.1272 40.35 42.55C40.5702 43.6592 40.5702 44.8008 40.35 45.91C40.2568 46.3178 40.0492 46.6906 39.7517 46.9846C39.4541 47.2786 39.0789 47.4817 38.67 47.57ZM27.65 47.53C26.5533 47.7399 25.4267 47.7399 24.33 47.53C23.9155 47.4617 23.533 47.2646 23.2368 46.9666C22.9407 46.6686 22.7458 46.285 22.68 45.87C22.48 44.7724 22.48 43.6477 22.68 42.55C22.7629 42.1425 22.9634 41.7681 23.2566 41.4731C23.5498 41.1781 23.923 40.9754 24.33 40.89C25.4298 40.715 26.5503 40.715 27.65 40.89C28.0645 40.9584 28.447 41.1555 28.7432 41.4535C29.0394 41.7514 29.2342 42.1351 29.3 42.55C29.525 43.6453 29.525 44.7748 29.3 45.87C29.2124 46.2755 29.0104 46.6473 28.718 46.9416C28.4256 47.2358 28.0549 47.44 27.65 47.53Z" stroke="#494A4A" stroke-linecap="round" stroke-linejoin="round"/>
</g>
</g>
</svg>
