<svg width="64" height="64" viewBox="0 0 64 64" fill="none" xmlns="http://www.w3.org/2000/svg">
<g id="Pictogram-switch-settings">
<g id="stroke-default">
<path id="2px" d="M46.7002 7.60001C54.3002 10.1 57.5002 17.9 56.3002 28.6M47.8002 10.7C47.8002 10.7 44.8002 8.20001 45.2002 7.20001C45.6002 6.20001 49.3002 6.50001 49.3002 6.50001M58.8002 25.7C58.8002 25.7 57.2002 29.3 56.1002 29.2C55.0002 29.1 54.3002 25.5 54.3002 25.5M2.40015 23.1C3.40015 23.9 7.40015 25.5 7.40015 25.5L8.80015 29.8C8.80015 29.8 6.20015 33.4 6.50015 35.1C6.80015 36.8 11.1002 40.1 12.6002 40.1C14.1002 40.1 17.6002 37.5 17.6002 37.5L22.0002 38.4C22.0002 38.4 23.7002 41.8 25.6002 42.8C27.5002 43.8 32.4002 41.8 33.4002 40.2C33.4002 38.4 32.9002 35.4 32.9002 35.4L36.5002 31.3C36.5002 31.3 40.1002 31.1 41.9002 31.1C44.5002 29.2 44.6002 23.9 43.8002 22.3C43.0002 20.7 38.4002 19.8 38.4002 19.8L37.0002 15.5C37.0002 15.5 39.6002 12.5 40.0002 10.9C40.4002 9.30001 35.3002 4.70001 34.0002 4.90001C32.7002 5.10001 28.2002 7.70001 28.2002 7.70001L23.8002 6.80001C23.8002 6.80001 22.0002 3.80001 20.8002 2.10001C19.7002 1.70001 13.4002 3.30001 12.2002 5.00001C12.1002 7.90001 12.7002 10.7 12.7002 10.7C12.7002 10.7 11.0002 12.2 9.70015 14.1C9.20015 14.8 4.80015 13.5 3.70015 14.5C2.60015 15.5 1.50015 22.4 2.50015 23.2L2.40015 23.1ZM50.9002 35.1C50.2002 35.6 48.6002 38.1 48.6002 38.1L45.6002 38.3C45.6002 38.3 43.7002 36.1 42.5002 36C41.3002 35.9 38.5001 38.1 38.2001 39.1C37.9001 40.1 39.0002 42.7 39.0002 42.7L37.7001 45.4C37.7001 45.4 34.9002 45.6 33.9002 46.7C32.9002 47.8 33.6002 51.9 34.5002 52.8C35.4002 53.7 38.3002 53.3 38.3002 53.3L40.0002 55.8C40.0002 55.8 38.6002 58.3 39.0002 59.4C39.8002 61.4 43.5002 62.3 44.8002 62C46.1002 61.7 47.2001 59.3 47.2001 59.3L50.2001 59.1C50.2001 59.1 52.4002 61 53.4002 61.5C54.4002 62 58.4001 58.5 58.5001 57.6C58.6001 56.7 56.7002 54.6 56.7002 54.6L58.0002 51.9C58.0002 51.9 61.1002 51.4 61.6002 50.7C62.1002 50 62.3002 46.1 61.5002 45.1C60.7002 44.1 57.5002 44 57.5002 44C57.5002 44 56.8002 42.6 55.8002 41.4C55.4002 41 57.2002 38.7 56.7002 37.8C56.2002 36.9 51.6002 34.5 50.9002 35V35.1Z" stroke="#494A4A" stroke-width="2" stroke-linecap="round" stroke-linejoin="round"/>
<path id="1px" d="M55.8003 50.5001C55.6003 51.0001 54.5003 53.2001 54.0003 53.8001M14.9003 13.1001C14.1003 14.0001 13.1003 15.1001 12.8003 15.8001M21.4003 34.7001C22.4003 34.9001 23.3003 35.1001 23.8003 35.4001C24.3003 35.8001 24.6003 36.3001 24.8003 37.0001M29.4003 22.4001C29.4003 25.6033 26.7588 28.2001 23.5003 28.2001C20.2418 28.2001 17.6003 25.6033 17.6003 22.4001C17.6003 19.1968 20.2418 16.6001 23.5003 16.6001C26.7588 16.6001 29.4003 19.1968 29.4003 22.4001ZM50.4839 47.2002C51.3955 48.7784 50.8938 50.7743 49.3634 51.6583C47.833 52.5422 45.8535 51.9794 44.9419 50.4012C44.0304 48.823 44.532 46.827 46.0624 45.9431C47.5928 45.0592 49.5724 45.622 50.4839 47.2002Z" stroke="#494A4A" stroke-linecap="round" stroke-linejoin="round"/>
</g>
</g>
</svg>
