<svg width="64" height="64" viewBox="0 0 64 64" fill="none" xmlns="http://www.w3.org/2000/svg">
<g id="Pictogram-log">
<g id="stroke-default">
<path id="2px" d="M10 22.1C10.2 19.6 11.2 17.9 13.4 17.4C14.6 17.1 17.8 16.7 19.5 16.3C22.1 15.7 23.2 14.5 23.8 11.9C24.2 10.4 24.2 7.9 24.4 6.6C24.7 4.7 26.4 3 29.3 3M54.0001 36.8C54.0001 24.9 54.0001 13.2 53.6001 9.4C53.2001 5.3 52.3001 3.8 49.1001 3.5C44.5001 3.1 33.1001 3 29.4001 3C24.1001 3 21.0001 5.7 17.8001 9C13.7001 13.2 10.1001 15.8 10.1001 23.1C10.1001 26.7 10.2001 49.6 10.3001 55.5C10.3001 58.8 12.5001 60.3 14.9001 60.4C20.3001 60.8 41.9001 61 48.6001 60.7C51.5001 60.6 53.2001 60 53.7001 56M57.1002 42.6001C57.1002 42.6001 52.7002 41.1001 52.7002 46.0001C52.7002 48.4001 53.0002 51.7001 55.0002 51.7001C57.0002 51.7001 58.0002 51.1001 58.0002 49.1001C58.0002 46.8001 55.8002 47.4001 55.8002 47.4001M36.5002 42C35.7002 44 35.4002 49.4 35.9002 50.3C36.4002 51.2 38.2002 51 39.7002 50.6M31.1001 42.1997C31.1001 42.1997 31.0001 50.0997 31.1001 52.1997C31.2001 54.2997 32.4001 55.6997 37.0001 55.7997C41.6001 55.8997 57.2001 55.7997 58.2001 55.7997C59.5001 55.7997 61.9001 54.5997 61.9001 50.3997C61.9001 45.3997 62.0001 43.9997 61.9001 41.7997C61.8001 38.5997 60.4001 36.9997 55.5001 36.8997C50.9001 36.7997 37.0001 36.5997 35.2001 36.8997C33.4001 37.1997 31.1001 38.4997 31.1001 42.0997V42.1997ZM46.1999 42.2002C48.0999 42.2002 48.9999 44.7002 48.8999 46.6002C48.8999 48.3002 48.4999 51.0002 46.1999 51.0002C43.9999 51.0002 43.3999 48.5002 43.3999 46.6002C43.3999 44.7002 44.1999 42.2002 46.1999 42.2002Z" stroke="#494A4A" stroke-width="2" stroke-linecap="round" stroke-linejoin="round"/>
<path id="1px" d="M13.4998 53.5C13.4998 56.4 13.2998 57.5 19.3998 57.5M25.2998 26.5004C26.3998 25.1004 27.6998 23.6004 28.4998 22.4004M31.5 22.2998C32.8 23.5998 34.3 24.6998 35.4 25.6998M38.6001 25.8C40.0001 24.4 41.1001 23 42.7001 21.5M26 27.9004C26 29.005 25.1046 29.9004 24 29.9004C22.8954 29.9004 22 29.005 22 27.9004C22 26.7958 22.8954 25.9004 24 25.9004C25.1046 25.9004 26 26.7958 26 27.9004ZM39 27C39 28.1046 38.1046 29 37 29C35.8954 29 35 28.1046 35 27C35 25.8954 35.8954 25 37 25C38.1046 25 39 25.8954 39 27ZM32 21C32 22.1046 31.1046 23 30 23C28.8954 23 28 22.1046 28 21C28 19.8954 28.8954 19 30 19C31.1046 19 32 19.8954 32 21ZM46 20C46 21.1046 45.1046 22 44 22C42.8954 22 42 21.1046 42 20C42 18.8954 42.8954 18 44 18C45.1046 18 46 18.8954 46 20Z" stroke="#494A4A" stroke-linecap="round" stroke-linejoin="round"/>
</g>
</g>
</svg>
