<svg width="64" height="64" viewBox="0 0 64 64" fill="none" xmlns="http://www.w3.org/2000/svg">
<g id="Pictogram-personal-time" clip-path="url(#clip0_624_20961)">
<g id="stroke-default">
<path id="2px" d="M39.5384 63.8288C40.09 63.8021 40.5155 63.3333 40.4888 62.7816C40.4621 62.23 39.9933 61.8045 39.4416 61.8312L39.5384 63.8288ZM8.76 45L9.34228 45.813L9.34378 45.8119L8.76 45ZM26.76 32.29C26.76 31.7377 26.3123 31.29 25.76 31.29C25.2077 31.29 24.76 31.7377 24.76 32.29H26.76ZM39.2298 31.8816C39.2417 31.3295 38.8038 30.8722 38.2516 30.8602C37.6994 30.8483 37.2422 31.2862 37.2302 31.8384L39.2298 31.8816ZM37.7587 34.0426C38.0197 34.5293 38.6259 34.7123 39.1126 34.4513C39.5993 34.1903 39.7823 33.5841 39.5213 33.0974L37.7587 34.0426ZM47.42 36.69L46.7352 35.9612L46.7308 35.9654L47.42 36.69ZM45.5 39.03L46.2725 38.3949L46.2657 38.3868L45.5 39.03ZM48.72 36.73L49.5699 36.2031C49.5347 36.1464 49.494 36.0933 49.4483 36.0447L48.72 36.73ZM57.45 54.17L56.4756 54.3949C56.4873 54.4453 56.5028 54.4948 56.5221 54.5429L57.45 54.17ZM56.73 55.36L56.6297 54.365C56.5804 54.37 56.5316 54.3786 56.4836 54.3908L56.73 55.36ZM39.4416 61.8312C31.742 62.204 23.1789 61.9692 16.5615 61.1341C13.2441 60.7155 10.4696 60.1524 8.54856 59.463C7.58296 59.1165 6.89708 58.7602 6.47067 58.4197C6.04289 58.078 6 57.8586 6 57.77H4C4 58.7114 4.55086 59.446 5.22265 59.9825C5.89581 60.5201 6.81532 60.9659 7.873 61.3454C9.99849 62.1082 12.9421 62.6933 16.3111 63.1184C23.0661 63.9708 31.748 64.206 39.5384 63.8288L39.4416 61.8312ZM6 57.77C6 55.7233 6.37054 53.0161 7.01303 50.6328C7.33371 49.4433 7.71456 48.3631 8.13482 47.501C8.56748 46.6135 8.99061 46.0649 9.34228 45.813L8.17772 44.187C7.41939 44.7301 6.81752 45.639 6.33706 46.6246C5.84419 47.6356 5.42379 48.8442 5.08197 50.1122C4.39946 52.6439 4 55.5267 4 57.77H6ZM9.34378 45.8119C10.6396 44.8802 12.2887 44.2447 14.1357 43.6594C15.9267 43.0918 17.9678 42.5558 19.7751 41.8442C21.6074 41.1229 23.3707 40.1628 24.671 38.6352C25.9929 37.0823 26.76 35.0341 26.76 32.29H24.76C24.76 34.6309 24.1184 36.1989 23.1481 37.3388C22.1562 38.5041 20.7439 39.3134 19.0424 39.9833C17.3159 40.663 15.4652 41.1401 13.5315 41.7528C11.6538 42.3478 9.74545 43.0598 8.17622 44.1881L9.34378 45.8119ZM37.2302 31.8384C37.2136 32.6064 37.3957 33.3656 37.7587 34.0426L39.5213 33.0974C39.321 32.724 39.2206 32.3052 39.2298 31.8816L37.2302 31.8384ZM32 35.5C38.5496 35.5 45 28.1825 45 15.32H43C43 27.7575 36.8704 33.5 32 33.5V35.5ZM45 15.32C45 10.3476 43.8249 6.4976 41.5396 3.87984C39.2356 1.24075 35.9315 0 32 0V2C35.4985 2 38.1944 3.08925 40.0329 5.19516C41.8901 7.3224 43 10.6324 43 15.32H45ZM32 0C28.0685 0 24.7644 1.24075 22.4604 3.87984C20.1751 6.4976 19 10.3476 19 15.32H21C21 10.6324 22.1099 7.3224 23.9671 5.19516C25.8056 3.08925 28.5015 2 32 2V0ZM19 15.32C19 28.2137 25.4513 35.5 32 35.5V33.5C27.1287 33.5 21 27.7863 21 15.32H19ZM61 48C61 55.1797 55.1797 61 48 61V63C56.2843 63 63 56.2843 63 48H61ZM48 61C40.8203 61 35 55.1797 35 48H33C33 56.2843 39.7157 63 48 63V61ZM35 48C35 40.8203 40.8203 35 48 35V33C39.7157 33 33 39.7157 33 48H35ZM48 35C55.1797 35 61 40.8203 61 48H63C63 39.7157 56.2843 33 48 33V35ZM48.49 48C48.49 48.2706 48.2706 48.49 48 48.49V50.49C49.3752 50.49 50.49 49.3752 50.49 48H48.49ZM48 48.49C47.7294 48.49 47.51 48.2706 47.51 48H45.51C45.51 49.3752 46.6248 50.49 48 50.49V48.49ZM47.51 48C47.51 47.7294 47.7294 47.51 48 47.51V45.51C46.6248 45.51 45.51 46.6248 45.51 48H47.51ZM48 47.51C48.2706 47.51 48.49 47.7294 48.49 48H50.49C50.49 46.6248 49.3752 45.51 48 45.51V47.51ZM46.7308 35.9654C46.6536 36.0388 46.4977 36.1676 46.2377 36.3901C46.0016 36.5922 45.7135 36.844 45.4472 37.1061C45.1929 37.3564 44.9045 37.668 44.7092 37.9912C44.6128 38.1508 44.4977 38.3796 44.4564 38.652C44.4107 38.9534 44.4553 39.341 44.7343 39.6732L46.2657 38.3868C46.4397 38.5939 46.4527 38.8269 46.4338 38.9518C46.4193 39.0476 46.3892 39.0781 46.4211 39.0254C46.4824 38.9239 46.6233 38.7548 46.8503 38.5314C47.0652 38.3198 47.3103 38.1047 47.5382 37.9096C47.7423 37.7349 47.9814 37.5362 48.1092 37.4146L46.7308 35.9654ZM44.7276 39.6651C45.0727 40.0849 45.6037 40.368 46.0607 40.5585C46.5516 40.7631 47.1107 40.9225 47.6486 41.0295C48.1841 41.1361 48.7383 41.1987 49.2206 41.19C49.4603 41.1857 49.7132 41.1634 49.9505 41.1055C50.1653 41.0531 50.491 40.9427 50.7501 40.6739L49.3099 39.2861C49.4365 39.1548 49.5444 39.1459 49.4765 39.1625C49.4312 39.1736 49.3367 39.1876 49.1847 39.1903C48.8836 39.1957 48.4772 39.1552 48.0389 39.068C47.6031 38.9813 47.1752 38.8563 46.8302 38.7124C46.6582 38.6408 46.5206 38.5701 46.4185 38.5058C46.3682 38.4741 46.3315 38.447 46.3059 38.4257C46.28 38.4042 46.2711 38.3932 46.2724 38.3949L44.7276 39.6651ZM50.7501 40.6739C51.027 40.3865 51.1166 40.0417 51.136 39.7755C51.1549 39.5153 51.1131 39.2673 51.0619 39.0651C50.9596 38.6607 50.766 38.2371 50.5768 37.8741C50.199 37.1491 49.6915 36.3992 49.5699 36.2031L47.8701 37.2569C48.0585 37.5608 48.471 38.1609 48.8032 38.7984C48.969 39.1166 49.0779 39.3775 49.1231 39.5558C49.1456 39.6451 49.1388 39.6631 49.1412 39.6304C49.144 39.5917 49.1655 39.436 49.3099 39.2861L50.7501 40.6739ZM49.4483 36.0447C49.0995 35.674 48.6178 35.457 48.109 35.4414L48.0475 37.4404C48.0263 37.4398 48.0063 37.4307 47.9917 37.4153L49.4483 36.0447ZM48.109 35.4414C47.6003 35.4257 47.1062 35.6127 46.7352 35.9612L48.1048 37.4188C48.0893 37.4333 48.0687 37.4411 48.0475 37.4404L48.109 35.4414ZM58.4244 53.9451C58.3565 53.6508 58.2047 52.9172 57.9212 52.2518C57.7787 51.9173 57.5791 51.54 57.2944 51.224C57.0034 50.9009 56.5746 50.5913 55.9976 50.5348L55.8024 52.5252C55.7354 52.5187 55.7366 52.4829 55.8084 52.5625C55.8866 52.6493 55.9825 52.8039 56.0813 53.0357C56.2803 53.5028 56.3935 54.0392 56.4756 54.3949L58.4244 53.9451ZM55.9976 50.5348C55.6054 50.4963 55.266 50.6181 55.0179 50.7535C54.7676 50.8902 54.5488 51.0736 54.3652 51.2566C53.998 51.6225 53.6654 52.0944 53.396 52.5488C53.1236 53.0084 52.8884 53.4969 52.7304 53.9238C52.6521 54.1355 52.5842 54.355 52.5441 54.562C52.5144 54.7152 52.4565 55.0568 52.5787 55.3975L54.4613 54.7225C54.536 54.9307 54.4849 55.0595 54.5077 54.9421C54.52 54.8786 54.5499 54.7697 54.6061 54.6178C54.7172 54.3175 54.8977 53.9378 55.1165 53.5687C55.3384 53.1943 55.5726 52.8769 55.777 52.6731C55.8792 52.5713 55.9473 52.5248 55.9763 52.5089C56.0075 52.4919 55.9396 52.5387 55.8024 52.5252L55.9976 50.5348ZM52.5787 55.3975C52.7187 55.788 53.0154 56.0001 53.1981 56.1028C53.3941 56.2131 53.6037 56.2794 53.7806 56.3228C54.1388 56.4107 54.5552 56.4494 54.936 56.4642C55.6753 56.4931 56.5429 56.4394 56.9764 56.3292L56.4836 54.3908C56.3271 54.4306 55.6847 54.4919 55.014 54.4658C54.6898 54.4531 54.4262 54.4219 54.257 54.3803C54.17 54.359 54.154 54.3459 54.1785 54.3596C54.1896 54.3658 54.3688 54.4645 54.4613 54.7225L52.5787 55.3975ZM56.8303 56.355C57.1188 56.3259 57.3966 56.2301 57.6417 56.0752L56.5733 54.3845C56.5903 54.3737 56.6096 54.3671 56.6297 54.365L56.8303 56.355ZM57.6417 56.0752C57.8868 55.9203 58.0926 55.7105 58.2427 55.4624L56.5315 54.4271C56.542 54.4098 56.5563 54.3953 56.5733 54.3845L57.6417 56.0752ZM58.2427 55.4624C58.3928 55.2143 58.4831 54.9347 58.5066 54.6457L56.5132 54.4839C56.5148 54.4638 56.5211 54.4443 56.5315 54.4271L58.2427 55.4624ZM58.5066 54.6457C58.5301 54.3567 58.486 54.0662 58.3779 53.7971L56.5221 54.5429C56.5146 54.5241 56.5115 54.504 56.5132 54.4839L58.5066 54.6457Z" fill="#494A4A"/>
<path id="1px" d="M12.73 46.09C10 47 9.94 47.34 9 50.87M47.82 39.83C47.6467 42.0569 47.707 44.2957 48 46.51M48.86 49.22C49.86 49.94 52.19 51.67 54.27 53.1M48.44 57.48C48.44 58.48 48.26 59.08 48.3 59.48M59.48 47.57C58.9809 47.5283 58.4791 47.5283 57.98 47.57M38 47.58C37.49 47.58 36.88 47.49 36.46 47.58" stroke="#494A4A" stroke-linecap="round" stroke-linejoin="round"/>
</g>
</g>
<defs>
<clipPath id="clip0_624_20961">
<rect width="64" height="64" fill="white"/>
</clipPath>
</defs>
</svg>
