<svg width="64" height="64" viewBox="0 0 64 64" fill="none" xmlns="http://www.w3.org/2000/svg">
<g id="Pictogram-invoice-confirmation" clip-path="url(#clip0_426_1645)">
<g id="stroke-default">
<path id="2px" d="M11 22.09C11.17 19.61 12.2 17.86 14.36 17.38C15.61 17.1 18.77 16.72 20.49 16.3C23.1 15.66 24.15 14.54 24.75 11.93C25.1 10.38 25.16 7.92999 25.34 6.62999C25.6 4.74999 27.34 2.98999 30.25 2.98999M53 33.76C53.06 28.67 53.12 15.46 52.55 9.43999C52.17 5.36999 51.3 3.79999 48.06 3.49999C43.49 3.07999 34 2.99999 30.34 2.99999C25 2.99999 22 5.68999 18.69 8.99999C14.59 13.2 11 15.85 11 23.17C11 26.76 11.12 47.69 11.23 53.61C11.1907 54.2458 11.2808 54.883 11.4948 55.4829C11.7088 56.0829 12.0423 56.6333 12.4751 57.1007C12.908 57.5681 13.4311 57.9428 14.0129 58.2022C14.5947 58.4617 15.2231 58.6004 15.86 58.61C21.25 59 30.71 59 36 59M39.66 12.76C36.31 10.04 34.54 15.64 37.66 15.82C41.23 16.03 40.82 21.82 35.95 19.62M37.98 10.1V11.89M37.98 20.18V22M35.05 51.53C34.23 50.53 40.25 46.47 40.86 47.05C42.3085 48.6211 43.6452 50.2919 44.86 52.05C45.8 53.27 46.86 53.35 47.41 52.05C49.7725 46.2846 52.9152 40.8707 56.75 35.96C58.06 34.43 63.75 38.78 62.89 39.87C58.23 45.76 54.19 53.58 50.89 61.2C50.722 61.7506 50.3726 62.2281 49.8987 62.5549C49.4249 62.8817 48.8543 63.0386 48.28 63C47.0297 63.0738 45.7754 63.0437 44.53 62.91C44.0603 62.8553 43.6092 62.6945 43.2107 62.4399C42.8123 62.1852 42.4769 61.8433 42.23 61.44C40.0451 57.9905 37.6471 54.6808 35.05 51.53Z" stroke="#494A4A" stroke-width="2" stroke-linecap="round" stroke-linejoin="round"/>
<path id="1px" d="M14.5195 51.5301C14.5195 54.4801 14.2995 55.5301 20.4595 55.5301M24.9995 28.5101C26.4195 28.4001 42.2495 28.5101 42.9995 28.5101M21.4295 34.5201C22.9495 34.4001 42.1995 34.5201 42.9995 34.5201M21.4295 40.4801C22.9495 40.3601 32.5495 40.4801 33.3495 40.4801" stroke="#494A4A" stroke-linecap="round" stroke-linejoin="round"/>
</g>
</g>
<defs>
<clipPath id="clip0_426_1645">
<rect width="64" height="64" fill="white"/>
</clipPath>
</defs>
</svg>
