<svg width="64" height="64" viewBox="0 0 64 64" fill="none" xmlns="http://www.w3.org/2000/svg">
<g id="Pictogram-garage" clip-path="url(#clip0_622_41964)">
<g id="stroke-default">
<path id="2px" d="M3.99999 56.6004C1.89999 56.4004 1.39999 55.1004 1.29999 52.1004C1.09999 48.7004 0.799995 29.7004 1.29999 22.9004C1.49999 19.1004 10.2 2.90039 32.1 2.90039C54 2.90039 62.7 19.8004 62.8 22.7004C63.3 31.0004 63.1 45.2004 62.6 54.9004C62.6 56.0004 61.9 56.7004 60.6 56.9004C60.1 56.9004 58.7 56.9004 57.7 56.9004C56.2 56.7004 56 55.7004 56 54.5004C56 53.4004 56.2 40.5004 55.7 36.6004C55.5 34.7004 55.5 34.6004 53.8 34.5004C49.6 34.2004 18.1 33.8004 10.6 34.5004C8.49999 34.7004 8.3 35.1004 8.2 36.6004C8 39.8004 8 45.1004 8 46.1004M18.2998 60.8001C16.0998 61.1001 8.89984 61.1001 6.49985 60.8001C5.49985 60.6001 5.19984 60.0001 5.09984 58.9001C4.89984 55.9001 4.99984 50.2001 5.09984 47.9001C5.09984 46.9001 5.59985 46.3001 6.69985 46.2001C9.79985 45.9001 15.9998 46.0001 18.0998 46.2001C19.2998 46.3001 19.5998 46.8001 19.7998 48.1001C20.0998 51.1001 20.0998 57.1001 19.9998 59.0001C19.9998 60.3001 19.4998 60.7001 18.2998 60.9001V60.8001Z" stroke="#494A4A" stroke-width="2" stroke-linecap="round" stroke-linejoin="round"/>
<path id="1px" d="M8 39.4004C25.2667 39.5337 36.2667 39.5337 41 39.4004C48 39.2004 56 39.4004 56 39.4004M55.9998 54.5004C54.8998 54.5004 49.4998 54.6004 48.7998 53.9004C48.2998 53.4004 48.2998 44.3004 48.7998 43.8004C49.1998 43.4004 55.4998 43.5004 55.8998 43.5004M39.5 43.7002V46.5002H44.5V43.8002M51.5 43.7002V46.5002H55.9M9.5 46.2996V49.4996H15.5V46.0996M16 9.00019C18 8.20019 19.7 7.6002 22 7.2002M36.9998 44.1002C36.1998 44.9002 36.3998 53.6002 36.9998 54.1002C37.7998 54.7002 46.5998 54.7002 47.1998 54.1002C47.6998 53.6002 47.6998 44.8002 47.1998 44.1002C46.4998 43.2002 37.5998 43.5002 36.9998 44.1002ZM8.90016 22.7001C8.30016 23.0001 8.50016 27.2001 8.90016 27.4001C9.50016 27.6001 16.9002 27.6001 17.3002 27.4001C17.6002 27.2001 17.7002 23.0001 17.3002 22.7001C16.8002 22.4001 9.30016 22.5001 8.90016 22.7001ZM21.9002 22.7001C21.3002 23.0001 21.5002 27.2001 21.9002 27.4001C22.5002 27.6001 29.8002 27.6001 30.3002 27.4001C30.6002 27.2001 30.7002 23.0001 30.3002 22.7001C29.8002 22.4001 22.3002 22.5001 21.9002 22.7001ZM34.9002 22.7001C34.3002 23.0001 34.5002 27.2001 34.9002 27.4001C35.4002 27.6001 42.8002 27.6001 43.3002 27.4001C43.6002 27.2001 43.6002 23.0001 43.3002 22.7001C42.8002 22.4001 35.3002 22.5001 34.9002 22.7001ZM47.9002 22.7001C47.3002 23.0001 47.5002 27.2001 47.9002 27.4001C48.4002 27.6001 55.8002 27.6001 56.3002 27.4001C56.6002 27.2001 56.6002 23.0001 56.3002 22.7001C55.8002 22.4001 48.3002 22.5001 47.9002 22.7001Z" stroke="#494A4A" stroke-linecap="round" stroke-linejoin="round"/>
</g>
</g>
<defs>
<clipPath id="clip0_622_41964">
<rect width="64" height="64" fill="white"/>
</clipPath>
</defs>
</svg>
