<svg width="64" height="64" viewBox="0 0 64 64" fill="none" xmlns="http://www.w3.org/2000/svg">
<g id="Pictogram-thermometer">
<g id="stroke-default">
<path id="2px" d="M28.6001 39.6001H33.0001M31.1002 26.2002H29.2002M31.1002 18H28.7002M30.7002 9.7998H28.7002M50.5001 33.2002C50.3001 34.3002 48.0001 60.1002 47.9001 61.3002M40.1001 40.9002C41.7001 42.0002 56.1001 53.1002 60.7001 55.3002M62.2001 41.1002C60.3001 41.9002 54.9001 45.6002 44.4001 49.4002M41.6 53.1998C41.6 58.3998 37.5 62.6998 32.5 62.6998C27.5 62.6998 23 58.8998 23 53.5998C23 49.7998 25.5 45.9998 28.7 44.5998C28.5 33.3998 28.1 8.7998 28.8 4.5998C29.8 -0.800201 35.5 1.0998 36 4.5998C36.5 8.0998 36 32.8998 36 44.4998C37.6 46.1998 41.5 49.2998 41.5 53.1998H41.6Z" stroke="#494A4A" stroke-width="2" stroke-linecap="round" stroke-linejoin="round"/>
<path id="1px" d="M38.3002 53.7998C38.3002 53.7998 39.1002 56.2998 35.7002 58.4998M24.4998 19.2C21.4998 20.1 12.3998 20.2 8.89976 19.7C0.299761 18.5 1.99976 13.2 10.7998 12.5C9.09976 6.20002 19.0998 2.80002 21.3998 9.40002C21.3998 9.40002 22.2998 7.60002 24.4998 7.60002M10.7998 14.3998C11.1998 12.4998 12.5998 10.9998 14.7998 10.7998M57.6001 42.9002C57.6001 41.5002 57.9001 40.0002 58.1001 39.3002M58.3001 44.2002C59.3001 44.6002 60.7001 45.2002 61.2001 45.4002M57.6001 52.8002C59.3001 52.5002 60.4001 51.6002 61.0001 51.5002M57.1001 53.6002C57.3001 54.4002 57.0001 55.3002 57.3001 56.8002M49.0001 56.3002C50.3001 57.5002 51.1001 58.2002 51.6001 58.9002M47.4001 56.4002C47.4001 56.4002 46.0001 58.1002 45.0001 58.5002M42.2001 42.1002C42.3001 40.8002 42.2001 40.5002 42.2001 39.4002M47.2001 35.4002C48.2001 36.6002 48.8001 37.4002 49.8001 37.9002M50.5001 37.7002C51.5001 37.1002 52.4001 36.4002 53.3001 35.6002M41.3001 42.9002C41.3001 42.9002 40.5001 43.3002 40.2001 43.4002M18.4 48.7001C18.4 49.5001 15.7 50.7001 13.5 50.6001C10.3 50.5001 10.5 45.3001 14.2 46.6001C16 47.2001 18.3 48.3001 18.3 48.7001H18.4ZM21.2998 43.8C21.2998 43.8 20.3998 41 19.5998 40.5C17.6998 39.2 16.2998 41.8 18.5998 43C19.0998 43.3 21.0998 43.9 21.2998 43.8ZM44.6998 23.8C48.0998 25.2 55.6998 25.3 58.4998 24.3C62.3998 23 61.6998 21.6 57.7998 20.8C57.2998 14.3 49.6998 14.3 48.7998 19.9C43.9998 18 41.7998 22.7 44.6998 23.8Z" stroke="#494A4A" stroke-linecap="round" stroke-linejoin="round"/>
</g>
</g>
</svg>
