<svg width="64" height="64" viewBox="0 0 64 64" fill="none" xmlns="http://www.w3.org/2000/svg">
<g id="Pictogram-report-scan ">
<g id="stroke-default">
<path id="2px" d="M10.0021 23.0276C9.96214 23.5784 10.3763 24.0574 10.9271 24.0974C11.4779 24.1374 11.9569 23.7232 11.9969 23.1724L10.0021 23.0276ZM14.3695 18.39L14.5864 19.3662L14.5881 19.3658L14.3695 18.39ZM20.4995 17.3L20.2605 16.329L20.257 16.3299L20.4995 17.3ZM24.7595 12.93L25.7343 13.1532L25.7346 13.1516L24.7595 12.93ZM25.3495 7.64L26.3399 7.7782L26.3408 7.77182L25.3495 7.64ZM30.2595 5C30.8118 5 31.2595 4.55228 31.2595 4C31.2595 3.44772 30.8118 3 30.2595 3V5ZM30.9875 59.9999C31.5397 60.0066 31.9928 59.5642 31.9994 59.012C32.006 58.4598 31.5637 58.0067 31.0115 58.0001L30.9875 59.9999ZM16.5695 58.67L16.6312 57.6719L16.6304 57.6719L16.5695 58.67ZM11.1095 52.38L10.1096 52.3969L10.1097 52.3979L11.1095 52.38ZM18.6795 10.08L19.39 10.7837C19.3938 10.7798 19.3976 10.7759 19.4014 10.772L18.6795 10.08ZM47.9995 4.51L47.9058 5.50561L47.9101 5.50599L47.9995 4.51ZM52.4895 10.44L51.4938 10.5332L51.4941 10.5354L52.4895 10.44ZM51.9795 30.25C51.9795 30.8023 52.4272 31.25 52.9795 31.25C53.5318 31.25 53.9795 30.8023 53.9795 30.25H51.9795ZM37.9995 11L38.2079 10.022L38.2002 10.0203L38.1925 10.0188L37.9995 11ZM54.6952 34.111C54.1435 34.0858 53.6758 34.5126 53.6505 35.0643C53.6253 35.616 54.0521 36.0837 54.6038 36.109L54.6952 34.111ZM56.3995 35.19L56.3538 36.189C56.381 36.1902 56.4081 36.1903 56.4353 36.1894L56.3995 35.19ZM61.6695 40.13H62.6695C62.6695 40.1204 62.6694 40.1108 62.6691 40.1012L61.6695 40.13ZM60.8023 41.7353C60.8439 42.286 61.324 42.6987 61.8747 42.6572C62.4255 42.6156 62.8382 42.1355 62.7967 41.5847L60.8023 41.7353ZM34.1595 41.9C34.1595 42.4523 34.6072 42.9 35.1595 42.9C35.7118 42.9 36.1595 42.4523 36.1595 41.9H34.1595ZM35.3195 40.13L36.309 40.2743C36.3101 40.2667 36.3111 40.2591 36.3121 40.2515L35.3195 40.13ZM40.5895 35.19L40.5448 34.191L40.5425 34.1911L40.5895 35.19ZM41.9742 36.129C42.526 36.1043 42.9532 35.637 42.9285 35.0853C42.9038 34.5335 42.4365 34.1063 41.8848 34.131L41.9742 36.129ZM42.8571 62.8581C43.4083 62.8925 43.8831 62.4736 43.9175 61.9224C43.952 61.3712 43.5331 60.8964 42.9819 60.8619L42.8571 62.8581ZM41.6395 61.78L41.5586 62.7767C41.5648 62.7772 41.5709 62.7777 41.5771 62.778L41.6395 61.78ZM35.3095 56.24L34.3184 56.3734L34.3185 56.374L35.3095 56.24ZM36.1384 54.0641C36.1131 53.5124 35.6453 53.0857 35.0936 53.1111C34.5419 53.1364 34.1152 53.6042 34.1405 54.1559L36.1384 54.0641ZM62.8177 55.0599C62.8508 54.5086 62.4307 54.0349 61.8794 54.0018C61.3281 53.9687 60.8544 54.3888 60.8213 54.9401L62.8177 55.0599ZM61.6695 56.77L60.6763 56.6539C60.6755 56.6604 60.6748 56.667 60.6742 56.6735L61.6695 56.77ZM56.3995 61.77L56.3554 60.771C56.3405 60.7716 56.3255 60.7726 56.3106 60.774L56.3995 61.77ZM54.4373 60.8909C53.8855 60.9142 53.4571 61.3804 53.4804 61.9322C53.5037 62.484 53.9699 62.9124 54.5217 62.8891L54.4373 60.8909ZM11.9969 23.1724C12.0789 22.0417 12.3494 21.1732 12.7685 20.5579C13.1712 19.9667 13.7476 19.5526 14.5864 19.3662L14.1526 17.4138C12.8314 17.7074 11.8128 18.4083 11.1155 19.4321C10.4346 20.4318 10.1 21.6783 10.0021 23.0276L11.9969 23.1724ZM14.5881 19.3658C15.1724 19.2349 16.2252 19.0772 17.4145 18.889C18.5671 18.7066 19.8317 18.4977 20.742 18.2701L20.257 16.3299C19.4473 16.5323 18.2719 16.7284 17.102 16.9135C15.9688 17.0928 14.8166 17.2651 14.1509 17.4142L14.5881 19.3658ZM20.7385 18.271C22.13 17.9285 23.2489 17.4277 24.097 16.5541C24.943 15.6826 25.4149 14.5477 25.7343 13.1532L23.7847 12.7068C23.5041 13.9323 23.146 14.6624 22.662 15.1609C22.1801 15.6573 21.469 16.0315 20.2605 16.329L20.7385 18.271ZM25.7346 13.1516C25.9271 12.3048 26.0338 11.2399 26.1147 10.2748C26.1991 9.26853 26.255 8.3869 26.3399 7.7782L24.3591 7.5018C24.264 8.1831 24.1998 9.17648 24.1217 10.1077C24.0402 11.0801 23.9419 12.0152 23.7844 12.7084L25.7346 13.1516ZM26.3408 7.77182C26.516 6.45408 27.782 5 30.2595 5V3C26.917 3 24.683 5.06592 24.3582 7.50818L26.3408 7.77182ZM31.0115 58.0001C25.9995 57.9399 19.1901 57.83 16.6312 57.6719L16.5078 59.6681C19.1289 59.83 25.9995 59.9401 30.9875 59.9999L31.0115 58.0001ZM16.6304 57.6719C15.0372 57.5746 13.9879 57.1661 13.3089 56.4422C12.6237 55.7116 12.1472 54.4807 12.1093 52.3621L10.1097 52.3979C10.1518 54.7593 10.6852 56.5684 11.8501 57.8103C13.0211 59.0589 14.6618 59.5554 16.5086 59.6681L16.6304 57.6719ZM12.1093 52.3631C12.0095 46.4534 11.9795 27.8031 11.9795 24.22H9.97949C9.97949 27.7969 10.0095 46.4666 10.1096 52.3969L12.1093 52.3631ZM11.9795 24.22C11.9795 20.7506 12.8247 18.4462 14.1221 16.5152C15.4648 14.5165 17.2751 12.9192 19.39 10.7837L17.969 9.37633C15.9838 11.3808 13.9442 13.1935 12.4619 15.3998C10.9343 17.6738 9.97949 20.3694 9.97949 24.22H11.9795ZM19.4014 10.772C22.6106 7.42416 25.4373 5 30.2695 5V3C24.5617 3 21.2284 5.97584 17.9576 9.388L19.4014 10.772ZM30.2695 5C34.0109 5 43.3914 5.08084 47.9058 5.5056L48.0932 3.5144C43.4675 3.07916 33.9881 3 30.2695 3V5ZM47.9101 5.50599C49.3696 5.63704 50.0634 6.0326 50.4998 6.6429C51.0004 7.34304 51.3042 8.50726 51.4938 10.5332L53.4851 10.3468C53.2948 8.31274 52.9686 6.65696 52.1267 5.4796C51.2206 4.2124 49.8594 3.67296 48.0889 3.51401L47.9101 5.50599ZM51.4941 10.5354C51.8088 13.8209 51.9795 19.935 51.9795 30.25H53.9795C53.9795 19.945 53.8102 13.7391 53.4849 10.3446L51.4941 10.5354ZM37.7911 11.978C37.6569 11.9495 37.5652 11.8932 37.5175 11.8579C37.4929 11.8397 37.4758 11.824 37.4658 11.814C37.4557 11.804 37.4504 11.7976 37.4496 11.7966C37.4488 11.7957 37.4581 11.8072 37.4762 11.8372C37.4938 11.8663 37.5155 11.9058 37.5408 11.9575C37.6491 12.1778 37.7651 12.4935 37.8935 12.8729C38.0119 13.2229 38.1471 13.6474 38.2703 13.9785C38.3333 14.1479 38.4048 14.3255 38.4843 14.4836C38.5477 14.6095 38.6775 14.8534 38.8993 15.0382L40.1797 13.5018C40.2964 13.5991 40.3185 13.6792 40.2712 13.5851C40.24 13.5231 40.198 13.4243 40.1447 13.2809C40.035 12.9863 39.9259 12.6396 39.788 12.2321C39.6601 11.854 39.508 11.4259 39.3359 11.0757C39.2505 10.9017 39.1398 10.7042 38.9976 10.5303C38.8712 10.3759 38.6146 10.1086 38.2079 10.022L37.7911 11.978ZM38.8993 15.0382C39.1542 15.2507 39.4581 15.3211 39.5991 15.3505C39.7818 15.3886 39.9803 15.4095 40.164 15.4231C40.5278 15.4499 40.9732 15.4559 41.3465 15.4659C41.7506 15.4767 42.0772 15.4922 42.3022 15.5269C42.4194 15.545 42.4437 15.5592 42.4171 15.5475C42.401 15.5404 42.3356 15.5103 42.2586 15.4398C42.1755 15.3637 42.0686 15.2297 42.0194 15.0325L43.9596 14.5475C43.8282 14.0219 43.4017 13.7959 43.2252 13.718C43.0134 13.6245 42.7866 13.578 42.6071 13.5503C42.2386 13.4934 41.7896 13.477 41.4 13.4666C40.9795 13.4554 40.613 13.4507 40.3109 13.4285C40.1617 13.4175 40.0637 13.4043 40.0069 13.3925C39.9084 13.372 40.0297 13.3768 40.1797 13.5018L38.8993 15.0382ZM42.0194 15.0325C41.9747 14.854 41.9998 14.7104 42.0197 14.6371C42.0394 14.5646 42.0636 14.5243 42.0648 14.5223C42.0652 14.5217 42.0376 14.5644 41.951 14.6561C41.7822 14.8347 41.5245 15.0595 41.2144 15.3169C40.9275 15.5552 40.5797 15.8342 40.3177 16.0622C40.1838 16.1788 40.0467 16.3038 39.9314 16.4257C39.8492 16.5125 39.6549 16.7203 39.5573 16.995L41.4417 17.665C41.3841 17.8272 41.3016 17.8875 41.3842 17.8003C41.4334 17.7482 41.5138 17.6727 41.6309 17.5706C41.8712 17.3615 42.1603 17.1311 42.4921 16.8556C42.8008 16.5993 43.1437 16.3059 43.4046 16.0298C43.5328 15.8942 43.6773 15.7254 43.7879 15.5376C43.8744 15.3908 44.0756 15.0114 43.9596 14.5475L42.0194 15.0325ZM39.5573 16.995C39.4904 17.183 39.4845 17.3548 39.486 17.4547C39.4877 17.5658 39.5008 17.6708 39.5151 17.7582C39.5438 17.9321 39.5917 18.1192 39.6406 18.2922C39.7328 18.6184 39.8831 19.0764 39.9871 19.4212C40.1051 19.8126 40.1893 20.1366 40.2193 20.3691C40.2346 20.4872 40.2276 20.5241 40.2303 20.5069C40.2317 20.4979 40.2626 20.2941 40.4805 20.1269L41.6985 21.7132C42.0564 21.4384 42.1689 21.0559 42.2064 20.8146C42.2453 20.5651 42.2291 20.3162 42.2028 20.1128C42.1497 19.7021 42.0214 19.2399 41.9019 18.8438C41.7684 18.4011 41.6562 18.0704 41.5653 17.7484C41.5226 17.5974 41.4988 17.4956 41.4886 17.4335C41.4836 17.4029 41.4855 17.403 41.4858 17.4248C41.486 17.4353 41.4886 17.5332 41.4417 17.665L39.5573 16.995ZM40.4805 20.1269C40.6977 19.9601 40.9156 19.9737 40.9789 19.9836C41.0302 19.9916 41.0224 20.0006 40.935 19.9547C40.7623 19.8641 40.5245 19.6935 40.2118 19.4521C39.9309 19.2353 39.5797 18.9532 39.2716 18.7403C39.1136 18.6311 38.9365 18.5183 38.7549 18.4288C38.5902 18.3478 38.3302 18.2389 38.0277 18.2304L37.9713 20.2296C37.8463 20.2261 37.7985 20.1872 37.8714 20.2231C37.9274 20.2507 38.0133 20.3019 38.1345 20.3856C38.3849 20.5586 38.6569 20.7784 38.9897 21.0354C39.2908 21.2677 39.6573 21.5428 40.0055 21.7256C40.1786 21.8165 40.4104 21.9191 40.6712 21.9598C40.944 22.0022 41.3413 21.9874 41.6985 21.7132L40.4805 20.1269ZM38.0277 18.2304C37.702 18.2212 37.4259 18.3322 37.2537 18.4163C37.0661 18.5079 36.8882 18.6251 36.7344 18.7359C36.437 18.95 36.0944 19.2413 35.83 19.4555C35.5303 19.6983 35.3044 19.8651 35.1371 19.9526C34.9007 20.0762 35.1262 19.8716 35.4463 20.07L34.3927 21.77C35.0678 22.1884 35.767 21.8801 36.0638 21.7249C36.4296 21.5337 36.7962 21.2467 37.089 21.0095C37.4171 20.7437 37.667 20.5288 37.9028 20.3591C38.0155 20.278 38.0893 20.234 38.1312 20.2135C38.1884 20.1856 38.1195 20.2338 37.9713 20.2296L38.0277 18.2304ZM35.4463 20.07C35.793 20.2849 35.6935 20.6139 35.7141 20.3743C35.7286 20.2057 35.7948 19.9429 35.914 19.5775C35.9707 19.4036 36.0328 19.2255 36.0977 19.0387C36.1612 18.8561 36.2279 18.6638 36.2868 18.4795C36.3884 18.1619 36.5285 17.6944 36.5083 17.2813L34.5107 17.3787C34.5105 17.3756 34.4981 17.5069 34.3818 17.8705C34.3318 18.0269 34.2733 18.1958 34.2087 18.3818C34.1454 18.5636 34.0764 18.7614 34.0125 18.9575C33.8904 19.3321 33.7573 19.7855 33.7214 20.2032C33.6917 20.5498 33.691 21.3351 34.3927 21.77L35.4463 20.07ZM36.5083 17.2813C36.4908 16.9217 36.3384 16.6345 36.2071 16.4437C36.0715 16.2466 35.9052 16.0756 35.7511 15.9348C35.4465 15.6563 35.0646 15.3855 34.754 15.1654C34.4115 14.9226 34.1546 14.7405 33.9849 14.587C33.8993 14.5097 33.8901 14.4867 33.9068 14.5138C33.9191 14.5336 34.0491 14.7487 33.9628 15.0585L32.0362 14.5215C31.9074 14.9838 32.0827 15.367 32.207 15.5675C32.3357 15.7752 32.5051 15.9455 32.6438 16.0708C32.9225 16.3227 33.2963 16.5836 33.5975 16.7971C33.9307 17.0332 34.2057 17.2318 34.4019 17.4111C34.4983 17.4992 34.5435 17.5543 34.5593 17.5772C34.5794 17.6064 34.5182 17.5333 34.5107 17.3787L36.5083 17.2813ZM33.9628 15.0585C33.875 15.3733 33.6467 15.4921 33.6177 15.5063C33.583 15.5233 33.5973 15.5096 33.7058 15.4922C33.9168 15.4582 34.2284 15.4469 34.6275 15.4437C34.9903 15.4408 35.4376 15.4449 35.8015 15.4242C35.9865 15.4136 36.1897 15.395 36.3794 15.3561C36.5347 15.3244 36.8378 15.251 37.0947 15.034L35.8043 13.506C35.9487 13.384 36.0649 13.3791 35.9786 13.3967C35.9268 13.4073 35.8337 13.4191 35.6875 13.4274C35.3889 13.4445 35.0337 13.4404 34.6115 13.4438C34.2256 13.4469 33.7697 13.4562 33.3882 13.5175C33.2004 13.5477 32.9622 13.6004 32.7385 13.7099C32.5204 13.8167 32.1664 14.0542 32.0362 14.5215L33.9628 15.0585ZM37.0947 15.034C37.3219 14.8422 37.4538 14.588 37.5194 14.4532C37.601 14.2856 37.6738 14.0971 37.7379 13.9171C37.8623 13.5674 37.999 13.1152 38.1156 12.7564C38.2443 12.3602 38.3555 12.054 38.4535 11.8623C38.5054 11.7608 38.5185 11.763 38.4779 11.8029C38.4376 11.8426 38.193 12.0572 37.8065 11.9812L38.1925 10.0188C37.6534 9.91276 37.2601 10.1952 37.0745 10.378C36.8886 10.5611 36.7598 10.7817 36.673 10.9515C36.4935 11.3023 36.3397 11.7498 36.2134 12.1386C36.075 12.5648 35.9667 12.9288 35.8536 13.2467C35.7989 13.4004 35.7549 13.5084 35.7212 13.5778C35.6715 13.6799 35.6896 13.6028 35.8043 13.506L37.0947 15.034ZM54.6038 36.109L56.3538 36.189L56.4452 34.191L54.6952 34.111L54.6038 36.109ZM56.4353 36.1894C56.9744 36.1701 57.5121 36.2576 58.0172 36.447L58.7193 34.5742C57.9671 34.2923 57.1665 34.1619 56.3637 34.1906L56.4353 36.1894ZM58.0172 36.447C58.5224 36.6364 58.9851 36.9238 59.3787 37.2928L60.7465 35.8336C60.1604 35.2842 59.4715 34.8562 58.7193 34.5742L58.0172 36.447ZM59.3787 37.2928C59.7723 37.6617 60.0891 38.1049 60.3107 38.5968L62.1342 37.7753C61.8042 37.0429 61.3326 36.383 60.7465 35.8336L59.3787 37.2928ZM60.3107 38.5968C60.5323 39.0887 60.6544 39.6196 60.6699 40.1588L62.6691 40.1012C62.6459 39.2982 62.4641 38.5077 62.1342 37.7753L60.3107 38.5968ZM60.6695 40.13C60.6695 40.4219 60.6972 40.717 60.7251 40.9787C60.7549 41.257 60.7839 41.4909 60.8023 41.7353L62.7967 41.5847C62.7751 41.2991 62.7391 41.003 62.7138 40.7663C62.6868 40.513 62.6695 40.3081 62.6695 40.13H60.6695ZM36.1595 41.9C36.1595 41.3018 36.2384 40.7587 36.309 40.2743L34.33 39.9857C34.2606 40.4613 34.1595 41.1382 34.1595 41.9H36.1595ZM36.3121 40.2515C36.4758 38.9141 36.8854 37.9608 37.5216 37.3246C38.1472 36.699 39.1117 36.2606 40.6365 36.1889L40.5425 34.1911C38.6673 34.2794 37.1768 34.841 36.1074 35.9104C35.0486 36.9692 34.5231 38.4059 34.3269 40.0085L36.3121 40.2515ZM40.6342 36.189L41.9742 36.129L41.8848 34.131L40.5448 34.191L40.6342 36.189ZM42.9819 60.8619L41.7019 60.7819L41.5771 62.778L42.8571 62.8581L42.9819 60.8619ZM41.7204 60.7833C39.7675 60.6248 38.537 60.087 37.7495 59.3465C36.9647 58.6085 36.4961 57.5529 36.3005 56.106L34.3185 56.374C34.5529 58.1071 35.1543 59.6515 36.3795 60.8035C37.602 61.953 39.3215 62.5952 41.5586 62.7767L41.7204 60.7833ZM36.3006 56.1066C36.236 55.6273 36.1778 54.9195 36.1384 54.0641L34.1405 54.1559C34.1812 55.0405 34.243 55.8128 34.3184 56.3734L36.3006 56.1066ZM60.8213 54.9401C60.7821 55.5931 60.7335 56.1637 60.6763 56.6539L62.6627 56.8861C62.7254 56.3496 62.7769 55.7402 62.8177 55.0599L60.8213 54.9401ZM60.6742 56.6735C60.5686 57.7621 60.0736 58.7761 59.2801 59.5289L60.6567 60.9798C61.7997 59.8954 62.5128 58.4347 62.6648 56.8665L60.6742 56.6735ZM59.2801 59.5289C58.4867 60.2817 57.4481 60.7228 56.3554 60.771L56.4436 62.769C58.0176 62.6996 59.5137 62.0642 60.6567 60.9798L59.2801 59.5289ZM56.3106 60.774C55.7704 60.8222 55.1366 60.8613 54.4373 60.8909L54.5217 62.8891C55.2423 62.8587 55.9086 62.8178 56.4884 62.766L56.3106 60.774Z" fill="#494A4A"/>
<path id="1px" d="M26.2286 27.53C26.9586 27.53 41.1586 27.33 42.4886 27.44M22.4886 33.49C23.7786 33.49 32.2386 33.56 32.9986 33.49M22.4886 39.5C25.1486 39.5 29.8386 39.43 30.5986 39.5M22.4886 45.52C23.9686 45.52 30.1386 45.52 30.5986 45.52M48.5486 44.51C48.7786 47.1 48.3086 50.09 48.5486 52.51M52.5186 48.45C49.9186 48.67 46.9386 48.19 44.5186 48.45M14.5186 51.53C14.5186 54.48 14.2986 55.53 20.4586 55.53" stroke="#494A4A" stroke-linecap="round" stroke-linejoin="round"/>
</g>
</g>
</svg>
