<svg width="64" height="64" viewBox="0 0 64 64" fill="none" xmlns="http://www.w3.org/2000/svg">
<g id="Pictogram-organisation-building-1" clip-path="url(#clip0_426_1278)">
<g id="stroke-default">
<path id="2px" d="M40 61.94C43.63 61.88 44.94 61.79 47 61.67C49.06 61.55 50.62 60.53 50.73 57.54C51.14 46.77 51.16 18.8 50.85 5M13.19 5C12.9 24.19 12.89 48.3 13.19 58.71C13.25 60.71 14.04 61.54 16.04 61.71C17.86 61.86 20.24 61.95 23.96 61.98M50.65 58C51.3 58 57.65 58.08 59.65 58C61.65 57.92 62.57 57.81 62.65 54.82C63.06 44.05 63.04 35.12 62.72 21.44C62.72 19.44 61.86 18.6 60.67 18.37C57.4332 17.9552 54.1568 17.9552 50.92 18.37M13 58C12.36 58 5.46999 58 3.46999 57.85C1.46999 57.7 1.21999 56.79 1.15999 54.51C0.92999 47.66 0.99999 39 1.22999 30.77C1.23607 30.1359 1.4746 29.526 1.90036 29.056C2.32613 28.586 2.90953 28.2885 3.53999 28.22C6.68718 27.9787 9.84499 27.9052 13 28M26.19 60C25.91 59.82 25.91 49.69 26.41 49.29C26.91 48.89 36.99 48.78 37.55 49.42C37.94 49.86 38.26 59.83 37.7 60.08M52.48 1C34.65 1 13.39 1.53 10.23 2C9.67999 2.09 10.23 5 10.58 5H52.22C52.724 4.96209 53.195 4.73476 53.5382 4.36372C53.8814 3.99267 54.0714 3.50544 54.07 3C54.07 1.47 53.52 1 52.48 1ZM24.29 62.78C24.1392 62.373 24.0807 61.9376 24.1188 61.5053C24.1568 61.0729 24.2904 60.6544 24.51 60.28C24.93 59.94 38.86 59.76 39.41 60.4C39.8 60.84 40.12 62.61 39.56 62.86C39 63.11 24.69 63 24.29 62.78Z" stroke="#494A4A" stroke-width="2" stroke-linecap="round" stroke-linejoin="round"/>
<path id="1px" d="M59.4998 51.34C59.6198 53.85 59.1098 54.49 57.4998 54.49M5.99984 28C5.74984 25 4.80984 11.44 4.08984 9.21997M8.45984 27.86C8.59984 27.35 8.45984 18.94 8.96984 16.86M22.8198 19.42C21.463 19.55 20.0967 19.55 18.7398 19.42C18.4713 19.3966 18.2176 19.2864 18.0173 19.1059C17.817 18.9255 17.681 18.6847 17.6298 18.42C17.4875 16.2056 17.4875 13.9844 17.6298 11.77C17.6908 11.401 17.8857 11.0674 18.1772 10.8331C18.4687 10.5988 18.8364 10.4802 19.2098 10.5C20.4716 10.4101 21.7381 10.4101 22.9998 10.5C23.3069 10.5197 23.6027 10.6234 23.8549 10.7997C24.107 10.9761 24.3059 11.2183 24.4298 11.5C24.5918 13.585 24.5617 15.6805 24.3398 17.76C24.3165 18.1694 24.1525 18.5582 23.8755 18.8607C23.5986 19.1632 23.2257 19.3607 22.8198 19.42ZM22.8198 31.37C21.6459 31.5193 20.4599 31.5495 19.2798 31.46C18.8477 31.3852 18.4521 31.1705 18.154 30.8489C17.8558 30.5272 17.6717 30.1165 17.6298 29.68C17.5174 27.7316 17.5174 25.7783 17.6298 23.83C17.6932 23.4637 17.8894 23.1336 18.1809 22.9029C18.4724 22.6723 18.8388 22.5573 19.2098 22.58C20.4716 22.4901 21.7381 22.4901 22.9998 22.58C23.3066 22.6008 23.6019 22.7049 23.8539 22.8811C24.1059 23.0573 24.305 23.299 24.4298 23.58C24.5918 25.645 24.5617 27.7205 24.3398 29.78C24.3013 30.177 24.1305 30.5495 23.8548 30.8379C23.5792 31.1262 23.2147 31.3136 22.8198 31.37ZM33.8198 19.42C32.8245 19.54 31.8202 19.5668 30.8198 19.5C30.2985 19.4991 29.7946 19.3124 29.3987 18.9733C29.0028 18.6342 28.7408 18.165 28.6598 17.65C28.5302 15.7059 28.5135 13.756 28.6098 11.81C28.6708 11.441 28.8657 11.1074 29.1572 10.8731C29.4487 10.6388 29.8164 10.5202 30.1898 10.54C31.2348 10.4544 32.2849 10.4544 33.3298 10.54C34.3298 10.7 35.2098 10.96 35.3298 12.03C35.4892 13.9834 35.4892 15.9465 35.3298 17.9C35.2758 18.2823 35.0995 18.6369 34.8274 18.9108C34.5552 19.1848 34.2018 19.3634 33.8198 19.42ZM33.8198 31.37C32.6658 31.4647 31.5073 31.4947 30.3498 31.46C29.927 31.4611 29.5194 31.3017 29.2095 31.014C28.8995 30.7263 28.7102 30.3318 28.6798 29.91C28.4837 27.8892 28.4536 25.8557 28.5898 23.83C28.6898 23.12 29.5898 22.61 30.4998 22.56C31.6514 22.4703 32.8083 22.4703 33.9598 22.56C34.2666 22.5808 34.5619 22.6849 34.8139 22.8611C35.0659 23.0373 35.265 23.279 35.3898 23.56C35.5506 25.6248 35.5238 27.7 35.3098 29.76C35.2753 30.1556 35.1101 30.5285 34.8404 30.82C34.5706 31.1114 34.2116 31.3049 33.8198 31.37ZM44.7898 19.42C43.6386 19.5577 42.4772 19.5912 41.3198 19.52C40.9103 19.5 40.5208 19.3369 40.2192 19.0591C39.9177 18.7813 39.7232 18.4065 39.6698 18C39.4198 15.9593 39.383 13.8982 39.5598 11.85C39.6208 11.481 39.8157 11.1474 40.1072 10.9131C40.3987 10.6788 40.7664 10.5602 41.1398 10.58C42.4016 10.4901 43.6681 10.4901 44.9298 10.58C45.2369 10.5997 45.5327 10.7034 45.7849 10.8797C46.037 11.0561 46.2359 11.2983 46.3598 11.58C46.5218 13.665 46.4917 15.7605 46.2698 17.84C46.2311 18.2294 46.0652 18.5952 45.7977 18.8808C45.5301 19.1664 45.1759 19.3559 44.7898 19.42ZM44.7898 31.37C43.4327 31.495 42.067 31.495 40.7098 31.37C39.9798 31.22 39.6598 31.04 39.5598 30.6C39.4193 28.3488 39.4193 26.0911 39.5598 23.84C39.6232 23.4737 39.8194 23.1436 40.1109 22.9129C40.4024 22.6823 40.7688 22.5673 41.1398 22.59C42.4016 22.5001 43.6681 22.5001 44.9298 22.59C45.2366 22.6108 45.5319 22.7149 45.7839 22.8911C46.0359 23.0673 46.235 23.309 46.3598 23.59C46.5218 25.655 46.4917 27.7305 46.2698 29.79C46.2311 30.1794 46.0652 30.5452 45.7977 30.8308C45.5301 31.1164 45.1759 31.3059 44.7898 31.37ZM22.8198 43.37C21.6526 43.4695 20.4811 43.5096 19.3098 43.49C18.8687 43.496 18.442 43.3323 18.1182 43.0326C17.7943 42.7329 17.598 42.3203 17.5698 41.88C17.4653 39.8647 17.4653 37.8453 17.5698 35.83C17.631 35.4618 17.8262 35.1294 18.118 34.8967C18.4098 34.664 18.7773 34.5476 19.1498 34.57C20.4116 34.4801 21.6781 34.4801 22.9398 34.57C23.5598 34.67 24.0298 35.17 24.3498 36.06C24.5343 37.9702 24.5109 39.8948 24.2798 41.8C24.2401 42.1848 24.0762 42.5462 23.8127 42.8294C23.5493 43.1127 23.2007 43.3025 22.8198 43.37ZM34.2398 43.46C32.8126 43.585 31.3771 43.585 29.9498 43.46C29.6609 43.4254 29.3863 43.3146 29.1544 43.1388C28.9224 42.9631 28.7414 42.7288 28.6298 42.46C28.4925 40.2654 28.4925 38.0645 28.6298 35.87C28.693 35.5028 28.8889 35.1717 29.1801 34.9394C29.4714 34.7071 29.8378 34.5899 30.2098 34.61C31.4716 34.5201 32.7381 34.5201 33.9998 34.61C34.3075 34.6275 34.6043 34.7303 34.8568 34.9069C35.1094 35.0835 35.3078 35.327 35.4298 35.61C35.5905 37.6748 35.5637 39.75 35.3498 41.81C35.0898 42.67 35.1498 43.27 34.2398 43.46ZM44.7898 43.37C43.6784 43.5041 42.5569 43.5342 41.4398 43.46C40.0898 43.3 39.6298 42.77 39.4398 41.63C39.3255 39.6971 39.3556 37.7584 39.5298 35.83C39.591 35.4618 39.7862 35.1294 40.078 34.8967C40.3698 34.664 40.7373 34.5476 41.1098 34.57C42.3716 34.4801 43.6381 34.4801 44.8998 34.57C45.2075 34.5875 45.5043 34.6903 45.7568 34.8669C46.0094 35.0435 46.2078 35.287 46.3298 35.57C46.4918 37.635 46.4616 39.7105 46.2398 41.77C46.2069 42.1587 46.0471 42.5259 45.7852 42.8149C45.5232 43.104 45.1735 43.299 44.7898 43.37ZM58.2998 30.41C57.333 30.52 56.3567 30.52 55.3898 30.41C55.1857 30.3705 54.999 30.2684 54.8556 30.1178C54.7122 29.9673 54.6193 29.7758 54.5898 29.57C54.4886 27.6046 54.4886 25.6353 54.5898 23.67C54.6044 23.3776 54.727 23.1011 54.934 22.8941C55.141 22.6872 55.4175 22.5645 55.7098 22.55C56.6116 22.4751 57.5181 22.4751 58.4198 22.55C58.6583 22.5925 58.8794 22.7028 59.0568 22.8677C59.2341 23.0327 59.3602 23.2452 59.4198 23.48C59.5318 25.319 59.5118 27.1638 59.3598 29C59.1998 29.78 58.9998 30.24 58.2998 30.41ZM58.2998 43.43C57.333 43.54 56.3567 43.54 55.3898 43.43C55.1843 43.3899 54.9965 43.2863 54.853 43.1338C54.7094 42.9813 54.6174 42.7876 54.5898 42.58C54.4886 40.6146 54.4886 38.6453 54.5898 36.68C54.6019 36.3859 54.7235 36.1069 54.9308 35.8978C55.138 35.6888 55.4159 35.5647 55.7098 35.55C56.6114 35.4701 57.5183 35.4701 58.4198 35.55C58.6575 35.5906 58.8783 35.699 59.0558 35.8622C59.2332 36.0255 59.3596 36.2365 59.4198 36.47C59.5319 38.3124 59.5118 40.1604 59.3598 42C59.1998 42.8 58.9998 43.26 58.2998 43.43ZM5.68984 40.4C6.66009 40.5096 7.6396 40.5096 8.60984 40.4C8.81357 40.358 8.99915 40.2536 9.14075 40.1013C9.28235 39.9489 9.37291 39.7562 9.39984 39.55C9.50117 37.5879 9.50117 35.622 9.39984 33.66C9.39038 33.3684 9.27233 33.0908 9.06883 32.8818C8.86533 32.6728 8.59107 32.5473 8.29984 32.53C7.39828 32.4501 6.49141 32.4501 5.58984 32.53C5.35267 32.5717 5.13243 32.6806 4.9552 32.8436C4.77797 33.0067 4.65118 33.2171 4.58984 33.45C4.47019 35.2985 4.48356 37.1533 4.62984 39C4.78984 39.77 5.04984 40.23 5.68984 40.4ZM8.28984 53.42C7.32326 53.535 6.34643 53.535 5.37984 53.42C5.17756 53.3786 4.99302 53.2757 4.85158 53.1253C4.71013 52.9749 4.6187 52.7844 4.58984 52.58C4.48817 50.6146 4.48817 48.6453 4.58984 46.68C4.60213 46.3842 4.72513 46.1039 4.93444 45.8946C5.14375 45.6853 5.42409 45.5623 5.71984 45.55C6.61829 45.4751 7.5214 45.4751 8.41984 45.55C8.65828 45.5925 8.87941 45.7028 9.05676 45.8677C9.23411 46.0327 9.36017 46.2452 9.41984 46.48C9.53304 48.3192 9.50964 50.1642 9.34984 52C9.19984 52.79 8.93984 53.25 8.28984 53.42Z" stroke="#494A4A" stroke-linecap="round" stroke-linejoin="round"/>
</g>
</g>
<defs>
<clipPath id="clip0_426_1278">
<rect width="64" height="64" fill="white"/>
</clipPath>
</defs>
</svg>
