<svg width="64" height="64" viewBox="0 0 64 64" fill="none" xmlns="http://www.w3.org/2000/svg">
<g id="Pictogram-alarm" clip-path="url(#clip0_632_20812)">
<g id="stroke-default">
<path id="2px" d="M37.0001 25.8C35.8901 26.8 35.4501 28.74 34.4201 31.26M45.1701 42.35C42.2062 39.6796 38.9989 37.2925 35.5901 35.22M36.4901 50.19C36.6901 51.02 36.7301 51.83 36.8301 52.4M10.7201 17.16L12.4801 18.41M48.3301 10.05L46.9301 12.23M20.0001 55C19.0901 56.41 18.8901 60.64 19.0001 61.91C19.1101 63.18 20.8601 63.25 21.7701 62.49C23.1575 61.0974 24.172 59.3779 24.7201 57.49M52.7101 49.58C54.0501 50.58 55.7101 54.15 56.0301 55.38C56.3501 56.61 54.7401 57.28 53.6201 56.88C51.7332 56.0861 50.0809 54.8227 48.8201 53.21M35.2001 8.57002L35.5201 5.43002M58.1101 29.15C60.5201 42.74 52.1901 55.02 37.8701 58.15C23.5501 61.28 11.3001 51.5 8.87008 37.91C6.44008 24.32 13.4201 11.72 29.1101 8.91002C32.3433 8.33393 35.6584 8.40054 38.8658 9.10604C42.0733 9.81153 45.1104 11.1421 47.8035 13.0217C50.4966 14.9013 52.7929 17.2931 54.5614 20.0604C56.3298 22.8278 57.5357 25.9165 58.1101 29.15ZM38.4101 20.85C37.4601 21.21 34.0901 22.51 34.2501 23.44C34.5401 25.01 39.1101 26.86 40.0401 26.33C40.9701 25.8 39.9001 22.33 39.7401 21.49C39.7109 21.3503 39.65 21.2192 39.5621 21.1068C39.4741 20.9945 39.3615 20.9038 39.2329 20.842C39.1044 20.7801 38.9633 20.7486 38.8206 20.75C38.6779 20.7514 38.5374 20.7856 38.4101 20.85ZM48.0001 43.6C47.8701 43.11 47.5601 40.94 47.0001 41.06C46.0001 41.29 44.1201 43.65 44.3101 44.34C44.5001 45.03 46.8901 44.7 47.4301 44.63C47.6397 44.5651 47.816 44.4216 47.9222 44.2297C48.0285 44.0377 48.0564 43.8121 48.0001 43.6ZM35.9501 33.51C35.9501 34.8631 34.8532 35.96 33.5001 35.96C32.147 35.96 31.0501 34.8631 31.0501 33.51C31.0501 32.1569 32.147 31.06 33.5001 31.06C34.8532 31.06 35.9501 32.1569 35.9501 33.51ZM4.67008 22.5C-4.59992 15.67 6.00008 3.40002 13.0801 8.63002C16.2101 11 6.75008 24 4.67008 22.5ZM56.0001 13.44C62.5001 3.15002 47.2001 -2.63998 43.4701 3.69002C41.6801 6.72002 54.9401 15.13 56.0001 13.44ZM32.7201 4.76002C32.0501 4.35002 32.1201 2.38002 33.0501 2.11002C34.7101 1.63002 38.0501 1.84002 39.0501 2.71002C39.2352 2.87501 39.3758 3.08386 39.4592 3.31739C39.5425 3.55092 39.5658 3.80165 39.527 4.04654C39.4882 4.29144 39.3885 4.52266 39.237 4.71896C39.0855 4.91526 38.8871 5.07036 38.6601 5.17002C37.2801 5.56002 34.1301 5.63002 32.7201 4.76002Z" stroke="#494A4A" stroke-width="2" stroke-linecap="round" stroke-linejoin="round"/>
<path id="1px" d="M30.15 14.67C30.35 15.5 30.4 16.31 30.5 16.87M52.36 30.18C51.54 30.38 50.73 30.43 50.16 30.53M16.83 36.52C16 36.72 15.19 36.77 14.62 36.87M50.53 41.4C51.6199 39.7186 52.1357 37.7292 52 35.73M49.38 38.72C49.7781 37.9614 49.945 37.1026 49.86 36.25M62.81 36.81C62.54 40.75 60.81 47.02 58.64 49.96M63.53 45.5C63.3728 46.5953 63.0169 47.6526 62.48 48.62M61.51 8.42003C61.5772 10.5905 60.9957 12.7317 59.84 14.57M13.47 4.53003C14.5121 4.58753 15.4965 5.02741 16.2345 5.76546C16.9726 6.50351 17.4125 7.48785 17.47 8.53003M20.58 63.52C25.4787 63.2182 30.3913 63.2182 35.29 63.52" stroke="#494A4A" stroke-linecap="round" stroke-linejoin="round"/>
</g>
</g>
<defs>
<clipPath id="clip0_632_20812">
<rect width="64" height="64" fill="white"/>
</clipPath>
</defs>
</svg>
