<svg width="65" height="65" viewBox="0 0 65 65" fill="none" xmlns="http://www.w3.org/2000/svg">
<g id="Pictogram-trolley-1" clip-path="url(#clip0_426_593)">
<g id="stroke-default">
<path id="2px" d="M5.69483 5.2693C3.74483 4.7893 1.87483 7.7793 1.37483 6.3293C0.874829 4.8793 4.14483 4.8393 5.69483 5.2693ZM5.69483 5.2693C7.59483 5.7693 8.77483 8.7393 9.77483 11.9393M14.1448 38.7093C14.1448 40.5993 14.2948 42.5593 14.3248 43.4093C14.4548 46.9693 15.2048 48.3393 17.5448 49.0293C21.5448 50.1993 36.8148 50.0293 40.8148 50.0293C43.3948 50.0293 45.5448 50.9393 46.7248 52.6993M56.3148 15.0393C60.7948 15.0393 63.4648 17.2193 63.3148 21.7293C63.1669 26.8497 61.6473 31.8365 58.9148 36.1693C57.2049 38.8224 54.7085 40.8747 51.7748 42.0393C47.3248 43.7693 23.5748 44.3193 18.5048 43.8293C15.2148 43.5093 14.3248 42.2893 14.1748 39.3293C14.0048 36.0193 13.6048 23.2593 9.77483 11.8993C17.7448 14.9093 47.7448 15.1393 56.3148 15.0393ZM23.3148 56.5393C23.3148 58.4693 21.7248 59.7193 19.8148 60.0393C17.9048 60.3593 16.3148 58.4693 16.3148 56.5393C16.3148 55.611 16.6836 54.7208 17.34 54.0644C17.9963 53.408 18.8866 53.0393 19.8148 53.0393C22.4348 53.0393 23.3148 54.6093 23.3148 56.5393ZM44.5548 56.3393C44.7348 58.3393 42.7448 60.0393 40.8148 60.0393C39.8399 59.9671 38.9271 59.5333 38.2556 58.8229C37.584 58.1125 37.2021 57.1767 37.1848 56.1993C37.1848 54.2693 38.8848 53.0393 40.8148 53.0393C41.7393 53.017 42.6382 53.3445 43.3316 53.9563C44.025 54.5682 44.4619 55.4192 44.5548 56.3393Z" stroke="#494A4A" stroke-width="2" stroke-linecap="round" stroke-linejoin="round"/>
<path id="1px" d="M39.8151 39.8792C43.1027 39.8222 46.3641 39.2832 49.4951 38.2792M35.8151 22.4792C35.8179 22.8835 35.6627 23.2729 35.3824 23.5643C35.1022 23.8558 34.7192 24.0262 34.3151 24.0392C33.2251 24.1292 32.8251 23.3592 32.8251 22.5292C32.8246 22.1263 32.979 21.7386 33.2563 21.4464C33.5337 21.1542 33.9127 20.9797 34.3151 20.9592C35.6451 20.8192 35.8151 21.6392 35.8151 22.4792ZM45.8351 22.4692C45.9951 23.4692 45.4951 23.9992 44.3251 23.9992C43.9193 23.9992 43.5302 23.838 43.2432 23.5511C42.9563 23.2641 42.7951 22.875 42.7951 22.4692C42.7951 22.0634 42.9563 21.6743 43.2432 21.3873C43.5302 21.1004 43.9193 20.9392 44.3251 20.9392C44.7203 20.9655 45.0922 21.1358 45.3704 21.4177C45.6487 21.6996 45.814 22.0737 45.8351 22.4692ZM25.1251 23.2792C24.7451 24.1492 24.0151 24.3292 23.0151 23.6692C22.6849 23.4504 22.4552 23.1094 22.3764 22.7212C22.2976 22.333 22.3763 21.9294 22.5951 21.5992C22.8139 21.269 23.1549 21.0393 23.5431 20.9605C23.9313 20.8817 24.3349 20.9604 24.6651 21.1792C24.9835 21.4138 25.2057 21.7563 25.2904 22.1426C25.375 22.529 25.3163 22.9329 25.1251 23.2792ZM25.1451 33.2792C24.7751 34.1292 24.0651 34.2792 23.0751 33.6392C22.9083 33.5368 22.7633 33.4026 22.6484 33.2441C22.5334 33.0856 22.4509 32.9061 22.4054 32.7157C22.3599 32.5254 22.3523 32.3279 22.3832 32.1346C22.414 31.9413 22.4826 31.756 22.5851 31.5892C23.0351 30.9192 23.5851 30.5892 24.6651 31.2292C24.9867 31.4492 25.2143 31.7816 25.3031 32.161C25.3919 32.5404 25.3356 32.9393 25.1451 33.2792ZM55.3151 22.4592C55.3379 22.6608 55.3146 22.865 55.247 23.0564C55.1794 23.2477 55.0692 23.4212 54.9247 23.5637C54.7803 23.7062 54.6053 23.8141 54.4131 23.8791C54.2209 23.9442 54.0164 23.9647 53.8151 23.9392C52.5951 23.9392 52.3251 23.2792 52.3251 22.4592C52.3149 22.2613 52.3466 22.0635 52.418 21.8787C52.4894 21.6938 52.599 21.5261 52.7396 21.3865C52.8802 21.2468 53.0486 21.1384 53.2339 21.0682C53.4193 20.998 53.6173 20.9677 53.8151 20.9792C54.8851 21.1592 55.3151 21.6392 55.3151 22.4592ZM50.7951 27.7492C50.7951 28.6192 50.1951 28.9992 49.3651 28.9992C48.5351 28.9992 47.7951 28.6192 47.7951 27.7492C47.7783 27.3168 47.9224 26.8935 48.1994 26.5611C48.4764 26.2287 48.8668 26.0107 49.2951 25.9492C49.7234 26.0107 50.1138 26.2287 50.3908 26.5611C50.6678 26.8935 50.8119 27.3168 50.7951 27.7492ZM40.8251 27.6292C40.8162 27.8254 40.7683 28.0179 40.6843 28.1954C40.6002 28.3729 40.4817 28.5319 40.3355 28.6632C40.1894 28.7944 40.0186 28.8952 39.8331 28.9598C39.6476 29.0244 39.4511 29.0514 39.2551 29.0392C39.0601 29.042 38.8667 29.003 38.6879 28.925C38.5091 28.847 38.349 28.7318 38.2184 28.5869C38.0877 28.4421 37.9895 28.271 37.9303 28.0851C37.8711 27.8993 37.8523 27.7029 37.8751 27.5092C38.0451 26.7892 38.4951 25.9892 39.2551 25.9892C39.6683 26.0332 40.0525 26.2221 40.3399 26.5222C40.6272 26.8224 40.7991 27.2145 40.8251 27.6292ZM30.8451 27.4692C30.5051 28.2392 30.1751 29.0392 29.3151 29.0392C28.9093 29.0392 28.5202 28.878 28.2332 28.5911C27.9463 28.3041 27.7851 27.915 27.7851 27.5092C27.7851 27.1034 27.9463 26.7143 28.2332 26.4273C28.5202 26.1404 28.9093 25.9792 29.3151 25.9792C30.1751 25.9392 31.1451 26.8192 30.8451 27.4692ZM35.8251 32.4492C35.8251 33.2776 35.1535 33.9492 34.3251 33.9492C33.4967 33.9492 32.8251 33.2776 32.8251 32.4492C32.8251 31.6208 33.4967 30.9492 34.3251 30.9492C35.1535 30.9492 35.8251 31.6208 35.8251 32.4492ZM45.8451 32.4492C45.8103 32.8404 45.6371 33.2064 45.3567 33.4813C45.0762 33.7563 44.7069 33.9222 44.3151 33.9492C43.4851 33.9492 42.6551 33.2692 42.8051 32.4492C43.0051 31.3592 43.4851 30.9392 44.3151 30.9392C45.1451 30.9392 46.0251 31.6092 45.8451 32.4492Z" stroke="#494A4A" stroke-linecap="round" stroke-linejoin="round"/>
</g>
</g>
<defs>
<clipPath id="clip0_426_593">
<rect width="64" height="64" fill="white" transform="translate(0.314819 0.0393066)"/>
</clipPath>
</defs>
</svg>
