<svg width="64" height="64" viewBox="0 0 64 64" fill="none" xmlns="http://www.w3.org/2000/svg">
<g id="Pictogram-data-protection" clip-path="url(#clip0_622_41953)">
<g id="stroke-default">
<path id="2px" d="M57.8999 43.8998L59.9999 44.0998C60.9999 44.2998 62.0999 45.2998 62.1999 46.5998C62.3999 51.0998 62.4999 54.2999 62.2999 58.1999C62.2999 59.1999 60.5999 62.0999 58.8999 62.4999C55.3999 63.1999 45.0999 63.1999 39.2999 62.4999C38.3999 62.2999 37.3999 61.5998 37.0999 60.5998C36.3999 57.1998 36.1999 52.8999 36.3999 48.7999C36.3999 47.9999 36.6999 47.2999 37.1999 46.6999L38.9999 45.0999C39.5999 44.5999 40.1999 44.2998 40.8999 44.0998M44.9999 43.9999H54.5999M57.9999 29.6999C58.7999 23.9999 58.4999 17.8999 57.1999 11.3999C46.7999 7.29985 36.6999 3.09985 32.8999 3.09985C29.0999 3.09985 17.8999 7.19985 7.49995 11.2999C2.99995 33.6999 11.1999 52.4999 30.7999 59.4999C31.2999 59.6999 31.7999 59.7999 32.2999 59.9999M41.5999 45.0999C41.5999 45.0999 37.3999 32.3999 48.3999 31.8999C61.2999 31.3999 57.1999 45.4999 57.1999 45.4999C57.1999 45.4999 55.9999 46.2999 54.1999 45.4999C54.1999 45.4999 56.5999 35.5999 49.2999 35.3999C43.3999 35.2999 43.6999 40.0999 44.7999 44.9999C44.7999 44.9999 42.8999 46.2999 41.5999 44.9999V45.0999Z" stroke="#494A4A" stroke-width="2" stroke-linecap="round" stroke-linejoin="round"/>
<path id="1px" d="M53.8 26.9998C54 25.4998 54.1 22.8998 54 21.3998C53.9 19.1998 53.5 16.8998 53 14.5998C51.8 14.0998 50.5 13.5998 49.3 13.0998M27 53.4998C28.4 54.1998 29.8 54.8998 31.3 55.3998M41.1 9.99983C37.4 8.59983 34.5 7.69983 32.8 7.69983C31.3 7.69983 28.4 8.49983 24.9 9.69983C24 9.99983 23 10.2998 22.1 10.6998C21.1 11.0998 20 11.4998 18.9 11.8998C16.7 12.7998 14.3 13.6998 12.1 14.5998C11.6 17.1998 11.3 19.7998 11.2 22.3998C11.1 24.9998 11.2 27.3998 11.5 29.7998C12 33.2998 12.9 36.5998 14.2 39.6998M39.9 48.4998H56.3C57.5 48.4998 58.6 47.9998 59.5 47.1998M61.2 32.2998L59.9 33.8998M63.1 38.6998C62.5 38.4998 61.9 38.2998 61.4 38.1998M63.4 35.2998C62.3 35.6998 61 36.1998 60.8 36.1998M57.9 51.4998C57.9 51.4998 58 56.9998 57.9 58.3998M48.1 54.6998C48.3 53.9998 47.6 53.3998 47.9 52.3998C48.2 51.2998 50 51.0998 50.5 52.2998C50.9 53.1998 50 53.6998 50.2 54.4998C50.3 54.9998 51.1 57.0998 50.9 57.1998C50.7 57.3998 48.6 57.5998 47.6 57.1998" stroke="#494A4A" stroke-linecap="round" stroke-linejoin="round"/>
</g>
</g>
<defs>
<clipPath id="clip0_622_41953">
<rect width="64" height="64" fill="white"/>
</clipPath>
</defs>
</svg>
