<svg width="65" height="65" viewBox="0 0 65 65" fill="none" xmlns="http://www.w3.org/2000/svg">
<g id="Pictogram-trolley-settings" clip-path="url(#clip0_426_2124)">
<g id="stroke-default">
<path id="2px" d="M30.4205 44.0394C26.5283 44.2705 22.6244 44.2137 18.7405 43.8694C15.4505 43.5494 14.5605 42.3294 14.4105 39.3694C14.2405 36.0594 13.8405 23.2994 10.0105 11.9394M10.0105 11.9394C18.0105 14.9394 48.0106 15.1394 56.5406 15.0494C61.0206 15.0494 63.6906 17.2294 63.5406 21.7394C63.3506 27.5094 62.9806 29.9894 60.7006 33.4094M10.0105 11.9394C9.01055 8.73936 7.83055 5.76936 5.93055 5.26936M5.93055 5.26936C3.98055 4.78936 2.11055 7.77936 1.61055 6.32936C1.11055 4.87936 4.38055 4.83936 5.93055 5.26936ZM14.3805 38.7094C14.3805 40.5994 14.5305 42.5594 14.5605 43.4094C14.6905 46.9694 15.4405 48.3394 17.7805 49.0294C20.3705 49.7894 23.6505 50.0294 29.5905 50.0294M23.5505 56.5394C23.5505 58.4694 21.9605 59.7194 20.0505 60.0394C18.1405 60.3594 16.5505 58.4694 16.5505 56.5394C16.5505 55.6111 16.9193 54.7209 17.5757 54.0645C18.232 53.4081 19.1223 53.0394 20.0505 53.0394C22.6705 53.0394 23.5505 54.6094 23.5505 56.5394ZM59.8806 38.3194C59.8206 39.2194 57.2205 41.5294 57.2205 41.5294L58.7006 44.2894C58.7006 44.2894 61.7705 44.0394 62.5505 45.0394C63.3305 46.0394 62.9905 50.9694 62.2605 51.7294C61.5305 52.4894 58.4605 52.5294 58.4605 52.5294L56.7906 55.1394C56.7906 55.1394 58.4105 57.5894 58.0305 58.9694C57.6505 60.3494 53.3806 62.2694 52.1306 61.9694C50.8806 61.6694 49.5505 59.0394 49.5505 59.0394L46.4205 58.9394C46.4205 58.9394 45.2205 61.8194 44.0605 62.0394C41.8905 62.4594 37.6905 58.7794 37.2505 57.5794C36.8105 56.3794 39.4905 54.5794 39.4905 54.5794L38.0105 51.8194C36.6514 51.787 35.3041 51.558 34.0105 51.1394C33.0105 50.5894 33.9005 43.7794 34.6105 43.1394C35.3205 42.4994 38.2305 43.5994 38.2305 43.5994L39.9205 41.0394C39.9205 41.0394 38.6605 38.0394 38.9805 37.2594C39.3005 36.4794 43.1205 34.0494 44.5105 34.2594C45.9005 34.4694 47.1305 37.1994 47.1305 37.1994C48.3617 37.1341 49.5962 37.1743 50.8205 37.3194C51.4305 37.4094 51.7505 34.1394 52.8205 34.0294C53.8905 33.9194 59.9306 37.4194 59.8806 38.3194Z" stroke="#494A4A" stroke-width="2" stroke-linecap="round" stroke-linejoin="round"/>
<path id="1px" d="M42.6707 42.3093C42.0132 43.2778 41.441 44.3017 40.9607 45.3693M47.5507 55.6393C48.674 55.4716 49.818 55.502 50.9307 55.7293C51.5433 56.1521 52.0167 56.7472 52.2907 57.4393M59.1107 49.0393C57.0207 49.1793 56.1707 49.7793 55.4007 51.6993M36.0407 22.4793C36.0462 22.8826 35.8932 23.272 35.6145 23.5637C35.3359 23.8555 34.9539 24.0262 34.5507 24.0393C33.4507 24.1293 33.0507 23.3593 33.0507 22.5293C33.0528 22.1254 33.2094 21.7377 33.4883 21.4458C33.7673 21.1538 34.1474 20.9797 34.5507 20.9593C35.8707 20.8193 36.0407 21.6393 36.0407 22.4793ZM46.0707 22.4693C46.2307 23.4693 45.7307 23.9993 44.5507 23.9993C44.145 23.9993 43.7558 23.8381 43.4689 23.5511C43.1819 23.2642 43.0207 22.875 43.0207 22.4693C43.0207 22.0635 43.1819 21.6743 43.4689 21.3874C43.7558 21.1005 44.145 20.9393 44.5507 20.9393C44.9463 20.9674 45.3182 21.138 45.5976 21.4193C45.8771 21.7006 46.0452 22.0736 46.0707 22.4693ZM25.3607 23.2793C24.9707 24.1493 24.2407 24.3293 23.2507 23.6693C22.9205 23.4518 22.6903 23.112 22.6106 22.7248C22.5309 22.3375 22.6083 21.9345 22.8257 21.6043C23.0432 21.2741 23.383 21.0438 23.7702 20.9641C24.1575 20.8844 24.5605 20.9618 24.8907 21.1793C25.2108 21.4125 25.435 21.7542 25.5215 22.1407C25.608 22.5271 25.5509 22.9319 25.3607 23.2793ZM25.3707 33.2793C25.0107 34.1293 24.2907 34.2793 23.3007 33.6393C22.9655 33.4308 22.7267 33.0979 22.6367 32.7136C22.5467 32.3292 22.6129 31.9248 22.8207 31.5893C23.2607 30.9193 23.8207 30.5893 24.8907 31.2293C25.2123 31.4493 25.4399 31.7817 25.5287 32.1611C25.6176 32.5405 25.5612 32.9393 25.3707 33.2793ZM55.5507 22.4593C55.5736 22.6609 55.5503 22.8651 55.4827 23.0564C55.415 23.2478 55.3048 23.4212 55.1604 23.5638C55.0159 23.7063 54.841 23.8141 54.6488 23.8792C54.4565 23.9442 54.2521 23.9648 54.0507 23.9393C52.8207 23.9393 52.5507 23.2793 52.5507 22.4593C52.5404 22.2605 52.5723 22.0618 52.6444 21.8762C52.7164 21.6906 52.8268 21.5224 52.9685 21.3826C53.1102 21.2428 53.2799 21.1345 53.4665 21.065C53.653 20.9955 53.8521 20.9663 54.0507 20.9793C55.1107 21.1593 55.5507 21.6393 55.5507 22.4593ZM51.0207 27.7493C51.0207 28.6193 50.4307 28.9993 49.6007 28.9993C48.7707 28.9993 48.0207 28.6193 48.0207 27.7493C48.004 27.3169 48.148 26.8936 48.425 26.5612C48.7021 26.2288 49.0924 26.0108 49.5207 25.9493C49.9491 26.0108 50.3394 26.2288 50.6164 26.5612C50.8935 26.8936 51.0375 27.3169 51.0207 27.7493ZM41.0507 27.6293C41.0431 27.825 40.9964 28.0173 40.9135 28.1947C40.8305 28.3722 40.7129 28.5313 40.5675 28.6626C40.4222 28.794 40.2521 28.895 40.0672 28.9597C39.8822 29.0243 39.6863 29.0514 39.4907 29.0393C39.2952 29.0437 39.101 29.0059 38.9215 28.9284C38.7419 28.851 38.5811 28.7357 38.4501 28.5905C38.3191 28.4453 38.221 28.2735 38.1625 28.0869C38.1039 27.9003 38.0862 27.7033 38.1107 27.5093C38.2707 26.7893 38.7207 25.9893 39.4907 25.9893C39.9021 26.0355 40.284 26.2253 40.5693 26.5252C40.8547 26.8252 41.0251 27.2161 41.0507 27.6293ZM31.0807 27.4693C30.7307 28.2393 30.4007 29.0393 29.5507 29.0393C29.145 29.0393 28.7558 28.8781 28.4689 28.5911C28.1819 28.3042 28.0207 27.915 28.0207 27.5093C28.0207 27.1035 28.1819 26.7143 28.4689 26.4274C28.7558 26.1405 29.145 25.9793 29.5507 25.9793C30.4007 25.9393 31.3707 26.8193 31.0807 27.4693ZM36.0507 32.4493C36.0507 33.2777 35.3792 33.9493 34.5507 33.9493C33.7223 33.9493 33.0507 33.2777 33.0507 32.4493C33.0507 31.6208 33.7223 30.9493 34.5507 30.9493C35.3792 30.9493 36.0507 31.6208 36.0507 32.4493ZM52.3307 47.1493C52.3307 49.0933 50.7548 50.6693 48.8107 50.6693C46.8667 50.6693 45.2907 49.0933 45.2907 47.1493C45.2907 45.2052 46.8667 43.6293 48.8107 43.6293C50.7548 43.6293 52.3307 45.2052 52.3307 47.1493Z" stroke="#494A4A" stroke-linecap="round" stroke-linejoin="round"/>
</g>
</g>
<defs>
<clipPath id="clip0_426_2124">
<rect width="64" height="64" fill="white" transform="translate(0.550903 0.0393066)"/>
</clipPath>
</defs>
</svg>
