<svg width="65" height="65" viewBox="0 0 65 65" fill="none" xmlns="http://www.w3.org/2000/svg">
<g id="Pictogram-shopping-cart-v1" clip-path="url(#clip0_426_640)">
<g id="stroke-default">
<path id="2px" d="M4.1572 35.0393C4.78225 42.4422 5.91829 49.793 7.5572 57.0393C8.4972 60.7693 9.8972 62.3693 13.0772 62.7093C20.9472 63.5493 45.8872 63.4293 51.5272 62.4293C54.4272 61.9093 55.6972 60.1993 56.8172 57.1793C58.2972 53.1793 59.5472 43.4893 60.1172 34.7493M25.4772 25.0393C20.7972 19.4793 15.7272 12.4993 13.5772 8.30926C13.3106 7.84343 13.1703 7.316 13.1703 6.77926C13.1703 6.24252 13.3106 5.7151 13.5772 5.24926C14.6503 3.74784 16.0097 2.4734 17.5772 1.49926C18.6672 0.809262 19.5272 1.02926 20.0272 1.94926C24.6499 9.89342 29.6696 17.5998 35.0672 25.0393M3.5172 25.0393C3.20754 25.0132 2.89589 25.0537 2.60315 25.1579C2.31041 25.2622 2.04334 25.4278 1.81985 25.6438C1.59636 25.8597 1.42161 26.1209 1.30733 26.4098C1.19304 26.6988 1.14185 27.0089 1.1572 27.3193C1.24505 29.3066 1.58099 31.2752 2.1572 33.1793C2.4372 34.1793 3.3072 35.0293 5.1572 35.0393C7.2572 35.0393 55.9372 35.0393 58.9872 34.7293C60.4772 34.5693 61.8172 33.9693 62.1872 33.0393C62.8062 31.2799 63.1436 29.4338 63.1872 27.5693C63.1872 26.0093 62.6472 25.2893 60.7872 25.0993C58.9272 24.9093 10.3272 25.0393 3.5172 25.0393ZM33.1572 30.0393C33.1572 30.5915 32.7095 31.0393 32.1572 31.0393C31.6049 31.0393 31.1572 30.5915 31.1572 30.0393C31.1572 29.487 31.6049 29.0393 32.1572 29.0393C32.7095 29.0393 33.1572 29.487 33.1572 30.0393Z" stroke="#494A4A" stroke-width="2" stroke-linecap="round" stroke-linejoin="round"/>
<path id="1px" d="M11.3273 56.4292C11.5573 58.2892 12.6173 59.1992 14.0273 59.1692M54.8873 31.5492C58.8873 31.6792 59.5573 31.2392 59.7073 29.6992M25.1573 41.0392V54.0392C25.1573 56.0392 29.1573 56.0392 29.1573 54.0392V41.0392C29.1573 40.0392 25.1573 40.0392 25.1573 41.0392ZM15.1573 41.0392C15.0673 44.0392 15.1573 49.6892 16.1573 53.0392C17.0273 55.8692 20.1573 56.0392 20.1573 54.0392V41.0392C20.1573 40.0392 15.1573 40.0392 15.1573 41.0392ZM34.1573 41.0392V54.0392C34.1573 56.0392 38.1573 56.0392 38.1573 54.0392V41.0392C38.1573 40.0392 34.1573 40.0392 34.1573 41.0392ZM43.1573 41.0392V54.0392C43.1573 56.0392 46.3873 55.8592 47.1573 53.0392C48.0576 49.1068 48.3943 45.0664 48.1573 41.0392C48.0673 40.0392 43.1573 40.0392 43.1573 41.0392Z" stroke="#494A4A" stroke-linecap="round" stroke-linejoin="round"/>
</g>
</g>
<defs>
<clipPath id="clip0_426_640">
<rect width="64" height="64" fill="white" transform="translate(0.157471 0.0393066)"/>
</clipPath>
</defs>
</svg>
