<svg width="64" height="64" viewBox="0 0 64 64" fill="none" xmlns="http://www.w3.org/2000/svg">
<g id="  Pictogram-growth-2">
<g id="stroke-default">
<path id="2px" d="M19.8985 41.5995C18.2985 39.1995 16.6985 36.4995 15.0985 35.3995C12.7985 33.8995 9.59852 35.1995 11.1985 37.4995C13.9985 41.3995 16.1985 47.6995 17.7985 49.2995C19.7985 51.2995 21.6985 54.5995 27.6985 55.0995C31.5985 55.3995 40.4985 53.7995 45.0985 58.6995C48.8985 62.6995 58.7985 57.4995 56.7985 53.2995C54.9985 49.5995 51.8985 44.4995 44.3985 42.4995C38.0985 40.7995 34.2985 44.2995 30.2985 43.8995C27.6985 43.6995 25.1985 41.4995 23.7985 40.6995C20.7985 38.9995 18.1985 42.5995 20.4985 44.5995C25.6985 49.2995 27.2985 50.5995 35.5985 51.2995M10.7985 35.5995C7.49852 33.6995 5.29852 36.6995 7.09852 38.0995C11.4985 41.7995 12.0985 44.3995 18.2985 49.7995M37.8986 8.8C30.5986 11.8 24.5986 23.2 27.0986 33C27.6986 35.3 30.9986 35.8 30.1986 34.7C25.9986 29 28.4986 16.5 32.8986 12.2M28.1986 29.1C31.0986 31.1 38.4986 31 41.4986 25.5C45.3986 18.6 37.8986 13.2 45.2986 7.3C47.7986 5.3 47.3986 4 44.1986 4C23.3986 4.1 17.4986 19.6 26.1986 27.6" stroke="#494A4A" stroke-width="2" stroke-linecap="round" stroke-linejoin="round"/>
<path id="1px" d="M42.1973 44.6995C44.2973 44.6995 46.4973 45.6995 47.8973 46.9995" stroke="#494A4A" stroke-linecap="round" stroke-linejoin="round"/>
</g>
</g>
</svg>
