<svg width="64" height="64" viewBox="0 0 64 64" fill="none" xmlns="http://www.w3.org/2000/svg">
<g id="Pictogram-stored-files">
<g id="stroke-default">
<path id="2px" d="M11 22.09C11.17 19.61 12.2 17.86 14.36 17.38C15.61 17.1 18.77 16.72 20.49 16.3C23.1 15.66 24.15 14.54 24.75 11.93C25.1 10.38 25.16 7.92999 25.34 6.62999C25.6 4.74999 27.34 2.98999 30.25 2.98999M53 29.47C53.06 24.38 53.12 15.47 52.55 9.46999C52.17 5.39999 51.3 3.82999 48.06 3.52999C43.49 3.07999 34 2.99999 30.34 2.99999C25 2.99999 22 5.68999 18.69 8.99999C14.59 13.2 11 15.85 11 23.17C11 26.76 11.12 47.69 11.23 53.61C11.1907 54.2458 11.2808 54.883 11.4948 55.4829C11.7088 56.0829 12.0423 56.6333 12.4751 57.1007C12.908 57.5681 13.4311 57.9428 14.0129 58.2022C14.5947 58.4617 15.2231 58.6004 15.86 58.61C21.26 59.06 31.36 59.05 32.59 59.05M37.6 52C37.2221 52.1893 36.8859 52.4522 36.6111 52.7734C36.3363 53.0945 36.1286 53.4674 36 53.87C35.849 55.2966 35.8995 56.7374 36.15 58.15C39.04 63.25 57.93 63.28 60.78 58.15C61.1246 56.7537 61.1993 55.3043 61 53.88C60.8872 53.4657 60.6832 53.0818 60.4029 52.7565C60.1226 52.4313 59.7731 52.1728 59.38 52M37.6 44C37.2221 44.1893 36.8859 44.4522 36.6111 44.7734C36.3363 45.0945 36.1286 45.4674 36 45.87C35.849 47.2966 35.8995 48.7374 36.15 50.15C39.04 55.25 57.93 55.28 60.78 50.15C61.1246 48.7537 61.1993 47.3043 61 45.88C60.8872 45.4657 60.6832 45.0818 60.4029 44.7565C60.1226 44.4313 59.7731 44.1728 59.38 44M36 37C35.8501 38.7267 35.9005 40.4649 36.15 42.18C39.04 47.28 57.93 47.31 60.78 42.18C61.19 41.43 61.14 37.66 61 37.02C59.81 31.68 37.18 31.65 36 37Z" stroke="#494A4A" stroke-width="2" stroke-linecap="round" stroke-linejoin="round"/>
<path id="1px" d="M14.5195 51.5301C14.5195 54.4801 14.2995 55.5301 20.4595 55.5301M24.9995 25.5601C26.4195 25.4501 42.2495 25.5601 42.9995 25.5601M21.4295 31.5701C22.9495 31.4501 35.8195 31.5701 36.6295 31.5701M21.4295 37.5301C22.9495 37.4101 31.7695 37.5301 32.5795 37.5301M43.2295 40.0601C36.9995 39.2701 36.2795 37.0001 37.2695 36.0001M59.6195 35.9301C60.1595 36.5801 59.7495 37.3901 58.6195 38.1401M57.4795 48.99C57.4795 49.5368 57.2646 49.98 56.9995 49.98C56.7344 49.98 56.5195 49.5368 56.5195 48.99C56.5195 48.4432 56.7344 48 56.9995 48C57.2646 48 57.4795 48.4432 57.4795 48.99ZM57.4795 56.99C57.4795 57.5368 57.2646 57.98 56.9995 57.98C56.7344 57.98 56.5195 57.5368 56.5195 56.99C56.5195 56.4432 56.7344 56 56.9995 56C57.2646 56 57.4795 56.4432 57.4795 56.99ZM57.4795 41.01C57.4795 41.5568 57.2646 42 56.9995 42C56.7344 42 56.5195 41.5568 56.5195 41.01C56.5195 40.4633 56.7344 40.02 56.9995 40.02C57.2646 40.02 57.4795 40.4633 57.4795 41.01Z" stroke="#494A4A" stroke-linecap="round" stroke-linejoin="round"/>
</g>
</g>
</svg>
