<svg width="64" height="64" viewBox="0 0 64 64" fill="none" xmlns="http://www.w3.org/2000/svg">
<g id="Pictogram-keypad-panel">
<g id="stroke-default">
<path id="2px" d="M29.15 38.6C28.1984 37.1003 26.8606 35.8845 25.2769 35.0804C23.6933 34.2762 21.9223 33.9134 20.15 34.03C19.05 34.03 18.61 37.37 19.81 37.97C26.49 41.29 25.22 48.85 26.45 52.3C27.53 55.3 29.32 57.08 29.96 60.49C30.5 63.34 42.62 63.49 45.46 62.26C47.65 61.26 48.62 57.07 49.33 54.89C50.6875 50.6779 51.2206 46.2437 50.9 41.83C50.64 37.64 47.6 35.27 44.96 36.23M45 38C44.94 37.09 44.66 34.74 43.43 34.24C42.3392 33.9616 41.1833 34.1119 40.2 34.66M40.08 36.87C40.08 35.36 40.08 34.15 38.84 33.37C37.5454 32.8762 36.1083 32.9121 34.84 33.47M34.92 36.13C34.69 34.99 34.76 28.2 34.61 26.22C34.46 24.24 34.24 19.47 33.97 18.13C33.56 16.13 29.4 16.82 28.97 20.23C28.74 22.09 28.85 22.77 28.97 27.63C29.13 33.2 29.26 39.16 28.97 43.05M22.89 54C21.71 54 18.29 53.86 15.41 53.7C10 53.38 6 50.18 5.46 43.72C4.72 35.26 4.99 18.22 5.46 11.72C5.93 5.21997 8.96 2.21997 15.46 1.71997C26.4438 0.875487 37.4762 0.875487 48.46 1.71997C54.73 2.31997 57.8 5.23997 58.41 11.72C59.1988 22.3721 59.1988 33.0679 58.41 43.72C57.87 49.93 57.13 50.52 54.09 52.42" stroke="#494A4A" stroke-width="2" stroke-linecap="round" stroke-linejoin="round"/>
<path id="1px" d="M46.52 53.3799C46.12 54.3799 45.69 56.7399 45.24 57.4799M30.25 53.2899C29.59 52.2299 28.42 50.7899 28.69 50.0199M28.25 15.5399C27.7438 14.79 27.4755 13.9048 27.48 12.9999C27.48 10.5099 28.9 8.42995 31.99 8.48995C33.182 8.50043 34.322 8.97926 35.1639 9.82307C36.0059 10.6669 36.4822 11.808 36.49 12.9999C36.5105 13.9279 36.2603 14.8418 35.77 15.6299M21.64 43.6499C21.0811 44.4189 20.2931 44.991 19.3889 45.2844C18.4847 45.5778 17.5109 45.5773 16.607 45.2831C15.7031 44.9888 14.9156 44.4159 14.3574 43.6464C13.7993 42.877 13.4991 41.9505 13.5 40.9999C13.5 38.9999 14.2 37.4299 16.11 36.7899M11.26 48.5199C12.09 50.1099 15.13 50.5899 17.26 50.4699M26.52 7.65995C26.25 7.22995 25.72 6.99995 25.57 6.50995M29.23 6.50995C28.93 5.77995 27.61 4.08995 27.48 3.50995M31.47 5.91995C31.47 5.53995 31.47 4.80995 31.53 4.55995M22.51 13.0099C22.51 15.5008 20.4908 17.5199 18 17.5199C15.5092 17.5199 13.49 15.5008 13.49 13.0099C13.49 10.5191 15.5092 8.49995 18 8.49995C20.4908 8.49995 22.51 10.5191 22.51 13.0099ZM50.5 12.9999C50.477 14.1862 49.9955 15.3175 49.1565 16.1564C48.3175 16.9954 47.1863 17.4769 46 17.4999C42.45 17.7099 41.37 15.4999 41.49 12.9999C41.64 9.76995 43.49 8.48995 46 8.48995C46.5918 8.48995 47.1778 8.60667 47.7244 8.83344C48.271 9.06022 48.7675 9.39258 49.1855 9.8115C49.6035 10.2304 49.9348 10.7277 50.1603 11.2748C50.3859 11.8219 50.5013 12.4082 50.5 12.9999ZM22.51 27C22.51 29.49 20.69 30.92 18 31.51C15.57 32.04 13.5 29.51 13.5 27C13.5762 25.8583 14.0834 24.7883 14.9189 24.0066C15.7544 23.225 16.8558 22.7901 18 22.7901C19.1442 22.7901 20.2456 23.225 21.0811 24.0066C21.9166 24.7883 22.4239 25.8583 22.5 27H22.51ZM50.5 26.9999C50.5013 27.5917 50.3859 28.178 50.1603 28.7251C49.9348 29.2722 49.6035 29.7695 49.1855 30.1884C48.7675 30.6073 48.271 30.9397 47.7244 31.1665C47.1778 31.3932 46.5918 31.51 46 31.5099C43.51 31.5099 41.93 29.9699 41.49 26.9999C41.13 24.5399 43.49 22.4999 46 22.4999C47.1935 22.4999 48.3381 22.9741 49.182 23.818C50.0259 24.6619 50.5 25.8065 50.5 26.9999Z" stroke="#494A4A" stroke-linecap="round" stroke-linejoin="round"/>
</g>
</g>
</svg>
