<svg width="64" height="64" viewBox="0 0 64 64" fill="none" xmlns="http://www.w3.org/2000/svg">
<g id="Pictogram-location">
<g id="stroke-default">
<path id="2px" d="M36.7301 37.7399C34.9257 38.6199 33.0267 39.291 31.0701 39.7399C29.4101 39.7399 20.8601 34.8499 19.0101 34.8499C17.1601 34.8499 9.10007 37.8499 7.75007 39.7399C4.53007 44.1899 -0.18993 59.9099 1.31007 60.9199C2.81007 61.9299 10.9401 53.9999 14.4301 53.9999C17.9201 53.9999 28.5801 61.8299 31.0701 61.8299C33.5601 61.8299 44.0001 53.9299 47.2301 53.9999C50.4601 54.0699 61.7801 62.7899 62.8301 61.1499C63.8801 59.5099 59.8301 43.4699 56.2701 39.3299C54.8601 37.7099 50.8401 35.9299 47.8501 35.4999M49.7901 20.4399C49.7901 26.6999 43.5301 41.7299 41.6501 41.7299C39.7701 41.7299 33.5101 26.7299 33.5101 20.4399C33.5101 18.2811 34.3677 16.2106 35.8942 14.6841C37.4208 13.1575 39.4912 12.2999 41.6501 12.2999C43.8089 12.2999 45.8794 13.1575 47.4059 14.6841C48.9325 16.2106 49.7901 18.2811 49.7901 20.4399Z" stroke="#494A4A" stroke-width="2" stroke-linecap="round" stroke-linejoin="round"/>
<path id="1px" d="M37.0097 9.7898V6.8098M41.5197 9.2698V3.2498M46.0097 9.7898V4.7898M10.1997 44.6C13.9997 42.2 16.7997 40.2 18.5997 40.2C21.3997 40.2 28.5997 43.3 25.7997 47.7C23.4997 51.4 29.3997 53.5 31.6997 53.5C33.9997 53.5 38.2997 51.3 41.3997 49.1C48.8997 43.9 49.5997 49.7 52.9997 48.5C58.6997 46.4 55.2997 39 41.8997 42.2M46.5099 20.5399C46.5099 23.1633 44.3833 25.2899 41.7599 25.2899C39.1366 25.2899 37.0099 23.1633 37.0099 20.5399C37.0099 17.9165 39.1366 15.7899 41.7599 15.7899C44.3833 15.7899 46.5099 17.9165 46.5099 20.5399ZM24.5297 13.4298C25.9997 9.7798 21.9197 7.2898 19.1497 8.9998C16.3997 -1.7102 2.57972 3.8898 5.99972 10.5698C1.21972 7.6398 -2.32028 15.7898 4.92972 17.1498C10.5737 18.0103 16.3067 18.1213 21.9797 17.4798C33.3797 16.2998 32.9397 13.6898 24.5297 13.4298Z" stroke="#494A4A" stroke-linecap="round" stroke-linejoin="round"/>
</g>
</g>
</svg>
