<svg width="64" height="64" viewBox="0 0 64 64" fill="none" xmlns="http://www.w3.org/2000/svg">
<g id="Pictogram-customer-reports">
<g id="stroke-default">
<path id="2px" d="M15.52 51.53C15.52 50.9777 15.0723 50.53 14.52 50.53C13.9677 50.53 13.52 50.9777 13.52 51.53H15.52ZM20.46 56.53C21.0123 56.53 21.46 56.0823 21.46 55.53C21.46 54.9777 21.0123 54.53 20.46 54.53V56.53ZM10.0023 22.0216C9.96457 22.5726 10.3806 23.0499 10.9316 23.0877C11.4826 23.1254 11.9599 22.7094 11.9977 22.1584L10.0023 22.0216ZM14.36 17.38L14.5769 18.3562L14.5786 18.3558L14.36 17.38ZM20.49 16.3L20.7272 17.2714L20.7282 17.2712L20.49 16.3ZM24.75 11.93L25.7246 12.154L25.7254 12.1503L24.75 11.93ZM25.34 6.62999L26.3306 6.76714L26.3306 6.76698L25.34 6.62999ZM30.25 3.98999C30.8023 3.98999 31.25 3.54228 31.25 2.98999C31.25 2.43771 30.8023 1.98999 30.25 1.98999V3.98999ZM52.0001 30.1882C51.9936 30.7404 52.436 31.1934 52.9882 31.1999C53.5405 31.2064 53.9934 30.764 53.9999 30.2118L52.0001 30.1882ZM52.61 9.43999L51.6143 9.53295L51.6145 9.53425L52.61 9.43999ZM48.12 3.49999L48.2122 2.50425L48.2103 2.50408L48.12 3.49999ZM18.69 8.99999L17.9828 8.29283L17.9744 8.30145L18.69 8.99999ZM11.23 53.61L12.2281 53.6717C12.2297 53.645 12.2303 53.6182 12.2298 53.5914L11.23 53.61ZM15.86 58.61L15.943 57.6134C15.9204 57.6116 15.8978 57.6104 15.8751 57.6101L15.86 58.61ZM31.44 60.05C31.9923 60.05 32.44 59.6023 32.44 59.05C32.44 58.4977 31.9923 58.05 31.44 58.05V60.05ZM52.62 48C52.62 47.4477 52.1723 47 51.62 47C51.0677 47 50.62 47.4477 50.62 48H52.62ZM59.9 54L60.4387 53.1575L60.4316 53.1529L60.4244 53.1485L59.9 54ZM36.87 54.16L36.3033 53.336L36.2965 53.3408L36.87 54.16ZM46.3 48C46.3 47.4477 45.8523 47 45.3 47C44.7477 47 44.3 47.4477 44.3 48H46.3ZM13.52 51.53C13.52 52.218 13.5032 52.9387 13.5926 53.5453C13.6886 54.1971 13.9229 54.8603 14.5182 55.3859C15.0796 55.8815 15.845 56.1484 16.7647 56.3055C17.6946 56.4645 18.903 56.53 20.46 56.53V54.53C18.937 54.53 17.8629 54.4642 17.1016 54.3341C16.33 54.2022 15.9954 54.0222 15.8418 53.8866C15.7221 53.7809 15.6264 53.6285 15.5712 53.2538C15.5093 52.8337 15.52 52.317 15.52 51.53H13.52ZM11.9977 22.1584C12.0751 21.0288 12.3434 20.1614 12.7608 19.5471C13.162 18.9567 13.738 18.5426 14.5769 18.3562L14.1431 16.4038C12.822 16.6974 11.803 17.3983 11.1067 18.4229C10.4266 19.4236 10.0949 20.6712 10.0023 22.0216L11.9977 22.1584ZM14.5786 18.3558C15.1624 18.225 16.2157 18.0671 17.404 17.8804C18.5564 17.6993 19.8192 17.4932 20.7272 17.2714L20.2528 15.3285C19.4408 15.5268 18.2636 15.7207 17.0935 15.9046C15.9593 16.0829 14.8076 16.2549 14.1414 16.4042L14.5786 18.3558ZM20.7282 17.2712C22.1263 16.9284 23.2457 16.4246 24.0925 15.549C24.9366 14.6763 25.4055 13.5419 25.7246 12.154L23.7754 11.7059C23.4945 12.9281 23.1384 13.6587 22.655 14.1585C22.1743 14.6554 21.4637 15.0316 20.2518 15.3288L20.7282 17.2712ZM25.7254 12.1503C25.9176 11.2994 26.0243 10.2354 26.1053 9.26982C26.1896 8.2639 26.2455 7.38154 26.3306 6.76714L24.3495 6.49284C24.2545 7.17844 24.1904 8.17108 24.1122 9.10266C24.0307 10.0746 23.9324 11.0106 23.7746 11.7097L25.7254 12.1503ZM26.3306 6.76698C26.5139 5.44111 27.7769 3.98999 30.25 3.98999V1.98999C26.9031 1.98999 24.6861 4.05888 24.3494 6.493L26.3306 6.76698ZM53.9999 30.2118C54.0597 25.1429 54.1817 15.4309 53.6055 9.34573L51.6145 9.53425C52.1783 15.4891 52.0603 25.0771 52.0001 30.1882L53.9999 30.2118ZM53.6057 9.34703C53.4154 7.30946 53.092 5.65305 52.2515 4.47531C51.3465 3.20733 49.9849 2.66839 48.2122 2.50425L48.0278 4.49573C49.4951 4.63159 50.1885 5.02765 50.6235 5.63717C51.123 6.33693 51.4246 7.50052 51.6143 9.53295L53.6057 9.34703ZM48.2103 2.50408C43.5269 2.07923 33.9897 1.99999 30.34 1.99999V3.99999C34.0103 3.99999 43.4531 4.08075 48.0297 4.4959L48.2103 2.50408ZM30.34 1.99999C24.565 1.99999 21.3103 4.9655 17.9829 8.29288L19.3971 9.7071C22.6897 6.41448 25.435 3.99999 30.34 3.99999V1.99999ZM17.9744 8.30145C15.9924 10.3318 13.9546 12.1547 12.477 14.358C10.9522 16.6316 10 19.3194 10 23.17H12C12 19.7005 12.8428 17.4034 14.138 15.472C15.4804 13.4703 17.2876 11.8681 19.4056 9.69853L17.9744 8.30145ZM10 23.17C10 26.7624 10.12 47.6995 10.2302 53.6286L12.2298 53.5914C12.12 47.6805 12 26.7575 12 23.17H10ZM10.2319 53.5483C10.1843 54.3191 10.2935 55.0915 10.5529 55.8189L12.4367 55.147C12.2681 54.6744 12.1971 54.1725 12.2281 53.6717L10.2319 53.5483ZM10.5529 55.8189C10.8124 56.5463 11.2167 57.2135 11.7414 57.7801L13.2089 56.4212C12.868 56.0531 12.6053 55.6196 12.4367 55.147L10.5529 55.8189ZM11.7414 57.7801C12.2661 58.3467 12.9003 58.8011 13.6056 59.1156L14.4201 57.2889C13.9619 57.0846 13.5498 56.7894 13.2089 56.4212L11.7414 57.7801ZM13.6056 59.1156C14.311 59.4301 15.0727 59.5982 15.8449 59.6099L15.8751 57.6101C15.3734 57.6025 14.8784 57.4933 14.4201 57.2889L13.6056 59.1156ZM15.777 59.6065C21.2273 60.0607 30.2236 60.05 31.44 60.05V58.05C30.1964 58.05 21.2927 58.0592 15.943 57.6134L15.777 59.6065ZM50.62 48C50.62 49.3835 51.0251 50.4717 51.7476 51.3159C52.4478 52.1343 53.3809 52.6459 54.3012 53.0183C55.2092 53.3856 56.229 53.662 57.0939 53.9272C58.0016 54.2054 58.7716 54.4794 59.3756 54.8514L60.4244 53.1485C59.5834 52.6305 58.5959 52.2958 57.6802 52.015C56.7216 51.7211 55.8521 51.4882 55.0513 51.1642C54.2629 50.8453 53.6678 50.4838 53.2671 50.0156C52.8886 49.5733 52.62 48.9615 52.62 48H50.62ZM59.3613 54.8425C59.4605 54.9059 59.6454 55.0933 59.8672 55.4955C60.0782 55.878 60.2783 56.3736 60.4511 56.9395C60.7981 58.0761 61 59.38 61 60.39H63C63 59.16 62.7619 57.6589 62.3639 56.3555C62.1642 55.7013 61.9156 55.0682 61.6185 54.5295C61.3321 54.0104 60.9495 53.4841 60.4387 53.1575L59.3613 54.8425ZM61 60.39C61 60.2401 61.0823 60.1943 61.0107 60.2619C60.9316 60.3365 60.759 60.4542 60.4425 60.5912C59.8145 60.8632 58.853 61.1136 57.6152 61.322C55.1581 61.7358 51.8431 61.9475 48.5 61.9475C45.1569 61.9475 41.8419 61.7358 39.3848 61.322C38.147 61.1136 37.1855 60.8632 36.5575 60.5912C36.241 60.4542 36.0684 60.3365 35.9893 60.2619C35.9177 60.1943 36 60.2401 36 60.39H34C34 60.9661 34.2932 61.4115 34.6171 61.7169C34.9336 62.0153 35.341 62.2439 35.7628 62.4266C36.6114 62.794 37.7592 63.0764 39.0527 63.2942C41.6581 63.733 45.0931 63.9475 48.5 63.9475C51.9069 63.9475 55.3419 63.733 57.9473 63.2942C59.2408 63.0764 60.3886 62.794 61.2372 62.4266C61.659 62.2439 62.0664 62.0153 62.3829 61.7169C62.7068 61.4115 63 60.9661 63 60.39H61ZM36 60.39C36 59.4457 36.1773 58.1702 36.4867 57.0451C36.6408 56.4849 36.8198 55.991 37.0094 55.6091C37.2115 55.2021 37.3745 55.0275 37.4435 54.9792L36.2965 53.3408C35.8155 53.6775 35.4697 54.2128 35.2181 54.7196C34.954 55.2515 34.7342 55.8751 34.5583 56.5148C34.2077 57.7898 34 59.2442 34 60.39H36ZM37.4367 54.9839C38.0126 54.5878 38.7673 54.306 39.6784 54.0311C40.5353 53.7726 41.5914 53.5058 42.5111 53.154C43.4529 52.7936 44.417 52.2893 45.1411 51.449C45.8875 50.5829 46.3 49.4531 46.3 48H44.3C44.3 49.0468 44.015 49.6921 43.6261 50.1435C43.2149 50.6206 42.6059 50.9763 41.7964 51.286C40.9649 51.6041 40.0915 51.8174 39.1007 52.1164C38.1639 52.399 37.1524 52.7521 36.3033 53.336L37.4367 54.9839ZM48.5 50C50.2242 50 51.8774 48.9794 53.0585 47.2487C54.2443 45.511 55 43.0117 55 39.84H53C53 42.7082 52.3157 44.789 51.4065 46.1213C50.4926 47.4606 49.3958 48 48.5 48V50ZM55 39.84C55 37.4005 54.4462 35.4271 53.2915 34.049C52.1135 32.6432 50.4311 32 48.5 32V34C49.9689 34 51.0365 34.4718 51.7585 35.3335C52.5038 36.2229 53 37.6695 53 39.84H55ZM48.5 32C46.5689 32 44.8865 32.6432 43.7085 34.049C42.5538 35.4271 42 37.4005 42 39.84H44C44 37.6695 44.4962 36.2229 45.2415 35.3335C45.9635 34.4718 47.0311 34 48.5 34V32ZM42 39.84C42 43.0117 42.7557 45.511 43.9415 47.2487C45.1226 48.9794 46.7758 50 48.5 50V48C47.6042 48 46.5074 47.4606 45.5935 46.1213C44.6843 44.789 44 42.7082 44 39.84H42Z" fill="#494A4A"/>
<path id="1px" d="M21.5297 34.57C22.9497 34.45 36.7497 34.57 37.5297 34.57M24.8397 25C25.9697 23.59 27.1997 22.08 28.0897 20.92M31.0497 20.8C32.3397 22.09 33.8397 23.16 34.9697 24.25M38.0997 24.29C39.4997 22.85 40.6297 21.53 42.1697 20.01M21.4297 40.58C22.9497 40.45 36.6997 40.58 37.4997 40.58M21.4297 46.54C22.9497 46.41 32.5497 46.54 33.3497 46.54M25.4997 26.48C25.4997 27.5846 24.6043 28.48 23.4997 28.48C22.3951 28.48 21.4997 27.5846 21.4997 26.48C21.4997 25.3755 22.3951 24.48 23.4997 24.48C24.6043 24.48 25.4997 25.3755 25.4997 26.48ZM38.5197 25.51C38.5197 26.6146 37.6243 27.51 36.5197 27.51C35.4151 27.51 34.5197 26.6146 34.5197 25.51C34.5197 24.4055 35.4151 23.51 36.5197 23.51C37.6243 23.51 38.5197 24.4055 38.5197 25.51ZM31.5197 19.53C31.5197 20.6346 30.6243 21.53 29.5197 21.53C28.4151 21.53 27.5197 20.6346 27.5197 19.53C27.5197 18.4255 28.4151 17.53 29.5197 17.53C30.6243 17.53 31.5197 18.4255 31.5197 19.53ZM45.4997 18.53C45.4997 19.6346 44.6043 20.53 43.4997 20.53C42.3951 20.53 41.4997 19.6346 41.4997 18.53C41.4997 17.4255 42.3951 16.53 43.4997 16.53C44.6043 16.53 45.4997 17.4255 45.4997 18.53Z" stroke="#494A4A" stroke-linecap="round" stroke-linejoin="round"/>
</g>
</g>
</svg>
