<svg width="64" height="64" viewBox="0 0 64 64" fill="none" xmlns="http://www.w3.org/2000/svg">
<g id="Pictogram-air-balloon">
<g id="stroke-default">
<path id="2px" d="M25.7 50.35C24.12 48.25 11 31.45 11 20.42C11 9.39 24.12 4.15 32 4.15M32 4.15C39.88 4.15 53 9.4 53 20.42C53 31.44 39.87 48.25 38.3 50.35M32 4.15C22.55 4.15 16.25 13.07 16.25 19.9C16.25 26.2 19.92 37.23 28.32 50.35M32 4.15C26.22 4.15 18.35 20.42 30.95 50.35M32 4.15C41.45 4.15 47.75 13.08 47.75 19.9C47.75 26.2 44.07 37.23 35.67 50.35M32 4.15V1M32 4.15C37.77 4.15 45.65 20.43 33 50.35M38.3 51.4H25.7M28 57.06C27.47 57.61 28 61.99 29.06 62.54C30.9746 63.0901 33.0054 63.0901 34.92 62.54C36 62 36.52 57.61 36 57.06C35.48 56.51 28.54 56.51 28 57.06Z" stroke="#494A4A" stroke-width="2" stroke-linecap="round" stroke-linejoin="round"/>
<path id="1px" d="M23.9998 49.22C20.6898 50.15 10.7998 50.22 6.99983 49.69C-2.44017 48.49 -0.590165 43.2 8.99984 42.51C7.51983 37.76 12.8098 34.23 15.3998 35.14M25.6998 51.4L28.3198 57.17M38.2998 51.4L35.6698 57.17M8.59983 44.46C8.78384 43.4913 9.28438 42.6111 10.0229 41.9577C10.7613 41.3043 11.6959 40.9147 12.6798 40.85M56.2298 14.28C57.4845 17.5701 57.7316 21.1591 56.9398 24.59M59.3998 17C60.1279 19.2026 60.2658 21.5575 59.7998 23.83M43.5398 55.13C47.0498 56.54 54.8698 56.58 57.7898 55.66C61.8398 54.37 61.1198 52.96 57.0498 52.14C56.5198 45.62 48.6598 45.62 47.7698 51.14C42.7998 49.25 40.6098 54 43.5398 55.13Z" stroke="#494A4A" stroke-linecap="round" stroke-linejoin="round"/>
</g>
</g>
</svg>
