<svg width="65" height="65" viewBox="0 0 65 65" fill="none" xmlns="http://www.w3.org/2000/svg">
<g id="Pictogram-shopping-basket2" clip-path="url(#clip0_426_617)">
<g id="stroke-default">
<path id="2px" d="M61.3689 35.9693C61.7534 35.7637 62.0902 35.4792 62.3573 35.1346C62.6244 34.79 62.8158 34.3929 62.9189 33.9693C63.203 32.5972 63.203 31.1814 62.9189 29.8093C62.7036 29.1262 62.3135 28.5112 61.7873 28.0254C61.2611 27.5395 60.617 27.1996 59.9189 27.0393C52.4689 24.4793 36.0789 21.1993 30.3089 20.3093C27.6537 19.9986 24.975 19.9417 22.3089 20.1393C15.9731 20.8021 9.7021 21.9827 3.55894 23.6693C2.86593 23.8126 2.24249 24.1879 1.7916 24.7333C1.34071 25.2788 1.08932 25.9617 1.07894 26.6693C1.06837 27.8452 1.12848 29.0206 1.25894 30.1893C1.42894 31.6993 1.98894 32.7293 3.07894 33.1193C3.32211 39.0584 3.96018 44.9748 4.98894 50.8293C5.27894 52.3093 6.37894 53.5093 8.55894 54.5693C13.2189 56.7993 26.7089 60.4993 32.3689 61.4993C35.6463 62.1333 39.0077 62.2043 42.3089 61.7093C46.8889 60.9993 52.9089 59.3193 56.0789 57.4993C57.1609 57.0127 58.0981 56.2539 58.7992 55.2969C59.5003 54.34 59.9412 53.2176 60.0789 52.0393C60.9683 46.754 61.37 41.3981 61.2789 36.0393M26.7289 3.81927C28.9689 3.81927 30.3689 4.36928 31.3989 6.14928C34.1389 10.8893 37.2589 19.0693 39.3989 25.2993M16.0789 30.3193C13.3589 25.4093 8.48894 13.9193 7.69894 10.0893C7.29894 8.08928 7.82894 6.91928 10.5289 6.08928L11.5289 5.80927M3.07894 23.8393C1.57894 24.6693 1.37894 26.2893 4.91894 27.3793C14.2189 30.0621 23.6685 32.1957 33.2189 33.7693C36.9215 34.3432 40.683 34.4339 44.4089 34.0393C50.1789 33.4293 56.4789 32.2893 59.8089 30.8493C61.6589 30.0493 61.7389 27.9093 60.2589 27.2493" stroke="#494A4A" stroke-width="2" stroke-linecap="round" stroke-linejoin="round"/>
<path id="1px" d="M32.4287 33.2793C32.4287 33.2793 32.4287 31.4593 32.2987 30.6793C32.1687 29.8993 28.8787 29.1193 28.8887 30.1093C28.8887 30.6093 29.0087 32.7093 29.0087 32.7093M38.3187 33.9693C38.3187 33.9693 38.3187 32.7793 38.2587 32.2593C38.1087 31.2593 34.8387 30.7193 34.8687 31.4493C34.8987 32.1793 34.9287 33.4493 34.9287 33.4493M44.3387 33.6593C44.1987 32.6593 40.9187 32.1193 40.9487 32.8493C40.9787 33.5793 41.0187 34.1393 41.0187 34.1393M8.92874 28.5193C12.8087 27.7193 18.3487 26.6593 23.0587 26.1693C25.4898 26.0154 27.9304 26.1802 30.3187 26.6593C37.4187 27.7993 53.6687 31.5993 55.8787 32.1693M2.45874 32.1693C9.12874 35.1693 23.0587 38.1693 33.1087 39.8193C36.5918 40.4144 40.1439 40.4885 43.6487 40.0393C48.5496 39.4869 53.3834 38.4484 58.0787 36.9393C59.5664 36.5408 60.9376 35.7935 62.0787 34.7593M11.4787 3.22926C15.4443 2.19361 19.5055 1.56701 23.5987 1.35926C26.2087 1.25926 27.3287 5.55926 24.8887 6.53926C23.5587 7.03926 16.3587 8.03926 12.8887 8.17926M57.0787 48.9293C57.0787 52.1493 56.7687 53.1793 54.2087 54.2293M7.12874 37.6693C7.27331 40.3489 7.55702 43.0191 7.97874 45.6693C8.55874 48.5893 11.3387 49.8993 11.2487 48.7393C10.9887 45.3193 10.7987 40.4493 10.5287 38.4393C10.4287 37.7393 7.12874 36.6893 7.12874 37.6693ZM29.8887 43.2393C30.0817 46.0557 29.9778 48.8846 29.5787 51.6793C29.0787 54.4493 26.2387 54.2793 26.1187 53.1293C25.8887 50.9293 25.6087 45.1893 25.6087 42.2693C25.5987 41.4893 29.8387 42.6693 29.8887 43.2393ZM12.9987 39.1493C13.1387 42.2693 13.5487 46.7393 13.9987 49.6893C14.1587 50.6893 17.1087 51.8193 17.0587 50.6893C16.9187 47.8393 16.6587 42.3493 16.3687 40.3293C16.2087 39.2993 12.9687 38.4193 12.9987 39.1493ZM18.8487 40.6993C18.936 44.3311 19.2701 47.9528 19.8487 51.5393C20.0487 52.5393 23.3987 53.6693 23.3387 52.5393C23.1787 49.6893 22.9787 43.8293 22.7987 41.7993C22.7587 40.8193 18.8287 40.0393 18.8487 40.6993ZM10.5487 6.09926C9.90874 2.83926 12.9187 1.84926 13.6387 5.36926C14.3087 8.64926 11.1987 9.46926 10.5487 6.09926Z" stroke="#494A4A" stroke-linecap="round" stroke-linejoin="round"/>
</g>
</g>
<defs>
<clipPath id="clip0_426_617">
<rect width="64" height="64" fill="white" transform="translate(0.0786133 0.0393066)"/>
</clipPath>
</defs>
</svg>
