<svg width="64" height="64" viewBox="0 0 64 64" fill="none" xmlns="http://www.w3.org/2000/svg">
<g id="Pictogram-security-code">
<g id="stroke-default">
<path id="2px-stroke-default" d="M33.9001 19.2998C33.6001 21.7998 30.1001 35.3998 30.1001 37.5998M25.2998 23.2998C25.2998 23.2998 19.7998 27.6998 19.7998 28.7998C19.7998 29.8998 25.2998 34.2998 25.2998 34.2998M38.5 34.2002C38.5 34.2002 44 29.8002 44 28.7002C44 27.6002 38.5 23.2002 38.5 23.2002M32.5002 60.9002C47.7002 56.7002 62.6002 36.7002 56.8002 11.4002C46.4002 7.3002 36.3002 3.2002 32.5002 3.2002C28.7002 3.2002 17.5002 7.2002 7.20017 11.3002C2.60017 34.3002 11.9002 54.3002 32.5002 60.8002V60.9002Z" stroke="#494A4A" stroke-width="2" stroke-linecap="round" stroke-linejoin="round"/>
<path id="1px-stroke-default" d="M52.9999 31.2001C53.5999 28.1001 53.7999 24.9001 53.5999 21.4001C53.4999 19.2001 53.0999 16.9001 52.5999 14.6001C51.3999 14.1001 50.0999 13.6001 48.8999 13.1001M26.6001 53.8998C28.4001 54.7998 30.2001 55.5998 32.2001 56.2998C34.1001 55.7998 36.0001 54.8998 37.9001 53.7998M40.7001 10.0002C37.0001 8.6002 33.9001 7.7002 32.3001 7.7002C30.7001 7.7002 27.8001 8.5002 24.2001 9.7002C23.3001 10.0002 22.3001 10.3002 21.3001 10.7002C20.3001 11.1002 19.2001 11.5002 18.1001 11.9002C15.8001 12.8002 13.5001 13.7002 11.1001 14.6002C10.6001 17.2002 10.3001 19.8002 10.2001 22.4002C10.1001 25.0002 10.2001 27.4002 10.5001 29.8002C11.0001 33.3002 11.9001 36.6002 13.3001 39.7002" stroke="#494A4A" stroke-linecap="round" stroke-linejoin="round"/>
</g>
</g>
</svg>
