<svg width="64" height="64" viewBox="0 0 64 64" fill="none" xmlns="http://www.w3.org/2000/svg">
<g id="Pictogram-bike-ski">
<g id="stroke-default">
<path id="2px" d="M16.2002 29V28M20.3999 28V29M16.2002 22.6V16H20.4002V22.6M7.80006 24.2995C7.80006 24.2995 2.10006 24.2995 2.30006 19.9995C2.50006 16.7995 4.20006 15.8995 16.1001 15.9995M28.8 24.2995C28.8 24.2995 34.5 24.2995 34.3 19.9995C34.1 16.7995 32.4 15.8995 20.5 15.9995M46.0999 24.3001C46.0999 19.0001 46.0999 17.1001 46.3999 11.8001C46.6999 5.00014 52.2999 3.30014 52.6999 3.80014C52.8999 4.10014 51.6999 6.40014 51.4999 11.8001C51.4999 13.2001 51.2999 15.3001 51.3999 16.7001M51.8999 37.8001C51.8999 43.9001 51.6999 54.7001 51.4999 60.7001C51.4999 61.3001 51.0999 61.7001 50.6999 61.8001C49.4999 62.0001 48.3999 62.0001 47.1999 61.8001C46.6999 61.8001 46.3999 61.3001 46.3999 60.7001C46.3999 58.7001 46.3999 48.0001 46.3999 45.9001M45.6999 31.3001C49.7999 25.4001 54.0999 18.7001 57.1999 13.9001C59.4999 10.3001 59.9999 6.90014 60.4999 7.40014C61.6999 8.50014 63.6999 13.5001 61.7999 17.0001C58.9999 22.0001 54.2999 28.3001 50.1999 34.4001M48.0999 37.3001C42.6999 45.3001 35.9999 54.7001 31.7999 60.7001C31.4999 61.2001 30.8999 61.3001 30.4999 61.2001C28.9999 60.7001 27.6999 59.6001 27.1999 58.9001C26.8999 58.5001 26.7999 58.0001 27.1999 57.5001C31.9999 50.8001 39.6999 40.0001 43.4999 34.9001M18.3998 62C17.3998 62 16.4998 61 16.4998 59.7C16.0998 53.9 15.8998 47.8 16.4998 36.3C16.4998 35 17.3998 34 18.3998 34C19.3998 34 20.2998 35 20.2998 36.3C20.7998 45.1 20.6998 52.7 20.2998 59.7C20.2998 61 19.3998 62 18.3998 62Z" stroke="#494A4A" stroke-width="2" stroke-linecap="round" stroke-linejoin="round"/>
<path id="1px" d="M13.5002 50.6002C12.9002 49.6002 13.2002 42.9002 13.5002 35.6002C13.5002 32.9002 15.7002 30.7002 18.4002 30.7002C21.1002 30.7002 23.3002 32.9002 23.3002 35.6002C23.6002 40.6002 23.9002 45.7002 23.3002 50.6002M16.6001 40.4005C16.6001 40.4005 17.5001 40.2005 18.2001 40.3005M17.1001 46.6001C17.1001 46.6001 19.0001 46.5001 20.4001 46.6001M16.6001 51.2002C16.6001 51.2002 17.5001 51.5002 18.2001 51.4002M18.7998 56.4998C18.7998 56.4998 19.6998 56.4998 20.3998 56.2998M17.5 58.2002C17.5 58.2002 18.4 58.2002 19.1 58.2002M17.6001 37.0996C17.6001 37.0996 18.5001 37.0996 19.2001 37.0996M19.6999 25.3004C19.6999 26.0736 19.0731 26.7004 18.2999 26.7004C17.5267 26.7004 16.8999 26.0736 16.8999 25.3004C16.8999 24.5272 17.5267 23.9004 18.2999 23.9004C19.0731 23.9004 19.6999 24.5272 19.6999 25.3004ZM44.9002 35.2002C44.9002 35.2002 41.9002 33.7002 43.0002 32.6002C44.1002 31.5002 45.9002 31.4002 47.9002 32.6002C49.9002 33.8002 50.8002 36.9002 49.4002 36.8002C48.0002 36.7002 45.9002 35.8002 44.9002 35.1002V35.2002Z" stroke="#494A4A" stroke-linecap="round" stroke-linejoin="round"/>
</g>
</g>
</svg>
