<svg width="64" height="64" viewBox="0 0 64 64" fill="none" xmlns="http://www.w3.org/2000/svg">
<g id="Pictogram-report-undo">
<g id="stroke-default">
<path id="2px" d="M10.0033 23.0276C9.96331 23.5784 10.3774 24.0574 10.9283 24.0974C11.4791 24.1374 11.9581 23.7232 11.998 23.1724L10.0033 23.0276ZM14.3707 18.39L14.5876 19.3662L14.5892 19.3658L14.3707 18.39ZM20.5007 17.3L20.2616 16.329L20.2581 16.3299L20.5007 17.3ZM24.7607 12.93L25.7354 13.1532L25.7358 13.1516L24.7607 12.93ZM25.3507 7.64L26.3411 7.7782L26.3419 7.77182L25.3507 7.64ZM30.2607 5C30.8129 5 31.2607 4.55228 31.2607 4C31.2607 3.44772 30.8129 3 30.2607 3V5ZM36.9887 59.9999C37.5409 60.0066 37.994 59.5642 38.0006 59.012C38.0072 58.4598 37.5649 58.0067 37.0127 58.0001L36.9887 59.9999ZM16.5207 58.67L16.5823 57.6719L16.5816 57.6719L16.5207 58.67ZM11.0607 52.38L10.0608 52.3969L10.0608 52.3979L11.0607 52.38ZM18.6307 10.08L19.3412 10.7837L19.3472 10.7775L18.6307 10.08ZM48.0007 4.51L47.907 5.50561L47.9112 5.50599L48.0007 4.51ZM52.4907 10.44L51.495 10.5332L51.4952 10.5354L52.4907 10.44ZM51.9807 36.999C51.9801 37.5513 52.4274 37.9995 52.9797 38C53.532 38.0005 53.9801 37.5533 53.9807 37.001L51.9807 36.999ZM38.0007 11L38.2091 10.022L38.2014 10.0203L38.1937 10.0188L38.0007 11ZM62.0007 42L62.0855 41.0036C62.0711 41.0024 62.0568 41.0015 62.0424 41.0009L62.0007 42ZM44.3607 43.05V44.05C44.368 44.05 44.3753 44.0499 44.3826 44.0498L44.3607 43.05ZM43.1007 39.04L43.1689 38.0423C43.1548 38.0414 43.1406 38.0407 43.1265 38.0403L43.1007 39.04ZM43.3007 56.97L42.8606 56.072C42.854 56.0753 42.8474 56.0786 42.8408 56.082L43.3007 56.97ZM43.9507 53.65L42.9825 53.3995C42.974 53.4326 42.9671 53.4661 42.962 53.4998L43.9507 53.65ZM44.5607 53.04V52.04C44.4762 52.04 44.392 52.0507 44.3102 52.0719L44.5607 53.04ZM62.9407 54.28L63.8485 54.6993L63.849 54.6981L62.9407 54.28ZM58.9407 48L57.9429 47.9327C57.9414 47.9551 57.9407 47.9776 57.9407 48H58.9407ZM11.998 23.1724C12.0801 22.0417 12.3506 21.1732 12.7697 20.5579C13.1724 19.9667 13.7488 19.5526 14.5876 19.3662L14.1537 17.4138C12.8325 17.7074 11.814 18.4083 11.1167 19.4321C10.4357 20.4318 10.1012 21.6783 10.0033 23.0276L11.998 23.1724ZM14.5892 19.3658C15.1736 19.2349 16.2263 19.0772 17.4157 18.889C18.5683 18.7066 19.8329 18.4977 20.7432 18.2701L20.2581 16.3299C19.4484 16.5323 18.273 16.7284 17.1031 16.9135C15.97 17.0928 14.8178 17.2651 14.1521 17.4142L14.5892 19.3658ZM20.7397 18.271C22.1312 17.9285 23.25 17.4277 24.0982 16.5541C24.9442 15.6826 25.4161 14.5477 25.7354 13.1532L23.7859 12.7068C23.5052 13.9323 23.1472 14.6624 22.6632 15.1609C22.1813 15.6573 21.4701 16.0315 20.2616 16.329L20.7397 18.271ZM25.7358 13.1516C25.9282 12.3048 26.035 11.2399 26.1159 10.2748C26.2003 9.26853 26.2561 8.3869 26.3411 7.7782L24.3603 7.5018C24.2652 8.1831 24.201 9.17648 24.1229 10.1077C24.0414 11.0801 23.9431 12.0152 23.7855 12.7084L25.7358 13.1516ZM26.3419 7.77182C26.5172 6.45408 27.7832 5 30.2607 5V3C26.9181 3 24.6842 5.06592 24.3594 7.50818L26.3419 7.77182ZM37.0127 58.0001C31.9826 57.9397 19.1393 57.8299 16.5823 57.6719L16.459 59.6681C19.082 59.8301 32.0187 59.9403 36.9887 59.9999L37.0127 58.0001ZM16.5816 57.6719C14.9884 57.5746 13.939 57.1661 13.2601 56.4422C12.5749 55.7116 12.0983 54.4807 12.0605 52.3621L10.0608 52.3979C10.103 54.7593 10.6364 56.5684 11.8013 57.8103C12.9723 59.0589 14.6129 59.5554 16.4597 59.6681L16.5816 57.6719ZM12.0605 52.3631C11.9607 46.4534 11.9307 27.8031 11.9307 24.22H9.93066C9.93066 27.7969 9.96063 46.4666 10.0608 52.3969L12.0605 52.3631ZM11.9307 24.22C11.9307 20.7506 12.7759 18.4462 14.0732 16.5152C15.416 14.5165 17.2263 12.9192 19.3412 10.7837L17.9201 9.37633C15.935 11.3808 13.8954 13.1935 12.4131 15.3998C10.8854 17.6738 9.93066 20.3694 9.93066 24.22H11.9307ZM19.3472 10.7775C22.6111 7.42438 25.4374 5 30.2707 5V3C24.5639 3 21.2302 5.97562 17.9141 9.3825L19.3472 10.7775ZM30.2707 5C34.012 5 43.3926 5.08084 47.907 5.5056L48.0943 3.5144C43.4687 3.07916 33.9893 3 30.2707 3V5ZM47.9112 5.50599C49.3708 5.63704 50.0646 6.0326 50.501 6.6429C51.0016 7.34304 51.3054 8.50726 51.495 10.5332L53.4863 10.3468C53.2959 8.31274 52.9697 6.65696 52.1279 5.4796C51.2217 4.2124 49.8605 3.67296 48.0901 3.51401L47.9112 5.50599ZM51.4952 10.5354C51.8095 13.8157 51.9907 26.6681 51.9807 36.999L53.9807 37.001C53.9906 26.7119 53.8118 13.7443 53.4861 10.3446L51.4952 10.5354ZM37.7922 11.978C37.6581 11.9495 37.5664 11.8932 37.5187 11.8579C37.4941 11.8397 37.477 11.824 37.467 11.814C37.4568 11.804 37.4515 11.7976 37.4507 11.7966C37.45 11.7957 37.4593 11.8072 37.4774 11.8372C37.495 11.8663 37.5166 11.9058 37.542 11.9575C37.6503 12.1778 37.7663 12.4935 37.8946 12.8729C38.013 13.2229 38.1482 13.6474 38.2714 13.9785C38.3345 14.1479 38.406 14.3255 38.4855 14.4836C38.5489 14.6095 38.6787 14.8534 38.9005 15.0382L40.1808 13.5018C40.2976 13.5991 40.3197 13.6792 40.2723 13.5851C40.2412 13.5231 40.1992 13.4243 40.1458 13.2809C40.0362 12.9863 39.927 12.6396 39.7892 12.2321C39.6613 11.854 39.5092 11.4259 39.3371 11.0757C39.2517 10.9017 39.141 10.7042 38.9988 10.5303C38.8724 10.3759 38.6158 10.1086 38.2091 10.022L37.7922 11.978ZM38.9005 15.0382C39.1554 15.2507 39.4593 15.3211 39.6003 15.3505C39.783 15.3886 39.9814 15.4095 40.1652 15.4231C40.529 15.4499 40.9744 15.4559 41.3477 15.4659C41.7518 15.4767 42.0784 15.4922 42.3033 15.5269C42.4206 15.545 42.4449 15.5592 42.4183 15.5475C42.4022 15.5404 42.3367 15.5103 42.2597 15.4398C42.1766 15.3637 42.0698 15.2297 42.0205 15.0325L43.9608 14.5475C43.8294 14.0219 43.4029 13.7959 43.2263 13.718C43.0146 13.6245 42.7878 13.578 42.6083 13.5503C42.2398 13.4934 41.7908 13.477 41.4012 13.4666C40.9807 13.4554 40.6142 13.4507 40.3121 13.4285C40.1629 13.4175 40.0648 13.4043 40.0081 13.3925C39.9096 13.372 40.0309 13.3768 40.1808 13.5018L38.9005 15.0382ZM42.0205 15.0325C41.9759 14.854 42.0009 14.7104 42.0209 14.6371C42.0406 14.5646 42.0648 14.5243 42.066 14.5223C42.0664 14.5217 42.0388 14.5644 41.9521 14.6561C41.7834 14.8347 41.5256 15.0595 41.2156 15.3169C40.9286 15.5552 40.5808 15.8342 40.3189 16.0622C40.185 16.1788 40.0479 16.3038 39.9325 16.4257C39.8504 16.5125 39.6561 16.7203 39.5584 16.995L41.4429 17.665C41.3852 17.8272 41.3028 17.8875 41.3853 17.8003C41.4346 17.7482 41.5149 17.6727 41.6321 17.5706C41.8724 17.3615 42.1614 17.1311 42.4932 16.8556C42.8019 16.5993 43.1448 16.3059 43.4058 16.0298C43.534 15.8942 43.6785 15.7254 43.7891 15.5376C43.8756 15.3908 44.0768 15.0114 43.9608 14.5475L42.0205 15.0325ZM39.5584 16.995C39.4916 17.183 39.4857 17.3548 39.4872 17.4547C39.4888 17.5658 39.5019 17.6708 39.5163 17.7582C39.5449 17.9321 39.5929 18.1192 39.6418 18.2922C39.7339 18.6184 39.8842 19.0764 39.9883 19.4212C40.1063 19.8126 40.1904 20.1366 40.2205 20.3691C40.2357 20.4872 40.2288 20.5241 40.2314 20.5069C40.2328 20.4979 40.2638 20.2941 40.4816 20.1269L41.6997 21.7132C42.0575 21.4384 42.17 21.0559 42.2076 20.8146C42.2465 20.5651 42.2303 20.3162 42.204 20.1128C42.1509 19.7021 42.0225 19.2399 41.9031 18.8438C41.7696 18.4011 41.6574 18.0704 41.5664 17.7484C41.5237 17.5974 41.5 17.4956 41.4898 17.4335C41.4847 17.4029 41.4866 17.403 41.487 17.4248C41.4871 17.4353 41.4897 17.5332 41.4429 17.665L39.5584 16.995ZM40.4816 20.1269C40.6988 19.9601 40.9168 19.9737 40.9801 19.9836C41.0314 19.9916 41.0236 20.0006 40.9362 19.9547C40.7635 19.8641 40.5257 19.6935 40.2129 19.4521C39.932 19.2353 39.5809 18.9532 39.2728 18.7403C39.1148 18.6311 38.9377 18.5183 38.756 18.4288C38.5913 18.3478 38.3314 18.2389 38.0288 18.2304L37.9725 20.2296C37.8474 20.2261 37.7997 20.1872 37.8726 20.2231C37.9286 20.2507 38.0145 20.3019 38.1357 20.3856C38.3861 20.5586 38.658 20.7784 38.9909 21.0354C39.2919 21.2677 39.6584 21.5428 40.0067 21.7256C40.1798 21.8165 40.4116 21.9191 40.6724 21.9598C40.9452 22.0022 41.3425 21.9874 41.6997 21.7132L40.4816 20.1269ZM38.0288 18.2304C37.7032 18.2212 37.4271 18.3322 37.2548 18.4163C37.0673 18.5079 36.8894 18.6251 36.7355 18.7359C36.4381 18.95 36.0955 19.2413 35.8312 19.4555C35.5315 19.6983 35.3056 19.8651 35.1383 19.9526C34.9019 20.0762 35.1274 19.8716 35.4474 20.07L34.3939 21.77C35.0689 22.1884 35.7682 21.8801 36.0649 21.7249C36.4307 21.5337 36.7973 21.2467 37.0901 21.0095C37.4183 20.7437 37.6682 20.5288 37.9039 20.3591C38.0166 20.278 38.0904 20.234 38.1323 20.2135C38.1895 20.1856 38.1206 20.2338 37.9725 20.2296L38.0288 18.2304ZM35.4474 20.07C35.7942 20.2849 35.6947 20.6139 35.7153 20.3743C35.7297 20.2057 35.796 19.9429 35.9152 19.5775C35.9719 19.4036 36.0339 19.2255 36.0989 19.0387C36.1624 18.8561 36.2291 18.6638 36.288 18.4795C36.3896 18.1619 36.5296 17.6944 36.5095 17.2813L34.5119 17.3787C34.5117 17.3756 34.4993 17.5069 34.383 17.8705C34.333 18.0269 34.2745 18.1958 34.2098 18.3818C34.1466 18.5636 34.0776 18.7614 34.0137 18.9575C33.8916 19.3321 33.7585 19.7855 33.7226 20.2032C33.6929 20.5498 33.6921 21.3351 34.3939 21.77L35.4474 20.07ZM36.5095 17.2813C36.4919 16.9217 36.3395 16.6345 36.2082 16.4437C36.0726 16.2466 35.9064 16.0756 35.7523 15.9348C35.4476 15.6563 35.0657 15.3855 34.7551 15.1654C34.4126 14.9226 34.1558 14.7405 33.986 14.587C33.9005 14.5097 33.8913 14.4867 33.908 14.5138C33.9203 14.5336 34.0503 14.7487 33.964 15.0585L32.0374 14.5215C31.9086 14.9838 32.0838 15.367 32.2081 15.5675C32.3369 15.7752 32.5063 15.9455 32.645 16.0708C32.9237 16.3227 33.2974 16.5836 33.5987 16.7971C33.9318 17.0332 34.2068 17.2318 34.4031 17.4111C34.4995 17.4992 34.5447 17.5543 34.5605 17.5772C34.5805 17.6064 34.5194 17.5333 34.5119 17.3787L36.5095 17.2813ZM33.964 15.0585C33.8762 15.3733 33.6479 15.4921 33.6189 15.5063C33.5842 15.5233 33.5985 15.5096 33.707 15.4922C33.918 15.4582 34.2296 15.4469 34.6286 15.4437C34.9914 15.4408 35.4388 15.4449 35.8026 15.4242C35.9877 15.4136 36.1908 15.395 36.3806 15.3561C36.5359 15.3244 36.839 15.251 37.0958 15.034L35.8055 13.506C35.9499 13.384 36.0661 13.3791 35.9798 13.3967C35.928 13.4073 35.8349 13.4191 35.6887 13.4274C35.3901 13.4445 35.0349 13.4404 34.6127 13.4438C34.2267 13.4469 33.7708 13.4562 33.3893 13.5175C33.2016 13.5477 32.9634 13.6004 32.7396 13.7099C32.5216 13.8167 32.1676 14.0542 32.0374 14.5215L33.964 15.0585ZM37.0958 15.034C37.323 14.8422 37.455 14.588 37.5206 14.4532C37.6021 14.2856 37.675 14.0971 37.7391 13.9171C37.8635 13.5674 38.0002 13.1152 38.1167 12.7564C38.2455 12.3602 38.3566 12.054 38.4547 11.8623C38.5066 11.7608 38.5197 11.763 38.4791 11.8029C38.4388 11.8426 38.1942 12.0572 37.8076 11.9812L38.1937 10.0188C37.6546 9.91276 37.2613 10.1952 37.0757 10.378C36.8898 10.5611 36.761 10.7817 36.6741 10.9515C36.4947 11.3023 36.3409 11.7498 36.2146 12.1386C36.0761 12.5648 35.9679 12.9288 35.8548 13.2467C35.8001 13.4004 35.7561 13.5084 35.7223 13.5778C35.6726 13.6799 35.6908 13.6028 35.8055 13.506L37.0958 15.034ZM62.0424 41.0009C58.6223 40.8579 55.41 41.0984 52.451 41.3834C49.4669 41.6708 46.7947 41.9963 44.3387 42.0502L44.3826 44.0498C46.9367 43.9937 49.7345 43.6542 52.6428 43.3741C55.5764 43.0916 58.6791 42.8621 61.9589 42.9991L62.0424 41.0009ZM44.3607 42.05C44.4168 42.05 44.4967 42.0609 44.5852 42.1012C44.6756 42.1424 44.7512 42.2036 44.8065 42.2728C44.9128 42.4056 44.9007 42.506 44.9007 42.46H42.9007C42.9007 42.794 42.9786 43.1894 43.2448 43.5222C43.5332 43.8827 43.9479 44.05 44.3607 44.05V42.05ZM44.9007 42.46C44.9007 42.2922 44.9203 42.0531 44.9391 41.6502C44.956 41.2879 44.968 40.8453 44.9368 40.4119C44.907 39.9974 44.8321 39.4916 44.6157 39.0539C44.3781 38.5733 43.9162 38.0934 43.1689 38.0423L43.0324 40.0377C42.8701 40.0266 42.8007 39.8954 42.8228 39.9402C42.8661 40.0278 42.9181 40.2239 42.942 40.5556C42.9645 40.8685 42.9572 41.2165 42.9413 41.557C42.9273 41.8569 42.9007 42.2328 42.9007 42.46H44.9007ZM43.1265 38.0403C42.8737 38.0338 42.6232 38.0921 42.4296 38.1485C42.2182 38.2101 41.9875 38.2962 41.7482 38.3968C41.2686 38.5984 40.6969 38.8829 40.0769 39.2214C38.8341 39.9 37.3392 40.8278 35.8978 41.832C34.4601 42.8336 33.0466 43.9314 31.9812 44.9529C31.4502 45.462 30.9807 45.9758 30.6368 46.469C30.3153 46.93 30.0007 47.5156 30.0007 48.14H32.0007C32.0007 48.1494 32.0157 47.9881 32.2773 47.6131C32.5163 47.2703 32.8831 46.8589 33.3654 46.3965C34.3266 45.4749 35.6475 44.4439 37.041 43.473C38.4308 42.5047 39.8641 41.6163 41.0354 40.9767C41.6224 40.6562 42.1292 40.4062 42.5233 40.2405C42.7208 40.1574 42.8757 40.1017 42.9891 40.0686C43.1203 40.0304 43.1339 40.0412 43.0749 40.0397L43.1265 38.0403ZM30.0007 48.14C30.0007 48.8092 30.2959 49.4416 30.6489 49.9759C31.0132 50.5272 31.5116 51.0825 32.0746 51.6198C33.2027 52.6964 34.6919 53.7971 36.188 54.7637C37.6876 55.7326 39.2306 56.5902 40.4845 57.1734C41.1082 57.4635 41.6854 57.6975 42.1633 57.8409C42.4001 57.9119 42.643 57.97 42.8717 57.9945C43.0584 58.0144 43.4177 58.0355 43.7605 57.858L42.8408 56.082C43.0436 55.977 43.1843 56.0165 43.0842 56.0058C43.0261 55.9996 42.914 55.978 42.7379 55.9252C42.39 55.8208 41.91 55.6307 41.328 55.36C40.1708 54.8217 38.7087 54.0112 37.2733 53.0838C35.8344 52.1542 34.4587 51.1305 33.4555 50.173C32.9529 49.6933 32.5691 49.2541 32.3176 48.8734C32.0548 48.4756 32.0007 48.2383 32.0007 48.14H30.0007ZM43.7407 57.868C44.2929 57.5974 44.5915 57.128 44.7477 56.6954C44.8986 56.2779 44.9425 55.8306 44.9551 55.4561C44.9678 55.0769 44.9494 54.6894 44.9384 54.3959C44.9258 54.0592 44.9263 53.8856 44.9393 53.8002L42.962 53.4998C42.915 53.8094 42.9292 54.1871 42.9398 54.4704C42.952 54.7968 42.966 55.0981 42.9562 55.3889C42.9463 55.6844 42.9128 55.8884 42.8667 56.0159C42.8261 56.1283 42.8084 56.0976 42.8606 56.072L43.7407 57.868ZM44.9188 53.9005C44.9121 53.9264 44.8986 53.95 44.8796 53.969L43.4654 52.5548C43.232 52.7882 43.0652 53.0799 42.9825 53.3995L44.9188 53.9005ZM44.8796 53.969C44.8607 53.9879 44.8371 54.0014 44.8111 54.0081L44.3102 52.0719C43.9906 52.1546 43.6989 52.3213 43.4654 52.5548L44.8796 53.969ZM44.5607 54.04C45.6628 54.04 47.27 54.244 49.142 54.5354C50.9403 54.8154 53.0996 55.196 54.9991 55.4849C56.9369 55.7796 58.8179 56.0146 60.2953 56.027C61.029 56.0331 61.7262 55.9858 62.304 55.8343C62.8479 55.6917 63.5287 55.3918 63.8485 54.6993L62.0328 53.8607C62.0952 53.7257 62.1572 53.8052 61.7968 53.8997C61.4704 53.9852 60.9778 54.0326 60.312 54.0271C58.9903 54.016 57.2331 53.8017 55.2998 53.5076C53.328 53.2077 51.3829 52.8602 49.4496 52.5592C47.5901 52.2697 45.8385 52.04 44.5607 52.04V54.04ZM63.849 54.6981C64.0691 54.2201 63.9936 53.7376 63.8922 53.4034C63.7864 53.0549 63.6049 52.7103 63.4103 52.3964C63.0197 51.7663 62.4577 51.0746 61.9231 50.4397C61.3662 49.7782 60.8415 49.1809 60.4376 48.6598C60.2378 48.4019 60.0934 48.1951 60.003 48.038C59.8898 47.8412 59.9407 47.8564 59.9407 48H57.9407C57.9407 48.4211 58.1347 48.8013 58.2696 49.0357C58.4274 49.3099 58.6363 49.6004 58.8568 49.8849C59.2936 50.4485 59.8776 51.1155 60.3932 51.7278C60.9311 52.3666 61.4053 52.958 61.7104 53.4501C61.8637 53.6974 61.9448 53.8736 61.9784 53.9844C62.0164 54.1096 61.9573 54.0249 62.0323 53.8619L63.849 54.6981ZM59.9384 48.0673C59.9325 48.1548 59.9125 48.1893 59.9324 48.1357C59.9473 48.0958 59.9753 48.0311 60.022 47.9378C60.1154 47.7513 60.2541 47.5087 60.431 47.2173C60.7878 46.6298 61.2397 45.9416 61.69 45.2321C62.1237 44.5487 62.5617 43.8366 62.8293 43.2784C62.9528 43.0207 63.095 42.6871 63.1342 42.3651C63.153 42.2105 63.1697 41.9014 62.9984 41.5894C62.7846 41.2002 62.4106 41.0313 62.0855 41.0036L61.9159 42.9964C61.7082 42.9787 61.4136 42.8585 61.2453 42.5521C61.1195 42.323 61.1479 42.1311 61.1489 42.1234C61.1523 42.0953 61.1404 42.1748 61.0258 42.4138C60.8172 42.849 60.4426 43.4651 60.0013 44.1604C59.5766 44.8297 59.091 45.5708 58.7215 46.1792C58.5354 46.4858 58.3637 46.7828 58.2338 47.0421C58.1689 47.1716 58.1071 47.3064 58.0581 47.4379C58.0142 47.5559 57.9563 47.7339 57.9429 47.9327L59.9384 48.0673Z" fill="#494A4A"/>
<path id="1px" d="M26.2305 27.53C26.9605 27.53 41.1605 27.33 42.4905 27.44M22.4905 33.49C23.7805 33.49 41.7305 33.56 42.4905 33.49M22.4905 39.5C25.1505 39.5 32.8305 39.43 33.5905 39.5M22.4905 45.52C23.9705 45.52 27.1605 45.52 27.6205 45.52M14.5205 51.53C14.5205 54.48 14.3005 55.53 20.4605 55.53M57.0505 51.62C55.5805 51.44 52.8605 50.79 52.4105 50.77M41.4505 52.79C41.6805 50.46 42.8605 49.72 45.5905 50.17" stroke="#494A4A" stroke-linecap="round" stroke-linejoin="round"/>
</g>
</g>
</svg>
