<svg width="64" height="64" viewBox="0 0 64 64" fill="none" xmlns="http://www.w3.org/2000/svg">
<g id="Pictogram-empty-folder">
<g id="stroke-default">
<path id="2px" d="M2.60024 36.4C1.80024 42 1.90024 55 2.30024 58.8C2.50024 60.9 3.90024 62.3 7.00024 62.5C14.7002 62.9 46.9002 63.4 57.3002 62.2C59.8002 61.9 61.5002 60.4 61.7002 56.8C62.0002 52.3 62.1002 43.1 60.9002 35M45.0001 23C46.1001 23 47.5001 23 49.0001 23C51.5001 23.2 52.9001 23.7 54.3001 25C56.2001 26.8 60.4001 31.3 61.1001 35.1C61.4001 36.8 61.1001 38.3 59.2001 38.5C53.6001 39.1 12.5001 39.2 5.2001 38.8C2.7001 38.7 2.4001 37.6 3.1001 35.3C4.0001 32.2 8.3001 27.2 10.0001 25.5C11.6001 23.9 12.7001 23.4 14.8001 23.2C16.7001 23 18.3001 23 19.3001 23M26.0001 2C25.7001 8.7 26.9001 14.6 27.0001 19.6C27.0001 19.9 26.8001 20.1 26.4001 20.1C25.6001 20.1 23.1001 19.7 23.0001 20.9C22.9001 22.5 29.6001 33 32.1001 33C35.2001 33 41.5001 21.8 40.9001 20.7C40.4001 19.7 38.4001 20.2 37.6001 20.1C37.3001 20.1 37.0001 19.7 37.0001 19.5C37.0001 14.7 40.5001 2.2 38.2001 1.1C36.9001 0.5 33.0001 5 31.9001 5C31.0001 5 26.0001 1.1 25.9001 2H26.0001Z" stroke="#494A4A" stroke-width="2" stroke-linecap="round" stroke-linejoin="round"/>
<path id="1px" d="M58.5004 55.5C58.6004 57.6 57.6004 59.4 55.4004 59.4M11.6004 42.2002C11.4004 42.9002 10.7004 44.8002 10.4004 45.4002M13.3006 44C13.0006 45 12.4006 46.9 12.1006 47.8M12.7007 23.7998C12.7007 24.3998 12.7007 34.2998 12.7007 35.0998M51.0005 23.5C51.0005 24.1 51.0005 34 51.0005 34.8M23.0006 45.6996C22.4006 46.0996 22.1006 49.6996 23.0006 49.9996C24.5006 50.5996 38.5006 50.8996 39.8006 49.9996C40.7006 49.3996 40.8006 45.4996 39.8006 44.7996C38.8006 44.0996 23.7006 45.1996 22.9006 45.7996L23.0006 45.6996Z" stroke="#494A4A" stroke-linecap="round" stroke-linejoin="round"/>
</g>
</g>
</svg>
