<svg width="64" height="64" viewBox="0 0 64 64" fill="none" xmlns="http://www.w3.org/2000/svg">
<g id="Pictogram-piggy-bank" clip-path="url(#clip0_426_1090)">
<g id="stroke-default">
<path id="2px" d="M21.3106 32.42C21.7553 31.6343 22.3792 30.9649 23.1317 30.4661C23.8842 29.9674 24.7438 29.6535 25.6406 29.55C29.8906 29.05 32.1306 25.33 33.9706 27.55C36.7606 30.87 37.0306 40.77 34.6906 41.9C32.6206 42.9 31.3706 37.29 28.7906 35.9M55.5206 20C59.6306 21.69 61.0006 16.12 59.2706 14C56.9906 11.27 54.2706 13.57 56.5806 16.13C58.5206 18.33 62.9106 17.53 63.0206 14.65M15.7806 54.14C15.9912 56.0408 16.792 57.8278 18.0706 59.25C18.5706 59.76 22.2806 60.08 23.1206 59.25C24.356 57.9587 25.2227 56.3599 25.6306 54.62M8.35063 50.37C13.8806 50.15 13.1106 57.15 28.6006 53.98M10.6606 41.54C9.59063 39.62 4.82063 39.2 3.00063 39.74M10.6806 28.19C7.87063 31 7.00063 34.27 5.57063 37.34C5.01167 38.3948 4.10303 39.2221 3.00063 39.68C1.94063 40.28 1.54063 45.08 3.11063 47.79C4.25063 49.79 11.1106 52.79 11.9706 47.03M28.7906 13.91C23.5085 15.4579 18.9984 18.9296 16.1506 23.64C14.9706 22.24 11.5806 21.97 10.2706 22.75C8.96063 23.53 7.53063 28.75 7.76063 32.26M48.2106 51C48.3798 52.3184 48.8336 53.5843 49.5406 54.71C50.3206 55.9 54.2406 56.16 55.4606 54.34C69.0606 28.07 55.0006 14.75 41.2006 12.44M42.8206 52.36C47.3106 51.59 52.7606 49.49 55.1006 45.63M28.0006 50.47C28.7406 56.23 30.2106 60.77 31.4706 61.95C32.9706 63.36 37.3506 63.45 38.7206 61.71C40.3406 59.65 43.3106 52.71 43.5106 47.92M35.1406 1C41.6206 1 41.5906 15.66 35.9406 16.11C35.2006 16.17 32.7406 16.11 32.2906 16.11C26.7306 16.15 27.4606 1 31.9006 1C32.4906 1 34.8706 1 35.1406 1Z" stroke="#494A4A" stroke-width="2" stroke-linecap="round" stroke-linejoin="round"/>
<path id="1px" d="M39.5711 14.17C40.7711 14.11 46.0411 15.62 43.5711 16.17C38.62 17.2195 33.7933 18.7882 29.1711 20.85C26.8911 21.85 24.0111 20.58 25.0911 19.38C26.7741 17.6545 28.8251 16.3316 31.0911 15.51M35.2111 16.15C31.7211 16.09 31.2111 1.04999 36.1411 1.04999M21.2011 47.48C21.4811 49.3 18.8211 51.48 16.4311 51.08M9.92111 35.88C10.6311 35.88 10.9911 36.88 9.81111 36.88C8.86111 36.92 9.46111 35.86 9.92111 35.88ZM13.9111 37.1C15.1111 37.05 14.7111 38.04 13.9111 38.04C13.1111 38.04 13.3011 37.13 13.9111 37.1ZM5.07111 43.18C5.48111 43.25 5.52111 44.52 5.07111 44.4C4.62111 44.28 4.73111 43.11 5.07111 43.18ZM8.48111 44.16C8.85111 44.28 9.07111 45.78 8.34111 45.72C7.61111 45.66 7.94111 44 8.48111 44.16Z" stroke="#494A4A" stroke-linecap="round" stroke-linejoin="round"/>
</g>
</g>
<defs>
<clipPath id="clip0_426_1090">
<rect width="64" height="64" fill="white"/>
</clipPath>
</defs>
</svg>
