<svg width="64" height="64" viewBox="0 0 64 64" fill="none" xmlns="http://www.w3.org/2000/svg">
<g id="  Pictogram-book">
<g id="stroke-default">
<path id="2px" d="M57.4004 11.1701C58.1288 11.2447 58.8153 11.5466 59.3627 12.0329C59.91 12.5193 60.2906 13.1655 60.4504 13.8801C62.0804 25.2901 62.2204 43.6901 61.8704 53.1301C61.8104 54.8501 60.2704 56.0001 58.0004 56.0001C55.7304 56.0001 43.6804 55.4201 40.0004 55.5201C37.6704 55.5801 36.7804 56.3501 36.5404 57.8001C36.2704 59.4001 27.5404 59.3701 27.4204 57.8001C27.3004 56.2301 26.1504 55.4901 24.0004 55.4701C20.4304 55.4701 8.3304 55.9601 6.0004 56.0001C3.6704 56.0401 2.1604 54.8501 2.0804 53.1301C1.77279 39.5367 2.30714 25.9374 3.6804 12.4101C3.7904 11.5401 5.8704 11.0001 6.8104 11.0001M32.0004 10.3401C30.6904 28.4801 32.8004 40.0101 31.8004 55.5401M41.5304 34.1601C39.3804 38.1601 35.2404 39.0301 31.5304 37.3501C27.8204 35.6701 23.3504 36.0001 25.0004 39.6301C26.4804 43.0101 39.4004 37.7301 36.7304 31.7501C33.2404 23.9301 25.9004 22.8101 25.9004 14.8401C25.9004 9.08007 29.3904 4.71007 30.3404 7.90007" stroke="#494A4A" stroke-width="2" stroke-linecap="round" stroke-linejoin="round"/>
<path id="1px" d="M29.6396 55.47C28.1396 51.41 24.2296 51.41 21.7396 51.47C16.4196 51.59 12.1596 52.99 7.73964 52.36C6.67964 52.21 6.08964 51.53 5.99964 49.92C5.47964 40.24 6.47964 20.49 7.47964 9.49003C7.60964 8.06003 8.65964 7.49003 10.1696 7.49003C15.2396 7.61003 19.0696 6.43003 22.9996 6.43003C24.6562 6.37919 26.3062 6.66096 27.852 7.25868C29.3979 7.8564 30.8082 8.75794 31.9996 9.91003C33.1911 8.75794 34.6014 7.8564 36.1472 7.25868C37.6931 6.66096 39.343 6.37919 40.9996 6.43003C44.9296 6.43003 48.9996 7.61003 53.9996 7.49003C55.5096 7.49003 56.5596 8.06003 56.6896 9.49003C57.6896 20.49 58.6896 40.24 58.1696 49.92C58.0796 51.53 57.4896 52.21 56.4296 52.36C52.0096 52.99 45.9496 51.36 40.6096 51.43C36.3596 51.43 35.0396 52.13 34.1096 55.51M9.57964 14.87C9.94964 10.73 9.57964 9.94003 11.9996 9.73003M15.7196 20.7C20.0896 20.13 22.7196 18.64 27.3096 20.33M10.7296 25.88C18.2696 25.88 21.7796 23.26 27.3096 25.31M10.7296 30.89C18.2696 30.89 21.7796 28.27 27.3096 30.32M10.7296 35.89C14.9696 35.89 17.9396 35.07 20.7296 34.71M51.9396 16C45.4996 16 42.1396 12.9 37.4696 15.67M45.9996 20.17C42.9196 19.48 40.4596 18.84 37.4596 20.62M58.3096 37.38C58.5696 42.25 56.8896 44 54.8896 46.32C53.3883 48.208 51.4247 49.6761 49.1891 50.5819C46.9534 51.4877 44.5217 51.8005 42.1296 51.49C48.5196 51.49 50.5496 44.96 51.2796 40.34C51.6996 37.6 53.0496 37.63 54.1496 38.57C55.2496 39.51 58.3996 40.57 58.3296 37.94M41.8596 34.64C42.415 33.3345 43.3308 32.2141 44.4996 31.41M42.4896 27.91C44.3896 29.11 41.9296 31.52 41.1396 33.79" stroke="#494A4A" stroke-linecap="round" stroke-linejoin="round"/>
</g>
</g>
</svg>
