<svg width="64" height="64" viewBox="0 0 64 64" fill="none" xmlns="http://www.w3.org/2000/svg">
<g id="Pictogram-file-configuration" clip-path="url(#clip0_426_1882)">
<g id="stroke-default">
<path id="2px" d="M11 22.09C11.17 19.61 12.2 17.86 14.36 17.38C15.61 17.1 18.77 16.72 20.49 16.3C23.1 15.66 24.15 14.54 24.75 11.93C25.1 10.38 25.16 7.92999 25.34 6.62999C25.6 4.74999 27.34 2.98999 30.25 2.98999M53 29.47C53.06 24.38 53.12 15.47 52.55 9.46999C52.17 5.39999 51.3 3.82999 48.06 3.52999C43.49 3.07999 34 2.99999 30.34 2.99999C25 2.99999 22 5.68999 18.69 8.99999C14.59 13.2 11 15.85 11 23.17C11 26.76 11.12 47.69 11.23 53.61C11.1907 54.2458 11.2808 54.883 11.4948 55.4829C11.7088 56.0829 12.0423 56.6333 12.4751 57.1007C12.908 57.5681 13.4311 57.9428 14.0129 58.2022C14.5947 58.4617 15.2231 58.6004 15.86 58.61C21.26 59.06 31.36 59.05 32.59 59.05M60 38.36C59.94 39.25 57.37 41.55 57.37 41.55L58.84 44.3C58.84 44.3 61.84 44.05 62.62 45C63.4 45.95 63.05 50.89 62.33 51.65C61.61 52.41 58.58 52.44 58.58 52.44L56.9 55.09C56.9 55.09 58.5 57.54 58.12 58.9C57.74 60.26 53.53 62.18 52.29 61.9C51.05 61.62 49.77 58.9 49.77 58.9L46.67 58.8C46.67 58.8 45.46 61.7 44.32 61.93C42.17 62.35 38.02 58.68 37.58 57.49C37.14 56.3 39.8 54.49 39.8 54.49L38.33 51.8C37.0007 51.7635 35.6836 51.5344 34.42 51.12C33.48 50.58 34.31 43.8 35.02 43.2C35.73 42.6 38.59 43.66 38.59 43.66L40.22 41C40.22 41 38.98 38 39.29 37.24C39.6 36.48 43.39 34.05 44.76 34.24C46.13 34.43 47.35 37.17 47.35 37.17C48.5646 37.1104 49.782 37.1505 50.99 37.29C51.59 37.38 51.91 34.13 52.94 34.01C53.97 33.89 60 37.46 60 38.36Z" stroke="#494A4A" stroke-width="2" stroke-linecap="round" stroke-linejoin="round"/>
<path id="1px" d="M14.5195 51.53C14.5195 54.48 14.2995 55.53 20.4595 55.53M24.9995 25.56C26.4195 25.45 42.2495 25.56 42.9995 25.56M21.4295 31.57C22.9495 31.45 35.8195 31.57 36.6295 31.57M21.4295 37.53C22.9495 37.41 31.7695 37.53 32.5795 37.53M42.9395 42.33C42.2887 43.2782 41.7232 44.2821 41.2495 45.33M47.7695 55.59C48.8797 55.4274 50.0097 55.4578 51.1095 55.68C51.719 56.0994 52.1891 56.6914 52.4595 57.38M59.1895 49C57.1295 49.14 56.2795 49.74 55.5195 51.65M52.4795 47.01C52.4795 48.943 50.9215 50.51 48.9995 50.51C47.0776 50.51 45.5195 48.943 45.5195 47.01C45.5195 45.077 47.0776 43.51 48.9995 43.51C50.9215 43.51 52.4795 45.077 52.4795 47.01Z" stroke="#494A4A" stroke-linecap="round" stroke-linejoin="round"/>
</g>
</g>
<defs>
<clipPath id="clip0_426_1882">
<rect width="64" height="64" fill="white"/>
</clipPath>
</defs>
</svg>
