<svg width="64" height="64" viewBox="0 0 64 64" fill="none" xmlns="http://www.w3.org/2000/svg">
<g id="Pictogram-trolley" clip-path="url(#clip0_624_20888)">
<g id="stroke-default">
<path id="2px" d="M29.1199 60.73C30.2334 61.6499 31.534 62.3161 32.9311 62.6822C34.3282 63.0484 35.7884 63.1056 37.2099 62.85C42.0559 61.6628 46.6855 59.7226 50.9299 57.1C52.5918 55.7956 53.6703 53.8867 53.9299 51.79C54.5999 47.14 54.7899 32.61 54.0699 25.58C54.0152 24.7751 53.792 23.9906 53.4147 23.2774C53.0374 22.5642 52.5145 21.9382 51.8799 21.44C49.6899 20 42.0699 18 40.0699 18C38.0699 18 23.8299 23 23.1699 25.92C21.8799 31.64 22.5099 50.21 22.5099 51.01M27.7099 22.42C27.2799 15.53 27.4799 4.79002 27.9299 4.02002C28.7199 2.67002 34.6799 0.510019 35.8599 1.30002C36.7899 1.91002 36.4899 17.35 36.4899 18.89M23.4599 51C26.4599 51 30.3899 54.07 29.4599 60C29.2799 61.18 26.7899 63 24.6399 63C20.4999 63 17.8199 59.76 18.5799 55C18.9099 52.86 21.5099 51 23.4599 51Z" stroke="#494A4A" stroke-width="2" stroke-linecap="round" stroke-linejoin="round"/>
<path id="1px" d="M27.72 8.24004C28.64 6.39004 35.72 4.17004 36.49 4.97004M34.05 62.92C36.3 63.02 37.29 61.6 37.46 59.21C38.06 50.7 38.01 34.36 36.46 31.21C35.46 29.21 25.1 26.09 23.66 25.93M53.16 22.89C51.35 25.23 44.5 29.22 38.3 30M19.07 53.68C23.77 51.14 30.58 59 25.44 63M37.75 42.63C42.75 42.63 52.38 38.42 54.49 35.63M32.77 31.77C34.02 32 35.31 33.94 35.27 35.72M27.71 22.42C22.89 16.96 20.41 24.69 16.4 23.18M41.07 42.69C41.01 43.38 40.7 46.43 40.76 47.44C40.82 48.45 41.92 48.44 41.88 46.79C41.7388 45.401 41.4676 44.0284 41.07 42.69ZM16.52 21.13C17.43 21.36 15.83 25.52 14.29 25.13C7.03996 23.29 5.36996 25.92 1.28996 21.71C1.22427 19.9048 1.83397 18.1398 2.99996 16.76C7.05996 22 8.74996 19.16 16.52 21.13Z" stroke="#494A4A" stroke-linecap="round" stroke-linejoin="round"/>
</g>
</g>
<defs>
<clipPath id="clip0_624_20888">
<rect width="64" height="64" fill="white"/>
</clipPath>
</defs>
</svg>
