<svg width="64" height="64" viewBox="0 0 64 64" fill="none" xmlns="http://www.w3.org/2000/svg">
<g id="Pictogram-paper-plane" clip-path="url(#clip0_426_672)">
<g id="stroke-default">
<path id="2px" d="M1.79977 28.7901C3.79977 20.0801 59.2898 6.69006 62.5298 8.29006C65.7698 9.89006 52.8098 54.2901 43.1598 56.7601C38.1598 58.0401 30.0598 40.7601 26.8098 41.2701C24.8098 41.5801 22.4498 47.9101 21.1098 47.2701C19.1598 46.2701 21.1098 39.9201 18.3798 37.8101C15.9998 35.9401 0.629773 33.8401 1.79977 28.7901Z" stroke="#494A4A" stroke-width="2" stroke-linecap="round" stroke-linejoin="round"/>
<path id="1px" d="M18.3788 37.79C37.5388 21.44 62.5288 8.29004 62.5288 8.29004C62.5288 8.29004 38.9188 30.5 26.0988 41M21.4088 47.29C24.2124 46.0981 26.9061 44.6626 29.4588 43M15.7588 50.43C12.8288 52.6 5.70883 56.88 0.548828 58M20.5888 51.18C18.7288 53.18 14.1088 57.24 10.5888 58.66M40.4588 50.89C41.6188 52.83 43.8288 54.23 47.1988 48.56" stroke="#494A4A" stroke-linecap="round" stroke-linejoin="round"/>
</g>
</g>
<defs>
<clipPath id="clip0_426_672">
<rect width="64" height="64" fill="white"/>
</clipPath>
</defs>
</svg>
