<svg width="64" height="64" viewBox="0 0 64 64" fill="none" xmlns="http://www.w3.org/2000/svg">
<g id="Pictogram-truck" clip-path="url(#clip0_624_20904)">
<g id="stroke-default">
<path id="2px" d="M22 50C25.0376 50.1136 28.0794 49.9999 31.1 49.66C32.3299 49.5566 33.478 49.0021 34.3236 48.103C35.1691 47.2039 35.6522 46.0239 35.68 44.79C36.56 35.79 35.5 24.85 34.23 14.95C33.95 12.77 32.52 11.48 29.82 11.16C25.16 10.63 13.09 11.1 6.44 12.49C2.73 13.29 1 15.44 1 19.84C1 26.2 1.2 37.27 2 45.7C2.23 48.3 3.54 49.94 6 50.01M35.6 28C35.72 23 37.8 22.28 40.04 22.09C43.6505 21.8328 47.2783 21.9669 50.86 22.49C51.6912 22.681 52.4553 23.0931 53.0715 23.6829C53.6876 24.2726 54.1328 25.0179 54.36 25.84C55.4229 29.2732 55.9161 32.8573 55.82 36.45C55.8703 36.9943 56.0511 37.5184 56.347 37.978C56.6429 38.4376 57.0453 38.819 57.52 39.09C58.69 39.95 58.61 45.99 57.52 47.52C56.8 48.52 54.52 49 54 49M38.17 47.8C37.4848 47.7688 36.8388 47.4712 36.3699 46.9705C35.901 46.4699 35.6463 45.8058 35.66 45.12M20 51C20.053 51.8017 19.9342 52.6054 19.6514 53.3574C19.3686 54.1094 18.9285 54.7923 18.3604 55.3604C17.7923 55.9285 17.1094 56.3686 16.3574 56.6514C15.6054 56.9342 14.8017 57.053 14 57C13.1983 57.053 12.3946 56.9342 11.6426 56.6514C10.8906 56.3686 10.2077 55.9285 9.63962 55.3604C9.07152 54.7923 8.63135 54.1094 8.34858 53.3574C8.06581 52.6054 7.94697 51.8017 8 51M52 51C52 54.25 50.15 57 46 57C41.85 57 40 54.25 40 51M38 49.29C38 41 54 41 54 48.47C54 50.69 52.7 51.73 51.59 50.23C49.39 47.23 42.54 47.23 40.65 50.29C39.69 51.85 38 51.24 38 49.29ZM6 49.29C6 41 22 41 22 48.47C22 50.69 20.7 51.73 19.59 50.23C17.39 47.23 10.59 47.23 8.65 50.29C7.7 51.85 6 51.24 6 49.29Z" stroke="#494A4A" stroke-width="2" stroke-linecap="round" stroke-linejoin="round"/>
<path id="1px" d="M42.8302 37.6201C40.2102 37.4101 39.4802 37.2401 39.4802 38.6201M61.0002 40.4301L61.8702 39.7301M61.2502 43.3301H63.5102M60.5402 46.5201C61.8402 46.8701 61.6302 47.5201 62.7102 47.8101M44.8002 27.2601C44.2671 28.4326 43.5957 29.5371 42.8002 30.5501M45.2602 30.1401L44.3402 31.7301M8.18021 16.5001C7.70761 16.4778 7.2374 16.5796 6.81635 16.7954C6.3953 17.0111 6.03807 17.3334 5.78021 17.7301C5.32021 18.7301 5.51021 21.7301 5.58021 23.9501M38.5802 26.6701C38.6356 26.1115 38.9006 25.5946 39.3218 25.2235C39.743 24.8525 40.2891 24.6547 40.8502 24.6701C43.7269 24.371 46.6312 24.472 49.4802 24.9701C49.9371 25.0651 50.3674 25.2595 50.7407 25.5395C51.114 25.8194 51.4211 26.1781 51.6402 26.5901C52.3892 28.4964 52.6936 30.5484 52.5302 32.5901C52.5107 33.2499 52.2544 33.8807 51.8083 34.3672C51.3621 34.8538 50.7559 35.1636 50.1002 35.2401C47.5502 35.6501 42.8202 35.6601 40.2602 34.8201C39.76 34.6046 39.3366 34.2429 39.0457 33.7825C38.7548 33.322 38.61 32.7844 38.6302 32.2401C38.4612 30.3879 38.4445 28.525 38.5802 26.6701ZM16.4802 50.8701C16.4802 51.5701 15.8302 52.4901 14.0002 52.4901C12.1702 52.4901 11.4902 51.6101 11.4902 50.9101C11.4902 50.2101 12.3902 49.5001 13.9902 49.5001C15.5902 49.5001 16.4802 50.1701 16.4802 50.8701ZM48.4902 50.8701C48.4902 51.5701 47.8302 52.4901 46.0002 52.4901C44.1702 52.4901 43.4902 51.6101 43.4902 50.9101C43.4902 50.2101 44.3902 49.5001 45.9902 49.5001C47.5902 49.5001 48.4902 50.1701 48.4902 50.8701Z" stroke="#494A4A" stroke-linecap="round" stroke-linejoin="round"/>
</g>
</g>
<defs>
<clipPath id="clip0_624_20904">
<rect width="64" height="64" fill="white"/>
</clipPath>
</defs>
</svg>
