<svg width="64" height="64" viewBox="0 0 64 64" fill="none" xmlns="http://www.w3.org/2000/svg">
<g id="Pictogram-organisation3" clip-path="url(#clip0_426_1307)">
<g id="stroke-default">
<path id="2px" d="M40 61.94C43.63 61.88 46 61.79 48 61.67C50 61.55 51.62 60.53 51.73 57.54C52.14 46.77 52.16 18.8 51.85 5M12.22 5C11.93 24.19 11.91 48.3 12.22 58.71C12.28 60.71 13.08 61.54 15.07 61.71C16.89 61.86 20.25 61.95 23.97 61.98M52.82 58C53.47 58 56.68 58.08 58.69 58C60.7 57.92 61.61 57.81 61.69 54.82C62.1 44.05 62.08 28.37 61.76 14.56M53 14H61.88C63 14 63 12.85 63 12C63 10.47 62.45 10.36 61.42 10.29C58.75 10.11 55.03 10.09 53.02 10.11M11 58C10.35 58 6.51 58 4.5 57.85C2.49 57.7 2.5 56.85 2.37 54.61C1.92 43.85 1.9 28.32 2.21 14.51M11 14H2.1C1 14 1 12.85 1 12C1 10.47 1.55 10.59 2.59 10.48C4.84 10.26 8.89 10.1 10.98 10.11M26.19 60C25.91 59.82 25.91 49.69 26.41 49.29C26.91 48.89 36.99 48.78 37.55 49.42C37.94 49.86 38.26 59.83 37.7 60.08M52.48 1C34.65 1 13.39 1.53 10.23 2C9.68 2.09 10.23 5 10.58 5H52.22C52.724 4.96209 53.195 4.73476 53.5382 4.36372C53.8814 3.99267 54.0714 3.50544 54.07 3C54.07 1.47 53.52 1 52.48 1ZM24.29 62.78C24.1392 62.373 24.0807 61.9376 24.1188 61.5053C24.1568 61.0729 24.2905 60.6544 24.51 60.28C24.93 59.94 38.86 59.76 39.41 60.4C39.8 60.84 40.12 62.61 39.56 62.86C39 63.11 24.69 63 24.29 62.78Z" stroke="#494A4A" stroke-width="2" stroke-linecap="round" stroke-linejoin="round"/>
<path id="1px" d="M23.0899 51.54C23.0899 49.74 23.3799 47.6 25.0099 46.6M21.0999 49.5C21.0539 48.9582 21.1189 48.4128 21.2908 47.897C21.4628 47.3812 21.738 46.9058 22.0999 46.5M58.4899 51.34C58.6199 53.85 58.1099 54.49 56.4899 54.49M8.88987 24.48C8.43876 24.5172 7.98471 24.4936 7.53987 24.41C7.28626 24.3769 7.05071 24.2609 6.86985 24.08C6.689 23.8992 6.57299 23.6636 6.53987 23.41C6.42486 22.7785 6.42486 22.1315 6.53987 21.5C6.58342 21.2507 6.70282 21.0209 6.88178 20.8419C7.06074 20.663 7.29055 20.5436 7.53987 20.5C7.98455 20.4154 8.43788 20.3851 8.88987 20.41M8.88987 32.51C8.43741 32.538 7.98325 32.5044 7.53987 32.41C7.29288 32.3811 7.06192 32.2728 6.88163 32.1016C6.70134 31.9303 6.58143 31.7052 6.53987 31.46C6.42486 30.8285 6.42486 30.1815 6.53987 29.55C6.58204 29.3001 6.70098 29.0695 6.88019 28.8903C7.0594 28.7111 7.28996 28.5922 7.53987 28.55C7.98541 28.4726 8.43829 28.4457 8.88987 28.47M8.88987 40.49C8.43829 40.5192 7.98484 40.4923 7.53987 40.41C7.28561 40.3785 7.04914 40.2631 6.86798 40.0819C6.68682 39.9007 6.57134 39.6643 6.53987 39.41C6.42486 38.7785 6.42486 38.1315 6.53987 37.5C6.58861 37.258 6.71078 37.037 6.88974 36.867C7.06869 36.697 7.29572 36.5863 7.53987 36.55C7.98434 36.4637 8.43831 36.4368 8.88987 36.47M55.0999 24.48C55.5543 24.5175 56.0117 24.4939 56.4599 24.41C56.7044 24.3669 56.9286 24.2466 57.0996 24.0665C57.2706 23.8865 57.3794 23.6564 57.4099 23.41C57.5249 22.7785 57.5249 22.1315 57.4099 21.5C57.3696 21.2575 57.2576 21.0326 57.0882 20.8543C56.9189 20.6761 56.7 20.5527 56.4599 20.5C56.0118 20.4153 55.5552 20.3851 55.0999 20.41M55.0999 32.51C55.5556 32.5379 56.0131 32.5043 56.4599 32.41C56.6978 32.3712 56.9175 32.2586 57.088 32.0882C57.2585 31.9177 57.3711 31.698 57.4099 31.46C57.5249 30.8285 57.5249 30.1815 57.4099 29.55C57.3709 29.3069 57.2593 29.0813 57.0897 28.9029C56.9202 28.7244 56.7006 28.6014 56.4599 28.55C56.0109 28.473 55.5548 28.4461 55.0999 28.47M55.0999 40.49C55.5548 40.5191 56.0115 40.4922 56.4599 40.41C56.705 40.3685 56.9302 40.2485 57.1014 40.0682C57.2727 39.888 57.3809 39.657 57.4099 39.41C57.5249 38.7785 57.5249 38.1315 57.4099 37.5C57.3644 37.265 57.2496 37.0489 57.0803 36.8796C56.911 36.7103 56.6949 36.5955 56.4599 36.55C56.012 36.4639 55.5547 36.437 55.0999 36.47M20.4699 14.38C19.8393 14.505 19.1904 14.505 18.5599 14.38C18.3147 14.3385 18.0896 14.2185 17.9183 14.0382C17.747 13.858 17.6388 13.627 17.6099 13.38C17.4949 12.7485 17.4949 12.1015 17.6099 11.47C17.6488 11.2269 17.7604 11.0013 17.93 10.8229C18.0995 10.6444 18.3191 10.5214 18.5599 10.47C19.1926 10.37 19.8371 10.37 20.4699 10.47C20.7222 10.5063 20.956 10.6233 21.1363 10.8036C21.3165 10.9839 21.4336 11.2177 21.4699 11.47C21.5949 12.1005 21.5949 12.7495 21.4699 13.38C21.4263 13.6293 21.3069 13.8591 21.128 14.0381C20.949 14.2171 20.7192 14.3365 20.4699 14.38ZM20.4699 22.39C19.8393 22.515 19.1904 22.515 18.5599 22.39C18.3147 22.3485 18.0896 22.2285 17.9183 22.0482C17.747 21.868 17.6388 21.637 17.6099 21.39C17.4949 20.7585 17.4949 20.1115 17.6099 19.48C17.6579 19.2461 17.7734 19.0313 17.9423 18.8625C18.1112 18.6936 18.3259 18.578 18.5599 18.53C19.1922 18.425 19.8375 18.425 20.4699 18.53C20.7157 18.562 20.945 18.6712 21.1247 18.842C21.3045 19.0127 21.4253 19.2361 21.4699 19.48C21.5949 20.1105 21.5949 20.7595 21.4699 21.39C21.4224 21.6376 21.3017 21.8653 21.1234 22.0435C20.9451 22.2218 20.7175 22.3425 20.4699 22.39ZM20.4699 34.41C19.8393 34.535 19.1904 34.535 18.5599 34.41C18.3147 34.3685 18.0896 34.2485 17.9183 34.0682C17.747 33.888 17.6388 33.657 17.6099 33.41C17.4949 32.7785 17.4949 32.1315 17.6099 31.5C17.6579 31.2661 17.7734 31.0513 17.9423 30.8825C18.1112 30.7136 18.3259 30.598 18.5599 30.55C19.1922 30.445 19.8375 30.445 20.4699 30.55C20.7157 30.582 20.945 30.6912 21.1247 30.862C21.3045 31.0327 21.4253 31.2561 21.4699 31.5C21.5949 32.1305 21.5949 32.7795 21.4699 33.41C21.4224 33.6576 21.3017 33.8853 21.1234 34.0635C20.9451 34.2418 20.7175 34.3625 20.4699 34.41ZM20.4699 42.41C19.8393 42.535 19.1904 42.535 18.5599 42.41C18.3213 42.3727 18.1008 42.2606 17.9301 42.0898C17.7593 41.9191 17.6472 41.6986 17.6099 41.46C17.4949 40.8285 17.4949 40.1815 17.6099 39.55C17.6488 39.3069 17.7604 39.0813 17.93 38.9029C18.0995 38.7244 18.3191 38.6014 18.5599 38.55C19.1926 38.45 19.8371 38.45 20.4699 38.55C20.7222 38.5863 20.956 38.7033 21.1363 38.8836C21.3165 39.0639 21.4336 39.2977 21.4699 39.55C21.5949 40.1805 21.5949 40.8295 21.4699 41.46C21.4172 41.7002 21.2938 41.919 21.1156 42.0884C20.9373 42.2577 20.7124 42.3697 20.4699 42.41ZM27.4599 14.38C26.8327 14.505 26.187 14.505 25.5599 14.38C25.3069 14.3453 25.0722 14.2288 24.8917 14.0482C24.7111 13.8676 24.5946 13.633 24.5599 13.38C24.4499 12.7481 24.4499 12.1019 24.5599 11.47C24.6034 11.2207 24.7228 10.9909 24.9018 10.8119C25.0807 10.633 25.3106 10.5136 25.5599 10.47C26.1892 10.3699 26.8305 10.3699 27.4599 10.47C27.7122 10.5063 27.946 10.6233 28.1263 10.8036C28.3065 10.9839 28.4236 11.2177 28.4599 11.47C28.5799 12.101 28.5799 12.749 28.4599 13.38C28.415 13.6287 28.2951 13.8578 28.1164 14.0365C27.9377 14.2153 27.7086 14.3351 27.4599 14.38ZM27.4599 22.39C26.8327 22.515 26.187 22.515 25.5599 22.39C25.3069 22.3553 25.0722 22.2388 24.8917 22.0582C24.7111 21.8776 24.5946 21.643 24.5599 21.39C24.4499 20.7581 24.4499 20.1119 24.5599 19.48C24.6125 19.2399 24.7359 19.021 24.9142 18.8517C25.0924 18.6823 25.3173 18.5703 25.5599 18.53C26.1888 18.425 26.8309 18.425 27.4599 18.53C27.7057 18.562 27.935 18.6712 28.1147 18.842C28.2945 19.0127 28.4153 19.2361 28.4599 19.48C28.5799 20.111 28.5799 20.759 28.4599 21.39C28.4111 21.6371 28.29 21.864 28.1119 22.0421C27.9339 22.2201 27.7069 22.3412 27.4599 22.39ZM27.4599 34.41C26.8327 34.535 26.187 34.535 25.5599 34.41C25.3069 34.3753 25.0722 34.2588 24.8917 34.0782C24.7111 33.8976 24.5946 33.663 24.5599 33.41C24.4499 32.7781 24.4499 32.1319 24.5599 31.5C24.6125 31.2599 24.7359 31.041 24.9142 30.8717C25.0924 30.7023 25.3173 30.5903 25.5599 30.55C26.1888 30.445 26.8309 30.445 27.4599 30.55C27.7057 30.582 27.935 30.6912 28.1147 30.862C28.2945 31.0327 28.4153 31.2561 28.4599 31.5C28.5799 32.131 28.5799 32.779 28.4599 33.41C28.4111 33.6571 28.29 33.884 28.1119 34.0621C27.9339 34.2401 27.7069 34.3612 27.4599 34.41ZM27.4599 42.41C26.8327 42.535 26.187 42.535 25.5599 42.41C25.3135 42.3795 25.0833 42.2708 24.9033 42.0998C24.7233 41.9288 24.6029 41.7045 24.5599 41.46C24.4499 40.8281 24.4499 40.1819 24.5599 39.55C24.6034 39.3007 24.7228 39.0709 24.9018 38.8919C25.0807 38.713 25.3106 38.5936 25.5599 38.55C26.1892 38.4499 26.8305 38.4499 27.4599 38.55C27.7122 38.5863 27.946 38.7033 28.1263 38.8836C28.3065 39.0639 28.4236 39.2977 28.4599 39.55C28.5799 40.181 28.5799 40.829 28.4599 41.46C28.406 41.6996 28.2822 41.9178 28.1041 42.0869C27.9261 42.256 27.7019 42.3685 27.4599 42.41ZM38.4799 14.38C37.8493 14.505 37.2004 14.505 36.5699 14.38C36.3156 14.3485 36.0791 14.2331 35.898 14.0519C35.7168 13.8707 35.6013 13.6343 35.5699 13.38C35.4549 12.7485 35.4549 12.1015 35.5699 11.47C35.612 11.2201 35.731 10.9895 35.9102 10.8103C36.0894 10.6311 36.32 10.5122 36.5699 10.47C37.2026 10.37 37.8471 10.37 38.4799 10.47C38.7322 10.5063 38.966 10.6233 39.1463 10.8036C39.3265 10.9839 39.4436 11.2177 39.4799 11.47C39.6049 12.1005 39.6049 12.7495 39.4799 13.38C39.4363 13.6293 39.3169 13.8591 39.138 14.0381C38.959 14.2171 38.7292 14.3365 38.4799 14.38ZM38.4799 22.39C37.8493 22.515 37.2004 22.515 36.5699 22.39C36.3156 22.3585 36.0791 22.2431 35.898 22.0619C35.7168 21.8807 35.6013 21.6443 35.5699 21.39C35.4549 20.7585 35.4549 20.1115 35.5699 19.48C35.6212 19.2393 35.7442 19.0197 35.9227 18.8501C36.1012 18.6806 36.3268 18.569 36.5699 18.53C37.2022 18.425 37.8475 18.425 38.4799 18.53C38.7257 18.562 38.955 18.6712 39.1347 18.842C39.3145 19.0127 39.4353 19.2361 39.4799 19.48C39.6049 20.1105 39.6049 20.7595 39.4799 21.39C39.4324 21.6376 39.3117 21.8653 39.1334 22.0435C38.9551 22.2218 38.7275 22.3425 38.4799 22.39ZM38.4799 34.41C37.8493 34.535 37.2004 34.535 36.5699 34.41C36.3156 34.3785 36.0791 34.2631 35.898 34.0819C35.7168 33.9007 35.6013 33.6643 35.5699 33.41C35.4549 32.7785 35.4549 32.1315 35.5699 31.5C35.6212 31.2593 35.7442 31.0397 35.9227 30.8701C36.1012 30.7006 36.3268 30.589 36.5699 30.55C37.2022 30.445 37.8475 30.445 38.4799 30.55C38.7257 30.582 38.955 30.6912 39.1347 30.862C39.3145 31.0327 39.4353 31.2561 39.4799 31.5C39.6049 32.1305 39.6049 32.7795 39.4799 33.41C39.4324 33.6576 39.3117 33.8853 39.1334 34.0635C38.9551 34.2418 38.7275 34.3625 38.4799 34.41ZM38.4799 42.41C37.8493 42.535 37.2004 42.535 36.5699 42.41C36.3223 42.3827 36.0905 42.275 35.9099 42.1034C35.7293 41.9318 35.6099 41.7059 35.5699 41.46C35.4549 40.8285 35.4549 40.1815 35.5699 39.55C35.612 39.3001 35.731 39.0695 35.9102 38.8903C36.0894 38.7111 36.32 38.5922 36.5699 38.55C37.2026 38.45 37.8471 38.45 38.4799 38.55C38.7322 38.5863 38.966 38.7033 39.1463 38.8836C39.3265 39.0639 39.4436 39.2977 39.4799 39.55C39.6049 40.1805 39.6049 40.8295 39.4799 41.46C39.4272 41.7002 39.3038 41.919 39.1256 42.0884C38.9473 42.2577 38.7224 42.3697 38.4799 42.41ZM45.4699 14.38C44.8427 14.505 44.197 14.505 43.5699 14.38C43.3169 14.3453 43.0822 14.2288 42.9017 14.0482C42.7211 13.8676 42.6046 13.633 42.5699 13.38C42.4599 12.7481 42.4599 12.1019 42.5699 11.47C42.6134 11.2207 42.7328 10.9909 42.9118 10.8119C43.0907 10.633 43.3206 10.5136 43.5699 10.47C44.1992 10.3699 44.8405 10.3699 45.4699 10.47C45.7222 10.5063 45.956 10.6233 46.1363 10.8036C46.3165 10.9839 46.4336 11.2177 46.4699 11.47C46.5899 12.101 46.5899 12.749 46.4699 13.38C46.425 13.6287 46.3051 13.8578 46.1264 14.0365C45.9477 14.2153 45.7186 14.3351 45.4699 14.38ZM45.4699 22.39C44.8427 22.515 44.197 22.515 43.5699 22.39C43.3169 22.3553 43.0822 22.2388 42.9017 22.0582C42.7211 21.8776 42.6046 21.643 42.5699 21.39C42.4599 20.7581 42.4599 20.1119 42.5699 19.48C42.6225 19.2399 42.7459 19.021 42.9242 18.8517C43.1024 18.6823 43.3273 18.5703 43.5699 18.53C44.1988 18.425 44.8409 18.425 45.4699 18.53C45.7157 18.562 45.945 18.6712 46.1247 18.842C46.3045 19.0127 46.4253 19.2361 46.4699 19.48C46.5899 20.111 46.5899 20.759 46.4699 21.39C46.4211 21.6371 46.3 21.864 46.1219 22.0421C45.9439 22.2201 45.7169 22.3412 45.4699 22.39ZM45.4699 34.41C44.8427 34.535 44.197 34.535 43.5699 34.41C43.3169 34.3753 43.0822 34.2588 42.9017 34.0782C42.7211 33.8976 42.6046 33.663 42.5699 33.41C42.4599 32.7781 42.4599 32.1319 42.5699 31.5C42.6225 31.2599 42.7459 31.041 42.9242 30.8717C43.1024 30.7023 43.3273 30.5903 43.5699 30.55C44.1988 30.445 44.8409 30.445 45.4699 30.55C45.7157 30.582 45.945 30.6912 46.1247 30.862C46.3045 31.0327 46.4253 31.2561 46.4699 31.5C46.5899 32.131 46.5899 32.779 46.4699 33.41C46.4211 33.6571 46.3 33.884 46.1219 34.0621C45.9439 34.2401 45.7169 34.3612 45.4699 34.41ZM45.4699 42.41C44.8427 42.535 44.197 42.535 43.5699 42.41C43.3235 42.3795 43.0933 42.2708 42.9133 42.0998C42.7333 41.9288 42.6129 41.7045 42.5699 41.46C42.4599 40.8281 42.4599 40.1819 42.5699 39.55C42.6134 39.3007 42.7328 39.0709 42.9118 38.8919C43.0907 38.713 43.3206 38.5936 43.5699 38.55C44.1992 38.4499 44.8405 38.4499 45.4699 38.55C45.7222 38.5863 45.956 38.7033 46.1363 38.8836C46.3165 39.0639 46.4336 39.2977 46.4699 39.55C46.5899 40.181 46.5899 40.829 46.4699 41.46C46.416 41.6996 46.2922 41.9178 46.1141 42.0869C45.9361 42.256 45.7119 42.3685 45.4699 42.41Z" stroke="#494A4A" stroke-linecap="round" stroke-linejoin="round"/>
</g>
</g>
<defs>
<clipPath id="clip0_426_1307">
<rect width="64" height="64" fill="white"/>
</clipPath>
</defs>
</svg>
