<svg width="64" height="64" viewBox="0 0 64 64" fill="none" xmlns="http://www.w3.org/2000/svg">
<g id="Pictogram-growth-1">
<g id="stroke-default">
<path id="2px" d="M40.4001 40.8999C33.2001 47.8999 38.5001 60.0999 35.8001 61.0999C34.3001 61.6999 27.8001 52.9999 27.1001 49.6999M14.2001 36.6999C10.9001 35.8999 2.20005 29.4999 2.80005 27.9999C3.80005 25.2999 16.1001 30.6999 23.1001 23.4999M18.7001 49.5999C15.9001 52.0999 10.4001 54.4999 9.80005 53.7999C9.10005 53.0999 11.9001 46.0999 13.7001 44.2999C14.1001 43.8999 15.2001 45.7999 16.3001 46.8999C17.8001 48.2999 19.4001 48.9999 18.8001 49.5999H18.7001ZM25.5001 50.2999C22.6001 49.3999 14.5001 41.2999 13.6001 38.3999C20.3001 18.2999 48.2001 4.59994 53.7001 10.1999C59.2001 15.7999 45.6001 43.5999 25.5001 50.2999Z" stroke="#494A4A" stroke-width="2" stroke-linecap="round" stroke-linejoin="round"/>
<path id="1px" d="M8.4 39.8C6.5 41.2 4 43.5 2 45.6M6.7 37C5.9 37.5 4.6 38.6 3.8 39.4M23.7 55C23 56.2 21.3 58.3 19 60.5M24.3 59C23.7 59.7 23.5 60.1 22.6 60.9M53.9 40.8L52.9 42.7C52.9 42.7 52.9 43 52.9 43.2L53.9 45.1C53.9 45.1 53.6 46.1 53.1 45.9L51.2 44.9C51.2 44.9 50.9 44.9 50.7 44.9L48.8 45.9C48.8 45.9 47.8 45.6 48 45.1L49 43.2C49 43.2 49 42.9 49 42.7L48 40.8C48 40.8 48.3 39.8 48.8 40L50.7 41C50.7 41 51 41 51.2 41L53.1 40C53.1 40 54.1 40.3 53.9 40.8ZM37.9 2.30004L36.6 4.80004C36.6 4.80004 36.5 5.20004 36.6 5.50004L37.9 8.00004C38.2 8.60004 37.5 9.30004 36.9 9.00004L34.4 7.70004C34.4 7.70004 34 7.60004 33.7 7.70004L31.2 9.00004C30.6 9.30004 29.9 8.60004 30.2 8.00004L31.5 5.50004C31.5 5.50004 31.6 5.10004 31.5 4.80004L30.2 2.30004C29.9 1.70004 30.6 1.00004 31.2 1.30004L33.7 2.60004C33.7 2.60004 34.1 2.70004 34.4 2.60004L36.9 1.30004C37.5 1.00004 38.2 1.70004 37.9 2.30004ZM38 25.6C40 27.6 40 30.7 38 32.7C36 34.7 32.9 34.7 30.9 32.7C28.9 30.7 28.9 27.6 30.9 25.6C32.9 23.6 36 23.6 38 25.6ZM28.2 35.1C29.3 36.2 29.3 38 28.2 39.1C27.1 40.2 25.3 40.2 24.2 39.1C23.1 38 23.1 36.2 24.2 35.1C25.3 34 27.1 34 28.2 35.1Z" stroke="#494A4A" stroke-linecap="round" stroke-linejoin="round"/>
</g>
</g>
</svg>
