<svg width="64" height="64" viewBox="0 0 64 64" fill="none" xmlns="http://www.w3.org/2000/svg">
<g id="Pictogram-graph-charts-settings" clip-path="url(#clip0_426_954)">
<g id="stroke-default">
<path id="2px" d="M8.39994 42.1499C6.88994 42.1499 6.25994 41.0199 6.09994 39.7999C5.09994 32.1799 4.65994 18.3199 5.23994 12.3399C5.54994 9.14994 6.93994 8.24994 9.82994 7.90994C19.8299 6.71994 42.5599 6.90994 53.4599 7.52994C57.0499 7.74994 58.2999 8.77994 58.7399 12.6499C59.1799 16.5199 58.9999 25.0999 58.4999 31.9999M32.9999 55.9999C20.1799 55.9999 6.85994 55.4899 3.17994 54.6799C2.58134 54.5295 2.0495 54.1849 1.6677 53.6999C1.28589 53.215 1.07567 52.6171 1.06994 51.9999C0.949172 50.9529 0.993036 49.8934 1.19994 48.8599C2.30092 46.6125 3.7187 44.5346 5.40994 42.6899C5.86994 42.2499 7.33994 42.1599 8.64994 42.1199C11.6499 42.0299 21.5799 41.9899 30.9599 41.9899M59.9999 38.3599C59.9399 39.2499 57.3699 41.5499 57.3699 41.5499L58.8399 44.2999C58.8399 44.2999 61.8399 44.0499 62.6199 44.9999C63.3999 45.9499 63.0499 50.8899 62.3299 51.6499C61.6099 52.4099 58.5799 52.4399 58.5799 52.4399L56.8999 55.0899C56.8999 55.0899 58.4999 57.5399 58.1199 58.8999C57.7399 60.2599 53.5299 62.1799 52.2899 61.8999C51.0499 61.6199 49.7699 58.8999 49.7699 58.8999L46.6699 58.7999C46.6699 58.7999 45.4599 61.6999 44.3199 61.9299C42.1699 62.3499 38.0199 58.6799 37.5799 57.4899C37.1399 56.2999 39.7999 54.4899 39.7999 54.4899L38.3299 51.7999C37.0006 51.7634 35.6836 51.5344 34.4199 51.1199C33.4799 50.5799 34.3099 43.7999 35.0199 43.1999C35.7299 42.5999 38.5899 43.6599 38.5899 43.6599L40.2199 40.9999C40.2199 40.9999 38.9799 37.9999 39.2899 37.2399C39.5999 36.4799 43.3899 34.0499 44.7599 34.2399C46.1299 34.4299 47.3499 37.1699 47.3499 37.1699C48.5645 37.1103 49.7819 37.1505 50.9899 37.2899C51.5899 37.3799 51.9099 34.1299 52.9399 34.0099C53.9699 33.8899 59.9999 37.4599 59.9999 38.3599Z" stroke="#494A4A" stroke-width="2" stroke-linecap="round" stroke-linejoin="round"/>
<path id="1px" d="M8.51999 18.63C8.26999 12.27 8.51999 11.63 10.87 11.48M2.08999 48.17C1.38999 49.27 1.73999 50.17 3.16999 50.36C7.93999 51.1 19.35 51.5 31 51.51M9.53999 45.59C10.59 45.59 14.06 45.39 16.27 45.52M20.24 45.53C22.96 45.63 23.73 45.53 25.38 45.53M29.28 45.53H30.96M7.47999 48.38C9.07999 48.5 11.58 48.5 13.48 48.5M19.56 51.37C20.05 49.83 20.81 48.64 21.5 48.59C22.6 48.51 26.56 48.46 30.76 48.45M35.63 36.5C35.0075 36.5053 34.3967 36.3318 33.87 36C33.02 35.17 33.75 28.94 34.04 28.05C34.48 26.7 38.46 25.96 39.14 26.4C39.57 26.68 39.65 30.1 39.54 32.79M42.49 30.67C42.5411 28.8276 42.7114 26.9904 43 25.17C43.44 23.82 47.42 23.08 48.11 23.53C48.54 23.81 48.62 28.46 48.5 32M44.53 16.9C39.72 23.9 24.2 27.66 15.53 28.42M42.94 42.33C42.2892 43.2781 41.7237 44.2821 41.25 45.33M47.77 55.59C48.8802 55.4274 50.0101 55.4578 51.11 55.68C51.7194 56.0994 52.1895 56.6914 52.46 57.38M59.19 49C57.13 49.14 56.28 49.74 55.52 51.65M21.13 32C20.7 31.1 16.59 31.38 16 31.77C15.41 32.16 15.29 35.33 15.77 35.99C16.25 36.65 20.18 36.81 21.04 35.99C21.9 35.17 21.47 32.68 21.13 32ZM25 31.07C25.44 29.73 29.42 28.99 30.11 29.43C30.8 29.87 30.59 35.32 30.11 35.98C29.63 36.64 25.69 36.8 24.84 35.98C23.99 35.16 24.75 32 25 31.07ZM45.85 12.62C45.07 12.99 42.32 14.34 42.48 15.16C42.73 16.53 46.48 17.89 47.28 17.37C48.08 16.85 47.1 13.82 47 13.1C46.9837 12.9748 46.9348 12.8561 46.8581 12.7558C46.7815 12.6555 46.6798 12.5771 46.5633 12.5285C46.4469 12.4799 46.3196 12.4627 46.1944 12.4788C46.0692 12.4948 45.9504 12.5435 45.85 12.62ZM52.48 47.01C52.48 48.943 50.9219 50.51 49 50.51C47.078 50.51 45.52 48.943 45.52 47.01C45.52 45.077 47.078 43.51 49 43.51C50.9219 43.51 52.48 45.077 52.48 47.01Z" stroke="#494A4A" stroke-linecap="round" stroke-linejoin="round"/>
</g>
</g>
<defs>
<clipPath id="clip0_426_954">
<rect width="64" height="64" fill="white"/>
</clipPath>
</defs>
</svg>
