<svg width="64" height="64" viewBox="0 0 64 64" fill="none" xmlns="http://www.w3.org/2000/svg">
<g id="  Pictogram-search2">
<g id="stroke-default">
<path id="2px" d="M39.18 41.82L43.04 45.71M41.74 39.28L45.91 43.3M47 25C47 37.1503 37.1503 47 25 47C12.8497 47 3 37.1503 3 25C3 12.8497 12.8497 3 25 3C37.1503 3 47 12.8497 47 25ZM42.32 47.76C44.23 52.1 49.85 58.94 52.7 61.63C53.3272 62.2155 54.0945 62.6298 54.9282 62.833C55.7618 63.0361 56.6337 63.0213 57.46 62.79C58.6525 62.3127 59.7325 61.5923 60.6312 60.6746C61.5299 59.7569 62.2277 58.6622 62.68 57.46C63.36 55.77 62.9 54.85 61.68 53.32C59 50.09 51.66 44.71 48.1 43C46.19 42.05 41.65 46.25 42.32 47.76Z" stroke="#494A4A" stroke-width="2" stroke-linecap="round" stroke-linejoin="round"/>
<path id="1px" d="M9.60924 31.2C5.99924 20.48 12.9092 8.76999 23.5392 8.60999M37.9992 34.75C35.4392 38.75 28.5292 42.04 23.8092 41.47M47.3492 50.91C46.5492 49.91 44.9692 48.22 45.1792 47.14M48.3792 13.41L53.1792 11.75M49.4692 8.76999L46.8992 11.24M50.8092 16.22L48.8992 15.78" stroke="#494A4A" stroke-linecap="round" stroke-linejoin="round"/>
</g>
</g>
</svg>
