<svg width="64" height="64" viewBox="0 0 64 64" fill="none" xmlns="http://www.w3.org/2000/svg">
<g id="Pictogram-purchase-order2">
<g id="stroke-default">
<path id="2px" d="M11 22.09C11.17 19.61 12.2 17.86 14.36 17.38C15.61 17.1 18.77 16.72 20.49 16.3C23.1 15.66 24.15 14.54 24.75 11.93C25.1 10.38 25.16 7.92999 25.34 6.62999C25.6 4.74999 27.34 2.98999 30.25 2.98999M53 35.64C53.06 29.26 53.14 15.46 52.57 9.43999C52.19 5.36999 51.32 3.79999 48.08 3.49999C43.49 3.07999 34 2.99999 30.34 2.99999C25 2.99999 22 5.68999 18.69 8.99999C14.59 13.2 11 15.85 11 23.17C11 26.76 11.12 47.69 11.23 53.61C11.1907 54.2458 11.2808 54.883 11.4948 55.4829C11.7088 56.0829 12.0423 56.6333 12.4751 57.1007C12.908 57.5681 13.4311 57.9428 14.0129 58.2022C14.5947 58.4617 15.2231 58.6004 15.86 58.61C21.26 59.06 27.32 59.05 31.32 59.05M57.81 60.69C51.5799 61.0951 45.3301 61.0951 39.1 60.69C37.8164 60.5638 36.6198 59.9839 35.7253 59.0546C34.8308 58.1254 34.2971 56.9075 34.22 55.62C33.9292 51.8957 33.9292 48.1543 34.22 44.43C34.287 43.1391 34.8174 41.9156 35.7138 40.9843C36.6103 40.0529 37.8126 39.4762 39.1 39.36C45.3274 38.8799 51.5826 38.8799 57.81 39.36C61.11 39.69 62.33 41.66 62.69 44.43C63.1004 48.1487 63.1004 51.9013 62.69 55.62C62.4 58.21 61 60.39 57.81 60.69Z" stroke="#494A4A" stroke-width="2" stroke-linecap="round" stroke-linejoin="round"/>
<path id="1px" d="M14.5195 51.53C14.5195 54.48 14.2995 55.53 20.4595 55.53M21.2495 28.51C22.6695 28.4 43.2495 28.51 43.9595 28.51M27.3495 22.53C28.7695 22.41 43.2095 22.53 43.9595 22.53M21.4295 34.52C22.9495 34.4 43.1595 34.52 43.9595 34.52M21.4295 40.48C22.9495 40.36 29.4295 40.48 30.2695 40.48M53.5495 44.06C54.0869 43.6964 54.7206 43.5014 55.3695 43.5C56.1652 43.5 56.9282 43.8161 57.4908 44.3787C58.0535 44.9413 58.3695 45.7044 58.3695 46.5C58.3695 47.2957 58.0535 48.0587 57.4908 48.6213C56.9282 49.1839 56.1652 49.5 55.3695 49.5C54.7265 49.5195 54.0924 49.3453 53.5495 49M46.5595 55.49C45.5595 55.44 40.3995 55.49 39.5595 55.49M53.5695 55.47C52.7395 55.47 50.2095 55.47 49.4695 55.47M54.5195 46.51C54.5195 48.1724 53.1719 49.52 51.5095 49.52C49.8472 49.52 48.4995 48.1724 48.4995 46.51C48.4995 44.8476 49.8472 43.5 51.5095 43.5C53.1719 43.5 54.5195 44.8476 54.5195 46.51Z" stroke="#494A4A" stroke-linecap="round" stroke-linejoin="round"/>
</g>
</g>
</svg>
