<svg width="64" height="64" viewBox="0 0 64 64" fill="none" xmlns="http://www.w3.org/2000/svg">
<g id="Pictogram-settings" clip-path="url(#clip0_624_20992)">
<g id="stroke-default">
<path id="2px" d="M35.45 64C36.0023 64 36.45 63.5523 36.45 63C36.45 62.4477 36.0023 62 35.45 62V64ZM8.76 45L9.34228 45.813L9.34378 45.8119L8.76 45ZM26.76 32.29C26.76 31.7377 26.3123 31.29 25.76 31.29C25.2077 31.29 24.76 31.7377 24.76 32.29H26.76ZM39.2279 31.9242C39.2634 31.3731 38.8453 30.8975 38.2942 30.8621C37.7431 30.8266 37.2675 31.2447 37.2321 31.7958L39.2279 31.9242ZM37.3293 34.4958C37.4043 35.043 37.9086 35.4257 38.4558 35.3507C39.003 35.2757 39.3857 34.7714 39.3107 34.2242L37.3293 34.4958ZM60 39.36L60.9977 39.4273C60.9992 39.4049 61 39.3824 61 39.36H60ZM57.37 42.55L56.7031 41.8048C56.3596 42.1123 56.2707 42.6148 56.4881 43.0214L57.37 42.55ZM58.84 45.3L57.9581 45.7714C58.1462 46.1233 58.5254 46.3297 58.923 46.2965L58.84 45.3ZM58.58 53.44L58.5701 52.44C58.2311 52.4434 57.9169 52.6183 57.7354 52.9046L58.58 53.44ZM56.9 56.09L56.0554 55.5546C55.8456 55.8856 55.8484 56.3086 56.0627 56.6368L56.9 56.09ZM49.77 59.9L50.6748 59.4742C50.5148 59.1342 50.1778 58.9126 49.8022 58.9005L49.77 59.9ZM46.67 59.8L46.7022 58.8005C46.2872 58.7871 45.907 59.0317 45.7471 59.4149L46.67 59.8ZM44.32 62.93L44.5117 63.9115L44.5178 63.9102L44.32 62.93ZM39.8 55.49L40.3626 56.3167C40.788 56.0272 40.9243 55.4621 40.6775 55.0105L39.8 55.49ZM38.33 52.8L39.2075 52.3205C39.0369 52.0082 38.7132 51.8101 38.3575 51.8004L38.33 52.8ZM34.42 52.12L33.9219 52.9871C33.981 53.0211 34.0435 53.0489 34.1084 53.0702L34.42 52.12ZM38.59 44.66L38.2425 45.5977C38.6903 45.7637 39.1931 45.5897 39.4426 45.1825L38.59 44.66ZM40.22 42L41.0726 42.5225C41.2398 42.2498 41.2663 41.9136 41.1442 41.618L40.22 42ZM47.35 38.17L46.4365 38.5768C46.6044 38.9539 46.9867 39.189 47.399 39.1688L47.35 38.17ZM50.99 38.29L51.1383 37.3011C51.1272 37.2994 51.116 37.2979 51.1047 37.2966L50.99 38.29ZM35.45 62C23.7489 62 16.2186 61.3126 11.6397 60.337C9.34268 59.8475 7.85686 59.2992 6.9703 58.7733C6.05827 58.2324 6 57.859 6 57.77H4C4 58.921 4.81673 59.8213 5.95002 60.4935C7.10877 61.1808 8.83857 61.785 11.2228 62.293C16.0064 63.3124 23.7011 64 35.45 64V62ZM6 57.77C6 55.7233 6.37054 53.0161 7.01303 50.6328C7.33371 49.4433 7.71456 48.3631 8.13482 47.501C8.56748 46.6135 8.99061 46.0649 9.34228 45.813L8.17772 44.187C7.41939 44.7301 6.81752 45.639 6.33706 46.6246C5.84419 47.6356 5.42379 48.8442 5.08197 50.1122C4.39946 52.6439 4 55.5267 4 57.77H6ZM9.34378 45.8119C10.6396 44.8802 12.2887 44.2447 14.1357 43.6594C15.9267 43.0918 17.9678 42.5558 19.7751 41.8442C21.6074 41.1229 23.3707 40.1628 24.671 38.6352C25.9929 37.0823 26.76 35.0341 26.76 32.29H24.76C24.76 34.6309 24.1184 36.1989 23.1481 37.3388C22.1562 38.5041 20.7439 39.3134 19.0424 39.9833C17.3159 40.663 15.4652 41.1401 13.5315 41.7528C11.6538 42.3478 9.74545 43.0598 8.17622 44.1881L9.34378 45.8119ZM37.2321 31.7958C37.1741 32.6968 37.2067 33.6013 37.3293 34.4958L39.3107 34.2242C39.2063 33.4622 39.1786 32.6917 39.2279 31.9242L37.2321 31.7958ZM32 35.5C38.5496 35.5 45 28.1825 45 15.32H43C43 27.7575 36.8704 33.5 32 33.5V35.5ZM45 15.32C45 10.3476 43.8249 6.4976 41.5396 3.87984C39.2356 1.24075 35.9315 0 32 0V2C35.4985 2 38.1944 3.08925 40.0329 5.19516C41.8901 7.3224 43 10.6324 43 15.32H45ZM32 0C28.0685 0 24.7644 1.24075 22.4604 3.87984C20.1751 6.4976 19 10.3476 19 15.32H21C21 10.6324 22.1099 7.3224 23.9671 5.19516C25.8056 3.08925 28.5015 2 32 2V0ZM19 15.32C19 28.2137 25.4513 35.5 32 35.5V33.5C27.1287 33.5 21 27.7863 21 15.32H19ZM59.0023 39.2927C59.0082 39.2047 59.0318 39.1953 58.9802 39.2959C58.9365 39.3808 58.8637 39.4973 58.7567 39.6434C58.5434 39.935 58.2491 40.271 57.9365 40.6011C57.6275 40.9273 57.3179 41.2295 57.0841 41.4513C56.9677 41.5618 56.8712 41.6514 56.8042 41.7128C56.7708 41.7435 56.7448 41.7671 56.7276 41.7828C56.7189 41.7906 56.7125 41.7964 56.7083 41.8001C56.7063 41.802 56.7048 41.8033 56.7039 41.8041C56.7035 41.8045 56.7032 41.8048 56.7031 41.8049C56.703 41.8049 56.703 41.805 56.703 41.805C56.703 41.805 56.703 41.8049 56.703 41.8049C56.7031 41.8049 56.7031 41.8048 57.37 42.55C58.0369 43.2952 58.037 43.2951 58.037 43.295C58.0371 43.295 58.0372 43.2949 58.0373 43.2948C58.0374 43.2947 58.0376 43.2945 58.0379 43.2943C58.0384 43.2938 58.039 43.2933 58.0398 43.2925C58.0414 43.2911 58.0436 43.2891 58.0464 43.2866C58.052 43.2816 58.06 43.2744 58.0702 43.2651C58.0906 43.2466 58.1199 43.22 58.1569 43.186C58.2307 43.1182 58.3354 43.0211 58.4609 42.9021C58.7108 42.6649 59.0475 42.3365 59.3885 41.9764C59.7259 41.6202 60.0854 41.2144 60.3708 40.8245C60.5132 40.6298 60.651 40.4205 60.7594 40.2093C60.8598 40.0137 60.9768 39.7378 60.9977 39.4273L59.0023 39.2927ZM56.4881 43.0214L57.9581 45.7714L59.7219 44.8286L58.2519 42.0786L56.4881 43.0214ZM58.84 45.3C58.923 46.2965 58.9229 46.2966 58.9228 46.2966C58.9227 46.2966 58.9226 46.2966 58.9225 46.2966C58.9224 46.2966 58.9223 46.2966 58.9223 46.2966C58.9222 46.2966 58.9223 46.2966 58.9226 46.2966C58.9231 46.2965 58.9244 46.2964 58.9263 46.2963C58.9302 46.296 58.9367 46.2955 58.9459 46.2948C58.9641 46.2935 58.9926 46.2916 59.0299 46.2893C59.1048 46.2849 59.2149 46.2793 59.3502 46.2753C59.6229 46.2674 59.9887 46.2662 60.3713 46.2916C60.76 46.3174 61.1316 46.3685 61.4291 46.4524C61.7554 46.5443 61.8479 46.6355 61.8471 46.6346L63.3929 45.3654C63.0021 44.8895 62.4271 44.6557 61.9715 44.5273C61.4871 44.3908 60.9625 44.3264 60.5037 44.2959C60.0388 44.2651 59.6059 44.267 59.2917 44.2762C59.1336 44.2808 59.0032 44.2874 58.9109 44.2929C58.8648 44.2956 58.828 44.2981 58.8019 44.3C58.7889 44.301 58.7785 44.3017 58.771 44.3023C58.7672 44.3026 58.7641 44.3029 58.7618 44.3031C58.7606 44.3032 58.7596 44.3032 58.7588 44.3033C58.7584 44.3033 58.7581 44.3034 58.7578 44.3034C58.7576 44.3034 58.7574 44.3034 58.7573 44.3034C58.7571 44.3034 58.757 44.3034 58.84 45.3ZM61.8471 46.6346C61.8154 46.5959 61.849 46.6215 61.898 46.7969C61.942 46.954 61.9816 47.1696 62.0108 47.4402C62.069 47.98 62.077 48.6536 62.039 49.3411C62.0011 50.0277 61.9192 50.6948 61.8098 51.2199C61.7549 51.4834 61.697 51.6917 61.6424 51.8405C61.5784 52.0148 61.5507 52.0185 61.604 51.9623L63.056 53.3377C63.2893 53.0915 63.43 52.7746 63.5199 52.5296C63.6192 52.259 63.7008 51.9492 63.7677 51.6279C63.9021 50.9833 63.9939 50.2135 64.036 49.4514C64.078 48.6901 64.0723 47.9031 63.9992 47.2258C63.9628 46.8877 63.9074 46.5556 63.824 46.2578C63.7457 45.9782 63.6196 45.6416 63.3929 45.3654L61.8471 46.6346ZM61.604 51.9623C61.6211 51.9442 61.5247 52.0303 61.1665 52.1323C60.8522 52.2218 60.4635 52.289 60.0649 52.3372C59.6715 52.3848 59.295 52.4107 59.015 52.4247C58.8757 52.4316 58.7621 52.4355 58.6843 52.4376C58.6454 52.4387 58.6156 52.4393 58.5961 52.4396C58.5864 52.4398 58.5792 52.4399 58.5748 52.44C58.5726 52.44 58.5711 52.44 58.5703 52.44C58.5699 52.44 58.5697 52.44 58.5697 52.44C58.5697 52.44 58.5697 52.44 58.5698 52.44C58.5698 52.44 58.5699 52.44 58.5699 52.44C58.57 52.44 58.5701 52.44 58.58 53.44C58.5899 54.4399 58.59 54.4399 58.5902 54.4399C58.5902 54.4399 58.5904 54.4399 58.5905 54.4399C58.5908 54.4399 58.5911 54.4399 58.5914 54.4399C58.5921 54.4399 58.593 54.4399 58.5941 54.4399C58.5962 54.4399 58.599 54.4398 58.6026 54.4398C58.6097 54.4397 58.6197 54.4395 58.6323 54.4393C58.6576 54.4389 58.6936 54.4381 58.7389 54.4368C58.8296 54.4344 58.9583 54.43 59.1144 54.4222C59.425 54.4067 59.851 54.3777 60.3051 54.3228C60.754 54.2685 61.2578 54.1857 61.7141 54.0559C62.1266 53.9384 62.6789 53.7358 63.056 53.3377L61.604 51.9623ZM57.7354 52.9046L56.0554 55.5546L57.7446 56.6254L59.4246 53.9754L57.7354 52.9046ZM56.9 56.09C56.0627 56.6368 56.0626 56.6366 56.0626 56.6365C56.0625 56.6365 56.0625 56.6364 56.0624 56.6363C56.0623 56.6362 56.0623 56.6361 56.0622 56.636C56.0622 56.6359 56.0622 56.636 56.0623 56.6362C56.0626 56.6365 56.0632 56.6375 56.0641 56.639C56.0661 56.642 56.0694 56.6472 56.0741 56.6546C56.0835 56.6693 56.0981 56.6925 56.1172 56.7233C56.1553 56.785 56.2107 56.8768 56.2768 56.9919C56.4098 57.2236 56.5816 57.5424 56.7407 57.8957C56.9017 58.253 57.0385 58.6209 57.115 58.9545C57.1952 59.3043 57.1872 59.5226 57.1569 59.6309L59.0831 60.1691C59.2429 59.5974 59.1773 58.9995 59.0644 58.5073C58.9478 57.9991 58.7558 57.4995 58.5643 57.0743C58.3709 56.6451 58.1664 56.2664 58.0113 55.9962C57.9333 55.8603 57.8668 55.7501 57.8189 55.6725C57.7949 55.6337 57.7755 55.6029 57.7616 55.5811C57.7547 55.5702 57.7491 55.5615 57.745 55.5552C57.743 55.552 57.7413 55.5494 57.74 55.5474C57.7393 55.5464 57.7388 55.5455 57.7383 55.5448C57.7381 55.5445 57.7379 55.5442 57.7377 55.5439C57.7376 55.5438 57.7375 55.5436 57.7375 55.5435C57.7374 55.5434 57.7373 55.5432 56.9 56.09ZM57.1569 59.6309C57.1623 59.6114 57.1506 59.6634 57.0475 59.7854C56.9502 59.9005 56.8042 60.0394 56.6058 60.1952C56.2085 60.5069 55.6723 60.8304 55.0875 61.117C54.5046 61.4026 53.907 61.6352 53.3996 61.778C53.1459 61.8495 52.9304 61.894 52.7609 61.9145C52.5785 61.9366 52.5061 61.9236 52.5103 61.9246L52.0697 63.8754C52.6447 64.0053 53.3541 63.8686 53.9416 63.7032C54.5843 63.5223 55.2954 63.2424 55.9675 62.913C56.6377 62.5846 57.3027 62.1906 57.8405 61.7686C58.3298 61.3845 58.8957 60.8398 59.0831 60.1691L57.1569 59.6309ZM52.5103 61.9246C52.4764 61.9169 52.3284 61.8541 52.0802 61.606C51.8509 61.3767 51.6163 61.0703 51.3979 60.7416C51.1826 60.4176 50.9999 60.0973 50.8703 59.856C50.8059 59.7362 50.7556 59.6378 50.722 59.5706C50.7053 59.537 50.6927 59.5114 50.6848 59.4949C50.6808 59.4866 50.6779 59.4807 50.6762 59.4772C50.6754 59.4754 50.6749 59.4743 50.6746 59.4738C50.6745 59.4735 50.6745 59.4734 50.6745 59.4735C50.6745 59.4735 50.6745 59.4736 50.6746 59.4737C50.6746 59.4738 50.6747 59.4739 50.6747 59.4739C50.6748 59.4741 50.6748 59.4742 49.77 59.9C48.8652 60.3258 48.8653 60.326 48.8653 60.3261C48.8654 60.3262 48.8655 60.3264 48.8655 60.3265C48.8657 60.3268 48.8658 60.3271 48.866 60.3275C48.8663 60.3282 48.8667 60.3291 48.8672 60.3302C48.8682 60.3323 48.8696 60.335 48.8712 60.3385C48.8744 60.3453 48.8789 60.3546 48.8846 60.3664C48.896 60.3898 48.9122 60.4229 48.9328 60.4643C48.9741 60.5469 49.0335 60.6632 49.1085 60.8027C49.2576 61.0802 49.4724 61.4574 49.7321 61.8484C49.9887 62.2347 50.3066 62.6608 50.666 63.0202C51.0066 63.3609 51.4836 63.7431 52.0697 63.8754L52.5103 61.9246ZM49.8022 58.9005L46.7022 58.8005L46.6378 60.7995L49.7378 60.8995L49.8022 58.9005ZM46.67 59.8C45.7471 59.4149 45.7472 59.4148 45.7472 59.4147C45.7472 59.4147 45.7473 59.4146 45.7473 59.4145C45.7473 59.4144 45.7473 59.4144 45.7474 59.4143C45.7474 59.4143 45.7473 59.4145 45.7472 59.4148C45.7469 59.4154 45.7463 59.4167 45.7455 59.4187C45.7438 59.4226 45.7411 59.4292 45.7372 59.4382C45.7295 59.4562 45.7174 59.484 45.7014 59.5202C45.6693 59.5926 45.6215 59.6983 45.5604 59.8266C45.4373 60.0849 45.2643 60.4266 45.0614 60.7704C44.8551 61.1198 44.6356 61.4407 44.4248 61.675C44.1861 61.9402 44.0795 61.9584 44.1222 61.9498L44.5178 63.9102C45.1305 63.7866 45.6026 63.3561 45.9115 63.0128C46.2481 62.6387 46.5449 62.1914 46.7836 61.7871C47.0257 61.3771 47.2265 60.9795 47.3659 60.6868C47.436 60.5397 47.4916 60.417 47.5301 60.3299C47.5494 60.2864 47.5645 60.2516 47.5751 60.227C47.5803 60.2147 47.5845 60.205 47.5875 60.1979C47.589 60.1944 47.5902 60.1916 47.5911 60.1894C47.5915 60.1883 47.5919 60.1874 47.5922 60.1867C47.5924 60.1863 47.5925 60.186 47.5926 60.1857C47.5927 60.1856 47.5927 60.1854 47.5928 60.1854C47.5928 60.1852 47.5929 60.1851 46.67 59.8ZM44.1283 61.9486C43.8892 61.9953 43.4552 61.9397 42.8204 61.6637C42.2143 61.4002 41.5476 60.9895 40.906 60.5117C40.2675 60.0362 39.6822 59.5154 39.2379 59.0524C39.0156 58.8208 38.8374 58.6129 38.7083 58.4403C38.6439 58.3544 38.5963 58.2833 38.5629 58.2274C38.528 58.1691 38.5175 58.1421 38.5179 58.1432L36.6421 58.8368C36.7467 59.1199 36.9269 59.3981 37.1073 59.639C37.2977 59.8933 37.5327 60.164 37.7949 60.4373C38.3197 60.984 38.9888 61.5776 39.7115 62.1158C40.4312 62.6518 41.2326 63.1542 42.023 63.4979C42.7848 63.8291 43.6758 64.0747 44.5117 63.9114L44.1283 61.9486ZM38.5179 58.1432C38.5578 58.2509 38.4831 58.2427 38.6151 58.0054C38.7359 57.7884 38.9511 57.5279 39.227 57.2559C39.4948 56.9919 39.781 56.7548 40.0045 56.5813C40.1151 56.4954 40.2077 56.4272 40.2714 56.3813C40.3032 56.3584 40.3276 56.3411 40.3433 56.3301C40.3511 56.3247 40.3568 56.3208 40.36 56.3185C40.3617 56.3174 40.3627 56.3167 40.3631 56.3164C40.3634 56.3162 40.3634 56.3162 40.3633 56.3162C40.3633 56.3163 40.3632 56.3163 40.3631 56.3164C40.363 56.3165 40.3629 56.3165 40.3628 56.3166C40.3627 56.3167 40.3626 56.3167 39.8 55.49C39.2374 54.6632 39.2373 54.6634 39.2371 54.6635C39.237 54.6635 39.2368 54.6637 39.2367 54.6637C39.2364 54.6639 39.2361 54.6642 39.2357 54.6644C39.235 54.6649 39.2341 54.6655 39.233 54.6663C39.2309 54.6677 39.2281 54.6696 39.2247 54.672C39.218 54.6766 39.2087 54.683 39.1972 54.6911C39.1741 54.7072 39.1419 54.73 39.1018 54.7589C39.0217 54.8166 38.9099 54.8991 38.778 55.0015C38.5165 55.2045 38.1652 55.4943 37.823 55.8316C37.4889 56.1609 37.1216 56.576 36.8674 57.0331C36.6244 57.4698 36.3822 58.1341 36.6421 58.8368L38.5179 58.1432ZM40.6775 55.0105L39.2075 52.3205L37.4525 53.2795L38.9225 55.9695L40.6775 55.0105ZM38.3575 51.8004C37.1247 51.7665 35.9034 51.5541 34.7316 51.1698L34.1084 53.0702C35.4638 53.5147 36.8766 53.7604 38.3025 53.7996L38.3575 51.8004ZM34.9181 51.2529C35.0662 51.338 35.1255 51.4407 35.1324 51.4527C35.1418 51.4691 35.1301 51.4531 35.1106 51.3827C35.0714 51.2409 35.0353 51.008 35.0155 50.6791C34.9766 50.0302 35.0099 49.1703 35.0966 48.2793C35.1828 47.3922 35.3182 46.5133 35.4704 45.833C35.547 45.4907 35.6231 45.2204 35.6915 45.0326C35.7258 44.9384 35.7515 44.8835 35.7651 44.8584C35.7867 44.8186 35.7606 44.8834 35.6655 44.9638L34.3745 43.4362C34.1907 43.5916 34.0749 43.7796 34.0068 43.9054C33.9307 44.0458 33.8667 44.1986 33.8122 44.3482C33.703 44.6482 33.605 45.0102 33.5187 45.3964C33.3449 46.173 33.1984 47.1353 33.1059 48.0857C33.0139 49.0322 32.9715 50.0061 33.0191 50.799C33.0427 51.191 33.0904 51.5811 33.1829 51.9158C33.2294 52.0836 33.2955 52.2692 33.3957 52.4446C33.4933 52.6155 33.6563 52.8345 33.9219 52.9871L34.9181 51.2529ZM35.6655 44.9638C35.5771 45.0385 35.5172 45.039 35.5682 45.0291C35.6127 45.0204 35.6993 45.0123 35.8366 45.0179C36.1123 45.0292 36.4656 45.0894 36.8412 45.1782C37.209 45.2651 37.5617 45.3706 37.8252 45.4555C37.9561 45.4977 38.0628 45.5341 38.1358 45.5596C38.1723 45.5724 38.2002 45.5824 38.2184 45.5889C38.2275 45.5922 38.2342 45.5946 38.2383 45.5961C38.2403 45.5969 38.2417 45.5974 38.2424 45.5976C38.2427 45.5978 38.2429 45.5978 38.2429 45.5978C38.2429 45.5978 38.2429 45.5978 38.2428 45.5978C38.2428 45.5978 38.2427 45.5978 38.2427 45.5977C38.2426 45.5977 38.2425 45.5977 38.59 44.66C38.9375 43.7223 38.9374 43.7223 38.9373 43.7222C38.9372 43.7222 38.937 43.7221 38.9369 43.7221C38.9367 43.722 38.9364 43.7219 38.936 43.7218C38.9354 43.7215 38.9345 43.7212 38.9335 43.7208C38.9314 43.7201 38.9287 43.7191 38.9253 43.7178C38.9185 43.7153 38.909 43.7119 38.897 43.7075C38.8729 43.6989 38.8387 43.6867 38.7956 43.6716C38.7095 43.6415 38.5872 43.5998 38.4388 43.552C38.1439 43.4569 37.7372 43.3349 37.3013 43.2318C36.8731 43.1306 36.3783 43.0383 35.9181 43.0196C35.6874 43.0102 35.4341 43.0177 35.1863 43.0659C34.945 43.1128 34.6404 43.2115 34.3745 43.4362L35.6655 44.9638ZM39.4426 45.1825L41.0726 42.5225L39.3674 41.4775L37.7374 44.1375L39.4426 45.1825ZM40.22 42C41.1442 41.618 41.1442 41.6181 41.1442 41.6181C41.1442 41.6181 41.1442 41.6182 41.1442 41.6182C41.1443 41.6182 41.1442 41.6182 41.1442 41.6181C41.1441 41.618 41.144 41.6176 41.1438 41.6171C41.1434 41.6161 41.1427 41.6144 41.1417 41.612C41.1397 41.6072 41.1367 41.5997 41.1325 41.5896C41.1243 41.5693 41.112 41.5388 41.0962 41.4992C41.0646 41.42 41.0194 41.3049 40.9659 41.1641C40.8584 40.8813 40.7195 40.4999 40.5909 40.0994C40.4607 39.6937 40.349 39.2927 40.2875 38.9641C40.2566 38.7994 40.2429 38.6759 40.2406 38.5924C40.2378 38.4901 40.2545 38.5231 40.2159 38.6177L38.3641 37.8623C38.248 38.1469 38.2357 38.4399 38.2413 38.6471C38.2475 38.8731 38.2798 39.1087 38.3216 39.3321C38.4054 39.7798 38.5456 40.2713 38.6866 40.7106C38.8293 41.1551 38.981 41.5712 39.0963 41.8746C39.1542 42.0269 39.2034 42.1522 39.2384 42.24C39.256 42.2839 39.27 42.3186 39.2798 42.3427C39.2846 42.3547 39.2885 42.3641 39.2912 42.3707C39.2926 42.374 39.2936 42.3766 39.2944 42.3785C39.2948 42.3795 39.2951 42.3802 39.2953 42.3808C39.2955 42.3811 39.2956 42.3813 39.2956 42.3815C39.2957 42.3816 39.2957 42.3817 39.2958 42.3818C39.2958 42.3819 39.2958 42.382 40.22 42ZM40.2159 38.6177C40.177 38.7131 40.1516 38.708 40.2722 38.5849C40.3686 38.4865 40.5123 38.3588 40.7023 38.2089C41.0805 37.9104 41.5869 37.5668 42.1333 37.2464C42.681 36.9253 43.2427 36.6427 43.7304 36.4549C43.9742 36.361 44.183 36.2971 44.3511 36.2616C44.4343 36.244 44.4999 36.235 44.5492 36.2314C44.5734 36.2296 44.5917 36.2293 44.6046 36.2295C44.6175 36.2298 44.6232 36.2306 44.6226 36.2305L44.8974 34.2495C44.2829 34.1643 43.5809 34.3692 43.0114 34.5886C42.3935 34.8266 41.7316 35.1635 41.1217 35.5211C40.5106 35.8795 39.9258 36.2739 39.4633 36.6389C39.233 36.8207 39.0191 37.0061 38.8435 37.1853C38.6921 37.3399 38.4805 37.5769 38.3641 37.8623L40.2159 38.6177ZM44.6226 36.2305C44.6733 36.2375 44.8231 36.2899 45.0641 36.5126C45.2922 36.7232 45.5237 37.0139 45.7387 37.334C45.9504 37.649 46.1271 37.9637 46.2517 38.202C46.3135 38.3203 46.3612 38.4175 46.3929 38.4836C46.4087 38.5166 46.4204 38.5417 46.4278 38.5577C46.4314 38.5657 46.434 38.5714 46.4355 38.5746C46.4362 38.5762 46.4367 38.5772 46.4368 38.5776C46.4369 38.5778 46.4369 38.5778 46.4369 38.5777C46.4368 38.5776 46.4368 38.5775 46.4367 38.5773C46.4367 38.5773 46.4366 38.5771 46.4366 38.5771C46.4365 38.5769 46.4365 38.5768 47.35 38.17C48.2635 37.7632 48.2635 37.7631 48.2634 37.7629C48.2633 37.7628 48.2632 37.7626 48.2632 37.7624C48.263 37.7621 48.2629 37.7617 48.2627 37.7613C48.2623 37.7605 48.2619 37.7596 48.2614 37.7584C48.2604 37.7561 48.259 37.7532 48.2574 37.7496C48.2542 37.7425 48.2497 37.7328 48.2442 37.7206C48.233 37.6964 48.2171 37.6625 48.1969 37.6202C48.1565 37.5357 48.0983 37.4174 48.0243 37.2758C47.8773 36.9945 47.6633 36.6122 47.3988 36.2185C47.1376 35.8298 46.8072 35.3999 46.4212 35.0434C46.0481 34.6988 45.5317 34.3375 44.8974 34.2495L44.6226 36.2305ZM47.399 39.1688C48.559 39.1119 49.7216 39.1502 50.8753 39.2834L51.1047 37.2966C49.8424 37.1508 48.5702 37.1089 47.301 37.1712L47.399 39.1688ZM50.8417 39.2789C51.4308 39.3673 51.8161 39.0041 51.9668 38.8262C52.1294 38.6343 52.2414 38.4083 52.317 38.2381C52.4699 37.8936 52.6216 37.4215 52.7483 37.0571C52.8912 36.6462 53.0201 36.3137 53.1519 36.0845C53.3188 35.7944 53.3145 35.9731 53.0557 36.0033L52.8243 34.0167C52.0505 34.1069 51.6199 34.7368 51.4184 35.087C51.1818 35.4982 51.0001 35.9951 50.8592 36.4004C50.7021 36.8522 50.597 37.1833 50.489 37.4266C50.4341 37.5503 50.4146 37.5644 50.4408 37.5335C50.4551 37.5165 50.6993 37.2352 51.1383 37.3011L50.8417 39.2789ZM53.0557 36.0033C52.941 36.0167 52.9567 35.9854 53.2226 36.0742C53.4358 36.1453 53.7176 36.2611 54.0543 36.4185C54.7245 36.7316 55.5428 37.1766 56.3386 37.6581C57.1363 38.1408 57.8844 38.6438 58.4218 39.0684C58.6936 39.2832 58.8851 39.4573 58.9991 39.5826C59.0566 39.6459 59.0731 39.6736 59.07 39.6683C59.0675 39.6641 59.0527 39.6387 59.0374 39.5943C59.0223 39.5507 59 39.4693 59 39.36H61C61 39.0448 60.8765 38.7949 60.7941 38.6547C60.7021 38.4983 60.5881 38.3572 60.4787 38.237C60.2589 37.9952 59.9712 37.7437 59.6617 37.4991C59.0362 37.0049 58.2124 36.4542 57.3739 35.9469C56.5335 35.4384 55.6512 34.9571 54.901 34.6065C54.5276 34.432 54.1693 34.2816 53.8555 34.1769C53.5946 34.0899 53.1966 33.9733 52.8243 34.0167L53.0557 36.0033Z" fill="#494A4A"/>
<path id="1px" d="M12.73 46.09C10 47 9.94 47.34 9 50.87M42.94 43.33C42.2892 44.2782 41.7237 45.2821 41.25 46.33M47.77 56.59C48.8802 56.4274 50.0102 56.4579 51.11 56.68C51.7194 57.0994 52.1896 57.6914 52.46 58.38M59.19 50C57.13 50.14 56.28 50.74 55.52 52.65M52.48 48.01C52.48 49.943 50.922 51.51 49 51.51C47.078 51.51 45.52 49.943 45.52 48.01C45.52 46.077 47.078 44.51 49 44.51C50.922 44.51 52.48 46.077 52.48 48.01Z" stroke="#494A4A" stroke-linecap="round" stroke-linejoin="round"/>
</g>
</g>
<defs>
<clipPath id="clip0_624_20992">
<rect width="64" height="64" fill="white"/>
</clipPath>
</defs>
</svg>
