<svg width="64" height="64" viewBox="0 0 64 64" fill="none" xmlns="http://www.w3.org/2000/svg">
<g id="Pictogram-user-Idea" clip-path="url(#clip0_622_41975)">
<g id="stroke-default">
<path id="2px" d="M42.3657 63.5977C42.9168 63.5615 43.3341 63.0853 43.2978 62.5342C43.2616 61.9831 42.7854 61.5658 42.2343 61.6021L42.3657 63.5977ZM8.8 44.9999L9.37106 45.8208L9.37753 45.8163L9.38393 45.8117L8.8 44.9999ZM26.8 32.2999C26.8 31.7476 26.3523 31.2999 25.8 31.2999C25.2477 31.2999 24.8 31.7476 24.8 32.2999H26.8ZM39.3 31.8999C39.3 31.3476 38.8523 30.8999 38.3 30.8999C37.7477 30.8999 37.3 31.3476 37.3 31.8999H39.3ZM38.292 35.319C38.5235 35.8204 39.1176 36.0393 39.6191 35.8079C40.1205 35.5764 40.3394 34.9823 40.108 34.4808L38.292 35.319ZM43.4 54.5C43.4 55.0523 43.8477 55.5 44.4 55.5C44.9523 55.5 45.4 55.0523 45.4 54.5H43.4ZM53.2 54.5C53.2 55.0523 53.6477 55.5 54.2 55.5C54.7523 55.5 55.2 55.0523 55.2 54.5H53.2ZM51.9754 59.6189C51.5441 59.964 51.4742 60.5932 51.8192 61.0245C52.1642 61.4558 52.7935 61.5257 53.2248 61.1807L51.9754 59.6189ZM53.2001 59.6998L54.1488 60.016C54.152 60.0064 54.155 59.9968 54.1579 59.9871L53.2001 59.6998ZM54.7001 55.2998C54.7001 54.7475 54.2524 54.2998 53.7001 54.2998C53.1478 54.2998 52.7001 54.7475 52.7001 55.2998H54.7001ZM45.8999 55.3999C45.8999 54.8476 45.4522 54.3999 44.8999 54.3999C44.3476 54.3999 43.8999 54.8476 43.8999 55.3999H45.8999ZM45.3999 59.7999H46.3999C46.3999 59.7026 46.3857 59.6058 46.3577 59.5126L45.3999 59.7999ZM45.6837 61.4486C46.2076 61.6232 46.7739 61.3401 46.9486 60.8161C47.1232 60.2922 46.8401 59.7259 46.3161 59.5512L45.6837 61.4486ZM53.0417 60.9364C53.2275 60.4163 52.9564 59.8441 52.4363 59.6584C51.9162 59.4726 51.344 59.7437 51.1583 60.2638L53.0417 60.9364ZM47.4417 60.2638C47.256 59.7437 46.6838 59.4726 46.1637 59.6584C45.6436 59.8441 45.3725 60.4163 45.5583 60.9364L47.4417 60.2638ZM42.2343 61.6021C30.1364 62.3986 20.8916 61.9224 14.7003 60.9007C11.5974 60.3887 9.30621 59.7469 7.81732 59.0846C7.06945 58.752 6.57461 58.4362 6.28254 58.1679C5.98276 57.8926 6 57.7679 6 57.7999H4C4 58.5569 4.42349 59.176 4.92957 59.6409C5.44336 60.1128 6.15398 60.5337 7.00455 60.912C8.71254 61.6717 11.1901 62.3486 14.3747 62.8741C20.7584 63.9274 30.1636 64.4012 42.3657 63.5977L42.2343 61.6021ZM6 57.7999C6 55.7456 6.3613 53.033 7.00316 50.6472C7.32361 49.4561 7.70631 48.3756 8.13244 47.5132C8.57034 46.6271 9.00323 46.0767 9.37106 45.8208L8.22894 44.179C7.44677 44.7231 6.82966 45.6352 6.33943 46.6272C5.83744 47.643 5.41389 48.8562 5.07184 50.1276C4.3887 52.6668 4 55.5542 4 57.7999H6ZM9.38393 45.8117C10.6711 44.8858 12.3153 44.2553 14.1613 43.674C15.951 43.1105 17.993 42.5781 19.8026 41.8684C21.6372 41.1488 23.4037 40.1891 24.7066 38.6592C26.0311 37.1041 26.8 35.0513 26.8 32.2999H24.8C24.8 34.6485 24.1564 36.2207 23.184 37.3624C22.1901 38.5295 20.7753 39.3385 19.0724 40.0065C17.3445 40.6842 15.4927 41.158 13.5606 41.7664C11.6847 42.357 9.77888 43.064 8.21607 44.1881L9.38393 45.8117ZM37.3 31.8999C37.3 32.7235 37.6767 33.9857 38.292 35.319L40.108 34.4808C39.5233 33.2141 39.3 32.2763 39.3 31.8999H37.3ZM32 35.5C38.5389 35.5 45 28.2134 45 15.3H43C43 27.7866 36.8611 33.5 32 33.5V35.5ZM45 15.3C45 10.3546 43.816 6.5108 41.5281 3.89206C39.2222 1.2528 35.9199 0 32 0V2C35.4801 2 38.1778 3.0972 40.0219 5.20794C41.884 7.3392 43 10.6454 43 15.3H45ZM32 0C28.0801 0 24.7778 1.2528 22.4719 3.89206C20.184 6.5108 19 10.3546 19 15.3H21C21 10.6454 22.116 7.3392 23.9781 5.20794C25.8222 3.0972 28.5199 2 32 2V0ZM19 15.3C19 28.2134 25.4611 35.5 32 35.5V33.5C27.1389 33.5 21 27.7866 21 15.3H19ZM45.4 54.5C45.4 51.1236 44.4735 49.1335 43.5876 47.4268C42.7238 45.7627 42 44.5209 42 42.4H40C40 45.0791 40.9762 46.7373 41.8125 48.3482C42.6265 49.9165 43.4 51.5763 43.4 54.5H45.4ZM42 42.4C42 39.8672 42.929 38.0431 44.2626 36.8434C45.6136 35.628 47.4413 35 49.3 35C51.1587 35 52.9864 35.628 54.3375 36.8434C55.671 38.0431 56.6 39.8672 56.6 42.4H58.6C58.6 39.3328 57.454 36.9569 55.6751 35.3566C53.9136 33.772 51.5913 33 49.3 33C47.0087 33 44.6864 33.772 42.9249 35.3566C41.146 36.9569 40 39.3328 40 42.4H42ZM56.6 42.4C56.6 44.5185 55.8785 45.7336 55.0139 47.3865C54.1251 49.0856 53.2 51.0755 53.2 54.5H55.2C55.2 51.5245 55.9749 49.8644 56.7861 48.3135C57.6215 46.7164 58.6 45.0815 58.6 42.4H56.6ZM52.6001 60.3998C53.2248 61.1807 53.2249 61.1806 53.225 61.1805C53.225 61.1805 53.2252 61.1804 53.2252 61.1803C53.2254 61.1802 53.2255 61.1801 53.2257 61.1799C53.226 61.1797 53.2264 61.1794 53.2268 61.1791C53.2276 61.1784 53.2285 61.1777 53.2296 61.1768C53.2317 61.1751 53.2343 61.173 53.2373 61.1706C53.2434 61.1656 53.2513 61.1591 53.2609 61.1511C53.28 61.1353 53.3059 61.1134 53.3366 61.0867C53.3972 61.0339 53.4805 60.9586 53.5697 60.8694C53.657 60.7821 53.7617 60.6698 53.8585 60.5432C53.9469 60.4276 54.0728 60.2439 54.1488 60.016L52.2514 59.3836C52.2774 59.3057 52.3033 59.2845 52.2698 59.3283C52.2448 59.361 52.2057 59.405 52.1555 59.4552C52.1072 59.5035 52.0593 59.547 52.023 59.5785C52.0053 59.594 51.9913 59.6058 51.9827 59.6129C51.9784 59.6165 51.9755 59.6189 51.9742 59.6199C51.9735 59.6204 51.9733 59.6206 51.9735 59.6205C51.9736 59.6204 51.9738 59.6202 51.9741 59.62C51.9743 59.6198 51.9744 59.6197 51.9747 59.6195C51.9748 59.6194 51.9749 59.6193 51.975 59.6192C51.9751 59.6192 51.9752 59.6191 51.9752 59.6191C51.9753 59.619 51.9754 59.6189 52.6001 60.3998ZM54.1579 59.9871C54.3363 59.3926 54.4685 58.5144 54.557 57.6803C54.6472 56.8303 54.7001 55.9439 54.7001 55.2998H52.7001C52.7001 55.8557 52.653 56.6693 52.5682 57.4693C52.4816 58.2852 52.3639 59.007 52.2423 59.4124L54.1579 59.9871ZM43.8999 55.3999C43.8999 56.7386 44.1012 58.9509 44.4421 60.0873L46.3577 59.5126C46.0986 58.6489 45.8999 56.6612 45.8999 55.3999H43.8999ZM44.3999 59.7999C44.3999 60.2781 44.6302 60.6562 44.8441 60.8939C45.0647 61.139 45.359 61.3404 45.6837 61.4486L46.3161 59.5512C46.3337 59.5571 46.3383 59.5611 46.3343 59.5585C46.3307 59.5561 46.329 59.5541 46.3307 59.5559C46.3318 59.5572 46.3456 59.5723 46.3612 59.6065C46.377 59.6411 46.3999 59.7075 46.3999 59.7999H44.3999ZM51.1583 60.2638C50.9498 60.8474 50.6876 61.2214 50.4077 61.4483C50.1418 61.6639 49.7957 61.8001 49.3 61.8001V63.8001C50.2043 63.8001 51.0082 63.5363 51.6673 63.0019C52.3124 62.4788 52.7502 61.7528 53.0417 60.9364L51.1583 60.2638ZM49.3 61.8001C48.8043 61.8001 48.4582 61.6639 48.1923 61.4483C47.9124 61.2214 47.6502 60.8474 47.4417 60.2638L45.5583 60.9364C45.8498 61.7528 46.2876 62.4788 46.9327 63.0019C47.5918 63.5363 48.3957 63.8001 49.3 63.8001V61.8001Z" fill="#494A4A"/>
<path id="1px" d="M12.7 46.1001C10 47.0001 9.9 47.4001 9 50.9001M54.1999 53.8999C54.1999 56.1999 44.3999 56.1999 44.3999 53.8999M46 59.8999C47.3 60.3999 51.2 60.3999 52.5 59.8999M36.7998 38.2002C38.3998 39.5002 37.9998 40.7002 34.7998 42.1002C37.4998 41.5002 37.9998 43.7002 36.2998 46.8002C40.2998 45.6002 36.7998 52.9002 35.6998 49.9002C35.0998 48.4002 39.5998 49.4002 39.2998 51.8002M60.4998 36.7998C60.1998 38.1998 60.6998 39.9998 62.4998 39.4998C60.9998 40.1998 59.7998 43.8998 62.4998 44.0998C63.5998 44.1998 63.8998 42.2998 62.4998 42.4998C60.6998 42.7998 60.2998 44.8998 62.1998 47.2998C60.4998 46.3998 59.5998 48.7998 59.2998 49.7998" stroke="#494A4A" stroke-linecap="round" stroke-linejoin="round"/>
</g>
</g>
<defs>
<clipPath id="clip0_622_41975">
<rect width="64" height="64" fill="white"/>
</clipPath>
</defs>
</svg>
