<svg width="64" height="64" viewBox="0 0 64 64" fill="none" xmlns="http://www.w3.org/2000/svg">
<g id="  Pictogram-book-note">
<g id="stroke-default">
<path id="2px" d="M6.80058 11.0004C5.90058 11.0004 3.80058 11.5004 3.70058 12.4004C2.40058 23.5004 1.70058 44.0004 2.10058 53.1004C2.20058 54.9004 3.70058 56.0004 6.00058 56.0004C7.10058 55.9004 17.5006 55.6004 21.2006 55.5004C22.9006 55.5004 23.1006 55.5004 24.0006 55.5004C26.1006 55.5004 27.3006 56.2004 27.4006 57.8004C27.5006 59.4004 36.2006 59.4004 36.5006 57.8004M57.4006 11.2004C58.5006 11.4004 60.2006 12.2004 60.4006 13.9004C61.4006 21.2004 61.9006 31.3004 62.0006 40.1004M42.1007 51.6C42.1007 51.6 41.0007 61.8 41.6007 61.8C42.2007 61.8 47.8007 58.7 48.6007 58.6C49.4007 58.5 54.8007 61.8 55.5007 61.8C56.2007 61.8 54.9007 51.4 54.9007 51.4M49.9007 34.8C50.9007 33.4 53.1007 34.1 53.1007 35.8C53.1007 37 54.3007 37.9 55.4007 37.5C57.0007 36.9 58.4007 38.8 57.4007 40.2C56.7007 41.2 57.1007 42.6 58.3007 42.9C60.0007 43.4 60.0007 45.7 58.3007 46.2C57.1007 46.5 56.7007 47.9 57.4007 48.9C58.5007 50.3 57.1007 52.2 55.4007 51.6C54.2007 51.2 53.0007 52.1 53.1007 53.3C53.1007 55 50.9007 55.7 49.9007 54.3C49.2007 53.3 47.7007 53.3 47.0007 54.3C46.0007 55.7 43.8007 55 43.8007 53.3C43.8007 52.1 42.6007 51.2 41.5007 51.6C39.9007 52.2 38.5007 50.3 39.5007 48.9C40.2007 47.9 39.8007 46.5 38.6007 46.2C36.9007 45.7 36.9007 43.4 38.6007 42.9C39.8007 42.6 40.2007 41.2 39.5007 40.2C38.4007 38.8 39.8007 36.9 41.5007 37.5C42.7007 37.9 43.9007 37 43.8007 35.8C43.8007 34.1 46.0007 33.4 47.0007 34.8C47.7007 35.8 49.2007 35.8 49.9007 34.8Z" stroke="#494A4A" stroke-width="2" stroke-linecap="round" stroke-linejoin="round"/>
<path id="1px" d="M29.6002 55.4004C28.1002 51.4004 24.2002 51.4004 21.7002 51.4004C16.4002 51.5004 12.1002 52.9004 7.70018 52.3004C6.70018 52.2004 6.00018 51.5004 6.00018 49.9004C5.50018 40.3004 6.50018 20.5004 7.50018 9.50039C7.60018 8.10039 8.70018 7.50039 10.2002 7.50039C15.2002 7.60039 19.0002 6.40039 23.0002 6.40039C27.0002 6.40039 29.6002 7.70039 32.0002 9.90039C34.4002 7.70039 37.0002 6.40039 41.0002 6.40039C45.0002 6.40039 49.0002 7.60039 54.0002 7.50039C55.5002 7.50039 56.6002 8.10039 56.7002 9.50039C57.3002 15.9004 57.9002 25.2004 58.2002 33.8004M32.0002 10.3004C30.7002 28.4004 32.8002 40.0004 31.8002 55.5004M9.60018 14.9004C10.0002 10.8004 9.60018 10.0004 12.0002 9.80039M15.7002 20.7004C20.1002 20.1004 22.7002 18.6004 27.3002 20.3004M10.7002 25.9004C18.2002 25.9004 21.8002 23.3004 27.3002 25.3004M10.7002 30.9004C18.2002 30.9004 21.8002 28.3004 27.3002 30.3004M10.7002 35.9004C14.9002 35.9004 17.9002 35.1004 20.7002 34.7004M51.9002 16.0004C45.5002 16.0004 42.1002 12.9004 37.4002 15.7004M46.0002 20.2004C42.9002 19.5004 40.5002 18.9004 37.5002 20.6004M54.5003 44.5C54.5003 47.8137 51.814 50.5 48.5003 50.5C45.1866 50.5 42.5003 47.8137 42.5003 44.5C42.5003 41.1863 45.1866 38.5 48.5003 38.5C51.814 38.5 54.5003 41.1863 54.5003 44.5Z" stroke="#494A4A" stroke-linecap="round" stroke-linejoin="round"/>
</g>
</g>
</svg>
