<svg width="64" height="64" viewBox="0 0 64 64" fill="none" xmlns="http://www.w3.org/2000/svg">
<g id="Pictogram-robot">
<g id="stroke-default">
<path id="2px-stroke-default" d="M13.4002 20.3999C7.0002 22.0999 7.5002 26.2999 8.8002 39.9999C10.3002 56.3999 12.3002 56.3999 29.1002 56.6999C49.2002 57.0999 52.8002 59.7999 54.7002 38.0999C55.9002 24.0999 58.7002 19.3999 50.3002 18.3999M32.8 18.7002C32.2 18.7002 31.9 18.7002 31.2 18.8002C30.1 18.8002 29.5 18.9002 28.5 19.0002M8.10012 36.7998C8.10012 36.7998 5.10012 37.4998 5.10012 39.0998C5.10012 40.6998 4.90012 42.0998 5.10012 42.7998C5.70012 44.6998 8.00012 44.8998 9.20012 45.2998M54.2998 45.1001C54.2998 45.1001 57.5998 45.1001 58.0998 43.7001C58.5998 42.3001 59.0998 40.8001 59.0998 40.1001C59.0998 38.1001 56.1998 36.8001 55.0998 36.1001M29.3002 22.0001C31.2002 33.2001 14.6002 37.7001 12.9002 24.0001C11.8002 15.0001 27.4002 10.4001 29.3002 22.0001ZM22.0998 25.2001C22.2998 26.5001 20.3998 27.0001 20.1998 25.4001C20.0998 24.4001 21.8998 23.8001 22.0998 25.2001ZM42.5998 24.6C42.7998 25.9 40.8998 26.4 40.6998 24.8C40.5998 23.8 42.3998 23.2 42.5998 24.6ZM51 21.2001C53.2 33.9001 34.7 38.6001 32.2 23.8001C30.2 12.2001 48.6 7.40012 51 21.2001ZM12.7998 14.1C13.7998 12.8 19.6998 7.99999 20.4998 10.1C21.1998 12 12.7998 14.1 12.7998 14.1ZM48.7 7.39989C39.2 4.99989 38.6 7.59989 38.5 5.89989C38.5 1.69989 48.7 7.39989 48.7 7.39989ZM30.9002 48.0998C31.6002 46.6998 28.0002 41.5998 23.5002 41.9998C19.9002 42.3998 19.7002 44.4998 19.9002 46.0998C20.3002 48.4998 23.0002 47.4998 25.1002 47.3998C26.3002 47.3998 29.8002 50.3998 30.8002 48.0998H30.9002ZM2.50018 30.5999C-0.0998183 29.9999 1.10018 25.4999 3.10018 26.0999C6.90018 27.1999 4.30018 30.9999 2.50018 30.5999ZM61.5 31.0998C64.1 30.4998 62.9 26.5998 60.9 27.0998C57.1 28.0998 59.7 31.4998 61.5 31.0998Z" stroke="#494A4A" stroke-width="2" stroke-linecap="round" stroke-linejoin="round"/>
<path id="1px-stroke-default" d="M4.69988 40.9998C2.89988 41.3998 -0.600123 39.0998 1.79988 31.2998M59 41.9999C60.8 42.3999 64.6 39.5999 62.2 31.8999" stroke="#494A4A" stroke-linecap="round" stroke-linejoin="round"/>
</g>
</g>
</svg>
