<svg width="64" height="64" viewBox="0 0 64 64" fill="none" xmlns="http://www.w3.org/2000/svg">
<g id="Pictogram-HR">
<g id="stroke-default">
<path id="2px" d="M50 31.92C50 31.3677 49.5523 30.92 49 30.92C48.4477 30.92 48 31.3677 48 31.92H50ZM60.17 40L59.6371 40.8462L59.6443 40.8507L59.6517 40.8552L60.17 40ZM59.2666 49.6876C58.7296 49.8165 58.3987 50.3563 58.5276 50.8934C58.6565 51.4304 59.1963 51.7613 59.7334 51.6324L59.2666 49.6876ZM43.6453 31.405C43.1455 31.1701 42.5499 31.3848 42.315 31.8847C42.0801 32.3845 42.2948 32.9801 42.7947 33.215L43.6453 31.405ZM45.67 32.87L45.6599 33.87H45.67V32.87ZM45.67 10L45.6459 10.9997C45.6539 10.9999 45.662 11 45.67 11V10ZM43.7981 9.17059C43.2572 9.28208 42.9091 9.81096 43.0206 10.3519C43.1321 10.8928 43.661 11.2409 44.2019 11.1294L43.7981 9.17059ZM4.26663 51.6324C4.80366 51.7613 5.3435 51.4304 5.47239 50.8934C5.60128 50.3563 5.27041 49.8165 4.73337 49.6876L4.26663 51.6324ZM3.84 40L4.37092 40.8474L4.37293 40.8462L3.84 40ZM16 31.92C16 31.3677 15.5523 30.92 15 30.92C14.4477 30.92 14 31.3677 14 31.92H16ZM20.0759 11.0846C20.6251 11.1421 21.1171 10.7434 21.1746 10.1941C21.2321 9.64486 20.8334 9.15295 20.2841 9.09544L20.0759 11.0846ZM18.33 10V11L18.3371 11L18.33 10ZM18.33 32.87V33.8701L18.3401 33.8699L18.33 32.87ZM21.2053 33.215C21.7052 32.9801 21.9199 32.3845 21.685 31.8847C21.4501 31.3848 20.8545 31.1701 20.3547 31.405L21.2053 33.215ZM38.31 32.92C38.31 32.3677 37.8623 31.92 37.31 31.92C36.7577 31.92 36.31 32.3677 36.31 32.92H38.31ZM51.42 43.03L50.8857 43.8753L50.8889 43.8773L51.42 43.03ZM12.19 43.3L12.7567 44.1239L12.7627 44.1198L12.19 43.3ZM27.56 32.92C27.56 32.3677 27.1123 31.92 26.56 31.92C26.0077 31.92 25.56 32.3677 25.56 32.92H27.56ZM48 31.92C48 33.6993 48.5253 35.0731 49.4419 36.133C50.3352 37.166 51.535 37.8247 52.7518 38.316C53.9554 38.802 55.3063 39.1712 56.486 39.5389C57.7095 39.9203 58.7841 40.3089 59.6371 40.8462L60.7029 39.1538C59.6109 38.4661 58.3167 38.0147 57.0812 37.6295C55.8018 37.2307 54.6033 36.9067 53.5007 36.4615C52.4112 36.0216 51.548 35.5109 50.9547 34.8248C50.3847 34.1657 50 33.2707 50 31.92H48ZM59.6517 40.8552C59.8463 40.9731 60.1254 41.2684 60.4351 41.8232C60.7332 42.3572 61.0106 43.0429 61.2476 43.8167C61.7231 45.3688 62 47.155 62 48.54H64C64 46.935 63.6869 44.9512 63.1599 43.2308C62.8957 42.3684 62.5687 41.5421 62.1815 40.8484C61.8058 40.1754 61.3187 39.5269 60.6883 39.1448L59.6517 40.8552ZM62 48.54C62 48.4538 62.0737 48.586 61.5859 48.8735C61.1207 49.1478 60.3602 49.4252 59.2666 49.6876L59.7334 51.6324C60.8898 51.3548 61.8793 51.0222 62.6016 50.5965C63.3013 50.184 64 49.5262 64 48.54H62ZM42.7947 33.215C43.6916 33.6366 44.6689 33.86 45.6599 33.8699L45.6801 31.8701C44.9763 31.863 44.2823 31.7043 43.6453 31.405L42.7947 33.215ZM45.67 33.87C50.4998 33.87 55 28.6362 55 19.77H53C53 28.1838 48.8402 31.87 45.67 31.87V33.87ZM55 19.77C55 16.329 54.1731 13.6139 52.5177 11.7497C50.8458 9.86707 48.461 9 45.67 9V11C48.039 11 49.8191 11.7229 51.0223 13.0778C52.2419 14.4511 53 16.621 53 19.77H55ZM45.6941 9.00029C45.0577 8.98494 44.4216 9.04208 43.7981 9.17059L44.2019 11.1294C44.6767 11.0315 45.1612 10.988 45.6459 10.9997L45.6941 9.00029ZM4.73337 49.6876C3.63984 49.4252 2.87932 49.1478 2.41406 48.8735C1.92634 48.586 2 48.4538 2 48.54H0C0 49.5262 0.69866 50.184 1.39844 50.5965C2.12068 51.0222 3.11016 51.3548 4.26663 51.6324L4.73337 49.6876ZM2 48.54C2 47.1503 2.2768 45.3747 2.75312 43.8296C2.99055 43.0594 3.2688 42.3755 3.56865 41.8395C3.87898 41.2848 4.16334 40.9775 4.37092 40.8474L3.30908 39.1526C2.68666 39.5425 2.20102 40.1877 1.82323 40.863C1.43495 41.557 1.10695 42.3806 0.84188 43.2404C0.313205 44.9553 0 46.9297 0 48.54H2ZM4.37293 40.8462C5.22601 40.3089 6.3001 39.9202 7.52266 39.5388C8.70147 39.1711 10.0511 38.8019 11.2535 38.3159C12.4692 37.8244 13.6678 37.1657 14.5601 36.1325C15.4756 35.0726 16 33.6989 16 31.92H14C14 33.2711 13.6157 34.1662 13.0465 34.8253C12.4541 35.5112 11.592 36.0218 10.504 36.4616C9.40265 36.9068 8.20541 37.2308 6.92703 37.6296C5.6924 38.0148 4.39899 38.4661 3.30707 39.1538L4.37293 40.8462ZM20.2841 9.09544C19.6327 9.02722 18.9779 8.99537 18.3229 9.00003L18.3371 11C18.9178 10.9958 19.4983 11.0241 20.0759 11.0846L20.2841 9.09544ZM18.33 9C15.539 9 13.1541 9.86707 11.4823 11.7497C9.82688 13.6139 9 16.329 9 19.77H11C11 16.621 11.7581 14.4511 12.9777 13.0778C14.1809 11.7229 15.961 11 18.33 11V9ZM9 19.77C9 28.6386 13.532 33.87 18.33 33.87V31.87C15.188 31.87 11 28.1814 11 19.77H9ZM18.3401 33.8699C19.3311 33.86 20.3084 33.6366 21.2053 33.215L20.3547 31.405C19.7177 31.7043 19.0237 31.863 18.3199 31.8701L18.3401 33.8699ZM36.31 32.92C36.31 35.0965 36.9561 36.7553 38.0703 38.0284C39.1601 39.2737 40.6317 40.0737 42.1503 40.6779C43.6551 41.2766 45.3425 41.731 46.8439 42.196C48.3899 42.6748 49.7762 43.174 50.8857 43.8753L51.9543 42.1847C50.6038 41.331 48.9963 40.7689 47.4355 40.2855C45.83 39.7883 44.2974 39.3797 42.8897 38.8196C41.4958 38.265 40.3624 37.6107 39.5753 36.7113C38.8126 35.8397 38.31 34.6635 38.31 32.92H36.31ZM50.8889 43.8773C51.2045 44.0752 51.589 44.5061 51.9889 45.2191C52.3784 45.9133 52.7356 46.7903 53.0386 47.7674C53.6462 49.7268 54 51.9719 54 53.72H56C56 51.7481 55.6088 49.3032 54.9489 47.1751C54.6181 46.1085 54.211 45.0923 53.7332 44.2406C53.266 43.4076 52.6805 42.6398 51.9511 42.1827L50.8889 43.8773ZM54 53.72C54 53.7236 54.0006 53.7391 53.9809 53.777C53.9585 53.8201 53.9086 53.893 53.8036 53.9903C53.5859 54.1921 53.209 54.4278 52.6318 54.6735C51.4831 55.1623 49.7782 55.5929 47.6492 55.9453C43.4096 56.647 37.7186 57.0025 32 57.0025C26.2814 57.0025 20.5904 56.647 16.3508 55.9453C14.2218 55.5929 12.5169 55.1623 11.3682 54.6735C10.791 54.4278 10.4141 54.1921 10.1964 53.9903C10.0914 53.893 10.0415 53.8201 10.0191 53.777C9.99936 53.7391 10 53.7236 10 53.72H8C8 54.4465 8.37398 55.0281 8.83683 55.4571C9.29288 55.8798 9.90432 56.2241 10.585 56.5137C11.9519 57.0955 13.8407 57.5571 16.0242 57.9185C20.4096 58.6443 26.2186 59.0025 32 59.0025C37.7814 59.0025 43.5904 58.6443 47.9758 57.9185C50.1593 57.5571 52.0481 57.0955 53.415 56.5137C54.0957 56.2241 54.7071 55.8798 55.1632 55.4571C55.626 55.0281 56 54.4465 56 53.72H54ZM10 53.72C10 52.0718 10.3095 49.8827 10.8492 47.9546C11.1185 46.9928 11.437 46.125 11.7861 45.4367C12.147 44.725 12.4897 44.3076 12.7567 44.1239L11.6233 42.4761C10.9453 42.9424 10.4167 43.715 10.0024 44.5321C9.57613 45.3725 9.21528 46.3722 8.92327 47.4154C8.34051 49.4973 8 51.8682 8 53.72H10ZM12.7627 44.1198C13.8285 43.3753 15.1989 42.8618 16.7577 42.3839C18.2605 41.9231 19.9994 41.4808 21.5342 40.8972C23.0917 40.3049 24.6126 39.5099 25.7406 38.233C26.8935 36.9278 27.56 35.2067 27.56 32.92H25.56C25.56 34.7833 25.0315 36.0147 24.2416 36.9089C23.4268 37.8313 22.257 38.4826 20.8233 39.0278C19.3668 39.5817 17.8139 39.9681 16.1714 40.4717C14.5848 40.9582 12.9565 41.5447 11.6173 42.4802L12.7627 44.1198ZM32 36C37.6005 36 43 29.7612 43 19H41C41 29.3388 35.9195 34 32 34V36ZM43 19C43 14.8089 42.0155 11.5396 40.0762 9.30676C38.1176 7.05176 35.313 6 32 6V8C34.877 8 37.0724 8.89824 38.5663 10.6182C40.0795 12.3604 41 15.0911 41 19H43ZM32 6C28.687 6 25.8824 7.05176 23.9238 9.30676C21.9845 11.5396 21 14.8089 21 19H23C23 15.0911 23.9205 12.3604 25.4337 10.6182C26.9276 8.89824 29.123 8 32 8V6ZM21 19C21 29.7612 26.3995 36 32 36V34C28.0805 34 23 29.3388 23 19H21Z" fill="#494A4A"/>
<path id="1px" d="M7.65018 28.75L3.18018 30.32M4.83018 26.07L7.24018 26M7.66018 32L9.00018 30.9M15.8302 44.74C13.5602 45.48 13.4902 45.74 12.7002 48.74" stroke="#494A4A" stroke-linecap="round" stroke-linejoin="round"/>
</g>
</g>
</svg>
