<svg width="64" height="64" viewBox="0 0 64 64" fill="none" xmlns="http://www.w3.org/2000/svg">
<g id="Pictogram-indoor-temperature">
<g id="stroke-default">
<path id="2px" d="M18.2999 60.6997C18.3999 59.9997 18.3999 57.9997 18.9999 57.4997C19.3999 57.1997 32.2999 56.9997 38.2999 57.2997M23.1999 57.1997C22.8999 52.5997 22.9999 42.4997 23.1999 39.9997C23.4999 34.8997 36.3999 34.8997 36.9999 39.8997C36.9999 40.5997 36.9999 52.2997 36.9999 56.7997M18.2999 59.4997C17.6999 59.4997 15.1999 59.4997 14.5999 59.4997M5.49994 45.5997C5.49994 36.6997 5.89994 26.6997 6.19994 20.2997M42.5999 14.2997C36.9999 11.6997 31.6999 9.19974 30.5999 9.19974C28.1999 9.29974 7.49994 19.8997 4.89994 20.7997C2.69994 21.4997 0.699942 19.7997 2.79994 18.2997C9.89994 13.1997 20.8999 6.09974 27.4999 3.19974C29.8999 2.19974 31.0999 1.99974 33.3999 3.19974C35.1999 4.09974 41.0999 6.89974 44.9999 9.09974M5.90005 55.5004C2.20005 51.4004 -1.19995 60.3004 6.90005 60.6004C9.10005 60.6004 13.1001 61.0004 14.1001 58.2004M5.2998 54.4996C5.5998 50.0996 7.6998 48.4996 8.9998 48.0996C12.3998 46.8996 17.7998 50.7996 13.8998 59.0996M48.4999 38.2001H52.8999M50.9999 30.4001H49.0999M50.9999 23.1001H48.5999M35.2999 29.0997C34.6999 29.2997 24.7999 29.1997 24.1999 29.0997C23.4999 28.8997 23.1999 28.3997 23.0999 27.8997C22.9999 27.1997 22.9999 20.8997 23.0999 20.1997C23.1999 19.4997 23.6999 19.0997 24.1999 18.9997C24.7999 18.8997 34.5999 18.7997 35.1999 18.9997C36.0999 19.1997 36.6999 19.5997 36.7999 20.6997C36.7999 21.2997 36.8999 26.5997 36.7999 27.2997C36.6999 28.3997 35.9999 29.0997 35.1999 29.2997L35.2999 29.0997ZM61.4999 51.8001C61.4999 57.0001 57.3999 61.3001 52.3999 61.3001C47.3999 61.3001 42.8999 57.5001 42.8999 52.2001C42.8999 48.4001 45.3999 44.6001 48.5999 43.2001C48.3999 32.0001 47.7999 18.5001 48.5999 14.4001C49.5999 9.00009 55.2999 10.9001 55.7999 14.4001C56.2999 17.9001 55.9999 31.6001 55.9999 43.2001C57.5999 44.9001 61.4999 48.0001 61.4999 51.9001V51.8001Z" stroke="#494A4A" stroke-width="2" stroke-linecap="round" stroke-linejoin="round"/>
<path id="1px" d="M9.60006 26.2997C9.60006 22.7997 9.30006 22.6997 13.2001 21.5997M32.9001 46.0997C32.9001 47.7997 32.9001 49.0997 32.9001 49.5997M18.3001 61.2997C22.6001 61.2997 33.5001 61.2997 40.2001 61.2997M58.3 52.4001C58.3 52.4001 59.1 54.9001 55.7 57.1001" stroke="#494A4A" stroke-linecap="round" stroke-linejoin="round"/>
</g>
</g>
</svg>
