<svg width="64" height="64" viewBox="0 0 64 64" fill="none" xmlns="http://www.w3.org/2000/svg">
<g id="Pictogram-user-calendar-2" clip-path="url(#clip0_622_42037)">
<g id="stroke-default">
<path id="2px" d="M38.4429 63.8992C38.9947 63.8755 39.4228 63.409 39.3991 62.8572C39.3754 62.3054 38.9089 61.8773 38.3571 61.901L38.4429 63.8992ZM8.8 45.0001L9.37106 45.821L9.37753 45.8165L9.38393 45.8119L8.8 45.0001ZM27.1 32.1001C27.1 31.5478 26.6523 31.1001 26.1 31.1001C25.5477 31.1001 25.1 31.5478 25.1 32.1001H27.1ZM39.1 32.1001C39.1 31.5478 38.6523 31.1001 38.1 31.1001C37.5477 31.1001 37.1 31.5478 37.1 32.1001H39.1ZM37.3513 34.2163C37.526 34.7403 38.0923 35.0234 38.6162 34.8488C39.1402 34.6741 39.4233 34.1078 39.2487 33.5839L37.3513 34.2163ZM57.1999 37.2H56.1999C56.1999 37.7288 56.6116 38.1662 57.1394 38.1982L57.1999 37.2ZM62.6999 42.3L61.7049 42.3995L61.7055 42.4058L62.6999 42.3ZM62.6999 57.6L61.7073 57.4789L61.7071 57.4809L62.6999 57.6ZM57.1999 62.7L57.1094 61.7041L57.1004 61.705L57.1999 62.7ZM46.6999 62.9L46.7453 61.901L46.7399 61.9008L46.6999 62.9ZM42.9999 58.3L43.9918 58.172L43.9899 58.1586L42.9999 58.3ZM38.5999 55L38.6332 54.0006C38.6221 54.0002 38.611 54 38.5999 54V55ZM35.0999 52.8L36.0984 52.7445C36.0978 52.7341 36.0971 52.7237 36.0962 52.7134L35.0999 52.8ZM40.7999 37.1L40.7464 36.1014L40.7445 36.1015L40.7999 37.1ZM57.1999 37.1H58.1999C58.1999 36.5701 57.7866 36.1322 57.2575 36.1017L57.1999 37.1ZM47.1774 63.9995C47.7295 64.0121 48.1873 63.5747 48.1998 63.0225C48.2124 62.4704 47.775 62.0126 47.2228 62.0001L47.1774 63.9995ZM38.7001 59.0998L38.0124 59.8258C38.0163 59.8295 38.0203 59.8333 38.0244 59.837L38.7001 59.0998ZM36.0996 52.2686C36.0824 51.7166 35.6209 51.283 35.0689 51.3003C34.5168 51.3175 34.0833 51.779 34.1006 52.331L36.0996 52.2686ZM55.2 35.5001L56.1487 35.8163C56.1677 35.7594 56.1815 35.7009 56.1899 35.6415L55.2 35.5001ZM56 35.5001H57C57 35.4528 56.9966 35.4055 56.9899 35.3587L56 35.5001ZM55.8 38.5001L54.8238 38.2832C54.8183 38.3082 54.8137 38.3333 54.8101 38.3587L55.8 38.5001ZM42.8 35.5001L41.8101 35.6415C41.8185 35.7009 41.8323 35.7594 41.8513 35.8163L42.8 35.5001ZM42 35.5001L41.0101 35.3587C41.0034 35.4055 41 35.4528 41 35.5001H42ZM42.2 38.5001L43.1899 38.3587C43.1863 38.3333 43.1817 38.3082 43.1762 38.2832L42.2 38.5001ZM38.3571 61.901C30.2467 62.2493 21.9586 61.999 15.7209 61.159C12.5928 60.7378 10.0379 60.1756 8.2901 59.4935C7.41261 59.1511 6.8013 58.8021 6.42554 58.4729C6.05659 58.1497 6 57.9267 6 57.8001H4C4 58.6985 4.47778 59.4255 5.10766 59.9773C5.73073 60.5231 6.5827 60.9741 7.56302 61.3567C9.53086 62.1246 12.2697 62.7124 15.4541 63.1412C21.8414 64.0012 30.2533 64.2509 38.4429 63.8992L38.3571 61.901ZM6 57.8001C6 55.8478 6.36071 53.1346 7.00382 50.72C7.32475 49.5149 7.70812 48.4146 8.13531 47.5357C8.57534 46.6305 9.0082 46.0734 9.37106 45.821L8.22894 44.1792C7.4418 44.7268 6.82466 45.6572 6.33656 46.6614C5.83563 47.6919 5.41275 48.9228 5.07118 50.2052C4.38929 52.7656 4 55.6524 4 57.8001H6ZM9.38393 45.8119C10.6739 44.8841 12.3392 44.2349 14.2162 43.6263C16.0389 43.0354 18.1129 42.4695 19.96 41.7281C21.8287 40.9781 23.6272 39.9916 24.9553 38.4537C26.3066 36.8888 27.1 34.8361 27.1 32.1001H25.1C25.1 34.4141 24.4434 35.9864 23.4416 37.1465C22.4165 38.3336 20.9588 39.1721 19.215 39.8721C17.4496 40.5807 15.5548 41.0898 13.5994 41.7239C11.6983 42.3403 9.77615 43.0661 8.21607 44.1883L9.38393 45.8119ZM37.1 32.1001C37.1 32.6775 37.0921 33.4387 37.3513 34.2163L39.2487 33.5839C39.1079 33.1615 39.1 32.7226 39.1 32.1001H37.1ZM32 35.5C38.5389 35.5 45 28.2134 45 15.3H43C43 27.7866 36.8611 33.5 32 33.5V35.5ZM45 15.3C45 10.3546 43.816 6.5108 41.5281 3.89206C39.2222 1.2528 35.9199 0 32 0V2C35.4801 2 38.1778 3.0972 40.0219 5.20794C41.884 7.3392 43 10.6454 43 15.3H45ZM32 0C28.0801 0 24.7778 1.2528 22.4719 3.89206C20.184 6.5108 19 10.3546 19 15.3H21C21 10.6454 22.116 7.3392 23.9781 5.20794C25.8222 3.0972 28.5199 2 32 2V0ZM19 15.3C19 28.2134 25.4611 35.5 32 35.5V33.5C27.1389 33.5 21 27.7866 21 15.3H19ZM57.1394 38.1982C58.6088 38.2872 59.6686 38.7462 60.3877 39.4265C61.1056 40.1055 61.5739 41.09 61.7049 42.3995L63.695 42.2005C63.5259 40.51 62.8943 39.0445 61.7621 37.9735C60.6313 36.9038 59.0911 36.3128 57.2604 36.2018L57.1394 38.1982ZM61.7055 42.4058C62.1986 47.041 62.1969 53.4641 61.7073 57.4789L63.6926 57.7211C64.203 53.5359 64.2012 46.959 63.6943 42.1942L61.7055 42.4058ZM61.7071 57.4809C61.4603 59.537 59.9151 61.449 57.1094 61.7041L57.2905 63.6959C61.0848 63.351 63.3396 60.663 63.6928 57.7191L61.7071 57.4809ZM57.1004 61.705C54.1659 61.9984 48.9182 61.9998 46.7453 61.901L46.6545 63.899C48.8816 64.0002 54.234 64.0016 57.2994 63.695L57.1004 61.705ZM46.7399 61.9008C45.6918 61.8589 45.1926 61.5653 44.8624 61.125C44.4678 60.5989 44.1894 59.7038 43.9917 58.172L42.0082 58.428C42.2105 59.9962 42.532 61.3511 43.2624 62.325C44.0572 63.3847 45.2081 63.8411 46.66 63.8992L46.7399 61.9008ZM43.9899 58.1586C43.8196 56.9666 43.3957 55.886 42.4371 55.1191C41.5057 54.374 40.2264 54.0537 38.6332 54.0006L38.5666 55.9994C39.9735 56.0463 40.7441 56.326 41.1877 56.6809C41.6042 57.014 41.8803 57.5334 42.01 58.4414L43.9899 58.1586ZM38.5999 54C37.7965 54 37.136 53.9 36.6971 53.6806C36.338 53.501 36.1267 53.2539 36.0984 52.7445L34.1015 52.8555C34.1732 54.1461 34.8618 54.999 35.8027 55.4694C36.6639 55.9 37.7033 56 38.5999 56V54ZM36.0962 52.7134C35.9037 50.5005 36.0973 45.2733 36.2977 42.2665L34.3021 42.1335C34.1026 45.1267 33.8961 50.4995 34.1037 52.8866L36.0962 52.7134ZM36.2977 42.2665C36.3862 40.9389 36.7961 39.9742 37.472 39.317C38.1501 38.6577 39.2179 38.1894 40.8554 38.0985L40.7445 36.1015C38.782 36.2106 37.1998 36.7923 36.0779 37.883C34.9538 38.9758 34.4136 40.4611 34.3021 42.1335L36.2977 42.2665ZM40.8534 38.0986C46.4192 37.8004 51.982 37.8006 57.1423 38.0983L57.2575 36.1017C52.0178 35.7994 46.3807 35.7996 40.7464 36.1014L40.8534 38.0986ZM56.1999 37.1V37.2H58.1999V37.1H56.1999ZM47.2228 62.0001C45.1523 61.953 43.7875 61.5572 42.6747 60.9571C41.5294 60.3396 40.5969 59.482 39.3758 58.3626L38.0244 59.837C39.2033 60.9176 40.3208 61.9601 41.7255 62.7175C43.1627 63.4924 44.8479 63.9466 47.1774 63.9995L47.2228 62.0001ZM39.3878 58.3739C37.533 56.6167 36.1867 55.0556 36.0996 52.2686L34.1006 52.331C34.2135 55.944 36.0672 57.983 38.0124 59.8258L39.3878 58.3739ZM56 38.4001C56 37.9974 56.0002 37.4444 56.024 36.9205C56.0497 36.3535 56.0992 35.9648 56.1487 35.8163L54.2513 35.1839C54.1008 35.6354 54.0503 36.2967 54.026 36.8297C53.9998 37.4058 54 38.0028 54 38.4001H56ZM56.1899 35.6415C56.1964 35.5963 56.1992 35.6517 56.1259 35.7411C56.0474 35.8366 55.869 35.9751 55.6 35.9751C55.331 35.9751 55.1526 35.8366 55.0742 35.7411C55.0008 35.6517 55.0036 35.5963 55.0101 35.6415L56.9899 35.3587C56.9156 34.8379 56.5401 33.9751 55.6 33.9751C54.6599 33.9751 54.2844 34.8379 54.2101 35.3587L56.1899 35.6415ZM55 35.5001C55 36.1399 54.9947 37.5142 54.8238 38.2832L56.7762 38.717C57.0053 37.686 57 36.0603 57 35.5001H55ZM54.8101 38.3587C54.7991 38.435 54.8593 38.0251 55.3625 38.0251C55.6011 38.0251 55.7956 38.1435 55.9041 38.2848C56.004 38.4149 56 38.5159 56 38.5001H54C54 38.8343 54.0835 39.1978 54.3178 39.5029C54.5607 39.8192 54.9364 40.0251 55.3625 40.0251C56.2407 40.0251 56.7009 39.2652 56.7899 38.6415L54.8101 38.3587ZM56 38.5001V38.4001H54V38.5001H56ZM44 38.4001C44 38.0028 44.0002 37.4058 43.974 36.8297C43.9497 36.2967 43.8992 35.6354 43.7487 35.1839L41.8513 35.8163C41.9008 35.9648 41.9503 36.3535 41.976 36.9205C41.9998 37.4444 42 37.9974 42 38.4001H44ZM43.79 35.3587C43.7156 34.8379 43.3401 33.9751 42.4 33.9751C41.4599 33.9751 41.0844 34.8379 41.0101 35.3587L42.9899 35.6415C42.9964 35.5963 42.9992 35.6518 42.9258 35.7411C42.8474 35.8366 42.669 35.9751 42.4 35.9751C42.131 35.9751 41.9526 35.8366 41.8742 35.7411C41.8008 35.6518 41.8036 35.5963 41.8101 35.6415L43.79 35.3587ZM41 35.5001C41 36.0603 40.9947 37.686 41.2238 38.717L43.1762 38.2832C43.0053 37.5142 43 36.1399 43 35.5001H41ZM41.2101 38.6415C41.2991 39.2652 41.7593 40.0251 42.6375 40.0251C43.0636 40.0251 43.4393 39.8192 43.6822 39.5029C43.9165 39.1978 44 38.8343 44 38.5001H42C42 38.5159 41.996 38.4149 42.0959 38.2848C42.2044 38.1435 42.3989 38.0251 42.6375 38.0251C43.1407 38.0251 43.2009 38.435 43.1899 38.3587L41.2101 38.6415ZM44 38.5001V38.4001H42V38.5001H44Z" fill="#494A4A"/>
<path id="1px" d="M12.7 46.1001C10 47.0001 9.9 47.4001 9 50.9001M49.7001 45.4001C49.7001 45.4001 48.6001 45.4001 48.3001 45.4001C47.8001 45.3001 47.7001 45.0001 47.6001 44.7001C47.6001 44.3001 47.6001 43.7001 47.6001 43.3001C47.6001 42.9001 48.0001 42.7001 48.3001 42.6001C48.7001 42.6001 49.3001 42.6001 49.7001 42.6001C50.1001 42.6001 50.3001 43.0001 50.4001 43.3001C50.5001 43.6001 50.5001 44.3001 50.4001 44.7001C50.4001 45.0001 50.1001 45.3001 49.7001 45.4001ZM56.7001 45.4001C56.7001 45.4001 55.6001 45.4001 55.3001 45.4001C54.8001 45.3001 54.7001 45.0001 54.6001 44.7001C54.6001 44.3001 54.6001 43.7001 54.6001 43.3001C54.6001 42.9001 55.0001 42.7001 55.3001 42.6001C55.7001 42.6001 56.3001 42.6001 56.7001 42.6001C57.1001 42.6001 57.3001 43.0001 57.4001 43.3001C57.5001 43.6001 57.5001 44.3001 57.4001 44.7001C57.4001 45.0001 57.1001 45.3001 56.7001 45.4001ZM42.7001 51.4001C42.7001 51.4001 41.6001 51.4001 41.3001 51.4001C40.8001 51.3001 40.7001 51.0001 40.6001 50.7001C40.6001 50.3001 40.6001 49.7001 40.6001 49.3001C40.6001 48.9001 41.0001 48.7001 41.3001 48.6001C41.7001 48.6001 42.3001 48.6001 42.7001 48.6001C43.1001 48.6001 43.3001 49.0001 43.4001 49.3001C43.5001 49.6001 43.5001 50.3001 43.4001 50.7001C43.4001 51.0001 43.1001 51.3001 42.7001 51.4001ZM49.7001 51.4001C49.7001 51.4001 48.6001 51.4001 48.3001 51.4001C47.8001 51.3001 47.7001 51.0001 47.6001 50.7001C47.6001 50.3001 47.6001 49.7001 47.6001 49.3001C47.6001 48.9001 48.0001 48.7001 48.3001 48.6001C48.7001 48.6001 49.3001 48.6001 49.7001 48.6001C50.1001 48.6001 50.3001 49.0001 50.4001 49.3001C50.5001 49.6001 50.5001 50.3001 50.4001 50.7001C50.4001 51.0001 50.1001 51.3001 49.7001 51.4001ZM56.7001 51.4001C56.7001 51.4001 55.6001 51.4001 55.3001 51.4001C54.8001 51.3001 54.7001 51.0001 54.6001 50.7001C54.6001 50.3001 54.6001 49.7001 54.6001 49.3001C54.6001 48.9001 55.0001 48.7001 55.3001 48.6001C55.7001 48.6001 56.3001 48.6001 56.7001 48.6001C57.1001 48.6001 57.3001 49.0001 57.4001 49.3001C57.5001 49.6001 57.5001 50.3001 57.4001 50.7001C57.4001 51.0001 57.1001 51.3001 56.7001 51.4001ZM49.7001 57.4001C49.7001 57.4001 48.6001 57.4001 48.3001 57.4001C47.8001 57.3001 47.7001 57.0001 47.6001 56.7001C47.6001 56.3001 47.6001 55.7001 47.6001 55.3001C47.6001 54.9001 48.0001 54.7001 48.3001 54.6001C48.7001 54.6001 49.3001 54.6001 49.7001 54.6001C50.1001 54.6001 50.3001 55.0001 50.4001 55.3001C50.5001 55.6001 50.5001 56.3001 50.4001 56.7001C50.4001 57.0001 50.1001 57.3001 49.7001 57.4001Z" stroke="#494A4A" stroke-linecap="round" stroke-linejoin="round"/>
</g>
</g>
<defs>
<clipPath id="clip0_622_42037">
<rect width="64" height="64" fill="white"/>
</clipPath>
</defs>
</svg>
