<svg width="64" height="64" viewBox="0 0 64 64" fill="none" xmlns="http://www.w3.org/2000/svg">
<g id="Pictogram-happy-file">
<g id="stroke-default">
<path id="2px" d="M52.66 55.0601L52.9941 56.0027L52.9978 56.0014L52.66 55.0601ZM24.58 62.7801L24.7917 63.7575L24.7919 63.7574L24.58 62.7801ZM17.58 58.2001L16.6221 58.4873L16.6247 58.4956L17.58 58.2001ZM9.58003 30.2001L10.5443 29.9351L10.5416 29.9254L9.58003 30.2001ZM13.18 14.5001L14.056 14.9826L14.0563 14.982L13.18 14.5001ZM22.75 5.50014L22.4803 4.53718L22.4731 4.53926L22.75 5.50014ZM40 1.19014L40.1749 2.17475L40.1819 2.17346L40 1.19014ZM45.93 5.68014L46.8641 5.32304L46.8627 5.31935L45.93 5.68014ZM57.71 47.2701L56.7234 47.433L56.7235 47.4336L57.71 47.2701ZM8.37055 29.3117C8.48185 29.8526 9.01061 30.2009 9.55157 30.0896C10.0925 29.9783 10.4408 29.4496 10.3295 28.9086L8.37055 29.3117ZM11.35 23.6601L11.8149 24.5455L11.819 24.5434L11.35 23.6601ZM16.96 20.9601L16.4671 20.0901L16.4639 20.0919L16.96 20.9601ZM19.87 15.6001L18.8713 15.6507L18.8714 15.6523L19.87 15.6001ZM19.01 10.3501L20.0009 10.215L20 10.2087L19.01 10.3501ZM23.0383 6.46768C23.5672 6.30846 23.8668 5.75068 23.7076 5.22185C23.5483 4.69301 22.9906 4.39338 22.4617 4.5526L23.0383 6.46768ZM25.426 27.0612C24.8742 27.0358 24.4064 27.4625 24.3811 28.0142C24.3557 28.5659 24.7824 29.0337 25.3341 29.0591L25.426 27.0612ZM28.59 28.7001L28.9917 29.6159C29.3662 29.4517 29.6029 29.076 29.5895 28.6673C29.5761 28.2586 29.3152 27.8993 28.9307 27.76L28.59 28.7001ZM23.8847 30.1753C23.4291 30.4875 23.3129 31.11 23.6252 31.5655C23.9374 32.021 24.5598 32.1372 25.0154 31.825L23.8847 30.1753ZM35.7308 26.7839L34.7682 27.0547L35.7308 26.7839ZM35.3097 28.98L35.5805 29.9426L35.3097 28.98ZM33.8055 27.3254L32.8429 27.5962L33.8055 27.3254ZM34.2266 25.1294L34.4974 26.092L34.2266 25.1294ZM24.8799 41.4627C24.434 41.1369 23.8083 41.2343 23.4826 41.6802C23.1568 42.1262 23.2542 42.7518 23.7001 43.0776L24.8799 41.4627ZM46.046 32.2902C46.0957 31.7402 45.6901 31.254 45.1401 31.2042C44.5901 31.1545 44.1038 31.56 44.0541 32.1101L46.046 32.2902ZM52.326 54.1176C47.6369 55.7795 30.2899 60.519 24.3681 61.8028L24.7919 63.7574C30.7702 62.4613 48.2032 57.7007 52.9941 56.0027L52.326 54.1176ZM24.3683 61.8028C22.8075 62.1409 21.6855 62.0334 20.8302 61.5193C19.9661 60.9999 19.165 59.9403 18.5354 57.9046L16.6247 58.4956C17.325 60.76 18.3389 62.3553 19.7999 63.2335C21.2696 64.1169 22.9826 64.1494 24.7917 63.7575L24.3683 61.8028ZM18.5379 57.9129C16.8409 52.253 11.4831 33.351 10.5443 29.9351L8.61578 30.4652C9.55693 33.8893 14.9192 52.8073 16.6222 58.4873L18.5379 57.9129ZM10.5416 29.9254C9.59521 26.6132 9.78917 24.1735 10.5219 21.9593C11.281 19.6653 12.5997 17.6266 14.056 14.9826L12.3041 14.0177C10.9404 16.4937 9.45903 18.805 8.62316 21.331C7.76088 23.9367 7.56484 26.7871 8.6185 30.4749L10.5416 29.9254ZM14.0563 14.982C16.2993 10.9028 18.3411 7.81165 23.027 6.46102L22.4731 4.53926C16.9589 6.12863 14.5807 9.87744 12.3038 14.0183L14.0563 14.982ZM23.0198 6.46307C26.6054 5.45869 35.6732 2.97437 40.1749 2.17473L39.8251 0.205551C35.2068 1.02591 26.0347 3.54158 22.4803 4.5372L23.0198 6.46307ZM40.1819 2.17346C41.6241 1.90672 42.3992 2.10001 42.9847 2.56923C43.6562 3.10738 44.2637 4.14427 44.9974 6.04093L46.8627 5.31935C46.1264 3.41601 45.3639 1.9129 44.2354 1.00855C43.0209 0.0352665 41.5659 -0.116439 39.8182 0.206816L40.1819 2.17346ZM44.996 6.03723C46.0566 8.81155 48.771 17.8423 51.3418 26.8909C53.916 35.9512 56.3 44.8683 56.7234 47.433L58.6967 47.1073C58.2501 44.402 55.8241 35.3491 53.2657 26.3443C50.704 17.3279 47.9635 8.19873 46.8641 5.32304L44.996 6.03723ZM56.7235 47.4336C57.2174 50.4137 55.3739 53.0239 52.3223 54.1189L52.9978 56.0014C56.7462 54.6564 59.3827 51.2466 58.6966 47.1066L56.7235 47.4336ZM10.3295 28.9086C10.1011 27.7985 10.123 26.8909 10.3602 26.1869C10.5874 25.5126 11.0337 24.9556 11.8149 24.5455L10.8852 22.7747C9.66636 23.4146 8.86267 24.3677 8.46487 25.5483C8.07707 26.6993 8.09897 27.9918 8.37055 29.3117L10.3295 28.9086ZM11.819 24.5434C12.35 24.2614 13.3234 23.826 14.418 23.3242C15.4795 22.8375 16.6408 22.2943 17.4562 21.8284L16.4639 20.0919C15.7393 20.506 14.6605 21.0128 13.5845 21.5061C12.5416 21.9843 11.48 22.4589 10.8811 22.7769L11.819 24.5434ZM17.4529 21.8302C18.7003 21.1235 19.6422 20.3371 20.2211 19.2654C20.7987 18.1962 20.9432 16.9754 20.8687 15.548L18.8714 15.6523C18.9368 16.9049 18.7914 17.7041 18.4614 18.3149C18.1328 18.9232 17.5497 19.4767 16.4671 20.0901L17.4529 21.8302ZM20.8687 15.5496C20.8248 14.6814 20.6415 13.6358 20.4596 12.689C20.2701 11.7029 20.086 10.8392 20.0009 10.215L18.0192 10.4853C18.1141 11.1811 18.3199 12.1523 18.4955 13.0663C18.6786 14.0195 18.8353 14.9389 18.8713 15.6507L20.8687 15.5496ZM20 10.2087C19.8123 8.89522 20.6322 7.1921 23.0383 6.46768L22.4617 4.5526C19.2878 5.50818 17.6677 8.02505 18.0201 10.4916L20 10.2087ZM25.3341 29.0591C26.3296 29.1048 27.3124 29.3008 28.2493 29.6403L28.9307 27.76C27.8043 27.3518 26.6227 27.1162 25.426 27.0612L25.3341 29.0591ZM28.1884 27.7844C26.6822 28.445 25.2413 29.2454 23.8847 30.1753L25.0154 31.825C26.2688 30.9659 27.6001 30.2263 28.9917 29.6159L28.1884 27.7844ZM34.7682 27.0547C34.8848 27.4693 34.8909 27.8213 34.8497 28.0363C34.8291 28.1435 34.8047 28.176 34.8134 28.1632C34.8268 28.1433 34.8957 28.0576 35.0389 28.0173L35.5805 29.9426C36.4074 29.71 36.7153 28.9271 36.8139 28.4129C36.9251 27.8331 36.8759 27.1618 36.6935 26.5131L34.7682 27.0547ZM35.0389 28.0173C35.1822 27.977 35.2856 28.0143 35.3074 28.0242C35.3215 28.0307 35.2837 28.0156 35.2103 27.9348C35.0631 27.7728 34.8848 27.4693 34.7682 27.0547L32.8429 27.5962C33.0253 28.2449 33.3333 28.8434 33.7305 29.2802C34.0826 29.6676 34.7536 30.1752 35.5805 29.9426L35.0389 28.0173ZM34.7682 27.0547C34.6515 26.6401 34.6454 26.2881 34.6867 26.0731C34.7072 25.9659 34.7316 25.9333 34.7229 25.9462C34.7095 25.966 34.6406 26.0517 34.4974 26.092L33.9559 24.1667C33.129 24.3993 32.821 25.1823 32.7224 25.6964C32.6113 26.2762 32.6604 26.9475 32.8429 27.5962L34.7682 27.0547ZM34.4974 26.092C34.3542 26.1323 34.2507 26.0951 34.2289 26.0851C34.2148 26.0787 34.2526 26.0938 34.326 26.1745C34.4733 26.3365 34.6515 26.6401 34.7682 27.0547L36.6935 26.5131C36.511 25.8644 36.203 25.266 35.8059 24.8291C35.4537 24.4418 34.7827 23.9342 33.9559 24.1667L34.4974 26.092ZM23.7001 43.0776C28.2796 46.4231 33.5928 46.8704 37.9268 44.8543C42.265 42.8364 45.4922 38.4132 46.046 32.2902L44.0541 32.1101C43.5578 37.5971 40.71 41.3539 37.0833 43.0409C33.4523 44.7299 28.9105 44.4072 24.8799 41.4627L23.7001 43.0776Z" fill="#494A4A"/>
<path id="1px" d="M23.2095 63.5001C23.7295 63.5001 36.3696 62.9901 42.6296 63.5001M37.9395 5.00009C38.3595 4.77009 40.9395 3.92009 41.4695 4.26009C42.465 5.31455 43.1832 6.59966 43.5595 8.00009M24.5495 39.5101C22.6895 39.3601 21.1895 40.9001 21.4895 43.5101M43.9995 29.5501C44.6369 29.4338 45.293 29.474 45.9114 29.6674C46.5298 29.8607 47.092 30.2014 47.5495 30.6601" stroke="#494A4A" stroke-linecap="round" stroke-linejoin="round"/>
</g>
</g>
</svg>
