<svg width="64" height="64" viewBox="0 0 64 64" fill="none" xmlns="http://www.w3.org/2000/svg">
<g id="Pictogram-file-settings" clip-path="url(#clip0_622_41965)">
<g id="stroke-default">
<path id="2px" d="M11 22.1C11.2 19.6 12.2 17.9 14.4 17.4C15.6 17.1 18.8 16.7 20.5 16.3C23.1 15.7 24.2 14.5 24.8 11.9C25.2 10.4 25.2 7.9 25.4 6.6C25.7 4.7 27.4 3 30.3 3M53 29.5C53 24.4 53.1 15.5 52.5 9.5C52.1 5.4 51.2 3.9 48 3.6C43.4 3.2 34 3.1 30.3 3.1C25 3.1 21.9 5.8 18.7 9.1C14.6 13.3 11 15.9 11 23.2C11 26.8 11.1 47.7 11.2 53.6C11.2 56.9 13.4 58.4 15.8 58.5C21.2 58.9 31.3 58.9 32.5 58.9M59.8998 38.4001C59.8998 39.3001 57.2998 41.6001 57.2998 41.6001L58.7998 44.3001C58.7998 44.3001 61.7998 44.1001 62.5998 45.0001C63.3998 45.9001 62.9998 50.9001 62.2998 51.7001C61.5998 52.5001 58.4998 52.5001 58.4998 52.5001L56.8998 55.1001C56.8998 55.1001 58.4998 57.5001 58.0998 58.9001C57.6998 60.3001 53.4998 62.2001 52.2998 61.9001C51.0998 61.6001 49.7998 58.9001 49.7998 58.9001H46.6998C46.6998 58.9001 45.4998 61.7001 44.2998 61.9001C42.1998 62.3001 37.9998 58.7001 37.5998 57.5001C37.1998 56.3001 39.7998 54.5001 39.7998 54.5001L38.2998 51.8001C38.2998 51.8001 35.2998 51.7001 34.3998 51.1001C33.4998 50.5001 34.2998 43.8001 34.9998 43.2001C35.6998 42.6001 38.5998 43.7001 38.5998 43.7001L40.1998 41.1001C40.1998 41.1001 38.9998 38.1001 39.2998 37.3001C39.5998 36.5001 43.3998 34.1001 44.7998 34.3001C46.1998 34.5001 47.3998 37.2001 47.3998 37.2001C47.3998 37.2001 49.4998 37.1001 50.9998 37.3001C51.5998 37.3001 51.8998 34.1001 52.8998 34.0001C53.8998 33.9001 59.9998 37.5001 59.8998 38.4001Z" stroke="#494A4A" stroke-width="2" stroke-linecap="round" stroke-linejoin="round"/>
<path id="1px" d="M14.4998 51.5C14.4998 54.4 14.2998 55.5 20.3998 55.5M24.9998 25.6C26.3998 25.5 42.1998 25.6 42.9998 25.6M21.3998 31.6C22.8998 31.5 35.7998 31.6 36.5998 31.6M21.3998 37.5C22.8998 37.4 31.6998 37.5 32.4998 37.5M42.8996 42.3001C42.5996 42.8001 41.4996 44.5001 41.1996 45.3001M47.7996 55.6001C48.5996 55.6001 50.4996 55.4001 51.0996 55.6001C51.6996 55.8001 52.0996 56.7001 52.3996 57.3001M52.4996 47.0001C52.4996 48.9331 50.9326 50.5001 48.9996 50.5001C47.0666 50.5001 45.4996 48.9331 45.4996 47.0001C45.4996 45.0671 47.0666 43.5001 48.9996 43.5001C50.9326 43.5001 52.4996 45.0671 52.4996 47.0001Z" stroke="#494A4A" stroke-linecap="round" stroke-linejoin="round"/>
</g>
</g>
<defs>
<clipPath id="clip0_622_41965">
<rect width="64" height="64" fill="white"/>
</clipPath>
</defs>
</svg>
