<svg width="64" height="64" viewBox="0 0 64 64" fill="none" xmlns="http://www.w3.org/2000/svg">
<g id="Pictogram-gamepad-joystick" clip-path="url(#clip0_622_42016)">
<g id="stroke-default">
<path id="2px" d="M39.1998 41.4998C40.9998 46.6998 43.2998 50.8998 45.6998 54.1998C49.5998 59.2998 54.0998 60.1998 56.8998 54.3998C60.6998 46.4998 62.4998 39.3998 62.1998 29.9998C61.8998 22.2998 55.4998 19.1998 49.0998 18.0998C38.4998 16.2998 23.8998 16.2998 13.5998 18.3998C7.79985 19.5998 2.89985 22.3998 2.39985 29.8998C1.89985 37.3998 3.19985 46.1998 6.19985 53.4998C8.69985 59.4998 12.8998 59.1998 17.5998 53.9998C19.8998 51.3998 22.5998 46.8998 24.4998 42.3998M23 46.1003C27.1 45.6003 38.1001 45.7003 41.0001 46.1003" stroke="#494A4A" stroke-width="2" stroke-linecap="round" stroke-linejoin="round"/>
<path id="1px" d="M8.89998 19.8002C8.49998 18.5002 7.89998 16.2002 8.39998 15.2002C8.89998 14.2002 16.8 12.4002 17.6 12.8002C18.4 13.2002 19.2 15.9002 19.4 17.4002M46.2002 17.5996C46.5002 15.5996 47.1002 13.2996 48.1002 12.7996C49.6002 12.0996 56.6002 15.9996 57.0002 16.5996C57.4002 17.1996 56.6002 19.8996 56.3002 20.4996M30.5999 16.7003C30.5999 16.7003 29.4999 11.2003 29.7999 10.4003C30.0999 9.60027 35.5999 9.10027 35.7999 9.70027C35.9999 10.3003 35.7999 16.1003 35.5999 16.8003M32.6998 9.4C31.7998 6.4 34.1998 -0.4 36.9998 4C38.8998 7 22.7998 6.8 22.7998 3.4C22.7998 0.5 30.1998 3.6 29.9998 0.5M4.6 58.6996L0.5 62.1996M6 63.0996L7.4 60.7996M1.1 56.7996L3 56.0996M55.7001 48.2998C55.2001 50.1998 53.9001 54.8998 51.6001 54.2998M20.1998 28.5004C19.4998 28.0004 16.7998 28.3004 16.4998 28.1004C16.1998 27.9004 16.7998 24.8004 16.1998 24.3004C15.8998 24.1004 12.8998 24.1004 12.5998 24.3004C11.9998 24.8004 12.5998 27.9004 12.2998 28.2004C11.9998 28.5004 8.99977 28.0004 8.59977 28.3004C8.09977 28.7004 8.19977 31.6004 8.59977 32.0004C8.99977 32.4004 12.2998 32.1004 12.3998 32.3004C12.4998 32.5004 11.8998 35.8004 12.5998 36.3004C12.8998 36.5004 16.0998 36.3004 16.3998 36.1004C16.7998 35.7004 16.1998 32.6004 16.3998 32.3004C16.5998 32.0004 19.7998 32.3004 20.0998 32.1004C20.4998 31.7004 20.5998 29.0004 20.0998 28.6004L20.1998 28.5004ZM52.5 26.2002C52.5 27.3048 51.6046 28.2002 50.5 28.2002C49.3954 28.2002 48.5 27.3048 48.5 26.2002C48.5 25.0956 49.3954 24.2002 50.5 24.2002C51.6046 24.2002 52.5 25.0956 52.5 26.2002ZM52.5 36.7002C52.5 37.8048 51.6046 38.7002 50.5 38.7002C49.3954 38.7002 48.5 37.8048 48.5 36.7002C48.5 35.5956 49.3954 34.7002 50.5 34.7002C51.6046 34.7002 52.5 35.5956 52.5 36.7002ZM47.5 31.2002C47.5 32.3048 46.6046 33.2002 45.5 33.2002C44.3954 33.2002 43.5 32.3048 43.5 31.2002C43.5 30.0956 44.3954 29.2002 45.5 29.2002C46.6046 29.2002 47.5 30.0956 47.5 31.2002ZM57.5 31.2002C57.5 32.3048 56.6046 33.2002 55.5 33.2002C54.3954 33.2002 53.5 32.3048 53.5 31.2002C53.5 30.0956 54.3954 29.2002 55.5 29.2002C56.6046 29.2002 57.5 30.0956 57.5 31.2002Z" stroke="#494A4A" stroke-linecap="round" stroke-linejoin="round"/>
</g>
</g>
<defs>
<clipPath id="clip0_622_42016">
<rect width="64" height="64" fill="white"/>
</clipPath>
</defs>
</svg>
