<svg width="64" height="64" viewBox="0 0 64 64" fill="none" xmlns="http://www.w3.org/2000/svg">
<g id="Pictogram-office-keys">
<g id="stroke-default">
<path id="2px" d="M49.3298 29.7701C49.7698 20.3001 50.0298 14.0601 49.9798 10.6901C49.9798 8.69005 49.4998 8.20005 47.6198 8.12005C38.1298 7.69005 14.0698 8.44005 6.75979 9.82005C5.09979 10.1301 4.09979 10.8001 3.99979 12.0001C2.79979 26.4201 5.12979 46 6.60979 57.94M47.7698 57.94C47.8798 56.45 47.8398 57.09 47.9798 54.78M8.42979 9.50005C8.18979 7.15005 7.58979 3.50005 8.42979 2.63005C9.73979 1.23005 41.4298 2.45005 44.5698 3.12005C44.9624 3.20579 45.3156 3.41905 45.5742 3.72657C45.8329 4.03409 45.9825 4.41857 45.9998 4.82005C45.9703 5.88887 45.8464 6.953 45.6298 8.00005M4.21979 59C3.67979 59.08 4.21979 62 4.57979 62H47.9998C49.5398 62 50.6598 58 49.5098 58C31.0598 58 7.58979 58.5 4.21979 59ZM52.9998 45.5101C52.815 45.2602 52.6985 44.9665 52.6617 44.6579C52.6248 44.3493 52.669 44.0364 52.7898 43.7501C55.6598 35.7501 45.7898 29.4201 38.9298 35.3101C32.8798 40.5501 38.3898 52.5901 46.7298 49.1501C46.9893 49.0451 47.2754 49.0254 47.5468 49.0937C47.8182 49.162 48.0609 49.3148 48.2398 49.5301C49.5598 51.1401 51.2398 53.0701 51.2398 53.0701L51.7198 55.7601L55.1098 56.1201L53.7998 59.2701L57.3898 59.5101L57.8698 62.3501C57.8698 62.3501 61.4398 63.4101 62.4098 62.3501C63.3798 61.2901 62.2898 56.6401 62.2898 56.6401C62.2898 56.6401 55.3098 48.4101 52.9998 45.5101Z" stroke="#494A4A" stroke-width="2" stroke-linecap="round" stroke-linejoin="round"/>
<path id="1px" d="M4.75 26.5501C12.96 25.1501 29.21 26.2201 49.48 25.3001M5.09 42.4901C9.09 42.4901 23.85 41.6601 32.96 41.8101M15.53 9.08006C14.74 21.2001 15.46 46.4801 15.88 58.0001M37.64 51.8101C37.47 54.8101 37.46 54.9401 37.25 57.8101M38.58 8.00006C38.88 16.7101 38.93 20.3801 38.63 28.3401M27 58.0001C27.2 55.0001 27 43.6801 27.07 42.2801M29.99 49.3801V51.6801M23.98 49.9801V51.8101M49.57 39.0901C50.0636 39.708 50.3456 40.4683 50.3744 41.2587C50.4033 42.0491 50.1773 42.8278 49.73 43.4801C49.5 43.8201 48.87 45.4801 51.3 47.7101M36.55 39.3301C22.44 36.2701 25.21 26.9001 35.43 30.6301C43.81 33.6901 43.94 39.3301 40.58 39.7301M44.65 39.3301C44.65 40.5064 43.6964 41.4601 42.52 41.4601C41.3436 41.4601 40.39 40.5064 40.39 39.3301C40.39 38.1537 41.3436 37.2001 42.52 37.2001C43.6964 37.2001 44.65 38.1537 44.65 39.3301Z" stroke="#494A4A" stroke-linecap="round" stroke-linejoin="round"/>
</g>
</g>
</svg>
