<svg width="64" height="64" viewBox="0 0 64 64" fill="none" xmlns="http://www.w3.org/2000/svg">
<g id="Pictogram-time-checked">
<g id="stroke-default">
<path id="2px" d="M46.4699 5.47L47.8399 5.59C54.1599 6.15 57.8399 9.84 58.4099 16.15C59.2806 26.6987 59.2806 37.3013 58.4099 47.85C57.8699 53.11 54.1699 57.95 47.8399 58.42C40.69 58.9604 33.5155 59.1006 26.3499 58.84C23.5899 58.65 21.7399 57.52 21.1999 55.11C20.8899 53.72 20.4699 50.19 19.9899 48.27C19.2799 45.37 17.9899 44.19 15.1199 43.53C13.3899 43.13 10.6799 43.06 9.20989 42.86C8.0622 42.6728 7.02028 42.0786 6.27475 41.1861C5.52922 40.2937 5.12992 39.1627 5.14989 38M5.14989 38C4.87989 33.23 5.14989 22.22 5.57989 16.15C5.99989 9.83 9.33989 6.17 16.1499 5.59H16.7699M5.14989 38C5.14989 43 8.15989 46.57 11.8899 50.24C16.5399 54.84 21.0899 58.84 26.0899 58.84M20.3799 5.31C27.7741 4.91556 35.1834 4.89219 42.5799 5.24M30.4399 32.14C31.1971 32.6125 31.8394 33.2479 32.3199 34C33.3199 32 35.9999 29.9 37.7399 28.9M44.4399 32.14C45.2023 32.6058 45.846 33.2426 46.3199 34C47.6927 31.8875 49.5555 30.1378 51.7499 28.9M42.6799 9.13C42.4812 6.8555 42.6194 4.56414 43.0899 2.33C43.1603 1.97604 43.3513 1.65746 43.6303 1.42853C43.9093 1.19959 44.259 1.07446 44.6199 1.07446C44.9808 1.07446 45.3305 1.19959 45.6095 1.42853C45.8885 1.65746 46.0795 1.97604 46.1499 2.33C46.4231 4.68789 46.2947 7.07505 45.7699 9.39C45.6695 9.74224 45.4499 10.0487 45.1485 10.2569C44.8472 10.4651 44.4829 10.5621 44.1179 10.5314C43.7529 10.5007 43.41 10.3441 43.1477 10.0885C42.8854 9.83288 42.72 9.49406 42.6799 9.13ZM20.3599 9.13C20.5564 6.85592 20.4216 4.56536 19.9599 2.33C19.8895 1.97604 19.6985 1.65746 19.4195 1.42853C19.1405 1.19959 18.7908 1.07446 18.4299 1.07446C18.069 1.07446 17.7193 1.19959 17.4403 1.42853C17.1613 1.65746 16.9703 1.97604 16.8999 2.33C16.6223 4.68776 16.7509 7.07565 17.2799 9.39C17.375 9.74595 17.5923 10.0571 17.8938 10.269C18.1952 10.4809 18.5616 10.58 18.9287 10.549C19.2959 10.518 19.6404 10.3589 19.902 10.0995C20.1637 9.84004 20.3258 9.49686 20.3599 9.13Z" stroke="#494A4A" stroke-width="2" stroke-linecap="round" stroke-linejoin="round"/>
<path id="1px" d="M14.4899 43.27C14.6649 42.9851 14.8962 42.7388 15.1695 42.5462C15.4429 42.3536 15.7527 42.2188 16.0799 42.15C17.3454 41.9499 18.6345 41.9499 19.8999 42.15C20.3775 42.2339 20.8174 42.4635 21.1593 42.8072C21.5013 43.1509 21.7285 43.592 21.8099 44.07C22.06 45.3344 22.06 46.6356 21.8099 47.9C21.7246 48.2857 21.5499 48.6459 21.2997 48.9517C21.0496 49.2574 20.7311 49.5 20.3699 49.66M47.5299 52.79C50.5899 52.45 52.7199 49.59 53.4199 47.26M47.8999 23.81C46.6389 24.0601 45.341 24.0601 44.0799 23.81C43.6014 23.7323 43.1595 23.5061 42.8167 23.1633C42.4739 22.8205 42.2476 22.3785 42.1699 21.9C41.946 20.6332 41.946 19.3368 42.1699 18.07C42.2655 17.5982 42.4974 17.1648 42.8369 16.8235C43.1764 16.4822 43.6086 16.248 44.0799 16.15C45.3454 15.9499 46.6345 15.9499 47.8999 16.15C48.3775 16.2339 48.8174 16.4635 49.1593 16.8072C49.5013 17.1509 49.7285 17.592 49.8099 18.07C50.06 19.3344 50.06 20.6356 49.8099 21.9C49.7079 22.3679 49.4737 22.7966 49.1351 23.1352C48.7965 23.4738 48.3678 23.708 47.8999 23.81ZM33.8999 23.81C32.6389 24.0601 31.341 24.0601 30.0799 23.81C29.6014 23.7323 29.1595 23.5061 28.8167 23.1633C28.4739 22.8205 28.2476 22.3785 28.1699 21.9C27.946 20.6332 27.946 19.3368 28.1699 18.07C28.2655 17.5982 28.4974 17.1648 28.8369 16.8235C29.1764 16.4822 29.6086 16.248 30.0799 16.15C31.3454 15.9499 32.6345 15.9499 33.8999 16.15C34.3775 16.2339 34.8174 16.4635 35.1593 16.8072C35.5013 17.1509 35.7285 17.592 35.8099 18.07C36.06 19.3344 36.06 20.6356 35.8099 21.9C35.7079 22.3679 35.4737 22.7966 35.1351 23.1352C34.7965 23.4738 34.3678 23.708 33.8999 23.81ZM47.8999 36.81C46.6389 37.0601 45.341 37.0601 44.0799 36.81C43.6014 36.7323 43.1595 36.5061 42.8167 36.1633C42.4739 35.8205 42.2476 35.3785 42.1699 34.9C41.946 33.6332 41.946 32.3368 42.1699 31.07C42.2655 30.5982 42.4974 30.1648 42.8369 29.8235C43.1764 29.4822 43.6086 29.2481 44.0799 29.15C45.3454 28.9499 46.6345 28.9499 47.8999 29.15C48.3775 29.2339 48.8174 29.4635 49.1593 29.8072C49.5013 30.1509 49.7285 30.592 49.8099 31.07C50.06 32.3344 50.06 33.6356 49.8099 34.9C49.7079 35.3679 49.4737 35.7966 49.1351 36.1352C48.7965 36.4738 48.3678 36.708 47.8999 36.81ZM33.8999 36.81C32.6389 37.0601 31.341 37.0601 30.0799 36.81C29.6014 36.7323 29.1595 36.5061 28.8167 36.1633C28.4739 35.8205 28.2476 35.3785 28.1699 34.9C27.946 33.6332 27.946 32.3368 28.1699 31.07C28.2655 30.5982 28.4974 30.1648 28.8369 29.8235C29.1764 29.4822 29.6086 29.2481 30.0799 29.15C31.3454 28.9499 32.6345 28.9499 33.8999 29.15C34.3775 29.2339 34.8174 29.4635 35.1593 29.8072C35.5013 30.1509 35.7285 30.592 35.8099 31.07C36.06 32.3344 36.06 33.6356 35.8099 34.9C35.7079 35.3679 35.4737 35.7966 35.1351 36.1352C34.7965 36.4738 34.3678 36.708 33.8999 36.81ZM33.8999 49.81C32.6389 50.0601 31.341 50.0601 30.0799 49.81C29.6014 49.7323 29.1595 49.5061 28.8167 49.1633C28.4739 48.8205 28.2476 48.3785 28.1699 47.9C27.946 46.6332 27.946 45.3368 28.1699 44.07C28.2655 43.5982 28.4974 43.1648 28.8369 42.8235C29.1764 42.4822 29.6086 42.2481 30.0799 42.15C31.3454 41.9499 32.6345 41.9499 33.8999 42.15C34.3775 42.2339 34.8174 42.4635 35.1593 42.8072C35.5013 43.1509 35.7285 43.592 35.8099 44.07C36.06 45.3344 36.06 46.6356 35.8099 47.9C35.7079 48.3679 35.4737 48.7966 35.1351 49.1352C34.7965 49.4738 34.3678 49.708 33.8999 49.81ZM19.8999 36.81C18.6389 37.0601 17.341 37.0601 16.0799 36.81C15.6014 36.7323 15.1595 36.5061 14.8167 36.1633C14.4739 35.8205 14.2476 35.3785 14.1699 34.9C13.946 33.6332 13.946 32.3368 14.1699 31.07C14.2655 30.5982 14.4974 30.1648 14.8369 29.8235C15.1764 29.4822 15.6086 29.2481 16.0799 29.15C17.3454 28.9499 18.6345 28.9499 19.8999 29.15C20.3775 29.2339 20.8174 29.4635 21.1593 29.8072C21.5013 30.1509 21.7285 30.592 21.8099 31.07C22.06 32.3344 22.06 33.6356 21.8099 34.9C21.7079 35.3679 21.4737 35.7966 21.1351 36.1352C20.7965 36.4738 20.3678 36.708 19.8999 36.81Z" stroke="#494A4A" stroke-linecap="round" stroke-linejoin="round"/>
</g>
</g>
</svg>
