<svg width="64" height="64" viewBox="0 0 64 64" fill="none" xmlns="http://www.w3.org/2000/svg">
<g id="Pictogram-customer-reports2" clip-path="url(#clip0_426_2337)">
<g id="stroke-default">
<path id="2px-stroke-default" d="M8.40012 44.1301C6.89012 44.1301 6.26012 43.0001 6.10012 41.7801C5.10012 34.1601 4.66012 20.3101 5.24012 14.3301C5.55012 11.1301 6.94012 10.2301 9.83012 9.89006C19.8301 8.70006 42.5601 8.84006 53.4601 9.51006C57.0501 9.73006 58.3001 10.7701 58.7401 14.6401C59.3601 20.1101 58.8201 33.8101 57.7401 41.4401C57.5901 42.5201 57.2301 44.1201 55.8901 44.1301M58.3801 44.8101C60.0367 46.6132 61.4427 48.6314 62.5601 50.8101C62.8766 51.843 63.0252 52.92 63.0001 54.0001C63.0001 55.7001 62.4801 56.5001 60.7201 56.8501C52.1001 58.5501 10.3001 58.2501 3.17012 56.6701C2.57501 56.5182 2.04663 56.1742 1.66694 55.6915C1.28725 55.2087 1.07746 54.6142 1.07012 54.0001C0.949447 52.9497 0.993307 51.8869 1.20012 50.8501C2.30592 48.6054 3.72325 46.5282 5.41012 44.6801C5.87012 44.2401 7.34012 44.1501 8.65012 44.1201C14.7601 43.9401 45.8301 43.9501 55.2201 44.1201C56.6401 44.1601 57.5501 44.0001 58.3801 44.8101Z" stroke="#494A4A" stroke-width="2" stroke-linecap="round" stroke-linejoin="round"/>
<path id="1px-stroke-default" d="M55.54 33.4502C55.46 39.8202 55.16 40.4502 52.82 40.4502M8.50002 25.5102C8.50002 30.0002 8.50002 31.7802 8.60002 33.5102M29.28 19.1702C28.3289 18.3971 27.1176 18.0181 25.8954 18.1111C24.6732 18.2041 23.5332 18.7621 22.71 19.6702M28.11 15.7202C26.8261 15.3045 25.4358 15.3612 24.19 15.8802M5.28002 7.47018L2.57002 3.18018M0.52002 7.47018L3.50002 9.41018M7.47002 4.47018V6.43018M2.09002 50.1602C1.39002 51.2502 1.74002 52.1602 3.17002 52.3502C12.9 53.8602 50.3 53.9402 60.55 52.2302C62 52.0002 62 50.7802 61.28 49.4902M9.54002 47.5702C10.59 47.5702 14.06 47.3802 16.27 47.5102M20.24 47.5102C22.96 47.6202 23.73 47.5102 25.38 47.5602M29.28 47.5102C32 47.6202 32.76 47.5102 34.42 47.5602M38.31 47.5402C39.91 47.5902 42.65 47.6002 43.31 47.5402M47.31 47.5702C48.88 47.4902 53.25 47.4902 54.56 47.5702M7.48002 50.3602C9.08002 50.4902 11.58 50.4902 13.48 50.4902M50.53 50.5102C52.47 50.5102 55.12 50.5102 56.53 50.4402M19.56 53.3602C20.05 51.8102 20.81 50.6202 21.5 50.5702C23.91 50.4002 39.92 50.3602 42.41 50.5702C43.23 50.6402 44.3 52.5702 44.41 53.3302M15.18 29.9302C15.74 28.9302 23.5 21.6402 26 21.6602C28.11 21.6602 32.39 28.6602 34 28.6602C35.36 28.6602 41.91 21.9102 41.76 21.5502C41.54 21.0202 39.07 19.1902 39.62 18.5502C40.34 17.6802 48.02 15.8602 49.09 16.8002C50.16 17.7402 48.45 25.8002 47.57 26.0602C46.69 26.3202 44.89 24.3202 44.4 24.0602C43.91 23.8002 36.69 33.7002 34 33.7002C31.31 33.7002 27.55 27.7002 26.07 27.6402C24.38 27.6402 16.44 38.3502 15.26 37.6402C14.08 36.9302 14.49 31.2302 15.18 29.9302Z" stroke="#494A4A" stroke-linecap="round" stroke-linejoin="round"/>
</g>
</g>
<defs>
<clipPath id="clip0_426_2337">
<rect width="64" height="64" fill="white"/>
</clipPath>
</defs>
</svg>
