<svg width="64" height="64" viewBox="0 0 64 64" fill="none" xmlns="http://www.w3.org/2000/svg">
<g id="Pictogram-Invoice-selected">
<g id="stroke-default">
<path id="2px" d="M11 22.09C11.17 19.61 12.2 17.86 14.36 17.38C15.61 17.1 18.77 16.72 20.49 16.3C23.1 15.66 24.15 14.54 24.75 11.93C25.1 10.38 25.16 7.92999 25.34 6.62999C25.6 4.74999 27.34 2.98999 30.25 2.98999M52.94 39.08C53.11 29.4 53.14 15.46 52.57 9.43999C52.19 5.36999 51.32 3.79999 48.08 3.49999C43.49 3.07999 34 2.99999 30.34 2.99999C25 2.99999 22 5.68999 18.69 8.99999C14.59 13.2 11 15.85 11 23.17C11 26.76 11.12 47.69 11.23 53.61C11.1907 54.2458 11.2808 54.883 11.4948 55.4829C11.7088 56.0829 12.0423 56.6333 12.4751 57.1007C12.908 57.5681 13.4311 57.9428 14.0129 58.2022C14.5947 58.4617 15.2231 58.6004 15.86 58.61C23.8968 59.1154 31.9547 59.1955 40 58.85M39.66 12.76C36.31 10.04 34.54 15.64 37.66 15.82C41.23 16.03 40.82 21.82 35.95 19.62M37.98 10.1V11.89M37.98 20.18V22M55.4 60.64C55.74 57.89 57.8 56.04 58.56 53.04C60.27 46.28 57 43 55 46.45C55.23 43.45 52.2 41.37 51 44.74C51.1 40.94 46.94 39.06 47 43.96C46.19 39.71 45.26 34.96 45 33.39C44.65 30.93 40.34 31.8 40.93 35.39C41.65 39.84 42.54 43.7 42.6 45.39C42.8291 46.85 42.6952 48.344 42.21 49.74C40.5 47.66 38.6 45.48 35.87 46.11C33.49 46.65 33.34 49.63 35.21 50.11C40.08 51.23 42.31 54.84 44.7 60.86C45.9 63.63 55 63.84 55.4 60.64Z" stroke="#494A4A" stroke-width="2" stroke-linecap="round" stroke-linejoin="round"/>
<path id="1px" d="M14.5195 51.53C14.5195 54.48 14.2995 55.53 20.4595 55.53M21.2495 28.51C22.6695 28.4 30.5595 28.51 31.3095 28.51M21.4295 34.52C22.9495 34.4 26.5695 34.52 27.3695 34.52M21.4295 40.48C22.9495 40.36 26.5695 40.48 27.3695 40.48M36.4795 30.74C37.2595 31.14 37.7895 31.29 37.9995 31.46M37.2395 26.75C37.6795 27.3 39.4795 28.75 39.6895 29.2M42.4095 26.81C42.3685 27.3158 42.3685 27.8242 42.4095 28.33" stroke="#494A4A" stroke-linecap="round" stroke-linejoin="round"/>
</g>
</g>
</svg>
