<svg width="64" height="64" viewBox="0 0 64 64" fill="none" xmlns="http://www.w3.org/2000/svg">
<g id="Pictogram-support">
<g id="stroke-default">
<path id="2px" d="M38.77 34.29C38.77 33.7378 38.3223 33.29 37.77 33.29C37.2177 33.29 36.77 33.7378 36.77 34.29H38.77ZM53.11 45.87L52.5607 46.7057L52.5613 46.706L53.11 45.87ZM10.46 46.17L11.0498 46.9776L11.0498 46.9776L10.46 46.17ZM21.358 43.2189C21.8047 42.8941 21.9036 42.2687 21.5788 41.822C21.2541 41.3753 20.6287 41.2764 20.182 41.6012L21.358 43.2189ZM20 15C20.5523 15 21 14.5523 21 14C21 13.4478 20.5523 13 20 13V15ZM19.956 24.9991C20.5078 25.0234 20.9747 24.5958 20.999 24.044C21.0233 23.4923 20.5957 23.0253 20.044 23.001L19.956 24.9991ZM44 13C43.4477 13 43 13.4478 43 14C43 14.5523 43.4477 15 44 15V13ZM43.956 23.001C43.4043 23.0253 42.9767 23.4923 43.001 24.044C43.0253 24.5958 43.4922 25.0234 44.044 24.9991L43.956 23.001ZM23.22 35.86L23.5916 34.9317C23.5734 34.9244 23.5549 34.9176 23.5362 34.9114L23.22 35.86ZM28.46 38.86L29.1449 38.1314C29.1218 38.1097 29.0976 38.089 29.0725 38.0695L28.46 38.86ZM26.94 41.78L26.6598 42.74C26.6849 42.7473 26.7104 42.7537 26.736 42.759L26.94 41.78ZM21.46 38.78L20.7529 39.4872C20.7688 39.5031 20.7853 39.5185 20.8023 39.5334L21.46 38.78ZM19.599 24.4149C19.6238 23.8632 19.1966 23.3958 18.6449 23.3711C18.0932 23.3463 17.6258 23.7734 17.601 24.3252L19.599 24.4149ZM21.0015 35.9946C21.3188 36.4466 21.9425 36.5558 22.3945 36.2385C22.8466 35.9212 22.9558 35.2976 22.6385 34.8455L21.0015 35.9946ZM17.0005 14.1702C17.0171 14.7222 17.4781 15.1562 18.0301 15.1396C18.5822 15.1229 19.0162 14.6619 18.9995 14.1099L17.0005 14.1702ZM45.0004 14.2316C44.9847 14.7837 45.4195 15.2439 45.9716 15.2596C46.5236 15.2753 46.9839 14.8405 46.9996 14.2885L45.0004 14.2316ZM36.77 34.29C36.77 36.7425 37.4579 38.6057 38.6456 40.0404C39.8137 41.4514 41.3986 42.3666 43.05 43.0607C44.6858 43.7482 46.5152 44.2665 48.1521 44.7968C49.8335 45.3416 51.3472 45.9081 52.5607 46.7057L53.6593 45.0344C52.2028 44.077 50.464 43.4435 48.7685 42.8942C47.0285 42.3305 45.3567 41.8607 43.825 41.2169C42.3089 40.5798 41.0601 39.8206 40.1862 38.765C39.3321 37.7332 38.77 36.3376 38.77 34.29H36.77ZM52.5613 46.706C52.921 46.9422 53.351 47.4538 53.7925 48.2843C54.2225 49.0931 54.615 50.1114 54.9468 51.2407C55.6119 53.5039 56 56.0963 56 58.11H58C58 55.8838 57.5781 53.1012 56.8657 50.6768C56.5088 49.4624 56.0706 48.3088 55.5584 47.3455C55.0578 46.4038 54.434 45.5429 53.6587 45.034L52.5613 46.706ZM56 58.11C56 58.1665 55.9809 58.3059 55.7409 58.5397C55.4923 58.7817 55.0728 59.0551 54.4434 59.3365C53.1887 59.8975 51.331 60.3899 49.0162 60.7923C44.4051 61.594 38.217 62 32 62C25.783 62 19.5949 61.594 14.9838 60.7923C12.669 60.3899 10.8113 59.8975 9.55659 59.3365C8.92722 59.0551 8.50769 58.7817 8.25913 58.5397C8.01909 58.3059 8 58.1665 8 58.11H6C6 58.8686 6.37154 59.4932 6.86392 59.9726C7.34778 60.4437 8.00246 60.8325 8.74029 61.1623C10.22 61.8239 12.2685 62.3502 14.6412 62.7628C19.4051 63.591 25.717 64 32 64C38.283 64 44.5949 63.591 49.3588 62.7628C51.7315 62.3502 53.78 61.8239 55.2597 61.1623C55.9975 60.8325 56.6522 60.4437 57.1361 59.9726C57.6285 59.4932 58 58.8686 58 58.11H56ZM8 58.11C8 56.2071 8.3409 53.6811 8.93155 51.4553C9.22632 50.3444 9.57588 49.3369 9.9606 48.5338C10.3579 47.7045 10.7415 47.2027 11.0498 46.9776L9.87018 45.3625C9.15846 45.8823 8.5996 46.7456 8.1569 47.6697C7.70162 48.6201 7.31368 49.7544 6.99845 50.9423C6.3691 53.314 6 56.013 6 58.11H8ZM11.0498 46.9776C12.5687 45.8681 14.0628 45.588 15.7813 45.2779C17.4867 44.9702 19.413 44.6329 21.358 43.2189L20.182 41.6012C18.647 42.7172 17.1433 42.9999 15.4262 43.3097C13.7222 43.6171 11.8013 43.9519 9.87016 45.3625L11.0498 46.9776ZM32 37.36C38.5015 37.36 45 30.518 45 18.36H43C43 29.9621 36.9185 35.36 32 35.36V37.36ZM45 18.36C45 13.6967 43.8168 10.0766 41.5165 7.61808C39.2069 5.14958 35.9103 4.00005 32 4.00005V6.00005C35.5197 6.00005 38.2231 7.02551 40.056 8.98451C41.8982 10.9535 43 14.0134 43 18.36H45ZM32 4.00005C28.0897 4.00005 24.7927 5.14963 22.483 7.62245C20.1828 10.085 19 13.7125 19 18.39H21C21 14.0276 22.1022 10.9601 23.9445 8.98764C25.7773 7.02546 28.4803 6.00005 32 6.00005V4.00005ZM19 18.39C19 30.5192 25.4995 37.36 32 37.36V35.36C27.0805 35.36 21 29.9609 21 18.39H19ZM20 13C18.9365 13 18.0471 13.1684 17.3236 13.5292C16.5806 13.8998 16.0699 14.4451 15.7376 15.0889C15.4164 15.7113 15.2769 16.3958 15.2098 17.0444C15.143 17.6911 15.1425 18.3739 15.14 18.9961L17.14 19.004C17.1425 18.3562 17.1445 17.7789 17.1992 17.2501C17.2537 16.723 17.3549 16.3162 17.5149 16.0062C17.6639 15.7175 17.8751 15.4891 18.2161 15.319C18.5766 15.1392 19.1335 15 20 15V13ZM15.14 18.9961C15.1353 20.1892 15.1101 21.6797 15.7355 22.8577C16.4451 24.1944 17.8213 24.9051 19.956 24.9991L20.044 23.001C18.3187 22.925 17.7599 22.4057 17.502 21.9199C17.1599 21.2754 17.1347 20.3509 17.14 19.004L15.14 18.9961ZM44 15C44.8665 15 45.4234 15.1392 45.7839 15.319C46.1249 15.4891 46.3361 15.7175 46.4851 16.0062C46.6451 16.3162 46.7463 16.723 46.8008 17.2501C46.8555 17.7789 46.8575 18.3562 46.86 19.004L48.86 18.9961C48.8575 18.3739 48.857 17.6911 48.7902 17.0444C48.7231 16.3958 48.5836 15.7113 48.2624 15.0889C47.9301 14.4451 47.4194 13.8998 46.6764 13.5292C45.9529 13.1684 45.0635 13 44 13V15ZM46.86 19.004C46.8653 20.3509 46.8401 21.2754 46.498 21.9199C46.2401 22.4057 45.6813 22.925 43.956 23.001L44.044 24.9991C46.1787 24.9051 47.5549 24.1944 48.2645 22.8577C48.8899 21.6797 48.8647 20.1892 48.86 18.9961L46.86 19.004ZM22.8484 36.7884C24.6397 37.5055 26.3223 38.4688 27.8475 39.6506L29.0725 38.0695C27.4002 36.774 25.5555 35.7178 23.5916 34.9317L22.8484 36.7884ZM27.7751 39.5887C27.8878 39.6947 27.9629 39.8346 27.9888 39.9871L29.9606 39.6524C29.8617 39.07 29.5753 38.536 29.1449 38.1314L27.7751 39.5887ZM27.9888 39.9871C28.0147 40.1397 27.99 40.2966 27.9186 40.4338L29.6926 41.3573C29.9653 40.8334 30.0594 40.2347 29.9606 39.6524L27.9888 39.9871ZM27.9186 40.4338C27.8471 40.5711 27.7328 40.6813 27.593 40.7476L28.4497 42.5547C28.9835 42.3017 29.4199 41.8812 29.6926 41.3573L27.9186 40.4338ZM27.593 40.7476C27.4531 40.8138 27.2955 40.8326 27.144 40.8011L26.736 42.759C27.3143 42.8795 27.916 42.8078 28.4497 42.5547L27.593 40.7476ZM27.2202 40.8201C25.3368 40.2703 23.5957 39.3171 22.1177 38.0267L20.8023 39.5334C22.499 41.0146 24.4977 42.1088 26.6598 42.74L27.2202 40.8201ZM22.1671 38.0729C22.0006 37.9064 21.9191 37.5285 22.1231 37.1394C22.2136 36.9669 22.3323 36.8595 22.4418 36.8081C22.5352 36.7642 22.6771 36.7332 22.9038 36.8087L23.5362 34.9114C22.8479 34.6819 22.1735 34.7246 21.5919 34.9976C21.0264 35.2631 20.6114 35.7157 20.3519 36.2107C19.8559 37.1565 19.8094 38.5437 20.7529 39.4872L22.1671 38.0729ZM17.601 24.3252C17.4142 28.4838 18.6099 32.5873 21.0015 35.9946L22.6385 34.8455C20.5008 31.8 19.432 28.1321 19.599 24.4149L17.601 24.3252ZM18.9995 14.1099C18.8763 10.0222 20.4586 7.0291 22.8596 5.04014C25.2878 3.02871 28.6116 2.00084 31.9845 2.01504C35.3573 2.02923 38.6853 3.08503 41.1201 5.11987C43.5288 7.13283 45.1167 10.1437 45.0004 14.2316L46.9996 14.2885C47.1333 9.58641 45.2799 5.98976 42.4027 3.58522C39.5516 1.20256 35.749 0.0308614 31.993 0.015055C28.2372 -0.000750422 24.434 1.13889 21.5838 3.49995C18.7064 5.88349 16.8587 9.46785 17.0005 14.1702L18.9995 14.1099Z" fill="#494A4A"/>
<path id="1px" d="M16.1102 47.34C14.824 47.6577 13.6732 48.3783 12.8258 49.3966C11.9784 50.4149 11.4788 51.6776 11.4002 53M44.8402 32.27L48.9002 34.4M44.8002 36.03L43.1602 34.37M47.1402 30.13L45.4702 29.9M9.91016 13.71C10.7902 14.09 11.9702 14.57 13.2802 15.04M13.2802 12.12C13.5702 12.3 14.0102 12.63 14.1902 12.73M10.8702 17.56C11.5342 17.4763 12.2061 17.4763 12.8702 17.56" stroke="#494A4A" stroke-linecap="round" stroke-linejoin="round"/>
</g>
</g>
</svg>
