<svg width="64" height="64" viewBox="0 0 64 64" fill="none" xmlns="http://www.w3.org/2000/svg">
<g id="  Pictogram-platinum-rank-2" clip-path="url(#clip0_622_42012)">
<g id="stroke-default">
<path id="2px" d="M16.5005 44.2002C16.4005 49.1002 14.7005 61.9002 16.9005 62.9002C19.9005 64.3002 29.9005 57.8002 32.0005 58.0002C35.1005 58.2002 44.1005 64.1002 46.5005 62.8002C48.9005 61.5002 46.5005 46.2002 46.5005 44.5002M49.0005 41.0999C53.7005 40.3999 60.1005 36.8999 61.3005 30.7999C61.6005 29.3999 61.0005 27.7999 59.9005 27.3999M59.9005 27.4999C61.1005 26.5999 61.8005 25.6999 62.3005 24.4999C62.8005 23.1999 63.4005 18.8999 62.6005 17.8999C62.0005 17.0999 60.7005 17.0002 59.5005 17.4002C60.1005 16.5002 60.6005 15.6002 60.8005 14.6002C61.4005 12.2002 59.8005 7.9002 58.7005 7.3002C57.6005 6.7002 55.6005 7.0002 55.0005 7.6002C55.2005 4.6002 51.3006 0.800208 49.8006 1.10021C47.9006 1.50021 44.9006 5.50021 43.1006 9.80021M9.00044 7.6002C8.40044 7.0002 6.40044 6.7002 5.30044 7.3002C4.20044 7.9002 2.60044 12.2002 3.20044 14.6002C3.40044 15.6002 3.90044 16.5002 4.50044 17.4002C3.30044 17.0002 2.00057 17.0999 1.40057 17.8999C0.600567 18.8999 1.20057 23.1999 1.70057 24.4999C2.20057 25.6999 2.90057 26.5999 4.10057 27.4999M14.0005 40.5999C9.3005 39.8999 3.9005 36.8999 2.7005 30.7999C2.4005 29.3999 3.0005 27.7999 4.1005 27.3999M21.0006 9.50011C19.2006 5.20011 16.1006 1.40011 14.2006 1.00011C12.7006 0.70011 8.80058 4.50011 9.00058 7.50011M32.0004 16.7001C33.4004 16.7001 35.5004 23.7001 36.6004 24.4001C37.7004 25.1001 44.3004 25.1001 44.5004 26.3001C44.7004 27.5001 39.7004 31.9001 39.1004 32.9001C38.5004 33.9001 40.9004 40.4001 39.8004 41.0001C38.7004 41.6001 33.4004 36.9001 32.1004 36.9001C30.8004 36.9001 25.5004 41.6001 24.4004 41.0001C23.3004 40.4001 25.2004 34.1001 25.0004 32.7001C24.8004 31.3001 19.1004 27.9001 19.6004 26.3001C20.1004 24.7001 27.0004 24.8001 27.7004 24.3001C28.4004 23.8001 30.8004 16.6001 32.2004 16.6001L32.0004 16.7001ZM31.9007 53.3C44.2007 49.9 57.8007 35.6 55.6007 15.6C50.3007 13.4 35.1007 6.5 31.9007 6.5C28.7007 6.5 15.0007 12.6 8.30071 15.3C7.50071 33.7 15.1007 48 31.9007 53.2V53.3Z" stroke="#494A4A" stroke-width="2" stroke-linecap="round" stroke-linejoin="round"/>
<path id="1px" d="M56.0996 20.6998C57.2996 19.4998 58.2996 18.1998 59.2996 16.7998M59.8997 26.7998C58.7997 27.5998 56.5997 28.4998 54.6997 29.2998M54.4995 7.2998C54.2995 9.9998 53.3995 11.6998 51.9995 13.4998M7.99971 20.8002C6.79971 19.6002 5.69971 18.3002 4.69971 16.7002M4.09961 26.7998C5.19961 27.5998 7.29961 28.5998 9.09961 29.3998M9.49951 7.2998C9.69951 9.9998 10.0995 11.7998 11.4995 13.4998M33.7993 48.8999C34.8993 48.5999 36.5993 47.6999 37.4993 46.8999M39.9995 45.3001C43.1995 42.9001 45.2995 40.9001 47.4995 36.6001M30.5996 24.4998C30.8996 23.7998 31.2996 22.8998 31.4996 22.2998" stroke="#494A4A" stroke-linecap="round" stroke-linejoin="round"/>
</g>
</g>
<defs>
<clipPath id="clip0_622_42012">
<rect width="64" height="64" fill="white"/>
</clipPath>
</defs>
</svg>
