<svg width="64" height="64" viewBox="0 0 64 64" fill="none" xmlns="http://www.w3.org/2000/svg">
<g id="Pictogram-office-building" clip-path="url(#clip0_426_1218)">
<g id="stroke-default">
<path id="2px" d="M14.9998 5C14.9998 8.71 14.9998 13.17 14.9998 18M58.5398 42.44C59.5298 27.38 60.0798 12.81 59.9998 5M56.9198 63C57.3998 57.9 57.8398 52.49 58.2298 47.07M37.9998 47C38.0898 52.3 37.9998 56.47 38.3098 62.85M23.4698 63H58.9998M19.1098 27.93C22.5798 27.93 24.2898 30.01 23.9598 33.93M21.9198 35.12C24.2698 34.49 26.9998 35.75 26.9998 40C26.9998 43.51 24.5698 45.53 20.5898 44.81M5.1598 29.49C-1.5902 31.8 0.219803 45.41 7.7198 45.49M18.9998 29.72C19.6098 18.72 4.7798 17.09 5.9998 30.94M6.9998 43C7.9998 49.66 19.8398 50 20.9398 42M10.7098 47.59C12.7098 53.76 12.3898 59.59 9.5298 62.99M17.0598 52.56C16.9998 51 16.8398 48.31 17.9198 47M14.9998 57.11C14.9998 55.85 15.7198 53.11 16.0598 52.97C16.7898 52.78 20.4198 53.32 20.0098 54.03C17.7498 57.98 17.0098 60.3 20.0098 63.03M61.1998 1C40.9998 1 15.8398 1.53 12.2498 2C11.6198 2.08 12.2498 5 12.6498 5H60.9098C61.4431 4.98194 61.9511 4.768 62.3367 4.39905C62.7222 4.0301 62.9583 3.53202 62.9998 3C62.9998 1.47 62.3798 1 61.1998 1ZM59.9998 43C49.1998 43 38.1198 43.33 36.1998 43.85C35.8698 43.94 36.0398 46.78 36.1998 46.78C42.5198 47.01 52.7398 47.01 59.6698 47.01C60.3298 47.01 60.9598 45.78 60.9598 44.89C60.9998 43.27 60.6198 43 59.9998 43Z" stroke="#494A4A" stroke-width="2" stroke-linecap="round" stroke-linejoin="round"/>
<path id="1px" d="M15.0002 18.47C29.3902 18.19 40.2602 18.71 59.4502 18.47M27.2402 31.49C41.6302 31.22 40.2402 31.73 59.4302 31.49M28.3002 45.45C32.7102 45.45 31.9802 45.45 35.9302 45.45M25.5702 47.67C25.6402 54.02 25.7302 59.53 25.8602 63M25.6002 5C25.5002 9.94 25.4502 18.31 25.4602 27.33M49.4402 5C49.5102 12 48.6302 30.17 48.6302 43M48.4902 47.07C48.4902 50.53 48.4902 57.94 48.5602 63M37.4602 5C37.5302 12 37.8002 30.5 37.8102 43.32M51.4102 53.42V55.71M45.4102 53.42L45.5002 55.71M15.7202 53.75C15.4202 55.88 18.9102 56.52 19.8402 54.68M16.5302 44.42C17.3491 43.8653 17.9583 43.0519 18.2602 42.11M8.56023 28.82C8.29023 26.82 9.09023 25.07 10.5602 24.53" stroke="#494A4A" stroke-linecap="round" stroke-linejoin="round"/>
</g>
</g>
<defs>
<clipPath id="clip0_426_1218">
<rect width="64" height="64" fill="white"/>
</clipPath>
</defs>
</svg>
