<svg width="64" height="64" viewBox="0 0 64 64" fill="none" xmlns="http://www.w3.org/2000/svg">
<g id="Pictogram-report">
<g id="stroke-default">
<path id="2px" d="M10 22.1C10.17 19.62 11.2 17.87 13.37 17.39C14.62 17.11 17.78 16.73 19.5 16.3C22.1 15.66 23.16 14.55 23.75 11.93C24.1 10.39 24.16 7.93 24.34 6.64C24.6 4.76 26.34 3 29.26 3M48.59 60.85C51.93 60.7 53.59 58.96 53.76 55.2C54.08 48.2 54.14 15.47 53.57 9.44C53.19 5.38 52.31 3.8 49.08 3.51C44.49 3.08 33.05 3 29.35 3C24.05 3 21 5.7 17.71 9C13.61 13.21 10 15.86 10 23.18C10 26.76 10.12 49.67 10.23 55.59C10.1977 56.2217 10.293 56.8535 10.5101 57.4476C10.7273 58.0418 11.0619 58.586 11.4941 59.048C11.9262 59.51 12.4469 59.8802 13.0252 60.1365C13.6035 60.3929 14.2275 60.5301 14.86 60.54C20.26 61 41.82 61.15 48.59 60.85Z" stroke="#494A4A" stroke-width="2" stroke-linecap="round" stroke-linejoin="round"/>
<path id="1px" d="M13.5303 53.51C13.5303 56.51 13.3103 57.51 19.4703 57.51M26.5003 35.55C27.9203 35.43 44.7503 35.55 45.5003 35.55M24.8403 25C25.9703 23.59 27.2003 22.08 28.0903 20.91M31.0503 20.81C32.3403 22.1 33.8403 23.17 34.9703 24.25M38.1003 24.3C39.5003 22.86 40.6303 21.53 42.1703 20.02M21.4303 41.56C22.9503 41.43 44.7003 41.56 45.5003 41.51M21.4303 47.52C22.9503 47.39 32.5503 47.52 33.3503 47.47M25.5003 26.49C25.5003 27.5945 24.6048 28.49 23.5003 28.49C22.3957 28.49 21.5003 27.5945 21.5003 26.49C21.5003 25.3854 22.3957 24.49 23.5003 24.49C24.6048 24.49 25.5003 25.3854 25.5003 26.49ZM38.5203 25.52C38.5203 26.6245 37.6248 27.52 36.5203 27.52C35.4157 27.52 34.5203 26.6245 34.5203 25.52C34.5203 24.4154 35.4157 23.52 36.5203 23.52C37.6248 23.52 38.5203 24.4154 38.5203 25.52ZM31.5203 19.54C31.5203 20.6445 30.6248 21.54 29.5203 21.54C28.4157 21.54 27.5203 20.6445 27.5203 19.54C27.5203 18.4354 28.4157 17.54 29.5203 17.54C30.6248 17.54 31.5203 18.4354 31.5203 19.54ZM45.5003 18.54C45.5003 19.6445 44.6048 20.54 43.5003 20.54C42.3957 20.54 41.5003 19.6445 41.5003 18.54C41.5003 17.4354 42.3957 16.54 43.5003 16.54C44.6048 16.54 45.5003 17.4354 45.5003 18.54Z" stroke="#494A4A" stroke-linecap="round" stroke-linejoin="round"/>
</g>
</g>
</svg>
