<svg width="64" height="64" viewBox="0 0 64 64" fill="none" xmlns="http://www.w3.org/2000/svg">
<g id="  Pictogram-bronze-rank-2">
<g id="stroke-default">
<g id="2px">
<path d="M32.0009 16.6996C33.4009 16.6996 35.5009 23.6996 36.6009 24.3996C37.7009 25.0996 44.3009 25.0996 44.5009 26.2996C44.7009 27.4996 39.7009 31.8996 39.1009 32.8996C38.5009 33.8996 40.9009 40.3996 39.8009 40.9996C38.7009 41.5996 33.4009 36.8996 32.1009 36.8996C30.8009 36.8996 25.5009 41.5996 24.4009 40.9996C23.3009 40.3996 25.2009 34.0996 25.0009 32.6996C24.8009 31.2996 19.1009 27.8996 19.6009 26.2996C20.1009 24.6996 27.0009 24.7996 27.7009 24.2996C28.4009 23.7996 30.8009 16.5996 32.2009 16.5996L32.0009 16.6996Z" stroke="#494A4A" stroke-width="2" stroke-linecap="round" stroke-linejoin="round"/>
<path d="M31.9012 53.3C44.2012 49.9 57.8012 35.6 55.6012 15.6C50.3012 13.4 35.1012 6.5 31.9012 6.5C28.7012 6.5 15.0012 12.6 8.3012 15.3C7.5012 33.7 15.1012 48 31.9012 53.2V53.3Z" stroke="#494A4A" stroke-width="2" stroke-linecap="round" stroke-linejoin="round"/>
</g>
<path id="1px" d="M30.6016 24.4998C30.9016 23.7998 31.3016 22.8998 31.5016 22.2998M33.8013 48.9004C34.9013 48.6004 36.6013 47.7004 37.5013 46.9004M40.0015 45.2996C43.2015 42.8996 45.3015 40.8996 47.5015 36.5996" stroke="#494A4A" stroke-linecap="round" stroke-linejoin="round"/>
</g>
</g>
</svg>
