<svg width="64" height="64" viewBox="0 0 64 64" fill="none" xmlns="http://www.w3.org/2000/svg">
<g id="  Pictogram-star" clip-path="url(#clip0_426_1899)">
<g id="stroke-default">
<path id="2px" d="M13.6196 55.4799C10.8096 53.9699 16.6196 39.1599 15.7196 36.7099C15.2996 35.5699 1.54963 31.9299 2.18963 29.5699C2.72963 27.5699 17.6896 22.2199 19.4496 21.0699C20.9896 20.0699 26.5396 5.06991 29.7596 4.72991C32.9796 4.38991 39.6596 18.8299 40.6996 19.9999C41.5896 20.9999 62.4196 21.6499 62.9996 24.9999C63.4196 27.4399 52.7496 32.4799 48.6296 34.6399C47.7459 35.0883 47.0556 35.843 46.6876 36.7631C46.3195 37.6832 46.2989 38.7058 46.6296 39.6399C46.9996 41.2299 50.7096 55.2299 47.9996 56.5499C45.2896 57.8699 32.8696 44.8399 29.6196 45.0499C26.6496 45.2399 16.6096 57.0899 13.6196 55.4799Z" stroke="#494A4A" stroke-width="2" stroke-miterlimit="10"/>
<path id="1px" d="M32.43 63.5599V63.0599H32.4196L32.4092 63.0604L32.43 63.5599ZM27.02 60.4599L27.4673 60.2363L27.4643 60.2306L27.02 60.4599ZM14.3 4.42993L13.8196 4.56852L13.8203 4.57102L14.3 4.42993ZM57.11 2.45993L57.2162 1.97132L57.2113 1.9703L57.11 2.45993ZM61.13 6.33993L60.6496 6.47852L60.6503 6.48102L61.13 6.33993ZM10.3652 20.9314C10.6145 21.0501 10.9129 20.9441 11.0315 20.6948C11.1501 20.4454 11.0442 20.1471 10.7948 20.0284L10.3652 20.9314ZM5.55536 18.9805C5.27955 18.9942 5.067 19.2288 5.08061 19.5046C5.09422 19.7804 5.32884 19.9929 5.60464 19.9793L5.55536 18.9805ZM11.9538 41.7198C12.0697 41.4692 11.9605 41.172 11.7099 41.0561C11.4593 40.9402 11.1621 41.0494 11.0462 41.3L11.9538 41.7198ZM9.00028 50.3967C9.00955 50.6727 9.2408 50.8889 9.51679 50.8797C9.79277 50.8704 10.009 50.6391 9.99972 50.3632L9.00028 50.3967ZM3.61595 37.1969C3.39338 37.0335 3.08045 37.0814 2.917 37.304C2.75355 37.5266 2.80147 37.8395 3.02405 38.0029L3.61595 37.1969ZM11.2727 38.7746C11.5459 38.7345 11.7348 38.4805 11.6947 38.2073C11.6546 37.9341 11.4005 37.7451 11.1273 37.7852L11.2727 38.7746ZM13.2234 17.8369C13.4371 18.0118 13.7521 17.9803 13.927 17.7666C14.1018 17.5528 14.0703 17.2378 13.8566 17.063L13.2234 17.8369ZM3.61813 12.9561C3.34538 12.9129 3.08929 13.0991 3.04614 13.3718C3.00299 13.6446 3.18912 13.9006 3.46187 13.9438L3.61813 12.9561ZM43.992 15.4248C43.9671 15.6998 44.1698 15.9429 44.4448 15.9679C44.7198 15.9928 44.963 15.7901 44.988 15.5151L43.992 15.4248ZM42.5918 8.30567C42.4072 8.10031 42.0911 8.08348 41.8857 8.26809C41.6804 8.4527 41.6635 8.76884 41.8482 8.9742L42.5918 8.30567ZM18.8054 24.9984C18.5395 25.0727 18.3841 25.3486 18.4585 25.6145C18.5328 25.8805 18.8086 26.0358 19.0746 25.9615L18.8054 24.9984ZM24.9646 21.1587C25.0909 20.9132 24.9943 20.6117 24.7488 20.4853C24.5032 20.359 24.2017 20.4556 24.0754 20.7012L24.9646 21.1587ZM44.1918 32.0027C43.9835 32.1839 43.9615 32.4998 44.1428 32.7081C44.324 32.9164 44.6398 32.9384 44.8482 32.7572L44.1918 32.0027ZM50.7323 30.0547C51.0056 30.0147 51.1947 29.7608 51.1547 29.4876C51.1148 29.2144 50.8609 29.0252 50.5877 29.0652L50.7323 30.0547ZM34.2141 43.9697C34.3962 44.1772 34.7121 44.1979 34.9197 44.0158C35.1273 43.8337 35.148 43.5178 34.9659 43.3102L34.2141 43.9697ZM34.0187 38.5464C34.0388 38.271 33.8319 38.0314 33.5565 38.0113C33.2811 37.9911 33.0415 38.198 33.0213 38.4734L34.0187 38.5464ZM37.0428 45.7955C37.195 46.0259 37.5052 46.0893 37.7356 45.9371C37.966 45.7849 38.0294 45.4747 37.8772 45.2443L37.0428 45.7955ZM36.8299 41.6298C36.8354 41.3537 36.616 41.1255 36.3399 41.12C36.0638 41.1146 35.8356 41.334 35.8301 41.61L36.8299 41.6298ZM59.38 16.9302C59.6397 17.024 59.9264 16.8896 60.0202 16.6299C60.1141 16.3702 59.9797 16.0836 59.72 15.9897L59.38 16.9302ZM48.38 15.9897C48.1203 16.0836 47.9859 16.3702 48.0798 16.6299C48.1736 16.8896 48.4603 17.024 48.72 16.9302L48.38 15.9897ZM53.0603 52.8314C53.0501 53.1074 53.2655 53.3394 53.5415 53.3496C53.8175 53.3598 54.0494 53.1444 54.0597 52.8684L53.0603 52.8314ZM52.0283 40.3247C51.9315 40.0661 51.6434 39.9349 51.3847 40.0317C51.1261 40.1284 50.9949 40.4166 51.0917 40.6752L52.0283 40.3247ZM19.3189 56.9383C19.0474 56.9886 18.868 57.2495 18.9184 57.5211C18.9687 57.7926 19.2296 57.9719 19.5011 57.9216L19.3189 56.9383ZM24.8364 54.8171C25.0502 54.6424 25.0819 54.3274 24.9072 54.1135C24.7324 53.8997 24.4174 53.868 24.2036 54.0428L24.8364 54.8171ZM40.8037 57.0668C40.6031 56.877 40.2866 56.8857 40.0968 57.0863C39.907 57.2868 39.9158 57.6033 40.1163 57.7931L40.8037 57.0668ZM46.2455 61.9916C46.495 62.1101 46.7932 62.0039 46.9117 61.7544C47.0301 61.505 46.9239 61.2067 46.6745 61.0883L46.2455 61.9916ZM53.4917 36.0967C53.2193 36.0515 52.9618 36.2358 52.9167 36.5082C52.8716 36.7807 53.0559 37.0381 53.3283 37.0832L53.4917 36.0967ZM60.4768 35.4595C60.703 35.3011 60.758 34.9894 60.5996 34.7632C60.4412 34.5369 60.1294 34.482 59.9032 34.6404L60.4768 35.4595ZM18.0428 14.3129C18.0721 14.5875 18.3184 14.7864 18.5929 14.7571C18.8675 14.7279 19.0664 14.4816 19.0372 14.207L18.0428 14.3129ZM20.7842 7.69625C21.0252 7.56139 21.1112 7.25671 20.9763 7.01574C20.8415 6.77477 20.5368 6.68876 20.2958 6.82362L20.7842 7.69625ZM8.53 55.5299L9.02946 55.5532C9.02982 55.5455 9.03 55.5377 9.03 55.5299H8.53ZM6.53 57.5299L6.50673 57.0305C6.49929 57.0308 6.49186 57.0313 6.48444 57.032L6.53 57.5299ZM4.53 55.5299L5.02792 55.5755C5.02931 55.5603 5.03 55.5451 5.03 55.5299H4.53ZM6.53 53.5299L6.42585 54.019L6.43194 54.0202L6.53 53.5299ZM5.52 43.9999L5.02337 43.942C5.02089 43.9632 5.01978 43.9846 5.02004 44.006L5.52 43.9999ZM3 46.5299L3.00404 46.0299H3V46.5299ZM0.5 44.0299L0.000229567 44.0148C7.65324e-05 44.0198 0 44.0249 0 44.0299H0.5ZM3 41.5199L3.01714 42.0196C3.03344 42.0191 3.0497 42.0177 3.06587 42.0156L3 41.5199ZM46.06 1.33993L45.6451 1.61897C45.6538 1.63185 45.663 1.64433 45.6729 1.65635L46.06 1.33993ZM45.77 4.15993L46.0135 4.59664C46.0385 4.58267 46.0624 4.56657 46.0846 4.54852L45.77 4.15993ZM43 3.91993L42.6014 4.22178C42.6257 4.25387 42.6538 4.2829 42.685 4.30825L43 3.91993ZM43.29 1.10993L43.6186 1.48683C43.6306 1.47631 43.6422 1.46521 43.6532 1.45358L43.29 1.10993ZM61 40.3499L60.5802 40.6215C60.5899 40.6365 60.6004 40.651 60.6116 40.6648L61 40.3499ZM60.71 43.1599L60.9621 43.5917C60.9845 43.5787 61.0058 43.5639 61.0259 43.5475L60.71 43.1599ZM57.89 42.9299L57.4911 43.2314C57.5145 43.2624 57.5414 43.2905 57.5713 43.3152L57.89 42.9299ZM58.18 40.1099L58.5092 40.4863C58.5227 40.4744 58.5357 40.4618 58.5479 40.4485L58.18 40.1099ZM60.47 52.9999L59.9751 52.9289C59.972 52.9502 59.9703 52.9717 59.97 52.9933L60.47 52.9999ZM59 54.4699V54.97L59.0067 54.9699L59 54.4699ZM57.51 52.9799L57.01 52.967V52.9799H57.51ZM59 51.4899L59.0129 51.9898C59.0279 51.9894 59.0428 51.9883 59.0577 51.9866L59 51.4899ZM32.43 64.0599C32.6756 64.0599 32.8249 63.8981 32.8596 63.8604C32.9184 63.7966 32.9648 63.7243 32.9992 63.6652C33.0704 63.5429 33.1425 63.3851 33.2118 63.2196C33.3523 62.8841 33.5119 62.4415 33.6658 62.0107C33.8225 61.5724 33.9738 61.1449 34.1041 60.8166C34.1696 60.6516 34.2248 60.5247 34.2682 60.4396C34.2904 60.3962 34.3033 60.3759 34.307 60.3707C34.3244 60.346 34.283 60.4192 34.1774 60.4702L33.7426 59.5697C33.6007 59.6382 33.518 59.7543 33.4894 59.7948C33.4472 59.8548 33.4097 59.9219 33.3776 59.9849C33.3124 60.1125 33.2435 60.2742 33.1747 60.4476C33.0362 60.7963 32.8775 61.2449 32.7242 61.6742C32.5681 62.1108 32.4177 62.5271 32.2894 62.8334C32.2243 62.9888 32.1724 63.0978 32.135 63.162C32.1152 63.1961 32.1111 63.197 32.1239 63.1831C32.1307 63.1757 32.1539 63.1513 32.1943 63.126C32.2341 63.1012 32.316 63.0599 32.43 63.0599V64.0599ZM34.1774 60.4702C34.1333 60.4915 34.0979 60.499 34.0832 60.5017C34.0746 60.5033 34.0681 60.504 34.0644 60.5044C34.0606 60.5048 34.0585 60.5048 34.0585 60.5048C34.0584 60.5048 34.0596 60.5048 34.0625 60.5048C34.0653 60.5048 34.0692 60.505 34.0743 60.5052C34.0847 60.5057 34.0986 60.5067 34.1162 60.5085C34.1905 60.5161 34.2969 60.5338 34.4354 60.5613C34.7215 60.6181 35.0451 60.6956 35.4166 60.7741C35.7651 60.8478 36.1409 60.9189 36.446 60.938C36.5942 60.9473 36.7656 60.9474 36.9218 60.9101C37.0629 60.8764 37.3496 60.7697 37.4412 60.4459L36.4788 60.174C36.5059 60.0784 36.5645 60.0122 36.6161 59.9751C36.6394 59.9583 36.659 59.9489 36.6707 59.944C36.6825 59.9391 36.6894 59.9375 36.6895 59.9375C36.6897 59.9374 36.6857 59.9384 36.6765 59.9395C36.6674 59.9406 36.6549 59.9417 36.6385 59.9424C36.6053 59.9439 36.5622 59.9433 36.5084 59.94C36.2841 59.9259 35.9724 59.8696 35.6234 59.7958C35.2974 59.7268 34.9135 59.6367 34.6302 59.5805C34.484 59.5514 34.3402 59.5261 34.2175 59.5136C34.1564 59.5074 34.0886 59.503 34.0216 59.5055C33.9674 59.5075 33.8559 59.515 33.7426 59.5697L34.1774 60.4702ZM37.4412 60.4459C37.5093 60.2048 37.4193 59.9769 37.3705 59.8665C37.3081 59.7256 37.2179 59.5775 37.1213 59.4354C36.9265 59.1488 36.6595 58.82 36.3967 58.5095C36.1416 58.208 35.8493 57.8761 35.6501 57.6426C35.5442 57.5185 35.4574 57.414 35.394 57.3321C35.3175 57.2333 35.3108 57.2119 35.3215 57.2376L34.3985 57.6222C34.4467 57.7379 34.5378 57.8597 34.6033 57.9443C34.6818 58.0457 34.7811 58.1648 34.8893 58.2916C35.1182 58.56 35.3659 58.8394 35.6333 59.1554C35.893 59.4624 36.131 59.7573 36.2943 59.9976C36.3768 60.1189 36.429 60.2101 36.456 60.2712C36.4966 60.363 36.4432 60.3001 36.4788 60.174L37.4412 60.4459ZM35.3215 57.2376C35.3514 57.3093 35.3464 57.3574 35.3464 57.3317C35.3464 57.3189 35.348 57.2899 35.3546 57.24C35.3678 57.1408 35.3946 57.0035 35.4335 56.8304C35.5128 56.4773 35.6219 56.061 35.7314 55.6007C35.8366 55.1586 35.9382 54.6911 35.9813 54.3044C36.0026 54.1129 36.0128 53.9154 35.9928 53.7393C35.976 53.5906 35.924 53.3192 35.694 53.143L35.086 53.9369C34.9735 53.8507 34.9884 53.7571 34.9992 53.8521C35.0069 53.9196 35.0055 54.0317 34.9874 54.1936C34.9518 54.5137 34.8634 54.9287 34.7586 55.3692C34.6581 55.7914 34.5372 56.2575 34.4578 56.6113C34.4173 56.7917 34.3825 56.9639 34.3633 57.1084C34.3538 57.1803 34.3465 57.2567 34.3464 57.3301C34.3463 57.3905 34.3498 57.5055 34.3985 57.6222L35.3215 57.2376ZM35.694 53.143C35.4551 52.9599 35.1722 52.9919 35.0233 53.0216C34.8481 53.0564 34.6634 53.1288 34.4897 53.2099C34.138 53.3743 33.7307 53.6234 33.3498 53.8729C32.9655 54.1247 32.5874 54.3907 32.296 54.5935C32.1483 54.6964 32.0257 54.781 31.9323 54.8423C31.8855 54.8731 31.8509 54.8947 31.8272 54.9086C31.7923 54.9289 31.8073 54.9167 31.847 54.9039L32.153 55.8559C32.2277 55.832 32.2961 55.7927 32.3309 55.7724C32.3768 55.7456 32.4282 55.713 32.4812 55.6782C32.5877 55.6083 32.721 55.5162 32.8674 55.4142C33.1645 55.2073 33.5283 54.9515 33.8977 54.7094C34.2705 54.4652 34.6289 54.2487 34.9131 54.1159C35.0574 54.0484 35.1582 54.0143 35.2184 54.0023C35.305 53.9851 35.2074 54.0299 35.086 53.9369L35.694 53.143ZM31.847 54.9039C31.9247 54.879 31.9848 54.8829 31.9968 54.8837C32.0159 54.8849 32.0249 54.8874 32.0191 54.8861C32.0075 54.8836 31.9781 54.8755 31.9258 54.857C31.8232 54.8207 31.6792 54.761 31.4998 54.6812C31.1427 54.5224 30.6884 54.3032 30.2262 54.0816C29.7698 53.8627 29.3047 53.6409 28.9427 53.4859C28.7639 53.4094 28.5946 53.3422 28.4574 53.3004C28.3918 53.2804 28.3099 53.2587 28.2274 53.2504C28.1869 53.2463 28.1219 53.2426 28.0476 53.2557C27.9781 53.268 27.8385 53.3061 27.7275 53.4379L28.4925 54.082C28.3915 54.2019 28.2684 54.2322 28.2213 54.2405C28.1694 54.2497 28.1329 54.2459 28.1266 54.2453C28.1123 54.2438 28.1212 54.2433 28.1658 54.257C28.249 54.2823 28.3776 54.3318 28.5491 54.4052C28.8878 54.5502 29.3327 54.7621 29.7938 54.9833C30.2491 55.2016 30.7198 55.4287 31.0933 55.5949C31.2792 55.6776 31.4519 55.7501 31.5922 55.7997C31.6614 55.8242 31.735 55.8476 31.8048 55.8629C31.8397 55.8705 31.8839 55.8785 31.9325 55.8816C31.974 55.8843 32.0578 55.8865 32.153 55.8559L31.847 54.9039ZM27.7275 53.4379C27.6239 53.561 27.6058 53.6944 27.6024 53.7598C27.5986 53.831 27.6085 53.892 27.6167 53.9311C27.6333 54.0104 27.6623 54.0879 27.6883 54.1505C27.7426 54.2807 27.8242 54.439 27.9155 54.605C28.1003 54.9409 28.3584 55.3679 28.6114 55.7845C28.8679 56.2067 29.1195 56.6187 29.3023 56.9404C29.3943 57.1023 29.4624 57.23 29.5035 57.3189C29.5134 57.3402 29.5207 57.3572 29.526 57.3702C29.5314 57.3837 29.5333 57.3896 29.5332 57.3895C29.5331 57.3891 29.532 57.3856 29.5306 57.3794C29.5293 57.3734 29.527 57.3621 29.5252 57.3465C29.5231 57.3283 29.5134 57.2424 29.5544 57.1377L30.4856 57.5021C30.5322 57.3831 30.5237 57.2771 30.5188 57.2336C30.5127 57.1797 30.5003 57.1326 30.49 57.0988C30.4693 57.0307 30.4398 56.9609 30.4109 56.8986C30.3518 56.7709 30.2671 56.6141 30.1717 56.4463C29.9798 56.1086 29.7184 55.6807 29.4661 55.2653C29.2104 54.8444 28.9641 54.4365 28.7917 54.123C28.7044 53.9643 28.6442 53.8443 28.6113 53.7656C28.5938 53.7236 28.5929 53.7139 28.5955 53.7263C28.5966 53.7319 28.6035 53.7644 28.601 53.8126C28.5987 53.855 28.5861 53.9708 28.4925 54.082L27.7275 53.4379ZM29.5544 57.1377C29.5666 57.1066 29.5791 57.0848 29.5848 57.0753C29.5913 57.0645 29.5962 57.0575 29.5979 57.0553C29.6009 57.0511 29.5997 57.0532 29.5911 57.0631C29.5742 57.0827 29.5455 57.1136 29.5024 57.1574C29.4171 57.244 29.2962 57.3603 29.1478 57.5002C28.8682 57.7638 28.4503 58.149 28.0827 58.4966C27.7027 58.856 27.3198 59.2278 27.04 59.533C26.9021 59.6834 26.7753 59.8326 26.6858 59.9643C26.6424 60.0282 26.5928 60.1093 26.5589 60.1986C26.5354 60.2604 26.462 60.469 26.5757 60.6893L27.4643 60.2306C27.5141 60.327 27.5166 60.4151 27.5127 60.4641C27.5088 60.5124 27.4973 60.5444 27.4938 60.5536C27.4873 60.5706 27.4874 60.5639 27.5128 60.5266C27.5608 60.4559 27.6484 60.3492 27.7772 60.2088C28.0308 59.9321 28.391 59.5814 28.7698 59.2232C29.1609 58.8534 29.5175 58.526 29.8338 58.2278C29.9834 58.0868 30.1158 57.9597 30.215 57.8589C30.2642 57.809 30.3105 57.7602 30.3483 57.7163C30.3671 57.6945 30.3883 57.6688 30.4082 57.6413C30.4229 57.621 30.4591 57.57 30.4856 57.5021L29.5544 57.1377ZM26.5728 60.6835C26.6582 60.8543 26.8004 60.9436 26.9006 60.9887C27.0027 61.0347 27.109 61.0572 27.199 61.0695C27.38 61.0944 27.5929 61.0909 27.8055 61.0759C28.237 61.0453 28.7744 60.9583 29.2889 60.8613C29.807 60.7636 30.3207 60.6522 30.7069 60.5691C30.9021 60.527 31.0611 60.4931 31.1751 60.4707C31.2328 60.4594 31.272 60.4525 31.2956 60.4491C31.3081 60.4473 31.3083 60.4476 31.3009 60.4481C31.2973 60.4483 31.2846 60.4492 31.2666 60.4486C31.2565 60.4483 31.2059 60.4472 31.143 60.4278L31.437 59.472C31.3701 59.4514 31.3136 59.4496 31.2958 59.449C31.27 59.4483 31.2479 59.4494 31.2331 59.4504C31.2033 59.4524 31.1742 59.4562 31.1509 59.4596C31.103 59.4666 31.0448 59.4773 30.983 59.4894C30.8579 59.5138 30.689 59.55 30.4965 59.5914C30.1074 59.6752 29.6068 59.7838 29.1036 59.8786C28.5968 59.9741 28.1061 60.0521 27.7348 60.0784C27.546 60.0918 27.4139 60.0897 27.3351 60.0788C27.2953 60.0734 27.293 60.0687 27.3116 60.077C27.3281 60.0845 27.4118 60.1255 27.4672 60.2363L26.5728 60.6835ZM31.143 60.4278C31.0353 60.3947 30.9692 60.334 30.944 60.3089C30.9141 60.2792 30.8957 60.2527 30.8875 60.2404C30.8782 60.2264 30.8724 60.2157 30.8699 60.211C30.8685 60.2082 30.8674 60.2062 30.8668 60.205C30.8663 60.2037 30.866 60.2031 30.8659 60.2031C30.8659 60.203 30.8661 60.2035 30.8665 60.2045C30.867 60.2054 30.8675 60.2068 30.8683 60.2086C30.8698 60.2123 30.8717 60.2173 30.8741 60.2238C30.879 60.2369 30.8851 60.2539 30.8922 60.2753C30.9217 60.3637 30.9605 60.4961 31.0073 60.6654C31.1007 61.0037 31.2144 61.4463 31.3355 61.9021C31.4548 62.351 31.5806 62.8104 31.693 63.1592C31.7484 63.331 31.8059 63.4927 31.8626 63.6169C31.8896 63.6761 31.9269 63.7505 31.976 63.8174C32.0002 63.8503 32.0417 63.9015 32.1028 63.9482C32.1618 63.9931 32.2828 64.0665 32.4508 64.0595L32.4092 63.0604C32.5622 63.054 32.6672 63.121 32.7092 63.153C32.7533 63.1866 32.7768 63.2183 32.7821 63.2256C32.7935 63.2411 32.7896 63.2396 32.7723 63.2017C32.7405 63.132 32.6973 63.0153 32.6448 62.8523C32.5413 62.5314 32.4215 62.0952 32.302 61.6453C32.1843 61.2024 32.0662 60.7431 31.9712 60.3992C31.9237 60.2274 31.8791 60.0736 31.8407 59.9586C31.8221 59.9029 31.8007 59.8432 31.7772 59.7913C31.7662 59.7669 31.7475 59.7278 31.7206 59.6872C31.7071 59.667 31.6837 59.6342 31.6491 59.5998C31.6192 59.5701 31.5488 59.5064 31.437 59.472L31.143 60.4278ZM10.342 0.0604442C10.118 0.0137873 9.94812 0.12443 9.90883 0.149958C9.84219 0.19327 9.78553 0.245608 9.74364 0.287571C9.65691 0.374425 9.56333 0.488527 9.47249 0.606325C9.28828 0.845202 9.06596 1.16462 8.85269 1.46973C8.63431 1.78215 8.42438 2.08111 8.25156 2.30194C8.16416 2.41362 8.09707 2.49123 8.05084 2.5369C8.02704 2.56041 8.02099 2.56318 8.03039 2.55686C8.03567 2.55332 8.05348 2.5417 8.08226 2.52994C8.1096 2.51876 8.16501 2.49993 8.24 2.49993V3.49993C8.41255 3.49993 8.53979 3.41937 8.58813 3.38688C8.65199 3.34397 8.70831 3.29307 8.75361 3.24832C8.84558 3.15746 8.94366 3.04016 9.03906 2.91824C9.23186 2.67189 9.45819 2.34897 9.67231 2.04264C9.89154 1.729 10.098 1.43279 10.2644 1.21698C10.3489 1.10744 10.4111 1.03443 10.4513 0.994134C10.4729 0.972522 10.4725 0.976277 10.4537 0.98846C10.4439 0.994841 10.4156 1.01244 10.3718 1.027C10.3293 1.04116 10.2444 1.06159 10.138 1.03942L10.342 0.0604442ZM8.24 2.49993C8.2521 2.49993 8.21709 2.49787 8.09058 2.47719C7.9829 2.45958 7.84276 2.43455 7.67631 2.40467C7.34689 2.34555 6.92466 2.26927 6.50354 2.20556C6.08613 2.14241 5.6507 2.08856 5.29721 2.07827C5.12307 2.0732 4.94413 2.07772 4.78805 2.10598C4.70993 2.12012 4.61763 2.14361 4.52772 2.18692C4.43953 2.2294 4.31855 2.30808 4.23655 2.4507L5.10345 2.94917C5.0502 3.04179 4.97992 3.07907 4.96168 3.08785C4.94171 3.09747 4.9386 3.09498 4.9662 3.08998C5.02157 3.07996 5.12021 3.07354 5.26811 3.07785C5.55868 3.08631 5.94512 3.13246 6.35396 3.19431C6.75909 3.2556 7.16748 3.32932 7.49963 3.38894C7.66396 3.41844 7.81233 3.44497 7.92922 3.46409C8.02729 3.48012 8.1529 3.49993 8.24 3.49993V2.49993ZM4.23655 2.4507C4.09299 2.70036 4.16556 2.96446 4.20203 3.07685C4.24955 3.2233 4.32753 3.37522 4.40987 3.51612C4.5768 3.80176 4.81612 4.13289 5.05048 4.44433C5.29912 4.77474 5.52145 5.05649 5.71706 5.31982C5.81065 5.44579 5.88485 5.55017 5.93675 5.63092C6.00248 5.73322 5.9938 5.74002 5.9828 5.69236L6.95719 5.4675C6.9237 5.32235 6.8347 5.17852 6.77802 5.09031C6.70749 4.98056 6.61716 4.85455 6.51981 4.72349C6.33355 4.47276 6.06838 4.13388 5.84952 3.84304C5.61637 3.53323 5.4082 3.24248 5.27325 3.01156C5.20465 2.89418 5.16811 2.81415 5.15321 2.76822C5.12725 2.68822 5.18951 2.79951 5.10345 2.94917L4.23655 2.4507ZM5.9828 5.69236C5.96363 5.60928 5.97951 5.55569 5.97636 5.57011C5.97546 5.57424 5.9702 5.59426 5.95432 5.63468C5.9227 5.71515 5.86866 5.8275 5.79223 5.97225C5.63657 6.26704 5.43485 6.61069 5.21997 6.99918C5.01457 7.37053 4.80346 7.77224 4.66972 8.1228C4.60333 8.29682 4.54608 8.48324 4.52525 8.66172C4.50603 8.82636 4.50613 9.08144 4.67 9.29993L5.47 8.69993C5.53637 8.78842 5.50991 8.85132 5.5185 8.77764C5.52549 8.7178 5.55042 8.61977 5.60403 8.47926C5.71029 8.20075 5.89043 7.85309 6.09503 7.48319C6.29015 7.13043 6.51718 6.74096 6.67652 6.43918C6.75759 6.28565 6.83261 6.13386 6.88505 6.00038C6.9112 5.93383 6.93673 5.85942 6.95329 5.78369C6.9676 5.71824 6.98762 5.59934 6.95719 5.4675L5.9828 5.69236ZM4.67 9.29993C4.8625 9.5566 5.16341 9.5943 5.32811 9.59913C5.51921 9.60474 5.73034 9.57129 5.9325 9.52528C6.34229 9.43204 6.83307 9.2589 7.29653 9.07832C7.76414 8.89611 8.22719 8.697 8.58193 8.54586C8.76162 8.4693 8.90998 8.40656 9.02115 8.3624C9.07703 8.34021 9.1175 8.32513 9.14457 8.31601C9.18942 8.30089 9.1617 8.31451 9.10694 8.31857L9.03306 7.3213C8.94455 7.32786 8.8591 7.35695 8.82517 7.36839C8.77346 7.38582 8.7141 7.40837 8.65205 7.43301C8.52736 7.48253 8.36745 7.55026 8.18995 7.62588C7.83031 7.77912 7.38336 7.97126 6.93347 8.14655C6.47943 8.32347 6.04521 8.47408 5.71063 8.55021C5.5406 8.5889 5.4247 8.60154 5.35743 8.59956C5.26377 8.59682 5.375 8.57327 5.47 8.69993L4.67 9.29993ZM9.10694 8.31857C9.0249 8.32465 8.96685 8.30642 8.95793 8.30371C8.94097 8.29857 8.93371 8.29468 8.93969 8.29747C8.95142 8.30293 8.9788 8.31737 9.02559 8.34602C9.11731 8.40218 9.24429 8.48856 9.40104 8.60046C9.71319 8.82332 10.1078 9.12168 10.5098 9.42353C10.9069 9.72165 11.312 10.0237 11.631 10.2421C11.7886 10.3499 11.939 10.4469 12.0633 10.5136C12.1228 10.5454 12.1978 10.5822 12.276 10.6063C12.3143 10.6181 12.3765 10.6343 12.4512 10.6363C12.5204 10.6381 12.6647 10.6291 12.7998 10.5224L12.1802 9.73749C12.3035 9.64016 12.4304 9.63539 12.4773 9.63662C12.5296 9.63799 12.5644 9.64878 12.5705 9.65067C12.5844 9.65494 12.576 9.65381 12.5358 9.63225C12.4608 9.59206 12.3467 9.5201 12.1958 9.41685C11.898 9.21303 11.5106 8.92447 11.1102 8.62383C10.7147 8.32694 10.3068 8.01843 9.98209 7.78659C9.8204 7.67116 9.67035 7.56824 9.54777 7.49319C9.48741 7.45623 9.42333 7.41958 9.36194 7.39099C9.33137 7.37675 9.29213 7.36009 9.24812 7.34674C9.21215 7.33583 9.13198 7.31397 9.03306 7.3213L9.10694 8.31857ZM12.7998 10.5224C12.9298 10.4197 12.9737 10.288 12.9894 10.2208C13.0063 10.149 13.0066 10.0855 13.005 10.0454C13.0017 9.96392 12.9853 9.88288 12.9699 9.81842C12.9375 9.68363 12.8827 9.51771 12.8198 9.34345C12.6922 8.99037 12.5068 8.53793 12.323 8.09559C12.1368 7.64741 11.9521 7.20922 11.8177 6.86733C11.7502 6.69573 11.6995 6.55855 11.6686 6.46202C11.6528 6.41253 11.646 6.38545 11.644 6.37542C11.6429 6.37002 11.6454 6.38045 11.6466 6.40104C11.647 6.40907 11.6528 6.48465 11.6172 6.57793L10.6828 6.22194C10.6422 6.32834 10.6463 6.42322 10.6481 6.45633C10.6506 6.502 10.6577 6.54329 10.6639 6.57414C10.6766 6.63663 10.696 6.70363 10.7162 6.76667C10.7573 6.89522 10.8177 7.05696 10.887 7.23316C11.0261 7.5869 11.217 8.03996 11.3995 8.47928C11.5845 8.92444 11.7609 9.35574 11.8793 9.68329C11.9393 9.84934 11.9785 9.97295 11.9975 10.052C12.0077 10.0945 12.0064 10.1014 12.0058 10.0859C12.0055 10.0787 12.0041 10.0427 12.0159 9.99248C12.0266 9.94685 12.062 9.83076 12.1802 9.73749L12.7998 10.5224ZM11.6172 6.57793C11.5848 6.66317 11.537 6.71254 11.5303 6.71959C11.5166 6.73421 11.508 6.74059 11.5116 6.73773C11.5183 6.73234 11.5388 6.71737 11.5798 6.69141C11.6599 6.64075 11.7783 6.57301 11.9301 6.48994C12.2366 6.32214 12.6226 6.1222 13.0288 5.9043C13.4238 5.69246 13.8296 5.46792 14.1331 5.2713C14.282 5.17484 14.4272 5.07184 14.5369 4.96991C14.5902 4.92044 14.6568 4.85152 14.709 4.7659C14.7546 4.69105 14.845 4.51099 14.7797 4.28885L13.8203 4.57102C13.7675 4.39138 13.8449 4.26225 13.855 4.24566C13.8716 4.2183 13.8803 4.21496 13.8563 4.23726C13.8115 4.27889 13.7249 4.34425 13.5894 4.43201C13.3242 4.60382 12.9512 4.81116 12.5562 5.02307C12.1724 5.22892 11.7571 5.4446 11.4499 5.61274C11.2948 5.69764 11.1532 5.77795 11.045 5.84646C10.9919 5.8801 10.9362 5.9175 10.8878 5.95615C10.8637 5.97531 10.8328 6.00162 10.8024 6.03396C10.7791 6.05872 10.7202 6.12357 10.6828 6.22194L11.6172 6.57793ZM14.7804 4.29135C14.694 3.99194 14.4318 3.86132 14.3015 3.80832C14.1435 3.74407 13.9589 3.70632 13.782 3.68162C13.4225 3.63141 12.976 3.61991 12.5545 3.62244C12.1285 3.625 11.7044 3.64226 11.3864 3.65469C11.2249 3.66101 11.095 3.6659 11.0017 3.66751C10.9543 3.66832 10.9242 3.66812 10.9076 3.6675C10.8988 3.66716 10.9014 3.66697 10.9109 3.66811C10.9157 3.6687 10.9279 3.67028 10.9445 3.67389C10.9573 3.67667 10.9944 3.68512 11.0395 3.70595L10.6205 4.61391C10.7024 4.65175 10.7793 4.65949 10.7911 4.66091C10.8202 4.66443 10.8482 4.66597 10.8699 4.66679C10.9143 4.66846 10.9662 4.66827 11.0189 4.66736C11.1255 4.66553 11.2673 4.66011 11.4255 4.65393C11.7468 4.64136 12.154 4.62487 12.5605 4.62243C12.9715 4.61996 13.3587 4.63221 13.6436 4.672C13.7889 4.6923 13.8792 4.71611 13.9248 4.73467C13.9982 4.76449 13.8685 4.73792 13.8196 4.56851L14.7804 4.29135ZM11.0395 3.70595C11.1346 3.74981 11.1902 3.81223 11.2141 3.84208C11.2408 3.87541 11.2565 3.90447 11.2638 3.91895C11.2719 3.93503 11.2768 3.9474 11.2791 3.95338C11.2815 3.95987 11.2827 3.96386 11.2829 3.96444C11.2831 3.96517 11.2816 3.9602 11.2787 3.94737C11.2759 3.93513 11.2726 3.91885 11.2687 3.89803C11.2526 3.81169 11.2339 3.68201 11.2128 3.51487C11.1706 3.18147 11.1244 2.74532 11.073 2.29459C11.0225 1.85085 10.9671 1.39464 10.9083 1.0439C10.8792 0.870955 10.8466 0.706732 10.8091 0.577408C10.791 0.515354 10.7654 0.438377 10.728 0.366635C10.7093 0.330973 10.6783 0.277927 10.6301 0.225609C10.5843 0.176006 10.4901 0.0912978 10.342 0.0604442L10.138 1.03942C10.0049 1.0117 9.92564 0.936852 9.89482 0.903429C9.86151 0.867292 9.84532 0.836745 9.84153 0.829479C9.83372 0.814529 9.83759 0.817933 9.84879 0.856484C9.86968 0.928371 9.89467 1.04626 9.92205 1.20941C9.976 1.53086 10.0288 1.96276 10.0795 2.40778C10.1294 2.8458 10.1775 3.29903 10.2207 3.64031C10.2422 3.81052 10.2639 3.9645 10.2856 4.08125C10.2961 4.13764 10.3093 4.19991 10.3263 4.25567C10.3343 4.28202 10.3484 4.32458 10.3713 4.36994C10.3828 4.39279 10.4027 4.42867 10.4336 4.46718C10.4616 4.50221 10.5214 4.56818 10.6205 4.61391L11.0395 3.70595ZM57.2113 1.9703C57.0144 1.92956 56.8587 2.00718 56.7983 2.04105C56.7235 2.083 56.6606 2.1356 56.6138 2.17879C56.518 2.26711 56.4186 2.38285 56.3248 2.50064C56.1342 2.74001 55.911 3.05894 55.6989 3.36533C55.4816 3.67928 55.2749 3.98133 55.1034 4.21117C55.0172 4.32666 54.9488 4.41174 54.8989 4.46603C54.8736 4.49365 54.862 4.5034 54.8625 4.50302C54.8631 4.50255 54.8731 4.49436 54.8915 4.48379C54.9077 4.47447 54.9485 4.45277 55.0087 4.4403L55.2113 5.41956C55.3519 5.39047 55.4521 5.31226 55.4917 5.28027C55.5449 5.23715 55.5939 5.18774 55.6357 5.1422C55.7201 5.05016 55.8125 4.9329 55.9048 4.80932C56.0901 4.56103 56.3109 4.23809 56.5211 3.93454C56.7365 3.62343 56.9408 3.33236 57.1071 3.1236C57.1917 3.01733 57.2531 2.94948 57.2916 2.91397C57.3119 2.89524 57.3095 2.90087 57.2875 2.91321C57.28 2.91746 57.1694 2.98281 57.0087 2.94956L57.2113 1.9703ZM55.0087 4.4403C55.0609 4.42949 55.09 4.43487 55.055 4.43275C55.0337 4.43146 54.9993 4.42804 54.9491 4.42137C54.8493 4.4081 54.715 4.38576 54.5511 4.35668C54.2323 4.30013 53.8044 4.21835 53.3897 4.14924C52.9746 4.08006 52.5399 4.0177 52.1872 4.00023C52.0136 3.99163 51.8342 3.99237 51.6774 4.0177C51.5989 4.03037 51.5053 4.05233 51.4137 4.09495C51.3235 4.13695 51.1999 4.21576 51.1165 4.3607L51.9835 4.85917C51.9289 4.9541 51.856 4.99213 51.8357 5.00159C51.814 5.01166 51.8096 5.0093 51.8368 5.00491C51.8914 4.99609 51.9896 4.99167 52.1378 4.99901C52.4289 5.01342 52.8154 5.06731 53.2253 5.13563C53.6356 5.20402 54.0364 5.28099 54.3764 5.34131C54.5419 5.37067 54.6944 5.3963 54.8173 5.41264C54.8784 5.42077 54.9393 5.42757 54.9945 5.43092C55.0361 5.43344 55.1228 5.43787 55.2113 5.41956L55.0087 4.4403ZM51.1165 4.3607C50.9734 4.6096 51.045 4.87303 51.0812 4.98562C51.1283 5.13207 51.2058 5.28401 51.2876 5.42495C51.4536 5.71065 51.6916 6.04184 51.9247 6.3533C52.1724 6.68423 52.3929 6.96503 52.5879 7.22887C52.6811 7.35486 52.7549 7.45926 52.8066 7.54007C52.872 7.64226 52.8637 7.64941 52.8528 7.60236L53.8272 7.3775C53.7938 7.23296 53.7055 7.08949 53.649 7.00117C53.5788 6.89147 53.4889 6.76548 53.3921 6.63444C53.2071 6.38421 52.9426 6.04439 52.7253 5.75407C52.4934 5.44428 52.2864 5.15359 52.1524 4.92273C52.0842 4.80539 52.0479 4.72538 52.0332 4.67944C52.0075 4.59965 52.0691 4.71027 51.9835 4.85917L51.1165 4.3607ZM52.8528 7.60236C52.8336 7.51928 52.8495 7.4657 52.8464 7.48006C52.8455 7.48414 52.8402 7.50409 52.8244 7.54439C52.7928 7.62461 52.7389 7.73664 52.6625 7.88074C52.5079 8.1727 52.3048 8.51722 52.091 8.89979C51.886 9.26667 51.6751 9.66215 51.5414 10.0032C51.4752 10.172 51.417 10.3544 51.3956 10.5286C51.3764 10.685 51.3721 10.9533 51.5586 11.1733L52.3214 10.5266C52.4104 10.6316 52.3795 10.7208 52.3882 10.6503C52.3946 10.5978 52.4185 10.5055 52.4724 10.3682C52.5787 10.0971 52.759 9.75445 52.964 9.38758C53.1602 9.0364 53.3859 8.65154 53.5462 8.34882C53.6274 8.19558 53.7025 8.04394 53.755 7.91044C53.7812 7.84389 53.8067 7.76947 53.8233 7.69371C53.8376 7.62823 53.8576 7.50934 53.8272 7.3775L52.8528 7.60236ZM51.5586 11.1733C51.7615 11.4126 52.0635 11.4326 52.2133 11.4326C52.3985 11.4325 52.6051 11.3977 52.806 11.3511C53.2129 11.2566 53.7019 11.088 54.1656 10.9126C54.6331 10.7358 55.0958 10.544 55.4502 10.3984C55.6295 10.3247 55.7778 10.2642 55.8888 10.2216C55.9445 10.2001 55.9852 10.1854 56.0125 10.1765C56.0576 10.1617 56.031 10.1744 55.9783 10.1785L55.9016 9.18141C55.8165 9.18796 55.7333 9.21563 55.7005 9.22638C55.65 9.24296 55.5917 9.26445 55.5302 9.28807C55.4066 9.33554 55.2475 9.40052 55.0701 9.47339C54.7111 9.6209 54.2632 9.80657 53.8119 9.97727C53.3569 10.1494 52.919 10.2982 52.5799 10.3769C52.4079 10.4169 52.2867 10.4325 52.213 10.4326C52.104 10.4326 52.216 10.4023 52.3214 10.5266L51.5586 11.1733ZM55.9783 10.1785C55.893 10.185 55.8325 10.1654 55.8241 10.1628C55.8068 10.1575 55.7993 10.1534 55.8053 10.1562C55.8169 10.1617 55.844 10.1762 55.8906 10.205C55.9818 10.2613 56.1082 10.3479 56.2644 10.4599C56.5755 10.6829 56.9692 10.9814 57.3707 11.2833C57.7673 11.5815 58.1721 11.8836 58.4911 12.102C58.6486 12.2099 58.799 12.3069 58.9233 12.3736C58.9827 12.4054 59.0577 12.4422 59.136 12.4663C59.1743 12.4781 59.2365 12.4943 59.3112 12.4963C59.3804 12.4981 59.5247 12.4891 59.6598 12.3824L59.0402 11.5975C59.1635 11.5002 59.2904 11.4954 59.3373 11.4966C59.3896 11.498 59.4244 11.5088 59.4305 11.5107C59.4444 11.5149 59.4361 11.5138 59.3959 11.4923C59.3209 11.4521 59.2068 11.3801 59.0561 11.2769C58.7585 11.0731 58.3714 10.7846 57.9717 10.4841C57.577 10.1872 57.1702 9.87883 56.8472 9.6472C56.6863 9.53185 56.5374 9.42911 56.4162 9.35423C56.3565 9.31739 56.2933 9.28081 56.2328 9.25222C56.2028 9.23802 56.1639 9.2212 56.1201 9.20764C56.0853 9.19684 56.0032 9.17359 55.9016 9.18141L55.9783 10.1785ZM59.6598 12.3824C59.7878 12.2814 59.8321 12.1522 59.8483 12.0863C59.8657 12.0157 59.867 11.9529 59.866 11.9129C59.8639 11.8317 59.8489 11.7507 59.8345 11.686C59.8042 11.5509 59.7522 11.3847 59.6918 11.21C59.5693 10.8558 59.3901 10.4031 59.2094 9.95893C59.1185 9.73569 59.0262 9.51222 58.9394 9.30196C58.8523 9.09114 58.7709 8.89426 58.7008 8.72194C58.6304 8.54871 58.5735 8.4053 58.5346 8.30048C58.515 8.24751 58.5021 8.21028 58.4949 8.18681C58.4911 8.17485 58.4906 8.17204 58.4915 8.17573C58.492 8.17774 58.4936 8.18497 58.4953 8.19594C58.4967 8.20509 58.5 8.22844 58.5 8.25993H57.5C57.5 8.32619 57.5127 8.38182 57.5173 8.40164C57.524 8.43041 57.5321 8.45846 57.5396 8.48276C57.5548 8.5318 57.5749 8.58864 57.597 8.64822C57.6416 8.76847 57.7035 8.92397 57.7745 9.09856C57.8458 9.27405 57.9284 9.47388 58.0151 9.68376C58.1021 9.89421 58.1934 10.1154 58.2831 10.3359C58.4636 10.7793 58.6338 11.2103 58.7467 11.5367C58.8039 11.7024 58.841 11.8257 58.8586 11.9044C58.8681 11.9466 58.8667 11.9537 58.8663 11.9384C58.8661 11.9314 58.8653 11.896 58.8774 11.8469C58.8883 11.8026 58.9241 11.6891 59.0402 11.5975L59.6598 12.3824ZM58.5 8.25993C58.5 8.40424 58.4359 8.49922 58.4194 8.52288C58.3963 8.55605 58.3761 8.57425 58.374 8.57616C58.3687 8.581 58.3778 8.57232 58.4142 8.54826C58.4832 8.50268 58.593 8.43916 58.7414 8.35874C59.0371 8.19845 59.4264 8.00269 59.8322 7.79278C60.2288 7.58767 60.6395 7.36973 60.9471 7.17846C61.098 7.08464 61.2457 6.98414 61.3575 6.88418C61.4116 6.83575 61.4801 6.76766 61.5341 6.6822C61.5813 6.60739 61.6762 6.42517 61.6097 6.19885L60.6503 6.48102C60.5963 6.2972 60.6777 6.16552 60.6886 6.14824C60.7062 6.12031 60.7155 6.11671 60.691 6.1387C60.6453 6.17956 60.557 6.24351 60.4191 6.32922C60.1492 6.49702 59.7713 6.69845 59.3728 6.90459C58.9836 7.10593 58.5716 7.31329 58.2649 7.47957C58.112 7.56243 57.9702 7.64305 57.863 7.71391C57.8113 7.74808 57.751 7.7907 57.6985 7.83884C57.6728 7.86241 57.6345 7.90026 57.5991 7.95095C57.5704 7.99213 57.5 8.1025 57.5 8.25993H58.5ZM61.6104 6.20135C61.5241 5.90198 61.2619 5.77134 61.1316 5.71834C60.9737 5.65408 60.7892 5.61628 60.6124 5.5915C60.2532 5.54113 59.8071 5.52929 59.3865 5.53119C58.9616 5.53311 58.5383 5.5494 58.2227 5.56039C58.0622 5.56599 57.9341 5.57005 57.8431 5.57075C57.7968 5.57111 57.769 5.57048 57.7553 5.5697C57.7478 5.56928 57.7535 5.56928 57.7667 5.57132C57.7734 5.57236 57.7888 5.57496 57.8093 5.58052C57.8252 5.58487 57.8699 5.59769 57.9219 5.62804L57.4181 6.49182C57.5111 6.54607 57.6022 6.55778 57.6134 6.55952C57.6458 6.56453 57.6762 6.56682 57.6987 6.5681C57.7449 6.57072 57.7982 6.57113 57.8508 6.57072C57.9578 6.5699 58.0999 6.56528 58.2576 6.55979C58.5786 6.5486 58.9847 6.53301 59.391 6.53118C59.8017 6.52933 60.1886 6.54186 60.4735 6.58181C60.6188 6.60218 60.7091 6.62602 60.7547 6.64461C60.8281 6.67447 60.6984 6.64789 60.6496 6.47851L61.6104 6.20135ZM57.9219 5.62804C58.0075 5.67794 58.0549 5.7404 58.0735 5.76687C58.0953 5.79795 58.108 5.82421 58.1137 5.83683C58.1202 5.85098 58.1239 5.86159 58.1256 5.86635C58.1265 5.86908 58.1272 5.87111 58.1275 5.87231C58.1277 5.87293 58.1278 5.8734 58.1279 5.8737C58.128 5.874 58.1281 5.87416 58.1281 5.87417C58.1281 5.87418 58.1279 5.87371 58.1277 5.87272C58.1274 5.87173 58.1271 5.87034 58.1267 5.8685C58.1258 5.86478 58.1246 5.85975 58.1233 5.85327C58.1205 5.84015 58.1173 5.82313 58.1136 5.80179C58.0983 5.71366 58.0806 5.58282 58.0607 5.41575C58.0209 5.08201 57.9771 4.64732 57.9283 4.19837C57.8802 3.75635 57.8275 3.30271 57.7713 2.9541C57.7436 2.78218 57.7125 2.61941 57.6767 2.49144C57.6595 2.43009 57.6352 2.35413 57.5996 2.28327C57.582 2.24819 57.5522 2.19524 57.5055 2.14259C57.4619 2.09352 57.3678 2.0043 57.2162 1.97135L57.0038 2.94852C56.8666 2.91869 56.7868 2.83929 56.7575 2.80634C56.7251 2.76979 56.7096 2.73922 56.7061 2.7324C56.6989 2.71804 56.7028 2.72204 56.7137 2.76077C56.7338 2.83296 56.7578 2.95081 56.784 3.11326C56.8356 3.4334 56.886 3.86352 56.9342 4.30649C56.9816 4.74255 57.0272 5.1941 57.0677 5.53412C57.088 5.70393 57.1082 5.85683 57.1283 5.97261C57.138 6.02875 57.1499 6.08921 57.1648 6.14286C57.172 6.16834 57.184 6.20801 57.2032 6.25035C57.2129 6.27161 57.2294 6.30495 57.2551 6.34149C57.2775 6.37343 57.3288 6.43974 57.4181 6.49182L57.9219 5.62804ZM10.7948 20.0284C9.16179 19.2514 7.36161 18.8914 5.55536 18.9805L5.60464 19.9793C7.24579 19.8983 8.88142 20.2255 10.3652 20.9314L10.7948 20.0284ZM11.0462 41.3C10.305 42.9025 9.75461 44.1896 9.41099 45.5732C9.06573 46.9633 8.93419 48.4291 9.00028 50.3967L9.99972 50.3632C9.93581 48.4608 10.0643 47.0916 10.3815 45.8142C10.7004 44.5302 11.215 43.3173 11.9538 41.7198L11.0462 41.3ZM3.02405 38.0029C3.77737 38.5562 4.97598 38.8658 6.3697 38.9856C7.78344 39.1071 9.47299 39.039 11.2727 38.7746L11.1273 37.7852C9.38701 38.0409 7.77656 38.1028 6.4553 37.9893C5.11402 37.874 4.14263 37.5837 3.61595 37.1969L3.02405 38.0029ZM13.8566 17.063C11.1199 14.8238 7.01106 13.4929 3.61813 12.9561L3.46187 13.9438C6.76894 14.467 10.6801 15.756 13.2234 17.8369L13.8566 17.063ZM44.988 15.5151C45.1061 14.2132 44.9542 12.901 44.5419 11.6604L43.593 11.9758C43.9619 13.0858 44.0977 14.2599 43.992 15.4248L44.988 15.5151ZM44.5419 11.6604C44.1297 10.4199 43.4658 9.27785 42.5918 8.30567L41.8482 8.9742C42.6301 9.84404 43.2241 10.8659 43.593 11.9758L44.5419 11.6604ZM19.0746 25.9615C20.3341 25.6094 21.5073 25.0012 22.5208 24.1747L21.8888 23.3997C20.982 24.1392 19.9323 24.6834 18.8054 24.9984L19.0746 25.9615ZM22.5208 24.1747C23.5343 23.3483 24.3663 22.3215 24.9646 21.1587L24.0754 20.7012C23.5401 21.7416 22.7957 22.6603 21.8888 23.3997L22.5208 24.1747ZM44.8482 32.7572C46.5102 31.3114 48.5526 30.3733 50.7323 30.0547L50.5877 29.0652C48.2184 29.4116 45.9984 30.4312 44.1918 32.0027L44.8482 32.7572ZM34.9659 43.3102C34.1057 42.3296 33.8407 40.9788 34.0187 38.5464L33.0213 38.4734C32.8393 40.9611 33.0743 42.6703 34.2141 43.9697L34.9659 43.3102ZM37.8772 45.2443C37.1697 44.1735 36.8045 42.913 36.8299 41.6298L35.8301 41.61C35.8007 43.0959 36.2236 44.5556 37.0428 45.7955L37.8772 45.2443ZM59.72 15.9897C56.056 14.6654 52.044 14.6654 48.38 15.9897L48.72 16.9302C52.1643 15.6852 55.9357 15.6852 59.38 16.9302L59.72 15.9897ZM54.0597 52.8684C54.2179 48.594 53.5275 44.3307 52.0283 40.3247L51.0917 40.6752C52.5446 44.5574 53.2137 48.6891 53.0603 52.8314L54.0597 52.8684ZM19.5011 57.9216C21.703 57.5134 23.0076 56.3116 24.8364 54.8171L24.2036 54.0428C22.3124 55.5883 21.217 56.5865 19.3189 56.9383L19.5011 57.9216ZM40.1163 57.7931C41.9262 59.5058 43.9946 60.9227 46.2455 61.9916L46.6745 61.0883C44.5185 60.0645 42.5372 58.7073 40.8037 57.0668L40.1163 57.7931ZM53.3283 37.0832C55.8318 37.4979 58.3981 36.915 60.4768 35.4595L59.9032 34.6404C58.0388 35.9457 55.7371 36.4686 53.4917 36.0967L53.3283 37.0832ZM19.0372 14.207C18.9227 13.1314 18.8229 11.781 19.0353 10.5446C19.2471 9.31151 19.7535 8.27312 20.7842 7.69625L20.2958 6.82362C18.8965 7.60675 18.2879 8.98836 18.0497 10.3753C17.8121 11.7588 17.9273 13.2285 18.0428 14.3129L19.0372 14.207ZM8.03054 55.5067C8.01199 55.9048 7.84549 56.2817 7.56365 56.5636L8.27075 57.2707C8.72876 56.8127 8.99932 56.2002 9.02946 55.5532L8.03054 55.5067ZM7.56365 56.5636C7.2818 56.8454 6.90489 57.0119 6.50673 57.0305L6.55327 58.0294C7.20028 57.9992 7.81275 57.7287 8.27075 57.2707L7.56365 56.5636ZM6.48444 57.032C6.28869 57.0499 6.09139 57.0245 5.90654 56.9577L5.56639 57.8981C5.88919 58.0148 6.23372 58.0591 6.57556 58.0279L6.48444 57.032ZM5.90654 56.9577C5.7217 56.8908 5.55382 56.7841 5.41482 56.6451L4.70772 57.3522C4.95044 57.5949 5.24359 57.7813 5.56639 57.8981L5.90654 56.9577ZM5.41482 56.6451C5.27583 56.5061 5.16911 56.3382 5.10225 56.1534L4.16188 56.4935C4.27864 56.8163 4.46499 57.1095 4.70772 57.3522L5.41482 56.6451ZM5.10225 56.1534C5.03539 55.9685 5.01001 55.7712 5.02792 55.5755L4.03208 55.4844C4.0008 55.8262 4.04512 56.1707 4.16188 56.4935L5.10225 56.1534ZM5.03 55.5299C5.03 55.1052 5.20941 54.669 5.49006 54.3691C5.76662 54.0736 6.0978 53.9491 6.42585 54.019L6.63415 53.0409C5.8822 52.8808 5.21338 53.2013 4.75994 53.6858C4.31059 54.1659 4.03 54.8447 4.03 55.5299H5.03ZM6.43194 54.0202C7.0592 54.1457 7.45115 54.3396 7.68471 54.5705C7.90313 54.7864 8.03 55.0812 8.03 55.5299H9.03C9.03 54.8687 8.83187 54.2984 8.38778 53.8594C7.95885 53.4353 7.3508 53.1842 6.62806 53.0396L6.43194 54.0202ZM5.02004 44.006C5.02324 44.272 4.97334 44.5359 4.87326 44.7824L5.7998 45.1586C5.94992 44.7889 6.02477 44.3929 6.01996 43.9939L5.02004 44.006ZM4.87326 44.7824C4.77318 45.0289 4.62493 45.2529 4.43719 45.4414L5.1457 46.1471C5.4273 45.8644 5.64967 45.5284 5.7998 45.1586L4.87326 44.7824ZM4.43719 45.4414C4.24945 45.6299 4.026 45.779 3.77992 45.8801L4.15978 46.8051C4.52891 46.6536 4.86409 46.4299 5.1457 46.1471L4.43719 45.4414ZM3.77992 45.8801C3.53383 45.9812 3.27006 46.0321 3.00404 46.0299L2.99596 47.0299C3.39499 47.0331 3.79065 46.9567 4.15978 46.8051L3.77992 45.8801ZM3 46.0299C2.93355 46.0299 2.76884 45.9955 2.52811 45.8815C2.30024 45.7736 2.04583 45.6139 1.80951 45.4149C1.3189 45.0019 1 44.5038 1 44.0299H0C0 44.9361 0.581102 45.688 1.16549 46.1799C1.46667 46.4335 1.79351 46.64 2.10002 46.7852C2.39366 46.9243 2.71645 47.0299 3 47.0299V46.0299ZM0.99977 44.0451C1.01586 43.5144 1.23332 43.0097 1.60801 42.6335L0.899494 41.9278C0.345533 42.484 0.0240147 43.2302 0.000229567 44.0148L0.99977 44.0451ZM1.60801 42.6335C1.9827 42.2573 2.48651 42.0378 3.01714 42.0196L2.98286 41.0202C2.19833 41.0471 1.45345 41.3716 0.899494 41.9278L1.60801 42.6335ZM3.06587 42.0156C3.32846 41.9807 3.59556 42.0062 3.84679 42.0902L4.16386 41.1418C3.76824 41.0095 3.34764 40.9693 2.93413 41.0243L3.06587 42.0156ZM3.84679 42.0902C4.09802 42.1742 4.32676 42.3144 4.51557 42.5002L5.217 41.7875C4.91968 41.4949 4.55948 41.2741 4.16386 41.1418L3.84679 42.0902ZM4.51557 42.5002C4.70437 42.6861 4.84826 42.9125 4.93627 43.1624L5.87947 42.8302C5.7409 42.4367 5.51431 42.0801 5.217 41.7875L4.51557 42.5002ZM4.93627 43.1624C5.02427 43.4122 5.05406 43.6789 5.02337 43.942L6.01663 44.0579C6.06496 43.6435 6.01805 43.2236 5.87947 42.8302L4.93627 43.1624ZM45.6729 1.65635C45.7979 1.80932 45.8914 1.98547 45.9482 2.17471L46.9061 1.88745C46.8115 1.57206 46.6555 1.27847 46.4471 1.02352L45.6729 1.65635ZM45.9482 2.17471C46.0049 2.36394 46.0238 2.56252 46.0036 2.75904L46.9983 2.86134C47.032 2.5338 47.0006 2.20283 46.9061 1.88745L45.9482 2.17471ZM46.0036 2.75904C45.9833 2.95556 45.9245 3.14616 45.8304 3.31988L46.7098 3.79607C46.8666 3.50653 46.9646 3.18888 46.9983 2.86134L46.0036 2.75904ZM45.8304 3.31988C45.7364 3.4936 45.6089 3.64703 45.4554 3.77135L46.0846 4.54852C46.3405 4.34132 46.553 4.0856 46.7098 3.79607L45.8304 3.31988ZM45.5265 3.72323C45.1809 3.91591 44.7856 4.00064 44.3914 3.96649L44.305 4.96276C44.8983 5.01416 45.4934 4.88664 46.0135 4.59664L45.5265 3.72323ZM44.3914 3.96649C43.9972 3.93233 43.6223 3.78086 43.315 3.53162L42.685 4.30825C43.1475 4.68338 43.7118 4.91135 44.305 4.96276L44.3914 3.96649ZM43.3986 3.61809C43.1585 3.30104 43.0477 2.9047 43.0885 2.50911L42.0938 2.40645C42.027 3.05401 42.2084 3.7028 42.6014 4.22178L43.3986 3.61809ZM43.0885 2.50911C43.1294 2.11352 43.3188 1.74816 43.6186 1.48683L42.9614 0.73304C42.4707 1.16082 42.1606 1.75889 42.0938 2.40645L43.0885 2.50911ZM43.6532 1.45358C43.7851 1.31416 43.9467 1.2062 44.1259 1.13767L43.7689 0.203585C43.4496 0.325649 43.1618 0.517963 42.9268 0.766292L43.6532 1.45358ZM44.1259 1.13767C44.3052 1.06915 44.4976 1.04181 44.6889 1.05769L44.7716 0.061122C44.4309 0.032833 44.0882 0.081522 43.7689 0.203585L44.1259 1.13767ZM44.6889 1.05769C44.8802 1.07357 45.0654 1.13227 45.2309 1.22942L45.7371 0.367013C45.4423 0.193953 45.1123 0.0894108 44.7716 0.061122L44.6889 1.05769ZM45.2309 1.22942C45.3964 1.32658 45.538 1.45971 45.6451 1.61897L46.4749 1.0609C46.2841 0.777217 46.032 0.540072 45.7371 0.367013L45.2309 1.22942ZM60.6116 40.6648C60.8618 40.9734 60.9794 41.3685 60.9386 41.7636L61.9333 41.8662C62.0013 41.2077 61.8053 40.5492 61.3884 40.035L60.6116 40.6648ZM60.9386 41.7636C60.8978 42.1586 60.702 42.5214 60.3941 42.7723L61.0259 43.5475C61.539 43.1293 61.8654 42.5247 61.9333 41.8662L60.9386 41.7636ZM60.4579 42.7281C60.1094 42.9316 59.7067 43.0232 59.3045 42.9904L59.2232 43.9871C59.8296 44.0365 60.4366 43.8985 60.9621 43.5917L60.4579 42.7281ZM59.3045 42.9904C58.9022 42.9576 58.5197 42.802 58.2087 42.5447L57.5713 43.3152C58.0401 43.7031 58.6167 43.9376 59.2232 43.9871L59.3045 42.9904ZM58.2889 42.6284C58.0479 42.3097 57.9367 41.9115 57.9776 41.514L56.9828 41.4117C56.9161 42.0608 57.0977 42.711 57.4911 43.2314L58.2889 42.6284ZM57.9776 41.514C58.0184 41.1166 58.2084 40.7493 58.5092 40.4863L57.8508 39.7336C57.3597 40.1631 57.0496 40.7627 56.9828 41.4117L57.9776 41.514ZM58.5479 40.4485C58.6812 40.3037 58.8459 40.1913 59.0294 40.1199L58.6669 39.1879C58.3412 39.3146 58.0488 39.5142 57.8121 39.7713L58.5479 40.4485ZM59.0294 40.1199C59.2129 40.0485 59.4103 40.0201 59.6064 40.0368L59.6912 39.0404C59.343 39.0108 58.9926 39.0612 58.6669 39.1879L59.0294 40.1199ZM59.6064 40.0368C59.8026 40.0535 59.9923 40.1149 60.1611 40.2162L60.6759 39.3589C60.3763 39.179 60.0395 39.07 59.6912 39.0404L59.6064 40.0368ZM60.1611 40.2162C60.3299 40.3176 60.4733 40.4562 60.5802 40.6215L61.4198 40.0784C61.23 39.7849 60.9755 39.5388 60.6759 39.3589L60.1611 40.2162ZM59.97 52.9933C59.9666 53.2512 59.8626 53.4977 59.6802 53.6801L60.3873 54.3872C60.754 54.0205 60.963 53.5252 60.97 53.0066L59.97 52.9933ZM59.6802 53.6801C59.4977 53.8625 59.2513 53.9665 58.9933 53.97L59.0067 54.9699C59.5252 54.963 60.0206 54.7539 60.3873 54.3872L59.6802 53.6801ZM59 53.9699C59.0036 53.9699 58.937 53.9637 58.8043 53.9007C58.6844 53.8438 58.5475 53.758 58.4199 53.6503C58.1467 53.4197 58.01 53.174 58.01 52.9799H57.01C57.01 53.6058 57.4083 54.1051 57.7751 54.4146C57.9675 54.5769 58.1768 54.7098 58.3757 54.8042C58.5618 54.8925 58.7864 54.9699 59 54.9699V53.9699ZM58.0098 52.9928C58.0166 52.729 58.1245 52.4778 58.3112 52.2911L57.6041 51.584C57.2362 51.9519 57.0236 52.4469 57.0102 52.967L58.0098 52.9928ZM58.3112 52.2911C58.4978 52.1045 58.749 51.9966 59.0129 51.9898L58.9871 50.9901C58.467 51.0035 57.9719 51.2161 57.6041 51.584L58.3112 52.2911ZM59.0577 51.9866C59.1839 51.9719 59.3118 51.9864 59.4315 52.029L59.7665 51.0868C59.5025 50.9929 59.2206 50.9609 58.9423 50.9933L59.0577 51.9866ZM59.4315 52.029C59.5512 52.0716 59.6596 52.141 59.7482 52.2321L60.4647 51.5345C60.2693 51.3338 60.0304 51.1806 59.7665 51.0868L59.4315 52.029ZM59.7482 52.2321C59.8368 52.3231 59.9034 52.4333 59.9427 52.5541L60.8936 52.2445C60.8069 51.9782 60.6602 51.7353 60.4647 51.5345L59.7482 52.2321ZM59.9427 52.5541C59.982 52.6749 59.9931 52.8032 59.9751 52.9289L60.9649 53.0709C61.0047 52.7936 60.9803 52.5109 60.8936 52.2445L59.9427 52.5541Z" fill="#494A4A"/>
</g>
</g>
<defs>
<clipPath id="clip0_426_1899">
<rect width="64" height="64" fill="white"/>
</clipPath>
</defs>
</svg>
