<svg width="64" height="64" viewBox="0 0 64 64" fill="none" xmlns="http://www.w3.org/2000/svg">
<g id="Pictogram-food-&#38;-drinks" clip-path="url(#clip0_426_1827)">
<g id="stroke-default">
<path id="1px" d="M39.0001 20.67C39.3101 18.87 43.0001 19.47 43.0001 21.29C43.0001 22.56 43.0001 27.65 43.0001 33M47.0001 21.72C47.0001 19.83 52.3101 19.36 52.3101 21.42C52.3101 25.29 51.9001 36.37 51.6001 42M57.4201 19.38C57.7201 19.15 58.8401 18.67 58.9801 19.63C58.9686 24.0974 58.7116 28.5608 58.2101 33M39.8501 13.74C39.5301 12.29 39.1001 8.73999 38.6301 6.73999L39.2801 4.93999L37.6501 4.44999L37.5701 2.59999L35.5701 2.92999C35.5701 2.92999 22.7701 0.999986 20.0001 0.529986C18.3801 0.229986 17.8901 3.58999 19.5801 3.81999C22.7901 4.25999 34.5101 5.99999 34.5101 5.99999L34.4101 7.35999L35.7101 7.54999C36.0301 8.89999 36.6201 12.55 36.8001 13.45M6.66011 39.13C8.03011 39.13 11.2001 40.22 12.3401 41.7M17.4701 36.22C21.4701 36.58 24.1501 40.48 25.0301 43.66M30.0001 37.6C31.221 37.8663 32.3223 38.5225 33.1376 39.4695C33.9529 40.4165 34.4382 41.603 34.5201 42.85M41.0001 40C41.5629 40.4504 42.0298 41.009 42.3733 41.6427C42.7168 42.2765 42.9299 42.9726 43.0001 43.69M4.87011 52.86C3.45011 54.86 4.51011 59.95 6.23011 60.58C10.3301 62.08 16.1201 55.67 21.0001 55.67M42.8201 54.73C46.5901 53.73 51.1801 56.6 52.8201 55.63C54.1301 54.83 55.2601 51.16 51.6801 48.63M17.6301 56.46C19.6901 57.94 23.2801 60.88 25.4401 60.88C28.0601 60.88 31.2301 58.36 33.6101 55.98M31.7401 57.71C38.9201 59.95 43.7401 58.58 45.6001 55.44M13.8601 18.9C17.0801 18.49 14.8601 25.38 15.3501 28.8M20.3001 15.41C18.3001 20.66 22.3901 21.88 20.6501 31.66M24.7301 20.16C25.0001 22.6 26.2201 26.28 25.3001 26.98M21.0001 42.3C21.0001 42.4657 20.8434 42.6 20.6501 42.6C20.4568 42.6 20.3001 42.4657 20.3001 42.3C20.3001 42.1343 20.4568 42 20.6501 42C20.8434 42 21.0001 42.1343 21.0001 42.3ZM17.0001 39.49C17.0001 39.7606 16.736 39.98 16.4101 39.98C16.0843 39.98 15.8201 39.7606 15.8201 39.49C15.8201 39.2194 16.0843 39 16.4101 39C16.736 39 17.0001 39.2194 17.0001 39.49ZM9.00011 43.49C9.00011 43.7606 8.73596 43.98 8.41011 43.98C8.08426 43.98 7.82011 43.7606 7.82011 43.49C7.82011 43.2194 8.08426 43 8.41011 43C8.73596 43 9.00011 43.2194 9.00011 43.49ZM28.1801 40.51C28.1801 40.7806 27.916 41 27.5901 41C27.2643 41 27.0001 40.7806 27.0001 40.51C27.0001 40.2394 27.2643 40.02 27.5901 40.02C27.916 40.02 28.1801 40.2394 28.1801 40.51ZM39.2101 42.51C39.2101 42.7806 38.946 43 38.6201 43C38.2943 43 38.0301 42.7806 38.0301 42.51C38.0301 42.2394 38.2943 42.02 38.6201 42.02C38.946 42.02 39.2101 42.2394 39.2101 42.51ZM47.1801 46.51C47.1801 46.7806 46.916 47 46.5901 47C46.2643 47 46.0001 46.7806 46.0001 46.51C46.0001 46.2394 46.2643 46.02 46.5901 46.02C46.916 46.02 47.1801 46.2394 47.1801 46.51Z" stroke="#494A4A" stroke-linecap="round" stroke-linejoin="round"/>
<path id="2px" d="M56.1096 55.9999C57.4696 55.8199 60.9896 55.6599 61.4796 49.9999C62.3996 39.3599 63.2596 22.4599 62.9996 12.3999C62.9996 11.5199 56.0696 10.6599 39.9996 11.1699M35.9096 11.9999C35.5396 12.0799 35.0096 12.0899 35.0096 12.9999C34.8696 17.6299 35.7896 26.2099 36.3396 34.6699M34.9996 12.9999C35.7896 14.6799 62.7196 14.2499 62.9996 12.3899M1.53957 50.3699C-0.460429 45.0899 6.10957 37.9199 11.3196 36.7799C17.8496 35.3499 38.2196 36.2999 48.9196 43.8899C52.0696 46.1299 51.9996 48.4999 50.9996 50.2399M51.6396 56.4999C44.4496 63.3699 22.3196 65.2999 9.99957 60.8499M3.90957 57.6599C3.57273 57.4301 3.26688 57.1579 2.99957 56.8499C2.18888 56.0104 1.61192 54.9734 1.32598 53.8419C1.04004 52.7104 1.05506 51.5238 1.36957 50.3999C3.29957 53.4199 13.1196 56.5299 33.9996 55.9999C47.0596 55.6499 51.2796 50.0799 51.8996 49.5299" stroke="#494A4A" stroke-width="2" stroke-linecap="round" stroke-linejoin="round"/>
</g>
</g>
<defs>
<clipPath id="clip0_426_1827">
<rect width="64" height="64" fill="white"/>
</clipPath>
</defs>
</svg>
