<svg width="64" height="64" viewBox="0 0 64 64" fill="none" xmlns="http://www.w3.org/2000/svg">
<g id="Pictogram-baby-1" clip-path="url(#clip0_624_21170)">
<g id="stroke-default">
<path id="2px" d="M20.4296 30.32C27.8696 40.05 45.1296 36.4 46.5596 26.58C47.4396 20.5 43.9696 21.06 43.6596 17.97C43.3496 14.88 44.3196 12.57 43.1196 9.55997C42.6995 8.60659 42.0779 7.75545 41.2977 7.06499C40.5175 6.37452 39.597 5.8611 38.5996 5.55997M35.2096 2.21997C32.6296 6.15997 26.2096 2.64997 20.6396 6.96997C13.3796 12.63 13.9996 19.62 16.8696 25.26M37.9996 41.61C38.2747 46.4273 37.3504 51.2376 35.3096 55.61C34.5796 56.85 31.6596 57.21 31.8896 58.24C32.1896 59.6 35.3596 58.24 35.3096 59.3C35.0196 65.15 42.9296 62.97 43.5296 59.52C43.9096 57.31 41.6296 56.24 40.9496 56C46.6896 47.8 46.6896 37.36 39.1896 34.81M27.3296 40.69C25.7596 46.27 25.6796 55.14 28.0296 56.11C33.1696 58.23 30.5096 60.41 28.3696 58.94C28.7896 65.71 18.7296 63.11 20.1196 58.75C20.5804 57.5159 21.4865 56.4991 22.6596 55.9C16.7296 46.52 20.1896 37.65 26.5596 35.21M43.7196 59C50.6496 59.13 54.5796 56.31 55.7696 54.69C58.2096 51.37 57.1296 42.48 52.0896 42.89C48.4396 43.18 46.7596 46.25 44.3896 49.4M20.0696 59C13.1296 59.14 9.42964 56.51 8.23964 54.89C5.79964 51.57 6.87964 42.68 11.9296 43.09C15.5696 43.38 17.5796 46.29 19.9296 49.43M39.3569 19.6762C39.3569 19.6762 39.0596 19.2797 39.0596 18.7841C39.0596 18.2885 39.2578 17.892 39.4561 17.892C39.6543 17.892 39.8526 18.2885 39.8526 18.7841C39.8526 19.2797 39.6543 19.6762 39.4561 19.6762M28.5525 21.6586C28.5525 21.6586 28.0569 21.2621 28.0569 20.7665C28.0569 20.2709 28.2551 19.8744 28.5525 19.8744C28.8499 19.8744 29.0481 20.2709 29.0481 20.7665C29.0481 21.2621 28.8499 21.6586 28.5525 21.6586Z" stroke="#494A4A" stroke-width="2" stroke-linecap="round" stroke-linejoin="round"/>
<path id="1px" d="M50.4296 20.7401L53.6996 19.0201M50.4796 16.1401L49.0196 18.2201M53.3996 23.5301L51.0096 23.6401M26.9996 7.71006C32.8596 10.2201 39.9996 7.24006 38.5396 1.06006M30.6896 14.2301C29.2596 14.2301 27.0196 15.6201 26.5596 15.8501M40.1096 13.6901C41.0032 13.6982 41.8646 14.0244 42.5396 14.6101M18.9196 22.7601C19.5796 21.8701 21.2296 17.2401 20.5796 15.0401M18.3396 19.1701C18.8365 18.5077 19.1317 17.716 19.1896 16.8901M29.8396 45.4901C30.4745 44.906 31.2851 44.5489 32.1446 44.4747C33.0041 44.4005 33.864 44.6134 34.5896 45.0801M19.0696 25.2601C12.6796 25.2601 16.1796 33.6501 20.7296 29.0501M35.3896 21.5501C37.6396 19.8601 39.4796 22.1401 38.3896 23.5501M18.9196 7.86006C17.3187 7.77027 15.7257 8.14163 14.3296 8.93006M19.8196 6.91006C20.2711 5.2474 21.2034 3.75503 22.4996 2.62006M51.3396 46.4201C52.4369 47.104 53.2691 48.1407 53.6996 49.3601M13.5296 47.4901C12.8392 47.4284 12.1479 47.5984 11.5648 47.9732C10.9817 48.348 10.5401 48.9064 10.3096 49.5601M42.3796 26.2801C42.6496 28.3901 42.3096 29.5401 40.1096 30.4301C36.6796 31.8001 35.3896 30.4301 35.0496 27.3701C34.8396 25.4401 36.4696 24.6001 38.7196 23.8601C40.9696 23.1201 42.1096 24.1501 42.3796 26.2801ZM39.0896 26.2001C37.5096 26.7701 36.9396 34.8201 41.3296 33.4001C44.3196 32.4301 41.2796 25.4201 39.0896 26.2001Z" stroke="#494A4A" stroke-linecap="round" stroke-linejoin="round"/>
</g>
</g>
<defs>
<clipPath id="clip0_624_21170">
<rect width="64" height="64" fill="white"/>
</clipPath>
</defs>
</svg>
