<svg width="64" height="64" viewBox="0 0 64 64" fill="none" xmlns="http://www.w3.org/2000/svg">
<g id="Pictogram-mobile-phone">
<g id="stroke-default">
<path id="1px-stroke-default" d="M38.4002 23L26.0002 39.12M36.8202 30.29L30.1902 39.12M43.1702 58.55C38.2802 59.19 25.8402 59.19 21.6502 58.55C19.9597 58.3407 18.3925 57.5569 17.211 56.3299C16.0295 55.1029 15.3055 53.5072 15.1602 51.81C14.0902 41 14.2202 21.48 15.1602 14C15.8402 8.59999 18.4502 5.99999 22.6802 5.48999C29.1845 4.84977 35.7359 4.84977 42.2402 5.48999C46.3702 5.99999 49.0902 8.58999 49.6602 14C50.7311 26.5839 50.7311 39.2361 49.6602 51.82C49.2802 55.44 47.3702 58 43.1702 58.55ZM33.5002 8.99999C33.5002 9.82842 32.8286 10.5 32.0002 10.5C31.1717 10.5 30.5002 9.82842 30.5002 8.99999C30.5002 8.17156 31.1717 7.49999 32.0002 7.49999C32.8286 7.49999 33.5002 8.17156 33.5002 8.99999Z" stroke="#494A4A" stroke-width="2" stroke-linecap="round"/>
</g>
</g>
</svg>
