<svg width="64" height="64" viewBox="0 0 64 64" fill="none" xmlns="http://www.w3.org/2000/svg">
<g id="Pictogram-work-from-home">
<g id="stroke-default">
<path id="2px-stroke-default" d="M9.29997 44.1C7.79997 44.1 7.19997 43 6.99997 41.7C5.99997 34.1 5.59997 20.2 6.09997 14.2C6.39997 11 7.79997 10.1 10.7 9.79996C20.7 8.59996 43.4 8.79996 54.3 9.39996C57.9 9.59996 59.1 10.7 59.6 14.5C60 18 59.6 30.3 59.3 36.8M2.5 50.0755C1.8 51.1755 2.59997 52.2 4.09997 52.4C8.99997 53.2 21.7 53.6 33.7 53.6M33.9999 58C21.2999 58 7.69992 57.5 4.09992 56.7C2.89992 56.4 2.09992 55.4 1.99992 54C1.89992 52.9 1.99992 51.6 2.09992 50.9C2.39992 50 4.89992 46.1 6.29992 44.7C6.79992 44.3 8.19992 44.2 9.49992 44.1C12.6999 44.1 22.0999 44 32.2999 44M62.3999 46.8999C60.4999 44.1999 54.4999 37.2999 51.7999 35.5999C49.3999 33.9999 47.9999 33.9999 45.5999 35.7999C42.6999 37.9999 37.2999 43.8999 35.4999 46.7999C34.3999 48.5999 37.7999 48.6999 37.7999 49.2999C37.7999 52.5999 37.7999 55.8999 38.0999 57.4999C38.3999 59.0999 39.0999 59.9999 41.0999 60.1999C45.1999 60.5999 55.5999 60.3999 57.3999 60.1999C58.8999 59.8999 59.5999 58.7999 59.7999 57.4999C60.1999 54.3999 59.9999 51.1999 60.1999 49.1999C60.1999 48.1999 63.4999 48.1999 62.4999 46.8999H62.3999Z" stroke="#494A4A" stroke-width="2" stroke-linecap="round" stroke-linejoin="round"/>
<path id="1px-stroke-default" d="M9.3999 25.4999C9.3999 29.9999 9.3999 31.7999 9.4999 33.4999M10.3999 47.5999C11.4999 47.5999 14.8999 47.3999 17.0999 47.5999M21.0999 47.4999C23.7999 47.5999 24.5999 47.4999 26.1999 47.4999M29.3999 47.4999C30.5999 47.4999 30.9999 47.4999 31.6999 47.4999M8.3999 50.3999C9.9999 50.4999 12.4999 50.4999 14.4999 50.4999M20.4999 53.3999C20.9999 51.8999 21.6999 50.6999 22.3999 50.5999C23.5999 50.5999 27.6999 50.5999 32.2999 50.5999M42.7998 60.1999C43.6998 60.1999 44.4998 59.2999 44.4998 58.1999C44.4998 56.4999 44.4998 51.9999 44.7998 51.1999C44.9998 50.4999 45.2998 50.1999 45.9998 49.9999C47.4998 49.7999 49.9998 49.6999 51.3998 49.9999C52.3998 50.0999 52.8998 50.8999 52.9998 51.4999C53.2998 52.7999 53.0998 57.0999 53.2998 58.5999C53.2998 59.5999 53.9998 60.2999 54.7998 60.2999" stroke="#494A4A" stroke-linecap="round" stroke-linejoin="round"/>
</g>
</g>
</svg>
