<svg width="64" height="64" viewBox="0 0 64 64" fill="none" xmlns="http://www.w3.org/2000/svg">
<g id="Pictogram-mobile-tap">
<g id="stroke-default">
<path id="2px-stroke-default" d="M35.2001 62.0002C29.9001 62.1002 23.9001 62.0002 21.3001 61.5002C17.7001 60.9002 15.0001 58.1002 14.7001 54.0002C13.6001 42.0002 13.7001 20.3002 14.7001 12.0002C15.4001 6.0002 18.1001 3.1002 22.4001 2.6002C28.3001 1.9002 37.0001 1.9002 42.4001 2.6002C46.6001 3.2002 49.4001 6.0002 50.0001 12.0002C50.5001 16.8002 50.7001 22.6002 50.8001 28.6002M38.0999 38.6004C36.7999 36.4004 33.7999 33.9004 28.9999 34.0004C27.8999 34.0004 27.4999 37.3004 28.6999 37.9004C35.3999 41.2004 34.0999 48.8004 35.2999 52.2004C36.3999 55.2004 38.1999 57.0004 38.7999 60.4004C39.2999 63.3004 51.4999 63.5004 54.2999 62.2004C56.4999 61.2004 57.4999 57.0004 58.1999 54.8004C59.9999 49.3004 59.9999 44.9004 59.7999 41.7004C59.4999 37.5004 56.4999 35.1004 53.8999 36.1004M53.9999 38.0004C53.9999 37.1004 53.6999 34.7004 52.3999 34.2004C51.7999 33.9004 50.2999 34.0004 49.1999 34.6004M48.9999 36.9004C48.9999 35.4004 48.9999 34.2004 47.7999 33.4004C46.8999 32.8004 44.5999 33.0004 43.7999 33.4004M43.8999 36.1004C43.6999 35.0004 43.6999 28.2004 43.5999 26.2004C43.4999 24.2004 43.1999 19.5004 42.9999 18.1004C42.5999 16.1004 38.3999 16.8004 37.9999 20.2004C37.7999 22.1004 37.8999 22.7004 37.9999 27.6004C38.1999 33.2004 38.2999 39.1004 37.9999 43.0004" stroke="#494A4A" stroke-width="2" stroke-linecap="round" stroke-linejoin="round"/>
<path id="1px-stroke-default" d="M34.1001 59.5002C34.3762 59.5002 34.6001 59.2763 34.6001 59.0002C34.6001 58.724 34.3762 58.5002 34.1001 58.5002V59.5002ZM21.5001 58.5002L21.602 58.0107C21.5917 58.0085 21.5813 58.0067 21.5708 58.0052L21.5001 58.5002ZM15.0001 51.8002L14.5026 51.8508L14.5031 51.8554L15.0001 51.8002ZM15.0001 14.0002L14.5042 13.9359L14.5036 13.9406L15.0001 14.0002ZM22.5001 5.50017L22.4477 5.00287L22.441 5.00368L22.5001 5.50017ZM42.1001 5.50017L42.1606 5.00383L42.1563 5.00334L42.1001 5.50017ZM49.5001 14.0002L49.9977 13.9516L49.997 13.945L49.5001 14.0002ZM49.8002 28.21C49.8056 28.4861 50.0338 28.7055 50.3099 28.7001C50.586 28.6947 50.8054 28.4665 50.8 28.1904L49.8002 28.21ZM54.3671 18.5012C54.0915 18.5194 53.8829 18.7574 53.901 19.033C53.9191 19.3085 54.1572 19.5172 54.4327 19.4991L54.3671 18.5012ZM62.0327 18.9991C62.3083 18.981 62.517 18.7429 62.4988 18.4673C62.4807 18.1918 62.2426 17.9831 61.9671 18.0012L62.0327 18.9991ZM58.4301 14.644C58.6752 14.5169 58.7709 14.2152 58.6438 13.97C58.5167 13.7249 58.2149 13.6292 57.9698 13.7563L58.4301 14.644ZM55.2698 15.1563C55.0246 15.2834 54.9289 15.5852 55.056 15.8303C55.1831 16.0755 55.4849 16.1712 55.7301 16.044L55.2698 15.1563ZM59.1171 23.4655C59.3741 23.5665 59.6643 23.44 59.7653 23.183C59.8663 22.926 59.7398 22.6358 59.4827 22.5348L59.1171 23.4655ZM56.6827 21.4348C56.4257 21.3338 56.1355 21.4603 56.0345 21.7173C55.9336 21.9744 56.0601 22.2646 56.3171 22.3655L56.6827 21.4348ZM55.9641 53.586C56.0667 53.3296 55.942 53.0387 55.6856 52.9361C55.4292 52.8335 55.1382 52.9583 55.0356 53.2146L55.9641 53.586ZM53.793 57.2097C53.6325 57.4344 53.6846 57.7467 53.9093 57.9072C54.134 58.0677 54.4462 58.0157 54.6067 57.791L53.793 57.2097ZM34.1001 58.5002C31.6483 58.5002 29.1057 58.5001 26.8765 58.4379C24.6362 58.3753 22.7529 58.2504 21.602 58.0107L21.3981 58.9897C22.6472 59.2499 24.6139 59.3751 26.8486 59.4375C29.0944 59.5002 31.6518 59.5002 34.1001 59.5002V58.5002ZM21.5708 58.0052C18.2925 57.5369 15.8714 55.1144 15.497 51.745L14.5031 51.8554C14.9287 55.686 17.7076 58.4635 21.4294 58.9951L21.5708 58.0052ZM15.4975 51.7495C14.4008 40.9824 14.6013 21.5196 15.4965 14.0597L14.5036 13.9406C13.5988 21.4807 13.3993 41.0179 14.5026 51.8508L15.4975 51.7495ZM15.4959 14.0644C15.8376 11.4284 16.6355 9.53712 17.8074 8.24917C18.9729 6.96822 20.5527 6.23553 22.5592 5.99667L22.441 5.00368C20.2474 5.26481 18.4272 6.08213 17.0677 7.57617C15.7147 9.06322 14.8625 11.1719 14.5042 13.9359L15.4959 14.0644ZM22.5524 5.99742C28.219 5.40094 36.7825 5.40137 42.0438 5.997L42.1563 5.00334C36.8177 4.39897 28.1812 4.3994 22.4477 5.00292L22.5524 5.99742ZM42.0395 5.99649C43.9954 6.23502 45.5762 6.96715 46.7427 8.24917C47.914 9.53636 48.7109 11.4256 49.0031 14.0554L49.997 13.945C49.6892 11.1747 48.8362 9.06398 47.4824 7.57617C46.1239 6.08319 44.3047 5.26533 42.1606 5.00385L42.0395 5.99649ZM49.0024 14.0487C49.4011 18.1351 49.7004 23.1221 49.8002 28.21L50.8 28.1904C50.6997 23.0782 50.399 18.0653 49.9977 13.9516L49.0024 14.0487ZM32.9001 9.00017C32.9001 9.55246 32.4524 10.0002 31.9001 10.0002V11.0002C33.0046 11.0002 33.9001 10.1047 33.9001 9.00017H32.9001ZM31.9001 10.0002C31.3478 10.0002 30.9001 9.55246 30.9001 9.00017H29.9001C29.9001 10.1047 30.7955 11.0002 31.9001 11.0002V10.0002ZM30.9001 9.00017C30.9001 8.44789 31.3478 8.00017 31.9001 8.00017V7.00017C30.7955 7.00017 29.9001 7.8956 29.9001 9.00017H30.9001ZM31.9001 8.00017C32.4524 8.00017 32.9001 8.44789 32.9001 9.00017H33.9001C33.9001 7.8956 33.0046 7.00017 31.9001 7.00017V8.00017ZM54.4327 19.4991L62.0327 18.9991L61.9671 18.0012L54.3671 18.5012L54.4327 19.4991ZM57.9698 13.7563L55.2698 15.1563L55.7301 16.044L58.4301 14.644L57.9698 13.7563ZM59.4827 22.5348L56.6827 21.4348L56.3171 22.3655L59.1171 23.4655L59.4827 22.5348ZM55.0356 53.2146C54.8203 53.753 54.6081 54.6545 54.4036 55.4363C54.2979 55.8408 54.1921 56.2238 54.0838 56.5456C53.9713 56.88 53.8716 57.0997 53.793 57.2097L54.6067 57.791C54.7782 57.551 54.916 57.2082 55.0316 56.8645C55.1515 56.5082 55.2644 56.0974 55.3711 55.6894C55.5916 54.8461 55.7795 54.0477 55.9641 53.586L55.0356 53.2146Z" fill="#494A4A"/>
</g>
</g>
</svg>
