<svg width="64" height="64" viewBox="0 0 64 64" fill="none" xmlns="http://www.w3.org/2000/svg">
<g id="Pictogram-balloons" clip-path="url(#clip0_624_20923)">
<g id="stroke-default">
<path id="2px" d="M42.2399 47.7201C41.2399 46.8901 38.1599 47.6401 37.3799 48.6201M23.1099 40.6601C22.1577 40.6216 21.2074 40.7734 20.3146 41.1065C19.4218 41.4396 18.6043 41.9474 17.9099 42.6001M22.5899 36.8501C21.9118 38.0484 21.6415 39.4347 21.8199 40.8001C22.1399 42.3201 27.3999 43.0601 25.5899 46.6801C25.4299 47.0001 22.9799 45.0901 20.7999 46.2401M16.9999 47.0001C16.6999 45.9001 20.3899 43.2301 19.9999 42.1601C16.1799 39.7501 3.99993 33.8901 1.29993 20.1601C-1.41007 5.81006 18.0999 -0.309943 26.6399 4.76006M53.6699 2.34006C43.3199 -1.85994 22.8499 3.34006 22.4499 23.8001C22.1299 40.3201 37.9999 40.0001 38.6899 48.5301C38.9299 51.5301 34.6099 52.3301 35.0499 55.0601C35.3999 57.2801 44.7299 55.2601 45.8899 52.6801C47.0499 50.1001 40.7299 50.0001 40.7399 48.4701C40.7399 41.2101 59.1599 41.2901 62.4899 24.3901C64.6499 13.3901 59.8899 4.87006 53.6699 2.34006Z" stroke="#494A4A" stroke-width="2" stroke-linecap="round" stroke-linejoin="round"/>
<path id="1px" d="M54.5299 7.43994C55.7699 8.05994 57.6499 10.5799 58.5299 12.4899M35.2199 38.0599C34.7558 36.9381 34.4203 35.7673 34.2199 34.5699M32.6299 36.6699C32.1749 35.5415 31.8397 34.3684 31.6299 33.1699M45.2799 51.6199C43.9299 50.8599 40.7899 51.9899 37.4699 53.7899M38.2499 55.4599C38.1699 57.9999 37.9999 61.1099 38.7599 63.4599M11.4999 30.9999C10.2499 30.3999 8.32986 27.9199 7.41986 25.9999M6.36986 23.5199C6.12209 22.9971 5.95035 22.4414 5.85986 21.8699M23.1099 49.1699C23.5799 51.6699 25.0399 59.8999 32.5099 63.4899M24.9999 48.7899C19.2799 50.2399 16.7299 49.3399 16.5199 47.0399" stroke="#494A4A" stroke-linecap="round" stroke-linejoin="round"/>
</g>
</g>
<defs>
<clipPath id="clip0_624_20923">
<rect width="64" height="64" fill="white"/>
</clipPath>
</defs>
</svg>
