<svg width="64" height="64" viewBox="0 0 64 64" fill="none" xmlns="http://www.w3.org/2000/svg">
<g id="Pictogram-user-heart">
<g id="stroke-default">
<path id="2px" d="M32.1 33.2998C32.1 32.7475 31.6523 32.2998 31.1 32.2998C30.5477 32.2998 30.1 32.7475 30.1 33.2998H32.1ZM45.6 44.0998L45.0492 44.9344L45.0561 44.939L45.0631 44.9435L45.6 44.0998ZM5.3 44.3998L5.87351 45.2191L5.8843 45.2113L5.3 44.3998ZM21.1 33.2998C21.1 32.7475 20.6523 32.2998 20.1 32.2998C19.5477 32.2998 19.1 32.7475 19.1 33.2998H21.1ZM45.8332 29.2274C45.2961 29.0985 44.7563 29.4294 44.6274 29.9664C44.4985 30.5034 44.8294 31.0433 45.3664 31.1722L45.8332 29.2274ZM62.5998 18.9998L61.6313 18.7507L61.6311 18.7514L62.5998 18.9998ZM53.411 9.81778C52.8686 9.92207 52.5135 10.4463 52.6178 10.9886C52.7221 11.531 53.2463 11.8861 53.7886 11.7818L53.411 9.81778ZM54.0054 13.247C54.2524 13.741 54.853 13.9412 55.347 13.6942C55.841 13.4472 56.0412 12.8465 55.7942 12.3526L54.0054 13.247ZM42.3998 13.7998L43.3674 14.0522L43.3685 14.0482L42.3998 13.7998ZM44.8998 25.2998L44.0998 25.8998L44.8998 25.2998ZM45.1573 31.1699C45.6931 31.3039 46.236 30.9781 46.3699 30.4423C46.5039 29.9065 46.1781 29.3636 45.6423 29.2296L45.1573 31.1699ZM30.1 33.2998C30.1 35.6068 30.7595 37.3619 31.8981 38.7118C33.0156 40.0365 34.5279 40.8909 36.0937 41.5367C37.6436 42.1761 39.3793 42.6598 40.9197 43.1536C42.5059 43.6621 43.9226 44.1909 45.0492 44.9344L46.1508 43.2652C44.7774 42.3587 43.1316 41.7625 41.5303 41.2491C39.8832 40.7211 38.3064 40.286 36.8563 39.6879C35.4221 39.0963 34.2469 38.3944 33.4269 37.4222C32.628 36.4752 32.1 35.1928 32.1 33.2998H30.1ZM45.0631 44.9435C45.4057 45.1615 45.8124 45.6283 46.2291 46.3894C46.6356 47.1318 47.0051 48.068 47.3169 49.1111C47.9416 51.2014 48.3 53.605 48.3 55.4998H50.3C50.3 53.3946 49.9084 50.7982 49.2331 48.5385C48.8949 47.4066 48.4769 46.3303 47.9834 45.4289C47.5001 44.5463 46.8943 43.7382 46.1369 43.2561L45.0631 44.9435ZM48.3 55.4998C48.3 55.5259 48.2954 55.6397 48.0752 55.8517C47.8467 56.0717 47.4562 56.3246 46.8632 56.5868C45.6816 57.1093 43.9285 57.5692 41.7399 57.9455C37.3811 58.695 31.5299 59.0748 25.65 59.0748C19.7701 59.0748 13.9189 58.695 9.56009 57.9455C7.37147 57.5692 5.61844 57.1093 4.43682 56.5868C3.84381 56.3246 3.45325 56.0717 3.22483 55.8517C3.00461 55.6397 3 55.5259 3 55.4998H1C1 56.2362 1.36492 56.8373 1.83757 57.2924C2.30202 57.7396 2.92768 58.1063 3.62803 58.416C5.03312 59.0372 6.9754 59.5304 9.22116 59.9166C13.7311 60.6921 19.7049 61.0748 25.65 61.0748C31.5951 61.0748 37.5689 60.6921 42.0788 59.9166C44.3246 59.5304 46.2669 59.0372 47.672 58.416C48.3723 58.1063 48.998 57.7396 49.4624 57.2924C49.9351 56.8373 50.3 56.2362 50.3 55.4998H48.3ZM3 55.4998C3 53.7459 3.31119 51.4083 3.86567 49.3471C4.1424 48.3184 4.47205 47.3876 4.83744 46.6469C5.2145 45.8826 5.57921 45.425 5.87346 45.219L4.72654 43.5806C4.02079 44.0746 3.473 44.8921 3.04381 45.7621C2.60294 46.6558 2.2326 47.7187 1.93433 48.8275C1.33881 51.0413 1 53.5538 1 55.4998H3ZM5.8843 45.2113C6.99748 44.4099 8.41776 43.8606 10.024 43.3515C11.5743 42.8601 13.3636 42.3899 14.9418 41.7676C16.5454 41.1353 18.1025 40.2876 19.2536 38.9291C20.4257 37.5456 21.1 35.7247 21.1 33.2998H19.1C19.1 35.3249 18.5493 36.6665 17.7277 37.6362C16.885 38.6307 15.6796 39.3268 14.2082 39.907C12.7114 40.4972 11.1132 40.9082 9.41973 41.445C7.78224 41.964 6.10252 42.5898 4.71569 43.5883L5.8843 45.2113ZM25.5 36.2C31.3366 36.2 37 29.7166 37 18.5H35C35 29.2834 29.6634 34.2 25.5 34.2V36.2ZM37 18.5C37 14.1561 35.9667 10.7617 33.9406 8.44214C31.8963 6.10168 28.9681 5 25.5 5V7C28.5319 7 30.8537 7.94832 32.4344 9.75786C34.0333 11.5883 35 14.4439 35 18.5H37ZM25.5 5C22.0319 5 19.1037 6.10168 17.0594 8.44214C15.0333 10.7617 14 14.1561 14 18.5H16C16 14.4439 16.9667 11.5883 18.5656 9.75786C20.1463 7.94832 22.4681 7 25.5 7V5ZM14 18.5C14 29.7166 19.6634 36.2 25.5 36.2V34.2C21.3366 34.2 16 29.2834 16 18.5H14ZM45.3664 31.1722C45.8519 31.2887 46.4608 31.2753 47.0801 31.2042C47.7243 31.1302 48.4742 30.9817 49.2859 30.7663C50.9099 30.3354 52.8369 29.622 54.7453 28.6387C58.5064 26.7008 62.4592 23.5741 63.5685 19.2482L61.6311 18.7514C60.7404 22.2255 57.4432 24.9987 53.8293 26.8608C52.0502 27.7775 50.2584 28.4391 48.773 28.8332C48.0301 29.0303 47.3776 29.1569 46.8519 29.2173C46.3013 29.2805 45.9727 29.2609 45.8332 29.2274L45.3664 31.1722ZM63.5683 19.2488C64.0519 17.3683 64.0596 15.7271 63.6419 14.337C63.2209 12.9362 62.3867 11.8559 61.305 11.0853C59.1786 9.57059 56.1668 9.28781 53.411 9.81778L53.7886 11.7818C56.2328 11.3118 58.621 11.629 60.1446 12.7143C60.8879 13.2437 61.4412 13.9634 61.7265 14.9126C62.015 15.8725 62.0477 17.1313 61.6313 18.7507L63.5683 19.2488ZM55.7942 12.3526C54.1635 9.09106 51.2296 7.09519 48.2648 7.12483C45.2029 7.15545 42.514 9.32811 41.4311 13.5514L43.3685 14.0482C44.2856 10.4715 46.3467 9.14411 48.2848 9.12473C50.32 9.10438 52.6361 10.5085 54.0054 13.247L55.7942 12.3526ZM41.4322 13.5474C40.1333 18.5263 41.8764 22.9352 44.0998 25.8998L45.6998 24.6998C43.7232 22.0643 42.2663 18.2733 43.3674 14.0522L41.4322 13.5474ZM44.0998 25.8998C44.5543 26.5057 44.498 27.2354 44.287 28.1662C44.2021 28.541 44.0467 29.1087 44.0273 29.5446C44.0168 29.7822 44.0334 30.1328 44.2211 30.4708C44.4348 30.8553 44.7852 31.0769 45.1573 31.1699L45.6423 29.2296C45.7144 29.2477 45.871 29.3223 45.9695 29.4995C46.042 29.6301 46.0219 29.7127 46.0254 29.6331C46.0342 29.4346 46.11 29.1711 46.2376 28.6083C46.4516 27.6642 46.7453 26.0938 45.6998 24.6998L44.0998 25.8998Z" fill="#494A4A"/>
<path id="1px" d="M13.1001 31.9002L8.6001 33.5002M10.2001 29.3002L12.7001 29.2002M13.1001 35.2002L14.4001 34.1002M10.4 45.3999C7.8 46.2999 6.4 47.6999 6 50.5999" stroke="#494A4A" stroke-linecap="round" stroke-linejoin="round"/>
</g>
</g>
</svg>
