<svg width="64" height="64" viewBox="0 0 64 64" fill="none" xmlns="http://www.w3.org/2000/svg">
<g id="Pictogram-user-candidate">
<g id="stroke-default">
<path id="2px" d="M39.8 62.9999C17.4 62.9999 5 60.6999 5 57.7999C5 53.4999 6.5 46.5999 8.8 44.9999C14.5 40.8999 25.8 42.4999 25.8 32.2999M38.3 31.8999C38.3 32.4999 38.6 33.5999 39.2 34.8999M32 34.5C37.7 34.5 44 28 44 15.3C44 5.7 39.4 1 32 1C24.6 1 20 5.7 20 15.3C20 28 26.3 34.5 32 34.5ZM32 47.8999C32 50.1999 37.4 54.8999 39 54.8999C40.7 54.8999 40.9 54.2999 41.3 53.4999C43.1 49.6999 49.1 53.4999 46.2 55.9999C44.4 57.4999 42 56.5999 42 57.8999C42 58.8999 45 62.8999 47 62.8999C50 62.8999 52.2 56.8999 53.5 57.0999C54.9 57.3999 54.2 61.4999 56.9 62.6999C59.4 63.8999 64.2 58.5999 60.8 55.2999C59.2 53.6999 57.2 54.4999 56.9 53.2999C56.6 52.1999 62.1 50.2999 62 47.8999C62 45.0999 56.1 43.3999 56.1 41.7999C56.1 38.9999 59.7 40.7999 61.3 38.5999C64.1 34.6999 58 29.2999 54.8 33.3999C53.4 35.2999 55.4 38.8999 53 38.8999C51 38.8999 50 32.8999 47 32.8999C45.3 32.8999 42 36.8999 42 37.8999C42 38.8999 45.8 38.3999 47.5 40.4999C49.3 42.6999 45.4 47.1999 42 45.5999C39.7 44.4999 41 40.8999 39 40.8999C37 40.8999 32 45.8999 32 47.8999Z" stroke="#494A4A" stroke-width="2" stroke-miterlimit="10" stroke-linecap="round"/>
<path id="1px" d="M12.7 46.1001C10 47.0001 9.9 47.4001 9 50.9001M37.3998 45C35.6998 46.4 34.8998 48.1 35.9998 49M49.5 52.5C49 51.3 47.9 50.2 46.5 49.5" stroke="#494A4A" stroke-miterlimit="10" stroke-linecap="round"/>
</g>
</g>
</svg>
