<svg width="64" height="64" viewBox="0 0 64 64" fill="none" xmlns="http://www.w3.org/2000/svg">
<g id="stroke-default" clip-path="url(#clip0_622_41984)">
<path id="2px-stroke-default" d="M63 34.2C63.5 29.1 59.9 23.4 53.3 24.2M29.3 50.3C22.9 50.7 16.3 47.1 12.7 38.3M14.1 41.9C-1.69997 42.3 -3.79997 24.1 11 21.9M11.3 23.9C10.2 16.2 19.8 12.6 24.7 16.2M23.7 18.1C29 6.70002 50.7 5.90002 53 24M59.9 38.4C59.9 39.3 57.3 41.6 57.3 41.6L58.8 44.3C58.8 44.3 61.8 44.1 62.6 45C63.4 45.9 63 50.9 62.3 51.7C61.6 52.5 58.5 52.5 58.5 52.5L56.9 55.1C56.9 55.1 58.5 57.5 58.1 58.9C57.7 60.3 53.5 62.2 52.3 61.9C51.1 61.6 49.8 58.9 49.8 58.9H46.7C46.7 58.9 45.5 61.7 44.3 61.9C42.2 62.3 38 58.7 37.6 57.5C37.2 56.3 39.8 54.5 39.8 54.5L38.3 51.8C38.3 51.8 35.3 51.7 34.4 51.1C33.5 50.5 34.3 43.8 35 43.2C35.7 42.6 38.6 43.7 38.6 43.7L40.2 41.1C40.2 41.1 39 38.1 39.3 37.3C39.6 36.5 43.4 34.1 44.8 34.3C46.2 34.5 47.4 37.2 47.4 37.2C47.4 37.2 49.5 37.1 51 37.3C51.6 37.3 51.9 34.1 52.9 34C53.9 33.9 60 37.5 59.9 38.4Z" stroke="#494A4A" stroke-width="2" stroke-linecap="round" stroke-linejoin="round"/>
<path id="1px-stroke-default" d="M38.7476 17.7027C38.473 17.7316 38.2738 17.9777 38.3027 18.2523C38.3316 18.5269 38.5777 18.7261 38.8523 18.6972L38.7476 17.7027ZM47.3106 23.8024C47.3671 24.0727 47.6321 24.2459 47.9024 24.1893C48.1727 24.1328 48.3459 23.8678 48.2894 23.5975L47.3106 23.8024ZM43.3287 42.5572C43.4708 42.3204 43.394 42.0133 43.1572 41.8712C42.9204 41.7291 42.6133 41.8059 42.4712 42.0427L43.3287 42.5572ZM40.7318 45.1244C40.6348 45.3829 40.7658 45.6711 41.0244 45.7681C41.283 45.8651 41.5712 45.7341 41.6681 45.4755L40.7318 45.1244ZM47.8 55.0999C47.5238 55.0999 47.3 55.3238 47.3 55.5999C47.3 55.8761 47.5238 56.0999 47.8 56.0999V55.0999ZM51.9527 57.5235C52.0762 57.7705 52.3766 57.8707 52.6236 57.7472C52.8706 57.6237 52.9707 57.3233 52.8472 57.0763L51.9527 57.5235ZM9.6102 55.1925C9.38516 55.3525 9.33245 55.6647 9.49248 55.8897C9.65252 56.1147 9.96468 56.1674 10.1897 56.0074L9.6102 55.1925ZM14.4 52.3999L14.6897 52.8074C14.7814 52.7422 14.8485 52.648 14.88 52.5399L14.4 52.3999ZM16.28 47.7399C16.3573 47.4748 16.2051 47.1973 15.94 47.1199C15.6749 47.0426 15.3973 47.1948 15.32 47.4599L16.28 47.7399ZM6.89996 55.7999L7.32396 56.0649L7.39996 55.9433V55.7999H6.89996ZM9.99996 57.4999L10.424 57.7649L10.4366 57.7448L10.4472 57.7235L9.99996 57.4999ZM6.89996 55.6999L6.48394 55.4226L6.39996 55.5486V55.6999H6.89996ZM17.0059 58.6956C16.7825 58.858 16.7332 59.1707 16.8956 59.394C17.058 59.6174 17.3707 59.6667 17.594 59.5043L17.0059 58.6956ZM19.5 57.4999L19.794 57.9043C19.8836 57.8392 19.949 57.7462 19.98 57.6399L19.5 57.4999ZM21.38 52.8399C21.4573 52.5748 21.3051 52.2973 21.04 52.2199C20.7749 52.1426 20.4973 52.2948 20.42 52.5599L21.38 52.8399ZM14 59.1999L14.424 59.4649L14.5 59.3433V59.1999H14ZM17.1 60.8999L17.524 61.1649L17.5366 61.1448L17.5472 61.1235L17.1 60.8999ZM14 59.0999L13.5839 58.8226L13.5 58.9486V59.0999H14ZM13.3344 4.92829C13.1292 4.74356 12.813 4.7602 12.6283 4.96546C12.4436 5.17071 12.4602 5.48686 12.6655 5.67159L13.3344 4.92829ZM15 7.09994L15.4899 6.99996C15.4685 6.89511 15.414 6.79988 15.3344 6.72829L15 7.09994ZM15.5101 12.0999C15.5653 12.3705 15.8294 12.5451 16.0999 12.4898C16.3705 12.4346 16.5451 12.1705 16.4899 11.9L15.5101 12.0999ZM12 5.69994V6.19994H12.118L12.2236 6.14715L12 5.69994ZM9.69996 4.79994L9.2318 4.9755L9.23585 4.9863L9.24039 4.9969L9.69996 4.79994ZM11.9 5.69994V5.19994H11.8093L11.7244 5.23178L11.9 5.69994ZM28.4956 4.00566C28.6645 3.78716 28.6242 3.47314 28.4057 3.3043C28.1872 3.13545 27.8732 3.17571 27.7043 3.39422L28.4956 4.00566ZM26.4 5.89994L26.0043 5.59422C25.9333 5.68615 25.8965 5.79994 25.9002 5.91606L26.4 5.89994ZM26.0002 9.01606C26.0091 9.29206 26.2401 9.50858 26.5161 9.49968C26.7921 9.49078 27.0086 9.25982 26.9997 8.98382L26.0002 9.01606ZM31.1 2.59994L31.5852 2.72125L31.5881 2.70841L31.1 2.59994ZM27.6 1.89994L28.0807 2.0373L28.0848 2.02296L28.0881 2.00841L27.6 1.89994ZM21.1 5.69994V6.19994H21.218L21.3236 6.14715L21.1 5.69994ZM18.8 4.79994L18.3318 4.9755L18.3358 4.9863L18.3404 4.9969L18.8 4.79994ZM21 5.69994V5.19994H20.9093L20.8244 5.23178L21 5.69994ZM21.1034 11.2584C21.1357 11.5326 21.3841 11.7288 21.6584 11.6965C21.9326 11.6643 22.1288 11.4158 22.0965 11.1415L21.1034 11.2584ZM21.4965 6.04152C21.4643 5.76727 21.2158 5.5711 20.9415 5.60336C20.6673 5.63563 20.4711 5.88411 20.5034 6.15836L21.4965 6.04152ZM26.2 60.1999H26.7V59.5766L26.0915 59.7118L26.2 60.1999ZM24.8 62.2999L25.2881 62.1915L25.2848 62.1769L25.2807 62.1626L24.8 62.2999ZM28.2 61.4999L27.7149 61.6212L27.7195 61.6398L27.7256 61.6581L28.2 61.4999ZM26.2 60.2999H25.7V60.9937L26.3581 60.7743L26.2 60.2999ZM27.1991 54.7287C27.215 54.453 27.0044 54.2167 26.7288 54.2008C26.4531 54.1849 26.2167 54.3955 26.2008 54.6711L27.1991 54.7287ZM25.9008 59.8711C25.8849 60.1468 26.0955 60.3832 26.3712 60.3991C26.6468 60.415 26.8832 60.2044 26.8991 59.9287L25.9008 59.8711ZM38.8523 18.6972C42.531 18.31 46.4867 19.8662 47.3106 23.8024L48.2894 23.5975C47.3132 18.9336 42.669 17.2899 38.7476 17.7027L38.8523 18.6972ZM52 46.9999C52 48.6568 50.6568 49.9999 49 49.9999V50.9999C51.2091 50.9999 53 49.2091 53 46.9999H52ZM49 49.9999C47.3431 49.9999 46 48.6568 46 46.9999H45C45 49.2091 46.7908 50.9999 49 50.9999V49.9999ZM46 46.9999C46 45.3431 47.3431 43.9999 49 43.9999V42.9999C46.7908 42.9999 45 44.7908 45 46.9999H46ZM49 43.9999C50.6568 43.9999 52 45.3431 52 46.9999H53C53 44.7908 51.2091 42.9999 49 42.9999V43.9999ZM42.4712 42.0427C42.3986 42.1637 42.2773 42.3578 42.1249 42.6039C41.9744 42.8468 41.7976 43.1341 41.6204 43.4315C41.2741 44.0129 40.9001 44.6756 40.7318 45.1244L41.6681 45.4755C41.7998 45.1242 42.1258 44.537 42.4795 43.9433C42.6523 43.6533 42.8255 43.3718 42.975 43.1304C43.1227 42.892 43.2513 42.6862 43.3287 42.5572L42.4712 42.0427ZM47.8 56.0999C48.2096 56.0999 48.9283 56.0483 49.5442 56.0246C49.8651 56.0122 50.1697 56.0065 50.4267 56.0153C50.698 56.0245 50.866 56.049 50.9418 56.0743L51.2581 55.1256C51.0339 55.0509 50.7394 55.0254 50.4608 55.0159C50.1677 55.0059 49.8349 55.0127 49.5057 55.0253C48.8216 55.0516 48.1904 55.0999 47.8 55.0999V56.0999ZM50.9418 56.0743C51.0731 56.118 51.2441 56.2679 51.444 56.5736C51.6361 56.8673 51.7936 57.2052 51.9527 57.5235L52.8472 57.0763C52.7063 56.7946 52.5139 56.3825 52.2809 56.0263C52.0558 55.6819 51.7268 55.2818 51.2581 55.1256L50.9418 56.0743ZM10.1897 56.0074L14.6897 52.8074L14.1102 51.9925L9.6102 55.1925L10.1897 56.0074ZM14.88 52.5399L16.28 47.7399L15.32 47.4599L13.92 52.2599L14.88 52.5399ZM6.47596 55.5349C5.81029 56.6 6.23295 57.8977 7.23496 58.5239L7.76496 57.6759C7.16697 57.3022 6.98964 56.5999 7.32396 56.0649L6.47596 55.5349ZM7.23496 58.5239C7.76869 58.8575 8.41152 58.9117 8.98064 58.7733C9.54958 58.6349 10.0944 58.2923 10.424 57.7649L9.57596 57.2349C9.40556 57.5076 9.10035 57.715 8.74429 57.8016C8.3884 57.8882 8.03124 57.8424 7.76496 57.6759L7.23496 58.5239ZM10.4472 57.7235C10.677 57.2639 10.6474 56.6436 10.4917 56.12C10.332 55.5827 10.0003 55.0105 9.46496 54.6759L8.93496 55.5239C9.19966 55.6894 9.41792 56.0172 9.53319 56.4049C9.65251 56.8063 9.62295 57.1359 9.55275 57.2763L10.4472 57.7235ZM9.46496 54.6759C8.90506 54.326 8.26717 54.3431 7.74605 54.5117C7.23123 54.6783 6.7559 55.0146 6.48394 55.4226L7.31599 55.9773C7.44403 55.7852 7.7187 55.5716 8.05387 55.4632C8.38275 55.3568 8.69486 55.3739 8.93496 55.5239L9.46496 54.6759ZM6.39996 55.6999V55.7999H7.39996V55.6999H6.39996ZM17.594 59.5043L19.794 57.9043L19.2059 57.0956L17.0059 58.6956L17.594 59.5043ZM19.98 57.6399L21.38 52.8399L20.42 52.5599L19.02 57.3599L19.98 57.6399ZM13.576 58.9349C12.9103 60 13.333 61.2977 14.335 61.9239L14.865 61.0759C14.267 60.7022 14.0896 59.9999 14.424 59.4649L13.576 58.9349ZM14.335 61.9239C14.8687 62.2575 15.5115 62.3117 16.0806 62.1733C16.6496 62.0349 17.1944 61.6923 17.524 61.1649L16.676 60.6349C16.5056 60.9076 16.2003 61.115 15.8443 61.2016C15.4884 61.2882 15.1312 61.2424 14.865 61.0759L14.335 61.9239ZM17.5472 61.1235C17.777 60.6639 17.7474 60.0436 17.5917 59.52C17.432 58.9827 17.1003 58.4105 16.565 58.0759L16.035 58.9239C16.2997 59.0894 16.5179 59.4172 16.6332 59.8049C16.7525 60.2063 16.7229 60.5359 16.6527 60.6763L17.5472 61.1235ZM16.565 58.0759C16.0051 57.726 15.3672 57.7431 14.8461 57.9117C14.3312 58.0783 13.8559 58.4146 13.5839 58.8226L14.416 59.3773C14.544 59.1852 14.8187 58.9716 15.1539 58.8632C15.4828 58.7568 15.7949 58.7739 16.035 58.9239L16.565 58.0759ZM13.5 59.0999V59.1999H14.5V59.0999H13.5ZM12.6655 5.67159L14.6655 7.47159L15.3344 6.72829L13.3344 4.92829L12.6655 5.67159ZM14.5101 7.19992L15.5101 12.0999L16.4899 11.9L15.4899 6.99996L14.5101 7.19992ZM12.2236 6.14715C12.7666 5.87564 13.1584 5.33458 13.374 4.81725C13.4847 4.55167 13.5591 4.26913 13.5811 3.9965C13.6027 3.72952 13.5768 3.43549 13.4472 3.17633L12.5527 3.62355C12.5732 3.66439 12.5972 3.75786 12.5844 3.91588C12.5721 4.06825 12.5278 4.24821 12.4509 4.43263C12.2915 4.81531 12.0333 5.12424 11.7764 5.25273L12.2236 6.14715ZM13.4472 3.17633C12.9218 2.12565 11.5291 1.63981 10.3969 2.14303L10.803 3.05685C11.4708 2.76007 12.2781 3.07424 12.5527 3.62355L13.4472 3.17633ZM10.3969 2.14303C9.22383 2.66439 8.8514 3.9611 9.2318 4.9755L10.1681 4.62438C9.94853 4.03878 10.1761 3.33549 10.803 3.05685L10.3969 2.14303ZM9.24039 4.9969C9.45588 5.49971 9.92529 5.87655 10.4172 6.08523C10.9129 6.29555 11.5242 6.37484 12.0755 6.1681L11.7244 5.23178C11.4757 5.32504 11.137 5.30433 10.8077 5.16465C10.4746 5.02333 10.244 4.80017 10.1595 4.60298L9.24039 4.9969ZM11.9 6.19994H12V5.19994H11.9V6.19994ZM27.7043 3.39422L26.0043 5.59422L26.7956 6.20566L28.4956 4.00566L27.7043 3.39422ZM25.9002 5.91606L26.0002 9.01606L26.9997 8.98382L26.8997 5.88382L25.9002 5.91606ZM31.5881 2.70841C31.8507 1.5267 31.0657 0.369018 29.9084 0.111847L29.6915 1.08803C30.3342 1.23086 30.7493 1.87318 30.6119 2.49147L31.5881 2.70841ZM29.9084 0.111847C29.318 -0.0193578 28.6912 0.114406 28.188 0.404129C27.6848 0.693853 27.2493 1.17321 27.1119 1.79147L28.0881 2.00841C28.1507 1.72667 28.3652 1.45603 28.6869 1.27075C29.0087 1.08547 29.3819 1.01924 29.6915 1.08803L29.9084 0.111847ZM27.1192 1.76258C26.9567 2.33145 27.2095 2.94536 27.5359 3.38536C27.8743 3.84143 28.394 4.25527 28.9915 4.38803L29.2084 3.41185C28.9059 3.34461 28.5756 3.10845 28.339 2.78952C28.0905 2.45452 28.0433 2.16843 28.0807 2.0373L27.1192 1.76258ZM28.9915 4.38803C29.6023 4.52377 30.1924 4.34959 30.6463 4.03655C31.0969 3.72583 31.4521 3.25278 31.585 2.72121L30.6149 2.47867C30.5478 2.7471 30.3531 3.02405 30.0786 3.21333C29.8075 3.40029 29.4976 3.47611 29.2084 3.41185L28.9915 4.38803ZM21.3236 6.14715C21.8666 5.87564 22.2584 5.33458 22.474 4.81725C22.5847 4.55167 22.6591 4.26913 22.6811 3.9965C22.7027 3.72952 22.6768 3.43549 22.5472 3.17633L21.6527 3.62355C21.6732 3.66439 21.6972 3.75786 21.6844 3.91588C21.6721 4.06825 21.6278 4.24821 21.5509 4.43263C21.3915 4.8153 21.1333 5.12424 20.8764 5.25273L21.3236 6.14715ZM22.5472 3.17633C22.0218 2.12565 20.6291 1.63981 19.4969 2.14303L19.903 3.05685C20.5708 2.76007 21.3781 3.07424 21.6527 3.62355L22.5472 3.17633ZM19.4969 2.14303C18.3238 2.66439 17.9514 3.9611 18.3318 4.9755L19.2681 4.62438C19.0485 4.03878 19.2761 3.33549 19.903 3.05685L19.4969 2.14303ZM18.3404 4.9969C18.5559 5.49971 19.0253 5.87655 19.5172 6.08523C20.0129 6.29555 20.6242 6.37484 21.1755 6.1681L20.8244 5.23178C20.5757 5.32504 20.237 5.30433 19.9077 5.16465C19.5746 5.02333 19.344 4.80017 19.2595 4.60298L18.3404 4.9969ZM21 6.19994H21.1V5.19994H21V6.19994ZM22.0965 11.1415L21.4965 6.04152L20.5034 6.15836L21.1034 11.2584L22.0965 11.1415ZM26.0915 59.7118C25.4703 59.8499 24.9725 60.3118 24.6656 60.794C24.3662 61.2646 24.1633 61.8918 24.3192 62.4373L25.2807 62.1626C25.2366 62.0081 25.2837 61.6853 25.5093 61.3309C25.7275 60.988 26.0297 60.75 26.3084 60.688L26.0915 59.7118ZM24.3119 62.4084C24.4516 63.037 24.8981 63.494 25.4085 63.7569C25.9175 64.0192 26.5365 64.1151 27.1084 63.988L26.8915 63.0118C26.5635 63.0847 26.1824 63.0307 25.8664 62.868C25.5518 62.7059 25.3484 62.4629 25.2881 62.1915L24.3119 62.4084ZM27.1084 63.988C28.258 63.7326 29.0805 62.5605 28.6743 61.3418L27.7256 61.6581C27.9194 62.2394 27.5419 62.8673 26.8915 63.0118L27.1084 63.988ZM28.685 61.3787C28.5524 60.8481 28.1966 60.3706 27.7365 60.0692C27.27 59.7636 26.662 59.6189 26.0418 59.8256L26.3581 60.7743C26.6379 60.681 26.9299 60.7363 27.1884 60.9057C27.4534 61.0792 27.6475 61.3518 27.7149 61.6212L28.685 61.3787ZM26.7 60.2999V60.1999H25.7V60.2999H26.7ZM26.2008 54.6711L25.9008 59.8711L26.8991 59.9287L27.1991 54.7287L26.2008 54.6711Z" fill="#494A4A"/>
</g>
<defs>
<clipPath id="clip0_622_41984">
<rect width="64" height="64" fill="white"/>
</clipPath>
</defs>
</svg>
