<svg width="64" height="64" viewBox="0 0 64 64" fill="none" xmlns="http://www.w3.org/2000/svg">
<g id="Pictogram-collaboration" clip-path="url(#clip0_426_2405)">
<g id="stroke-default">
<path id="2px" d="M17.8073 43.4277C15.5065 46.4287 12.8057 49.3296 11.8054 48.9294C10.4049 48.3293 11.4053 39.9266 10.8051 39.0263C10.0048 37.826 6.4037 38.1261 4.30304 36.0254C1.70223 33.4246 -1.29871 16.0192 3.70285 11.6178C9.90479 6.01604 38.2136 3.51525 43.0151 6.01604C44.7157 6.91632 46.7163 9.51713 47.0164 14.9188M15.4065 22.9213C15.4065 22.9213 15.0064 23.1214 14.9064 23.4215C14.8063 23.7216 15.1064 24.0217 15.3065 24.0217C15.5065 24.0217 15.8066 24.0217 15.9067 23.7216C16.0067 23.4215 16.1067 23.2214 15.6066 23.1214M34.5125 35.9254C34.5125 35.9254 34.9126 36.1254 35.0126 36.4255C35.1127 36.7256 35.2127 36.6256 34.7125 37.0257C34.5125 37.2258 34.2124 37.0257 34.1124 36.7256C34.0123 36.4255 33.8123 36.0254 34.4124 36.1254M41.5147 36.5256C41.5147 36.5256 41.9148 36.7256 42.0148 36.9257C42.1149 37.1258 42.2149 37.3258 41.7147 37.5259C41.3146 37.7259 41.2146 37.5259 41.1145 37.2258C41.0145 36.9257 41.1145 36.6256 41.4146 36.6256M48.5169 36.9257C48.5169 36.9257 48.817 37.1258 49.017 37.3258C49.2171 37.5259 49.017 37.826 48.7169 37.926C48.4168 38.026 48.2168 37.926 48.1167 37.6259C48.0167 37.3258 48.1167 37.1258 48.4168 37.0257M60.3205 22.5212C54.1186 16.9194 26.3099 16.0192 22.1086 21.921C18.9076 26.3224 19.5078 43.0276 23.7091 49.6297C26.4099 53.931 40.5144 52.7306 42.715 53.831C45.0158 55.0313 49.9173 63.7341 52.0179 62.8338C54.1186 61.9335 52.4181 55.3314 53.2183 53.931C54.2186 52.2305 58.1199 51.7303 59.1202 50.1298C62.6213 45.2283 65.3221 26.9226 60.3205 22.5212Z" stroke="#494A4A" stroke-width="2.00063" stroke-linecap="round" stroke-linejoin="round"/>
<path id="1px" d="M13.5057 39.5265C13.5057 37.4259 12.4053 36.0254 10.3047 35.5253M31.5113 8.51685C28.8105 8.51685 26.7098 8.81694 24.3091 9.71722M28.5104 23.4215C26.2097 23.7216 24.209 24.0217 24.5091 28.323" stroke="#494A4A" stroke-width="1.00031" stroke-linecap="round" stroke-linejoin="round"/>
</g>
</g>
<defs>
<clipPath id="clip0_426_2405">
<rect width="64" height="64" fill="white"/>
</clipPath>
</defs>
</svg>
