<svg width="64" height="64" viewBox="0 0 64 64" fill="none" xmlns="http://www.w3.org/2000/svg">
<g id="Pictogram-retail-1">
<g id="stroke-default">
<path id="2px" d="M42.0002 9.11985C46.5002 9.11985 49.1302 11.1199 49.6302 15.8198C50.1502 20.6898 50.1002 52.4099 49.6302 56.6799C49.3602 59.3199 47.2702 61.1499 44.0002 61.9999C38.7302 63.3899 26.0002 63.2499 20.1402 61.9999C15.7302 61.0699 13.8002 59.4699 13.3502 55.9999C12.9202 52.7999 12.9802 21.6499 13.3502 17.8499C14.0002 11.4099 15.1302 9.35985 20.0002 9.15985M21.3002 20.4799C21.0802 14.9699 20.9402 9.13985 21.1302 1.47985C21.2102 -0.220149 24.6002 3.53985 25.5902 3.53985C26.5802 3.53985 26.9002 2.05985 27.9402 2.05985C28.9802 2.05985 29.9402 5.05985 30.9402 5.05985C31.9402 5.05985 33.4202 3.05985 33.9402 3.05985C34.4602 3.05985 36.5502 4.05985 37.0702 4.05985C37.5902 4.05985 39.2802 4.25985 40.2102 3.36985C40.9602 2.64985 41.7202 3.49985 41.7702 4.22985C42.1004 9.61813 42.1004 15.0216 41.7702 20.4099M42.0602 16.9999C43.6202 16.9999 42.9402 20.8299 42.0602 20.8499C33.3402 20.9799 27.0602 21.2599 20.9702 20.6399C19.4202 20.4799 20.1102 17.4399 20.9702 17.1699" stroke="#494A4A" stroke-width="2" stroke-linecap="round" stroke-linejoin="round"/>
<path id="1px" d="M31.9996 26.9099C31.7196 27.1999 30.0896 29.3599 29.7796 29.6099M33.5796 28.2599C33.0696 28.7299 32.5796 29.8199 32.3096 29.9899M25.5396 15.5099H29.1696M25.5396 12.4999C26.2796 12.4999 27.9296 12.4999 28.4896 12.4999M25.5396 9.53986C26.2796 9.53986 29.0596 9.53986 29.5396 9.53986M33.8796 15.4899C34.7518 15.5776 35.6314 15.5609 36.4996 15.4399M34.9996 12.5299C35.3696 12.5299 35.8196 12.5299 36.4196 12.5299M33.7796 9.53986C34.5396 9.53986 35.8796 9.53986 36.3996 9.53986M16.4396 51.4399C16.2696 54.2699 16.1596 56.0599 17.5196 57.4399M54.4296 56.3999L59.4996 56.6599M57.1796 52.5099L53.8796 53.8199M55.6196 59.9099L54.0196 58.7799M23.9396 40.3299C22.9919 40.5149 22.0174 40.5149 21.0696 40.3299C20.1296 40.0999 19.6996 39.6699 19.5996 39.0099C19.4978 38.3483 19.471 37.6774 19.5196 37.0099C19.59 36.6356 19.7785 36.2938 20.0575 36.0346C20.3365 35.7754 20.6912 35.6125 21.0696 35.5699C22.0204 35.4199 22.9888 35.4199 23.9396 35.5699C24.7496 35.7099 25.4796 35.8799 25.5196 36.5699C25.5598 37.3194 25.5128 38.0711 25.3796 38.8099C25.3281 39.1817 25.1616 39.5282 24.9034 39.8008C24.6452 40.0733 24.3082 40.2583 23.9396 40.3299ZM32.9296 40.3299C31.9819 40.5149 31.0073 40.5149 30.0596 40.3299C29.6994 40.2701 29.3668 40.0991 29.1086 39.8409C28.8504 39.5827 28.6794 39.2501 28.6196 38.8899C28.4495 38.2883 28.4495 37.6514 28.6196 37.0499C28.6924 36.6953 28.8677 36.3698 29.1237 36.1139C29.3796 35.8579 29.705 35.6827 30.0596 35.6099C31.0104 35.4599 31.9788 35.4599 32.9296 35.6099C33.2893 35.671 33.6211 35.8425 33.879 36.1004C34.137 36.3584 34.3085 36.6902 34.3696 37.0499C34.5624 37.648 34.5624 38.2917 34.3696 38.8899C34.2921 39.2423 34.1153 39.5652 33.8602 39.8204C33.605 40.0756 33.2821 40.2524 32.9296 40.3299ZM41.9996 40.3499C41.0485 40.5349 40.0707 40.5349 39.1196 40.3499C38.7567 40.29 38.4217 40.1179 38.1616 39.8578C37.9016 39.5978 37.7295 39.2628 37.6696 38.8999C37.4995 38.2983 37.4995 37.6614 37.6696 37.0599C37.7438 36.7032 37.9206 36.376 38.1782 36.1184C38.4357 35.8608 38.763 35.684 39.1196 35.6099C40.0738 35.4598 41.0455 35.4598 41.9996 35.6099C42.3589 35.6757 42.6895 35.85 42.9469 36.1092C43.2043 36.3684 43.3762 36.7001 43.4396 37.0599C43.6324 37.6581 43.6324 38.3017 43.4396 38.8999C43.3627 39.2536 43.1863 39.5781 42.9312 39.8349C42.6761 40.0918 42.3529 40.2705 41.9996 40.3499ZM23.9996 48.2999C23.0082 48.4848 21.9911 48.4848 20.9996 48.2999C20.0596 48.0799 19.5996 47.5299 19.5596 46.8599C19.5046 46.2544 19.5046 45.6453 19.5596 45.0399C19.612 44.6765 19.7806 44.3399 20.0401 44.0804C20.2997 43.8208 20.6363 43.6522 20.9996 43.5999C21.9939 43.449 23.0053 43.449 23.9996 43.5999C24.3651 43.6347 24.7081 43.7919 24.9731 44.046C25.238 44.3001 25.4095 44.6362 25.4596 44.9999C25.5398 45.6039 25.5398 46.2158 25.4596 46.8199C25.408 47.1908 25.238 47.5352 24.975 47.8019C24.7119 48.0685 24.3699 48.2432 23.9996 48.2999ZM24.2996 56.2899C23.2249 56.4881 22.1281 56.5385 21.0396 56.4399C20.6571 56.4032 20.2998 56.2326 20.0308 55.9582C19.7619 55.6837 19.5985 55.323 19.5696 54.9399C19.5086 54.2211 19.5086 53.4986 19.5696 52.7799C19.6396 51.8499 20.4396 51.6899 21.0996 51.5499C22.0504 51.3999 23.0188 51.3999 23.9696 51.5499C24.324 51.6199 24.6487 51.7961 24.9006 52.0551C25.1524 52.3141 25.3195 52.6436 25.3796 52.9999C25.5307 53.6358 25.5511 54.2958 25.4396 54.9399C25.3396 55.7299 25.1296 56.0799 24.2996 56.2899ZM33.3196 48.3099C32.1309 48.5047 30.9184 48.5047 29.7296 48.3099C29.4379 48.2185 29.1775 48.0475 28.9778 47.816C28.7782 47.5845 28.6472 47.3018 28.5996 46.9999C28.4638 46.2123 28.4638 45.4074 28.5996 44.6199C28.7796 43.8099 28.9496 43.7299 29.5996 43.6199C30.7009 43.4651 31.8184 43.4651 32.9196 43.6199C33.2888 43.6528 33.6371 43.8054 33.9115 44.0545C34.1859 44.3036 34.3713 44.6356 34.4396 44.9999C34.5053 45.6248 34.5053 46.2549 34.4396 46.8799C34.4475 47.2111 34.3401 47.5347 34.1358 47.7955C33.9316 48.0563 33.6431 48.2381 33.3196 48.3099ZM41.9996 48.3199C41.049 48.5098 40.0702 48.5098 39.1196 48.3199C38.7567 48.26 38.4217 48.0879 38.1616 47.8278C37.9016 47.5678 37.7295 47.2328 37.6696 46.8699C37.4994 46.1396 37.4994 45.3801 37.6696 44.6499C37.8596 43.8399 38.4696 43.7399 39.1396 43.6499C40.1772 43.4948 41.2321 43.4948 42.2696 43.6499C43.0796 43.7799 43.2696 43.9699 43.4196 44.6499C43.6299 45.5152 43.6504 46.4158 43.4796 47.2899C43.2696 47.9999 42.8096 48.1099 41.9996 48.3199ZM28.5696 55.3699C28.4545 54.5573 28.4545 53.7325 28.5696 52.9199C28.6348 52.5765 28.8092 52.2633 29.0669 52.0272C29.3247 51.7911 29.6518 51.6447 29.9996 51.6099C33.9971 51.4089 38.0021 51.4089 41.9996 51.6099C42.3463 51.633 42.6763 51.767 42.941 51.9921C43.2057 52.2172 43.391 52.5214 43.4696 52.8599C43.6028 53.5454 43.5857 54.2516 43.4196 54.9299C43.2979 55.292 43.0653 55.6066 42.7548 55.8291C42.4443 56.0517 42.0716 56.1709 41.6896 56.1699C37.6988 56.5151 33.6882 56.5686 29.6896 56.3299C29.4206 56.3246 29.1617 56.226 28.9574 56.0508C28.753 55.8757 28.616 55.635 28.5696 55.3699ZM42.3496 32.3899C39.9396 32.5199 22.4896 32.5899 20.6196 32.3899C20.3786 32.3708 20.1483 32.2822 19.9566 32.1349C19.765 31.9876 19.6201 31.7878 19.5396 31.5599C19.4696 31.0499 19.5396 25.8899 19.5896 25.4699C19.6563 25.2427 19.7945 25.0432 19.9837 24.9008C20.1729 24.7585 20.4029 24.681 20.6396 24.6799C23.3996 24.3699 39.1396 24.4499 42.3196 24.6799C42.9596 24.7299 43.3196 24.9899 43.3896 25.3899C43.5343 27.474 43.5343 29.5657 43.3896 31.6499C43.3297 31.8751 43.1929 32.0723 43.003 32.2074C42.8132 32.3425 42.582 32.407 42.3496 32.3899Z" stroke="#494A4A" stroke-linecap="round" stroke-linejoin="round"/>
</g>
</g>
</svg>
