<svg width="64" height="64" viewBox="0 0 64 64" fill="none" xmlns="http://www.w3.org/2000/svg">
<g id="Pictogram-dark-hacker">
<g id="stroke-default">
<path id="2px" d="M15.6001 23.5997C17.3001 16.9997 17.8001 11.5997 21.1001 10.2997C23.2001 9.49972 28.7001 10.4997 31.4001 10.3997C34.1001 10.2997 39.7001 9.39972 41.9001 10.2997C45.2001 11.5997 45.7001 17.1997 47.5001 23.9997M9.7001 38.0004C5.6001 36.6004 2.6001 34.7004 2.6001 32.0004C2.6001 26.6004 15.4001 23.9004 15.4001 23.9004M48.2002 24C48.2002 24 60.6002 26.6 60.6002 32C60.6002 34.7 57.5002 36.6 53.2002 38M9.70015 38.4004C9.40015 42.8004 8.80015 61.1004 23.3002 56.1004C30.0002 53.8004 34.7002 54.1004 41.1002 56.4004C51.7002 60.2004 54.7002 44.5004 53.0002 38.4004" stroke="#494A4A" stroke-width="2" stroke-linecap="round" stroke-linejoin="round"/>
<path id="1px" d="M46.7999 23.5004C47.2999 25.7004 47.8999 27.2004 48.3999 29.3004C50.0999 36.1004 12.0999 36.2004 14.6999 28.8004C15.3999 26.7004 15.8999 25.2004 16.2999 22.9004M53.1 37.4004C39.8 40.8004 22.7 41.0004 9.5 37.4004M28.8999 30.4998C37.2999 31.0998 47.4999 29.3998 47.6999 26.7998M15.5 26.5C15.5 28.2 19 29.4 21.5 29.8M31 14.9004C32.5 15.2004 35.8 14.0004 36.8 12.9004M33.3999 50.5002C33.5999 49.6002 34.2999 48.4002 35.3999 47.7002M28.9999 49.3004C28.5999 48.5004 28.0999 48.0004 27.3999 47.4004M47.8002 43.6003C48.3002 43.0003 49.2002 52.6003 44.4002 51.9003C40.1002 51.3003 36.7002 51.4003 36.7002 50.0003C36.7002 48.5003 42.9002 49.4003 47.7002 43.6003H47.8002ZM15.0001 43.6001C14.4001 43.1001 13.6001 52.6001 18.4001 51.9001C22.7001 51.3001 26.1001 51.4001 26.1001 50.0001C26.1001 48.6001 20.7001 47.7001 15.1001 43.6001H15.0001ZM5.9 8.2002C6.6 8.2002 7.2 11.4002 7.8 12.0002C8.4 12.6002 12.8 13.0002 12.8 13.6002C12.8 14.2002 8.3 14.9002 7.8 15.6002C7.3 16.3002 7 20.6002 6 20.7002C5 20.8002 4.9 16.1002 4.2 15.6002C3.5 15.1002 1 14.5002 1 13.8002C1 13.1002 3.8 12.5002 4.2 12.0002C4.6 11.5002 5.1 8.2002 5.8 8.2002H5.9ZM14.5001 1.39971C14.5001 1.39971 14.1001 3.49971 13.8001 3.89971C13.5001 4.29971 11.0001 4.59971 11.1001 4.89971C11.2001 5.19971 13.8001 5.69971 14.2001 5.99971C14.6001 6.29971 14.6001 9.59971 15.2001 9.49971C15.8001 9.39971 16.0001 5.99971 16.3001 5.59971C16.6001 5.19971 19.0001 4.69971 18.9001 4.29971C18.8001 3.89971 16.3001 3.69971 15.9001 3.39971C15.5001 3.09971 14.9001 1.19971 14.5001 1.29971V1.39971Z" stroke="#494A4A" stroke-linecap="round" stroke-linejoin="round"/>
</g>
</g>
</svg>
