<svg width="64" height="64" viewBox="0 0 64 64" fill="none" xmlns="http://www.w3.org/2000/svg">
<g id="Pictogram-remove-user" clip-path="url(#clip0_624_20985)">
<g id="stroke-default">
<path id="2px" d="M36.4383 63.8288C36.9899 63.8022 37.4155 63.3334 37.3888 62.7817C37.3622 62.2301 36.8934 61.8045 36.3417 61.8312L36.4383 63.8288ZM8.76 45L9.34228 45.813L9.34378 45.8119L8.76 45ZM26.76 32.29C26.76 31.7377 26.3123 31.29 25.76 31.29C25.2077 31.29 24.76 31.7377 24.76 32.29H26.76ZM39.2298 31.8816C39.2417 31.3295 38.8038 30.8722 38.2516 30.8602C37.6994 30.8483 37.2422 31.2862 37.2302 31.8384L39.2298 31.8816ZM37.7587 34.0426C38.0197 34.5293 38.6259 34.7123 39.1126 34.4513C39.5993 34.1903 39.7823 33.5841 39.5213 33.0974L37.7587 34.0426ZM36.3417 61.8312C28.6237 62.2041 20.843 61.9685 15.0164 61.1363C12.0936 60.7188 9.72306 60.1594 8.10913 59.4821C7.2999 59.1425 6.74126 58.7979 6.39933 58.4745C6.06767 58.1609 6 57.9297 6 57.77H4C4 58.6403 4.42827 59.3632 5.02513 59.9276C5.61171 60.4824 6.41416 60.9398 7.33524 61.3263C9.18194 62.1013 11.7489 62.6899 14.7336 63.1162C20.722 63.9715 28.6363 64.2059 36.4383 63.8288L36.3417 61.8312ZM6 57.77C6 55.7233 6.37054 53.0161 7.01303 50.6328C7.33371 49.4433 7.71456 48.3631 8.13482 47.501C8.56748 46.6135 8.99061 46.0649 9.34228 45.813L8.17772 44.187C7.41939 44.7301 6.81752 45.639 6.33706 46.6246C5.84419 47.6356 5.42379 48.8442 5.08197 50.1122C4.39946 52.6439 4 55.5267 4 57.77H6ZM9.34378 45.8119C10.6396 44.8802 12.2887 44.2447 14.1357 43.6594C15.9267 43.0918 17.9678 42.5558 19.7751 41.8442C21.6074 41.1229 23.3707 40.1628 24.671 38.6352C25.9929 37.0823 26.76 35.0341 26.76 32.29H24.76C24.76 34.6309 24.1184 36.1989 23.1481 37.3388C22.1562 38.5041 20.7439 39.3134 19.0424 39.9833C17.3159 40.663 15.4652 41.1401 13.5315 41.7528C11.6538 42.3478 9.74545 43.0598 8.17622 44.1881L9.34378 45.8119ZM37.2302 31.8384C37.2136 32.6064 37.3957 33.3656 37.7587 34.0426L39.5213 33.0974C39.321 32.724 39.2206 32.3052 39.2298 31.8816L37.2302 31.8384ZM32 35.5C38.5496 35.5 45 28.1825 45 15.32H43C43 27.7575 36.8704 33.5 32 33.5V35.5ZM45 15.32C45 10.3476 43.8249 6.4976 41.5396 3.87984C39.2356 1.24075 35.9315 0 32 0V2C35.4985 2 38.1944 3.08925 40.0329 5.19516C41.8901 7.3224 43 10.6324 43 15.32H45ZM32 0C28.0685 0 24.7644 1.24075 22.4604 3.87984C20.1751 6.4976 19 10.3476 19 15.32H21C21 10.6324 22.1099 7.3224 23.9671 5.19516C25.8056 3.08925 28.5015 2 32 2V0ZM19 15.32C19 28.2137 25.4513 35.5 32 35.5V33.5C27.1287 33.5 21 27.7863 21 15.32H19ZM62 48.5C62 55.9565 55.9597 62 48.51 62V64C57.0655 64 64 57.0598 64 48.5H62ZM48.51 62C41.0603 62 35.02 55.9565 35.02 48.5H33.02C33.02 57.0598 39.9545 64 48.51 64V62ZM35.02 48.5C35.02 41.0435 41.0603 35 48.51 35V33C39.9545 33 33.02 39.9402 33.02 48.5H35.02ZM48.51 35C55.9597 35 62 41.0435 62 48.5H64C64 39.9402 57.0655 33 48.51 33V35Z" fill="#494A4A"/>
<path id="1px" d="M12.73 46.09C10 47 9.94 47.34 9 50.87M54.5 52.22C54.41 51.67 51.72 49.34 51.71 48.8C51.7 48.26 54.59 46.15 54.8 45.42C55.01 44.69 52.54 42.6 52.14 42.7C51.74 42.8 49.3 45.38 48.69 45.41C48.08 45.44 45.82 42.5 45.25 42.47C44.68 42.44 42.63 44.56 42.82 45.35C42.96 45.93 45.43 48.14 45.41 48.57C45.39 49 42.62 51.25 42.54 51.88C42.46 52.51 44.59 54.88 45.22 54.47C45.85 54.06 48.12 51.67 48.55 51.74C48.98 51.81 50.77 54.27 51.66 54.51C52.55 54.75 54.59 52.8 54.5 52.22Z" stroke="#494A4A" stroke-linecap="round" stroke-linejoin="round"/>
</g>
</g>
<defs>
<clipPath id="clip0_624_20985">
<rect width="64" height="64" fill="white"/>
</clipPath>
</defs>
</svg>
