<svg width="64" height="64" viewBox="0 0 64 64" fill="none" xmlns="http://www.w3.org/2000/svg">
<g id="Pictogram-vacation-beach" clip-path="url(#clip0_426_155)">
<g id="stroke-default">
<path id="2px" d="M15.22 21.82C17.61 20.22 22.22 16.67 23.84 13.1M22.77 10.32C4.25 7.31998 0.87 30.32 3.27 30.83C5.67 31.34 9.2 25.37 12.27 23.56M29.88 24.77C30.99 25.99 32.3 30.11 33.75 29.77C35.89 29.22 37.75 7.85998 24.43 8.16998M23.49 14.16C24.89 18.83 25.96 20.21 27.65 22.09M41.32 13.68C38.7701 13.9618 36.1939 13.9012 33.66 13.5M26.17 8.18998C30.28 1.99998 38.62 5.88998 42.64 7.44998C45.57 8.59998 47.45 8.90998 47.9 9.99998C48.35 11.09 46.19 12.47 44.56 13M27.77 6.34998C19 -4.06002 1 2.99998 1 8.84998C1 11.56 11.4 8.11998 15 10.51M25.7 19.62C22 30.38 33.11 39.37 32 49.38C31.64 52.62 21.81 52.97 22 49.38C22.65 35.96 16.6 29.08 20.1 18.07M42.66 53C45.85 53.29 48.2 52.66 51.06 53.42C54.32 54.28 54.52 56.95 56.32 57.35M47 52.83C46.48 31.83 56.78 16.9 61 18.02C65.22 19.14 62.55 46.46 54.49 55.71M7.38 60C3.43 60 1 57.7 1 56C1 53.9 10.86 47.47 22 46.79M32 46C37.0764 45.8812 42.1532 46.2158 47.17 47M55 63C60.41 62.54 63 57.93 63 57C62.955 55.6799 62.5478 54.3977 61.8229 53.2936C61.098 52.1895 60.0833 51.3061 58.89 50.74M37.78 13.86C39.33 14.49 40.59 16.65 42.16 18.12C43.54 19.42 45.16 20.33 44.8 21.29C44.41 22.41 37.97 22.29 35.24 19.51" stroke="#494A4A" stroke-width="2" stroke-linecap="round" stroke-linejoin="round"/>
<path id="1px" d="M48.5799 37.55C51.4599 38.13 53.0199 35.96 52.5799 33.28M52.9199 31.44C55.1299 33.08 55.2999 36.09 53.7999 38.44C52.5799 40.36 55.5699 41.98 56.4499 39.44C56.8199 38.44 56.3699 36.86 56.7599 35.61C57.2599 34.01 59.0799 33.23 59.8899 33.92C60.1899 34.18 56.3799 37.92 60.3799 43.37M21.6199 41.47C23.2699 45.19 29.7299 48.78 31.9999 47.87M21.8499 42.53C25.2099 42.97 28.1499 38.02 27.5899 32.74M19.4999 30.49C20.244 32.1245 21.5072 33.4674 23.0931 34.3101C24.6791 35.1528 26.4989 35.4481 28.2699 35.15M19.9999 32.08C23.8799 33.08 24.8099 27.7 24.9099 24.14M19.3799 20.86C20.0099 22.74 22.3799 26.23 25.1099 26.14M21.0899 4.37003C20.3448 3.99216 19.5305 3.76982 18.6968 3.71652C17.863 3.66323 17.0271 3.7801 16.2399 4.06003M29.3799 24.84C29.3344 23.9206 29.4798 23.0017 29.8068 22.1412C30.1337 21.2807 30.6353 20.4972 31.2799 19.84M41.8399 13.68C41.4392 12.6809 41.2716 11.6036 41.3499 10.53C42.0377 11.8843 43.1868 12.9483 44.5899 13.53M14.7199 21.86C14.7428 21.1297 14.5612 20.4075 14.1954 19.7749C13.8296 19.1423 13.2943 18.6245 12.6499 18.28C13.2648 20.0961 13.2648 22.064 12.6499 23.88" stroke="#494A4A" stroke-linecap="round" stroke-linejoin="round"/>
</g>
</g>
<defs>
<clipPath id="clip0_426_155">
<rect width="64" height="64" fill="white"/>
</clipPath>
</defs>
</svg>
