<svg width="64" height="64" viewBox="0 0 64 64" fill="none" xmlns="http://www.w3.org/2000/svg">
<g id="Pictogram-space-planet" clip-path="url(#clip0_426_1554)">
<g id="stroke-default">
<path id="2px" d="M51.4501 35.37C57.3601 35.37 62.8501 37.01 63.0001 38.37C63.3101 41.22 49.8801 45.01 32.4801 46.89C15.0801 48.77 1.31007 47.84 1.00007 45C0.85007 43.65 4.71007 41.09 10.7501 39.92M52.2501 41.09C52.2537 44.5452 51.3927 47.9464 49.7456 50.9837C48.0986 54.0211 45.7178 56.5981 42.8201 58.48C42.5203 58.77 42.3059 59.1366 42.2001 59.54C41.7401 61.8 35.0301 63.43 32.7801 62.24C32.3803 62.0322 31.947 61.8968 31.5001 61.84C19.1901 61.05 11.0201 53.84 10.7501 41.09C10.7028 37.4903 11.6399 33.946 13.4601 30.84C13.7501 30.33 13.3501 29.51 13.3001 28.92C13.1501 26.92 15.6001 24.2 17.4601 24.1C18.2501 24.1 19.2001 24.37 19.7501 23.99C22.8657 21.8494 26.5069 20.6007 30.2805 20.3785C34.0541 20.1563 37.8167 20.9692 41.162 22.7293C44.5073 24.4895 47.3082 27.13 49.2624 30.3659C51.2165 33.6017 52.2496 37.3099 52.2501 41.09ZM35.0001 5.42999C35.0001 8.82999 31.5301 17 30.4901 17C29.4501 17 26.0001 8.82999 26.0001 5.42999C26.0001 4.23652 26.4742 3.09193 27.3181 2.24801C28.162 1.4041 29.3066 0.929993 30.5001 0.929993C31.6935 0.929993 32.8381 1.4041 33.6821 2.24801C34.526 3.09193 35.0001 4.23652 35.0001 5.42999Z" stroke="#494A4A" stroke-width="2" stroke-linecap="round" stroke-linejoin="round"/>
<path id="1px" d="M42.5404 23.6501C42.0346 23.5815 41.5198 23.6268 41.0337 23.7825C40.5476 23.9382 40.1023 24.2004 39.7304 24.5501C38.1804 26.1001 38.6404 29.0801 40.7304 31.2001C42.8204 33.3201 45.8304 33.7701 47.3804 32.2001C47.8357 31.8268 48.1632 31.3208 48.3174 30.7526C48.4715 30.1844 48.4446 29.5823 48.2404 29.0301M22.4602 6.48004C22.362 4.9355 22.5658 3.38662 23.0602 1.92004M20.9102 2.29004C20.6374 3.07862 20.4922 3.9057 20.4802 4.74004M55.6702 10.48L56.5202 13C56.5539 13.1027 56.6113 13.196 56.6878 13.2725C56.7642 13.3489 56.8575 13.4063 56.9602 13.44L59.5202 14.29C59.659 14.3387 59.7793 14.4294 59.8644 14.5494C59.9495 14.6694 59.9952 14.8129 59.9952 14.96C59.9952 15.1072 59.9495 15.2507 59.8644 15.3707C59.7793 15.4907 59.659 15.5814 59.5202 15.63L57.0002 16.52C56.8975 16.5538 56.8042 16.6112 56.7278 16.6876C56.6513 16.7641 56.5939 16.8574 56.5602 16.96L55.7102 19.52C55.6615 19.6589 55.5709 19.7792 55.4508 19.8643C55.3308 19.9494 55.1873 19.9951 55.0402 19.9951C54.893 19.9951 54.7495 19.9494 54.6295 19.8643C54.5095 19.7792 54.4189 19.6589 54.3702 19.52L53.4802 17C53.4464 16.8974 53.389 16.8041 53.3126 16.7276C53.2362 16.6512 53.1429 16.5938 53.0402 16.56L50.4802 15.71C50.3413 15.6614 50.221 15.5707 50.1359 15.4507C50.0508 15.3307 50.0051 15.1872 50.0051 15.04C50.0051 14.8929 50.0508 14.7494 50.1359 14.6294C50.221 14.5094 50.3413 14.4187 50.4802 14.37L53.0002 13.48C53.1029 13.4463 53.1962 13.3889 53.2726 13.3125C53.349 13.236 53.4064 13.1427 53.4402 13.04L54.2902 10.48C54.3277 10.3253 54.4161 10.1877 54.5413 10.0893C54.6664 9.99088 54.821 9.93738 54.9802 9.93738C55.1394 9.93738 55.294 9.99088 55.4191 10.0893C55.5442 10.1877 55.6327 10.3253 55.6702 10.48ZM35.1468 23.995C36.2562 24.271 36.9729 25.229 36.7476 26.1347C36.5223 27.0405 35.4402 27.551 34.3308 27.275C33.2214 26.999 32.5047 26.041 32.73 25.1353C32.9554 24.2295 34.0374 23.719 35.1468 23.995ZM7.00018 16.6L7.64018 18.6C7.66089 18.692 7.70488 18.777 7.76792 18.8471C7.83096 18.9171 7.91094 18.9698 8.00018 19L9.92018 19.68C10.0256 19.7242 10.1157 19.7985 10.1791 19.8937C10.2424 19.9889 10.2762 20.1007 10.2762 20.215C10.2762 20.3294 10.2424 20.4412 10.1791 20.5364C10.1157 20.6315 10.0256 20.7059 9.92018 20.75L8.00018 21.43C7.92226 21.4596 7.85206 21.5064 7.79489 21.5671C7.73772 21.6277 7.69508 21.7005 7.67018 21.78L7.03018 23.78C6.99914 23.8887 6.93355 23.9843 6.84333 24.0523C6.75312 24.1204 6.64319 24.1572 6.53018 24.1572C6.41718 24.1572 6.30725 24.1204 6.21703 24.0523C6.12681 23.9843 6.06122 23.8887 6.03018 23.78L5.39018 21.78C5.36401 21.7012 5.32092 21.629 5.26391 21.5685C5.20691 21.5081 5.13737 21.4608 5.06018 21.43L3.14018 20.75C3.03472 20.7059 2.94465 20.6315 2.88131 20.5364C2.81797 20.4412 2.78418 20.3294 2.78418 20.215C2.78418 20.1007 2.81797 19.9889 2.88131 19.8937C2.94465 19.7985 3.03472 19.7242 3.14018 19.68L5.06018 19C5.13737 18.9693 5.20691 18.922 5.26391 18.8616C5.32092 18.8011 5.36401 18.7289 5.39018 18.65L6.03018 16.65C6.0627 16.5499 6.12482 16.4621 6.20835 16.398C6.29187 16.334 6.39287 16.2968 6.49798 16.2914C6.6031 16.2859 6.70738 16.3126 6.79705 16.3677C6.88672 16.4228 6.95755 16.5038 7.00018 16.6ZM27.273 54.5938C29.2149 55.2121 30.5337 56.5153 30.2187 57.5047C29.9038 58.494 28.0742 58.7949 26.1323 58.1766C24.1904 57.5584 22.8716 56.2552 23.1865 55.2658C23.5015 54.2764 25.3311 53.9756 27.273 54.5938ZM32.0002 5.50004C32.0002 6.32847 31.3286 7.00004 30.5002 7.00004C29.6718 7.00004 29.0002 6.32847 29.0002 5.50004C29.0002 4.67162 29.6718 4.00004 30.5002 4.00004C31.3286 4.00004 32.0002 4.67162 32.0002 5.50004Z" stroke="#494A4A" stroke-linecap="round" stroke-linejoin="round"/>
</g>
</g>
<defs>
<clipPath id="clip0_426_1554">
<rect width="64" height="64" fill="white"/>
</clipPath>
</defs>
</svg>
