<svg width="64" height="64" viewBox="0 0 64 64" fill="none" xmlns="http://www.w3.org/2000/svg">
<g id="Pictogram-invoice-search-euro" clip-path="url(#clip0_622_42003)">
<g id="stroke-default">
<path id="2px" d="M10.0032 23.0203C9.95914 23.5708 10.3697 24.0528 10.9203 24.0968C11.4708 24.1409 11.9528 23.7303 11.9968 23.1797L10.0032 23.0203ZM14.4 18.4L14.6216 19.3751C14.6286 19.3735 14.6356 19.3719 14.6425 19.3701L14.4 18.4ZM20.5 17.3L20.2751 16.3256L20.271 16.3266L20.5 17.3ZM24.8 12.9L23.8338 12.6423C23.8309 12.6532 23.8281 12.6642 23.8256 12.6751L24.8 12.9ZM25.4 7.6L24.4122 7.44404L24.4116 7.44794L25.4 7.6ZM51.3783 58.4348C51.7841 58.0602 51.8094 57.4275 51.4348 57.0217C51.0602 56.6159 50.4275 56.5906 50.0217 56.9652L51.3783 58.4348ZM45.7 59.8L45.6501 58.8012L45.6401 58.8018L45.7 59.8ZM16.6 59.6L16.6654 58.6021L16.6587 58.6017L16.6 59.6ZM11.1 53.3L10.1001 53.3169L10.1002 53.3222L11.1 53.3ZM48 4.5L47.8896 5.49388C47.8953 5.49452 47.901 5.4951 47.9067 5.49563L48 4.5ZM52.5 10.4L51.505 10.4995L51.5053 10.5029L52.5 10.4ZM52.0001 31.411C52.0061 31.9632 52.4587 32.406 53.011 32.3999C53.5632 32.3939 54.006 31.9413 53.9999 31.389L52.0001 31.411ZM53 55.4L53.9312 55.0356C53.7812 54.6523 53.4117 54.4 53 54.4V55.4ZM57.6 62.2L58.3593 61.5492L58.3526 61.5415L57.6 62.2ZM60 62.9L60.2425 63.8701C60.2598 63.8658 60.277 63.861 60.2941 63.8558L60 62.9ZM62.8 60.3L63.7104 60.7138L63.7138 60.7061L62.8 60.3ZM62.4 58.1L63.232 57.5453C63.2201 57.5273 63.2075 57.5097 63.1944 57.4926L62.4 58.1ZM56.4 53.1L55.9528 53.9944L56.4 53.1ZM52.9 55.4L51.9637 55.7511C52.11 56.1414 52.4832 56.4 52.9 56.4V55.4ZM41.7674 11.2728C42.3046 11.4013 42.8441 11.0699 42.9726 10.5328C43.101 9.99566 42.7697 9.4561 42.2326 9.32765L41.7674 11.2728ZM42.1644 19.7866C42.7092 19.6958 43.0772 19.1806 42.9864 18.6358C42.8956 18.0911 42.3804 17.723 41.8356 17.8138L42.1644 19.7866ZM11.9968 23.1797C12.0887 22.0316 12.3577 21.1721 12.774 20.5665C13.1725 19.987 13.7503 19.5732 14.6216 19.3751L14.1784 17.4249C12.8497 17.7268 11.8275 18.413 11.126 19.4335C10.4423 20.4279 10.1113 21.6684 10.0032 23.0203L11.9968 23.1797ZM14.6425 19.3701C15.1896 19.2334 16.2323 19.0666 17.4217 18.8747C18.5722 18.6892 19.8368 18.4834 20.729 18.2734L20.271 16.3266C19.4632 16.5166 18.2778 16.7108 17.1033 16.9003C15.9677 17.0834 14.8104 17.2666 14.1575 17.4299L14.6425 19.3701ZM20.7249 18.2744C22.1334 17.9493 23.263 17.4327 24.1198 16.5441C24.9715 15.6609 25.4541 14.513 25.7744 13.1249L23.8256 12.6751C23.5459 13.887 23.1785 14.6391 22.6802 15.1559C22.187 15.6673 21.4665 16.0507 20.2751 16.3256L20.7249 18.2744ZM25.7662 13.1577C25.9932 12.3066 26.0976 11.2193 26.1721 10.2517C26.2507 9.2291 26.2961 8.35206 26.3884 7.75206L24.4116 7.44794C24.3039 8.14794 24.2493 9.1709 24.1779 10.0983C24.1024 11.0807 24.0068 11.9934 23.8338 12.6423L25.7662 13.1577ZM26.3878 7.75596C26.6028 6.39392 27.8376 5 30.3 5V3C26.9624 3 24.7972 5.00608 24.4122 7.44404L26.3878 7.75596ZM50.0217 56.9652C48.8824 58.0169 47.4011 58.7137 45.6501 58.8012L45.7499 60.7988C47.9989 60.6863 49.9176 59.7831 51.3783 58.4348L50.0217 56.9652ZM45.6401 58.8018C40.6865 59.099 22.7286 58.9997 16.6654 58.6021L16.5346 60.5979C22.6714 61.0003 40.7135 61.101 45.7599 60.7982L45.6401 58.8018ZM16.6587 58.6017C15.0886 58.5094 14.0306 58.1039 13.3377 57.374C12.6399 56.6389 12.1469 55.4009 12.0998 53.2778L10.1002 53.3222C10.1531 55.6991 10.7101 57.5111 11.8873 58.751C13.0694 59.9961 14.7114 60.4906 16.5413 60.5983L16.6587 58.6017ZM12.0999 53.2831C12 47.394 12 27.7062 12 24.1H10C10 27.6938 9.99996 47.406 10.1001 53.3169L12.0999 53.2831ZM12 24.1C12 20.6409 12.8451 18.3366 14.1423 16.4081C15.4836 14.4139 17.2946 12.8196 19.4071 10.7071L17.9929 9.29289C16.0054 11.2804 13.9664 13.0861 12.4827 15.2919C10.9549 17.5634 10 20.2591 10 24.1H12ZM19.4071 10.7071C22.6925 7.42175 25.4369 5 30.3 5V3C24.5631 3 21.3075 5.97824 17.9929 9.29289L19.4071 10.7071ZM30.3 5C34.0289 5 43.4589 5.00159 47.8896 5.49388L48.1104 3.50612C43.5411 2.99841 33.9711 3 30.3 3V5ZM47.9067 5.49563C49.3457 5.63054 50.0445 6.03019 50.4885 6.6468C50.9942 7.34923 51.3058 8.50784 51.505 10.4995L53.495 10.3005C53.2942 8.29216 52.9558 6.65077 52.1115 5.4782C51.2055 4.21981 49.8543 3.66946 48.0933 3.50437L47.9067 5.49563ZM51.5053 10.5029C51.7991 13.343 51.8996 22.2724 52.0001 31.411L53.9999 31.389C53.9004 22.3276 53.8009 13.257 53.4947 10.2971L51.5053 10.5029ZM54 43.5C54 49.299 49.299 54 43.5 54V56C50.4036 56 56 50.4036 56 43.5H54ZM43.5 54C37.701 54 33 49.299 33 43.5H31C31 50.4036 36.5964 56 43.5 56V54ZM33 43.5C33 37.701 37.701 33 43.5 33V31C36.5964 31 31 36.5964 31 43.5H33ZM43.5 33C49.299 33 54 37.701 54 43.5H56C56 36.5964 50.4036 31 43.5 31V33ZM51.2929 52.7071L53.2929 54.7071L54.7071 53.2929L52.7071 51.2929L51.2929 52.7071ZM52.0688 55.7644C53.0392 58.2443 55.4492 61.2605 56.8474 62.8585L58.3526 61.5415C56.9509 59.9395 54.7609 57.1557 53.9312 55.0356L52.0688 55.7644ZM56.8407 62.8508C57.736 63.8953 59.1539 64.1423 60.2425 63.8701L59.7575 61.9299C59.2461 62.0577 58.664 61.9047 58.3593 61.5492L56.8407 62.8508ZM60.2941 63.8558C61.9345 63.351 63.1244 62.003 63.7104 60.7138L61.8896 59.8862C61.4756 60.797 60.6655 61.649 59.7059 61.9442L60.2941 63.8558ZM63.7138 60.7061C63.964 60.1432 64.0906 59.5872 63.9494 58.9751C63.8265 58.4426 63.514 57.9682 63.232 57.5453L61.5679 58.6547C61.886 59.1318 61.9735 59.3074 62.0006 59.4249C62.0094 59.4628 62.036 59.5568 61.8862 59.8939L63.7138 60.7061ZM63.1944 57.4926C62.4806 56.5592 61.3679 55.4798 60.2268 54.5311C59.0873 53.5836 57.8451 52.7045 56.8472 52.2056L55.9528 53.9944C56.7549 54.3955 57.8627 55.1664 58.9482 56.0689C60.0321 56.9702 61.0194 57.9408 61.6056 58.7075L63.1944 57.4926ZM56.8472 52.2056C56.2275 51.8957 55.5338 52.0372 55.0796 52.185C54.5688 52.3513 54.049 52.6292 53.5988 52.9366C53.1504 53.2426 52.7161 53.6152 52.4017 54.0046C52.2457 54.1977 52.0896 54.4312 51.9892 54.6939C51.891 54.9507 51.8088 55.3382 51.9637 55.7511L53.8363 55.0489C53.8758 55.1541 53.8808 55.2469 53.8762 55.3097C53.8719 55.3695 53.8589 55.404 53.8573 55.4081C53.8565 55.4102 53.8777 55.3601 53.9577 55.2611C54.1151 55.0661 54.3871 54.8199 54.7262 54.5885C55.0635 54.3583 55.4125 54.18 55.6986 54.0868C56.0412 53.9753 56.0725 54.0543 55.9528 53.9944L56.8472 52.2056ZM52.9 56.4H53V54.4H52.9V56.4ZM42.2326 9.32765C39.8453 8.75679 37.9678 8.85187 36.6785 9.81013C35.3685 10.7837 35 12.3939 35 14.0002H37C37 12.6066 37.3315 11.8167 37.8715 11.4153C38.4322 10.9986 39.5547 10.7437 41.7674 11.2728L42.2326 9.32765ZM35 14.0002C35 16.0107 35.2789 17.8306 36.5356 18.9476C37.804 20.0751 39.7268 20.1929 42.1644 19.7866L41.8356 17.8138C39.4732 18.2076 38.396 17.9254 37.8644 17.4528C37.3211 16.9699 37 15.9897 37 14.0002H35Z" fill="#494A4A"/>
<path id="1px" d="M59 57.9C59.5 58.3 60.5 59 60.5 59.6M37.5 39.1C36.1 40 35.2 42.7 35.8 44.8M26.2002 27.5C26.9002 27.5 41.1002 27.3 42.5002 27.5M22.5 33.5C23.8 33.5 28 33.5 28.8 33.5M22.5 39.5C25.2 39.5 26.9 39.5 27.6 39.5M22.5 45.5C24 45.5 27.2 45.5 27.6 45.5M34.5 15.5002H40M34.5 13.5002H40" stroke="#494A4A" stroke-linecap="round" stroke-linejoin="round"/>
</g>
</g>
<defs>
<clipPath id="clip0_622_42003">
<rect width="64" height="64" fill="white"/>
</clipPath>
</defs>
</svg>
