<svg width="64" height="64" viewBox="0 0 64 64" fill="none" xmlns="http://www.w3.org/2000/svg">
<g id="Pictogram-phone-accepted">
<g id="stroke-default">
<path id="2px-stroke-default" d="M34.43 61.92C29.0932 62.171 23.745 62.0239 18.43 61.48C16.6362 61.1753 14.9998 60.2682 13.7908 58.9084C12.5819 57.5485 11.8726 55.8172 11.78 54C10.68 42 10.78 20.32 11.78 12C12.47 6.00002 15.14 3.07002 19.47 2.55002C26.1178 1.83977 32.8223 1.83977 39.47 2.55002C43.69 3.11002 46.47 6.00002 47.05 12C47.37 15.35 47.81 22.6 47.99 29.76M63 48.5C63 56.5082 56.5126 63 48.51 63C40.5074 63 34.02 56.5082 34.02 48.5C34.02 40.4919 40.5074 34 48.51 34C56.5126 34 63 40.4919 63 48.5Z" stroke="#494A4A" stroke-width="2" stroke-linecap="round" stroke-linejoin="round"/>
<path id="1px-stroke-default" d="M33.6803 59.4996C33.9562 59.4884 34.1709 59.2557 34.1597 58.9798C34.1485 58.7039 33.9158 58.4892 33.6399 58.5004L33.6803 59.4996ZM18.6601 58.58L18.5985 59.0764L18.612 59.0777L18.6601 58.58ZM12.1801 51.84L12.6784 51.798L12.6776 51.79L12.1801 51.84ZM12.1701 14L12.6662 14.0623L12.6663 14.0616L12.1701 14ZM19.6901 5.48999L19.6411 4.99228L19.6304 4.99357L19.6901 5.48999ZM39.2501 5.48999L39.3116 4.99362L39.2991 4.99239L39.2501 5.48999ZM46.6601 14L46.1629 14.0524L46.1629 14.0526L46.6601 14ZM46.9502 29.3563C46.9537 29.6325 47.1803 29.8535 47.4565 29.85C47.7326 29.8464 47.9536 29.6198 47.9501 29.3436L46.9502 29.3563ZM35.6062 22.3851C35.7747 22.1664 35.734 21.8524 35.5152 21.6839C35.2965 21.5154 34.9825 21.5561 34.814 21.7749L35.6062 22.3851ZM22.404 37.8849C22.2355 38.1036 22.2762 38.4176 22.495 38.5861C22.7137 38.7546 23.0277 38.7139 23.1962 38.4951L22.404 37.8849ZM34.02 29.6701C34.1858 29.4493 34.1411 29.1359 33.9203 28.9701C33.6994 28.8043 33.386 28.849 33.2202 29.0698L34.02 29.6701ZM26.6002 37.8898C26.4345 38.1107 26.4791 38.4241 26.7 38.5899C26.9208 38.7556 27.2342 38.711 27.4 38.4901L26.6002 37.8898ZM40.5301 50.22L40.8997 49.8833L40.8978 49.8811L40.5301 50.22ZM43.8601 47.78L44.1647 47.3834L44.1635 47.3825L43.8601 47.78ZM52.9601 41.71L53.3297 42.0467L53.3311 42.0452L52.9601 41.71ZM56.4701 43.84L56.0777 43.5299L56.0712 43.5386L56.4701 43.84ZM33.6399 58.5004C28.659 58.7019 23.6701 58.5622 18.7083 58.0823L18.612 59.0777C23.6192 59.562 28.6538 59.7029 33.6803 59.4996L33.6399 58.5004ZM18.7217 58.0838C17.1461 57.8883 15.6857 57.157 14.5854 56.0125L13.8645 56.7056C15.1239 58.0154 16.7953 58.8524 18.5985 59.0762L18.7217 58.0838ZM14.5854 56.0125C13.4851 54.868 12.8118 53.38 12.6783 51.798L11.6819 51.882C11.8346 53.6926 12.6052 55.3957 13.8645 56.7056L14.5854 56.0125ZM12.6776 51.79C11.5907 40.9803 11.7317 21.4986 12.6662 14.0623L11.674 13.9376C10.7285 21.4614 10.5896 41.0197 11.6826 51.89L12.6776 51.79ZM12.6663 14.0616C12.9932 11.4266 13.7861 9.53651 14.9608 8.24812C16.1297 6.96623 17.7218 6.23035 19.7498 5.98641L19.6304 4.99357C17.4184 5.25963 15.5856 6.07875 14.2219 7.57436C12.8641 9.06347 12.017 11.1734 11.6739 13.9384L12.6663 14.0616ZM19.7391 5.98759C26.2108 5.35057 32.7294 5.35057 39.2011 5.98759L39.2991 4.99239C32.7622 4.34897 26.178 4.34897 19.6411 4.99239L19.7391 5.98759ZM39.1887 5.9862C41.1563 6.22977 42.7472 6.96266 43.917 8.24454C45.0911 9.53098 45.8854 11.419 46.1629 14.0524L47.1574 13.9476C46.8648 11.171 46.0142 9.059 44.6557 7.57044C43.293 6.07732 41.4639 5.26021 39.3115 4.99378L39.1887 5.9862ZM46.1629 14.0526C46.6307 18.4719 46.8803 23.8552 46.9502 29.3563L47.9501 29.3436C47.88 23.8248 47.6295 18.4081 47.1573 13.9474L46.1629 14.0526ZM30.0001 9.01999C30.0001 9.57228 29.5524 10.02 29.0001 10.02V11.02C30.1047 11.02 31.0001 10.1246 31.0001 9.01999H30.0001ZM29.0001 10.02C28.4478 10.02 28.0001 9.57228 28.0001 9.01999H27.0001C27.0001 10.1246 27.8955 11.02 29.0001 11.02V10.02ZM28.0001 9.01999C28.0001 8.46771 28.4478 8.01999 29.0001 8.01999V7.01999C27.8955 7.01999 27.0001 7.91542 27.0001 9.01999H28.0001ZM29.0001 8.01999C29.5524 8.01999 30.0001 8.46771 30.0001 9.01999H31.0001C31.0001 7.91542 30.1047 7.01999 29.0001 7.01999V8.01999ZM34.814 21.7749L22.404 37.8849L23.1962 38.4951L35.6062 22.3851L34.814 21.7749ZM33.2202 29.0698L26.6002 37.8898L27.4 38.4901L34.02 29.6701L33.2202 29.0698ZM40.8978 49.8811C41.0445 50.0404 40.959 50.2055 40.9782 50.1629C40.9932 50.1298 41.0446 50.0505 41.1619 49.9264C41.3882 49.6873 41.7515 49.3938 42.1604 49.1115C42.5664 48.8312 42.9918 48.5795 43.329 48.4183C43.5001 48.3365 43.6308 48.2866 43.7159 48.2642C43.7594 48.2527 43.7712 48.2539 43.7599 48.254C43.759 48.254 43.6619 48.2577 43.5568 48.1775L44.1635 47.3825C44.0108 47.266 43.8425 47.2531 43.75 47.254C43.647 47.255 43.5468 47.2746 43.4614 47.2971C43.2886 47.3426 43.0934 47.4225 42.8977 47.5161C42.5016 47.7055 42.0301 47.9863 41.5923 48.2885C41.1575 48.5887 40.7302 48.9277 40.4355 49.2392C40.2924 49.3905 40.1507 49.5659 40.0671 49.7508C39.9878 49.9261 39.8982 50.2721 40.1624 50.5588L40.8978 49.8811ZM43.5556 48.1765C44.4557 48.8679 45.0731 49.7361 45.5472 50.4651C45.7745 50.8146 45.9906 51.1674 46.1747 51.4144C46.2683 51.54 46.3751 51.6686 46.495 51.7687C46.611 51.8656 46.7969 51.9843 47.0392 51.9799L47.021 50.9801C47.1258 50.9782 47.1702 51.0297 47.1361 51.0012C47.106 50.9761 47.0543 50.9212 46.9765 50.8168C46.8178 50.6039 46.6395 50.3104 46.3855 49.9199C45.8971 49.1689 45.2045 48.1821 44.1647 47.3834L43.5556 48.1765ZM47.0392 51.9799C47.2791 51.9755 47.4395 51.8274 47.5013 51.7656C47.5822 51.6848 47.6538 51.5859 47.7156 51.4903C47.8414 51.2962 47.9817 51.0298 48.1333 50.7239C48.2867 50.4144 48.4616 50.0439 48.6558 49.635C48.8509 49.2242 49.0673 48.7705 49.3069 48.287C50.2681 46.3472 51.5882 43.9585 53.3297 42.0467L52.5905 41.3733C50.752 43.3915 49.3822 45.8828 48.4108 47.843C48.1673 48.3345 47.9479 48.7945 47.7525 49.2061C47.5562 49.6195 47.3859 49.9799 47.2373 50.2798C47.0868 50.5833 46.9683 50.8048 46.8763 50.9467C46.8294 51.0192 46.8024 51.0503 46.7947 51.058C46.768 51.0847 46.8499 50.9832 47.021 50.9801L47.0392 51.9799ZM53.3311 42.0452C53.3175 42.0603 53.3177 42.0423 53.3908 42.0358C53.469 42.0288 53.5913 42.0401 53.7594 42.087C54.0946 42.1806 54.5074 42.3859 54.9043 42.6483C55.3007 42.9104 55.6439 43.2048 55.8516 43.4512C55.9581 43.5775 56.0052 43.6635 56.0198 43.7045C56.0349 43.7468 55.9872 43.6446 56.0778 43.53L56.8624 44.15C57.0755 43.8803 57.0334 43.5694 56.9616 43.3683C56.8894 43.166 56.7571 42.9739 56.6162 42.8066C56.3288 42.4658 55.9045 42.1108 55.4559 41.8142C55.0078 41.5179 54.4981 41.255 54.0283 41.1239C53.7939 41.0584 53.5431 41.0183 53.302 41.0398C53.0556 41.0617 52.7903 41.1522 52.5891 41.3748L53.3311 42.0452ZM56.0712 43.5386C53.8227 46.5146 52.1106 49.5416 50.8943 51.8724C50.2873 53.0358 49.7995 54.034 49.4367 54.7539C49.2536 55.1172 49.1047 55.405 48.9861 55.6138C48.9267 55.7184 48.8793 55.7955 48.8425 55.849C48.7989 55.9122 48.7917 55.9104 48.8178 55.8896L49.4425 56.6704C49.5373 56.5946 49.6128 56.4935 49.6661 56.416C49.7262 56.3288 49.7897 56.2237 49.8557 56.1076C49.9878 55.875 50.1466 55.5673 50.3297 55.2039C50.6994 54.4704 51.178 53.4904 51.7809 52.3351C52.9846 50.0284 54.6675 47.0554 56.8691 44.1414L56.0712 43.5386ZM48.8178 55.8896C48.82 55.8878 48.8122 55.8942 48.7881 55.9059C48.7646 55.9172 48.7315 55.9305 48.6872 55.9448C48.5976 55.9735 48.48 56.0001 48.3366 56.0223C48.05 56.0667 47.6981 56.0881 47.3393 56.0887C46.9815 56.0893 46.6308 56.0693 46.3494 56.0353C46.2083 56.0183 46.0914 55.9986 46.0032 55.9783C45.9032 55.9553 45.8776 55.9397 45.8914 55.9477L45.3888 56.8122C45.5101 56.8828 45.657 56.9247 45.7788 56.9528C45.9122 56.9835 46.0663 57.0084 46.2296 57.0281C46.5569 57.0676 46.9487 57.0894 47.341 57.0887C47.7321 57.0881 48.1377 57.0651 48.4899 57.0105C48.6659 56.9832 48.8379 56.9466 48.9926 56.897C49.1411 56.8494 49.3057 56.7798 49.4425 56.6704L48.8178 55.8896ZM45.8914 55.9477C45.9048 55.9555 45.8851 55.9464 45.8219 55.8772C45.7636 55.8133 45.6891 55.7217 45.5896 55.5923C45.3824 55.3227 45.1327 54.9772 44.7435 54.4641C43.9855 53.4648 42.806 51.9756 40.8997 49.8833L40.1605 50.5567C42.0443 52.6244 43.2047 54.0902 43.9468 55.0684C44.3075 55.544 44.5979 55.9429 44.7968 56.2018C44.9005 56.3366 44.9957 56.4552 45.0831 56.5511C45.1658 56.6417 45.2679 56.742 45.3888 56.8122L45.8914 55.9477Z" fill="#494A4A"/>
</g>
</g>
</svg>
