<svg width="64" height="64" viewBox="0 0 64 64" fill="none" xmlns="http://www.w3.org/2000/svg">
<g id="Pictogram-recycled-can" clip-path="url(#clip0_622_42014)">
<g id="stroke-default">
<path id="2px" d="M48.5 26.9999L49.9 14.3999M17.9 47.8999L19 57.2999C19.2 59.1999 20.5 60.7999 22.4 61.3999C24.7 62.1999 28.9 62.9999 33.4 62.9999M14.2 14.3999L15.3 27.2999M14.3 26.6999C13.1 27.7999 14.7 35.9999 16.3 45.8999C16.6 47.9999 21.2 49.1999 26.7 49.5999M12 13.3999V11.7999C12 10.5999 12.5 9.3999 13.4 8.4999C13.4 8.4999 14.2 7.39989 14.3 6.69989L14.5 5.49989C14.9 3.49989 16.3 3.19989 18.2 2.69989C22.8 1.39989 34.4 -0.400105 44.9 2.49989C47.2 3.09989 49.1 3.7999 49.5 6.19989V6.69989C49.7 7.39989 50.1 7.9999 50.6 8.4999C51.5 9.3999 52 10.4999 52 11.7999V13.3999C52 13.3999 31.9 21.0999 12 13.3999ZM38.8998 50.9C38.8998 50.9 41.5998 52.7 41.9998 52C42.3998 51.3 40.3998 44.8 38.9998 44.1C37.5998 43.4 30.7998 46.7 30.7998 47.5C30.7998 48.3 33.1998 48.7 33.4998 48.8C31.2998 57.5 37.5998 62.4 44.1998 60.7C45.3998 60.4 44.9998 56.2 44.1998 55.7C43.3998 55.2 38.0998 57 38.8998 50.9ZM49.7998 38.7C49.7998 38.7 46.9998 40.2 47.2998 40.9C47.5998 41.6 54.3998 43.1 55.6998 42.1C56.9998 41.1 57.1998 33.8 56.4998 33.4C55.7998 33 54.4998 34.7 54.1998 34.9C47.6998 28.8 40.3998 31.9 38.6998 38.5C38.3998 39.7 42.2998 41.4 43.0998 41C43.8998 40.6 44.8998 35 49.8998 38.6L49.7998 38.7ZM54.3998 54.3C54.3998 54.3 54.4998 51.1 53.7998 51C53.0998 50.9 48.3998 56 48.4998 57.6C48.5998 59.2 54.8998 63.3 55.5998 62.9C56.2998 62.5 55.3998 60.3 55.3998 59.9C63.8998 57.3 64.9998 49.5 60.0998 44.6C59.1998 43.7 55.7998 46.3 55.7998 47.2C55.7998 48.1 59.9998 51.8 54.3998 54.2V54.3Z" stroke="#494A4A" stroke-width="2" stroke-linecap="round" stroke-linejoin="round"/>
<path id="1px" d="M19.6002 10.3998C19.6002 10.3998 35.1002 13.7998 48.1002 9.5998M42.3002 6.9998C41.4002 7.1998 39.5002 7.49981 37.1002 7.5998C36.1002 7.6998 34.0002 7.6998 32.9002 7.6998C30.8002 7.7998 27.3002 7.6998 25.4002 7.5998C17.1002 6.9998 18.1002 5.7998 18.1002 5.7998M36.9002 31.0998C27.6002 31.6998 16.1002 30.6998 14.7002 27.6998M18.7002 43.4998C18.7002 43.4998 18.7002 45.0998 20.0002 45.2998" stroke="#494A4A" stroke-linecap="round" stroke-linejoin="round"/>
</g>
</g>
<defs>
<clipPath id="clip0_622_42014">
<rect width="64" height="64" fill="white"/>
</clipPath>
</defs>
</svg>
