<svg width="64" height="64" viewBox="0 0 64 64" fill="none" xmlns="http://www.w3.org/2000/svg">
<g id="Pictogram-data-collect">
<g id="stroke-default">
<g id="2px">
<path d="M32.1002 44.3C36.4632 44.3 40.0002 40.7631 40.0002 36.4C40.0002 32.037 36.4632 28.5 32.1002 28.5C27.7371 28.5 24.2002 32.037 24.2002 36.4C24.2002 40.7631 27.7371 44.3 32.1002 44.3Z" stroke="#494A4A" stroke-width="2" stroke-linecap="round" stroke-linejoin="round"/>
<path d="M17.8998 25.4002C19.6119 25.4002 20.9998 24.0123 20.9998 22.3002C20.9998 20.5881 19.6119 19.2002 17.8998 19.2002C16.1877 19.2002 14.7998 20.5881 14.7998 22.3002C14.7998 24.0123 16.1877 25.4002 17.8998 25.4002Z" stroke="#494A4A" stroke-width="2" stroke-linecap="round" stroke-linejoin="round"/>
<path d="M50.9002 28.4996C53.4959 28.4996 55.6002 26.3953 55.6002 23.7996C55.6002 21.2039 53.4959 19.0996 50.9002 19.0996C48.3045 19.0996 46.2002 21.2039 46.2002 23.7996C46.2002 26.3953 48.3045 28.4996 50.9002 28.4996Z" stroke="#494A4A" stroke-width="2" stroke-linecap="round" stroke-linejoin="round"/>
<path d="M31.2998 17.5C34.3374 17.5 36.7998 15.0376 36.7998 12C36.7998 8.96243 34.3374 6.5 31.2998 6.5C28.2622 6.5 25.7998 8.96243 25.7998 12C25.7998 15.0376 28.2622 17.5 31.2998 17.5Z" stroke="#494A4A" stroke-width="2" stroke-linecap="round" stroke-linejoin="round"/>
<path d="M13.1999 47.3998C16.6793 47.3998 19.4999 44.5792 19.4999 41.0998C19.4999 37.6204 16.6793 34.7998 13.1999 34.7998C9.72051 34.7998 6.8999 37.6204 6.8999 41.0998C6.8999 44.5792 9.72051 47.3998 13.1999 47.3998Z" stroke="#494A4A" stroke-width="2" stroke-linecap="round" stroke-linejoin="round"/>
<path d="M28.8998 58.4002C30.6119 58.4002 31.9998 57.0123 31.9998 55.3002C31.9998 53.5881 30.6119 52.2002 28.8998 52.2002C27.1877 52.2002 25.7998 53.5881 25.7998 55.3002C25.7998 57.0123 27.1877 58.4002 28.8998 58.4002Z" stroke="#494A4A" stroke-width="2" stroke-linecap="round" stroke-linejoin="round"/>
<path d="M50.1001 60C53.1377 60 55.6001 57.5376 55.6001 54.5C55.6001 51.4624 53.1377 49 50.1001 49C47.0625 49 44.6001 51.4624 44.6001 54.5C44.6001 57.5376 47.0625 60 50.1001 60Z" stroke="#494A4A" stroke-width="2" stroke-linecap="round" stroke-linejoin="round"/>
</g>
<path id="1px" d="M39.1001 32.8996L47.0001 27.5996M37.5 42.0996L46.1 50.7996M29.6001 52.2002L30.7001 44.2002M19.3999 39.8998L24.5999 38.7998M20.2998 24.2998L23.8998 27.9998M31.6001 17.5L32.1001 28.5" stroke="#494A4A" stroke-linecap="round" stroke-linejoin="round"/>
</g>
</g>
</svg>
