<svg width="64" height="64" viewBox="0 0 64 64" fill="none" xmlns="http://www.w3.org/2000/svg">
<g id="Pictogram-credit-card">
<g id="stroke-default">
<path id="2px" d="M8.35 42.7599C21.63 42.9999 54.57 42.9999 62.6 42.9999M8.35 49.8099C15.35 50.0399 57.41 50.0399 62.35 50.0399M4.67 39.4999C2.79 31.9999 1 22.8599 1 19.9999C1 17.7799 1.47 16.5799 3.33 15.5599C7.83 13.0799 40.56 5.99988 45.83 5.24988C51.1 4.49988 52.88 6.11987 53.72 8.60987C54.45 10.7499 55.29 14.0099 56.1 17.6099M41.47 13.8399C42.0042 13.1267 42.7324 12.5825 43.5676 12.2722C44.4029 11.9618 45.3098 11.8986 46.18 12.0899C47.4599 12.328 48.5932 13.0638 49.3317 14.1359C50.0702 15.208 50.3537 16.5292 50.12 17.8099M34.14 17.8099C33.63 11.8099 42.78 11.3299 43.42 17.4999M11.81 22.3499C16.72 20.8799 50.2 20.8299 55.52 21.1699C60.84 21.5099 62.23 23.4899 62.52 26.1099C63.2024 35.063 63.1388 44.0573 62.33 52.9999C61.85 56.7799 60.75 58.4399 56.45 59.3199C52.15 60.1999 23.87 60.1199 16.29 59.6599C11.81 59.3899 9.29 58.4099 8.8 55.2199C7.75 48.6999 7.8 30.3699 8.6 26.2199C9 23.9999 9.78 22.9999 11.81 22.3499Z" stroke="#494A4A" stroke-width="2" stroke-linecap="round" stroke-linejoin="round"/>
<path id="1px" d="M14.5304 30.5499C17.2004 30.6199 22.1004 30.4499 24.3404 30.4499M14.5404 33.6699C16.2004 33.2999 21.5404 33.7399 24.4604 33.3799M19.4304 30.5699C19.5304 31.2999 19.4304 32.5699 19.5104 33.3799M43.5204 27.4199C47.1804 27.6199 55.1804 27.5199 57.5204 27.2999M35.4804 31.4999C39.8104 31.3599 56.5904 31.5599 57.5604 31.4399M47.0004 35.6199C48.0427 35.4848 49.0981 35.4848 50.1404 35.6199M52.7504 35.5499C53.9504 35.5499 55.7504 35.4799 57.3904 35.3999M19.4204 45.7099C18.6064 47.3033 17.6597 48.8253 16.5904 50.2599M21.4504 47.5099C20.5904 48.6799 20.1304 49.5099 19.6604 50.0299M43.6604 45.3199C43.9694 44.5529 44.3302 43.8079 44.7404 43.0899M40.5804 46.2699C41.0004 45.3399 41.5804 44.1199 41.6904 43.8599M45.5504 47.3499C46.27 45.7248 47.1299 44.1656 48.1204 42.6899M30.8204 56.4699C37.5904 56.7599 38.0104 53.2299 38.7004 54.2699C39.3904 55.3099 39.2604 56.2699 39.7004 56.1899C40.1404 56.1099 41.3104 53.7999 41.7004 53.4099C43.1004 51.9999 41.7004 55.1099 42.3104 56.2399C42.9204 57.3699 44.0704 53.7099 44.5204 53.7899C44.9704 53.8699 44.4304 55.5099 45.4104 56.2199C45.6219 56.3461 45.8577 56.4262 46.1023 56.4549C46.3469 56.4837 46.5948 56.4605 46.8299 56.3869C47.0649 56.3133 47.2817 56.1909 47.4662 56.0277C47.6507 55.8645 47.7986 55.6642 47.9004 55.4399C50.4404 51.3299 48.1804 57.9999 52.5404 52.3399C53.9204 50.5499 53.9404 52.6799 52.8704 55.1899C51.5904 58.1899 55.8704 54.8499 56.1804 54.2899M15.0704 28.0699C14.2504 28.6599 14.2904 35.2699 14.9804 36.0699C15.4804 36.6399 22.8404 36.7299 23.8504 35.9399C24.8604 35.1499 24.4804 30.5299 24.2104 29.1499C24.0704 28.4599 23.7104 27.7499 22.2104 27.5899C20.7104 27.4299 16.0004 27.4199 15.0704 28.0699Z" stroke="#494A4A" stroke-linecap="round" stroke-linejoin="round"/>
</g>
</g>
</svg>
