<svg width="64" height="64" viewBox="0 0 64 64" fill="none" xmlns="http://www.w3.org/2000/svg">
<g id="Pictogram-user-calendar-1" clip-path="url(#clip0_624_21058)">
<g id="stroke-default">
<path id="2px" d="M34.3985 64C34.9507 63.9953 35.3946 63.5438 35.39 62.9915C35.3853 62.4393 34.9338 61.9954 34.3815 62L34.3985 64ZM8.76 45L9.34228 45.813L9.34378 45.8119L8.76 45ZM27 32.07C27 31.5177 26.5523 31.07 26 31.07C25.4477 31.07 25 31.5177 25 32.07H27ZM38.9997 31.9774C38.9873 31.4252 38.5295 30.9878 37.9774 31.0003C37.4252 31.0127 36.9878 31.4705 37.0003 32.0226L38.9997 31.9774ZM37.195 34.0026C37.2903 34.5466 37.8086 34.9103 38.3526 34.815C38.8966 34.7197 39.2603 34.2014 39.165 33.6574L37.195 34.0026ZM57.19 37.2L57.14 38.1987L57.1413 38.1988L57.19 37.2ZM62.66 42.3L63.6561 42.212L63.6556 42.2069L62.66 42.3ZM62.66 57.62L63.6545 57.7252C63.6551 57.7195 63.6556 57.7138 63.6561 57.708L62.66 57.62ZM57.19 62.76L57.1468 61.7609C57.141 61.7612 57.1351 61.7615 57.1293 61.7618L57.19 62.76ZM41.88 62.76L41.7975 63.7566C41.8048 63.7572 41.812 63.7577 41.8193 63.7582L41.88 62.76ZM35.31 57.03L34.3138 57.1174C34.3151 57.1325 34.3168 57.1475 34.3188 57.1626L35.31 57.03ZM35.31 42.28L34.3179 42.1543C34.3163 42.1671 34.3149 42.1798 34.3138 42.1926L35.31 42.28ZM40.78 37.18L40.7354 36.181L40.7347 36.181L40.78 37.18ZM55 38.42L54.0008 38.4607C54.0018 38.4835 54.0035 38.5063 54.006 38.5289L55 38.42ZM55.16 35.53L54.1759 35.3523C54.1743 35.3613 54.1728 35.3702 54.1714 35.3792L55.16 35.53ZM55.97 35.53L56.9683 35.4711C56.967 35.4504 56.9652 35.4298 56.9627 35.4093L55.97 35.53ZM55.82 38.53L54.8325 38.3718L54.831 38.3824L55.82 38.53ZM43 38.42L43.9966 38.5019C43.9978 38.4884 43.9986 38.4748 43.9991 38.4612L43 38.42ZM42.84 35.54L43.8284 35.3883C43.8272 35.3804 43.8259 35.3725 43.8245 35.3647L42.84 35.54ZM42.01 35.54L41.0188 35.4078C41.0153 35.4337 41.0129 35.4597 41.0115 35.4858L42.01 35.54ZM42.17 38.54L41.1829 38.7001C41.1839 38.7064 41.185 38.7126 41.1861 38.7189L42.17 38.54ZM34.3815 62C26.1347 62.0699 18.8523 61.7915 13.6516 60.9941C11.041 60.5938 9.03006 60.0732 7.69744 59.4414C6.31314 58.7851 6 58.1859 6 57.77H4C4 59.4141 5.29561 60.5161 6.84069 61.2486C8.43744 62.0056 10.6765 62.5612 13.3484 62.9709C18.7127 63.7935 26.1253 64.0701 34.3985 64L34.3815 62ZM6 57.77C6 55.7233 6.37054 53.0161 7.01303 50.6328C7.33371 49.4433 7.71456 48.3631 8.13482 47.501C8.56748 46.6135 8.99061 46.0649 9.34228 45.813L8.17772 44.187C7.41939 44.7301 6.81752 45.639 6.33706 46.6246C5.84419 47.6356 5.42379 48.8442 5.08197 50.1122C4.39946 52.6439 4 55.5267 4 57.77H6ZM9.34378 45.8119C10.6415 44.8788 12.3073 44.2297 14.1794 43.623C15.9974 43.0339 18.0637 42.4713 19.9021 41.7314C21.7627 40.9827 23.552 39.9955 24.8722 38.4512C26.2146 36.8807 27 34.8197 27 32.07H25C25 34.4053 24.3466 35.988 23.3519 37.1516C22.3349 38.3413 20.8885 39.1786 19.1554 39.8761C17.4001 40.5825 15.5145 41.088 13.5628 41.7204C11.6652 42.3353 9.74353 43.0612 8.17622 44.1881L9.34378 45.8119ZM37.0003 32.0226C37.0153 32.6866 37.0804 33.3484 37.195 34.0026L39.165 33.6574C39.0677 33.1023 39.0125 32.5408 38.9997 31.9774L37.0003 32.0226ZM32 35.5C38.5496 35.5 45 28.1825 45 15.32H43C43 27.7575 36.8704 33.5 32 33.5V35.5ZM45 15.32C45 10.3476 43.8249 6.4976 41.5396 3.87984C39.2356 1.24075 35.9315 0 32 0V2C35.4985 2 38.1944 3.08925 40.0329 5.19516C41.8901 7.3224 43 10.6324 43 15.32H45ZM32 0C28.0685 0 24.7644 1.24075 22.4604 3.87984C20.1751 6.4976 19 10.3476 19 15.32H21C21 10.6324 22.1099 7.3224 23.9671 5.19516C25.8056 3.08925 28.5015 2 32 2V0ZM19 15.32C19 28.2137 25.4513 35.5 32 35.5V33.5C27.1287 33.5 21 27.7863 21 15.32H19ZM57.1413 38.1988C58.6043 38.2702 59.6524 38.7086 60.3607 39.3755C61.0673 40.0409 61.5367 41.0288 61.6643 42.3931L63.6556 42.2069C63.4933 40.4712 62.8677 38.9891 61.7318 37.9195C60.5976 36.8514 59.0557 36.2898 57.2387 36.2012L57.1413 38.1988ZM61.6639 42.388C62.1092 47.4262 62.1092 52.4938 61.6639 57.532L63.6561 57.708C64.1118 52.5527 64.1118 47.3673 63.6561 42.212L61.6639 42.388ZM61.6655 57.5148C61.5459 58.6465 61.0239 59.6976 60.1946 60.4769L61.5642 61.9344C62.7426 60.827 63.4844 59.3333 63.6545 57.7252L61.6655 57.5148ZM60.1946 60.4769C59.3653 61.2562 58.2838 61.7118 57.1468 61.7609L57.2331 63.7591C58.8488 63.6893 60.3857 63.0418 61.5642 61.9344L60.1946 60.4769ZM57.1293 61.7618C52.0711 62.0694 46.9989 62.0694 41.9407 61.7618L41.8193 63.7582C46.9584 64.0707 52.1116 64.0707 57.2507 63.7582L57.1293 61.7618ZM41.9625 61.7634C39.9273 61.595 38.6383 61.0364 37.8118 60.2634C36.9894 59.4941 36.5017 58.397 36.3012 56.8974L34.3188 57.1626C34.5583 58.953 35.1806 60.5409 36.4457 61.7241C37.7067 62.9036 39.4827 63.565 41.7975 63.7566L41.9625 61.7634ZM36.3062 56.9426C35.8809 52.0935 35.8809 47.2165 36.3062 42.3674L34.3138 42.1926C33.8784 47.158 33.8784 52.152 34.3138 57.1174L36.3062 56.9426ZM36.3021 42.4057C36.4752 41.0385 36.9015 40.0424 37.5714 39.3716C38.2298 38.7123 39.24 38.2508 40.8253 38.179L40.7347 36.181C38.79 36.2692 37.2552 36.8577 36.1561 37.9584C35.0685 39.0476 34.5248 40.5215 34.3179 42.1543L36.3021 42.4057ZM40.8246 38.179C46.3949 37.9303 51.9833 37.9404 57.14 38.1987L57.24 36.2013C52.0167 35.9396 46.3651 35.9297 40.7354 36.181L40.8246 38.179ZM55.9992 38.3793C55.9624 37.4771 56.0124 36.5734 56.1486 35.6808L54.1714 35.3792C54.016 36.3985 53.9588 37.4305 54.0008 38.4607L55.9992 38.3793ZM56.1441 35.7077C56.1548 35.6483 56.1617 35.6833 56.1024 35.7559C56.0422 35.8293 55.8742 35.9784 55.5943 35.9824C55.3018 35.9866 55.1105 35.8294 55.0313 35.7265C54.9604 35.6344 54.9693 35.5845 54.9773 35.6507L56.9627 35.4093C56.9257 35.1055 56.8271 34.7806 56.6162 34.5066C56.397 34.2219 56.0332 33.9759 55.5657 33.9826C55.1108 33.9891 54.7653 34.2319 54.5551 34.4885C54.3458 34.7442 54.2302 35.0517 54.1759 35.3523L56.1441 35.7077ZM54.9717 35.5889C55.0266 36.5188 54.9799 37.452 54.8326 38.3718L56.8074 38.6882C56.9778 37.6249 57.0317 36.5461 56.9683 35.4711L54.9717 35.5889ZM54.831 38.3824C54.8279 38.4027 54.8357 38.3133 54.941 38.2041C55.0573 38.0834 55.263 37.9787 55.5114 38.006C55.7471 38.0318 55.8885 38.1605 55.9472 38.2385C56.0051 38.3156 55.9991 38.3571 55.994 38.3111L54.006 38.5289C54.0686 39.1004 54.4274 39.8991 55.2936 39.994C56.2587 40.0998 56.7228 39.2554 56.809 38.6776L54.831 38.3824ZM43.9991 38.4612C44.0416 37.4338 43.9844 36.4047 43.8284 35.3883L41.8516 35.6917C41.9879 36.5804 42.0379 37.4803 42.0009 38.3788L43.9991 38.4612ZM43.8245 35.3647C43.7356 34.8654 43.3613 33.9982 42.4277 33.9851C41.9625 33.9786 41.5986 34.2211 41.3769 34.5036C41.163 34.7762 41.0596 35.1013 41.0188 35.4078L43.0012 35.6722C43.0104 35.6037 43.0195 35.6501 42.9503 35.7383C42.8733 35.8364 42.6863 35.9889 42.3998 35.9849C42.1237 35.981 41.9569 35.8346 41.8962 35.7606C41.837 35.6883 41.8446 35.654 41.8555 35.7153L43.8245 35.3647ZM41.0115 35.4858C40.9532 36.5603 41.0106 37.6379 41.1829 38.7001L43.1571 38.3799C43.0078 37.4594 42.958 36.5254 43.0085 35.5942L41.0115 35.4858ZM41.1861 38.7189C41.2936 39.3099 41.788 40.102 42.7216 39.9947C43.5934 39.8946 43.9483 39.0903 43.9966 38.5019L42.0034 38.3381C41.9917 38.4797 41.9916 38.0654 42.4934 38.0078C42.7306 37.9805 42.9267 38.076 43.0397 38.1861C43.1441 38.2878 43.1563 38.3744 43.1539 38.3611L41.1861 38.7189Z" fill="#494A4A"/>
<path id="1px" d="M12.73 46.09C10 47 9.94 47.34 9 50.87M49.71 45.44C49.2381 45.5351 48.7519 45.5351 48.28 45.44C48.099 45.4123 47.9315 45.3275 47.802 45.198C47.6725 45.0685 47.5877 44.9011 47.56 44.72C47.4741 44.2472 47.4741 43.7628 47.56 43.29C47.597 43.113 47.6848 42.9506 47.8127 42.8227C47.9406 42.6948 48.103 42.607 48.28 42.57C48.7537 42.495 49.2363 42.495 49.71 42.57C49.8893 42.602 50.0544 42.6881 50.1831 42.8169C50.3119 42.9456 50.398 43.1108 50.43 43.29C50.5251 43.7619 50.5251 44.2481 50.43 44.72C50.393 44.897 50.3052 45.0594 50.1773 45.1873C50.0494 45.3152 49.887 45.403 49.71 45.44ZM56.72 45.44C56.2481 45.5351 55.7619 45.5351 55.29 45.44C55.109 45.4123 54.9415 45.3275 54.812 45.198C54.6825 45.0685 54.5977 44.9011 54.57 44.72C54.4841 44.2472 54.4841 43.7628 54.57 43.29C54.607 43.113 54.6948 42.9506 54.8227 42.8227C54.9506 42.6948 55.113 42.607 55.29 42.57C55.7637 42.495 56.2463 42.495 56.72 42.57C56.8993 42.602 57.0644 42.6881 57.1931 42.8169C57.3219 42.9456 57.408 43.1108 57.44 43.29C57.53 43.7624 57.53 44.2476 57.44 44.72C57.3955 44.8935 57.3052 45.0519 57.1785 45.1785C57.0518 45.3052 56.8935 45.3955 56.72 45.44ZM42.72 51.42C42.2447 51.5151 41.7553 51.5151 41.28 51.42C41.1028 51.3895 40.9394 51.3049 40.8122 51.1778C40.6851 51.0506 40.6005 50.8872 40.57 50.71C40.485 50.2338 40.485 49.7463 40.57 49.27C40.6051 49.0938 40.691 48.9317 40.8172 48.8037C40.9434 48.6758 41.1043 48.5876 41.28 48.55C41.7571 48.4751 42.2429 48.4751 42.72 48.55C42.898 48.5825 43.0617 48.669 43.1887 48.7979C43.3158 48.9267 43.4 49.0916 43.43 49.27C43.5251 49.7453 43.5251 50.2347 43.43 50.71C43.3932 50.8844 43.3064 51.0444 43.1804 51.1704C43.0544 51.2965 42.8944 51.3832 42.72 51.42ZM49.71 51.42C49.2381 51.5151 48.7519 51.5151 48.28 51.42C48.101 51.3914 47.9353 51.3076 47.8063 51.1804C47.6772 51.0531 47.5911 50.8886 47.56 50.71C47.475 50.2338 47.475 49.7463 47.56 49.27C47.597 49.093 47.6848 48.9306 47.8127 48.8027C47.9406 48.6748 48.103 48.587 48.28 48.55C48.7537 48.475 49.2363 48.475 49.71 48.55C49.8893 48.582 50.0544 48.6681 50.1831 48.7969C50.3119 48.9256 50.398 49.0908 50.43 49.27C50.5251 49.7453 50.5251 50.2347 50.43 50.71C50.3924 50.8857 50.3042 51.0466 50.1763 51.1728C50.0483 51.299 49.8862 51.3849 49.71 51.42ZM56.72 51.42C56.2481 51.5151 55.7619 51.5151 55.29 51.42C55.111 51.3914 54.9453 51.3076 54.8163 51.1804C54.6872 51.0531 54.6011 50.8886 54.57 50.71C54.485 50.2338 54.485 49.7463 54.57 49.27C54.607 49.093 54.6948 48.9306 54.8227 48.8027C54.9506 48.6748 55.113 48.587 55.29 48.55C55.7637 48.475 56.2463 48.475 56.72 48.55C56.8993 48.582 57.0644 48.6681 57.1931 48.7969C57.3219 48.9256 57.408 49.0908 57.44 49.27C57.5301 49.7458 57.5301 50.2342 57.44 50.71C57.4013 50.8852 57.3127 51.0454 57.1849 51.1714C57.0572 51.2974 56.8957 51.3837 56.72 51.42ZM49.71 57.45C49.2381 57.5451 48.7519 57.5451 48.28 57.45C48.1002 57.4194 47.9343 57.3337 47.8053 57.2047C47.6763 57.0757 47.5906 56.9098 47.56 56.73C47.475 56.2538 47.475 55.7663 47.56 55.29C47.597 55.113 47.6848 54.9506 47.8127 54.8227C47.9406 54.6948 48.103 54.607 48.28 54.57C48.7537 54.495 49.2363 54.495 49.71 54.57C49.8893 54.602 50.0544 54.6881 50.1831 54.8169C50.3119 54.9456 50.398 55.1108 50.43 55.29C50.5251 55.7653 50.5251 56.2547 50.43 56.73C50.3855 56.9035 50.2952 57.0619 50.1685 57.1885C50.0418 57.3152 49.8835 57.4055 49.71 57.45ZM42.72 57.45C42.2447 57.5451 41.7553 57.5451 41.28 57.45C41.102 57.4176 40.9383 57.331 40.8113 57.2022C40.6842 57.0733 40.6 56.9085 40.57 56.73C40.485 56.2538 40.485 55.7663 40.57 55.29C40.6051 55.1138 40.691 54.9517 40.8172 54.8237C40.9434 54.6958 41.1043 54.6076 41.28 54.57C41.7571 54.4951 42.2429 54.4951 42.72 54.57C42.898 54.6025 43.0617 54.689 43.1887 54.8179C43.3158 54.9467 43.4 55.1116 43.43 55.29C43.5251 55.7653 43.5251 56.2547 43.43 56.73C43.3863 56.9023 43.2975 57.0598 43.1727 57.1864C43.0479 57.3129 42.8917 57.4039 42.72 57.45Z" stroke="#494A4A" stroke-linecap="round" stroke-linejoin="round"/>
</g>
</g>
<defs>
<clipPath id="clip0_624_21058">
<rect width="64" height="64" fill="white"/>
</clipPath>
</defs>
</svg>
