<svg width="64" height="64" viewBox="0 0 64 64" fill="none" xmlns="http://www.w3.org/2000/svg">
<g id="Pictogram-time-report">
<g id="stroke-default">
<path id="2px" d="M34.6201 59C32.9401 59 30.8001 58.94 29.6201 58.86C23.0001 58.44 21.2801 53.29 20.0001 47C19.0001 42.3 16.4501 40 11.0001 41C7.82008 41.57 5.51008 41.59 5.19008 38C4.77008 33.24 5.19008 22.22 5.62008 16.15C6.00008 9.83 9.34008 6.17 16.1501 5.59H16.7701M46.4701 5.47L47.8401 5.59C54.1601 6.15 57.8401 9.84 58.4101 16.15C58.8901 21.46 59.1001 28.35 59.0601 34.47M20.3801 5.31C27.7743 4.91556 35.1836 4.89219 42.5801 5.24M29.3301 58.84C24.3301 58.84 16.5401 54.84 11.8901 50.24C8.16008 46.57 5.15008 43 5.15008 38M42.6801 9.13C42.4814 6.8555 42.6196 4.56414 43.0901 2.33C43.1605 1.97604 43.3515 1.65746 43.6305 1.42853C43.9095 1.19959 44.2592 1.07446 44.6201 1.07446C44.981 1.07446 45.3307 1.19959 45.6097 1.42853C45.8887 1.65746 46.0796 1.97604 46.1501 2.33C46.4233 4.68789 46.2948 7.07505 45.7701 9.39C45.6697 9.74224 45.4501 10.0487 45.1487 10.2569C44.8474 10.4651 44.4831 10.5621 44.1181 10.5314C43.7531 10.5007 43.4101 10.3441 43.1478 10.0885C42.8855 9.83288 42.7202 9.49406 42.6801 9.13ZM20.3601 9.13C20.5566 6.85592 20.4218 4.56536 19.9601 2.33C19.8896 1.97604 19.6987 1.65746 19.4197 1.42853C19.1407 1.19959 18.791 1.07446 18.4301 1.07446C18.0692 1.07446 17.7195 1.19959 17.4405 1.42853C17.1615 1.65746 16.9705 1.97604 16.9001 2.33C16.6225 4.68776 16.751 7.07565 17.2801 9.39C17.3752 9.74595 17.5925 10.0571 17.894 10.269C18.1954 10.4809 18.5617 10.58 18.9289 10.549C19.296 10.518 19.6406 10.3589 19.9022 10.0995C20.1639 9.84004 20.3259 9.49686 20.3601 9.13ZM62.0001 48C62.0001 55.732 55.7321 62 48.0001 62C40.2681 62 34.0001 55.732 34.0001 48C34.0001 40.268 40.2681 34 48.0001 34C55.7321 34 62.0001 40.268 62.0001 48ZM49.4901 48C49.4901 48.8229 48.823 49.49 48.0001 49.49C47.1772 49.49 46.5101 48.8229 46.5101 48C46.5101 47.1771 47.1772 46.51 48.0001 46.51C48.823 46.51 49.4901 47.1771 49.4901 48ZM47.4201 36.69C47.0101 37.08 45.0801 38.53 45.5001 39.03C46.2401 39.93 49.5001 40.53 50.0301 39.98C50.5601 39.43 49.0301 37.23 48.7201 36.73C48.5529 36.5524 48.3221 36.4484 48.0784 36.4409C47.8346 36.4334 47.5978 36.523 47.4201 36.69ZM57.4501 54.17C57.3001 53.52 56.9201 51.63 55.9001 51.53C54.8801 51.43 53.3301 54.53 53.5201 55.06C53.7101 55.59 56.1401 55.51 56.7301 55.36C56.8643 55.3465 56.9935 55.3019 57.1076 55.2298C57.2216 55.1578 57.3173 55.0602 57.3872 54.9448C57.457 54.8293 57.499 54.6992 57.51 54.5648C57.5209 54.4303 57.5004 54.2952 57.4501 54.17Z" stroke="#494A4A" stroke-width="2" stroke-linecap="round" stroke-linejoin="round"/>
<path id="1px" d="M44.6402 31.3C44.721 30.8861 44.9228 30.5055 45.2201 30.2064C45.5174 29.9074 45.8968 29.7033 46.3102 29.62C47.4226 29.435 48.5578 29.435 49.6702 29.62C50.0894 29.6923 50.476 29.8926 50.7768 30.1934C51.0776 30.4942 51.2779 30.8808 51.3502 31.3M34.0502 35.57C33.8487 35.2977 33.7119 34.9831 33.6502 34.65C33.4503 33.5423 33.4503 32.4077 33.6502 31.3C33.734 30.8885 33.937 30.5107 34.234 30.2138C34.5309 29.9168 34.9087 29.7138 35.3202 29.63C36.4267 29.455 37.5537 29.455 38.6602 29.63C39.0768 29.7022 39.4609 29.9014 39.7599 30.2003C40.0588 30.4993 40.258 30.8834 40.3302 31.3M47.8202 39.83C47.6469 42.0568 47.7072 44.2957 48.0002 46.51M48.8602 49.22C49.8602 49.94 52.1902 51.67 54.2702 53.1M48.4402 57.48C48.4402 58.48 48.2602 59.08 48.3002 59.48M59.4802 47.57C58.9811 47.5283 58.4793 47.5283 57.9802 47.57M38.0002 47.58C37.4902 47.58 36.8802 47.49 36.4602 47.58M49.6602 25.31C48.5611 25.5301 47.4293 25.5301 46.3302 25.31C45.912 25.2455 45.5251 25.0501 45.225 24.7518C44.9249 24.4535 44.7272 24.0678 44.6602 23.65C44.4602 22.5456 44.4602 21.4143 44.6602 20.31C44.744 19.8985 44.947 19.5207 45.244 19.2238C45.5409 18.9268 45.9187 18.7238 46.3302 18.64C47.4333 18.4651 48.5571 18.4651 49.6602 18.64C50.078 18.707 50.4637 18.9047 50.762 19.2048C51.0603 19.5049 51.2557 19.8918 51.3202 20.31C51.5451 21.412 51.5451 22.548 51.3202 23.65C51.2342 24.0578 51.0315 24.4318 50.7368 24.7266C50.442 25.0213 50.068 25.224 49.6602 25.31ZM38.6502 25.31C37.554 25.5251 36.4264 25.5251 35.3302 25.31C34.9124 25.243 34.5267 25.0453 34.2284 24.7452C33.9301 24.4451 33.7347 24.0582 33.6702 23.64C33.4701 22.539 33.4701 21.411 33.6702 20.31C33.7538 19.9011 33.9557 19.5258 34.2509 19.2307C34.546 18.9355 34.9213 18.7336 35.3302 18.65C36.4295 18.4699 37.5509 18.4699 38.6502 18.65C39.0684 18.7145 39.4553 18.9099 39.7554 19.2082C40.0555 19.5065 40.2532 19.8922 40.3202 20.31C40.5354 21.4096 40.5354 22.5404 40.3202 23.64C40.2305 24.0488 40.0256 24.4234 39.7296 24.7194C39.4336 25.0154 39.059 25.2203 38.6502 25.31ZM27.6602 25.31C26.5611 25.5301 25.4293 25.5301 24.3302 25.31C23.912 25.2455 23.5251 25.0501 23.225 24.7518C22.9249 24.4535 22.7272 24.0678 22.6602 23.65C22.4602 22.5456 22.4602 21.4143 22.6602 20.31C22.744 19.8985 22.947 19.5207 23.244 19.2238C23.5409 18.9268 23.9187 18.7238 24.3302 18.64C25.4333 18.4651 26.5571 18.4651 27.6602 18.64C28.078 18.707 28.4637 18.9047 28.762 19.2048C29.0603 19.5049 29.2557 19.8918 29.3202 20.31C29.5451 21.412 29.5451 22.548 29.3202 23.65C29.2342 24.0578 29.0315 24.4318 28.7368 24.7266C28.442 25.0213 28.068 25.224 27.6602 25.31ZM27.6602 36.32C26.3552 36.5298 25.0251 36.5298 23.7202 36.32C22.9302 36.15 22.7202 35.76 22.5802 35C22.4038 33.7576 22.4275 32.4949 22.6502 31.26C22.734 30.8485 22.937 30.4707 23.234 30.1738C23.5309 29.8768 23.9087 29.6738 24.3202 29.59C25.4267 29.415 26.5537 29.415 27.6602 29.59C28.0768 29.6622 28.4609 29.8614 28.7598 30.1603C29.0588 30.4593 29.258 30.8434 29.3302 31.26C29.5551 32.3653 29.5551 33.5047 29.3302 34.61C29.2486 35.0267 29.0471 35.4105 28.7504 35.7143C28.4538 36.018 28.0748 36.2286 27.6602 36.32ZM16.6602 36.32C15.5577 36.5401 14.4227 36.5401 13.3202 36.32C12.9006 36.2549 12.5126 36.0581 12.2124 35.7578C11.9121 35.4576 11.7152 35.0696 11.6502 34.65C11.4503 33.5423 11.4503 32.4077 11.6502 31.3C11.734 30.8885 11.937 30.5107 12.234 30.2138C12.5309 29.9168 12.9087 29.7138 13.3202 29.63C14.5607 29.4552 15.8197 29.4552 17.0602 29.63C17.9902 29.78 18.1302 30.44 18.3302 31.27C18.5551 32.3753 18.5551 33.5147 18.3302 34.62C18.2469 35.0349 18.0446 35.4165 17.748 35.7184C17.4515 36.0202 17.0735 36.2293 16.6602 36.32ZM27.6502 47.3C26.5535 47.5099 25.4269 47.5099 24.3302 47.3C23.9157 47.2317 23.5332 47.0345 23.237 46.7366C22.9408 46.4386 22.746 46.0549 22.6802 45.64C22.4802 44.5424 22.4802 43.4176 22.6802 42.32C22.7631 41.9124 22.9635 41.538 23.2568 41.2431C23.55 40.9481 23.9231 40.7454 24.3302 40.66C25.4299 40.4849 26.5505 40.4849 27.6502 40.66C28.0647 40.7283 28.4472 40.9255 28.7434 41.2234C29.0395 41.5214 29.2344 41.9051 29.3002 42.32C29.5252 43.4152 29.5252 44.5448 29.3002 45.64C29.2126 46.0455 29.0106 46.4173 28.7182 46.7115C28.4258 47.0057 28.0551 47.2099 27.6502 47.3Z" stroke="#494A4A" stroke-linecap="round" stroke-linejoin="round"/>
</g>
</g>
</svg>
