<svg width="64" height="64" viewBox="0 0 64 64" fill="none" xmlns="http://www.w3.org/2000/svg">
<g id="Pictogram-case-system" clip-path="url(#clip0_426_2524)">
<g id="stroke-default">
<path id="2px" d="M61.0002 32.78C61.0002 29.39 60.8502 23.33 60.6602 21.23C60.6628 20.718 60.5641 20.2105 60.3697 19.7367C60.1752 19.263 59.889 18.8325 59.5274 18.47C59.1657 18.1074 58.7359 17.82 58.2627 17.6244C57.7895 17.4287 57.2823 17.3287 56.7702 17.33C49.5402 16.93 15.8302 16.74 4.9602 17.53C4.07825 17.5411 3.2316 17.8782 2.58349 18.4765C1.93537 19.0748 1.53167 19.8918 1.4502 20.77C0.590204 27 1.0002 42.78 2.2502 52C2.6802 55.2 5.0402 56.44 8.1702 56.71C11.1702 56.96 20.8202 57.03 30.3902 57.02M4.0002 17.3C3.90223 15.1321 3.95904 12.9599 4.1702 10.8C4.5602 8.54002 5.3002 7.50002 7.8702 7.22002C10.8646 6.9939 13.8696 6.94048 16.8702 7.06002C18.3769 6.99449 19.8611 7.44225 21.0802 8.33002C22.0302 9.02002 22.9402 10.77 23.8302 11.33C24.9702 12.04 26.2202 12 27.8302 12C37.1502 12 48.2902 12 52.6302 12.24C55.1902 12.38 56.3402 13.5 56.7002 14.97C56.9012 15.7398 56.9521 16.541 56.8502 17.33M53.0002 48C53.0002 50.7614 50.7616 53 48.0002 53C45.2388 53 43.0002 50.7614 43.0002 48C43.0002 45.2386 45.2388 43 48.0002 43C50.7616 43 53.0002 45.2386 53.0002 48ZM41.0002 39C41.0002 40.1046 40.1048 41 39.0002 41C37.8956 41 37.0002 40.1046 37.0002 39C37.0002 37.8954 37.8956 37 39.0002 37C40.1048 37 41.0002 37.8954 41.0002 39ZM63.0002 40C63.0002 41.6569 61.6571 43 60.0002 43C58.3434 43 57.0002 41.6569 57.0002 40C57.0002 38.3432 58.3434 37 60.0002 37C61.6571 37 63.0002 38.3432 63.0002 40ZM51.0002 32.5C51.0002 34.433 49.4332 36 47.5002 36C45.5672 36 44.0002 34.433 44.0002 32.5C44.0002 30.567 45.5672 29 47.5002 29C49.4332 29 51.0002 30.567 51.0002 32.5ZM40.0002 51C40.0002 53.2092 38.2093 55 36.0002 55C33.7911 55 32.0002 53.2092 32.0002 51C32.0002 48.7909 33.7911 47 36.0002 47C38.2093 47 40.0002 48.7909 40.0002 51ZM48.0002 60C48.0002 61.1046 47.1048 62 46.0002 62C44.8956 62 44.0002 61.1046 44.0002 60C44.0002 58.8954 44.8956 58 46.0002 58C47.1048 58 48.0002 58.8954 48.0002 60ZM63.0002 59.5C63.0002 61.433 61.4332 63 59.5002 63C57.5672 63 56.0002 61.433 56.0002 59.5C56.0002 57.567 57.5672 56 59.5002 56C61.4332 56 63.0002 57.567 63.0002 59.5Z" stroke="#494A4A" stroke-width="2" stroke-linecap="round" stroke-linejoin="round"/>
<path id="1px" d="M6.5498 49C6.5498 50.16 6.6198 51.34 7.1398 51.76C7.9098 52.39 9.0698 52.41 10.7698 52.48M52.4596 45.7401L57.6596 41.8801M51.4298 51.64L56.9398 57.12M46.4098 58.04L47.1598 52.93M39.9198 50.22L43.2298 49.5M40.5298 40.28L44.5898 44.35M47.6998 35.99L47.9998 43" stroke="#494A4A" stroke-linecap="round" stroke-linejoin="round"/>
</g>
</g>
<defs>
<clipPath id="clip0_426_2524">
<rect width="64" height="64" fill="white"/>
</clipPath>
</defs>
</svg>
