<svg width="64" height="64" viewBox="0 0 64 64" fill="none" xmlns="http://www.w3.org/2000/svg">
<g id="  Pictogram-bulb-3">
<g id="stroke-default">
<path id="2px" d="M34.4995 59.0005C36.0995 59.0005 37.9995 59.3005 39.0995 58.1005C40.1995 56.9005 39.8995 55.7005 39.9995 54.3005C40.0995 52.9005 40.3995 52.0005 40.6995 51.5005C41.5995 50.1005 41.9995 47.4005 41.9995 45.4005C41.9995 44.6005 41.3995 43.6005 40.3995 43.3005C38.0995 42.6005 25.3995 42.9005 23.6995 43.5005C22.6995 43.8005 21.9995 44.6005 21.9995 45.4005C21.9995 47.4005 22.5995 50.1005 23.4995 51.5005C23.7995 52.0005 23.8995 53.1005 23.8995 54.3005C23.8995 55.7005 23.8995 57.1005 24.6995 58.0005C25.6995 59.1005 27.6995 59.0005 29.3995 59.0005M36.9995 59C36.7995 60.3 34.4995 63 32.2995 63C29.5995 63 27.1995 60.2 26.9995 59M30.9994 43.0004C30.9994 39.3004 29.3994 34.9004 25.8994 31.4004M25.9995 42.9002C25.9995 39.6002 23.8995 35.4002 20.4995 32.7002M32.9993 43.0001C32.3993 36.9001 36.6993 31.8001 42.1993 30.0001C44.5993 29.2001 46.2993 33.0001 43.7993 34.4001C40.5993 36.1001 37.6993 38.5001 38.0993 42.9001M21.8997 32.8997C19.5997 33.6997 17.9997 29.0997 20.0997 27.8997C23.1997 26.0997 38.0997 19.9997 42.3997 18.3997C44.1997 17.6997 46.0997 21.5997 43.9997 22.9997C39.7997 25.6997 26.5997 31.3997 21.8997 32.9997V32.8997ZM21.7996 21.8996C19.4996 22.7996 17.8996 18.5996 19.9996 17.2996C23.8996 14.9996 36.6996 9.49957 42.3996 7.29957C44.1996 6.59957 46.1996 10.6996 43.9996 11.8996C40.0996 14.0996 26.6996 19.9996 21.8996 21.8996H21.7996ZM21.1995 10.9001C19.6995 11.4001 18.1995 8.10008 19.8995 6.90008C22.3995 5.00008 30.4995 1.50008 33.4995 1.10008C35.9995 0.700082 36.8995 4.20008 35.3995 5.00008C32.2995 6.70008 24.3995 9.90008 21.1995 11.0001V10.9001Z" stroke="#494A4A" stroke-width="2" stroke-linecap="round" stroke-linejoin="round"/>
<path id="1px" d="M36.001 52.5H39.101M23.9009 52.5H28.0009M15.9008 4.19987C15.5008 7.19987 11.3008 9.19987 8.1008 6.89987C5.7008 5.19987 7.8008 2.79987 9.2008 4.89987C12.7008 9.89987 9.5008 15.8999 4.0008 14.5999C1.6008 13.9999 2.5008 10.0999 5.0008 11.4999C8.4008 13.3999 10.3008 18.6999 4.9008 22.2999C9.7008 20.2999 10.8008 25.5999 8.0008 29.1999C9.3008 27.0999 12.7008 27.5999 12.6008 30.1999M50.9008 4.2002C50.6008 7.4002 52.9008 9.1002 56.2008 7.0002C53.5008 9.4002 53.9008 17.3002 58.9008 16.5002C61.1008 16.1002 61.2008 11.8002 58.7008 13.1002C55.4008 14.8002 52.6008 20.3002 56.6008 24.6002C53.2008 23.6002 51.4008 27.0002 50.8008 29.4002" stroke="#494A4A" stroke-linecap="round" stroke-linejoin="round"/>
</g>
</g>
</svg>
