<svg width="64" height="64" viewBox="0 0 64 64" fill="none" xmlns="http://www.w3.org/2000/svg">
<g id="Pictogram-track-location">
<g id="stroke-default">
<path id="2px-stroke-default" d="M44.51 61.26C44.16 61.35 43.8 61.42 43.41 61.48C38.41 62.19 25.69 62.19 21.41 61.48C19.618 61.1733 17.9839 60.2653 16.7769 58.9056C15.57 57.546 14.8621 55.8158 14.77 54C13.67 42 13.77 20.32 14.77 12C15.46 6.00002 18.13 3.07002 22.46 2.55002C29.1077 1.83977 35.8123 1.83977 42.46 2.55002C46.68 3.11002 49.46 6.00002 50 12C50.49 17.05 50.75 23.22 50.81 29.49M60 41C60 45.21 57.59 53.37 55 58.24C52.22 63.47 49.53 63.34 47 58.36C44.2 52.92 42 45.25 42 41C42 36.57 46 33 51 33C56 33 60 36.59 60 41Z" stroke="#494A4A" stroke-width="2" stroke-linecap="round" stroke-linejoin="round"/>
<path id="1px-stroke-default" d="M43.2351 59.0458C43.5089 59.0099 43.7018 58.7589 43.6659 58.4851C43.6301 58.2113 43.3791 58.0184 43.1053 58.0542L43.2351 59.0458ZM21.6502 58.55L21.7257 58.0557C21.721 58.055 21.7163 58.0544 21.7116 58.0538L21.6502 58.55ZM15.1602 51.81L15.6584 51.7673L15.6577 51.7607L15.1602 51.81ZM15.1602 14L14.6641 13.9375L14.6641 13.9376L15.1602 14ZM22.6802 5.48999L22.6312 4.99228L22.6203 4.99358L22.6802 5.48999ZM42.2402 5.48999L42.3015 4.99361L42.2892 4.99239L42.2402 5.48999ZM49.6602 14L50.1575 13.9485L50.1574 13.9476L49.6602 14ZM49.9402 29.3563C49.9437 29.6325 50.1704 29.8535 50.4465 29.85C50.7226 29.8464 50.9436 29.6198 50.9401 29.3436L49.9402 29.3563ZM48.2707 37.7735C48.5322 37.6849 48.6724 37.401 48.5837 37.1395C48.4951 36.878 48.2112 36.7378 47.9497 36.8264L48.2707 37.7735ZM45.0103 41.0095C45.0155 41.2856 45.2436 41.5051 45.5197 41.4999C45.7957 41.4947 46.0153 41.2666 46.0101 40.9905L45.0103 41.0095ZM36.8364 29.185C37.0048 28.9662 36.964 28.6522 36.7452 28.4838C36.5264 28.3153 36.2124 28.3562 36.044 28.575L36.8364 29.185ZM23.634 44.695C23.4655 44.9138 23.5064 45.2277 23.7252 45.3962C23.944 45.5646 24.2579 45.5238 24.4264 45.305L23.634 44.695ZM35.2502 36.4699C35.4159 36.249 35.371 35.9356 35.1501 35.7699C34.9292 35.6043 34.6158 35.6491 34.4501 35.8701L35.2502 36.4699ZM27.8301 44.7001C27.6645 44.921 27.7093 45.2344 27.9302 45.4C28.1512 45.5657 28.4646 45.5209 28.6302 45.2999L27.8301 44.7001ZM43.1053 58.0542C40.6945 58.3697 36.3894 58.53 32.1477 58.53C27.9019 58.53 23.7789 58.3693 21.7257 58.0557L21.5747 59.0443C23.7114 59.3706 27.9034 59.53 32.1477 59.53C36.3959 59.53 40.7558 59.3702 43.2351 59.0458L43.1053 58.0542ZM21.7116 58.0538C20.1349 57.8586 18.6731 57.1275 17.5711 55.9831L16.8508 56.6767C18.1118 57.9863 19.7845 58.8228 21.5887 59.0462L21.7116 58.0538ZM17.5711 55.9831C16.4692 54.8386 15.7939 53.3503 15.6584 51.7673L14.662 51.8526C14.8171 53.664 15.5898 55.3671 16.8508 56.6767L17.5711 55.9831ZM15.6577 51.7607C14.5907 40.9802 14.7218 21.4984 15.6563 14.0623L14.6641 13.9376C13.7186 21.4616 13.5897 41.0197 14.6626 51.8592L15.6577 51.7607ZM15.6563 14.0625C15.9881 11.4273 16.7834 9.53682 17.9584 8.24812C19.1274 6.96599 20.7173 6.23027 22.74 5.98639L22.6203 4.99358C20.4131 5.25971 18.5829 6.07898 17.2195 7.57436C15.862 9.06316 15.0123 11.1727 14.6641 13.9375L15.6563 14.0625ZM22.7292 5.98759C29.2009 5.35057 35.7195 5.35057 42.1912 5.98759L42.2892 4.99239C35.7523 4.34897 29.1681 4.34897 22.6312 4.99239L22.7292 5.98759ZM42.1789 5.98622C44.1517 6.22984 45.745 6.96288 46.916 8.24472C48.0911 9.53109 48.8855 11.419 49.1629 14.0524L50.1574 13.9476C49.8649 11.171 49.0142 9.05889 47.6543 7.57026C46.2903 6.07709 44.4586 5.26014 42.3015 4.99376L42.1789 5.98622ZM49.1628 14.0515C49.6208 18.4715 49.8703 23.8553 49.9402 29.3563L50.9401 29.3436C50.87 23.8247 50.6196 18.4085 50.1575 13.9485L49.1628 14.0515ZM32.9902 8.99999C32.9902 9.54675 32.5469 9.98999 32.0002 9.98999V10.99C33.0992 10.99 33.9902 10.099 33.9902 8.99999H32.9902ZM32.0002 9.98999C31.4534 9.98999 31.0102 9.54675 31.0102 8.99999H30.0102C30.0102 10.099 30.9011 10.99 32.0002 10.99V9.98999ZM31.0102 8.99999C31.0102 8.45323 31.4534 8.00999 32.0002 8.00999V7.00999C30.9011 7.00999 30.0102 7.90094 30.0102 8.99999H31.0102ZM32.0002 8.00999C32.5469 8.00999 32.9902 8.45323 32.9902 8.99999H33.9902C33.9902 7.90094 33.0992 7.00999 32.0002 7.00999V8.00999ZM53.5002 42C53.5002 43.3807 52.3809 44.5 51.0002 44.5V45.5C52.9332 45.5 54.5002 43.933 54.5002 42H53.5002ZM51.0002 44.5C49.6195 44.5 48.5002 43.3807 48.5002 42H47.5002C47.5002 43.933 49.0672 45.5 51.0002 45.5V44.5ZM48.5002 42C48.5002 40.6193 49.6195 39.5 51.0002 39.5V38.5C49.0672 38.5 47.5002 40.067 47.5002 42H48.5002ZM51.0002 39.5C52.3809 39.5 53.5002 40.6193 53.5002 42H54.5002C54.5002 40.067 52.9332 38.5 51.0002 38.5V39.5ZM47.9497 36.8264C47.0792 37.1215 46.3252 37.6858 45.7967 38.4378L46.6149 39.0128C47.0213 38.4344 47.6012 38.0004 48.2707 37.7735L47.9497 36.8264ZM45.7967 38.4378C45.2683 39.1898 44.9928 40.0905 45.0103 41.0095L46.0101 40.9905C45.9967 40.2838 46.2085 39.5911 46.6149 39.0128L45.7967 38.4378ZM36.044 28.575L23.634 44.695L24.4264 45.305L36.8364 29.185L36.044 28.575ZM34.4501 35.8701L27.8301 44.7001L28.6302 45.2999L35.2502 36.4699L34.4501 35.8701Z" fill="#494A4A"/>
</g>
</g>
</svg>
