<svg width="64" height="64" viewBox="0 0 64 64" fill="none" xmlns="http://www.w3.org/2000/svg">
<g id="Pictogram-global-locations">
<g id="stroke-default">
<path id="2px" d="M39.7 61C37.2 61.7 34.7 62 32 62C15.4 62 2 48.6 2 32C2 15.4 15.4 2 32 2C48.6 2 62 15.4 62 32C62 34.5 61.7 36.9 61.1 39.2M57 41.8998C57 46.0998 54.6 54.2998 52 59.0998C49.2 64.2998 46.5 64.1998 44 59.1998C41.2 53.7998 39 46.0998 39 41.7998C39 37.4998 43 33.7998 48 33.7998C53 33.7998 57 37.3998 57 41.7998V41.8998Z" stroke="#494A4A" stroke-width="2" stroke-linecap="round" stroke-linejoin="round"/>
<path id="1px" d="M45.1 38.0997C43.8 38.3997 42.5 39.9997 42.5 41.7997M16.5 6.30005C19 4.90005 21.3 8.60005 19.6 10.7C17.1 13.7 14 12.8 12.7 13.8C10.9 15.4 11.4 19.3 9.29998 20.9C6.89998 22.7 3.39998 21.6 2.69998 26.3M2.59998 27C2.29998 33.2 8.59998 32.8 8.69998 36.8C8.79998 40.2 4.59998 45.1 9.39998 51.4M37.3 53.9C34.6 53.6 33.4 47 33 43.3C32.6 39.6 32.1 36.2 29.6 34.5C27.5 33.1 19.6 37.7 19.6 29C19.6 20.3 28.8 20.7 30.6 20.8C33.5 21 38.5 24.5 42.3 22.4C45.5 20.7 45.7 18 44.8 17.1C43.6 16 42.6 18.1 38.9 18.4C36.4 18.6 33.5 15.2 33.7 16.5C34 18.4 31.8 19 31 17.1C30.6 16.1 29 16.2 28.2 18.3C28 18.9 25.9 19.5 25.2 19C24.5 18.5 24 16.3 25.2 15.6C26.3 15 26.9 15.8 27.5 15.1C28.1 14.3 26.9 13.1 27.3 12.4C27.8 11.6 30.6 11.9 32.3 10.5C34 9.10005 31.9 6.50005 34 5.30005C36.1 4.10005 40.3 6.50005 40.9 3.30005M59.4 20.7C58.3 23.3 59.8 25.7 58.9 26C58.2 26.3 57.4 24.9 55.8 23.3C54.2 21.7 52.4 21.3 51.1 22.2C50.4 22.7 53 23.2 53.2 24.1C53.3 25 51.1 27.3 49.9 27.5C48.5 27.6 45.6 23.6 44.3 24.3C43.3 24.9 44.1 27.4 46.4 28.5C48.7 29.6 50.9 29.2 51 30.3M25.6 36.6C27.8 36.2 28.8 36.4 29.5 37.8M24.1 24.4001C23 24.6001 21.7 26.5 21.8 27.6M51 42.9004C51 44.5573 49.6568 45.9004 48 45.9004C46.3431 45.9004 45 44.5573 45 42.9004C45 41.2436 46.3431 39.9004 48 39.9004C49.6568 39.9004 51 41.2436 51 42.9004ZM28.2 5.60005C26.7 5.80005 27 9.80005 28.9 9.30005C30.4 8.90005 30 5.30005 28.2 5.60005Z" stroke="#494A4A" stroke-linecap="round" stroke-linejoin="round"/>
</g>
</g>
</svg>
