<svg width="64" height="64" viewBox="0 0 64 64" fill="none" xmlns="http://www.w3.org/2000/svg">
<g id="Pictogram-food-&#38;-drinks2" clip-path="url(#clip0_426_1796)">
<g id="stroke-default">
<path id="1px" d="M44.1002 37.7C43.7902 36.25 38.8102 7.70005 38.6302 6.70005C38.1402 4.09005 37.0602 3.18005 34.6302 2.70005C33.3702 2.56005 22.7702 1.00005 20.0002 0.530047C18.3802 0.230047 17.8902 3.59005 19.5802 3.82005C22.7802 4.26005 33.6402 5.89005 34.2502 6.00005C34.636 6.06238 34.9892 6.25346 35.2525 6.54217C35.5158 6.83088 35.6736 7.20022 35.7002 7.59005C35.8302 8.27005 41.1802 36.02 41.3702 36.9M13.8602 18.9C17.0802 18.49 14.8602 25.38 15.3502 28.8M20.3002 15.41C18.3002 20.66 22.3902 21.88 20.6502 31.66M24.7302 20.16C25.0002 22.6 26.2202 26.28 25.3002 26.98M10.3202 37.43C11.6902 37.43 15.2002 39.91 16.2002 41.91M20.3602 36.73C24.1602 36.96 28.4702 40.48 29.3602 43.66M4.87022 52.8601C3.45022 54.8601 4.48022 62.6201 6.30022 62.4901C12.5402 62.0701 19.5902 57 32.0002 56M39.4802 55.8301C43.6402 54.9201 50.9902 59.14 52.5802 58.16C53.8902 57.37 55.2202 51.16 51.6402 48.68M24.0002 57.28C32.3002 59.91 44.7002 60.04 45.0002 56.43M53.3502 30.61C53.3724 30.7829 53.3591 30.9586 53.311 31.1261C53.263 31.2937 53.1812 31.4496 53.0707 31.5845C52.9602 31.7193 52.8234 31.8302 52.6685 31.9102C52.5137 31.9903 52.3441 32.0379 52.1702 32.05C51.8131 32.1261 51.4405 32.0656 51.1258 31.8805C50.8112 31.6954 50.5772 31.3991 50.4702 31.05M39.1802 26.32C37.3702 26.32 36.0102 26.79 35.8002 27.52C41.1302 32.42 50.0302 30.22 54.4602 30.12C58.5802 30.02 62.2702 28.54 62.2702 27.24C61.7902 25.92 54.8602 25.35 48.5902 26.63C46.5554 27.145 44.4327 27.2098 42.3702 26.82M10.0002 40.7001C10.0002 40.8657 9.84352 41 9.65022 41C9.45692 41 9.30022 40.8657 9.30022 40.7001C9.30022 40.5344 9.45692 40.4001 9.65022 40.4001C9.84352 40.4001 10.0002 40.5344 10.0002 40.7001ZM20.1802 39.4901C20.1802 39.7607 19.9161 39.98 19.5902 39.98C19.2644 39.98 19.0002 39.7607 19.0002 39.4901C19.0002 39.2194 19.2644 39 19.5902 39C19.9161 39 20.1802 39.2194 20.1802 39.4901ZM32.1802 40.51C32.1802 40.7807 31.9161 41 31.5902 41C31.2644 41 31.0002 40.7807 31.0002 40.51C31.0002 40.2394 31.2644 40.0201 31.5902 40.0201C31.9161 40.0201 32.1802 40.2394 32.1802 40.51ZM58.8602 34.5601C58.8602 35.2449 58.2066 35.8 57.4002 35.8C56.5939 35.8 55.9402 35.2449 55.9402 34.5601C55.9402 33.8752 56.5939 33.32 57.4002 33.32C58.2066 33.32 58.8602 33.8752 58.8602 34.5601ZM56.8402 40.51C56.8402 41.0071 56.3612 41.41 55.7702 41.41C55.1793 41.41 54.7002 41.0071 54.7002 40.51C54.7002 40.013 55.1793 39.6101 55.7702 39.6101C56.3612 39.6101 56.8402 40.013 56.8402 40.51ZM39.9802 42.89C39.9802 43.0392 39.837 43.16 39.6602 43.16C39.4835 43.16 39.3402 43.0392 39.3402 42.89C39.3402 42.7409 39.4835 42.62 39.6602 42.62C39.837 42.62 39.9802 42.7409 39.9802 42.89ZM35.7502 45C35.7438 44.9173 35.7688 44.8352 35.8202 44.7701C35.954 44.7303 36.0964 44.7303 36.2302 44.7701C36.2575 44.8244 36.2717 44.8843 36.2717 44.945C36.2717 45.0058 36.2575 45.0657 36.2302 45.12C35.9102 45.24 35.7802 45.16 35.7502 45ZM21.7502 44C21.7438 43.9173 21.7688 43.8352 21.8202 43.7701C21.954 43.7303 22.0964 43.7303 22.2302 43.7701C22.2575 43.8244 22.2717 43.8843 22.2717 43.945C22.2717 44.0058 22.2575 44.0657 22.2302 44.12C21.9102 44.24 21.7802 44.16 21.7502 44Z" stroke="#494A4A" stroke-linecap="round" stroke-linejoin="round"/>
<path id="2px" d="M56.69 55.58C58.69 55.58 61.09 54.88 61.48 50.01C62.32 39.36 63.22 22.47 62.96 12.41C62.96 11.53 56.07 10.67 39.96 11.18M35.91 12C35.54 12.08 35.01 12.09 35.01 13C34.87 17.63 35.78 26.08 36.33 34.54M35 13C35.79 14.68 62.68 14.25 63 12.39M1.53999 50.37C-0.460013 45.09 6.10999 37.92 11.32 36.78C17.85 35.35 38.22 36.3 48.92 43.89C52.07 46.13 52 48.5 51 50.24M49 58.22C41.76 63 25 64.4 12.82 61.41M3.73999 57.57C2.68884 56.7361 1.90444 55.6131 1.48336 54.3392C1.06227 53.0653 1.02286 51.696 1.36999 50.4C3.29999 53.42 13.12 56.53 34 56C47.06 55.65 51.28 50.08 51.9 49.53" stroke="#494A4A" stroke-width="2" stroke-linecap="round" stroke-linejoin="round"/>
</g>
</g>
<defs>
<clipPath id="clip0_426_1796">
<rect width="64" height="64" fill="white"/>
</clipPath>
</defs>
</svg>
