<svg width="64" height="64" viewBox="0 0 64 64" fill="none" xmlns="http://www.w3.org/2000/svg">
<g id="Pictogram-budget2-1" clip-path="url(#clip0_426_2747)">
<g id="stroke-default">
<path id="2px" d="M5.99941 56.0001C9.83941 62.5201 29.8794 64.0001 35.3394 62.4501M47.6094 28.7701C47.3294 28.4001 47.0394 28.0301 46.7294 27.6701C40.4094 20.3201 33.9994 20.7801 33.9994 16.0001C33.9994 11.2201 38.6994 14.1201 39.4994 14.0701C40.5694 14.0001 39.8094 6.61009 37.9094 6.07009M34.3694 8.65009C35.4494 6.65009 38.6794 5.60009 38.6794 4.42009C38.6794 3.59009 36.6094 1.83009 35.2994 1.72009C33.7894 1.58009 31.2994 2.89009 30.6094 2.80009C29.9194 2.71009 28.8694 1.00009 27.4194 1.00009C18.6294 0.860093 16.9194 4.00009 16.3494 3.73009C15.0607 3.21004 13.6786 2.96152 12.2894 3.00009C10.8394 3.13009 7.22941 6.76009 8.78941 6.87009C13.4994 7.21009 19.8594 10.8701 17.9394 15.8701C16.4594 19.7101 12.8594 19.0201 6.93941 26.7301C0.649415 34.7601 2.99941 47.4501 2.93941 49.8101C2.85941 53.4801 0.639415 55.8201 0.999415 57.0001C1.35941 58.1801 3.68941 59.7301 8.32941 58.4501M18.1594 14.0001C15.5994 14.0001 14.0094 19.2901 21.4094 21.0001C33.3394 23.8201 47.2694 22.8801 53.0494 19.2701M34.9194 15.4201C35.4294 13.6001 18.9194 12.6101 18.1594 14.7401M36.2594 17.8601C29.3094 16.5901 18.3694 17.5301 18.1594 15.6801M28.6494 36.7301C25.2994 34.0201 23.5294 39.6201 26.6494 39.8001C30.2194 40.0101 29.8094 45.8001 24.9394 43.6001M26.9694 34.0701V35.8601M26.9694 44.1601V45.9801M62.9994 47.0001C61.3394 64.9001 48.2594 64.0001 42.9094 61.8401C36.5794 59.3601 32.1394 51.3101 34.7894 43.0001C38.3494 31.8801 47.4394 32.3401 51.2694 34.5201C51.7294 34.7801 47.2694 48.6101 47.8494 49.2101C48.9994 50.3701 63.0894 46.3101 62.9994 47.0001ZM51.5294 45.8101C51.3094 45.6001 56.3394 34.0301 56.7094 34.0501C60.5394 34.3101 63.3294 39.4901 62.9894 43.0501C62.9394 43.5401 51.6994 46.0001 51.5294 45.8101Z" stroke="#494A4A" stroke-width="2" stroke-linecap="round" stroke-linejoin="round"/>
<path id="1px" d="M15.4387 3.89001C16.6719 4.41089 17.7879 5.17407 18.7207 6.13429C19.6534 7.09451 20.3839 8.23224 20.8687 9.48001M21.6787 16.81C17.7887 24.71 14.5187 23.96 12.5487 28.42M6.92871 48.94C7.26575 51.0249 8.11069 52.9949 9.38901 54.676C10.6673 56.3572 12.3397 57.698 14.2587 58.58M14.0887 54.65C14.5787 56.25 16.9287 58.36 18.0387 58.98" stroke="#494A4A" stroke-linecap="round" stroke-linejoin="round"/>
</g>
</g>
<defs>
<clipPath id="clip0_426_2747">
<rect width="64" height="64" fill="white"/>
</clipPath>
</defs>
</svg>
