<svg width="64" height="64" viewBox="0 0 64 64" fill="none" xmlns="http://www.w3.org/2000/svg">
<g id="  Pictogram-data-analytics">
<g id="stroke-default">
<path id="2px" d="M38.2002 39.7002L42.0002 43.5002M40.7002 37.2002L44.7002 41.1002M45.8 23.4C45.8 35.2189 36.2189 44.8 24.4 44.8C12.5811 44.8 3 35.2189 3 23.4C3 11.5811 12.5811 2 24.4 2C36.2189 2 45.8 11.5811 45.8 23.4ZM41.3003 45.5003C43.2003 49.7003 48.6003 56.3003 51.4003 59.0003C52.6003 60.1003 54.6003 60.7003 56.0003 60.1003C58.4003 59.2003 60.2003 57.1002 61.1003 54.9002C61.8003 53.3002 61.3003 52.4003 60.1003 50.9003C57.6003 47.8003 50.4003 42.5003 46.9003 40.9003C45.0003 40.0003 40.6003 44.1003 41.3003 45.5003Z" stroke="#494A4A" stroke-width="2" stroke-linecap="round" stroke-linejoin="round"/>
<path id="1px" d="M6.49969 24.0996C6.09969 20.0996 7.19969 15.9996 9.89969 12.5996M41.7995 19C43.1995 24.3 41.3995 32.1 36.4995 36.4C32.3995 40 27.8995 41.6 22.4995 41M46.8995 11.9004L51.5995 10.3004M47.9995 7.40039L45.4995 9.80039M49.2995 14.7004L47.3995 14.2004M12.9997 24.8004C13.3997 24.1004 18.5997 19.2004 20.2997 19.3004C21.6997 19.3004 24.5997 24.0004 25.5997 24.0004C26.4997 24.0004 30.8997 19.5004 30.7997 19.2004C30.6997 18.8004 28.9997 17.6004 29.3997 17.2004C29.8997 16.6004 34.9997 15.4004 35.7997 16.0004C36.4997 16.6004 35.3997 22.0004 34.7997 22.2004C34.2997 22.4004 32.9997 21.0004 32.6997 20.8004C32.3997 20.6004 27.5997 27.3004 25.6997 27.3004C23.7997 27.3004 21.3997 23.3004 20.3997 23.2004C19.2997 23.2004 13.8997 30.4004 13.1997 29.9004C12.4997 29.5004 12.4997 25.7004 12.9997 24.8004Z" stroke="#494A4A" stroke-linecap="round" stroke-linejoin="round"/>
</g>
</g>
</svg>
