<svg width="64" height="64" viewBox="0 0 64 64" fill="none" xmlns="http://www.w3.org/2000/svg">
<g id="Pictogram-user-community" clip-path="url(#clip0_622_41998)">
<g id="stroke-default">
<path id="2px-stroke-default" d="M36.2004 47.1C36.2004 46.5477 35.7527 46.1 35.2004 46.1C34.6481 46.1 34.2004 46.5477 34.2004 47.1H36.2004ZM43.8004 53.5L43.2653 54.3449L43.2763 54.3517L43.8004 53.5ZM19.9004 53.7L19.3269 52.8808L19.3195 52.8859L19.3122 52.8913L19.9004 53.7ZM29.6004 47.1C29.6004 46.5477 29.1527 46.1 28.6004 46.1C28.0481 46.1 27.6004 46.5477 27.6004 47.1H29.6004ZM15.5004 34.2C15.5004 33.6477 15.0527 33.2 14.5004 33.2C13.9481 33.2 13.5004 33.6477 13.5004 34.2H15.5004ZM21.2004 39.4L21.7739 38.5808L21.7715 38.5791L21.2004 39.4ZM2.40039 39.5L2.95509 40.3321L2.97527 40.3186L2.99478 40.3042L2.40039 39.5ZM10.3004 34.2C10.3004 33.6477 9.85268 33.2 9.30039 33.2C8.74811 33.2 8.30039 33.6477 8.30039 34.2H10.3004ZM55.6004 34.2C55.6004 33.6477 55.1527 33.2 54.6004 33.2C54.0481 33.2 53.6004 33.6477 53.6004 34.2H55.6004ZM61.5004 39.5L62.1143 38.7106L62.1046 38.7031L62.0948 38.6958L61.5004 39.5ZM42.7004 39.4L43.2149 40.2575L43.2353 40.2453L43.2551 40.2321L42.7004 39.4ZM50.4004 34.2C50.4004 33.6477 49.9527 33.2 49.4004 33.2C48.8481 33.2 48.4004 33.6477 48.4004 34.2H50.4004ZM33.0421 4.65215C33.4022 5.07088 34.0336 5.1184 34.4523 4.75829C34.8711 4.39818 34.9186 3.7668 34.5585 3.34807L33.0421 4.65215ZM42.1003 8.20011H43.1004L43.1002 8.18622L42.1003 8.20011ZM31.0836 1.09104C30.5816 1.32116 30.3611 1.9147 30.5912 2.41676C30.8213 2.91883 31.4149 3.13929 31.9169 2.90917L31.0836 1.09104ZM34.2004 47.1C34.2004 48.5543 34.6145 49.6953 35.3542 50.5825C36.0739 51.4458 37.036 51.9889 37.9917 52.386C38.9335 52.7773 39.9913 53.0719 40.8904 53.3553C41.8327 53.6523 42.6349 53.9455 43.2653 54.3448L44.3354 52.6552C43.4659 52.1044 42.4431 51.7477 41.4916 51.4478C40.497 51.1343 39.5922 50.8852 38.7591 50.539C37.9398 50.1986 37.3144 49.8105 36.8903 49.3018C36.4863 48.8172 36.2004 48.1457 36.2004 47.1H34.2004ZM43.2763 54.3517C43.384 54.4179 43.5812 54.6153 43.8157 55.0431C44.0388 55.4503 44.249 55.9798 44.4296 56.5857C44.7919 57.8012 45.0004 59.205 45.0004 60.3H47.0004C47.0004 58.995 46.7589 57.3988 46.3462 56.0143C46.1393 55.3202 45.8807 54.6497 45.5695 54.0819C45.2696 53.5347 44.8668 52.982 44.3245 52.6483L43.2763 54.3517ZM45.0004 60.3C45.0004 60.1687 45.0723 60.1357 44.9934 60.2114C44.9064 60.2949 44.7232 60.4211 44.3939 60.5662C43.7398 60.8545 42.7405 61.1193 41.4564 61.3394C38.9068 61.7765 35.4679 62 32.0004 62C28.5329 62 25.094 61.7765 22.5444 61.3394C21.2603 61.1193 20.261 60.8545 19.6069 60.5662C19.2776 60.4211 19.0943 60.2949 19.0074 60.2114C18.9285 60.1357 19.0004 60.1687 19.0004 60.3H17.0004C17.0004 60.8813 17.291 61.3362 17.6223 61.6542C17.9455 61.9645 18.3638 62.2039 18.8002 62.3963C19.6773 62.783 20.8655 63.0807 22.2064 63.3106C24.9068 63.7735 28.4679 64 32.0004 64C35.5329 64 39.094 63.7735 41.7944 63.3106C43.1353 63.0807 44.3235 62.783 45.2006 62.3963C45.637 62.2039 46.0553 61.9645 46.3785 61.6542C46.7098 61.3362 47.0004 60.8813 47.0004 60.3H45.0004ZM19.0004 60.3C19.0004 59.2987 19.1858 57.9352 19.5046 56.7309C19.6634 56.131 19.8478 55.5996 20.043 55.1878C20.2521 54.7468 20.4204 54.5583 20.4886 54.5087L19.3122 52.8913C18.8304 53.2417 18.4862 53.8032 18.2359 54.3309C17.9718 54.8879 17.7499 55.544 17.5712 56.2191C17.215 57.5648 17.0004 59.1013 17.0004 60.3H19.0004ZM20.4739 54.5192C21.0911 54.0871 21.8852 53.7801 22.8276 53.4814C23.7181 53.1991 24.8027 52.9087 25.749 52.5276C26.7184 52.1371 27.7001 51.5963 28.4336 50.709C29.1859 49.799 29.6004 48.619 29.6004 47.1H27.6004C27.6004 48.231 27.3024 48.9385 26.8921 49.4347C26.4632 49.9537 25.8324 50.3379 25.0018 50.6724C24.148 51.0163 23.2452 51.2509 22.2232 51.5749C21.2531 51.8824 20.2097 52.2629 19.3269 52.8808L20.4739 54.5192ZM32.0004 49.1C33.8484 49.1 35.6278 48.0511 36.9071 46.2235C38.1884 44.3931 39.0004 41.7544 39.0004 38.4H37.0004C37.0004 41.4456 36.2624 43.6569 35.2687 45.0765C34.273 46.4989 33.0524 47.1 32.0004 47.1V49.1ZM39.0004 38.4C39.0004 35.8091 38.3936 33.7184 37.1477 32.2624C35.8814 30.7825 34.0772 30.1 32.0004 30.1V32.1C33.6236 32.1 34.8193 32.6175 35.6281 33.5626C36.4572 34.5316 37.0004 36.0909 37.0004 38.4H39.0004ZM32.0004 30.1C29.9236 30.1 28.1193 30.7825 26.8531 32.2624C25.6072 33.7184 25.0004 35.8091 25.0004 38.4H27.0004C27.0004 36.0909 27.5436 34.5316 28.3727 33.5626C29.1814 32.6175 30.3772 32.1 32.0004 32.1V30.1ZM25.0004 38.4C25.0004 41.7544 25.8124 44.3931 27.0937 46.2235C28.373 48.0511 30.1524 49.1 32.0004 49.1V47.1C30.9484 47.1 29.7278 46.4989 28.7321 45.0765C27.7384 43.6569 27.0004 41.4456 27.0004 38.4H25.0004ZM13.5004 34.2C13.5004 35.4001 13.8369 36.3564 14.4488 37.1069C15.042 37.8345 15.8298 38.2887 16.591 38.6179C17.3341 38.9392 18.1811 39.1907 18.8616 39.4219C19.5884 39.6688 20.1784 39.9073 20.6293 40.2209L21.7715 38.5791C21.0723 38.0928 20.2499 37.7812 19.5049 37.5281C18.7134 37.2593 18.0292 37.0608 17.3848 36.7821C16.7584 36.5113 16.3025 36.2155 15.9989 35.8431C15.7139 35.4936 15.5004 34.9999 15.5004 34.2H13.5004ZM20.6269 40.2192C20.6873 40.2615 20.8278 40.4059 21.0036 40.7388C21.1697 41.0534 21.3283 41.4617 21.4657 41.9309C21.7416 42.8737 21.9004 43.954 21.9004 44.8H23.9004C23.9004 43.746 23.7092 42.4763 23.3851 41.3691C23.2225 40.8133 23.0186 40.2716 22.7722 39.805C22.5354 39.3566 22.2135 38.8885 21.7739 38.5808L20.6269 40.2192ZM21.9004 44.8C21.9004 44.6342 21.9869 44.5626 21.9519 44.5971C21.908 44.6402 21.7892 44.7291 21.5432 44.8403C21.0549 45.061 20.2917 45.2703 19.2898 45.4463C17.3045 45.7953 14.617 45.975 11.9004 45.975C9.18377 45.975 6.49633 45.7953 4.51099 45.4463C3.50909 45.2703 2.74589 45.061 2.25754 44.8403C2.01154 44.7291 1.8928 44.6402 1.84893 44.5971C1.81387 44.5626 1.90039 44.6342 1.90039 44.8H-0.0996094C-0.0996094 45.3283 0.158789 45.7398 0.445992 46.0225C0.724389 46.2965 1.07831 46.5021 1.43386 46.6628C2.14864 46.9859 3.10419 47.2297 4.16479 47.4162C6.30445 47.7922 9.11701 47.975 11.9004 47.975C14.6838 47.975 17.4963 47.7922 19.636 47.4162C20.6966 47.2297 21.6521 46.9859 22.3669 46.6628C22.7225 46.5021 23.0764 46.2965 23.3548 46.0225C23.642 45.7398 23.9004 45.3283 23.9004 44.8H21.9004ZM1.90039 44.8C1.90039 43.9909 2.03802 42.8993 2.28163 41.9481C2.40312 41.4737 2.5433 41.0648 2.68939 40.7576C2.85049 40.4189 2.96072 40.3283 2.95509 40.3321L1.84569 38.6679C1.39006 38.9717 1.08779 39.4686 0.883264 39.8986C0.663735 40.3602 0.485164 40.9013 0.344154 41.4519C0.062758 42.5507 -0.0996094 43.8091 -0.0996094 44.8H1.90039ZM2.99478 40.3042C3.4332 39.9801 4.02147 39.7388 4.76151 39.4952C5.44612 39.2698 6.33087 39.0239 7.09121 38.7132C7.87661 38.3922 8.69612 37.9429 9.3141 37.2009C9.95197 36.435 10.3004 35.4487 10.3004 34.2H8.30039C8.30039 35.0513 8.07381 35.565 7.77731 35.921C7.46092 36.3008 6.98668 36.5953 6.33457 36.8618C5.65741 37.1386 4.96091 37.3239 4.13614 37.5955C3.36681 37.8487 2.51758 38.1699 1.806 38.6958L2.99478 40.3042ZM12.0004 36C15.1902 36 18.0004 32.7802 18.0004 27.5H16.0004C16.0004 32.2198 13.6106 34 12.0004 34V36ZM18.0004 27.5C18.0004 25.4452 17.4864 23.7643 16.3943 22.593C15.292 21.4109 13.7436 20.9 12.0004 20.9V22.9C13.3572 22.9 14.3088 23.2891 14.9315 23.957C15.5644 24.6357 16.0004 25.7548 16.0004 27.5H18.0004ZM12.0004 20.9C10.2572 20.9 8.70875 21.4109 7.60651 22.593C6.51436 23.7643 6.00039 25.4452 6.00039 27.5H8.00039C8.00039 25.7548 8.43642 24.6357 9.06927 23.957C9.69203 23.2891 10.6436 22.9 12.0004 22.9V20.9ZM6.00039 27.5C6.00039 32.67 8.80293 36 12.0004 36V34C10.3979 34 8.00039 32.13 8.00039 27.5H6.00039ZM53.6004 34.2C53.6004 35.4487 53.9488 36.435 54.5867 37.2009C55.2047 37.9429 56.0242 38.3922 56.8096 38.7132C57.5699 39.0239 58.4547 39.2698 59.1393 39.4952C59.8793 39.7388 60.4676 39.9801 60.906 40.3042L62.0948 38.6958C61.3832 38.1699 60.534 37.8487 59.7646 37.5955C58.9399 37.3239 58.2434 37.1386 57.5662 36.8618C56.9141 36.5953 56.4399 36.3008 56.1235 35.921C55.827 35.565 55.6004 35.0513 55.6004 34.2H53.6004ZM60.8864 40.2894C60.9258 40.32 61.0501 40.4566 61.2094 40.7956C61.358 41.1118 61.4987 41.521 61.6199 41.9885C61.8632 42.9269 62.0004 43.9924 62.0004 44.8H64.0004C64.0004 43.8076 63.8376 42.5731 63.5559 41.4865C63.4146 40.9415 63.2365 40.4069 63.0195 39.945C62.8132 39.5059 62.525 39.03 62.1143 38.7106L60.8864 40.2894ZM62.0004 44.8C62.0004 44.6342 62.0869 44.5626 62.0519 44.5971C62.008 44.6402 61.8892 44.7291 61.6432 44.8403C61.1549 45.061 60.3917 45.2703 59.3898 45.4463C57.4045 45.7953 54.717 45.975 52.0004 45.975C49.2838 45.975 46.5963 45.7953 44.611 45.4463C43.6091 45.2703 42.8459 45.061 42.3575 44.8403C42.1115 44.7291 41.9928 44.6402 41.9489 44.5971C41.9139 44.5626 42.0004 44.6342 42.0004 44.8H40.0004C40.0004 45.3283 40.2588 45.7398 40.546 46.0225C40.8244 46.2965 41.1783 46.5021 41.5339 46.6628C42.2486 46.9859 43.2042 47.2297 44.2648 47.4162C46.4045 47.7922 49.217 47.975 52.0004 47.975C54.7838 47.975 57.5963 47.7922 59.736 47.4162C60.7966 47.2297 61.7521 46.9859 62.4669 46.6628C62.8225 46.5021 63.1764 46.2965 63.4548 46.0225C63.742 45.7398 64.0004 45.3283 64.0004 44.8H62.0004ZM42.0004 44.8C42.0004 43.9523 42.1597 42.8459 42.436 41.8903C42.5737 41.4141 42.7317 41.0063 42.8948 40.701C42.9759 40.5494 43.0507 40.4373 43.1143 40.3594C43.1797 40.2795 43.2162 40.2567 43.2149 40.2575L42.1859 38.5425C41.7038 38.8317 41.3669 39.3168 41.1309 39.7584C40.8816 40.2249 40.6771 40.7734 40.5147 41.3347C40.1911 42.4541 40.0004 43.7477 40.0004 44.8H42.0004ZM43.2551 40.2321C43.7375 39.9104 44.3479 39.6695 45.0796 39.4225C45.7683 39.19 46.6103 38.9395 47.3503 38.6165C48.1075 38.2861 48.8867 37.8301 49.4715 37.1002C50.0735 36.3488 50.4004 35.3944 50.4004 34.2H48.4004C48.4004 35.0056 48.1898 35.5012 47.9106 35.8498C47.6141 36.2199 47.1682 36.5139 46.5504 36.7835C45.9155 37.0605 45.2325 37.26 44.4399 37.5275C43.6904 37.7805 42.8632 38.0896 42.1457 38.568L43.2551 40.2321ZM58.0004 27.6C58.0004 25.5452 57.4864 23.8643 56.3943 22.693C55.292 21.5109 53.7436 21 52.0004 21V23C53.3572 23 54.3088 23.3891 54.9315 24.057C55.5644 24.7357 56.0004 25.8548 56.0004 27.6H58.0004ZM52.0004 21C50.2572 21 48.7088 21.5109 47.6065 22.693C46.5144 23.8643 46.0004 25.5452 46.0004 27.6H48.0004C48.0004 25.8548 48.4364 24.7357 49.0693 24.057C49.692 23.3891 50.6436 23 52.0004 23V21ZM46.0004 27.6C46.0004 32.77 48.8029 36.1 52.0004 36.1V34.1C50.3979 34.1 48.0004 32.23 48.0004 27.6H46.0004ZM52.0004 36.1C55.1902 36.1 58.0004 32.8802 58.0004 27.6H56.0004C56.0004 32.3198 53.6106 34.1 52.0004 34.1V36.1ZM34.5585 3.34807C32.1848 0.58793 28.6784 -0.523307 25.6854 0.257491C22.6047 1.06114 20.3003 3.80201 20.3003 8.20011H22.3003C22.3003 4.5982 24.0959 2.73908 26.1902 2.19273C28.3722 1.62352 31.1158 2.41229 33.0421 4.65215L34.5585 3.34807ZM20.3003 8.20011C20.3003 12.5275 22.3048 15.9704 24.6722 18.3112C25.8559 19.4816 27.1445 20.3919 28.3515 21.014C29.5363 21.6246 30.7255 22.0001 31.7003 22.0001V20.0001C31.175 20.0001 30.3143 19.7756 29.2678 19.2362C28.2435 18.7083 27.1197 17.9186 26.0784 16.889C23.9958 14.8298 22.3003 11.8727 22.3003 8.20011H20.3003ZM31.7003 22.0001C32.5908 22.0001 33.7378 21.6129 34.8865 21.0108C36.0677 20.3916 37.3642 19.4854 38.5704 18.319C40.9798 15.989 43.1003 12.5451 43.1003 8.20011H41.1003C41.1003 11.8551 39.3208 14.8112 37.1801 16.8813C36.1114 17.9148 34.9704 18.7087 33.9579 19.2394C32.9128 19.7873 32.1098 20.0001 31.7003 20.0001V22.0001ZM43.1002 8.18622C43.0462 4.29806 41.4484 1.78691 38.9762 0.664551C36.5912 -0.418199 33.6501 -0.0852603 31.0836 1.09104L31.9169 2.90917C34.1505 1.88548 36.4594 1.71842 38.1494 2.48567C39.7522 3.2133 41.0544 4.90216 41.1004 8.214L43.1002 8.18622Z" fill="#494A4A"/>
<path id="1px-stroke-default" d="M17 11C13.2 12.2 12.9 15 12.5 18.5M47 11C50.8 12.2 51.1 15 51.5 18.5M31.5 25V27.6M26.0001 4.3999C24.9001 4.5999 24.1001 5.6999 24.0001 6.9999" stroke="#494A4A" stroke-linecap="round" stroke-linejoin="round"/>
</g>
</g>
<defs>
<clipPath id="clip0_622_41998">
<rect width="64" height="64" fill="white"/>
</clipPath>
</defs>
</svg>
