<svg width="64" height="64" viewBox="0 0 64 64" fill="none" xmlns="http://www.w3.org/2000/svg">
<g id="Pictogram-payment" clip-path="url(#clip0_426_1150)">
<g id="stroke-default">
<path id="2px" d="M54.3805 42.92C50.7405 40.3 46.3805 38.02 41.0805 37.98C37.0105 37.98 33.8205 39.98 30.2305 39.98C25.0205 39.98 21.5305 36.8 18.7605 36.98C15.3805 37.25 14.0605 40.19 15.7605 41.23C18.4205 42.87 21.8105 46.52 30.0505 47.17M15.2705 37.67C13.7105 35.32 11.2705 32.36 9.58049 31.28C7.26049 29.79 4.04049 31.08 5.66049 33.28C8.51049 37.28 10.6605 43.41 12.3105 45.12C14.4205 47.34 19.8405 50.84 22.8605 51.59C26.6105 52.52 41.2405 50.38 47.9505 54.59M5.41049 31.52C2.15049 29.61 -0.109508 32.59 1.67049 34.07C6.08049 37.73 6.67049 40.35 12.8605 45.75M52.0805 40.78C52.8563 40.2562 53.7745 39.9839 54.7105 40C55.9805 40 62.0105 44.92 62.8405 46.76C63.6705 48.6 61.6605 60.21 55.0005 61.92C52.6905 62.51 45.7205 59.54 45.2205 58.21C44.8705 57.32 45.4205 55.5 45.9905 54.4M37.7105 20C36.1105 16.46 32.6505 20 34.9705 21.46C37.5905 23.09 35.1305 26.82 32.2905 23.26M37.2505 17.85L36.8705 18.53M33.6405 24.43L33.1305 25.37M20.1705 7.74C17.9705 5.54 17.7505 10.6 19.4405 10.55C21.3605 10.49 21.6905 15.12 18.8805 13.61M19.0805 6.13L19.1805 6.94M20.0105 13.88L20.1405 14.99M35.7505 31.91C34.1552 31.6621 32.6154 31.1375 31.2005 30.36C27.5805 28.42 27.0805 22.87 29.0705 18.57C31.3605 13.57 36.2405 11.92 39.6405 13.79C41.0393 14.4247 42.3421 15.2528 43.5105 16.25C47.5805 21 42.7105 32.62 35.7505 31.91ZM16.8905 21C18.1905 21 20.7705 21.06 21.6705 20.59C26.0005 18.3 24.2505 1.42 18.4705 1C16.8011 1.08897 15.1599 1.46796 13.6205 2.12C10.0605 3.79 12.5105 21 16.8905 21Z" stroke="#494A4A" stroke-width="2" stroke-linecap="round" stroke-linejoin="round"/>
<path id="1px" d="M45.1001 41.54C47.2243 41.5873 49.2554 42.4212 50.8001 43.88M54.8601 40.49C56.9801 41.58 47.5701 58.49 45.5701 57.49M17.8901 39.57C18.5901 39.89 20.7501 40.77 21.0301 41.42C21.1801 41.75 21.0301 43.9 19.6501 43.42M40.1501 14.69C45.7101 18.27 39.6501 34.45 30.7101 29.44M17.5801 1.07001C13.0901 2.55001 16.4301 20.56 20.7501 20.83M52.6301 59C52.042 58.7518 51.4956 58.4145 51.0101 58C50.8459 57.8953 50.7158 57.7448 50.6358 57.5672C50.5559 57.3895 50.5296 57.1924 50.5601 57C50.7032 56.5427 50.9457 56.1227 51.2701 55.77C51.4339 55.6423 51.6294 55.5618 51.8356 55.5371C52.0418 55.5124 52.2508 55.5446 52.4401 55.63C53.0189 55.896 53.5629 56.2319 54.0601 56.63C54.239 56.74 54.3788 56.9035 54.4596 57.0973C54.5403 57.2912 54.558 57.5055 54.5101 57.71C54.3814 58.1735 54.1371 58.5968 53.8001 58.94C53.6292 59.056 53.4298 59.1229 53.2235 59.1335C53.0172 59.1441 52.812 59.0979 52.6301 59Z" stroke="#494A4A" stroke-linecap="round" stroke-linejoin="round"/>
</g>
</g>
<defs>
<clipPath id="clip0_426_1150">
<rect width="64" height="64" fill="white"/>
</clipPath>
</defs>
</svg>
