<svg width="64" height="64" viewBox="0 0 64 64" fill="none" xmlns="http://www.w3.org/2000/svg">
<g id="  Pictogram-bronze-rank-1">
<g id="stroke-default">
<g id="2px">
<path d="M32 53.0996C45.2548 53.0996 56 42.3544 56 29.0996C56 15.8448 45.2548 5.09961 32 5.09961C18.7452 5.09961 8 15.8448 8 29.0996C8 42.3544 18.7452 53.0996 32 53.0996Z" stroke="#494A4A" stroke-width="2" stroke-linecap="round" stroke-linejoin="round"/>
<path d="M31.9999 16.6996C33.3999 16.6996 35.4999 23.6996 36.5999 24.3996C37.6999 25.0996 44.2999 25.0996 44.4999 26.2996C44.6999 27.4996 39.6999 31.8996 39.0999 32.8996C38.4999 33.8996 40.8999 40.3996 39.7999 40.9996C38.6999 41.5996 33.3999 36.8996 32.0999 36.8996C30.7999 36.8996 25.4999 41.5996 24.3999 40.9996C23.2999 40.3996 25.1999 34.0996 24.9999 32.6996C24.7999 31.2996 19.0999 27.8996 19.5999 26.2996C20.0999 24.6996 26.9999 24.7996 27.6999 24.2996C28.3999 23.7996 30.7999 16.5996 32.1999 16.5996L31.9999 16.6996Z" stroke="#494A4A" stroke-width="2" stroke-linecap="round" stroke-linejoin="round"/>
</g>
<path id="1px" d="M32.7012 49.1C34.2012 49 35.4012 48.8 36.7012 48.5M40.1011 47.2002C46.4011 44.4002 49.9011 39.5002 51.6011 33.2002M17.4008 15.2002C12.7008 20.2002 11.4008 26.1002 12.2008 32.6002M30.6011 24.6004C30.9011 23.9004 31.3011 23.0004 31.5011 22.4004" stroke="#494A4A" stroke-linecap="round" stroke-linejoin="round"/>
</g>
</g>
</svg>
