<svg width="64" height="64" viewBox="0 0 64 64" fill="none" xmlns="http://www.w3.org/2000/svg">
<g id="Pictogram-like-v3" clip-path="url(#clip0_426_353)">
<g id="stroke-default">
<path id="2px" d="M44.5502 34.48C51.0702 35.34 53.5502 32.48 56.5502 31.93M45.0902 26.21C56.3502 27.21 59.4902 28.78 61.2002 30.84C62.9102 32.9 64.5602 40.68 60.4802 41.89C56.4426 43.1245 52.2116 43.6025 48.0002 43.3C44.7702 42.71 43.6902 41.05 43.3102 39.63M40.1002 60.5C32.3002 62 15.0002 60.5 14.1802 51.61M40.1002 60.5C41.4602 61.83 46.5102 63.28 48.7102 62.88C50.4502 62.55 54.0802 60.55 54.4502 57.55M40.1002 60.5C37.9602 58.4 39.1002 54.3 41.1002 53.84M61.3902 42.08C61.8502 42.53 61.5102 48.85 59.2602 49.78C56.0702 51.11 47.0702 50.99 44.2602 49.78C43.2895 49.3804 42.4851 48.6602 41.981 47.7395C41.477 46.8187 41.3038 45.753 41.4902 44.72C41.8102 43.09 43.2602 41.55 44.3102 41.47M59.4902 50.28C60.7002 53.47 58.1102 57.41 55.0102 57.49C52.0802 57.57 44.8502 56.06 42.1002 54.65C41.2202 54.2 40.1002 53.11 40.1002 50.74C40.1002 49.12 41.0502 47.44 41.8102 47.4M34.8202 45.53C40.8202 45.08 45.1902 39.61 44.4802 28.91C43.8602 19.43 48.6602 13.32 47.9802 8.13996C46.7302 -1.38004 39.2302 0.439955 38.9802 3.58996C38.2402 15.46 32.0002 17.84 27.1402 24C21.8702 30.72 15.0602 31 15.0602 34.93M16.2802 55.93C14.5311 55.1601 12.6094 54.8669 10.7102 55.08M16.3202 32.11C14.8229 32.1682 13.3254 31.9962 11.8802 31.6M11.4302 29.47C10.3502 27.59 4.16025 27.54 3.13025 29.18C1.46025 31.87 -0.189751 54.28 2.16025 57C3.27025 58.3 8.00025 58.48 10.0002 57.21C11.2102 56.41 13.0002 32.11 11.4302 29.47Z" stroke="#494A4A" stroke-width="2" stroke-linecap="round" stroke-linejoin="round"/>
<path id="1px" d="M37.3902 11.4299C39.3902 11.6199 41.3902 11.6599 41.4902 9.06995M62.0007 56.6201C61.6407 58.8001 60.0007 60.6201 56.8407 62.4601M63.4707 60.1101C62.7979 61.5081 61.717 62.6692 60.3707 63.4401M25.4707 56.5401C22.2307 56.1801 20.6707 55.0901 19.4707 53.5401M25.8207 16.2701L23.0707 13.0401M21.6007 17.1101L24.1407 18.6101M27.8707 12.8601L28.3407 14.7601" stroke="#494A4A" stroke-linecap="round" stroke-linejoin="round"/>
</g>
</g>
<defs>
<clipPath id="clip0_426_353">
<rect width="64" height="64" fill="white"/>
</clipPath>
</defs>
</svg>
