<svg width="64" height="64" viewBox="0 0 64 64" fill="none" xmlns="http://www.w3.org/2000/svg">
<g id="Pictogram-user-hierarchy" clip-path="url(#clip0_622_42006)">
<g id="stroke-default">
<path id="2px" d="M13.0004 37.0202C13.0115 37.5724 13.468 38.0111 14.0202 38C14.5724 37.989 15.0111 37.5324 15 36.9802L13.0004 37.0202ZM45.6002 32.2002L45.5714 33.1998L45.5858 33.2002H45.6002V32.2002ZM48.0002 37.0002C48.0002 37.5525 48.4479 38.0002 49.0002 38.0002C49.5525 38.0002 50.0002 37.5525 50.0002 37.0002H48.0002ZM33 28.5C33 27.9477 32.5523 27.5 32 27.5C31.4477 27.5 31 27.9477 31 28.5H33ZM31 37C31 37.5523 31.4477 38 32 38C32.5523 38 33 37.5523 33 37H31ZM39.8002 3.99999L39.9106 3.00611C39.8985 3.00476 39.8863 3.00363 39.8741 3.00272L39.8002 3.99999ZM24.6002 4.39998L24.7353 5.39083L24.7416 5.38993L24.6002 4.39998ZM21.2002 8.89998L20.2063 8.78955C20.2056 8.79617 20.2049 8.8028 20.2043 8.80944L21.2002 8.89998ZM21.3002 21.1L20.3006 21.1277C20.3011 21.1474 20.3023 21.167 20.304 21.1866L21.3002 21.1ZM24.2002 24.8L24.3353 23.8091C24.3271 23.808 24.3189 23.807 24.3106 23.8061L24.2002 24.8ZM39.1002 24.8V23.8C39.08 23.8 39.0599 23.8006 39.0397 23.8018L39.1002 24.8ZM42.6002 21.4L41.6025 21.332L41.6019 21.3413L42.6002 21.4ZM42.6002 6.99998L43.5963 6.91144C43.595 6.89686 43.5934 6.88232 43.5914 6.86781L42.6002 6.99998ZM38 41.0999L37.9312 42.0976L37.9412 42.0981L38 41.0999ZM26.1 41.2999L25.987 40.3062L25.9759 40.3076L26.1 41.2999ZM23.2 44.4999L24.1927 44.6202L24.1938 44.6103L23.2 44.4999ZM23.4 55.0999L22.4016 55.1569C22.4022 55.1668 22.4029 55.1767 22.4037 55.1865L23.4 55.0999ZM26.5 58.7999L26.6293 57.8083C26.6194 57.807 26.6094 57.8058 26.5995 57.8048L26.5 58.7999ZM37.4 58.7999V57.7999C37.3904 57.7999 37.3809 57.8 37.3714 57.8003L37.4 58.7999ZM40.7 56.5999L39.7041 56.5093C39.7013 56.5394 39.7 56.5696 39.7 56.5999H40.7ZM40.7 44.0999L41.6959 44.0093C41.6946 43.9954 41.693 43.9815 41.6912 43.9677L40.7 44.0999ZM3.89995 41.2002L3.19285 41.9073C3.39732 42.1117 3.68028 42.2177 3.96875 42.1978L3.89995 41.2002ZM15.8 41.2002L15.7094 42.196C15.7188 42.1969 15.7282 42.1976 15.7376 42.1982L15.8 41.2002ZM18.7 44.3002L17.7061 44.4106C17.7075 44.4237 17.7093 44.4369 17.7112 44.45L18.7 44.3002ZM18.7 54.9002L17.7015 54.8431L17.7009 54.8567L18.7 54.9002ZM15.6 58.7002L15.4516 57.7112C15.4439 57.7124 15.4363 57.7136 15.4286 57.7149L15.6 58.7002ZM4.69995 58.9002L4.72851 57.9006C4.71899 57.9003 4.70947 57.9002 4.69995 57.9002V58.9002ZM1.29995 56.7002L0.304059 56.7907C0.304663 56.7973 0.305332 56.804 0.306069 56.8106L1.29995 56.7002ZM1.19995 44.2002L2.19585 44.2907C2.19657 44.2827 2.1972 44.2747 2.19774 44.2667L1.19995 44.2002ZM3.79995 41.1002L4.50705 40.393C4.28885 40.1748 3.98212 40.0696 3.67592 40.1079L3.79995 41.1002ZM62.7999 55.8998L61.8022 55.831L61.8016 55.8411L62.7999 55.8998ZM62.5999 43.9998L63.5935 43.8869L63.5921 43.8758L62.5999 43.9998ZM59.3998 41.0998L59.2795 42.0926L59.2894 42.0937L59.3998 41.0998ZM48.7999 41.2998L48.7428 40.3015C48.7329 40.302 48.7231 40.3027 48.7132 40.3036L48.7999 41.2998ZM45.0999 44.3998L44.1109 44.2515C44.11 44.2578 44.1091 44.2642 44.1083 44.2705L45.0999 44.3998ZM45.0999 55.2998H46.0999C46.0999 55.2903 46.0997 55.2808 46.0994 55.2713L45.0999 55.2998ZM47.2999 58.5998L47.1758 59.5921C47.187 59.5935 47.1981 59.5947 47.2093 59.5957L47.2999 58.5998ZM59.7999 58.5998L59.8884 59.5959C59.903 59.5946 59.9175 59.593 59.932 59.5911L59.7999 58.5998ZM2.02381 58.1831C1.90401 58.7223 2.24394 59.2565 2.78307 59.3763C3.3222 59.4961 3.85638 59.1561 3.97619 58.617L2.02381 58.1831ZM3.8 56.4001L3.1753 55.6192L3.13206 55.6538L3.09289 55.693L3.8 56.4001ZM9.3 52.6001C9.3 52.0478 8.85228 51.6001 8.3 51.6001C7.74771 51.6001 7.3 52.0478 7.3 52.6001H9.3ZM12.7 52.6001C12.7 52.0478 12.2523 51.6001 11.7 51.6001C11.1477 51.6001 10.7 52.0478 10.7 52.6001H12.7ZM16.1 56.3001L15.5086 57.1065L15.5267 57.1197L15.5453 57.1321L16.1 56.3001ZM15.9385 58.0748C16.0902 58.6058 16.6437 58.9133 17.1747 58.7616C17.7058 58.6099 18.0132 58.0564 17.8615 57.5254L15.9385 58.0748ZM24.0238 58.1831C23.904 58.7223 24.2439 59.2565 24.7831 59.3763C25.3222 59.4961 25.8564 59.1561 25.9762 58.617L24.0238 58.1831ZM25.8 56.4001L25.1753 55.6192L25.1321 55.6538L25.0929 55.693L25.8 56.4001ZM31.3 52.6001C31.3 52.0478 30.8523 51.6001 30.3 51.6001C29.7477 51.6001 29.3 52.0478 29.3 52.6001H31.3ZM34.7 52.6001C34.7 52.0478 34.2523 51.6001 33.7 51.6001C33.1477 51.6001 32.7 52.0478 32.7 52.6001H34.7ZM38.1 56.3001L37.5086 57.1065L37.5267 57.1197L37.5453 57.1321L38.1 56.3001ZM37.9385 58.0748C38.0902 58.6058 38.6437 58.9133 39.1747 58.7616C39.7058 58.6099 40.0132 58.0564 39.8615 57.5254L37.9385 58.0748ZM46.0238 58.1831C45.904 58.7223 46.2439 59.2565 46.7831 59.3763C47.3222 59.4961 47.8564 59.1561 47.9762 58.617L46.0238 58.1831ZM47.8 56.4001L47.1753 55.6192L47.1321 55.6538L47.0929 55.693L47.8 56.4001ZM53.3 52.6001C53.3 52.0478 52.8523 51.6001 52.3 51.6001C51.7477 51.6001 51.3 52.0478 51.3 52.6001H53.3ZM56.7 52.6001C56.7 52.0478 56.2523 51.6001 55.7 51.6001C55.1477 51.6001 54.7 52.0478 54.7 52.6001H56.7ZM60.1 56.3001L59.5086 57.1065L59.5267 57.1197L59.5453 57.1321L60.1 56.3001ZM59.9385 58.0748C60.0902 58.6058 60.6437 58.9133 61.1747 58.7616C61.7058 58.6099 62.0132 58.0564 61.8615 57.5254L59.9385 58.0748ZM22.3192 23.9038C22.2109 24.4453 22.5621 24.9721 23.1037 25.0805C23.6452 25.1888 24.1721 24.8376 24.2804 24.296L22.3192 23.9038ZM24.2998 21.7999L23.7066 20.9948L23.6998 20.9999L24.2998 21.7999ZM30.8998 17.3999C30.8998 16.8476 30.4521 16.3999 29.8998 16.3999C29.3475 16.3999 28.8998 16.8476 28.8998 17.3999H30.8998ZM35.0998 17.3999C35.0998 16.8476 34.6521 16.3999 34.0998 16.3999C33.5475 16.3999 33.0998 16.8476 33.0998 17.3999H35.0998ZM39.5998 21.6999L40.2245 20.919L40.1953 20.8957L40.1645 20.8746L39.5998 21.6999ZM39.8134 24.5643C39.9042 25.109 40.4194 25.4771 40.9642 25.3863C41.509 25.2955 41.877 24.7803 41.7862 24.2355L39.8134 24.5643ZM15 36.9802C14.9518 34.5719 15.498 33.8411 15.9244 33.5609C16.1745 33.3966 16.5148 33.2927 17.0015 33.2416C17.5003 33.1893 18.0408 33.2002 18.7002 33.2002V31.2002C18.1096 31.2002 17.4252 31.1862 16.7927 31.2525C16.1481 31.3202 15.4509 31.4789 14.826 31.8895C13.5025 32.7593 12.9486 34.4285 13.0004 37.0202L15 36.9802ZM18.7002 33.2002C26.4451 33.2002 35.1873 32.9002 45.5714 33.1998L45.6291 31.2006C35.2131 30.9002 26.3553 31.2002 18.7002 31.2002V33.2002ZM45.6002 33.2002C46.1618 33.2002 46.5396 33.1971 46.8584 33.2484C47.1431 33.2943 47.2816 33.3708 47.3806 33.4698C47.4936 33.5828 47.6584 33.8301 47.7892 34.4049C47.9202 34.9807 48.0002 35.8092 48.0002 37.0002H50.0002C50.0002 35.7412 49.9177 34.7447 49.7393 33.9611C49.5608 33.1766 49.2694 32.5301 48.7948 32.0556C48.3064 31.5671 47.7261 31.3624 47.1764 31.2739C46.6608 31.1908 46.0887 31.2002 45.6002 31.2002V33.2002ZM31 28.5V37H33V28.5H31ZM39.8741 3.00272C37.1267 2.79921 28.7508 2.79688 24.4588 3.41003L24.7416 5.38993C28.8496 4.80308 37.0737 4.80077 39.7263 4.99726L39.8741 3.00272ZM24.4651 3.40915C23.1345 3.59059 22.0956 4.16181 21.3749 5.16746C20.6897 6.12356 20.3634 7.37581 20.2063 8.78955L22.1941 9.01041C22.337 7.72414 22.6107 6.87639 23.0005 6.3325C23.3548 5.83815 23.8659 5.50937 24.7353 5.39081L24.4651 3.40915ZM20.2043 8.80944C19.8972 12.1879 20.2024 17.5939 20.3006 21.1277L22.2998 21.0722C22.198 17.406 21.9032 12.2121 22.1961 8.99051L20.2043 8.80944ZM20.304 21.1866C20.4122 22.4313 20.7191 23.5239 21.36 24.3503C22.0286 25.2125 22.9698 25.6694 24.0898 25.7939L24.3106 23.8061C23.6306 23.7305 23.2218 23.4875 22.9404 23.1247C22.6313 22.726 22.3882 22.0687 22.2965 21.0133L20.304 21.1866ZM24.0651 25.7908C25.2501 25.9524 28.2303 25.9999 31.2418 25.9875C34.285 25.9749 37.4823 25.8999 39.1607 25.7981L39.0397 23.8018C37.4181 23.9001 34.2654 23.975 31.2336 23.9875C28.1701 24.0001 25.3504 23.9476 24.3353 23.8091L24.0651 25.7908ZM39.1002 25.8C41.9534 25.8 43.4752 23.5542 43.5985 21.4587L41.6019 21.3413C41.5252 22.6457 40.647 23.8 39.1002 23.8V25.8ZM43.5979 21.468C43.8999 17.0383 44.0026 11.4819 43.5963 6.91144L41.6041 7.08852C41.9979 11.518 41.9005 16.9617 41.6025 21.332L43.5979 21.468ZM43.5914 6.86781C43.4747 5.99253 43.1735 5.09503 42.567 4.37054C41.9427 3.62486 41.0523 3.13296 39.9106 3.00611L39.6898 4.99387C40.3481 5.06702 40.7578 5.32512 41.0335 5.65442C41.3269 6.00493 41.5257 6.50742 41.609 7.13214L43.5914 6.86781ZM38.0688 40.1022C35.1316 39.8997 30.4669 39.7972 25.987 40.3063L26.2129 42.2935C30.533 41.8026 35.0683 41.9001 37.9312 42.0975L38.0688 40.1022ZM25.9759 40.3076C23.8501 40.5733 22.4493 42.2002 22.2061 44.3894L24.1938 44.6103C24.3506 43.1996 25.1499 42.4264 26.224 42.2922L25.9759 40.3076ZM22.2072 44.3795C21.7931 47.7957 22.2061 51.7362 22.4016 55.1569L24.3983 55.0428C24.1938 51.4636 23.8068 47.8041 24.1927 44.6202L22.2072 44.3795ZM22.4037 55.1865C22.5118 56.4295 22.8191 57.5353 23.5003 58.3698C24.2082 59.2369 25.2065 59.6755 26.4005 59.7949L26.5995 57.8048C25.7934 57.7242 25.3417 57.4628 25.0496 57.105C24.7308 56.7144 24.4881 56.0702 24.3962 55.0132L22.4037 55.1865ZM26.3706 59.7915C27.6013 59.952 29.5195 59.9747 31.5125 59.9498C33.5231 59.9247 35.6876 59.8492 37.4285 59.7995L37.3714 57.8003C35.6123 57.8505 33.4768 57.9251 31.4875 57.95C29.4804 57.975 27.6986 57.9478 26.6293 57.8083L26.3706 59.7915ZM37.4 59.7999C40.2021 59.7999 41.7 58.0912 41.7 56.5999H39.7C39.7 56.7085 39.3978 57.7999 37.4 57.7999V59.7999ZM41.6959 56.6904C42.1013 52.2302 42.1013 48.4696 41.6959 44.0093L39.7041 44.1904C40.0986 48.5302 40.0986 52.1696 39.7041 56.5093L41.6959 56.6904ZM41.6912 43.9677C41.5754 43.0995 41.2782 42.1855 40.6951 41.4523C40.09 40.6916 39.207 40.1691 38.0587 40.1016L37.9412 42.0981C38.4929 42.1306 38.86 42.3581 39.1299 42.6974C39.4217 43.0643 39.6245 43.6002 39.7087 44.232L41.6912 43.9677ZM3.96875 42.1978C6.85082 41.999 11.3886 41.8032 15.7094 42.196L15.8905 40.2043C11.4113 39.7971 6.74908 40.0013 3.83115 40.2025L3.96875 42.1978ZM15.7376 42.1982C16.7518 42.2616 17.5477 42.9855 17.7061 44.4106L19.6938 44.1897C19.4522 42.0148 18.0481 40.3387 15.8623 40.2021L15.7376 42.1982ZM17.7112 44.45C18.1917 47.6211 17.9045 51.2927 17.7016 54.8431L19.6983 54.9572C19.8954 51.5076 20.2082 47.5792 19.6887 44.1503L17.7112 44.45ZM17.7009 54.8567C17.6563 55.8814 17.4163 56.5171 17.0892 56.9161C16.7744 57.2999 16.2783 57.5872 15.4516 57.7112L15.7483 59.6891C16.9216 59.5131 17.9255 59.0504 18.6357 58.1842C19.3336 57.3332 19.6436 56.2189 19.699 54.9436L17.7009 54.8567ZM15.4286 57.7149C14.3706 57.8989 12.5976 57.9751 10.5937 57.9877C8.61186 58.0001 6.47615 57.9505 4.72851 57.9006L4.67139 59.8997C6.42376 59.9498 8.58804 60.0002 10.6062 59.9876C12.6023 59.9752 14.5293 59.9014 15.7713 59.6854L15.4286 57.7149ZM4.69995 57.9002C2.72345 57.9002 2.32855 56.9021 2.29384 56.5897L0.306069 56.8106C0.471356 58.2982 1.87645 59.9002 4.69995 59.9002V57.9002ZM2.29585 56.6096C1.89972 52.2523 1.80272 48.6151 2.19585 44.2907L0.204059 44.1096C-0.202811 48.5852 -0.0998187 52.348 0.304059 56.7907L2.29585 56.6096ZM2.19774 44.2667C2.27746 43.0708 2.95344 42.2137 3.92399 42.0924L3.67592 40.1079C1.44646 40.3866 0.322442 42.3295 0.202167 44.1336L2.19774 44.2667ZM3.09285 41.8073L3.19285 41.9073L4.60705 40.493L4.50705 40.393L3.09285 41.8073ZM63.7975 55.9686C64 53.0315 64.1025 48.3668 63.5935 43.8869L61.6062 44.1127C62.0972 48.4329 61.9997 52.9682 61.8022 55.831L63.7975 55.9686ZM63.5921 43.8758C63.3264 41.7499 61.6995 40.3492 59.5103 40.106L59.2894 42.0937C60.7002 42.2505 61.4733 43.0497 61.6076 44.1239L63.5921 43.8758ZM59.5202 40.1071C56.104 39.693 52.1635 40.106 48.7428 40.3015L48.8569 42.2982C52.4362 42.0937 56.0957 41.7066 59.2795 42.0926L59.5202 40.1071ZM48.7132 40.3036C47.4663 40.412 46.3824 40.721 45.5597 41.4066C44.7149 42.1106 44.2846 43.0933 44.1109 44.2515L46.0888 44.5482C46.2151 43.7064 46.4848 43.2391 46.84 42.9431C47.2173 42.6287 47.8334 42.3876 48.8865 42.2961L48.7132 40.3036ZM44.1083 44.2705C43.9477 45.5012 43.925 47.4194 43.9499 49.4123C43.9751 51.423 44.0505 53.5875 44.1003 55.3284L46.0994 55.2713C46.0492 53.5122 45.9746 51.3767 45.9498 49.3873C45.9247 47.3803 45.952 45.5985 46.0915 44.5292L44.1083 44.2705ZM44.0999 55.2998C44.0999 56.7041 44.5145 57.7502 45.1484 58.4721C45.7676 59.1774 46.545 59.5133 47.1758 59.5921L47.4239 57.6076C47.2547 57.5864 46.9321 57.4723 46.6513 57.1525C46.3852 56.8495 46.0999 56.2955 46.0999 55.2998H44.0999ZM47.2093 59.5957C51.6702 60.0013 55.3302 60.0011 59.8884 59.5959L59.7113 57.6038C55.2695 57.9986 51.7295 57.9984 47.3904 57.6039L47.2093 59.5957ZM59.932 59.5911C60.8002 59.4753 61.7143 59.1781 62.4474 58.5949C63.2081 57.9898 63.7306 57.1069 63.7981 55.9586L61.8016 55.8411C61.7691 56.3928 61.5416 56.7598 61.2023 57.0297C60.8354 57.3216 60.2995 57.5244 59.6677 57.6086L59.932 59.5911ZM3.97619 58.617C4.06776 58.2049 4.17898 57.8316 4.29325 57.5407C4.42098 57.2156 4.51022 57.1041 4.50711 57.1072L3.09289 55.693C2.78978 55.9961 2.57902 56.4346 2.43175 56.8094C2.27102 57.2185 2.13224 57.6952 2.02381 58.1831L3.97619 58.617ZM4.42469 57.1809C4.66373 56.9897 5.00011 56.8346 5.47624 56.6623C5.89833 56.5095 6.51 56.3195 7.02539 56.0859C7.5695 55.8392 8.15951 55.4839 8.60558 54.8937C9.06388 54.2873 9.3 53.5274 9.3 52.6001H7.3C7.3 53.1727 7.16112 53.4878 7.01004 53.6877C6.84674 53.9038 6.593 54.086 6.19961 54.2643C5.7775 54.4556 5.35792 54.5781 4.79563 54.7816C4.28739 54.9656 3.68627 55.2104 3.1753 55.6192L4.42469 57.1809ZM10.7 52.6001C10.7 53.5026 10.9298 54.2466 11.3743 54.8439C11.8074 55.4259 12.3811 55.7828 12.9153 56.0316C13.4283 56.2705 14.0156 56.4552 14.4443 56.6078C14.9193 56.7769 15.2607 56.9247 15.5086 57.1065L16.6914 55.4937C16.1893 55.1255 15.6057 54.8983 15.1151 54.7236C14.5782 54.5325 14.1592 54.4047 13.7597 54.2186C13.3814 54.0424 13.1364 53.8617 12.9788 53.65C12.8327 53.4536 12.7 53.1476 12.7 52.6001H10.7ZM15.5453 57.1321C15.4999 57.1018 15.4984 57.088 15.5313 57.1307C15.5608 57.1689 15.6024 57.2326 15.6517 57.3266C15.7506 57.5154 15.8526 57.7741 15.9385 58.0748L17.8615 57.5254C17.7474 57.1261 17.5994 56.7347 17.4233 56.3986C17.2639 56.0942 17.0183 55.7104 16.6547 55.468L15.5453 57.1321ZM10 54C12.2083 54 14 51.6556 14 48.4H12C12 51.1444 10.5917 52 10 52V54ZM14 48.4C14 47.1059 13.6914 45.9758 12.9517 45.164C12.1976 44.3364 11.1434 44 10 44V46C10.7566 46 11.2024 46.2136 11.4733 46.511C11.7586 46.8241 12 47.3941 12 48.4H14ZM10 44C8.85655 44 7.80236 44.3364 7.0483 45.164C6.30862 45.9758 6 47.1059 6 48.4H8C8 47.3941 8.24138 46.8241 8.5267 46.511C8.79764 46.2136 9.24345 46 10 46V44ZM6 48.4C6 51.6556 7.79174 54 10 54V52C9.40826 52 8 51.1444 8 48.4H6ZM25.9762 58.617C26.0678 58.2049 26.179 57.8316 26.2933 57.5407C26.421 57.2156 26.5102 57.1041 26.5071 57.1072L25.0929 55.693C24.7898 55.9961 24.579 56.4346 24.4317 56.8094C24.271 57.2185 24.1322 57.6952 24.0238 58.1831L25.9762 58.617ZM26.4247 57.1809C26.6637 56.9897 27.0001 56.8346 27.4762 56.6623C27.8983 56.5095 28.51 56.3195 29.0254 56.0859C29.5695 55.8392 30.1595 55.4839 30.6056 54.8937C31.0639 54.2873 31.3 53.5274 31.3 52.6001H29.3C29.3 53.1727 29.1611 53.4878 29.01 53.6877C28.8467 53.9038 28.593 54.086 28.1996 54.2643C27.7775 54.4556 27.3579 54.5781 26.7956 54.7816C26.2874 54.9656 25.6863 55.2104 25.1753 55.6192L26.4247 57.1809ZM32.7 52.6001C32.7 53.5026 32.9298 54.2466 33.3743 54.8439C33.8074 55.4259 34.3811 55.7828 34.9153 56.0316C35.4283 56.2705 36.0156 56.4552 36.4443 56.6078C36.9193 56.7769 37.2607 56.9247 37.5086 57.1065L38.6914 55.4937C38.1893 55.1255 37.6057 54.8983 37.1151 54.7236C36.5782 54.5325 36.1592 54.4047 35.7597 54.2186C35.3814 54.0424 35.1364 53.8617 34.9788 53.65C34.8327 53.4536 34.7 53.1476 34.7 52.6001H32.7ZM37.5453 57.1321C37.4999 57.1018 37.4984 57.088 37.5313 57.1307C37.5607 57.169 37.6024 57.2326 37.6517 57.3266C37.7506 57.5154 37.8526 57.7741 37.9385 58.0748L39.8615 57.5254C39.7474 57.1261 39.5994 56.7347 39.4233 56.3986C39.2639 56.0942 39.0183 55.7104 38.6547 55.468L37.5453 57.1321ZM32 54C34.2083 54 36 51.6556 36 48.4H34C34 51.1444 32.5917 52 32 52V54ZM36 48.4C36 47.1059 35.6914 45.9758 34.9517 45.164C34.1976 44.3364 33.1434 44 32 44V46C32.7566 46 33.2024 46.2136 33.4733 46.511C33.7586 46.8241 34 47.3941 34 48.4H36ZM32 44C30.8566 44 29.8024 44.3364 29.0483 45.164C28.3086 45.9758 28 47.1059 28 48.4H30C30 47.3941 30.2414 46.8241 30.5267 46.511C30.7976 46.2136 31.2434 46 32 46V44ZM28 48.4C28 51.6556 29.7917 54 32 54V52C31.4083 52 30 51.1444 30 48.4H28ZM47.9762 58.617C48.0678 58.2049 48.179 57.8316 48.2933 57.5407C48.421 57.2156 48.5102 57.1041 48.5071 57.1072L47.0929 55.693C46.7898 55.9961 46.579 56.4346 46.4318 56.8094C46.271 57.2185 46.1322 57.6952 46.0238 58.1831L47.9762 58.617ZM48.4247 57.1809C48.6637 56.9897 49.0001 56.8346 49.4762 56.6623C49.8983 56.5095 50.51 56.3195 51.0254 56.0859C51.5695 55.8392 52.1595 55.4839 52.6056 54.8937C53.0639 54.2873 53.3 53.5274 53.3 52.6001H51.3C51.3 53.1727 51.1611 53.4878 51.01 53.6877C50.8467 53.9038 50.593 54.086 50.1996 54.2643C49.7775 54.4556 49.3579 54.5781 48.7956 54.7816C48.2874 54.9656 47.6863 55.2104 47.1753 55.6192L48.4247 57.1809ZM54.7 52.6001C54.7 53.5026 54.9298 54.2466 55.3743 54.8439C55.8074 55.4259 56.3811 55.7828 56.9153 56.0316C57.4283 56.2705 58.0156 56.4552 58.4443 56.6078C58.9193 56.7769 59.2607 56.9247 59.5086 57.1065L60.6914 55.4937C60.1893 55.1255 59.6057 54.8983 59.1151 54.7236C58.5782 54.5325 58.1592 54.4047 57.7597 54.2186C57.3814 54.0424 57.1364 53.8617 56.9788 53.65C56.8327 53.4536 56.7 53.1476 56.7 52.6001H54.7ZM59.5453 57.1321C59.4999 57.1018 59.4984 57.088 59.5313 57.1307C59.5608 57.1689 59.6024 57.2326 59.6517 57.3266C59.7506 57.5154 59.8526 57.7741 59.9385 58.0748L61.8615 57.5254C61.7474 57.1261 61.5994 56.7347 61.4233 56.3986C61.2639 56.0942 61.0183 55.7104 60.6547 55.468L59.5453 57.1321ZM54 54C56.2083 54 58 51.6556 58 48.4H56C56 51.1444 54.5917 52 54 52V54ZM58 48.4C58 47.1059 57.6914 45.9758 56.9517 45.164C56.1976 44.3364 55.1434 44 54 44V46C54.7566 46 55.2024 46.2136 55.4733 46.511C55.7586 46.8241 56 47.3941 56 48.4H58ZM54 44C52.8566 44 51.8024 44.3364 51.0483 45.164C50.3086 45.9758 50 47.1059 50 48.4H52C52 47.3941 52.2414 46.8241 52.5267 46.511C52.7976 46.2136 53.2434 46 54 46V44ZM50 48.4C50 51.6556 51.7917 54 54 54V52C53.4083 52 52 51.1444 52 48.4H50ZM24.2804 24.296C24.369 23.8528 24.5006 23.4192 24.6454 23.0779C24.7177 22.9074 24.7867 22.7758 24.8455 22.6838C24.9107 22.5818 24.9347 22.5737 24.8998 22.5999L23.6998 20.9999C23.272 21.3207 22.9875 21.8647 22.8042 22.2968C22.599 22.7806 22.4306 23.347 22.3192 23.9038L24.2804 24.296ZM24.893 22.6049C25.2336 22.3539 25.6932 22.1624 26.2926 21.9626C26.8388 21.7805 27.5724 21.5724 28.199 21.3096C28.8508 21.0362 29.5453 20.6463 30.0706 19.9946C30.6128 19.3219 30.8998 18.4649 30.8998 17.3999H28.8998C28.8998 18.0849 28.7243 18.4778 28.5134 18.7395C28.2855 19.0223 27.9363 19.251 27.4256 19.4652C26.8897 19.6899 26.342 19.838 25.6601 20.0653C25.0314 20.2748 24.316 20.5458 23.7066 20.9948L24.893 22.6049ZM33.0998 17.3999C33.0998 18.4229 33.385 19.2521 33.913 19.9081C34.4232 20.5421 35.0973 20.9351 35.7349 21.2153C36.3558 21.4883 37.063 21.7014 37.616 21.8901C38.2136 22.0939 38.6815 22.2832 39.0351 22.5252L40.1645 20.8746C39.5681 20.4665 38.8735 20.2059 38.2617 19.9972C37.6054 19.7733 37.0563 19.6115 36.5397 19.3844C36.0398 19.1647 35.6952 18.9327 35.471 18.6542C35.2646 18.3977 35.0998 18.0269 35.0998 17.3999H33.0998ZM38.9751 22.4807C39.0411 22.5335 39.2112 22.7374 39.3995 23.1582C39.5753 23.5511 39.7266 24.0437 39.8134 24.5643L41.7862 24.2355C41.673 23.5561 41.4744 22.8986 41.2251 22.3415C40.9884 21.8123 40.6585 21.2662 40.2245 20.919L38.9751 22.4807ZM32 19C34.6463 19 37 16.4358 37 12.3H35C35 15.7641 33.1537 17 32 17V19ZM37 12.3C37 10.6869 36.5816 9.32622 35.6571 8.36811C34.7275 7.40472 33.433 6.99998 32 6.99998V8.99998C33.067 8.99998 33.7725 9.29523 34.2179 9.75685C34.6684 10.2237 35 11.013 35 12.3H37ZM32 6.99998C30.567 6.99998 29.2725 7.40472 28.3429 8.36811C27.4184 9.32622 27 10.6869 27 12.3H29C29 11.013 29.3316 10.2237 29.7821 9.75685C30.2275 9.29523 30.933 8.99998 32 8.99998V6.99998ZM27 12.3C27 16.4358 29.3537 19 32 19V17C30.8463 17 29 15.7641 29 12.3H27Z" fill="#494A4A"/>
<path id="1px" d="M4.3002 37.1998L3.0002 32.2998M7.6002 33.6998L7.0002 37.1998M0.700195 36.7998L2.1002 38.0998" stroke="#494A4A" stroke-linecap="round" stroke-linejoin="round"/>
</g>
</g>
<defs>
<clipPath id="clip0_622_42006">
<rect width="64" height="64" fill="white"/>
</clipPath>
</defs>
</svg>
