<svg width="64" height="64" viewBox="0 0 64 64" fill="none" xmlns="http://www.w3.org/2000/svg">
<g id="Pictogram-checklist" clip-path="url(#clip0_622_41939)">
<g id="stroke-default">
<path id="2px" d="M43.2006 56.5C36.5006 58.3 23.7006 60.2 18.9006 60.1C15.8006 60 14.2006 59.2 13.1006 56.3C10.8006 50.5 6.10059 29.2 6.10059 23.3C6.10059 20.3 6.80059 19.1 9.10059 18.4C10.7006 17.9 11.9006 17.7 13.8006 16.9C16.0006 16 17.4006 14.4 17.6006 11.6C17.7006 9.4 17.4006 7.7 17.7006 6.1C18.1006 4.3 18.9006 3.2 21.5006 2.8C26.3006 1.9 33.1006 1.1 37.1006 1C40.5006 1 43.0006 3.2 44.0006 6C45.8006 10.9 49.2006 31.2 50.5006 42.2M19.4004 39.1002C20.3004 39.4002 21.1004 40.0002 21.6004 40.8002C22.0004 39.3002 22.8004 38.1002 23.6004 37.2002M35.5005 36.1002C35.5005 36.1002 39.8005 34.7002 41.1005 35.1002M16.6006 27.6004C17.5006 27.9004 18.3006 28.5004 18.8006 29.3004C19.5006 27.5004 20.9006 25.6004 23.1006 24.4004M28.5005 26.2998C30.9005 26.1998 30.2005 25.2998 33.6005 25.2998C34.8005 25.2998 36.4005 24.7998 38.7005 24.2998M20.7006 3C18.0006 3.7 15.2006 4.8 11.0006 10.8C7.60059 15.7 6.30059 18 6.10059 22.7M25.3003 37.2997C25.9003 36.2997 32.3003 36.1997 34.6003 37.2997C39.0003 39.4997 59.6003 50.8997 61.4003 51.7997C63.2003 52.6997 63.7003 54.5997 62.1003 57.7997C60.5003 60.9997 58.5003 61.9997 56.7003 60.9997C55.3003 60.2997 32.9003 47.2997 30.5003 45.3997C28.1003 43.4997 24.7003 38.2997 25.4003 37.2997H25.3003Z" stroke="#494A4A" stroke-width="2" stroke-linecap="round" stroke-linejoin="round"/>
<path id="1px" d="M58.5002 13.9001C58.5002 13.9001 59.1002 12.7001 59.4002 12.3001C60.3002 10.7001 57.6002 9.30007 56.8002 10.9001C56.8002 10.9001 55.9002 12.5001 55.3002 13.5001C53.9002 16.0001 57.8002 18.5001 59.4002 16.2001C60.6002 14.4001 62.7002 10.7001 63.2002 9.80007C64.7002 7.30007 60.7002 4.50007 58.9002 7.40007L58.2002 8.50007M52.2001 25.6001C52.2001 25.6001 53.2001 26.5001 53.6001 26.9001C54.9001 28.1001 52.7001 30.3001 51.5001 29.0001C51.5001 29.0001 50.1001 27.7001 49.3001 27.0001C47.3001 25.0001 50.2001 21.4001 52.4001 23.2001C54.1001 24.6001 57.1001 27.5001 58.0001 28.2001C60.2001 30.1001 57.2001 34.0001 54.6001 31.7001L53.7001 30.9001M30.3001 45.3997C27.8001 42.7997 31.9001 36.0997 35.2001 37.4997M57.5001 61.4997C54.8001 60.0997 58.9001 52.8997 60.9001 52.6997M53.6001 59.3997C50.9001 57.9997 55.5001 48.8997 58.1001 50.1997" stroke="#494A4A" stroke-linecap="round" stroke-linejoin="round"/>
</g>
</g>
<defs>
<clipPath id="clip0_622_41939">
<rect width="64" height="64" fill="white"/>
</clipPath>
</defs>
</svg>
