<svg width="64" height="64" viewBox="0 0 64 64" fill="none" xmlns="http://www.w3.org/2000/svg">
<g id="Pictogram-clock-2">
<g id="stroke-default">
<path id="2px" d="M49 59.54L49.054 60.5385L49.0579 60.5383L49 59.54ZM14.77 59.54L14.7074 60.538L14.716 60.5385L14.77 59.54ZM4.45003 48.42L3.45169 48.4776L3.45239 48.4896L3.45337 48.5016L4.45003 48.42ZM4.45003 15.82L3.45287 15.7447L3.4522 15.7535L3.45169 15.7624L4.45003 15.82ZM14.8 4.70995L14.879 5.70684L14.8826 5.70654L14.8 4.70995ZM49 4.70995L49.1024 3.71521L49.0925 3.71419L49.0826 3.71337L49 4.70995ZM59.32 15.82L60.3168 15.7395L60.3162 15.7327L59.32 15.82ZM59.32 48.42L60.3162 48.5081L60.3168 48.5004L59.32 48.42ZM39.3762 21.4964C39.8492 21.2114 40.0016 20.5968 39.7165 20.1238C39.4315 19.6508 38.8169 19.4984 38.3439 19.7835L39.3762 21.4964ZM32.5934 28.9078C32.2995 29.3754 32.4403 29.9927 32.9079 30.2866C33.3754 30.5805 33.9928 30.4397 34.2867 29.9721L32.5934 28.9078ZM44.0469 46.9377C44.3439 47.4033 44.9622 47.5401 45.4278 47.2431C45.8934 46.9461 46.0301 46.3278 45.7331 45.8622L44.0469 46.9377ZM34.7097 33.6451C34.2597 33.325 33.6354 33.4302 33.3152 33.8803C32.995 34.3303 33.1003 34.9546 33.5503 35.2748L34.7097 33.6451ZM41.52 15.08L41.7004 16.0636C41.74 16.0563 41.7792 16.0466 41.8177 16.0346L41.52 15.08ZM42.96 16.11L43.9599 16.0902L43.9597 16.0832L42.96 16.11ZM48 48.48L48.9954 48.3842L48.9952 48.3821L48 48.48ZM47.32 45.27V46.27C47.3347 46.27 47.3494 46.2696 47.3641 46.269L47.32 45.27ZM47.08 49.57L47.1582 48.573C47.1322 48.571 47.1061 48.57 47.08 48.57V49.57ZM32.9982 8.9392C32.9646 8.38793 32.4905 7.96825 31.9393 8.0018C31.388 8.03536 30.9683 8.50945 31.0019 9.06071L32.9982 8.9392ZM30.94 12C30.94 12.5522 31.3877 13 31.94 13C32.4923 13 32.94 12.5522 32.94 12H30.94ZM33.0482 51.9392C33.0146 51.3879 32.5405 50.9682 31.9893 51.0018C31.438 51.0354 31.0183 51.5094 31.0519 52.0607L33.0482 51.9392ZM30.99 55C30.99 55.5522 31.4377 56 31.99 56C32.5423 56 32.99 55.5522 32.99 55H30.99ZM55.0603 32.9981C55.6116 32.9649 56.0315 32.491 55.9982 31.9397C55.965 31.3884 55.4911 30.9685 54.9398 31.0018L55.0603 32.9981ZM52 30.94C51.4478 30.94 51 31.3877 51 31.94C51 32.4922 51.4478 32.94 52 32.94V30.94ZM12.0603 33.0581C12.6115 33.0249 13.0315 32.551 12.9982 31.9997C12.9649 31.4484 12.4911 31.0285 11.9398 31.0618L12.0603 33.0581ZM9.00003 31C8.44775 31 8.00003 31.4477 8.00003 32C8.00003 32.5522 8.44775 33 9.00003 33V31ZM48.946 58.5414C37.5803 59.156 26.1897 59.156 14.824 58.5414L14.716 60.5385C26.1537 61.1569 37.6164 61.1569 49.054 60.5385L48.946 58.5414ZM14.8326 58.5419C12.2432 58.3795 10.0579 57.4781 8.4512 55.847C6.84259 54.2139 5.72715 51.7608 5.44669 48.3383L3.45337 48.5016C3.76291 52.2791 5.01748 55.211 7.02636 57.2505C9.03718 59.2918 11.7169 60.3504 14.7074 60.538L14.8326 58.5419ZM5.44837 48.3624C4.82418 37.5431 4.82418 26.6968 5.44837 15.8776L3.45169 15.7624C2.82307 26.6584 2.82307 37.5815 3.45169 48.4776L5.44837 48.3624ZM5.4472 15.8952C5.7138 12.3615 6.5901 9.97797 8.05308 8.41282C9.50445 6.86009 11.677 5.9605 14.879 5.70683L14.7211 3.71308C11.2331 3.98941 8.50561 4.99982 6.59198 7.04709C4.68997 9.08194 3.73626 11.9884 3.45287 15.7447L5.4472 15.8952ZM14.8826 5.70654C26.2081 4.76774 37.5919 4.76774 48.9174 5.70654L49.0826 3.71337C37.6472 2.76546 26.1529 2.76546 14.7174 3.71337L14.8826 5.70654ZM48.8977 5.7047C52.0111 6.02513 54.1703 6.94536 55.6364 8.50491C57.1109 10.0733 58.0192 12.4308 58.3238 15.9072L60.3162 15.7327C59.9908 12.0191 58.9942 9.15663 57.0936 7.135C55.1848 5.10455 52.499 4.06478 49.1024 3.71521L48.8977 5.7047ZM58.3233 15.9004C59.195 26.6959 59.195 37.544 58.3233 48.3395L60.3168 48.5004C61.1971 37.5979 61.1971 26.642 60.3168 15.7395L58.3233 15.9004ZM58.3239 48.3318C58.0707 51.194 57.2204 53.6575 55.7207 55.4351C54.2421 57.1878 52.0605 58.3609 48.9422 58.5416L49.0579 60.5383C52.6696 60.329 55.3829 58.9371 57.2494 56.7248C59.0947 54.5374 60.0394 51.6359 60.3161 48.5081L58.3239 48.3318ZM38.3439 19.7835C37.7632 20.1334 37.2421 20.788 36.7968 21.4427C36.3268 22.1336 35.8425 22.9779 35.3657 23.8527C34.388 25.6467 33.4522 27.5416 32.5934 28.9078L34.2867 29.9721C35.1879 28.5383 36.2071 26.4882 37.1218 24.8097C37.5914 23.9483 38.0377 23.1744 38.4505 22.5676C38.888 21.9244 39.2018 21.6015 39.3762 21.4964L38.3439 19.7835ZM45.7331 45.8622C45.0914 44.8561 42.8442 42.1654 40.5684 39.6077C39.4167 38.3134 38.2349 37.0278 37.2111 35.9724C36.2097 34.9403 35.2985 34.064 34.7097 33.6451L33.5503 35.2748C33.9665 35.5709 34.7554 36.3134 35.7756 37.365C36.7733 38.3934 37.9346 39.6565 39.0742 40.9372C41.3808 43.5295 43.5086 46.0938 44.0469 46.9377L45.7331 45.8622ZM41.3397 14.0963C40.744 14.2056 39.3276 14.4645 38.0523 14.855C37.4216 15.0481 36.7656 15.2909 36.2481 15.5934C35.99 15.7443 35.7188 15.9372 35.502 16.1851C35.2815 16.4375 35.07 16.8044 35.07 17.27H37.07C37.07 17.438 36.9914 17.5202 37.0079 17.5013C37.0283 17.478 37.0985 17.4129 37.2576 17.32C37.5745 17.1347 38.0559 16.9455 38.6378 16.7674C39.7875 16.4154 41.0961 16.1744 41.7004 16.0636L41.3397 14.0963ZM35.07 17.27C35.07 18.1337 35.5985 18.9288 36.1179 19.5224C36.6757 20.1597 37.4078 20.7717 38.1548 21.2886C38.9033 21.8064 39.7066 22.2564 40.4273 22.5528C40.7865 22.7005 41.1501 22.8204 41.4921 22.8856C41.8076 22.9457 42.2286 22.9843 42.63 22.8439L41.97 20.956C42.064 20.9231 42.0596 20.9577 41.8663 20.9209C41.6994 20.8891 41.4706 20.8193 41.188 20.7031C40.6253 20.4717 39.948 20.0972 39.2928 19.6439C38.636 19.1894 38.0413 18.6833 37.6231 18.2053C37.1666 17.6836 37.07 17.3662 37.07 17.27H35.07ZM42.63 22.8439C43.4641 22.5523 43.7667 21.7112 43.895 21.1986C44.0447 20.6002 44.0916 19.8918 44.0987 19.2333C44.106 18.5624 44.072 17.8815 44.0363 17.3172C43.9986 16.7206 43.9643 16.3143 43.9598 16.0902L41.9602 16.1298C41.9658 16.4106 42.0077 16.9268 42.0403 17.4433C42.075 17.9921 42.1053 18.615 42.0988 19.2116C42.0922 19.8206 42.0473 20.3435 41.9548 20.7132C41.8408 21.1687 41.751 21.0326 41.97 20.956L42.63 22.8439ZM43.9597 16.0832C43.951 15.7572 43.8668 15.4377 43.7138 15.1498L41.9476 16.088C41.9556 16.1031 41.9599 16.1197 41.9604 16.1367L43.9597 16.0832ZM43.7138 15.1498C43.5608 14.8618 43.3432 14.6132 43.078 14.4235L41.9144 16.0502C41.9282 16.0601 41.9396 16.073 41.9476 16.088L43.7138 15.1498ZM43.078 14.4235C42.8127 14.2338 42.5072 14.1081 42.1852 14.0564L41.8679 16.031C41.8847 16.0337 41.9006 16.0403 41.9144 16.0502L43.078 14.4235ZM42.1852 14.0564C41.8633 14.0046 41.5337 14.0282 41.2224 14.1253L41.8177 16.0346C41.8339 16.0296 41.8511 16.0283 41.8679 16.031L42.1852 14.0564ZM48.9952 48.3821C48.984 48.2677 48.9781 48.0434 48.9633 47.6764C48.9497 47.3402 48.9293 46.9283 48.8869 46.5294C48.8463 46.1469 48.7788 45.7032 48.6453 45.3335C48.5798 45.1519 48.4719 44.9114 48.2835 44.7033C48.0751 44.473 47.7319 44.2508 47.276 44.2709L47.3641 46.269C47.0782 46.2816 46.8818 46.1351 46.8005 46.0452C46.7393 45.9775 46.7388 45.9423 46.7641 46.0127C46.8125 46.1467 46.8612 46.393 46.8981 46.7405C46.9333 47.0716 46.9516 47.4297 46.9649 47.7573C46.9769 48.054 46.9861 48.3872 47.0048 48.5778L48.9952 48.3821ZM47.32 44.27C46.7362 44.27 46.1441 44.5327 45.6797 44.7967C45.1808 45.0804 44.6748 45.4562 44.2266 45.8497C43.7794 46.2423 43.3599 46.6785 43.0471 47.0969C42.8914 47.3052 42.7455 47.5311 42.6379 47.7621C42.5397 47.9731 42.4238 48.2921 42.4534 48.652L44.4467 48.4879C44.4588 48.6353 44.4113 48.6918 44.4512 48.6061C44.4817 48.5405 44.5436 48.4354 44.6489 48.2945C44.8583 48.0145 45.1744 47.6789 45.546 47.3527C45.9165 47.0275 46.3124 46.7376 46.6682 46.5354C46.8456 46.4345 46.999 46.3635 47.1231 46.3195C47.1843 46.2978 47.2326 46.2847 47.2684 46.2774C47.3046 46.27 47.3209 46.27 47.32 46.27V44.27ZM42.4534 48.652C42.5205 49.4668 43.2236 49.8496 43.5449 49.9954C43.9538 50.181 44.4437 50.2968 44.8824 50.3737C45.774 50.53 46.7241 50.57 47.08 50.57V48.57C46.806 48.57 45.9761 48.5349 45.2277 48.4037C44.8464 48.3369 44.5513 48.2558 44.3714 48.1742C44.104 48.0528 44.4146 48.0981 44.4467 48.4879L42.4534 48.652ZM47.0018 50.5669C47.6914 50.621 48.2248 50.2368 48.5264 49.8652C48.8317 49.4891 49.0501 48.953 48.9954 48.3842L47.0046 48.5757C47.0016 48.544 47.0079 48.5368 47.0023 48.5536C46.9968 48.5696 46.9863 48.5891 46.9736 48.6047C46.9604 48.6211 46.9591 48.6158 46.9823 48.6036C47.0086 48.5899 47.0708 48.5662 47.1582 48.573L47.0018 50.5669ZM31.0019 9.06071C31.0336 9.58219 31.0206 10.1028 30.9974 10.6037C30.9754 11.0781 30.94 11.5943 30.94 12H32.94C32.94 11.6556 32.9697 11.2468 32.9952 10.6962C33.0195 10.1721 33.0364 9.56772 32.9982 8.9392L31.0019 9.06071ZM31.0519 52.0607C31.0836 52.5822 31.0706 53.1028 31.0474 53.6037C31.0254 54.0781 30.99 54.5943 30.99 55H32.99C32.99 54.6556 33.0197 54.2468 33.0452 53.6962C33.0695 53.1721 33.0864 52.5677 33.0482 51.9392L31.0519 52.0607ZM33.95 32C33.95 33.0714 33.0815 33.94 32.01 33.94V35.94C34.186 35.94 35.95 34.176 35.95 32H33.95ZM32.01 33.94C30.9386 33.94 30.07 33.0714 30.07 32H28.07C28.07 34.176 29.834 35.94 32.01 35.94V33.94ZM30.07 32C30.07 30.9285 30.9386 30.06 32.01 30.06V28.06C29.834 28.06 28.07 29.824 28.07 32H30.07ZM32.01 30.06C33.0815 30.06 33.95 30.9285 33.95 32H35.95C35.95 29.824 34.186 28.06 32.01 28.06V30.06ZM54.9398 31.0018C54.4129 31.0336 53.8919 31.0205 53.3927 30.9973C52.9197 30.9753 52.4058 30.94 52 30.94V32.94C52.3443 32.94 52.7504 32.9696 53.2999 32.9951C53.8232 33.0194 54.4272 33.0363 55.0603 32.9981L54.9398 31.0018ZM11.9398 31.0618C11.4129 31.0936 10.8919 31.0805 10.3927 31.0573C9.91968 31.0353 9.40578 31 9.00003 31V33C9.34428 33 9.75038 33.0296 10.2999 33.0551C10.8232 33.0794 11.4272 33.0963 12.0603 33.0581L11.9398 31.0618Z" fill="#494A4A"/>
<path id="1px" d="M53 10.5601C52.5247 10.9084 52.0888 11.3074 51.7 11.7501M12 51.0001C11.27 51.8701 11.28 51.5101 10.7 52.2301M11.9 12.3901C11.45 12.0101 10.9 11.4801 10.71 11.3401M51.94 53.4401C50.65 52.3601 50.66 52.3001 50.52 52.1901M51.32 45.9101C53.0675 44.2605 54.2325 42.0884 54.64 39.7201M50.28 43.0001C51.1488 42.0891 51.7447 40.9527 52 39.7201" stroke="#494A4A" stroke-linecap="round" stroke-linejoin="round"/>
</g>
</g>
</svg>
