<svg width="64" height="64" viewBox="0 0 64 64" fill="none" xmlns="http://www.w3.org/2000/svg">
<g id="Pictogram-bicycle">
<g id="stroke-default">
<path id="2px" d="M47.3496 48.661C47.7147 49.0754 48.3466 49.1154 48.761 48.7504C49.1754 48.3853 49.2154 47.7534 48.8504 47.339L47.3496 48.661ZM15.8918 47.3062C15.4534 47.6421 15.3703 48.2698 15.7062 48.7082C16.0421 49.1466 16.6698 49.2297 17.1082 48.8938L15.8918 47.3062ZM37.1001 25.8L36.6743 24.8952C36.3238 25.0601 36.1001 25.4126 36.1001 25.8L37.1001 25.8ZM39.2259 25.9048C39.7256 25.6697 39.9401 25.0739 39.7049 24.5742C39.4698 24.0745 38.874 23.86 38.3743 24.0952L39.2259 25.9048ZM24.2942 32.9943C24.2361 32.4451 23.7437 32.047 23.1945 32.1052C22.6453 32.1633 22.2472 32.6557 22.3054 33.2049L24.2942 32.9943ZM23.2054 41.7049C23.2635 42.2541 23.7559 42.6522 24.3051 42.5941C24.8543 42.5359 25.2524 42.0435 25.1942 41.4943L23.2054 41.7049ZM60.5 48.7C60.5 54.7927 55.0012 59.9 48 59.9V61.9C55.9105 61.9 62.5 56.083 62.5 48.7H60.5ZM48 59.9C40.9988 59.9 35.5 54.7927 35.5 48.7H33.5C33.5 56.083 40.0895 61.9 48 61.9V59.9ZM35.5 48.7C35.5 42.6073 40.9988 37.5 48 37.5V35.5C40.0895 35.5 33.5 41.317 33.5 48.7H35.5ZM48 37.5C55.0012 37.5 60.5 42.6073 60.5 48.7H62.5C62.5 41.317 55.9105 35.5 48 35.5V37.5ZM28.7998 48.7C28.7998 54.7927 23.301 59.9 16.2998 59.9V61.9C24.2103 61.9 30.7998 56.083 30.7998 48.7H28.7998ZM16.2998 59.9C9.29858 59.9 3.7998 54.7927 3.7998 48.7H1.7998C1.7998 56.083 8.38934 61.9 16.2998 61.9V59.9ZM3.7998 48.7C3.7998 42.6073 9.29858 37.5 16.2998 37.5V35.5C8.38934 35.5 1.7998 41.317 1.7998 48.7H3.7998ZM16.2998 37.5C23.301 37.5 28.7998 42.6073 28.7998 48.7H30.7998C30.7998 41.317 24.2103 35.5 16.2998 35.5V37.5ZM48.8504 47.339C45.24 43.2407 41.6918 36.947 37.9813 30.0274L36.2187 30.9726C39.9082 37.853 43.56 44.3593 47.3496 48.661L48.8504 47.339ZM36.4168 29.7697C30.2326 35.555 23.5582 41.432 15.8918 47.3062L17.1082 48.8938C24.8418 42.968 31.5674 37.045 37.7832 31.2303L36.4168 29.7697ZM38.1 30.5L38.1001 25.8L36.1001 25.8L36.1 30.5L38.1 30.5ZM37.5259 26.7048L39.2259 25.9048L38.3743 24.0952L36.6743 24.8952L37.5259 26.7048ZM22.3054 33.2049L23.2054 41.7049L25.1942 41.4943L24.2942 32.9943L22.3054 33.2049Z" fill="#494A4A"/>
<path id="1px" d="M12.5998 40.5996C9.79978 41.3996 7.09978 44.3996 6.79978 47.8996C6.69978 49.4996 7.09978 51.7996 8.39978 53.3996M18.2998 57.1C23.5998 55.9 25.8998 51.6 26.0998 49.5M39.9001 44.7998C38.0001 47.4998 38.3001 50.8998 40.2001 53.6998C41.1001 54.8998 42.6001 56.2998 44.6001 56.6998M55.2002 54.3998C58.4002 50.6998 57.5002 46.0998 55.6002 44.2998M16.6002 26.7002C12.1002 26.7002 7.1002 27.0002 5.2002 26.7002M13.2999 30.0996C10.3999 30.1996 5.7999 30.0996 0.899902 30.0996M10 33.4995C7.4 33.4995 4.5 33.3995 3.5 33.4995M50.6001 48C50.6001 49.3807 49.4808 50.5 48.1001 50.5C46.7194 50.5 45.6001 49.3807 45.6001 48C45.6001 46.6193 46.7194 45.5 48.1001 45.5C49.4808 45.5 50.6001 46.6193 50.6001 48ZM19.3998 48.0002C19.3998 49.5466 18.1462 50.8002 16.5998 50.8002C15.0534 50.8002 13.7998 49.5466 13.7998 48.0002C13.7998 46.4538 15.0534 45.2002 16.5998 45.2002C18.1462 45.2002 19.3998 46.4538 19.3998 48.0002ZM42 11.8004C45.5 13.2004 53.3 13.3004 56.2 12.3004C60.3 11.0004 59.5 9.60042 55.5 8.80042C55 2.30042 47.1 2.30042 46.2 7.90042C41.2 6.00042 39 10.7004 42 11.8004ZM26.8 14.9002C28.2 11.2002 24.2 8.80016 21.4 10.5002C18.7 -0.199836 4.80004 5.40017 8.20004 12.1002C3.40004 9.10017 -0.0999613 17.3002 7.10004 18.6002C12 19.5002 18.6 19.5002 24.1 18.9002C35.6 17.7002 35.1 15.1002 26.7 14.9002H26.8ZM39.0998 24.2001C38.8998 23.6001 42.2998 22.6001 42.8998 23.0001C44.3998 24.3001 42.6998 24.8001 41.6998 25.1001C39.8998 25.6001 39.6998 25.5001 39.1998 24.2001H39.0998ZM19.6998 32.5003C18.7998 32.4003 17.6998 30.8003 18.5998 30.1003C20.0998 28.9003 21.5998 30.3003 23.8998 30.3003C26.1998 30.3003 28.5998 30.1003 28.5998 31.4003C28.5998 32.1003 27.5998 32.3003 25.2998 32.3003C22.9998 32.3003 21.2998 32.7003 19.6998 32.5003Z" stroke="#494A4A" stroke-linecap="round" stroke-linejoin="round"/>
</g>
</g>
</svg>
