<svg width="64" height="64" viewBox="0 0 64 64" fill="none" xmlns="http://www.w3.org/2000/svg">
<g id="Pictogram-smiley2">
<g id="stroke-default">
<path id="2px" d="M59.7803 28.53L58.788 28.6536L58.788 28.6541L59.7803 28.53ZM35.4703 59.78L35.3835 58.7838L35.383 58.7838L35.4703 59.78ZM4.22029 35.47L5.19992 35.2692L5.19974 35.2683L4.22029 35.47ZM25.3103 3.77001L25.1649 2.78063L25.164 2.78077L25.3103 3.77001ZM17.4244 40.994C17.2996 40.456 16.7623 40.1211 16.2243 40.2459C15.6863 40.3707 15.3513 40.908 15.4762 41.446L17.4244 40.994ZM50.1972 40.1613C50.2863 39.6163 49.9167 39.1022 49.3716 39.0131C48.8266 38.924 48.3125 39.2936 48.2234 39.8387L50.1972 40.1613ZM16.5067 17.9666C17.0405 17.825 17.3585 17.2774 17.2169 16.7436C17.0752 16.2098 16.5277 15.8918 15.9939 16.0334L16.5067 17.9666ZM10.449 20.8511C10.2342 21.3599 10.4726 21.9465 10.9814 22.1613C11.4902 22.3761 12.0768 22.1377 12.2916 21.6289L10.449 20.8511ZM48.9268 16.6395C48.3852 16.531 47.8583 16.882 47.7498 17.4235C47.6413 17.9651 47.9923 18.492 48.5338 18.6005L48.9268 16.6395ZM52.709 22.0088C52.9237 22.5176 53.5103 22.7561 54.0191 22.5413C54.5279 22.3266 54.7663 21.7401 54.5516 21.2312L52.709 22.0088ZM58.788 28.6541C60.6474 43.5194 51.2734 57.3995 35.3835 58.7838L35.5571 60.7762C52.7271 59.2805 62.7532 44.2407 60.7726 28.4059L58.788 28.6541ZM35.383 58.7838C20.5372 60.0844 8.14008 49.611 5.19992 35.2692L3.24066 35.6708C6.3605 50.889 19.5834 62.1756 35.5576 60.7762L35.383 58.7838ZM5.19974 35.2683C3.70422 28.0064 5.75492 20.8215 9.7207 15.2096C13.6946 9.58631 19.5236 5.63663 25.4566 4.75925L25.164 2.78077C18.587 3.75339 12.311 8.07871 8.08738 14.0554C3.85566 20.0436 1.61636 27.7836 3.24084 35.6717L5.19974 35.2683ZM25.4556 4.75939C32.3707 3.74345 40.2601 6.00042 46.6723 10.4255C53.0825 14.8493 57.8775 21.3411 58.788 28.6536L60.7726 28.4065C59.7731 20.3789 54.5481 13.4307 47.8083 8.77947C41.0704 4.12959 32.6798 1.67657 25.1649 2.78063L25.4556 4.75939ZM49.5503 25.8C49.5503 26.3984 49.3851 26.8954 49.1704 27.214C48.9515 27.5387 48.756 27.59 48.6703 27.59V29.59C49.6228 29.59 50.3673 29.0167 50.8289 28.3316C51.2946 27.6405 51.5503 26.7425 51.5503 25.8H49.5503ZM48.6703 27.59C48.5845 27.59 48.389 27.5387 48.1702 27.214C47.9555 26.8954 47.7903 26.3984 47.7903 25.8H45.7903C45.7903 26.7425 46.0459 27.6405 46.5116 28.3316C46.9733 29.0167 47.7178 29.59 48.6703 29.59V27.59ZM47.7903 25.8C47.7903 25.2016 47.9555 24.7047 48.1702 24.386C48.389 24.0613 48.5845 24.01 48.6703 24.01V22.01C47.7178 22.01 46.9733 22.5833 46.5116 23.2684C46.0459 23.9595 45.7903 24.8575 45.7903 25.8H47.7903ZM48.6703 24.01C48.7561 24.01 48.9515 24.0613 49.1704 24.386C49.3851 24.7047 49.5503 25.2016 49.5503 25.8H51.5503C51.5503 24.8575 51.2946 23.9595 50.8289 23.2684C50.3673 22.5833 49.6228 22.01 48.6703 22.01V24.01ZM17.3303 25.8C17.3303 26.3984 17.1651 26.8954 16.9504 27.214C16.7315 27.5387 16.536 27.59 16.4503 27.59V29.59C17.4028 29.59 18.1473 29.0167 18.6089 28.3316C19.0746 27.6405 19.3303 26.7425 19.3303 25.8H17.3303ZM16.4503 27.59C16.3645 27.59 16.169 27.5387 15.9502 27.214C15.7355 26.8954 15.5703 26.3984 15.5703 25.8H13.5703C13.5703 26.7425 13.8259 27.6405 14.2916 28.3316C14.7533 29.0167 15.4978 29.59 16.4503 29.59V27.59ZM15.5703 25.8C15.5703 25.2016 15.7355 24.7047 15.9502 24.386C16.169 24.0613 16.3645 24.01 16.4503 24.01V22.01C15.4978 22.01 14.7533 22.5833 14.2916 23.2684C13.8259 23.9595 13.5703 24.8575 13.5703 25.8H15.5703ZM16.4503 24.01C16.5361 24.01 16.7316 24.0613 16.9504 24.386C17.1651 24.7047 17.3303 25.2016 17.3303 25.8H19.3303C19.3303 24.8575 19.0746 23.9595 18.6089 23.2684C18.1473 22.5833 17.4028 22.01 16.4503 22.01V24.01ZM15.4762 41.446C16.2807 44.9137 18.8116 47.4331 22.0206 49.043C25.2267 50.6515 29.1923 51.4019 33.0991 51.3185C37.0053 51.2352 40.9368 50.3164 44.0652 48.4985C47.2067 46.6731 49.5851 43.9058 50.1972 40.1613L48.2234 39.8387C47.7305 42.8542 45.8201 45.1657 43.0604 46.7693C40.2876 48.3805 36.7053 49.2411 33.0565 49.319C29.4083 49.3969 25.7777 48.6904 22.9175 47.2554C20.0603 45.822 18.0549 43.7113 17.4244 40.994L15.4762 41.446ZM15.9939 16.0334C14.7632 16.3599 13.6236 16.9639 12.6625 17.799L13.9742 19.3087C14.7049 18.6739 15.5712 18.2148 16.5067 17.9666L15.9939 16.0334ZM12.6625 17.799C11.7014 18.634 10.9442 19.6781 10.449 20.8511L12.2916 21.6289C12.668 20.7372 13.2436 19.9435 13.9742 19.3087L12.6625 17.799ZM48.5338 18.6005C49.4549 18.7851 50.3169 19.1921 51.0446 19.7862L52.3094 18.2369C51.329 17.4365 50.1677 16.8882 48.9268 16.6395L48.5338 18.6005ZM51.0446 19.7862C51.7723 20.3803 52.3437 21.1433 52.709 22.0088L54.5516 21.2312C54.0596 20.0652 53.2898 19.0372 52.3094 18.2369L51.0446 19.7862Z" fill="#494A4A"/>
<path id="1px" d="M48.6702 5.64002L52.2202 0.52002M46.4402 0.89002L45.4502 4.37002M52.6002 6.54002L50.9102 7.76002" stroke="#494A4A" stroke-linecap="round" stroke-linejoin="round"/>
</g>
</g>
</svg>
