<svg width="64" height="64" viewBox="0 0 64 64" fill="none" xmlns="http://www.w3.org/2000/svg">
<g id="  Pictogram-gold-rank-1">
<g id="stroke-default">
<path id="2px" d="M15.3014 47.0002C15.2014 51.8002 13.8014 61.7002 15.9014 62.7002C18.9014 64.1002 31.5014 57.9002 33.5014 58.0002C36.6014 58.2002 47.9014 64.0002 50.3014 62.7002C52.7014 61.4002 51.0014 46.3002 51.0014 44.7002M3.80127 27.2002C4.90127 28.0002 5.90127 28.6002 7.70127 29.4002M4.10154 27.3998C2.90154 26.4998 2.20154 25.5998 1.70154 24.3998C1.20154 23.0998 0.601543 18.7998 1.40154 17.7998C2.00154 16.9998 3.30154 16.8998 4.50154 17.2998C3.90154 16.3998 3.40141 15.4997 3.20141 14.4997C2.60141 12.0997 4.20141 7.79965 5.30141 7.19965C6.40141 6.59965 8.00141 7.09965 9.20141 7.49965C10.4014 7.89965 13.7014 9.69965 14.5014 12.2997M56.7017 29.2C58.5017 28.4 58.8017 28.3 59.9017 27.5C61.1017 26.6 61.8015 25.7004 62.3015 24.5004C62.8015 23.2004 63.4015 18.9004 62.6015 17.9004C62.0015 17.1004 60.7015 17.0004 59.5015 17.4004C60.1015 16.5004 60.6015 15.6002 60.8015 14.6002C61.4015 12.2002 59.8015 7.90024 58.7015 7.30024C57.6015 6.70024 56.0015 7.20024 54.8015 7.60024C53.6015 8.00024 50.3015 9.80024 49.5015 12.4002M56.0015 29C56.0015 42.2548 45.2563 53 32.0015 53C18.7466 53 8.00146 42.2548 8.00146 29C8.00146 15.7452 18.7466 5 32.0015 5C45.2563 5 56.0015 15.7452 56.0015 29ZM32.0014 16.7002C33.4014 16.7002 35.5014 23.7002 36.6014 24.4002C37.7014 25.1002 44.3014 25.1002 44.5014 26.3002C44.7014 27.5002 39.7014 31.9002 39.1014 32.9002C38.5014 33.9002 40.9014 40.4002 39.8014 41.0002C38.7014 41.6002 33.4014 36.9002 32.1014 36.9002C30.8014 36.9002 25.5014 41.6002 24.4014 41.0002C23.3014 40.4002 25.2014 34.1002 25.0014 32.7002C24.8014 31.3002 19.1014 27.9002 19.6014 26.3002C20.1014 24.7002 27.0014 24.8002 27.7014 24.3002C28.4014 23.8002 30.8014 16.7002 32.2014 16.7002H32.0014Z" stroke="#494A4A" stroke-width="2" stroke-linecap="round" stroke-linejoin="round"/>
<path id="1px" d="M9.10156 21.8002C7.30156 20.4002 5.90156 18.7002 4.60156 16.7002M32.7017 49.8002C34.2017 49.7002 35.4017 49.5002 36.7017 49.2002M40.1016 47.0996C46.4016 44.2996 49.9016 39.3996 51.6016 33.0996M17.4013 15.2002C12.7013 20.2002 11.4013 26.0002 12.2013 32.5002M54.9014 21.8998C56.7014 20.4998 58.1014 18.7998 59.4014 16.7998M30.6016 24.4998C30.9016 23.7998 31.3016 22.8998 31.5016 22.2998" stroke="#494A4A" stroke-linecap="round" stroke-linejoin="round"/>
</g>
</g>
</svg>
