<svg width="64" height="64" viewBox="0 0 64 64" fill="none" xmlns="http://www.w3.org/2000/svg">
<g id="Pictogram-mail-invoice">
<g id="stroke-default">
<path id="2px" d="M12.0613 27.9999C9.83127 29.9999 8.24127 31.6599 8.17127 32.6699C7.82127 37.6699 8.06127 52.8299 8.97127 56.4299C9.06768 57.0984 9.34101 57.7291 9.76297 58.2565C10.1849 58.784 10.7402 59.1891 11.3713 59.4299C18.8113 61.3699 43.1113 61.2799 50.9013 60.2499C53.7813 59.8699 54.8213 58.3799 55.1913 56.0399C55.9913 50.8499 56.1913 37.0399 55.8713 32.3299C55.8713 31.5999 53.7513 29.4399 52.0013 27.9799M12.3113 32.4099C11.9146 24.3574 11.9413 16.2896 12.3913 8.23987C12.5813 5.70987 13.6613 4.95987 16.0913 4.56987C20.6513 3.82987 49.7713 3.56987 51.0313 5.30987C52.2913 7.04987 52.1513 24.1699 51.6613 32.5999M33.6313 11.7299C30.3413 9.04987 28.6313 14.5799 31.6313 14.7299C35.1413 14.9299 34.7313 20.6599 29.9513 18.4799M32.0013 8.99987V10.9999M32.0013 18.9999V20.9999" stroke="#494A4A" stroke-width="2" stroke-linecap="round" stroke-linejoin="round"/>
<path id="1px" d="M10.0016 58C31.5616 36.46 32.2916 36.36 54.5816 58.07M21.0816 26.37C22.8216 26.6 40.5916 26.44 41.9216 26.44M21.0816 31.37C22.8216 31.6 40.5916 31.44 41.9216 31.44M21.1316 36.36C22.0116 36.71 30.9016 36.46 31.5616 36.46M18.7616 7.58997C16.2716 7.58997 15.6616 7.96997 15.6616 10.59M17.5016 57.2C18.6916 57.35 23.8316 57.62 24.7716 57.84M8.10156 32C9.02459 31.9215 9.95371 32.0415 10.8265 32.352C11.6993 32.6625 12.4955 33.1562 13.1616 33.8C15.6116 36.05 25.1016 44.3 25.1016 44.3M56.0016 32C55.0852 31.9229 54.163 32.0467 53.2994 32.3627C52.4359 32.6788 51.6517 33.1795 51.0016 33.83C48.5516 36.08 39.3016 44.5 39.3016 44.5" stroke="#494A4A" stroke-linecap="round" stroke-linejoin="round"/>
</g>
</g>
</svg>
