<svg width="64" height="64" viewBox="0 0 64 64" fill="none" xmlns="http://www.w3.org/2000/svg">
<g id="Pictogram-file-coins " clip-path="url(#clip0_622_41990)">
<g id="stroke-default">
<path id="2px" d="M11 22.1C11.2 19.6 12.2 17.9 14.4 17.4C15.6 17.1 18.8 16.7 20.5 16.3C23.1 15.7 24.2 14.5 24.8 11.9C25.2 10.4 25.2 7.9 25.4 6.6C25.7 4.7 27.4 3 30.3 3M53.0001 30.5C53.0001 24.1 53.1001 15.5 52.6001 9.4C52.2001 5.3 51.3001 3.8 48.1001 3.5C43.5001 3.1 34.1001 3 30.4001 3C25.1001 3 22.0001 5.7 18.8001 9C14.7001 13.2 11.1001 15.8 11.1001 23.1C11.1001 26.7 11.2001 47.6 11.3001 53.5C11.3001 56.8 13.5001 58.3 15.9001 58.4C21.3001 58.8 32.6001 58.8 36.6001 58.8M40.3998 55.4998C40.3998 55.4998 40.0998 55.9998 40.0998 56.3998C39.9998 57.0998 39.8998 58.7998 40.0998 59.1998C42.3998 64.2998 57.7998 64.2998 60.0998 59.1998C60.3998 58.4998 60.1998 57.0998 60.0998 56.3998C60.0998 56.0998 60.0998 55.9998 59.8998 55.7998M41.4998 49.8998C40.6998 50.4998 40.1998 51.1998 40.0998 51.9998C39.9998 52.6998 39.8998 54.3998 40.0998 54.7998C42.3998 59.8998 57.7998 59.8998 60.0998 54.7998C60.3998 54.1998 60.2998 53.1998 60.0998 52.4998M41.6998 49.2998C41.6998 49.8998 41.6998 50.3998 41.7998 50.5998C44.0998 55.6998 59.4998 55.6998 61.7998 50.5998C62.0998 49.8998 61.8998 48.4998 61.7998 47.7998C61.4998 46.1998 59.7998 45.0998 57.5998 44.3998M41.5998 39.8998C39.1998 40.5998 37.3998 41.7998 37.0998 43.3998C36.9998 44.0998 36.8998 45.7998 37.0998 46.1998C39.3998 51.2998 54.7998 51.2998 57.0998 46.1998C57.2998 45.7998 57.2998 45.0998 57.2998 44.4998M41.7998 38.3998C41.6998 39.0998 41.5998 40.7998 41.7998 41.1998C44.0998 46.2998 59.4998 46.2998 61.7998 41.1998C62.0998 40.4998 61.8998 39.0998 61.7998 38.3998C60.5998 32.5998 42.9998 32.5998 41.7998 38.3998Z" stroke="#494A4A" stroke-width="2" stroke-linecap="round" stroke-linejoin="round"/>
<path id="1px" d="M14.4998 51.5C14.4998 54.4 14.2998 55.5 20.3998 55.5M21.2002 28.4995C22.6002 28.3995 43.2002 28.4995 43.9002 28.4995M27.2998 22.4995C28.6998 22.3995 43.1998 22.4995 43.8998 22.4995M21.3999 34.4995C22.8999 34.3995 35.1999 34.4995 35.9999 34.4995M21.3999 40.4995C22.8999 40.3995 29.3999 40.4995 30.1999 40.4995M60.7998 46.3998C61.9998 48.0998 57.7998 50.8998 51.7998 50.8998C49.6998 50.8998 48.4998 50.5998 46.6998 50.0998M52.7999 45.2998C50.9999 45.9998 50.5998 46.4998 48.0998 46.4998C42.0998 46.4998 36.2998 44.1998 38.0998 41.9998M60.7998 36.9998C61.9998 38.6998 57.7998 41.4998 51.7998 41.4998C45.7998 41.4998 40.9998 39.1998 42.6998 36.9998" stroke="#494A4A" stroke-linecap="round" stroke-linejoin="round"/>
</g>
</g>
<defs>
<clipPath id="clip0_622_41990">
<rect width="64" height="64" fill="white"/>
</clipPath>
</defs>
</svg>
