<svg width="65" height="64" viewBox="0 0 65 64" fill="none" xmlns="http://www.w3.org/2000/svg">
<g id="Pictogram-like-v2" clip-path="url(#clip0_426_392)">
<g id="stroke-default">
<path id="2px" d="M18.5181 32.0009C17.9664 31.9764 17.4993 32.4037 17.4747 32.9555C17.4502 33.5072 17.8776 33.9744 18.4293 33.9989L18.5181 32.0009ZM29.5437 24.2899L28.8927 23.5308L28.8916 23.5318L29.5437 24.2899ZM40.7337 3.59989L39.736 3.6664L39.736 3.66732L40.7337 3.59989ZM47.6737 2.94989L46.8149 3.46217L46.818 3.46731L47.6737 2.94989ZM44.171 25.1794C44.1045 25.7276 44.495 26.226 45.0432 26.2926C45.5915 26.3592 46.0899 25.9686 46.1565 25.4204L44.171 25.1794ZM42.9227 24.5758C42.3737 24.5157 41.8799 24.912 41.8197 25.4609C41.7595 26.0099 42.1558 26.5038 42.7048 26.5639L42.9227 24.5758ZM55.3737 25.3999V24.3999L55.3691 24.3999L55.3737 25.3999ZM57.9337 33.2499L58.1791 34.2193C58.193 34.2158 58.2068 34.212 58.2206 34.2079L57.9337 33.2499ZM55.0986 32.6099C54.5463 32.6127 54.1009 33.0628 54.1038 33.615C54.1066 34.1673 54.5566 34.6127 55.1089 34.6099L55.0986 32.6099ZM57.388 32.3557C56.85 32.4804 56.5149 33.0176 56.6396 33.5556C56.7642 34.0936 57.3014 34.4287 57.8395 34.3041L57.388 32.3557ZM58.1437 41.8599L57.9448 40.8799L57.9438 40.8801L58.1437 41.8599ZM54.9179 41.2715C54.3664 41.3023 53.9444 41.7743 53.9753 42.3258C54.0062 42.8772 54.4782 43.2992 55.0296 43.2683L54.9179 41.2715ZM58.7382 40.7154C58.1889 40.6577 57.6969 41.0562 57.6392 41.6055C57.5815 42.1547 57.9801 42.6467 58.5293 42.7044L58.7382 40.7154ZM56.0737 50.0499V51.0499C56.0859 51.0499 56.0981 51.0497 56.1103 51.0492L56.0737 50.0499ZM52.4037 49.0499C51.8515 49.0499 51.4037 49.4976 51.4037 50.0499C51.4037 50.6022 51.8515 51.0499 52.4037 51.0499V49.0499ZM55.5198 49.1379C54.994 48.9689 54.4307 49.2581 54.2617 49.7839C54.0927 50.3097 54.3819 50.8729 54.9077 51.0419L55.5198 49.1379ZM52.3237 56.2499L52.0631 55.2844L52.0602 55.2852L52.3237 56.2499ZM18.3119 52.0032C17.7614 52.0485 17.3519 52.5313 17.3971 53.0818C17.4423 53.6322 17.9252 54.0417 18.4756 53.9965L18.3119 52.0032ZM17.9043 36.6459C17.8856 37.1979 18.3178 37.6606 18.8698 37.6793C19.4217 37.6981 19.8844 37.2658 19.9032 36.7138L17.9043 36.6459ZM17.4037 31.0099L16.7104 31.7305L16.7131 31.7331L17.4037 31.0099ZM4.31374 31.6799L5.18431 32.1719L5.18556 32.1697L4.31374 31.6799ZM4.59374 54.9199L5.18541 54.1137L5.18398 54.1127L4.59374 54.9199ZM17.0437 54.9199L17.513 55.803L17.5164 55.8011L17.0437 54.9199ZM19.9037 49.0699C19.9037 48.5176 19.456 48.0699 18.9037 48.0699C18.3515 48.0699 17.9037 48.5176 17.9037 49.0699H19.9037ZM14.0937 1.88989L13.5203 1.07065L13.4924 1.09014L13.466 1.11147L14.0937 1.88989ZM21.9037 0.999886L21.4939 1.91205L21.4942 1.91216L21.9037 0.999886ZM18.4293 33.9989C21.1522 34.1199 23.3726 32.3405 25.1802 30.4775C26.1016 29.5279 26.9877 28.477 27.8129 27.5297C28.6545 26.5636 29.4341 25.7032 30.1959 25.048L28.8916 23.5318C28.0084 24.2915 27.1443 25.2524 26.3049 26.216C25.4492 27.1984 24.6172 28.1857 23.7448 29.0848C21.9648 30.9193 20.2953 32.0799 18.5181 32.0009L18.4293 33.9989ZM30.1948 25.049C33.0101 22.6344 36.1061 20.0718 38.374 16.726C40.6724 13.3351 42.112 9.16259 41.7315 3.53245L39.736 3.66732C40.0855 8.83718 38.7751 12.5696 36.7185 15.6038C34.6314 18.683 31.7674 21.0654 28.8927 23.5308L30.1948 25.049ZM41.7315 3.53337C41.7009 3.07451 41.8617 2.76528 42.1377 2.53096C42.445 2.27004 42.9416 2.0722 43.5679 2.02164C44.8573 1.91758 46.2152 2.45675 46.8149 3.46216L48.5326 2.43761C47.4323 0.593027 45.2152 -0.117806 43.407 0.0281273C42.4847 0.102573 41.5519 0.404727 40.8433 1.00631C40.1033 1.63449 39.6616 2.55027 39.736 3.6664L41.7315 3.53337ZM46.818 3.46731C49.4759 7.86303 49.0581 11.823 47.8522 15.4073C47.2397 17.2277 46.438 18.9114 45.7125 20.542C45.008 22.1251 44.3493 23.711 44.171 25.1794L46.1565 25.4204C46.2932 24.2938 46.8207 22.9709 47.5397 21.355C48.2377 19.7865 49.0965 17.9809 49.7478 16.045C51.0694 12.1167 51.5916 7.49674 48.5295 2.43247L46.818 3.46731ZM42.7048 26.5639C45.6976 26.8919 48.354 26.8502 50.5266 26.727C51.6107 26.6656 52.5792 26.5835 53.3975 26.5174C54.2292 26.4503 54.8809 26.4022 55.3784 26.3999L55.3691 24.3999C54.7816 24.4026 54.0508 24.4582 53.2366 24.5239C52.409 24.5907 51.4681 24.6704 50.4134 24.7302C48.3085 24.8496 45.7699 24.8879 42.9227 24.5758L42.7048 26.5639ZM55.3737 26.3999C56.9105 26.3999 58.1272 27.6368 58.5888 29.2187C58.8137 29.9898 58.8157 30.7279 58.6361 31.2789C58.4667 31.7987 58.1478 32.1419 57.6469 32.2919L58.2206 34.2079C59.4397 33.8428 60.1958 32.9473 60.5376 31.8987C60.8693 30.8812 60.8188 29.7212 60.5087 28.6586C59.9003 26.573 58.117 24.3999 55.3737 24.3999V26.3999ZM57.6884 32.2805C56.8416 32.4948 55.972 32.6054 55.0986 32.6099L55.1089 34.6099C56.1443 34.6045 57.1753 34.4734 58.1791 34.2193L57.6884 32.2805ZM57.8395 34.3041C58.4543 34.1616 58.8649 34.3526 59.197 34.771C59.5763 35.2491 59.8457 36.0452 59.8951 36.9909C59.944 37.9253 59.7703 38.8781 59.4051 39.6091C59.0438 40.3323 58.5443 40.7582 57.9448 40.8799L58.3427 42.8399C59.7132 42.5616 60.6449 41.6025 61.1943 40.5029C61.7397 39.411 61.956 38.1033 61.8924 36.8864C61.8293 35.6809 61.4836 34.4351 60.7636 33.5278C59.9963 32.5609 58.8232 32.0232 57.388 32.3557L57.8395 34.3041ZM57.9438 40.8801C56.946 41.0837 55.9347 41.2145 54.9179 41.2715L55.0296 43.2683C56.1433 43.206 57.2509 43.0627 58.3437 42.8397L57.9438 40.8801ZM58.5293 42.7044C58.4088 42.6918 58.3812 42.6167 58.4306 42.6888C58.4895 42.7745 58.573 42.9592 58.6347 43.2742C58.7568 43.8971 58.746 44.7839 58.5597 45.7086C58.3735 46.6327 58.0311 47.5 57.5692 48.1194C57.1158 48.7273 56.6059 49.0298 56.0372 49.0506L56.1103 51.0492C57.4565 51 58.4742 50.2512 59.1724 49.3151C59.862 48.3904 60.2952 47.2209 60.5203 46.1036C60.7452 44.9871 60.7813 43.8283 60.5974 42.8897C60.5062 42.4238 60.3485 41.9487 60.0795 41.5568C59.801 41.1512 59.3587 40.7805 58.7382 40.7154L58.5293 42.7044ZM56.0737 49.0499C56.0718 49.0499 56.0698 49.0499 56.0679 49.0499C56.0659 49.0499 56.064 49.0499 56.062 49.0499C56.0601 49.0499 56.0581 49.0499 56.0561 49.0499C56.0542 49.0499 56.0522 49.0499 56.0503 49.0499C56.0483 49.0499 56.0463 49.0499 56.0444 49.0499C56.0424 49.0499 56.0404 49.0499 56.0385 49.0499C56.0365 49.0499 56.0345 49.0499 56.0326 49.0499C56.0306 49.0499 56.0286 49.0499 56.0267 49.0499C56.0247 49.0499 56.0227 49.0499 56.0208 49.0499C56.0188 49.0499 56.0168 49.0499 56.0148 49.0499C56.0129 49.0499 56.0109 49.0499 56.0089 49.0499C56.0069 49.0499 56.005 49.0499 56.003 49.0499C56.001 49.0499 55.999 49.0499 55.9971 49.0499C55.9951 49.0499 55.9931 49.0499 55.9911 49.0499C55.9891 49.0499 55.9871 49.0499 55.9852 49.0499C55.9832 49.0499 55.9812 49.0499 55.9792 49.0499C55.9772 49.0499 55.9752 49.0499 55.9732 49.0499C55.9713 49.0499 55.9693 49.0499 55.9673 49.0499C55.9653 49.0499 55.9633 49.0499 55.9613 49.0499C55.9593 49.0499 55.9573 49.0499 55.9553 49.0499C55.9533 49.0499 55.9513 49.0499 55.9493 49.0499C55.9473 49.0499 55.9454 49.0499 55.9434 49.0499C55.9414 49.0499 55.9394 49.0499 55.9374 49.0499C55.9354 49.0499 55.9334 49.0499 55.9314 49.0499C55.9294 49.0499 55.9273 49.0499 55.9253 49.0499C55.9233 49.0499 55.9213 49.0499 55.9193 49.0499C55.9173 49.0499 55.9153 49.0499 55.9133 49.0499C55.9113 49.0499 55.9093 49.0499 55.9073 49.0499C55.9053 49.0499 55.9033 49.0499 55.9012 49.0499C55.8992 49.0499 55.8972 49.0499 55.8952 49.0499C55.8932 49.0499 55.8912 49.0499 55.8892 49.0499C55.8871 49.0499 55.8851 49.0499 55.8831 49.0499C55.8811 49.0499 55.8791 49.0499 55.8771 49.0499C55.875 49.0499 55.873 49.0499 55.871 49.0499C55.869 49.0499 55.867 49.0499 55.8649 49.0499C55.8629 49.0499 55.8609 49.0499 55.8589 49.0499C55.8568 49.0499 55.8548 49.0499 55.8528 49.0499C55.8507 49.0499 55.8487 49.0499 55.8467 49.0499C55.8447 49.0499 55.8426 49.0499 55.8406 49.0499C55.8386 49.0499 55.8365 49.0499 55.8345 49.0499C55.8325 49.0499 55.8304 49.0499 55.8284 49.0499C55.8264 49.0499 55.8243 49.0499 55.8223 49.0499C55.8202 49.0499 55.8182 49.0499 55.8162 49.0499C55.8141 49.0499 55.8121 49.0499 55.81 49.0499C55.808 49.0499 55.806 49.0499 55.8039 49.0499C55.8019 49.0499 55.7998 49.0499 55.7978 49.0499C55.7957 49.0499 55.7937 49.0499 55.7916 49.0499C55.7896 49.0499 55.7875 49.0499 55.7855 49.0499C55.7834 49.0499 55.7814 49.0499 55.7793 49.0499C55.7773 49.0499 55.7752 49.0499 55.7732 49.0499C55.7711 49.0499 55.7691 49.0499 55.767 49.0499C55.765 49.0499 55.7629 49.0499 55.7608 49.0499C55.7588 49.0499 55.7567 49.0499 55.7547 49.0499C55.7526 49.0499 55.7506 49.0499 55.7485 49.0499C55.7464 49.0499 55.7444 49.0499 55.7423 49.0499C55.7402 49.0499 55.7382 49.0499 55.7361 49.0499C55.734 49.0499 55.732 49.0499 55.7299 49.0499C55.7278 49.0499 55.7258 49.0499 55.7237 49.0499C55.7216 49.0499 55.7196 49.0499 55.7175 49.0499C55.7154 49.0499 55.7134 49.0499 55.7113 49.0499C55.7092 49.0499 55.7071 49.0499 55.7051 49.0499C55.703 49.0499 55.7009 49.0499 55.6988 49.0499C55.6968 49.0499 55.6947 49.0499 55.6926 49.0499C55.6905 49.0499 55.6884 49.0499 55.6864 49.0499C55.6843 49.0499 55.6822 49.0499 55.6801 49.0499C55.678 49.0499 55.676 49.0499 55.6739 49.0499C55.6718 49.0499 55.6697 49.0499 55.6676 49.0499C55.6655 49.0499 55.6634 49.0499 55.6614 49.0499C55.6593 49.0499 55.6572 49.0499 55.6551 49.0499C55.653 49.0499 55.6509 49.0499 55.6488 49.0499C55.6467 49.0499 55.6446 49.0499 55.6425 49.0499C55.6404 49.0499 55.6383 49.0499 55.6362 49.0499C55.6341 49.0499 55.632 49.0499 55.63 49.0499C55.6279 49.0499 55.6258 49.0499 55.6237 49.0499C55.6216 49.0499 55.6195 49.0499 55.6174 49.0499C55.6152 49.0499 55.6131 49.0499 55.611 49.0499C55.6089 49.0499 55.6068 49.0499 55.6047 49.0499C55.6026 49.0499 55.6005 49.0499 55.5984 49.0499C55.5963 49.0499 55.5942 49.0499 55.5921 49.0499C55.59 49.0499 55.5879 49.0499 55.5858 49.0499C55.5836 49.0499 55.5815 49.0499 55.5794 49.0499C55.5773 49.0499 55.5752 49.0499 55.5731 49.0499C55.571 49.0499 55.5688 49.0499 55.5667 49.0499C55.5646 49.0499 55.5625 49.0499 55.5604 49.0499C55.5583 49.0499 55.5561 49.0499 55.554 49.0499C55.5519 49.0499 55.5498 49.0499 55.5476 49.0499C55.5455 49.0499 55.5434 49.0499 55.5413 49.0499C55.5392 49.0499 55.537 49.0499 55.5349 49.0499C55.5328 49.0499 55.5307 49.0499 55.5285 49.0499C55.5264 49.0499 55.5243 49.0499 55.5221 49.0499C55.52 49.0499 55.5179 49.0499 55.5157 49.0499C55.5136 49.0499 55.5115 49.0499 55.5093 49.0499C55.5072 49.0499 55.5051 49.0499 55.5029 49.0499C55.5008 49.0499 55.4987 49.0499 55.4965 49.0499C55.4944 49.0499 55.4923 49.0499 55.4901 49.0499C55.488 49.0499 55.4858 49.0499 55.4837 49.0499C55.4816 49.0499 55.4794 49.0499 55.4773 49.0499C55.4751 49.0499 55.473 49.0499 55.4708 49.0499C55.4687 49.0499 55.4665 49.0499 55.4644 49.0499C55.4622 49.0499 55.4601 49.0499 55.458 49.0499C55.4558 49.0499 55.4537 49.0499 55.4515 49.0499C55.4494 49.0499 55.4472 49.0499 55.445 49.0499C55.4429 49.0499 55.4407 49.0499 55.4386 49.0499C55.4364 49.0499 55.4343 49.0499 55.4321 49.0499C55.43 49.0499 55.4278 49.0499 55.4257 49.0499C55.4235 49.0499 55.4213 49.0499 55.4192 49.0499C55.417 49.0499 55.4149 49.0499 55.4127 49.0499C55.4105 49.0499 55.4084 49.0499 55.4062 49.0499C55.404 49.0499 55.4019 49.0499 55.3997 49.0499C55.3975 49.0499 55.3954 49.0499 55.3932 49.0499C55.391 49.0499 55.3889 49.0499 55.3867 49.0499C55.3845 49.0499 55.3824 49.0499 55.3802 49.0499C55.378 49.0499 55.3759 49.0499 55.3737 49.0499C55.3715 49.0499 55.3693 49.0499 55.3672 49.0499C55.365 49.0499 55.3628 49.0499 55.3606 49.0499C55.3585 49.0499 55.3563 49.0499 55.3541 49.0499C55.3519 49.0499 55.3498 49.0499 55.3476 49.0499C55.3454 49.0499 55.3432 49.0499 55.341 49.0499C55.3388 49.0499 55.3367 49.0499 55.3345 49.0499C55.3323 49.0499 55.3301 49.0499 55.3279 49.0499C55.3257 49.0499 55.3236 49.0499 55.3214 49.0499C55.3192 49.0499 55.317 49.0499 55.3148 49.0499C55.3126 49.0499 55.3104 49.0499 55.3082 49.0499C55.306 49.0499 55.3039 49.0499 55.3017 49.0499C55.2995 49.0499 55.2973 49.0499 55.2951 49.0499C55.2929 49.0499 55.2907 49.0499 55.2885 49.0499C55.2863 49.0499 55.2841 49.0499 55.2819 49.0499C55.2797 49.0499 55.2775 49.0499 55.2753 49.0499C55.2731 49.0499 55.2709 49.0499 55.2687 49.0499C55.2665 49.0499 55.2643 49.0499 55.2621 49.0499C55.2599 49.0499 55.2577 49.0499 55.2555 49.0499C55.2533 49.0499 55.2511 49.0499 55.2489 49.0499C55.2467 49.0499 55.2445 49.0499 55.2422 49.0499C55.24 49.0499 55.2378 49.0499 55.2356 49.0499C55.2334 49.0499 55.2312 49.0499 55.229 49.0499C55.2268 49.0499 55.2246 49.0499 55.2223 49.0499C55.2201 49.0499 55.2179 49.0499 55.2157 49.0499C55.2135 49.0499 55.2113 49.0499 55.209 49.0499C55.2068 49.0499 55.2046 49.0499 55.2024 49.0499C55.2002 49.0499 55.198 49.0499 55.1957 49.0499C55.1935 49.0499 55.1913 49.0499 55.1891 49.0499C55.1868 49.0499 55.1846 49.0499 55.1824 49.0499C55.1802 49.0499 55.1779 49.0499 55.1757 49.0499C55.1735 49.0499 55.1713 49.0499 55.169 49.0499C55.1668 49.0499 55.1646 49.0499 55.1623 49.0499C55.1601 49.0499 55.1579 49.0499 55.1557 49.0499C55.1534 49.0499 55.1512 49.0499 55.149 49.0499C55.1467 49.0499 55.1445 49.0499 55.1423 49.0499C55.14 49.0499 55.1378 49.0499 55.1356 49.0499C55.1333 49.0499 55.1311 49.0499 55.1288 49.0499C55.1266 49.0499 55.1244 49.0499 55.1221 49.0499C55.1199 49.0499 55.1176 49.0499 55.1154 49.0499C55.1132 49.0499 55.1109 49.0499 55.1087 49.0499C55.1064 49.0499 55.1042 49.0499 55.1019 49.0499C55.0997 49.0499 55.0974 49.0499 55.0952 49.0499C55.0929 49.0499 55.0907 49.0499 55.0884 49.0499C55.0862 49.0499 55.0839 49.0499 55.0817 49.0499C55.0794 49.0499 55.0772 49.0499 55.0749 49.0499C55.0727 49.0499 55.0704 49.0499 55.0682 49.0499C55.0659 49.0499 55.0637 49.0499 55.0614 49.0499C55.0592 49.0499 55.0569 49.0499 55.0546 49.0499C55.0524 49.0499 55.0501 49.0499 55.0479 49.0499C55.0456 49.0499 55.0434 49.0499 55.0411 49.0499C55.0388 49.0499 55.0366 49.0499 55.0343 49.0499C55.032 49.0499 55.0298 49.0499 55.0275 49.0499C55.0252 49.0499 55.023 49.0499 55.0207 49.0499C55.0184 49.0499 55.0162 49.0499 55.0139 49.0499C55.0116 49.0499 55.0094 49.0499 55.0071 49.0499C55.0048 49.0499 55.0026 49.0499 55.0003 49.0499C54.998 49.0499 54.9958 49.0499 54.9935 49.0499C54.9912 49.0499 54.9889 49.0499 54.9867 49.0499C54.9844 49.0499 54.9821 49.0499 54.9798 49.0499C54.9776 49.0499 54.9753 49.0499 54.973 49.0499C54.9707 49.0499 54.9684 49.0499 54.9662 49.0499C54.9639 49.0499 54.9616 49.0499 54.9593 49.0499C54.957 49.0499 54.9548 49.0499 54.9525 49.0499C54.9502 49.0499 54.9479 49.0499 54.9456 49.0499C54.9433 49.0499 54.941 49.0499 54.9388 49.0499C54.9365 49.0499 54.9342 49.0499 54.9319 49.0499C54.9296 49.0499 54.9273 49.0499 54.925 49.0499C54.9227 49.0499 54.9204 49.0499 54.9182 49.0499C54.9159 49.0499 54.9136 49.0499 54.9113 49.0499C54.909 49.0499 54.9067 49.0499 54.9044 49.0499C54.9021 49.0499 54.8998 49.0499 54.8975 49.0499C54.8952 49.0499 54.8929 49.0499 54.8906 49.0499C54.8883 49.0499 54.886 49.0499 54.8837 49.0499C54.8814 49.0499 54.8791 49.0499 54.8768 49.0499C54.8745 49.0499 54.8722 49.0499 54.8699 49.0499C54.8676 49.0499 54.8653 49.0499 54.863 49.0499C54.8607 49.0499 54.8584 49.0499 54.8561 49.0499C54.8538 49.0499 54.8515 49.0499 54.8492 49.0499C54.8468 49.0499 54.8445 49.0499 54.8422 49.0499C54.8399 49.0499 54.8376 49.0499 54.8353 49.0499C54.833 49.0499 54.8307 49.0499 54.8284 49.0499C54.826 49.0499 54.8237 49.0499 54.8214 49.0499C54.8191 49.0499 54.8168 49.0499 54.8145 49.0499C54.8121 49.0499 54.8098 49.0499 54.8075 49.0499C54.8052 49.0499 54.8029 49.0499 54.8005 49.0499C54.7982 49.0499 54.7959 49.0499 54.7936 49.0499C54.7913 49.0499 54.7889 49.0499 54.7866 49.0499C54.7843 49.0499 54.782 49.0499 54.7796 49.0499C54.7773 49.0499 54.775 49.0499 54.7727 49.0499C54.7703 49.0499 54.768 49.0499 54.7657 49.0499C54.7634 49.0499 54.761 49.0499 54.7587 49.0499C54.7564 49.0499 54.754 49.0499 54.7517 49.0499C54.7494 49.0499 54.747 49.0499 54.7447 49.0499C54.7424 49.0499 54.74 49.0499 54.7377 49.0499C54.7354 49.0499 54.733 49.0499 54.7307 49.0499C54.7284 49.0499 54.726 49.0499 54.7237 49.0499C54.7214 49.0499 54.719 49.0499 54.7167 49.0499C54.7143 49.0499 54.712 49.0499 54.7096 49.0499C54.7073 49.0499 54.705 49.0499 54.7026 49.0499C54.7003 49.0499 54.6979 49.0499 54.6956 49.0499C54.6932 49.0499 54.6909 49.0499 54.6886 49.0499C54.6862 49.0499 54.6839 49.0499 54.6815 49.0499C54.6792 49.0499 54.6768 49.0499 54.6745 49.0499C54.6721 49.0499 54.6698 49.0499 54.6674 49.0499C54.6651 49.0499 54.6627 49.0499 54.6604 49.0499C54.658 49.0499 54.6557 49.0499 54.6533 49.0499C54.6509 49.0499 54.6486 49.0499 54.6462 49.0499C54.6439 49.0499 54.6415 49.0499 54.6392 49.0499C54.6368 49.0499 54.6345 49.0499 54.6321 49.0499C54.6297 49.0499 54.6274 49.0499 54.625 49.0499C54.6227 49.0499 54.6203 49.0499 54.6179 49.0499C54.6156 49.0499 54.6132 49.0499 54.6108 49.0499C54.6085 49.0499 54.6061 49.0499 54.6037 49.0499C54.6014 49.0499 54.599 49.0499 54.5966 49.0499C54.5943 49.0499 54.5919 49.0499 54.5895 49.0499C54.5872 49.0499 54.5848 49.0499 54.5824 49.0499C54.5801 49.0499 54.5777 49.0499 54.5753 49.0499C54.573 49.0499 54.5706 49.0499 54.5682 49.0499C54.5658 49.0499 54.5635 49.0499 54.5611 49.0499C54.5587 49.0499 54.5563 49.0499 54.554 49.0499C54.5516 49.0499 54.5492 49.0499 54.5468 49.0499C54.5444 49.0499 54.5421 49.0499 54.5397 49.0499C54.5373 49.0499 54.5349 49.0499 54.5325 49.0499C54.5302 49.0499 54.5278 49.0499 54.5254 49.0499C54.523 49.0499 54.5206 49.0499 54.5182 49.0499C54.5159 49.0499 54.5135 49.0499 54.5111 49.0499C54.5087 49.0499 54.5063 49.0499 54.5039 49.0499C54.5015 49.0499 54.4992 49.0499 54.4968 49.0499C54.4944 49.0499 54.492 49.0499 54.4896 49.0499C54.4872 49.0499 54.4848 49.0499 54.4824 49.0499C54.48 49.0499 54.4776 49.0499 54.4753 49.0499C54.4729 49.0499 54.4705 49.0499 54.4681 49.0499C54.4657 49.0499 54.4633 49.0499 54.4609 49.0499C54.4585 49.0499 54.4561 49.0499 54.4537 49.0499C54.4513 49.0499 54.4489 49.0499 54.4465 49.0499C54.4441 49.0499 54.4417 49.0499 54.4393 49.0499C54.4369 49.0499 54.4345 49.0499 54.4321 49.0499C54.4297 49.0499 54.4273 49.0499 54.4249 49.0499C54.4225 49.0499 54.4201 49.0499 54.4177 49.0499C54.4152 49.0499 54.4128 49.0499 54.4104 49.0499C54.408 49.0499 54.4056 49.0499 54.4032 49.0499C54.4008 49.0499 54.3984 49.0499 54.396 49.0499C54.3936 49.0499 54.3912 49.0499 54.3887 49.0499C54.3863 49.0499 54.3839 49.0499 54.3815 49.0499C54.3791 49.0499 54.3767 49.0499 54.3743 49.0499C54.3718 49.0499 54.3694 49.0499 54.367 49.0499C54.3646 49.0499 54.3622 49.0499 54.3598 49.0499C54.3573 49.0499 54.3549 49.0499 54.3525 49.0499C54.3501 49.0499 54.3477 49.0499 54.3452 49.0499C54.3428 49.0499 54.3404 49.0499 54.338 49.0499C54.3356 49.0499 54.3331 49.0499 54.3307 49.0499C54.3283 49.0499 54.3259 49.0499 54.3234 49.0499C54.321 49.0499 54.3186 49.0499 54.3162 49.0499C54.3137 49.0499 54.3113 49.0499 54.3089 49.0499C54.3064 49.0499 54.304 49.0499 54.3016 49.0499C54.2992 49.0499 54.2967 49.0499 54.2943 49.0499C54.2919 49.0499 54.2894 49.0499 54.287 49.0499C54.2846 49.0499 54.2821 49.0499 54.2797 49.0499C54.2773 49.0499 54.2748 49.0499 54.2724 49.0499C54.2699 49.0499 54.2675 49.0499 54.2651 49.0499C54.2626 49.0499 54.2602 49.0499 54.2578 49.0499C54.2553 49.0499 54.2529 49.0499 54.2504 49.0499C54.248 49.0499 54.2456 49.0499 54.2431 49.0499C54.2407 49.0499 54.2382 49.0499 54.2358 49.0499C54.2333 49.0499 54.2309 49.0499 54.2284 49.0499C54.226 49.0499 54.2236 49.0499 54.2211 49.0499C54.2187 49.0499 54.2162 49.0499 54.2138 49.0499C54.2113 49.0499 54.2089 49.0499 54.2064 49.0499C54.204 49.0499 54.2015 49.0499 54.1991 49.0499C54.1966 49.0499 54.1942 49.0499 54.1917 49.0499C54.1893 49.0499 54.1868 49.0499 54.1844 49.0499C54.1819 49.0499 54.1794 49.0499 54.177 49.0499C54.1745 49.0499 54.1721 49.0499 54.1696 49.0499C54.1672 49.0499 54.1647 49.0499 54.1623 49.0499C54.1598 49.0499 54.1573 49.0499 54.1549 49.0499C54.1524 49.0499 54.15 49.0499 54.1475 49.0499C54.145 49.0499 54.1426 49.0499 54.1401 49.0499C54.1376 49.0499 54.1352 49.0499 54.1327 49.0499C54.1302 49.0499 54.1278 49.0499 54.1253 49.0499C54.1229 49.0499 54.1204 49.0499 54.1179 49.0499C54.1155 49.0499 54.113 49.0499 54.1105 49.0499C54.108 49.0499 54.1056 49.0499 54.1031 49.0499C54.1006 49.0499 54.0982 49.0499 54.0957 49.0499C54.0932 49.0499 54.0908 49.0499 54.0883 49.0499C54.0858 49.0499 54.0833 49.0499 54.0809 49.0499C54.0784 49.0499 54.0759 49.0499 54.0734 49.0499C54.071 49.0499 54.0685 49.0499 54.066 49.0499C54.0635 49.0499 54.0611 49.0499 54.0586 49.0499C54.0561 49.0499 54.0536 49.0499 54.0511 49.0499C54.0487 49.0499 54.0462 49.0499 54.0437 49.0499C54.0412 49.0499 54.0387 49.0499 54.0362 49.0499C54.0338 49.0499 54.0313 49.0499 54.0288 49.0499C54.0263 49.0499 54.0238 49.0499 54.0213 49.0499C54.0189 49.0499 54.0164 49.0499 54.0139 49.0499C54.0114 49.0499 54.0089 49.0499 54.0064 49.0499C54.0039 49.0499 54.0014 49.0499 53.9989 49.0499C53.9965 49.0499 53.994 49.0499 53.9915 49.0499C53.989 49.0499 53.9865 49.0499 53.984 49.0499C53.9815 49.0499 53.979 49.0499 53.9765 49.0499C53.974 49.0499 53.9715 49.0499 53.969 49.0499C53.9665 49.0499 53.964 49.0499 53.9615 49.0499C53.959 49.0499 53.9565 49.0499 53.954 49.0499C53.9515 49.0499 53.9491 49.0499 53.9465 49.0499C53.944 49.0499 53.9416 49.0499 53.939 49.0499C53.9365 49.0499 53.934 49.0499 53.9315 49.0499C53.929 49.0499 53.9265 49.0499 53.924 49.0499C53.9215 49.0499 53.919 49.0499 53.9165 49.0499C53.914 49.0499 53.9115 49.0499 53.909 49.0499C53.9065 49.0499 53.904 49.0499 53.9015 49.0499C53.899 49.0499 53.8965 49.0499 53.894 49.0499C53.8914 49.0499 53.8889 49.0499 53.8864 49.0499C53.8839 49.0499 53.8814 49.0499 53.8789 49.0499C53.8764 49.0499 53.8739 49.0499 53.8713 49.0499C53.8688 49.0499 53.8663 49.0499 53.8638 49.0499C53.8613 49.0499 53.8588 49.0499 53.8563 49.0499C53.8537 49.0499 53.8512 49.0499 53.8487 49.0499C53.8462 49.0499 53.8437 49.0499 53.8411 49.0499C53.8386 49.0499 53.8361 49.0499 53.8336 49.0499C53.8311 49.0499 53.8285 49.0499 53.826 49.0499C53.8235 49.0499 53.821 49.0499 53.8185 49.0499C53.8159 49.0499 53.8134 49.0499 53.8109 49.0499C53.8084 49.0499 53.8058 49.0499 53.8033 49.0499C53.8008 49.0499 53.7983 49.0499 53.7957 49.0499C53.7932 49.0499 53.7907 49.0499 53.7881 49.0499C53.7856 49.0499 53.7831 49.0499 53.7806 49.0499C53.778 49.0499 53.7755 49.0499 53.773 49.0499C53.7704 49.0499 53.7679 49.0499 53.7654 49.0499C53.7628 49.0499 53.7603 49.0499 53.7578 49.0499C53.7552 49.0499 53.7527 49.0499 53.7502 49.0499C53.7476 49.0499 53.7451 49.0499 53.7425 49.0499C53.74 49.0499 53.7375 49.0499 53.7349 49.0499C53.7324 49.0499 53.7299 49.0499 53.7273 49.0499C53.7248 49.0499 53.7222 49.0499 53.7197 49.0499C53.7172 49.0499 53.7146 49.0499 53.7121 49.0499C53.7095 49.0499 53.707 49.0499 53.7044 49.0499C53.7019 49.0499 53.6994 49.0499 53.6968 49.0499C53.6943 49.0499 53.6917 49.0499 53.6892 49.0499C53.6866 49.0499 53.6841 49.0499 53.6815 49.0499C53.679 49.0499 53.6764 49.0499 53.6739 49.0499C53.6713 49.0499 53.6688 49.0499 53.6662 49.0499C53.6637 49.0499 53.6611 49.0499 53.6586 49.0499C53.656 49.0499 53.6535 49.0499 53.6509 49.0499C53.6484 49.0499 53.6458 49.0499 53.6433 49.0499C53.6407 49.0499 53.6382 49.0499 53.6356 49.0499C53.633 49.0499 53.6305 49.0499 53.6279 49.0499C53.6254 49.0499 53.6228 49.0499 53.6203 49.0499C53.6177 49.0499 53.6151 49.0499 53.6126 49.0499C53.61 49.0499 53.6075 49.0499 53.6049 49.0499C53.6023 49.0499 53.5998 49.0499 53.5972 49.0499C53.5947 49.0499 53.5921 49.0499 53.5895 49.0499C53.587 49.0499 53.5844 49.0499 53.5818 49.0499C53.5793 49.0499 53.5767 49.0499 53.5741 49.0499C53.5716 49.0499 53.569 49.0499 53.5664 49.0499C53.5639 49.0499 53.5613 49.0499 53.5587 49.0499C53.5562 49.0499 53.5536 49.0499 53.551 49.0499C53.5485 49.0499 53.5459 49.0499 53.5433 49.0499C53.5407 49.0499 53.5382 49.0499 53.5356 49.0499C53.533 49.0499 53.5305 49.0499 53.5279 49.0499C53.5253 49.0499 53.5227 49.0499 53.5202 49.0499C53.5176 49.0499 53.515 49.0499 53.5124 49.0499C53.5099 49.0499 53.5073 49.0499 53.5047 49.0499C53.5021 49.0499 53.4995 49.0499 53.497 49.0499C53.4944 49.0499 53.4918 49.0499 53.4892 49.0499C53.4866 49.0499 53.4841 49.0499 53.4815 49.0499C53.4789 49.0499 53.4763 49.0499 53.4737 49.0499C53.4712 49.0499 53.4686 49.0499 53.466 49.0499C53.4634 49.0499 53.4608 49.0499 53.4582 49.0499C53.4557 49.0499 53.4531 49.0499 53.4505 49.0499C53.4479 49.0499 53.4453 49.0499 53.4427 49.0499C53.4401 49.0499 53.4375 49.0499 53.435 49.0499C53.4324 49.0499 53.4298 49.0499 53.4272 49.0499C53.4246 49.0499 53.422 49.0499 53.4194 49.0499C53.4168 49.0499 53.4142 49.0499 53.4116 49.0499C53.409 49.0499 53.4064 49.0499 53.4039 49.0499C53.4013 49.0499 53.3987 49.0499 53.3961 49.0499C53.3935 49.0499 53.3909 49.0499 53.3883 49.0499C53.3857 49.0499 53.3831 49.0499 53.3805 49.0499C53.3779 49.0499 53.3753 49.0499 53.3727 49.0499C53.3701 49.0499 53.3675 49.0499 53.3649 49.0499C53.3623 49.0499 53.3597 49.0499 53.3571 49.0499C53.3545 49.0499 53.3519 49.0499 53.3493 49.0499C53.3467 49.0499 53.3441 49.0499 53.3415 49.0499C53.3389 49.0499 53.3363 49.0499 53.3337 49.0499C53.3311 49.0499 53.3284 49.0499 53.3258 49.0499C53.3232 49.0499 53.3206 49.0499 53.318 49.0499C53.3154 49.0499 53.3128 49.0499 53.3102 49.0499C53.3076 49.0499 53.305 49.0499 53.3024 49.0499C53.2998 49.0499 53.2971 49.0499 53.2945 49.0499C53.2919 49.0499 53.2893 49.0499 53.2867 49.0499C53.2841 49.0499 53.2815 49.0499 53.2789 49.0499C53.2762 49.0499 53.2736 49.0499 53.271 49.0499C53.2684 49.0499 53.2658 49.0499 53.2632 49.0499C53.2606 49.0499 53.2579 49.0499 53.2553 49.0499C53.2527 49.0499 53.2501 49.0499 53.2475 49.0499C53.2448 49.0499 53.2422 49.0499 53.2396 49.0499C53.237 49.0499 53.2344 49.0499 53.2317 49.0499C53.2291 49.0499 53.2265 49.0499 53.2239 49.0499C53.2213 49.0499 53.2186 49.0499 53.216 49.0499C53.2134 49.0499 53.2108 49.0499 53.2081 49.0499C53.2055 49.0499 53.2029 49.0499 53.2003 49.0499C53.1976 49.0499 53.195 49.0499 53.1924 49.0499C53.1898 49.0499 53.1871 49.0499 53.1845 49.0499C53.1819 49.0499 53.1792 49.0499 53.1766 49.0499C53.174 49.0499 53.1713 49.0499 53.1687 49.0499C53.1661 49.0499 53.1635 49.0499 53.1608 49.0499C53.1582 49.0499 53.1556 49.0499 53.1529 49.0499C53.1503 49.0499 53.1477 49.0499 53.145 49.0499C53.1424 49.0499 53.1398 49.0499 53.1371 49.0499C53.1345 49.0499 53.1319 49.0499 53.1292 49.0499C53.1266 49.0499 53.1239 49.0499 53.1213 49.0499C53.1187 49.0499 53.116 49.0499 53.1134 49.0499C53.1107 49.0499 53.1081 49.0499 53.1055 49.0499C53.1028 49.0499 53.1002 49.0499 53.0975 49.0499C53.0949 49.0499 53.0923 49.0499 53.0896 49.0499C53.087 49.0499 53.0843 49.0499 53.0817 49.0499C53.079 49.0499 53.0764 49.0499 53.0738 49.0499C53.0711 49.0499 53.0685 49.0499 53.0658 49.0499C53.0632 49.0499 53.0605 49.0499 53.0579 49.0499C53.0552 49.0499 53.0526 49.0499 53.0499 49.0499C53.0473 49.0499 53.0446 49.0499 53.042 49.0499C53.0393 49.0499 53.0367 49.0499 53.034 49.0499C53.0314 49.0499 53.0287 49.0499 53.0261 49.0499C53.0234 49.0499 53.0208 49.0499 53.0181 49.0499C53.0155 49.0499 53.0128 49.0499 53.0102 49.0499C53.0075 49.0499 53.0049 49.0499 53.0022 49.0499C52.9995 49.0499 52.9969 49.0499 52.9942 49.0499C52.9916 49.0499 52.9889 49.0499 52.9863 49.0499C52.9836 49.0499 52.981 49.0499 52.9783 49.0499C52.9756 49.0499 52.973 49.0499 52.9703 49.0499C52.9677 49.0499 52.965 49.0499 52.9623 49.0499C52.9597 49.0499 52.957 49.0499 52.9543 49.0499C52.9517 49.0499 52.949 49.0499 52.9464 49.0499C52.9437 49.0499 52.941 49.0499 52.9384 49.0499C52.9357 49.0499 52.933 49.0499 52.9304 49.0499C52.9277 49.0499 52.925 49.0499 52.9224 49.0499C52.9197 49.0499 52.917 49.0499 52.9144 49.0499C52.9117 49.0499 52.909 49.0499 52.9064 49.0499C52.9037 49.0499 52.901 49.0499 52.8984 49.0499C52.8957 49.0499 52.893 49.0499 52.8904 49.0499C52.8877 49.0499 52.885 49.0499 52.8823 49.0499C52.8797 49.0499 52.877 49.0499 52.8743 49.0499C52.8716 49.0499 52.869 49.0499 52.8663 49.0499C52.8636 49.0499 52.8609 49.0499 52.8583 49.0499C52.8556 49.0499 52.8529 49.0499 52.8502 49.0499C52.8476 49.0499 52.8449 49.0499 52.8422 49.0499C52.8395 49.0499 52.8369 49.0499 52.8342 49.0499C52.8315 49.0499 52.8288 49.0499 52.8261 49.0499C52.8235 49.0499 52.8208 49.0499 52.8181 49.0499C52.8154 49.0499 52.8127 49.0499 52.8101 49.0499C52.8074 49.0499 52.8047 49.0499 52.802 49.0499C52.7993 49.0499 52.7966 49.0499 52.7939 49.0499C52.7913 49.0499 52.7886 49.0499 52.7859 49.0499C52.7832 49.0499 52.7805 49.0499 52.7778 49.0499C52.7752 49.0499 52.7725 49.0499 52.7698 49.0499C52.7671 49.0499 52.7644 49.0499 52.7617 49.0499C52.759 49.0499 52.7563 49.0499 52.7536 49.0499C52.751 49.0499 52.7483 49.0499 52.7456 49.0499C52.7429 49.0499 52.7402 49.0499 52.7375 49.0499C52.7348 49.0499 52.7321 49.0499 52.7294 49.0499C52.7267 49.0499 52.724 49.0499 52.7213 49.0499C52.7186 49.0499 52.716 49.0499 52.7133 49.0499C52.7106 49.0499 52.7079 49.0499 52.7052 49.0499C52.7025 49.0499 52.6998 49.0499 52.6971 49.0499C52.6944 49.0499 52.6917 49.0499 52.689 49.0499C52.6863 49.0499 52.6836 49.0499 52.6809 49.0499C52.6782 49.0499 52.6755 49.0499 52.6728 49.0499C52.6701 49.0499 52.6674 49.0499 52.6647 49.0499C52.662 49.0499 52.6593 49.0499 52.6566 49.0499C52.6539 49.0499 52.6512 49.0499 52.6485 49.0499C52.6458 49.0499 52.6431 49.0499 52.6404 49.0499C52.6377 49.0499 52.6349 49.0499 52.6322 49.0499C52.6295 49.0499 52.6268 49.0499 52.6241 49.0499C52.6214 49.0499 52.6187 49.0499 52.616 49.0499C52.6133 49.0499 52.6106 49.0499 52.6079 49.0499C52.6052 49.0499 52.6025 49.0499 52.5997 49.0499C52.597 49.0499 52.5943 49.0499 52.5916 49.0499C52.5889 49.0499 52.5862 49.0499 52.5835 49.0499C52.5808 49.0499 52.5781 49.0499 52.5753 49.0499C52.5726 49.0499 52.5699 49.0499 52.5672 49.0499C52.5645 49.0499 52.5618 49.0499 52.5591 49.0499C52.5563 49.0499 52.5536 49.0499 52.5509 49.0499C52.5482 49.0499 52.5455 49.0499 52.5428 49.0499C52.54 49.0499 52.5373 49.0499 52.5346 49.0499C52.5319 49.0499 52.5292 49.0499 52.5265 49.0499C52.5237 49.0499 52.521 49.0499 52.5183 49.0499C52.5156 49.0499 52.5129 49.0499 52.5101 49.0499C52.5074 49.0499 52.5047 49.0499 52.502 49.0499C52.4992 49.0499 52.4965 49.0499 52.4938 49.0499C52.4911 49.0499 52.4883 49.0499 52.4856 49.0499C52.4829 49.0499 52.4802 49.0499 52.4775 49.0499C52.4747 49.0499 52.472 49.0499 52.4693 49.0499C52.4665 49.0499 52.4638 49.0499 52.4611 49.0499C52.4584 49.0499 52.4556 49.0499 52.4529 49.0499C52.4502 49.0499 52.4475 49.0499 52.4447 49.0499C52.442 49.0499 52.4393 49.0499 52.4365 49.0499C52.4338 49.0499 52.4311 49.0499 52.4283 49.0499C52.4256 49.0499 52.4229 49.0499 52.4201 49.0499C52.4174 49.0499 52.4147 49.0499 52.4119 49.0499C52.4092 49.0499 52.4065 49.0499 52.4037 49.0499V51.0499C52.4065 51.0499 52.4092 51.0499 52.4119 51.0499C52.4147 51.0499 52.4174 51.0499 52.4201 51.0499C52.4229 51.0499 52.4256 51.0499 52.4283 51.0499C52.4311 51.0499 52.4338 51.0499 52.4365 51.0499C52.4393 51.0499 52.442 51.0499 52.4447 51.0499C52.4475 51.0499 52.4502 51.0499 52.4529 51.0499C52.4556 51.0499 52.4584 51.0499 52.4611 51.0499C52.4638 51.0499 52.4665 51.0499 52.4693 51.0499C52.472 51.0499 52.4747 51.0499 52.4775 51.0499C52.4802 51.0499 52.4829 51.0499 52.4856 51.0499C52.4883 51.0499 52.4911 51.0499 52.4938 51.0499C52.4965 51.0499 52.4992 51.0499 52.502 51.0499C52.5047 51.0499 52.5074 51.0499 52.5101 51.0499C52.5129 51.0499 52.5156 51.0499 52.5183 51.0499C52.521 51.0499 52.5237 51.0499 52.5265 51.0499C52.5292 51.0499 52.5319 51.0499 52.5346 51.0499C52.5373 51.0499 52.54 51.0499 52.5428 51.0499C52.5455 51.0499 52.5482 51.0499 52.5509 51.0499C52.5536 51.0499 52.5563 51.0499 52.5591 51.0499C52.5618 51.0499 52.5645 51.0499 52.5672 51.0499C52.5699 51.0499 52.5726 51.0499 52.5753 51.0499C52.5781 51.0499 52.5808 51.0499 52.5835 51.0499C52.5862 51.0499 52.5889 51.0499 52.5916 51.0499C52.5943 51.0499 52.597 51.0499 52.5997 51.0499C52.6025 51.0499 52.6052 51.0499 52.6079 51.0499C52.6106 51.0499 52.6133 51.0499 52.616 51.0499C52.6187 51.0499 52.6214 51.0499 52.6241 51.0499C52.6268 51.0499 52.6295 51.0499 52.6322 51.0499C52.6349 51.0499 52.6377 51.0499 52.6404 51.0499C52.6431 51.0499 52.6458 51.0499 52.6485 51.0499C52.6512 51.0499 52.6539 51.0499 52.6566 51.0499C52.6593 51.0499 52.662 51.0499 52.6647 51.0499C52.6674 51.0499 52.6701 51.0499 52.6728 51.0499C52.6755 51.0499 52.6782 51.0499 52.6809 51.0499C52.6836 51.0499 52.6863 51.0499 52.689 51.0499C52.6917 51.0499 52.6944 51.0499 52.6971 51.0499C52.6998 51.0499 52.7025 51.0499 52.7052 51.0499C52.7079 51.0499 52.7106 51.0499 52.7133 51.0499C52.716 51.0499 52.7186 51.0499 52.7213 51.0499C52.724 51.0499 52.7267 51.0499 52.7294 51.0499C52.7321 51.0499 52.7348 51.0499 52.7375 51.0499C52.7402 51.0499 52.7429 51.0499 52.7456 51.0499C52.7483 51.0499 52.751 51.0499 52.7536 51.0499C52.7563 51.0499 52.759 51.0499 52.7617 51.0499C52.7644 51.0499 52.7671 51.0499 52.7698 51.0499C52.7725 51.0499 52.7752 51.0499 52.7778 51.0499C52.7805 51.0499 52.7832 51.0499 52.7859 51.0499C52.7886 51.0499 52.7913 51.0499 52.7939 51.0499C52.7966 51.0499 52.7993 51.0499 52.802 51.0499C52.8047 51.0499 52.8074 51.0499 52.8101 51.0499C52.8127 51.0499 52.8154 51.0499 52.8181 51.0499C52.8208 51.0499 52.8235 51.0499 52.8261 51.0499C52.8288 51.0499 52.8315 51.0499 52.8342 51.0499C52.8369 51.0499 52.8395 51.0499 52.8422 51.0499C52.8449 51.0499 52.8476 51.0499 52.8502 51.0499C52.8529 51.0499 52.8556 51.0499 52.8583 51.0499C52.8609 51.0499 52.8636 51.0499 52.8663 51.0499C52.869 51.0499 52.8716 51.0499 52.8743 51.0499C52.877 51.0499 52.8797 51.0499 52.8823 51.0499C52.885 51.0499 52.8877 51.0499 52.8904 51.0499C52.893 51.0499 52.8957 51.0499 52.8984 51.0499C52.901 51.0499 52.9037 51.0499 52.9064 51.0499C52.909 51.0499 52.9117 51.0499 52.9144 51.0499C52.917 51.0499 52.9197 51.0499 52.9224 51.0499C52.925 51.0499 52.9277 51.0499 52.9304 51.0499C52.933 51.0499 52.9357 51.0499 52.9384 51.0499C52.941 51.0499 52.9437 51.0499 52.9464 51.0499C52.949 51.0499 52.9517 51.0499 52.9543 51.0499C52.957 51.0499 52.9597 51.0499 52.9623 51.0499C52.965 51.0499 52.9677 51.0499 52.9703 51.0499C52.973 51.0499 52.9756 51.0499 52.9783 51.0499C52.981 51.0499 52.9836 51.0499 52.9863 51.0499C52.9889 51.0499 52.9916 51.0499 52.9942 51.0499C52.9969 51.0499 52.9995 51.0499 53.0022 51.0499C53.0049 51.0499 53.0075 51.0499 53.0102 51.0499C53.0128 51.0499 53.0155 51.0499 53.0181 51.0499C53.0208 51.0499 53.0234 51.0499 53.0261 51.0499C53.0287 51.0499 53.0314 51.0499 53.034 51.0499C53.0367 51.0499 53.0393 51.0499 53.042 51.0499C53.0446 51.0499 53.0473 51.0499 53.0499 51.0499C53.0526 51.0499 53.0552 51.0499 53.0579 51.0499C53.0605 51.0499 53.0632 51.0499 53.0658 51.0499C53.0685 51.0499 53.0711 51.0499 53.0738 51.0499C53.0764 51.0499 53.079 51.0499 53.0817 51.0499C53.0843 51.0499 53.087 51.0499 53.0896 51.0499C53.0923 51.0499 53.0949 51.0499 53.0975 51.0499C53.1002 51.0499 53.1028 51.0499 53.1055 51.0499C53.1081 51.0499 53.1107 51.0499 53.1134 51.0499C53.116 51.0499 53.1187 51.0499 53.1213 51.0499C53.1239 51.0499 53.1266 51.0499 53.1292 51.0499C53.1319 51.0499 53.1345 51.0499 53.1371 51.0499C53.1398 51.0499 53.1424 51.0499 53.145 51.0499C53.1477 51.0499 53.1503 51.0499 53.1529 51.0499C53.1556 51.0499 53.1582 51.0499 53.1608 51.0499C53.1635 51.0499 53.1661 51.0499 53.1687 51.0499C53.1713 51.0499 53.174 51.0499 53.1766 51.0499C53.1792 51.0499 53.1819 51.0499 53.1845 51.0499C53.1871 51.0499 53.1898 51.0499 53.1924 51.0499C53.195 51.0499 53.1976 51.0499 53.2003 51.0499C53.2029 51.0499 53.2055 51.0499 53.2081 51.0499C53.2108 51.0499 53.2134 51.0499 53.216 51.0499C53.2186 51.0499 53.2213 51.0499 53.2239 51.0499C53.2265 51.0499 53.2291 51.0499 53.2317 51.0499C53.2344 51.0499 53.237 51.0499 53.2396 51.0499C53.2422 51.0499 53.2448 51.0499 53.2475 51.0499C53.2501 51.0499 53.2527 51.0499 53.2553 51.0499C53.2579 51.0499 53.2606 51.0499 53.2632 51.0499C53.2658 51.0499 53.2684 51.0499 53.271 51.0499C53.2736 51.0499 53.2762 51.0499 53.2789 51.0499C53.2815 51.0499 53.2841 51.0499 53.2867 51.0499C53.2893 51.0499 53.2919 51.0499 53.2945 51.0499C53.2971 51.0499 53.2998 51.0499 53.3024 51.0499C53.305 51.0499 53.3076 51.0499 53.3102 51.0499C53.3128 51.0499 53.3154 51.0499 53.318 51.0499C53.3206 51.0499 53.3232 51.0499 53.3258 51.0499C53.3284 51.0499 53.3311 51.0499 53.3337 51.0499C53.3363 51.0499 53.3389 51.0499 53.3415 51.0499C53.3441 51.0499 53.3467 51.0499 53.3493 51.0499C53.3519 51.0499 53.3545 51.0499 53.3571 51.0499C53.3597 51.0499 53.3623 51.0499 53.3649 51.0499C53.3675 51.0499 53.3701 51.0499 53.3727 51.0499C53.3753 51.0499 53.3779 51.0499 53.3805 51.0499C53.3831 51.0499 53.3857 51.0499 53.3883 51.0499C53.3909 51.0499 53.3935 51.0499 53.3961 51.0499C53.3987 51.0499 53.4013 51.0499 53.4039 51.0499C53.4064 51.0499 53.409 51.0499 53.4116 51.0499C53.4142 51.0499 53.4168 51.0499 53.4194 51.0499C53.422 51.0499 53.4246 51.0499 53.4272 51.0499C53.4298 51.0499 53.4324 51.0499 53.435 51.0499C53.4375 51.0499 53.4401 51.0499 53.4427 51.0499C53.4453 51.0499 53.4479 51.0499 53.4505 51.0499C53.4531 51.0499 53.4557 51.0499 53.4582 51.0499C53.4608 51.0499 53.4634 51.0499 53.466 51.0499C53.4686 51.0499 53.4712 51.0499 53.4737 51.0499C53.4763 51.0499 53.4789 51.0499 53.4815 51.0499C53.4841 51.0499 53.4866 51.0499 53.4892 51.0499C53.4918 51.0499 53.4944 51.0499 53.497 51.0499C53.4995 51.0499 53.5021 51.0499 53.5047 51.0499C53.5073 51.0499 53.5099 51.0499 53.5124 51.0499C53.515 51.0499 53.5176 51.0499 53.5202 51.0499C53.5227 51.0499 53.5253 51.0499 53.5279 51.0499C53.5305 51.0499 53.533 51.0499 53.5356 51.0499C53.5382 51.0499 53.5407 51.0499 53.5433 51.0499C53.5459 51.0499 53.5485 51.0499 53.551 51.0499C53.5536 51.0499 53.5562 51.0499 53.5587 51.0499C53.5613 51.0499 53.5639 51.0499 53.5664 51.0499C53.569 51.0499 53.5716 51.0499 53.5741 51.0499C53.5767 51.0499 53.5793 51.0499 53.5818 51.0499C53.5844 51.0499 53.587 51.0499 53.5895 51.0499C53.5921 51.0499 53.5947 51.0499 53.5972 51.0499C53.5998 51.0499 53.6023 51.0499 53.6049 51.0499C53.6075 51.0499 53.61 51.0499 53.6126 51.0499C53.6151 51.0499 53.6177 51.0499 53.6203 51.0499C53.6228 51.0499 53.6254 51.0499 53.6279 51.0499C53.6305 51.0499 53.633 51.0499 53.6356 51.0499C53.6382 51.0499 53.6407 51.0499 53.6433 51.0499C53.6458 51.0499 53.6484 51.0499 53.6509 51.0499C53.6535 51.0499 53.656 51.0499 53.6586 51.0499C53.6611 51.0499 53.6637 51.0499 53.6662 51.0499C53.6688 51.0499 53.6713 51.0499 53.6739 51.0499C53.6764 51.0499 53.679 51.0499 53.6815 51.0499C53.6841 51.0499 53.6866 51.0499 53.6892 51.0499C53.6917 51.0499 53.6943 51.0499 53.6968 51.0499C53.6994 51.0499 53.7019 51.0499 53.7044 51.0499C53.707 51.0499 53.7095 51.0499 53.7121 51.0499C53.7146 51.0499 53.7172 51.0499 53.7197 51.0499C53.7222 51.0499 53.7248 51.0499 53.7273 51.0499C53.7299 51.0499 53.7324 51.0499 53.7349 51.0499C53.7375 51.0499 53.74 51.0499 53.7425 51.0499C53.7451 51.0499 53.7476 51.0499 53.7502 51.0499C53.7527 51.0499 53.7552 51.0499 53.7578 51.0499C53.7603 51.0499 53.7628 51.0499 53.7654 51.0499C53.7679 51.0499 53.7704 51.0499 53.773 51.0499C53.7755 51.0499 53.778 51.0499 53.7806 51.0499C53.7831 51.0499 53.7856 51.0499 53.7881 51.0499C53.7907 51.0499 53.7932 51.0499 53.7957 51.0499C53.7983 51.0499 53.8008 51.0499 53.8033 51.0499C53.8058 51.0499 53.8084 51.0499 53.8109 51.0499C53.8134 51.0499 53.8159 51.0499 53.8185 51.0499C53.821 51.0499 53.8235 51.0499 53.826 51.0499C53.8285 51.0499 53.8311 51.0499 53.8336 51.0499C53.8361 51.0499 53.8386 51.0499 53.8411 51.0499C53.8437 51.0499 53.8462 51.0499 53.8487 51.0499C53.8512 51.0499 53.8537 51.0499 53.8563 51.0499C53.8588 51.0499 53.8613 51.0499 53.8638 51.0499C53.8663 51.0499 53.8688 51.0499 53.8713 51.0499C53.8739 51.0499 53.8764 51.0499 53.8789 51.0499C53.8814 51.0499 53.8839 51.0499 53.8864 51.0499C53.8889 51.0499 53.8914 51.0499 53.894 51.0499C53.8965 51.0499 53.899 51.0499 53.9015 51.0499C53.904 51.0499 53.9065 51.0499 53.909 51.0499C53.9115 51.0499 53.914 51.0499 53.9165 51.0499C53.919 51.0499 53.9215 51.0499 53.924 51.0499C53.9265 51.0499 53.929 51.0499 53.9315 51.0499C53.934 51.0499 53.9365 51.0499 53.939 51.0499C53.9416 51.0499 53.944 51.0499 53.9465 51.0499C53.9491 51.0499 53.9515 51.0499 53.954 51.0499C53.9565 51.0499 53.959 51.0499 53.9615 51.0499C53.964 51.0499 53.9665 51.0499 53.969 51.0499C53.9715 51.0499 53.974 51.0499 53.9765 51.0499C53.979 51.0499 53.9815 51.0499 53.984 51.0499C53.9865 51.0499 53.989 51.0499 53.9915 51.0499C53.994 51.0499 53.9965 51.0499 53.9989 51.0499C54.0014 51.0499 54.0039 51.0499 54.0064 51.0499C54.0089 51.0499 54.0114 51.0499 54.0139 51.0499C54.0164 51.0499 54.0189 51.0499 54.0213 51.0499C54.0238 51.0499 54.0263 51.0499 54.0288 51.0499C54.0313 51.0499 54.0338 51.0499 54.0362 51.0499C54.0387 51.0499 54.0412 51.0499 54.0437 51.0499C54.0462 51.0499 54.0487 51.0499 54.0511 51.0499C54.0536 51.0499 54.0561 51.0499 54.0586 51.0499C54.0611 51.0499 54.0635 51.0499 54.066 51.0499C54.0685 51.0499 54.071 51.0499 54.0734 51.0499C54.0759 51.0499 54.0784 51.0499 54.0809 51.0499C54.0833 51.0499 54.0858 51.0499 54.0883 51.0499C54.0908 51.0499 54.0932 51.0499 54.0957 51.0499C54.0982 51.0499 54.1006 51.0499 54.1031 51.0499C54.1056 51.0499 54.108 51.0499 54.1105 51.0499C54.113 51.0499 54.1155 51.0499 54.1179 51.0499C54.1204 51.0499 54.1229 51.0499 54.1253 51.0499C54.1278 51.0499 54.1302 51.0499 54.1327 51.0499C54.1352 51.0499 54.1376 51.0499 54.1401 51.0499C54.1426 51.0499 54.145 51.0499 54.1475 51.0499C54.15 51.0499 54.1524 51.0499 54.1549 51.0499C54.1573 51.0499 54.1598 51.0499 54.1623 51.0499C54.1647 51.0499 54.1672 51.0499 54.1696 51.0499C54.1721 51.0499 54.1745 51.0499 54.177 51.0499C54.1794 51.0499 54.1819 51.0499 54.1844 51.0499C54.1868 51.0499 54.1893 51.0499 54.1917 51.0499C54.1942 51.0499 54.1966 51.0499 54.1991 51.0499C54.2015 51.0499 54.204 51.0499 54.2064 51.0499C54.2089 51.0499 54.2113 51.0499 54.2138 51.0499C54.2162 51.0499 54.2187 51.0499 54.2211 51.0499C54.2236 51.0499 54.226 51.0499 54.2284 51.0499C54.2309 51.0499 54.2333 51.0499 54.2358 51.0499C54.2382 51.0499 54.2407 51.0499 54.2431 51.0499C54.2456 51.0499 54.248 51.0499 54.2504 51.0499C54.2529 51.0499 54.2553 51.0499 54.2578 51.0499C54.2602 51.0499 54.2626 51.0499 54.2651 51.0499C54.2675 51.0499 54.2699 51.0499 54.2724 51.0499C54.2748 51.0499 54.2773 51.0499 54.2797 51.0499C54.2821 51.0499 54.2846 51.0499 54.287 51.0499C54.2894 51.0499 54.2919 51.0499 54.2943 51.0499C54.2967 51.0499 54.2992 51.0499 54.3016 51.0499C54.304 51.0499 54.3064 51.0499 54.3089 51.0499C54.3113 51.0499 54.3137 51.0499 54.3162 51.0499C54.3186 51.0499 54.321 51.0499 54.3234 51.0499C54.3259 51.0499 54.3283 51.0499 54.3307 51.0499C54.3331 51.0499 54.3356 51.0499 54.338 51.0499C54.3404 51.0499 54.3428 51.0499 54.3452 51.0499C54.3477 51.0499 54.3501 51.0499 54.3525 51.0499C54.3549 51.0499 54.3573 51.0499 54.3598 51.0499C54.3622 51.0499 54.3646 51.0499 54.367 51.0499C54.3694 51.0499 54.3718 51.0499 54.3743 51.0499C54.3767 51.0499 54.3791 51.0499 54.3815 51.0499C54.3839 51.0499 54.3863 51.0499 54.3887 51.0499C54.3912 51.0499 54.3936 51.0499 54.396 51.0499C54.3984 51.0499 54.4008 51.0499 54.4032 51.0499C54.4056 51.0499 54.408 51.0499 54.4104 51.0499C54.4128 51.0499 54.4152 51.0499 54.4177 51.0499C54.4201 51.0499 54.4225 51.0499 54.4249 51.0499C54.4273 51.0499 54.4297 51.0499 54.4321 51.0499C54.4345 51.0499 54.4369 51.0499 54.4393 51.0499C54.4417 51.0499 54.4441 51.0499 54.4465 51.0499C54.4489 51.0499 54.4513 51.0499 54.4537 51.0499C54.4561 51.0499 54.4585 51.0499 54.4609 51.0499C54.4633 51.0499 54.4657 51.0499 54.4681 51.0499C54.4705 51.0499 54.4729 51.0499 54.4753 51.0499C54.4776 51.0499 54.48 51.0499 54.4824 51.0499C54.4848 51.0499 54.4872 51.0499 54.4896 51.0499C54.492 51.0499 54.4944 51.0499 54.4968 51.0499C54.4992 51.0499 54.5015 51.0499 54.5039 51.0499C54.5063 51.0499 54.5087 51.0499 54.5111 51.0499C54.5135 51.0499 54.5159 51.0499 54.5182 51.0499C54.5206 51.0499 54.523 51.0499 54.5254 51.0499C54.5278 51.0499 54.5302 51.0499 54.5325 51.0499C54.5349 51.0499 54.5373 51.0499 54.5397 51.0499C54.5421 51.0499 54.5444 51.0499 54.5468 51.0499C54.5492 51.0499 54.5516 51.0499 54.554 51.0499C54.5563 51.0499 54.5587 51.0499 54.5611 51.0499C54.5635 51.0499 54.5658 51.0499 54.5682 51.0499C54.5706 51.0499 54.573 51.0499 54.5753 51.0499C54.5777 51.0499 54.5801 51.0499 54.5824 51.0499C54.5848 51.0499 54.5872 51.0499 54.5895 51.0499C54.5919 51.0499 54.5943 51.0499 54.5966 51.0499C54.599 51.0499 54.6014 51.0499 54.6037 51.0499C54.6061 51.0499 54.6085 51.0499 54.6108 51.0499C54.6132 51.0499 54.6156 51.0499 54.6179 51.0499C54.6203 51.0499 54.6227 51.0499 54.625 51.0499C54.6274 51.0499 54.6297 51.0499 54.6321 51.0499C54.6345 51.0499 54.6368 51.0499 54.6392 51.0499C54.6415 51.0499 54.6439 51.0499 54.6462 51.0499C54.6486 51.0499 54.6509 51.0499 54.6533 51.0499C54.6557 51.0499 54.658 51.0499 54.6604 51.0499C54.6627 51.0499 54.6651 51.0499 54.6674 51.0499C54.6698 51.0499 54.6721 51.0499 54.6745 51.0499C54.6768 51.0499 54.6792 51.0499 54.6815 51.0499C54.6839 51.0499 54.6862 51.0499 54.6886 51.0499C54.6909 51.0499 54.6932 51.0499 54.6956 51.0499C54.6979 51.0499 54.7003 51.0499 54.7026 51.0499C54.705 51.0499 54.7073 51.0499 54.7096 51.0499C54.712 51.0499 54.7143 51.0499 54.7167 51.0499C54.719 51.0499 54.7214 51.0499 54.7237 51.0499C54.726 51.0499 54.7284 51.0499 54.7307 51.0499C54.733 51.0499 54.7354 51.0499 54.7377 51.0499C54.74 51.0499 54.7424 51.0499 54.7447 51.0499C54.747 51.0499 54.7494 51.0499 54.7517 51.0499C54.754 51.0499 54.7564 51.0499 54.7587 51.0499C54.761 51.0499 54.7634 51.0499 54.7657 51.0499C54.768 51.0499 54.7703 51.0499 54.7727 51.0499C54.775 51.0499 54.7773 51.0499 54.7796 51.0499C54.782 51.0499 54.7843 51.0499 54.7866 51.0499C54.7889 51.0499 54.7913 51.0499 54.7936 51.0499C54.7959 51.0499 54.7982 51.0499 54.8005 51.0499C54.8029 51.0499 54.8052 51.0499 54.8075 51.0499C54.8098 51.0499 54.8121 51.0499 54.8145 51.0499C54.8168 51.0499 54.8191 51.0499 54.8214 51.0499C54.8237 51.0499 54.826 51.0499 54.8284 51.0499C54.8307 51.0499 54.833 51.0499 54.8353 51.0499C54.8376 51.0499 54.8399 51.0499 54.8422 51.0499C54.8445 51.0499 54.8468 51.0499 54.8492 51.0499C54.8515 51.0499 54.8538 51.0499 54.8561 51.0499C54.8584 51.0499 54.8607 51.0499 54.863 51.0499C54.8653 51.0499 54.8676 51.0499 54.8699 51.0499C54.8722 51.0499 54.8745 51.0499 54.8768 51.0499C54.8791 51.0499 54.8814 51.0499 54.8837 51.0499C54.886 51.0499 54.8883 51.0499 54.8906 51.0499C54.8929 51.0499 54.8952 51.0499 54.8975 51.0499C54.8998 51.0499 54.9021 51.0499 54.9044 51.0499C54.9067 51.0499 54.909 51.0499 54.9113 51.0499C54.9136 51.0499 54.9159 51.0499 54.9182 51.0499C54.9204 51.0499 54.9227 51.0499 54.925 51.0499C54.9273 51.0499 54.9296 51.0499 54.9319 51.0499C54.9342 51.0499 54.9365 51.0499 54.9388 51.0499C54.941 51.0499 54.9433 51.0499 54.9456 51.0499C54.9479 51.0499 54.9502 51.0499 54.9525 51.0499C54.9548 51.0499 54.957 51.0499 54.9593 51.0499C54.9616 51.0499 54.9639 51.0499 54.9662 51.0499C54.9684 51.0499 54.9707 51.0499 54.973 51.0499C54.9753 51.0499 54.9776 51.0499 54.9798 51.0499C54.9821 51.0499 54.9844 51.0499 54.9867 51.0499C54.9889 51.0499 54.9912 51.0499 54.9935 51.0499C54.9958 51.0499 54.998 51.0499 55.0003 51.0499C55.0026 51.0499 55.0048 51.0499 55.0071 51.0499C55.0094 51.0499 55.0116 51.0499 55.0139 51.0499C55.0162 51.0499 55.0184 51.0499 55.0207 51.0499C55.023 51.0499 55.0252 51.0499 55.0275 51.0499C55.0298 51.0499 55.032 51.0499 55.0343 51.0499C55.0366 51.0499 55.0388 51.0499 55.0411 51.0499C55.0434 51.0499 55.0456 51.0499 55.0479 51.0499C55.0501 51.0499 55.0524 51.0499 55.0546 51.0499C55.0569 51.0499 55.0592 51.0499 55.0614 51.0499C55.0637 51.0499 55.0659 51.0499 55.0682 51.0499C55.0704 51.0499 55.0727 51.0499 55.0749 51.0499C55.0772 51.0499 55.0794 51.0499 55.0817 51.0499C55.0839 51.0499 55.0862 51.0499 55.0884 51.0499C55.0907 51.0499 55.0929 51.0499 55.0952 51.0499C55.0974 51.0499 55.0997 51.0499 55.1019 51.0499C55.1042 51.0499 55.1064 51.0499 55.1087 51.0499C55.1109 51.0499 55.1132 51.0499 55.1154 51.0499C55.1176 51.0499 55.1199 51.0499 55.1221 51.0499C55.1244 51.0499 55.1266 51.0499 55.1288 51.0499C55.1311 51.0499 55.1333 51.0499 55.1356 51.0499C55.1378 51.0499 55.14 51.0499 55.1423 51.0499C55.1445 51.0499 55.1467 51.0499 55.149 51.0499C55.1512 51.0499 55.1534 51.0499 55.1557 51.0499C55.1579 51.0499 55.1601 51.0499 55.1623 51.0499C55.1646 51.0499 55.1668 51.0499 55.169 51.0499C55.1713 51.0499 55.1735 51.0499 55.1757 51.0499C55.1779 51.0499 55.1802 51.0499 55.1824 51.0499C55.1846 51.0499 55.1868 51.0499 55.1891 51.0499C55.1913 51.0499 55.1935 51.0499 55.1957 51.0499C55.198 51.0499 55.2002 51.0499 55.2024 51.0499C55.2046 51.0499 55.2068 51.0499 55.209 51.0499C55.2113 51.0499 55.2135 51.0499 55.2157 51.0499C55.2179 51.0499 55.2201 51.0499 55.2223 51.0499C55.2246 51.0499 55.2268 51.0499 55.229 51.0499C55.2312 51.0499 55.2334 51.0499 55.2356 51.0499C55.2378 51.0499 55.24 51.0499 55.2422 51.0499C55.2445 51.0499 55.2467 51.0499 55.2489 51.0499C55.2511 51.0499 55.2533 51.0499 55.2555 51.0499C55.2577 51.0499 55.2599 51.0499 55.2621 51.0499C55.2643 51.0499 55.2665 51.0499 55.2687 51.0499C55.2709 51.0499 55.2731 51.0499 55.2753 51.0499C55.2775 51.0499 55.2797 51.0499 55.2819 51.0499C55.2841 51.0499 55.2863 51.0499 55.2885 51.0499C55.2907 51.0499 55.2929 51.0499 55.2951 51.0499C55.2973 51.0499 55.2995 51.0499 55.3017 51.0499C55.3039 51.0499 55.306 51.0499 55.3082 51.0499C55.3104 51.0499 55.3126 51.0499 55.3148 51.0499C55.317 51.0499 55.3192 51.0499 55.3214 51.0499C55.3236 51.0499 55.3257 51.0499 55.3279 51.0499C55.3301 51.0499 55.3323 51.0499 55.3345 51.0499C55.3367 51.0499 55.3388 51.0499 55.341 51.0499C55.3432 51.0499 55.3454 51.0499 55.3476 51.0499C55.3498 51.0499 55.3519 51.0499 55.3541 51.0499C55.3563 51.0499 55.3585 51.0499 55.3606 51.0499C55.3628 51.0499 55.365 51.0499 55.3672 51.0499C55.3693 51.0499 55.3715 51.0499 55.3737 51.0499C55.3759 51.0499 55.378 51.0499 55.3802 51.0499C55.3824 51.0499 55.3845 51.0499 55.3867 51.0499C55.3889 51.0499 55.391 51.0499 55.3932 51.0499C55.3954 51.0499 55.3975 51.0499 55.3997 51.0499C55.4019 51.0499 55.404 51.0499 55.4062 51.0499C55.4084 51.0499 55.4105 51.0499 55.4127 51.0499C55.4149 51.0499 55.417 51.0499 55.4192 51.0499C55.4213 51.0499 55.4235 51.0499 55.4257 51.0499C55.4278 51.0499 55.43 51.0499 55.4321 51.0499C55.4343 51.0499 55.4364 51.0499 55.4386 51.0499C55.4407 51.0499 55.4429 51.0499 55.445 51.0499C55.4472 51.0499 55.4494 51.0499 55.4515 51.0499C55.4537 51.0499 55.4558 51.0499 55.458 51.0499C55.4601 51.0499 55.4622 51.0499 55.4644 51.0499C55.4665 51.0499 55.4687 51.0499 55.4708 51.0499C55.473 51.0499 55.4751 51.0499 55.4773 51.0499C55.4794 51.0499 55.4816 51.0499 55.4837 51.0499C55.4858 51.0499 55.488 51.0499 55.4901 51.0499C55.4923 51.0499 55.4944 51.0499 55.4965 51.0499C55.4987 51.0499 55.5008 51.0499 55.5029 51.0499C55.5051 51.0499 55.5072 51.0499 55.5093 51.0499C55.5115 51.0499 55.5136 51.0499 55.5157 51.0499C55.5179 51.0499 55.52 51.0499 55.5221 51.0499C55.5243 51.0499 55.5264 51.0499 55.5285 51.0499C55.5307 51.0499 55.5328 51.0499 55.5349 51.0499C55.537 51.0499 55.5392 51.0499 55.5413 51.0499C55.5434 51.0499 55.5455 51.0499 55.5476 51.0499C55.5498 51.0499 55.5519 51.0499 55.554 51.0499C55.5561 51.0499 55.5583 51.0499 55.5604 51.0499C55.5625 51.0499 55.5646 51.0499 55.5667 51.0499C55.5688 51.0499 55.571 51.0499 55.5731 51.0499C55.5752 51.0499 55.5773 51.0499 55.5794 51.0499C55.5815 51.0499 55.5836 51.0499 55.5858 51.0499C55.5879 51.0499 55.59 51.0499 55.5921 51.0499C55.5942 51.0499 55.5963 51.0499 55.5984 51.0499C55.6005 51.0499 55.6026 51.0499 55.6047 51.0499C55.6068 51.0499 55.6089 51.0499 55.611 51.0499C55.6131 51.0499 55.6152 51.0499 55.6174 51.0499C55.6195 51.0499 55.6216 51.0499 55.6237 51.0499C55.6258 51.0499 55.6279 51.0499 55.63 51.0499C55.632 51.0499 55.6341 51.0499 55.6362 51.0499C55.6383 51.0499 55.6404 51.0499 55.6425 51.0499C55.6446 51.0499 55.6467 51.0499 55.6488 51.0499C55.6509 51.0499 55.653 51.0499 55.6551 51.0499C55.6572 51.0499 55.6593 51.0499 55.6614 51.0499C55.6634 51.0499 55.6655 51.0499 55.6676 51.0499C55.6697 51.0499 55.6718 51.0499 55.6739 51.0499C55.676 51.0499 55.678 51.0499 55.6801 51.0499C55.6822 51.0499 55.6843 51.0499 55.6864 51.0499C55.6884 51.0499 55.6905 51.0499 55.6926 51.0499C55.6947 51.0499 55.6968 51.0499 55.6988 51.0499C55.7009 51.0499 55.703 51.0499 55.7051 51.0499C55.7071 51.0499 55.7092 51.0499 55.7113 51.0499C55.7134 51.0499 55.7154 51.0499 55.7175 51.0499C55.7196 51.0499 55.7216 51.0499 55.7237 51.0499C55.7258 51.0499 55.7278 51.0499 55.7299 51.0499C55.732 51.0499 55.734 51.0499 55.7361 51.0499C55.7382 51.0499 55.7402 51.0499 55.7423 51.0499C55.7444 51.0499 55.7464 51.0499 55.7485 51.0499C55.7506 51.0499 55.7526 51.0499 55.7547 51.0499C55.7567 51.0499 55.7588 51.0499 55.7608 51.0499C55.7629 51.0499 55.765 51.0499 55.767 51.0499C55.7691 51.0499 55.7711 51.0499 55.7732 51.0499C55.7752 51.0499 55.7773 51.0499 55.7793 51.0499C55.7814 51.0499 55.7834 51.0499 55.7855 51.0499C55.7875 51.0499 55.7896 51.0499 55.7916 51.0499C55.7937 51.0499 55.7957 51.0499 55.7978 51.0499C55.7998 51.0499 55.8019 51.0499 55.8039 51.0499C55.806 51.0499 55.808 51.0499 55.81 51.0499C55.8121 51.0499 55.8141 51.0499 55.8162 51.0499C55.8182 51.0499 55.8202 51.0499 55.8223 51.0499C55.8243 51.0499 55.8264 51.0499 55.8284 51.0499C55.8304 51.0499 55.8325 51.0499 55.8345 51.0499C55.8365 51.0499 55.8386 51.0499 55.8406 51.0499C55.8426 51.0499 55.8447 51.0499 55.8467 51.0499C55.8487 51.0499 55.8507 51.0499 55.8528 51.0499C55.8548 51.0499 55.8568 51.0499 55.8589 51.0499C55.8609 51.0499 55.8629 51.0499 55.8649 51.0499C55.867 51.0499 55.869 51.0499 55.871 51.0499C55.873 51.0499 55.875 51.0499 55.8771 51.0499C55.8791 51.0499 55.8811 51.0499 55.8831 51.0499C55.8851 51.0499 55.8871 51.0499 55.8892 51.0499C55.8912 51.0499 55.8932 51.0499 55.8952 51.0499C55.8972 51.0499 55.8992 51.0499 55.9012 51.0499C55.9033 51.0499 55.9053 51.0499 55.9073 51.0499C55.9093 51.0499 55.9113 51.0499 55.9133 51.0499C55.9153 51.0499 55.9173 51.0499 55.9193 51.0499C55.9213 51.0499 55.9233 51.0499 55.9253 51.0499C55.9273 51.0499 55.9294 51.0499 55.9314 51.0499C55.9334 51.0499 55.9354 51.0499 55.9374 51.0499C55.9394 51.0499 55.9414 51.0499 55.9434 51.0499C55.9454 51.0499 55.9473 51.0499 55.9493 51.0499C55.9513 51.0499 55.9533 51.0499 55.9553 51.0499C55.9573 51.0499 55.9593 51.0499 55.9613 51.0499C55.9633 51.0499 55.9653 51.0499 55.9673 51.0499C55.9693 51.0499 55.9713 51.0499 55.9732 51.0499C55.9752 51.0499 55.9772 51.0499 55.9792 51.0499C55.9812 51.0499 55.9832 51.0499 55.9852 51.0499C55.9871 51.0499 55.9891 51.0499 55.9911 51.0499C55.9931 51.0499 55.9951 51.0499 55.9971 51.0499C55.999 51.0499 56.001 51.0499 56.003 51.0499C56.005 51.0499 56.0069 51.0499 56.0089 51.0499C56.0109 51.0499 56.0129 51.0499 56.0148 51.0499C56.0168 51.0499 56.0188 51.0499 56.0208 51.0499C56.0227 51.0499 56.0247 51.0499 56.0267 51.0499C56.0286 51.0499 56.0306 51.0499 56.0326 51.0499C56.0345 51.0499 56.0365 51.0499 56.0385 51.0499C56.0404 51.0499 56.0424 51.0499 56.0444 51.0499C56.0463 51.0499 56.0483 51.0499 56.0503 51.0499C56.0522 51.0499 56.0542 51.0499 56.0561 51.0499C56.0581 51.0499 56.0601 51.0499 56.062 51.0499C56.064 51.0499 56.0659 51.0499 56.0679 51.0499C56.0698 51.0499 56.0718 51.0499 56.0737 51.0499V49.0499ZM54.9077 51.0419C54.957 51.0577 55.1074 51.1434 55.2238 51.4497C55.3358 51.7445 55.3777 52.1655 55.2614 52.6388C55.041 53.5358 54.2172 54.703 52.0631 55.2844L52.5844 57.2153C55.3203 56.4768 56.7815 54.834 57.2036 53.116C57.4086 52.2817 57.3611 51.4441 57.0934 50.7394C56.8301 50.0464 56.3105 49.392 55.5198 49.1379L54.9077 51.0419ZM52.0602 55.2852C42.3381 57.9412 35.6292 57.0112 30.5784 55.5041C28.0094 54.7375 25.9088 53.8377 23.9187 53.1112C21.9856 52.4054 20.1318 51.8537 18.3119 52.0032L18.4756 53.9965C19.8207 53.886 21.3106 54.2881 23.2328 54.9899C25.098 55.6708 27.3644 56.6322 30.0066 57.4206C35.3783 59.0235 42.4694 59.9786 52.5873 57.2145L52.0602 55.2852ZM19.9032 36.7138C19.9409 35.6048 19.837 34.362 19.569 33.2379C19.3088 32.147 18.8588 31.0167 18.0944 30.2867L16.7131 31.7331C17.0587 32.0631 17.3937 32.7378 17.6235 33.7018C17.8455 34.6328 17.9366 35.695 17.9043 36.6459L19.9032 36.7138ZM18.0971 30.2893C17.7266 29.9327 17.2069 29.7133 16.7245 29.5643C16.2139 29.4067 15.6132 29.2895 14.9717 29.2049C13.6863 29.0353 12.1433 28.9846 10.6317 29.0444C9.12247 29.1041 7.60117 29.2758 6.36488 29.5685C5.74874 29.7144 5.16987 29.8981 4.68824 30.1313C4.23371 30.3513 3.72852 30.68 3.44193 31.1901L5.18556 32.1697C5.17147 32.1948 5.23003 32.091 5.55964 31.9314C5.86215 31.785 6.28781 31.6421 6.82573 31.5147C7.89757 31.2609 9.28252 31.0994 10.7108 31.0429C12.1367 30.9864 13.5624 31.0363 14.7102 31.1877C15.2852 31.2636 15.7672 31.3619 16.1345 31.4753C16.3173 31.5318 16.4579 31.5877 16.5606 31.639C16.6112 31.6642 16.6482 31.686 16.674 31.7033C16.6867 31.7118 16.6958 31.7185 16.702 31.7234C16.7081 31.7283 16.7106 31.7307 16.7104 31.7305L18.0971 30.2893ZM3.44318 31.1878C3.09414 31.8054 2.83656 32.6276 2.63824 33.5308C2.43654 34.4494 2.28217 35.5188 2.16842 36.6712C1.94085 38.9768 1.87023 41.6737 1.92774 44.2782C1.98522 46.8814 2.17135 49.4209 2.46526 51.4108C2.61173 52.4026 2.78894 53.2856 3.00013 53.9816C3.10552 54.3289 3.22682 54.6547 3.3699 54.9339C3.50382 55.1951 3.70211 55.5067 4.00351 55.7271L5.18398 54.1127C5.25287 54.163 5.22828 54.1749 5.1497 54.0216C5.08029 53.8861 4.99949 53.6827 4.91396 53.4008C4.74331 52.8385 4.58341 52.0639 4.44379 51.1186C4.16551 49.2345 3.98352 46.7821 3.92725 44.2341C3.87101 41.6873 3.94102 39.0736 4.15875 36.8676C4.26766 35.7643 4.41212 34.7776 4.5917 33.9598C4.77467 33.1265 4.98084 32.5319 5.18431 32.1719L3.44318 31.1878ZM4.00208 55.7261C4.78776 56.3027 5.92941 56.6131 7.08355 56.7851C8.27328 56.9623 9.62481 57.0125 10.946 56.9732C12.2695 56.9338 13.5893 56.8038 14.7215 56.6101C15.8222 56.4218 16.8467 56.157 17.513 55.8029L16.5745 54.0368C16.2058 54.2328 15.4478 54.4568 14.3842 54.6387C13.3519 54.8153 12.1254 54.9372 10.8865 54.9741C9.64518 55.011 8.41796 54.9618 7.37831 54.8069C6.30308 54.6467 5.56473 54.3921 5.18541 54.1137L4.00208 55.7261ZM17.5164 55.8011C18.0704 55.504 18.4403 54.9415 18.6877 54.4603C18.9552 53.9403 19.1749 53.3222 19.3492 52.6994C19.6961 51.4604 19.9037 50.0536 19.9037 49.0699H17.9037C17.9037 49.8362 17.7314 51.0594 17.4233 52.1603C17.2701 52.7076 17.0936 53.187 16.9091 53.5457C16.7047 53.9433 16.5671 54.0408 16.5711 54.0386L17.5164 55.8011ZM13.466 1.11147C13.155 1.36227 13.0875 1.69811 13.0688 1.80788C13.0435 1.95589 13.0459 2.09438 13.0516 2.19221C13.0633 2.39407 13.1027 2.61994 13.1462 2.82959C13.2353 3.25804 13.3797 3.79272 13.5166 4.29361C13.6583 4.81186 13.7932 5.29825 13.8816 5.68105C13.9261 5.87415 13.9517 6.01109 13.962 6.09631C13.9674 6.14017 13.9652 6.14337 13.9659 6.11964C13.9664 6.10679 13.9681 6.07074 13.9782 6.02017C13.9874 5.97394 14.0108 5.87775 14.0741 5.76628L15.8134 6.75349C15.9509 6.51127 15.962 6.27132 15.9649 6.18552C15.9688 6.06609 15.959 5.95054 15.9476 5.85596C15.9244 5.6643 15.8798 5.44562 15.8303 5.23122C15.7305 4.79902 15.5817 4.26291 15.4458 3.76617C15.3053 3.25205 15.1785 2.77924 15.1044 2.42268C15.0664 2.23984 15.0512 2.12883 15.0482 2.07631C15.0465 2.04696 15.0514 2.07889 15.0403 2.14431C15.0356 2.17151 14.9937 2.44876 14.7215 2.6683L13.466 1.11147ZM14.0741 5.76628C14.127 5.67308 14.1769 5.62859 14.1446 5.66233C14.1293 5.67821 14.0991 5.70782 14.0484 5.75398C13.9478 5.84562 13.806 5.96704 13.6272 6.11688C13.2822 6.40599 12.8053 6.79571 12.3564 7.18093C11.9079 7.56572 11.4394 7.98613 11.0913 8.36312C10.9209 8.54775 10.7443 8.75909 10.6148 8.97705C10.5499 9.0862 10.4754 9.23243 10.4292 9.40461C10.3838 9.5739 10.3463 9.84312 10.4531 10.1392L12.3344 9.46062C12.4137 9.6804 12.3782 9.85814 12.3609 9.92273C12.3428 9.99022 12.3224 10.0185 12.3342 9.99858C12.3581 9.95834 12.4252 9.86671 12.5609 9.71977C12.825 9.43364 13.2184 9.07655 13.6586 8.69884C14.0984 8.32156 14.5371 7.96378 14.9118 7.64977C15.0929 7.49805 15.2619 7.35399 15.3953 7.23243C15.4617 7.17199 15.5292 7.10806 15.5891 7.0455C15.632 7.00079 15.7343 6.89294 15.8134 6.75349L14.0741 5.76628ZM10.4531 10.1392C10.6371 10.6496 11.0976 10.8524 11.2621 10.9192C11.4919 11.0125 11.7498 11.0699 11.9828 11.1095C12.4578 11.1902 13.0427 11.231 13.5868 11.2586C14.1839 11.2889 14.6523 11.3009 15.1191 11.3271C15.3357 11.3392 15.5054 11.3524 15.6274 11.3676C15.802 11.3893 15.7469 11.4007 15.6293 11.3406L16.5382 9.55912C16.2981 9.43662 16.0114 9.3999 15.8737 9.38281C15.6834 9.3592 15.4601 9.34305 15.2312 9.33021C14.8071 9.30641 14.1748 9.28587 13.6882 9.26117C13.1485 9.23378 12.6666 9.19704 12.3181 9.13778C12.1394 9.1074 12.0465 9.07913 12.0145 9.06616C11.9173 9.0267 12.2053 9.10271 12.3344 9.46062L10.4531 10.1392ZM15.6293 11.3406C15.5354 11.2928 15.4741 11.2398 15.4439 11.2113C15.4119 11.181 15.3936 11.1577 15.3881 11.1505C15.3786 11.1382 15.387 11.1472 15.4123 11.1938C15.4623 11.2861 15.5296 11.4339 15.6153 11.6439C15.7903 12.073 15.9744 12.5893 16.2003 13.1773C16.4129 13.7309 16.6576 14.3332 16.9174 14.8058C17.0455 15.0389 17.2043 15.2911 17.3978 15.4979C17.5662 15.6778 17.9243 15.9999 18.4537 15.9999V13.9999C18.7706 13.9999 18.9107 14.1876 18.8582 14.1314C18.8307 14.102 18.7657 14.0164 18.6701 13.8424C18.4824 13.501 18.2795 13.0127 18.0672 12.46C17.8681 11.9417 17.6497 11.3362 17.4672 10.8886C17.3741 10.6604 17.2739 10.4313 17.1705 10.2405C17.1191 10.1457 17.0542 10.0366 16.9754 9.93382C16.9104 9.84894 16.768 9.67635 16.5382 9.55912L15.6293 11.3406ZM18.4537 15.9999C19.038 15.9999 19.4105 15.5976 19.555 15.4255C19.744 15.2006 19.9048 14.9234 20.0394 14.6577C20.3134 14.1169 20.5771 13.4234 20.8068 12.7639C21.039 12.0974 21.2518 11.4202 21.4156 10.909C21.4991 10.6485 21.5676 10.4379 21.6216 10.2844C21.6488 10.207 21.6681 10.1564 21.6804 10.1269C21.7059 10.0656 21.6834 10.137 21.6137 10.2299L20.0137 9.02989C19.9141 9.16276 19.8536 9.31116 19.8337 9.35893C19.8006 9.43859 19.7671 9.52927 19.735 9.62063C19.6703 9.80455 19.5936 10.0409 19.511 10.2989C19.3425 10.8246 19.1397 11.4698 18.9182 12.1059C18.6942 12.7489 18.466 13.3379 18.2553 13.754C18.1475 13.9667 18.0678 14.0865 18.0237 14.139C17.9351 14.2444 18.082 13.9999 18.4537 13.9999V15.9999ZM21.6137 10.2299C21.5194 10.3556 21.4206 10.4203 21.3982 10.4349C21.3795 10.4472 21.365 10.4554 21.357 10.4597C21.3487 10.4642 21.3437 10.4666 21.343 10.4669C21.3422 10.4673 21.3499 10.4637 21.3692 10.4562C21.3878 10.449 21.4127 10.4399 21.4448 10.4289C21.5793 10.3831 21.78 10.3252 22.0411 10.2566C22.5604 10.1201 23.2337 9.96299 23.9245 9.79914C24.6029 9.63825 25.3004 9.47028 25.8305 9.3187C26.0908 9.24428 26.3445 9.16442 26.5449 9.08185C26.6391 9.04302 26.7693 8.98452 26.8917 8.90223C26.9517 8.86188 27.0514 8.78856 27.1455 8.67596C27.2353 8.56867 27.3937 8.33611 27.3937 7.99989H25.3937C25.3937 7.68554 25.5418 7.47605 25.6113 7.39294C25.6852 7.30451 25.7549 7.25649 25.7758 7.24248C25.8198 7.21286 25.8351 7.21118 25.7828 7.23273C25.6902 7.2709 25.5248 7.32597 25.2807 7.39576C24.8021 7.53262 24.1496 7.69027 23.463 7.85313C22.7888 8.01303 22.0821 8.17783 21.5326 8.32227C21.2594 8.3941 21.0035 8.46642 20.8 8.53573C20.7001 8.56974 20.5903 8.61058 20.489 8.65844C20.4384 8.68233 20.3723 8.71613 20.3035 8.76116C20.2469 8.79818 20.1231 8.88413 20.0137 9.02989L21.6137 10.2299ZM27.3937 7.99989C27.3937 7.6877 27.2563 7.46687 27.1785 7.36341C27.0955 7.25301 27.0063 7.17738 26.9502 7.13381C26.8366 7.04562 26.7144 6.97941 26.6243 6.93428C26.434 6.83892 26.1931 6.74317 25.9467 6.65278C25.4449 6.46869 24.7865 6.25903 24.1489 6.05934C23.4988 5.85578 22.8694 5.66224 22.3874 5.50065C22.1449 5.41938 21.9613 5.35325 21.8409 5.30371C21.7783 5.27793 21.7562 5.26612 21.7594 5.26785C21.7602 5.26834 21.7888 5.28369 21.829 5.31447C21.8498 5.33032 21.9777 5.42562 22.0752 5.60766L20.3123 6.55211C20.4192 6.75165 20.566 6.86642 20.6147 6.9036C20.6829 6.95571 20.7482 6.99424 20.7944 7.01964C20.8879 7.0712 20.9898 7.11616 21.0796 7.15313C21.2641 7.2291 21.4996 7.31242 21.7517 7.39693C22.2587 7.56691 22.9199 7.77025 23.5511 7.96793C24.1947 8.16949 24.8082 8.36546 25.2579 8.53043C25.4873 8.61457 25.6422 8.67921 25.7286 8.72248C25.7769 8.74667 25.7633 8.74433 25.7238 8.71363C25.7047 8.69881 25.6439 8.65032 25.58 8.56535C25.5213 8.48732 25.3937 8.2902 25.3937 7.99989H27.3937ZM22.0752 5.60766C22.1605 5.76693 22.1749 5.90437 22.178 5.93182C22.1831 5.97849 22.1819 6.00853 22.1819 6.0103C22.1818 6.01468 22.1826 5.99239 22.1914 5.93052C22.2083 5.81122 22.2413 5.63438 22.2895 5.40179C22.389 4.9214 22.518 4.36464 22.6543 3.72595C22.7831 3.12157 22.9102 2.47996 22.9714 1.96527C23.0012 1.71485 23.0223 1.44225 23.0053 1.20005C22.9971 1.08227 22.9766 0.913996 22.9117 0.740276C22.8513 0.578564 22.6933 0.258197 22.3133 0.0876165L21.4942 1.91216C21.1755 1.76907 21.0643 1.51027 21.0381 1.43996C21.0073 1.35763 21.0082 1.31059 21.0102 1.33964C21.0138 1.39111 21.0109 1.51461 20.9854 1.72888C20.9361 2.14356 20.8269 2.7057 20.6982 3.30882C20.5769 3.87763 20.4272 4.53212 20.3311 4.99611C20.2815 5.2357 20.2375 5.46433 20.2112 5.64995C20.1983 5.74054 20.1861 5.84558 20.1829 5.94792C20.1813 5.99867 20.1811 6.07035 20.19 6.15079C20.1967 6.21201 20.2176 6.37534 20.3123 6.55211L22.0752 5.60766ZM22.3136 0.0877174C21.7799 -0.152026 21.2902 0.0718626 21.0996 0.172589C20.8563 0.301188 20.6285 0.484299 20.4363 0.657912C20.0432 1.01291 19.6188 1.49487 19.2412 1.95067C18.8579 2.41326 18.4919 2.88718 18.2202 3.23654C18.0811 3.41548 17.9722 3.55474 17.8931 3.65116C17.8527 3.70054 17.8307 3.72556 17.8225 3.73436C17.8177 3.73952 17.8282 3.72774 17.8495 3.70855C17.8604 3.69878 17.883 3.67902 17.9149 3.65572C17.9407 3.63691 18.0078 3.58945 18.1057 3.54825L18.8818 5.39152C19.0558 5.31825 19.1714 5.20958 19.1871 5.19548C19.2292 5.15761 19.2647 5.12055 19.289 5.09429C19.3391 5.04025 19.3917 4.97788 19.4399 4.91904C19.5383 4.79901 19.6636 4.63851 19.7991 4.46417C20.0769 4.10696 20.422 3.66026 20.7813 3.2266C21.1462 2.78615 21.4955 2.39624 21.7768 2.14217C21.9218 2.01125 22.0063 1.95554 22.0342 1.94082C22.1148 1.89822 21.8551 2.0743 21.4939 1.91205L22.3136 0.0877174ZM18.1057 3.54825C18.42 3.4159 18.6923 3.49503 18.696 3.49591C18.761 3.51133 18.8029 3.52952 18.8062 3.53092C18.818 3.53593 18.8039 3.53049 18.7512 3.50096C18.6524 3.44564 18.5035 3.35416 18.3071 3.22855C17.9151 2.97782 17.4146 2.64328 16.8834 2.29493C16.3648 1.95482 15.8207 1.60408 15.382 1.35017C15.1668 1.2256 14.9471 1.10681 14.7547 1.02444C14.6628 0.985096 14.5354 0.935691 14.3956 0.906396C14.3256 0.891712 14.2166 0.874217 14.0872 0.880054C13.9641 0.885604 13.7414 0.915876 13.5203 1.07065L14.6672 2.70912C14.4648 2.85077 14.2679 2.87393 14.1773 2.87802C14.0803 2.8824 14.0103 2.86909 13.9854 2.86387C13.9359 2.8535 13.9235 2.84415 13.9676 2.86303C14.0472 2.89711 14.1837 2.96745 14.3802 3.08117C14.7649 3.30381 15.2664 3.6262 15.7866 3.96734C16.2942 4.30024 16.8256 4.65507 17.2295 4.91341C17.431 5.04233 17.6211 5.1603 17.7737 5.24581C17.8467 5.28668 17.9363 5.3345 18.0264 5.37265C18.0689 5.39063 18.1435 5.42037 18.2345 5.44195C18.2642 5.44898 18.5556 5.52887 18.8818 5.39152L18.1057 3.54825Z" fill="#494A4A"/>
<path id="1px" d="M40.5398 10.0818C40.2757 10.0011 39.9962 10.1497 39.9154 10.4137C39.8346 10.6778 39.9832 10.9573 40.2473 11.0381L40.5398 10.0818ZM44.8863 9.21492C44.9332 8.9428 44.7506 8.68416 44.4785 8.63724C44.2064 8.59032 43.9477 8.77289 43.9008 9.04502L44.8863 9.21492ZM11.3936 50.41L11.4908 50.9006L11.5033 50.8978L11.3936 50.41ZM9.48355 50.41L9.58081 49.9195C9.56894 49.9172 9.55699 49.9152 9.54498 49.9138L9.48355 50.41ZM8.48355 49.41L8.97977 49.3485C8.9786 49.3391 8.97716 49.3297 8.97546 49.3204L8.48355 49.41ZM8.48355 47.5L8.97548 47.5896L8.9761 47.586L8.48355 47.5ZM9.48355 46.5L9.40552 46.006L9.39752 46.0074L9.48355 46.5ZM11.3936 46.5L11.4803 46.0075L11.4716 46.0061L11.3936 46.5ZM12.3436 47.5L11.8473 47.5614C11.849 47.5747 11.8512 47.588 11.8539 47.6011L12.3436 47.5ZM12.3436 49.41L11.8539 49.3088C11.8528 49.3143 11.8517 49.3198 11.8508 49.3254L12.3436 49.41ZM59.322 58.2737C59.4732 58.0426 59.4083 57.7327 59.1772 57.5815C58.9461 57.4304 58.6363 57.4952 58.4851 57.7263L59.322 58.2737ZM51.7801 60.7728C51.5056 60.8023 51.3069 61.0488 51.3364 61.3234C51.3659 61.5979 51.6124 61.7966 51.887 61.7671L51.7801 60.7728ZM59.1464 62.1618C59.3573 61.9835 59.3837 61.668 59.2054 61.4571C59.0271 61.2463 58.7116 61.2199 58.5007 61.3982L59.1464 62.1618ZM54.588 63.0831C54.3136 63.1138 54.116 63.3611 54.1467 63.6355C54.1773 63.91 54.4247 64.1076 54.6991 64.0769L54.588 63.0831ZM41.5848 54.7496C41.8552 54.6937 42.0291 54.4292 41.9732 54.1587C41.9173 53.8883 41.6527 53.7144 41.3823 53.7703L41.5848 54.7496ZM36.5148 53.7703C36.2444 53.7144 35.9798 53.8883 35.9239 54.1587C35.868 54.4292 36.0419 54.6937 36.3123 54.7496L36.5148 53.7703ZM58.6636 13L58.5551 13.4881L58.6087 13.5H58.6636V13ZM62.5536 16.69L63.035 16.5546L63.0325 16.5463L62.5536 16.69ZM17.7197 24.9619C17.9693 25.08 18.2674 24.9734 18.3855 24.7238C18.5036 24.4742 18.397 24.1761 18.1474 24.058L17.7197 24.9619ZM12.91 23.0105C12.6342 23.0235 12.4211 23.2577 12.4341 23.5335C12.4471 23.8094 12.6813 24.0224 12.9571 24.0094L12.91 23.0105ZM20.5832 21.8639C20.7953 22.0408 21.1106 22.0123 21.2875 21.8003C21.4644 21.5883 21.4359 21.273 21.2239 21.0961L20.5832 21.8639ZM11.9739 16.9849C11.7005 16.9461 11.4474 17.1362 11.4085 17.4096C11.3697 17.683 11.5598 17.9362 11.8332 17.975L11.9739 16.9849ZM29.2046 13.9401C29.4367 13.7904 29.5034 13.4809 29.3537 13.2489C29.204 13.0169 28.8945 12.9501 28.6625 13.0998L29.2046 13.9401ZM24.4415 19.4313C24.3925 19.7031 24.5731 19.9631 24.8449 20.0121C25.1167 20.061 25.3767 19.8804 25.4256 19.6086L24.4415 19.4313ZM54.4766 9.52494C54.5069 9.7994 54.7541 9.9973 55.0285 9.96694C55.303 9.93658 55.5009 9.68948 55.4705 9.41501L54.4766 9.52494ZM57.217 2.90671C57.4582 2.77227 57.5447 2.46775 57.4103 2.22654C57.2759 1.98534 56.9713 1.89879 56.7301 2.03323L57.217 2.90671ZM8.92355 23.5L9.42301 23.5232C9.42337 23.5155 9.42355 23.5077 9.42355 23.5H8.92355ZM6.92355 25.5L6.90029 25.0005C6.89392 25.0008 6.88757 25.0012 6.88122 25.0018L6.92355 25.5ZM4.92355 23.5L5.42176 23.5423C5.42296 23.5282 5.42355 23.5141 5.42355 23.5H4.92355ZM6.92355 21.5L6.8194 21.989L6.8255 21.9903L6.92355 21.5ZM5.90355 13H5.40354L5.40357 13.004L5.90355 13ZM3.39355 15.52L3.39557 15.02H3.39355V15.52ZM0.893555 13L0.393916 12.981C0.393675 12.9873 0.393555 12.9936 0.393555 13H0.893555ZM3.39355 10.51L3.41057 11.0097C3.41906 11.0094 3.42755 11.0089 3.43601 11.0082L3.39355 10.51ZM63.4436 4.31997L63.0248 4.59318C63.0346 4.60813 63.0451 4.62256 63.0564 4.63639L63.4436 4.31997ZM63.1536 7.13997L63.4057 7.57176C63.4276 7.55897 63.4485 7.54452 63.4682 7.52856L63.1536 7.13997ZM60.3336 6.90997L59.9347 7.21148C59.9581 7.2424 59.9849 7.27049 60.0148 7.2952L60.3336 6.90997ZM60.6236 4.08997L60.9527 4.46635C60.9667 4.45412 60.98 4.44113 60.9925 4.42742L60.6236 4.08997ZM33.8836 4.99997L33.3877 4.93567C33.3849 4.95699 33.3836 4.97847 33.3836 4.99997H33.8836ZM30.9036 4.99997L30.4036 4.98706V4.99997H30.9036ZM32.3936 3.50997L32.4065 4.0098C32.4236 4.00936 32.4408 4.00803 32.4579 4.00582L32.3936 3.50997ZM40.2473 11.0381C41.1225 11.3058 42.1374 11.4869 43.0104 11.2888C43.4577 11.1873 43.8816 10.983 44.221 10.6289C44.5608 10.2743 44.7851 9.80151 44.8863 9.21492L43.9008 9.04502C43.827 9.47344 43.6763 9.7519 43.499 9.93699C43.3211 10.1226 43.0856 10.2463 42.7892 10.3136C42.1747 10.453 41.3646 10.3341 40.5398 10.0818L40.2473 11.0381ZM11.2963 49.9195C10.73 50.0318 10.1471 50.0318 9.58081 49.9195L9.3863 50.9004C10.081 51.0382 10.7961 51.0382 11.4908 50.9004L11.2963 49.9195ZM9.54498 49.9138C9.40127 49.896 9.26762 49.8307 9.16522 49.7283L8.45812 50.4354C8.71804 50.6953 9.05732 50.861 9.42213 50.9062L9.54498 49.9138ZM9.16522 49.7283C9.06283 49.6259 8.99756 49.4923 8.97977 49.3485L7.98734 49.4714C8.0325 49.8362 8.19819 50.1755 8.45812 50.4354L9.16522 49.7283ZM8.97546 49.3204C8.87125 48.7481 8.87125 48.1618 8.97546 47.5896L7.99165 47.4104C7.86585 48.1011 7.86585 48.8088 7.99165 49.4996L8.97546 49.3204ZM8.9761 47.586C9.00194 47.438 9.07281 47.3016 9.17902 47.1954L8.47191 46.4883C8.2202 46.74 8.05227 47.0633 7.99101 47.4139L8.9761 47.586ZM9.17902 47.1954C9.28523 47.0892 9.42162 47.0184 9.56959 46.9925L9.39752 46.0074C9.04685 46.0687 8.72362 46.2366 8.47191 46.4883L9.17902 47.1954ZM9.56158 46.9938C10.1426 46.9021 10.7345 46.9021 11.3155 46.9938L11.4716 46.0061C10.7871 45.898 10.09 45.898 9.40553 46.0061L9.56158 46.9938ZM11.3068 46.9924C11.4459 47.0169 11.5735 47.0854 11.6708 47.1878L12.3958 46.4991C12.1511 46.2415 11.8302 46.0692 11.4803 46.0075L11.3068 46.9924ZM11.6708 47.1878C11.7681 47.2902 11.83 47.4212 11.8473 47.5614L12.8398 47.4386C12.7962 47.086 12.6405 46.7567 12.3958 46.4991L11.6708 47.1878ZM11.8539 47.6011C11.9703 48.1644 11.9703 48.7455 11.8539 49.3088L12.8332 49.5111C12.9772 48.8144 12.9772 48.0956 12.8332 47.3988L11.8539 47.6011ZM11.8508 49.3254C11.826 49.4698 11.7589 49.6036 11.6579 49.7099L12.3829 50.3986C12.6202 50.1488 12.7781 49.8342 12.8363 49.4946L11.8508 49.3254ZM11.6579 49.7099C11.557 49.8161 11.4268 49.89 11.2838 49.9222L11.5033 50.8978C11.8395 50.8222 12.1456 50.6484 12.3829 50.3986L11.6579 49.7099ZM58.4851 57.7263C57.3982 59.3881 55.3566 60.3886 51.7801 60.7728L51.887 61.7671C55.5705 61.3714 57.9889 60.3119 59.322 58.2737L58.4851 57.7263ZM58.5007 61.3982C57.3924 62.3353 56.0304 62.9218 54.588 63.0831L54.6991 64.0769C56.3386 63.8935 57.8866 63.2269 59.1464 62.1618L58.5007 61.3982ZM41.3823 53.7703C39.7768 54.1023 38.1203 54.1023 36.5148 53.7703L36.3123 54.7496C38.0514 55.1092 39.8457 55.1092 41.5848 54.7496L41.3823 53.7703ZM58.772 12.5119C58.5715 12.4673 58.4131 12.5477 58.3549 12.5806C58.2813 12.6221 58.22 12.674 58.1753 12.7156C58.0836 12.8008 57.9888 12.9122 57.8998 13.0246C57.7189 13.2532 57.5061 13.5582 57.3038 13.8502C57.0962 14.1499 56.8984 14.4376 56.7333 14.6559C56.6503 14.7657 56.5848 14.8455 56.5373 14.8959C56.5133 14.9214 56.5029 14.9296 56.5046 14.9283C56.5058 14.9273 56.5161 14.9193 56.5345 14.9092C56.5512 14.9001 56.5897 14.8808 56.6455 14.8697L56.8416 15.8503C56.9774 15.8231 57.0756 15.751 57.1186 15.7175C57.1732 15.6751 57.2228 15.6265 57.2649 15.5819C57.3498 15.4919 57.441 15.378 57.531 15.259C57.7119 15.0198 57.9246 14.7101 58.1258 14.4197C58.3322 14.1217 58.5264 13.8442 58.6839 13.6453C58.7641 13.544 58.8214 13.4804 58.8563 13.4478C58.875 13.4305 58.8707 13.4377 58.8467 13.4513C58.838 13.4562 58.7219 13.5251 58.5551 13.4881L58.772 12.5119ZM56.6455 14.8697C56.6951 14.8598 56.7219 14.8648 56.6902 14.8628C56.6704 14.8615 56.6378 14.8581 56.59 14.8514C56.4948 14.838 56.3669 14.8155 56.2108 14.7858C55.9141 14.7294 55.4949 14.643 55.1106 14.572C54.7196 14.4998 54.3105 14.433 53.9818 14.4098C53.8207 14.3984 53.6509 14.3952 53.5019 14.4169C53.4279 14.4277 53.3337 14.448 53.2406 14.4924C53.1475 14.5368 53.0155 14.6253 52.9392 14.7912L53.8479 15.2087C53.7929 15.3284 53.7032 15.3797 53.6712 15.395C53.6391 15.4103 53.6245 15.4096 53.6461 15.4064C53.6884 15.4003 53.7738 15.3976 53.9113 15.4073C54.1797 15.4263 54.5413 15.4838 54.929 15.5554C55.3234 15.6282 55.6911 15.7049 56.0241 15.7682C56.1829 15.7984 56.3305 15.8248 56.4509 15.8417C56.5109 15.8501 56.5711 15.8572 56.6265 15.8607C56.67 15.8635 56.7545 15.8677 56.8416 15.8503L56.6455 14.8697ZM52.9392 14.7912C52.8768 14.927 52.8775 15.0575 52.8869 15.1424C52.8966 15.231 52.9206 15.3127 52.945 15.38C52.9938 15.5142 53.0687 15.6556 53.1478 15.7888C53.3078 16.0587 53.5328 16.3739 53.7524 16.6717C53.9805 16.9811 54.1964 17.2632 54.373 17.5084C54.4596 17.6287 54.5279 17.7281 54.5753 17.8044C54.6361 17.9024 54.6256 17.9055 54.6148 17.8556L55.5923 17.6443C55.5615 17.502 55.4772 17.3613 55.425 17.2771C55.3593 17.1712 55.2751 17.0499 55.1844 16.924C55.0063 16.6767 54.7678 16.3638 54.5572 16.0782C54.3381 15.781 54.1399 15.5013 54.0078 15.2786C53.9408 15.1656 53.9023 15.0864 53.8849 15.0384C53.8762 15.0146 53.8789 15.0148 53.8809 15.0331C53.8825 15.0478 53.889 15.1192 53.8479 15.2087L52.9392 14.7912ZM54.6148 17.8556C54.6047 17.8087 54.6058 17.7731 54.6068 17.7572C54.6074 17.7482 54.6083 17.7416 54.6089 17.7378C54.6092 17.7358 54.6095 17.7344 54.6097 17.7334C54.6098 17.7325 54.6099 17.732 54.6099 17.732C54.61 17.732 54.6099 17.7324 54.6097 17.7331C54.6095 17.7339 54.6092 17.735 54.6088 17.7365C54.6079 17.7395 54.6067 17.7437 54.6049 17.7491C54.6013 17.7601 54.5961 17.7744 54.5889 17.7926C54.5585 17.8692 54.5067 17.9766 54.4333 18.1151C54.2851 18.3948 54.0889 18.7286 53.8825 19.0966C53.6838 19.4509 53.4786 19.8321 53.3442 20.1609C53.2776 20.3239 53.2183 20.4976 53.1913 20.6626C53.1679 20.8052 53.1473 21.0615 53.3031 21.2855L54.124 20.7144C54.1998 20.8234 54.1651 20.9035 54.1781 20.8242C54.1874 20.7674 54.2149 20.6737 54.2698 20.5393C54.3785 20.2735 54.5559 19.9402 54.7547 19.5858C54.9457 19.2451 55.162 18.8757 55.3169 18.5833C55.3951 18.4357 55.4675 18.2897 55.5184 18.1614C55.5438 18.0974 55.5688 18.0258 55.5853 17.9528C55.5994 17.8904 55.6203 17.7741 55.5923 17.6443L54.6148 17.8556ZM53.3031 21.2855C53.4946 21.5608 53.8155 21.5832 53.9543 21.5847C54.1334 21.5867 54.3332 21.5532 54.5246 21.509C54.9136 21.4193 55.3854 21.2568 55.8337 21.0878C56.2857 20.9175 56.7359 20.7319 57.0816 20.5912C57.2566 20.52 57.4017 20.4615 57.5104 20.4204C57.5651 20.3998 57.6049 20.3857 57.6317 20.3771C57.6746 20.3634 57.6504 20.3749 57.6005 20.3786L57.5266 19.3813C57.4429 19.3875 57.3616 19.4136 57.3269 19.4247C57.2762 19.4409 57.218 19.4619 57.157 19.485C57.0346 19.5312 56.8781 19.5944 56.7046 19.665C56.353 19.8081 55.9177 19.9875 55.4809 20.1521C55.0404 20.3181 54.6204 20.4607 54.2997 20.5346C54.1363 20.5724 54.0268 20.5854 53.9653 20.5848C53.8635 20.5836 54.0125 20.5541 54.124 20.7144L53.3031 21.2855ZM57.6005 20.3786C57.5216 20.3844 57.4656 20.3677 57.4553 20.3647C57.4379 20.3596 57.43 20.3555 57.4351 20.3578C57.4451 20.3624 57.4705 20.3755 57.515 20.4025C57.6022 20.4554 57.7233 20.5372 57.8732 20.6439C58.1715 20.8562 58.5481 21.141 58.9318 21.4296C59.3105 21.7144 59.697 22.0036 60.0013 22.2128C60.1515 22.3162 60.2953 22.4096 60.4144 22.4741C60.4712 22.5048 60.5437 22.5408 60.6196 22.5648C60.6567 22.5765 60.7178 22.593 60.7913 22.5956C60.8589 22.598 61.0038 22.591 61.1405 22.4846L60.5266 21.6953C60.652 21.5977 60.7806 21.5946 60.8269 21.5962C60.8792 21.5981 60.9141 21.6091 60.9207 21.6112C60.9354 21.6159 60.9286 21.6153 60.8905 21.5947C60.8199 21.5565 60.7117 21.4878 60.568 21.389C60.2844 21.1939 59.9154 20.918 59.5328 20.6304C59.1553 20.3464 58.765 20.0512 58.453 19.8292C58.2978 19.7187 58.1528 19.6197 58.0334 19.5473C57.9746 19.5117 57.9115 19.4761 57.8505 19.4482C57.82 19.4343 57.781 19.4181 57.737 19.4052C57.7002 19.3944 57.6224 19.3742 57.5266 19.3813L57.6005 20.3786ZM61.1405 22.4846C61.2734 22.3813 61.3172 22.2473 61.3326 22.1808C61.3492 22.1093 61.3492 22.0463 61.3475 22.0072C61.344 21.9275 61.3279 21.8487 61.3129 21.7869C61.2815 21.6573 61.2288 21.4979 61.1684 21.3311C61.0461 20.993 60.8685 20.5594 60.6929 20.1359C60.5149 19.7067 60.3386 19.2872 60.2108 18.9603C60.1465 18.7961 60.0986 18.6655 60.0697 18.5742C60.0548 18.5272 60.0488 18.5026 60.0473 18.4947C60.0464 18.4904 60.0491 18.5021 60.0501 18.524C60.0506 18.5332 60.0557 18.6109 60.0178 18.7057L59.0893 18.3343C59.0464 18.4415 59.0497 18.5376 59.0512 18.5708C59.0534 18.6167 59.0602 18.6579 59.0662 18.6883C59.0783 18.7497 59.097 18.8152 59.1163 18.8759C59.1556 19 59.2134 19.1557 59.2795 19.3246C59.4122 19.6639 59.5947 20.0983 59.7692 20.519C59.9461 20.9455 60.1148 21.3582 60.2281 21.6713C60.2855 21.8301 60.3229 21.9477 60.341 22.0223C60.3507 22.0625 60.3492 22.0677 60.3484 22.0508C60.3481 22.0431 60.3466 22.0062 60.3584 21.9552C60.3691 21.9091 60.405 21.7899 60.5266 21.6953L61.1405 22.4846ZM60.0178 18.7057C59.9845 18.789 59.937 18.8372 59.9297 18.8447C59.9156 18.8594 59.9065 18.8661 59.9094 18.8638C59.9149 18.8596 59.9336 18.8461 59.9723 18.8222C60.0478 18.7754 60.1599 18.7128 60.3042 18.6357C60.5955 18.4802 60.9624 18.295 61.3488 18.0931C61.7243 17.8969 62.111 17.6886 62.4009 17.5056C62.543 17.4159 62.6828 17.3193 62.7893 17.223C62.8409 17.1763 62.9066 17.1103 62.9588 17.0273C63.004 16.9555 63.0975 16.7774 63.0349 16.5546L62.0722 16.8253C62.0208 16.6425 62.1014 16.5122 62.1123 16.4949C62.1303 16.4663 62.1405 16.4614 62.1183 16.4816C62.077 16.5189 61.9958 16.5787 61.8671 16.66C61.6155 16.8188 61.2615 17.0105 60.8858 17.2068C60.521 17.3974 60.126 17.5972 59.8332 17.7536C59.6854 17.8325 59.55 17.9075 59.4459 17.9719C59.3949 18.0035 59.3408 18.039 59.2934 18.0761C59.2699 18.0945 59.2394 18.1199 59.2092 18.1513C59.1859 18.1756 59.1276 18.2384 59.0893 18.3343L60.0178 18.7057ZM63.0325 16.5463C62.9446 16.2534 62.6878 16.126 62.5609 16.0744C62.4069 16.0119 62.2281 15.9754 62.0578 15.9515C61.7117 15.903 61.283 15.8918 60.88 15.8937C60.4727 15.8956 60.0668 15.9113 59.7647 15.9217C59.6108 15.9269 59.4885 15.9307 59.4017 15.9312C59.3575 15.9314 59.3316 15.9307 59.3195 15.93C59.3128 15.9296 59.3191 15.9296 59.3329 15.9319C59.3399 15.933 59.3555 15.9357 59.3759 15.9414C59.3923 15.946 59.4353 15.9588 59.4855 15.9881L58.9816 16.8519C59.0723 16.9048 59.1606 16.917 59.1735 16.9191C59.2059 16.9243 59.2362 16.9268 59.2585 16.9281C59.3042 16.9309 59.3564 16.9314 59.4073 16.9312C59.5109 16.9306 59.6477 16.9263 59.799 16.9211C60.1072 16.9105 60.4957 16.8955 60.8847 16.8937C61.2779 16.8919 61.6473 16.9038 61.919 16.9419C62.0576 16.9613 62.1426 16.9839 62.1847 17.001C62.2537 17.029 62.125 17.0016 62.0746 16.8336L63.0325 16.5463ZM59.4855 15.9881C59.5678 16.0361 59.6145 16.0956 59.6335 16.1221C59.6556 16.1526 59.6685 16.1785 59.6746 16.1914C59.6813 16.2057 59.6853 16.2165 59.6871 16.2215C59.689 16.227 59.69 16.2302 59.69 16.2303C59.6901 16.2306 59.6897 16.2292 59.6888 16.2258C59.688 16.2224 59.6869 16.2178 59.6856 16.2118C59.6828 16.1995 59.6796 16.1834 59.6759 16.1631C59.6605 16.079 59.6426 15.9537 59.6222 15.7931C59.5815 15.4721 59.5366 15.056 59.4864 14.6258C59.4371 14.2032 59.3829 13.7694 59.3254 13.4388C59.2971 13.2764 59.2649 13.1199 59.227 12.9968C59.2092 12.939 59.1817 12.8601 59.1388 12.7863C59.1176 12.7498 59.079 12.6905 59.0164 12.6351C58.9522 12.5783 58.832 12.5 58.6636 12.5V13.5C58.5095 13.5 58.4037 13.4282 58.3537 13.384C58.3055 13.3414 58.2812 13.3009 58.2743 13.2889C58.2599 13.2642 58.2609 13.2574 58.2713 13.2913C58.2899 13.3517 58.3136 13.4574 58.3402 13.6102C58.3923 13.9099 58.4437 14.318 58.4932 14.7417C58.5417 15.1577 58.5887 15.5922 58.6302 15.919C58.6509 16.0823 58.6716 16.2303 58.6922 16.3427C58.7021 16.3972 58.7144 16.4566 58.7298 16.5097C58.7372 16.535 58.7497 16.5745 58.7695 16.6166C58.7794 16.6379 58.7963 16.6707 58.8222 16.7066C58.8451 16.7384 58.8955 16.8016 58.9816 16.8519L59.4855 15.9881ZM18.1474 24.058C16.5138 23.285 14.7152 22.9253 12.91 23.0105L12.9571 24.0094C14.5987 23.9319 16.2342 24.259 17.7197 24.9619L18.1474 24.058ZM21.2239 21.0961C18.5827 18.8924 15.3794 17.4687 11.9739 16.9849L11.8332 17.975C15.0547 18.4326 18.0848 19.7793 20.5832 21.8639L21.2239 21.0961ZM28.6625 13.0998C27.5625 13.8096 26.6202 14.7378 25.8941 15.827L26.7262 16.3817C27.3763 15.4066 28.2199 14.5755 29.2046 13.9401L28.6625 13.0998ZM25.8941 15.827C25.168 16.9162 24.6735 18.143 24.4415 19.4313L25.4256 19.6086C25.6334 18.4552 26.0761 17.3568 26.7262 16.3817L25.8941 15.827ZM55.4705 9.41501C55.3511 8.33525 55.2491 6.98538 55.4613 5.75094C55.6729 4.52055 56.181 3.48414 57.217 2.90671L56.7301 2.03323C55.3261 2.8158 54.7143 4.19439 54.4758 5.5815C54.238 6.96457 54.356 8.4347 54.4766 9.52494L55.4705 9.41501ZM8.4241 23.4767C8.40555 23.8749 8.23905 24.2518 7.9572 24.5336L8.66431 25.2407C9.12231 24.7827 9.39287 24.1703 9.42301 23.5232L8.4241 23.4767ZM7.9572 24.5336C7.67535 24.8155 7.29845 24.982 6.90029 25.0005L6.94682 25.9994C7.59384 25.9693 8.2063 25.6987 8.66431 25.2407L7.9572 24.5336ZM6.88122 25.0018C6.68536 25.0184 6.48823 24.9921 6.3036 24.9246L5.96041 25.8639C6.2818 25.9813 6.62495 26.0271 6.96589 25.9982L6.88122 25.0018ZM6.3036 24.9246C6.11898 24.8572 5.95131 24.7502 5.81232 24.6112L5.10521 25.3183C5.34716 25.5603 5.63902 25.7465 5.96041 25.8639L6.3036 24.9246ZM5.81232 24.6112C5.67332 24.4722 5.56636 24.3045 5.4989 24.1199L4.55964 24.4631C4.67707 24.7845 4.86326 25.0764 5.10521 25.3183L5.81232 24.6112ZM5.4989 24.1199C5.43144 23.9353 5.40512 23.7382 5.42176 23.5423L4.42535 23.4576C4.39638 23.7986 4.44221 24.1417 4.55964 24.4631L5.4989 24.1199ZM5.42355 23.5C5.42355 23.0753 5.60296 22.639 5.88362 22.3391C6.16018 22.0436 6.49135 21.9191 6.81941 21.989L7.0277 21.0109C6.27575 20.8508 5.60693 21.1713 5.15349 21.6558C4.70415 22.1359 4.42355 22.8147 4.42355 23.5H5.42355ZM6.8255 21.9903C7.45276 22.1157 7.8447 22.3096 8.07827 22.5405C8.29668 22.7565 8.42355 23.0512 8.42355 23.5H9.42355C9.42355 22.8387 9.22543 22.2685 8.78134 21.8294C8.35241 21.4053 7.74435 21.1542 7.02161 21.0097L6.8255 21.9903ZM5.40357 13.004C5.40569 13.2686 5.35526 13.5311 5.2552 13.7761L6.18098 14.1542C6.33107 13.7866 6.40672 13.393 6.40354 12.996L5.40357 13.004ZM5.2552 13.7761C5.15514 14.0211 5.00743 14.2439 4.82066 14.4314L5.52917 15.1371C5.80933 14.8558 6.03088 14.5217 6.18098 14.1542L5.2552 13.7761ZM4.82066 14.4314C4.63388 14.6189 4.41174 14.7675 4.16711 14.8685L4.54885 15.7928C4.91579 15.6413 5.249 15.4184 5.52917 15.1371L4.82066 14.4314ZM4.16711 14.8685C3.92249 14.9696 3.66024 15.021 3.39557 15.02L3.39154 16.02C3.78854 16.0216 4.18191 15.9444 4.54885 15.7928L4.16711 14.8685ZM3.39355 15.02C3.3272 15.02 3.16256 14.9856 2.92209 14.8714C2.69444 14.7633 2.44024 14.6032 2.20411 14.4033C1.71493 13.9893 1.39355 13.4859 1.39355 13H0.393555C0.393555 13.914 0.972181 14.6707 1.558 15.1666C1.85937 15.4217 2.18642 15.6291 2.49314 15.7748C2.78705 15.9143 3.10991 16.02 3.39355 16.02V15.02ZM1.39319 13.019C1.41328 12.4911 1.63252 11.9904 2.00679 11.6177L1.3011 10.9091C0.747747 11.4603 0.423619 12.2005 0.393916 12.981L1.39319 13.019ZM2.00679 11.6177C2.38107 11.2449 2.88262 11.0277 3.41057 11.0097L3.37654 10.0103C2.59599 10.0368 1.85446 10.358 1.3011 10.9091L2.00679 11.6177ZM3.43601 11.0082C4.17692 10.945 4.64063 11.1779 4.93078 11.5125C5.23734 11.8661 5.40355 12.3966 5.40355 13H6.40355C6.40355 12.2333 6.19477 11.4438 5.68633 10.8574C5.16148 10.2521 4.37019 9.92492 3.35109 10.0118L3.43601 11.0082ZM63.0564 4.63639C63.1814 4.78936 63.275 4.96551 63.3318 5.15474L64.2896 4.86749C64.195 4.5521 64.0391 4.2585 63.8307 4.00356L63.0564 4.63639ZM63.3318 5.15474C63.3885 5.34397 63.4073 5.54255 63.3871 5.73908L64.3819 5.84137C64.4155 5.51384 64.3842 5.18287 64.2896 4.86749L63.3318 5.15474ZM63.3871 5.73908C63.3669 5.9356 63.3081 6.1262 63.214 6.29991L64.0933 6.7761C64.2501 6.48657 64.3482 6.16891 64.3819 5.84137L63.3871 5.73908ZM63.214 6.29991C63.1199 6.47363 62.9924 6.62706 62.8389 6.75139L63.4682 7.52856C63.7241 7.32135 63.9365 7.06564 64.0933 6.7761L63.214 6.29991ZM62.9014 6.70818C62.5529 6.91168 62.1503 7.00322 61.748 6.97041L61.6667 7.9671C62.2732 8.01656 62.8802 7.87856 63.4057 7.57176L62.9014 6.70818ZM61.748 6.97041C61.3457 6.9376 60.9633 6.78203 60.6523 6.52474L60.0148 7.2952C60.4836 7.6831 61.0603 7.91764 61.6667 7.9671L61.748 6.97041ZM60.7324 6.60846C60.4915 6.28972 60.3802 5.89153 60.4211 5.49406L59.4264 5.39177C59.3596 6.04079 59.5413 6.691 59.9347 7.21148L60.7324 6.60846ZM60.4211 5.49406C60.462 5.0966 60.6519 4.72938 60.9527 4.46635L60.2944 3.71359C59.8033 4.1431 59.4931 4.74274 59.4264 5.39177L60.4211 5.49406ZM60.9925 4.42742C61.1253 4.28221 61.2896 4.16931 61.4728 4.09736L61.1072 3.16659C60.782 3.29432 60.4904 3.49474 60.2546 3.75252L60.9925 4.42742ZM61.4728 4.09736C61.6559 4.02541 61.8531 3.99632 62.0493 4.01232L62.1306 3.01563C61.7824 2.98723 61.4323 3.03887 61.1072 3.16659L61.4728 4.09736ZM62.0493 4.01232C62.2454 4.02832 62.4353 4.08898 62.6044 4.18966L63.116 3.33043C62.8158 3.15171 62.4787 3.04403 62.1306 3.01563L62.0493 4.01232ZM62.6044 4.18966C62.7735 4.29033 62.9173 4.42836 63.0248 4.59318L63.8623 4.04676C63.6714 3.75419 63.4161 3.50916 63.116 3.33043L62.6044 4.18966ZM33.3836 4.99997C33.3836 5.26253 33.2793 5.51434 33.0936 5.70001L33.8007 6.40711C34.1739 6.03392 34.3836 5.52775 34.3836 4.99997H33.3836ZM33.0936 5.70001C32.9079 5.88567 32.6561 5.98997 32.3936 5.98997V6.98997C32.9213 6.98997 33.4275 6.78031 33.8007 6.40711L33.0936 5.70001ZM32.3936 5.98997C32.3971 5.98997 32.3305 5.98369 32.1979 5.92075C32.078 5.86384 31.9411 5.77799 31.8135 5.67032C31.5402 5.43976 31.4036 5.19406 31.4036 4.99997H30.4036C30.4036 5.62588 30.8019 6.12518 31.1686 6.43462C31.361 6.59695 31.5704 6.72985 31.7692 6.82419C31.9553 6.9125 32.18 6.98997 32.3936 6.98997V5.98997ZM31.4034 5.01288C31.4102 4.74899 31.5181 4.4978 31.7047 4.31114L30.9976 3.60403C30.6297 3.97191 30.4172 4.46698 30.4037 4.98707L31.4034 5.01288ZM31.7047 4.31114C31.8914 4.12448 32.1426 4.01662 32.4065 4.0098L32.3806 3.01014C31.8606 3.02357 31.3655 3.23616 30.9976 3.60403L31.7047 4.31114ZM32.4579 4.00582C32.5838 3.98948 32.7119 4.00228 32.8322 4.04323L33.1545 3.09661C32.8894 3.00632 32.607 2.9781 32.3293 3.01412L32.4579 4.00582ZM32.8322 4.04323C32.9524 4.08419 33.0617 4.1522 33.1515 4.24203L33.8586 3.53492C33.6605 3.33686 33.4197 3.18691 33.1545 3.09661L32.8322 4.04323ZM33.1515 4.24203C33.2413 4.33186 33.3093 4.44111 33.3503 4.56137L34.2969 4.23901C34.2066 3.97386 34.0567 3.73298 33.8586 3.53492L33.1515 4.24203ZM33.3503 4.56137C33.3912 4.68163 33.404 4.80969 33.3877 4.93567L34.3794 5.06427C34.4154 4.78649 34.3872 4.50416 34.2969 4.23901L33.3503 4.56137Z" fill="#494A4A"/>
</g>
</g>
<defs>
<clipPath id="clip0_426_392">
<rect width="64" height="64" fill="white" transform="translate(0.393555)"/>
</clipPath>
</defs>
</svg>
