<svg width="64" height="64" viewBox="0 0 64 64" fill="none" xmlns="http://www.w3.org/2000/svg">
<g id="Pictogram-folder-setting" clip-path="url(#clip0_622_41960)">
<g id="stroke-default">
<path id="2px" d="M60.9996 32.8C60.9996 29.4 60.8996 23.3 60.6996 21.2C60.4996 19.1 59.3996 17.5 56.7996 17.3C49.5996 16.9 15.8996 16.7 4.9996 17.5C2.8996 17.7 1.6996 19 1.4996 20.7C0.599596 26.9 1.0996 42.7 2.2996 51.9C2.6996 55.1 5.0996 56.3 8.1996 56.6C11.2996 56.9 20.7996 56.9 30.3996 56.9M3.9996 17.3C3.9996 15.3 3.9996 12.4 4.1996 10.8C4.4996 8.49999 5.2996 7.49999 7.8996 7.19999C10.1996 6.89999 14.7996 6.89999 16.8996 6.99999C18.8996 6.99999 19.8996 7.39999 21.0996 8.29999C22.0996 8.99999 22.9996 10.7 23.7996 11.3C24.8996 12 26.1996 12 27.7996 12C37.0996 12 48.2996 12 52.5996 12.2C55.1996 12.3 56.2996 13.5 56.6996 14.9C56.8996 15.8 56.9996 16.5 56.8996 17.3M59.8998 39.4001C59.8998 40.3001 57.2998 42.6001 57.2998 42.6001L58.7998 45.3001C58.7998 45.3001 61.7998 45.1001 62.5998 46.0001C63.3998 46.9001 62.9998 51.9001 62.2998 52.7001C61.5998 53.5001 58.4998 53.5001 58.4998 53.5001L56.8998 56.1001C56.8998 56.1001 58.4998 58.5001 58.0998 59.9001C57.6998 61.3001 53.4998 63.2001 52.2998 62.9001C51.0998 62.6001 49.7998 59.9001 49.7998 59.9001H46.6998C46.6998 59.9001 45.4998 62.7001 44.2998 62.9001C42.1998 63.3001 37.9998 59.7001 37.5998 58.5001C37.1998 57.3001 39.7998 55.5001 39.7998 55.5001L38.2998 52.8001C38.2998 52.8001 35.2998 52.7001 34.3998 52.1001C33.4998 51.5001 34.2998 44.8001 34.9998 44.2001C35.6998 43.6001 38.5998 44.7001 38.5998 44.7001L40.1998 42.1001C40.1998 42.1001 38.9998 39.1001 39.2998 38.3001C39.5998 37.5001 43.3998 35.1001 44.7998 35.3001C46.1998 35.5001 47.3998 38.2001 47.3998 38.2001C47.3998 38.2001 49.4998 38.1001 50.9998 38.3001C51.5998 38.3001 51.8998 35.1001 52.8998 35.0001C53.8998 34.9001 59.9998 38.5001 59.8998 39.4001Z" stroke="#494A4A" stroke-width="2" stroke-linecap="round" stroke-linejoin="round"/>
<path id="1px" d="M6.5 49C6.5 50.2 6.5 51.3 7.1 51.8C7.9 52.4 9 52.5 10.7 52.5M42.9 43.3C42.6 43.8 41.5 45.5001 41.2 46.3001M47.8 56.6001C48.6 56.6001 50.5 56.4001 51.1 56.6001C51.7 56.8001 52.1 57.7001 52.4 58.3001M52.5 48.0001C52.5 49.9331 50.933 51.5001 49 51.5001C47.067 51.5001 45.5 49.9331 45.5 48.0001C45.5 46.0671 47.067 44.5 49 44.5C50.933 44.5 52.5 46.0671 52.5 48.0001Z" stroke="#494A4A" stroke-linecap="round" stroke-linejoin="round"/>
</g>
</g>
<defs>
<clipPath id="clip0_622_41960">
<rect width="64" height="64" fill="white"/>
</clipPath>
</defs>
</svg>
