<svg width="64" height="64" viewBox="0 0 64 64" fill="none" xmlns="http://www.w3.org/2000/svg">
<g id="Pictogram-computer-hardware">
<g id="stroke-default">
<path id="2px-stroke-default" d="M1 8C2.6 8 4.1 8 5 8C7 8 8.1 9.9 8 12C7.9 14.1 8 55.8 8 59M9 14.0004C12 14.0004 58.9 11.9004 60.6 13.0004C63.6 15.0004 63.6 41.0004 61.6 47.0004C61.2 48.3004 59.6 50.0004 56.6 50.0004C53.6 50.0004 9 49.0004 8 49.0004M13.1 49.0996C13.1 50.5996 12.7 53.7996 13.5 54.7996C14.7 56.1996 34.6 56.2996 35.8 55.5996C36.9 54.8996 36.7 51.0996 36.9 49.5996M41 49.9004C41.9 49.9004 41 54.4004 41.4 55.4004C41.8 56.4004 47.5 55.8004 47.9 55.4004C48.3 55.0004 48.1 50.5004 48.3 49.9004M56.3 31.1004C56.3 37.0098 51.6438 41.8004 45.9 41.8004C40.1562 41.8004 35.5 37.0098 35.5 31.1004C35.5 25.1909 40.1562 20.4004 45.9 20.4004C51.6438 20.4004 56.3 25.1909 56.3 31.1004Z" stroke="#494A4A" stroke-width="2" stroke-linecap="round" stroke-linejoin="round"/>
<path id="1px-stroke-default" d="M15.6001 24.5C16.1001 30.5 15.9001 37.5 15.9001 37.5M21 24.0996C21 24.0996 21.6 35.6996 21.4 37.4996M45.9 30.7995C43.9 26.3995 48.7 23.0995 53.9 24.2995M55.2001 35.8999C55.9001 32.7999 52.9001 27.3999 46.1001 31.3999M35.7998 33.9C39.5998 40.3 48.2998 33.9 45.8998 31.5M44.7998 41.8002C50.1998 40.9002 52.2998 33.0002 46.1998 31.7002M42.5999 20.9004C37.4999 25.7004 40.5999 33.4004 45.8999 31.4004M58.7001 42.5996C58.7001 44.5996 57.7001 46.6996 55.6001 46.5996M38.5002 9.79981C38.0002 8.29981 37.4002 6.2998 37.2002 5.7998M43.2999 9.10039C43.2999 8.10039 42.8999 3.70039 42.9999 2.90039M48.7002 9.10039C48.7002 7.90039 49.2002 5.70039 49.2002 5.40039M53.3999 9.79981C53.5999 8.99981 54.0999 8.6998 53.8999 8.2998" stroke="#494A4A" stroke-linecap="round" stroke-linejoin="round"/>
</g>
</g>
</svg>
