<svg width="64" height="64" viewBox="0 0 64 64" fill="none" xmlns="http://www.w3.org/2000/svg">
<g id="Pictogram-file-drag">
<g id="stroke-default">
<path id="2px" d="M18.7003 54.7C17.6003 54.7 16.7003 54.9 16.0003 54.9C12.8003 55.1 10.8003 53.9 10.3003 49.8C8.7003 38 6.8003 20.9 6.0003 11.8C5.6003 7.2 7.7003 4.8 12.0003 4C19.4003 2.6 34.4003 1.1 38.7003 1C41.7003 1 42.7003 2.3 43.5003 5.9M18.2007 23.6C18.4007 21.3 19.3007 19.7 21.3007 19.3C22.5007 19 25.4007 18.7 27.0007 18.3C29.4007 17.7 30.4007 16.7 30.9007 14.3C31.2007 12.9 31.3007 10.6 31.4007 9.4C31.6007 7.7 33.3007 6 35.9007 6M36.3007 57.6C29.9007 57.6 26.8007 57.5 23.3007 57.3C20.1007 57.1 18.3007 55.6 18.3007 51.5C18.3007 46 18.2007 27.9 18.2007 24.6C18.2007 17.9 21.5007 15.4 25.3007 11.6C28.3007 8.5 31.1007 6 36.0007 6C39.4007 6 48.1007 6 52.4007 6.5C55.4007 6.8 56.2007 8.2 56.5007 12C56.8007 15.2 57.0007 27.8 57.0007 37.6M41.0004 59.9C40.6004 56.7 37.5004 53.1 36.1004 48.5C35.5004 46.6 37.5004 39.9 39.8004 46C38.1004 39 41.5004 36 45.3004 39.3C46.1004 37.2 49.8004 37.6 49.9004 39.3C51.4004 38.6 53.5004 39 54.0004 40.9C57.7004 39.6 58.6004 46.8 57.4004 50.6C56.7004 52.7 54.8004 56.6 54.5004 59.3C54.0004 63.7 41.4004 64 40.9004 59.7L41.0004 59.9Z" stroke="#494A4A" stroke-width="2" stroke-linecap="round" stroke-linejoin="round"/>
<path id="1px" d="M49.3004 60.3C47.4004 60.6 45.5004 60.6 44.4004 60M50.0005 9.39994C52.2005 9.19994 53.6005 10.1999 53.7005 12.4999M12.2005 7.40039C9.4005 8.10039 9.0005 9.90039 9.8005 13.5004M34.8003 23.8996C35.9003 23.8996 48.1003 23.2996 48.8003 23.5996M28.0005 29.7998C29.7005 29.7998 47.3005 29.2998 48.8005 29.5998M28.0005 35.5C30.4005 35.5 34.9005 35.5 36.4005 35.5" stroke="#494A4A" stroke-linecap="round" stroke-linejoin="round"/>
</g>
</g>
</svg>
