<svg width="64" height="64" viewBox="0 0 64 64" fill="none" xmlns="http://www.w3.org/2000/svg">
<g id="Pictogram-HR2" clip-path="url(#clip0_624_21073)">
<g id="stroke-default">
<path id="2px" d="M46 36.9998C46 36.4475 45.5523 35.9998 45 35.9998C44.4477 35.9998 44 36.4475 44 36.9998H46ZM56.17 45.0798L56.7116 44.239L56.7029 44.2336L56.17 45.0798ZM50.2119 56.2821C49.6609 56.3197 49.2447 56.7969 49.2823 57.3479C49.3199 57.8989 49.7971 58.3151 50.3481 58.2774L50.2119 56.2821ZM35.4536 40.4722C35.0186 40.8125 34.9419 41.4411 35.2823 41.876C35.6226 42.311 36.2511 42.3876 36.6861 42.0473L35.4536 40.4722ZM38.9983 36.9437C38.9673 36.3923 38.4952 35.9704 37.9438 36.0013C37.3924 36.0323 36.9705 36.5044 37.0014 37.0558L38.9983 36.9437ZM30.31 37.92C30.31 37.3677 29.8623 36.92 29.31 36.92C28.7577 36.92 28.31 37.3677 28.31 37.92H30.31ZM43.42 48.03L42.8857 48.8753L42.8889 48.8773L43.42 48.03ZM4.19 48.3L4.75673 49.1239L4.76266 49.1198L4.19 48.3ZM19.56 37.92C19.56 37.3677 19.1123 36.92 18.56 36.92C18.0077 36.92 17.56 37.3677 17.56 37.92H19.56ZM36.4783 34.0004C36.1858 33.5319 35.5689 33.3893 35.1004 33.6817C34.632 33.9742 34.4893 34.5911 34.7817 35.0596L36.4783 34.0004ZM41.5 38L41.445 38.9985C41.4633 38.9995 41.4816 39 41.5 39V38ZM41.5 15L41.4603 15.9992C41.4736 15.9997 41.4868 16 41.5 16V15ZM35.6317 15.7542C35.1811 16.0736 35.0748 16.6978 35.3942 17.1483C35.7136 17.5989 36.3378 17.7052 36.7883 17.3858L35.6317 15.7542ZM62.25 4.36L61.3486 4.79294L61.349 4.7939L62.25 4.36ZM55.92 14.72L55.2542 13.9737L55.2448 13.9823L55.92 14.72ZM52.85 19.55L51.8942 19.2559C51.7578 19.6994 51.9443 20.1785 52.3447 20.4129C52.7451 20.6474 53.2541 20.5756 53.5741 20.2397L52.85 19.55ZM46.47 10.76L47.4093 10.4168L47.4067 10.4099L46.47 10.76ZM51.34 10.25C51.8923 10.25 52.34 9.80233 52.34 9.25005C52.34 8.69776 51.8923 8.25005 51.34 8.25005V10.25ZM50.69 8.90005C50.69 9.45233 51.1377 9.90005 51.69 9.90005C52.2423 9.90005 52.69 9.45233 52.69 8.90005H50.69ZM54.63 9.03008C55.1823 9.03008 55.63 8.58236 55.63 8.03008C55.63 7.47779 55.1823 7.03008 54.63 7.03008V9.03008ZM53.98 7.68008C53.98 8.23236 54.4277 8.68008 54.98 8.68008C55.5323 8.68008 55.98 8.23236 55.98 7.68008H53.98ZM57.87 7.98003C58.4223 7.98003 58.87 7.53231 58.87 6.98003C58.87 6.42774 58.4223 5.98003 57.87 5.98003V7.98003ZM57.22 6.63003C57.22 7.18231 57.6677 7.63003 58.22 7.63003C58.7723 7.63003 59.22 7.18231 59.22 6.63003H57.22ZM44 36.9998C44 38.779 44.5253 40.1528 45.4419 41.2128C46.3352 42.2458 47.535 42.9044 48.7518 43.3958C49.9554 43.8818 51.3063 44.2509 52.486 44.6187C53.7095 45.0001 54.7841 45.3887 55.6371 45.9259L56.7029 44.2336C55.6109 43.5458 54.3167 43.0944 53.0812 42.7093C51.8018 42.3105 50.6033 41.9865 49.5007 41.5412C48.4112 41.1013 47.548 40.5906 46.9547 39.9046C46.3847 39.2454 46 38.3505 46 36.9998H44ZM55.6285 45.9204C55.833 46.0522 56.1157 46.3632 56.4252 46.9216C56.7241 47.4607 57.0025 48.1472 57.2408 48.9186C57.7188 50.4666 58 52.2419 58 53.6298H60C60 52.0176 59.6812 50.0429 59.1517 48.3284C58.8862 47.4686 58.559 46.6457 58.1744 45.9519C57.8006 45.2775 57.322 44.6323 56.7115 44.2391L55.6285 45.9204ZM58 53.6298C58 53.421 58.0925 53.3427 58.0245 53.435C57.9759 53.501 57.8743 53.6122 57.6973 53.7598C57.3469 54.0521 56.7973 54.4075 56.0695 54.762C54.6188 55.4688 52.5638 56.1215 50.2119 56.2821L50.3481 58.2774C52.9762 58.098 55.2812 57.3708 56.9455 56.56C57.7752 56.1558 58.4719 55.7181 58.9783 55.2957C59.2298 55.0859 59.4593 54.8594 59.6347 54.6213C59.7906 54.4097 60 54.061 60 53.6298H58ZM36.6861 42.0473C37.4544 41.4461 38.066 40.668 38.4686 39.7793L36.6468 38.954C36.3773 39.5489 35.9679 40.0697 35.4536 40.4722L36.6861 42.0473ZM38.4686 39.7793C38.8712 38.8907 39.0529 37.9178 38.9983 36.9437L37.0014 37.0558C37.038 37.7078 36.9163 38.3591 36.6468 38.954L38.4686 39.7793ZM28.31 37.92C28.31 40.0965 28.9561 41.7553 30.0703 43.0284C31.1601 44.2737 32.6317 45.0737 34.1503 45.6779C35.6551 46.2766 37.3425 46.731 38.8439 47.196C40.3899 47.6748 41.7762 48.174 42.8857 48.8753L43.9543 47.1847C42.6038 46.331 40.9963 45.7689 39.4355 45.2855C37.83 44.7883 36.2974 44.3797 34.8897 43.8196C33.4958 43.265 32.3624 42.6107 31.5753 41.7113C30.8126 40.8397 30.31 39.6635 30.31 37.92H28.31ZM42.8889 48.8773C43.2045 49.0752 43.589 49.5061 43.9889 50.2191C44.3784 50.9133 44.7356 51.7903 45.0386 52.7674C45.6462 54.7268 46 56.9719 46 58.72H48C48 56.7481 47.6088 54.3032 46.9489 52.1751C46.6181 51.1085 46.211 50.0923 45.7332 49.2406C45.266 48.4076 44.6805 47.6398 43.9511 47.1827L42.8889 48.8773ZM46 58.72C46 58.7236 46.0006 58.7391 45.9809 58.777C45.9585 58.8201 45.9086 58.893 45.8036 58.9903C45.5859 59.1921 45.209 59.4278 44.6318 59.6735C43.4831 60.1623 41.7782 60.5929 39.6492 60.9453C35.4096 61.647 29.7186 62.0025 24 62.0025C18.2814 62.0025 12.5904 61.647 8.35079 60.9453C6.22181 60.5929 4.51686 60.1623 3.36816 59.6735C2.79099 59.4278 2.41415 59.1921 2.19637 58.9903C2.09144 58.893 2.0415 58.8201 2.01907 58.777C1.99936 58.7391 2 58.7236 2 58.72H0C0 59.4465 0.373976 60.0281 0.836832 60.4571C1.29288 60.8798 1.90432 61.2241 2.58496 61.5137C3.95189 62.0955 5.84069 62.5571 8.02421 62.9185C12.4096 63.6443 18.2186 64.0025 24 64.0025C29.7814 64.0025 35.5904 63.6443 39.9758 62.9185C42.1593 62.5571 44.0481 62.0955 45.415 61.5137C46.0957 61.2241 46.7071 60.8798 47.1632 60.4571C47.626 60.0281 48 59.4465 48 58.72H46ZM2 58.72C2 57.0718 2.30949 54.8827 2.84923 52.9546C3.11847 51.9928 3.437 51.125 3.78608 50.4367C4.147 49.725 4.48969 49.3076 4.75671 49.1239L3.62329 47.4761C2.94531 47.9424 2.41675 48.715 2.00236 49.5321C1.57613 50.3725 1.21528 51.3722 0.923267 52.4154C0.340512 54.4973 0 56.8682 0 58.72H2ZM4.76266 49.1198C5.82845 48.3753 7.19891 47.8618 8.75767 47.3839C10.2605 46.9231 11.9994 46.4808 13.5342 45.8972C15.0917 45.3049 16.6126 44.5099 17.7406 43.233C18.8935 41.9278 19.56 40.2067 19.56 37.92H17.56C17.56 39.7833 17.0315 41.0147 16.2416 41.9089C15.4268 42.8313 14.257 43.4826 12.8233 44.0278C11.3668 44.5817 9.81391 44.9681 8.17139 45.4717C6.58484 45.9582 4.95655 46.5447 3.61734 47.4802L4.76266 49.1198ZM24 41C29.6005 41 35 34.7612 35 24H33C33 34.3388 27.9195 39 24 39V41ZM35 24C35 19.823 34.0151 16.5546 32.0768 14.3187C30.1193 12.0607 27.3152 11 24 11V13C26.8748 13 29.0707 13.9043 30.5657 15.6288C32.0799 17.3754 33 20.107 33 24H35ZM24 11C20.687 11 17.8824 12.0518 15.9238 14.3068C13.9845 16.5396 13 19.8089 13 24H15C15 20.0911 15.9205 17.3604 17.4337 15.6182C18.9276 13.8982 21.123 13 24 13V11ZM13 24C13 34.7612 18.3995 41 24 41V39C20.0805 39 15 34.3388 15 24H13ZM34.7817 35.0596C35.4951 36.2023 36.4729 37.1567 37.6326 37.8423L38.6504 36.1206C37.7668 35.5983 37.0218 34.8711 36.4783 34.0004L34.7817 35.0596ZM37.6326 37.8423C38.7923 38.5278 40.0999 38.9244 41.445 38.9985L41.555 37.0015C40.5302 36.945 39.5339 36.6429 38.6504 36.1206L37.6326 37.8423ZM41.5 39C46.3138 39 51 33.7681 51 24.83H49C49 33.2719 44.6862 37 41.5 37V39ZM51 24.83C51 21.3654 50.1538 18.6333 48.4654 16.7594C46.7625 14.8694 44.3368 14 41.5 14V16C43.9232 16 45.7475 16.7306 46.9796 18.0981C48.2262 19.4817 49 21.6646 49 24.83H51ZM41.5397 14.0008C39.4308 13.9171 37.3535 14.5336 35.6317 15.7542L36.7883 17.3858C38.1499 16.4206 39.7926 15.933 41.4603 15.9992L41.5397 14.0008ZM61.349 4.7939C62.0744 6.30014 62.1054 7.4837 61.825 8.43162C61.5369 9.40534 60.884 10.2513 60.036 10.9918C59.1886 11.7318 58.2002 12.32 57.3247 12.792C56.8654 13.0396 56.5145 13.2152 56.1498 13.4089C55.8532 13.5665 55.4897 13.7638 55.2543 13.9738L56.5857 15.4662C56.5786 15.4726 56.6077 15.4471 56.7111 15.3849C56.8058 15.3278 56.9298 15.2593 57.0881 15.1752C57.3751 15.0227 57.8363 14.7882 58.2738 14.5524C59.1917 14.0575 60.3352 13.3857 61.3515 12.4982C62.3673 11.6112 63.31 10.4622 63.7428 8.999C64.1833 7.51005 64.0606 5.81486 63.151 3.9261L61.349 4.7939ZM55.2448 13.9823C54.9443 14.2574 54.7317 14.6572 54.5807 14.955C54.4952 15.1237 54.4056 15.3111 54.3154 15.4986C54.2234 15.69 54.1273 15.8892 54.0214 16.0987C53.6002 16.9315 53.032 17.9089 52.1259 18.8603L53.5741 20.2397C54.668 19.0911 55.3398 17.9235 55.8061 17.0013C55.922 16.7721 56.0258 16.5569 56.118 16.365C56.212 16.1694 56.2909 16.0047 56.3646 15.8594C56.532 15.5291 56.6007 15.4526 56.5952 15.4577L55.2448 13.9823ZM53.8058 19.8441C54.0529 19.0409 54.1354 18.0036 53.975 16.9976C53.8151 15.9945 53.3927 14.9028 52.5093 14.1281L51.1907 15.6319C51.6073 15.9972 51.8849 16.5905 52 17.3124C52.1146 18.0314 52.0471 18.7591 51.8942 19.2559L53.8058 19.8441ZM52.5093 14.1281C52.0506 13.7258 51.4886 13.4696 51.0017 13.2693C50.4646 13.0483 50.02 12.8941 49.5315 12.6604C48.6404 12.2341 47.8612 11.6537 47.4093 10.4168L45.5307 11.1032C46.2188 12.9863 47.4796 13.8959 48.6685 14.4646C49.22 14.7284 49.8254 14.9479 50.2408 15.1189C50.7064 15.3104 50.9994 15.4642 51.1907 15.6319L52.5093 14.1281ZM47.4067 10.4099C46.7534 8.66225 47.0692 7.11921 47.9668 5.81998C48.8888 4.48539 50.4484 3.3872 52.2624 2.71523C54.0736 2.04428 56.0405 1.83525 57.7091 2.17462C59.3613 2.51066 60.6623 3.36396 61.3486 4.79294L63.1514 3.92706C62.1327 1.80604 60.2199 0.644336 58.1077 0.21475C56.012 -0.211496 53.6639 0.0632204 51.5676 0.839773C49.4741 1.6153 47.5337 2.92836 46.3213 4.68315C45.0846 6.47329 44.6316 8.69775 45.5333 11.1101L47.4067 10.4099ZM51.34 8.25005C51.699 8.25005 51.99 8.54107 51.99 8.90005H49.99C49.99 9.64563 50.5944 10.25 51.34 10.25V8.25005ZM51.99 8.90005C51.99 9.25903 51.699 9.55005 51.34 9.55005V7.55005C50.5944 7.55005 49.99 8.15447 49.99 8.90005H51.99ZM51.34 9.55005C50.981 9.55005 50.69 9.25903 50.69 8.90005H52.69C52.69 8.15447 52.0856 7.55005 51.34 7.55005V9.55005ZM54.63 7.03008C54.989 7.03008 55.28 7.32108 55.28 7.68008H53.28C53.28 8.42567 53.8845 9.03008 54.63 9.03008V7.03008ZM55.28 7.68008C55.28 8.03907 54.989 8.33008 54.63 8.33008V6.33008C53.8845 6.33008 53.28 6.93448 53.28 7.68008H55.28ZM54.63 8.33008C54.271 8.33008 53.98 8.03906 53.98 7.68008H55.98C55.98 6.9345 55.3756 6.33008 54.63 6.33008V8.33008ZM57.87 5.98003C58.229 5.98003 58.52 6.27105 58.52 6.63003H56.52C56.52 7.37561 57.1244 7.98003 57.87 7.98003V5.98003ZM58.52 6.63003C58.52 6.98901 58.229 7.28003 57.87 7.28003V5.28003C57.1244 5.28003 56.52 5.88445 56.52 6.63003H58.52ZM57.87 7.28003C57.511 7.28003 57.22 6.98902 57.22 6.63003H59.22C59.22 5.88444 58.6156 5.28003 57.87 5.28003V7.28003Z" fill="#494A4A"/>
<path id="1px" d="M53.1501 33.7498L57.6201 35.3198M55.9703 31.0698L53.5603 30.9998M53.1402 37L51.8002 35.9M7.8302 49.74C5.5602 50.48 5.4902 50.74 4.7002 53.74" stroke="#494A4A" stroke-linecap="round" stroke-linejoin="round"/>
</g>
</g>
<defs>
<clipPath id="clip0_624_21073">
<rect width="64" height="64" fill="white"/>
</clipPath>
</defs>
</svg>
