<svg width="64" height="64" viewBox="0 0 64 64" fill="none" xmlns="http://www.w3.org/2000/svg">
<g id="Pictogram-invoice-sent">
<g id="stroke-default">
<path id="2px" d="M11 22.1C11.2 19.6 12.2 17.9 14.4 17.4C15.6 17.1 18.8 16.7 20.5 16.3C23.1 15.7 24.2 14.5 24.8 11.9C25.2 10.4 25.2 7.9 25.4 6.6C25.7 4.7 27.4 3 30.3 3M30.3 3C34 3 43.4 3.1 48 3.5C51.2 3.8 52.1 5.3 52.5 9.4C53.1 15.4 53 29.4 53 34.5M30.3 3C25 3 21.9 5.7 18.7 9C14.6 13.2 11 15.8 11 23.1C11 26.7 11.1 47.6 11.2 53.5C11.2 56.8 13.4 58.3 15.8 58.4C21.2 58.8 30.7 58.8 32 58.8M39.7 12.7997C36.3 10.0997 34.6 15.6997 37.7 15.8997C41.3 16.0997 40.9 21.8997 36 19.6997M38 10.0996V11.8996M38 20.2002V22.0002M32.9999 47.1997C33.9999 42.8997 61.0999 36.2997 62.6999 37.0997C64.2999 37.8997 57.8999 59.7997 53.1999 60.9997C50.7999 61.5997 48.2999 53.9997 46.6999 53.9997C45.6999 53.9997 42.9999 57.2997 42.3999 56.9997C41.3999 56.4997 42.3999 52.6997 41.0999 51.5997C39.8999 50.6997 32.3999 49.6997 32.9999 47.1997Z" stroke="#494A4A" stroke-width="2" stroke-linecap="round" stroke-linejoin="round"/>
<path id="1px" d="M14.4998 51.5C14.4998 54.4 14.2998 55.5 20.3998 55.5M25 28.4995C26.4 28.3995 42.2 28.4995 43 28.4995M21.3999 34.4995C22.8999 34.3995 42.1999 34.4995 42.9999 34.4995M21.3999 40.4995C22.8999 40.3995 32.4999 40.4995 33.2999 40.4995M41.0999 51.5997C50.4999 43.4997 62.9999 37.0997 62.9999 37.0997C62.9999 37.0997 52.2999 48.5997 45.9999 53.7997M39.4999 58.5997C38.3999 59.6997 36.9999 60.2997 35.4999 60.5997M40.4999 60.4997C38.9999 62.1997 36.8999 63.1997 34.3999 63.4997M51.4999 55.4997C52.3999 56.9997 52.8999 56.8997 54.6999 54.4997" stroke="#494A4A" stroke-linecap="round" stroke-linejoin="round"/>
</g>
</g>
</svg>
