<svg width="64" height="64" viewBox="0 0 64 64" fill="none" xmlns="http://www.w3.org/2000/svg">
<g id="  Pictogram-bulb-2" clip-path="url(#clip0_426_2039)">
<g id="stroke-default">
<path id="2px" d="M22.6699 47.75C22.7084 50.7755 23.0433 53.7899 23.6699 56.75C23.7631 57.0775 23.932 57.3786 24.1631 57.6287C24.3941 57.8789 24.6808 58.0712 24.9999 58.19C27.6899 59.26 35.6499 59.27 38.3799 58.19C38.6908 58.0608 38.9678 57.862 39.1897 57.6088C39.4116 57.3557 39.5725 57.0551 39.6599 56.73C40.3546 53.7812 40.6904 50.7593 40.6599 47.73M37.4699 58.46C36.4699 61.23 34.6699 63 31.6699 63C28.6699 63 26.9199 61.26 25.8999 58.46M14.6699 21.25C14.6699 -1.75 48.6699 -1.75 48.6699 21.25C48.6699 31 41.6699 33 41.6699 46C41.6699 50.75 21.6699 50.75 21.6699 46C21.6699 33 14.6699 31 14.6699 21.25Z" stroke="#494A4A" stroke-width="2" stroke-linecap="round" stroke-linejoin="round"/>
<path id="1px" d="M30.7002 45.1601C29.9402 38.8401 36.5202 36.0001 36.0002 24.2101C35.7302 18.3501 41.9202 20.8001 40.0002 24.9201C37.7302 29.9201 24.5402 28.9201 23.1202 23.8101C22.1202 20.1101 27.0002 19.0701 26.9202 23.3201C26.6902 37.0001 31.2002 36.6101 33.6902 43.6801M54.0002 19.3301C55.6902 19.5301 57.4502 17.8001 59.2902 18.4701C59.9702 18.7201 56.2902 21.4701 57.2902 21.9101C58.7702 22.5201 60.6202 19.8501 63.2902 20.1901M54.0002 10.7501C55.9302 9.61006 58.3002 9.26006 58.7502 8.52006C58.9702 8.15006 56.1702 7.64006 56.5202 7.65006C57.7192 7.53372 58.8587 7.07167 59.8002 6.32006M9.43016 19.1801C3.00016 20.5501 8.57016 16.4301 1.67016 19.0001M11.1902 10.7501C8.49211 9.57507 5.5061 9.22705 2.61016 9.75006C1.50016 9.92006 10.4502 5.82006 7.94016 5.30006C6.22016 4.94006 4.43016 6.30006 0.160156 5.63006M17.4002 4.37006C16.7802 2.00006 11.4602 1.05006 15.8402 0.560059M53.7002 27.1701C53.7002 27.1701 56.8802 27.0301 56.8802 28.4501C56.8802 29.8701 57.8802 29.1501 57.8802 29.1501M6.22016 28.9001C8.50016 30.2501 7.66016 26.7801 9.96016 27.9001" stroke="#494A4A" stroke-linecap="round" stroke-linejoin="round"/>
</g>
</g>
<defs>
<clipPath id="clip0_426_2039">
<rect width="64" height="64" fill="white"/>
</clipPath>
</defs>
</svg>
