<svg width="64" height="64" viewBox="0 0 64 64" fill="none" xmlns="http://www.w3.org/2000/svg">
<g id="Pictogram-invoice-declined-2">
<g id="stroke-default">
<path id="2px" d="M11 22.1C11.2 19.6 12.2 17.9 14.4 17.4C15.6 17.1 18.8 16.7 20.5 16.3C23.1 15.7 24.2 14.5 24.8 11.9C25.2 10.3 25.2 7.9 25.4 6.6C25.7 4.7 27.4 3 30.3 3M30.3 3C33.9 3 43.4 3.1 48 3.5C51.3 3.8 52.1 5.3 52.5 9.4C53.1 15.5 53 24.9 53 30M30.3 3C25 3 22 5.7 18.7 9C14.6 13.2 11 15.9 11 23.2C11 26.8 11.1 47.7 11.2 53.6C11 56.2 13 58.4 15.6 58.6C15.6 58.6 15.7 58.6 15.8 58.6C21.2 59 26.6 59 31.9 59M39.7 12.8C36.4 10.1 34.6 15.7 37.7 15.9C41.3 16.1 40.9 21.9 36 19.7M38 10.1V11.9M38 20.2V22M63 48.5C63 56.5081 56.5081 63 48.5 63C40.4919 63 34 56.5081 34 48.5C34 40.4919 40.4919 34 48.5 34C56.5081 34 63 40.4919 63 48.5Z" stroke="#494A4A" stroke-width="2" stroke-linecap="round" stroke-linejoin="round"/>
<path id="1px" d="M14.4998 51.5C14.4998 54.5 14.2998 55.5 20.3998 55.5M24.9998 28.5C26.3998 28.4 42.2998 28.5 42.9998 28.5M21.3998 34.5C22.8998 34.4 35.1998 34.5 35.9998 34.5M21.3998 40.5C22.8998 40.4 30.1998 40.5 30.9998 40.5M54.4998 52.2C54.4998 51.6 51.6998 49.3 51.6998 48.8C51.6998 48.3 54.5998 46.2 54.7998 45.4C54.9998 44.7 52.4998 42.6 52.0998 42.7C51.4998 42.8 49.2998 45.4 48.6998 45.4C48.0998 45.4 45.7998 42.5 45.2998 42.5C44.5998 42.5 42.6998 44.6 42.8998 45.4C42.9998 46 45.4998 48.2 45.4998 48.6C45.4998 49 42.6998 51.3 42.5998 51.9C42.5998 52.7 44.6998 54.9 45.2998 54.5C45.8998 54.1 48.1998 51.7 48.5998 51.8C48.9998 51.9 50.7998 54.3 51.6998 54.6C52.6998 54.9 54.5998 52.9 54.4998 52.3V52.2Z" stroke="#494A4A" stroke-linecap="round" stroke-linejoin="round"/>
</g>
</g>
</svg>
