<svg width="64" height="64" viewBox="0 0 64 64" fill="none" xmlns="http://www.w3.org/2000/svg">
<g id="Pictogram-contract" clip-path="url(#clip0_426_2381)">
<g id="stroke-default">
<path id="2px" d="M22.7101 56.5698C23.5401 55.5698 25.6001 57.2498 25.5901 59.9498C25.5901 65.2098 14.9801 64.1298 13.3101 53.3098C11.5601 41.9098 16.7801 34.4298 16.2501 18.9398C16.0001 11.7898 11.0001 4.99984 3.87011 7.80984M3.87011 7.80984C-1.85989 10.0698 1.94011 23.6098 7.63011 22.0898M3.87011 7.80984C13.2901 4.42984 38.7301 1.14984 46.4801 1.08984C49.1401 1.08984 53.1401 7.74984 54.0501 12.1898C56.4901 24.0598 48.2301 44.0598 54.3901 50.2998M7.63011 22.0898C11.8301 20.9698 10.1401 16.0898 7.44011 15.4698C6.14011 15.1498 9.05011 13.0198 14.8501 13.1098M7.63011 22.0898C11.9301 20.5298 13.4401 20.2298 16.2301 20.0898M23.2801 56.2898C25.6301 55.6398 57.9501 49.4898 59.7301 49.8898C62.3201 50.4598 64.2001 55.7698 60.7301 57.1798C56.3701 58.9198 32.7301 62.2698 23.3301 63.0298" stroke="#494A4A" stroke-width="2" stroke-linecap="round" stroke-linejoin="round"/>
<path id="1px" d="M16.4297 49.5699C16.3129 46.5398 16.6329 43.5088 17.3797 40.5699M19.5597 7.48987C17.7497 7.67987 16.9797 7.87987 16.5597 8.30987C17.6167 9.49211 18.311 10.9536 18.5597 12.5199M25.5897 14.4399C27.2297 14.0899 42.5897 11.9899 44.6597 11.7199M26.0697 21.4099C27.9297 21.2599 33.1897 20.4699 34.5597 20.2799M39.4797 19.1899C40.9697 18.9699 44.2797 18.3699 46.3697 18.1899M25.5897 27.5399C28.0597 27.0799 44.3497 24.7299 45.7997 24.5399M24.9997 33.6899C26.7397 33.3899 31.4197 32.6899 32.6697 32.5299M35.9097 31.9999C37.7797 31.5799 43.9097 30.7099 44.6597 30.4799M23.2797 39.9999C27.1497 39.4299 35.1297 38.1099 36.6897 37.8499" stroke="#494A4A" stroke-linecap="round" stroke-linejoin="round"/>
</g>
</g>
<defs>
<clipPath id="clip0_426_2381">
<rect width="64" height="64" fill="white"/>
</clipPath>
</defs>
</svg>
