<svg width="64" height="64" viewBox="0 0 64 64" fill="none" xmlns="http://www.w3.org/2000/svg">
<g id="Pictogram-tax-payment" clip-path="url(#clip0_426_3003)">
<g id="stroke-default">
<path id="2px" d="M46.0002 33.52C46.0002 24.02 45.8102 12.85 45.6902 3M7.33024 3.48C6.91024 14.1 6.84024 38.91 7.66024 54C7.82024 57.28 12.0902 50 14.0002 50C15.9102 50 16.0002 53 18.0002 53C20.0002 53 21.0002 49 23.0002 49C25.0002 49 26.0002 52 27.0002 52C28.0002 52 29.0002 50 30.0002 50C30.5676 50.0837 31.1265 50.2176 31.6702 50.4M6.27024 7.75C5.00024 7.72 3.82024 7.68 2.80024 7.64C0.800236 7.56 0.000236154 3.27 3.00024 3.23C15.0002 3.1 34.7502 3 51.5102 3C53.2402 3 54.0002 8 51.0002 8H47.0602M14.5202 12.5C19.6002 12.62 26.3802 12.25 38.4602 12.5M26.5302 35C26.7502 29.44 26.3002 18.2 26.5302 12.52M57.0002 36.2C60.3902 36.37 62.3602 38.34 62.6602 41.51C63.1306 46.7996 63.1306 52.1204 62.6602 57.41C62.5052 58.8275 61.8504 60.1434 60.8133 61.1219C59.7761 62.1005 58.4243 62.6776 57.0002 62.75C51.7186 63.075 46.4219 63.075 41.1402 62.75C36.6402 62.39 34.8002 60.22 34.3502 56.81C33.8999 51.7166 33.8999 46.5934 34.3502 41.5C34.7402 38.34 36.3502 36.37 40.0102 36.19C45.8002 35.93 51.5802 35.94 57.0002 36.2Z" stroke="#494A4A" stroke-width="2" stroke-linecap="round" stroke-linejoin="round"/>
<path id="1px" d="M16.52 18.47H22.52M16.46 23.46C17.89 23.53 19.22 23.31 22.41 23.46M19.45 28.46C20.4637 28.5689 21.4862 28.5689 22.5 28.46M30.53 18.47C32.53 18.57 34.27 18.06 36.53 18.57M30.53 23.47C32.53 23.47 35.53 23.47 36.65 23.47M30.53 28.46C32 28.46 33.53 28.38 34.53 28.38M42.45 58.41C41.8194 58.535 41.1705 58.535 40.54 58.41C40.2948 58.3684 40.0697 58.2485 39.8984 58.0682C39.7271 57.8879 39.6189 57.657 39.59 57.41C39.475 56.7785 39.475 56.1315 39.59 55.5C39.6289 55.2569 39.7405 55.0313 39.9101 54.8528C40.0796 54.6744 40.2992 54.5514 40.54 54.5C41.1727 54.4 41.8172 54.4 42.45 54.5C42.7023 54.5363 42.9361 54.6533 43.1164 54.8336C43.2966 55.0138 43.4137 55.2476 43.45 55.5C43.575 56.1305 43.575 56.7795 43.45 57.41C43.4012 57.657 43.2801 57.884 43.102 58.0621C42.924 58.2401 42.697 58.3612 42.45 58.41ZM42.45 52.41C41.8194 52.535 41.1705 52.535 40.54 52.41C40.2948 52.3684 40.0697 52.2485 39.8984 52.0682C39.7271 51.8879 39.6189 51.657 39.59 51.41C39.475 50.7785 39.475 50.1315 39.59 49.5C39.6289 49.2569 39.7405 49.0313 39.9101 48.8528C40.0796 48.6744 40.2992 48.5514 40.54 48.5C41.1727 48.4 41.8172 48.4 42.45 48.5C42.7023 48.5363 42.9361 48.6533 43.1164 48.8336C43.2966 49.0138 43.4137 49.2476 43.45 49.5C43.575 50.1305 43.575 50.7795 43.45 51.41C43.4025 51.6576 43.2818 51.8852 43.1035 52.0635C42.9252 52.2418 42.6976 52.3625 42.45 52.41ZM49.46 58.41C48.826 58.534 48.174 58.534 47.54 58.41C47.2948 58.3684 47.0697 58.2485 46.8984 58.0682C46.7271 57.8879 46.6189 57.657 46.59 57.41C46.4751 56.7751 46.4751 56.1248 46.59 55.49C46.6289 55.2469 46.7405 55.0213 46.9101 54.8428C47.0796 54.6644 47.2992 54.5414 47.54 54.49C48.1761 54.39 48.8239 54.39 49.46 54.49C49.7038 54.5345 49.9272 54.6554 50.098 54.8351C50.2687 55.0148 50.378 55.2442 50.41 55.49C50.5401 56.1234 50.5401 56.7766 50.41 57.41C50.3684 57.652 50.256 57.8762 50.0868 58.0543C49.9177 58.2323 49.6995 58.3561 49.46 58.41ZM56.66 58.44C55.9589 58.5199 55.251 58.5199 54.55 58.44C54.2862 58.3945 54.045 58.2628 53.864 58.0656C53.6831 57.8684 53.5726 57.6167 53.55 57.35C53.48 56.93 53.43 51.13 53.55 49.72C53.5493 49.4473 53.6408 49.1823 53.8096 48.9682C53.9784 48.754 54.2147 48.6031 54.48 48.54C55.2281 48.4649 55.9818 48.4649 56.73 48.54C57.29 48.62 57.46 48.89 57.47 49.2C57.56 51.52 57.55 55.7 57.47 57.31C57.4876 57.5632 57.4164 57.8146 57.2685 58.0209C57.1206 58.2272 56.9054 58.3754 56.66 58.44ZM49.45 52.41C48.8223 52.53 48.1776 52.53 47.55 52.41C47.2964 52.3769 47.0608 52.2608 46.8799 52.08C46.6991 51.8991 46.5831 51.6636 46.55 51.41C46.435 50.7785 46.435 50.1315 46.55 49.5C46.5935 49.2507 46.7129 49.0209 46.8919 48.8419C47.0708 48.6629 47.3006 48.5435 47.55 48.5C48.1793 48.3999 48.8206 48.3999 49.45 48.5C49.7023 48.5363 49.9361 48.6533 50.1164 48.8336C50.2966 49.0138 50.4137 49.2476 50.45 49.5C50.57 50.131 50.57 50.779 50.45 51.41C50.4012 51.657 50.2801 51.884 50.102 52.0621C49.924 52.2401 49.697 52.3612 49.45 52.41ZM56.4 45.34C53.99 45.51 42.5 45.59 40.63 45.34C40.3648 45.2935 40.1202 45.167 39.9289 44.9776C39.7377 44.7881 39.6089 44.5447 39.56 44.28C39.479 43.4386 39.479 42.5914 39.56 41.75C39.5993 41.4989 39.7173 41.2667 39.897 41.087C40.0767 40.9073 40.3089 40.7893 40.56 40.75C45.7946 40.4148 51.0453 40.4148 56.28 40.75C56.5382 40.7508 56.7878 40.8424 56.9853 41.0088C57.1827 41.1751 57.3154 41.4057 57.36 41.66C57.5094 42.5706 57.5094 43.4994 57.36 44.41C57.3276 44.6503 57.2153 44.8726 57.0411 45.0413C56.867 45.21 56.6411 45.3152 56.4 45.34Z" stroke="#494A4A" stroke-linecap="round" stroke-linejoin="round"/>
</g>
</g>
<defs>
<clipPath id="clip0_426_3003">
<rect width="64" height="64" fill="white"/>
</clipPath>
</defs>
</svg>
