<svg width="64" height="64" viewBox="0 0 64 64" fill="none" xmlns="http://www.w3.org/2000/svg">
<g id="Pictogram-report-police">
<g id="stroke-default">
<path id="2px" d="M9.5 22.8998C9.7 20.3998 10.7 18.6998 12.9 18.1998C14.1 17.8998 17.3 17.4998 19 17.0998C21.6 16.4998 22.7 15.2998 23.3 12.6998C23.7 11.1998 23.7 8.6998 23.9 7.3998C24.2 5.4998 25.9 3.7998 28.8 3.7998M31.2998 58.6999C26.2998 58.6999 17.4998 58.6999 14.8998 58.4999C11.3998 58.2999 9.4998 56.6999 9.3998 52.1999C9.2998 46.2999 9.2998 27.5999 9.2998 23.9999C9.2998 16.6999 12.8998 13.9999 16.9998 9.8999C20.2998 6.5999 23.3998 3.8999 28.6998 3.8999C32.3998 3.8999 41.8998 3.8999 46.4998 4.3999C49.6998 4.6999 50.5998 6.2999 50.9998 10.2999C51.2998 13.5999 51.1998 17.9999 51.1998 28.2999M53.9999 35C54.9999 34.7 58.0999 37.3 57.8999 38.3C57.7999 39.1 55.8999 40.5 57.5999 43C62.2999 50 61.0999 55.5 52.7999 59C48.4999 60.8 48.6999 62 47.1999 62C45.6999 62 44.8999 60.4 41.2999 58.9C33.8999 55.8 33.4999 50.8 37.5999 43.6C39.0999 41 36.9999 39.6 36.7999 38.6C36.5999 37.8 39.4999 34.7 40.4999 35C43.7999 36.1 49.9999 36.2 53.9999 35Z" stroke="#494A4A" stroke-width="2" stroke-linecap="round" stroke-linejoin="round"/>
<path id="1px" d="M12.9001 51.3999C12.9001 54.2999 12.7001 55.3999 18.9001 55.3999M23.2002 22.1001C23.9002 22.1001 38.2002 21.9001 39.5002 22.1001M17 27.8999C18.1 27.8999 39 28.1999 39.6 28.0999M17 35C19.2 35 31.4 35 32.1 35M57.6001 50.3999C57.6001 51.4999 56.9001 52.7999 56.1001 53.4999M47.7002 42.8998C48.5002 42.8998 49.1002 45.7998 49.5002 46.0998C49.9002 46.3998 53.0002 46.0998 53.1002 46.7998C53.2002 47.4998 50.7002 48.9998 50.6002 49.3998C50.5002 49.7998 51.7002 52.7998 51.1002 53.0998C50.5002 53.3998 48.4002 51.4998 47.8002 51.4998C47.2002 51.4998 45.1002 53.4998 44.4002 53.0998C43.7002 52.6998 45.0002 49.9998 45.0002 49.4998C45.0002 48.9998 42.1002 47.5998 42.4002 46.7998C42.7002 45.9998 45.4002 46.1998 45.9002 45.8998C46.4002 45.5998 46.9002 42.7998 47.8002 42.7998L47.7002 42.8998Z" stroke="#494A4A" stroke-linecap="round" stroke-linejoin="round"/>
</g>
</g>
</svg>
