<svg width="64" height="64" viewBox="0 0 64 64" fill="none" xmlns="http://www.w3.org/2000/svg">
<g id="Pictogram-organisation7" clip-path="url(#clip0_426_1197)">
<g id="stroke-default">
<path id="2px" d="M26.1903 59.9999C25.9403 56.0599 25.9903 47.4399 26.1003 45.3199C26.3303 40.9999 37.4203 40.9999 37.9103 45.2099C37.9703 45.7899 37.9803 56.2099 37.9103 60.0799M24.0503 61.8699C16.7203 62.1199 8.24031 61.8699 3.05031 62.0099M61.0003 61.8699C53.6703 62.1199 45.1903 61.6999 39.9503 61.8699M5.34032 61.6199C4.85032 53.4899 5.00032 27.0599 5.34032 19.9999M58.7703 61.8299C59.0103 55.0799 58.9703 27.8299 58.7703 19.9999M24.2903 62.7799C24.1395 62.373 24.0811 61.9376 24.1191 61.5052C24.1571 61.0728 24.2908 60.6543 24.5103 60.2799C24.9303 59.9399 38.8603 59.7599 39.4103 60.3999C39.8003 60.8399 40.1203 62.6099 39.5603 62.8599C39.0003 63.1099 24.6903 62.9999 24.2903 62.7799ZM18.0003 19.9999H3.00031C1.00031 19.9999 0.540315 18.4899 1.54031 16.4899C2.54031 14.4899 8.94031 4.36995 9.91031 3.33995C11.3203 1.82995 12.4603 1.38995 15.0003 1.21995C20.5303 0.839946 43.0003 0.999946 48.8403 1.19995C51.2103 1.28995 52.6403 2.37995 54.1803 3.99995C57.514 7.75989 60.3536 11.9303 62.6303 16.4099C63.5403 18.4599 63.0003 19.9999 61.0003 19.9999H46.0003C44.0003 19.9999 34.0003 5.99995 32.0003 5.99995C30.0003 5.99995 20.0503 19.9999 18.0003 19.9999Z" stroke="#494A4A" stroke-width="2" stroke-linecap="round" stroke-linejoin="round"/>
<path id="1px" d="M23.5002 42.5099C23.7931 41.6418 24.3492 40.8864 25.0911 40.3488C25.833 39.8111 26.724 39.518 27.6402 39.5099M11.4602 7.49994C12.0002 5.21994 13.0602 4.49994 15.6102 4.49994M50.5002 16.4999C47.3802 16.4999 46.7702 16.3899 45.5002 14.4999M22.4802 39.5399C23.186 38.5125 24.2603 37.7963 25.4802 37.5399M18.9302 36.3899C16.86 36.5501 14.7804 36.5501 12.7102 36.3899C12.4296 36.3288 12.1754 36.1809 11.9834 35.9674C11.7914 35.7539 11.6713 35.4854 11.6402 35.1999C11.5152 32.7582 11.5152 30.3117 11.6402 27.8699C11.6833 27.589 11.8076 27.3267 11.9976 27.1153C12.1877 26.9039 12.4354 26.7526 12.7102 26.6799C14.7669 26.5315 16.8307 26.5081 18.8902 26.6099C19.3043 26.6533 19.6887 26.8455 19.9719 27.1508C20.2551 27.4561 20.4179 27.8537 20.4302 28.2699C20.5102 28.8699 20.5302 33.8499 20.4302 34.5099C20.4028 34.9392 20.2443 35.3497 19.976 35.6859C19.7077 36.0222 19.3427 36.2679 18.9302 36.3899ZM18.9302 50.3899C16.86 50.5501 14.7804 50.5501 12.7102 50.3899C12.4303 50.3274 12.1769 50.1791 11.9851 49.9659C11.7933 49.7526 11.6728 49.4849 11.6402 49.1999C11.5152 46.7549 11.5152 44.305 11.6402 41.8599C11.6845 41.5794 11.8092 41.3178 11.9991 41.1066C12.189 40.8954 12.436 40.7437 12.7102 40.6699C14.7671 40.5248 16.8309 40.5048 18.8902 40.6099C19.3035 40.651 19.6877 40.8412 19.9711 41.1448C20.2545 41.4484 20.4177 41.8448 20.4302 42.2599C20.5102 42.8699 20.5302 47.8399 20.4302 48.4999C20.4034 48.9305 20.2452 49.3426 19.977 49.6805C19.7088 50.0184 19.3435 50.266 18.9302 50.3899ZM50.9202 36.3899C48.85 36.5501 46.7704 36.5501 44.7002 36.3899C44.4215 36.3269 44.1694 36.1783 43.9794 35.9649C43.7893 35.7515 43.6707 35.4841 43.6402 35.1999C43.5152 32.7582 43.5152 30.3117 43.6402 27.8699C43.6789 27.5888 43.8003 27.3255 43.9891 27.1136C44.1778 26.9017 44.4254 26.7507 44.7002 26.6799C46.7602 26.5315 48.8274 26.5082 50.8902 26.6099C51.3044 26.6533 51.6887 26.8455 51.9719 27.1508C52.2551 27.4561 52.4179 27.8537 52.4302 28.2699C52.5002 28.8699 52.5302 33.8499 52.4302 34.5099C52.4035 34.9409 52.2441 35.353 51.9737 35.6897C51.7033 36.0263 51.3353 36.2709 50.9202 36.3899ZM50.9202 50.3899C48.85 50.5501 46.7705 50.5501 44.7002 50.3899C44.4222 50.3255 44.1709 50.1765 43.9811 49.9634C43.7912 49.7503 43.6721 49.4836 43.6402 49.1999C43.5152 46.7549 43.5152 44.305 43.6402 41.8599C43.6814 41.5797 43.8037 41.3177 43.9921 41.1063C44.1804 40.8948 44.4266 40.7431 44.7002 40.6699C46.7604 40.5249 48.8276 40.5048 50.8902 40.6099C51.3035 40.651 51.6877 40.8412 51.9711 41.1448C52.2545 41.4484 52.4177 41.8448 52.4302 42.2599C52.5002 42.8699 52.5302 47.8399 52.4302 48.4999C52.4027 48.9318 52.2431 49.3447 51.973 49.6828C51.7029 50.0209 51.3353 50.2678 50.9202 50.3899ZM34.9302 36.3899C32.8399 36.5501 30.7405 36.5501 28.6502 36.3899C28.3696 36.3287 28.1154 36.1809 27.9234 35.9674C27.7314 35.7539 27.6113 35.4854 27.5802 35.1999C27.4502 32.7583 27.4502 30.3115 27.5802 27.8699C27.6209 27.588 27.7442 27.3244 27.9347 27.1126C28.1251 26.9008 28.3741 26.7502 28.6502 26.6799C30.7303 26.5315 32.8174 26.5081 34.9002 26.6099C35.3171 26.6508 35.7051 26.8417 35.992 27.1469C36.2789 27.4522 36.4453 27.8513 36.4602 28.2699C36.5302 28.8699 36.5602 33.8499 36.4602 34.5099C36.4307 34.943 36.2678 35.3563 35.9938 35.693C35.7198 36.0296 35.3483 36.2731 34.9302 36.3899ZM35.4902 17.9999C35.4902 19.9274 33.9277 21.4899 32.0002 21.4899C30.0727 21.4899 28.5102 19.9274 28.5102 17.9999C28.5102 16.0725 30.0727 14.5099 32.0002 14.5099C33.9277 14.5099 35.4902 16.0725 35.4902 17.9999Z" stroke="#494A4A" stroke-linecap="round" stroke-linejoin="round"/>
</g>
</g>
<defs>
<clipPath id="clip0_426_1197">
<rect width="64" height="64" fill="white"/>
</clipPath>
</defs>
</svg>
