<svg width="64" height="64" viewBox="0 0 64 64" fill="none" xmlns="http://www.w3.org/2000/svg">
<g id="  Pictogram-libra">
<g id="stroke-default">
<path id="2px" d="M27.9014 14.5L30.5014 52.2M33.8015 12.5L31.0015 52.2M34.2016 6.79982C34.2016 6.79982 34.3016 5.19982 34.5016 3.19982C34.7016 1.19982 27.1016 1.79982 27.1016 3.19982C27.1016 4.89982 27.4016 8.59982 27.4016 8.59982M24.1017 53.0004C20.6017 53.6004 18.3017 54.7004 17.9017 55.7004C17.7017 56.4004 17.9017 58.0004 18.1017 59.0004C19.4017 63.1004 42.2017 63.1004 43.6017 58.5004C43.8017 57.8004 43.8017 56.6004 43.6017 55.8004C43.4017 54.4004 41.0017 53.1004 37.6017 52.9004M24.3013 53.1C24.3013 53.1 24.5013 52.5 24.6013 52.4C25.4013 51.3 27.9 51.1 29.5 51M32.5 51C34 51 36.6016 51.2004 37.4016 52.3004C37.5016 52.5004 37.6016 52.7004 37.7016 53.0004M55.7015 2C57.8015 5.2 55.8015 9.4 47.3015 8C40.2015 6.8 35.2015 6.4 30.1015 8C25.0015 9.6 20.8015 12.9 15.1015 18.2C9.90148 23.1 3.80148 20.6 5.00148 17.4M53.3016 8C36.1016 11.4 23.8016 14.9 10.6016 21M2.30124 34.3999C4.30124 31.8999 20.7012 31.5999 22.7012 34.1999C23.6012 35.3999 23.2012 44.0999 12.9012 43.9999C2.60124 43.8999 1.30124 35.6999 2.30124 34.3999ZM39.9015 25.5001C42.0015 22.9001 59.5015 22.6001 61.7015 25.3001C62.7015 26.5001 62.2015 35.8001 51.3015 35.7001C40.4015 35.6001 38.9015 26.8001 40.0015 25.5001H39.9015Z" stroke="#494A4A" stroke-width="2" stroke-linecap="round" stroke-linejoin="round"/>
<path id="1px" d="M37.203 52.9004C37.403 53.6004 37.303 54.6004 37.203 55.2004C37.003 57.6004 25.303 57.5004 24.803 55.5004C24.703 54.9004 24.503 54.0004 24.803 53.0004M19.103 36.1004C20.903 35.7004 22.103 35.1004 22.303 34.4004M2.30273 34.4004C2.90273 36.1004 7.70273 36.8004 12.5027 36.7004M57.8027 27.3C59.7027 26.9 61.0027 26.3 61.2027 25.5M39.9028 25.5C40.5028 27.3 45.7028 28.1 50.8028 28M11.6028 20.4004C11.6028 20.4004 4.90283 30.8004 2.90283 33.9004M13.0029 20.5996C13.0029 20.5996 19.8029 29.4996 21.7029 33.5996M49.903 9.5C49.903 9.5 43.703 19.5 40.603 25M50.8027 9C50.8027 9 60.1027 20.5 61.0027 25M17.9028 55.7002C18.2028 57.8002 23.7028 58.6002 24.7028 58.6002M41.103 57.5002C42.603 57.1002 43.303 56.6002 43.103 55.7002" stroke="#494A4A" stroke-linecap="round" stroke-linejoin="round"/>
</g>
</g>
</svg>
