<svg width="64" height="64" viewBox="0 0 64 64" fill="none" xmlns="http://www.w3.org/2000/svg">
<g id="Pictogram-organisation-accepted">
<g id="stroke-default">
<path id="2px" d="M35.5 61.0002C31.2 61.0002 24.6 61.0002 24.3 60.8002C24 60.6002 24 58.7002 24.5 58.3002C24.8 58.1002 29 57.9002 33.3 58.0002M26.1998 58C25.9998 54.1 25.9998 47.5 26.1998 45.3C26.3998 43.1 28.8998 42.1 31.6998 42M23.9999 59.8999C16.6999 60.1999 9.1999 59.8999 3.8999 59.9999M6.30016 59.6C5.80016 51.5 6.00016 28.1 6.30016 21M58 33.4996C58 28.4996 58 23.7996 58 21.0996M18 21.0003H4C2 21.0003 1.5 19.5003 2.5 17.5003C3.5 15.5003 9.9 5.40028 10.9 4.40028C12.3 2.90028 13.4 2.40028 16 2.30028C21.5 1.90028 42.2 2.10028 48 2.30028C50.4 2.30028 51.8 3.50028 53.3 5.10028C55.9 7.80028 60.2 13.9003 61.7 17.5003C62.6 19.6003 62.1 21.1003 60 21.1003H45.9C43.9 21.1003 33.9 7.10028 31.9 7.10028C29.9 7.10028 19.9 21.1003 17.9 21.1003L18 21.0003ZM63 48.5C63 56.5081 56.5081 63 48.5 63C40.4919 63 34 56.5081 34 48.5C34 40.4919 40.4919 34 48.5 34C56.5081 34 63 40.4919 63 48.5Z" stroke="#494A4A" stroke-width="2" stroke-linecap="round" stroke-linejoin="round"/>
<path id="1px" d="M12.3999 8.5C12.8999 6.2 13.9999 5.5 16.4999 5.5M50.4999 17.5C47.3999 17.5 46.7999 17.4 45.4999 15.5M43.5 31.2998C43.5 29.6998 43.5 28.0998 43.5 27.7998C43.6 27.0998 44.1 26.6998 44.6 26.5998C45.2 26.4998 50.2 26.3998 50.8 26.5998C51.6 26.7998 52.2 27.1998 52.3 28.2998C52.3 28.5998 52.3 29.9998 52.3 31.3998M33.9999 36.5004C32.2999 36.5004 29.0999 36.5004 28.6999 36.4004C27.9999 36.2004 27.6999 35.8004 27.5999 35.2004C27.4999 34.6004 27.4999 28.5004 27.5999 27.9004C27.6999 27.3004 28.1999 26.8004 28.6999 26.7004C29.2999 26.6004 34.2999 26.5004 34.9999 26.7004C35.7999 26.9004 36.3999 27.3004 36.5999 28.4004C36.5999 28.8004 36.5999 31.5004 36.5999 33.2004M18.8999 36.4004C18.2999 36.6004 13.1999 36.4004 12.6999 36.4004C11.9999 36.2004 11.6999 35.8004 11.5999 35.2004C11.4999 34.6004 11.4999 28.5004 11.5999 27.9004C11.6999 27.3004 12.1999 26.8004 12.6999 26.7004C13.2999 26.6004 18.2999 26.5004 18.8999 26.7004C19.6999 26.9004 20.2999 27.3004 20.3999 28.4004C20.3999 29.0004 20.3999 34.0004 20.3999 34.6004C20.2999 35.7004 19.6999 36.3004 18.8999 36.5004V36.4004ZM18.8999 50.3999C18.2999 50.5999 13.1999 50.3999 12.6999 50.3999C11.9999 50.1999 11.6999 49.7999 11.5999 49.1999C11.4999 48.5999 11.4999 42.4999 11.5999 41.8999C11.6999 41.2999 12.1999 40.7999 12.6999 40.6999C13.2999 40.5999 18.2999 40.4999 18.8999 40.6999C19.6999 40.8999 20.2999 41.2999 20.3999 42.3999C20.3999 42.9999 20.3999 47.9999 20.3999 48.5999C20.2999 49.6999 19.6999 50.2999 18.8999 50.4999V50.3999ZM35.5 19C35.5 20.933 33.933 22.5 32 22.5C30.067 22.5 28.5 20.933 28.5 19C28.5 17.067 30.067 15.5 32 15.5C33.933 15.5 35.5 17.067 35.5 19ZM40.4998 50.1998C39.9998 49.6998 43.3998 47.4998 43.7998 47.7998C45.6998 49.2998 46.3998 51.4998 46.9998 51.4998C47.5998 51.4998 49.3998 45.6998 52.8998 41.6998C53.6998 40.8998 56.8998 43.1998 56.3998 43.7998C51.9998 49.6998 49.5998 55.7998 49.0998 56.1998C48.5998 56.5998 45.9998 56.4998 45.5998 56.1998C45.1998 55.8998 44.2998 54.1998 40.4998 49.9998V50.1998Z" stroke="#494A4A" stroke-linecap="round" stroke-linejoin="round"/>
</g>
</g>
</svg>
