<svg width="64" height="64" viewBox="0 0 64 64" fill="none" xmlns="http://www.w3.org/2000/svg">
<g id="Pictogram-CO2-emissions">
<g id="stroke-default">
<path id="2px-stroke-default" d="M13.7699 20.26C23.3399 -3.70997 51.0499 -3.82997 51.9999 18.4M48.8499 31.47C44.2699 43 29.9099 49.53 20.1399 41.35M25.8699 38.81C3.1699 53.07 -8.3101 11.53 18.6499 11.7M51.4199 14.2C65.6799 17.6 64.2699 38 44.9999 38M47.8799 52.5C48.3499 54.57 47.5199 56.5 44.0199 56.93C35.8399 57.93 34.2499 48.11 42.2099 47.02C43.3999 46.86 44.8999 47.79 46.0799 49.15M26.8599 20.76C19.3699 17.54 19.6499 31.33 26.8599 28.36M45.2699 47.94C48.8499 46.94 53.4999 50.29 48.1599 53.71M53.0999 57C50.9899 57 49.6799 62.34 53.0999 62C56.5199 61.66 57.3799 57 53.0999 57ZM34.4899 20.26C38.9899 20.46 39.1799 28.67 34.2799 28.79C29.3799 28.91 29.2599 20 34.4899 20.26Z" stroke="#494A4A" stroke-width="2" stroke-linecap="round" stroke-linejoin="round"/>
<path id="1px-stroke-default" d="M24.1999 11.7C26.3063 9.36619 28.9998 7.63963 31.9999 6.69995M40.1799 28C41.4899 26.89 43.4099 27 43.3699 28.8C43.3699 30.17 39.0299 30.8 39.0199 32.04C39.0199 33.04 41.7299 32.74 43.5199 32.65" stroke="#494A4A" stroke-linecap="round" stroke-linejoin="round"/>
</g>
</g>
</svg>
