<svg width="64" height="64" viewBox="0 0 64 64" fill="none" xmlns="http://www.w3.org/2000/svg">
<g id="Pictogram-contract-coin" clip-path="url(#clip0_622_41947)">
<g id="stroke-default">
<path id="2px" d="M21.9192 55.9749C21.5742 56.4062 21.6441 57.0355 22.0754 57.3805C22.5067 57.7255 23.136 57.6556 23.481 57.2243L21.9192 55.9749ZM13.3001 53.3996L14.2879 53.2441L14.2879 53.2436L13.3001 53.3996ZM16.2001 18.9996L15.2004 19.0278L15.2009 19.0383L16.2001 18.9996ZM3.80011 7.89961L3.43763 6.96753L3.42591 6.97226L3.80011 7.89961ZM7.60011 22.1996L7.34675 21.2322L7.34561 21.2325L7.60011 22.1996ZM7.40011 15.5996L7.17524 16.574L7.18318 16.5758L7.40011 15.5996ZM14.8001 14.1996C15.3524 14.1996 15.8001 13.7519 15.8001 13.1996C15.8001 12.6473 15.3524 12.1996 14.8001 12.1996V14.1996ZM3.55997 6.85923C3.04062 7.04708 2.77188 7.62039 2.95973 8.13975C3.14758 8.6591 3.72089 8.92784 4.24024 8.73999L3.55997 6.85923ZM46.5001 1.09961V0.0995272L46.4873 0.0996916L46.5001 1.09961ZM54.1001 12.1996L53.1204 12.4L53.1208 12.4022L54.1001 12.1996ZM52.0099 32.5601C51.9329 33.107 52.3138 33.6128 52.8606 33.6898C53.4075 33.7669 53.9133 33.386 53.9903 32.8391L52.0099 32.5601ZM37.6441 62.3892C38.1906 62.3097 38.5692 61.8022 38.4897 61.2557C38.4102 60.7091 37.9027 60.3305 37.3562 60.41L37.6441 62.3892ZM23.2414 62.0013C22.6901 62.0338 22.2694 62.507 22.3018 63.0583C22.3343 63.6097 22.8075 64.0303 23.3588 63.9979L23.2414 62.0013ZM23.0576 55.3295C22.5218 55.4634 22.196 56.0064 22.33 56.5421C22.4639 57.0779 23.0068 57.4037 23.5426 57.2698L23.0576 55.3295ZM33.589 55.2816C34.1313 55.1773 34.4864 54.6531 34.3821 54.1108C34.2778 53.5684 33.7536 53.2133 33.2113 53.3176L33.589 55.2816ZM7.25137 21.1624C6.73376 21.355 6.47029 21.9307 6.66289 22.4483C6.85549 22.966 7.43123 23.2294 7.94884 23.0368L7.25137 21.1624ZM16.2358 21.099C16.7877 21.0793 17.2192 20.6159 17.1995 20.0639C17.1798 19.512 16.7163 19.0805 16.1644 19.1002L16.2358 21.099ZM52.7002 36.7002L52.4689 37.673L52.9427 35.73L52.7002 36.7002ZM48.1002 36.1002L48.0084 37.096L48.0204 37.097L48.1002 36.1002ZM45.1002 61.4002L45.3097 60.4223L45.2976 60.4198L45.1002 61.4002ZM48.1002 61.9002L48.0096 62.8961L48.0102 62.8961L48.1002 61.9002ZM52.5 36.6526L52.7133 35.6756L52.2687 37.6254L52.5 36.6526ZM50.8648 46.6498C51.1683 47.1112 51.7884 47.2391 52.2498 46.9356C52.7112 46.632 52.8391 46.0119 52.5356 45.5505L50.8648 46.6498ZM45.0002 46.9002L44.1579 46.3611C44.1535 46.368 44.1492 46.3749 44.145 46.3819L45.0002 46.9002ZM47.0753 54.9746C47.6135 55.0987 48.1504 54.7632 48.2746 54.225C48.3988 53.6869 48.0632 53.15 47.525 53.0258L47.0753 54.9746ZM23.481 57.2243C23.4662 57.2428 23.4266 57.2782 23.3661 57.298C23.311 57.3161 23.2817 57.3073 23.2975 57.3104C23.346 57.32 23.5121 57.3837 23.736 57.6122C24.1705 58.0554 24.6001 58.9009 24.6001 59.9996H26.6001C26.6001 58.3983 25.9797 57.0439 25.1642 56.212C24.7631 55.803 24.2542 55.4605 23.684 55.3481C23.0621 55.2256 22.3842 55.3937 21.9192 55.9749L23.481 57.2243ZM24.6001 59.9996C24.6001 60.9303 24.1681 61.5043 23.4964 61.8159C22.7672 62.1543 21.6643 62.2123 20.4063 61.7893C17.9346 60.9581 15.0864 58.3167 14.2879 53.2441L12.3123 53.5551C13.2138 59.2825 16.5156 62.5911 19.7689 63.685C21.3734 64.2245 23.0268 64.2387 24.3382 63.6301C25.7071 62.9949 26.6001 61.7189 26.6001 59.9996H24.6001ZM14.2879 53.2436C13.4184 47.7368 14.2559 43.1696 15.2815 37.9292C16.3066 32.6913 17.5043 26.8391 17.1994 18.9609L15.2009 19.0383C15.4959 26.6601 14.3436 32.308 13.3187 37.545C12.2943 42.7796 11.3818 47.6624 12.3123 53.5556L14.2879 53.2436ZM17.1997 18.9715C17.0941 15.222 15.7244 11.4908 13.3422 9.04009C10.9101 6.5381 7.4417 5.41048 3.43766 6.96761L4.16255 8.83161C7.35851 7.58874 9.99016 8.46112 11.9081 10.4341C13.8758 12.4584 15.1061 15.6772 15.2005 19.0278L17.1997 18.9715ZM3.42591 6.97226C1.60347 7.70763 0.615708 9.32151 0.212533 11.0934C-0.188561 12.8561 -0.0466483 14.8832 0.460505 16.7383C0.966949 18.5908 1.86657 20.3771 3.08588 21.6214C4.31773 22.8785 5.9752 23.6613 7.8546 23.1667L7.34561 21.2325C6.37501 21.488 5.41999 21.1458 4.51434 20.2216C3.59615 19.2846 2.83327 17.8334 2.38971 16.2109C1.94686 14.591 1.85128 12.9057 2.16268 11.5371C2.47201 10.1777 3.14675 9.24159 4.1743 8.82696L3.42591 6.97226ZM7.85347 23.167C9.10294 22.8397 10.0206 22.1965 10.5688 21.3181C11.1107 20.4497 11.2245 19.4586 11.0742 18.5491C10.7857 16.803 9.45114 15.031 7.61704 14.6234L7.18318 16.5758C8.04908 16.7682 8.91447 17.7462 9.10098 18.8751C9.18821 19.4031 9.10824 19.8808 8.87206 20.2592C8.64209 20.6278 8.19728 21.0095 7.34675 21.2322L7.85347 23.167ZM7.62497 14.6252C7.6251 14.6252 7.62789 14.6259 7.63303 14.6275C7.63814 14.629 7.64616 14.6316 7.65662 14.6358C7.67679 14.6437 7.71083 14.659 7.75229 14.6861C7.83772 14.7419 7.96327 14.855 8.03788 15.0452C8.11358 15.2381 8.09941 15.4152 8.06779 15.5307C8.03902 15.6358 7.99651 15.6924 7.99167 15.6989C7.98516 15.7075 8.03136 15.649 8.1922 15.5427C8.34229 15.4436 8.55577 15.3268 8.83796 15.2035C9.97625 14.7062 12.0104 14.1996 14.8001 14.1996V12.1996C11.7898 12.1996 9.47397 12.7431 8.03726 13.3707C7.36045 13.6664 6.73526 14.0418 6.39292 14.4972C6.22939 14.7148 5.95089 15.2017 6.17601 15.7755C6.39406 16.3314 6.91078 16.513 7.17525 16.574L7.62497 14.6252ZM4.24024 8.73999C8.83277 7.07886 17.4387 5.43998 25.9442 4.20168C34.4351 2.9655 42.6816 2.14865 46.5129 2.09953L46.4873 0.0996916C42.5186 0.150572 34.1651 0.983718 25.656 2.22254C17.1616 3.45924 8.36745 5.12036 3.55997 6.85923L4.24024 8.73999ZM46.5001 2.09961C46.7918 2.09961 47.3101 2.30491 48.0285 2.95613C48.7125 3.57623 49.4404 4.4762 50.1373 5.54559C51.5356 7.69124 52.7011 10.3501 53.1204 12.4L55.0798 11.9992C54.5991 9.64908 53.3146 6.75798 51.8129 4.45363C51.0598 3.29802 50.2252 2.24799 49.3717 1.47434C48.5526 0.731804 47.5584 0.0996094 46.5001 0.0996094V2.09961ZM53.1208 12.4022C53.6918 15.1618 53.6758 18.3991 53.3787 21.877C53.0818 25.3539 52.5131 28.9877 52.0099 32.5601L53.9903 32.8391C54.4872 29.3116 55.0684 25.5953 55.3715 22.0472C55.6744 18.5001 55.7084 15.0374 55.0794 11.997L53.1208 12.4022ZM37.3562 60.41C31.8685 61.2082 26.6003 61.8037 23.2414 62.0013L23.3588 63.9979C26.7999 63.7955 32.1318 63.191 37.6441 62.3892L37.3562 60.41ZM23.5426 57.2698C24.3076 57.0785 28.3647 56.2863 33.589 55.2816L33.2113 53.3176C28.0355 54.3129 23.8926 55.1207 23.0576 55.3295L23.5426 57.2698ZM7.94884 23.0368C12.1869 21.4599 13.5773 21.1939 16.2358 21.099L16.1644 19.1002C13.223 19.2053 11.6133 19.5393 7.25137 21.1624L7.94884 23.0368ZM52.9427 35.73C52.0594 35.5092 50.6918 35.3043 48.1799 35.1033L48.0204 37.097C50.5085 37.296 51.741 37.4911 52.4576 37.6703L52.9427 35.73ZM48.192 35.1044C44.3527 34.7504 41.2399 36.115 39.0103 38.4151C36.8026 40.6925 35.4904 43.8505 35.1071 47.0953C34.3464 53.5348 37.2542 60.8398 44.9027 62.3805L45.2976 60.4198C39.0462 59.1606 36.4039 53.1655 37.0933 47.33C37.435 44.4373 38.5978 41.7141 40.4463 39.8071C42.2729 37.9228 44.7976 36.7999 48.0084 37.0959L48.192 35.1044ZM44.8906 62.378C46.3014 62.6803 46.8484 62.7905 48.0096 62.8961L48.1907 60.9043C47.1519 60.8098 46.699 60.7201 45.3097 60.4224L44.8906 62.378ZM48.0102 62.8961C52.4151 63.2941 55.9321 62.0223 58.4538 59.7698C60.9586 57.5324 62.4154 54.3877 62.8416 51.1311C63.6894 44.6543 60.4563 37.366 52.7133 35.6756L52.2867 37.6296C58.7437 39.0392 61.6107 45.1246 60.8585 50.8716C60.4848 53.7269 59.2166 56.4067 57.1215 58.2782C55.0432 60.1346 52.0853 61.2562 48.1902 60.9042L48.0102 62.8961ZM52.2687 37.6254L52.4689 37.673L52.9315 35.7273L52.7313 35.6797L52.2687 37.6254ZM52.5356 45.5505C51.8498 44.5081 51.0945 43.7722 50.2572 43.3693C49.3936 42.9539 48.5216 42.9315 47.715 43.183C46.197 43.6563 44.9835 45.0711 44.1579 46.3611L45.8424 47.4392C46.6169 46.2292 47.5033 45.344 48.3104 45.0923C48.6663 44.9813 49.013 44.9902 49.3901 45.1716C49.7934 45.3656 50.3006 45.7922 50.8648 46.6498L52.5356 45.5505ZM44.145 46.3819C43.0858 48.1295 42.5306 49.9752 42.9722 51.6108C43.4381 53.336 44.904 54.4735 47.0753 54.9746L47.525 53.0258C45.7963 52.6268 45.1123 51.8643 44.9031 51.0895C44.6697 50.2251 44.9146 48.9708 45.8554 47.4185L44.145 46.3819Z" fill="#494A4A"/>
<path id="1px" d="M19.6006 7.49963C17.8006 7.69963 17.0006 7.89963 16.6006 8.29963C17.3006 9.09963 18.3006 10.4996 18.6006 12.4996M25.6006 14.3996C27.2006 14.0996 42.6006 11.9996 44.7006 11.6996M26.1006 21.3996C28.0006 21.1996 33.2006 20.4996 34.6006 20.2996M39.5006 19.1996C41.0006 18.9996 44.3006 18.3996 46.4006 18.1996M25.6006 27.4996C28.1006 26.9996 44.4006 24.6996 45.8006 24.4996M25.0006 33.6996C26.7006 33.3996 31.4006 32.6996 32.7006 32.4996M35.9006 31.9996C37.8006 31.5996 43.9006 30.6996 44.7006 30.4996M23.3006 39.9996C27.2006 39.3996 35.2006 38.0996 36.7006 37.8996M43.1007 39.6002C41.4007 40.6002 40.1007 42.7002 39.5007 44.5002M48.4007 58.6002C50.3007 58.6002 52.2007 57.4002 53.4007 56.0002M48.2007 36.6002C64.3007 37.8002 61.6007 64.4002 44.4007 60.8002M43.1007 47.3002L47.8007 50.4002M44.1007 45.3002L48.7007 48.3002" stroke="#494A4A" stroke-linecap="round" stroke-linejoin="round"/>
</g>
</g>
<defs>
<clipPath id="clip0_622_41947">
<rect width="64" height="64" fill="white"/>
</clipPath>
</defs>
</svg>
