<svg width="64" height="64" viewBox="0 0 64 64" fill="none" xmlns="http://www.w3.org/2000/svg">
<g id="Pictogram-keypad-panel2">
<g id="stroke-default">
<path id="2px" d="M38.18 38.6C37.2272 37.0854 35.8814 35.8576 34.2859 35.0475C32.6904 34.2375 30.905 33.8754 29.12 34C28.02 34 27.59 37.34 28.78 37.94C35.46 41.26 34.2 48.82 35.43 52.27C36.51 55.27 38.3 57.05 38.94 60.46C39.48 63.31 51.59 63.46 54.43 62.23C56.63 61.23 57.6 57.04 58.31 54.86C59.6772 50.6497 60.2237 46.2162 59.92 41.8C59.67 37.61 56.63 35.24 53.99 36.2M54.05 38C53.98 37.09 53.71 34.74 52.48 34.24C51.3892 33.9617 50.2333 34.112 49.25 34.66M49.11 36.87C49.11 35.36 49.11 34.15 47.87 33.37C46.5754 32.8762 45.1383 32.9121 43.87 33.47M44 36.13C43.76 34.99 43.83 28.2 43.69 26.22C43.55 24.24 43.32 19.47 43.05 18.13C42.64 16.13 38.48 16.82 38.05 20.23C37.82 22.09 37.93 22.77 38.05 27.63C38.2 33.2 38.33 39.16 38.05 43.05M34.33 61C30 61 19.33 60.79 16.41 60.6C11 60.24 7 56.6 6.46 49.24C5.72 39.6 5.99 20.24 6.46 12.75C6.93 5.26 10 1.92 16.41 1.39C19.26 1.16 35.73 0.64 41.41 1.39C47.66 2.22 50.75 5.39 51.41 12.75C51.8 17.55 52 23.54 52.03 29.52" stroke="#494A4A" stroke-width="2" stroke-linecap="round" stroke-linejoin="round"/>
<path id="1px" d="M55.55 53.3799C55.15 54.3799 54.72 56.7399 54.27 57.4799M39.28 53.2899C38.62 52.2299 37.44 50.7899 37.72 50.0199M37.42 9.00993L35.24 4.79993M39.68 5.83993L40.09 8.21993M34.2 9.46993L35.49 10.6499M31.8 50.2199C31.4658 50.6367 31.0382 50.9689 30.5517 51.1895C30.0653 51.4101 29.5337 51.5131 29 51.4899C28.5423 51.4926 28.0887 51.404 27.6657 51.2292C27.2428 51.0544 26.8589 50.7969 26.5367 50.4719C26.2145 50.1469 25.9603 49.7608 25.7892 49.3364C25.6181 48.9119 25.5333 48.4575 25.54 47.9999C25.5 47.5364 25.5622 47.0697 25.7222 46.6328C25.8822 46.1959 26.1362 45.7994 26.4661 45.4714C26.7961 45.1434 27.194 44.8917 27.6318 44.7342C28.0696 44.5767 28.5367 44.5172 29 44.5599C29.7192 44.5748 30.4169 44.8086 31 45.2299M37.55 15.9999C37.5177 15.6674 37.5177 15.3325 37.55 14.9999C37.67 12.4899 39.12 11.4999 41.05 11.4999C41.51 11.4986 41.9657 11.5882 42.3909 11.7637C42.8162 11.9391 43.2025 12.1968 43.5278 12.5221C43.8531 12.8474 44.1108 13.2337 44.2863 13.659C44.4617 14.0842 44.5513 14.5399 44.55 14.9999C44.55 15.1399 44.55 15.2899 44.55 15.4299M29 40.4799C28.5443 40.4786 28.0933 40.3876 27.6728 40.212C27.2523 40.0364 26.8705 39.7797 26.5493 39.4565C26.228 39.1334 25.9735 38.7501 25.8003 38.3286C25.6271 37.9071 25.5387 37.4556 25.54 36.9999M12.49 55.5299C13.33 57.1299 16.37 57.5999 18.49 57.5299M20.51 14.9899C20.51 16.9174 18.9475 18.4799 17.02 18.4799C15.0925 18.4799 13.53 16.9174 13.53 14.9899C13.53 13.0625 15.0925 11.4999 17.02 11.4999C18.9475 11.4999 20.51 13.0625 20.51 14.9899ZM32.47 14.9999C32.4959 15.4629 32.424 15.9261 32.259 16.3594C32.0939 16.7927 31.8394 17.1863 31.512 17.5147C31.1846 17.843 30.7917 18.0987 30.3588 18.265C29.926 18.4313 29.463 18.5045 29 18.4799C28.5406 18.4852 28.0847 18.399 27.659 18.2263C27.2332 18.0535 26.8462 17.7977 26.5204 17.4737C26.1946 17.1498 25.9365 16.7642 25.7613 16.3395C25.5861 15.9147 25.4973 15.4594 25.5 14.9999C25.4549 14.5295 25.5145 14.055 25.6746 13.6104C25.8347 13.1658 26.0912 12.7621 26.4259 12.4284C26.7605 12.0948 27.1649 11.8394 27.6099 11.6805C28.055 11.5217 28.5297 11.4635 29 11.5099C29.9213 11.5178 30.8024 11.8887 31.452 12.542C32.1016 13.1954 32.4674 14.0786 32.47 14.9999ZM20.47 25.9999C20.47 27.9099 19.07 28.9999 17 29.4599C15.13 29.8699 13.53 27.9099 13.53 25.9999C13.53 25.0796 13.8956 24.197 14.5463 23.5463C15.1971 22.8955 16.0797 22.5299 17 22.5299C17.9203 22.5299 18.8029 22.8955 19.4537 23.5463C20.1044 24.197 20.47 25.0796 20.47 25.9999ZM32.47 25.9999C32.4282 26.9049 32.0486 27.7613 31.4062 28.4C30.7637 29.0387 29.9052 29.4134 29 29.4499C27.08 29.4499 25.24 27.8799 25.53 25.9899C25.9 23.5599 27.08 22.5199 29 22.5199C30.92 22.5199 32.73 23.7799 32.47 25.9999ZM20.47 36.9999C20.47 37.4556 20.3802 37.9068 20.2059 38.3278C20.0315 38.7488 19.7759 39.1314 19.4537 39.4536C19.1314 39.7758 18.7489 40.0314 18.3279 40.2058C17.9069 40.3802 17.4557 40.4699 17 40.4699C16.5443 40.4699 16.0931 40.3802 15.6721 40.2058C15.2511 40.0314 14.8685 39.7758 14.5463 39.4536C14.2241 39.1314 13.9685 38.7488 13.7941 38.3278C13.6197 37.9068 13.53 37.4556 13.53 36.9999C13.53 35.0799 14.41 33.5799 17 33.5299C20 33.4899 20.47 35.0899 20.47 36.9999Z" stroke="#494A4A" stroke-linecap="round" stroke-linejoin="round"/>
</g>
</g>
</svg>
