<svg width="64" height="64" viewBox="0 0 64 64" fill="none" xmlns="http://www.w3.org/2000/svg">
<g id="Pictogram-bread">
<g id="stroke-default">
<path id="2px" d="M8.89928 60.1997C11.3993 63.3997 51.8993 63.1997 54.6993 61.7997C58.8993 59.7997 53.4993 30.9997 53.3993 29.6997C53.2993 28.3997 55.3993 13.6997 55.3993 13.6997C54.9993 14.4997 51.4993 15.7997 49.6993 12.6997C49.6993 12.6997 47.4993 14.3997 45.1993 13.1997C41.9993 11.5997 42.9993 8.59968 42.9993 8.59968C39.3993 8.59968 37.5993 3.99968 41.6993 1.79968C37.5993 1.09968 33.2993 1.09968 29.9993 1.19968C20.6993 1.49968 8.39928 4.99968 8.49928 15.6997C8.59928 22.7997 10.6993 27.5997 10.4993 29.7997C10.1993 32.1997 6.09928 56.5997 8.89928 60.1997Z" stroke="#494A4A" stroke-width="2" stroke-linecap="round" stroke-linejoin="round"/>
<path id="1px" d="M38.5005 58.1004C41.8005 58.2004 49.3005 58.1004 50.4005 56.5004C52.6005 53.1004 49.0005 31.4004 48.8005 30.4004M30.2003 6.40039C22.8003 6.70039 13.0003 9.60039 13.2003 18.5004C13.2003 24.4004 15.0003 28.5004 14.8003 30.3004M15.5005 46.5996H15.6005M24.4004 37.3996C24.1004 36.7996 23.9004 37.6996 23.9004 37.6996M44.4004 52.2002H44.9004M48.1006 20.7998C48.1006 21.3998 48.6006 20.7998 48.6006 20.7998M47.0005 24.4004H47.1005M20.9004 15.5H21.2004" stroke="#494A4A" stroke-linecap="round" stroke-linejoin="round"/>
</g>
</g>
</svg>
