<svg width="64" height="64" viewBox="0 0 64 64" fill="none" xmlns="http://www.w3.org/2000/svg">
<g id="Pictogram-added-organisation">
<g id="stroke-default">
<path id="2px" d="M35.5094 61.0001C31.1794 61.0701 24.5894 61.0001 24.2894 60.7701C24.1419 60.3608 24.0852 59.9243 24.1232 59.4908C24.1611 59.0574 24.293 58.6375 24.5094 58.2601C24.7794 58.0401 29.0294 57.9101 33.3294 58.0001M26.1894 58.0001C25.9394 54.0001 25.9894 47.4501 26.0994 45.3301C26.2094 43.2101 28.8394 42.1301 31.5994 42.0501M24.0494 59.8601C16.7194 60.1101 9.20944 59.8601 3.96944 60.0001M6.30944 59.6101C5.81944 51.4801 6.00944 28.0801 6.30944 21.0101M57.9994 33.4601C57.9994 28.4601 57.9994 23.7201 57.9294 21.0101M17.9994 21.0001H3.99944C1.99944 21.0001 1.50944 19.5001 2.50944 17.5001C3.50944 15.5001 9.90944 5.38006 10.8794 4.35006C12.2894 2.84006 13.4194 2.40006 15.9994 2.23006C21.5294 1.86006 42.1594 2.00006 47.9994 2.23006C50.3594 2.31006 51.7994 3.40006 53.3394 5.02006C56.6731 8.78001 59.5127 12.9504 61.7894 17.4301C62.6994 19.4301 62.1594 21.0201 60.1294 21.0201H45.9994C43.9994 21.0001 33.9994 7.00006 31.9994 7.00006C29.9994 7.00006 20.0494 21.0001 17.9994 21.0001ZM62.9994 48.5001C62.9994 56.5082 56.512 63.0001 48.5094 63.0001C40.5068 63.0001 34.0194 56.5082 34.0194 48.5001C34.0194 40.4919 40.5068 34.0001 48.5094 34.0001C56.512 34.0001 62.9994 40.4919 62.9994 48.5001Z" stroke="#494A4A" stroke-width="2" stroke-linecap="round" stroke-linejoin="round"/>
<path id="1px" d="M23.4997 42.51C23.7926 41.6418 24.3486 40.8865 25.0906 40.3488C25.8325 39.8112 26.7234 39.518 27.6397 39.51M12.4297 8.51001C12.9697 6.23001 14.0197 5.51001 16.5697 5.51001M50.4997 17.51C47.3797 17.51 46.7697 17.4 45.4997 15.51M22.4797 39.54C23.1855 38.5126 24.2598 37.7964 25.4797 37.54M43.5397 31.34C43.5397 29.72 43.5397 28.14 43.6397 27.82C43.6783 27.5389 43.7998 27.2756 43.9885 27.0637C44.1773 26.8517 44.4248 26.7008 44.6997 26.63C46.7597 26.4816 48.8268 26.4582 50.8897 26.56C51.3038 26.6034 51.6881 26.7956 51.9713 27.1009C52.2546 27.4061 52.4174 27.8038 52.4297 28.22C52.4297 28.52 52.4897 29.92 52.4997 31.32M33.9997 36.47C32.2153 36.5348 30.4287 36.4914 28.6497 36.34C28.3691 36.2788 28.1148 36.131 27.9228 35.9175C27.7308 35.7039 27.6108 35.4355 27.5797 35.15C27.4497 32.7084 27.4497 30.2616 27.5797 27.82C27.6203 27.5381 27.7437 27.2745 27.9341 27.0627C28.1246 26.8509 28.3736 26.7003 28.6497 26.63C30.7297 26.4815 32.8168 26.4582 34.8997 26.56C35.3166 26.6009 35.7045 26.7917 35.9914 27.097C36.2783 27.4023 36.4447 27.8013 36.4597 28.22C36.4597 28.65 36.5397 31.34 36.5197 33.06M18.9297 36.39C16.8594 36.5502 14.7799 36.5502 12.7097 36.39C12.4291 36.3288 12.1748 36.181 11.9828 35.9675C11.7908 35.7539 11.6708 35.4855 11.6397 35.2C11.5146 32.7583 11.5146 30.3117 11.6397 27.87C11.6828 27.589 11.807 27.3267 11.9971 27.1153C12.1872 26.904 12.4348 26.7527 12.7097 26.68C14.7663 26.5315 16.8301 26.5082 18.8897 26.61C19.3038 26.6534 19.6881 26.8456 19.9713 27.1509C20.2546 27.4561 20.4174 27.8538 20.4297 28.27C20.5097 28.87 20.5297 33.85 20.4297 34.51C20.4023 34.9393 20.2437 35.3498 19.9754 35.686C19.7072 36.0222 19.3421 36.268 18.9297 36.39ZM18.9297 50.39C16.8594 50.5502 14.7799 50.5502 12.7097 50.39C12.4298 50.3274 12.1763 50.1792 11.9845 49.9659C11.7928 49.7527 11.6722 49.485 11.6397 49.2C11.5147 46.7549 11.5147 44.3051 11.6397 41.86C11.684 41.5795 11.8086 41.3178 11.9985 41.1066C12.1884 40.8955 12.4354 40.7438 12.7097 40.67C14.7665 40.5249 16.8303 40.5049 18.8897 40.61C19.3029 40.6511 19.6872 40.8412 19.9705 41.1449C20.2539 41.4485 20.4171 41.8449 20.4297 42.26C20.5097 42.87 20.5297 47.84 20.4297 48.5C20.4028 48.9306 20.2447 49.3426 19.9765 49.6806C19.7083 50.0185 19.3429 50.2661 18.9297 50.39ZM35.4897 19.01C35.4897 20.9375 33.9271 22.5 31.9997 22.5C30.0722 22.5 28.5097 20.9375 28.5097 19.01C28.5097 17.0825 30.0722 15.52 31.9997 15.52C33.9271 15.52 35.4897 17.0825 35.4897 19.01ZM40.5297 50.22C40.0597 49.71 43.4797 47.49 43.8597 47.78C45.7997 49.27 46.4797 51.49 47.0297 51.48C47.5797 51.47 49.3797 45.64 52.9597 41.71C53.7097 40.88 56.9597 43.22 56.4697 43.84C52.0197 49.73 49.6797 55.84 49.1297 56.28C48.5797 56.72 46.0697 56.63 45.6397 56.38C45.2097 56.13 44.3197 54.38 40.5297 50.22Z" stroke="#494A4A" stroke-linecap="round" stroke-linejoin="round"/>
</g>
</g>
</svg>
