<svg width="64" height="64" viewBox="0 0 64 64" fill="none" xmlns="http://www.w3.org/2000/svg">
<g id="Pictogram-invoice-cards" clip-path="url(#clip0_426_1067)">
<g id="stroke-default">
<path id="2px" d="M11 22.09C11.17 19.61 12.2 17.86 14.36 17.38C15.61 17.1 18.77 16.72 20.49 16.3C23.1 15.66 24.15 14.54 24.75 11.93C25.1 10.38 25.16 7.92999 25.34 6.62999C25.6 4.74999 27.34 2.98999 30.25 2.98999M52.94 29.73C53.05 27 53.14 15.46 52.57 9.43999C52.19 5.36999 51.32 3.79999 48.08 3.49999C43.49 3.07999 34 2.99999 30.34 2.99999C25 2.99999 22 5.68999 18.69 8.99999C14.59 13.2 11 15.85 11 23.17C11 26.76 11.12 47.69 11.23 53.61C11.1907 54.2458 11.2808 54.883 11.4948 55.4829C11.7088 56.0829 12.0423 56.6333 12.4751 57.1007C12.908 57.5681 13.4311 57.9428 14.0129 58.2022C14.5947 58.4617 15.2231 58.6004 15.86 58.61C21.26 59.06 25.16 59.05 29.16 59.05M39.66 12.76C36.31 10.04 34.54 15.64 37.66 15.82C41.23 16.03 40.82 21.82 35.95 19.62M37.98 10.1V11.89M37.98 20.18V22M36.05 44.64C35.74 42.31 36.78 40.64 39.19 39.8C44.5467 38.1358 50.018 36.8657 55.56 36C58.51 35.62 59.95 37 60.8 39.29C61.8854 42.3544 62.6233 45.5309 63 48.76C63.2024 49.8904 62.9738 51.0556 62.3592 52.0257C61.7445 52.9958 60.7886 53.7002 59.68 54L59.02 54.2M54.37 62.73C48.7788 63.08 43.1712 63.08 37.58 62.73C36.4481 62.6407 35.3852 62.1505 34.5823 61.3477C33.7795 60.5448 33.2893 59.4819 33.2 58.35C32.9441 55.1317 32.9441 51.8982 33.2 48.68C33.2792 47.5445 33.7661 46.4759 34.571 45.671C35.3759 44.8661 36.4445 44.3792 37.58 44.3C43.169 43.8849 48.781 43.8849 54.37 44.3C57.37 44.59 58.42 46.3 58.75 48.68C59.1104 51.8932 59.1104 55.1367 58.75 58.35C58.701 59.4959 58.2238 60.5817 57.4127 61.3927C56.6017 62.2037 55.5159 62.681 54.37 62.73Z" stroke="#494A4A" stroke-width="2" stroke-linecap="round" stroke-linejoin="round"/>
<path id="1px" d="M14.5195 51.53C14.5195 54.48 14.2995 55.53 20.4595 55.53M24.9995 28.51C26.4195 28.4 42.2495 28.51 42.9995 28.51M21.4295 34.52C22.9495 34.4 39.1995 34.52 39.9995 34.52M21.4295 40.48C22.9495 40.36 31.1995 40.48 31.9995 40.48M60.2995 39.01L39.7595 44M61.3995 42.38L55.1195 44M51.5495 49C51.9635 48.675 52.4732 48.4957 52.9995 48.49C53.396 48.4858 53.7878 48.576 54.1426 48.7531C54.4974 48.9303 54.8049 49.1892 55.0399 49.5087C55.2748 49.8281 55.4304 50.1988 55.4938 50.5903C55.5572 50.9817 55.5265 51.3826 55.4044 51.7598C55.2823 52.1371 55.0722 52.4799 54.7914 52.7599C54.5107 53.0399 54.1673 53.2492 53.7898 53.3703C53.4122 53.4915 53.0112 53.5211 52.62 53.4567C52.2287 53.3923 51.8584 53.2358 51.5395 53M44.3995 58.5C43.5095 58.5 38.2995 58.5 37.5095 58.5M50.5095 58.47C49.7595 58.47 48.1895 58.47 47.5095 58.47M52.5195 50.99C52.5195 52.3707 51.4002 53.49 50.0195 53.49C48.6388 53.49 47.5195 52.3707 47.5195 50.99C47.5195 49.6093 48.6388 48.49 50.0195 48.49C51.4002 48.49 52.5195 49.6093 52.5195 50.99Z" stroke="#494A4A" stroke-linecap="round" stroke-linejoin="round"/>
</g>
</g>
<defs>
<clipPath id="clip0_426_1067">
<rect width="64" height="64" fill="white"/>
</clipPath>
</defs>
</svg>
