<svg width="65" height="65" viewBox="0 0 65 65" fill="none" xmlns="http://www.w3.org/2000/svg">
<g id="Pictogram-trolley-clicked" clip-path="url(#clip0_426_1997)">
<g id="stroke-default">
<path id="2px" d="M33.8093 44.8687C34.3612 44.8488 34.7925 44.3852 34.7725 43.8333C34.7526 43.2814 34.2891 42.8501 33.7371 42.87L33.8093 44.8687ZM18.5832 43.8694L18.4864 44.8647L18.4866 44.8647L18.5832 43.8694ZM14.2532 39.3694L15.2519 39.3188L15.2519 39.3181L14.2532 39.3694ZM9.8532 11.9394L8.89872 12.2376C8.90093 12.2447 8.90323 12.2518 8.9056 12.2588L9.8532 11.9394ZM56.3832 15.0494V14.0493L56.3727 14.0494L56.3832 15.0494ZM63.3832 21.7394L62.3837 21.7061L62.3834 21.7194L63.3832 21.7394ZM56.1718 38.0911C55.8138 38.5117 55.8644 39.1428 56.285 39.5008C56.7055 39.8588 57.3366 39.8081 57.6946 39.3876L56.1718 38.0911ZM16.3932 56.5394H17.3932H16.3932ZM19.8932 53.0394V52.0394V53.0394ZM15.2232 38.7094C15.2232 38.1571 14.7755 37.7094 14.2232 37.7094C13.6709 37.7094 13.2232 38.1571 13.2232 38.7094H15.2232ZM14.4032 43.4094L13.4038 43.4446L13.4039 43.4459L14.4032 43.4094ZM17.6232 49.0294L17.3404 49.9885L17.3416 49.9889L17.6232 49.0294ZM33.9232 51.0294C34.4755 51.0294 34.9232 50.5816 34.9232 50.0294C34.9232 49.4771 34.4755 49.0294 33.9232 49.0294V51.0294ZM50.5332 62.6394L51.4276 62.1921L51.4233 62.1835L51.4188 62.175L50.5332 62.6394ZM47.3932 55.4394L46.4155 55.6495L46.429 55.7121L46.4503 55.7724L47.3932 55.4394ZM45.1932 54.7394L45.8528 55.4909L45.8613 55.4835L45.8697 55.4758L45.1932 54.7394ZM42.6832 57.5494L43.4646 58.1734L43.4853 58.1475L43.5042 58.1203L42.6832 57.5494ZM39.0732 56.0294L38.0872 56.1963L38.0879 56.2001L39.0732 56.0294ZM40.9732 34.1294L40.5538 33.2216L40.5522 33.2223L40.9732 34.1294ZM58.4132 47.1294L57.6374 47.7603L57.6398 47.7633L58.4132 47.1294ZM57.0432 50.9794L56.9975 51.9783L57.0231 51.9795L57.0487 51.9793L57.0432 50.9794ZM53.3932 51.0394L53.3147 50.0424L53.2644 50.0464L53.2148 50.0554L53.3932 51.0394ZM52.4832 53.0994L53.3677 52.6328L53.3504 52.6L53.3307 52.5686L52.4832 53.0994ZM55.8932 60.1994L56.8109 59.8019L56.808 59.7955L55.8932 60.1994ZM33.7371 42.87C27.0826 43.1102 20.9749 43.0968 18.6798 42.874L18.4866 44.8647C20.9315 45.102 27.1638 45.1085 33.8093 44.8687L33.7371 42.87ZM18.68 42.8741C17.1114 42.7215 16.3777 42.3718 15.9794 41.9353C15.5732 41.4902 15.3244 40.7496 15.2519 39.3188L13.2545 39.42C13.332 40.9491 13.6032 42.2985 14.502 43.2834C15.4087 44.277 16.765 44.6972 18.4864 44.8647L18.68 42.8741ZM15.2519 39.3181C15.0832 36.0334 14.6823 23.1327 10.8008 11.6199L8.9056 12.2588C12.6841 23.4661 13.0832 36.0853 13.2545 39.4207L15.2519 39.3181ZM9.50207 12.8757C11.633 13.6748 15.1225 14.2588 19.1917 14.6978C23.2924 15.1403 28.0826 15.4448 32.8762 15.6522C42.4648 16.0669 52.1158 16.0944 56.3938 16.0493L56.3727 14.0494C52.1206 14.0943 42.5066 14.0668 32.9627 13.654C28.1901 13.4476 23.4471 13.1453 19.4063 12.7094C15.3339 12.27 12.0734 11.7039 10.2043 11.003L9.50207 12.8757ZM56.3832 16.0494C58.4782 16.0494 59.9844 16.5603 60.9435 17.44C61.8814 18.3004 62.4519 19.6574 62.3838 21.7061L64.3826 21.7726C64.4645 19.3113 63.775 17.3234 62.2954 15.9662C60.837 14.6285 58.7682 14.0494 56.3832 14.0494V16.0494ZM62.3834 21.7194C62.2632 27.7297 60.0687 33.5137 56.1718 38.0911L57.6946 39.3876C61.8906 34.4588 64.2535 28.231 64.383 21.7594L62.3834 21.7194ZM6.01222 4.29835C5.24197 4.10875 4.53021 4.27675 3.96193 4.51303C3.40396 4.74502 2.8942 5.08275 2.52194 5.32631C2.32222 5.45699 2.16688 5.55803 2.03025 5.63594C1.96436 5.67352 1.9133 5.69959 1.87425 5.71713C1.83428 5.73508 1.81863 5.73875 1.82277 5.73772C1.82796 5.73642 1.99447 5.69713 2.19348 5.80933C2.38359 5.9165 2.41746 6.05816 2.39857 6.00337L0.507825 6.65535C0.613932 6.96307 0.815614 7.32847 1.21131 7.55155C1.61591 7.77964 2.02578 7.7484 2.30706 7.67819C2.57904 7.61032 2.82798 7.48338 3.02103 7.37329C3.22092 7.25929 3.4298 7.12236 3.61695 6.99991C4.01844 6.73723 4.37306 6.50808 4.72977 6.35976C5.07618 6.21573 5.32943 6.18998 5.53418 6.24038L6.01222 4.29835ZM2.39857 6.00337C2.39291 5.98695 2.41697 6.05221 2.38391 6.15528C2.3526 6.25293 2.29968 6.29136 2.3101 6.28332C2.36417 6.24162 2.56658 6.14508 2.98788 6.08402C3.79606 5.96689 4.86123 6.05413 5.50587 6.23297L6.04052 4.30575C5.13517 4.05459 3.79034 3.94683 2.70102 4.1047C2.17356 4.18114 1.55535 4.33961 1.08848 4.69977C0.838432 4.89267 0.599971 5.16877 0.479473 5.54446C0.357235 5.92558 0.388487 6.30927 0.507825 6.65535L2.39857 6.00337ZM10.8077 11.6411C10.3055 10.0341 9.73659 8.41055 9.02852 7.11288C8.34102 5.8529 7.39615 4.66241 6.02769 4.30229L5.5187 6.23644C6.05024 6.37632 6.64537 6.92082 7.27287 8.07084C7.87981 9.18317 8.40091 10.6447 8.89872 12.2376L10.8077 11.6411ZM22.3932 56.5394C22.3932 57.7902 21.3722 58.7776 19.728 59.0531L20.0584 61.0256C22.2342 60.6611 24.3932 59.1485 24.3932 56.5394H22.3932ZM19.728 59.0531C19.1683 59.1469 18.6119 58.9315 18.154 58.4465C17.6881 57.9532 17.3932 57.242 17.3932 56.5394H15.3932C15.3932 57.7668 15.8933 58.9655 16.6999 59.8197C17.5145 60.6823 18.7081 61.2519 20.0584 61.0256L19.728 59.0531ZM17.3932 56.5394C17.3932 55.8763 17.6566 55.2404 18.1254 54.7716L16.7112 53.3574C15.8673 54.2013 15.3932 55.3459 15.3932 56.5394H17.3932ZM18.1254 54.7716C18.5943 54.3028 19.2302 54.0394 19.8932 54.0394V52.0394C18.6997 52.0394 17.5551 52.5135 16.7112 53.3574L18.1254 54.7716ZM19.8932 54.0394C20.9972 54.0394 21.5605 54.3623 21.869 54.7193C22.201 55.1037 22.3932 55.7064 22.3932 56.5394H24.3932C24.3932 55.4423 24.1454 54.295 23.3824 53.4119C22.5959 52.5015 21.4092 52.0394 19.8932 52.0394V54.0394ZM13.2232 38.7094C13.2232 40.6152 13.3763 42.6637 13.4038 43.4446L15.4026 43.3741C15.3701 42.455 15.2232 40.5835 15.2232 38.7094H13.2232ZM13.4039 43.4459C13.4699 45.2529 13.6924 46.6935 14.3149 47.7895C14.9783 48.9574 16.0101 49.5963 17.3404 49.9885L17.906 48.0702C16.8963 47.7724 16.3831 47.3813 16.054 46.8018C15.684 46.1502 15.4665 45.1259 15.4025 43.3729L13.4039 43.4459ZM17.3416 49.9889C18.7689 50.4077 21.4766 50.6592 24.4617 50.813C27.4917 50.9692 30.9373 51.0294 33.9232 51.0294V49.0294C30.9591 49.0294 27.5497 48.9695 24.5647 48.8157C21.5348 48.6595 19.0675 48.411 17.9048 48.0698L17.3416 49.9889ZM51.4188 62.175C50.2236 59.8955 49.1934 57.5332 48.3361 55.1063L46.4503 55.7724C47.3394 58.2895 48.4079 60.7395 49.6476 63.1037L51.4188 62.175ZM48.3709 55.2292C48.2846 54.8279 48.0938 54.4564 47.8179 54.1525L46.3372 55.497C46.3763 55.5401 46.4033 55.5927 46.4155 55.6495L48.3709 55.2292ZM47.8179 54.1525C47.5419 53.8486 47.1905 53.623 46.7994 53.4986L46.193 55.4044C46.2484 55.422 46.2981 55.454 46.3372 55.497L47.8179 54.1525ZM46.7994 53.4986C46.4082 53.3741 45.9911 53.3552 45.5902 53.4437L46.0217 55.3966C46.0785 55.3841 46.1376 55.3868 46.193 55.4044L46.7994 53.4986ZM45.5902 53.4437C45.1894 53.5323 44.8191 53.7252 44.5167 54.0029L45.8697 55.4758C45.9125 55.4365 45.9649 55.4092 46.0217 55.3966L45.5902 53.4437ZM44.5335 53.9878C43.5253 54.8728 42.6282 55.877 41.8622 56.9784L43.5042 58.1203C44.1777 57.152 44.9663 56.269 45.8528 55.4909L44.5335 53.9878ZM41.9018 56.9253C41.6706 57.2149 41.4294 57.4267 41.2179 57.5494C41.0041 57.6735 40.8866 57.6711 40.8489 57.6645C40.8356 57.6621 40.7285 57.6475 40.5675 57.4035C40.3944 57.1412 40.1982 56.6646 40.0585 55.8586L38.0879 56.2001C38.4014 58.0094 39.1305 59.393 40.5025 59.6343C41.1473 59.7476 41.7461 59.5552 42.2216 59.2793C42.6995 59.002 43.1208 58.6038 43.4646 58.1734L41.9018 56.9253ZM40.0592 55.8624C39.7548 54.0651 39.2589 49.1032 39.3244 44.377C39.3571 42.0118 39.5302 39.7581 39.9186 38.0085C40.1131 37.1328 40.3524 36.4262 40.6286 35.9076C40.9085 35.3822 41.1794 35.1361 41.3942 35.0364L40.5522 33.2223C39.792 33.5751 39.2526 34.2366 38.8634 34.9674C38.4705 35.705 38.1819 36.6033 37.9662 37.575C37.5343 39.52 37.358 41.9307 37.3245 44.3493C37.2575 49.1905 37.7616 54.2737 38.0872 56.1963L40.0592 55.8624ZM41.3926 35.0372C41.5397 34.9692 41.8428 34.9228 42.3953 35.0632C42.9342 35.2002 43.5962 35.4867 44.3619 35.9181C45.8901 36.7791 47.6737 38.1262 49.4605 39.6502C53.0324 42.6967 56.4609 46.3139 57.6374 47.7603L59.189 46.4984C57.9255 44.9449 54.409 41.2421 50.7584 38.1285C48.934 36.5725 47.0369 35.1296 45.3436 34.1756C44.4985 33.6995 43.6644 33.3222 42.8881 33.1249C42.1254 32.931 41.2942 32.8795 40.5538 33.2216L41.3926 35.0372ZM57.6398 47.7633C58.5288 48.8479 58.3584 49.3507 58.2868 49.4795C58.167 49.695 57.7575 49.9754 57.0377 49.9794L57.0487 51.9793C58.1489 51.9733 59.4244 51.5488 60.0346 50.4517C60.693 49.268 60.2976 47.8508 59.1866 46.4954L57.6398 47.7633ZM57.0889 49.9804C55.8308 49.9228 54.5703 49.9436 53.3147 50.0424L53.4717 52.0363C54.6446 51.9439 55.8222 51.9245 56.9975 51.9783L57.0889 49.9804ZM53.2148 50.0554C52.8354 50.1242 52.4786 50.2849 52.1757 50.5235L53.4131 52.0947C53.4593 52.0583 53.5137 52.0338 53.5716 52.0233L53.2148 50.0554ZM52.1757 50.5235C51.8728 50.762 51.6329 51.0712 51.4771 51.4239L53.3065 52.2321C53.3303 52.1783 53.3669 52.1311 53.4131 52.0947L52.1757 50.5235ZM51.4771 51.4239C51.3213 51.7766 51.2543 52.1622 51.2819 52.5467L53.2768 52.4034C53.2725 52.3447 53.2828 52.2859 53.3065 52.2321L51.4771 51.4239ZM51.2819 52.5467C51.3096 52.9313 51.431 53.3033 51.6357 53.6301L53.3307 52.5686C53.2995 52.5188 53.281 52.462 53.2768 52.4034L51.2819 52.5467ZM51.5987 53.5659C52.8356 55.9111 53.8556 58.0595 54.9784 60.6032L56.808 59.7955C55.6708 57.2192 54.6308 55.0277 53.3677 52.6328L51.5987 53.5659ZM54.9756 60.5968C54.8898 60.3986 54.9628 60.2581 54.9504 60.2836C54.9337 60.3175 54.8681 60.4177 54.7025 60.5711C54.3776 60.872 53.8504 61.2105 53.2476 61.492C52.6436 61.7741 52.0504 61.9584 51.6158 62.0086C51.3954 62.0341 51.2802 62.0173 51.2453 62.0076C51.2267 62.0024 51.35 62.0369 51.4276 62.1921L49.6388 63.0866C49.8839 63.5769 50.3175 63.826 50.7116 63.9351C51.0893 64.0397 51.4891 64.0366 51.8456 63.9954C52.5648 63.9122 53.3728 63.6409 54.0938 63.3042C54.8159 62.967 55.5375 62.5236 56.0614 62.0386C56.3201 61.799 56.5789 61.5052 56.7462 61.164C56.9176 60.8143 57.0341 60.3176 56.8108 59.802L54.9756 60.5968Z" fill="#494A4A"/>
<path id="1px" d="M42.0934 38.7693C41.6289 40.7999 41.3941 42.8762 41.3934 44.9593M34.9834 33.1093C35.7634 33.5093 36.2934 33.6593 36.5034 33.8293M35.7434 29.1193C36.1734 29.6693 37.9834 31.1193 38.1934 31.5693M40.9034 29.1793C40.8675 29.6853 40.8675 30.1932 40.9034 30.6993M35.8834 22.4793C35.8888 22.8826 35.7358 23.272 35.4572 23.5637C35.1786 23.8555 34.7966 24.0262 34.3934 24.0393C33.2934 24.1293 32.8934 23.3593 32.8934 22.5293C32.8954 22.1254 33.052 21.7377 33.331 21.4458C33.6099 21.1538 33.9901 20.9797 34.3934 20.9593C35.7134 20.8193 35.8834 21.6393 35.8834 22.4793ZM45.9134 22.4693C46.0734 23.4693 45.5734 23.9993 44.3934 23.9993C43.9876 23.9993 43.5985 23.8381 43.3115 23.5511C43.0246 23.2642 42.8634 22.875 42.8634 22.4693C42.8634 22.0635 43.0246 21.6743 43.3115 21.3874C43.5985 21.1005 43.9876 20.9393 44.3934 20.9393C44.7889 20.9674 45.1608 21.138 45.4403 21.4193C45.7197 21.7006 45.8878 22.0736 45.9134 22.4693ZM25.2034 23.2793C24.8134 24.1493 24.0834 24.3293 23.0934 23.6693C22.7632 23.4518 22.5329 23.112 22.4532 22.7248C22.3735 22.3375 22.4509 21.9345 22.6684 21.6043C22.8859 21.2741 23.2256 21.0438 23.6129 20.9641C24.0001 20.8844 24.4032 20.9618 24.7334 21.1793C25.0535 21.4125 25.2777 21.7542 25.3642 22.1407C25.4507 22.5271 25.3935 22.9319 25.2034 23.2793ZM25.2134 33.2793C24.8534 34.1293 24.1334 34.2793 23.1434 33.6393C22.8082 33.4308 22.5693 33.0979 22.4793 32.7136C22.3893 32.3292 22.4555 31.9248 22.6634 31.5893C23.1034 30.9193 23.6634 30.5893 24.7334 31.2293C25.055 31.4493 25.2826 31.7817 25.3714 32.1611C25.4602 32.5405 25.4039 32.9393 25.2134 33.2793ZM55.3934 22.4593C55.4162 22.6609 55.3929 22.8651 55.3253 23.0564C55.2577 23.2478 55.1475 23.4212 55.003 23.5638C54.8586 23.7063 54.6836 23.8141 54.4914 23.8792C54.2992 23.9442 54.0947 23.9648 53.8934 23.9393C52.6634 23.9393 52.3934 23.2793 52.3934 22.4593C52.3831 22.2605 52.415 22.0618 52.487 21.8762C52.559 21.6906 52.6695 21.5224 52.8112 21.3826C52.9529 21.2428 53.1226 21.1345 53.3091 21.065C53.4956 20.9955 53.6948 20.9663 53.8934 20.9793C54.9534 21.1593 55.3934 21.6393 55.3934 22.4593ZM50.8634 27.7493C50.8634 28.6193 50.2734 28.9993 49.4434 28.9993C48.6134 28.9993 47.8634 28.6193 47.8634 27.7493C47.8466 27.3169 47.9907 26.8936 48.2677 26.5612C48.5447 26.2288 48.9351 26.0108 49.3634 25.9493C49.7917 26.0108 50.1821 26.2288 50.4591 26.5612C50.7361 26.8936 50.8802 27.3169 50.8634 27.7493ZM30.9234 27.4693C30.5734 28.2393 30.2434 29.0393 29.3934 29.0393C28.9876 29.0393 28.5985 28.8781 28.3115 28.5911C28.0246 28.3042 27.8634 27.915 27.8634 27.5093C27.8634 27.1035 28.0246 26.7143 28.3115 26.4274C28.5985 26.1405 28.9876 25.9793 29.3934 25.9793C30.2434 25.9393 31.2134 26.8193 30.9234 27.4693Z" stroke="#494A4A" stroke-linecap="round" stroke-linejoin="round"/>
</g>
</g>
<defs>
<clipPath id="clip0_426_1997">
<rect width="64" height="64" fill="white" transform="translate(0.393555 0.0393066)"/>
</clipPath>
</defs>
</svg>
