<svg width="65" height="64" viewBox="0 0 65 64" fill="none" xmlns="http://www.w3.org/2000/svg">
<g id="Pictogram-lamp">
<g id="stroke-default">
<path id="2px" d="M62.3361 45.4004C62.3361 47.3004 57.3361 49.0004 49.7361 50.0004M18.3362 50.4004C8.83618 49.5004 2.33618 47.6004 2.33618 45.4004M62.3362 45.0999C62.3362 28.4999 50.7362 14.0999 32.3362 15.0999C13.9362 16.0999 2.33618 28.5999 2.33618 45.0999M41.9363 16.1C41.9363 9 41.9363 5 32.4363 5C22.9363 5 22.9363 9.5 22.9363 16.1M32.3362 1.59961V4.69961" stroke="#494A4A" stroke-width="2" stroke-linecap="round" stroke-linejoin="round"/>
<path id="1px" d="M26.9363 42.5996C26.9363 46.3996 28.6363 49.2996 32.4363 49.2996C36.2363 49.2996 38.9363 46.9996 38.9363 43.2996M42.7361 50.2002C43.5361 51.7002 45.9361 52.1002 46.4361 54.0002C46.6361 54.7002 42.2361 53.3002 42.4361 54.3002C42.7361 55.9002 46.0361 55.8002 47.2361 58.2002M32.636 54.2998C32.936 56.4998 32.436 58.7998 32.936 59.4998C33.236 59.8998 34.736 57.3998 34.536 57.7998C34.036 58.9998 34.336 60.4998 34.536 61.3998M19.636 56.4C24.036 51.5 21.936 58.1 26.036 52M45.0359 44.3995C45.0359 44.3995 48.2359 44.1995 48.2359 45.5995C48.2359 46.9995 49.3359 46.2995 49.3359 46.2995M20.1359 44.7997C17.7359 43.6997 18.9359 47.0997 16.5359 46.1997M2.33618 45.3998C2.33618 42.2998 15.7362 39.7998 32.3362 39.7998C48.9362 39.7998 62.3362 42.2998 62.3362 45.3998M44.8362 22.5C44.8362 22.5 47.7362 23.4 49.7362 26.4" stroke="#494A4A" stroke-linecap="round" stroke-linejoin="round"/>
</g>
</g>
</svg>
