<svg width="64" height="64" viewBox="0 0 64 64" fill="none" xmlns="http://www.w3.org/2000/svg">
<g id="Pictogram-file-card">
<g id="stroke-default">
<path id="2px" d="M11 22.1C11.2 19.6 12.2 17.9 14.4 17.4C15.6 17.1 18.8 16.7 20.5 16.3C23.1 15.7 24.2 14.5 24.8 11.9C25.2 10.4 25.2 7.9 25.4 6.6C25.7 4.7 27.4 3 30.3 3M53.0001 35.6C53.0001 29.2 53.1001 15.4 52.6001 9.4C52.2001 5.3 51.3001 3.8 48.1001 3.5C43.5001 3.1 34.1001 3 30.4001 3C25.1001 3 22.0001 5.7 18.8001 9C14.7001 13.2 11.1001 15.8 11.1001 23.1C11.1001 26.7 11.2001 47.6 11.3001 53.5C11.3001 56.8 13.5001 58.3 15.9001 58.4C21.3001 58.8 27.4001 58.8 31.4001 58.8M57.8001 60.7005C53.2001 61.1005 43.4001 61.1005 39.1001 60.7005C36.6001 60.5005 34.5001 58.5004 34.2001 55.6004C33.9001 52.0004 34.0001 47.2004 34.2001 44.4004C34.4001 41.6004 36.2001 39.7004 39.1001 39.3004C43.2001 38.8004 53.4001 38.9004 57.8001 39.3004C61.1001 39.6004 62.3001 41.6004 62.7001 44.4004C63.1001 47.5004 63.1001 52.0004 62.7001 55.6004C62.4001 58.2004 61.0001 60.4005 57.8001 60.7005Z" stroke="#494A4A" stroke-width="2" stroke-linecap="round" stroke-linejoin="round"/>
<path id="1px" d="M14.4998 51.5C14.4998 54.4 14.2998 55.5 20.3998 55.5M21.2002 28.4995C22.6002 28.3995 43.2002 28.4995 43.9002 28.4995M27.2998 22.4995C28.6998 22.3995 43.1998 22.4995 43.8998 22.4995M21.3999 34.4995C22.8999 34.3995 43.0999 34.4995 43.8999 34.4995M21.3999 40.4995C22.8999 40.3995 29.3999 40.4995 30.1999 40.4995M53.6001 44.1004C54.1001 43.7004 54.7001 43.5005 55.4001 43.5005C57.1001 43.5005 58.5001 44.8005 58.5001 46.5005C58.5001 48.2005 57.1001 49.5004 55.4001 49.5004C54.7001 49.5004 54.1001 49.3004 53.6001 48.9004M46.6001 55.5005C45.6001 55.5005 40.4001 55.5005 39.6001 55.5005M53.6001 55.5005C52.8001 55.5005 50.2001 55.5005 49.5001 55.5005M54.5001 46.5005C54.5001 48.1573 53.1569 49.5004 51.5001 49.5004C49.8432 49.5004 48.5001 48.1573 48.5001 46.5005C48.5001 44.8436 49.8432 43.5005 51.5001 43.5005C53.1569 43.5005 54.5001 44.8436 54.5001 46.5005Z" stroke="#494A4A" stroke-linecap="round" stroke-linejoin="round"/>
</g>
</g>
</svg>
