<svg width="64" height="64" viewBox="0 0 64 64" fill="none" xmlns="http://www.w3.org/2000/svg">
<g id="Pictogram-car">
<g id="stroke-default">
<path id="2px" d="M9.51007 57.34C6.17007 56.73 5.45007 56.34 4.84007 55.89C3.76007 55.14 3.28007 53.53 3.16007 51.66C2.95467 48.8023 3.07545 45.9304 3.52007 43.1C4.06007 39.95 5.91007 38.31 6.75007 36.74C7.47007 35.4 9.15007 19.37 11.0001 13.19C11.2129 12.2606 11.6787 11.4082 12.3458 10.727C13.0129 10.0458 13.8553 9.56231 14.7801 9.33003C22.3475 7.12311 30.1977 6.03822 38.0801 6.11003C40.9101 6.23003 43.0801 8.61003 43.7601 11.11C45.0001 15.2 46.2001 23.23 47.0701 30.32C47.3801 32.84 47.4501 35.84 49.0701 36.4C50.6901 36.96 53.6901 37.4 55.5501 38.26C56.1372 38.4521 56.6635 38.7953 57.076 39.2552C57.4885 39.7151 57.7727 40.2755 57.9001 40.88C58.4901 43.32 58.2101 50.21 56.6301 53.75C56.1967 54.5557 55.5989 55.2614 54.8754 55.8213C54.1518 56.3812 53.3187 56.7827 52.4301 57C50.0479 57.7086 47.5977 58.1644 45.1201 58.36M58.0001 41.31C58.4393 41.31 58.8743 41.3966 59.2801 41.5647C59.686 41.7328 60.0547 41.9791 60.3653 42.2898C60.676 42.6004 60.9223 42.9691 61.0904 43.375C61.2585 43.7808 61.3451 44.2158 61.3451 44.655C61.3451 45.0943 61.2585 45.5293 61.0904 45.9351C60.9223 46.3409 60.676 46.7097 60.3653 47.0203C60.0547 47.3309 59.686 47.5773 59.2801 47.7454C58.8743 47.9135 58.4393 48 58.0001 48M43.2901 33C43.2189 33.5208 42.9886 34.0069 42.6306 34.3918C42.2726 34.7767 41.8044 35.0415 41.2901 35.15C32.0954 35.5305 22.8864 35.3735 13.7101 34.68C13.1285 34.6092 12.5929 34.3282 12.2042 33.8898C11.8155 33.4513 11.6007 32.8859 11.6001 32.3C12.0173 26.4353 12.9035 20.6133 14.2501 14.89C14.3446 14.3244 14.5992 13.7978 14.9838 13.3724C15.3684 12.9471 15.8668 12.6408 16.4201 12.49C23.153 10.7803 30.0557 9.82769 37.0001 9.65003C37.769 9.59848 38.5309 9.82442 39.1475 10.2868C39.764 10.7492 40.1943 11.4174 40.3601 12.17C41.7178 17.587 42.6605 23.0997 43.1801 28.66M21.5101 56C21.5101 59.3137 18.8238 62 15.5101 62C12.1964 62 9.51007 59.3137 9.51007 56C9.51007 52.6863 12.1964 50 15.5101 50C18.8238 50 21.5101 52.6863 21.5101 56ZM45.5101 56C45.5101 59.3137 42.8238 62 39.5101 62C36.1964 62 33.5101 59.3137 33.5101 56C33.5101 52.6863 36.1964 50 39.5101 50C42.8238 50 45.5101 52.6863 45.5101 56ZM43.1401 28.66C41.7398 28.0606 40.242 27.7217 38.7201 27.66C37.7701 27.66 37.8301 32.88 38.7201 33.11C40.4441 33.4009 42.2104 33.3191 43.9001 32.87C44.4601 32.64 44.0001 29 43.1401 28.66Z" stroke="#494A4A" stroke-width="2" stroke-linecap="round" stroke-linejoin="round"/>
<path id="1px" d="M34.35 59.06C29.83 59.2671 25.3015 59.197 20.79 58.85M37.6 39C36.68 38.3 33.6 38.37 32.6 39.31M20.08 7.71002C18 4.61002 13.08 3.27002 10.54 3.48002M3.93 19.05C4.4428 18.8223 4.99064 18.6837 5.55 18.64M3.39 15.73C4 15.52 5 15.35 5.9 15.06M2 12.61C2.93 12.22 6.27 11.51 6.89 11.35M28.96 17.88L23.3 24.83M27.8 23.28L23.3 28.66M41.51 56C41.51 57.1046 40.6146 58 39.51 58C38.4054 58 37.51 57.1046 37.51 56C37.51 54.8954 38.4054 54 39.51 54C40.6146 54 41.51 54.8954 41.51 56ZM17.51 56C17.51 57.1046 16.6146 58 15.51 58C14.4054 58 13.51 57.1046 13.51 56C13.51 54.8954 14.4054 54 15.51 54C16.6146 54 17.51 54.8954 17.51 56ZM10.55 3.43002C10.55 4.20874 9.91872 4.84002 9.14 4.84002C8.36128 4.84002 7.73 4.20874 7.73 3.43002C7.73 2.6513 8.36128 2.02002 9.14 2.02002C9.91872 2.02002 10.55 2.6513 10.55 3.43002Z" stroke="#494A4A" stroke-linecap="round" stroke-linejoin="round"/>
</g>
</g>
</svg>
