<svg width="65" height="65" viewBox="0 0 65 65" fill="none" xmlns="http://www.w3.org/2000/svg">
<g id="Pictogram-trolley-hand" clip-path="url(#clip0_426_1973)">
<g id="stroke-default">
<path id="2px" d="M31.0522 43.9593C26.9246 44.198 22.7859 44.1679 18.6622 43.8693C15.3722 43.5493 14.4822 42.3293 14.3322 39.3693C14.1622 36.0593 13.7622 23.2993 9.93218 11.9393M9.93218 11.9393C17.9322 14.9393 47.9322 15.1393 56.4622 15.0493C60.9422 15.0493 63.6122 17.2293 63.4622 21.7393C63.1791 28.193 60.7669 34.3712 56.6022 39.3093M9.93218 11.9393C8.93218 8.7393 7.75218 5.7693 5.85218 5.2693M5.85218 5.2693C3.90218 4.7893 2.03218 7.7793 1.53218 6.3293C1.03218 4.8793 4.30218 4.8393 5.85218 5.2693ZM14.3022 38.7093C14.3022 40.5993 14.4522 42.5593 14.4822 43.4093C14.6122 46.9693 15.3622 48.3393 17.7022 49.0293C20.2922 49.7893 24.0722 50.0293 30.0122 50.0293M23.4722 56.5393C23.4722 58.4693 21.8822 59.7193 19.9722 60.0393C18.0622 60.3593 16.4722 58.4693 16.4722 56.5393C16.4722 55.611 16.8409 54.7208 17.4973 54.0644C18.1537 53.4081 19.0439 53.0393 19.9722 53.0393C22.5922 53.0393 23.4722 54.6093 23.4722 56.5393ZM55.8522 60.7393C56.1922 57.9793 58.2622 56.1393 59.0222 53.1293C60.7222 46.3693 57.4722 43.0393 55.4722 46.5393C55.6922 43.5393 52.6622 41.4593 51.4722 44.8293C51.5922 41.0393 47.4722 39.1593 47.4722 44.0393C46.6622 39.7793 45.7322 35.0393 45.4722 33.4593C45.1222 30.9993 40.8122 31.8693 41.4022 35.4593C42.1222 39.8993 43.0222 43.7593 43.0722 45.4593C43.3025 46.9186 43.172 48.4121 42.6922 49.8093C40.9722 47.7393 39.0822 45.5593 36.3422 46.1793C33.9622 46.7293 33.8122 49.7093 35.6922 50.1793C40.5622 51.2993 42.7822 54.9193 45.1722 60.9293C46.3522 63.7293 55.4722 63.9293 55.8522 60.7393Z" stroke="#494A4A" stroke-width="2" stroke-linecap="round" stroke-linejoin="round"/>
<path id="1px" d="M36.9324 30.8292C37.7124 31.2292 38.2424 31.3792 38.4524 31.5492M37.6924 26.8392C38.1324 27.3892 39.9324 28.8392 40.1424 29.2892M42.8624 26.8992C42.8213 27.405 42.8213 27.9134 42.8624 28.4192M35.9624 22.4792C35.9678 22.8826 35.8148 23.272 35.5362 23.5637C35.2575 23.8554 34.8756 24.0261 34.4724 24.0392C33.3724 24.1292 32.9724 23.3592 32.9724 22.5292C32.9744 22.1254 33.131 21.7377 33.4099 21.4457C33.6889 21.1537 34.0691 20.9796 34.4724 20.9592C35.7924 20.8192 35.9624 21.6392 35.9624 22.4792ZM45.9924 22.4692C46.1524 23.4692 45.6524 23.9992 44.4724 23.9992C44.0666 23.9992 43.6774 23.838 43.3905 23.5511C43.1036 23.2641 42.9424 22.875 42.9424 22.4692C42.9424 22.0634 43.1036 21.6743 43.3905 21.3873C43.6774 21.1004 44.0666 20.9392 44.4724 20.9392C44.8679 20.9674 45.2398 21.1379 45.5192 21.4192C45.7987 21.7005 45.9668 22.0735 45.9924 22.4692ZM25.2824 23.2792C24.8924 24.1492 24.1624 24.3292 23.1724 23.6692C22.8422 23.4517 22.6119 23.112 22.5322 22.7247C22.4525 22.3375 22.5299 21.9344 22.7474 21.6042C22.9649 21.274 23.3046 21.0437 23.6919 20.964C24.0791 20.8843 24.4822 20.9617 24.8124 21.1792C25.1325 21.4124 25.3567 21.7542 25.4432 22.1406C25.5297 22.5271 25.4725 22.9318 25.2824 23.2792ZM25.2924 33.2792C24.9324 34.1292 24.2124 34.2792 23.2224 33.6392C22.8871 33.4308 22.6483 33.0978 22.5583 32.7135C22.4683 32.3291 22.5345 31.9248 22.7424 31.5892C23.1824 30.9192 23.7424 30.5892 24.8124 31.2292C25.1339 31.4492 25.3615 31.7816 25.4504 32.161C25.5392 32.5404 25.4828 32.9393 25.2924 33.2792ZM55.4724 22.4592C55.4952 22.6608 55.4719 22.865 55.4043 23.0564C55.3367 23.2477 55.2265 23.4212 55.082 23.5637C54.9376 23.7062 54.7626 23.8141 54.5704 23.8791C54.3782 23.9442 54.1737 23.9647 53.9724 23.9392C52.7424 23.9392 52.4724 23.2792 52.4724 22.4592C52.4621 22.2604 52.494 22.0617 52.566 21.8761C52.638 21.6905 52.7485 21.5223 52.8902 21.3825C53.0319 21.2427 53.2016 21.1345 53.3881 21.065C53.5746 20.9955 53.7737 20.9662 53.9724 20.9792C55.0324 21.1592 55.4724 21.6392 55.4724 22.4592ZM50.9424 27.7492C50.9424 28.6192 50.3524 28.9992 49.5224 28.9992C48.6924 28.9992 47.9424 28.6192 47.9424 27.7492C47.9256 27.3168 48.0697 26.8935 48.3467 26.5611C48.6237 26.2287 49.014 26.0107 49.4424 25.9492C49.8707 26.0107 50.2611 26.2287 50.5381 26.5611C50.8151 26.8935 50.9591 27.3168 50.9424 27.7492ZM31.0024 27.4692C30.6524 28.2392 30.3224 29.0392 29.4724 29.0392C29.0666 29.0392 28.6774 28.878 28.3905 28.5911C28.1036 28.3041 27.9424 27.915 27.9424 27.5092C27.9424 27.1034 28.1036 26.7143 28.3905 26.4273C28.6774 26.1404 29.0666 25.9792 29.4724 25.9792C30.3224 25.9392 31.2924 26.8192 31.0024 27.4692Z" stroke="#494A4A" stroke-linecap="round" stroke-linejoin="round"/>
</g>
</g>
<defs>
<clipPath id="clip0_426_1973">
<rect width="64" height="64" fill="white" transform="translate(0.472168 0.0393066)"/>
</clipPath>
</defs>
</svg>
