<svg width="64" height="64" viewBox="0 0 64 64" fill="none" xmlns="http://www.w3.org/2000/svg">
<g id="Pictogram-report-search" clip-path="url(#clip0_426_706)">
<g id="stroke-default">
<path id="2px" d="M10.0033 23.0276C9.96331 23.5784 10.3774 24.0574 10.9283 24.0974C11.4791 24.1374 11.9581 23.7232 11.998 23.1724L10.0033 23.0276ZM14.3707 18.39L14.5876 19.3662L14.5892 19.3658L14.3707 18.39ZM20.5007 17.3L20.2616 16.329L20.2581 16.3299L20.5007 17.3ZM24.7607 12.93L25.7354 13.1532L25.7358 13.1516L24.7607 12.93ZM25.3507 7.64L26.3411 7.7782L26.3419 7.77182L25.3507 7.64ZM30.2607 5C30.8129 5 31.2607 4.55228 31.2607 4C31.2607 3.44772 30.8129 3 30.2607 3V5ZM41.4207 60C41.9729 60 42.4207 59.5523 42.4207 59C42.4207 58.4477 41.9729 58 41.4207 58V60ZM16.5207 58.65L16.4597 59.6481L16.4601 59.6482L16.5207 58.65ZM11.0607 52.36L10.0608 52.3769L10.0608 52.3779L11.0607 52.36ZM18.6307 10.07L19.3412 10.7737L19.3462 10.7686L18.6307 10.07ZM48.0007 4.51L47.907 5.50561L47.9112 5.50599L48.0007 4.51ZM52.4907 10.44L51.495 10.5332L51.4952 10.5355L52.4907 10.44ZM51.9707 31.4433C51.9725 31.9956 52.4217 32.4418 52.974 32.44C53.5262 32.4382 53.9725 31.989 53.9707 31.4367L51.9707 31.4433ZM53.0007 55.42L52.0698 55.7853C52.0792 55.8093 52.0895 55.8329 52.1007 55.856L53.0007 55.42ZM57.6307 62.23L56.8942 62.9065C56.8994 62.9121 56.9046 62.9177 56.9099 62.9232L57.6307 62.23ZM60.0707 62.93L60.3143 63.8999C60.3462 63.8918 60.3777 63.8823 60.4086 63.8712L60.0707 62.93ZM62.8807 60.28L61.9659 59.8758L61.9609 59.8875L62.8807 60.28ZM62.4307 58.12L63.2247 57.5122C63.2149 57.4994 63.2048 57.4868 63.1944 57.4744L62.4307 58.12ZM56.4307 53.12L55.9148 53.9767C55.921 53.9804 55.9272 53.984 55.9334 53.9876L56.4307 53.12ZM38.0007 11L38.2091 10.022L38.2014 10.0203L38.1937 10.0188L38.0007 11ZM11.998 23.1724C12.0801 22.0417 12.3506 21.1732 12.7697 20.5579C13.1724 19.9667 13.7488 19.5526 14.5876 19.3662L14.1537 17.4138C12.8325 17.7074 11.814 18.4083 11.1167 19.4321C10.4357 20.4318 10.1012 21.6783 10.0033 23.0276L11.998 23.1724ZM14.5892 19.3658C15.1736 19.2349 16.2263 19.0772 17.4157 18.889C18.5683 18.7066 19.8329 18.4977 20.7432 18.2701L20.2581 16.3299C19.4484 16.5323 18.273 16.7284 17.1031 16.9135C15.97 17.0928 14.8178 17.2651 14.1521 17.4142L14.5892 19.3658ZM20.7397 18.271C22.1312 17.9285 23.25 17.4277 24.0982 16.5541C24.9442 15.6826 25.4161 14.5477 25.7354 13.1532L23.7859 12.7068C23.5052 13.9323 23.1472 14.6624 22.6632 15.1609C22.1813 15.6573 21.4701 16.0315 20.2616 16.329L20.7397 18.271ZM25.7358 13.1516C25.9282 12.3048 26.035 11.2399 26.1159 10.2748C26.2003 9.26853 26.2561 8.3869 26.3411 7.7782L24.3603 7.5018C24.2652 8.1831 24.201 9.17648 24.1229 10.1077C24.0414 11.0801 23.9431 12.0152 23.7855 12.7084L25.7358 13.1516ZM26.3419 7.77182C26.5172 6.45408 27.7832 5 30.2607 5V3C26.9181 3 24.6842 5.06592 24.3594 7.50818L26.3419 7.77182ZM41.4207 58C34.0885 58 20.6639 57.8996 16.5812 57.6518L16.4601 59.6482C20.6174 59.9004 34.1128 60 41.4207 60V58ZM16.5816 57.6519C14.9884 57.5546 13.939 57.1461 13.2601 56.4222C12.5749 55.6916 12.0983 54.4607 12.0605 52.3421L10.0608 52.3779C10.103 54.7393 10.6364 56.5484 11.8013 57.7903C12.9723 59.0389 14.6129 59.5354 16.4597 59.6481L16.5816 57.6519ZM12.0605 52.3431C11.9607 46.4334 11.9307 27.7931 11.9307 24.21H9.93066C9.93066 27.7869 9.96063 46.4466 10.0608 52.3769L12.0605 52.3431ZM11.9307 24.21C11.9307 20.7406 12.7759 18.4362 14.0732 16.5052C15.416 14.5065 17.2263 12.9092 19.3412 10.7737L17.9201 9.36633C15.935 11.3708 13.8954 13.1835 12.4131 15.3898C10.8854 17.6638 9.93066 20.3594 9.93066 24.21H11.9307ZM19.3462 10.7686C22.6107 7.42471 25.437 5 30.2707 5V3C24.5643 3 21.2306 5.97529 17.9151 9.37144L19.3462 10.7686ZM30.2707 5C34.012 5 43.3926 5.08084 47.907 5.5056L48.0943 3.5144C43.4687 3.07916 33.9893 3 30.2707 3V5ZM47.9112 5.50599C49.3708 5.63704 50.0646 6.0326 50.501 6.6429C51.0016 7.34304 51.3054 8.50726 51.495 10.5332L53.4863 10.3468C53.2959 8.31274 52.9697 6.65696 52.1279 5.4796C51.2217 4.2124 49.8605 3.67296 48.0901 3.51401L47.9112 5.50599ZM51.4952 10.5355C51.7698 13.399 51.9406 22.3259 51.9707 31.4433L53.9707 31.4367C53.9407 22.3541 53.7715 13.321 53.4861 10.3445L51.4952 10.5355ZM54.0007 43.5C54.0007 49.299 49.2997 54 43.5007 54V56C50.4042 56 56.0007 50.4036 56.0007 43.5H54.0007ZM43.5007 54C37.7017 54 33.0007 49.299 33.0007 43.5H31.0007C31.0007 50.4036 36.5971 56 43.5007 56V54ZM33.0007 43.5C33.0007 37.701 37.7017 33 43.5007 33V31C36.5971 31 31.0007 36.5964 31.0007 43.5H33.0007ZM43.5007 33C49.2997 33 54.0007 37.701 54.0007 43.5H56.0007C56.0007 36.5964 50.4042 31 43.5007 31V33ZM51.2936 52.7071L53.2936 54.7071L54.7078 53.2929L52.7078 51.2929L51.2936 52.7071ZM52.1007 55.856C53.3465 58.4272 54.9614 60.8024 56.8942 62.9065L58.3671 61.5535C56.5661 59.593 55.0614 57.3797 53.9006 54.984L52.1007 55.856ZM56.9099 62.9232C57.341 63.3715 57.8829 63.6979 58.4808 63.8694L59.0323 61.9469C58.7732 61.8726 58.5383 61.7311 58.3514 61.5368L56.9099 62.9232ZM58.4808 63.8694C59.0786 64.0409 59.7111 64.0514 60.3143 63.8999L59.827 61.9601C59.5656 62.0258 59.2914 62.0213 59.0323 61.9469L58.4808 63.8694ZM60.4086 63.8712C61.1636 63.6 61.8546 63.176 62.4382 62.6256L61.066 61.1706C60.6826 61.5322 60.2287 61.8107 59.7327 61.9888L60.4086 63.8712ZM62.4382 62.6256C63.0218 62.0752 63.4855 61.4103 63.8004 60.6725L61.9609 59.8875C61.7541 60.3722 61.4494 60.809 61.066 61.1706L62.4382 62.6256ZM63.7954 60.6842C64.0463 60.1161 64.1522 59.5465 64.001 58.9396C63.8645 58.3913 63.5405 57.9246 63.2247 57.5122L61.6366 58.7278C61.9409 59.1253 62.0319 59.3087 62.0603 59.4229C62.0742 59.4785 62.095 59.5839 61.966 59.8758L63.7954 60.6842ZM63.1944 57.4744C61.4256 55.3821 59.305 53.6148 56.9279 52.2524L55.9334 53.9876C58.1083 55.2342 60.0486 56.8511 61.667 58.7656L63.1944 57.4744ZM56.9465 52.2633C56.3164 51.8839 55.5884 52.0372 55.1473 52.1818C54.6394 52.3483 54.1225 52.6327 53.677 52.9446C53.2324 53.256 52.8016 53.6351 52.4906 54.0283C52.3366 54.2232 52.1824 54.4584 52.0841 54.7214C51.9887 54.977 51.9066 55.3695 52.0698 55.7853L53.9316 55.0547C53.974 55.1629 53.9799 55.2586 53.9758 55.3224C53.9719 55.3831 53.9589 55.4179 53.9577 55.4214C53.9574 55.4222 53.9791 55.3704 54.0594 55.2688C54.2173 55.0692 54.4889 54.8177 54.8243 54.5829C55.1589 54.3486 55.4994 54.1711 55.7703 54.0823C56.1079 53.9716 56.08 54.0761 55.9148 53.9767L56.9465 52.2633ZM37.7922 11.978C37.6581 11.9495 37.5664 11.8932 37.5187 11.8579C37.4941 11.8397 37.477 11.824 37.467 11.814C37.4568 11.804 37.4515 11.7976 37.4507 11.7966C37.45 11.7957 37.4593 11.8072 37.4774 11.8372C37.495 11.8663 37.5166 11.9058 37.542 11.9575C37.6503 12.1778 37.7663 12.4935 37.8946 12.8729C38.013 13.2229 38.1482 13.6474 38.2714 13.9785C38.3345 14.1479 38.406 14.3255 38.4855 14.4836C38.5489 14.6095 38.6787 14.8534 38.9005 15.0382L40.1808 13.5018C40.2976 13.5991 40.3197 13.6792 40.2723 13.5851C40.2412 13.5231 40.1992 13.4243 40.1458 13.2809C40.0362 12.9863 39.927 12.6396 39.7892 12.2321C39.6613 11.854 39.5092 11.4259 39.3371 11.0757C39.2517 10.9017 39.141 10.7042 38.9988 10.5303C38.8724 10.3759 38.6158 10.1086 38.2091 10.022L37.7922 11.978ZM38.9005 15.0382C39.1554 15.2507 39.4593 15.3211 39.6003 15.3505C39.783 15.3886 39.9814 15.4095 40.1652 15.4231C40.529 15.4499 40.9744 15.4559 41.3477 15.4659C41.7518 15.4767 42.0784 15.4922 42.3033 15.5269C42.4206 15.545 42.4449 15.5592 42.4183 15.5475C42.4022 15.5404 42.3367 15.5103 42.2597 15.4398C42.1766 15.3637 42.0698 15.2297 42.0205 15.0325L43.9608 14.5475C43.8294 14.0219 43.4029 13.7959 43.2263 13.718C43.0146 13.6245 42.7878 13.578 42.6083 13.5503C42.2398 13.4934 41.7908 13.477 41.4012 13.4666C40.9807 13.4554 40.6142 13.4507 40.3121 13.4285C40.1629 13.4175 40.0648 13.4043 40.0081 13.3925C39.9096 13.372 40.0309 13.3768 40.1808 13.5018L38.9005 15.0382ZM42.0205 15.0325C41.9759 14.854 42.0009 14.7104 42.0209 14.6371C42.0406 14.5646 42.0648 14.5243 42.066 14.5223C42.0664 14.5217 42.0388 14.5644 41.9521 14.6561C41.7834 14.8347 41.5256 15.0595 41.2156 15.3169C40.9286 15.5552 40.5808 15.8342 40.3189 16.0622C40.185 16.1788 40.0479 16.3038 39.9325 16.4257C39.8504 16.5125 39.6561 16.7203 39.5584 16.995L41.4429 17.665C41.3852 17.8272 41.3028 17.8875 41.3853 17.8003C41.4346 17.7482 41.5149 17.6727 41.6321 17.5706C41.8724 17.3615 42.1614 17.1311 42.4932 16.8556C42.8019 16.5993 43.1448 16.3059 43.4058 16.0298C43.534 15.8942 43.6785 15.7254 43.7891 15.5376C43.8756 15.3908 44.0768 15.0114 43.9608 14.5475L42.0205 15.0325ZM39.5584 16.995C39.4916 17.183 39.4857 17.3548 39.4872 17.4547C39.4888 17.5658 39.5019 17.6708 39.5163 17.7582C39.5449 17.9321 39.5929 18.1192 39.6418 18.2922C39.7339 18.6184 39.8842 19.0764 39.9883 19.4212C40.1063 19.8126 40.1904 20.1366 40.2205 20.3691C40.2357 20.4872 40.2288 20.5241 40.2314 20.5069C40.2328 20.4979 40.2638 20.2941 40.4816 20.1269L41.6997 21.7132C42.0575 21.4384 42.17 21.0559 42.2076 20.8146C42.2465 20.5651 42.2303 20.3162 42.204 20.1128C42.1509 19.7021 42.0225 19.2399 41.9031 18.8438C41.7696 18.4011 41.6574 18.0704 41.5664 17.7484C41.5237 17.5974 41.5 17.4956 41.4898 17.4335C41.4847 17.4029 41.4866 17.403 41.487 17.4248C41.4871 17.4353 41.4897 17.5332 41.4429 17.665L39.5584 16.995ZM40.4816 20.1269C40.6988 19.9601 40.9168 19.9737 40.9801 19.9836C41.0314 19.9916 41.0236 20.0006 40.9362 19.9547C40.7635 19.8641 40.5257 19.6935 40.2129 19.4521C39.932 19.2353 39.5809 18.9532 39.2728 18.7403C39.1148 18.6311 38.9377 18.5183 38.756 18.4288C38.5913 18.3478 38.3314 18.2389 38.0288 18.2304L37.9725 20.2296C37.8474 20.2261 37.7997 20.1872 37.8726 20.2231C37.9286 20.2507 38.0145 20.3019 38.1357 20.3856C38.3861 20.5586 38.658 20.7784 38.9909 21.0354C39.2919 21.2677 39.6584 21.5428 40.0067 21.7256C40.1798 21.8165 40.4116 21.9191 40.6724 21.9598C40.9452 22.0022 41.3425 21.9874 41.6997 21.7132L40.4816 20.1269ZM38.0288 18.2304C37.7032 18.2212 37.4271 18.3322 37.2548 18.4163C37.0673 18.5079 36.8894 18.6251 36.7355 18.7359C36.4381 18.95 36.0955 19.2413 35.8312 19.4555C35.5315 19.6983 35.3056 19.8651 35.1383 19.9526C34.9019 20.0762 35.1274 19.8716 35.4474 20.07L34.3939 21.77C35.0689 22.1884 35.7682 21.8801 36.0649 21.7249C36.4307 21.5337 36.7973 21.2467 37.0901 21.0095C37.4183 20.7437 37.6682 20.5288 37.9039 20.3591C38.0166 20.278 38.0904 20.234 38.1323 20.2135C38.1895 20.1856 38.1206 20.2338 37.9725 20.2296L38.0288 18.2304ZM35.4474 20.07C35.7942 20.2849 35.6947 20.6139 35.7153 20.3743C35.7297 20.2057 35.796 19.9429 35.9152 19.5775C35.9719 19.4036 36.0339 19.2255 36.0989 19.0387C36.1624 18.8561 36.2291 18.6638 36.288 18.4795C36.3896 18.1619 36.5296 17.6944 36.5095 17.2813L34.5119 17.3787C34.5117 17.3756 34.4993 17.5069 34.383 17.8705C34.333 18.0269 34.2745 18.1958 34.2098 18.3818C34.1466 18.5636 34.0776 18.7614 34.0137 18.9575C33.8916 19.3321 33.7585 19.7855 33.7226 20.2032C33.6929 20.5498 33.6921 21.3351 34.3939 21.77L35.4474 20.07ZM36.5095 17.2813C36.4919 16.9217 36.3395 16.6345 36.2082 16.4437C36.0726 16.2466 35.9064 16.0756 35.7523 15.9348C35.4476 15.6563 35.0657 15.3855 34.7551 15.1654C34.4126 14.9226 34.1558 14.7405 33.986 14.587C33.9005 14.5097 33.8913 14.4867 33.908 14.5138C33.9203 14.5336 34.0503 14.7487 33.964 15.0585L32.0374 14.5215C31.9086 14.9838 32.0838 15.367 32.2081 15.5675C32.3369 15.7752 32.5063 15.9455 32.645 16.0708C32.9237 16.3227 33.2974 16.5836 33.5987 16.7971C33.9318 17.0332 34.2068 17.2318 34.4031 17.4111C34.4995 17.4992 34.5447 17.5543 34.5605 17.5772C34.5805 17.6064 34.5194 17.5333 34.5119 17.3787L36.5095 17.2813ZM33.964 15.0585C33.8762 15.3733 33.6479 15.4921 33.6189 15.5063C33.5842 15.5233 33.5985 15.5096 33.707 15.4922C33.918 15.4582 34.2296 15.4469 34.6286 15.4437C34.9914 15.4408 35.4388 15.4449 35.8026 15.4242C35.9877 15.4136 36.1908 15.395 36.3806 15.3561C36.5359 15.3244 36.839 15.251 37.0958 15.034L35.8055 13.506C35.9499 13.384 36.0661 13.3791 35.9798 13.3967C35.928 13.4073 35.8349 13.4191 35.6887 13.4274C35.3901 13.4445 35.0349 13.4404 34.6127 13.4438C34.2267 13.4469 33.7708 13.4562 33.3893 13.5175C33.2016 13.5477 32.9634 13.6004 32.7396 13.7099C32.5216 13.8167 32.1676 14.0542 32.0374 14.5215L33.964 15.0585ZM37.0958 15.034C37.323 14.8422 37.455 14.588 37.5206 14.4532C37.6021 14.2856 37.675 14.0971 37.7391 13.9171C37.8635 13.5674 38.0002 13.1152 38.1167 12.7564C38.2455 12.3602 38.3566 12.054 38.4547 11.8623C38.5066 11.7608 38.5197 11.763 38.4791 11.8029C38.4388 11.8426 38.1942 12.0572 37.8076 11.9812L38.1937 10.0188C37.6546 9.91276 37.2613 10.1952 37.0757 10.378C36.8898 10.5611 36.761 10.7817 36.6741 10.9515C36.4947 11.3023 36.3409 11.7498 36.2146 12.1386C36.0761 12.5648 35.9679 12.9288 35.8548 13.2467C35.8001 13.4004 35.7561 13.5084 35.7223 13.5778C35.6726 13.6799 35.6908 13.6028 35.8055 13.506L37.0958 15.034Z" fill="#494A4A"/>
<path id="1px" d="M59.0005 57.91C59.5105 58.35 60.4805 59.04 60.4805 59.61M37.5405 39.07C36.1205 40.01 35.2105 42.69 35.8005 44.74M26.2305 27.53C26.9605 27.53 41.1605 27.33 42.4905 27.44M22.4905 33.49C23.7805 33.49 28.0005 33.56 28.7605 33.49M22.4905 39.5C25.1505 39.5 26.8605 39.43 27.6205 39.5M22.4905 45.52C23.9705 45.52 27.1605 45.52 27.6205 45.52M14.5205 51.53C14.5205 54.48 14.3005 55.53 20.4605 55.53" stroke="#494A4A" stroke-linecap="round" stroke-linejoin="round"/>
</g>
</g>
<defs>
<clipPath id="clip0_426_706">
<rect width="64" height="64" fill="white"/>
</clipPath>
</defs>
</svg>
