<?xml version="1.0" encoding="UTF-8"?><svg id="ak" xmlns="http://www.w3.org/2000/svg" width="16" height="16" viewBox="0 0 16 16"><rect id="al" x="0" y=".06" width="16" height="16" style="fill:rgba(217,54,68,0);"/><line x1="12.25" y1="5.31" x2="12.25" y2="10.69" style="fill:none; stroke:#505f7a; stroke-linecap:round; stroke-linejoin:round; stroke-width:1.5px;"/><polyline points="7.74 5.27 10.24 8 7.74 10.73" style="fill:none; stroke:#505f7a; stroke-linecap:round; stroke-linejoin:round; stroke-width:1.5px;"/><polyline points="3.78 5.26 6.23 7.99 3.78 10.73" style="fill:none; stroke:#505f7a; stroke-linecap:round; stroke-linejoin:round; stroke-width:1.5px;"/><path d="M7.61,.77s.84,0,.87,0c6.06,0,6.77,.7,6.77,6.83v.85c0,6.08-.71,6.78-6.79,6.78h-.85C1.5,15.24,.78,14.21,.78,8.46c0,0,0-.83,0-.86C.78,1.81,1.49,.77,7.61,.77h0Z" style="fill:none; stroke:#505f7a; stroke-linecap:round; stroke-linejoin:round; stroke-width:1.5px;"/></svg>