<?xml version="1.0" encoding="UTF-8"?><svg id="bq" xmlns="http://www.w3.org/2000/svg" width="16" height="16" viewBox="0 0 16 16"><rect id="br" y="0" width="16" height="16" style="fill:rgba(217,54,68,0);"/><path d="M4.73,4.78c1.68,.11,4.73-.11,6.55,0" style="fill:none; stroke:#505f7a; stroke-linecap:round; stroke-linejoin:round; stroke-width:1.5px;"/><path d="M4.74,8.02c1.48-.09,5.01,.11,6.62,0" style="fill:none; stroke:#505f7a; stroke-linecap:round; stroke-linejoin:round; stroke-width:1.5px;"/><path d="M4.75,11.27c1.71-.08,4.74,.06,6.41,0" style="fill:none; stroke:#505f7a; stroke-linecap:round; stroke-linejoin:round; stroke-width:1.5px;"/><path d="M7.61,.77s.84,0,.87,0c6.06,0,6.77,.7,6.77,6.83v.85c0,6.08-.71,6.78-6.79,6.78h-.85C1.5,15.24,.78,14.21,.78,8.46c0,0,0-.83,0-.86C.78,1.81,1.49,.77,7.61,.77h0Z" style="fill:none; stroke:#505f7a; stroke-linecap:round; stroke-linejoin:round; stroke-width:1.5px;"/></svg>