<?xml version="1.0" encoding="UTF-8"?><svg id="bs" xmlns="http://www.w3.org/2000/svg" width="16" height="16" viewBox="0 0 16 16"><rect id="bt" x="0" y="0" width="16" height="16" style="fill:rgba(217,54,68,0);"/><path d="M7.99,8.25c-.41,0-.19-.5,0-.49,.35,.02,.29,.49,0,.49" style="fill:none; stroke:#505f7a; stroke-miterlimit:10; stroke-width:1.5px;"/><path d="M12,8.25c-.41,0-.19-.51,0-.5,.35,.02,.29,.49,0,.49" style="fill:none; stroke:#505f7a; stroke-miterlimit:10; stroke-width:1.5px;"/><path d="M4.31,8.01c0,.21-.5,.44-.5,0,0-.25,.5-.41,.5,0" style="fill:none; stroke:#505f7a; stroke-miterlimit:10; stroke-width:1.5px;"/><path d="M7.61,.77s.84,0,.87,0c6.06,0,6.77,.7,6.77,6.83v.85c0,6.08-.71,6.78-6.79,6.78h-.85C1.5,15.24,.78,14.21,.78,8.46c0,0,0-.83,0-.86C.78,1.81,1.49,.77,7.61,.77h0Z" style="fill:none; stroke:#505f7a; stroke-linecap:round; stroke-linejoin:round; stroke-width:1.5px;"/></svg>