<?xml version="1.0" encoding="UTF-8"?><svg id="ac" xmlns="http://www.w3.org/2000/svg" width="16" height="16" viewBox="0 0 16 16"><rect id="ad" width="16" height="16" style="fill:#f28d00; opacity:0;"/><path d="M6.38,11.27c.11,.13,4.83-2.46,4.83-3.27s-4.17-3.37-4.81-3.27c-.23,.04-.28,6.25-.02,6.54Z" style="fill:none; stroke:#505f7a; stroke-linecap:round; stroke-linejoin:round; stroke-width:1.5px;"/><path d="M7.61,.77s.84,0,.87,0c6.06,0,6.77,.7,6.77,6.83v.85c0,6.08-.71,6.78-6.79,6.78h-.85C1.5,15.24,.78,14.21,.78,8.46c0,0,0-.83,0-.86C.78,1.81,1.49,.77,7.61,.77h0Z" style="fill:none; stroke:#505f7a; stroke-linecap:round; stroke-linejoin:round; stroke-width:1.5px;"/></svg>