<?xml version="1.0" encoding="UTF-8"?><svg id="i" xmlns="http://www.w3.org/2000/svg" width="16" height="16" viewBox="0 0 16 16"><rect id="j" x="0" y="0" width="16" height="16" style="fill:rgba(217,54,68,0);"/><path d="M11.2,8c-.25-.41-2.97-3.28-3.2-3.28s-2.6,2.42-3.2,3.28" style="fill:none; stroke:#505f7a; stroke-linecap:round; stroke-linejoin:round; stroke-width:1.5px;"/><line x1="8" y1="4.72" x2="8" y2="11.28" style="fill:none; stroke:#505f7a; stroke-linecap:round; stroke-linejoin:round; stroke-width:1.5px;"/><path d="M7.61,.77s.84,0,.87,0c6.06,0,6.77,.7,6.77,6.83v.85c0,6.08-.71,6.78-6.79,6.78h-.85C1.5,15.24,.78,14.21,.78,8.46c0,0,0-.83,0-.86C.78,1.81,1.49,.77,7.61,.77h0Z" style="fill:none; stroke:#505f7a; stroke-linecap:round; stroke-linejoin:round; stroke-width:1.5px;"/></svg>