<?xml version="1.0" encoding="UTF-8"?><svg id="ap" xmlns="http://www.w3.org/2000/svg" width="24" height="24" viewBox="0 0 24 24"><rect id="aq" y="0" width="24" height="24" style="fill:rgba(217,54,68,0);"/><path d="M16.23,7.79c-.61,.38-4.2,3.88-4.2,4.23s2.91,3.28,4.2,4.21" style="fill:none; stroke:#505f7a; stroke-linecap:round; stroke-linejoin:round; stroke-width:1.5px;"/><path d="M10.99,7.79c-.61,.38-4.2,3.88-4.2,4.23s2.91,3.28,4.2,4.21" style="fill:none; stroke:#505f7a; stroke-linecap:round; stroke-linejoin:round; stroke-width:1.5px;"/><path d="M11.44,1.77s1.19,0,1.23,0c8.57,0,9.58,.99,9.58,9.67v1.2c0,8.61-1.01,9.6-9.6,9.6h-1.2c-8.64,0-9.66-1.45-9.67-9.59,0,0,0-1.18,0-1.21C1.77,3.23,2.78,1.77,11.44,1.77h0Z" style="fill:none; stroke:#505f7a; stroke-linecap:round; stroke-linejoin:round; stroke-width:1.5px;"/></svg>