<?xml version="1.0" encoding="UTF-8"?><svg id="al" xmlns="http://www.w3.org/2000/svg" width="24" height="24" viewBox="0 0 24 24"><rect id="am" y=".06" width="24" height="24" style="fill:rgba(217,54,68,0);"/><line x1="17.25" y1="8.8" x2="17.25" y2="15.23" style="fill:none; stroke:#505f7a; stroke-linecap:round; stroke-linejoin:round; stroke-width:1.5px;"/><polyline points="11.25 8.8 14.26 12.01 11.25 15.21" style="fill:none; stroke:#505f7a; stroke-linecap:round; stroke-linejoin:round; stroke-width:1.5px;"/><polyline points="6.25 8.8 9.28 12.01 6.25 15.22" style="fill:none; stroke:#505f7a; stroke-linecap:round; stroke-linejoin:round; stroke-width:1.5px;"/><path d="M11.44,1.77s1.19,0,1.23,0c8.57,0,9.58,.99,9.58,9.67v1.2c0,8.61-1.01,9.6-9.6,9.6h-1.2c-8.64,0-9.66-1.45-9.67-9.59,0,0,0-1.18,0-1.21C1.77,3.23,2.78,1.77,11.44,1.77h0Z" style="fill:none; stroke:#505f7a; stroke-linecap:round; stroke-linejoin:round; stroke-width:1.5px;"/></svg>