<?xml version="1.0" encoding="UTF-8"?><svg id="bt" xmlns="http://www.w3.org/2000/svg" width="24" height="24" viewBox="0 0 24 24"><rect id="bu" x="0" y="0" width="24" height="24" style="fill:rgba(217,54,68,0);"/><path d="M12.01,10.76c1.78,0,1.48,2.49-.01,2.49-2.09,0-1.1-2.49,0-2.49" style="fill:none; stroke:#505f7a; stroke-miterlimit:10; stroke-width:1.5px;"/><path d="M7.21,11.99c0,1.05-2.45,2.17-2.45,0,0-1.2,2.45-2.02,2.45,0" style="fill:none; stroke:#505f7a; stroke-miterlimit:10; stroke-width:1.5px;"/><path d="M18.01,10.76c1.97,0,1.3,2.55-.01,2.49-1.94-.1-1.27-2.49,0-2.49" style="fill:none; stroke:#505f7a; stroke-miterlimit:10; stroke-width:1.5px;"/><path d="M11.44,1.77s1.19,0,1.23,0c8.57,0,9.58,.99,9.58,9.67v1.2c0,8.61-1.01,9.6-9.6,9.6h-1.2c-8.64,0-9.66-1.45-9.67-9.59,0,0,0-1.18,0-1.21C1.77,3.23,2.78,1.77,11.44,1.77h0Z" style="fill:none; stroke:#505f7a; stroke-linecap:round; stroke-linejoin:round; stroke-width:1.5px;"/></svg>