<?xml version="1.0" encoding="UTF-8"?><svg id="j" xmlns="http://www.w3.org/2000/svg" width="24" height="24" viewBox="0 0 24 24"><rect id="k" y="0" width="24" height="24" style="fill:rgba(217,54,68,0);"/><path d="M16.24,11.25c-.38-.65-3.89-4.48-4.25-4.48s-3.29,3.1-4.23,4.48" style="fill:none; stroke:#505f7a; stroke-linecap:round; stroke-linejoin:round; stroke-width:1.5px;"/><line x1="12.01" y1="8.03" x2="12.01" y2="17.23" style="fill:none; stroke:#505f7a; stroke-linecap:round; stroke-linejoin:round; stroke-width:1.5px;"/><path d="M11.44,1.99s1.16,0,1.2,0c8.38,0,9.36,.97,9.36,9.45v1.18c0,8.42-.98,9.38-9.38,9.38h-1.18c-8.44,0-9.44-1.42-9.45-9.38,0,0,0-1.15,0-1.19C1.99,3.43,2.98,1.99,11.44,1.99h0Z" style="fill:none; stroke:#505f7a; stroke-linecap:round; stroke-linejoin:round; stroke-width:1.5px;"/></svg>