<svg xmlns="http://www.w3.org/2000/svg" xmlns:xlink="http://www.w3.org/1999/xlink" width="82" height="24" viewBox="0 0 82 24"><defs><style>.cls-1{fill:none;}.cls-2{clip-path:url(#clip-path);}.cls-3{fill:#f9f9f9;}.cls-4{fill:#7ac5fc;}.cls-5{fill:#ffb81c;}.cls-6{opacity:0.05;}.cls-7{fill:#282828;}.cls-8{clip-path:url(#clip-path-2);}.cls-9{fill:#f2f2f2;}.cls-10{fill:#cee3f2;}.cls-11{fill:#f2e6ce;}.cls-12{clip-path:url(#clip-path-3);}.cls-13{fill:#fff;}.cls-14{fill:#6cace4;}.cls-15{fill:#020202;}</style><clipPath id="clip-path"><path id="Container-2" class="cls-1" d="M62.35,3.46a64.59,64.59,0,0,1,15.41,0,4.56,4.56,0,0,1,4,4,42.68,42.68,0,0,1,0,9,4.42,4.42,0,0,1-4,4,59.32,59.32,0,0,1-15.41,0,4.63,4.63,0,0,1-4-4,30.11,30.11,0,0,1,0-9C58.86,5.3,59.86,3.82,62.35,3.46Z"/></clipPath><clipPath id="clip-path-2"><path id="Container-2-2" data-name="Container-2" class="cls-1" d="M33.35,3.46a64.59,64.59,0,0,1,15.41,0,4.56,4.56,0,0,1,4,4,42.68,42.68,0,0,1,0,9,4.42,4.42,0,0,1-4,4,59.32,59.32,0,0,1-15.41,0,4.63,4.63,0,0,1-4-4,30.11,30.11,0,0,1,0-9C29.86,5.3,30.86,3.82,33.35,3.46Z"/></clipPath><clipPath id="clip-path-3"><path id="Container-2-3" data-name="Container-2" class="cls-1" d="M4.35,3.46a64.59,64.59,0,0,1,15.41,0,4.56,4.56,0,0,1,4,4,42.68,42.68,0,0,1,0,9,4.42,4.42,0,0,1-4,4,59.32,59.32,0,0,1-15.41,0,4.63,4.63,0,0,1-4-4,30.11,30.11,0,0,1,0-9C.86,5.3,1.86,3.82,4.35,3.46Z"/></clipPath></defs><g id="_24_Argentina_Hoover" data-name="24_Argentina_Hoover"><g class="cls-2"><rect class="cls-3" x="58" y="9" width="24" height="6"/><rect class="cls-4" x="58" y="3" width="24" height="6"/><rect class="cls-4" x="58" y="15" width="24" height="6"/><polygon class="cls-5" points="69.98 10.5 70.63 10 70.87 10.79 71.68 10.76 71.41 11.54 72.09 12 71.41 12.46 71.68 13.24 70.87 13.21 70.63 14 69.98 13.5 69.33 14 69.1 13.21 68.28 13.24 68.55 12.46 67.88 12 68.55 11.54 68.28 10.76 69.1 10.79 69.33 10 69.98 10.5"/><g id="Container-2-4" data-name="Container-2" class="cls-6"><path class="cls-7" d="M70.3,4h0a48.91,48.91,0,0,1,7.3.45,3.56,3.56,0,0,1,3.17,3.16,41.27,41.27,0,0,1,0,8.75,3.41,3.41,0,0,1-3.18,3.15,49.58,49.58,0,0,1-7.52.49,50.45,50.45,0,0,1-7.56-.49,3.63,3.63,0,0,1-3.19-3.23,29,29,0,0,1,0-8.58c.5-2.11,1.36-3,3.17-3.25A60.16,60.16,0,0,1,70.3,4m0-1a60.11,60.11,0,0,0-7.95.46c-2.49.36-3.49,1.84-4,4a30.11,30.11,0,0,0,0,9,4.63,4.63,0,0,0,4,4,52,52,0,0,0,7.72.5,51.42,51.42,0,0,0,7.69-.5,4.42,4.42,0,0,0,4-4,42.68,42.68,0,0,0,0-9,4.56,4.56,0,0,0-4-4A51.38,51.38,0,0,0,70.3,3Z"/></g></g></g><g id="_24_Argentina_Disabled" data-name="24_Argentina_Disabled"><g class="cls-8"><rect class="cls-9" x="29" y="9" width="24" height="6"/><rect class="cls-10" x="29" y="3" width="24" height="6"/><rect class="cls-10" x="29" y="15" width="24" height="6"/><polygon class="cls-11" points="40.98 10.5 41.63 10 41.87 10.79 42.68 10.76 42.41 11.54 43.09 12 42.41 12.46 42.68 13.24 41.87 13.21 41.63 14 40.98 13.5 40.33 14 40.1 13.21 39.28 13.24 39.55 12.46 38.88 12 39.55 11.54 39.28 10.76 40.1 10.79 40.33 10 40.98 10.5"/><g id="Container-2-5" data-name="Container-2" class="cls-6"><path d="M41.3,4h0a48.91,48.91,0,0,1,7.3.45,3.56,3.56,0,0,1,3.17,3.16,41.27,41.27,0,0,1,0,8.75,3.41,3.41,0,0,1-3.18,3.15,49.58,49.58,0,0,1-7.52.49,50.45,50.45,0,0,1-7.56-.49,3.63,3.63,0,0,1-3.19-3.23,29,29,0,0,1,0-8.58c.5-2.11,1.36-3,3.17-3.25A60.16,60.16,0,0,1,41.3,4m0-1a60.11,60.11,0,0,0-7.95.46c-2.49.36-3.49,1.84-4,4a30.11,30.11,0,0,0,0,9,4.63,4.63,0,0,0,4,4,52,52,0,0,0,7.72.5,51.42,51.42,0,0,0,7.69-.5,4.42,4.42,0,0,0,4-4,42.68,42.68,0,0,0,0-9,4.56,4.56,0,0,0-4-4A51.38,51.38,0,0,0,41.3,3Z"/></g></g></g><g id="_24_Argentina_Normal" data-name="24_Argentina_Normal"><g class="cls-12"><rect class="cls-13" y="8" width="24" height="8"/><rect class="cls-14" y="3" width="24" height="6"/><rect class="cls-14" y="15" width="24" height="6"/><polygon class="cls-5" points="11.98 10.5 12.63 10 12.87 10.79 13.68 10.76 13.41 11.54 14.09 12 13.41 12.46 13.68 13.24 12.87 13.21 12.63 14 11.98 13.5 11.33 14 11.1 13.21 10.28 13.24 10.55 12.46 9.88 12 10.55 11.54 10.28 10.76 11.1 10.79 11.33 10 11.98 10.5"/><g id="Container-2-6" data-name="Container-2" class="cls-6"><path class="cls-15" d="M12.3,4h0a48.91,48.91,0,0,1,7.3.45,3.56,3.56,0,0,1,3.17,3.16,41.27,41.27,0,0,1,0,8.75,3.41,3.41,0,0,1-3.18,3.15,49.58,49.58,0,0,1-7.52.49,50.45,50.45,0,0,1-7.56-.49,3.63,3.63,0,0,1-3.19-3.23,29,29,0,0,1,0-8.58c.5-2.11,1.36-3,3.17-3.25A60.16,60.16,0,0,1,12.3,4m0-1a60.11,60.11,0,0,0-8,.46c-2.49.36-3.49,1.84-4,4a30.11,30.11,0,0,0,0,9,4.63,4.63,0,0,0,4,4,52,52,0,0,0,7.72.5,51.42,51.42,0,0,0,7.69-.5,4.42,4.42,0,0,0,4-4,42.68,42.68,0,0,0,0-9,4.56,4.56,0,0,0-4-4A51.38,51.38,0,0,0,12.3,3Z"/></g></g></g></svg>