<svg xmlns="http://www.w3.org/2000/svg" xmlns:xlink="http://www.w3.org/1999/xlink" width="82" height="24" viewBox="0 0 82 24"><defs><style>.cls-1{fill:none;}.cls-2{clip-path:url(#clip-path);}.cls-3{fill:#fc003c;}.cls-4{fill:#f7f7f7;}.cls-5{fill:#00abd3;}.cls-6{fill:#00c66c;}.cls-7{opacity:0.05;}.cls-8{clip-path:url(#clip-path-2);}.cls-9{fill:#f2ced6;}.cls-10{fill:#f2f2f2;}.cls-11{fill:#ceebf2;}.cls-12{fill:#cef2e2;}.cls-13{clip-path:url(#clip-path-3);}.cls-14{fill:#e4002b;}.cls-15{fill:#fff;}.cls-16{fill:#0092bc;}.cls-17{fill:#00af66;}</style><clipPath id="clip-path"><path id="Container-2" class="cls-1" d="M62.35,3.46a64.59,64.59,0,0,1,15.41,0,4.56,4.56,0,0,1,4,4,42.68,42.68,0,0,1,0,9,4.42,4.42,0,0,1-4,4,59.32,59.32,0,0,1-15.41,0,4.63,4.63,0,0,1-4-4,30.11,30.11,0,0,1,0-9C58.86,5.3,59.86,3.82,62.35,3.46Z"/></clipPath><clipPath id="clip-path-2"><path id="Container-2-2" data-name="Container-2" class="cls-1" d="M33.35,3.46a64.59,64.59,0,0,1,15.41,0,4.56,4.56,0,0,1,4,4,42.68,42.68,0,0,1,0,9,4.42,4.42,0,0,1-4,4,59.32,59.32,0,0,1-15.41,0,4.63,4.63,0,0,1-4-4,30.11,30.11,0,0,1,0-9C29.86,5.3,30.86,3.82,33.35,3.46Z"/></clipPath><clipPath id="clip-path-3"><path id="Container-2-3" data-name="Container-2" class="cls-1" d="M4.35,3.46a64.59,64.59,0,0,1,15.41,0,4.56,4.56,0,0,1,4,4,42.68,42.68,0,0,1,0,9,4.42,4.42,0,0,1-4,4,59.32,59.32,0,0,1-15.41,0,4.63,4.63,0,0,1-4-4,30.11,30.11,0,0,1,0-9C.86,5.3,1.86,3.82,4.35,3.46Z"/></clipPath></defs><g id="_24_Azerbaijan_Hoover" data-name="24_Azerbaijan_Hoover"><g class="cls-2"><rect class="cls-3" x="58" y="3" width="24" height="18"/><path class="cls-4" d="M69.88,14.21a2.21,2.21,0,0,1,0-4.42,2.14,2.14,0,0,1,1,.27,2.63,2.63,0,0,0-1.86-.78,2.72,2.72,0,0,0,0,5.44,2.63,2.63,0,0,0,1.86-.78A2.14,2.14,0,0,1,69.88,14.21Z"/><polygon class="cls-4" points="72.23 10.59 72.49 11.35 73.21 11 72.87 11.73 73.61 12 72.87 12.27 73.21 13 72.49 12.65 72.23 13.41 71.97 12.65 71.25 13 71.59 12.27 70.85 12 71.59 11.73 71.25 11 71.97 11.35 72.23 10.59"/><rect class="cls-5" x="58" y="3" width="24" height="6"/><rect class="cls-6" x="58" y="15" width="24" height="6"/></g><g id="Container-2-4" data-name="Container-2" class="cls-7"><path d="M70.3,3.93h0a48.91,48.91,0,0,1,7.3.45,3.56,3.56,0,0,1,3.17,3.16,41.27,41.27,0,0,1,0,8.75,3.42,3.42,0,0,1-3.18,3.15,49.58,49.58,0,0,1-7.52.49,50.45,50.45,0,0,1-7.56-.49,3.63,3.63,0,0,1-3.19-3.23,29.09,29.09,0,0,1,0-8.59c.5-2.1,1.36-3,3.17-3.24a60.16,60.16,0,0,1,7.81-.45m0-1a60.11,60.11,0,0,0-7.95.46c-2.49.36-3.49,1.84-4,4a30,30,0,0,0,0,9,4.63,4.63,0,0,0,4,4,52,52,0,0,0,7.72.5,51.42,51.42,0,0,0,7.69-.5,4.42,4.42,0,0,0,4-4,42.59,42.59,0,0,0,0-9,4.55,4.55,0,0,0-4-4,50,50,0,0,0-7.46-.46Z"/></g></g><g id="_24_Azerbaijan_Disabled" data-name="24_Azerbaijan_Disabled"><g class="cls-8"><rect class="cls-9" x="29" y="9" width="24" height="6"/><path class="cls-10" d="M40.88,14.21a2.21,2.21,0,0,1,0-4.42,2.14,2.14,0,0,1,1,.27,2.63,2.63,0,0,0-1.86-.78,2.72,2.72,0,0,0,0,5.44,2.63,2.63,0,0,0,1.86-.78A2.14,2.14,0,0,1,40.88,14.21Z"/><polygon class="cls-10" points="43.23 10.59 43.49 11.35 44.21 11 43.87 11.73 44.61 12 43.87 12.27 44.21 13 43.49 12.65 43.23 13.41 42.97 12.65 42.25 13 42.59 12.27 41.85 12 42.59 11.73 42.25 11 42.97 11.35 43.23 10.59"/><rect class="cls-11" x="29" y="3" width="24" height="6"/><rect class="cls-12" x="29" y="15" width="24" height="6"/></g><g id="Container-2-5" data-name="Container-2" class="cls-7"><path d="M41.3,4h0a48.91,48.91,0,0,1,7.3.45,3.56,3.56,0,0,1,3.17,3.16,41.27,41.27,0,0,1,0,8.75,3.41,3.41,0,0,1-3.18,3.15,49.58,49.58,0,0,1-7.52.49,50.45,50.45,0,0,1-7.56-.49,3.63,3.63,0,0,1-3.19-3.23,29,29,0,0,1,0-8.58c.5-2.11,1.36-3,3.17-3.25A60.16,60.16,0,0,1,41.3,4m0-1a60.11,60.11,0,0,0-7.95.46c-2.49.36-3.49,1.84-4,4a30.11,30.11,0,0,0,0,9,4.63,4.63,0,0,0,4,4,52,52,0,0,0,7.72.5,51.42,51.42,0,0,0,7.69-.5,4.42,4.42,0,0,0,4-4,42.68,42.68,0,0,0,0-9,4.56,4.56,0,0,0-4-4A51.38,51.38,0,0,0,41.3,3Z"/></g></g><g id="_24_Azerbaijan_Normal" data-name="24_Azerbaijan_Normal"><g class="cls-13"><rect class="cls-14" y="3" width="24" height="18"/><path class="cls-15" d="M11.88,14.21a2.21,2.21,0,0,1,0-4.42,2.14,2.14,0,0,1,1,.27,2.63,2.63,0,0,0-1.86-.78,2.72,2.72,0,0,0,0,5.44,2.63,2.63,0,0,0,1.86-.78A2.14,2.14,0,0,1,11.88,14.21Z"/><polygon class="cls-15" points="14.23 10.59 14.49 11.35 15.21 11 14.87 11.73 15.61 12 14.87 12.27 15.21 13 14.49 12.65 14.23 13.41 13.96 12.65 13.25 13 13.59 12.27 12.85 12 13.59 11.73 13.25 11 13.96 11.35 14.23 10.59"/><rect class="cls-16" y="3" width="24" height="6"/><rect class="cls-17" y="15" width="24" height="6"/></g><g id="Container-2-6" data-name="Container-2" class="cls-7"><path d="M12.3,4h0a48.91,48.91,0,0,1,7.3.45,3.56,3.56,0,0,1,3.17,3.16,41.27,41.27,0,0,1,0,8.75,3.41,3.41,0,0,1-3.18,3.15,49.58,49.58,0,0,1-7.52.49,50.45,50.45,0,0,1-7.56-.49,3.63,3.63,0,0,1-3.19-3.23,29,29,0,0,1,0-8.58c.5-2.11,1.36-3,3.17-3.25A60.16,60.16,0,0,1,12.3,4m0-1a60.11,60.11,0,0,0-8,.46c-2.49.36-3.49,1.84-4,4a30.11,30.11,0,0,0,0,9,4.63,4.63,0,0,0,4,4,52,52,0,0,0,7.72.5,51.42,51.42,0,0,0,7.69-.5,4.42,4.42,0,0,0,4-4,42.68,42.68,0,0,0,0-9,4.56,4.56,0,0,0-4-4A51.38,51.38,0,0,0,12.3,3Z"/></g></g></svg>