<svg xmlns="http://www.w3.org/2000/svg" xmlns:xlink="http://www.w3.org/1999/xlink" width="82" height="24" viewBox="0 0 82 24"><defs><style>.cls-1{fill:none;}.cls-2{clip-path:url(#clip-path);}.cls-3{fill:#033182;}.cls-4{fill:#f9f9f9;}.cls-5{fill:#f7f7f7;}.cls-6{fill:#fc003c;}.cls-7{opacity:0.05;}.cls-8{clip-path:url(#clip-path-2);}.cls-9{fill:#cedbf2;}.cls-10{fill:#f2f2f2;}.cls-11{fill:#f2ced6;}.cls-12{clip-path:url(#clip-path-3);}.cls-13{fill:#012169;}.cls-14{fill:#fff;}.cls-15{fill:#e4002b;}</style><clipPath id="clip-path"><path id="Container-2" class="cls-1" d="M62.35,3.46a64.59,64.59,0,0,1,15.41,0,4.56,4.56,0,0,1,4,4,42.68,42.68,0,0,1,0,9,4.42,4.42,0,0,1-4,4,59.32,59.32,0,0,1-15.41,0,4.63,4.63,0,0,1-4-4,30.11,30.11,0,0,1,0-9C58.86,5.3,59.86,3.82,62.35,3.46Z"/></clipPath><clipPath id="clip-path-2"><path id="Container-2-2" data-name="Container-2" class="cls-1" d="M33.35,3.46a64.59,64.59,0,0,1,15.41,0,4.56,4.56,0,0,1,4,4,42.68,42.68,0,0,1,0,9,4.42,4.42,0,0,1-4,4,59.32,59.32,0,0,1-15.41,0,4.63,4.63,0,0,1-4-4,30.11,30.11,0,0,1,0-9C29.86,5.3,30.86,3.82,33.35,3.46Z"/></clipPath><clipPath id="clip-path-3"><path id="Container-2-3" data-name="Container-2" class="cls-1" d="M4.35,3.46a64.59,64.59,0,0,1,15.41,0,4.56,4.56,0,0,1,4,4,42.68,42.68,0,0,1,0,9,4.42,4.42,0,0,1-4,4,59.32,59.32,0,0,1-15.41,0,4.63,4.63,0,0,1-4-4,30.11,30.11,0,0,1,0-9C.86,5.3,1.86,3.82,4.35,3.46Z"/></clipPath></defs><g id="_24_Australia_Hoover" data-name="24_Australia_Hoover"><g class="cls-2"><rect id="Background" class="cls-3" x="58" y="3" width="24" height="18"/><polygon class="cls-4" points="64 18.08 63.11 18.9 63.2 17.69 62 17.51 63 16.82 62.4 15.77 63.55 16.13 64 15 64.44 16.13 65.6 15.77 65 16.82 66 17.51 64.8 17.69 64.89 18.9 64 18.08"/><polygon class="cls-4" points="76.03 18.4 75.59 18.8 75.64 18.21 75.05 18.12 75.54 17.79 75.24 17.28 75.81 17.45 76.03 16.9 76.24 17.45 76.81 17.28 76.51 17.79 77 18.12 76.42 18.21 76.46 18.8 76.03 18.4"/><polygon class="cls-4" points="72.97 10.6 72.54 11 72.58 10.41 72 10.32 72.49 9.99 72.19 9.48 72.76 9.65 72.97 9.1 73.19 9.65 73.76 9.48 73.46 9.99 73.95 10.32 73.36 10.41 73.41 11 72.97 10.6"/><polygon class="cls-4" points="79.03 9.6 78.59 10 78.64 9.41 78.05 9.32 78.54 8.99 78.24 8.48 78.81 8.65 79.03 8.1 79.24 8.65 79.81 8.48 79.51 8.99 80 9.32 79.42 9.41 79.46 10 79.03 9.6"/><polygon class="cls-4" points="76.03 6.6 75.59 7 75.64 6.41 75.05 6.32 75.54 5.99 75.24 5.48 75.81 5.65 76.03 5.1 76.24 5.65 76.81 5.48 76.51 5.99 77 6.32 76.42 6.41 76.46 7 76.03 6.6"/><polygon class="cls-4" points="77.47 12.73 77.26 12.93 77.28 12.64 77 12.6 77.24 12.43 77.09 12.18 77.37 12.27 77.47 12 77.58 12.27 77.86 12.18 77.71 12.43 77.95 12.6 77.67 12.64 77.69 12.93 77.47 12.73"/><polygon id="White_45" data-name="White 45" class="cls-5" points="69 3 58 11 58 12 59 12 70 4 70 3 69 3"/><polygon id="white_45-2" data-name="white 45" class="cls-4" points="59 3 70 11 70 12 69 12 58 4 58 3 59 3"/><polygon id="Red_45" data-name="Red 45" class="cls-6" points="65.48 8.01 70 11.3 70 12 69.82 12 65.07 8.57 65.48 8.01"/><polygon id="Red_45-2" data-name="Red 45" class="cls-6" points="58.15 3 62.3 5.99 61.89 6.54 58 3.71 58 3 58.15 3"/><polygon id="Red_45-3" data-name="Red 45" class="cls-6" points="65.3 6 69.43 3 70 3 70 3.4 65.71 6.56 65.3 6"/><polygon id="Red_45-4" data-name="Red 45" class="cls-6" points="58 11.56 62.38 8.4 62.79 8.96 58.57 12 58 12 58 11.56"/><rect class="cls-4" x="58" y="6" width="12" height="3"/><rect class="cls-4" x="62" y="3" width="4" height="9"/><rect class="cls-6" x="58" y="6.5" width="12" height="2" transform="translate(128 15) rotate(180)"/><rect class="cls-6" x="59.5" y="6.5" width="9" height="2" transform="translate(56.5 71.5) rotate(-90)"/></g><g id="Container-2-4" data-name="Container-2" class="cls-7"><path d="M70.3,4h0a48.91,48.91,0,0,1,7.3.45,3.56,3.56,0,0,1,3.17,3.16,41.27,41.27,0,0,1,0,8.75,3.41,3.41,0,0,1-3.18,3.15,49.58,49.58,0,0,1-7.52.49,50.45,50.45,0,0,1-7.56-.49,3.63,3.63,0,0,1-3.19-3.23,29,29,0,0,1,0-8.58c.5-2.11,1.36-3,3.17-3.25A60.16,60.16,0,0,1,70.3,4m0-1a60.11,60.11,0,0,0-7.95.46c-2.49.36-3.49,1.84-4,4a30.11,30.11,0,0,0,0,9,4.63,4.63,0,0,0,4,4,52,52,0,0,0,7.72.5,51.42,51.42,0,0,0,7.69-.5,4.42,4.42,0,0,0,4-4,42.68,42.68,0,0,0,0-9,4.56,4.56,0,0,0-4-4A51.38,51.38,0,0,0,70.3,3Z"/></g></g><g id="_24_Australia_Disable" data-name="24_Australia_Disable"><g class="cls-8"><rect id="Background-2" data-name="Background" class="cls-9" x="29" y="3" width="24" height="18"/><polygon class="cls-10" points="35 18.08 34.11 18.9 34.2 17.69 33 17.51 34 16.82 33.4 15.77 34.55 16.13 35 15 35.45 16.13 36.6 15.77 36 16.82 37 17.51 35.8 17.69 35.89 18.9 35 18.08"/><polygon class="cls-10" points="47.03 18.4 46.59 18.8 46.63 18.21 46.05 18.12 46.54 17.79 46.24 17.28 46.81 17.45 47.03 16.9 47.24 17.45 47.81 17.28 47.51 17.79 48 18.12 47.42 18.21 47.46 18.8 47.03 18.4"/><polygon class="cls-10" points="43.97 10.6 43.54 11 43.58 10.41 43 10.32 43.49 9.99 43.19 9.48 43.76 9.65 43.97 9.1 44.19 9.65 44.76 9.48 44.46 9.99 44.95 10.32 44.37 10.41 44.41 11 43.97 10.6"/><polygon class="cls-10" points="50.03 9.6 49.59 10 49.63 9.41 49.05 9.32 49.54 8.99 49.24 8.48 49.81 8.65 50.03 8.1 50.24 8.65 50.81 8.48 50.51 8.99 51 9.32 50.42 9.41 50.46 10 50.03 9.6"/><polygon class="cls-10" points="47.03 6.6 46.59 7 46.63 6.41 46.05 6.32 46.54 5.99 46.24 5.48 46.81 5.65 47.03 5.1 47.24 5.65 47.81 5.48 47.51 5.99 48 6.32 47.42 6.41 47.46 7 47.03 6.6"/><polygon class="cls-10" points="48.47 12.73 48.26 12.93 48.28 12.64 48 12.6 48.24 12.43 48.09 12.18 48.37 12.27 48.47 12 48.58 12.27 48.85 12.18 48.71 12.43 48.95 12.6 48.66 12.64 48.69 12.93 48.47 12.73"/><polygon class="cls-10" points="41 3 40 3 37 5.18 37 3 33 3 33 5.18 30 3 29 3 29 4 31.75 6 29 6 29 9 31.75 9 29 11 29 12 30 12 33 9.82 33 12 37 12 37 9.82 40 12 41 12 41 11 38.25 9 41 9 41 6 38.25 6 41 4 41 3"/><polygon id="Red_45-5" data-name="Red 45" class="cls-11" points="37.88 9 41 11.3 41 12 40.82 12 37 9.28 37 9 37.88 9"/><polygon id="Red_45-6" data-name="Red 45" class="cls-11" points="29.15 3 33 5.77 33 6 32.17 6 29 3.71 29 3 29.15 3"/><polygon id="Red_45-7" data-name="Red 45" class="cls-11" points="37 5.5 40.43 3 41 3 41 3.4 37.47 6 37 6 37 5.5"/><polygon id="Red_45-8" data-name="Red 45" class="cls-11" points="29 11.56 32.59 9 33 9 33 9.53 29.57 12 29 12 29 11.56"/><polygon class="cls-11" points="41 6.5 36 6.5 36 3 34 3 34 6.5 29 6.5 29 8.5 34 8.5 34 12 36 12 36 8.5 41 8.5 41 6.5"/></g><g id="Container-2-5" data-name="Container-2" class="cls-7"><path d="M41.3,4h0a48.91,48.91,0,0,1,7.3.45,3.56,3.56,0,0,1,3.17,3.16,41.27,41.27,0,0,1,0,8.75,3.41,3.41,0,0,1-3.18,3.15,49.58,49.58,0,0,1-7.52.49,50.45,50.45,0,0,1-7.56-.49,3.63,3.63,0,0,1-3.19-3.23,29,29,0,0,1,0-8.58c.5-2.11,1.36-3,3.17-3.25A60.16,60.16,0,0,1,41.3,4m0-1a60.11,60.11,0,0,0-7.95.46c-2.49.36-3.49,1.84-4,4a30.11,30.11,0,0,0,0,9,4.63,4.63,0,0,0,4,4,52,52,0,0,0,7.72.5,51.42,51.42,0,0,0,7.69-.5,4.42,4.42,0,0,0,4-4,42.68,42.68,0,0,0,0-9,4.56,4.56,0,0,0-4-4A51.38,51.38,0,0,0,41.3,3Z"/></g></g><g id="_24_Australia_Normal" data-name="24_Australia_Normal"><g class="cls-12"><rect id="Background-3" data-name="Background" class="cls-13" y="3" width="24" height="18"/><polygon class="cls-14" points="6 18.08 5.11 18.9 5.2 17.69 4 17.51 5 16.82 4.4 15.77 5.55 16.13 6 15 6.45 16.13 7.6 15.77 7 16.82 8 17.51 6.8 17.69 6.89 18.9 6 18.08"/><polygon class="cls-14" points="18.03 18.4 17.59 18.8 17.64 18.21 17.05 18.12 17.54 17.79 17.24 17.28 17.81 17.45 18.03 16.9 18.24 17.45 18.81 17.28 18.51 17.79 19 18.12 18.42 18.21 18.46 18.8 18.03 18.4"/><polygon class="cls-14" points="14.97 10.6 14.54 11 14.58 10.41 14 10.32 14.49 9.99 14.19 9.48 14.76 9.65 14.97 9.1 15.19 9.65 15.76 9.48 15.46 9.99 15.95 10.32 15.37 10.41 15.41 11 14.97 10.6"/><polygon class="cls-14" points="21.03 9.6 20.59 10 20.64 9.41 20.05 9.32 20.54 8.99 20.24 8.48 20.81 8.65 21.03 8.1 21.24 8.65 21.81 8.48 21.51 8.99 22 9.32 21.42 9.41 21.46 10 21.03 9.6"/><polygon class="cls-14" points="18.03 6.6 17.59 7 17.64 6.41 17.05 6.32 17.54 5.99 17.24 5.48 17.81 5.65 18.03 5.1 18.24 5.65 18.81 5.48 18.51 5.99 19 6.32 18.42 6.41 18.46 7 18.03 6.6"/><polygon class="cls-14" points="19.47 12.73 19.26 12.93 19.28 12.64 19 12.6 19.24 12.43 19.09 12.18 19.37 12.27 19.47 12 19.58 12.27 19.86 12.18 19.71 12.43 19.95 12.6 19.66 12.64 19.68 12.93 19.47 12.73"/><polygon id="White_45-3" data-name="White 45" class="cls-14" points="11 3 0 11 0 12 1 12 12 4 12 3 11 3"/><polygon id="white_45-4" data-name="white 45" class="cls-14" points="1 3 12 11 12 12 11 12 0 4 0 3 1 3"/><polygon id="Red_45-9" data-name="Red 45" class="cls-15" points="7.48 8.01 12 11.3 12 12 11.82 12 7.07 8.57 7.48 8.01"/><polygon id="Red_45-10" data-name="Red 45" class="cls-15" points="0.15 3 4.3 5.99 3.89 6.54 0 3.71 0 3 0.15 3"/><polygon id="Red_45-11" data-name="Red 45" class="cls-15" points="7.3 6 11.43 3 12 3 12 3.4 7.71 6.56 7.3 6"/><polygon id="Red_45-12" data-name="Red 45" class="cls-15" points="0 11.56 4.38 8.4 4.79 8.96 0.57 12 0 12 0 11.56"/><rect class="cls-14" y="6" width="12" height="3"/><rect class="cls-14" x="4" y="3" width="4" height="9"/><rect class="cls-15" y="6.5" width="12" height="2" transform="translate(12 15) rotate(180)"/><rect class="cls-15" x="1.5" y="6.5" width="9" height="2" transform="translate(-1.5 13.5) rotate(-90)"/></g><g id="Container-2-6" data-name="Container-2" class="cls-7"><path d="M12.3,4h0a48.91,48.91,0,0,1,7.3.45,3.56,3.56,0,0,1,3.17,3.16,41.27,41.27,0,0,1,0,8.75,3.41,3.41,0,0,1-3.18,3.15,49.58,49.58,0,0,1-7.52.49,50.45,50.45,0,0,1-7.56-.49,3.63,3.63,0,0,1-3.19-3.23,29,29,0,0,1,0-8.58c.5-2.11,1.36-3,3.17-3.25A60.16,60.16,0,0,1,12.3,4m0-1a60.11,60.11,0,0,0-8,.46c-2.49.36-3.49,1.84-4,4a30.11,30.11,0,0,0,0,9,4.63,4.63,0,0,0,4,4,52,52,0,0,0,7.72.5,51.42,51.42,0,0,0,7.69-.5,4.42,4.42,0,0,0,4-4,42.68,42.68,0,0,0,0-9,4.56,4.56,0,0,0-4-4A51.38,51.38,0,0,0,12.3,3Z"/></g></g></svg>