<svg xmlns="http://www.w3.org/2000/svg" xmlns:xlink="http://www.w3.org/1999/xlink" width="82" height="24" viewBox="0 0 82 24"><defs><style>.cls-1{fill:none;}.cls-2{clip-path:url(#clip-path);}.cls-3{fill:#00b22e;}.cls-4{fill:#fff;}.cls-5{fill:#fcd200;}.cls-6{fill:#002a75;}.cls-7{fill:#f7f7f7;}.cls-8{fill:#009623;}.cls-9{opacity:0.05;}.cls-10{clip-path:url(#clip-path-2);}.cls-11{fill:#cef2d7;}.cls-12{fill:#f2ecce;}.cls-13{fill:#ced9f2;}.cls-14{fill:#f2f2f2;}.cls-15{clip-path:url(#clip-path-3);}.cls-16{fill:#009b2d;}.cls-17{fill:#ffdf00;}.cls-18{fill:#002279;}</style><clipPath id="clip-path"><path id="Container-2" class="cls-1" d="M62.35,3.46a64.59,64.59,0,0,1,15.41,0,4.56,4.56,0,0,1,4,4,42.68,42.68,0,0,1,0,9,4.42,4.42,0,0,1-4,4,59.32,59.32,0,0,1-15.41,0,4.63,4.63,0,0,1-4-4,30.11,30.11,0,0,1,0-9C58.86,5.3,59.86,3.82,62.35,3.46Z"/></clipPath><clipPath id="clip-path-2"><path id="Container-2-2" data-name="Container-2" class="cls-1" d="M33.35,3.46a64.59,64.59,0,0,1,15.41,0,4.56,4.56,0,0,1,4,4,42.68,42.68,0,0,1,0,9,4.42,4.42,0,0,1-4,4,59.32,59.32,0,0,1-15.41,0,4.63,4.63,0,0,1-4-4,30.11,30.11,0,0,1,0-9C29.86,5.3,30.86,3.82,33.35,3.46Z"/></clipPath><clipPath id="clip-path-3"><path id="Container-2-3" data-name="Container-2" class="cls-1" d="M4.35,3.46a64.59,64.59,0,0,1,15.41,0,4.56,4.56,0,0,1,4,4,42.68,42.68,0,0,1,0,9,4.42,4.42,0,0,1-4,4,59.32,59.32,0,0,1-15.41,0,4.63,4.63,0,0,1-4-4,30.11,30.11,0,0,1,0-9C.86,5.3,1.86,3.82,4.35,3.46Z"/></clipPath></defs><g id="_24_Brazil_Hoover" data-name="24_Brazil_Hoover"><g class="cls-2"><rect class="cls-3" x="58" y="3" width="24" height="18"/><polygon class="cls-4" points="69.5 14.53 69.52 14.6 69.59 14.6 69.54 14.65 69.56 14.72 69.5 14.67 69.44 14.72 69.46 14.65 69.4 14.6 69.48 14.6 69.5 14.53"/><polygon class="cls-4" points="68.75 14.21 68.77 14.3 68.86 14.3 68.79 14.35 68.82 14.44 68.75 14.39 68.67 14.44 68.7 14.35 68.63 14.3 68.72 14.3 68.75 14.21"/><polygon class="cls-4" points="67.62 14.69 67.63 14.73 67.68 14.73 67.64 14.76 67.66 14.8 67.62 14.77 67.59 14.8 67.6 14.76 67.57 14.73 67.61 14.73 67.62 14.69"/><polygon class="cls-5" points="62.61 11.99 69.99 7.22 77.39 11.97 70 16.78 62.61 11.99"/><ellipse class="cls-6" cx="70.01" cy="11.97" rx="3.12" ry="3.16"/><polygon class="cls-7" points="67.46 11.27 67.49 11.37 67.58 11.37 67.51 11.43 67.54 11.52 67.46 11.46 67.38 11.52 67.41 11.43 67.33 11.37 67.43 11.37 67.46 11.27"/><polygon class="cls-7" points="68.81 11.99 68.84 12.07 68.92 12.07 68.86 12.12 68.88 12.2 68.81 12.15 68.75 12.2 68.77 12.12 68.7 12.07 68.79 12.07 68.81 11.99"/><polygon class="cls-7" points="68.04 12.47 68.06 12.52 68.11 12.52 68.07 12.55 68.08 12.6 68.04 12.57 68 12.6 68.02 12.55 67.97 12.52 68.03 12.52 68.04 12.47"/><polygon class="cls-7" points="67.73 12.6 67.77 12.7 67.88 12.7 67.79 12.76 67.82 12.87 67.73 12.8 67.65 12.87 67.68 12.76 67.59 12.7 67.7 12.7 67.73 12.6"/><polygon class="cls-7" points="67.35 12.91 67.37 12.99 67.45 12.99 67.39 13.04 67.41 13.12 67.35 13.07 67.28 13.12 67.31 13.04 67.24 12.99 67.32 12.99 67.35 12.91"/><polygon class="cls-7" points="68.38 12.95 68.41 13.02 68.49 13.02 68.42 13.07 68.45 13.15 68.38 13.1 68.32 13.15 68.34 13.07 68.28 13.02 68.36 13.02 68.38 12.95"/><polygon class="cls-7" points="68.29 13.26 68.31 13.34 68.39 13.34 68.33 13.39 68.35 13.46 68.29 13.42 68.22 13.46 68.25 13.39 68.18 13.34 68.26 13.34 68.29 13.26"/><polygon class="cls-7" points="68.75 13.53 68.78 13.62 68.87 13.62 68.8 13.67 68.82 13.76 68.75 13.71 68.68 13.76 68.71 13.67 68.63 13.62 68.72 13.62 68.75 13.53"/><polygon class="cls-7" points="70 13.28 70.03 13.37 70.12 13.37 70.05 13.42 70.07 13.51 70 13.45 69.93 13.51 69.95 13.42 69.88 13.37 69.97 13.37 70 13.28"/><polygon class="cls-7" points="70.37 12.66 70.39 12.74 70.47 12.74 70.41 12.79 70.43 12.87 70.37 12.82 70.3 12.87 70.33 12.79 70.26 12.74 70.34 12.74 70.37 12.66"/><polygon class="cls-7" points="70 12.37 70.03 12.45 70.11 12.45 70.04 12.5 70.07 12.58 70 12.53 69.93 12.58 69.96 12.5 69.89 12.45 69.97 12.45 70 12.37"/><polygon class="cls-7" points="69.69 12.66 69.71 12.73 69.78 12.73 69.72 12.77 69.74 12.84 69.69 12.8 69.63 12.84 69.65 12.77 69.59 12.73 69.66 12.73 69.69 12.66"/><polygon class="cls-7" points="69.84 12.91 69.86 12.96 69.91 12.96 69.87 13 69.89 13.05 69.84 13.02 69.8 13.05 69.81 13 69.77 12.96 69.82 12.96 69.84 12.91"/><polygon class="cls-7" points="70.85 11.75 70.87 11.8 70.92 11.8 70.88 11.83 70.9 11.89 70.85 11.85 70.81 11.89 70.83 11.83 70.78 11.8 70.83 11.8 70.85 11.75"/><polygon class="cls-7" points="70.97 10.85 71 10.95 71.1 10.95 71.02 11.01 71.05 11.11 70.97 11.05 70.89 11.11 70.92 11.01 70.84 10.95 70.94 10.95 70.97 10.85"/><polygon class="cls-7" points="72.19 12.95 72.22 13.05 72.32 13.05 72.24 13.11 72.27 13.21 72.19 13.14 72.11 13.21 72.14 13.11 72.06 13.05 72.16 13.05 72.19 12.95"/><polygon class="cls-7" points="72.12 13.5 72.15 13.58 72.23 13.58 72.16 13.63 72.19 13.71 72.12 13.66 72.05 13.71 72.08 13.63 72.01 13.58 72.1 13.58 72.12 13.5"/><polygon class="cls-7" points="72.32 13.26 72.34 13.34 72.43 13.34 72.36 13.39 72.38 13.47 72.32 13.42 72.25 13.47 72.27 13.39 72.21 13.34 72.29 13.34 72.32 13.26"/><polygon class="cls-7" points="72.62 13.02 72.64 13.08 72.7 13.08 72.65 13.12 72.67 13.18 72.62 13.14 72.57 13.18 72.59 13.12 72.54 13.08 72.6 13.08 72.62 13.02"/><polygon class="cls-7" points="71.88 13.69 71.89 13.75 71.96 13.75 71.91 13.79 71.93 13.85 71.88 13.81 71.82 13.85 71.84 13.79 71.79 13.75 71.86 13.75 71.88 13.69"/><polygon class="cls-7" points="71.57 13.92 71.59 13.99 71.66 13.99 71.6 14.04 71.63 14.11 71.57 14.07 71.51 14.11 71.53 14.04 71.47 13.99 71.54 13.99 71.57 13.92"/><polygon class="cls-7" points="71.55 13.63 71.56 13.69 71.63 13.69 71.58 13.73 71.59 13.79 71.55 13.75 71.5 13.79 71.51 13.73 71.47 13.69 71.53 13.69 71.55 13.63"/><polygon class="cls-7" points="71.21 13.74 71.23 13.8 71.29 13.8 71.24 13.84 71.26 13.9 71.21 13.86 71.16 13.9 71.18 13.84 71.13 13.8 71.19 13.8 71.21 13.74"/><polygon class="cls-7" points="70.69 13.66 70.71 13.72 70.77 13.72 70.72 13.76 70.74 13.81 70.69 13.78 70.64 13.81 70.66 13.76 70.61 13.72 70.67 13.72 70.69 13.66"/><path class="cls-7" d="M69.72,10.73a7.1,7.1,0,0,1,3.38,1.72A4.51,4.51,0,0,1,73,13a7,7,0,0,0-3.09-1.67,7.66,7.66,0,0,0-2.9-.11,5,5,0,0,1,.16-.48A8.23,8.23,0,0,1,69.72,10.73Z"/><path class="cls-8" d="M67.43,10.87a.12.12,0,0,1-.11.16.14.14,0,0,1-.16-.11.13.13,0,0,1,.11-.16A.14.14,0,0,1,67.43,10.87Zm-.23,0a.1.1,0,0,0,.12.09c.06,0,.08-.06.07-.12a.1.1,0,0,0-.12-.09C67.21,10.8,67.19,10.85,67.2,10.91Z"/><path class="cls-8" d="M67.59,10.73h.08a.13.13,0,0,1,.09,0,.05.05,0,0,1,0,0s0,.06-.05.07h0a.08.08,0,0,1,0,.05.15.15,0,0,0,0,.07h0s0,0,0-.06a.05.05,0,0,0-.07,0h0l0,.11h0Zm.06.11h0s.07,0,.06-.06,0,0-.07,0h0Z"/><path class="cls-8" d="M68,10.7h.08a.23.23,0,0,1,.13,0s0,0,0,.1a.12.12,0,0,1,0,.1.17.17,0,0,1-.13,0H68Zm.06.23h0c.08,0,.12,0,.12-.11s0-.1-.14-.1h0Z"/><path class="cls-8" d="M68.58,10.84h-.12v.1h.13v0h-.17v-.27h.16v0h-.12v.09h.12Z"/><path class="cls-8" d="M69,10.88s0-.08,0-.11h0l0,.09-.06.13h0a.93.93,0,0,0,0-.13l0-.1h0s0,.07,0,.11V11h0l0-.26h0s0,.08,0,.13a.29.29,0,0,1,0,.09h0a.36.36,0,0,1,0-.09l.06-.12h0V11h0Z"/><path class="cls-8" d="M69.64,11l-.12,0V11l.12,0v0l-.16,0,0-.26.16,0v0l-.12,0v.08l.11,0Z"/><path class="cls-8" d="M70.08,10.93l.08,0a.29.29,0,0,1,.08,0,.13.13,0,0,1,0,.06.07.07,0,0,1,0,0h-.13l0,.11h0Zm0,.14h0s.08,0,.09,0,0,0-.06-.06h0Z"/><path class="cls-8" d="M70.45,11l.07,0a.12.12,0,0,1,.08,0,0,0,0,0,1,0,.05.06.06,0,0,1-.07.05h0s0,0,0,.06v.08h0v-.07s0,0,0-.07h0l0,.11h0Zm0,.13h0a.06.06,0,0,0,.08,0s0-.05,0-.06h0Z"/><path class="cls-8" d="M71,11.38a.14.14,0,1,1-.07-.17A.12.12,0,0,1,71,11.38Zm-.22-.08a.1.1,0,1,0,.18.07.1.1,0,1,0-.18-.07Z"/><path class="cls-8" d="M71.32,11.66l-.09,0a.15.15,0,0,1-.08-.08.11.11,0,0,1,0-.11c0-.07.12-.09.21,0l.06,0,0,0a.1.1,0,0,0-.05,0,.1.1,0,0,0-.16,0c0,.06,0,.11.06.14l0,0,0-.07,0,0v0l.09,0Z"/><path class="cls-8" d="M71.61,11.54l.07,0a.14.14,0,0,1,.07.06.07.07,0,0,1,0,0,.07.07,0,0,1-.08,0h0a.15.15,0,0,1,0,.07l0,.07,0,0,0-.06s0,0,0-.07l0,0-.06.1,0,0Zm0,.12,0,0s.07,0,.08,0,0-.06,0-.08h0Z"/><path class="cls-8" d="M72,11.92l-.1-.06-.05.08L72,12l0,0-.14-.09.14-.22.14.09v0L72,11.77l0,.07.09.06Z"/><path class="cls-8" d="M72.11,12.09l0,.06a.06.06,0,0,0,.08,0s0,0,0-.08,0-.07,0-.1.08,0,.13,0a.07.07,0,0,1,0,0h0l0,0s-.06,0-.07,0,0,0,0,.07a.08.08,0,0,1,0,.11.09.09,0,0,1-.13,0s0,0,0-.06Z"/><path class="cls-8" d="M72.4,12.3a.07.07,0,0,0,0,0s.06,0,.08,0,0,0,0-.08,0-.07,0-.1a.1.1,0,0,1,.13,0s0,0,0,.06h0l0-.05s-.06,0-.07,0,0,0,0,.07,0,.08,0,.11a.09.09,0,0,1-.13,0,.15.15,0,0,1,0-.06Z"/><path class="cls-8" d="M72.93,12.62a.13.13,0,0,1-.2,0,.12.12,0,0,1,0-.18.14.14,0,0,1,.21,0A.11.11,0,0,1,72.93,12.62Zm-.18-.15a.1.1,0,0,0,0,.14.11.11,0,0,0,.15,0s.06-.1,0-.14A.11.11,0,0,0,72.75,12.47Z"/></g><g id="Container-2-4" data-name="Container-2" class="cls-9"><path d="M70.3,4h0a48.91,48.91,0,0,1,7.3.45,3.56,3.56,0,0,1,3.17,3.16,41.27,41.27,0,0,1,0,8.75,3.41,3.41,0,0,1-3.18,3.15,49.58,49.58,0,0,1-7.52.49,50.45,50.45,0,0,1-7.56-.49,3.63,3.63,0,0,1-3.19-3.23,29,29,0,0,1,0-8.58c.5-2.11,1.36-3,3.17-3.25A60.16,60.16,0,0,1,70.3,4m0-1a60.11,60.11,0,0,0-7.95.46c-2.49.36-3.49,1.84-4,4a30.11,30.11,0,0,0,0,9,4.63,4.63,0,0,0,4,4,52,52,0,0,0,7.72.5,51.42,51.42,0,0,0,7.69-.5,4.42,4.42,0,0,0,4-4,42.68,42.68,0,0,0,0-9,4.56,4.56,0,0,0-4-4A51.38,51.38,0,0,0,70.3,3Z"/></g></g><g id="_24_Brazil_Disable" data-name="24_Brazil_Disable"><g class="cls-10"><rect class="cls-11" x="29" y="3" width="24" height="18"/><polygon class="cls-4" points="40.49 14.53 40.52 14.6 40.59 14.6 40.53 14.65 40.55 14.72 40.49 14.67 40.44 14.72 40.46 14.65 40.4 14.6 40.47 14.6 40.49 14.53"/><polygon class="cls-4" points="39.74 14.21 39.77 14.3 39.86 14.3 39.79 14.35 39.82 14.44 39.74 14.39 39.67 14.44 39.7 14.35 39.63 14.3 39.72 14.3 39.74 14.21"/><polygon class="cls-4" points="38.62 14.69 38.63 14.73 38.67 14.73 38.64 14.76 38.65 14.8 38.62 14.77 38.58 14.8 38.6 14.76 38.56 14.73 38.6 14.73 38.62 14.69"/><polygon class="cls-12" points="33.61 11.99 40.98 7.22 48.39 11.97 41 16.78 33.61 11.99"/><ellipse class="cls-13" cx="41.01" cy="11.97" rx="3.12" ry="3.16"/><path class="cls-14" d="M40.72,10.73a7.1,7.1,0,0,1,3.37,1.72A3.44,3.44,0,0,1,44,13a7,7,0,0,0-3.09-1.67A7.71,7.71,0,0,0,38,11.17c.05-.17.17-.48.17-.48A8.21,8.21,0,0,1,40.72,10.73Z"/><polygon class="cls-14" points="38.45 11.27 38.48 11.37 38.58 11.37 38.5 11.43 38.53 11.52 38.45 11.46 38.38 11.52 38.41 11.43 38.33 11.37 38.42 11.37 38.45 11.27"/><polygon class="cls-14" points="39.81 11.99 39.84 12.07 39.92 12.07 39.85 12.12 39.88 12.2 39.81 12.15 39.74 12.2 39.77 12.12 39.7 12.07 39.78 12.07 39.81 11.99"/><polygon class="cls-14" points="39.04 12.47 39.05 12.52 39.11 12.52 39.06 12.55 39.08 12.6 39.04 12.57 39 12.6 39.01 12.55 38.97 12.52 39.02 12.52 39.04 12.47"/><polygon class="cls-14" points="38.73 12.6 38.76 12.7 38.87 12.7 38.78 12.76 38.82 12.87 38.73 12.8 38.64 12.87 38.68 12.76 38.59 12.7 38.7 12.7 38.73 12.6"/><polygon class="cls-14" points="38.34 12.91 38.37 12.99 38.45 12.99 38.38 13.04 38.41 13.12 38.34 13.07 38.28 13.12 38.3 13.04 38.24 12.99 38.32 12.99 38.34 12.91"/><polygon class="cls-14" points="39.38 12.95 39.41 13.02 39.48 13.02 39.42 13.07 39.45 13.15 39.38 13.1 39.31 13.15 39.34 13.07 39.27 13.02 39.35 13.02 39.38 12.95"/><polygon class="cls-14" points="39.28 13.26 39.31 13.34 39.39 13.34 39.33 13.39 39.35 13.46 39.28 13.42 39.22 13.46 39.24 13.39 39.18 13.34 39.26 13.34 39.28 13.26"/><polygon class="cls-14" points="39.75 13.53 39.77 13.62 39.86 13.62 39.79 13.67 39.82 13.76 39.75 13.71 39.67 13.76 39.7 13.67 39.63 13.62 39.72 13.62 39.75 13.53"/><polygon class="cls-14" points="41 13.28 41.02 13.37 41.11 13.37 41.04 13.42 41.07 13.51 41 13.45 40.92 13.51 40.95 13.42 40.88 13.37 40.97 13.37 41 13.28"/><polygon class="cls-14" points="41.36 12.66 41.39 12.74 41.47 12.74 41.4 12.79 41.43 12.87 41.36 12.82 41.3 12.87 41.32 12.79 41.26 12.74 41.34 12.74 41.36 12.66"/><polygon class="cls-14" points="41 12.37 41.02 12.45 41.1 12.45 41.04 12.5 41.06 12.58 41 12.53 40.93 12.58 40.95 12.5 40.89 12.45 40.97 12.45 41 12.37"/><polygon class="cls-14" points="40.68 12.66 40.7 12.73 40.78 12.73 40.72 12.77 40.74 12.84 40.68 12.8 40.62 12.84 40.64 12.77 40.59 12.73 40.66 12.73 40.68 12.66"/><polygon class="cls-14" points="40.84 12.91 40.85 12.96 40.91 12.96 40.87 13 40.88 13.05 40.84 13.02 40.79 13.05 40.81 13 40.77 12.96 40.82 12.96 40.84 12.91"/><polygon class="cls-14" points="41.85 11.75 41.87 11.8 41.92 11.8 41.88 11.83 41.89 11.89 41.85 11.85 41.8 11.89 41.82 11.83 41.78 11.8 41.83 11.8 41.85 11.75"/><polygon class="cls-14" points="41.97 10.85 42 10.95 42.1 10.95 42.02 11.01 42.05 11.11 41.97 11.05 41.89 11.11 41.92 11.01 41.84 10.95 41.94 10.95 41.97 10.85"/><polygon class="cls-14" points="43.18 12.95 43.22 13.05 43.32 13.05 43.23 13.11 43.27 13.21 43.18 13.14 43.1 13.21 43.13 13.11 43.05 13.05 43.15 13.05 43.18 12.95"/><polygon class="cls-14" points="43.12 13.5 43.14 13.58 43.23 13.58 43.16 13.63 43.19 13.71 43.12 13.66 43.05 13.71 43.08 13.63 43.01 13.58 43.09 13.58 43.12 13.5"/><polygon class="cls-14" points="43.31 13.26 43.34 13.34 43.42 13.34 43.35 13.39 43.38 13.47 43.31 13.42 43.24 13.47 43.27 13.39 43.2 13.34 43.29 13.34 43.31 13.26"/><polygon class="cls-14" points="43.62 13.02 43.64 13.08 43.7 13.08 43.65 13.12 43.67 13.18 43.62 13.14 43.56 13.18 43.59 13.12 43.53 13.08 43.6 13.08 43.62 13.02"/><polygon class="cls-14" points="42.87 13.69 42.89 13.75 42.95 13.75 42.9 13.79 42.92 13.85 42.87 13.81 42.82 13.85 42.84 13.79 42.79 13.75 42.85 13.75 42.87 13.69"/><polygon class="cls-14" points="42.56 13.92 42.59 13.99 42.66 13.99 42.6 14.04 42.62 14.11 42.56 14.07 42.5 14.11 42.52 14.04 42.47 13.99 42.54 13.99 42.56 13.92"/><polygon class="cls-14" points="42.54 13.63 42.56 13.69 42.62 13.69 42.57 13.73 42.59 13.79 42.54 13.75 42.49 13.79 42.51 13.73 42.46 13.69 42.52 13.69 42.54 13.63"/><polygon class="cls-14" points="42.2 13.74 42.22 13.8 42.28 13.8 42.23 13.84 42.25 13.9 42.2 13.86 42.15 13.9 42.17 13.84 42.12 13.8 42.18 13.8 42.2 13.74"/><polygon class="cls-14" points="41.69 13.66 41.71 13.72 41.77 13.72 41.72 13.76 41.74 13.81 41.69 13.78 41.64 13.81 41.66 13.76 41.61 13.72 41.67 13.72 41.69 13.66"/><path class="cls-11" d="M38.43,10.87a.13.13,0,0,1-.11.16.15.15,0,0,1-.17-.11.13.13,0,0,1,.11-.16A.15.15,0,0,1,38.43,10.87Zm-.23,0a.1.1,0,0,0,.11.09.1.1,0,0,0,.08-.12.11.11,0,0,0-.12-.09A.08.08,0,0,0,38.2,10.91Z"/><path class="cls-11" d="M38.59,10.73h.08a.13.13,0,0,1,.09,0,.05.05,0,0,1,0,0,.08.08,0,0,1,0,.07h0a.06.06,0,0,1,0,.05l0,.07h0s0,0,0-.06,0-.05-.07,0h0l0,.11h0Zm.06.11h0a.06.06,0,0,0,.06-.06s0,0-.08,0h0Z"/><path class="cls-11" d="M39,10.7h.09a.19.19,0,0,1,.12,0,.11.11,0,0,1,0,.1.15.15,0,0,1,0,.1.17.17,0,0,1-.13,0H39Zm.06.23h0c.08,0,.13,0,.12-.11s0-.1-.13-.1H39Z"/><path class="cls-11" d="M39.57,10.84h-.11v.1h.13v0h-.17v-.27h.17v0h-.13v.09h.11Z"/><path class="cls-11" d="M40,10.88v-.11h0a.36.36,0,0,1,0,.09l-.06.13h0s0-.08,0-.13a.22.22,0,0,1,0-.1h0a.37.37,0,0,0,0,.11l0,.12h0l0-.26h.05s0,.08,0,.13l0,.09h0a.36.36,0,0,1,0-.09l.06-.12h.05V11h0Z"/><path class="cls-11" d="M40.63,11l-.11,0,0,.09.13,0v0l-.17,0,0-.26.17,0v0l-.12,0,0,.08.12,0Z"/><path class="cls-11" d="M41.08,10.93l.08,0,.07,0a0,0,0,0,1,0,.06.06.06,0,0,1,0,0h-.13l0,.11h0Zm0,.14h0s.07,0,.08,0,0,0-.05-.06h0Z"/><path class="cls-11" d="M41.44,11l.08,0a.1.1,0,0,1,.07,0s0,0,0,.05,0,.05-.08.05h0a.07.07,0,0,1,0,.06s0,.07,0,.08h0v-.07a.07.07,0,0,0,0-.07h0l0,.11h0Zm0,.13h0s.07,0,.08,0,0-.05-.05-.06h0Z"/><path class="cls-11" d="M42,11.38a.16.16,0,0,1-.19.08.13.13,0,0,1-.07-.18.14.14,0,0,1,.18-.07A.12.12,0,0,1,42,11.38Zm-.22-.08a.09.09,0,0,0,0,.13.11.11,0,0,0,.13-.06.11.11,0,0,0-.05-.14A.1.1,0,0,0,41.78,11.3Z"/><path class="cls-11" d="M42.31,11.66l-.08,0a.24.24,0,0,1-.09-.08.14.14,0,0,1,0-.11c0-.07.11-.09.21,0l.06,0,0,0a.09.09,0,0,0-.06,0,.1.1,0,0,0-.16,0,.11.11,0,0,0,.06.14l0,0,0-.07-.06,0v0l.09,0Z"/><path class="cls-11" d="M42.61,11.54l.06,0a.14.14,0,0,1,.07.06,0,0,0,0,1,0,0,.08.08,0,0,1-.09,0h0a.06.06,0,0,1,0,.07l0,.07,0,0,0-.06s0,0,0-.07l0,0-.06.1,0,0Zm0,.12,0,0a.07.07,0,0,0,.09,0s0-.06,0-.08h0Z"/><path class="cls-11" d="M43,11.92l-.09-.06-.06.08A.41.41,0,0,1,43,12v0l-.15-.09.15-.22.14.09,0,0-.1-.06-.05.07.1.06Z"/><path class="cls-11" d="M43.11,12.09l0,.06s.07,0,.08,0,0,0,0-.08,0-.07,0-.1.07,0,.12,0a.08.08,0,0,1,0,0h0s0,0,0,0-.06,0-.07,0,0,0,0,.07,0,.08,0,.11a.1.1,0,0,1-.14,0l-.05-.06Z"/><path class="cls-11" d="M43.39,12.3a.1.1,0,0,0,0,0s.07,0,.08,0,0,0,0-.08,0-.07,0-.1a.09.09,0,0,1,.12,0,.13.13,0,0,1,0,.06h0s0,0,0-.05-.06,0-.07,0,0,0,0,.07,0,.08,0,.11-.08,0-.14,0a.08.08,0,0,1,0-.06Z"/><path class="cls-11" d="M43.93,12.62a.13.13,0,0,1-.2,0,.11.11,0,0,1,0-.18.13.13,0,0,1,.2,0A.11.11,0,0,1,43.93,12.62Zm-.18-.15a.09.09,0,0,0,0,.14.11.11,0,0,0,.15,0,.09.09,0,0,0,0-.14A.1.1,0,0,0,43.75,12.47Z"/></g><g id="Container-2-5" data-name="Container-2" class="cls-9"><path d="M41.3,4h0a48.91,48.91,0,0,1,7.3.45,3.56,3.56,0,0,1,3.17,3.16,41.27,41.27,0,0,1,0,8.75,3.41,3.41,0,0,1-3.18,3.15,49.58,49.58,0,0,1-7.52.49,50.45,50.45,0,0,1-7.56-.49,3.63,3.63,0,0,1-3.19-3.23,29,29,0,0,1,0-8.58c.5-2.11,1.36-3,3.17-3.25A60.16,60.16,0,0,1,41.3,4m0-1a60.11,60.11,0,0,0-7.95.46c-2.49.36-3.49,1.84-4,4a30.11,30.11,0,0,0,0,9,4.63,4.63,0,0,0,4,4,52,52,0,0,0,7.72.5,51.42,51.42,0,0,0,7.69-.5,4.42,4.42,0,0,0,4-4,42.68,42.68,0,0,0,0-9,4.56,4.56,0,0,0-4-4A51.38,51.38,0,0,0,41.3,3Z"/></g></g><g id="_24_Brazil_Normal" data-name="24_Brazil_Normal"><g class="cls-15"><rect class="cls-16" y="3" width="24" height="18"/><polygon class="cls-4" points="11.49 14.53 11.52 14.6 11.59 14.6 11.53 14.65 11.55 14.72 11.49 14.67 11.44 14.72 11.46 14.65 11.4 14.6 11.47 14.6 11.49 14.53"/><polygon class="cls-4" points="10.74 14.21 10.77 14.3 10.86 14.3 10.79 14.35 10.82 14.44 10.74 14.39 10.67 14.44 10.7 14.35 10.63 14.3 10.71 14.3 10.74 14.21"/><polygon class="cls-4" points="9.62 14.69 9.63 14.73 9.67 14.73 9.64 14.76 9.65 14.8 9.62 14.77 9.58 14.8 9.6 14.76 9.56 14.73 9.61 14.73 9.62 14.69"/><polygon class="cls-17" points="4.61 11.99 11.98 7.22 19.39 11.97 12 16.78 4.61 11.99"/><ellipse class="cls-18" cx="12.01" cy="11.97" rx="3.12" ry="3.16"/><path class="cls-4" d="M11.72,10.73a7.1,7.1,0,0,1,3.37,1.72A3.44,3.44,0,0,1,15,13a7,7,0,0,0-3.09-1.67A7.71,7.71,0,0,0,9,11.17c0-.17.17-.48.17-.48A8.21,8.21,0,0,1,11.72,10.73Z"/><polygon class="cls-4" points="9.45 11.27 9.48 11.37 9.58 11.37 9.5 11.43 9.53 11.52 9.45 11.46 9.38 11.52 9.4 11.43 9.33 11.37 9.42 11.37 9.45 11.27"/><polygon class="cls-4" points="10.81 11.99 10.84 12.07 10.92 12.07 10.85 12.12 10.88 12.2 10.81 12.15 10.74 12.2 10.77 12.12 10.7 12.07 10.78 12.07 10.81 11.99"/><polygon class="cls-4" points="10.04 12.47 10.05 12.52 10.11 12.52 10.06 12.55 10.08 12.6 10.04 12.57 10 12.6 10.01 12.55 9.97 12.52 10.02 12.52 10.04 12.47"/><polygon class="cls-4" points="9.73 12.6 9.76 12.7 9.87 12.7 9.78 12.76 9.82 12.87 9.73 12.8 9.64 12.87 9.68 12.76 9.59 12.7 9.7 12.7 9.73 12.6"/><polygon class="cls-4" points="9.34 12.91 9.37 12.99 9.45 12.99 9.38 13.04 9.41 13.12 9.34 13.07 9.28 13.12 9.3 13.04 9.24 12.99 9.32 12.99 9.34 12.91"/><polygon class="cls-4" points="10.38 12.95 10.4 13.02 10.48 13.02 10.42 13.07 10.45 13.15 10.38 13.1 10.31 13.15 10.34 13.07 10.28 13.02 10.36 13.02 10.38 12.95"/><polygon class="cls-4" points="10.29 13.26 10.31 13.34 10.39 13.34 10.32 13.39 10.35 13.46 10.29 13.42 10.22 13.46 10.24 13.39 10.18 13.34 10.26 13.34 10.29 13.26"/><polygon class="cls-4" points="10.75 13.53 10.77 13.62 10.86 13.62 10.79 13.67 10.82 13.76 10.75 13.71 10.68 13.76 10.7 13.67 10.63 13.62 10.72 13.62 10.75 13.53"/><polygon class="cls-4" points="12 13.28 12.02 13.37 12.11 13.37 12.04 13.42 12.07 13.51 12 13.45 11.92 13.51 11.95 13.42 11.88 13.37 11.97 13.37 12 13.28"/><polygon class="cls-4" points="12.36 12.66 12.39 12.74 12.47 12.74 12.4 12.79 12.43 12.87 12.36 12.82 12.3 12.87 12.32 12.79 12.26 12.74 12.34 12.74 12.36 12.66"/><polygon class="cls-4" points="12 12.37 12.02 12.45 12.11 12.45 12.04 12.5 12.06 12.58 12 12.53 11.93 12.58 11.96 12.5 11.89 12.45 11.97 12.45 12 12.37"/><polygon class="cls-4" points="11.68 12.66 11.7 12.73 11.78 12.73 11.72 12.77 11.74 12.84 11.68 12.8 11.62 12.84 11.64 12.77 11.59 12.73 11.66 12.73 11.68 12.66"/><polygon class="cls-4" points="11.84 12.91 11.85 12.96 11.91 12.96 11.87 13 11.88 13.05 11.84 13.02 11.79 13.05 11.81 13 11.77 12.96 11.82 12.96 11.84 12.91"/><polygon class="cls-4" points="12.85 11.75 12.87 11.8 12.92 11.8 12.88 11.83 12.89 11.89 12.85 11.85 12.8 11.89 12.82 11.83 12.78 11.8 12.83 11.8 12.85 11.75"/><polygon class="cls-4" points="12.97 10.85 13 10.95 13.1 10.95 13.02 11.01 13.05 11.11 12.97 11.05 12.89 11.11 12.92 11.01 12.84 10.95 12.94 10.95 12.97 10.85"/><polygon class="cls-4" points="14.18 12.95 14.21 13.05 14.32 13.05 14.23 13.11 14.27 13.21 14.18 13.14 14.1 13.21 14.13 13.11 14.05 13.05 14.15 13.05 14.18 12.95"/><polygon class="cls-4" points="14.12 13.5 14.14 13.58 14.23 13.58 14.16 13.63 14.19 13.71 14.12 13.66 14.05 13.71 14.08 13.63 14.01 13.58 14.09 13.58 14.12 13.5"/><polygon class="cls-4" points="14.31 13.26 14.34 13.34 14.42 13.34 14.35 13.39 14.38 13.47 14.31 13.42 14.24 13.47 14.27 13.39 14.2 13.34 14.29 13.34 14.31 13.26"/><polygon class="cls-4" points="14.62 13.02 14.64 13.08 14.7 13.08 14.65 13.12 14.67 13.18 14.62 13.14 14.56 13.18 14.59 13.12 14.53 13.08 14.6 13.08 14.62 13.02"/><polygon class="cls-4" points="13.87 13.69 13.89 13.75 13.96 13.75 13.9 13.79 13.92 13.85 13.87 13.81 13.82 13.85 13.84 13.79 13.79 13.75 13.85 13.75 13.87 13.69"/><polygon class="cls-4" points="13.56 13.92 13.59 13.99 13.66 13.99 13.6 14.04 13.62 14.11 13.56 14.07 13.5 14.11 13.53 14.04 13.46 13.99 13.54 13.99 13.56 13.92"/><polygon class="cls-4" points="13.54 13.63 13.56 13.69 13.62 13.69 13.57 13.73 13.59 13.79 13.54 13.75 13.49 13.79 13.51 13.73 13.46 13.69 13.52 13.69 13.54 13.63"/><polygon class="cls-4" points="13.2 13.74 13.22 13.8 13.28 13.8 13.23 13.84 13.25 13.9 13.2 13.86 13.15 13.9 13.17 13.84 13.12 13.8 13.18 13.8 13.2 13.74"/><polygon class="cls-4" points="12.69 13.66 12.71 13.72 12.77 13.72 12.72 13.76 12.74 13.81 12.69 13.78 12.64 13.81 12.66 13.76 12.61 13.72 12.67 13.72 12.69 13.66"/><path class="cls-16" d="M9.43,10.87a.13.13,0,0,1-.11.16.15.15,0,0,1-.17-.11.13.13,0,0,1,.11-.16A.15.15,0,0,1,9.43,10.87Zm-.23,0a.1.1,0,0,0,.11.09.1.1,0,0,0,.08-.12.11.11,0,0,0-.12-.09A.08.08,0,0,0,9.2,10.91Z"/><path class="cls-16" d="M9.59,10.73h.08a.13.13,0,0,1,.09,0,.05.05,0,0,1,0,0,.08.08,0,0,1,0,.07h0a.06.06,0,0,1,0,.05l0,.07h0s0,0,0-.06,0-.05-.07,0h0l0,.11h0Zm.06.11h0a.06.06,0,0,0,.06-.06s0,0-.08,0h0Z"/><path class="cls-16" d="M10,10.7h.09a.19.19,0,0,1,.12,0,.11.11,0,0,1,.05.1.15.15,0,0,1,0,.1.17.17,0,0,1-.13,0H10Zm.06.23h0c.08,0,.13,0,.12-.11s0-.1-.13-.1H10Z"/><path class="cls-16" d="M10.57,10.84h-.11v.1h.13v0h-.17v-.27h.17v0h-.13v.09h.11Z"/><path class="cls-16" d="M11,10.88v-.11h0a.36.36,0,0,1,0,.09l-.06.13h0s0-.08,0-.13a.22.22,0,0,1,0-.1h0a.37.37,0,0,0,0,.11l0,.12h0l0-.26h.05s0,.08,0,.13l0,.09h0a.36.36,0,0,1,0-.09l.06-.12h.05V11h0Z"/><path class="cls-16" d="M11.63,11l-.11,0,0,.09.13,0v0l-.17,0,0-.26.17,0v0l-.12,0,0,.08.12,0Z"/><path class="cls-16" d="M12.08,10.93l.08,0,.07,0a0,0,0,0,1,0,.06.06.06,0,0,1,0,0h-.13l0,.11h0Zm0,.14h0s.07,0,.08,0,0,0,0-.06h0Z"/><path class="cls-16" d="M12.44,11l.08,0a.1.1,0,0,1,.07,0s0,0,0,.05,0,.05-.08.05h0a.07.07,0,0,1,0,.06s0,.07,0,.08h0v-.07a.07.07,0,0,0,0-.07h0l0,.11h0Zm0,.13h0s.07,0,.08,0,0-.05-.05-.06h0Z"/><path class="cls-16" d="M13,11.38a.16.16,0,0,1-.19.08.13.13,0,0,1-.07-.18.14.14,0,0,1,.18-.07A.12.12,0,0,1,13,11.38Zm-.22-.08a.09.09,0,0,0,.05.13.11.11,0,0,0,.13-.06.11.11,0,0,0-.05-.14A.1.1,0,0,0,12.78,11.3Z"/><path class="cls-16" d="M13.31,11.66l-.08,0a.24.24,0,0,1-.09-.08.14.14,0,0,1,0-.11c0-.07.11-.09.21,0l.06,0,0,0a.09.09,0,0,0-.06,0,.1.1,0,0,0-.16,0,.11.11,0,0,0,.06.14l0,0,0-.07-.06,0v0l.09,0Z"/><path class="cls-16" d="M13.61,11.54l.06,0a.14.14,0,0,1,.07.06,0,0,0,0,1,0,0,.08.08,0,0,1-.09,0h0a.06.06,0,0,1,0,.07l0,.07,0,0,0-.06s0,0,0-.07l0,0-.06.1,0,0Zm0,.12,0,0a.07.07,0,0,0,.09,0s0-.06,0-.08h0Z"/><path class="cls-16" d="M14,11.92l-.09-.06-.06.08A.41.41,0,0,1,14,12v0l-.15-.09.15-.22.14.09,0,0-.1-.06-.05.07.1.06Z"/><path class="cls-16" d="M14.11,12.09l0,.06s.07,0,.08,0,0,0,0-.08-.05-.07,0-.1.07,0,.12,0a.08.08,0,0,1,0,0h0s0,0,0,0-.06,0-.07,0,0,0,0,.07,0,.08,0,.11a.1.1,0,0,1-.14,0l-.05-.06Z"/><path class="cls-16" d="M14.39,12.3a.1.1,0,0,0,0,0s.07,0,.08,0,0,0,0-.08,0-.07,0-.1a.09.09,0,0,1,.12,0,.13.13,0,0,1,.05.06h0s0,0,0-.05-.06,0-.07,0,0,0,0,.07,0,.08,0,.11-.08,0-.14,0a.08.08,0,0,1,0-.06Z"/><path class="cls-16" d="M14.93,12.62a.13.13,0,0,1-.2,0,.11.11,0,0,1,0-.18.13.13,0,0,1,.2,0A.11.11,0,0,1,14.93,12.62Zm-.18-.15a.09.09,0,0,0,0,.14.11.11,0,0,0,.15,0,.09.09,0,0,0,0-.14A.1.1,0,0,0,14.75,12.47Z"/></g><g id="Container-2-6" data-name="Container-2" class="cls-9"><path d="M12.3,4h0a48.91,48.91,0,0,1,7.3.45,3.56,3.56,0,0,1,3.17,3.16,41.27,41.27,0,0,1,0,8.75,3.41,3.41,0,0,1-3.18,3.15,49.58,49.58,0,0,1-7.52.49,50.45,50.45,0,0,1-7.56-.49,3.63,3.63,0,0,1-3.19-3.23,29,29,0,0,1,0-8.58c.5-2.11,1.36-3,3.17-3.25A60.16,60.16,0,0,1,12.3,4m0-1a60.11,60.11,0,0,0-8,.46c-2.49.36-3.49,1.84-4,4a30.11,30.11,0,0,0,0,9,4.63,4.63,0,0,0,4,4,52,52,0,0,0,7.72.5,51.42,51.42,0,0,0,7.69-.5,4.42,4.42,0,0,0,4-4,42.68,42.68,0,0,0,0-9,4.56,4.56,0,0,0-4-4A51.38,51.38,0,0,0,12.3,3Z"/></g></g></svg>