<svg xmlns="http://www.w3.org/2000/svg" xmlns:xlink="http://www.w3.org/1999/xlink" width="82" height="24" viewBox="0 0 82 24"><defs><style>.cls-1{fill:none;}.cls-2{clip-path:url(#clip-path);}.cls-3{fill:#f22520;}.cls-4{fill:#0042b7;}.cls-5{fill:#f9f9f9;}.cls-6{fill:#f7f7f7;}.cls-7{opacity:0.05;}.cls-8{clip-path:url(#clip-path-2);}.cls-9{fill:#f2cfce;}.cls-10{fill:#cedbf2;}.cls-11{fill:#f2f2f2;}.cls-12{clip-path:url(#clip-path-3);}.cls-13{fill:#da291c;}.cls-14{fill:#0033a0;}.cls-15{fill:#fff;}</style><clipPath id="clip-path"><path id="Container-2" class="cls-1" d="M62.35,3.46a64.59,64.59,0,0,1,15.41,0,4.56,4.56,0,0,1,4,4,42.68,42.68,0,0,1,0,9,4.42,4.42,0,0,1-4,4,59.32,59.32,0,0,1-15.41,0,4.63,4.63,0,0,1-4-4,30.11,30.11,0,0,1,0-9C58.86,5.3,59.86,3.82,62.35,3.46Z"/></clipPath><clipPath id="clip-path-2"><path id="Container-2-2" data-name="Container-2" class="cls-1" d="M33.35,3.46a64.59,64.59,0,0,1,15.41,0,4.56,4.56,0,0,1,4,4,42.68,42.68,0,0,1,0,9,4.42,4.42,0,0,1-4,4,59.32,59.32,0,0,1-15.41,0,4.63,4.63,0,0,1-4-4,30.11,30.11,0,0,1,0-9C29.86,5.3,30.86,3.82,33.35,3.46Z"/></clipPath><clipPath id="clip-path-3"><path id="Container-2-3" data-name="Container-2" class="cls-1" d="M4.35,3.46a64.59,64.59,0,0,1,15.41,0,4.56,4.56,0,0,1,4,4,42.68,42.68,0,0,1,0,9,4.42,4.42,0,0,1-4,4,59.32,59.32,0,0,1-15.41,0,4.63,4.63,0,0,1-4-4,30.11,30.11,0,0,1,0-9C.86,5.3,1.86,3.82,4.35,3.46Z"/></clipPath></defs><g id="_24_Chile_Hoover" data-name="24_Chile_Hoover"><g class="cls-2"><rect class="cls-3" x="58" y="12" width="24" height="9"/><rect class="cls-4" x="58" y="3" width="12" height="9"/><rect class="cls-5" x="70" y="3" width="12" height="9"/><polygon class="cls-6" points="63.24 6.74 64 4.68 64.76 6.75 66.96 6.84 65.23 8.2 65.82 10.32 63.99 9.09 62.16 10.31 62.76 8.19 61.04 6.83 63.24 6.74"/></g><g id="Container-2-4" data-name="Container-2" class="cls-7"><path d="M70.3,4h0a48.91,48.91,0,0,1,7.3.45,3.56,3.56,0,0,1,3.17,3.16,41.27,41.27,0,0,1,0,8.75,3.41,3.41,0,0,1-3.18,3.15,49.58,49.58,0,0,1-7.52.49,50.45,50.45,0,0,1-7.56-.49,3.63,3.63,0,0,1-3.19-3.23,29,29,0,0,1,0-8.58c.5-2.11,1.36-3,3.17-3.25A60.16,60.16,0,0,1,70.3,4m0-1a60.11,60.11,0,0,0-7.95.46c-2.49.36-3.49,1.84-4,4a30.11,30.11,0,0,0,0,9,4.63,4.63,0,0,0,4,4,52,52,0,0,0,7.72.5,51.42,51.42,0,0,0,7.69-.5,4.42,4.42,0,0,0,4-4,42.68,42.68,0,0,0,0-9,4.56,4.56,0,0,0-4-4A51.38,51.38,0,0,0,70.3,3Z"/></g></g><g id="_24_Chile_Disable" data-name="24_Chile_Disable"><g class="cls-8"><rect class="cls-9" x="29" y="12" width="24" height="9"/><rect class="cls-10" x="29" y="3" width="12" height="9"/><rect class="cls-11" x="41" y="3" width="12" height="9.04"/><polygon class="cls-11" points="34.24 6.74 35.01 4.68 35.76 6.75 37.96 6.84 36.23 8.2 36.82 10.32 34.99 9.09 33.16 10.31 33.76 8.19 32.04 6.83 34.24 6.74"/></g><g id="Container-2-5" data-name="Container-2" class="cls-7"><path d="M41.3,4h0a48.91,48.91,0,0,1,7.3.45,3.56,3.56,0,0,1,3.17,3.16,41.27,41.27,0,0,1,0,8.75,3.41,3.41,0,0,1-3.18,3.15,49.58,49.58,0,0,1-7.52.49,50.45,50.45,0,0,1-7.56-.49,3.63,3.63,0,0,1-3.19-3.23,29,29,0,0,1,0-8.58c.5-2.11,1.36-3,3.17-3.25A60.16,60.16,0,0,1,41.3,4m0-1a60.11,60.11,0,0,0-7.95.46c-2.49.36-3.49,1.84-4,4a30.11,30.11,0,0,0,0,9,4.63,4.63,0,0,0,4,4,52,52,0,0,0,7.72.5,51.42,51.42,0,0,0,7.69-.5,4.42,4.42,0,0,0,4-4,42.68,42.68,0,0,0,0-9,4.56,4.56,0,0,0-4-4A51.38,51.38,0,0,0,41.3,3Z"/></g></g><g id="_24_Chile_Normal" data-name="24_Chile_Normal"><g class="cls-12"><rect class="cls-13" y="12" width="24" height="9"/><rect class="cls-14" y="3" width="12" height="9"/><rect class="cls-15" x="12" y="3" width="12" height="9"/><polygon class="cls-15" points="5.24 6.74 6 4.68 6.76 6.75 8.96 6.84 7.23 8.2 7.82 10.32 5.99 9.09 4.16 10.31 4.76 8.19 3.04 6.83 5.24 6.74"/></g><g id="Container-2-6" data-name="Container-2" class="cls-7"><path d="M12.3,4h0a48.91,48.91,0,0,1,7.3.45,3.56,3.56,0,0,1,3.17,3.16,41.27,41.27,0,0,1,0,8.75,3.41,3.41,0,0,1-3.18,3.15,49.58,49.58,0,0,1-7.52.49,50.45,50.45,0,0,1-7.56-.49,3.63,3.63,0,0,1-3.19-3.23,29,29,0,0,1,0-8.58c.5-2.11,1.36-3,3.17-3.25A60.16,60.16,0,0,1,12.3,4m0-1a60.11,60.11,0,0,0-8,.46c-2.49.36-3.49,1.84-4,4a30.11,30.11,0,0,0,0,9,4.63,4.63,0,0,0,4,4,52,52,0,0,0,7.72.5,51.42,51.42,0,0,0,7.69-.5,4.42,4.42,0,0,0,4-4,42.68,42.68,0,0,0,0-9,4.56,4.56,0,0,0-4-4A51.38,51.38,0,0,0,12.3,3Z"/></g></g></svg>