<svg xmlns="http://www.w3.org/2000/svg" xmlns:xlink="http://www.w3.org/1999/xlink" width="82" height="24" viewBox="0 0 82 24"><defs><style>.cls-1{fill:none;}.cls-2{clip-path:url(#clip-path);}.cls-3{fill:#f20034;}.cls-4{fill:#ffe05f;}.cls-5{opacity:0.05;}.cls-6{clip-path:url(#clip-path-2);}.cls-7{fill:#f2ced6;}.cls-8{fill:#f2ebce;}.cls-9{clip-path:url(#clip-path-3);}.cls-10{fill:#d80027;}.cls-11{fill:#ffda44;}</style><clipPath id="clip-path"><path id="Container-2" class="cls-1" d="M62.35,3.46a64.59,64.59,0,0,1,15.41,0,4.56,4.56,0,0,1,4,4,42.68,42.68,0,0,1,0,9,4.42,4.42,0,0,1-4,4,59.32,59.32,0,0,1-15.41,0,4.63,4.63,0,0,1-4-4,30.11,30.11,0,0,1,0-9C58.86,5.3,59.86,3.82,62.35,3.46Z"/></clipPath><clipPath id="clip-path-2"><path id="Container-2-2" data-name="Container-2" class="cls-1" d="M33.35,3.46a64.59,64.59,0,0,1,15.41,0,4.56,4.56,0,0,1,4,4,42.68,42.68,0,0,1,0,9,4.42,4.42,0,0,1-4,4,59.32,59.32,0,0,1-15.41,0,4.63,4.63,0,0,1-4-4,30.11,30.11,0,0,1,0-9C29.86,5.3,30.86,3.82,33.35,3.46Z"/></clipPath><clipPath id="clip-path-3"><path id="Container-2-3" data-name="Container-2" class="cls-1" d="M4.35,3.46a64.59,64.59,0,0,1,15.41,0,4.56,4.56,0,0,1,4,4,42.68,42.68,0,0,1,0,9,4.42,4.42,0,0,1-4,4,59.32,59.32,0,0,1-15.41,0,4.63,4.63,0,0,1-4-4,30.11,30.11,0,0,1,0-9C.86,5.3,1.86,3.82,4.35,3.46Z"/></clipPath></defs><g id="_24_China_Hoover" data-name="24_China_Hoover"><g class="cls-2"><rect class="cls-3" x="58" y="3" width="24" height="18"/><polygon class="cls-4" points="66.02 8.34 66.86 10.94 69.6 10.94 67.39 12.55 68.23 15.16 66.02 13.55 63.8 15.16 64.65 12.55 62.43 10.94 65.17 10.94 66.02 8.34"/><polygon class="cls-4" points="71.35 17 70.52 16.4 69.69 17 70.01 16.02 69.18 15.42 70.2 15.42 70.52 14.44 70.84 15.42 71.87 15.42 71.03 16.02 71.35 17"/><polygon class="cls-4" points="73.52 14.02 72.49 14.02 72.18 14.99 71.86 14.02 70.83 14.02 71.66 13.41 71.34 12.44 72.18 13.04 73.01 12.44 72.69 13.41 73.52 14.02"/><polygon class="cls-4" points="73.52 10.33 72.69 10.93 73.01 11.91 72.18 11.3 71.34 11.91 71.66 10.93 70.83 10.33 71.86 10.33 72.18 9.35 72.49 10.33 73.52 10.33"/><polygon class="cls-4" points="71.35 7.34 71.04 8.32 71.87 8.93 70.84 8.93 70.52 9.9 70.2 8.93 69.18 8.93 70.01 8.32 69.69 7.34 70.52 7.95 71.35 7.34"/></g><g id="Container-2-4" data-name="Container-2" class="cls-5"><path d="M70.3,4h0a48.91,48.91,0,0,1,7.3.45,3.56,3.56,0,0,1,3.17,3.16,41.27,41.27,0,0,1,0,8.75,3.41,3.41,0,0,1-3.18,3.15,49.58,49.58,0,0,1-7.52.49,50.45,50.45,0,0,1-7.56-.49,3.63,3.63,0,0,1-3.19-3.23,29,29,0,0,1,0-8.58c.5-2.11,1.36-3,3.17-3.25A60.16,60.16,0,0,1,70.3,4m0-1a60.11,60.11,0,0,0-7.95.46c-2.49.36-3.49,1.84-4,4a30.11,30.11,0,0,0,0,9,4.63,4.63,0,0,0,4,4,52,52,0,0,0,7.72.5,51.42,51.42,0,0,0,7.69-.5,4.42,4.42,0,0,0,4-4,42.68,42.68,0,0,0,0-9,4.56,4.56,0,0,0-4-4A51.38,51.38,0,0,0,70.3,3Z"/></g></g><g id="_24_China_Disable" data-name="24_China_Disable"><g class="cls-6"><rect class="cls-7" x="29" y="3" width="24" height="18"/><polygon class="cls-8" points="37.02 8.34 37.87 10.94 40.6 10.94 38.39 12.55 39.23 15.16 37.02 13.55 34.8 15.16 35.65 12.55 33.43 10.94 36.17 10.94 37.02 8.34"/><polygon class="cls-8" points="42.35 17 41.52 16.4 40.69 17 41.01 16.02 40.18 15.42 41.2 15.42 41.52 14.44 41.84 15.42 42.87 15.42 42.03 16.02 42.35 17"/><polygon class="cls-8" points="44.52 14.02 43.49 14.02 43.18 14.99 42.86 14.02 41.83 14.02 42.66 13.41 42.34 12.44 43.18 13.04 44.01 12.44 43.69 13.41 44.52 14.02"/><polygon class="cls-8" points="44.52 10.33 43.69 10.93 44.01 11.91 43.18 11.3 42.34 11.91 42.66 10.93 41.83 10.33 42.86 10.33 43.18 9.35 43.49 10.33 44.52 10.33"/><polygon class="cls-8" points="42.35 7.34 42.04 8.32 42.87 8.93 41.84 8.93 41.52 9.9 41.2 8.93 40.18 8.93 41.01 8.32 40.69 7.34 41.52 7.95 42.35 7.34"/></g><g id="Container-2-5" data-name="Container-2" class="cls-5"><path d="M41.3,4h0a48.91,48.91,0,0,1,7.3.45,3.56,3.56,0,0,1,3.17,3.16,41.27,41.27,0,0,1,0,8.75,3.41,3.41,0,0,1-3.18,3.15,49.58,49.58,0,0,1-7.52.49,50.45,50.45,0,0,1-7.56-.49,3.63,3.63,0,0,1-3.19-3.23,29,29,0,0,1,0-8.58c.5-2.11,1.36-3,3.17-3.25A60.16,60.16,0,0,1,41.3,4m0-1a60.11,60.11,0,0,0-7.95.46c-2.49.36-3.49,1.84-4,4a30.11,30.11,0,0,0,0,9,4.63,4.63,0,0,0,4,4,52,52,0,0,0,7.72.5,51.42,51.42,0,0,0,7.69-.5,4.42,4.42,0,0,0,4-4,42.68,42.68,0,0,0,0-9,4.56,4.56,0,0,0-4-4A51.38,51.38,0,0,0,41.3,3Z"/></g></g><g id="_24_China_Normal" data-name="24_China_Normal"><g class="cls-9"><rect class="cls-10" y="3" width="24" height="18"/><polygon class="cls-11" points="8.02 8.34 8.87 10.94 11.6 10.94 9.39 12.55 10.23 15.16 8.02 13.55 5.8 15.16 6.65 12.55 4.43 10.94 7.17 10.94 8.02 8.34"/><polygon class="cls-11" points="13.35 17 12.52 16.4 11.69 17 12.01 16.02 11.18 15.42 12.2 15.42 12.52 14.44 12.84 15.42 13.87 15.42 13.04 16.02 13.35 17"/><polygon class="cls-11" points="15.52 14.02 14.49 14.02 14.18 14.99 13.86 14.02 12.83 14.02 13.66 13.41 13.35 12.44 14.18 13.04 15.01 12.44 14.69 13.41 15.52 14.02"/><polygon class="cls-11" points="15.52 10.33 14.69 10.93 15.01 11.91 14.18 11.3 13.35 11.91 13.66 10.93 12.83 10.33 13.86 10.33 14.18 9.35 14.49 10.33 15.52 10.33"/><polygon class="cls-11" points="13.35 7.34 13.04 8.32 13.87 8.93 12.84 8.93 12.52 9.9 12.2 8.93 11.18 8.93 12.01 8.32 11.69 7.34 12.52 7.95 13.35 7.34"/></g><g id="Container-2-6" data-name="Container-2" class="cls-5"><path d="M12.3,4h0a48.91,48.91,0,0,1,7.3.45,3.56,3.56,0,0,1,3.17,3.16,41.27,41.27,0,0,1,0,8.75,3.41,3.41,0,0,1-3.18,3.15,49.58,49.58,0,0,1-7.52.49,50.45,50.45,0,0,1-7.56-.49,3.63,3.63,0,0,1-3.19-3.23,29,29,0,0,1,0-8.58c.5-2.11,1.36-3,3.17-3.25A60.16,60.16,0,0,1,12.3,4m0-1a60.11,60.11,0,0,0-8,.46c-2.49.36-3.49,1.84-4,4a30.11,30.11,0,0,0,0,9,4.63,4.63,0,0,0,4,4,52,52,0,0,0,7.72.5,51.42,51.42,0,0,0,7.69-.5,4.42,4.42,0,0,0,4-4,42.68,42.68,0,0,0,0-9,4.56,4.56,0,0,0-4-4A51.38,51.38,0,0,0,12.3,3Z"/></g></g></svg>