<svg width="82" height="24" viewBox="0 0 82 24" fill="none" xmlns="http://www.w3.org/2000/svg">
<g clip-path="url(#clip0_201_7)">
<g clip-path="url(#clip1_201_7)">
<mask id="mask0_201_7" style="mask-type:luminance" maskUnits="userSpaceOnUse" x="29" y="2" width="25" height="19">
<path d="M33.39 3.45997C37.4 2.87997 44.82 2.80997 48.8 3.45997C51.22 3.84997 52.52 5.47997 52.8 7.45997C53.14 9.76997 53.1 14.24 52.8 16.49C52.5 18.74 51.12 20.11 48.8 20.49C44.79 21.16 37.46 21.16 33.39 20.49C31.02 20.1 29.85 18.61 29.39 16.49C28.96 14.49 28.91 9.46997 29.39 7.45997C29.91 5.29997 30.91 3.81997 33.39 3.45997Z" fill="white"/>
</mask>
<g mask="url(#mask0_201_7)">
<path d="M53.04 3H29.04V12H53.04V3Z" fill="#EFE4C7"/>
<path d="M53.04 12H29.04V17H53.04V12Z" fill="#6A87AA"/>
<path d="M53.04 17H29.04V21H53.04V17Z" fill="#EFC7CB"/>
</g>
<g opacity="0.05">
<path d="M41.3 3.99999C44.23 3.99999 46.82 4.15999 48.6 4.44999C51.02 4.84999 51.63 6.59999 51.78 7.60999C52.09 9.72999 52.09 14.07 51.78 16.36C51.54 18.16 50.5 19.2 48.6 19.51C46.74 19.82 44 20 41.08 20C38.16 20 35.41 19.82 33.52 19.51C31.74 19.22 30.75 18.22 30.33 16.28C29.93 14.46 29.86 9.61999 30.33 7.68999C30.83 5.58999 31.69 4.70999 33.5 4.43999C35.45 4.15999 38.37 3.98999 41.31 3.98999M41.31 2.98999C38.38 2.98999 35.42 3.14999 33.36 3.44999C30.86 3.81999 29.86 5.29999 29.34 7.45999C28.86 9.47999 28.91 14.49 29.34 16.49C29.8 18.61 30.97 20.1 33.34 20.49C35.37 20.82 38.22 20.99 41.06 20.99C43.9 20.99 46.74 20.82 48.74 20.49C51.07 20.1 52.44 18.73 52.74 16.49C53.04 14.24 53.08 9.75999 52.74 7.45999C52.45 5.47999 51.15 3.84999 48.74 3.45999C46.8 3.13999 44.06 2.99999 41.28 2.99999L41.31 2.98999Z" fill="black"/>
</g>
</g>
<g clip-path="url(#clip2_201_7)">
<mask id="mask1_201_7" style="mask-type:luminance" maskUnits="userSpaceOnUse" x="0" y="2" width="25" height="19">
<path d="M4.38998 3.45997C8.39998 2.87997 15.82 2.80997 19.8 3.45997C22.22 3.84997 23.52 5.47997 23.8 7.45997C24.14 9.76997 24.1 14.24 23.8 16.49C23.5 18.74 22.12 20.11 19.8 20.49C15.79 21.16 8.45998 21.16 4.38998 20.49C2.01998 20.1 0.849978 18.61 0.389978 16.49C-0.0500219 14.49 -0.100022 9.47997 0.379978 7.45997C0.899978 5.29997 1.89998 3.81997 4.37998 3.45997H4.38998Z" fill="white"/>
</mask>
<g mask="url(#mask1_201_7)">
<path d="M24.04 3H0.039978V12H24.04V3Z" fill="#FFCD01"/>
<path d="M24.04 12H0.039978V17H24.04V12Z" fill="#003087"/>
<path d="M24.04 17H0.039978V21H24.04V17Z" fill="#C9102E"/>
</g>
<g opacity="0.05">
<path d="M12.3 3.99999C15.23 3.99999 17.82 4.15999 19.6 4.44999C22.02 4.83999 22.63 6.59999 22.78 7.60999C23.09 9.72999 23.09 14.07 22.78 16.36C22.54 18.16 21.5 19.2 19.6 19.51C17.74 19.82 15 20 12.08 20C9.15998 20 6.40998 19.82 4.51998 19.51C2.73998 19.22 1.74998 18.22 1.32998 16.28C0.929981 14.46 0.859981 9.61999 1.32998 7.68999C1.82998 5.58999 2.68998 4.70999 4.49998 4.43999C6.44998 4.15999 9.36998 3.98999 12.31 3.98999M12.31 2.98999C9.37998 2.98999 6.41998 3.14999 4.35998 3.44999C1.85998 3.81999 0.859981 5.29999 0.339981 7.45999C-0.140019 9.47999 -0.0900187 14.49 0.339981 16.49C0.799981 18.61 1.96998 20.1 4.33998 20.49C6.36998 20.82 9.21998 20.99 12.06 20.99C14.9 20.99 17.74 20.82 19.74 20.49C22.07 20.1 23.44 18.73 23.74 16.49C24.04 14.24 24.08 9.75999 23.74 7.45999C23.45 5.47999 22.15 3.84999 19.74 3.45999C17.8 3.13999 15.06 2.99999 12.28 2.99999L12.31 2.98999Z" fill="black"/>
</g>
</g>
<g clip-path="url(#clip3_201_7)">
<mask id="mask2_201_7" style="mask-type:luminance" maskUnits="userSpaceOnUse" x="58" y="2" width="25" height="19">
<path d="M62.39 3.45997C66.4 2.87997 73.82 2.80997 77.8 3.45997C80.22 3.84997 81.52 5.47997 81.8 7.45997C82.14 9.76997 82.1 14.24 81.8 16.49C81.5 18.74 80.12 20.11 77.8 20.49C73.79 21.16 66.46 21.16 62.39 20.49C60.02 20.1 58.85 18.61 58.39 16.49C57.96 14.49 57.91 9.46997 58.39 7.45997C58.91 5.29997 59.91 3.81997 62.39 3.45997Z" fill="white"/>
</mask>
<g mask="url(#mask2_201_7)">
<path d="M82.04 3H58.04V12H82.04V3Z" fill="#FFD31A"/>
<path d="M82.04 12H58.04V17H82.04V12Z" fill="#003893"/>
<path d="M82.04 17H58.04V21H82.04V17Z" fill="#C62C4A"/>
</g>
<g opacity="0.05">
<path d="M70.3 3.99999C73.23 3.99999 75.82 4.15999 77.6 4.44999C80.02 4.84999 80.63 6.59999 80.78 7.60999C81.09 9.72999 81.09 14.07 80.78 16.36C80.54 18.16 79.5 19.2 77.6 19.51C75.74 19.82 73 20 70.08 20C67.16 20 64.41 19.82 62.52 19.51C60.74 19.22 59.75 18.22 59.33 16.28C58.93 14.46 58.86 9.61999 59.33 7.68999C59.83 5.58999 60.69 4.70999 62.5 4.43999C64.45 4.15999 67.37 3.98999 70.31 3.98999M70.31 2.98999C67.38 2.98999 64.42 3.14999 62.36 3.44999C59.86 3.81999 58.86 5.29999 58.34 7.45999C57.86 9.47999 57.91 14.49 58.34 16.49C58.8 18.61 59.97 20.1 62.34 20.49C64.37 20.82 67.22 20.99 70.06 20.99C72.9 20.99 75.74 20.82 77.74 20.49C80.07 20.1 81.44 18.73 81.74 16.49C82.04 14.24 82.08 9.75999 81.74 7.45999C81.45 5.47999 80.15 3.84999 77.74 3.45999C75.8 3.13999 73.06 2.99999 70.28 2.99999L70.31 2.98999Z" fill="black"/>
</g>
</g>
</g>
<defs>
<clipPath id="clip0_201_7">
<rect width="82" height="24" fill="white"/>
</clipPath>
<clipPath id="clip1_201_7">
<rect width="24" height="24" fill="white" transform="translate(29)"/>
</clipPath>
<clipPath id="clip2_201_7">
<rect width="24" height="24" fill="white"/>
</clipPath>
<clipPath id="clip3_201_7">
<rect width="24" height="24" fill="white" transform="translate(58)"/>
</clipPath>
</defs>
</svg>
