<svg width="82" height="24" viewBox="0 0 82 24" fill="none" xmlns="http://www.w3.org/2000/svg">
<g clip-path="url(#clip0_201_7)">
<g clip-path="url(#clip1_201_7)">
<mask id="mask0_201_7" style="mask-type:luminance" maskUnits="userSpaceOnUse" x="0" y="2" width="25" height="19">
<path d="M4.34999 3.45997C8.35999 2.87997 15.78 2.80997 19.76 3.45997C22.18 3.84997 23.48 5.47997 23.76 7.45997C24.1 9.76997 24.06 14.24 23.76 16.49C23.46 18.74 22.08 20.11 19.76 20.49C15.75 21.16 8.41999 21.16 4.34999 20.49C1.97999 20.1 0.809991 18.61 0.349991 16.49C-0.080009 14.49 -0.130009 9.46997 0.349991 7.45997C0.869991 5.29997 1.86999 3.81997 4.34999 3.45997Z" fill="white"/>
</mask>
<g mask="url(#mask0_201_7)">
<path d="M24 3H0V12H24V3Z" fill="#FFDD00"/>
<path d="M24 12H0V17H24V12Z" fill="#034EA2"/>
<path d="M24 17H0V21H24V17Z" fill="#ED1C24"/>
<path d="M9.34997 11.56L9.60997 11.82L9.71997 11.52L9.75997 11.33C9.71997 10.8 9.75997 10.27 9.75997 10.27L9.82997 10.35L9.52997 10.05L9.33997 9.85999V11.56" fill="#004D93"/>
<path d="M9.77996 11.46L10.02 10.54L9.74996 10.27L9.70996 11.34L9.77996 11.47V11.46Z" fill="#ED1C24"/>
<path d="M9.34999 9.86001L9.53999 10.05L8.64999 9.14001C8.64999 9.14001 8.60999 9.93001 8.60999 10.84L9.34999 11.6V9.86001Z" fill="#FFD506"/>
<path d="M13.5999 11.56V9.85999L13.4099 10.05L13.1899 10.28C13.1899 10.28 13.2299 10.81 13.1899 11.34L13.2299 11.53L13.3399 11.83L13.5999 11.57" fill="#004D93"/>
<path d="M13.24 11.38L13.19 10.27L12.93 10.53L13.19 11.32L13.24 11.37V11.38Z" fill="#ED1C24"/>
<path d="M13.6 9.86V11.6L14.34 10.84C14.34 9.93 14.34 9.1 14.3 9.14L13.41 10.05L13.6 9.86Z" fill="#FFD506"/>
<path d="M9.60994 14.77C8.97994 14.39 8.90994 13.22 8.90994 13.03V10.99L9.09994 11.18L8.20994 10.27C8.13994 10.19 8.20994 12.73 8.20994 13.82C8.20994 14.35 8.53994 16.2 10.3899 15.26C10.3899 15.26 11.3199 14.92 11.6099 14.5H11.4199C11.4199 14.5 11.3499 14.54 11.3099 14.54C10.2399 15.3 9.60994 14.77 9.60994 14.77Z" fill="#FFD506"/>
<path d="M8.89996 13.05C8.89996 13.2 8.96996 14.38 9.56996 14.76C9.56996 14.76 10.2 15.29 11.32 14.57C10.98 14.72 10.72 14.72 10.54 14.68C10.02 14.53 9.45996 13.92 9.38996 13.27C9.31996 12.62 9.31996 11.4 9.31996 11.4L9.38996 11.48L9.08996 11.18L8.89996 11.03V13.05Z" fill="#004D93"/>
<path d="M13.39 14.81C13.98 14.43 14.09 13.26 14.06 13.11V11.07L13.87 11.26L14.76 10.35C14.83 10.27 14.76 12.81 14.76 13.9C14.76 14.43 14.43 16.28 12.58 15.34C12.58 15.34 11.65 15 11.36 14.58H11.55L11.62 14.62C12.77 15.34 13.4 14.81 13.4 14.81" fill="#FFD506"/>
<path d="M14.0599 13.09C14.0599 13.24 13.9899 14.43 13.3899 14.81C13.3899 14.81 12.7599 15.34 11.6299 14.62C11.9699 14.77 12.2299 14.77 12.4099 14.73C12.9299 14.58 13.4899 13.97 13.5699 13.32C13.6399 12.67 13.6399 11.45 13.6399 11.45L13.5699 11.53L13.8699 11.22L14.0599 11.03V13.09Z" fill="#004D93"/>
<path d="M9.53998 11.94C9.53998 13.33 10.42 14.46 11.48 14.46C12.54 14.46 13.42 13.34 13.42 11.94C13.42 10.54 12.54 9.41998 11.48 9.41998C10.42 9.41998 9.53998 10.58 9.53998 11.94Z" fill="#B1BABF"/>
<path d="M9.64996 12.03C9.64996 13.35 10.49 14.42 11.49 14.42C12.49 14.42 13.33 13.35 13.33 12.03C13.33 10.71 12.49 9.64001 11.49 9.64001C10.49 9.64001 9.64996 10.74 9.64996 12.03Z" fill="#8CDDEA"/>
<path d="M9.68997 11.5L9.65997 11.72L10.34 11.76C10.34 11.76 10.94 11.68 11.05 11.66C11.11 11.69 11.73 11.79 11.76 11.79L12.8 11.89L12.73 11.81C12.67 11.78 11.89 11.57 11.83 11.53C11.8 11.5 11.25 11.3 11.22 11.24C11.16 11.18 10.77 10.95 10.7 10.95C10.64 10.92 9.72997 11.53 9.72997 11.53L9.68997 11.5Z" fill="white"/>
<path d="M9.64996 12.19L13.4 12.26V11.97L13.36 11.89C13.36 11.89 12.97 11.87 12.75 11.87C12.69 11.87 11.2 11.51 11.07 11.51C10.94 11.48 9.65996 11.7 9.65996 11.7V12.12" fill="#557176"/>
<path d="M9.62 12.12C9.62 13.47 10.47 14.55 11.49 14.55C12.51 14.55 13.36 13.47 13.36 12.12H9.62Z" fill="#6DBE45"/>
<path d="M13.65 11.45V11.49C13.65 11.64 13.65 12.74 13.58 13.3C13.51 13.94 12.99 14.55 12.43 14.74C12.24 14.78 11.99 14.78 11.65 14.63C11.62 14.63 11.62 14.6 11.58 14.6C11.58 14.6 11.59 14.6 11.6 14.6C12.25 14.49 12.76 14.03 13.05 13.35C13.18 13.04 13.28 12.68 13.31 12.3V11.81L13.57 11.54L13.64 11.47L13.65 11.45Z" fill="#ED1C24"/>
<path d="M11.4299 14.57C11.4299 14.57 11.3999 14.57 11.3999 14.58C11.3899 14.59 11.3799 14.61 11.3599 14.61C11.0199 14.77 10.7499 14.77 10.5699 14.73C10.0399 14.57 9.46995 13.95 9.39995 13.3C9.31995 12.72 9.31995 11.6 9.31995 11.45V11.41L9.39995 11.48C9.69995 11.79 9.54995 11.64 9.65995 11.75V12.25C9.68995 12.65 9.78995 13.03 9.92995 13.35C10.2299 14.03 10.7499 14.49 11.4499 14.56L11.4299 14.57Z" fill="#ED1C24"/>
<path d="M13.06 13.33C12.77 14 12.26 14.47 11.61 14.58C11.54 14.58 11.48 14.58 11.4 14.58C11.4 14.58 11.42 14.57 11.43 14.57C10.73 14.49 10.22 14.04 9.90997 13.36L10.86 12.82L10.23 11.98L10.59 11.59C10.5 11.7 10.31 11.95 10.34 11.98C10.36 12 11.31 12.75 11.31 12.75L12.19 12.83C12.19 12.83 11.72 13.07 11.73 13.08C11.76 13.08 12.72 13.28 13.05 13.35L13.06 13.33Z" fill="#0075AF"/>
<path d="M11.2 14.87H11.81V16.45H11.2V14.87Z" fill="#ED1C24"/>
<path d="M13.16 14.61H9.85997C9.81579 14.61 9.77997 14.6436 9.77997 14.685C9.77997 14.7264 9.81579 14.76 9.85997 14.76H13.16C13.2042 14.76 13.24 14.7264 13.24 14.685C13.24 14.6436 13.2042 14.61 13.16 14.61Z" fill="#B1BABF"/>
<path d="M10.71 15H11.32V16.58H10.71V15Z" fill="#004D93"/>
<path d="M11.65 15H12.26V16.58H11.65V15Z" fill="#004D93"/>
<path d="M10.58 15H10.97V17H10.58V15Z" fill="#FFD506"/>
<path d="M11.9999 15H12.3899V17H11.9999V15Z" fill="#FFD506"/>
<path d="M10.42 14.32H12.55C12.76 14.32 12.94 14.49 12.94 14.71C12.94 14.92 12.77 15.1 12.55 15.1H10.42C10.21 15.1 10.03 14.93 10.03 14.71C10.03 14.5 10.2 14.32 10.42 14.32Z" fill="#A2550B"/>
<path d="M13.3 7.98999C12.72 7.98999 12.11 8.63999 11.49 8.63999C10.87 8.63999 10.26 7.98999 9.67997 7.98999C9.12997 7.98999 6.96997 8.63999 6.96997 8.63999C9.96997 8.63999 11.49 10.25 11.49 10.25C11.49 10.25 13.01 8.63999 16.01 8.63999C16.01 8.63999 13.85 7.98999 13.3 7.98999Z" fill="#773D30"/>
<path d="M11.49 8.76999C11.7054 8.76999 11.88 8.59538 11.88 8.37999C11.88 8.1646 11.7054 7.98999 11.49 7.98999C11.2746 7.98999 11.1 8.1646 11.1 8.37999C11.1 8.59538 11.2746 8.76999 11.49 8.76999Z" fill="#B1BABF"/>
</g>
<g opacity="0.05">
<path d="M12.3 3.99999C15.23 3.99999 17.82 4.15999 19.6 4.44999C22.02 4.84999 22.63 6.59999 22.78 7.60999C23.09 9.72999 23.09 14.07 22.78 16.36C22.54 18.16 21.5 19.2 19.6 19.51C17.74 19.82 15 20 12.08 20C9.15998 20 6.40998 19.82 4.51998 19.51C2.73998 19.22 1.74998 18.22 1.32998 16.28C0.929981 14.46 0.859981 9.61999 1.32998 7.68999C1.82998 5.58999 2.68998 4.70999 4.49998 4.43999C6.44998 4.15999 9.36998 3.98999 12.31 3.98999M12.31 2.98999C9.37998 2.98999 6.41998 3.14999 4.35998 3.44999C1.85998 3.81999 0.859981 5.29999 0.339981 7.45999C-0.140019 9.47999 -0.0900187 14.49 0.339981 16.49C0.799981 18.61 1.96998 20.1 4.33998 20.49C6.36998 20.82 9.21998 20.99 12.06 20.99C14.9 20.99 17.74 20.82 19.74 20.49C22.07 20.1 23.44 18.73 23.74 16.49C24.04 14.24 24.08 9.75999 23.74 7.45999C23.45 5.47999 22.15 3.84999 19.74 3.45999C17.8 3.13999 15.06 2.99999 12.28 2.99999L12.31 2.98999Z" fill="black"/>
</g>
</g>
<g clip-path="url(#clip2_201_7)">
<mask id="mask1_201_7" style="mask-type:luminance" maskUnits="userSpaceOnUse" x="29" y="2" width="25" height="19">
<path d="M33.35 3.45997C37.36 2.87997 44.78 2.80997 48.76 3.45997C51.18 3.84997 52.48 5.47997 52.76 7.45997C53.1 9.76997 53.06 14.24 52.76 16.49C52.46 18.74 51.08 20.11 48.76 20.49C44.75 21.16 37.42 21.16 33.35 20.49C30.98 20.1 29.81 18.61 29.35 16.49C28.92 14.49 28.87 9.46997 29.35 7.45997C29.87 5.29997 30.87 3.81997 33.35 3.45997Z" fill="white"/>
</mask>
<g mask="url(#mask1_201_7)">
<path d="M53 3H29V12H53V3Z" fill="#F2E8B6"/>
<path d="M53 12H29V17H53V12Z" fill="#80A1BA"/>
<path d="M53 17H29V21H53V17Z" fill="#EAB0B5"/>
<path d="M38.35 11.56L38.61 11.82L38.72 11.52L38.76 11.33C38.72 10.8 38.76 10.27 38.76 10.27L38.83 10.35L38.53 10.05L38.34 9.85999V11.56" fill="#819CB5"/>
<path d="M38.78 11.46L39.02 10.54L38.75 10.27L38.71 11.34L38.78 11.47V11.46Z" fill="#EFACB5"/>
<path d="M38.35 9.86001L38.54 10.05L37.65 9.14001C37.65 9.14001 37.61 9.93001 37.61 10.84L38.35 11.6V9.86001Z" fill="#EADFB2"/>
<path d="M42.5999 11.56V9.85999L42.4099 10.05L42.1899 10.28C42.1899 10.28 42.2299 10.81 42.1899 11.34L42.2299 11.53L42.3399 11.83L42.5999 11.57" fill="#819CB5"/>
<path d="M42.24 11.38L42.19 10.27L41.93 10.53L42.19 11.32L42.24 11.37V11.38Z" fill="#EFACB5"/>
<path d="M42.6 9.86V11.6L43.34 10.84C43.34 9.93 43.34 9.1 43.3 9.14L42.41 10.05L42.6 9.86Z" fill="#EADFB2"/>
<path d="M38.6099 14.77C37.9799 14.39 37.9099 13.22 37.9099 13.03V10.99L38.0999 11.18L37.2099 10.27C37.1399 10.19 37.2099 12.73 37.2099 13.82C37.2099 14.35 37.5399 16.2 39.3899 15.26C39.3899 15.26 40.3199 14.92 40.6099 14.5H40.4199C40.4199 14.5 40.3499 14.54 40.3099 14.54C39.2399 15.3 38.6099 14.77 38.6099 14.77Z" fill="#EADFB2"/>
<path d="M37.9 13.05C37.9 13.2 37.97 14.38 38.57 14.76C38.57 14.76 39.2 15.29 40.32 14.57C39.98 14.72 39.72 14.72 39.54 14.68C39.02 14.53 38.46 13.92 38.39 13.27C38.32 12.62 38.32 11.4 38.32 11.4L38.39 11.48L38.09 11.18L37.9 11.03V13.05Z" fill="#819CB5"/>
<path d="M42.39 14.81C42.98 14.43 43.09 13.26 43.06 13.11V11.07L42.87 11.26L43.76 10.35C43.83 10.27 43.76 12.81 43.76 13.9C43.76 14.43 43.43 16.28 41.58 15.34C41.58 15.34 40.65 15 40.36 14.58H40.55L40.62 14.62C41.77 15.34 42.4 14.81 42.4 14.81" fill="#EADFB2"/>
<path d="M43.0599 13.09C43.0599 13.24 42.9899 14.43 42.3899 14.81C42.3899 14.81 41.7599 15.34 40.6299 14.62C40.9699 14.77 41.2299 14.77 41.4099 14.73C41.9299 14.58 42.4899 13.97 42.5699 13.32C42.6399 12.67 42.6399 11.45 42.6399 11.45L42.5699 11.53L42.8699 11.22L43.0599 11.03V13.09Z" fill="#819CB5"/>
<path d="M38.54 11.94C38.54 13.33 39.42 14.46 40.48 14.46C41.54 14.46 42.42 13.34 42.42 11.94C42.42 10.54 41.54 9.41998 40.48 9.41998C39.42 9.41998 38.54 10.58 38.54 11.94Z" fill="#D4D6D8"/>
<path d="M38.65 12.03C38.65 13.35 39.49 14.42 40.49 14.42C41.49 14.42 42.33 13.35 42.33 12.03C42.33 10.71 41.49 9.64001 40.49 9.64001C39.49 9.64001 38.65 10.74 38.65 12.03Z" fill="#83B8C6"/>
<path d="M38.69 11.5L38.66 11.72L39.34 11.76C39.34 11.76 39.94 11.68 40.05 11.66C40.11 11.69 40.73 11.79 40.76 11.79L41.8 11.89L41.73 11.81C41.67 11.78 40.89 11.57 40.83 11.53C40.8 11.5 40.25 11.3 40.22 11.24C40.16 11.18 39.77 10.95 39.7 10.95C39.64 10.92 38.73 11.53 38.73 11.53L38.69 11.5Z" fill="#E5E5E5"/>
<path d="M38.65 12.19L42.4 12.26V11.97L42.36 11.89C42.36 11.89 41.97 11.87 41.75 11.87C41.69 11.87 40.2 11.51 40.07 11.51C39.94 11.48 38.66 11.7 38.66 11.7V12.12" fill="#92A3A5"/>
<path d="M38.62 12.12C38.62 13.47 39.47 14.55 40.49 14.55C41.51 14.55 42.36 13.47 42.36 12.12H38.62Z" fill="#9ECC83"/>
<path d="M42.65 11.45V11.49C42.65 11.64 42.65 12.74 42.58 13.3C42.51 13.94 41.99 14.55 41.43 14.74C41.24 14.78 40.99 14.78 40.65 14.63C40.62 14.63 40.62 14.6 40.58 14.6C40.58 14.6 40.59 14.6 40.6 14.6C41.25 14.49 41.76 14.03 42.05 13.35C42.18 13.04 42.28 12.68 42.31 12.3V11.81L42.57 11.54L42.64 11.47L42.65 11.45Z" fill="#EFACB5"/>
<path d="M40.4299 14.57C40.4299 14.57 40.3999 14.57 40.3999 14.58C40.3899 14.59 40.3799 14.61 40.3599 14.61C40.0199 14.77 39.7499 14.77 39.5699 14.73C39.0399 14.57 38.4699 13.95 38.3999 13.3C38.3199 12.72 38.3199 11.6 38.3199 11.45V11.41L38.3999 11.48C38.6999 11.79 38.5499 11.64 38.6599 11.75V12.25C38.6899 12.65 38.7899 13.03 38.9299 13.35C39.2299 14.03 39.7499 14.49 40.4499 14.56L40.4299 14.57Z" fill="#EFACB5"/>
<path d="M42.06 13.33C41.77 14 41.26 14.47 40.61 14.58C40.54 14.58 40.48 14.58 40.4 14.58C40.4 14.58 40.42 14.57 40.43 14.57C39.73 14.49 39.22 14.04 38.91 13.36L39.86 12.82L39.23 11.98L39.59 11.59C39.5 11.7 39.31 11.95 39.34 11.98C39.36 12 40.31 12.75 40.31 12.75L41.19 12.83C41.19 12.83 40.72 13.07 40.73 13.08C40.76 13.08 41.72 13.28 42.05 13.35L42.06 13.33Z" fill="#83B8C6"/>
<path d="M40.2 14.87H40.81V16.45H40.2V14.87Z" fill="#EFACB5"/>
<path d="M42.16 14.61H38.86C38.8158 14.61 38.78 14.6436 38.78 14.685C38.78 14.7264 38.8158 14.76 38.86 14.76H42.16C42.2042 14.76 42.24 14.7264 42.24 14.685C42.24 14.6436 42.2042 14.61 42.16 14.61Z" fill="#D4D6D8"/>
<path d="M39.71 15H40.32V16.58H39.71V15Z" fill="#819CB5"/>
<path d="M40.65 15H41.26V16.58H40.65V15Z" fill="#819CB5"/>
<path d="M39.58 15H39.97V17H39.58V15Z" fill="#F2E8B6"/>
<path d="M40.9999 15H41.3899V17H40.9999V15Z" fill="#F2E8B6"/>
<path d="M39.42 14.32H41.55C41.76 14.32 41.94 14.49 41.94 14.71C41.94 14.92 41.77 15.1 41.55 15.1H39.42C39.21 15.1 39.03 14.93 39.03 14.71C39.03 14.5 39.2 14.32 39.42 14.32Z" fill="#BC9371"/>
<path d="M42.3 7.98999C41.72 7.98999 41.11 8.63999 40.49 8.63999C39.87 8.63999 39.26 7.98999 38.68 7.98999C38.13 7.98999 35.97 8.63999 35.97 8.63999C38.97 8.63999 40.49 10.25 40.49 10.25C40.49 10.25 42.01 8.63999 45.01 8.63999C45.01 8.63999 42.85 7.98999 42.3 7.98999Z" fill="#998685"/>
<path d="M40.49 8.76999C40.7054 8.76999 40.88 8.59538 40.88 8.37999C40.88 8.1646 40.7054 7.98999 40.49 7.98999C40.2746 7.98999 40.1 8.1646 40.1 8.37999C40.1 8.59538 40.2746 8.76999 40.49 8.76999Z" fill="#D4D6D8"/>
</g>
<g opacity="0.05">
<path d="M41.3 3.99999C44.23 3.99999 46.82 4.15999 48.6 4.44999C51.02 4.84999 51.63 6.59999 51.78 7.60999C52.09 9.72999 52.09 14.07 51.78 16.36C51.54 18.16 50.5 19.2 48.6 19.51C46.74 19.82 44 20 41.08 20C38.16 20 35.41 19.82 33.52 19.51C31.74 19.22 30.75 18.22 30.33 16.28C29.93 14.46 29.86 9.61999 30.33 7.68999C30.83 5.58999 31.69 4.70999 33.5 4.43999C35.45 4.15999 38.37 3.98999 41.31 3.98999M41.31 2.98999C38.38 2.98999 35.42 3.14999 33.36 3.44999C30.86 3.81999 29.86 5.29999 29.34 7.45999C28.86 9.47999 28.91 14.49 29.34 16.49C29.8 18.61 30.97 20.1 33.34 20.49C35.37 20.82 38.22 20.99 41.06 20.99C43.9 20.99 46.74 20.82 48.74 20.49C51.07 20.1 52.44 18.73 52.74 16.49C53.04 14.24 53.08 9.75999 52.74 7.45999C52.45 5.47999 51.15 3.84999 48.74 3.45999C46.8 3.13999 44.06 2.99999 41.28 2.99999L41.31 2.98999Z" fill="black"/>
</g>
</g>
<g clip-path="url(#clip3_201_7)">
<mask id="mask2_201_7" style="mask-type:luminance" maskUnits="userSpaceOnUse" x="58" y="2" width="25" height="19">
<path d="M62.35 3.45997C66.36 2.87997 73.78 2.80997 77.76 3.45997C80.18 3.84997 81.48 5.47997 81.76 7.45997C82.1 9.76997 82.06 14.24 81.76 16.49C81.46 18.74 80.08 20.11 77.76 20.49C73.75 21.16 66.42 21.16 62.35 20.49C59.98 20.1 58.81 18.61 58.35 16.49C57.92 14.49 57.87 9.46997 58.35 7.45997C58.87 5.29997 59.87 3.81997 62.35 3.45997Z" fill="white"/>
</mask>
<g mask="url(#mask2_201_7)">
<path d="M82 3H58V12H82V3Z" fill="#FFE33E"/>
<path d="M82 12H58V17H82V12Z" fill="#0858A0"/>
<path d="M82 17H58V21H82V17Z" fill="#F22C3B"/>
<path d="M67.35 11.56L67.61 11.82L67.72 11.52L67.76 11.33C67.72 10.8 67.76 10.27 67.76 10.27L67.83 10.35L67.53 10.05L67.34 9.85999V11.56" fill="#004D93"/>
<path d="M67.78 11.46L68.02 10.54L67.75 10.27L67.71 11.34L67.78 11.47V11.46Z" fill="#ED1C24"/>
<path d="M67.35 9.86001L67.54 10.05L66.65 9.14001C66.65 9.14001 66.61 9.93001 66.61 10.84L67.35 11.6V9.86001Z" fill="#FFD506"/>
<path d="M71.5999 11.56V9.85999L71.4099 10.05L71.1899 10.28C71.1899 10.28 71.2299 10.81 71.1899 11.34L71.2299 11.53L71.3399 11.83L71.5999 11.57" fill="#004D93"/>
<path d="M71.24 11.38L71.19 10.27L70.93 10.53L71.19 11.32L71.24 11.37V11.38Z" fill="#ED1C24"/>
<path d="M71.6 9.86V11.6L72.34 10.84C72.34 9.93 72.34 9.1 72.3 9.14L71.41 10.05L71.6 9.86Z" fill="#FFD506"/>
<path d="M67.6099 14.77C66.9799 14.39 66.9099 13.22 66.9099 13.03V10.99L67.0999 11.18L66.2099 10.27C66.1399 10.19 66.2099 12.73 66.2099 13.82C66.2099 14.35 66.5399 16.2 68.3899 15.26C68.3899 15.26 69.3199 14.92 69.6099 14.5H69.4199C69.4199 14.5 69.3499 14.54 69.3099 14.54C68.2399 15.3 67.6099 14.77 67.6099 14.77Z" fill="#FFD506"/>
<path d="M66.9 13.05C66.9 13.2 66.97 14.38 67.57 14.76C67.57 14.76 68.2 15.29 69.32 14.57C68.98 14.72 68.72 14.72 68.54 14.68C68.02 14.53 67.46 13.92 67.39 13.27C67.32 12.62 67.32 11.4 67.32 11.4L67.39 11.48L67.09 11.18L66.9 11.03V13.05Z" fill="#004D93"/>
<path d="M71.39 14.81C71.98 14.43 72.09 13.26 72.06 13.11V11.07L71.87 11.26L72.76 10.35C72.83 10.27 72.76 12.81 72.76 13.9C72.76 14.43 72.43 16.28 70.58 15.34C70.58 15.34 69.65 15 69.36 14.58H69.55L69.62 14.62C70.77 15.34 71.4 14.81 71.4 14.81" fill="#FFD506"/>
<path d="M72.0599 13.09C72.0599 13.24 71.9899 14.43 71.3899 14.81C71.3899 14.81 70.7599 15.34 69.6299 14.62C69.9699 14.77 70.2299 14.77 70.4099 14.73C70.9299 14.58 71.4899 13.97 71.5699 13.32C71.6399 12.67 71.6399 11.45 71.6399 11.45L71.5699 11.53L71.8699 11.22L72.0599 11.03V13.09Z" fill="#004D93"/>
<path d="M67.54 11.94C67.54 13.33 68.42 14.46 69.48 14.46C70.54 14.46 71.42 13.34 71.42 11.94C71.42 10.54 70.54 9.41998 69.48 9.41998C68.42 9.41998 67.54 10.58 67.54 11.94Z" fill="#B1BABF"/>
<path d="M67.65 12.03C67.65 13.35 68.49 14.42 69.49 14.42C70.49 14.42 71.33 13.35 71.33 12.03C71.33 10.71 70.49 9.64001 69.49 9.64001C68.49 9.64001 67.65 10.74 67.65 12.03Z" fill="#8CDDEA"/>
<path d="M67.69 11.5L67.66 11.72L68.34 11.76C68.34 11.76 68.94 11.68 69.05 11.66C69.11 11.69 69.73 11.79 69.76 11.79L70.8 11.89L70.73 11.81C70.67 11.78 69.89 11.57 69.83 11.53C69.8 11.5 69.25 11.3 69.22 11.24C69.16 11.18 68.77 10.95 68.7 10.95C68.64 10.92 67.73 11.53 67.73 11.53L67.69 11.5Z" fill="white"/>
<path d="M67.65 12.19L71.4 12.26V11.97L71.36 11.89C71.36 11.89 70.97 11.87 70.75 11.87C70.69 11.87 69.2 11.51 69.07 11.51C68.94 11.48 67.66 11.7 67.66 11.7V12.12" fill="#557176"/>
<path d="M67.62 12.12C67.62 13.47 68.47 14.55 69.49 14.55C70.51 14.55 71.36 13.47 71.36 12.12H67.62Z" fill="#6DBE45"/>
<path d="M71.65 11.45V11.49C71.65 11.64 71.65 12.74 71.58 13.3C71.51 13.94 70.99 14.55 70.43 14.74C70.24 14.78 69.99 14.78 69.65 14.63C69.62 14.63 69.62 14.6 69.58 14.6C69.58 14.6 69.59 14.6 69.6 14.6C70.25 14.49 70.76 14.03 71.05 13.35C71.18 13.04 71.28 12.68 71.31 12.3V11.81L71.57 11.54L71.64 11.47L71.65 11.45Z" fill="#ED1C24"/>
<path d="M69.4299 14.57C69.4299 14.57 69.3999 14.57 69.3999 14.58C69.3899 14.59 69.3799 14.61 69.3599 14.61C69.0199 14.77 68.7499 14.77 68.5699 14.73C68.0399 14.57 67.4699 13.95 67.3999 13.3C67.3199 12.72 67.3199 11.6 67.3199 11.45V11.41L67.3999 11.48C67.6999 11.79 67.5499 11.64 67.6599 11.75V12.25C67.6899 12.65 67.7899 13.03 67.9299 13.35C68.2299 14.03 68.7499 14.49 69.4499 14.56L69.4299 14.57Z" fill="#ED1C24"/>
<path d="M71.06 13.33C70.77 14 70.26 14.47 69.61 14.58C69.54 14.58 69.48 14.58 69.4 14.58C69.4 14.58 69.42 14.57 69.43 14.57C68.73 14.49 68.22 14.04 67.91 13.36L68.86 12.82L68.23 11.98L68.59 11.59C68.5 11.7 68.31 11.95 68.34 11.98C68.36 12 69.31 12.75 69.31 12.75L70.19 12.83C70.19 12.83 69.72 13.07 69.73 13.08C69.76 13.08 70.72 13.28 71.05 13.35L71.06 13.33Z" fill="#0075AF"/>
<path d="M69.2 14.87H69.81V16.45H69.2V14.87Z" fill="#ED1C24"/>
<path d="M71.16 14.61H67.86C67.8158 14.61 67.78 14.6436 67.78 14.685C67.78 14.7264 67.8158 14.76 67.86 14.76H71.16C71.2042 14.76 71.24 14.7264 71.24 14.685C71.24 14.6436 71.2042 14.61 71.16 14.61Z" fill="#B1BABF"/>
<path d="M68.71 15H69.32V16.58H68.71V15Z" fill="#004D93"/>
<path d="M69.65 15H70.26V16.58H69.65V15Z" fill="#004D93"/>
<path d="M68.58 15H68.97V17H68.58V15Z" fill="#FFD506"/>
<path d="M69.9999 15H70.3899V17H69.9999V15Z" fill="#FFD506"/>
<path d="M68.42 14.32H70.55C70.76 14.32 70.94 14.49 70.94 14.71C70.94 14.92 70.77 15.1 70.55 15.1H68.42C68.21 15.1 68.03 14.93 68.03 14.71C68.03 14.5 68.2 14.32 68.42 14.32Z" fill="#A2550B"/>
<path d="M71.3 7.98999C70.72 7.98999 70.11 8.63999 69.49 8.63999C68.87 8.63999 68.26 7.98999 67.68 7.98999C67.13 7.98999 64.97 8.63999 64.97 8.63999C67.97 8.63999 69.49 10.25 69.49 10.25C69.49 10.25 71.01 8.63999 74.01 8.63999C74.01 8.63999 71.85 7.98999 71.3 7.98999Z" fill="#773D30"/>
<path d="M69.49 8.76999C69.7054 8.76999 69.88 8.59538 69.88 8.37999C69.88 8.1646 69.7054 7.98999 69.49 7.98999C69.2746 7.98999 69.1 8.1646 69.1 8.37999C69.1 8.59538 69.2746 8.76999 69.49 8.76999Z" fill="#B1BABF"/>
</g>
<g opacity="0.05">
<path d="M70.3 3.99999C73.23 3.99999 75.82 4.15999 77.6 4.44999C80.02 4.84999 80.63 6.59999 80.78 7.60999C81.09 9.72999 81.09 14.07 80.78 16.36C80.54 18.16 79.5 19.2 77.6 19.51C75.74 19.82 73 20 70.08 20C67.16 20 64.41 19.82 62.52 19.51C60.74 19.22 59.75 18.22 59.33 16.28C58.93 14.46 58.86 9.61999 59.33 7.68999C59.83 5.58999 60.69 4.70999 62.5 4.43999C64.45 4.15999 67.37 3.98999 70.31 3.98999M70.31 2.98999C67.38 2.98999 64.42 3.14999 62.36 3.44999C59.86 3.81999 58.86 5.29999 58.34 7.45999C57.86 9.47999 57.91 14.49 58.34 16.49C58.8 18.61 59.97 20.1 62.34 20.49C64.37 20.82 67.22 20.99 70.06 20.99C72.9 20.99 75.74 20.82 77.74 20.49C80.07 20.1 81.44 18.73 81.74 16.49C82.04 14.24 82.08 9.75999 81.74 7.45999C81.45 5.47999 80.15 3.84999 77.74 3.45999C75.8 3.13999 73.06 2.99999 70.28 2.99999L70.31 2.98999Z" fill="black"/>
</g>
</g>
</g>
<defs>
<clipPath id="clip0_201_7">
<rect width="82" height="24" fill="white"/>
</clipPath>
<clipPath id="clip1_201_7">
<rect width="24" height="24" fill="white"/>
</clipPath>
<clipPath id="clip2_201_7">
<rect width="24" height="24" fill="white" transform="translate(29)"/>
</clipPath>
<clipPath id="clip3_201_7">
<rect width="24" height="24" fill="white" transform="translate(58)"/>
</clipPath>
</defs>
</svg>
