<svg xmlns="http://www.w3.org/2000/svg" xmlns:xlink="http://www.w3.org/1999/xlink" width="82" height="24" viewBox="0 0 82 24"><defs><style>.cls-1{fill:none;}.cls-2{clip-path:url(#clip-path);}.cls-3{fill:#f9f9f9;}.cls-4{fill:#2c4b91;}.cls-5{opacity:0.05;}.cls-6{clip-path:url(#clip-path-2);}.cls-7{fill:#f2f2f2;}.cls-8{fill:#ced9f2;}.cls-9{clip-path:url(#clip-path-3);}.cls-10{fill:#fff;}.cls-11{fill:#243b79;}</style><clipPath id="clip-path"><path id="Container-2" class="cls-1" d="M62.35,3.46a64.59,64.59,0,0,1,15.41,0,4.56,4.56,0,0,1,4,4,42.68,42.68,0,0,1,0,9,4.42,4.42,0,0,1-4,4,59.32,59.32,0,0,1-15.41,0,4.63,4.63,0,0,1-4-4,30.11,30.11,0,0,1,0-9C58.86,5.3,59.86,3.82,62.35,3.46Z"/></clipPath><clipPath id="clip-path-2"><path id="Container-2-2" data-name="Container-2" class="cls-1" d="M33.35,3.46a64.59,64.59,0,0,1,15.41,0,4.56,4.56,0,0,1,4,4,42.68,42.68,0,0,1,0,9,4.42,4.42,0,0,1-4,4,59.32,59.32,0,0,1-15.41,0,4.63,4.63,0,0,1-4-4,30.11,30.11,0,0,1,0-9C29.86,5.3,30.86,3.82,33.35,3.46Z"/></clipPath><clipPath id="clip-path-3"><path id="Container-2-3" data-name="Container-2" class="cls-1" d="M4.35,3.46a64.59,64.59,0,0,1,15.41,0,4.56,4.56,0,0,1,4,4,42.68,42.68,0,0,1,0,9,4.42,4.42,0,0,1-4,4,59.32,59.32,0,0,1-15.41,0,4.63,4.63,0,0,1-4-4,30.11,30.11,0,0,1,0-9C.86,5.3,1.86,3.82,4.35,3.46Z"/></clipPath></defs><g id="_24_Finland_Hoover" data-name="24_Finland_Hoover"><g class="cls-2"><g id="White"><rect id="Blue-2" class="cls-3" x="70" y="3" width="12" height="7"/><rect id="Blue-3" class="cls-3" x="58" y="14" width="8" height="7"/><rect id="Blue-4" class="cls-3" x="58" y="3" width="8" height="7"/><rect id="Blue-5" class="cls-3" x="70" y="14" width="12" height="7"/></g><polygon class="cls-4" points="82 10 70 10 70 3 66 3 66 10 58 10 58 14 66 14 66 21 70 21 70 14 82 14 82 10"/></g><g id="Container-2-4" data-name="Container-2" class="cls-5"><path d="M70.3,4h0a48.91,48.91,0,0,1,7.3.45,3.56,3.56,0,0,1,3.17,3.16,41.27,41.27,0,0,1,0,8.75,3.41,3.41,0,0,1-3.18,3.15,49.58,49.58,0,0,1-7.52.49,50.45,50.45,0,0,1-7.56-.49,3.63,3.63,0,0,1-3.19-3.23,29,29,0,0,1,0-8.58c.5-2.11,1.36-3,3.17-3.25A60.16,60.16,0,0,1,70.3,4m0-1a60.11,60.11,0,0,0-7.95.46c-2.49.36-3.49,1.84-4,4a30.11,30.11,0,0,0,0,9,4.63,4.63,0,0,0,4,4,52,52,0,0,0,7.72.5,51.42,51.42,0,0,0,7.69-.5,4.42,4.42,0,0,0,4-4,42.68,42.68,0,0,0,0-9,4.56,4.56,0,0,0-4-4A51.38,51.38,0,0,0,70.3,3Z"/></g></g><g id="_24_Finland_Disabled" data-name="24_Finland_Disabled"><g class="cls-6"><g id="White-2" data-name="White"><rect id="Blue-2-2" data-name="Blue-2" class="cls-7" x="41" y="3" width="12" height="7"/><rect id="Blue-3-2" data-name="Blue-3" class="cls-7" x="29" y="14" width="8" height="7"/><rect id="Blue-4-2" data-name="Blue-4" class="cls-7" x="29" y="3" width="8" height="7"/><rect id="Blue-5-2" data-name="Blue-5" class="cls-7" x="41" y="14" width="12" height="7"/></g><polygon class="cls-8" points="53 10 41 10 41 3 37 3 37 10 29 10 29 14 37 14 37 21 41 21 41 14 53 14 53 10"/></g><g id="Container-2-5" data-name="Container-2" class="cls-5"><path d="M41.3,4h0a48.91,48.91,0,0,1,7.3.45,3.56,3.56,0,0,1,3.17,3.16,41.27,41.27,0,0,1,0,8.75,3.41,3.41,0,0,1-3.18,3.15,49.58,49.58,0,0,1-7.52.49,50.45,50.45,0,0,1-7.56-.49,3.63,3.63,0,0,1-3.19-3.23,29,29,0,0,1,0-8.58c.5-2.11,1.36-3,3.17-3.25A60.16,60.16,0,0,1,41.3,4m0-1a60.11,60.11,0,0,0-7.95.46c-2.49.36-3.49,1.84-4,4a30.11,30.11,0,0,0,0,9,4.63,4.63,0,0,0,4,4,52,52,0,0,0,7.72.5,51.42,51.42,0,0,0,7.69-.5,4.42,4.42,0,0,0,4-4,42.68,42.68,0,0,0,0-9,4.56,4.56,0,0,0-4-4A51.38,51.38,0,0,0,41.3,3Z"/></g></g><g id="_24_Finland_Normal" data-name="24_Finland_Normal"><g class="cls-9"><g id="White-3" data-name="White"><rect id="Blue-2-3" data-name="Blue-2" class="cls-10" x="12" y="3" width="12" height="7"/><rect id="Blue-3-3" data-name="Blue-3" class="cls-10" y="14" width="8" height="7"/><rect id="Blue-4-3" data-name="Blue-4" class="cls-10" y="3" width="8" height="7"/><rect id="Blue-5-3" data-name="Blue-5" class="cls-10" x="12" y="14" width="12" height="7"/></g><polygon class="cls-11" points="24 10 12 10 12 3 8 3 8 10 0 10 0 14 8 14 8 21 12 21 12 14 24 14 24 10"/></g><g id="Container-2-6" data-name="Container-2" class="cls-5"><path d="M12.3,4h0a48.91,48.91,0,0,1,7.3.45,3.56,3.56,0,0,1,3.17,3.16,41.27,41.27,0,0,1,0,8.75,3.41,3.41,0,0,1-3.18,3.15,49.58,49.58,0,0,1-7.52.49,50.45,50.45,0,0,1-7.56-.49,3.63,3.63,0,0,1-3.19-3.23,29,29,0,0,1,0-8.58c.5-2.11,1.36-3,3.17-3.25A60.16,60.16,0,0,1,12.3,4m0-1a60.11,60.11,0,0,0-8,.46c-2.49.36-3.49,1.84-4,4a30.11,30.11,0,0,0,0,9,4.63,4.63,0,0,0,4,4,52,52,0,0,0,7.72.5,51.42,51.42,0,0,0,7.69-.5,4.42,4.42,0,0,0,4-4,42.68,42.68,0,0,0,0-9,4.56,4.56,0,0,0-4-4A51.38,51.38,0,0,0,12.3,3Z"/></g></g></svg>