<svg xmlns="http://www.w3.org/2000/svg" xmlns:xlink="http://www.w3.org/1999/xlink" width="82" height="24" viewBox="0 0 82 24"><defs><style>.cls-1{fill:none;}.cls-2{clip-path:url(#clip-path);}.cls-3{fill:#f7210b;}.cls-4{fill:#f9f9f9;}.cls-5{opacity:0.05;}.cls-6{clip-path:url(#clip-path-2);}.cls-7{fill:#f2d2ce;}.cls-8{fill:#fff;}.cls-9{clip-path:url(#clip-path-3);}.cls-10{fill:#de2408;}</style><clipPath id="clip-path"><path id="Container-2" class="cls-1" d="M62.35,3.46a64.59,64.59,0,0,1,15.41,0,4.56,4.56,0,0,1,4,4,42.68,42.68,0,0,1,0,9,4.42,4.42,0,0,1-4,4,59.32,59.32,0,0,1-15.41,0,4.63,4.63,0,0,1-4-4,30.11,30.11,0,0,1,0-9C58.86,5.3,59.86,3.82,62.35,3.46Z"/></clipPath><clipPath id="clip-path-2"><path id="Container-2-2" data-name="Container-2" class="cls-1" d="M33.35,3.46a64.59,64.59,0,0,1,15.41,0,4.56,4.56,0,0,1,4,4,42.68,42.68,0,0,1,0,9,4.42,4.42,0,0,1-4,4,59.32,59.32,0,0,1-15.41,0,4.63,4.63,0,0,1-4-4,30.11,30.11,0,0,1,0-9C29.86,5.3,30.86,3.82,33.35,3.46Z"/></clipPath><clipPath id="clip-path-3"><path id="Container-2-3" data-name="Container-2" class="cls-1" d="M4.35,3.46a64.59,64.59,0,0,1,15.41,0,4.56,4.56,0,0,1,4,4,42.68,42.68,0,0,1,0,9,4.42,4.42,0,0,1-4,4,59.32,59.32,0,0,1-15.41,0,4.63,4.63,0,0,1-4-4,30.11,30.11,0,0,1,0-9C.86,5.3,1.86,3.82,4.35,3.46Z"/></clipPath></defs><g id="_24_Hong_Kong_Hoover" data-name="24_Hong Kong_Hoover"><g class="cls-2"><rect class="cls-3" x="58.02" y="3.03" width="24" height="17.97"/><path class="cls-4" d="M68.24,12.75a2.56,2.56,0,0,1-2-.88.12.12,0,0,1,0-.17h0a.11.11,0,0,1,.16,0,2.5,2.5,0,0,0,2.82.6,1.53,1.53,0,0,1-.8-.14c-.87-.58-.47-1.19-1-1.93a1.68,1.68,0,0,0-1.91-.59,1,1,0,0,1-1.15-.8.06.06,0,0,0-.12,0c-1,2.72,2,6.08,5.13,3.66A3.32,3.32,0,0,1,68.24,12.75ZM66,11.82a.05.05,0,0,1-.1,0l-.12-.38-.4,0a0,0,0,0,1,0-.09l.33-.23-.11-.39a.05.05,0,0,1,.09-.05l.31.24.33-.23a.06.06,0,0,1,.09.07l-.13.37.31.25s0,.1,0,.09h-.4Z"/><path class="cls-4" d="M70.47,10.94a2.48,2.48,0,0,1,2.09-.47.11.11,0,0,1,.09.13h0a.11.11,0,0,1-.13.09,2.49,2.49,0,0,0-2.62,1.2,1.39,1.39,0,0,1,.72-.35c1-.07,1.09.66,2,.9s1.3-.08,1.88-.67a1,1,0,0,1,1.4,0s.11,0,.09-.07c-.82-2.78-5.26-3.66-6.3.15A3.24,3.24,0,0,1,70.47,10.94Zm2.37-.62a.05.05,0,0,1,.08-.06l.32.23.33-.22a.05.05,0,0,1,.08.06l-.12.38.31.24s0,.09,0,.09h-.4l-.13.38a.05.05,0,0,1-.1,0L73.06,11h-.4a.06.06,0,0,1,0-.1L73,10.7Z"/><path class="cls-4" d="M68.8,11.2a2.48,2.48,0,0,1,.07-2.14A.12.12,0,0,1,69,9h0a.1.1,0,0,1,0,.15A2.49,2.49,0,0,0,69.58,12a1.38,1.38,0,0,1-.16-.79c.19-1,.91-.89,1.37-1.71a1.65,1.65,0,0,0-.18-2,1,1,0,0,1,.3-1.36.06.06,0,0,0,0-.11c-2.89.1-4.86,4.18-1.43,6.14A3.27,3.27,0,0,1,68.8,11.2Zm0-2.45c-.05,0-.08-.06,0-.09l.31-.26L68.92,8A.06.06,0,0,1,69,8l.34.22.31-.25a.06.06,0,0,1,.09.06l-.1.39L70,8.6s0,.09,0,.09l-.4,0-.1.38a.06.06,0,0,1-.11,0l-.14-.38Z"/><path class="cls-4" d="M71.06,12.52a2.51,2.51,0,0,1,1.1,1.84.11.11,0,0,1-.1.12h0a.11.11,0,0,1-.12-.1,2.48,2.48,0,0,0-2-2.1,1.42,1.42,0,0,1,.57.57c.39,1-.29,1.24-.23,2.18s.49,1.21,1.23,1.58A1,1,0,0,1,72,17.92a.06.06,0,0,0,.09.07c2.39-1.66,1.82-6.15-2.11-5.94A3.23,3.23,0,0,1,71.06,12.52Zm1.33,2.05a.05.05,0,0,1,.08.06l-.12.38.32.24a.06.06,0,0,1,0,.1h-.4l-.13.38a.05.05,0,0,1-.1,0l-.13-.38h-.39a.06.06,0,0,1,0-.1l.33-.23-.12-.39s0-.08.08,0l.33.23Z"/><path class="cls-4" d="M69.76,13.65a2.52,2.52,0,0,1-1.42,1.61.11.11,0,0,1-.15-.06h0a.11.11,0,0,1,.06-.15,2.46,2.46,0,0,0,1.4-2.51,1.39,1.39,0,0,1-.37.71c-.8.67-1.27.11-2.15.45s-1,.83-1.12,1.65a1,1,0,0,1-1.1.86.06.06,0,0,0,0,.11c2.31,1.76,6.42-.14,5-3.82A3.46,3.46,0,0,1,69.76,13.65Zm-1.55,1.89s0,.1,0,.1h-.4l-.13.37a.05.05,0,0,1-.1,0l-.12-.38H67a0,0,0,0,1,0-.09l.32-.24-.11-.38a.05.05,0,0,1,.08-.06l.32.24.33-.23a.05.05,0,0,1,.08.06l-.12.38Z"/></g><g id="Container-2-4" data-name="Container-2" class="cls-5"><path d="M70.3,4h0a48.91,48.91,0,0,1,7.3.45,3.56,3.56,0,0,1,3.17,3.16,41.27,41.27,0,0,1,0,8.75,3.41,3.41,0,0,1-3.18,3.15,49.58,49.58,0,0,1-7.52.49,50.45,50.45,0,0,1-7.56-.49,3.63,3.63,0,0,1-3.19-3.23,29,29,0,0,1,0-8.58c.5-2.11,1.36-3,3.17-3.25A60.16,60.16,0,0,1,70.3,4m0-1a60.11,60.11,0,0,0-7.95.46c-2.49.36-3.49,1.84-4,4a30.11,30.11,0,0,0,0,9,4.63,4.63,0,0,0,4,4,52,52,0,0,0,7.72.5,51.42,51.42,0,0,0,7.69-.5,4.42,4.42,0,0,0,4-4,42.68,42.68,0,0,0,0-9,4.56,4.56,0,0,0-4-4A51.38,51.38,0,0,0,70.3,3Z"/></g></g><g id="_24_Hong_Kong_Disabled" data-name="24_Hong Kong_Disabled"><g class="cls-6"><rect class="cls-7" x="29" y="3.03" width="24" height="17.97"/><path class="cls-8" d="M39.22,12.75a2.56,2.56,0,0,1-2-.88.12.12,0,0,1,0-.17h0a.11.11,0,0,1,.16,0,2.48,2.48,0,0,0,2.81.6,1.51,1.51,0,0,1-.79-.14c-.87-.58-.48-1.19-1.06-1.93s-1.09-.71-1.91-.59a1,1,0,0,1-1.14-.8.06.06,0,0,0-.12,0c-1,2.72,2,6.08,5.13,3.66A3.38,3.38,0,0,1,39.22,12.75ZM37,11.82a.05.05,0,0,1-.1,0l-.12-.38-.4,0a0,0,0,0,1,0-.09l.33-.23-.11-.39a0,0,0,0,1,.08-.05l.32.24.33-.23a.06.06,0,0,1,.08.07l-.13.37.32.25a.05.05,0,0,1,0,.09h-.4Z"/><path class="cls-8" d="M41.45,10.94a2.47,2.47,0,0,1,2.09-.47.11.11,0,0,1,.09.13h0a.13.13,0,0,1-.14.09,2.48,2.48,0,0,0-2.61,1.2,1.39,1.39,0,0,1,.72-.35c1-.07,1.09.66,2,.9s1.3-.08,1.88-.67a.94.94,0,0,1,1.39,0,.06.06,0,0,0,.1-.07c-.82-2.78-5.26-3.66-6.3.15A3.24,3.24,0,0,1,41.45,10.94Zm2.36-.62a.06.06,0,0,1,.09-.06l.32.23.33-.22a.05.05,0,0,1,.08.06l-.13.38.32.24a0,0,0,0,1,0,.09h-.4l-.13.38a.05.05,0,0,1-.1,0L44,11h-.4a.05.05,0,0,1,0-.1l.32-.23Z"/><path class="cls-8" d="M39.78,11.2a2.51,2.51,0,0,1,.06-2.14A.13.13,0,0,1,40,9h0a.11.11,0,0,1,0,.15A2.48,2.48,0,0,0,40.56,12a1.47,1.47,0,0,1-.17-.79c.2-1,.92-.89,1.38-1.71a1.67,1.67,0,0,0-.18-2,1,1,0,0,1,.3-1.36.06.06,0,0,0,0-.11c-2.9.1-4.86,4.18-1.44,6.14A3.46,3.46,0,0,1,39.78,11.2Zm0-2.45c-.05,0-.08-.06,0-.09L40,8.4,39.9,8s0-.09.08-.07l.34.22.31-.25a.06.06,0,0,1,.09.06l-.11.39L41,8.6s0,.09,0,.09l-.4,0-.11.38a.05.05,0,0,1-.1,0l-.14-.38Z"/><path class="cls-8" d="M42,12.52a2.51,2.51,0,0,1,1.1,1.84.11.11,0,0,1-.1.12h0a.12.12,0,0,1-.13-.1,2.46,2.46,0,0,0-2-2.1,1.49,1.49,0,0,1,.57.57c.38,1-.29,1.24-.23,2.18s.49,1.21,1.23,1.58A1,1,0,0,1,43,17.92a.06.06,0,0,0,.09.07c2.38-1.66,1.82-6.15-2.11-5.94A3.32,3.32,0,0,1,42,12.52Zm1.33,2.05a.05.05,0,0,1,.08.06l-.12.38.32.24a.06.06,0,0,1,0,.1h-.4l-.13.38a.05.05,0,0,1-.1,0l-.13-.38h-.4a.06.06,0,0,1,0-.1l.33-.23-.12-.39s0-.08.08,0l.32.23Z"/><path class="cls-8" d="M40.73,13.65a2.53,2.53,0,0,1-1.41,1.61.11.11,0,0,1-.15-.06h0a.11.11,0,0,1,0-.15,2.49,2.49,0,0,0,1.41-2.51,1.39,1.39,0,0,1-.37.71c-.81.67-1.27.11-2.15.45s-1,.83-1.13,1.65a1,1,0,0,1-1.1.86.06.06,0,0,0,0,.11c2.31,1.76,6.41-.14,5-3.82A3.5,3.5,0,0,1,40.73,13.65Zm-1.55,1.89a.06.06,0,0,1,0,.1h-.4l-.13.37a.05.05,0,0,1-.1,0l-.12-.38H38s-.08-.06,0-.09l.32-.24-.12-.38a.06.06,0,0,1,.09-.06l.32.24.33-.23a.05.05,0,0,1,.08.06l-.13.38Z"/></g><g id="Container-2-5" data-name="Container-2" class="cls-5"><path d="M41.3,4h0a48.91,48.91,0,0,1,7.3.45,3.56,3.56,0,0,1,3.17,3.16,41.27,41.27,0,0,1,0,8.75,3.41,3.41,0,0,1-3.18,3.15,49.58,49.58,0,0,1-7.52.49,50.45,50.45,0,0,1-7.56-.49,3.63,3.63,0,0,1-3.19-3.23,29,29,0,0,1,0-8.58c.5-2.11,1.36-3,3.17-3.25A60.16,60.16,0,0,1,41.3,4m0-1a60.11,60.11,0,0,0-7.95.46c-2.49.36-3.49,1.84-4,4a30.11,30.11,0,0,0,0,9,4.63,4.63,0,0,0,4,4,52,52,0,0,0,7.72.5,51.42,51.42,0,0,0,7.69-.5,4.42,4.42,0,0,0,4-4,42.68,42.68,0,0,0,0-9,4.56,4.56,0,0,0-4-4A51.38,51.38,0,0,0,41.3,3Z"/></g></g><g id="_24_Hong_Kong_Normal" data-name="24_Hong Kong_Normal"><g class="cls-9"><rect class="cls-10" y="3.03" width="24" height="17.97"/><path class="cls-8" d="M10.22,12.75a2.56,2.56,0,0,1-2-.88.12.12,0,0,1,0-.17h0a.11.11,0,0,1,.16,0,2.48,2.48,0,0,0,2.81.6,1.51,1.51,0,0,1-.79-.14C9.58,11.6,10,11,9.39,10.25S8.3,9.54,7.48,9.66a1,1,0,0,1-1.14-.8.06.06,0,0,0-.12,0c-1,2.72,2,6.08,5.13,3.66A3.38,3.38,0,0,1,10.22,12.75ZM8,11.82a.05.05,0,0,1-.1,0l-.12-.38-.4,0a0,0,0,0,1,0-.09l.33-.23-.11-.39a0,0,0,0,1,.08-.05l.32.24.33-.23a.06.06,0,0,1,.08.07l-.13.37.32.25a.05.05,0,0,1,0,.09h-.4Z"/><path class="cls-8" d="M12.45,10.94a2.47,2.47,0,0,1,2.09-.47.11.11,0,0,1,.09.13h0a.13.13,0,0,1-.14.09,2.48,2.48,0,0,0-2.61,1.2,1.39,1.39,0,0,1,.72-.35c1-.07,1.09.66,2,.9s1.3-.08,1.88-.67a.94.94,0,0,1,1.39,0,.06.06,0,0,0,.1-.07c-.82-2.78-5.26-3.66-6.3.15A3.24,3.24,0,0,1,12.45,10.94Zm2.36-.62a.06.06,0,0,1,.09-.06l.32.23.33-.22a.05.05,0,0,1,.08.06l-.13.38.32.24a0,0,0,0,1,0,.09h-.4l-.13.38a.05.05,0,0,1-.1,0L15,11h-.4a.05.05,0,0,1,0-.1l.32-.23Z"/><path class="cls-8" d="M10.78,11.2a2.51,2.51,0,0,1,.06-2.14A.13.13,0,0,1,11,9h0a.11.11,0,0,1,.05.15A2.48,2.48,0,0,0,11.56,12a1.47,1.47,0,0,1-.17-.79c.2-1,.92-.89,1.38-1.71a1.67,1.67,0,0,0-.18-2,1,1,0,0,1,.3-1.36.06.06,0,0,0,0-.11c-2.9.1-4.86,4.18-1.44,6.14A3.46,3.46,0,0,1,10.78,11.2Zm0-2.45s-.08-.06,0-.09L11,8.4,10.9,8s0-.09.08-.07l.34.22.31-.25a.06.06,0,0,1,.09.06l-.11.39L12,8.6s0,.09,0,.09l-.4,0-.11.38a.05.05,0,0,1-.1,0l-.14-.38Z"/><path class="cls-8" d="M13,12.52a2.51,2.51,0,0,1,1.1,1.84.11.11,0,0,1-.1.12h0a.12.12,0,0,1-.13-.1,2.46,2.46,0,0,0-2-2.1,1.49,1.49,0,0,1,.57.57c.38,1-.29,1.24-.23,2.18s.49,1.21,1.23,1.58A1,1,0,0,1,14,17.92a.06.06,0,0,0,.09.07c2.38-1.66,1.82-6.15-2.11-5.94A3.32,3.32,0,0,1,13,12.52Zm1.33,2.05a.05.05,0,0,1,.08.06l-.12.38.32.24a.06.06,0,0,1,0,.1h-.4l-.13.38a.05.05,0,0,1-.1,0l-.13-.38h-.4a.06.06,0,0,1,0-.1l.33-.23-.12-.39s0-.08.08,0l.32.23Z"/><path class="cls-8" d="M11.73,13.65a2.53,2.53,0,0,1-1.41,1.61.11.11,0,0,1-.15-.06h0a.11.11,0,0,1,.05-.15,2.49,2.49,0,0,0,1.41-2.51,1.39,1.39,0,0,1-.37.71c-.81.67-1.27.11-2.15.45s-1,.83-1.13,1.65a1,1,0,0,1-1.1.86.06.06,0,0,0,0,.11c2.31,1.76,6.41-.14,5-3.82A3.5,3.5,0,0,1,11.73,13.65Zm-1.55,1.89a.06.06,0,0,1,0,.1h-.4L9.62,16a.05.05,0,0,1-.1,0l-.12-.38H9c-.05,0-.08-.06,0-.09l.32-.24-.12-.38a.06.06,0,0,1,.09-.06l.32.24.33-.23a.05.05,0,0,1,.08.06l-.13.38Z"/></g><g id="Container-2-6" data-name="Container-2" class="cls-5"><path d="M12.3,4h0a48.91,48.91,0,0,1,7.3.45,3.56,3.56,0,0,1,3.17,3.16,41.27,41.27,0,0,1,0,8.75,3.41,3.41,0,0,1-3.18,3.15,49.58,49.58,0,0,1-7.52.49,50.45,50.45,0,0,1-7.56-.49,3.63,3.63,0,0,1-3.19-3.23,29,29,0,0,1,0-8.58c.5-2.11,1.36-3,3.17-3.25A60.16,60.16,0,0,1,12.3,4m0-1a60.11,60.11,0,0,0-8,.46c-2.49.36-3.49,1.84-4,4a30.11,30.11,0,0,0,0,9,4.63,4.63,0,0,0,4,4,52,52,0,0,0,7.72.5,51.42,51.42,0,0,0,7.69-.5,4.42,4.42,0,0,0,4-4,42.68,42.68,0,0,0,0-9,4.56,4.56,0,0,0-4-4A51.38,51.38,0,0,0,12.3,3Z"/></g></g></svg>