<svg xmlns="http://www.w3.org/2000/svg" xmlns:xlink="http://www.w3.org/1999/xlink" width="82" height="24" viewBox="0 0 82 24"><defs><style>.cls-1{fill:none;}.cls-2{clip-path:url(#clip-path);}.cls-3{fill:#00cde2;}.cls-4{fill:#fcc529;}.cls-5{opacity:0.05;}.cls-6{clip-path:url(#clip-path-2);}.cls-7{fill:#ceeef2;}.cls-8{fill:#f2e9ce;}.cls-9{clip-path:url(#clip-path-3);}.cls-10{fill:#00afca;}.cls-11{fill:#fec50c;}</style><clipPath id="clip-path"><path id="Container-2" class="cls-1" d="M62.35,3.46a64.59,64.59,0,0,1,15.41,0,4.56,4.56,0,0,1,4,4,42.68,42.68,0,0,1,0,9,4.42,4.42,0,0,1-4,4,59.32,59.32,0,0,1-15.41,0,4.63,4.63,0,0,1-4-4,30.11,30.11,0,0,1,0-9C58.86,5.3,59.86,3.82,62.35,3.46Z"/></clipPath><clipPath id="clip-path-2"><path id="Container-2-2" data-name="Container-2" class="cls-1" d="M33.35,3.46a64.59,64.59,0,0,1,15.41,0,4.56,4.56,0,0,1,4,4,42.68,42.68,0,0,1,0,9,4.42,4.42,0,0,1-4,4,59.32,59.32,0,0,1-15.41,0,4.63,4.63,0,0,1-4-4,30.11,30.11,0,0,1,0-9C29.86,5.3,30.86,3.82,33.35,3.46Z"/></clipPath><clipPath id="clip-path-3"><path id="Container-2-3" data-name="Container-2" class="cls-1" d="M4.35,3.46a64.59,64.59,0,0,1,15.41,0,4.56,4.56,0,0,1,4,4,42.68,42.68,0,0,1,0,9,4.42,4.42,0,0,1-4,4,59.32,59.32,0,0,1-15.41,0,4.63,4.63,0,0,1-4-4,30.11,30.11,0,0,1,0-9C.86,5.3,1.86,3.82,4.35,3.46Z"/></clipPath></defs><g id="_24_Kazakhstan_Hoover" data-name="24_Kazakhstan_Hoover"><g class="cls-2"><rect class="cls-3" x="58" y="3" width="24" height="18"/><path class="cls-4" d="M61.28,5.76c0-.17-.05-.23,0-.3a.11.11,0,0,0,0-.13.09.09,0,0,0-.13,0,.43.43,0,0,0-.08.47.27.27,0,0,0-.3.07.28.28,0,0,0,0,.34.09.09,0,1,0,.16-.1c0-.07,0-.11,0-.13a.18.18,0,0,1,.11,0,.16.16,0,0,1,.1.16.27.27,0,0,1-.11.22.28.28,0,0,1-.25,0,.29.29,0,0,1-.19-.28.63.63,0,0,1,.06-.27s.14-.31.18-.41,0-.33-.05-.37a.23.23,0,0,0-.25,0l0,0,0,0a.21.21,0,0,0-.24,0s-.12.15,0,.37a3.35,3.35,0,0,0,.18.4.71.71,0,0,1,.06.28.29.29,0,0,1-.19.28.28.28,0,0,1-.25,0,.27.27,0,0,1-.11-.22A.16.16,0,0,1,60,6a.13.13,0,0,1,.1,0s0,.06,0,.13a.1.1,0,0,0,0,.13.11.11,0,0,0,.13,0,.29.29,0,0,0,0-.34.29.29,0,0,0-.31-.07c0-.17.08-.32-.07-.47a.11.11,0,0,0-.13,0,.09.09,0,0,0,0,.13c.07.07.06.13,0,.3a1.24,1.24,0,0,0-.06.37.43.43,0,0,0,.1.27h0a.1.1,0,0,0-.1.1.09.09,0,0,0,.1.09h0a.45.45,0,0,0-.1.27,1.19,1.19,0,0,0,.06.37c0,.17,0,.23,0,.3a.09.09,0,0,0,0,.13.09.09,0,0,0,.07,0l.06,0a.42.42,0,0,0,.07-.46.29.29,0,0,0,.31-.08s.09-.15,0-.34a.09.09,0,0,0-.13,0,.08.08,0,0,0,0,.12c.05.07.05.11,0,.13s0,0-.1,0a.16.16,0,0,1-.1-.16A.28.28,0,0,1,60,6.64a.28.28,0,0,1,.25,0,.3.3,0,0,1,.19.28.67.67,0,0,1-.06.28l-.6,1.35a.85.85,0,0,0-.08.35.48.48,0,0,0,.19.39.47.47,0,0,0-.19.38.9.9,0,0,0,.08.36l.6,1.35a.63.63,0,0,1,.06.27.28.28,0,0,1-.19.28.25.25,0,0,1-.25,0,.27.27,0,0,1-.11-.22.14.14,0,0,1,.1-.15c.05,0,.09,0,.1,0s0,.06,0,.12a.1.1,0,0,0,0,.13.09.09,0,0,0,.13,0,.29.29,0,0,0,0-.34.29.29,0,0,0-.31-.07.43.43,0,0,0-.07-.47.11.11,0,0,0-.13,0,.09.09,0,0,0,0,.13c.07.08.06.14,0,.3a1.24,1.24,0,0,0-.06.37.48.48,0,0,0,.1.28h0a.09.09,0,1,0,0,.18h0a.48.48,0,0,0-.1.28,1.24,1.24,0,0,0,.06.37c0,.16,0,.22,0,.3a.09.09,0,0,0,0,.13l.07,0,.06,0a.43.43,0,0,0,.07-.47.29.29,0,0,0,.31-.07.29.29,0,0,0,0-.34.09.09,0,0,0-.13,0,.1.1,0,0,0,0,.13c.05.06.05.11,0,.12s0,0-.1,0a.14.14,0,0,1-.1-.15.27.27,0,0,1,.11-.22.25.25,0,0,1,.25,0,.28.28,0,0,1,.19.28.63.63,0,0,1-.06.27L59.76,14a.9.9,0,0,0-.08.36.47.47,0,0,0,.19.38.48.48,0,0,0-.19.39.85.85,0,0,0,.08.35l.6,1.35a.67.67,0,0,1,.06.28.3.3,0,0,1-.19.28.28.28,0,0,1-.25,0,.28.28,0,0,1-.11-.22A.16.16,0,0,1,60,17c.05,0,.09,0,.1,0s0,.06,0,.13a.08.08,0,0,0,0,.12.09.09,0,0,0,.13,0c.11-.19,0-.3,0-.34a.29.29,0,0,0-.31-.08.42.42,0,0,0-.07-.46.09.09,0,0,0-.13.13c.07.07.06.13,0,.3a1.19,1.19,0,0,0-.06.37.44.44,0,0,0,.19.36.47.47,0,0,0-.19.37,1.24,1.24,0,0,0,.06.37c0,.17,0,.23,0,.3a.09.09,0,0,0,0,.13.09.09,0,0,0,.07,0l.06,0c.15-.15.11-.3.07-.47a.29.29,0,0,0,.31-.07.29.29,0,0,0,0-.34.11.11,0,0,0-.13,0,.1.1,0,0,0,0,.13c.05.07.05.11,0,.13a.13.13,0,0,1-.1,0,.16.16,0,0,1-.1-.16.27.27,0,0,1,.11-.22.28.28,0,0,1,.25,0,.29.29,0,0,1,.19.28.63.63,0,0,1-.06.27s-.15.31-.18.41,0,.33,0,.37a.22.22,0,0,0,.15.06l.09,0,0,0,0,0,.1,0a.22.22,0,0,0,.15-.06c.05,0,.12-.15.05-.37s-.18-.39-.18-.4a.71.71,0,0,1-.06-.28.29.29,0,0,1,.19-.28.28.28,0,0,1,.25,0,.27.27,0,0,1,.11.22.16.16,0,0,1-.1.16.18.18,0,0,1-.11,0s0-.06,0-.13a.09.09,0,1,0-.16-.1.28.28,0,0,0,0,.34.27.27,0,0,0,.3.07.43.43,0,0,0,.08.47.09.09,0,0,0,.06,0,.09.09,0,0,0,.07,0,.11.11,0,0,0,0-.13c-.08-.07-.07-.13,0-.3a1.27,1.27,0,0,0,0-.37.46.46,0,0,0-.18-.37.43.43,0,0,0,.18-.36,1.22,1.22,0,0,0,0-.37c0-.17-.05-.23,0-.3a.1.1,0,0,0,0-.13.09.09,0,0,0-.13,0,.42.42,0,0,0-.08.46.27.27,0,0,0-.3.08s-.1.15,0,.34a.09.09,0,0,0,.13,0,.09.09,0,0,0,0-.12c0-.07,0-.11,0-.13a.1.1,0,0,1,.11,0,.16.16,0,0,1,.1.16.28.28,0,0,1-.11.22.28.28,0,0,1-.25,0,.3.3,0,0,1-.19-.28.67.67,0,0,1,.06-.28l.6-1.35a.84.84,0,0,0,.07-.35.5.5,0,0,0-.18-.39.49.49,0,0,0,.18-.38.89.89,0,0,0-.07-.36l-.6-1.35a.63.63,0,0,1-.06-.27.28.28,0,0,1,.19-.28.25.25,0,0,1,.25,0,.27.27,0,0,1,.11.22.14.14,0,0,1-.1.15.1.1,0,0,1-.11,0s0-.06,0-.12a.11.11,0,0,0,0-.13.09.09,0,0,0-.13,0,.28.28,0,0,0,0,.34.27.27,0,0,0,.3.07.44.44,0,0,0,.08.47l.06,0,.07,0a.1.1,0,0,0,0-.13c-.08-.08-.07-.14,0-.3a1.27,1.27,0,0,0,0-.37.47.47,0,0,0-.09-.28h0a.09.09,0,1,0,0-.18h0a.47.47,0,0,0,.09-.28,1.27,1.27,0,0,0,0-.37c0-.16-.05-.22,0-.3a.09.09,0,1,0-.13-.13.44.44,0,0,0-.08.47.27.27,0,0,0-.3.07.28.28,0,0,0,0,.34.09.09,0,0,0,.13,0,.11.11,0,0,0,0-.13c0-.06,0-.11,0-.12a.1.1,0,0,1,.11,0,.14.14,0,0,1,.1.15.27.27,0,0,1-.11.22.25.25,0,0,1-.25,0,.28.28,0,0,1-.19-.28.63.63,0,0,1,.06-.27l.6-1.35a.87.87,0,0,0,.07-.35.5.5,0,0,0-.18-.39.5.5,0,0,0,.18-.39.84.84,0,0,0-.07-.35l-.6-1.35a.67.67,0,0,1-.06-.28.3.3,0,0,1,.19-.28.28.28,0,0,1,.25,0,.28.28,0,0,1,.11.22.16.16,0,0,1-.1.16.1.1,0,0,1-.11,0s0-.06,0-.13a.09.09,0,0,0,0-.12.09.09,0,0,0-.13,0c-.12.19,0,.3,0,.34a.27.27,0,0,0,.3.08.42.42,0,0,0,.08.46.09.09,0,0,0,.06,0,.09.09,0,0,0,.07,0,.1.1,0,0,0,0-.13c-.08-.07-.07-.13,0-.3a1.22,1.22,0,0,0,0-.37.44.44,0,0,0-.09-.27h0a.09.09,0,0,0,.09-.09.1.1,0,0,0-.09-.1h0a.42.42,0,0,0,.09-.27A1.27,1.27,0,0,0,61.28,5.76Zm-.93-.39c0-.1,0-.16,0-.18a0,0,0,0,1,0,0,0,0,0,0,1,0,0,.09.09,0,1,0,.18,0,0,0,0,0,1,0,0,0,0,0,0,1,.05,0s0,.08,0,.18l-.16.35C60.46,5.63,60.38,5.44,60.35,5.37Zm.16,3.78.09.1-.09.09-.09-.09Zm0,5.51.09.09-.09.1-.09-.1Zm.16,4c0,.1,0,.16,0,.18a0,0,0,0,1-.05,0,0,0,0,0,1,0,0,.09.09,0,1,0-.18,0,0,0,0,0,1,0,0,0,0,0,0,1,0,0s0-.08,0-.18l.16-.35C60.56,18.37,60.64,18.56,60.67,18.63ZM60.6,17.5a.43.43,0,0,0-.09.1l-.09-.1a.76.76,0,0,0,.09-.09A.38.38,0,0,0,60.6,17.5Zm.49-2.09-.58,1.32-.58-1.32a.63.63,0,0,1-.06-.27.28.28,0,0,1,.18-.28.27.27,0,0,1,.26,0,.27.27,0,0,1,.11.22.16.16,0,0,1-.1.16s-.1,0-.11,0,0,0,0-.12a.09.09,0,0,0,0-.13.08.08,0,0,0-.12,0c-.12.18-.06.3,0,.34a.28.28,0,0,0,.31.07l0,0v.23h0a.11.11,0,0,0-.09-.08.09.09,0,0,0-.1.09.22.22,0,0,0,.19.19V16a.09.09,0,1,0,.18,0v-.18a.2.2,0,0,0,.18-.19.1.1,0,0,0-.09-.1.09.09,0,0,0-.09.09h0v-.23l0,0a.28.28,0,0,0,.31-.07.28.28,0,0,0,0-.34.1.1,0,0,0-.13,0,.09.09,0,0,0,0,.13c0,.07,0,.11,0,.12a.12.12,0,0,1-.11,0,.16.16,0,0,1-.1-.16.27.27,0,0,1,.11-.22.25.25,0,0,1,.25,0,.29.29,0,0,1,.19.28A.63.63,0,0,1,61.09,15.41Zm0-1.32a.67.67,0,0,1,.06.28.3.3,0,0,1-.19.28.32.32,0,0,1-.25,0,.3.3,0,0,1-.11-.23.14.14,0,0,1,.1-.15.1.1,0,0,1,.11,0s0,.06,0,.13a.08.08,0,0,0,0,.12.09.09,0,0,0,.13,0,.26.26,0,0,0,0-.33.27.27,0,0,0-.31-.08l0,0v-.23h0a.09.09,0,0,0,.09.09.09.09,0,0,0,.09-.1.2.2,0,0,0-.18-.19v-.17a.09.09,0,1,0-.18,0v.17a.22.22,0,0,0-.19.19.09.09,0,0,0,.1.1.09.09,0,0,0,.09-.09h0v.23l0,0a.28.28,0,0,0-.31.07c0,.05-.1.16,0,.34a.09.09,0,1,0,.15-.09c0-.07,0-.12,0-.13s.06,0,.11,0a.14.14,0,0,1,.1.15.3.3,0,0,1-.11.23.34.34,0,0,1-.26,0,.29.29,0,0,1-.18-.28.67.67,0,0,1,.06-.28l.58-1.31ZM60.6,12a.43.43,0,0,0-.09.1l-.09-.1.09-.1A.43.43,0,0,0,60.6,12Zm.49-2.09-.58,1.31-.58-1.31a.67.67,0,0,1-.06-.28.29.29,0,0,1,.18-.28.34.34,0,0,1,.26,0,.3.3,0,0,1,.11.23.14.14,0,0,1-.1.15s-.1,0-.11,0,0-.06,0-.13a.09.09,0,0,0-.15-.09c-.12.18-.06.29,0,.33a.27.27,0,0,0,.31.08l0,0v.23h0a.11.11,0,0,0-.09-.09.09.09,0,0,0-.1.1.22.22,0,0,0,.19.19v.17a.09.09,0,1,0,.18,0v-.17a.2.2,0,0,0,.18-.19.09.09,0,0,0-.09-.1.09.09,0,0,0-.09.09h0V9.93l0,0A.27.27,0,0,0,61,9.87a.26.26,0,0,0,0-.33.09.09,0,0,0-.13,0,.08.08,0,0,0,0,.12c0,.07,0,.12,0,.13a.1.1,0,0,1-.11,0,.14.14,0,0,1-.1-.15.3.3,0,0,1,.11-.23.32.32,0,0,1,.25,0,.3.3,0,0,1,.19.28A.67.67,0,0,1,61.09,9.91Zm0-1.32a.63.63,0,0,1,.06.27.29.29,0,0,1-.19.28.25.25,0,0,1-.25,0,.27.27,0,0,1-.11-.22.16.16,0,0,1,.1-.16.12.12,0,0,1,.11,0s0,0,0,.12a.09.09,0,0,0,0,.13.1.1,0,0,0,.13,0,.28.28,0,0,0,0-.34.28.28,0,0,0-.31-.07l0,0V8.34h0a.09.09,0,0,0,.09.08.09.09,0,0,0,.09-.09.2.2,0,0,0-.18-.19V8a.09.09,0,1,0-.18,0v.18a.22.22,0,0,0-.19.19.1.1,0,0,0,.1.1.09.09,0,0,0,.09-.09h0v.23l0,0a.28.28,0,0,0-.31.07s-.1.16,0,.34a.08.08,0,0,0,.12,0,.09.09,0,0,0,0-.13c0-.07,0-.11,0-.12s.06,0,.11,0a.16.16,0,0,1,.1.16.27.27,0,0,1-.11.22.27.27,0,0,1-.26,0,.28.28,0,0,1-.18-.28.63.63,0,0,1,.06-.27l.58-1.32ZM60.42,6.5l.09-.1a.43.43,0,0,0,.09.1.38.38,0,0,0-.09.09A.76.76,0,0,0,60.42,6.5Z"/><circle class="cls-4" cx="71.51" cy="10.92" r="2.21"/><path class="cls-4" d="M71.67,8.1a.17.17,0,0,1-.16.17.18.18,0,0,1-.17-.17,3,3,0,0,1,.17-.49A3.13,3.13,0,0,1,71.67,8.1Z"/><path class="cls-4" d="M71.34,13.73a.17.17,0,0,1,.17-.16.16.16,0,0,1,.16.16,3.3,3.3,0,0,1-.16.5A3.17,3.17,0,0,1,71.34,13.73Z"/><path class="cls-4" d="M74.32,11.08a.16.16,0,0,1-.16-.16.17.17,0,0,1,.16-.17,3.17,3.17,0,0,1,.5.17A3.3,3.3,0,0,1,74.32,11.08Z"/><path class="cls-4" d="M68.69,10.75a.18.18,0,0,1,.17.17.17.17,0,0,1-.17.16,3.13,3.13,0,0,1-.49-.16A3,3,0,0,1,68.69,10.75Z"/><path class="cls-4" d="M73.62,9a.16.16,0,0,1-.24,0,.17.17,0,0,1,0-.23,3.89,3.89,0,0,1,.47-.23A3.25,3.25,0,0,1,73.62,9Z"/><path class="cls-4" d="M69.4,12.79a.17.17,0,0,1,.23,0,.16.16,0,0,1,0,.24,3.25,3.25,0,0,1-.46.23A3.89,3.89,0,0,1,69.4,12.79Z"/><path class="cls-4" d="M73.38,13a.17.17,0,0,1,.24-.24,3.89,3.89,0,0,1,.23.47A3.89,3.89,0,0,1,73.38,13Z"/><path class="cls-4" d="M69.63,8.81A.16.16,0,1,1,69.4,9a3.25,3.25,0,0,1-.23-.46A3.25,3.25,0,0,1,69.63,8.81Z"/><path class="cls-4" d="M70.58,8.25a.16.16,0,0,1-.09.22.17.17,0,0,1-.21-.09,2.66,2.66,0,0,1,0-.52A2.94,2.94,0,0,1,70.58,8.25Z"/><path class="cls-4" d="M72.43,13.58a.17.17,0,0,1,.09-.21.16.16,0,0,1,.22.09,3.76,3.76,0,0,1,0,.52A3.18,3.18,0,0,1,72.43,13.58Z"/><path class="cls-4" d="M74.17,10a.16.16,0,1,1-.12-.3,2.66,2.66,0,0,1,.52,0A2.56,2.56,0,0,1,74.17,10Z"/><path class="cls-4" d="M68.84,11.84a.17.17,0,1,1,.13.31,3.76,3.76,0,0,1-.52,0A3.81,3.81,0,0,1,68.84,11.84Z"/><path class="cls-4" d="M72.74,8.38a.18.18,0,0,1-.22.09.17.17,0,0,1-.09-.22,3.81,3.81,0,0,1,.35-.39A3.76,3.76,0,0,1,72.74,8.38Z"/><path class="cls-4" d="M70.28,13.46a.16.16,0,0,1,.3.12,2.56,2.56,0,0,1-.34.4A2.66,2.66,0,0,1,70.28,13.46Z"/><path class="cls-4" d="M74.05,12.15a.16.16,0,0,1-.09-.22.17.17,0,0,1,.21-.09,3.18,3.18,0,0,1,.4.35A3.76,3.76,0,0,1,74.05,12.15Z"/><path class="cls-4" d="M69,9.69a.17.17,0,0,1,.09.21.16.16,0,0,1-.22.09,2.94,2.94,0,0,1-.39-.34A2.66,2.66,0,0,1,69,9.69Z"/><path class="cls-4" d="M71.12,8.12a.17.17,0,0,1-.13.2.16.16,0,0,1-.19-.13,3,3,0,0,1,.06-.52A3.2,3.2,0,0,1,71.12,8.12Z"/><path class="cls-4" d="M71.89,13.71a.16.16,0,0,1,.13-.19.17.17,0,0,1,.2.13,2.85,2.85,0,0,1-.07.52A3.41,3.41,0,0,1,71.89,13.71Z"/><path class="cls-4" d="M74.3,10.53a.16.16,0,0,1-.06-.32,3,3,0,0,1,.52.06A3.41,3.41,0,0,1,74.3,10.53Z"/><path class="cls-4" d="M68.71,11.3a.18.18,0,0,1,.2.13.17.17,0,0,1-.13.2,2.85,2.85,0,0,1-.52-.07A3.2,3.2,0,0,1,68.71,11.3Z"/><path class="cls-4" d="M73.21,8.67a.17.17,0,0,1-.28-.18,2.93,2.93,0,0,1,.42-.33A3.4,3.4,0,0,1,73.21,8.67Z"/><path class="cls-4" d="M69.81,13.17a.16.16,0,0,1,.23-.05.17.17,0,0,1,0,.23,2.75,2.75,0,0,1-.41.32A3,3,0,0,1,69.81,13.17Z"/><path class="cls-4" d="M73.76,12.62a.17.17,0,1,1,.18-.28,2.75,2.75,0,0,1,.32.42A3,3,0,0,1,73.76,12.62Z"/><path class="cls-4" d="M69.26,9.22a.15.15,0,0,1,0,.23.16.16,0,0,1-.22,0,2.94,2.94,0,0,1-.33-.41A3.4,3.4,0,0,1,69.26,9.22Z"/><path class="cls-4" d="M70.08,8.49a.16.16,0,0,1,0,.22.15.15,0,0,1-.23,0,3.4,3.4,0,0,1-.14-.51A2.94,2.94,0,0,1,70.08,8.49Z"/><path class="cls-4" d="M72.93,13.35a.17.17,0,1,1,.28-.18,3,3,0,0,1,.14.5A2.75,2.75,0,0,1,72.93,13.35Z"/><path class="cls-4" d="M73.94,9.49a.17.17,0,0,1-.23,0,.16.16,0,0,1,.05-.23,3,3,0,0,1,.5-.14A2.75,2.75,0,0,1,73.94,9.49Z"/><path class="cls-4" d="M69.08,12.34a.17.17,0,0,1,.18.28,3.4,3.4,0,0,1-.51.14A2.93,2.93,0,0,1,69.08,12.34Z"/><path class="cls-4" d="M72.22,8.19a.17.17,0,0,1-.2.13.18.18,0,0,1-.13-.2,3.2,3.2,0,0,1,.26-.45A2.85,2.85,0,0,1,72.22,8.19Z"/><path class="cls-4" d="M70.8,13.65a.16.16,0,0,1,.32.06,3.41,3.41,0,0,1-.26.46A3,3,0,0,1,70.8,13.65Z"/><path class="cls-4" d="M74.24,11.63a.17.17,0,0,1-.13-.2.16.16,0,0,1,.19-.13,3.41,3.41,0,0,1,.46.26A2.85,2.85,0,0,1,74.24,11.63Z"/><path class="cls-4" d="M68.78,10.21a.16.16,0,0,1,.13.19.17.17,0,0,1-.2.13,3.2,3.2,0,0,1-.45-.26A3,3,0,0,1,68.78,10.21Z"/><path class="cls-4" d="M76.7,11.5a.11.11,0,0,0-.16.07h0a7.08,7.08,0,0,1-.5.86c.19-.6.36-1.24.37-1.28a.13.13,0,0,0-.09-.16.12.12,0,0,0-.15.09,8.85,8.85,0,0,1-.43,1.07c0-.39,0-.75,0-.77a.13.13,0,0,0-.13-.13.14.14,0,0,0-.13.12A4.26,4.26,0,0,1,73,14.7a4.56,4.56,0,0,0-1.08.23l-.15.05h0a3.5,3.5,0,0,1-3.36-1.72,6,6,0,0,1-.81-1.95.14.14,0,0,0-.15-.1.13.13,0,0,0-.1.15,6.52,6.52,0,0,0,.32,1A5.44,5.44,0,0,1,67,11v0h0l0,0h-.15l0,0V11h0a5.6,5.6,0,0,0,.44,1.31,3.58,3.58,0,0,1-.57-.86v0s0,0,0,0v0h-.15l0,0a0,0,0,0,0,0,0s0,0,0,0v.07s0,0,0,0a5.28,5.28,0,0,0,.73,1.34,2.55,2.55,0,0,1-.43-.4h0a.12.12,0,0,0-.18,0,.12.12,0,0,0,0,.17l0,0a6.91,6.91,0,0,0,.59.61l-.26-.11a.13.13,0,0,0-.16.06.12.12,0,0,0,0,.16,7.09,7.09,0,0,0,.88.56h-.13a.13.13,0,0,0-.14.09.13.13,0,0,0,.08.15l.28.11a.11.11,0,0,0-.08.08.13.13,0,0,0,.06.14,3,3,0,0,0,.41.2v0a.13.13,0,0,0,.05.15,3.83,3.83,0,0,0,1.9.61h.2a.14.14,0,0,0,.12-.14.12.12,0,0,0-.14-.11,3.18,3.18,0,0,1-1.6-.37l.08,0a.14.14,0,0,0,.08-.15.13.13,0,0,0-.12-.1,1.48,1.48,0,0,1-.53-.15.38.38,0,0,0,.11-.07.12.12,0,0,0,0-.13.12.12,0,0,0-.1-.09l-.19,0a.27.27,0,0,0,.11-.1.14.14,0,0,0,0-.11.13.13,0,0,0-.09-.07l-.11,0,0,0a.14.14,0,0,0,0-.17l-.25-.2.06,0a.12.12,0,0,0,0-.15l-.23-.32.13.1.07,0,.09,0s0,0,0,0a1.6,1.6,0,0,0,.24.22l0,0,.11.18a3.8,3.8,0,0,0,3.16,1.85,2.78,2.78,0,0,1-.46.23l-.12,0-.06,0a1.19,1.19,0,0,0-.57.45.24.24,0,0,0,.07.29.11.11,0,0,0,.08,0h.06a.15.15,0,0,0,.07-.12s0,0,.1,0l.28,0,.41,0-.21.23a.12.12,0,0,0,0,.14.11.11,0,0,0,.11.07h.22a.16.16,0,0,0,.11.07.28.28,0,0,0,.24-.05.33.33,0,0,0,.14.06.41.41,0,0,0,.23-.05.3.3,0,0,0,.17.05h0a.4.4,0,0,0,.25-.09.27.27,0,0,0,.14,0,.36.36,0,0,0,.22-.06.49.49,0,0,0,.43-.14.22.22,0,0,0,.13,0,.27.27,0,0,0,.2-.11.44.44,0,0,0,.43-.11A.23.23,0,0,0,74,16.1c.56,0,.61-.31.62-.35a.14.14,0,0,0,0-.09.12.12,0,0,0-.09-.05l-1.47-.09a.13.13,0,0,0-.13.1.49.49,0,0,1-.11.17.84.84,0,0,1-.46.18.11.11,0,0,0,0-.05.12.12,0,0,0-.16-.07,3,3,0,0,1-1.18.07l.19-.12a.13.13,0,0,0,.06-.14.11.11,0,0,0-.07-.08,2.32,2.32,0,0,0,.28-.16,2.37,2.37,0,0,1,.53-.26A5.18,5.18,0,0,1,73,15h0a5,5,0,0,0,2.32-2.18l0,.12a.13.13,0,0,0,.07.16.12.12,0,0,0,.14,0,1.52,1.52,0,0,1-.13.28.13.13,0,0,0,0,.17l0,0a2,2,0,0,1-.17.23.14.14,0,0,0,0,.17,2.58,2.58,0,0,1-.25.24.14.14,0,0,0,0,.15l-.15.07a.13.13,0,0,0-.09.14s0,.07,0,.08l-.25.06a.11.11,0,0,0-.1.11.12.12,0,0,0,.06.13l.11.05a5,5,0,0,1-1.4.3.13.13,0,1,0,0,.25,3.47,3.47,0,0,0,1.8-.49.12.12,0,0,0,0-.13.14.14,0,0,0-.07-.08,2.17,2.17,0,0,0,.64-.29.13.13,0,0,0,0-.17.12.12,0,0,0-.15-.05l-.08,0c.3-.2.61-.44.74-.54l.07-.06a.12.12,0,0,0-.16-.19l-.06,0-.23.15c.33-.38.66-.78.76-.9l0,0a.12.12,0,0,0,0-.18.12.12,0,0,0-.18,0h0l0,0c-.1.12-.2.24-.31.35.34-.62.6-1.22.64-1.31h0A.12.12,0,0,0,76.7,11.5Zm-5.93,4.27h0a.57.57,0,0,0-.1.13h-.16A1.2,1.2,0,0,1,70.77,15.77Z"/></g><g id="Container-2-4" data-name="Container-2" class="cls-5"><path d="M70.3,4h0a48.91,48.91,0,0,1,7.3.45,3.56,3.56,0,0,1,3.17,3.16,41.27,41.27,0,0,1,0,8.75,3.41,3.41,0,0,1-3.18,3.15,49.58,49.58,0,0,1-7.52.49,50.45,50.45,0,0,1-7.56-.49,3.63,3.63,0,0,1-3.19-3.23,29,29,0,0,1,0-8.58c.5-2.11,1.36-3,3.17-3.25A60.16,60.16,0,0,1,70.3,4m0-1a60.11,60.11,0,0,0-7.95.46c-2.49.36-3.49,1.84-4,4a30.11,30.11,0,0,0,0,9,4.63,4.63,0,0,0,4,4,52,52,0,0,0,7.72.5,51.42,51.42,0,0,0,7.69-.5,4.42,4.42,0,0,0,4-4,42.68,42.68,0,0,0,0-9,4.56,4.56,0,0,0-4-4A51.38,51.38,0,0,0,70.3,3Z"/></g></g><g id="_24_Kazakhstan_Disabled" data-name="24_Kazakhstan_Disabled"><g class="cls-6"><rect class="cls-7" x="29" y="3" width="24" height="18"/><path class="cls-8" d="M32.28,5.76c0-.17-.05-.23,0-.3a.11.11,0,0,0,0-.13.09.09,0,0,0-.13,0,.43.43,0,0,0-.08.47.27.27,0,0,0-.3.07.28.28,0,0,0,0,.34.09.09,0,1,0,.16-.1c-.05-.07-.05-.11,0-.13a.18.18,0,0,1,.11,0,.16.16,0,0,1,.1.16.27.27,0,0,1-.11.22.28.28,0,0,1-.25,0,.29.29,0,0,1-.19-.28.63.63,0,0,1,.06-.27s.14-.31.18-.41,0-.33-.05-.37a.23.23,0,0,0-.25,0l0,0,0,0a.21.21,0,0,0-.24,0c-.05,0-.12.15-.05.37a3.35,3.35,0,0,0,.18.4.71.71,0,0,1,.06.28.29.29,0,0,1-.19.28.28.28,0,0,1-.25,0,.27.27,0,0,1-.11-.22A.16.16,0,0,1,31,6a.13.13,0,0,1,.1,0s0,.06,0,.13a.1.1,0,0,0,0,.13.11.11,0,0,0,.13,0,.29.29,0,0,0,0-.34.29.29,0,0,0-.31-.07c0-.17.08-.32-.07-.47a.11.11,0,0,0-.13,0,.09.09,0,0,0,0,.13c.07.07.06.13,0,.3a1.24,1.24,0,0,0-.06.37.43.43,0,0,0,.1.27h0a.1.1,0,0,0-.1.1.09.09,0,0,0,.1.09h0a.45.45,0,0,0-.1.27,1.19,1.19,0,0,0,.06.37c0,.17,0,.23,0,.3a.09.09,0,0,0,0,.13.09.09,0,0,0,.07,0l.06,0a.42.42,0,0,0,.07-.46.29.29,0,0,0,.31-.08s.09-.15,0-.34a.09.09,0,0,0-.13,0,.08.08,0,0,0,0,.12c.05.07.05.11,0,.13S31,7,31,7a.16.16,0,0,1-.1-.16A.28.28,0,0,1,31,6.64a.28.28,0,0,1,.25,0,.3.3,0,0,1,.19.28.67.67,0,0,1-.06.28l-.6,1.35a.85.85,0,0,0-.08.35.48.48,0,0,0,.19.39.47.47,0,0,0-.19.38.9.9,0,0,0,.08.36l.6,1.35a.63.63,0,0,1,.06.27.28.28,0,0,1-.19.28.25.25,0,0,1-.25,0,.27.27,0,0,1-.11-.22.14.14,0,0,1,.1-.15c.05,0,.09,0,.1,0s0,.06,0,.12a.1.1,0,0,0,0,.13.09.09,0,0,0,.13,0,.29.29,0,0,0,0-.34.29.29,0,0,0-.31-.07.43.43,0,0,0-.07-.47.11.11,0,0,0-.13,0,.09.09,0,0,0,0,.13c.07.08.06.14,0,.3a1.24,1.24,0,0,0-.06.37.48.48,0,0,0,.1.28h0a.09.09,0,1,0,0,.18h0a.48.48,0,0,0-.1.28,1.24,1.24,0,0,0,.06.37c0,.16,0,.22,0,.3a.09.09,0,0,0,0,.13l.07,0,.06,0a.43.43,0,0,0,.07-.47.29.29,0,0,0,.31-.07.29.29,0,0,0,0-.34.09.09,0,0,0-.13,0,.1.1,0,0,0,0,.13c.05.06.05.11,0,.12s-.05,0-.1,0a.14.14,0,0,1-.1-.15.27.27,0,0,1,.11-.22.25.25,0,0,1,.25,0,.28.28,0,0,1,.19.28.63.63,0,0,1-.06.27L30.76,14a.9.9,0,0,0-.08.36.47.47,0,0,0,.19.38.48.48,0,0,0-.19.39.85.85,0,0,0,.08.35l.6,1.35a.67.67,0,0,1,.06.28.3.3,0,0,1-.19.28.28.28,0,0,1-.25,0,.28.28,0,0,1-.11-.22A.16.16,0,0,1,31,17c.05,0,.09,0,.1,0s0,.06,0,.13a.08.08,0,0,0,0,.12.09.09,0,0,0,.13,0c.11-.19.05-.3,0-.34a.29.29,0,0,0-.31-.08.42.42,0,0,0-.07-.46.09.09,0,0,0-.13.13c.07.07.06.13,0,.3a1.19,1.19,0,0,0-.06.37.44.44,0,0,0,.19.36.47.47,0,0,0-.19.37,1.24,1.24,0,0,0,.06.37c0,.17,0,.23,0,.3a.09.09,0,0,0,0,.13.09.09,0,0,0,.07,0,.09.09,0,0,0,.06,0c.15-.15.11-.3.07-.47a.29.29,0,0,0,.31-.07.29.29,0,0,0,0-.34.11.11,0,0,0-.13,0,.1.1,0,0,0,0,.13c.05.07.05.11,0,.13a.13.13,0,0,1-.1,0,.16.16,0,0,1-.1-.16.27.27,0,0,1,.11-.22.28.28,0,0,1,.25,0,.29.29,0,0,1,.19.28.63.63,0,0,1-.06.27s-.15.31-.18.41,0,.33.05.37a.22.22,0,0,0,.15.06l.09,0,0,0,0,0,.1,0a.22.22,0,0,0,.15-.06c.05,0,.12-.15.05-.37s-.18-.39-.18-.4a.71.71,0,0,1-.06-.28.29.29,0,0,1,.19-.28.28.28,0,0,1,.25,0,.27.27,0,0,1,.11.22.16.16,0,0,1-.1.16.18.18,0,0,1-.11,0s0-.06,0-.13a.09.09,0,0,0-.16-.1.28.28,0,0,0,0,.34.27.27,0,0,0,.3.07.43.43,0,0,0,.08.47.09.09,0,0,0,.06,0,.09.09,0,0,0,.07,0,.11.11,0,0,0,0-.13c-.08-.07-.07-.13,0-.3a1.27,1.27,0,0,0,0-.37.46.46,0,0,0-.18-.37.43.43,0,0,0,.18-.36,1.22,1.22,0,0,0,0-.37c0-.17-.05-.23,0-.3a.1.1,0,0,0,0-.13.09.09,0,0,0-.13,0,.42.42,0,0,0-.08.46.27.27,0,0,0-.3.08s-.1.15,0,.34a.09.09,0,0,0,.13,0,.09.09,0,0,0,0-.12c-.05-.07-.05-.11,0-.13a.1.1,0,0,1,.11,0,.16.16,0,0,1,.1.16.28.28,0,0,1-.11.22.28.28,0,0,1-.25,0,.3.3,0,0,1-.19-.28.67.67,0,0,1,.06-.28l.6-1.35a.84.84,0,0,0,.07-.35.5.5,0,0,0-.18-.39.49.49,0,0,0,.18-.38.89.89,0,0,0-.07-.36l-.6-1.35a.63.63,0,0,1-.06-.27.28.28,0,0,1,.19-.28.25.25,0,0,1,.25,0,.27.27,0,0,1,.11.22.14.14,0,0,1-.1.15.1.1,0,0,1-.11,0s0-.06,0-.12a.11.11,0,0,0,0-.13.09.09,0,0,0-.13,0,.28.28,0,0,0,0,.34.27.27,0,0,0,.3.07.44.44,0,0,0,.08.47l.06,0,.07,0a.1.1,0,0,0,0-.13c-.08-.08-.07-.14,0-.3a1.27,1.27,0,0,0,0-.37.47.47,0,0,0-.09-.28h0a.09.09,0,1,0,0-.18h0a.47.47,0,0,0,.09-.28,1.27,1.27,0,0,0,0-.37c0-.16-.05-.22,0-.3a.09.09,0,1,0-.13-.13.44.44,0,0,0-.08.47.27.27,0,0,0-.3.07.28.28,0,0,0,0,.34.09.09,0,0,0,.13,0,.11.11,0,0,0,0-.13c-.05-.06-.05-.11,0-.12a.1.1,0,0,1,.11,0,.14.14,0,0,1,.1.15.27.27,0,0,1-.11.22.25.25,0,0,1-.25,0,.28.28,0,0,1-.19-.28.63.63,0,0,1,.06-.27l.6-1.35a.87.87,0,0,0,.07-.35.5.5,0,0,0-.18-.39.5.5,0,0,0,.18-.39.84.84,0,0,0-.07-.35l-.6-1.35a.67.67,0,0,1-.06-.28.3.3,0,0,1,.19-.28.28.28,0,0,1,.25,0,.28.28,0,0,1,.11.22.16.16,0,0,1-.1.16.1.1,0,0,1-.11,0s0-.06,0-.13a.09.09,0,0,0,0-.12.09.09,0,0,0-.13,0c-.12.19-.05.3,0,.34a.27.27,0,0,0,.3.08.42.42,0,0,0,.08.46.09.09,0,0,0,.06,0,.09.09,0,0,0,.07,0,.1.1,0,0,0,0-.13c-.08-.07-.07-.13,0-.3a1.22,1.22,0,0,0,0-.37.44.44,0,0,0-.09-.27h0a.09.09,0,0,0,.09-.09.1.1,0,0,0-.09-.1h0a.42.42,0,0,0,.09-.27A1.27,1.27,0,0,0,32.28,5.76Zm-.93-.39c0-.1,0-.16,0-.18a0,0,0,0,1,0,0,0,0,0,0,1,0,0,.09.09,0,1,0,.18,0,0,0,0,0,1,0,0,0,0,0,0,1,.05,0s0,.08,0,.18l-.16.35C31.46,5.63,31.38,5.44,31.35,5.37Zm.16,3.78.09.1-.09.09-.09-.09Zm0,5.51.09.09-.09.1-.09-.1Zm.16,4c0,.1,0,.16,0,.18a0,0,0,0,1-.05,0,0,0,0,0,1,0,0,.09.09,0,1,0-.18,0,0,0,0,0,1,0,0,0,0,0,0,1,0,0s0-.08,0-.18l.16-.35C31.56,18.37,31.64,18.56,31.67,18.63ZM31.6,17.5a.43.43,0,0,0-.09.1l-.09-.1.09-.09A.38.38,0,0,0,31.6,17.5Zm.49-2.09-.58,1.32-.58-1.32a.63.63,0,0,1-.06-.27.28.28,0,0,1,.18-.28.27.27,0,0,1,.26,0,.27.27,0,0,1,.11.22.16.16,0,0,1-.1.16c-.05,0-.1,0-.11,0s0,0,0-.12a.09.09,0,0,0,0-.13.08.08,0,0,0-.12,0c-.12.18-.06.3,0,.34a.28.28,0,0,0,.31.07l0,0v.23h0a.11.11,0,0,0-.09-.08.09.09,0,0,0-.1.09.22.22,0,0,0,.19.19V16a.09.09,0,1,0,.18,0v-.18a.2.2,0,0,0,.18-.19.1.1,0,0,0-.09-.1.09.09,0,0,0-.09.09h0v-.23l0,0a.28.28,0,0,0,.31-.07.28.28,0,0,0,0-.34.1.1,0,0,0-.13,0,.09.09,0,0,0,0,.13c0,.07,0,.11,0,.12a.12.12,0,0,1-.11,0,.16.16,0,0,1-.1-.16.27.27,0,0,1,.11-.22.25.25,0,0,1,.25,0,.29.29,0,0,1,.19.28A.63.63,0,0,1,32.09,15.41Zm0-1.32a.67.67,0,0,1,.06.28.3.3,0,0,1-.19.28.32.32,0,0,1-.25,0,.3.3,0,0,1-.11-.23.14.14,0,0,1,.1-.15.1.1,0,0,1,.11,0s0,.06,0,.13a.08.08,0,0,0,0,.12.09.09,0,0,0,.13,0,.26.26,0,0,0,0-.33.27.27,0,0,0-.31-.08l0,0v-.23h0a.09.09,0,0,0,.09.09.09.09,0,0,0,.09-.1.2.2,0,0,0-.18-.19v-.17a.09.09,0,0,0-.18,0v.17a.22.22,0,0,0-.19.19.09.09,0,0,0,.1.1.09.09,0,0,0,.09-.09h0v.23l0,0a.28.28,0,0,0-.31.07c0,.05-.1.16,0,.34a.09.09,0,1,0,.15-.09c0-.07,0-.12,0-.13s.06,0,.11,0a.14.14,0,0,1,.1.15.3.3,0,0,1-.11.23.34.34,0,0,1-.26,0,.29.29,0,0,1-.18-.28.67.67,0,0,1,.06-.28l.58-1.31ZM31.6,12a.43.43,0,0,0-.09.1l-.09-.1.09-.1A.43.43,0,0,0,31.6,12Zm.49-2.09-.58,1.31-.58-1.31a.67.67,0,0,1-.06-.28.29.29,0,0,1,.18-.28.34.34,0,0,1,.26,0,.3.3,0,0,1,.11.23.14.14,0,0,1-.1.15c-.05,0-.1,0-.11,0s0-.06,0-.13a.09.09,0,1,0-.15-.09c-.12.18-.06.29,0,.33a.27.27,0,0,0,.31.08l0,0v.23h0a.11.11,0,0,0-.09-.09.09.09,0,0,0-.1.1.22.22,0,0,0,.19.19v.17a.09.09,0,1,0,.18,0v-.17a.2.2,0,0,0,.18-.19.09.09,0,0,0-.09-.1.09.09,0,0,0-.09.09h0V9.93l0,0A.27.27,0,0,0,32,9.87a.26.26,0,0,0,0-.33.09.09,0,0,0-.13,0,.08.08,0,0,0,0,.12c0,.07,0,.12,0,.13a.1.1,0,0,1-.11,0,.14.14,0,0,1-.1-.15.3.3,0,0,1,.11-.23.32.32,0,0,1,.25,0,.3.3,0,0,1,.19.28A.67.67,0,0,1,32.09,9.91Zm0-1.32a.63.63,0,0,1,.06.27.29.29,0,0,1-.19.28.25.25,0,0,1-.25,0,.27.27,0,0,1-.11-.22.16.16,0,0,1,.1-.16.12.12,0,0,1,.11,0s0,0,0,.12a.09.09,0,0,0,0,.13.1.1,0,0,0,.13,0,.28.28,0,0,0,0-.34.28.28,0,0,0-.31-.07l0,0V8.34h0a.09.09,0,0,0,.09.08.09.09,0,0,0,.09-.09.2.2,0,0,0-.18-.19V8a.09.09,0,1,0-.18,0v.18a.22.22,0,0,0-.19.19.1.1,0,0,0,.1.1.09.09,0,0,0,.09-.09h0v.23l0,0a.28.28,0,0,0-.31.07s-.1.16,0,.34a.08.08,0,0,0,.12,0,.09.09,0,0,0,0-.13c0-.07,0-.11,0-.12s.06,0,.11,0a.16.16,0,0,1,.1.16.27.27,0,0,1-.11.22.27.27,0,0,1-.26,0,.28.28,0,0,1-.18-.28.63.63,0,0,1,.06-.27l.58-1.32ZM31.42,6.5l.09-.1a.43.43,0,0,0,.09.1.38.38,0,0,0-.09.09Z"/><circle class="cls-8" cx="42.51" cy="10.92" r="2.21"/><path class="cls-8" d="M42.67,8.1a.17.17,0,0,1-.16.17.18.18,0,0,1-.17-.17,3,3,0,0,1,.17-.49A3.13,3.13,0,0,1,42.67,8.1Z"/><path class="cls-8" d="M42.34,13.73a.17.17,0,0,1,.17-.16.16.16,0,0,1,.16.16,3.3,3.3,0,0,1-.16.5A3.17,3.17,0,0,1,42.34,13.73Z"/><path class="cls-8" d="M45.32,11.08a.16.16,0,0,1-.16-.16.17.17,0,0,1,.16-.17,3.17,3.17,0,0,1,.5.17A3.3,3.3,0,0,1,45.32,11.08Z"/><path class="cls-8" d="M39.69,10.75a.18.18,0,0,1,.17.17.17.17,0,0,1-.17.16,3.13,3.13,0,0,1-.49-.16A3,3,0,0,1,39.69,10.75Z"/><path class="cls-8" d="M44.62,9a.16.16,0,0,1-.24,0,.17.17,0,0,1,0-.23,3.89,3.89,0,0,1,.47-.23A3.25,3.25,0,0,1,44.62,9Z"/><path class="cls-8" d="M40.4,12.79a.17.17,0,0,1,.23,0,.16.16,0,0,1,0,.24,3.25,3.25,0,0,1-.46.23A3.89,3.89,0,0,1,40.4,12.79Z"/><path class="cls-8" d="M44.38,13a.17.17,0,0,1,.24-.24,3.89,3.89,0,0,1,.23.47A3.89,3.89,0,0,1,44.38,13Z"/><path class="cls-8" d="M40.63,8.81A.16.16,0,1,1,40.4,9a3.25,3.25,0,0,1-.23-.46A3.25,3.25,0,0,1,40.63,8.81Z"/><path class="cls-8" d="M41.58,8.25a.16.16,0,0,1-.09.22.17.17,0,0,1-.21-.09,2.66,2.66,0,0,1,0-.52A2.94,2.94,0,0,1,41.58,8.25Z"/><path class="cls-8" d="M43.43,13.58a.17.17,0,0,1,.09-.21.16.16,0,0,1,.22.09,3.76,3.76,0,0,1,0,.52A3.18,3.18,0,0,1,43.43,13.58Z"/><path class="cls-8" d="M45.17,10a.16.16,0,0,1-.12-.3,2.66,2.66,0,0,1,.52,0A2.56,2.56,0,0,1,45.17,10Z"/><path class="cls-8" d="M39.84,11.84a.17.17,0,1,1,.13.31,3.76,3.76,0,0,1-.52,0A3.81,3.81,0,0,1,39.84,11.84Z"/><path class="cls-8" d="M43.74,8.38a.18.18,0,0,1-.22.09.17.17,0,0,1-.09-.22,3.81,3.81,0,0,1,.35-.39A3.76,3.76,0,0,1,43.74,8.38Z"/><path class="cls-8" d="M41.28,13.46a.16.16,0,1,1,.3.12,2.56,2.56,0,0,1-.34.4A2.66,2.66,0,0,1,41.28,13.46Z"/><path class="cls-8" d="M45.05,12.15a.16.16,0,0,1-.09-.22.17.17,0,0,1,.21-.09,3.18,3.18,0,0,1,.4.35A3.76,3.76,0,0,1,45.05,12.15Z"/><path class="cls-8" d="M40,9.69a.17.17,0,0,1,.09.21.16.16,0,0,1-.22.09,2.94,2.94,0,0,1-.39-.34A2.66,2.66,0,0,1,40,9.69Z"/><path class="cls-8" d="M42.12,8.12a.17.17,0,0,1-.13.2.16.16,0,0,1-.19-.13,3,3,0,0,1,.06-.52A3.2,3.2,0,0,1,42.12,8.12Z"/><path class="cls-8" d="M42.89,13.71a.16.16,0,0,1,.13-.19.17.17,0,0,1,.2.13,2.85,2.85,0,0,1-.07.52A3.41,3.41,0,0,1,42.89,13.71Z"/><path class="cls-8" d="M45.3,10.53a.16.16,0,0,1-.06-.32,3,3,0,0,1,.52.06A3.41,3.41,0,0,1,45.3,10.53Z"/><path class="cls-8" d="M39.71,11.3a.18.18,0,0,1,.2.13.17.17,0,0,1-.13.2,2.85,2.85,0,0,1-.52-.07A3.2,3.2,0,0,1,39.71,11.3Z"/><path class="cls-8" d="M44.21,8.67a.17.17,0,0,1-.28-.18,2.93,2.93,0,0,1,.42-.33A3.4,3.4,0,0,1,44.21,8.67Z"/><path class="cls-8" d="M40.81,13.17a.16.16,0,0,1,.23-.05.17.17,0,0,1,0,.23,2.75,2.75,0,0,1-.41.32A3,3,0,0,1,40.81,13.17Z"/><path class="cls-8" d="M44.76,12.62a.17.17,0,1,1,.18-.28,2.75,2.75,0,0,1,.32.42A3,3,0,0,1,44.76,12.62Z"/><path class="cls-8" d="M40.26,9.22a.15.15,0,0,1,0,.23.16.16,0,0,1-.22,0,2.94,2.94,0,0,1-.33-.41A3.4,3.4,0,0,1,40.26,9.22Z"/><path class="cls-8" d="M41.08,8.49a.16.16,0,0,1,0,.22.15.15,0,0,1-.23,0,3.4,3.4,0,0,1-.14-.51A2.94,2.94,0,0,1,41.08,8.49Z"/><path class="cls-8" d="M43.93,13.35a.17.17,0,1,1,.28-.18,3,3,0,0,1,.14.5A2.75,2.75,0,0,1,43.93,13.35Z"/><path class="cls-8" d="M44.94,9.49a.17.17,0,0,1-.23,0,.16.16,0,0,1,0-.23,3,3,0,0,1,.5-.14A2.75,2.75,0,0,1,44.94,9.49Z"/><path class="cls-8" d="M40.08,12.34a.17.17,0,0,1,.18.28,3.4,3.4,0,0,1-.51.14A2.93,2.93,0,0,1,40.08,12.34Z"/><path class="cls-8" d="M43.22,8.19a.17.17,0,0,1-.2.13.18.18,0,0,1-.13-.2,3.2,3.2,0,0,1,.26-.45A2.85,2.85,0,0,1,43.22,8.19Z"/><path class="cls-8" d="M41.8,13.65a.16.16,0,0,1,.32.06,3.41,3.41,0,0,1-.26.46A3,3,0,0,1,41.8,13.65Z"/><path class="cls-8" d="M45.24,11.63a.17.17,0,0,1-.13-.2.16.16,0,0,1,.19-.13,3.41,3.41,0,0,1,.46.26A2.85,2.85,0,0,1,45.24,11.63Z"/><path class="cls-8" d="M39.78,10.21a.16.16,0,0,1,.13.19.17.17,0,0,1-.2.13,3.2,3.2,0,0,1-.45-.26A3,3,0,0,1,39.78,10.21Z"/><path class="cls-8" d="M47.7,11.5a.11.11,0,0,0-.16.07h0a7.08,7.08,0,0,1-.5.86c.19-.6.36-1.24.37-1.28a.13.13,0,0,0-.09-.16.12.12,0,0,0-.15.09,8.85,8.85,0,0,1-.43,1.07c0-.39,0-.75,0-.77a.13.13,0,0,0-.13-.13.14.14,0,0,0-.13.12A4.26,4.26,0,0,1,44,14.7a4.56,4.56,0,0,0-1.08.23.66.66,0,0,0-.15.05h-.05a3.5,3.5,0,0,1-3.36-1.72,6,6,0,0,1-.81-1.95.14.14,0,0,0-.15-.1.13.13,0,0,0-.1.15,6.52,6.52,0,0,0,.32,1A5.44,5.44,0,0,1,38,11v0h0l0,0h-.15l0,0V11h0a5.6,5.6,0,0,0,.44,1.31,3.58,3.58,0,0,1-.57-.86v0l0,0v0h-.15l0,0a0,0,0,0,0,0,0s0,0,0,0v.07s0,0,0,0a5.28,5.28,0,0,0,.73,1.34,2.55,2.55,0,0,1-.43-.4h0a.12.12,0,0,0-.18,0,.12.12,0,0,0,0,.17l0,0a6.91,6.91,0,0,0,.59.61l-.26-.11a.13.13,0,0,0-.16.06.12.12,0,0,0,0,.16,7.09,7.09,0,0,0,.88.56h-.13a.13.13,0,0,0-.14.09.13.13,0,0,0,.08.15l.28.11a.11.11,0,0,0-.08.08.13.13,0,0,0,.06.14,3,3,0,0,0,.41.2v0a.13.13,0,0,0,0,.15,3.83,3.83,0,0,0,1.9.61h.2a.14.14,0,0,0,.12-.14.12.12,0,0,0-.14-.11,3.18,3.18,0,0,1-1.6-.37l.08,0a.14.14,0,0,0,.08-.15.13.13,0,0,0-.12-.1,1.48,1.48,0,0,1-.53-.15.38.38,0,0,0,.11-.07.12.12,0,0,0,0-.13.12.12,0,0,0-.1-.09l-.19,0a.27.27,0,0,0,.11-.1.14.14,0,0,0,0-.11.13.13,0,0,0-.09-.07l-.11,0,0,0a.14.14,0,0,0,0-.17l-.25-.2.06,0a.12.12,0,0,0,0-.15l-.23-.32.13.1.07,0a.16.16,0,0,0,.09,0s0,0,0,0a1.6,1.6,0,0,0,.24.22l0,0,.11.18a3.8,3.8,0,0,0,3.16,1.85,2.78,2.78,0,0,1-.46.23l-.12,0-.06,0a1.19,1.19,0,0,0-.57.45.24.24,0,0,0,.07.29.11.11,0,0,0,.08,0h.06a.15.15,0,0,0,.07-.12s0,0,.1,0l.28,0,.41,0-.21.23a.12.12,0,0,0,0,.14.11.11,0,0,0,.11.07h.22a.16.16,0,0,0,.11.07.28.28,0,0,0,.24-.05.33.33,0,0,0,.14.06.41.41,0,0,0,.23-.05.3.3,0,0,0,.17.05h0a.4.4,0,0,0,.25-.09.27.27,0,0,0,.14,0,.36.36,0,0,0,.22-.06.49.49,0,0,0,.43-.14.22.22,0,0,0,.13,0,.27.27,0,0,0,.2-.11.44.44,0,0,0,.43-.11A.23.23,0,0,0,45,16.1c.56,0,.61-.31.62-.35a.14.14,0,0,0,0-.09.12.12,0,0,0-.09-.05l-1.47-.09a.13.13,0,0,0-.13.1.49.49,0,0,1-.11.17.84.84,0,0,1-.46.18.11.11,0,0,0,0-.05.12.12,0,0,0-.16-.07,3,3,0,0,1-1.18.07l.19-.12a.13.13,0,0,0,.06-.14.11.11,0,0,0-.07-.08,2.32,2.32,0,0,0,.28-.16,2.37,2.37,0,0,1,.53-.26A5.18,5.18,0,0,1,44,15h0a5,5,0,0,0,2.32-2.18,1,1,0,0,1,0,.12.13.13,0,0,0,.07.16.12.12,0,0,0,.14,0,1.52,1.52,0,0,1-.13.28.13.13,0,0,0,0,.17l0,0a2,2,0,0,1-.17.23.14.14,0,0,0,0,.17,2.58,2.58,0,0,1-.25.24.14.14,0,0,0,0,.15l-.15.07a.13.13,0,0,0-.09.14s0,.07.05.08l-.25.06a.11.11,0,0,0-.1.11.12.12,0,0,0,.06.13l.11.05a5,5,0,0,1-1.4.3.13.13,0,1,0,0,.25,3.47,3.47,0,0,0,1.8-.49.12.12,0,0,0,0-.13.14.14,0,0,0-.07-.08,2.17,2.17,0,0,0,.64-.29.13.13,0,0,0,0-.17.12.12,0,0,0-.15-.05l-.08,0c.3-.2.61-.44.74-.54l.07-.06a.12.12,0,0,0-.16-.19l-.06,0-.23.15c.33-.38.66-.78.76-.9l0,0a.12.12,0,0,0,0-.18.12.12,0,0,0-.18,0h0l0,0c-.1.12-.2.24-.31.35.34-.62.6-1.22.64-1.31h0A.12.12,0,0,0,47.7,11.5Zm-5.93,4.27h0a.57.57,0,0,0-.1.13h-.16A1.2,1.2,0,0,1,41.77,15.77Z"/></g><g id="Container-2-5" data-name="Container-2" class="cls-5"><path d="M41.3,4h0a48.91,48.91,0,0,1,7.3.45,3.56,3.56,0,0,1,3.17,3.16,41.27,41.27,0,0,1,0,8.75,3.41,3.41,0,0,1-3.18,3.15,49.58,49.58,0,0,1-7.52.49,50.45,50.45,0,0,1-7.56-.49,3.63,3.63,0,0,1-3.19-3.23,29,29,0,0,1,0-8.58c.5-2.11,1.36-3,3.17-3.25A60.16,60.16,0,0,1,41.3,4m0-1a60.11,60.11,0,0,0-7.95.46c-2.49.36-3.49,1.84-4,4a30.11,30.11,0,0,0,0,9,4.63,4.63,0,0,0,4,4,52,52,0,0,0,7.72.5,51.42,51.42,0,0,0,7.69-.5,4.42,4.42,0,0,0,4-4,42.68,42.68,0,0,0,0-9,4.56,4.56,0,0,0-4-4A51.38,51.38,0,0,0,41.3,3Z"/></g></g><g id="_24_Kazakhstan_Normal" data-name="24_Kazakhstan_Normal"><g class="cls-9"><rect class="cls-10" y="3" width="24" height="18"/><path class="cls-11" d="M3.28,5.76c0-.17,0-.23,0-.3a.11.11,0,0,0,0-.13.09.09,0,0,0-.13,0,.43.43,0,0,0-.08.47.27.27,0,0,0-.3.07.28.28,0,0,0,0,.34A.09.09,0,0,0,3,6.11c0-.07,0-.11,0-.13a.18.18,0,0,1,.11,0,.16.16,0,0,1,.1.16A.27.27,0,0,1,3,6.35a.28.28,0,0,1-.25,0,.29.29,0,0,1-.19-.28.63.63,0,0,1,.06-.27s.14-.31.18-.41,0-.33,0-.37a.23.23,0,0,0-.25,0l0,0,0,0a.21.21,0,0,0-.24,0s-.12.15,0,.37a3.35,3.35,0,0,0,.18.4.71.71,0,0,1,.06.28.29.29,0,0,1-.19.28.28.28,0,0,1-.25,0,.27.27,0,0,1-.11-.22A.16.16,0,0,1,2,6a.13.13,0,0,1,.1,0s0,.06,0,.13a.1.1,0,0,0,0,.13.11.11,0,0,0,.13,0,.29.29,0,0,0,0-.34.29.29,0,0,0-.31-.07c0-.17.08-.32-.07-.47a.11.11,0,0,0-.13,0,.09.09,0,0,0,0,.13c.07.07.06.13,0,.3a1.24,1.24,0,0,0-.06.37.43.43,0,0,0,.1.27h0a.1.1,0,0,0-.1.1.09.09,0,0,0,.1.09h0a.45.45,0,0,0-.1.27,1.19,1.19,0,0,0,.06.37c0,.17,0,.23,0,.3a.09.09,0,0,0,0,.13.09.09,0,0,0,.07,0l.06,0a.42.42,0,0,0,.07-.46.29.29,0,0,0,.31-.08s.09-.15,0-.34a.09.09,0,0,0-.13,0,.08.08,0,0,0,0,.12c0,.07,0,.11,0,.13S2,7,2,7a.16.16,0,0,1-.1-.16A.28.28,0,0,1,2,6.64a.28.28,0,0,1,.25,0,.3.3,0,0,1,.19.28.67.67,0,0,1-.06.28l-.6,1.35a.85.85,0,0,0-.08.35.48.48,0,0,0,.19.39.47.47,0,0,0-.19.38.9.9,0,0,0,.08.36l.6,1.35a.63.63,0,0,1,.06.27.28.28,0,0,1-.19.28.25.25,0,0,1-.25,0,.27.27,0,0,1-.11-.22.14.14,0,0,1,.1-.15c.05,0,.09,0,.1,0s0,.06,0,.12a.1.1,0,0,0,0,.13.09.09,0,0,0,.13,0,.29.29,0,0,0,0-.34.29.29,0,0,0-.31-.07.43.43,0,0,0-.07-.47.11.11,0,0,0-.13,0,.09.09,0,0,0,0,.13c.07.08.06.14,0,.3a1.24,1.24,0,0,0-.06.37.48.48,0,0,0,.1.28h0a.09.09,0,1,0,0,.18h0a.48.48,0,0,0-.1.28,1.24,1.24,0,0,0,.06.37c0,.16,0,.22,0,.3a.09.09,0,0,0,0,.13l.07,0,.06,0a.43.43,0,0,0,.07-.47.29.29,0,0,0,.31-.07.29.29,0,0,0,0-.34.09.09,0,0,0-.13,0,.1.1,0,0,0,0,.13c0,.06,0,.11,0,.12s0,0-.1,0a.14.14,0,0,1-.1-.15A.27.27,0,0,1,2,12.15a.25.25,0,0,1,.25,0,.28.28,0,0,1,.19.28.63.63,0,0,1-.06.27L1.76,14a.9.9,0,0,0-.08.36.47.47,0,0,0,.19.38.48.48,0,0,0-.19.39.85.85,0,0,0,.08.35l.6,1.35a.67.67,0,0,1,.06.28.3.3,0,0,1-.19.28.28.28,0,0,1-.25,0,.28.28,0,0,1-.11-.22A.16.16,0,0,1,2,17c.05,0,.09,0,.1,0s0,.06,0,.13a.08.08,0,0,0,0,.12.09.09,0,0,0,.13,0c.11-.19,0-.3,0-.34a.29.29,0,0,0-.31-.08.42.42,0,0,0-.07-.46.09.09,0,0,0-.13.13c.07.07.06.13,0,.3a1.19,1.19,0,0,0-.06.37.44.44,0,0,0,.19.36.47.47,0,0,0-.19.37,1.24,1.24,0,0,0,.06.37c0,.17,0,.23,0,.3a.09.09,0,0,0,0,.13.09.09,0,0,0,.07,0,.09.09,0,0,0,.06,0c.15-.15.11-.3.07-.47a.29.29,0,0,0,.31-.07.29.29,0,0,0,0-.34.11.11,0,0,0-.13,0,.1.1,0,0,0,0,.13c0,.07,0,.11,0,.13A.13.13,0,0,1,2,18a.16.16,0,0,1-.1-.16A.27.27,0,0,1,2,17.65a.28.28,0,0,1,.25,0,.29.29,0,0,1,.19.28.63.63,0,0,1-.06.27s-.15.31-.18.41,0,.33,0,.37a.22.22,0,0,0,.15.06l.09,0,0,0,0,0,.1,0a.22.22,0,0,0,.15-.06s.12-.15,0-.37-.18-.39-.18-.4a.71.71,0,0,1-.06-.28.29.29,0,0,1,.19-.28.28.28,0,0,1,.25,0,.27.27,0,0,1,.11.22.16.16,0,0,1-.1.16.18.18,0,0,1-.11,0s0-.06,0-.13a.09.09,0,0,0-.16-.1.28.28,0,0,0,0,.34.27.27,0,0,0,.3.07.43.43,0,0,0,.08.47.09.09,0,0,0,.06,0,.09.09,0,0,0,.07,0,.11.11,0,0,0,0-.13c-.08-.07-.07-.13,0-.3a1.27,1.27,0,0,0,.05-.37.46.46,0,0,0-.18-.37.43.43,0,0,0,.18-.36,1.22,1.22,0,0,0-.05-.37c0-.17,0-.23,0-.3a.1.1,0,0,0,0-.13.09.09,0,0,0-.13,0,.42.42,0,0,0-.08.46.27.27,0,0,0-.3.08s-.1.15,0,.34a.09.09,0,0,0,.13,0,.09.09,0,0,0,0-.12c0-.07,0-.11,0-.13a.1.1,0,0,1,.11,0,.16.16,0,0,1,.1.16.28.28,0,0,1-.11.22.28.28,0,0,1-.25,0,.3.3,0,0,1-.19-.28.67.67,0,0,1,.06-.28l.6-1.35a.84.84,0,0,0,.07-.35.5.5,0,0,0-.18-.39.49.49,0,0,0,.18-.38A.89.89,0,0,0,3.26,14l-.6-1.35a.63.63,0,0,1-.06-.27.28.28,0,0,1,.19-.28.25.25,0,0,1,.25,0,.27.27,0,0,1,.11.22.14.14,0,0,1-.1.15.1.1,0,0,1-.11,0s0-.06,0-.12a.11.11,0,0,0,0-.13.09.09,0,0,0-.13,0,.28.28,0,0,0,0,.34.27.27,0,0,0,.3.07.44.44,0,0,0,.08.47l.06,0,.07,0a.1.1,0,0,0,0-.13c-.08-.08-.07-.14,0-.3a1.27,1.27,0,0,0,.05-.37.47.47,0,0,0-.09-.28h0a.09.09,0,0,0,0-.18h0a.47.47,0,0,0,.09-.28,1.27,1.27,0,0,0-.05-.37c0-.16,0-.22,0-.3a.09.09,0,1,0-.13-.13.44.44,0,0,0-.08.47.27.27,0,0,0-.3.07.28.28,0,0,0,0,.34.09.09,0,0,0,.13,0,.11.11,0,0,0,0-.13c0-.06,0-.11,0-.12a.1.1,0,0,1,.11,0,.14.14,0,0,1,.1.15.27.27,0,0,1-.11.22.25.25,0,0,1-.25,0,.28.28,0,0,1-.19-.28.63.63,0,0,1,.06-.27L3.26,10a.87.87,0,0,0,.07-.35.5.5,0,0,0-.18-.39.5.5,0,0,0,.18-.39.84.84,0,0,0-.07-.35l-.6-1.35a.67.67,0,0,1-.06-.28.3.3,0,0,1,.19-.28.28.28,0,0,1,.25,0,.28.28,0,0,1,.11.22.16.16,0,0,1-.1.16.1.1,0,0,1-.11,0s0-.06,0-.13a.09.09,0,0,0,0-.12.09.09,0,0,0-.13,0c-.12.19,0,.3,0,.34a.27.27,0,0,0,.3.08.42.42,0,0,0,.08.46l.06,0a.09.09,0,0,0,.07,0,.1.1,0,0,0,0-.13c-.08-.07-.07-.13,0-.3a1.22,1.22,0,0,0,.05-.37.44.44,0,0,0-.09-.27h0a.09.09,0,0,0,.09-.09.1.1,0,0,0-.09-.1h0a.42.42,0,0,0,.09-.27A1.27,1.27,0,0,0,3.28,5.76Zm-.93-.39c0-.1,0-.16,0-.18a0,0,0,0,1,0,0,0,0,0,0,1,0,0,.09.09,0,0,0,.18,0,0,0,0,0,1,0,0,0,0,0,0,1,0,0s0,.08,0,.18l-.16.35C2.46,5.63,2.38,5.44,2.35,5.37Zm.16,3.78.09.1-.09.09-.09-.09Zm0,5.51.09.09-.09.1-.09-.1Zm.16,4c0,.1,0,.16,0,.18a0,0,0,0,1,0,0,0,0,0,0,1,0,0,.09.09,0,0,0-.18,0,0,0,0,0,1,0,0,0,0,0,0,1,0,0s0-.08,0-.18l.16-.35C2.56,18.37,2.64,18.56,2.67,18.63ZM2.6,17.5a.43.43,0,0,0-.09.1l-.09-.1a.76.76,0,0,0,.09-.09A.38.38,0,0,0,2.6,17.5Zm.49-2.09-.58,1.32-.58-1.32a.63.63,0,0,1-.06-.27.28.28,0,0,1,.18-.28.27.27,0,0,1,.26,0,.27.27,0,0,1,.11.22.16.16,0,0,1-.1.16s-.1,0-.11,0,0,0,0-.12a.09.09,0,0,0,0-.13.08.08,0,0,0-.12,0c-.12.18-.06.3,0,.34a.28.28,0,0,0,.31.07l0,0v.23h0a.11.11,0,0,0-.09-.08.09.09,0,0,0-.1.09.22.22,0,0,0,.19.19V16a.09.09,0,1,0,.18,0v-.18a.2.2,0,0,0,.18-.19.1.1,0,0,0-.09-.1.09.09,0,0,0-.09.09h0v-.23l0,0A.28.28,0,0,0,3,15.38a.28.28,0,0,0,0-.34.1.1,0,0,0-.13,0,.09.09,0,0,0,0,.13c0,.07,0,.11,0,.12a.12.12,0,0,1-.11,0,.16.16,0,0,1-.1-.16.27.27,0,0,1,.11-.22.25.25,0,0,1,.25,0,.29.29,0,0,1,.19.28A.63.63,0,0,1,3.09,15.41Zm0-1.32a.67.67,0,0,1,.06.28.3.3,0,0,1-.19.28.32.32,0,0,1-.25,0,.3.3,0,0,1-.11-.23.14.14,0,0,1,.1-.15.1.1,0,0,1,.11,0s0,.06,0,.13a.08.08,0,0,0,0,.12.09.09,0,0,0,.13,0,.26.26,0,0,0,0-.33.27.27,0,0,0-.31-.08l0,0v-.23h0a.09.09,0,0,0,.09.09.09.09,0,0,0,.09-.1.2.2,0,0,0-.18-.19v-.17a.09.09,0,0,0-.18,0v.17a.22.22,0,0,0-.19.19.09.09,0,0,0,.1.1.09.09,0,0,0,.09-.09h0v.23l0,0a.28.28,0,0,0-.31.07c0,.05-.1.16,0,.34a.09.09,0,0,0,.15-.09c0-.07,0-.12,0-.13s.06,0,.11,0a.14.14,0,0,1,.1.15.3.3,0,0,1-.11.23.34.34,0,0,1-.26,0,.29.29,0,0,1-.18-.28.67.67,0,0,1,.06-.28l.58-1.31ZM2.6,12a.43.43,0,0,0-.09.1L2.42,12l.09-.1A.43.43,0,0,0,2.6,12Zm.49-2.09-.58,1.31L1.93,9.91a.67.67,0,0,1-.06-.28.29.29,0,0,1,.18-.28.34.34,0,0,1,.26,0,.3.3,0,0,1,.11.23.14.14,0,0,1-.1.15s-.1,0-.11,0,0-.06,0-.13a.09.09,0,0,0-.15-.09c-.12.18-.06.29,0,.33a.27.27,0,0,0,.31.08l0,0v.23h0a.11.11,0,0,0-.09-.09.09.09,0,0,0-.1.1.22.22,0,0,0,.19.19v.17a.09.09,0,0,0,.18,0v-.17a.2.2,0,0,0,.18-.19.09.09,0,0,0-.09-.1.09.09,0,0,0-.09.09h0V9.93l0,0A.27.27,0,0,0,3,9.87a.26.26,0,0,0,0-.33.09.09,0,0,0-.13,0,.08.08,0,0,0,0,.12c0,.07,0,.12,0,.13a.1.1,0,0,1-.11,0,.14.14,0,0,1-.1-.15.3.3,0,0,1,.11-.23.32.32,0,0,1,.25,0,.3.3,0,0,1,.19.28A.67.67,0,0,1,3.09,9.91Zm0-1.32a.63.63,0,0,1,.06.27A.29.29,0,0,1,3,9.14a.25.25,0,0,1-.25,0,.27.27,0,0,1-.11-.22.16.16,0,0,1,.1-.16.12.12,0,0,1,.11,0s0,0,0,.12A.09.09,0,0,0,2.8,9a.1.1,0,0,0,.13,0,.28.28,0,0,0,0-.34.28.28,0,0,0-.31-.07l0,0V8.34h0a.09.09,0,0,0,.09.08.09.09,0,0,0,.09-.09.2.2,0,0,0-.18-.19V8a.09.09,0,0,0-.18,0v.18a.22.22,0,0,0-.19.19.1.1,0,0,0,.1.1.09.09,0,0,0,.09-.09h0v.23l0,0a.28.28,0,0,0-.31.07s-.1.16,0,.34a.08.08,0,0,0,.12,0,.09.09,0,0,0,0-.13c0-.07,0-.11,0-.12s.06,0,.11,0a.16.16,0,0,1,.1.16.27.27,0,0,1-.11.22.27.27,0,0,1-.26,0,.28.28,0,0,1-.18-.28.63.63,0,0,1,.06-.27l.58-1.32ZM2.42,6.5l.09-.1a.43.43,0,0,0,.09.1.38.38,0,0,0-.09.09A.76.76,0,0,0,2.42,6.5Z"/><circle class="cls-11" cx="13.51" cy="10.92" r="2.21"/><path class="cls-11" d="M13.67,8.1a.17.17,0,0,1-.16.17.18.18,0,0,1-.17-.17,3,3,0,0,1,.17-.49A3.13,3.13,0,0,1,13.67,8.1Z"/><path class="cls-11" d="M13.34,13.73a.17.17,0,0,1,.17-.16.16.16,0,0,1,.16.16,3.3,3.3,0,0,1-.16.5A3.17,3.17,0,0,1,13.34,13.73Z"/><path class="cls-11" d="M16.32,11.08a.16.16,0,0,1-.16-.16.17.17,0,0,1,.16-.17,3.17,3.17,0,0,1,.5.17A3.3,3.3,0,0,1,16.32,11.08Z"/><path class="cls-11" d="M10.69,10.75a.18.18,0,0,1,.17.17.17.17,0,0,1-.17.16,3.13,3.13,0,0,1-.49-.16A3,3,0,0,1,10.69,10.75Z"/><path class="cls-11" d="M15.62,9a.16.16,0,0,1-.24,0,.17.17,0,0,1,0-.23,3.89,3.89,0,0,1,.47-.23A3.25,3.25,0,0,1,15.62,9Z"/><path class="cls-11" d="M11.4,12.79a.17.17,0,0,1,.23,0,.16.16,0,0,1,0,.24,3.25,3.25,0,0,1-.46.23A3.89,3.89,0,0,1,11.4,12.79Z"/><path class="cls-11" d="M15.38,13a.17.17,0,0,1,.24-.24,3.89,3.89,0,0,1,.23.47A3.89,3.89,0,0,1,15.38,13Z"/><path class="cls-11" d="M11.63,8.81A.16.16,0,1,1,11.4,9a3.25,3.25,0,0,1-.23-.46A3.25,3.25,0,0,1,11.63,8.81Z"/><path class="cls-11" d="M12.58,8.25a.16.16,0,0,1-.09.22.17.17,0,0,1-.21-.09,2.66,2.66,0,0,1,0-.52A2.94,2.94,0,0,1,12.58,8.25Z"/><path class="cls-11" d="M14.43,13.58a.17.17,0,0,1,.09-.21.16.16,0,0,1,.22.09,3.76,3.76,0,0,1,0,.52A3.18,3.18,0,0,1,14.43,13.58Z"/><path class="cls-11" d="M16.17,10a.16.16,0,1,1-.12-.3,2.66,2.66,0,0,1,.52,0A2.56,2.56,0,0,1,16.17,10Z"/><path class="cls-11" d="M10.84,11.84a.17.17,0,0,1,.13.31,3.76,3.76,0,0,1-.52,0A3.81,3.81,0,0,1,10.84,11.84Z"/><path class="cls-11" d="M14.74,8.38a.18.18,0,0,1-.22.09.17.17,0,0,1-.09-.22,3.81,3.81,0,0,1,.35-.39A3.76,3.76,0,0,1,14.74,8.38Z"/><path class="cls-11" d="M12.28,13.46a.16.16,0,1,1,.3.12,2.56,2.56,0,0,1-.34.4A2.66,2.66,0,0,1,12.28,13.46Z"/><path class="cls-11" d="M16.05,12.15a.16.16,0,0,1-.09-.22.17.17,0,0,1,.21-.09,3.18,3.18,0,0,1,.4.35A3.76,3.76,0,0,1,16.05,12.15Z"/><path class="cls-11" d="M11,9.69a.17.17,0,0,1,.09.21.16.16,0,0,1-.22.09,2.94,2.94,0,0,1-.39-.34A2.66,2.66,0,0,1,11,9.69Z"/><path class="cls-11" d="M13.12,8.12a.17.17,0,0,1-.13.2.16.16,0,0,1-.19-.13,3,3,0,0,1,.06-.52A3.2,3.2,0,0,1,13.12,8.12Z"/><path class="cls-11" d="M13.89,13.71a.16.16,0,0,1,.13-.19.17.17,0,0,1,.2.13,2.85,2.85,0,0,1-.07.52A3.41,3.41,0,0,1,13.89,13.71Z"/><path class="cls-11" d="M16.3,10.53a.16.16,0,0,1-.06-.32,3,3,0,0,1,.52.06A3.41,3.41,0,0,1,16.3,10.53Z"/><path class="cls-11" d="M10.71,11.3a.18.18,0,0,1,.2.13.17.17,0,0,1-.13.2,2.85,2.85,0,0,1-.52-.07A3.2,3.2,0,0,1,10.71,11.3Z"/><path class="cls-11" d="M15.21,8.67a.17.17,0,0,1-.28-.18,2.93,2.93,0,0,1,.42-.33A3.4,3.4,0,0,1,15.21,8.67Z"/><path class="cls-11" d="M11.81,13.17a.16.16,0,0,1,.23-.05.17.17,0,0,1,0,.23,2.75,2.75,0,0,1-.41.32A3,3,0,0,1,11.81,13.17Z"/><path class="cls-11" d="M15.76,12.62a.17.17,0,1,1,.18-.28,2.75,2.75,0,0,1,.32.42A3,3,0,0,1,15.76,12.62Z"/><path class="cls-11" d="M11.26,9.22a.15.15,0,0,1,0,.23.16.16,0,0,1-.22,0,2.94,2.94,0,0,1-.33-.41A3.4,3.4,0,0,1,11.26,9.22Z"/><path class="cls-11" d="M12.08,8.49a.16.16,0,0,1,0,.22.15.15,0,0,1-.23,0,3.4,3.4,0,0,1-.14-.51A2.94,2.94,0,0,1,12.08,8.49Z"/><path class="cls-11" d="M14.93,13.35a.17.17,0,0,1,.28-.18,3,3,0,0,1,.14.5A2.75,2.75,0,0,1,14.93,13.35Z"/><path class="cls-11" d="M15.94,9.49a.17.17,0,0,1-.23,0,.16.16,0,0,1,0-.23,3,3,0,0,1,.5-.14A2.75,2.75,0,0,1,15.94,9.49Z"/><path class="cls-11" d="M11.08,12.34a.17.17,0,0,1,.18.28,3.4,3.4,0,0,1-.51.14A2.93,2.93,0,0,1,11.08,12.34Z"/><path class="cls-11" d="M14.22,8.19a.17.17,0,0,1-.2.13.18.18,0,0,1-.13-.2,3.2,3.2,0,0,1,.26-.45A2.85,2.85,0,0,1,14.22,8.19Z"/><path class="cls-11" d="M12.8,13.65a.16.16,0,1,1,.32.06,3.41,3.41,0,0,1-.26.46A3,3,0,0,1,12.8,13.65Z"/><path class="cls-11" d="M16.24,11.63a.17.17,0,0,1-.13-.2.16.16,0,0,1,.19-.13,3.41,3.41,0,0,1,.46.26A2.85,2.85,0,0,1,16.24,11.63Z"/><path class="cls-11" d="M10.78,10.21a.16.16,0,0,1,.13.19.17.17,0,0,1-.2.13,3.2,3.2,0,0,1-.45-.26A3,3,0,0,1,10.78,10.21Z"/><path class="cls-11" d="M18.7,11.5a.11.11,0,0,0-.16.07h0a7.08,7.08,0,0,1-.5.86c.19-.6.36-1.24.37-1.28a.13.13,0,0,0-.09-.16.12.12,0,0,0-.15.09,8.85,8.85,0,0,1-.43,1.07c0-.39,0-.75,0-.77a.13.13,0,0,0-.13-.13.14.14,0,0,0-.13.12A4.26,4.26,0,0,1,15,14.7a4.56,4.56,0,0,0-1.08.23l-.15.05h0a3.5,3.5,0,0,1-3.36-1.72,6,6,0,0,1-.81-1.95.14.14,0,0,0-.15-.1.13.13,0,0,0-.1.15,6.52,6.52,0,0,0,.32,1A5.44,5.44,0,0,1,9,11v0H9l0,0H8.81l0,0V11h0a5.6,5.6,0,0,0,.44,1.31,3.58,3.58,0,0,1-.57-.86v0l0,0v0H8.45l0,0a0,0,0,0,0,0,0l0,0v.07s0,0,0,0a5.28,5.28,0,0,0,.73,1.34,2.55,2.55,0,0,1-.43-.4h0a.12.12,0,0,0-.18,0,.12.12,0,0,0,0,.17l0,0a6.91,6.91,0,0,0,.59.61l-.26-.11a.13.13,0,0,0-.16.06.12.12,0,0,0,0,.16A7.09,7.09,0,0,0,9.6,14H9.47a.13.13,0,0,0-.14.09.13.13,0,0,0,.08.15l.28.11a.11.11,0,0,0-.08.08.13.13,0,0,0,.06.14,3,3,0,0,0,.41.2v0a.13.13,0,0,0,0,.15,3.83,3.83,0,0,0,1.9.61h.2a.14.14,0,0,0,.12-.14.12.12,0,0,0-.14-.11,3.18,3.18,0,0,1-1.6-.37l.08,0a.14.14,0,0,0,.08-.15.13.13,0,0,0-.12-.1,1.48,1.48,0,0,1-.53-.15.38.38,0,0,0,.11-.07.12.12,0,0,0,0-.13.12.12,0,0,0-.1-.09l-.19,0a.27.27,0,0,0,.11-.1.14.14,0,0,0,0-.11.13.13,0,0,0-.09-.07l-.11,0,0,0a.14.14,0,0,0,0-.17l-.25-.2.06,0a.12.12,0,0,0,0-.15l-.23-.32.13.1.07,0,.09,0,0,0a1.6,1.6,0,0,0,.24.22l0,0,.11.18a3.8,3.8,0,0,0,3.16,1.85,2.78,2.78,0,0,1-.46.23l-.12,0-.06,0a1.19,1.19,0,0,0-.57.45.24.24,0,0,0,.07.29.11.11,0,0,0,.08,0h.06a.15.15,0,0,0,.07-.12s0,0,.1,0l.28,0,.41,0-.21.23a.12.12,0,0,0,0,.14.11.11,0,0,0,.11.07h.22a.16.16,0,0,0,.11.07.28.28,0,0,0,.24-.05.33.33,0,0,0,.14.06.41.41,0,0,0,.23-.05.3.3,0,0,0,.17.05h0a.4.4,0,0,0,.25-.09.27.27,0,0,0,.14,0,.36.36,0,0,0,.22-.06.49.49,0,0,0,.43-.14.22.22,0,0,0,.13,0,.27.27,0,0,0,.2-.11.44.44,0,0,0,.43-.11A.23.23,0,0,0,16,16.1c.56,0,.61-.31.62-.35a.14.14,0,0,0,0-.09.12.12,0,0,0-.09-.05l-1.47-.09a.13.13,0,0,0-.13.1.49.49,0,0,1-.11.17.84.84,0,0,1-.46.18.11.11,0,0,0,0-.05.12.12,0,0,0-.16-.07,3,3,0,0,1-1.18.07l.19-.12a.13.13,0,0,0,.06-.14.11.11,0,0,0-.07-.08,2.32,2.32,0,0,0,.28-.16,2.37,2.37,0,0,1,.53-.26A5.18,5.18,0,0,1,15,15h0a5,5,0,0,0,2.32-2.18,1,1,0,0,1,0,.12.13.13,0,0,0,.07.16.12.12,0,0,0,.14,0,1.52,1.52,0,0,1-.13.28.13.13,0,0,0,0,.17l0,0a2,2,0,0,1-.17.23.14.14,0,0,0,0,.17,2.58,2.58,0,0,1-.25.24.14.14,0,0,0,0,.15l-.15.07a.13.13,0,0,0-.09.14s0,.07.05.08l-.25.06a.11.11,0,0,0-.1.11.12.12,0,0,0,.06.13l.11.05a5,5,0,0,1-1.4.3.13.13,0,1,0,0,.25,3.47,3.47,0,0,0,1.8-.49.12.12,0,0,0,0-.13.14.14,0,0,0-.07-.08,2.17,2.17,0,0,0,.64-.29.13.13,0,0,0,0-.17.12.12,0,0,0-.15-.05l-.08,0c.3-.2.61-.44.74-.54l.07-.06a.12.12,0,0,0-.16-.19l-.06,0-.23.15c.33-.38.66-.78.76-.9l0,0a.12.12,0,0,0,0-.18.12.12,0,0,0-.18,0h0l0,0c-.1.12-.2.24-.31.35.34-.62.6-1.22.64-1.31h0A.12.12,0,0,0,18.7,11.5Zm-5.93,4.27h0a.57.57,0,0,0-.1.13h-.16A1.2,1.2,0,0,1,12.77,15.77Z"/></g><g id="Container-2-6" data-name="Container-2" class="cls-5"><path d="M12.3,4h0a48.91,48.91,0,0,1,7.3.45,3.56,3.56,0,0,1,3.17,3.16,41.27,41.27,0,0,1,0,8.75,3.41,3.41,0,0,1-3.18,3.15,49.58,49.58,0,0,1-7.52.49,50.45,50.45,0,0,1-7.56-.49,3.63,3.63,0,0,1-3.19-3.23,29,29,0,0,1,0-8.58c.5-2.11,1.36-3,3.17-3.25A60.16,60.16,0,0,1,12.3,4m0-1a60.11,60.11,0,0,0-8,.46c-2.49.36-3.49,1.84-4,4a30.11,30.11,0,0,0,0,9,4.63,4.63,0,0,0,4,4,52,52,0,0,0,7.72.5,51.42,51.42,0,0,0,7.69-.5,4.42,4.42,0,0,0,4-4,42.68,42.68,0,0,0,0-9,4.56,4.56,0,0,0-4-4A51.38,51.38,0,0,0,12.3,3Z"/></g></g></svg>