<svg xmlns="http://www.w3.org/2000/svg" xmlns:xlink="http://www.w3.org/1999/xlink" width="82" height="24" viewBox="0 0 82 24"><defs><style>.cls-1{fill:none;}.cls-2{clip-path:url(#clip-path);}.cls-3{fill:#00916e;}.cls-4{fill:#f9f9f9;}.cls-5{fill:#f9d128;}.cls-6{opacity:0.05;}.cls-7{clip-path:url(#clip-path-2);}.cls-8{fill:#bae5d9;}.cls-9{fill:#f2f2f2;}.cls-10{fill:#f2ebce;}.cls-11{clip-path:url(#clip-path-3);}.cls-12{fill:#00795e;}.cls-13{fill:#fff;}.cls-14{fill:#fbd20e;}</style><clipPath id="clip-path"><path id="Container-2" class="cls-1" d="M62.35,3.46a64.59,64.59,0,0,1,15.41,0,4.56,4.56,0,0,1,4,4,42.68,42.68,0,0,1,0,9,4.42,4.42,0,0,1-4,4,59.32,59.32,0,0,1-15.41,0,4.63,4.63,0,0,1-4-4,30.11,30.11,0,0,1,0-9C58.86,5.3,59.86,3.82,62.35,3.46Z"/></clipPath><clipPath id="clip-path-2"><path id="Container-2-2" data-name="Container-2" class="cls-1" d="M33.35,3.46a64.59,64.59,0,0,1,15.41,0,4.56,4.56,0,0,1,4,4,42.68,42.68,0,0,1,0,9,4.42,4.42,0,0,1-4,4,59.32,59.32,0,0,1-15.41,0,4.63,4.63,0,0,1-4-4,30.11,30.11,0,0,1,0-9C29.86,5.3,30.86,3.82,33.35,3.46Z"/></clipPath><clipPath id="clip-path-3"><path id="Container-2-3" data-name="Container-2" class="cls-1" d="M4.35,3.46a64.59,64.59,0,0,1,15.41,0,4.56,4.56,0,0,1,4,4,42.68,42.68,0,0,1,0,9,4.42,4.42,0,0,1-4,4,59.32,59.32,0,0,1-15.41,0,4.63,4.63,0,0,1-4-4,30.11,30.11,0,0,1,0-9C.86,5.3,1.86,3.82,4.35,3.46Z"/></clipPath></defs><g id="_24_Macao_Normal_copy" data-name="24_Macao_Normal copy"><g class="cls-2"><rect class="cls-3" x="58" y="3" width="24" height="17.94"/><path class="cls-4" d="M71.19,14.53a3.79,3.79,0,0,0,1.74,0,3.69,3.69,0,0,0,2.35-1.82,3.69,3.69,0,0,0-2.93-.5,3.8,3.8,0,0,0-1.47.75h0A3.74,3.74,0,0,1,74.15,12l.4-.35a3.58,3.58,0,0,0-3.28.69,3.61,3.61,0,0,0-.08-3.46L71,9.37a3.73,3.73,0,0,1-.15,3.42h0a3.76,3.76,0,0,0,.38-1.64A3.71,3.71,0,0,0,70,8.44a3.71,3.71,0,0,0-1.19,2.72,3.76,3.76,0,0,0,.38,1.64h0A3.73,3.73,0,0,1,69,9.37l-.23-.48a3.61,3.61,0,0,0-.08,3.46,3.58,3.58,0,0,0-3.28-.69l.4.35a3.74,3.74,0,0,1,3.26.94h0a3.8,3.8,0,0,0-1.47-.75,3.69,3.69,0,0,0-2.93.5,3.69,3.69,0,0,0,2.35,1.82,3.79,3.79,0,0,0,1.74,0,3.74,3.74,0,0,1-3.42-.67l-.52.12S67,16.22,70,14c3,2.2,5.13,0,5.13,0l-.52-.12A3.74,3.74,0,0,1,71.19,14.53Z"/><path class="cls-4" d="M67,17.11a4.42,4.42,0,0,0,.68.36h4.68a4.42,4.42,0,0,0,.68-.36Z"/><path class="cls-4" d="M68.08,17.64a5.75,5.75,0,0,0,3.84,0Z"/><path class="cls-4" d="M65.71,16l.22.24h8.14l.22-.24Z"/><path class="cls-4" d="M66.23,16.56l.38.3h6.78l.38-.3Z"/><path class="cls-4" d="M72.39,15.4a3.49,3.49,0,0,1-2.26-.9L70,14.37l-.13.13a3.49,3.49,0,0,1-2.26.9H65.22a3.32,3.32,0,0,0,.26.36h2.13A3.84,3.84,0,0,0,70,14.87a3.84,3.84,0,0,0,2.39.89h2.13a3.32,3.32,0,0,0,.26-.36Z"/><path class="cls-5" d="M69.89,6l-.21.63H69a.07.07,0,0,0,0,.12l.54.39-.2.64a.06.06,0,0,0,.1.07L70,7.48l.54.39a.06.06,0,0,0,.1-.07l-.2-.64.53-.39a.07.07,0,0,0,0-.12h-.66L70,6A.06.06,0,0,0,69.89,6Z"/><path class="cls-5" d="M66.75,7.3l.12.44L66.49,8a.05.05,0,0,0,0,.09l.45,0,.13.44s.07,0,.09,0l.16-.43h.46s.06-.05,0-.08l-.36-.28.15-.43s0-.08-.07-.06l-.38.26-.36-.28A0,0,0,0,0,66.75,7.3Z"/><path class="cls-5" d="M64.92,9.52l.33.32-.19.41a0,0,0,0,0,.06.06l.41-.21.33.31s.08,0,.08,0l-.09-.45.4-.23s0-.08,0-.08l-.46-.06L65.7,9.1a0,0,0,0,0-.09,0l-.2.41L65,9.45A0,0,0,0,0,64.92,9.52Z"/><path class="cls-5" d="M73.25,7.3l-.12.44.38.26a.05.05,0,0,1,0,.09l-.45,0-.13.44s-.07,0-.09,0l-.16-.43h-.46s-.06-.05,0-.08l.36-.28-.15-.43s0-.08.07-.06l.38.26.36-.28A0,0,0,0,1,73.25,7.3Z"/><path class="cls-5" d="M75.08,9.52l-.33.32.19.41a0,0,0,0,1-.06.06l-.41-.21-.33.31s-.08,0-.08,0l.09-.45-.4-.23s0-.08,0-.08l.46-.06.08-.45a0,0,0,0,1,.09,0l.2.41L75,9.45A0,0,0,0,1,75.08,9.52Z"/></g><g id="Container-2-4" data-name="Container-2" class="cls-6"><path d="M70.3,4h0a48.91,48.91,0,0,1,7.3.45,3.56,3.56,0,0,1,3.17,3.16,41.27,41.27,0,0,1,0,8.75,3.41,3.41,0,0,1-3.18,3.15,49.58,49.58,0,0,1-7.52.49,50.45,50.45,0,0,1-7.56-.49,3.63,3.63,0,0,1-3.19-3.23,29,29,0,0,1,0-8.58c.5-2.11,1.36-3,3.17-3.25A60.16,60.16,0,0,1,70.3,4m0-1a60.11,60.11,0,0,0-7.95.46c-2.49.36-3.49,1.84-4,4a30.11,30.11,0,0,0,0,9,4.63,4.63,0,0,0,4,4,52,52,0,0,0,7.72.5,51.42,51.42,0,0,0,7.69-.5,4.42,4.42,0,0,0,4-4,42.68,42.68,0,0,0,0-9,4.56,4.56,0,0,0-4-4A51.38,51.38,0,0,0,70.3,3Z"/></g></g><g id="_24_Macao_Disabled" data-name="24_Macao_Disabled"><g class="cls-7"><rect class="cls-8" x="29" y="3" width="24" height="17.94"/><path class="cls-9" d="M42.19,14.53a3.79,3.79,0,0,0,1.74,0,3.69,3.69,0,0,0,2.35-1.82,3.69,3.69,0,0,0-2.93-.5,3.8,3.8,0,0,0-1.47.75h0A3.74,3.74,0,0,1,45.15,12l.4-.35a3.58,3.58,0,0,0-3.28.69,3.61,3.61,0,0,0-.08-3.46L42,9.37a3.73,3.73,0,0,1-.15,3.42h0a3.76,3.76,0,0,0,.38-1.64A3.71,3.71,0,0,0,41,8.44a3.71,3.71,0,0,0-1.19,2.72,3.76,3.76,0,0,0,.38,1.64h0A3.73,3.73,0,0,1,40,9.37l-.23-.48a3.61,3.61,0,0,0-.08,3.46,3.58,3.58,0,0,0-3.28-.69l.4.35a3.74,3.74,0,0,1,3.26.94h0a3.8,3.8,0,0,0-1.47-.75,3.69,3.69,0,0,0-2.93.5,3.69,3.69,0,0,0,2.35,1.82,3.79,3.79,0,0,0,1.74,0,3.74,3.74,0,0,1-3.42-.67l-.52.12S38,16.22,41,14c3,2.2,5.13,0,5.13,0l-.52-.12A3.74,3.74,0,0,1,42.19,14.53Z"/><path class="cls-9" d="M38,17.11a4.42,4.42,0,0,0,.68.36h4.68a4.42,4.42,0,0,0,.68-.36Z"/><path class="cls-9" d="M39.08,17.64a5.75,5.75,0,0,0,3.84,0Z"/><path class="cls-9" d="M36.71,16l.22.24h8.14l.22-.24Z"/><path class="cls-9" d="M37.23,16.56l.38.3h6.78l.38-.3Z"/><path class="cls-9" d="M43.39,15.4a3.49,3.49,0,0,1-2.26-.9L41,14.37l-.13.13a3.49,3.49,0,0,1-2.26.9H36.22a3.32,3.32,0,0,0,.26.36h2.13A3.84,3.84,0,0,0,41,14.87a3.84,3.84,0,0,0,2.39.89h2.13a3.32,3.32,0,0,0,.26-.36Z"/><path class="cls-10" d="M40.89,6l-.21.63H40a.07.07,0,0,0,0,.12l.54.39-.2.64a.06.06,0,0,0,.1.07L41,7.48l.54.39a.06.06,0,0,0,.1-.07l-.2-.64.53-.39a.07.07,0,0,0,0-.12h-.66L41,6A.06.06,0,0,0,40.89,6Z"/><path class="cls-10" d="M37.75,7.3l.12.44L37.49,8a.05.05,0,0,0,0,.09l.45,0,.13.44s.07,0,.09,0l.16-.43h.46s.06-.05,0-.08l-.36-.28.15-.43s0-.08-.07-.06l-.38.26-.36-.28A0,0,0,0,0,37.75,7.3Z"/><path class="cls-10" d="M35.92,9.52l.33.32-.19.41a0,0,0,0,0,.06.06l.41-.21.33.31s.08,0,.08,0l-.09-.45.4-.23s0-.08,0-.08l-.46-.06L36.7,9.1a0,0,0,0,0-.09,0l-.2.41L36,9.45A0,0,0,0,0,35.92,9.52Z"/><path class="cls-10" d="M44.25,7.3l-.12.44.38.26a.05.05,0,0,1,0,.09l-.45,0-.13.44s-.07,0-.09,0l-.16-.43h-.46s-.06-.05,0-.08l.36-.28-.15-.43s0-.08.07-.06l.38.26.36-.28A0,0,0,0,1,44.25,7.3Z"/><path class="cls-10" d="M46.08,9.52l-.33.32.19.41a0,0,0,0,1-.06.06l-.41-.21-.33.31s-.08,0-.08,0l.09-.45-.4-.23s0-.08,0-.08l.46-.06.08-.45a0,0,0,0,1,.09,0l.2.41L46,9.45A0,0,0,0,1,46.08,9.52Z"/></g><g id="Container-2-5" data-name="Container-2" class="cls-6"><path d="M41.3,4h0a48.91,48.91,0,0,1,7.3.45,3.56,3.56,0,0,1,3.17,3.16,41.27,41.27,0,0,1,0,8.75,3.41,3.41,0,0,1-3.18,3.15,49.58,49.58,0,0,1-7.52.49,50.45,50.45,0,0,1-7.56-.49,3.63,3.63,0,0,1-3.19-3.23,29,29,0,0,1,0-8.58c.5-2.11,1.36-3,3.17-3.25A60.16,60.16,0,0,1,41.3,4m0-1a60.11,60.11,0,0,0-7.95.46c-2.49.36-3.49,1.84-4,4a30.11,30.11,0,0,0,0,9,4.63,4.63,0,0,0,4,4,52,52,0,0,0,7.72.5,51.42,51.42,0,0,0,7.69-.5,4.42,4.42,0,0,0,4-4,42.68,42.68,0,0,0,0-9,4.56,4.56,0,0,0-4-4A51.38,51.38,0,0,0,41.3,3Z"/></g></g><g id="_24_Macao_Normal" data-name="24_Macao_Normal"><g class="cls-11"><rect class="cls-12" y="3" width="24" height="17.94"/><path class="cls-13" d="M13.19,14.53a3.79,3.79,0,0,0,1.74,0,3.69,3.69,0,0,0,2.35-1.82,3.69,3.69,0,0,0-2.93-.5,3.8,3.8,0,0,0-1.47.75h0A3.74,3.74,0,0,1,16.15,12l.4-.35a3.58,3.58,0,0,0-3.28.69,3.61,3.61,0,0,0-.08-3.46L13,9.37a3.73,3.73,0,0,1-.15,3.42h0a3.76,3.76,0,0,0,.38-1.64A3.71,3.71,0,0,0,12,8.44a3.71,3.71,0,0,0-1.19,2.72,3.76,3.76,0,0,0,.38,1.64h0A3.73,3.73,0,0,1,11,9.37l-.23-.48a3.61,3.61,0,0,0-.08,3.46,3.58,3.58,0,0,0-3.28-.69l.4.35a3.74,3.74,0,0,1,3.26.94h0a3.8,3.8,0,0,0-1.47-.75,3.69,3.69,0,0,0-2.93.5,3.69,3.69,0,0,0,2.35,1.82,3.79,3.79,0,0,0,1.74,0,3.74,3.74,0,0,1-3.42-.67L6.87,14S9,16.22,12,14c3,2.2,5.13,0,5.13,0l-.52-.12A3.74,3.74,0,0,1,13.19,14.53Z"/><path class="cls-13" d="M9,17.11a4.42,4.42,0,0,0,.68.36h4.68a4.42,4.42,0,0,0,.68-.36Z"/><path class="cls-13" d="M10.08,17.64a5.75,5.75,0,0,0,3.84,0Z"/><path class="cls-13" d="M7.71,16l.22.24h8.14l.22-.24Z"/><path class="cls-13" d="M8.23,16.56l.38.3h6.78l.38-.3Z"/><path class="cls-13" d="M14.39,15.4a3.49,3.49,0,0,1-2.26-.9L12,14.37l-.13.13a3.49,3.49,0,0,1-2.26.9H7.22a3.32,3.32,0,0,0,.26.36H9.61A3.84,3.84,0,0,0,12,14.87a3.84,3.84,0,0,0,2.39.89h2.13a3.32,3.32,0,0,0,.26-.36Z"/><path class="cls-14" d="M11.89,6l-.21.63H11a.07.07,0,0,0,0,.12l.54.39-.2.64a.06.06,0,0,0,.1.07L12,7.48l.54.39a.06.06,0,0,0,.1-.07l-.2-.64.53-.39a.07.07,0,0,0,0-.12h-.66L12,6A.06.06,0,0,0,11.89,6Z"/><path class="cls-14" d="M8.75,7.3l.12.44L8.49,8a.05.05,0,0,0,0,.09l.45,0,.13.44s.07,0,.09,0l.16-.43h.46s.06-.05,0-.08l-.36-.28.15-.43s0-.08-.07-.06l-.38.26-.36-.28A0,0,0,0,0,8.75,7.3Z"/><path class="cls-14" d="M6.92,9.52l.33.32-.19.41a0,0,0,0,0,.06.06l.41-.21.33.31s.08,0,.08,0l-.09-.45.4-.23s0-.08,0-.08l-.46-.06L7.7,9.1a0,0,0,0,0-.09,0l-.2.41L7,9.45A0,0,0,0,0,6.92,9.52Z"/><path class="cls-14" d="M15.25,7.3l-.12.44.38.26a.05.05,0,0,1,0,.09l-.45,0-.13.44s-.07,0-.09,0l-.16-.43h-.46s-.06-.05,0-.08l.36-.28-.15-.43s0-.08.07-.06l.38.26.36-.28A0,0,0,0,1,15.25,7.3Z"/><path class="cls-14" d="M17.08,9.52l-.33.32.19.41a0,0,0,0,1-.06.06l-.41-.21-.33.31s-.08,0-.08,0l.09-.45-.4-.23s0-.08,0-.08l.46-.06.08-.45a0,0,0,0,1,.09,0l.2.41L17,9.45A0,0,0,0,1,17.08,9.52Z"/></g><g id="Container-2-6" data-name="Container-2" class="cls-6"><path d="M12.3,4h0a48.91,48.91,0,0,1,7.3.45,3.56,3.56,0,0,1,3.17,3.16,41.27,41.27,0,0,1,0,8.75,3.41,3.41,0,0,1-3.18,3.15,49.58,49.58,0,0,1-7.52.49,50.45,50.45,0,0,1-7.56-.49,3.63,3.63,0,0,1-3.19-3.23,29,29,0,0,1,0-8.58c.5-2.11,1.36-3,3.17-3.25A60.16,60.16,0,0,1,12.3,4m0-1a60.11,60.11,0,0,0-8,.46c-2.49.36-3.49,1.84-4,4a30.11,30.11,0,0,0,0,9,4.63,4.63,0,0,0,4,4,52,52,0,0,0,7.72.5,51.42,51.42,0,0,0,7.69-.5,4.42,4.42,0,0,0,4-4,42.68,42.68,0,0,0,0-9,4.56,4.56,0,0,0-4-4A51.38,51.38,0,0,0,12.3,3Z"/></g></g></svg>