<svg xmlns="http://www.w3.org/2000/svg" xmlns:xlink="http://www.w3.org/1999/xlink" width="82" height="24" viewBox="0 0 82 24"><defs><style>.cls-1{fill:none;}.cls-2{clip-path:url(#clip-path);}.cls-3{fill:#00843c;}.cls-4{fill:#f9f9f9;}.cls-5{opacity:0.05;}.cls-6{clip-path:url(#clip-path-2);}.cls-7{fill:#cef2de;}.cls-8{fill:#f2f2f2;}.cls-9{clip-path:url(#clip-path-3);}.cls-10{fill:#006c35;}.cls-11{fill:#fff;}</style><clipPath id="clip-path"><path id="Container-2" class="cls-1" d="M62.35,3.46a64.59,64.59,0,0,1,15.41,0,4.56,4.56,0,0,1,4,4,42.68,42.68,0,0,1,0,9,4.42,4.42,0,0,1-4,4,59.32,59.32,0,0,1-15.41,0,4.63,4.63,0,0,1-4-4,30.11,30.11,0,0,1,0-9C58.86,5.3,59.86,3.82,62.35,3.46Z"/></clipPath><clipPath id="clip-path-2"><path id="Container-2-2" data-name="Container-2" class="cls-1" d="M33.35,3.46a64.59,64.59,0,0,1,15.41,0,4.56,4.56,0,0,1,4,4,42.68,42.68,0,0,1,0,9,4.42,4.42,0,0,1-4,4,59.32,59.32,0,0,1-15.41,0,4.63,4.63,0,0,1-4-4,30.11,30.11,0,0,1,0-9C29.86,5.3,30.86,3.82,33.35,3.46Z"/></clipPath><clipPath id="clip-path-3"><path id="Container-2-3" data-name="Container-2" class="cls-1" d="M4.35,3.46a64.59,64.59,0,0,1,15.41,0,4.56,4.56,0,0,1,4,4,42.68,42.68,0,0,1,0,9,4.42,4.42,0,0,1-4,4,59.32,59.32,0,0,1-15.41,0,4.63,4.63,0,0,1-4-4,30.11,30.11,0,0,1,0-9C.86,5.3,1.86,3.82,4.35,3.46Z"/></clipPath></defs><g id="_24_Saudi_Arabia_Normal_copy" data-name="24_Saudi Arabia_Normal copy"><g class="cls-2"><rect class="cls-3" x="58.05" y="3" width="24" height="18"/><path class="cls-4" d="M62.29,9.16c.05.29.22.38.37.37A.38.38,0,0,0,63,9.18v-1a.09.09,0,0,1,.18,0v1a.36.36,0,0,0,.15.3.36.36,0,0,0,.2.06.35.35,0,0,0,.14,0l.09,0c0,.83,0,1.55,0,1.57a.19.19,0,0,0,.17.19h0a.18.18,0,0,0,.18-.17c0-.06.06-.85,0-1.73l.06,0a.26.26,0,0,1,.15,0,.51.51,0,0,0,.59-.1l0,0a.55.55,0,0,0,.13-.55l-.15-.46a.17.17,0,0,0,.21-.09.18.18,0,0,0-.08-.24l-.36-.18a.19.19,0,0,0-.2,0,.19.19,0,0,0,0,.19l.29.87a.2.2,0,0,1,0,.18l0,0a.14.14,0,0,1-.17,0,.55.55,0,0,0-.38,0,5.59,5.59,0,0,0-.22-1.54.17.17,0,0,0-.22-.12.19.19,0,0,0-.12.23,6.15,6.15,0,0,1,.21,1.57l-.22.08v-1a.45.45,0,1,0-.89,0v.87l-.18-.9A.18.18,0,0,0,62.24,8a.18.18,0,0,0-.14.21Z"/><path class="cls-4" d="M62.64,7.65a.18.18,0,0,0,.18-.18V7.3a.18.18,0,0,0-.36,0v.17A.18.18,0,0,0,62.64,7.65Z"/><path class="cls-4" d="M64.43,7.47h.18a.18.18,0,0,0,.18-.17.18.18,0,0,0-.18-.18h-.18a.18.18,0,0,0-.18.18A.18.18,0,0,0,64.43,7.47Z"/><path class="cls-4" d="M63.26,9.83l-.89.54a.17.17,0,0,0-.07.24.19.19,0,0,0,.16.09l.09,0,.9-.54a.18.18,0,1,0-.19-.31Z"/><path class="cls-4" d="M65.68,10.15h0a.37.37,0,0,0,.09.16.33.33,0,0,0,.3.12.46.46,0,0,0,.37-.19l0,0a.36.36,0,0,0,.32,0,.68.68,0,0,0,.32-.63.19.19,0,0,0-.19-.17.18.18,0,0,0-.17.18s0,.22-.12.3a.34.34,0,0,1-.06-.15.17.17,0,0,0-.19-.15.18.18,0,0,0-.17.18s0,.25-.18.27a.44.44,0,0,1,0-.23A.17.17,0,0,0,66,9.66a.2.2,0,0,0-.21,0l-.1.07c0-1-.15-2.26-.15-2.27a.18.18,0,0,0-.2-.16.17.17,0,0,0-.16.19s.13,1.42.17,2.49l0,0a.46.46,0,0,0-.39-.31.66.66,0,0,0-.64.4.42.42,0,0,0,.14.53.61.61,0,0,0,.54,0,1.56,1.56,0,0,1-.3.55.71.71,0,0,1-.57.29.44.44,0,0,1-.35-.15,1.06,1.06,0,0,1-.19-.64.18.18,0,0,0-.17-.19.17.17,0,0,0-.18.17,1.31,1.31,0,0,0,.28.9.81.81,0,0,0,.6.27h0a1.12,1.12,0,0,0,.83-.42,2,2,0,0,0,.41-.92,2,2,0,0,1-.86,1.61.9.9,0,0,1-.9.07.78.78,0,0,1-.4-.76.17.17,0,0,0-.15-.2.18.18,0,0,0-.2.16,1.11,1.11,0,0,0,.59,1.12,1.19,1.19,0,0,0,.54.13,1.36,1.36,0,0,0,.71-.21,2.41,2.41,0,0,0,1-1.92C65.69,10.41,65.68,10.28,65.68,10.15Zm-1.08.18s0-.09,0-.1a.3.3,0,0,1,.25-.18h0s.09,0,.11.15,0,0,0,0C64.78,10.36,64.64,10.36,64.6,10.33Z"/><path class="cls-4" d="M62.73,12a.19.19,0,0,0-.25.06s0,0,0,.05v0a1.24,1.24,0,0,1,0-.61.17.17,0,0,0-.12-.21.17.17,0,0,0-.22.12,1.46,1.46,0,0,0,0,.83c.08.22.21.27.3.28h0a.45.45,0,0,0,.35-.25A.19.19,0,0,0,62.73,12Z"/><path class="cls-4" d="M66,8.73a.17.17,0,0,0,.11,0l.9-.71,0,0a.45.45,0,0,0,.22-.39.45.45,0,0,0-.9,0,.46.46,0,0,0,.17.35l-.64.5a.17.17,0,0,0,0,.25A.15.15,0,0,0,66,8.73Zm.81-1.26a.1.1,0,0,1,.09.09.09.09,0,0,1-.18,0A.1.1,0,0,1,66.85,7.47Z"/><path class="cls-4" d="M66.64,8.56a.18.18,0,0,0-.23.11.56.56,0,0,0,.07.53.36.36,0,0,0,.27.1.81.81,0,0,0,.25,0,.18.18,0,0,0-.12-.34l-.14,0a.3.3,0,0,1,0-.16A.18.18,0,0,0,66.64,8.56Z"/><path class="cls-4" d="M68.69,7.82h0a.17.17,0,0,0,.17-.13L69,7.34a.18.18,0,0,0-.13-.22.17.17,0,0,0-.22.12l-.1.36A.17.17,0,0,0,68.69,7.82Z"/><path class="cls-4" d="M67.64,7.8l.1,0a.16.16,0,0,0,.15-.09.18.18,0,0,0-.06-.24.07.07,0,0,1,0-.09.12.12,0,0,1,.08-.12A.19.19,0,0,0,68,7.05a.2.2,0,0,0-.23-.12.5.5,0,0,0-.33.43A.46.46,0,0,0,67.64,7.8Z"/><path class="cls-4" d="M66.22,10.7a.18.18,0,0,0-.18.18.19.19,0,0,0,.15.18.33.33,0,0,1,0,.18.18.18,0,0,0,.36,0C66.58,10.71,66.24,10.7,66.22,10.7Z"/><path class="cls-4" d="M69.26,10h.07a.64.64,0,0,0,.43-.21.18.18,0,0,0,0-.25.19.19,0,0,0-.26,0c-.11.11-.16.11-.18.11a.16.16,0,0,1-.07-.07A.18.18,0,0,0,69,9.47a.18.18,0,0,0-.08.24A.52.52,0,0,0,69.26,10Z"/><path class="cls-4" d="M72.31,8.7h0a.19.19,0,0,0-.23-.11.18.18,0,0,0-.11.23.4.4,0,0,0,.29.28h0a.45.45,0,0,0,.35-.24.19.19,0,0,0-.05-.25.19.19,0,0,0-.25.05Z"/><path class="cls-4" d="M72,12c0-.77,0-1.49-.08-2.11a9.94,9.94,0,0,1,.63,1.27.18.18,0,0,0,.17.12h.06a.18.18,0,0,0,.1-.23,11.32,11.32,0,0,0-1-2c-.1-1-.21-1.58-.21-1.59a.18.18,0,0,0-.21-.14.19.19,0,0,0-.15.21s.06.32.13.85L71,7.82h0a.17.17,0,0,0,.22-.11.19.19,0,0,0-.11-.23l-.54-.18a.2.2,0,0,0-.2.07l0,0A.38.38,0,0,0,70,7.34c-.08,0-.17.11-.17.31a1.71,1.71,0,0,0,.12.51c.11.3.17.52.06.63a.19.19,0,0,1-.18.06c-.11,0-.22-.18-.29-.39l0,0a3.12,3.12,0,0,0,0-1,.18.18,0,0,0-.21-.14.19.19,0,0,0-.15.21A1.68,1.68,0,0,1,69,8.79a.33.33,0,0,1-.27.12.09.09,0,0,1-.08,0,1.78,1.78,0,0,1-.1-1,.18.18,0,0,0,0-.14.17.17,0,0,0-.14-.07c-.3,0-.42.35-.52.66,0,.14-.13.39-.19.42s-.18-.32-.18-.54A.18.18,0,0,0,67.3,8h0a.18.18,0,0,0-.18.18c0,.42.14.9.54.9s.41-.32.51-.62a1.08,1.08,0,0,0,.21.63.44.44,0,0,0,.35.17A.69.69,0,0,0,69.28,9l.06-.09a.77.77,0,0,0,.38.28h.13a.58.58,0,0,0,.39-.16L70.3,9a.3.3,0,0,0,.13,0,.7.7,0,0,0,.37-.11.18.18,0,1,0-.19-.3.35.35,0,0,1-.2.05A2,2,0,0,0,70.27,8a1.27,1.27,0,0,1-.09-.3s0,0,0,0a.18.18,0,0,0,.25,0l0,0c.18.26.57.8,1,1.42.07.76.14,1.73.14,2.8A.18.18,0,0,0,72,12Z"/><path class="cls-4" d="M72.14,8a.18.18,0,1,0,.36,0,2,2,0,0,0-.2-.62.19.19,0,0,0-.24-.08.19.19,0,0,0-.08.25A1.64,1.64,0,0,1,72.14,8Z"/><path class="cls-4" d="M71.32,12a.18.18,0,0,0-.24.07l-.07.11a.88.88,0,0,1,0-.33.2.2,0,0,0-.08-.21.18.18,0,0,0-.22,0L70.4,12a.18.18,0,0,0,.25.25h0a.39.39,0,0,0,.1.19.3.3,0,0,0,.23.1H71c.2,0,.33-.26.36-.32A.17.17,0,0,0,71.32,12Z"/><path class="cls-4" d="M71.25,10.53H70l0-.12c.51-.11.81-.27.9-.49a.4.4,0,0,0-.07-.4.43.43,0,0,0-.45-.19c-.26.05-.49.32-.65.76a2,2,0,0,0-1,.45,2.68,2.68,0,0,0-.38-1.19.16.16,0,0,0-.24,0,.17.17,0,0,0,0,.25,2.64,2.64,0,0,1,.32,1.33,1.41,1.41,0,0,1-1.07,1.43c-.2,0-.29-.23-.33-.44a2,2,0,0,0,.86-.95,1.44,1.44,0,0,0-.12-1v0h0A.18.18,0,0,0,68,9.68c-.1-.11-.31-.27-.49-.19s-.17.11-.17.32a.8.8,0,0,0,.08.28,1.11,1.11,0,0,1,.1.75,1.43,1.43,0,0,1-.58.64.18.18,0,0,0-.14-.06h0a.18.18,0,0,0-.18.18v.1a8.36,8.36,0,0,1-1.15.63.18.18,0,0,0-.09.24.19.19,0,0,0,.17.1h.07a10.61,10.61,0,0,0,1.07-.58.69.69,0,0,0,.65.59,1.52,1.52,0,0,0,1.2-.87.88.88,0,0,0,.12.17,2,2,0,0,0,1.37.52.18.18,0,0,0,.18-.17.17.17,0,0,0-.17-.18.41.41,0,0,1-.22-.11.31.31,0,0,1-.06-.24c0-.22.73-.38,1.36-.39a.19.19,0,0,0,.16-.12l.18-.51a.18.18,0,0,0,0-.16A.18.18,0,0,0,71.25,10.53Zm-.78-.85h0s0,0,.08.05,0,0,0,.06-.14.13-.4.21C70.29,9.78,70.41,9.69,70.47,9.68ZM69.38,12a1.09,1.09,0,0,1-.49-.3.74.74,0,0,1-.16-.63l0-.08c.25,0,.92.08,1,.27a.62.62,0,0,0-.38.47A.74.74,0,0,0,69.38,12Z"/><path class="cls-4" d="M73.2,8,73,7.42a.18.18,0,0,0-.21-.12.18.18,0,0,0-.14.19c.12,1.24.35,3.65.35,3.93s-.44.74-1.15,1.09a.17.17,0,0,0-.08.24.16.16,0,0,0,.16.1.12.12,0,0,0,.08,0c.65-.32,1.35-.9,1.35-1.41,0-.27-.18-2.17-.28-3.24A.18.18,0,0,0,73.2,8Z"/><path class="cls-4" d="M74.7,9.57a.16.16,0,0,0,.13.06l.09,0A.18.18,0,0,0,75,9.4a.87.87,0,0,1,0-.35.17.17,0,0,0,.18-.15A.17.17,0,0,0,75,8.7a.33.33,0,0,0-.3.1.56.56,0,0,0-.09.19l-.2-.21a.18.18,0,1,0-.26.26Z"/><path class="cls-4" d="M75.1,9.76l-.67.48a.18.18,0,0,0,0,.25.19.19,0,0,0,.15.08.14.14,0,0,0,.1,0l.67-.48a.18.18,0,1,0-.21-.29Z"/><path class="cls-4" d="M75,10.43a.19.19,0,0,0,0,.24.55.55,0,0,1,0,.26.18.18,0,0,0,.17.19h0a.18.18,0,0,0,.17-.18c0-.36-.1-.5-.15-.54A.2.2,0,0,0,75,10.43Z"/><path class="cls-4" d="M76.61,11.75a.18.18,0,0,0,.18-.17c0-.27,0-.56,0-.87a5.64,5.64,0,0,1,.42.78.18.18,0,0,0,.17.11l.07,0a.17.17,0,0,0,.09-.23,9.41,9.41,0,0,0-.82-1.42c-.07-.65-.16-1.3-.23-1.76a.2.2,0,0,0,.11,0A.18.18,0,0,0,76.64,8s0,0,0,0a.61.61,0,0,1,.06.44.18.18,0,0,0,.14.21h0a.18.18,0,0,0,.18-.14,1,1,0,0,0-.12-.7.18.18,0,0,0-.25-.06.21.21,0,0,0-.08.17.14.14,0,0,0,0-.06l-.3-.47a.19.19,0,0,0-.22-.07.2.2,0,0,0-.11.2s.14.8.26,1.75l-.4-.57c0-.27,0-.52-.07-.72l0,0a.17.17,0,0,0,.08-.24l-.18-.36a.17.17,0,0,0-.33.1c0,.22,0,.45.06.7l-.31-.4a.1.1,0,0,0,0-.06.2.2,0,0,0-.08-.24l-.36-.18a.2.2,0,0,0-.22.05.2.2,0,0,0,0,.23s.45.56,1,1.28a14,14,0,0,1,.06,2.67.15.15,0,0,1-.07.11c-.1,0-.36-.23-.49-.49S74.8,11,74.75,11c-.2,0-.27.22-.41.61a2.77,2.77,0,0,1-.35.75,2,2,0,0,1-.23-.7.18.18,0,0,0,.17.12.18.18,0,0,0,.18-.18c0-.27-.19-2.31-.29-3.42a.17.17,0,0,0,.1-.22l-.18-.54a.17.17,0,0,0-.2-.12.19.19,0,0,0-.15.19c.13,1.28.35,3.75.36,4.09h0a.18.18,0,0,0-.2-.15.19.19,0,0,0-.16.2c.06.37.19,1,.5,1.1l.09,0a.38.38,0,0,0,.26-.12,2.74,2.74,0,0,0,.44-.89c0-.08.06-.17.09-.24.16.24.45.54.74.51.1,0,.29-.06.38-.35a9.87,9.87,0,0,0,0-2.23l.44.64a14.31,14.31,0,0,1,.1,1.52A.18.18,0,0,0,76.61,11.75Z"/><path class="cls-4" d="M78,10.81c-.13-.94-.31-2-.42-2.71a.2.2,0,0,0,.15,0,.19.19,0,0,0,0-.26l-.33-.42a.18.18,0,0,0-.21-.06.2.2,0,0,0-.11.2s.33,1.86.52,3.33a1.65,1.65,0,0,1-.29,1.34.79.79,0,0,1-.66.25.18.18,0,0,0,0,.36h.09a1.11,1.11,0,0,0,.85-.36A2,2,0,0,0,78,10.81Z"/><path class="cls-4" d="M76,12a.19.19,0,0,0,0,.26s0,0,0,0l0,0a.19.19,0,0,0,0,.26.21.21,0,0,0,.13.05.18.18,0,0,0,.12-.05.42.42,0,0,0,.14-.31.4.4,0,0,0-.15-.29A.16.16,0,0,0,76,12Z"/><path class="cls-4" d="M75.36,15.92H74.11v-.17a.18.18,0,0,0-.36,0v.17h-9.5a2.5,2.5,0,0,0,1.61.54h7.89v.36a.18.18,0,0,0,.18.18h1.43a.54.54,0,0,0,.54-.54A.54.54,0,0,0,75.36,15.92Zm0,.72H74.11v-.18h1.43l0-.09a.14.14,0,0,1,0,.09A.18.18,0,0,1,75.36,16.64Z"/></g><g id="Container-2-4" data-name="Container-2" class="cls-5"><path d="M70.3,4h0a48.91,48.91,0,0,1,7.3.45,3.56,3.56,0,0,1,3.17,3.16,41.27,41.27,0,0,1,0,8.75,3.41,3.41,0,0,1-3.18,3.15,49.58,49.58,0,0,1-7.52.49,50.45,50.45,0,0,1-7.56-.49,3.63,3.63,0,0,1-3.19-3.23,29,29,0,0,1,0-8.58c.5-2.11,1.36-3,3.17-3.25A60.16,60.16,0,0,1,70.3,4m0-1a60.11,60.11,0,0,0-7.95.46c-2.49.36-3.49,1.84-4,4a30.11,30.11,0,0,0,0,9,4.63,4.63,0,0,0,4,4,52,52,0,0,0,7.72.5,51.42,51.42,0,0,0,7.69-.5,4.42,4.42,0,0,0,4-4,42.68,42.68,0,0,0,0-9,4.56,4.56,0,0,0-4-4A51.38,51.38,0,0,0,70.3,3Z"/></g></g><g id="_24_Saudi_Arabia_Disabled" data-name="24_Saudi Arabia_Disabled"><g class="cls-6"><rect class="cls-7" x="29" y="3" width="24" height="18"/><path class="cls-8" d="M33.24,9.16c0,.29.22.38.37.37A.38.38,0,0,0,34,9.18v-1a.09.09,0,1,1,.18,0v1a.36.36,0,0,0,.15.3.36.36,0,0,0,.2.06.35.35,0,0,0,.14,0l.09,0c0,.83-.05,1.55-.05,1.57a.19.19,0,0,0,.17.19h0a.18.18,0,0,0,.18-.17c0-.06.06-.85,0-1.73l.06,0a.26.26,0,0,1,.15,0,.51.51,0,0,0,.59-.1l0,0A.55.55,0,0,0,36,8.64l-.15-.46a.17.17,0,0,0,.21-.09A.18.18,0,0,0,36,7.85l-.36-.18a.19.19,0,0,0-.2,0,.19.19,0,0,0,0,.19l.29.87a.2.2,0,0,1,0,.18l0,0a.14.14,0,0,1-.17,0,.55.55,0,0,0-.38,0,5.59,5.59,0,0,0-.22-1.54.17.17,0,0,0-.22-.12.19.19,0,0,0-.12.23A6.15,6.15,0,0,1,34.7,9.1l-.22.08v-1a.45.45,0,1,0-.89,0v.87l-.18-.9A.18.18,0,0,0,33.19,8a.18.18,0,0,0-.14.21Z"/><path class="cls-8" d="M33.59,7.65a.18.18,0,0,0,.18-.18V7.3a.18.18,0,0,0-.36,0v.17A.18.18,0,0,0,33.59,7.65Z"/><path class="cls-8" d="M35.38,7.47h.18a.18.18,0,0,0,.18-.17.18.18,0,0,0-.18-.18h-.18a.18.18,0,0,0-.18.18A.18.18,0,0,0,35.38,7.47Z"/><path class="cls-8" d="M34.21,9.83l-.89.54a.16.16,0,0,0-.06.24.16.16,0,0,0,.15.09l.09,0,.9-.54a.18.18,0,1,0-.19-.31Z"/><path class="cls-8" d="M36.63,10.15h0a.37.37,0,0,0,.09.16.33.33,0,0,0,.3.12.46.46,0,0,0,.37-.19l0,0a.36.36,0,0,0,.32,0,.68.68,0,0,0,.32-.63.19.19,0,0,0-.19-.17.18.18,0,0,0-.17.18s0,.22-.12.3a.34.34,0,0,1-.06-.15.17.17,0,0,0-.19-.15.18.18,0,0,0-.17.18s0,.25-.18.27a.44.44,0,0,1,0-.23.17.17,0,0,0-.07-.19.2.2,0,0,0-.21,0l-.1.07c0-1-.15-2.26-.15-2.27a.18.18,0,0,0-.2-.16.17.17,0,0,0-.16.19s.13,1.42.17,2.49l0,0a.46.46,0,0,0-.39-.31.66.66,0,0,0-.64.4.42.42,0,0,0,.14.53.61.61,0,0,0,.54,0,1.56,1.56,0,0,1-.3.55.71.71,0,0,1-.57.29.44.44,0,0,1-.35-.15,1.06,1.06,0,0,1-.19-.64.18.18,0,0,0-.17-.19.17.17,0,0,0-.18.17,1.31,1.31,0,0,0,.28.9.81.81,0,0,0,.6.27h0a1.12,1.12,0,0,0,.83-.42,2,2,0,0,0,.41-.92,2,2,0,0,1-.86,1.61.9.9,0,0,1-.9.07.78.78,0,0,1-.4-.76.17.17,0,0,0-.15-.2.18.18,0,0,0-.2.16,1.11,1.11,0,0,0,.59,1.12,1.19,1.19,0,0,0,.54.13,1.36,1.36,0,0,0,.71-.21,2.41,2.41,0,0,0,1-1.92C36.64,10.41,36.63,10.28,36.63,10.15Zm-1.08.18s0-.09,0-.1a.3.3,0,0,1,.25-.18h0s.09,0,.11.15,0,0,0,0C35.73,10.36,35.59,10.36,35.55,10.33Z"/><path class="cls-8" d="M33.68,12a.19.19,0,0,0-.25.06s0,0,0,.05v0a1.24,1.24,0,0,1,0-.61.17.17,0,0,0-.12-.21.17.17,0,0,0-.22.12,1.46,1.46,0,0,0,0,.83c.08.22.21.27.3.28h0a.45.45,0,0,0,.35-.25A.19.19,0,0,0,33.68,12Z"/><path class="cls-8" d="M37,8.73a.17.17,0,0,0,.11,0L38,8l0,0a.45.45,0,0,0,.22-.39.45.45,0,0,0-.9,0,.46.46,0,0,0,.17.35l-.64.5a.17.17,0,0,0,0,.25A.15.15,0,0,0,37,8.73Zm.81-1.26a.1.1,0,0,1,.09.09.09.09,0,0,1-.18,0A.1.1,0,0,1,37.8,7.47Z"/><path class="cls-8" d="M37.59,8.56a.18.18,0,0,0-.23.11.56.56,0,0,0,.07.53.36.36,0,0,0,.27.1.81.81,0,0,0,.25,0,.18.18,0,1,0-.12-.34l-.14,0a.3.3,0,0,1,0-.16A.18.18,0,0,0,37.59,8.56Z"/><path class="cls-8" d="M39.64,7.82h0a.17.17,0,0,0,.17-.13L40,7.34a.18.18,0,0,0-.13-.22.17.17,0,0,0-.22.12l-.1.36A.17.17,0,0,0,39.64,7.82Z"/><path class="cls-8" d="M38.59,7.8l.1,0a.16.16,0,0,0,.15-.09.18.18,0,0,0-.06-.24.07.07,0,0,1,0-.09.12.12,0,0,1,.08-.12A.19.19,0,0,0,39,7.05a.2.2,0,0,0-.23-.12.5.5,0,0,0-.33.43A.46.46,0,0,0,38.59,7.8Z"/><path class="cls-8" d="M37.17,10.7a.18.18,0,0,0-.18.18.19.19,0,0,0,.15.18.33.33,0,0,1,0,.18.18.18,0,1,0,.36,0C37.53,10.71,37.19,10.7,37.17,10.7Z"/><path class="cls-8" d="M40.21,10h.07a.64.64,0,0,0,.43-.21.18.18,0,0,0,0-.25.19.19,0,0,0-.26,0c-.11.11-.16.11-.18.11a.16.16,0,0,1-.07-.07A.18.18,0,0,0,40,9.47a.18.18,0,0,0-.08.24A.52.52,0,0,0,40.21,10Z"/><path class="cls-8" d="M43.26,8.7h0A.19.19,0,0,0,43,8.58a.18.18,0,0,0-.11.23.4.4,0,0,0,.29.28h0a.45.45,0,0,0,.35-.24.19.19,0,0,0-.05-.25.19.19,0,0,0-.25.05Z"/><path class="cls-8" d="M42.91,12c0-.77,0-1.49-.08-2.11a9.94,9.94,0,0,1,.63,1.27.18.18,0,0,0,.17.12h.06a.18.18,0,0,0,.1-.23,11.32,11.32,0,0,0-1-2c-.1-1-.21-1.58-.21-1.59a.18.18,0,0,0-.21-.14.19.19,0,0,0-.15.21s.06.32.13.85L42,7.82h0a.17.17,0,0,0,.22-.11.19.19,0,0,0-.11-.23l-.54-.18a.2.2,0,0,0-.2.07l0,0a.38.38,0,0,0-.37-.08c-.08,0-.17.11-.17.31a1.71,1.71,0,0,0,.12.51c.11.3.17.52.06.63a.19.19,0,0,1-.18.06c-.11,0-.22-.18-.29-.39l0,0a3.12,3.12,0,0,0-.05-1,.18.18,0,0,0-.21-.14.19.19,0,0,0-.15.21A1.68,1.68,0,0,1,40,8.79a.33.33,0,0,1-.27.12.09.09,0,0,1-.08,0,1.78,1.78,0,0,1-.1-1,.18.18,0,0,0,0-.14.17.17,0,0,0-.14-.07c-.3,0-.42.35-.52.66,0,.14-.13.39-.19.42s-.18-.32-.18-.54A.18.18,0,0,0,38.25,8h0a.18.18,0,0,0-.18.18c0,.42.14.9.54.9s.41-.32.51-.62a1.08,1.08,0,0,0,.21.63.44.44,0,0,0,.35.17A.69.69,0,0,0,40.23,9l.06-.09a.77.77,0,0,0,.38.28h.13a.58.58,0,0,0,.39-.16L41.25,9a.3.3,0,0,0,.13,0,.7.7,0,0,0,.37-.11.18.18,0,1,0-.19-.3.35.35,0,0,1-.2.05A2,2,0,0,0,41.22,8a1.27,1.27,0,0,1-.09-.3s0,0,0,0a.18.18,0,0,0,.25,0l0,0c.18.26.57.8,1,1.42.07.76.14,1.73.14,2.8a.18.18,0,1,0,.36,0Z"/><path class="cls-8" d="M43.09,8a.18.18,0,1,0,.36,0,2,2,0,0,0-.2-.62A.19.19,0,0,0,43,7.31a.19.19,0,0,0-.08.25A1.64,1.64,0,0,1,43.09,8Z"/><path class="cls-8" d="M42.27,12a.18.18,0,0,0-.24.07l-.07.11a.88.88,0,0,1,0-.33.2.2,0,0,0-.08-.21.18.18,0,0,0-.22,0l-.36.36a.18.18,0,0,0,.25.25h0a.39.39,0,0,0,.1.19.3.3,0,0,0,.23.1H42c.2,0,.33-.26.36-.32A.17.17,0,0,0,42.27,12Z"/><path class="cls-8" d="M42.2,10.53H40.94l0-.12c.51-.11.81-.27.9-.49a.4.4,0,0,0-.07-.4.43.43,0,0,0-.45-.19c-.26.05-.49.32-.65.76a2,2,0,0,0-1,.45,2.68,2.68,0,0,0-.38-1.19.16.16,0,0,0-.24,0,.17.17,0,0,0,0,.25,2.64,2.64,0,0,1,.32,1.33,1.41,1.41,0,0,1-1.07,1.43c-.2,0-.29-.23-.33-.44a2,2,0,0,0,.86-.95,1.44,1.44,0,0,0-.12-1v0h0a.18.18,0,0,0,.25-.25c-.1-.11-.31-.27-.49-.19s-.17.11-.17.32a.8.8,0,0,0,.08.28,1.11,1.11,0,0,1,.1.75,1.43,1.43,0,0,1-.58.64.18.18,0,0,0-.14-.06h0a.18.18,0,0,0-.18.18v.1a8.36,8.36,0,0,1-1.15.63.18.18,0,0,0-.09.24.19.19,0,0,0,.17.1h.07a10.61,10.61,0,0,0,1.07-.58.69.69,0,0,0,.65.59,1.52,1.52,0,0,0,1.2-.87.88.88,0,0,0,.12.17,2,2,0,0,0,1.37.52.18.18,0,0,0,.18-.17.17.17,0,0,0-.17-.18.41.41,0,0,1-.22-.11.31.31,0,0,1-.06-.24c0-.22.73-.38,1.36-.39a.19.19,0,0,0,.16-.12l.18-.51a.18.18,0,0,0,0-.16A.18.18,0,0,0,42.2,10.53Zm-.78-.85h0s0,0,.08.05,0,0,0,.06-.14.13-.4.21C41.24,9.78,41.36,9.69,41.42,9.68ZM40.33,12a1.09,1.09,0,0,1-.49-.3.74.74,0,0,1-.16-.63l0-.08c.25,0,.92.08,1,.27a.62.62,0,0,0-.38.47A.74.74,0,0,0,40.33,12Z"/><path class="cls-8" d="M44.15,8,44,7.42a.18.18,0,0,0-.21-.12.18.18,0,0,0-.14.19c.12,1.24.35,3.65.35,3.93s-.44.74-1.15,1.09a.17.17,0,0,0-.08.24.16.16,0,0,0,.16.1.12.12,0,0,0,.08,0c.65-.32,1.35-.9,1.35-1.41,0-.27-.18-2.17-.28-3.24A.18.18,0,0,0,44.15,8Z"/><path class="cls-8" d="M45.65,9.57a.16.16,0,0,0,.22,0A.18.18,0,0,0,46,9.4a.87.87,0,0,1,0-.35.17.17,0,0,0,.18-.15A.17.17,0,0,0,46,8.7a.33.33,0,0,0-.3.1.56.56,0,0,0-.09.19l-.2-.21a.18.18,0,1,0-.26.26Z"/><path class="cls-8" d="M46.05,9.76l-.67.48a.18.18,0,0,0,0,.25.19.19,0,0,0,.15.08.14.14,0,0,0,.1,0l.67-.48a.18.18,0,1,0-.21-.29Z"/><path class="cls-8" d="M46,10.43a.19.19,0,0,0,0,.24.55.55,0,0,1,0,.26.18.18,0,0,0,.17.19h0a.18.18,0,0,0,.17-.18c0-.36-.1-.5-.15-.54A.2.2,0,0,0,46,10.43Z"/><path class="cls-8" d="M47.56,11.75a.18.18,0,0,0,.18-.17c0-.27,0-.56,0-.87a5.64,5.64,0,0,1,.42.78.18.18,0,0,0,.17.11l.07,0a.17.17,0,0,0,.09-.23,9.41,9.41,0,0,0-.82-1.42c-.07-.65-.16-1.3-.23-1.76a.2.2,0,0,0,.11,0A.18.18,0,0,0,47.59,8s0,0,0,0a.61.61,0,0,1,.06.44.18.18,0,0,0,.14.21h0A.18.18,0,0,0,48,8.54a1,1,0,0,0-.12-.7.18.18,0,0,0-.25-.06.21.21,0,0,0-.08.17.14.14,0,0,0,0-.06l-.3-.47A.19.19,0,0,0,47,7.35a.2.2,0,0,0-.11.2s.14.8.26,1.75l-.4-.57c0-.27,0-.52-.07-.72l0,0a.17.17,0,0,0,.08-.24l-.18-.36a.17.17,0,0,0-.33.1c0,.22,0,.45.06.7l-.31-.4a.1.1,0,0,0,0-.06A.2.2,0,0,0,46,7.49l-.36-.18a.2.2,0,0,0-.22.05.2.2,0,0,0,0,.23s.45.56,1,1.28a14,14,0,0,1,.06,2.67.15.15,0,0,1-.07.11c-.1,0-.36-.23-.49-.49S45.75,11,45.7,11c-.2,0-.27.22-.41.61a2.77,2.77,0,0,1-.35.75,2,2,0,0,1-.23-.7.18.18,0,0,0,.17.12.18.18,0,0,0,.18-.18c0-.27-.19-2.31-.29-3.42a.17.17,0,0,0,.1-.22l-.18-.54a.17.17,0,0,0-.2-.12.19.19,0,0,0-.15.19c.13,1.28.35,3.75.36,4.09h0a.18.18,0,0,0-.2-.15.19.19,0,0,0-.16.2c.06.37.19,1,.5,1.1l.09,0a.38.38,0,0,0,.26-.12,2.74,2.74,0,0,0,.44-.89c0-.08.06-.17.09-.24.16.24.45.54.74.51.1,0,.29-.06.38-.35a9.87,9.87,0,0,0,0-2.23l.44.64a14.31,14.31,0,0,1,.1,1.52A.18.18,0,0,0,47.56,11.75Z"/><path class="cls-8" d="M48.92,10.81c-.13-.94-.31-2-.42-2.71a.2.2,0,0,0,.15,0,.19.19,0,0,0,0-.26l-.33-.42a.18.18,0,0,0-.21-.06.2.2,0,0,0-.11.2s.33,1.86.52,3.33a1.65,1.65,0,0,1-.29,1.34.79.79,0,0,1-.66.25.18.18,0,0,0,0,.36h.09a1.11,1.11,0,0,0,.85-.36A2,2,0,0,0,48.92,10.81Z"/><path class="cls-8" d="M47,12a.19.19,0,0,0,0,.26s0,0,0,0l0,0a.19.19,0,0,0,0,.26.21.21,0,0,0,.13.05.18.18,0,0,0,.12-.05.42.42,0,0,0,.14-.31.4.4,0,0,0-.15-.29A.16.16,0,0,0,47,12Z"/><path class="cls-8" d="M46.31,15.92H45.06v-.17a.18.18,0,1,0-.36,0v.17H35.2a2.5,2.5,0,0,0,1.61.54H44.7v.36a.18.18,0,0,0,.18.18h1.43a.54.54,0,0,0,.54-.54A.54.54,0,0,0,46.31,15.92Zm0,.72H45.06v-.18h1.43l0-.09a.14.14,0,0,1,0,.09A.18.18,0,0,1,46.31,16.64Z"/></g><g id="Container-2-5" data-name="Container-2" class="cls-5"><path d="M41.3,4h0a48.91,48.91,0,0,1,7.3.45,3.56,3.56,0,0,1,3.17,3.16,41.27,41.27,0,0,1,0,8.75,3.41,3.41,0,0,1-3.18,3.15,49.58,49.58,0,0,1-7.52.49,50.45,50.45,0,0,1-7.56-.49,3.63,3.63,0,0,1-3.19-3.23,29,29,0,0,1,0-8.58c.5-2.11,1.36-3,3.17-3.25A60.16,60.16,0,0,1,41.3,4m0-1a60.11,60.11,0,0,0-7.95.46c-2.49.36-3.49,1.84-4,4a30.11,30.11,0,0,0,0,9,4.63,4.63,0,0,0,4,4,52,52,0,0,0,7.72.5,51.42,51.42,0,0,0,7.69-.5,4.42,4.42,0,0,0,4-4,42.68,42.68,0,0,0,0-9,4.56,4.56,0,0,0-4-4A51.38,51.38,0,0,0,41.3,3Z"/></g></g><g id="_24_Saudi_Arabia_Normal" data-name="24_Saudi Arabia_Normal"><g class="cls-9"><rect class="cls-10" y="3" width="24" height="18"/><path class="cls-11" d="M4.24,9.16c0,.29.22.38.37.37A.38.38,0,0,0,5,9.18v-1a.09.09,0,0,1,.18,0v1a.36.36,0,0,0,.15.3.36.36,0,0,0,.2.06.35.35,0,0,0,.14,0l.09,0c0,.83,0,1.55,0,1.57a.19.19,0,0,0,.17.19h0A.18.18,0,0,0,6,11.07c0-.06.06-.85,0-1.73l.06,0a.26.26,0,0,1,.15,0,.51.51,0,0,0,.59-.1l0,0A.55.55,0,0,0,7,8.64l-.15-.46a.17.17,0,0,0,.21-.09A.18.18,0,0,0,7,7.85l-.36-.18a.19.19,0,0,0-.2,0,.19.19,0,0,0-.05.19l.29.87a.2.2,0,0,1,0,.18l0,0a.14.14,0,0,1-.17,0,.55.55,0,0,0-.38,0,5.59,5.59,0,0,0-.22-1.54.17.17,0,0,0-.22-.12.19.19,0,0,0-.12.23A6.15,6.15,0,0,1,5.7,9.1l-.22.08v-1a.45.45,0,1,0-.89,0v.87l-.18-.9A.18.18,0,0,0,4.19,8a.18.18,0,0,0-.14.21Z"/><path class="cls-11" d="M4.59,7.65a.18.18,0,0,0,.18-.18V7.3a.18.18,0,0,0-.36,0v.17A.18.18,0,0,0,4.59,7.65Z"/><path class="cls-11" d="M6.38,7.47h.18a.18.18,0,0,0,.18-.17.18.18,0,0,0-.18-.18H6.38a.18.18,0,0,0-.18.18A.18.18,0,0,0,6.38,7.47Z"/><path class="cls-11" d="M5.21,9.83l-.89.54a.16.16,0,0,0-.06.24.16.16,0,0,0,.15.09l.09,0,.9-.54a.18.18,0,0,0-.19-.31Z"/><path class="cls-11" d="M7.63,10.15h0a.37.37,0,0,0,.09.16.33.33,0,0,0,.3.12.46.46,0,0,0,.37-.19l0,0a.36.36,0,0,0,.32,0,.68.68,0,0,0,.32-.63.19.19,0,0,0-.19-.17.18.18,0,0,0-.17.18s0,.22-.12.3a.34.34,0,0,1-.06-.15.17.17,0,0,0-.19-.15.18.18,0,0,0-.17.18s0,.25-.18.27a.44.44,0,0,1,0-.23.17.17,0,0,0-.07-.19.2.2,0,0,0-.21,0l-.1.07c0-1-.15-2.26-.15-2.27a.18.18,0,0,0-.2-.16.17.17,0,0,0-.16.19s.13,1.42.17,2.49l0,0a.46.46,0,0,0-.39-.31.66.66,0,0,0-.64.4.42.42,0,0,0,.14.53.61.61,0,0,0,.54,0,1.56,1.56,0,0,1-.3.55A.71.71,0,0,1,6,11.5a.44.44,0,0,1-.35-.15,1.06,1.06,0,0,1-.19-.64.18.18,0,0,0-.17-.19.17.17,0,0,0-.18.17,1.31,1.31,0,0,0,.28.9.81.81,0,0,0,.6.27H6a1.12,1.12,0,0,0,.83-.42,2,2,0,0,0,.41-.92,2,2,0,0,1-.86,1.61.9.9,0,0,1-.9.07.78.78,0,0,1-.4-.76.17.17,0,0,0-.15-.2.18.18,0,0,0-.2.16,1.11,1.11,0,0,0,.59,1.12,1.19,1.19,0,0,0,.54.13,1.36,1.36,0,0,0,.71-.21,2.41,2.41,0,0,0,1-1.92C7.64,10.41,7.63,10.28,7.63,10.15Zm-1.08.18s0-.09,0-.1a.3.3,0,0,1,.25-.18h0s.09,0,.11.15,0,0,0,0C6.73,10.36,6.59,10.36,6.55,10.33Z"/><path class="cls-11" d="M4.68,12a.19.19,0,0,0-.25.06s0,0,0,.05v0a1.24,1.24,0,0,1,0-.61.17.17,0,0,0-.12-.21.17.17,0,0,0-.22.12,1.46,1.46,0,0,0,0,.83c.08.22.21.27.3.28h0a.45.45,0,0,0,.35-.25A.19.19,0,0,0,4.68,12Z"/><path class="cls-11" d="M8,8.73a.17.17,0,0,0,.11,0L9,8,9,8a.45.45,0,0,0,.22-.39.45.45,0,0,0-.9,0,.46.46,0,0,0,.17.35l-.64.5a.17.17,0,0,0,0,.25A.15.15,0,0,0,8,8.73ZM8.8,7.47a.1.1,0,0,1,.09.09.09.09,0,1,1-.18,0A.1.1,0,0,1,8.8,7.47Z"/><path class="cls-11" d="M8.59,8.56a.18.18,0,0,0-.23.11.56.56,0,0,0,.07.53.36.36,0,0,0,.27.1.81.81,0,0,0,.25,0,.18.18,0,1,0-.12-.34L8.69,9a.3.3,0,0,1,0-.16A.18.18,0,0,0,8.59,8.56Z"/><path class="cls-11" d="M10.64,7.82h0a.17.17,0,0,0,.17-.13L11,7.34a.18.18,0,0,0-.13-.22.17.17,0,0,0-.22.12l-.1.36A.17.17,0,0,0,10.64,7.82Z"/><path class="cls-11" d="M9.59,7.8l.1,0a.16.16,0,0,0,.15-.09.18.18,0,0,0-.06-.24.07.07,0,0,1,0-.09.12.12,0,0,1,.08-.12A.19.19,0,0,0,10,7.05a.2.2,0,0,0-.23-.12.5.5,0,0,0-.33.43A.46.46,0,0,0,9.59,7.8Z"/><path class="cls-11" d="M8.17,10.7a.18.18,0,0,0-.18.18.19.19,0,0,0,.15.18.33.33,0,0,1,0,.18.18.18,0,0,0,.36,0C8.53,10.71,8.19,10.7,8.17,10.7Z"/><path class="cls-11" d="M11.21,10h.07a.64.64,0,0,0,.43-.21.18.18,0,0,0,0-.25.19.19,0,0,0-.26,0c-.11.11-.16.11-.18.11a.16.16,0,0,1-.07-.07A.18.18,0,0,0,11,9.47a.18.18,0,0,0-.08.24A.52.52,0,0,0,11.21,10Z"/><path class="cls-11" d="M14.26,8.7h0A.19.19,0,0,0,14,8.58a.18.18,0,0,0-.11.23.4.4,0,0,0,.29.28h0a.45.45,0,0,0,.35-.24.19.19,0,0,0,0-.25.19.19,0,0,0-.25.05Z"/><path class="cls-11" d="M13.91,12c0-.77,0-1.49-.08-2.11a9.94,9.94,0,0,1,.63,1.27.18.18,0,0,0,.17.12h.06a.18.18,0,0,0,.1-.23,11.32,11.32,0,0,0-1-2c-.1-1-.21-1.58-.21-1.59a.18.18,0,0,0-.21-.14.19.19,0,0,0-.15.21s.06.32.13.85L13,7.82h0a.17.17,0,0,0,.22-.11.19.19,0,0,0-.11-.23l-.54-.18a.2.2,0,0,0-.2.07l0,0a.38.38,0,0,0-.37-.08c-.08,0-.17.11-.17.31a1.71,1.71,0,0,0,.12.51c.11.3.17.52.06.63a.19.19,0,0,1-.18.06c-.11,0-.22-.18-.29-.39l0,0a3.12,3.12,0,0,0,0-1,.18.18,0,0,0-.21-.14.19.19,0,0,0-.15.21A1.68,1.68,0,0,1,11,8.79a.33.33,0,0,1-.27.12.09.09,0,0,1-.08,0,1.78,1.78,0,0,1-.1-1,.18.18,0,0,0,0-.14.17.17,0,0,0-.14-.07c-.3,0-.42.35-.52.66-.05.14-.13.39-.19.42s-.18-.32-.18-.54A.18.18,0,0,0,9.25,8h0a.18.18,0,0,0-.18.18c0,.42.14.9.54.9s.41-.32.51-.62a1.08,1.08,0,0,0,.21.63.44.44,0,0,0,.35.17A.69.69,0,0,0,11.23,9l.06-.09a.77.77,0,0,0,.38.28h.13a.58.58,0,0,0,.39-.16L12.25,9a.3.3,0,0,0,.13,0,.7.7,0,0,0,.37-.11.18.18,0,1,0-.19-.3.35.35,0,0,1-.2.05A2,2,0,0,0,12.22,8a1.27,1.27,0,0,1-.09-.3l0,0a.18.18,0,0,0,.25,0l0,0c.18.26.57.8,1,1.42.07.76.14,1.73.14,2.8a.18.18,0,0,0,.36,0Z"/><path class="cls-11" d="M14.09,8a.18.18,0,1,0,.36,0,2,2,0,0,0-.2-.62A.19.19,0,0,0,14,7.31a.19.19,0,0,0-.08.25A1.64,1.64,0,0,1,14.09,8Z"/><path class="cls-11" d="M13.27,12a.18.18,0,0,0-.24.07l-.07.11a.88.88,0,0,1,0-.33.2.2,0,0,0-.08-.21.18.18,0,0,0-.22,0l-.36.36a.18.18,0,0,0,.25.25h0a.39.39,0,0,0,.1.19.3.3,0,0,0,.23.1H13c.2,0,.33-.26.36-.32A.17.17,0,0,0,13.27,12Z"/><path class="cls-11" d="M13.2,10.53H11.94l0-.12c.51-.11.81-.27.9-.49a.4.4,0,0,0-.07-.4.43.43,0,0,0-.45-.19c-.26.05-.49.32-.65.76a2,2,0,0,0-1,.45,2.68,2.68,0,0,0-.38-1.19.16.16,0,0,0-.24,0,.17.17,0,0,0-.05.25,2.64,2.64,0,0,1,.32,1.33,1.41,1.41,0,0,1-1.07,1.43c-.2,0-.29-.23-.33-.44a2,2,0,0,0,.86-.95,1.44,1.44,0,0,0-.12-1v0h0a.18.18,0,0,0,.25-.25c-.1-.11-.31-.27-.49-.19s-.17.11-.17.32a.8.8,0,0,0,.08.28,1.11,1.11,0,0,1,.1.75,1.43,1.43,0,0,1-.58.64.18.18,0,0,0-.14-.06h0a.18.18,0,0,0-.18.18v.1a8.36,8.36,0,0,1-1.15.63.18.18,0,0,0-.09.24.19.19,0,0,0,.17.1h.07a10.61,10.61,0,0,0,1.07-.58.69.69,0,0,0,.65.59,1.52,1.52,0,0,0,1.2-.87.88.88,0,0,0,.12.17,2,2,0,0,0,1.37.52.18.18,0,0,0,.18-.17.17.17,0,0,0-.17-.18.41.41,0,0,1-.22-.11.31.31,0,0,1-.06-.24c0-.22.73-.38,1.36-.39a.19.19,0,0,0,.16-.12l.18-.51a.18.18,0,0,0,0-.16A.18.18,0,0,0,13.2,10.53Zm-.78-.85h0s0,0,.08.05,0,0,0,.06-.14.13-.4.21C12.24,9.78,12.36,9.69,12.42,9.68ZM11.33,12a1.09,1.09,0,0,1-.49-.3.74.74,0,0,1-.16-.63l0-.08c.25,0,.92.08,1,.27a.62.62,0,0,0-.38.47A.74.74,0,0,0,11.33,12Z"/><path class="cls-11" d="M15.15,8,15,7.42a.18.18,0,0,0-.21-.12.18.18,0,0,0-.14.19c.12,1.24.35,3.65.35,3.93s-.44.74-1.15,1.09a.17.17,0,0,0-.08.24.16.16,0,0,0,.16.1.12.12,0,0,0,.08,0c.65-.32,1.35-.9,1.35-1.41,0-.27-.18-2.17-.28-3.24A.18.18,0,0,0,15.15,8Z"/><path class="cls-11" d="M16.65,9.57a.16.16,0,0,0,.13.06l.09,0A.18.18,0,0,0,17,9.4a.87.87,0,0,1,0-.35.17.17,0,0,0,.18-.15A.17.17,0,0,0,17,8.7a.33.33,0,0,0-.3.1.56.56,0,0,0-.09.19l-.2-.21a.18.18,0,0,0-.26.26Z"/><path class="cls-11" d="M17.05,9.76l-.67.48a.18.18,0,0,0,0,.25.19.19,0,0,0,.15.08.14.14,0,0,0,.1,0l.67-.48a.18.18,0,0,0-.21-.29Z"/><path class="cls-11" d="M17,10.43a.19.19,0,0,0,0,.24.55.55,0,0,1,0,.26.18.18,0,0,0,.17.19h0a.18.18,0,0,0,.17-.18c0-.36-.1-.5-.15-.54A.2.2,0,0,0,17,10.43Z"/><path class="cls-11" d="M18.56,11.75a.18.18,0,0,0,.18-.17c0-.27,0-.56,0-.87a5.64,5.64,0,0,1,.42.78.18.18,0,0,0,.17.11l.07,0a.17.17,0,0,0,.09-.23,9.41,9.41,0,0,0-.82-1.42c-.07-.65-.16-1.3-.23-1.76a.2.2,0,0,0,.11,0A.18.18,0,0,0,18.59,8s0,0,0,0a.61.61,0,0,1,.06.44.18.18,0,0,0,.14.21h0A.18.18,0,0,0,19,8.54a1,1,0,0,0-.12-.7.18.18,0,0,0-.25-.06.21.21,0,0,0-.08.17.14.14,0,0,0,0-.06l-.3-.47A.19.19,0,0,0,18,7.35a.2.2,0,0,0-.11.2s.14.8.26,1.75l-.4-.57c0-.27-.05-.52-.07-.72l0,0a.17.17,0,0,0,.08-.24l-.18-.36a.17.17,0,0,0-.33.1c0,.22,0,.45.06.7l-.31-.4a.1.1,0,0,0,.05-.06A.2.2,0,0,0,17,7.49l-.36-.18a.2.2,0,0,0-.22.05.2.2,0,0,0,0,.23s.45.56,1,1.28a14,14,0,0,1,.06,2.67.15.15,0,0,1-.07.11c-.1,0-.36-.23-.49-.49S16.75,11,16.7,11s-.27.22-.41.61a2.77,2.77,0,0,1-.35.75,2,2,0,0,1-.23-.7.18.18,0,0,0,.17.12.18.18,0,0,0,.18-.18c0-.27-.19-2.31-.29-3.42a.17.17,0,0,0,.1-.22l-.18-.54a.17.17,0,0,0-.2-.12.19.19,0,0,0-.15.19c.13,1.28.35,3.75.36,4.09h0a.18.18,0,0,0-.2-.15.19.19,0,0,0-.16.2c.06.37.19,1,.5,1.1l.09,0a.38.38,0,0,0,.26-.12,2.74,2.74,0,0,0,.44-.89l.09-.24c.16.24.45.54.74.51.1,0,.29-.06.38-.35a9.87,9.87,0,0,0,0-2.23l.44.64a14.31,14.31,0,0,1,.1,1.52A.18.18,0,0,0,18.56,11.75Z"/><path class="cls-11" d="M19.92,10.81c-.13-.94-.31-2-.42-2.71a.2.2,0,0,0,.15,0,.19.19,0,0,0,0-.26l-.33-.42a.18.18,0,0,0-.21-.06.2.2,0,0,0-.11.2s.33,1.86.52,3.33a1.65,1.65,0,0,1-.29,1.34.79.79,0,0,1-.66.25.18.18,0,0,0,0,.36h.09a1.11,1.11,0,0,0,.85-.36A2,2,0,0,0,19.92,10.81Z"/><path class="cls-11" d="M18,12a.19.19,0,0,0,0,.26s0,0,0,0l0,0a.19.19,0,0,0,0,.26.21.21,0,0,0,.13.05.18.18,0,0,0,.12-.05.42.42,0,0,0,.14-.31.4.4,0,0,0-.15-.29A.16.16,0,0,0,18,12Z"/><path class="cls-11" d="M17.31,15.92H16.06v-.17a.18.18,0,0,0-.36,0v.17H6.2a2.5,2.5,0,0,0,1.61.54H15.7v.36a.18.18,0,0,0,.18.18h1.43a.54.54,0,0,0,.54-.54A.54.54,0,0,0,17.31,15.92Zm0,.72H16.06v-.18h1.43l0-.09a.14.14,0,0,1,0,.09A.18.18,0,0,1,17.31,16.64Z"/></g><g id="Container-2-6" data-name="Container-2" class="cls-5"><path d="M12.3,4h0a48.91,48.91,0,0,1,7.3.45,3.56,3.56,0,0,1,3.17,3.16,41.27,41.27,0,0,1,0,8.75,3.41,3.41,0,0,1-3.18,3.15,49.58,49.58,0,0,1-7.52.49,50.45,50.45,0,0,1-7.56-.49,3.63,3.63,0,0,1-3.19-3.23,29,29,0,0,1,0-8.58c.5-2.11,1.36-3,3.17-3.25A60.16,60.16,0,0,1,12.3,4m0-1a60.11,60.11,0,0,0-8,.46c-2.49.36-3.49,1.84-4,4a30.11,30.11,0,0,0,0,9,4.63,4.63,0,0,0,4,4,52,52,0,0,0,7.72.5,51.42,51.42,0,0,0,7.69-.5,4.42,4.42,0,0,0,4-4,42.68,42.68,0,0,0,0-9,4.56,4.56,0,0,0-4-4A51.38,51.38,0,0,0,12.3,3Z"/></g></g></svg>