<svg xmlns="http://www.w3.org/2000/svg" xmlns:xlink="http://www.w3.org/1999/xlink" width="82" height="24" viewBox="0 0 82 24"><defs><style>.cls-1{fill:none;}.cls-2{clip-path:url(#clip-path);}.cls-3{fill:#ef1d07;}.cls-4{fill:#009145;}.cls-5{fill:#f9d84b;}.cls-6{fill:#0049bf;}.cls-7{opacity:0.05;}.cls-8{clip-path:url(#clip-path-2);}.cls-9{fill:#f2d2ce;}.cls-10{fill:#cef2df;}.cls-11{fill:#f2ebce;}.cls-12{fill:#cedcf2;}.cls-13{clip-path:url(#clip-path-3);}.cls-14{fill:#d81e05;}.cls-15{fill:#007a3d;}.cls-16{fill:#fcd116;}.cls-17{fill:#0038a8;}</style><clipPath id="clip-path"><path id="Container-2" class="cls-1" d="M62.35,3.46a64.59,64.59,0,0,1,15.41,0,4.56,4.56,0,0,1,4,4,42.68,42.68,0,0,1,0,9,4.42,4.42,0,0,1-4,4,59.32,59.32,0,0,1-15.41,0,4.63,4.63,0,0,1-4-4,30.11,30.11,0,0,1,0-9C58.86,5.3,59.86,3.82,62.35,3.46Z"/></clipPath><clipPath id="clip-path-2"><path id="Container-2-2" data-name="Container-2" class="cls-1" d="M33.35,3.46a64.59,64.59,0,0,1,15.41,0,4.56,4.56,0,0,1,4,4,42.68,42.68,0,0,1,0,9,4.42,4.42,0,0,1-4,4,59.32,59.32,0,0,1-15.41,0,4.63,4.63,0,0,1-4-4,30.11,30.11,0,0,1,0-9C29.86,5.3,30.86,3.82,33.35,3.46Z"/></clipPath><clipPath id="clip-path-3"><path id="Container-2-3" data-name="Container-2" class="cls-1" d="M4.35,3.44a64.59,64.59,0,0,1,15.41,0,4.57,4.57,0,0,1,4,4,42.59,42.59,0,0,1,0,9,4.4,4.4,0,0,1-4,4,59.32,59.32,0,0,1-15.41,0,4.63,4.63,0,0,1-4-4,30,30,0,0,1,0-9C.86,5.28,1.86,3.81,4.35,3.44Z"/></clipPath></defs><g id="_24_Sami_Hoover" data-name="24_Sami_Hoover"><g class="cls-2"><rect id="Red" class="cls-3" x="58" y="3" width="7" height="18"/><rect id="Green" class="cls-4" x="65" y="3" width="2" height="18"/><rect id="Yellow" class="cls-5" x="67" y="3" width="2" height="18"/><rect id="Blue" class="cls-6" x="68.99" y="3" width="13.01" height="18"/><path id="Blue_Circle" data-name="Blue Circle" class="cls-6" d="M67,18A6,6,0,1,1,67,6V7a5,5,0,0,0,0,10Z"/><path id="Red_Circle" data-name="Red Circle" class="cls-3" d="M67,18V17A5,5,0,0,0,67,7V6a6,6,0,1,1,0,12Z"/></g><g id="Container-2-4" data-name="Container-2" class="cls-7"><path d="M70.3,4h0a48.91,48.91,0,0,1,7.3.45,3.56,3.56,0,0,1,3.17,3.16,41.27,41.27,0,0,1,0,8.75,3.41,3.41,0,0,1-3.18,3.15,49.58,49.58,0,0,1-7.52.49,50.45,50.45,0,0,1-7.56-.49,3.63,3.63,0,0,1-3.19-3.23,29,29,0,0,1,0-8.58c.5-2.11,1.36-3,3.17-3.25A60.16,60.16,0,0,1,70.3,4m0-1a60.11,60.11,0,0,0-7.95.46c-2.49.36-3.49,1.84-4,4a30.11,30.11,0,0,0,0,9,4.63,4.63,0,0,0,4,4,52,52,0,0,0,7.72.5,51.42,51.42,0,0,0,7.69-.5,4.42,4.42,0,0,0,4-4,42.68,42.68,0,0,0,0-9,4.56,4.56,0,0,0-4-4A51.38,51.38,0,0,0,70.3,3Z"/></g></g><g id="_24_Sami_Disabled" data-name="24_Sami_Disabled"><g class="cls-8"><rect class="cls-9" x="29" y="2.96" width="7" height="18"/><rect class="cls-10" x="36" y="2.96" width="2" height="18"/><rect class="cls-11" x="38" y="2.96" width="2" height="18"/><rect class="cls-12" x="39.99" y="2.96" width="13.01" height="18"/><path class="cls-12" d="M38,18a6,6,0,0,1-2.34-.47,5.82,5.82,0,0,1-1.9-1.29,6,6,0,0,1-1.29-6.57,5.91,5.91,0,0,1,1.29-1.91,6.15,6.15,0,0,1,1.9-1.29A6,6,0,0,1,38,6V7a5,5,0,0,0,0,10Z"/><path class="cls-9" d="M38,18V17A5,5,0,0,0,38,7V6a6,6,0,0,1,2.34.47,6.15,6.15,0,0,1,1.9,1.29,5.91,5.91,0,0,1,1.29,1.91,6,6,0,0,1-1.29,6.57,5.82,5.82,0,0,1-1.9,1.29A6,6,0,0,1,38,18Z"/></g><g id="Container-2-5" data-name="Container-2" class="cls-7"><path d="M41.3,4h0a48.91,48.91,0,0,1,7.3.45,3.56,3.56,0,0,1,3.17,3.16,41.27,41.27,0,0,1,0,8.75,3.41,3.41,0,0,1-3.18,3.15,49.58,49.58,0,0,1-7.52.49,50.45,50.45,0,0,1-7.56-.49,3.63,3.63,0,0,1-3.19-3.23,29,29,0,0,1,0-8.58c.5-2.11,1.36-3,3.17-3.25A60.16,60.16,0,0,1,41.3,4m0-1a60.11,60.11,0,0,0-7.95.46c-2.49.36-3.49,1.84-4,4a30.11,30.11,0,0,0,0,9,4.63,4.63,0,0,0,4,4,52,52,0,0,0,7.72.5,51.42,51.42,0,0,0,7.69-.5,4.42,4.42,0,0,0,4-4,42.68,42.68,0,0,0,0-9,4.56,4.56,0,0,0-4-4A51.38,51.38,0,0,0,41.3,3Z"/></g></g><g id="_24_Sami_Normal" data-name="24_Sami_Normal"><g class="cls-13"><rect class="cls-14" y="3" width="7" height="18"/><rect class="cls-15" x="7" y="3" width="2" height="18"/><rect class="cls-16" x="9" y="3" width="2" height="18"/><rect class="cls-17" x="10.99" y="3" width="13.01" height="18"/><path class="cls-17" d="M9,18A6,6,0,1,1,9,6V7A5,5,0,0,0,9,17Z"/><path class="cls-14" d="M9,18V17A5,5,0,0,0,9,7V6A6,6,0,1,1,9,18Z"/></g><g id="Container-2-6" data-name="Container-2" class="cls-7"><path d="M12.3,4h0a48.91,48.91,0,0,1,7.3.45,3.56,3.56,0,0,1,3.17,3.16,41.27,41.27,0,0,1,0,8.75,3.41,3.41,0,0,1-3.18,3.15,49.58,49.58,0,0,1-7.52.49,50.45,50.45,0,0,1-7.56-.49,3.63,3.63,0,0,1-3.19-3.23,29,29,0,0,1,0-8.58c.5-2.11,1.36-3,3.17-3.25A60.16,60.16,0,0,1,12.3,4m0-1a60.11,60.11,0,0,0-8,.46c-2.49.36-3.49,1.84-4,4a30.11,30.11,0,0,0,0,9,4.63,4.63,0,0,0,4,4,52,52,0,0,0,7.72.5,51.42,51.42,0,0,0,7.69-.5,4.42,4.42,0,0,0,4-4,42.68,42.68,0,0,0,0-9,4.56,4.56,0,0,0-4-4A51.38,51.38,0,0,0,12.3,3Z"/></g></g></svg>