<svg xmlns="http://www.w3.org/2000/svg" xmlns:xlink="http://www.w3.org/1999/xlink" width="82" height="24" viewBox="0 0 82 24"><defs><style>.cls-1{fill:none;}.cls-2{clip-path:url(#clip-path);}.cls-3{fill:#e50000;}.cls-4{fill:#f9f9f9;}.cls-5{fill:#007f00;}.cls-6{fill:#f7c219;}.cls-7{opacity:0.05;}.cls-8{clip-path:url(#clip-path-2);}.cls-9{fill:#f2cece;}.cls-10{fill:#f2f2f2;}.cls-11{fill:#cef2ce;}.cls-12{fill:#f2e9ce;}.cls-13{clip-path:url(#clip-path-3);}.cls-14{fill:#c00;}.cls-15{fill:#fff;}.cls-16{fill:#060;}.cls-17{fill:#f8c300;}</style><clipPath id="clip-path"><path id="Container-2" class="cls-1" d="M62.35,3.46a64.59,64.59,0,0,1,15.41,0,4.56,4.56,0,0,1,4,4,42.68,42.68,0,0,1,0,9,4.42,4.42,0,0,1-4,4,59.32,59.32,0,0,1-15.41,0,4.63,4.63,0,0,1-4-4,30.11,30.11,0,0,1,0-9C58.86,5.3,59.86,3.82,62.35,3.46Z"/></clipPath><clipPath id="clip-path-2"><path id="Container-2-2" data-name="Container-2" class="cls-1" d="M33.35,3.46a64.59,64.59,0,0,1,15.41,0,4.56,4.56,0,0,1,4,4,42.68,42.68,0,0,1,0,9,4.42,4.42,0,0,1-4,4,59.32,59.32,0,0,1-15.41,0,4.63,4.63,0,0,1-4-4,30.11,30.11,0,0,1,0-9C29.86,5.3,30.86,3.82,33.35,3.46Z"/></clipPath><clipPath id="clip-path-3"><path id="Container-2-3" data-name="Container-2" class="cls-1" d="M4.35,3.46a64.59,64.59,0,0,1,15.41,0,4.56,4.56,0,0,1,4,4,42.68,42.68,0,0,1,0,9,4.42,4.42,0,0,1-4,4,59.32,59.32,0,0,1-15.41,0,4.63,4.63,0,0,1-4-4,30.11,30.11,0,0,1,0-9C.86,5.3,1.86,3.82,4.35,3.46Z"/></clipPath></defs><g id="_24_Tajikistan_Normal_copy" data-name="24_Tajikistan_Normal copy"><g class="cls-2"><rect class="cls-3" x="58" y="3" width="24" height="6"/><rect class="cls-4" x="58" y="9" width="24" height="6"/><rect class="cls-5" x="58" y="15" width="24" height="6"/><path class="cls-6" d="M68.33,13.78a1,1,0,0,0,.4-.42.88.88,0,0,0,.88.09,1.06,1.06,0,0,0,.39-.33,1.06,1.06,0,0,0,.39.33.88.88,0,0,0,.88-.09,1,1,0,0,0,.4.42,1,1,0,0,0,.41.09,1.25,1.25,0,0,0,.48-.1l-.08-.22a.89.89,0,0,1-.7,0,.7.7,0,0,1-.34-.42l0-.17-.15.12a.68.68,0,0,1-.74.14.65.65,0,0,1-.38-.41v-1a.34.34,0,0,1,.3-.19.35.35,0,0,1,.14,0l.14.06,0-.16a.69.69,0,0,0-1.36,0l0,.16.14-.06a.35.35,0,0,1,.14,0,.34.34,0,0,1,.3.19v1a.65.65,0,0,1-.38.41.68.68,0,0,1-.74-.14L68.62,13l-.06.17a.7.7,0,0,1-.34.42.89.89,0,0,1-.7,0l-.08.22a1.25,1.25,0,0,0,.48.1A1,1,0,0,0,68.33,13.78Zm1.25-2.37h0a.5.5,0,0,1,.92,0,.5.5,0,0,0-.46.22A.5.5,0,0,0,69.58,11.41Z"/><path class="cls-6" d="M67.92,14.54l.08.23a7.54,7.54,0,0,1,4,0l.08-.23a7.87,7.87,0,0,0-4.16,0Z"/><path class="cls-6" d="M70,14a.39.39,0,0,0,.31-.18.53.53,0,0,0-.19-.05h0a.15.15,0,1,0-.24,0h0a.53.53,0,0,0-.19.05A.39.39,0,0,0,70,14Z"/><path class="cls-6" d="M68.9,14.13a.41.41,0,0,0,.27-.23.44.44,0,0,0-.2,0h0a.28.28,0,0,0-.17-.21.29.29,0,0,0-.07.26h0a.39.39,0,0,0-.17.09A.37.37,0,0,0,68.9,14.13Z"/><path class="cls-6" d="M71.2,13.66a.28.28,0,0,0-.17.21h0a.44.44,0,0,0-.2,0,.41.41,0,0,0,.27.23.36.36,0,0,0,.34-.11.39.39,0,0,0-.17-.09h0A.29.29,0,0,0,71.2,13.66Z"/><path class="cls-6" d="M70,9.24l-.08.24h-.26s0,0,0,.06l.21.16-.08.24s0,.06.05,0L70,9.83l.21.15a0,0,0,0,0,.05,0l-.08-.24.21-.16s0-.06,0-.06h-.26L70,9.24A0,0,0,0,0,70,9.24Z"/><path class="cls-6" d="M68.5,9.64l-.08.24h-.25a0,0,0,0,0,0,.07l.2.15-.07.24a0,0,0,0,0,0,0l.21-.15.2.15a0,0,0,0,0,.06,0l-.08-.24.21-.15s0-.07,0-.07h-.26l-.08-.24A0,0,0,0,0,68.5,9.64Z"/><path class="cls-6" d="M67.43,10.72l-.08.24h-.26s0,0,0,.07l.21.15-.08.24s0,.06,0,0l.21-.15.21.15a0,0,0,0,0,0,0l-.07-.24.2-.15a0,0,0,0,0,0-.07h-.26l-.08-.24A0,0,0,0,0,67.43,10.72Z"/><path class="cls-6" d="M67,12.18l-.08.24H66.7a0,0,0,0,0,0,.06l.2.15-.08.24a0,0,0,0,0,.06,0l.21-.15.2.15a0,0,0,0,0,.06,0l-.08-.24.21-.15a0,0,0,0,0,0-.06h-.26l-.08-.24A0,0,0,0,0,67,12.18Z"/><path class="cls-6" d="M71.5,9.64l.08.24h.25a0,0,0,0,1,0,.07l-.21.15.08.24a0,0,0,0,1-.06,0l-.2-.15-.21.15a0,0,0,0,1-.06,0l.08-.24-.2-.15a0,0,0,0,1,0-.07h.25l.08-.24A0,0,0,0,1,71.5,9.64Z"/><path class="cls-6" d="M72.57,10.72l.09.24h.25a0,0,0,0,1,0,.07l-.2.15.07.24a0,0,0,0,1,0,0l-.21-.15-.21.15s-.06,0,0,0l.08-.24L72.15,11s0-.07,0-.07h.26l.08-.24A0,0,0,0,1,72.57,10.72Z"/><path class="cls-6" d="M73,12.18l.08.24h.26a0,0,0,0,1,0,.06l-.21.15.08.24a0,0,0,0,1-.06,0l-.2-.15-.21.15a0,0,0,0,1,0,0l.07-.24-.2-.15a0,0,0,0,1,0-.06h.25l.08-.24A0,0,0,0,1,73,12.18Z"/></g><g id="Container-2-4" data-name="Container-2" class="cls-7"><path d="M70.3,4h0a48.91,48.91,0,0,1,7.3.45,3.56,3.56,0,0,1,3.17,3.16,41.27,41.27,0,0,1,0,8.75,3.41,3.41,0,0,1-3.18,3.15,49.58,49.58,0,0,1-7.52.49,50.45,50.45,0,0,1-7.56-.49,3.63,3.63,0,0,1-3.19-3.23,29,29,0,0,1,0-8.58c.5-2.11,1.36-3,3.17-3.25A60.16,60.16,0,0,1,70.3,4m0-1a60.11,60.11,0,0,0-7.95.46c-2.49.36-3.49,1.84-4,4a30.11,30.11,0,0,0,0,9,4.63,4.63,0,0,0,4,4,52,52,0,0,0,7.72.5,51.42,51.42,0,0,0,7.69-.5,4.42,4.42,0,0,0,4-4,42.68,42.68,0,0,0,0-9,4.56,4.56,0,0,0-4-4A51.38,51.38,0,0,0,70.3,3Z"/></g></g><g id="_24_Tajikistan_Disabled" data-name="24_Tajikistan_Disabled"><g class="cls-8"><rect class="cls-9" x="29" y="3" width="24" height="6"/><rect class="cls-10" x="29" y="9" width="24" height="6"/><rect class="cls-11" x="29" y="15" width="24" height="6"/><path class="cls-12" d="M39.33,13.78a1,1,0,0,0,.4-.42.88.88,0,0,0,.88.09,1.06,1.06,0,0,0,.39-.33,1.06,1.06,0,0,0,.39.33.88.88,0,0,0,.88-.09,1,1,0,0,0,.4.42,1,1,0,0,0,.41.09,1.25,1.25,0,0,0,.48-.1l-.08-.22a.89.89,0,0,1-.7,0,.7.7,0,0,1-.34-.42l0-.17-.15.12a.68.68,0,0,1-.74.14.65.65,0,0,1-.38-.41v-1a.34.34,0,0,1,.3-.19.35.35,0,0,1,.14,0l.14.06,0-.16a.69.69,0,0,0-1.36,0l0,.16.14-.06a.35.35,0,0,1,.14,0,.34.34,0,0,1,.3.19v1a.65.65,0,0,1-.38.41.68.68,0,0,1-.74-.14L39.62,13l-.06.17a.7.7,0,0,1-.34.42.89.89,0,0,1-.7,0l-.08.22a1.25,1.25,0,0,0,.48.1A1,1,0,0,0,39.33,13.78Zm1.25-2.37h0a.5.5,0,0,1,.92,0,.5.5,0,0,0-.46.22A.5.5,0,0,0,40.58,11.41Z"/><path class="cls-12" d="M38.92,14.54l.08.23a7.54,7.54,0,0,1,4,0l.08-.23a7.87,7.87,0,0,0-4.16,0Z"/><path class="cls-12" d="M41,14a.39.39,0,0,0,.31-.18.53.53,0,0,0-.19-.05h0a.15.15,0,1,0-.24,0h0a.53.53,0,0,0-.19.05A.39.39,0,0,0,41,14Z"/><path class="cls-12" d="M39.9,14.13a.41.41,0,0,0,.27-.23.44.44,0,0,0-.2,0h0a.28.28,0,0,0-.17-.21.29.29,0,0,0-.07.26h0a.39.39,0,0,0-.17.09A.37.37,0,0,0,39.9,14.13Z"/><path class="cls-12" d="M42.2,13.66a.28.28,0,0,0-.17.21h0a.44.44,0,0,0-.2,0,.41.41,0,0,0,.27.23.36.36,0,0,0,.34-.11.39.39,0,0,0-.17-.09h0A.29.29,0,0,0,42.2,13.66Z"/><path class="cls-12" d="M41,9.24l-.08.24h-.26s-.05,0,0,.06l.21.16-.08.24s0,.06,0,0L41,9.83l.21.15a0,0,0,0,0,0,0l-.08-.24.21-.16s0-.06,0-.06h-.26L41,9.24A0,0,0,0,0,41,9.24Z"/><path class="cls-12" d="M39.5,9.64l-.08.24h-.25a0,0,0,0,0,0,.07l.2.15-.07.24a0,0,0,0,0,0,0l.21-.15.2.15a0,0,0,0,0,.06,0l-.08-.24.21-.15s0-.07,0-.07h-.26l-.08-.24A0,0,0,0,0,39.5,9.64Z"/><path class="cls-12" d="M38.43,10.72l-.08.24h-.26s0,0,0,.07l.21.15-.08.24s0,.06,0,0l.21-.15.21.15a0,0,0,0,0,0,0l-.07-.24.2-.15a0,0,0,0,0,0-.07h-.26l-.08-.24A0,0,0,0,0,38.43,10.72Z"/><path class="cls-12" d="M38,12.18l-.08.24H37.7a0,0,0,0,0,0,.06l.2.15-.08.24a0,0,0,0,0,.06,0l.21-.15.2.15a0,0,0,0,0,.06,0l-.08-.24.21-.15a0,0,0,0,0,0-.06h-.26l-.08-.24A0,0,0,0,0,38,12.18Z"/><path class="cls-12" d="M42.5,9.64l.08.24h.25a0,0,0,0,1,0,.07l-.21.15.08.24a0,0,0,0,1-.06,0l-.2-.15-.21.15a0,0,0,0,1-.06,0l.08-.24-.2-.15a0,0,0,0,1,0-.07h.25l.08-.24A0,0,0,0,1,42.5,9.64Z"/><path class="cls-12" d="M43.57,10.72l.09.24h.25a0,0,0,0,1,0,.07l-.2.15.07.24a0,0,0,0,1,0,0l-.21-.15-.21.15s-.06,0,0,0l.08-.24L43.15,11s0-.07,0-.07h.26l.08-.24A0,0,0,0,1,43.57,10.72Z"/><path class="cls-12" d="M44,12.18l.08.24h.26a0,0,0,0,1,0,.06l-.21.15.08.24a0,0,0,0,1-.06,0l-.2-.15-.21.15a0,0,0,0,1,0,0l.07-.24-.2-.15a0,0,0,0,1,0-.06h.25l.08-.24A0,0,0,0,1,44,12.18Z"/></g><g id="Container-2-5" data-name="Container-2" class="cls-7"><path d="M41.3,4h0a48.91,48.91,0,0,1,7.3.45,3.56,3.56,0,0,1,3.17,3.16,41.27,41.27,0,0,1,0,8.75,3.41,3.41,0,0,1-3.18,3.15,49.58,49.58,0,0,1-7.52.49,50.45,50.45,0,0,1-7.56-.49,3.63,3.63,0,0,1-3.19-3.23,29,29,0,0,1,0-8.58c.5-2.11,1.36-3,3.17-3.25A60.16,60.16,0,0,1,41.3,4m0-1a60.11,60.11,0,0,0-7.95.46c-2.49.36-3.49,1.84-4,4a30.11,30.11,0,0,0,0,9,4.63,4.63,0,0,0,4,4,52,52,0,0,0,7.72.5,51.42,51.42,0,0,0,7.69-.5,4.42,4.42,0,0,0,4-4,42.68,42.68,0,0,0,0-9,4.56,4.56,0,0,0-4-4A51.38,51.38,0,0,0,41.3,3Z"/></g></g><g id="_24_Tajikistan_Normal" data-name="24_Tajikistan_Normal"><g class="cls-13"><rect class="cls-14" y="3" width="24" height="6"/><rect class="cls-15" y="9" width="24" height="6"/><rect class="cls-16" y="15" width="24" height="6"/><path class="cls-17" d="M10.33,13.78a1,1,0,0,0,.4-.42.88.88,0,0,0,.88.09,1.06,1.06,0,0,0,.39-.33,1.06,1.06,0,0,0,.39.33.88.88,0,0,0,.88-.09,1,1,0,0,0,.4.42.91.91,0,0,0,.41.09,1.25,1.25,0,0,0,.48-.1l-.08-.22a.89.89,0,0,1-.7,0,.7.7,0,0,1-.34-.42L13.38,13l-.14.12a.7.7,0,0,1-.75.14.66.66,0,0,1-.37-.41v-1a.34.34,0,0,1,.3-.19.31.31,0,0,1,.13,0l.15.06,0-.16a.69.69,0,0,0-.68-.59.68.68,0,0,0-.68.59l0,.16.15-.06a.35.35,0,0,1,.14,0,.34.34,0,0,1,.3.19v1a.65.65,0,0,1-.38.41.7.7,0,0,1-.75-.14L10.61,13l0,.17a.74.74,0,0,1-.35.42.87.87,0,0,1-.69,0l-.09.22a1.34,1.34,0,0,0,.49.1A1,1,0,0,0,10.33,13.78Zm1.25-2.37h0a.5.5,0,0,1,.92,0,.5.5,0,0,0-.46.22A.5.5,0,0,0,11.58,11.41Z"/><path class="cls-17" d="M9.92,14.54l.08.23a6.72,6.72,0,0,1,2-.27,6.72,6.72,0,0,1,2,.27l.08-.23A6.93,6.93,0,0,0,12,14.26,6.88,6.88,0,0,0,9.92,14.54Z"/><path class="cls-17" d="M12,14a.42.42,0,0,0,.31-.18.53.53,0,0,0-.19-.05h0a.3.3,0,0,0-.12-.24.3.3,0,0,0-.12.24h0a.48.48,0,0,0-.19.05A.39.39,0,0,0,12,14Z"/><path class="cls-17" d="M10.9,14.13a.41.41,0,0,0,.27-.23.44.44,0,0,0-.2,0h0a.28.28,0,0,0-.17-.21.29.29,0,0,0-.07.26h0a.39.39,0,0,0-.17.09A.36.36,0,0,0,10.9,14.13Z"/><path class="cls-17" d="M13.2,13.66a.28.28,0,0,0-.17.21h0a.44.44,0,0,0-.2,0,.41.41,0,0,0,.27.23.37.37,0,0,0,.34-.11.38.38,0,0,0-.18-.09h0A.29.29,0,0,0,13.2,13.66Z"/><path class="cls-17" d="M12,9.24l-.08.24h-.26s-.05,0,0,.06l.21.16-.08.24a0,0,0,0,0,0,0L12,9.83l.21.15s.06,0,0,0l-.08-.24.21-.16s0-.06,0-.06h-.26L12,9.24A0,0,0,0,0,12,9.24Z"/><path class="cls-17" d="M10.5,9.64l-.08.24h-.25a0,0,0,0,0,0,.07l.2.15-.08.24a0,0,0,0,0,.06,0l.21-.15.2.15a0,0,0,0,0,.06,0l-.08-.24.21-.15a0,0,0,0,0,0-.07h-.25l-.08-.24A0,0,0,0,0,10.5,9.64Z"/><path class="cls-17" d="M9.43,10.72,9.35,11H9.09a0,0,0,0,0,0,.07l.21.15-.08.24a0,0,0,0,0,.05,0l.21-.15.21.15s.06,0,.05,0l-.08-.24L9.85,11a0,0,0,0,0,0-.07H9.57l-.08-.24A0,0,0,0,0,9.43,10.72Z"/><path class="cls-17" d="M9,12.18,9,12.42H8.7a0,0,0,0,0,0,.06l.2.15-.08.24a0,0,0,0,0,.06,0l.2-.15.21.15a0,0,0,0,0,.06,0l-.08-.24.2-.15a0,0,0,0,0,0-.06H9.18l-.08-.24A0,0,0,0,0,9,12.18Z"/><path class="cls-17" d="M13.5,9.64l.08.24h.25a0,0,0,0,1,0,.07l-.2.15.08.24a0,0,0,0,1-.06,0l-.21-.15-.2.15a0,0,0,0,1-.06,0l.08-.24L13.07,10a0,0,0,0,1,0-.07h.25l.08-.24A0,0,0,0,1,13.5,9.64Z"/><path class="cls-17" d="M14.57,10.72l.08.24h.26a0,0,0,0,1,0,.07l-.21.15.08.24a0,0,0,0,1-.05,0l-.21-.15-.21.15s-.06,0-.05,0l.08-.24L14.15,11a0,0,0,0,1,0-.07h.26l.08-.24A0,0,0,0,1,14.57,10.72Z"/><path class="cls-17" d="M15,12.18l.08.24h.25a0,0,0,0,1,0,.06l-.2.15.08.24a0,0,0,0,1-.06,0l-.2-.15-.21.15a0,0,0,0,1-.06,0l.08-.24-.2-.15a0,0,0,0,1,0-.06h.25l.08-.24A0,0,0,0,1,15,12.18Z"/></g><g id="Container-2-6" data-name="Container-2" class="cls-7"><path d="M12.3,4h0a48.91,48.91,0,0,1,7.3.45,3.56,3.56,0,0,1,3.17,3.16,41.27,41.27,0,0,1,0,8.75,3.41,3.41,0,0,1-3.18,3.15,49.58,49.58,0,0,1-7.52.49,50.45,50.45,0,0,1-7.56-.49,3.63,3.63,0,0,1-3.19-3.23,29,29,0,0,1,0-8.58c.5-2.11,1.36-3,3.17-3.25A60.16,60.16,0,0,1,12.3,4m0-1a60.11,60.11,0,0,0-8,.46c-2.49.36-3.49,1.84-4,4a30.11,30.11,0,0,0,0,9,4.63,4.63,0,0,0,4,4,52,52,0,0,0,7.72.5,51.42,51.42,0,0,0,7.69-.5,4.42,4.42,0,0,0,4-4,42.68,42.68,0,0,0,0-9,4.56,4.56,0,0,0-4-4A51.38,51.38,0,0,0,12.3,3Z"/></g></g></svg>