<svg xmlns="http://www.w3.org/2000/svg" xmlns:xlink="http://www.w3.org/1999/xlink" width="82" height="24" viewBox="0 0 82 24"><defs><style>.cls-1{fill:none;}.cls-2{clip-path:url(#clip-path);}.cls-3{fill:#f93535;}.cls-4{fill:#22a;}.cls-5{fill:#f9f9f9;}.cls-6{opacity:0.05;}.cls-7{clip-path:url(#clip-path-2);}.cls-8{fill:#f2cece;}.cls-9{fill:#cecef2;}.cls-10{fill:#f2f2f2;}.cls-11{clip-path:url(#clip-path-3);}.cls-12{fill:#fe0000;}.cls-13{fill:#000095;}.cls-14{fill:#fff;}</style><clipPath id="clip-path"><path id="Container-2" class="cls-1" d="M62.35,3.46a64.59,64.59,0,0,1,15.41,0,4.56,4.56,0,0,1,4,4,42.68,42.68,0,0,1,0,9,4.42,4.42,0,0,1-4,4,59.32,59.32,0,0,1-15.41,0,4.63,4.63,0,0,1-4-4,30.11,30.11,0,0,1,0-9C58.86,5.3,59.86,3.82,62.35,3.46Z"/></clipPath><clipPath id="clip-path-2"><path id="Container-2-2" data-name="Container-2" class="cls-1" d="M33.35,3.46a64.59,64.59,0,0,1,15.41,0,4.56,4.56,0,0,1,4,4,42.68,42.68,0,0,1,0,9,4.42,4.42,0,0,1-4,4,59.32,59.32,0,0,1-15.41,0,4.63,4.63,0,0,1-4-4,30.11,30.11,0,0,1,0-9C29.86,5.3,30.86,3.82,33.35,3.46Z"/></clipPath><clipPath id="clip-path-3"><path id="Container-2-3" data-name="Container-2" class="cls-1" d="M4.35,3.46a64.59,64.59,0,0,1,15.41,0,4.56,4.56,0,0,1,4,4,42.68,42.68,0,0,1,0,9,4.42,4.42,0,0,1-4,4,59.32,59.32,0,0,1-15.41,0,4.63,4.63,0,0,1-4-4,30.11,30.11,0,0,1,0-9C.86,5.3,1.86,3.82,4.35,3.46Z"/></clipPath></defs><g id="_24_Taiwan_Normal_copy" data-name="24_Taiwan_Normal copy"><g class="cls-2"><rect class="cls-3" x="58" y="3" width="24" height="18"/><rect class="cls-4" x="58" y="3" width="12" height="9"/><path class="cls-5" d="M62.12,7.5a1.9,1.9,0,0,1,.55-1.34l-1.59-.45a.09.09,0,0,0-.09.15L62.18,7l-1.6.4a.09.09,0,0,0,0,.18l1.6.4L61,9.14a.09.09,0,0,0,.09.15l1.59-.45A1.9,1.9,0,0,1,62.12,7.5Z"/><path class="cls-5" d="M62.67,6.16a1.91,1.91,0,0,1,2.68,0l.45-1.59a.09.09,0,0,0-.15-.09L64.5,5.67l-.4-1.6a.09.09,0,0,0-.18,0l-.4,1.6L62.37,4.48a.09.09,0,0,0-.15.09Z"/><path class="cls-5" d="M65.35,8.84a1.91,1.91,0,0,1-2.68,0l-.45,1.59a.09.09,0,0,0,.15.09l1.15-1.19.4,1.6a.09.09,0,0,0,.18,0l.4-1.6,1.15,1.19a.09.09,0,0,0,.15-.09Z"/><path class="cls-5" d="M67.44,7.41,65.84,7,67,5.86a.09.09,0,0,0-.09-.15l-1.59.45a1.91,1.91,0,0,1,0,2.68l1.59.45A.09.09,0,0,0,67,9.14L65.84,8l1.6-.4A.09.09,0,0,0,67.44,7.41Z"/><circle class="cls-5" cx="64.01" cy="7.5" r="1.51"/></g><g id="Container-2-4" data-name="Container-2" class="cls-6"><path d="M70.3,4h0a48.91,48.91,0,0,1,7.3.45,3.56,3.56,0,0,1,3.17,3.16,41.27,41.27,0,0,1,0,8.75,3.41,3.41,0,0,1-3.18,3.15,49.58,49.58,0,0,1-7.52.49,50.45,50.45,0,0,1-7.56-.49,3.63,3.63,0,0,1-3.19-3.23,29,29,0,0,1,0-8.58c.5-2.11,1.36-3,3.17-3.25A60.16,60.16,0,0,1,70.3,4m0-1a60.11,60.11,0,0,0-7.95.46c-2.49.36-3.49,1.84-4,4a30.11,30.11,0,0,0,0,9,4.63,4.63,0,0,0,4,4,52,52,0,0,0,7.72.5,51.42,51.42,0,0,0,7.69-.5,4.42,4.42,0,0,0,4-4,42.68,42.68,0,0,0,0-9,4.56,4.56,0,0,0-4-4A51.38,51.38,0,0,0,70.3,3Z"/></g></g><g id="_24_Taiwan_Disabled" data-name="24_Taiwan_Disabled"><g class="cls-7"><rect class="cls-8" x="29" y="3" width="24" height="18"/><rect class="cls-9" x="29" y="3" width="12" height="9"/><path class="cls-10" d="M33.12,7.5a1.9,1.9,0,0,1,.55-1.34l-1.59-.45a.09.09,0,0,0-.09.15L33.18,7l-1.6.4a.09.09,0,0,0,0,.18l1.6.4L32,9.14a.09.09,0,0,0,.09.15l1.59-.45A1.9,1.9,0,0,1,33.12,7.5Z"/><path class="cls-10" d="M33.67,6.16a1.91,1.91,0,0,1,2.68,0l.45-1.59a.09.09,0,0,0-.15-.09L35.5,5.67l-.4-1.6a.09.09,0,0,0-.18,0l-.4,1.6L33.37,4.48a.09.09,0,0,0-.15.09Z"/><path class="cls-10" d="M36.35,8.84a1.91,1.91,0,0,1-2.68,0l-.45,1.59a.09.09,0,0,0,.15.09l1.15-1.19.4,1.6a.09.09,0,0,0,.18,0l.4-1.6,1.15,1.19a.09.09,0,0,0,.15-.09Z"/><path class="cls-10" d="M38.44,7.41,36.84,7,38,5.86a.09.09,0,0,0-.09-.15l-1.59.45a1.91,1.91,0,0,1,0,2.68l1.59.45A.09.09,0,0,0,38,9.14L36.84,8l1.6-.4A.09.09,0,0,0,38.44,7.41Z"/><circle class="cls-10" cx="35.01" cy="7.5" r="1.51"/></g><g id="Container-2-5" data-name="Container-2" class="cls-6"><path d="M41.3,4h0a48.91,48.91,0,0,1,7.3.45,3.56,3.56,0,0,1,3.17,3.16,41.27,41.27,0,0,1,0,8.75,3.41,3.41,0,0,1-3.18,3.15,49.58,49.58,0,0,1-7.52.49,50.45,50.45,0,0,1-7.56-.49,3.63,3.63,0,0,1-3.19-3.23,29,29,0,0,1,0-8.58c.5-2.11,1.36-3,3.17-3.25A60.16,60.16,0,0,1,41.3,4m0-1a60.11,60.11,0,0,0-7.95.46c-2.49.36-3.49,1.84-4,4a30.11,30.11,0,0,0,0,9,4.63,4.63,0,0,0,4,4,52,52,0,0,0,7.72.5,51.42,51.42,0,0,0,7.69-.5,4.42,4.42,0,0,0,4-4,42.68,42.68,0,0,0,0-9,4.56,4.56,0,0,0-4-4A51.38,51.38,0,0,0,41.3,3Z"/></g></g><g id="_24_Taiwan_Normal" data-name="24_Taiwan_Normal"><g class="cls-11"><rect class="cls-12" y="3" width="24" height="18"/><rect class="cls-13" y="3" width="12" height="9"/><path class="cls-14" d="M4.12,7.5a1.9,1.9,0,0,1,.55-1.34L3.08,5.71A.09.09,0,0,0,3,5.86L4.18,7l-1.6.4a.09.09,0,0,0,0,.18l1.6.4L3,9.14a.09.09,0,0,0,.09.15l1.59-.45A1.9,1.9,0,0,1,4.12,7.5Z"/><path class="cls-14" d="M4.67,6.16a1.91,1.91,0,0,1,2.68,0L7.8,4.57a.09.09,0,0,0-.15-.09L6.5,5.67l-.4-1.6a.09.09,0,0,0-.18,0l-.4,1.6L4.37,4.48a.09.09,0,0,0-.15.09Z"/><path class="cls-14" d="M7.35,8.84a1.91,1.91,0,0,1-2.68,0l-.45,1.59a.09.09,0,0,0,.15.09L5.52,9.33l.4,1.6a.09.09,0,0,0,.18,0l.4-1.6,1.15,1.19a.09.09,0,0,0,.15-.09Z"/><path class="cls-14" d="M9.44,7.41,7.84,7,9,5.86a.09.09,0,0,0-.09-.15l-1.59.45a1.91,1.91,0,0,1,0,2.68l1.59.45A.09.09,0,0,0,9,9.14L7.84,8l1.6-.4A.09.09,0,0,0,9.44,7.41Z"/><circle class="cls-14" cx="6.01" cy="7.5" r="1.51"/></g><g id="Container-2-6" data-name="Container-2" class="cls-6"><path d="M12.3,4h0a48.91,48.91,0,0,1,7.3.45,3.56,3.56,0,0,1,3.17,3.16,41.27,41.27,0,0,1,0,8.75,3.41,3.41,0,0,1-3.18,3.15,49.58,49.58,0,0,1-7.52.49,50.45,50.45,0,0,1-7.56-.49,3.63,3.63,0,0,1-3.19-3.23,29,29,0,0,1,0-8.58c.5-2.11,1.36-3,3.17-3.25A60.16,60.16,0,0,1,12.3,4m0-1a60.11,60.11,0,0,0-8,.46c-2.49.36-3.49,1.84-4,4a30.11,30.11,0,0,0,0,9,4.63,4.63,0,0,0,4,4,52,52,0,0,0,7.72.5,51.42,51.42,0,0,0,7.69-.5,4.42,4.42,0,0,0,4-4,42.68,42.68,0,0,0,0-9,4.56,4.56,0,0,0-4-4A51.38,51.38,0,0,0,12.3,3Z"/></g></g></svg>