<svg xmlns="http://www.w3.org/2000/svg" xmlns:xlink="http://www.w3.org/1999/xlink" width="82" height="24" viewBox="0 0 82 24"><defs><style>.cls-1{fill:none;}.cls-2{clip-path:url(#clip-path);}.cls-3{fill:#f9f9f9;}.cls-4{fill:#2c4b91;}.cls-5{fill:#dd2634;}.cls-6{opacity:0.05;}.cls-7{clip-path:url(#clip-path-2);}.cls-8{fill:#f2f2f2;}.cls-9{fill:#ced9f2;}.cls-10{fill:#f2ced1;}.cls-11{clip-path:url(#clip-path-3);}.cls-12{fill:#fff;}.cls-13{fill:#243b79;}.cls-14{fill:#c62127;}</style><clipPath id="clip-path"><path id="Container-2" class="cls-1" d="M62.35,3.46a64.59,64.59,0,0,1,15.41,0,4.56,4.56,0,0,1,4,4,42.68,42.68,0,0,1,0,9,4.42,4.42,0,0,1-4,4,59.32,59.32,0,0,1-15.41,0,4.63,4.63,0,0,1-4-4,30.11,30.11,0,0,1,0-9C58.86,5.3,59.86,3.82,62.35,3.46Z"/></clipPath><clipPath id="clip-path-2"><path id="Container-2-2" data-name="Container-2" class="cls-1" d="M33.35,3.46a64.59,64.59,0,0,1,15.41,0,4.56,4.56,0,0,1,4,4,42.68,42.68,0,0,1,0,9,4.42,4.42,0,0,1-4,4,59.32,59.32,0,0,1-15.41,0,4.63,4.63,0,0,1-4-4,30.11,30.11,0,0,1,0-9C29.86,5.3,30.86,3.82,33.35,3.46Z"/></clipPath><clipPath id="clip-path-3"><path id="Container-2-3" data-name="Container-2" class="cls-1" d="M4.35,3.46a64.59,64.59,0,0,1,15.41,0,4.56,4.56,0,0,1,4,4,42.68,42.68,0,0,1,0,9,4.42,4.42,0,0,1-4,4,59.32,59.32,0,0,1-15.41,0,4.63,4.63,0,0,1-4-4,30.11,30.11,0,0,1,0-9C.86,5.3,1.86,3.82,4.35,3.46Z"/></clipPath></defs><g id="_24_UK_Hoover" data-name="24_UK_Hoover"><g class="cls-2"><rect id="White" class="cls-3" x="58" y="3" width="24" height="18"/><g id="Red"><polygon id="Red-2" class="cls-4" points="68 21 58 21 68 15 68 21"/><polygon id="Red-3" class="cls-4" points="58 17 58 14 63.5 14 58 17"/><polygon id="Red-4" class="cls-4" points="82 21 72 21 72 15 82 21"/><polygon id="Red-5" class="cls-4" points="76.5 14 82 14 82 17 76.5 14"/><polygon id="Red-6" class="cls-4" points="76.5 10 82 7 82 10 76.5 10"/><polygon id="Red-7" class="cls-4" points="72 9 72 3 82 3 72 9"/><polygon id="Red-8" class="cls-4" points="58 10 58 7 63.5 10 58 10"/><polygon id="Red-9" class="cls-4" points="68 9 58 3 68 3 68 9"/></g><g id="Red-10"><polygon id="Red-11" class="cls-5" points="69 3 69 11 58 11 58 13 69 13 69 21 71 21 71 13 82 13 82 11 71 11 71 3 69 3"/><polygon class="cls-5" points="82 18 75 14 73 14 82 19.3 82 18"/><polygon class="cls-5" points="58 18.8 66 14 68 14 58 20 58 18.8"/><polygon class="cls-5" points="82 5.2 74 10 72 10 82 4 82 5.2"/><polygon class="cls-5" points="58 6 65 10 67 10 58 4.8 58 6"/></g></g><g id="Container-2-4" data-name="Container-2" class="cls-6"><path d="M70.3,4h0a48.91,48.91,0,0,1,7.3.45,3.56,3.56,0,0,1,3.17,3.16,41.27,41.27,0,0,1,0,8.75,3.41,3.41,0,0,1-3.18,3.15,49.58,49.58,0,0,1-7.52.49,50.45,50.45,0,0,1-7.56-.49,3.63,3.63,0,0,1-3.19-3.23,29,29,0,0,1,0-8.58c.5-2.11,1.36-3,3.17-3.25A60.16,60.16,0,0,1,70.3,4m0-1a60.11,60.11,0,0,0-7.95.46c-2.49.36-3.49,1.84-4,4a30.11,30.11,0,0,0,0,9,4.63,4.63,0,0,0,4,4,52,52,0,0,0,7.72.5,51.42,51.42,0,0,0,7.69-.5,4.42,4.42,0,0,0,4-4,42.68,42.68,0,0,0,0-9,4.56,4.56,0,0,0-4-4A51.38,51.38,0,0,0,70.3,3Z"/></g></g><g id="_24_UK_Disabled" data-name="24_UK_Disabled"><g class="cls-7"><rect id="White-2" data-name="White" class="cls-8" x="29" y="3" width="24" height="18"/><g id="Red-2-2" data-name="Red"><polygon id="Red-2-3" data-name="Red-2" class="cls-9" points="39 21 29 21 39 15 39 21"/><polygon id="Red-3-2" data-name="Red-3" class="cls-9" points="29 17 29 14 34.5 14 29 17"/><polygon id="Red-4-2" data-name="Red-4" class="cls-9" points="53 21 43 21 43 15 53 21"/><polygon id="Red-5-2" data-name="Red-5" class="cls-9" points="47.5 14 53 14 53 17 47.5 14"/><polygon id="Red-6-2" data-name="Red-6" class="cls-9" points="47.5 10 53 7 53 10 47.5 10"/><polygon id="Red-7-2" data-name="Red-7" class="cls-9" points="43 9 43 3 53 3 43 9"/><polygon id="Red-8-2" data-name="Red-8" class="cls-9" points="29 10 29 7 34.5 10 29 10"/><polygon id="Red-9-2" data-name="Red-9" class="cls-9" points="39 9 29 3 39 3 39 9"/></g><g id="Red-10-2" data-name="Red-10"><polygon id="Red-11-2" data-name="Red-11" class="cls-10" points="40 3 40 11 29 11 29 13 40 13 40 21 42 21 42 13 53 13 53 11 42 11 42 3 40 3"/><polygon class="cls-10" points="53 18 46 14 44 14 53 19.3 53 18"/><polygon class="cls-10" points="29 18.8 37 14 39 14 29 20 29 18.8"/><polygon class="cls-10" points="53 5.2 45 10 43 10 53 4 53 5.2"/><polygon class="cls-10" points="29 6 36 10 38 10 29 4.8 29 6"/></g></g><g id="Container-2-5" data-name="Container-2" class="cls-6"><path d="M41.3,4h0a48.91,48.91,0,0,1,7.3.45,3.56,3.56,0,0,1,3.17,3.16,41.27,41.27,0,0,1,0,8.75,3.41,3.41,0,0,1-3.18,3.15,49.58,49.58,0,0,1-7.52.49,50.45,50.45,0,0,1-7.56-.49,3.63,3.63,0,0,1-3.19-3.23,29,29,0,0,1,0-8.58c.5-2.11,1.36-3,3.17-3.25A60.16,60.16,0,0,1,41.3,4m0-1a60.11,60.11,0,0,0-7.95.46c-2.49.36-3.49,1.84-4,4a30.11,30.11,0,0,0,0,9,4.63,4.63,0,0,0,4,4,52,52,0,0,0,7.72.5,51.42,51.42,0,0,0,7.69-.5,4.42,4.42,0,0,0,4-4,42.68,42.68,0,0,0,0-9,4.56,4.56,0,0,0-4-4A51.38,51.38,0,0,0,41.3,3Z"/></g></g><g id="_24_UK_Normal" data-name="24_UK_Normal"><g class="cls-11"><rect id="White-3" data-name="White" class="cls-12" y="3" width="24" height="18"/><g id="Red-3-3" data-name="Red"><polygon id="Red-2-4" data-name="Red-2" class="cls-13" points="10 21 0 21 10 15 10 21"/><polygon id="Red-3-4" data-name="Red-3" class="cls-13" points="0 17 0 14 5.5 14 0 17"/><polygon id="Red-4-3" data-name="Red-4" class="cls-13" points="24 21 14 21 14 15 24 21"/><polygon id="Red-5-3" data-name="Red-5" class="cls-13" points="18.5 14 24 14 24 17 18.5 14"/><polygon id="Red-6-3" data-name="Red-6" class="cls-13" points="18.5 10 24 7 24 10 18.5 10"/><polygon id="Red-7-3" data-name="Red-7" class="cls-13" points="14 9 14 3 24 3 14 9"/><polygon id="Red-8-3" data-name="Red-8" class="cls-13" points="0 10 0 7 5.5 10 0 10"/><polygon id="Red-9-3" data-name="Red-9" class="cls-13" points="10 9 0 3 10 3 10 9"/></g><g id="Red-10-3" data-name="Red-10"><polygon id="Red-11-3" data-name="Red-11" class="cls-14" points="11 3 11 11 0 11 0 13 11 13 11 21 13 21 13 13 24 13 24 11 13 11 13 3 11 3"/><polygon class="cls-14" points="24 18 17 14 15 14 24 19.3 24 18"/><polygon class="cls-14" points="0 18.8 8 14 10 14 0 20 0 18.8"/><polygon class="cls-14" points="24 5.2 16 10 14 10 24 4 24 5.2"/><polygon class="cls-14" points="0 6 7 10 9 10 0 4.8 0 6"/></g></g><g id="Container-2-6" data-name="Container-2" class="cls-6"><path d="M12.3,4h0a48.91,48.91,0,0,1,7.3.45,3.56,3.56,0,0,1,3.17,3.16,41.27,41.27,0,0,1,0,8.75,3.41,3.41,0,0,1-3.18,3.15,49.58,49.58,0,0,1-7.52.49,50.45,50.45,0,0,1-7.56-.49,3.63,3.63,0,0,1-3.19-3.23,29,29,0,0,1,0-8.58c.5-2.11,1.36-3,3.17-3.25A60.16,60.16,0,0,1,12.3,4m0-1a60.11,60.11,0,0,0-8,.46c-2.49.36-3.49,1.84-4,4a30.11,30.11,0,0,0,0,9,4.63,4.63,0,0,0,4,4,52,52,0,0,0,7.72.5,51.42,51.42,0,0,0,7.69-.5,4.42,4.42,0,0,0,4-4,42.68,42.68,0,0,0,0-9,4.56,4.56,0,0,0-4-4A51.38,51.38,0,0,0,12.3,3Z"/></g></g></svg>