<svg xmlns="http://www.w3.org/2000/svg" xmlns:xlink="http://www.w3.org/1999/xlink" width="82" height="24" viewBox="0 0 82 24"><defs><style>.cls-1{fill:none;}.cls-2{clip-path:url(#clip-path);}.cls-3{fill:#23cc3b;}.cls-4{fill:#00b4cc;}.cls-5{fill:#f9f9f9;}.cls-6{fill:#e51533;}.cls-7{fill:#fff;}.cls-8{opacity:0.05;}.cls-9{clip-path:url(#clip-path-2);}.cls-10{fill:#cef2d3;}.cls-11{fill:#ceeef2;}.cls-12{fill:#f2f2f2;}.cls-13{fill:#f2ced4;}.cls-14{clip-path:url(#clip-path-3);}.cls-15{fill:#1eb53a;}.cls-16{fill:#0099b5;}.cls-17{fill:#ce1126;}</style><clipPath id="clip-path"><path id="Container-2" class="cls-1" d="M62.35,3.46a64.59,64.59,0,0,1,15.41,0,4.56,4.56,0,0,1,4,4,42.68,42.68,0,0,1,0,9,4.42,4.42,0,0,1-4,4,59.32,59.32,0,0,1-15.41,0,4.63,4.63,0,0,1-4-4,30.11,30.11,0,0,1,0-9C58.86,5.3,59.86,3.82,62.35,3.46Z"/></clipPath><clipPath id="clip-path-2"><path id="Container-2-2" data-name="Container-2" class="cls-1" d="M33.35,3.46a64.59,64.59,0,0,1,15.41,0,4.56,4.56,0,0,1,4,4,42.68,42.68,0,0,1,0,9,4.42,4.42,0,0,1-4,4,59.32,59.32,0,0,1-15.41,0,4.63,4.63,0,0,1-4-4,30.11,30.11,0,0,1,0-9C29.86,5.3,30.86,3.82,33.35,3.46Z"/></clipPath><clipPath id="clip-path-3"><path id="Container-2-3" data-name="Container-2" class="cls-1" d="M4.35,3.46a64.59,64.59,0,0,1,15.41,0,4.56,4.56,0,0,1,4,4,42.68,42.68,0,0,1,0,9,4.42,4.42,0,0,1-4,4,59.32,59.32,0,0,1-15.41,0,4.63,4.63,0,0,1-4-4,30.11,30.11,0,0,1,0-9C.86,5.3,1.86,3.82,4.35,3.46Z"/></clipPath></defs><g id="_24_Uzbekistan_Hoover" data-name="24_Uzbekistan_Hoover"><g class="cls-2"><path class="cls-3" d="M82,21H58V16H82Z"/><rect class="cls-4" x="58" y="3" width="24" height="6"/><rect class="cls-5" x="58" y="10" width="24" height="5"/><rect class="cls-6" x="58" y="9" width="24" height="1"/><rect class="cls-6" x="58" y="15" width="24" height="1"/><path class="cls-7" d="M63.84,7.67a1.62,1.62,0,0,1-1.63-1.62,1.64,1.64,0,0,1,1.63-1.64h0s.07-.07,0-.09a1.94,1.94,0,0,0-.93-.23A2,2,0,0,0,63,8a1.86,1.86,0,0,0,.91-.23.05.05,0,0,0,0-.1Z"/><path class="cls-7" d="M65.12,7.22,65,7.44h-.23a0,0,0,0,0,0,0l.19.14-.07.22s0,0,0,0l.18-.13.19.13s.06,0,0,0l-.07-.22.19-.14a0,0,0,0,0,0,0h-.23l-.08-.22S65.12,7.2,65.12,7.22Z"/><path class="cls-7" d="M66.74,7.22l-.07.22h-.24a0,0,0,0,0,0,0l.18.14-.07.22a0,0,0,0,0,0,0l.19-.13.18.13s.06,0,0,0l-.07-.22.19-.14a0,0,0,0,0,0,0h-.23l-.07-.22A0,0,0,0,0,66.74,7.22Z"/><path class="cls-7" d="M68.36,7.22l-.07.22h-.23a0,0,0,0,0,0,0l.18.14-.06.22s0,0,0,0l.19-.13.19.13s0,0,0,0l-.07-.22.18-.14s0,0,0,0h-.23l-.07-.22A0,0,0,0,0,68.36,7.22Z"/><path class="cls-7" d="M70,7.22l-.07.22h-.23a0,0,0,0,0,0,0l.19.14-.07.22s0,0,0,0L70,7.76l.19.13s.06,0,0,0l-.07-.22.18-.14s0,0,0,0h-.23L70,7.22A0,0,0,0,0,70,7.22Z"/><path class="cls-7" d="M71.61,7.22l-.08.22H71.3s0,0,0,0l.18.14-.07.22s0,0,0,0l.19-.13.18.13s.06,0,.05,0l-.07-.22L72,7.5a0,0,0,0,0,0,0h-.23l-.07-.22A0,0,0,0,0,71.61,7.22Z"/><path class="cls-7" d="M66.74,5.71l-.07.22h-.24a0,0,0,0,0,0,.06l.18.13-.07.22s0,0,0,0l.19-.14.18.14s.06,0,0,0l-.07-.22L67.12,6a0,0,0,0,0,0-.06h-.23l-.07-.22A0,0,0,0,0,66.74,5.71Z"/><path class="cls-7" d="M68.36,5.71l-.07.22h-.23A0,0,0,0,0,68,6l.18.13-.06.22a0,0,0,0,0,0,0l.19-.14.19.14s0,0,0,0l-.07-.22L68.74,6a0,0,0,0,0,0-.06h-.23l-.07-.22A0,0,0,0,0,68.36,5.71Z"/><path class="cls-7" d="M70,5.71l-.07.22h-.23a0,0,0,0,0,0,.06l.19.13-.07.22s0,0,0,0L70,6.24l.19.14s.06,0,0,0l-.07-.22L70.36,6s0-.06,0-.06h-.23L70,5.71A0,0,0,0,0,70,5.71Z"/><path class="cls-7" d="M71.61,5.71l-.08.22H71.3s0,0,0,.06l.18.13-.07.22s0,0,0,0l.19-.14.18.14s.06,0,.05,0l-.07-.22L72,6a0,0,0,0,0,0-.06h-.23l-.07-.22A0,0,0,0,0,71.61,5.71Z"/><path class="cls-7" d="M68.36,7.22l-.07.22h-.23a0,0,0,0,0,0,0l.18.14-.06.22s0,0,0,0l.19-.13.19.13s0,0,0,0l-.07-.22.18-.14s0,0,0,0h-.23l-.07-.22A0,0,0,0,0,68.36,7.22Z"/><path class="cls-7" d="M68.36,4.2l-.07.21h-.23a0,0,0,0,0,0,0l.18.14-.06.22s0,0,0,0l.19-.13.19.13s0,0,0,0l-.07-.22.18-.14s0,0,0,0h-.23l-.07-.21A0,0,0,0,0,68.36,4.2Z"/><path class="cls-7" d="M70,7.22l-.07.22h-.23a0,0,0,0,0,0,0l.19.14-.07.22s0,0,0,0L70,7.76l.19.13s.06,0,0,0l-.07-.22.18-.14s0,0,0,0h-.23L70,7.22A0,0,0,0,0,70,7.22Z"/><path class="cls-7" d="M71.61,7.22l-.08.22H71.3s0,0,0,0l.18.14-.07.22s0,0,0,0l.19-.13.18.13s.06,0,.05,0l-.07-.22L72,7.5a0,0,0,0,0,0,0h-.23l-.07-.22A0,0,0,0,0,71.61,7.22Z"/><path class="cls-7" d="M70,4.2l-.07.21h-.23a0,0,0,0,0,0,0l.19.14-.07.22s0,0,0,0L70,4.73l.19.13s.06,0,0,0l-.07-.22.18-.14s0,0,0,0h-.23L70,4.2A0,0,0,0,0,70,4.2Z"/><path class="cls-7" d="M71.61,4.2l-.08.21H71.3s0,0,0,0l.18.14-.07.22s0,0,0,0l.19-.13.18.13s.06,0,.05,0l-.07-.22L72,4.47a0,0,0,0,0,0,0h-.23l-.07-.21A0,0,0,0,0,71.61,4.2Z"/></g><g id="Container-2-4" data-name="Container-2" class="cls-8"><path d="M70.3,4h0a48.91,48.91,0,0,1,7.3.45,3.56,3.56,0,0,1,3.17,3.16,41.27,41.27,0,0,1,0,8.75,3.41,3.41,0,0,1-3.18,3.15,49.58,49.58,0,0,1-7.52.49,50.45,50.45,0,0,1-7.56-.49,3.63,3.63,0,0,1-3.19-3.23,29,29,0,0,1,0-8.58c.5-2.11,1.36-3,3.17-3.25A60.16,60.16,0,0,1,70.3,4m0-1a60.11,60.11,0,0,0-7.95.46c-2.49.36-3.49,1.84-4,4a30.11,30.11,0,0,0,0,9,4.63,4.63,0,0,0,4,4,52,52,0,0,0,7.72.5,51.42,51.42,0,0,0,7.69-.5,4.42,4.42,0,0,0,4-4,42.68,42.68,0,0,0,0-9,4.56,4.56,0,0,0-4-4A51.38,51.38,0,0,0,70.3,3Z"/></g></g><g id="_24_Uzbekistan_Disabled" data-name="24_Uzbekistan_Disabled"><g class="cls-9"><path class="cls-10" d="M53,21H29V16H53Z"/><rect class="cls-11" x="29" y="3" width="24" height="6"/><rect class="cls-12" x="29" y="10" width="24" height="5"/><rect class="cls-13" x="29" y="9" width="24" height="1"/><rect class="cls-13" x="29" y="15" width="24" height="1"/><path class="cls-7" d="M34.84,7.67a1.62,1.62,0,0,1-1.63-1.62,1.64,1.64,0,0,1,1.63-1.64h0s.07-.07,0-.09a1.94,1.94,0,0,0-.93-.23A2,2,0,0,0,34,8a1.86,1.86,0,0,0,.91-.23.05.05,0,0,0,0-.1Z"/><path class="cls-7" d="M36.12,7.22,36,7.44h-.23a0,0,0,0,0,0,0l.19.14-.07.22s0,0,.05,0l.18-.13.19.13s.06,0,.05,0l-.07-.22.19-.14a0,0,0,0,0,0,0h-.23l-.08-.22S36.12,7.2,36.12,7.22Z"/><path class="cls-7" d="M37.74,7.22l-.07.22h-.24a0,0,0,0,0,0,0l.18.14-.07.22a0,0,0,0,0,0,0l.19-.13.18.13s.06,0,0,0l-.07-.22.19-.14a0,0,0,0,0,0,0h-.23l-.07-.22A0,0,0,0,0,37.74,7.22Z"/><path class="cls-7" d="M39.36,7.22l-.07.22h-.23a0,0,0,0,0,0,0l.18.14-.06.22s0,0,0,0l.19-.13.19.13s.05,0,.05,0l-.07-.22.18-.14s0,0,0,0h-.23l-.07-.22A0,0,0,0,0,39.36,7.22Z"/><path class="cls-7" d="M41,7.22l-.07.22h-.23a0,0,0,0,0,0,0l.19.14-.07.22s0,0,0,0L41,7.76l.19.13s.06,0,0,0l-.07-.22.18-.14s0,0,0,0h-.23L41,7.22A0,0,0,0,0,41,7.22Z"/><path class="cls-7" d="M42.61,7.22l-.08.22H42.3s0,0,0,0l.18.14-.07.22s0,0,.05,0l.19-.13.18.13s.06,0,0,0l-.07-.22L43,7.5a0,0,0,0,0,0,0h-.23l-.07-.22A0,0,0,0,0,42.61,7.22Z"/><path class="cls-7" d="M37.74,5.71l-.07.22h-.24a0,0,0,0,0,0,.06l.18.13-.07.22s0,0,0,0l.19-.14.18.14s.06,0,0,0l-.07-.22L38.12,6a0,0,0,0,0,0-.06h-.23l-.07-.22A0,0,0,0,0,37.74,5.71Z"/><path class="cls-7" d="M39.36,5.71l-.07.22h-.23A0,0,0,0,0,39,6l.18.13-.06.22a0,0,0,0,0,0,0l.19-.14.19.14s.05,0,.05,0l-.07-.22L39.74,6a0,0,0,0,0,0-.06h-.23l-.07-.22A0,0,0,0,0,39.36,5.71Z"/><path class="cls-7" d="M41,5.71l-.07.22h-.23a0,0,0,0,0,0,.06l.19.13-.07.22s0,0,0,0L41,6.24l.19.14s.06,0,0,0l-.07-.22L41.36,6s0-.06,0-.06h-.23L41,5.71A0,0,0,0,0,41,5.71Z"/><path class="cls-7" d="M42.61,5.71l-.08.22H42.3s0,0,0,.06l.18.13-.07.22s0,0,.05,0l.19-.14.18.14s.06,0,0,0l-.07-.22L43,6a0,0,0,0,0,0-.06h-.23l-.07-.22A0,0,0,0,0,42.61,5.71Z"/><path class="cls-7" d="M39.36,7.22l-.07.22h-.23a0,0,0,0,0,0,0l.18.14-.06.22s0,0,0,0l.19-.13.19.13s.05,0,.05,0l-.07-.22.18-.14s0,0,0,0h-.23l-.07-.22A0,0,0,0,0,39.36,7.22Z"/><path class="cls-7" d="M39.36,4.2l-.07.21h-.23a0,0,0,0,0,0,0l.18.14-.06.22s0,0,0,0l.19-.13.19.13s.05,0,.05,0l-.07-.22.18-.14s0,0,0,0h-.23l-.07-.21A0,0,0,0,0,39.36,4.2Z"/><path class="cls-7" d="M41,7.22l-.07.22h-.23a0,0,0,0,0,0,0l.19.14-.07.22s0,0,0,0L41,7.76l.19.13s.06,0,0,0l-.07-.22.18-.14s0,0,0,0h-.23L41,7.22A0,0,0,0,0,41,7.22Z"/><path class="cls-7" d="M42.61,7.22l-.08.22H42.3s0,0,0,0l.18.14-.07.22s0,0,.05,0l.19-.13.18.13s.06,0,0,0l-.07-.22L43,7.5a0,0,0,0,0,0,0h-.23l-.07-.22A0,0,0,0,0,42.61,7.22Z"/><path class="cls-7" d="M41,4.2l-.07.21h-.23a0,0,0,0,0,0,0l.19.14-.07.22s0,0,0,0L41,4.73l.19.13s.06,0,0,0l-.07-.22.18-.14s0,0,0,0h-.23L41,4.2A0,0,0,0,0,41,4.2Z"/><path class="cls-7" d="M42.61,4.2l-.08.21H42.3s0,0,0,0l.18.14-.07.22s0,0,.05,0l.19-.13.18.13s.06,0,0,0l-.07-.22L43,4.47a0,0,0,0,0,0,0h-.23l-.07-.21A0,0,0,0,0,42.61,4.2Z"/></g><g id="Container-2-5" data-name="Container-2" class="cls-8"><path d="M41.3,4h0a48.91,48.91,0,0,1,7.3.45,3.56,3.56,0,0,1,3.17,3.16,41.27,41.27,0,0,1,0,8.75,3.41,3.41,0,0,1-3.18,3.15,49.58,49.58,0,0,1-7.52.49,50.45,50.45,0,0,1-7.56-.49,3.63,3.63,0,0,1-3.19-3.23,29,29,0,0,1,0-8.58c.5-2.11,1.36-3,3.17-3.25A60.16,60.16,0,0,1,41.3,4m0-1a60.11,60.11,0,0,0-7.95.46c-2.49.36-3.49,1.84-4,4a30.11,30.11,0,0,0,0,9,4.63,4.63,0,0,0,4,4,52,52,0,0,0,7.72.5,51.42,51.42,0,0,0,7.69-.5,4.42,4.42,0,0,0,4-4,42.68,42.68,0,0,0,0-9,4.56,4.56,0,0,0-4-4A51.38,51.38,0,0,0,41.3,3Z"/></g></g><g id="_24_Uzbekistan_Normal" data-name="24_Uzbekistan_Normal"><g class="cls-14"><path class="cls-15" d="M24,21H0V15.32H24Z"/><rect class="cls-16" y="3" width="24" height="5.68"/><rect class="cls-7" y="9.63" width="24" height="4.74"/><rect class="cls-17" y="8.68" width="24" height="0.95"/><rect class="cls-17" y="14.37" width="24" height="0.95"/><path class="cls-7" d="M5.84,7.43A1.59,1.59,0,0,1,4.21,5.89,1.59,1.59,0,0,1,5.84,4.34h0a0,0,0,0,0,0-.09A2.06,2.06,0,0,0,4.94,4,1.92,1.92,0,0,0,3,5.91,1.91,1.91,0,0,0,5,7.74a2,2,0,0,0,.91-.22,0,0,0,0,0,0-.09Z"/><path class="cls-7" d="M7.12,7,7,7.21H6.81s0,0,0,0L7,7.39l-.07.21s0,.05,0,0l.18-.12.19.12s.06,0,0,0l-.07-.21.19-.13s0,0,0,0H7.25L7.17,7S7.12,7,7.12,7Z"/><path class="cls-7" d="M8.74,7l-.07.21H8.43s0,0,0,0l.18.13-.07.21a0,0,0,0,0,.05,0l.19-.12L9,7.63s.06,0,.05,0l-.07-.21.19-.13s0,0,0,0H8.87L8.8,7A0,0,0,0,0,8.74,7Z"/><path class="cls-7" d="M10.36,7l-.07.21h-.23s0,0,0,0l.18.13-.06.21s0,.05,0,0l.19-.12.19.12s.05,0,.05,0l-.07-.21.18-.13s0,0,0,0h-.23L10.42,7A0,0,0,0,0,10.36,7Z"/><path class="cls-7" d="M12,7l-.07.21h-.23s0,0,0,0l.19.13-.07.21s0,.05.05,0L12,7.51l.19.12s.06,0,.05,0l-.07-.21.18-.13a0,0,0,0,0,0,0h-.23L12,7A0,0,0,0,0,12,7Z"/><path class="cls-7" d="M13.61,7l-.08.21H13.3a0,0,0,0,0,0,0l.18.13-.07.21s0,.05,0,0l.19-.12.18.12s.06,0,0,0l-.07-.21L14,7.26s0,0,0,0h-.23L13.67,7A0,0,0,0,0,13.61,7Z"/><path class="cls-7" d="M8.74,5.57l-.07.2H8.43a0,0,0,0,0,0,0L8.6,6l-.07.21s0,0,.05,0l.19-.13L9,6.2s.06,0,.05,0L8.93,6l.19-.13a0,0,0,0,0,0,0H8.87l-.07-.2A0,0,0,0,0,8.74,5.57Z"/><path class="cls-7" d="M10.36,5.57l-.07.2h-.23a0,0,0,0,0,0,0l.18.13-.06.21s0,0,0,0l.19-.13.19.13s.05,0,.05,0L10.56,6l.18-.13s0,0,0,0h-.23l-.07-.2A0,0,0,0,0,10.36,5.57Z"/><path class="cls-7" d="M12,5.57l-.07.2h-.23a0,0,0,0,0,0,0l.19.13-.07.21s0,0,.05,0L12,6.07l.19.13s.06,0,.05,0L12.18,6l.18-.13s0,0,0,0h-.23L12,5.57A0,0,0,0,0,12,5.57Z"/><path class="cls-7" d="M13.61,5.57l-.08.2H13.3s0,0,0,0l.18.13-.07.21s0,0,0,0l.19-.13.18.13s.06,0,0,0L13.8,6,14,5.83a0,0,0,0,0,0,0h-.23l-.07-.2A0,0,0,0,0,13.61,5.57Z"/><path class="cls-7" d="M10.36,7l-.07.21h-.23s0,0,0,0l.18.13-.06.21s0,.05,0,0l.19-.12.19.12s.05,0,.05,0l-.07-.21.18-.13s0,0,0,0h-.23L10.42,7A0,0,0,0,0,10.36,7Z"/><path class="cls-7" d="M10.36,4.13l-.07.21h-.23s0,0,0,0l.18.13-.06.21s0,0,0,0l.19-.12.19.12s.05,0,.05,0l-.07-.21.18-.13s0,0,0,0h-.23l-.07-.21A0,0,0,0,0,10.36,4.13Z"/><path class="cls-7" d="M12,7l-.07.21h-.23s0,0,0,0l.19.13-.07.21s0,.05.05,0L12,7.51l.19.12s.06,0,.05,0l-.07-.21.18-.13a0,0,0,0,0,0,0h-.23L12,7A0,0,0,0,0,12,7Z"/><path class="cls-7" d="M13.61,7l-.08.21H13.3a0,0,0,0,0,0,0l.18.13-.07.21s0,.05,0,0l.19-.12.18.12s.06,0,0,0l-.07-.21L14,7.26s0,0,0,0h-.23L13.67,7A0,0,0,0,0,13.61,7Z"/><path class="cls-7" d="M12,4.13l-.07.21h-.23s0,0,0,0l.19.13-.07.21s0,0,.05,0L12,4.64l.19.12s.06,0,.05,0l-.07-.21.18-.13a0,0,0,0,0,0,0h-.23L12,4.13A0,0,0,0,0,12,4.13Z"/><path class="cls-7" d="M13.61,4.13l-.08.21H13.3a0,0,0,0,0,0,0l.18.13-.07.21s0,0,0,0l.19-.12.18.12s.06,0,0,0l-.07-.21L14,4.39s0,0,0,0h-.23l-.07-.21A0,0,0,0,0,13.61,4.13Z"/></g><g id="Container-2-6" data-name="Container-2" class="cls-8"><path d="M12.3,4h0a48.91,48.91,0,0,1,7.3.45,3.56,3.56,0,0,1,3.17,3.16,41.27,41.27,0,0,1,0,8.75,3.41,3.41,0,0,1-3.18,3.15,49.58,49.58,0,0,1-7.52.49,50.45,50.45,0,0,1-7.56-.49,3.63,3.63,0,0,1-3.19-3.23,29,29,0,0,1,0-8.58c.5-2.11,1.36-3,3.17-3.25A60.16,60.16,0,0,1,12.3,4m0-1a60.11,60.11,0,0,0-8,.46c-2.49.36-3.49,1.84-4,4a30.11,30.11,0,0,0,0,9,4.63,4.63,0,0,0,4,4,52,52,0,0,0,7.72.5,51.42,51.42,0,0,0,7.69-.5,4.42,4.42,0,0,0,4-4,42.68,42.68,0,0,0,0-9,4.56,4.56,0,0,0-4-4A51.38,51.38,0,0,0,12.3,3Z"/></g></g></svg>