<svg xmlns="http://www.w3.org/2000/svg" xmlns:xlink="http://www.w3.org/1999/xlink" width="82" height="24" viewBox="0 0 82 24"><defs><style>.cls-1{fill:none;}.cls-2{clip-path:url(#clip-path);}.cls-3{fill:#f9f9f9;}.cls-4{fill:#d12a4e;}.cls-5{fill:#4e4e91;}.cls-6{opacity:0.05;}.cls-7{clip-path:url(#clip-path-2);}.cls-8{fill:#f2f2f2;}.cls-9{fill:#f2ced4;}.cls-10{fill:#cecef2;}.cls-11{clip-path:url(#clip-path-3);}.cls-12{fill:#fff;}.cls-13{fill:#b22234;}.cls-14{fill:#3c3b6e;}</style><clipPath id="clip-path"><path id="Container-2" class="cls-1" d="M62.35,3.46a64.59,64.59,0,0,1,15.41,0,4.56,4.56,0,0,1,4,4,42.68,42.68,0,0,1,0,9,4.42,4.42,0,0,1-4,4,59.32,59.32,0,0,1-15.41,0,4.63,4.63,0,0,1-4-4,30.11,30.11,0,0,1,0-9C58.86,5.3,59.86,3.82,62.35,3.46Z"/></clipPath><clipPath id="clip-path-2"><path id="Container-2-2" data-name="Container-2" class="cls-1" d="M33.35,3.46a64.59,64.59,0,0,1,15.41,0,4.56,4.56,0,0,1,4,4,42.68,42.68,0,0,1,0,9,4.42,4.42,0,0,1-4,4,59.32,59.32,0,0,1-15.41,0,4.63,4.63,0,0,1-4-4,30.11,30.11,0,0,1,0-9C29.86,5.3,30.86,3.82,33.35,3.46Z"/></clipPath><clipPath id="clip-path-3"><path id="Container-2-3" data-name="Container-2" class="cls-1" d="M4.35,3.46a64.59,64.59,0,0,1,15.41,0,4.56,4.56,0,0,1,4,4,42.68,42.68,0,0,1,0,9,4.42,4.42,0,0,1-4,4,59.32,59.32,0,0,1-15.41,0,4.63,4.63,0,0,1-4-4,30.11,30.11,0,0,1,0-9C.86,5.3,1.86,3.82,4.35,3.46Z"/></clipPath></defs><g id="_24_USA_Hoover" data-name="24_USA_Hoover"><g class="cls-2"><rect class="cls-3" x="58" y="3" width="24" height="18.05"/><path class="cls-4" d="M82,4.38H58V3H82V4.38Z"/><rect class="cls-4" x="58" y="8.54" width="24" height="1.38"/><rect class="cls-4" x="58" y="5.77" width="24" height="1.38"/><path class="cls-4" d="M82,12.69H58V11.31H82Z"/><rect class="cls-4" x="58" y="16.85" width="24" height="1.38"/><path class="cls-4" d="M82,21H58V19.62H82Z"/><rect class="cls-4" x="58" y="14.08" width="24" height="1.38"/><rect class="cls-5" x="58" y="3" width="12" height="9.69"/><path class="cls-3" d="M59.51,4.52l.1.28h.29a0,0,0,0,1,0,.07L59.69,5l.09.28a0,0,0,0,1-.06,0l-.24-.17-.24.17a0,0,0,0,1-.06,0L59.27,5,59,4.87a0,0,0,0,1,0-.07h.3l.09-.28A0,0,0,0,1,59.51,4.52Z"/><path class="cls-3" d="M59.51,6l.1.28h.29s.05,0,0,.08l-.23.17.09.28s0,.07-.06,0l-.24-.17-.24.17s-.07,0-.06,0l.09-.28L59,6.33s0-.08,0-.08h.3L59.44,6A0,0,0,0,1,59.51,6Z"/><path class="cls-3" d="M59.51,7.43l.1.28h.29a0,0,0,0,1,0,.07L59.69,8l.09.28a0,0,0,0,1-.06,0l-.24-.17-.24.17a0,0,0,0,1-.06,0L59.27,8,59,7.78a0,0,0,0,1,0-.07h.3l.09-.28A0,0,0,0,1,59.51,7.43Z"/><path class="cls-3" d="M59.51,8.89l.1.28h.29a0,0,0,0,1,0,.07l-.23.17.09.28a0,0,0,0,1-.06.05l-.24-.17-.24.17a0,0,0,0,1-.06-.05l.09-.28L59,9.24a0,0,0,0,1,0-.07h.3l.09-.28A0,0,0,0,1,59.51,8.89Z"/><path class="cls-3" d="M59.51,10.34l.1.28h.29a0,0,0,0,1,0,.08l-.23.17.09.28s0,.07-.06,0L59.48,11l-.24.17s-.07,0-.06,0l.09-.28L59,10.7a0,0,0,0,1,0-.08h.3l.09-.28A0,0,0,0,1,59.51,10.34Z"/><path class="cls-3" d="M60.65,5.23l.09.28H61a0,0,0,0,1,0,.07l-.23.18.09.28a0,0,0,0,1-.06,0l-.24-.17-.24.17a0,0,0,0,1-.06,0l.09-.28-.24-.18a0,0,0,0,1,0-.07h.3l.09-.28S60.63,5.2,60.65,5.23Z"/><path class="cls-3" d="M60.65,6.69l.09.28H61a0,0,0,0,1,0,.07l-.23.17.09.28a0,0,0,0,1-.06,0l-.24-.17-.24.17a0,0,0,0,1-.06,0l.09-.28L60.16,7a0,0,0,0,1,0-.07h.3l.09-.28S60.63,6.65,60.65,6.69Z"/><path class="cls-3" d="M60.65,8.14l.09.28H61s.06,0,0,.07l-.23.17.09.28a0,0,0,0,1-.06.05l-.24-.18L60.37,9A0,0,0,0,1,60.31,9l.09-.28-.24-.17a0,0,0,0,1,0-.07h.3l.09-.28S60.63,8.11,60.65,8.14Z"/><path class="cls-3" d="M60.65,9.6l.09.28H61a0,0,0,0,1,0,.07l-.23.18.09.28a0,0,0,0,1-.06,0l-.24-.17-.24.17a0,0,0,0,1-.06,0l.09-.28L60.16,10a0,0,0,0,1,0-.07h.3l.09-.28S60.63,9.57,60.65,9.6Z"/><path class="cls-3" d="M61.78,4.52l.09.28h.29s.06,0,0,.07L62,5l.09.28a0,0,0,0,1-.06,0l-.24-.17-.24.17a0,0,0,0,1-.06,0L61.53,5l-.24-.17a0,0,0,0,1,0-.07h.3l.09-.28S61.76,4.48,61.78,4.52Z"/><path class="cls-3" d="M61.78,6l.09.28h.29a0,0,0,0,1,0,.08L62,6.5l.09.28s0,.07-.06,0l-.24-.17-.24.17s-.07,0-.06,0l.09-.28-.24-.17s0-.08,0-.08h.3L61.7,6S61.76,5.94,61.78,6Z"/><path class="cls-3" d="M61.78,7.43l.09.28h.29s.06,0,0,.07L62,8l.09.28a0,0,0,0,1-.06,0l-.24-.17-.24.17a0,0,0,0,1-.06,0L61.53,8l-.24-.18a0,0,0,0,1,0-.07h.3l.09-.28S61.76,7.39,61.78,7.43Z"/><path class="cls-3" d="M61.78,8.89l.09.28h.29s.06.05,0,.07L62,9.41l.09.28a0,0,0,0,1-.06.05l-.24-.17-.24.17a0,0,0,0,1-.06-.05l.09-.28-.24-.17a0,0,0,0,1,0-.07h.3l.09-.28S61.76,8.85,61.78,8.89Z"/><path class="cls-3" d="M61.78,10.34l.09.28h.29s.06.05,0,.08l-.24.17.09.28s0,.07-.06,0L61.74,11l-.24.17s-.07,0-.06,0l.09-.28-.24-.17a0,0,0,0,1,0-.08h.3l.09-.28S61.76,10.31,61.78,10.34Z"/><path class="cls-3" d="M62.91,5.23l.09.28h.29s.06,0,0,.07l-.24.18.09.28a0,0,0,0,1-.06,0l-.24-.17-.24.17a0,0,0,0,1-.06,0l.09-.28-.24-.18s0-.07,0-.07h.29l.09-.28S62.89,5.2,62.91,5.23Z"/><path class="cls-3" d="M62.91,6.69,63,7h.29s.06,0,0,.07l-.24.17.09.28a0,0,0,0,1-.06,0l-.24-.17-.24.17a0,0,0,0,1-.06,0l.09-.28L62.42,7s0-.07,0-.07h.29l.09-.28S62.89,6.65,62.91,6.69Z"/><path class="cls-3" d="M62.91,8.14l.09.28h.29a0,0,0,0,1,0,.07l-.24.17.09.28a0,0,0,0,1-.06.05l-.24-.18L62.63,9A0,0,0,0,1,62.57,9l.09-.28-.24-.17a0,0,0,0,1,0-.07h.29l.09-.28S62.89,8.11,62.91,8.14Z"/><path class="cls-3" d="M62.91,9.6l.09.28h.29s.06,0,0,.07l-.24.18.09.28a0,0,0,0,1-.06,0l-.24-.17-.24.17a0,0,0,0,1-.06,0l.09-.28L62.42,10s0-.07,0-.07h.29l.09-.28S62.89,9.57,62.91,9.6Z"/><path class="cls-3" d="M64,4.52l.09.28h.29s.06,0,0,.07L64.21,5l.09.28a0,0,0,0,1-.06,0L64,5.2l-.24.17a0,0,0,0,1-.06,0L63.79,5l-.24-.17s0-.07,0-.07h.29L64,4.52A0,0,0,0,1,64,4.52Z"/><path class="cls-3" d="M64,6l.09.28h.29a0,0,0,0,1,0,.08l-.24.17.09.28s0,.07-.06,0L64,6.65l-.24.17s-.07,0-.06,0l.09-.28-.24-.17a0,0,0,0,1,0-.08h.29L64,6A0,0,0,0,1,64,6Z"/><path class="cls-3" d="M64,7.43l.09.28h.29s.06,0,0,.07L64.21,8l.09.28a0,0,0,0,1-.06,0L64,8.11l-.24.17a0,0,0,0,1-.06,0L63.79,8l-.24-.18s0-.07,0-.07h.29L64,7.43A0,0,0,0,1,64,7.43Z"/><path class="cls-3" d="M64,8.89l.09.28h.29s.06.05,0,.07l-.24.17.09.28a0,0,0,0,1-.06.05L64,9.57l-.24.17a0,0,0,0,1-.06-.05l.09-.28-.24-.17s0-.07,0-.07h.29L64,8.89A0,0,0,0,1,64,8.89Z"/><path class="cls-3" d="M64,10.34l.09.28h.29s.06.05,0,.08l-.24.17.09.28s0,.07-.06,0L64,11l-.24.17s-.07,0-.06,0l.09-.28-.24-.17s0-.07,0-.08h.29l.09-.28A0,0,0,0,1,64,10.34Z"/><path class="cls-3" d="M65.17,5.23l.09.28h.29s.06,0,0,.07l-.24.18.09.28a0,0,0,0,1-.06,0l-.24-.17-.24.17a0,0,0,0,1-.06,0l.09-.28-.24-.18s0-.07,0-.07H65l.09-.28S65.16,5.2,65.17,5.23Z"/><path class="cls-3" d="M65.17,6.69l.09.28h.29s.06,0,0,.07l-.24.17.09.28a0,0,0,0,1-.06,0l-.24-.17-.24.17a0,0,0,0,1-.06,0l.09-.28L64.68,7s0-.07,0-.07H65l.09-.28S65.16,6.65,65.17,6.69Z"/><path class="cls-3" d="M65.17,8.14l.09.28h.29a0,0,0,0,1,0,.07l-.24.17.09.28a0,0,0,0,1-.06.05l-.24-.18L64.89,9A0,0,0,0,1,64.83,9l.09-.28-.24-.17a0,0,0,0,1,0-.07H65l.09-.28S65.16,8.11,65.17,8.14Z"/><path class="cls-3" d="M65.17,9.6l.09.28h.29s.06,0,0,.07l-.24.18.09.28a0,0,0,0,1-.06,0l-.24-.17-.24.17a0,0,0,0,1-.06,0l.09-.28L64.68,10s0-.07,0-.07H65l.09-.28S65.16,9.57,65.17,9.6Z"/><path class="cls-3" d="M66.3,4.52l.09.28h.3a0,0,0,0,1,0,.07L66.47,5l.09.28a0,0,0,0,1-.06,0l-.24-.17L66,5.37a0,0,0,0,1-.06,0L66.05,5l-.24-.17s0-.07,0-.07h.29l.09-.28S66.29,4.48,66.3,4.52Z"/><path class="cls-3" d="M66.3,6l.09.28h.3s0,0,0,.08l-.24.17.09.28s0,.07-.06,0l-.24-.17L66,6.82s-.07,0-.06,0l.09-.28-.24-.17a0,0,0,0,1,0-.08h.29L66.22,6S66.29,5.94,66.3,6Z"/><path class="cls-3" d="M66.3,7.43l.09.28h.3a0,0,0,0,1,0,.07L66.47,8l.09.28a0,0,0,0,1-.06,0l-.24-.17L66,8.28a0,0,0,0,1-.06,0L66.05,8l-.24-.18s0-.07,0-.07h.29l.09-.28S66.29,7.39,66.3,7.43Z"/><path class="cls-3" d="M66.3,8.89l.09.28h.3a0,0,0,0,1,0,.07l-.24.17.09.28a0,0,0,0,1-.06.05l-.24-.17L66,9.74A0,0,0,0,1,66,9.69l.09-.28-.24-.17s0-.07,0-.07h.29l.09-.28S66.29,8.85,66.3,8.89Z"/><path class="cls-3" d="M66.3,10.34l.09.28h.3a0,0,0,0,1,0,.08l-.24.17.09.28s0,.07-.06,0L66.26,11l-.24.17s-.07,0-.06,0l.09-.28-.24-.17s0-.07,0-.08h.29l.09-.28S66.29,10.31,66.3,10.34Z"/><path class="cls-3" d="M67.43,5.23l.09.28h.3a0,0,0,0,1,0,.07l-.24.18.09.28a0,0,0,0,1-.06,0l-.24-.17-.24.17a0,0,0,0,1-.06,0l.09-.28L67,5.58a0,0,0,0,1,0-.07h.29l.09-.28S67.42,5.2,67.43,5.23Z"/><path class="cls-3" d="M67.43,6.69l.09.28h.3a0,0,0,0,1,0,.07l-.24.17.09.28a0,0,0,0,1-.06,0l-.24-.17-.24.17a0,0,0,0,1-.06,0l.09-.28L67,7A0,0,0,0,1,67,7h.29l.09-.28S67.42,6.65,67.43,6.69Z"/><path class="cls-3" d="M67.43,8.14l.09.28h.3a0,0,0,0,1,0,.07l-.24.17.09.28a0,0,0,0,1-.06.05l-.24-.18L67.15,9A0,0,0,0,1,67.09,9l.09-.28L67,8.5s0-.07,0-.07h.29l.09-.28S67.42,8.11,67.43,8.14Z"/><path class="cls-3" d="M67.43,9.6l.09.28h.3a0,0,0,0,1,0,.07l-.24.18.09.28a0,0,0,0,1-.06,0l-.24-.17-.24.17a0,0,0,0,1-.06,0l.09-.28L67,10a0,0,0,0,1,0-.07h.29l.09-.28S67.42,9.57,67.43,9.6Z"/><path class="cls-3" d="M68.56,4.52l.09.28H69a0,0,0,0,1,0,.07L68.73,5l.09.28a0,0,0,0,1-.06,0l-.24-.17-.24.17a0,0,0,0,1-.06,0L68.31,5l-.23-.17a0,0,0,0,1,0-.07h.29l.1-.28A0,0,0,0,1,68.56,4.52Z"/><path class="cls-3" d="M68.56,6l.09.28H69s0,0,0,.08l-.24.17.09.28s0,.07-.06,0l-.24-.17-.24.17s-.07,0-.06,0l.09-.28-.23-.17s0-.08,0-.08h.29l.1-.28A0,0,0,0,1,68.56,6Z"/><path class="cls-3" d="M68.56,7.43l.09.28H69a0,0,0,0,1,0,.07L68.73,8l.09.28a0,0,0,0,1-.06,0l-.24-.17-.24.17a0,0,0,0,1-.06,0L68.31,8l-.23-.18a0,0,0,0,1,0-.07h.29l.1-.28A0,0,0,0,1,68.56,7.43Z"/><path class="cls-3" d="M68.56,8.89l.09.28H69a0,0,0,0,1,0,.07l-.24.17.09.28a0,0,0,0,1-.06.05l-.24-.17-.24.17a0,0,0,0,1-.06-.05l.09-.28-.23-.17a0,0,0,0,1,0-.07h.29l.1-.28A0,0,0,0,1,68.56,8.89Z"/><path class="cls-3" d="M68.56,10.34l.09.28H69a0,0,0,0,1,0,.08l-.24.17.09.28s0,.07-.06,0L68.52,11l-.24.17s-.07,0-.06,0l.09-.28-.23-.17a0,0,0,0,1,0-.08h.29l.1-.28A0,0,0,0,1,68.56,10.34Z"/></g><g id="Container-2-4" data-name="Container-2" class="cls-6"><path d="M70.3,4h0a48.91,48.91,0,0,1,7.3.45,3.56,3.56,0,0,1,3.17,3.16,41.27,41.27,0,0,1,0,8.75,3.41,3.41,0,0,1-3.18,3.15,49.58,49.58,0,0,1-7.52.49,50.45,50.45,0,0,1-7.56-.49,3.63,3.63,0,0,1-3.19-3.23,29,29,0,0,1,0-8.58c.5-2.11,1.36-3,3.17-3.25A60.16,60.16,0,0,1,70.3,4m0-1a60.11,60.11,0,0,0-7.95.46c-2.49.36-3.49,1.84-4,4a30.11,30.11,0,0,0,0,9,4.63,4.63,0,0,0,4,4,52,52,0,0,0,7.72.5,51.42,51.42,0,0,0,7.69-.5,4.42,4.42,0,0,0,4-4,42.68,42.68,0,0,0,0-9,4.56,4.56,0,0,0-4-4A51.38,51.38,0,0,0,70.3,3Z"/></g></g><g id="_24_USA_Disabled" data-name="24_USA_Disabled"><g class="cls-7"><rect class="cls-8" x="29" y="3" width="24" height="18.05"/><path class="cls-9" d="M53,4.38H29V3H53V4.38Z"/><rect class="cls-9" x="29" y="8.54" width="24" height="1.38"/><rect class="cls-9" x="29" y="5.77" width="24" height="1.38"/><path class="cls-9" d="M53,12.69H29V11.31H53Z"/><rect class="cls-9" x="29" y="16.85" width="24" height="1.38"/><path class="cls-9" d="M53,21H29V19.62H53Z"/><rect class="cls-9" x="29" y="14.08" width="24" height="1.38"/><rect class="cls-10" x="29" y="3" width="12" height="9.69"/><path class="cls-8" d="M30.51,4.52l.1.28h.29a0,0,0,0,1,0,.07L30.69,5l.09.28a0,0,0,0,1-.06,0l-.24-.17-.24.17a0,0,0,0,1-.06,0L30.27,5,30,4.87a0,0,0,0,1,0-.07h.3l.09-.28A0,0,0,0,1,30.51,4.52Z"/><path class="cls-8" d="M30.51,6l.1.28h.29s.05,0,0,.08l-.23.17.09.28s0,.07-.06,0l-.24-.17-.24.17s-.07,0-.06,0l.09-.28L30,6.33s0-.08,0-.08h.3L30.44,6A0,0,0,0,1,30.51,6Z"/><path class="cls-8" d="M30.51,7.43l.1.28h.29a0,0,0,0,1,0,.07L30.69,8l.09.28a0,0,0,0,1-.06,0l-.24-.17-.24.17a0,0,0,0,1-.06,0L30.27,8,30,7.78a0,0,0,0,1,0-.07h.3l.09-.28A0,0,0,0,1,30.51,7.43Z"/><path class="cls-8" d="M30.51,8.89l.1.28h.29a0,0,0,0,1,0,.07l-.23.17.09.28a0,0,0,0,1-.06.05l-.24-.17-.24.17a0,0,0,0,1-.06-.05l.09-.28L30,9.24a0,0,0,0,1,0-.07h.3l.09-.28A0,0,0,0,1,30.51,8.89Z"/><path class="cls-8" d="M30.51,10.34l.1.28h.29a0,0,0,0,1,0,.08l-.23.17.09.28s0,.07-.06,0L30.48,11l-.24.17s-.07,0-.06,0l.09-.28L30,10.7a0,0,0,0,1,0-.08h.3l.09-.28A0,0,0,0,1,30.51,10.34Z"/><path class="cls-8" d="M31.65,5.23l.09.28H32a0,0,0,0,1,0,.07l-.23.18.09.28a0,0,0,0,1-.06,0l-.24-.17-.24.17a0,0,0,0,1-.06,0l.09-.28-.24-.18a0,0,0,0,1,0-.07h.3l.09-.28S31.63,5.2,31.65,5.23Z"/><path class="cls-8" d="M31.65,6.69l.09.28H32a0,0,0,0,1,0,.07l-.23.17.09.28a0,0,0,0,1-.06,0l-.24-.17-.24.17a0,0,0,0,1-.06,0l.09-.28L31.16,7a0,0,0,0,1,0-.07h.3l.09-.28S31.63,6.65,31.65,6.69Z"/><path class="cls-8" d="M31.65,8.14l.09.28H32s.06,0,0,.07l-.23.17.09.28a0,0,0,0,1-.06.05l-.24-.18L31.37,9A0,0,0,0,1,31.31,9l.09-.28-.24-.17a0,0,0,0,1,0-.07h.3l.09-.28S31.63,8.11,31.65,8.14Z"/><path class="cls-8" d="M31.65,9.6l.09.28H32a0,0,0,0,1,0,.07l-.23.18.09.28a0,0,0,0,1-.06,0l-.24-.17-.24.17a0,0,0,0,1-.06,0l.09-.28L31.16,10a0,0,0,0,1,0-.07h.3l.09-.28S31.63,9.57,31.65,9.6Z"/><path class="cls-8" d="M32.78,4.52l.09.28h.29s.06,0,0,.07L33,5l.09.28a0,0,0,0,1-.06,0l-.24-.17-.24.17a0,0,0,0,1-.06,0L32.53,5l-.24-.17a0,0,0,0,1,0-.07h.3l.09-.28S32.76,4.48,32.78,4.52Z"/><path class="cls-8" d="M32.78,6l.09.28h.29a0,0,0,0,1,0,.08L33,6.5l.09.28s0,.07-.06,0l-.24-.17-.24.17s-.07,0-.06,0l.09-.28-.24-.17s0-.08,0-.08h.3L32.7,6S32.76,5.94,32.78,6Z"/><path class="cls-8" d="M32.78,7.43l.09.28h.29s.06,0,0,.07L33,8l.09.28a0,0,0,0,1-.06,0l-.24-.17-.24.17a0,0,0,0,1-.06,0L32.53,8l-.24-.18a0,0,0,0,1,0-.07h.3l.09-.28S32.76,7.39,32.78,7.43Z"/><path class="cls-8" d="M32.78,8.89l.09.28h.29s.06.05,0,.07L33,9.41l.09.28a0,0,0,0,1-.06.05l-.24-.17-.24.17a0,0,0,0,1-.06-.05l.09-.28-.24-.17a0,0,0,0,1,0-.07h.3l.09-.28S32.76,8.85,32.78,8.89Z"/><path class="cls-8" d="M32.78,10.34l.09.28h.29s.06.05,0,.08l-.24.17.09.28s0,.07-.06,0L32.74,11l-.24.17s-.07,0-.06,0l.09-.28-.24-.17a0,0,0,0,1,0-.08h.3l.09-.28S32.76,10.31,32.78,10.34Z"/><path class="cls-8" d="M33.91,5.23l.09.28h.29s.06,0,0,.07l-.24.18.09.28a0,0,0,0,1-.06,0l-.24-.17-.24.17a0,0,0,0,1-.06,0l.09-.28-.24-.18s0-.07,0-.07h.29l.09-.28S33.89,5.2,33.91,5.23Z"/><path class="cls-8" d="M33.91,6.69,34,7h.29s.06,0,0,.07l-.24.17.09.28a0,0,0,0,1-.06,0l-.24-.17-.24.17a0,0,0,0,1-.06,0l.09-.28L33.42,7s0-.07,0-.07h.29l.09-.28S33.89,6.65,33.91,6.69Z"/><path class="cls-8" d="M33.91,8.14l.09.28h.29a0,0,0,0,1,0,.07l-.24.17.09.28a0,0,0,0,1-.06.05l-.24-.18L33.63,9A0,0,0,0,1,33.57,9l.09-.28-.24-.17a0,0,0,0,1,0-.07h.29l.09-.28S33.89,8.11,33.91,8.14Z"/><path class="cls-8" d="M33.91,9.6l.09.28h.29s.06,0,0,.07l-.24.18.09.28a0,0,0,0,1-.06,0l-.24-.17-.24.17a0,0,0,0,1-.06,0l.09-.28L33.42,10s0-.07,0-.07h.29l.09-.28S33.89,9.57,33.91,9.6Z"/><path class="cls-8" d="M35,4.52l.09.28h.29s.06,0,0,.07L35.21,5l.09.28a0,0,0,0,1-.06,0L35,5.2l-.24.17a0,0,0,0,1-.06,0L34.79,5l-.24-.17s0-.07,0-.07h.29L35,4.52A0,0,0,0,1,35,4.52Z"/><path class="cls-8" d="M35,6l.09.28h.29a0,0,0,0,1,0,.08l-.24.17.09.28s0,.07-.06,0L35,6.65l-.24.17s-.07,0-.06,0l.09-.28-.24-.17a0,0,0,0,1,0-.08h.29L35,6A0,0,0,0,1,35,6Z"/><path class="cls-8" d="M35,7.43l.09.28h.29s.06,0,0,.07L35.21,8l.09.28a0,0,0,0,1-.06,0L35,8.11l-.24.17a0,0,0,0,1-.06,0L34.79,8l-.24-.18s0-.07,0-.07h.29L35,7.43A0,0,0,0,1,35,7.43Z"/><path class="cls-8" d="M35,8.89l.09.28h.29s.06.05,0,.07l-.24.17.09.28a0,0,0,0,1-.06.05L35,9.57l-.24.17a0,0,0,0,1-.06-.05l.09-.28-.24-.17s0-.07,0-.07h.29L35,8.89A0,0,0,0,1,35,8.89Z"/><path class="cls-8" d="M35,10.34l.09.28h.29s.06.05,0,.08l-.24.17.09.28s0,.07-.06,0L35,11l-.24.17s-.07,0-.06,0l.09-.28-.24-.17s0-.07,0-.08h.29l.09-.28A0,0,0,0,1,35,10.34Z"/><path class="cls-8" d="M36.17,5.23l.09.28h.29s.06,0,0,.07l-.24.18.09.28a0,0,0,0,1-.06,0l-.24-.17-.24.17a0,0,0,0,1-.06,0l.09-.28-.24-.18s0-.07,0-.07H36l.09-.28S36.16,5.2,36.17,5.23Z"/><path class="cls-8" d="M36.17,6.69l.09.28h.29s.06,0,0,.07l-.24.17.09.28a0,0,0,0,1-.06,0l-.24-.17-.24.17a0,0,0,0,1-.06,0l.09-.28L35.68,7s0-.07,0-.07H36l.09-.28S36.16,6.65,36.17,6.69Z"/><path class="cls-8" d="M36.17,8.14l.09.28h.29a0,0,0,0,1,0,.07l-.24.17.09.28a0,0,0,0,1-.06.05l-.24-.18L35.89,9A0,0,0,0,1,35.83,9l.09-.28-.24-.17a0,0,0,0,1,0-.07H36l.09-.28S36.16,8.11,36.17,8.14Z"/><path class="cls-8" d="M36.17,9.6l.09.28h.29s.06,0,0,.07l-.24.18.09.28a0,0,0,0,1-.06,0l-.24-.17-.24.17a0,0,0,0,1-.06,0l.09-.28L35.68,10s0-.07,0-.07H36l.09-.28S36.16,9.57,36.17,9.6Z"/><path class="cls-8" d="M37.3,4.52l.09.28h.3a0,0,0,0,1,0,.07L37.47,5l.09.28a0,0,0,0,1-.06,0l-.24-.17L37,5.37a0,0,0,0,1-.06,0L37.05,5l-.24-.17s0-.07,0-.07h.29l.09-.28S37.29,4.48,37.3,4.52Z"/><path class="cls-8" d="M37.3,6l.09.28h.3s.05,0,0,.08l-.24.17.09.28s0,.07-.06,0l-.24-.17L37,6.82s-.07,0-.06,0l.09-.28-.24-.17a0,0,0,0,1,0-.08h.29L37.22,6S37.29,5.94,37.3,6Z"/><path class="cls-8" d="M37.3,7.43l.09.28h.3a0,0,0,0,1,0,.07L37.47,8l.09.28a0,0,0,0,1-.06,0l-.24-.17L37,8.28a0,0,0,0,1-.06,0L37.05,8l-.24-.18s0-.07,0-.07h.29l.09-.28S37.29,7.39,37.3,7.43Z"/><path class="cls-8" d="M37.3,8.89l.09.28h.3a0,0,0,0,1,0,.07l-.24.17.09.28a0,0,0,0,1-.06.05l-.24-.17L37,9.74A0,0,0,0,1,37,9.69l.09-.28-.24-.17s0-.07,0-.07h.29l.09-.28S37.29,8.85,37.3,8.89Z"/><path class="cls-8" d="M37.3,10.34l.09.28h.3a0,0,0,0,1,0,.08l-.24.17.09.28s0,.07-.06,0L37.26,11l-.24.17s-.07,0-.06,0l.09-.28-.24-.17s0-.07,0-.08h.29l.09-.28S37.29,10.31,37.3,10.34Z"/><path class="cls-8" d="M38.43,5.23l.09.28h.3a0,0,0,0,1,0,.07l-.24.18.09.28a0,0,0,0,1-.06,0l-.24-.17-.24.17a0,0,0,0,1-.06,0l.09-.28L38,5.58a0,0,0,0,1,0-.07h.29l.09-.28S38.42,5.2,38.43,5.23Z"/><path class="cls-8" d="M38.43,6.69l.09.28h.3a0,0,0,0,1,0,.07l-.24.17.09.28a0,0,0,0,1-.06,0l-.24-.17-.24.17a0,0,0,0,1-.06,0l.09-.28L38,7A0,0,0,0,1,38,7h.29l.09-.28S38.42,6.65,38.43,6.69Z"/><path class="cls-8" d="M38.43,8.14l.09.28h.3a0,0,0,0,1,0,.07l-.24.17.09.28a0,0,0,0,1-.06.05l-.24-.18L38.15,9A0,0,0,0,1,38.09,9l.09-.28L38,8.5s0-.07,0-.07h.29l.09-.28S38.42,8.11,38.43,8.14Z"/><path class="cls-8" d="M38.43,9.6l.09.28h.3a0,0,0,0,1,0,.07l-.24.18.09.28a0,0,0,0,1-.06,0l-.24-.17-.24.17a0,0,0,0,1-.06,0l.09-.28L38,10a0,0,0,0,1,0-.07h.29l.09-.28S38.42,9.57,38.43,9.6Z"/><path class="cls-8" d="M39.56,4.52l.09.28H40a0,0,0,0,1,0,.07L39.73,5l.09.28a0,0,0,0,1-.06,0l-.24-.17-.24.17a0,0,0,0,1-.06,0L39.31,5l-.23-.17a0,0,0,0,1,0-.07h.29l.1-.28A0,0,0,0,1,39.56,4.52Z"/><path class="cls-8" d="M39.56,6l.09.28H40s0,0,0,.08l-.24.17.09.28s0,.07-.06,0l-.24-.17-.24.17s-.07,0-.06,0l.09-.28-.23-.17s0-.08,0-.08h.29l.1-.28A0,0,0,0,1,39.56,6Z"/><path class="cls-8" d="M39.56,7.43l.09.28H40a0,0,0,0,1,0,.07L39.73,8l.09.28a0,0,0,0,1-.06,0l-.24-.17-.24.17a0,0,0,0,1-.06,0L39.31,8l-.23-.18a0,0,0,0,1,0-.07h.29l.1-.28A0,0,0,0,1,39.56,7.43Z"/><path class="cls-8" d="M39.56,8.89l.09.28H40a0,0,0,0,1,0,.07l-.24.17.09.28a0,0,0,0,1-.06.05l-.24-.17-.24.17a0,0,0,0,1-.06-.05l.09-.28-.23-.17a0,0,0,0,1,0-.07h.29l.1-.28A0,0,0,0,1,39.56,8.89Z"/><path class="cls-8" d="M39.56,10.34l.09.28H40a0,0,0,0,1,0,.08l-.24.17.09.28s0,.07-.06,0L39.52,11l-.24.17s-.07,0-.06,0l.09-.28-.23-.17a0,0,0,0,1,0-.08h.29l.1-.28A0,0,0,0,1,39.56,10.34Z"/></g><g id="Container-2-5" data-name="Container-2" class="cls-6"><path d="M41.3,4h0a48.91,48.91,0,0,1,7.3.45,3.56,3.56,0,0,1,3.17,3.16,41.27,41.27,0,0,1,0,8.75,3.41,3.41,0,0,1-3.18,3.15,49.58,49.58,0,0,1-7.52.49,50.45,50.45,0,0,1-7.56-.49,3.63,3.63,0,0,1-3.19-3.23,29,29,0,0,1,0-8.58c.5-2.11,1.36-3,3.17-3.25A60.16,60.16,0,0,1,41.3,4m0-1a60.11,60.11,0,0,0-7.95.46c-2.49.36-3.49,1.84-4,4a30.11,30.11,0,0,0,0,9,4.63,4.63,0,0,0,4,4,52,52,0,0,0,7.72.5,51.42,51.42,0,0,0,7.69-.5,4.42,4.42,0,0,0,4-4,42.68,42.68,0,0,0,0-9,4.56,4.56,0,0,0-4-4A51.38,51.38,0,0,0,41.3,3Z"/></g></g><g id="_24_USA_Normal" data-name="24_USA_Normal"><g class="cls-11"><rect class="cls-12" y="3" width="24" height="18.05"/><path class="cls-13" d="M24,4.38H0V3H24V4.38Z"/><rect class="cls-13" y="8.54" width="24" height="1.38"/><rect class="cls-13" y="5.77" width="24" height="1.38"/><path class="cls-13" d="M24,12.69H0V11.31H24Z"/><rect class="cls-13" y="16.85" width="24" height="1.38"/><path class="cls-13" d="M24,21H0V19.62H24Z"/><rect class="cls-13" y="14.08" width="24" height="1.38"/><rect class="cls-14" y="3" width="12" height="9.69"/><path class="cls-12" d="M1.51,4.52l.1.28H1.9a0,0,0,0,1,0,.07L1.69,5l.09.28a0,0,0,0,1-.06,0L1.48,5.2l-.24.17a0,0,0,0,1-.06,0L1.27,5,1,4.87a0,0,0,0,1,0-.07h.3l.09-.28A0,0,0,0,1,1.51,4.52Z"/><path class="cls-12" d="M1.51,6l.1.28H1.9s.05,0,0,.08l-.23.17.09.28s0,.07-.06,0l-.24-.17-.24.17s-.07,0-.06,0l.09-.28L1,6.33s0-.08,0-.08h.3L1.44,6A0,0,0,0,1,1.51,6Z"/><path class="cls-12" d="M1.51,7.43l.1.28H1.9a0,0,0,0,1,0,.07L1.69,8l.09.28a0,0,0,0,1-.06,0l-.24-.17-.24.17a0,0,0,0,1-.06,0L1.27,8,1,7.78a0,0,0,0,1,0-.07h.3l.09-.28A0,0,0,0,1,1.51,7.43Z"/><path class="cls-12" d="M1.51,8.89l.1.28H1.9a0,0,0,0,1,0,.07l-.23.17.09.28a0,0,0,0,1-.06.05l-.24-.17-.24.17a0,0,0,0,1-.06-.05l.09-.28L1,9.24a0,0,0,0,1,0-.07h.3l.09-.28A0,0,0,0,1,1.51,8.89Z"/><path class="cls-12" d="M1.51,10.34l.1.28H1.9a0,0,0,0,1,0,.08l-.23.17.09.28s0,.07-.06,0L1.48,11l-.24.17s-.07,0-.06,0l.09-.28L1,10.7a0,0,0,0,1,0-.08h.3l.09-.28A0,0,0,0,1,1.51,10.34Z"/><path class="cls-12" d="M2.65,5.23l.09.28H3a0,0,0,0,1,0,.07l-.23.18L2.91,6a0,0,0,0,1-.06,0l-.24-.17-.24.17a0,0,0,0,1-.06,0l.09-.28-.24-.18a0,0,0,0,1,0-.07h.3l.09-.28S2.63,5.2,2.65,5.23Z"/><path class="cls-12" d="M2.65,6.69,2.74,7H3a0,0,0,0,1,0,.07l-.23.17.09.28a0,0,0,0,1-.06,0l-.24-.17-.24.17a0,0,0,0,1-.06,0l.09-.28L2.16,7a0,0,0,0,1,0-.07h.3l.09-.28S2.63,6.65,2.65,6.69Z"/><path class="cls-12" d="M2.65,8.14l.09.28H3s.06,0,0,.07l-.23.17L2.91,9A0,0,0,0,1,2.85,9l-.24-.18L2.37,9A0,0,0,0,1,2.31,9l.09-.28L2.16,8.5a0,0,0,0,1,0-.07h.3l.09-.28S2.63,8.11,2.65,8.14Z"/><path class="cls-12" d="M2.65,9.6l.09.28H3a0,0,0,0,1,0,.07l-.23.18.09.28a0,0,0,0,1-.06,0l-.24-.17-.24.17a0,0,0,0,1-.06,0l.09-.28L2.16,10a0,0,0,0,1,0-.07h.3l.09-.28S2.63,9.57,2.65,9.6Z"/><path class="cls-12" d="M3.78,4.52l.09.28h.29s.06,0,0,.07L4,5,4,5.32a0,0,0,0,1-.06,0L3.74,5.2l-.24.17a0,0,0,0,1-.06,0L3.53,5l-.24-.17a0,0,0,0,1,0-.07h.3l.09-.28S3.76,4.48,3.78,4.52Z"/><path class="cls-12" d="M3.78,6l.09.28h.29a0,0,0,0,1,0,.08L4,6.5,4,6.78s0,.07-.06,0l-.24-.17-.24.17s-.07,0-.06,0l.09-.28-.24-.17s0-.08,0-.08h.3L3.7,6S3.76,5.94,3.78,6Z"/><path class="cls-12" d="M3.78,7.43l.09.28h.29s.06,0,0,.07L4,8,4,8.24a0,0,0,0,1-.06,0l-.24-.17-.24.17a0,0,0,0,1-.06,0L3.53,8l-.24-.18a0,0,0,0,1,0-.07h.3l.09-.28S3.76,7.39,3.78,7.43Z"/><path class="cls-12" d="M3.78,8.89l.09.28h.29s.06.05,0,.07L4,9.41,4,9.69A0,0,0,0,1,4,9.74l-.24-.17-.24.17a0,0,0,0,1-.06-.05l.09-.28-.24-.17a0,0,0,0,1,0-.07h.3l.09-.28S3.76,8.85,3.78,8.89Z"/><path class="cls-12" d="M3.78,10.34l.09.28h.29s.06.05,0,.08L4,10.87l.09.28s0,.07-.06,0L3.74,11l-.24.17s-.07,0-.06,0l.09-.28-.24-.17a0,0,0,0,1,0-.08h.3l.09-.28S3.76,10.31,3.78,10.34Z"/><path class="cls-12" d="M4.91,5.23,5,5.51h.29s.06,0,0,.07l-.24.18L5.17,6a0,0,0,0,1-.06,0l-.24-.17-.24.17a0,0,0,0,1-.06,0l.09-.28-.24-.18s0-.07,0-.07h.29l.09-.28S4.89,5.2,4.91,5.23Z"/><path class="cls-12" d="M4.91,6.69,5,7h.29s.06,0,0,.07l-.24.17.09.28a0,0,0,0,1-.06,0l-.24-.17-.24.17a0,0,0,0,1-.06,0l.09-.28L4.42,7s0-.07,0-.07h.29l.09-.28S4.89,6.65,4.91,6.69Z"/><path class="cls-12" d="M4.91,8.14,5,8.42h.29a0,0,0,0,1,0,.07l-.24.17L5.17,9A0,0,0,0,1,5.11,9l-.24-.18L4.63,9A0,0,0,0,1,4.57,9l.09-.28L4.42,8.5a0,0,0,0,1,0-.07h.29l.09-.28S4.89,8.11,4.91,8.14Z"/><path class="cls-12" d="M4.91,9.6,5,9.88h.29s.06,0,0,.07l-.24.18.09.28a0,0,0,0,1-.06,0l-.24-.17-.24.17a0,0,0,0,1-.06,0l.09-.28L4.42,10s0-.07,0-.07h.29l.09-.28S4.89,9.57,4.91,9.6Z"/><path class="cls-12" d="M6,4.52l.09.28h.29s.06,0,0,.07L6.21,5l.09.28a0,0,0,0,1-.06,0L6,5.2l-.24.17a0,0,0,0,1-.06,0L5.79,5l-.24-.17s0-.07,0-.07h.29L6,4.52A0,0,0,0,1,6,4.52Z"/><path class="cls-12" d="M6,6l.09.28h.29a0,0,0,0,1,0,.08l-.24.17.09.28s0,.07-.06,0L6,6.65l-.24.17s-.07,0-.06,0l.09-.28-.24-.17a0,0,0,0,1,0-.08h.29L6,6A0,0,0,0,1,6,6Z"/><path class="cls-12" d="M6,7.43l.09.28h.29s.06,0,0,.07L6.21,8l.09.28a0,0,0,0,1-.06,0L6,8.11l-.24.17a0,0,0,0,1-.06,0L5.79,8l-.24-.18s0-.07,0-.07h.29L6,7.43A0,0,0,0,1,6,7.43Z"/><path class="cls-12" d="M6,8.89l.09.28h.29s.06.05,0,.07l-.24.17.09.28a0,0,0,0,1-.06.05L6,9.57l-.24.17a0,0,0,0,1-.06-.05l.09-.28-.24-.17s0-.07,0-.07h.29L6,8.89A0,0,0,0,1,6,8.89Z"/><path class="cls-12" d="M6,10.34l.09.28h.29s.06.05,0,.08l-.24.17.09.28s0,.07-.06,0L6,11l-.24.17s-.07,0-.06,0l.09-.28-.24-.17s0-.07,0-.08h.29L6,10.34A0,0,0,0,1,6,10.34Z"/><path class="cls-12" d="M7.17,5.23l.09.28h.29s.06,0,0,.07l-.24.18L7.43,6a0,0,0,0,1-.06,0l-.24-.17-.24.17a0,0,0,0,1-.06,0l.09-.28-.24-.18s0-.07,0-.07H7l.09-.28S7.16,5.2,7.17,5.23Z"/><path class="cls-12" d="M7.17,6.69,7.26,7h.29s.06,0,0,.07l-.24.17.09.28a0,0,0,0,1-.06,0l-.24-.17-.24.17a0,0,0,0,1-.06,0l.09-.28L6.68,7s0-.07,0-.07H7l.09-.28S7.16,6.65,7.17,6.69Z"/><path class="cls-12" d="M7.17,8.14l.09.28h.29a0,0,0,0,1,0,.07l-.24.17L7.43,9A0,0,0,0,1,7.37,9l-.24-.18L6.89,9A0,0,0,0,1,6.83,9l.09-.28L6.68,8.5a0,0,0,0,1,0-.07H7l.09-.28S7.16,8.11,7.17,8.14Z"/><path class="cls-12" d="M7.17,9.6l.09.28h.29s.06,0,0,.07l-.24.18.09.28a0,0,0,0,1-.06,0l-.24-.17-.24.17a0,0,0,0,1-.06,0l.09-.28L6.68,10s0-.07,0-.07H7l.09-.28S7.16,9.57,7.17,9.6Z"/><path class="cls-12" d="M8.3,4.52l.09.28h.3a0,0,0,0,1,0,.07L8.47,5l.09.28a0,0,0,0,1-.06,0L8.26,5.2,8,5.37a0,0,0,0,1-.06,0L8.05,5l-.24-.17s0-.07,0-.07h.29l.09-.28S8.29,4.48,8.3,4.52Z"/><path class="cls-12" d="M8.3,6l.09.28h.3s.05,0,0,.08l-.24.17.09.28s0,.07-.06,0l-.24-.17L8,6.82s-.07,0-.06,0l.09-.28-.24-.17a0,0,0,0,1,0-.08h.29L8.22,6S8.29,5.94,8.3,6Z"/><path class="cls-12" d="M8.3,7.43l.09.28h.3a0,0,0,0,1,0,.07L8.47,8l.09.28a0,0,0,0,1-.06,0l-.24-.17L8,8.28a0,0,0,0,1-.06,0L8.05,8l-.24-.18s0-.07,0-.07h.29l.09-.28S8.29,7.39,8.3,7.43Z"/><path class="cls-12" d="M8.3,8.89l.09.28h.3a0,0,0,0,1,0,.07l-.24.17.09.28a0,0,0,0,1-.06.05l-.24-.17L8,9.74A0,0,0,0,1,8,9.69l.09-.28-.24-.17s0-.07,0-.07h.29l.09-.28S8.29,8.85,8.3,8.89Z"/><path class="cls-12" d="M8.3,10.34l.09.28h.3a0,0,0,0,1,0,.08l-.24.17.09.28s0,.07-.06,0L8.26,11,8,11.19s-.07,0-.06,0l.09-.28-.24-.17s0-.07,0-.08h.29l.09-.28S8.29,10.31,8.3,10.34Z"/><path class="cls-12" d="M9.43,5.23l.09.28h.3a0,0,0,0,1,0,.07l-.24.18L9.69,6a0,0,0,0,1-.06,0l-.24-.17-.24.17a0,0,0,0,1-.06,0l.09-.28L9,5.58a0,0,0,0,1,0-.07h.29l.09-.28S9.42,5.2,9.43,5.23Z"/><path class="cls-12" d="M9.43,6.69,9.52,7h.3a0,0,0,0,1,0,.07l-.24.17.09.28a0,0,0,0,1-.06,0l-.24-.17-.24.17a0,0,0,0,1-.06,0l.09-.28L9,7A0,0,0,0,1,9,7h.29l.09-.28S9.42,6.65,9.43,6.69Z"/><path class="cls-12" d="M9.43,8.14l.09.28h.3a0,0,0,0,1,0,.07l-.24.17L9.69,9A0,0,0,0,1,9.63,9l-.24-.18L9.15,9A0,0,0,0,1,9.09,9l.09-.28L9,8.5s0-.07,0-.07h.29l.09-.28S9.42,8.11,9.43,8.14Z"/><path class="cls-12" d="M9.43,9.6l.09.28h.3a0,0,0,0,1,0,.07l-.24.18.09.28a0,0,0,0,1-.06,0l-.24-.17-.24.17a0,0,0,0,1-.06,0l.09-.28L9,10a0,0,0,0,1,0-.07h.29l.09-.28S9.42,9.57,9.43,9.6Z"/><path class="cls-12" d="M10.56,4.52l.09.28H11a0,0,0,0,1,0,.07L10.73,5l.09.28a0,0,0,0,1-.06,0l-.24-.17-.24.17a0,0,0,0,1-.06,0L10.31,5l-.23-.17a0,0,0,0,1,0-.07h.29l.1-.28A0,0,0,0,1,10.56,4.52Z"/><path class="cls-12" d="M10.56,6l.09.28H11s.05,0,0,.08l-.24.17.09.28s0,.07-.06,0l-.24-.17-.24.17s-.07,0-.06,0l.09-.28-.23-.17s0-.08,0-.08h.29l.1-.28A0,0,0,0,1,10.56,6Z"/><path class="cls-12" d="M10.56,7.43l.09.28H11a0,0,0,0,1,0,.07L10.73,8l.09.28a0,0,0,0,1-.06,0l-.24-.17-.24.17a0,0,0,0,1-.06,0L10.31,8l-.23-.18a0,0,0,0,1,0-.07h.29l.1-.28A0,0,0,0,1,10.56,7.43Z"/><path class="cls-12" d="M10.56,8.89l.09.28H11a0,0,0,0,1,0,.07l-.24.17.09.28a0,0,0,0,1-.06.05l-.24-.17-.24.17a0,0,0,0,1-.06-.05l.09-.28-.23-.17a0,0,0,0,1,0-.07h.29l.1-.28A0,0,0,0,1,10.56,8.89Z"/><path class="cls-12" d="M10.56,10.34l.09.28H11a0,0,0,0,1,0,.08l-.24.17.09.28s0,.07-.06,0L10.52,11l-.24.17s-.07,0-.06,0l.09-.28-.23-.17a0,0,0,0,1,0-.08h.29l.1-.28A0,0,0,0,1,10.56,10.34Z"/></g><g id="Container-2-6" data-name="Container-2" class="cls-6"><path d="M12.3,4h0a48.91,48.91,0,0,1,7.3.45,3.56,3.56,0,0,1,3.17,3.16,41.27,41.27,0,0,1,0,8.75,3.41,3.41,0,0,1-3.18,3.15,49.58,49.58,0,0,1-7.52.49,50.45,50.45,0,0,1-7.56-.49,3.63,3.63,0,0,1-3.19-3.23,29,29,0,0,1,0-8.58c.5-2.11,1.36-3,3.17-3.25A60.16,60.16,0,0,1,12.3,4m0-1a60.11,60.11,0,0,0-8,.46c-2.49.36-3.49,1.84-4,4a30.11,30.11,0,0,0,0,9,4.63,4.63,0,0,0,4,4,52,52,0,0,0,7.72.5,51.42,51.42,0,0,0,7.69-.5,4.42,4.42,0,0,0,4-4,42.68,42.68,0,0,0,0-9,4.56,4.56,0,0,0-4-4A51.38,51.38,0,0,0,12.3,3Z"/></g></g></svg>