<?xml version="1.0" encoding="UTF-8"?><svg id="bb" xmlns="http://www.w3.org/2000/svg" width="16" height="16" viewBox="0 0 16 16"><path d="M.65,1.7c-1.19,1.19-.48,2.67,0,3.34L3.99,1.7C3.32,1.03,1.84,.51,.65,1.7Zm7.35,.28C4.11,1.97,.95,5.11,.95,8.99s3.16,7.01,7.05,7.01,7.05-3.14,7.05-7.01S11.89,1.97,8,1.97Zm0,13.05c-3.32,0-6.01-2.68-6.01-5.99S4.67,3.03,7.99,3.03s6.01,2.68,6.01,5.99-2.69,5.99-6.01,5.99ZM15.34,1.7c-1.19-1.19-2.67-.67-3.34,0l3.34,3.34c.54-.73,1.19-2.15,0-3.34Zm-5.06,4.35l-1.98,1.98h-1.29v2h2v-1.29l1.97-1.97c.2-.2,.2-.51,0-.71-.2-.2-.51-.2-.71,0Z" style="fill:#0089d9; fill-rule:evenodd;"/></svg>