<?xml version="1.0" encoding="UTF-8"?><svg id="bu" xmlns="http://www.w3.org/2000/svg" width="16" height="16" viewBox="0 0 16 16"><path d="M14.41,1.06c-1.59-1.59-2.81-1.22-4.4,.37-.8,.8-6.36,6.36-7.16,7.16-2.39,2.39-2.39,3.98-.42,5.94,2.01,2.01,3.61,2.01,5.99-.37,1.59-1.59,6.36-6.36,6.36-6.36l-.8-.8s-5.57,5.57-6.36,6.36c-1.42,1.42-2.57,2.21-4.42,.35-1.62-1.62-.99-2.89,.45-4.33,1.59-1.59,6.36-6.36,7.16-7.16,.8-.8,1.59-1.59,2.83-.35,1.14,1.14,.35,1.94-.45,2.73-.8,.8-5.81,5.81-6.36,6.36-.8,.8-1.59,0-.8-.8,.8-.8,6.36-6.36,6.36-6.36l-.8-.8s-5.57,5.57-6.36,6.36c-.8,.8-1.19,1.99-.4,2.78,.8,.8,1.99,.4,2.78-.4,.8-.8,5.57-5.57,6.36-6.36,1.59-1.59,2.01-2.76,.42-4.35Z" style="fill:#0089d9; fill-rule:evenodd;"/></svg>