<svg id="announcement" xmlns="http://www.w3.org/2000/svg" width="16" height="16" viewBox="0 0 16 16"><defs><style>.cls-1{fill:#0089d9;}.cls-2{fill:#c8c8c8;}.cls-3{fill:#39a6e6;}</style></defs><title>16-announcement</title><g id="normal"><path class="cls-1" d="M12.1,1c-.5,0-.5.2-4.3,3.3A2.6,2.6,0,0,1,6,5H3A3,3,0,0,0,0,8a2.9,2.9,0,0,0,3,3H3a3,3,0,0,0,3,3,3.2,3.2,0,0,0,2.7-1.6c2.9,2.4,2.9,2.6,3.4,2.6a.8.8,0,0,0,.9-.9V1.9A.8.8,0,0,0,12.1,1ZM6,13a2,2,0,0,1-2-2H6a2.6,2.6,0,0,1,1.8.7h.1A2.1,2.1,0,0,1,6,13Zm6,.9-3.6-3A3.6,3.6,0,0,0,6,10H3A2,2,0,0,1,3,6H6a3.6,3.6,0,0,0,2.4-.9l3.6-3ZM14.5,7h.3l.6-.4a.5.5,0,0,0,.1-.7.6.6,0,0,0-.7-.1l-.6.4a.5.5,0,0,0-.1.7Zm.9,2.3-.6-.2a.5.5,0,0,0-.6.8l.7.2h.3l.4-.2C15.7,9.7,15.7,9.4,15.4,9.3Z"/></g></svg>