<?xml version="1.0" encoding="UTF-8"?><svg id="bq" xmlns="http://www.w3.org/2000/svg" width="16" height="16" viewBox="0 0 16 16"><path d="M12,0H4C1.79,0,0,1.79,0,4v4c0,2.21,1.77,4,4,4,.67,0,1,2.67,1,4h1c0-1.85,2.05-3.68,3.07-3.94,.09-.38,.24-.73,.43-1.06h-.49c-1.33,0-2.43,.69-3,2-.04-1.33-.82-2-2-2-1.66,0-3-1.34-3-3V4c0-1.65,1.34-3,3-3H12c1.65,0,3,1.35,3,3v4c0,.49-.13,.94-.34,1.35,.31,.14,.59,.32,.84,.53,.3-.56,.49-1.2,.49-1.89V4c0-2.21-1.79-4-4-4Zm0,5h-2v.89s-.02,.07-.02,.11,.02,.07,.02,.11v.89h2v-.99h0v-1.01Zm-3,2v-.99h0v-1.01h-2v.89s-.02,.07-.02,.11,.02,.07,.02,.11v.89h2Zm-3,0v-.99h0v-1.01H4v.89s-.02,.07-.02,.11,.02,.07,.02,.11v.89h2Z" style="fill:#0089d9; fill-rule:evenodd;"/><path d="M12,10h2v6h-2v-6Z" style="fill:#68a611; fill-rule:evenodd;"/><path d="M10,12h6v2h-6v-2Z" style="fill:#68a611; fill-rule:evenodd;"/></svg>