<?xml version="1.0" encoding="UTF-8"?><svg id="bb" xmlns="http://www.w3.org/2000/svg" width="16" height="16" viewBox="0 0 16 16">
<path style="fill:#0089d9; fill-rule:evenodd;" d="M10,0H1v16h13V4L10,0z M13,4h-3V1L13,4z M13,15H2V1h7v4h4V15z"/>
<g>
	<path style="fill:#0089d9; fill-rule:evenodd;" d="M4.7,8.1C4.4,8.1,4.2,8.2,4,8.6C3.9,8.9,3.8,9.4,3.8,10c0,1.3,0.3,1.9,0.9,1.9c0.3,0,0.6-0.1,0.9-0.3v1
		c-0.3,0.2-0.6,0.3-1,0.3c-0.5,0-0.9-0.3-1.2-0.8S3,11,3,10c0-0.6,0.1-1.1,0.2-1.6c0.1-0.4,0.3-0.8,0.6-1s0.6-0.4,0.9-0.4
		c0.4,0,0.7,0.1,1.1,0.4l-0.2,1C5.4,8.3,5.2,8.3,5.1,8.2C5,8.1,4.8,8.1,4.7,8.1z"/>
	<path style="fill:#0089d9; fill-rule:evenodd;" d="M8.5,11.3c0,0.5-0.1,0.9-0.4,1.2c-0.2,0.3-0.6,0.4-1,0.4c-0.4,0-0.7-0.1-1-0.3v-1.1c0.2,0.2,0.4,0.3,0.6,0.4
		c0.2,0.1,0.3,0.1,0.5,0.1c0.2,0,0.3-0.1,0.4-0.2s0.1-0.3,0.1-0.5c0-0.1,0-0.2-0.1-0.3c0-0.1-0.1-0.2-0.2-0.3
		c-0.1-0.1-0.2-0.2-0.5-0.4c-0.2-0.2-0.4-0.3-0.5-0.5C6.5,9.8,6.4,9.6,6.3,9.4C6.2,9.2,6.2,9,6.2,8.7c0-0.5,0.1-0.9,0.3-1.2
		C6.7,7.2,7,7.1,7.4,7.1c0.2,0,0.4,0,0.5,0.1s0.3,0.2,0.5,0.3L8.2,8.4C8.1,8.3,7.9,8.2,7.8,8.1c-0.1,0-0.2-0.1-0.4-0.1
		c-0.1,0-0.3,0.1-0.3,0.2C7,8.3,7,8.5,7,8.7c0,0.1,0,0.2,0,0.3C7,9,7.1,9.1,7.1,9.2c0.1,0.1,0.2,0.2,0.5,0.4
		c0.3,0.3,0.6,0.5,0.7,0.8C8.5,10.6,8.5,10.9,8.5,11.3z"/>
	<path style="fill:#0089d9; fill-rule:evenodd;" d="M11.2,7.1H12l-1.2,5.7H9.9L8.7,7.1h0.8l0.7,3.4c0,0.2,0.1,0.4,0.1,0.7c0,0.3,0.1,0.5,0.1,0.6
		c0-0.2,0.1-0.7,0.2-1.3L11.2,7.1z"/>
</g>
</svg>