<?xml version="1.0" encoding="UTF-8"?><svg id="bk" xmlns="http://www.w3.org/2000/svg" width="16" height="16" viewBox="0 0 16 16"><path d="M13.55,12.24c-.65-1.16-1.8-1.76-2.75-1.51l-1.36-1.4h.34C13.02,6.67,13.33,0,13.33,0h-.65s-1.13,5.78-4.43,8.73l-.12-.06-.13,.26s-.03,.02-.05,.04c-.02-.01-.03-.02-.05-.04l-.13-.26-.12,.06C4.37,5.78,3.24,0,3.24,0h-.65s.25,6.67,3.5,9.33h.4l-1.36,1.4c-.95-.24-2.11,.36-2.75,1.51-.75,1.34-.54,2.91,.47,3.52,1.01,.6,2.44,0,3.19-1.34,.54-.97,.57-2.05,.18-2.81l.87-.9,.88-.47,.88,.47,.87,.9c-.4,.76-.36,1.84,.18,2.81,.75,1.34,2.18,1.94,3.19,1.34,1.01-.6,1.22-2.18,.47-3.52Zm-8.6,1.7c-.31,.64-.9,.92-1.32,.63-.42-.28-.51-1.03-.2-1.67,.31-.64,.99-1.12,1.41-.83,.42,.28,.42,1.23,.11,1.87Zm7.36,.63c-.42,.29-1.01,0-1.32-.63s-.31-1.58,.11-1.87c.42-.29,1.1,.2,1.41,.83,.31,.63,.22,1.38-.2,1.67Z" style="fill:#0089d9; fill-rule:evenodd;"/></svg>