<?xml version="1.0" encoding="UTF-8"?><svg id="aq" xmlns="http://www.w3.org/2000/svg" width="16" height="16" viewBox="0 0 16 16"><path d="M14,10v3c0,.55-.45,1-1,1H2c-.55,0-1-.45-1-1v-3H0v4C0,14.55,.45,15,1,15H14c.55,0,1-.45,1-1v-4h-1Zm-7.06,1.64s.08,.06,.12,.08c.08,.16,.25,.28,.44,.28s.36-.11,.44-.28c.04-.02,.09-.05,.12-.08l2.83-2.83c.2-.2,.2-.51,0-.71-.2-.2-.51-.2-.71,0l-2.19,2.19V1.5c0-.28-.22-.5-.5-.5s-.5,.22-.5,.5V10.29l-2.19-2.19c-.2-.2-.51-.2-.71,0-.2,.2-.2,.51,0,.71l2.83,2.83Z" style="fill:#0089d9; fill-rule:evenodd;"/></svg>