<?xml version="1.0" encoding="UTF-8"?><svg id="bv" xmlns="http://www.w3.org/2000/svg" width="16" height="16" viewBox="0 0 16 16"><path d="M8,3h-1.81c0-1,.81-1.81,1.81-1.81V0C6.41,0,5,1.44,5,3H1.53c-.95,0-1.53,.61-1.53,1.41v.59H1v-.5c0-.31,.24-.5,.66-.5,1.57,0,6.34,0,6.34,0v-1Zm2,8.5V6.5c0-.28-.22-.5-.5-.5s-.5,.22-.5,.5v5c0,.28,.22,.5,.5,.5s.5-.22,.5-.5ZM6,6.5v5c0,.28,.22,.5,.5,.5s.5-.22,.5-.5V6.5c0-.28-.22-.5-.5-.5s-.5,.22-.5,.5Zm6.88-.5s-.86,6.92-.84,8c0,.47-.48,1-1.03,1H5c-.55,0-1.04-.53-1.03-1,.01-1.08-.84-8-.84-8,0-1-1.25-1-1.25,0l.84,8.69c0,.47,.88,1.31,1.28,1.31H12c.41,0,1.28-.84,1.28-1.31l.84-8.69c0-1-1.25-1-1.25,0Zm-3.06-3h1.19C11,1.44,9.59,0,8,0V1.19c1,0,1.81,.81,1.81,1.81Zm4.66,0h-6.47v1s4.78,0,6.34,0c.42,0,.66,.19,.66,.5v.5h1v-.59c0-.79-.58-1.41-1.53-1.41Z" style="fill:#0089d9; fill-rule:evenodd;"/></svg>