<?xml version="1.0" encoding="UTF-8"?><svg id="am" xmlns="http://www.w3.org/2000/svg" width="16" height="16" viewBox="0 0 16 16"><path d="M15.34,0c-.7,0-1.33,0-1.33,0V9.01s.64,.04,1.33,.04c1.04-.67,.7-8.37,0-9.04ZM.06,5.83c0,.76,.62,.77,.68,1.21,.07,.55-.54,.84-.35,1.63,.1,.4,.61,.63,1.11,.72,.62,.11,3.14-.13,3.76,.46,.85,.8-.35,1.63-.35,3.43,0,2.1,1.46,3.48,3.41,2.26-.43-1.03-.23-2.04,.46-3.23,.94-3.03,2.74-3.43,4.22-4.31V1.01c-2.57,0-4.01-.84-5.76-.94C4.95-.06,2.86,.49,2.53,.57c-1.17,.27-.83,1.14-1.13,1.61-.28,.44-.79,.36-.98,1.03-.17,.6,.33,.73,.33,1.17,0,.58-.68,.64-.68,1.45Zm1.84-1c.04-.48-.47-.8-.35-1.18,.12-.41,.93-.29,1.15-.74,.22-.44-.26-1.27,.67-1.49,.26-.06,1.8-.52,3.63-.42,1.39,.08,2.96,1,5,1V7.01c-1.39,.57-3.78,1.99-4.14,4.82-.57,.67-.97,1.92-.81,2.93-.92-.18-1.24-1.57-.73-2.66,.58-1.27,.86-2.27,.16-2.89-.57-.5-3.02-.74-3.52-.76-.4-.01-1.08-.14-1.14-.29-.17-.42,.07-.95,0-1.29-.08-.35-.68-.57-.68-1.01,0-.44,.72-.54,.76-1.02Z" style="fill:#0089d9; fill-rule:evenodd;"/></svg>