<?xml version="1.0" encoding="UTF-8"?><svg id="bc" xmlns="http://www.w3.org/2000/svg" width="16" height="16" viewBox="0 0 16 16"><path d="M8,0L0,3.5l8,3.5,8-3.5L8,0ZM2.5,3.5L8,1.19l5.5,2.31-5.5,2.31L2.5,3.5Z" style="fill:#0089d9; fill-rule:evenodd;"/><path d="M3,4v5s2.01,2,5,2,5-2,5-2V4l-1,.4v4.05s-1.53,1.55-4,1.55-4-1.55-4-1.55V4.4l-1-.4Z" style="fill:#0089d9; fill-rule:evenodd;"/><path d="M5,4.55v7.45s-1,.5,0,1c-.98,1.02-1,2.01-1,2.5s1.54,.5,1.54,.5c0,0,1.46,.03,1.46-.48s.02-1.5-1-2.52c1-.48,0-1,0-1V4.97l3.11-1.31-1-.4-3.1,1.29Z" style="fill:#0089d9; fill-rule:evenodd;"/></svg>