<?xml version="1.0" encoding="UTF-8"?><svg id="n" xmlns="http://www.w3.org/2000/svg" width="16" height="16" viewBox="0 0 16 16"><g id="o"><rect id="p" width="16" height="16" style="fill:none; opacity:0;"/><path d="M12.57,4.41l2.43-2.43-.98-.98-2.43,2.43-1.59-1.59V6h4.16l-1.59-1.59Z" style="fill:#0089d9; fill-rule:evenodd;"/><path d="M12.57,11.59l2.43,2.43-.98,.98-2.43-2.43-1.59,1.59v-4.16h4.16l-1.59,1.59Z" style="fill:#0089d9; fill-rule:evenodd;"/><path d="M3.43,11.59l-2.43,2.43,.98,.98,2.43-2.43,1.59,1.59v-4.16H1.84l1.59,1.59Z" style="fill:#0089d9; fill-rule:evenodd;"/><path d="M3.43,4.41L1,1.98l.98-.98,2.43,2.43,1.59-1.59V6H1.84l1.59-1.59Z" style="fill:#0089d9; fill-rule:evenodd;"/></g></svg>