<?xml version="1.0" encoding="UTF-8"?><svg id="ag" xmlns="http://www.w3.org/2000/svg" width="16" height="16" viewBox="0 0 16 16"><path d="M15.86,.14c-.1-.1-.23-.15-.37-.14h-3.99c-.28,0-.5,.22-.5,.5s.22,.5,.5,.5h2.79L5.96,9.34c-.2,.2-.2,.51,0,.71,.2,.2,.51,.2,.71,0L15,1.71v2.79c0,.28,.22,.5,.5,.5s.5-.22,.5-.5V.51c0-.13-.04-.26-.14-.37Zm-2.36,6.86c-.28,0-.5,.22-.5,.5v7.5H1V3h7.5c.28,0,.5-.22,.5-.5s-.22-.5-.5-.5H.5c-.28,0-.5,.22-.5,.5V15.5c0,.28,.22,.5,.5,.5H13.5c.28,0,.5-.22,.5-.5V7.5c0-.28-.22-.5-.5-.5Z" style="fill:#0089d9; fill-rule:evenodd;"/></svg>