<?xml version="1.0" encoding="UTF-8"?><svg id="t" xmlns="http://www.w3.org/2000/svg" width="16" height="16" viewBox="0 0 16 16"><g id="u"><rect id="v" width="16" height="16" style="fill:none; opacity:0;"/><path d="M12.4,2.61l-2.45,2.45,.99,.99,2.45-2.45,1.61,1.61V1h-4.2l1.61,1.61Z" style="fill:#0089d9; fill-rule:evenodd;"/><path d="M12.4,13.4l-2.45-2.45,.99-.99,2.45,2.45,1.61-1.61v4.2h-4.2l1.61-1.6Z" style="fill:#0089d9; fill-rule:evenodd;"/><path d="M3.57,13.4l2.45-2.45-.99-.99-2.45,2.45-1.58-1.61v4.2H5.18l-1.61-1.6Z" style="fill:#0089d9; fill-rule:evenodd;"/><path d="M3.57,2.61l2.45,2.45-.99,.99L2.58,3.6l-1.58,1.61V1H5.18l-1.61,1.61Z" style="fill:#0089d9; fill-rule:evenodd;"/></g></svg>