<?xml version="1.0" encoding="UTF-8"?><svg id="m" xmlns="http://www.w3.org/2000/svg" width="16" height="16" viewBox="0 0 16 16"><path d="M16,6V.69l-1.78,1.77C6-4.95-5.02,6.24,2.51,13.76c4.5,4.29,12.19,2.35,13.46-4.76h-1.34c-.7,4.52-4.65,6.63-8.42,5.6C1.53,13.28-.23,7.03,3.28,3.72c2.21-2.13,6.41-2.65,9.18,.49l-1.8,1.79h5.34Zm-7.55-2.83c-.17,.01-.29,.15-.31,.31l-.38,4.29c-1.28,.13-3.56,.39-3.65,.39-.18,.02-.32,.19-.3,.37,.02,.16,.15,.28,.3,.3l3.93,.35c.32,.19,.76,.15,1-.14,.01-.01,.02-.03,.04-.04,.02-.03,.04-.05,.06-.08,.17-.25,.2-.59,.05-.85-.1-1.31-.38-4.49-.39-4.58-.02-.19-.18-.32-.36-.31Z" style="fill:#0089d9; fill-rule:evenodd;"/></svg>