<svg width="38" height="16" viewBox="0 0 38 16" fill="none" xmlns="http://www.w3.org/2000/svg">
<path fill-rule="evenodd" clip-rule="evenodd" d="M15.7 6.6C16 6.2 16 5.7 15.7 5.3C15.6 5.2 15.4 5.1 15.2 5.1L10.6 4.7C10.5 4.7 8.8 0.6 8.7 0.5C8.6 0.2 8.3 0 8 0C7.7 0 7.4 0.2 7.2 0.5L5.4 4.7L0.700002 5.1C0.300002 5.1 -0.0999985 5.4 -0.0999985 5.9C-0.0999985 6.2 0.100002 6.5 0.300002 6.6L3.8 9.6C3.8 9.7 2.8 14.1 2.7 14.1C2.6 14.6 3 15 3.5 15.1C3.7 15.1 3.8 15.1 4 15L8 12.7L12 15C12.4 15.2 12.9 15.1 13.1 14.8C13.2 14.6 13.3 14.4 13.2 14.1L12.2 9.6L15.7 6.6ZM12 13.8C8.4 11.6 8.2 11.6 8 11.6C7.8 11.6 7.6 11.6 3.9 13.8C4.9 9.6 4.9 9.6 4.8 9.3C4.7 9 4.7 8.9 1.4 6.2C5.7 5.8 5.8 5.7 6 5.6C6.2 5.5 6.3 5.2 8 1.2V1.4C9.6 5.4 9.7 5.4 10 5.6C10.3 5.8 10.3 5.8 14.5 6.2C11.3 8.9 11.2 9 11.2 9.3C11.2 9.6 11.1 9.6 12 13.8ZM5.1 7.2C5 7.1 4.8 7.1 4.7 7.2C4.5 7.4 4.5 7.5 4.7 7.7L5.6 8.6C5.6 8.8 5.8 8.8 6 8.7L6.1 8.6C6.2 8.5 6.2 8.3 6.1 8.2L5.1 7.2Z" fill="#0089D9"/>
<path fill-rule="evenodd" clip-rule="evenodd" d="M36.7483 6.5C37.2483 6 37.0483 5.1 36.2483 5C36.1483 5 31.6483 4.6 31.5483 4.5C31.4483 4.4 29.7483 0.4 29.6483 0.3C29.6483 0.1 29.3483 0 29.0483 0C28.7483 0 28.4483 0.1 28.3483 0.5C28.3483 0.6 26.5483 4.7 26.4483 4.7C26.3483 4.8 21.9483 5.1 21.7483 5.2C21.0483 5.3 20.7483 6.2 21.2483 6.7C21.3483 6.8 24.7483 9.7 24.7483 9.7C24.7483 9.8 23.7483 14.1 23.7483 14.2C23.6483 14.9 24.3483 15.5 25.0483 15.1C25.1483 15 28.9483 12.8 29.0483 12.8C29.1483 12.8 32.9483 15.1 33.0483 15.1C33.6483 15.5 34.4483 14.9 34.3483 14.2C34.3483 14.1 33.2483 9.8 33.3483 9.7C33.3483 9.5 36.7483 6.6 36.7483 6.5ZM27.6483 9C27.6483 9.1 27.5483 9.1 27.5483 9.1C27.3483 9.3 27.0483 9.2 26.8483 9L25.3483 7.5C25.0483 7.2 25.0483 7 25.3483 6.7C25.5483 6.5 25.8483 6.5 26.0483 6.7L27.6483 8.3C27.8483 8.6 27.8483 8.9 27.6483 9Z" fill="#0089D9"/>
</svg>
