<?xml version="1.0" encoding="UTF-8"?><svg id="bl" xmlns="http://www.w3.org/2000/svg" width="16" height="16" viewBox="0 0 16 16"><path d="M9.32,.94C7.64-.48,4.29-.25,2.99,1.36V11.36c1.85-1.4,4-1.91,6-.5,2.26,1.6,4.4,1.61,6.01-.17V.69c-2.15,1.31-3.64,1.97-5.68,.25Zm4.67,9.31c-1.57,1.48-2.71,.67-4.63-.53-1.63-1.02-3.94-.95-5.37-.47V1.63c1.53-1,3.54-.76,5.02,.3,1.81,1.31,3.7,1.22,4.98,.7v7.62ZM1.49,.03C1.22,.03,.99,.26,.99,.53V15.53c0,.28,.22,.5,.5,.5s.5-.22,.5-.5V.53C1.99,.26,1.77,.03,1.49,.03Z" style="fill:#0089d9; fill-rule:evenodd;"/></svg>