<?xml version="1.0" encoding="UTF-8"?><svg id="ag" xmlns="http://www.w3.org/2000/svg" width="16" height="16" viewBox="0 0 16 16"><g id="ah"><rect id="ai" y="0" width="16" height="16" style="fill:none; opacity:0;"/><path d="M8.53,14.62c-.17-.34-.31-.69-.4-1.07l-1.13,.57v-4C7,6.11,1,5.88,1,2.11c0-.67,0-1.11,0-1.11H15v1.11c0,3.56-5.43,3.97-5.95,7.46,.49-.61,1.1-1.06,1.76-1.32,1.64-1.71,5.18-2.54,5.18-6.14V0H0V2.11C0,6.78,6,6.78,6,10.12c0,1.33,0,5.77,0,5.77l2.53-1.27Z" style="fill:#0089d9; fill-rule:evenodd;"/><path d="M12.5,9c-1.93,0-3.5,1.57-3.5,3.5s1.57,3.5,3.5,3.5,3.5-1.57,3.5-3.5-1.57-3.5-3.5-3.5Zm-2.5,4v-1h5v1h-5Z" style="fill:#d6565a; fill-rule:evenodd;"/></g></svg>