<?xml version="1.0" encoding="UTF-8"?><svg id="ay" xmlns="http://www.w3.org/2000/svg" width="16" height="16" viewBox="0 0 16 16"><path d="M16,7C16,2.94,13.06,0,9,0c.01,1.34,0,7,0,7h7ZM10.02,1.39c2,0,4.66,2.59,4.66,4.59-.91,0-3.18,.02-4.68,.02,0-1.34,.02-3.94,.02-4.61Z" style="fill:#0089d9; fill-rule:evenodd;"/><path d="M0,9c0,4.06,3.48,7.01,7.54,7.01s7.46-2.94,7.46-7.01H0Zm7.5,5.98c-4.04,0-6.22-3.85-6.22-4.98H13.72c0,1.11-2.2,4.98-6.21,4.98Z" style="fill:#ff8b00; fill-rule:evenodd;"/><path d="M7,1C2.94,1,0,3.92,0,7.98c1.23,0,7,.02,7,.02,0,0-.01-5.66,0-7Zm-1,6H1.28C1.28,5,4,2.31,6,2.31V7Z" style="fill:#68a611; fill-rule:evenodd;"/></svg>