<?xml version="1.0" encoding="UTF-8"?><svg id="bg" xmlns="http://www.w3.org/2000/svg" width="16" height="16" viewBox="0 0 16 16"><path d="M12.04,2h1V4l1-.02V2h0V1h-3v1l1,1V2Zm1.5,7c-.28,0-.5,.22-.5,.5v5.5h-3v-3.5c0-.28-.22-.5-.5-.5h-3c-.28,0-.5,.22-.5,.5v3.5H3.04v-5.5c0-.28-.22-.5-.5-.5s-.5,.22-.5,.5v6c0,.28,.22,.5,.5,.5h4c.28,0,.5-.22,.5-.5v-3.5h2v3.5c0,.28,.22,.5,.5,.5h4c.28,0,.5-.22,.5-.5v-6c0-.28-.22-.5-.5-.5Zm2.39-.82L8.85,1.11c-.2-.2-.51-.2-.71,0-.05,.05-.09,.11-.11,.17-.02-.06-.06-.12-.11-.17-.2-.2-.51-.2-.71,0L.15,8.18c-.2,.2-.2,.51,0,.71,.2,.2,.51,.2,.71,0L7.92,1.82c.05-.05,.09-.11,.11-.17,.02,.06,.06,.12,.11,.17l7.07,7.07c.2,.2,.51,.2,.71,0,.2-.2,.2-.51,0-.71Z" style="fill:#0089d9; fill-rule:evenodd;"/></svg>