<?xml version="1.0" encoding="UTF-8"?><svg id="g" xmlns="http://www.w3.org/2000/svg" width="16" height="16" viewBox="0 0 16 16"><g id="h"><path d="M8,0C3.58,0,0,3.58,0,8s3.58,8,8,8,8-3.58,8-8S12.42,0,8,0Zm0,15c-3.87,0-7-3.13-7-7S4.13,1,8,1s7,3.13,7,7-3.13,7-7,7Z" style="fill:#0089d9; fill-rule:evenodd;"/><path d="M8.76,10c0-.77,.22-1.15,.62-1.51,.64-.56,1.14-1,1.12-2.09-.01-1.38-1.2-2.45-2.51-2.4-1.21,.05-2.11,.84-2.48,1.86-.09,.87,1.21,.96,1.21,.96,0,0,.09-1.28,1.3-1.33,.68-.03,1.14,.34,1.14,.93,0,.44-.44,.8-.82,1.1-.69,.55-1.25,1.46-1.25,2.48h1.66Zm.24,.84h-2v1.16h2v-1.16Z" style="fill:#0089d9;"/></g></svg>