<?xml version="1.0" encoding="UTF-8"?><svg id="bb" xmlns="http://www.w3.org/2000/svg" width="16" height="16" viewBox="0 0 16 16"><path d="M7.5,0C3.36,0,0,3.36,0,7.51s3.36,7.51,7.5,7.51,7.49-3.36,7.49-7.51S11.63,0,7.5,0Zm-.01,14.03C3.89,14.03,.97,11.11,.97,7.52S3.89,1.01,7.48,1.01s6.51,2.91,6.51,6.51-2.91,6.51-6.51,6.51Z" style="fill:#0089d9; fill-rule:evenodd;"/><path d="M5.65,7.54c0,.08-.01,.04,0,.16,0,0,.57-.36,1.15-.41,.07,.03,.11,.12,.09,.2l-.85,2.74c-.11,.4,.46,1.02,1.05,1.01,.74,0,1.23-.32,1.66-1.03,0-.08,.03-.37,.01-.5,0,0-.71,.85-1,.85q-.34,0-.34-.34l.77-2.95c.08-.43,.02-.94-.44-.99-.72-.05-1.67,.55-2.11,1.26Z" style="fill:#0089d9; fill-rule:evenodd;"/><path d="M7.74,5.66c.52,0,.95-.43,.95-.95s-.42-.95-.95-.95-.95,.43-.95,.95,.42,.95,.95,.95Z" style="fill:#0089d9; fill-rule:evenodd;"/></svg>