<?xml version="1.0" encoding="UTF-8"?><svg id="ba" xmlns="http://www.w3.org/2000/svg" width="16" height="16" viewBox="0 0 16 16"><path d="M7.62,5.54c.26,0,.74,.06,.94,.48,.18,.38,.64,.53,1.02,.35,.38-.18,.54-.63,.36-1.01-.36-.73-1.07-1.18-1.94-1.29v-1.06h-1v1.08c-.71,.13-1.16,.47-1.42,.76-.44,.5-.63,1.18-.53,1.87,.21,1.44,1.57,1.79,2.31,1.98,.04,.01,.08,.02,.11,.03,.86,.24,.96,.44,1,.69,.04,.25-.03,.5-.17,.66-.22,.25-.6,.3-.88,.3-.26,0-.74-.06-.94-.48-.18-.38-.64-.54-1.02-.35-.38,.18-.54,.63-.36,1.01,.35,.72,1.06,1.17,1.91,1.29v1.15h1v-1.16c.72-.13,1.18-.46,1.44-.77,.44-.5,.63-1.18,.53-1.87-.21-1.41-1.55-1.78-2.13-1.93h0s-.04,0-.07-.02h-.02c-.97-.25-1.16-.44-1.2-.75-.04-.25,.03-.5,.17-.66,.22-.25,.6-.3,.88-.3ZM11.51,0h-.51V-.01l-1,.02H1.01v16H14.01V2.51L11.51,0Zm-.5,1l2,2h-2V1.01h0Zm2,14H2.01V1h8v3h3V15Z" style="fill:#0089d9; fill-rule:evenodd;"/></svg>