<?xml version="1.0" encoding="UTF-8"?><svg id="v" xmlns="http://www.w3.org/2000/svg" width="16" height="16" xmlns:xlink="http://www.w3.org/1999/xlink" viewBox="0 0 16 16"><defs><clipPath id="x"><polygon points="16 0 0 0 0 16 7 16 7 9 11 9 11 7 16 7 16 0" style="clip-rule:evenodd; fill:none; opacity:0;"/></clipPath></defs><g id="w"><g style="clip-path:url(#x);"><path d="M7,0C3.13,0,0,3.13,0,7s3.13,7,7,7,7-3.13,7-7S10.87,0,7,0Zm0,13c-3.31,0-6-2.69-6-6S3.69,1,7,1s6,2.69,6,6-2.69,6-6,6Z" style="fill:#0089d9; fill-rule:evenodd;"/><path d="M5.34,7.05c0,.09-.02,.04,0,.17,0,0,.6-.38,1.22-.43,.07,.03,.12,.12,.09,.21l-.91,2.92c-.12,.43,.49,1.08,1.12,1.07,.79,0,1.31-.34,1.77-1.09,0-.09,.03-.4,.01-.53,0,0-.71,.7-1.03,.7-.25,0-.38-.13-.36-.34l.78-2.96c.08-.46,.02-1.01-.47-1.06-.76-.06-1.78,.59-2.25,1.34Zm2.23-2.01c.61,0,1.1-.46,1.1-1.02s-.49-1.01-1.1-1.01-1.1,.45-1.1,1.01,.49,1.02,1.1,1.02Z" style="fill:#0089d9; fill-rule:evenodd;"/></g><path d="M15.86,8.14c-.1-.1-.23-.15-.37-.14h-2.99c-.28,0-.5,.22-.5,.5s.22,.5,.5,.5h1.79l-3.34,3.34c-.2,.2-.2,.51,0,.71,.2,.2,.51,.2,.71,0l3.34-3.34v1.79c0,.28,.22,.5,.5,.5s.5-.22,.5-.5v-2.99c0-.13-.04-.26-.14-.37Zm-2.36,4.86c-.28,0-.5,.22-.5,.5v1.5h-4v-4h1.5c.28,0,.5-.22,.5-.5s-.22-.5-.5-.5h-2c-.28,0-.5,.22-.5,.5v5c0,.28,.22,.5,.5,.5h5c.28,0,.5-.22,.5-.5v-2c0-.28-.22-.5-.5-.5Z" style="fill:#0089d9; fill-rule:evenodd;"/></g></svg>