<?xml version="1.0" encoding="UTF-8"?>
<svg width="16px" height="16px" viewBox="0 0 16 16" version="1.1" xmlns="http://www.w3.org/2000/svg" xmlns:xlink="http://www.w3.org/1999/xlink">
    <!-- Generator: Sketch 56.3 (81716) - https://sketch.com -->
    <g id="16px-note_filled-v1.0" stroke="none" stroke-width="1" fill="none" fill-rule="evenodd">
        <path d="M16,12 L12,16 L0,16 L0,0 L16,0 L16,12 Z M15,12 L12,12 L12,15 L15,12 Z M1,1 L1,15 L11,15 L11,11 L15,11 L15,1 L1,1 Z M4.5,4 L11.5,4 C11.7761424,4 12,4.22385763 12,4.5 C12,4.77614237 11.7761424,5 11.5,5 L4.5,5 C4.22385763,5 4,4.77614237 4,4.5 C4,4.22385763 4.22385763,4 4.5,4 Z M4.5,7 L11.5,7 C11.7761424,7 12,7.22385763 12,7.5 C12,7.77614237 11.7761424,8 11.5,8 L4.5,8 C4.22385763,8 4,7.77614237 4,7.5 C4,7.22385763 4.22385763,7 4.5,7 Z" id="Normal,-Pressed" fill="#0089D9"></path>
    </g>
</svg>