<?xml version="1.0" encoding="UTF-8"?><svg id="aw" xmlns="http://www.w3.org/2000/svg" width="16" height="16" viewBox="0 0 16 16"><path d="M15.73,14.86c-.22,.05-.41,.06-.59,.07,.59-.21,1.02-.77,1.02-1.43,0-.84-.69-1.52-1.54-1.52s-1.54,.68-1.54,1.52c0,.32,.1,.61,.27,.85-.49,.62-1.07,.75-1.52,.49,.18-.14,.35-.29,.5-.44-.24-1.63-1.93-3.54-3.54-4.33-.72,.35-1.35,1.01-1.96,1.85-1.01-.36-1.71-1.45-2.32-2.58-.68-1.09-1.24-2.3-1.05-3.36,1.03-.11,1.91-.33,2.58-.78,.11-1.79-.7-4.21-1.99-5.23C.87,.78-1.85,4.64,1.62,10.93c3.04,5.04,6.69,5.74,9.21,4.54,.78,.72,1.95,.74,2.62-.2,.41,.79,1.95,.95,2.51,.19,.17-.06,0-.46-.23-.6ZM2.51,10.35h0C.52,6.77,.26,3,3.65,1.35c.66,.59,1.35,2.24,1.36,3.08-.45,.47-1.74,.63-2.59,.56-.17,1.3,.16,3.37,1.19,4.81h0c.71,1.64,2.34,3.02,3.56,3.53,.36-.78,1.15-1.82,1.78-1.97,.72,.43,1.81,1.85,1.99,2.71-3.17,2.14-6.33-.12-8.42-3.72Zm12.58,3.65h-1v-1h1v1Z" style="fill:#0089d9; fill-rule:evenodd;"/></svg>