<?xml version="1.0" encoding="UTF-8"?><svg id="bi" xmlns="http://www.w3.org/2000/svg" width="16" height="16" viewBox="0 0 16 16"><path d="M3.02,10.5c0,.28,.22,.5,.5,.5h2.5v-1H3.52c-.28,0-.5,.22-.5,.5Zm0-2c0,.28,.22,.5,.5,.5h2.5v-1H3.52c-.28,0-.5,.22-.5,.5Zm9.62-3.5h-.62V2h-3v-1h-1.1C7.75,.44,7.29,0,6.02,0s-1.75,.43-1.91,1h-1.09v.99H0L.02,15H6.02v-1H1.02V3h1v-1h1v2h6V2h1v1h1v.99h1v1.01H7.02V16h9v-7.62l-3.38-3.38Zm.38,1.45l1.51,1.55h-1.51v-1.55Zm2,8.55h-7V6h4v3h3v6ZM3.02,6.5c0,.28,.22,.5,.5,.5h2.5v-1H3.52c-.28,0-.5,.22-.5,.5Z" style="fill:#0089d9; fill-rule:evenodd;"/></svg>