<?xml version="1.0" encoding="UTF-8"?><svg id="ah" xmlns="http://www.w3.org/2000/svg" width="16" height="16" viewBox="0 0 16 16"><path d="M10,0h-1L1,.02v15.98H14V4L10,0Zm3,4h-3V1l3,3Zm0,11.02H2V1h7V5h4V15.02Z" style="fill:#0089d9; fill-rule:evenodd;"/><g><path d="M3,13V7h1.27c.48,0,.79,.03,.94,.09,.22,.09,.41,.29,.56,.59s.23,.69,.23,1.17c0,.37-.04,.68-.13,.93s-.17,.51-.31,.65-.28,.27-.43,.36c-.18,.1-.47,.21-.82,.21h-.31v2h-1Zm1-5v2h.39c.28,0,.47-.04,.56-.11s.17-.19,.22-.35,.08-.34,.08-.55c0-.26-.04-.47-.11-.63s-.17-.27-.28-.31c-.08-.03-.25-.05-.51-.05h-.34Z" style="fill:#0089d9;"/><path d="M6,7h1.3c.29,0,.52,.04,.67,.11,.21,.1,.38,.29,.53,.55s.26,.59,.34,.97,.12,.86,.12,1.42c0,.49-.04,.92-.11,1.28-.09,.44-.21,.79-.38,1.06-.12,.2-.29,.36-.5,.48-.16,.08-.37,.13-.63,.13h-1.34V7Zm1,1v4h.34c.13,0,.23-.03,.29-.07,.08-.05,.14-.13,.19-.25s.09-.31,.13-.58,.05-.64,.05-1.1-.01-.82-.05-1.07-.08-.44-.14-.58-.13-.23-.22-.28c-.07-.04-.2-.07-.4-.07h-.2Z" style="fill:#0089d9;"/><path d="M9,13V7h3v1h-2v2h1v1h-1v2h-1Z" style="fill:#0089d9;"/></g></svg>