<?xml version="1.0" encoding="UTF-8"?><svg id="ap" xmlns="http://www.w3.org/2000/svg" width="16" height="16" viewBox="0 0 16 16"><path d="M9.23,2.17c-.39-.11-.8-.17-1.22-.17-.29,0-.56,.03-.84,.08-.04,0-.08,.01-.12,.02-.03,0-.06,.01-.08,.02C2.86,2.83,0,7.52,0,7.52c.14,.18,3.31,4.97,7.39,5.43,.2,.03,.4,.05,.61,.05h0c.21,0,.41-.02,.62-.05,4.07-.46,7.25-5.27,7.38-5.45,0,0-2.88-4.49-6.77-5.33ZM3.48,9.84c-1.04-.99-1.77-2.02-2.05-2.33,.28-.32,1.02-1.34,2.07-2.33-.31,.71-.48,1.51-.48,2.35s.17,1.61,.47,2.31Zm4.51,2.2c-2.2,0-3.99-2.02-3.99-4.51s1.79-4.51,3.99-4.51,3.99,2.02,3.99,4.51-1.79,4.51-3.99,4.51Zm4.57-2.25c.29-.69,.45-1.45,.45-2.27s-.17-1.59-.46-2.29c1.02,.97,1.73,1.96,2,2.27-.28,.31-.98,1.31-2,2.29Zm-4.52-4.79c-.38,0-.73,.09-1.05,.23,.22,.19,.36,.46,.36,.77,0,.57-.46,1.03-1.02,1.03-.27,0-.52-.11-.7-.29-.08,.24-.13,.49-.13,.75,0,1.39,1.14,2.5,2.54,2.5s2.54-1.11,2.54-2.5-1.14-2.5-2.54-2.5Z" style="fill:#0089d9; fill-rule:evenodd;"/></svg>