<?xml version="1.0" encoding="UTF-8"?><svg id="bh" xmlns="http://www.w3.org/2000/svg" width="16" height="16" viewBox="0 0 16 16"><path d="M15.5,15H1V.5c0-.28-.22-.5-.5-.5S0,.22,0,.5V15.5c0,.28,.22,.5,.5,.5H15.5c.28,0,.5-.22,.5-.5s-.22-.5-.5-.5Z" style="fill:#0089d9; fill-rule:evenodd;"/><path d="M3.5,6c.28,0,.5,.22,.5,.5v6c0,.28-.22,.5-.5,.5s-.5-.22-.5-.5V6.5c0-.28,.22-.5,.5-.5Z" style="fill:#ff8b00; fill-rule:evenodd;"/><path d="M9.5,5c.28,0,.5,.22,.5,.5v7c0,.28-.22,.5-.5,.5s-.5-.22-.5-.5V5.5c0-.28,.22-.5,.5-.5Z" style="fill:#ff8b00; fill-rule:evenodd;"/><path d="M6.5,3c.28,0,.5,.22,.5,.5V12.5c0,.28-.22,.5-.5,.5s-.5-.22-.5-.5V3.5c0-.28,.22-.5,.5-.5Z" style="fill:#68a611; fill-rule:evenodd;"/><path d="M12.5,0C12.78,0,13,.22,13,.5V12.5c0,.28-.22,.5-.5,.5s-.5-.22-.5-.5V.5C12,.22,12.22,0,12.5,0Z" style="fill:#68a611; fill-rule:evenodd;"/></svg>