<?xml version="1.0" encoding="UTF-8"?><svg id="ab" xmlns="http://www.w3.org/2000/svg" width="16" height="16" viewBox="0 0 16 16"><path d="M15,10v-3h-2.24c-.11-.4-.27-.79-.47-1.16l1.58-1.58-2.12-2.12-1.58,1.58c-.37-.21-.76-.36-1.17-.48V1h-3V3.23c-.4,.11-.8,.27-1.17,.47l-1.57-1.57L1.14,4.26l1.57,1.57c-.21,.37-.36,.77-.47,1.17H0v3H2.24c.11,.4,.27,.79,.47,1.16l-1.58,1.58,2.12,2.12,1.58-1.58c.37,.21,.76,.36,1.17,.48v2.24h3v-2.23c.4-.11,.8-.27,1.17-.47l1.57,1.57,2.12-2.12-1.57-1.57c.21-.37,.36-.77,.47-1.17h2.24Zm-2.9,2.39l-.71,.71-1.09-1.09c-.68,.54-1.48,.85-2.3,.93v1.56h-1v-1.56c-.81-.09-1.61-.4-2.29-.94l-1.1,1.1-.71-.71,1.1-1.1c-.54-.68-.85-1.47-.94-2.29H1.5v-1h1.56c.09-.82,.39-1.62,.94-2.3l-1.09-1.09,.71-.71,1.09,1.09c.68-.54,1.48-.84,2.3-.93v-1.56h1v1.56c.81,.09,1.61,.4,2.29,.94l1.1-1.1,.71,.71-1.1,1.1c.54,.68,.85,1.47,.94,2.29h1.56v1h-1.56c-.09,.82-.39,1.62-.94,2.3l1.09,1.09ZM5.52,6.59c-1.05,1.09-1.02,2.84,.08,3.89,1.09,1.05,2.84,1.02,3.89-.08,1.05-1.09,1.02-2.83-.08-3.89-1.09-1.05-2.84-1.02-3.89,.08Zm1.98,3.41c-.83,0-1.5-.67-1.5-1.5s.67-1.5,1.5-1.5,1.5,.67,1.5,1.5-.67,1.5-1.5,1.5Z" style="fill:#0089d9;"/></svg>