<?xml version="1.0" encoding="UTF-8"?><svg id="z" xmlns="http://www.w3.org/2000/svg" width="16" height="16" xmlns:xlink="http://www.w3.org/1999/xlink" viewBox="0 0 16 16"><defs><clipPath id="ab"><path d="M8,12.5c0-2.49,2.01-4.5,4.5-4.5,1.42,0,2.68,.67,3.5,1.7V0H0V16H9.7c-1.03-.82-1.7-2.08-1.7-3.5Z" style="clip-rule:evenodd; fill:none; opacity:0;"/></clipPath></defs><g id="aa"><g style="clip-path:url(#ab);"><path d="M7.66,8.11c0,.47,.08,.94,.29,1.23,.2,.3,.57,.48,1.04,.58,.47,.12,1.01,.15,1.6,.35,.29,.1,.62,.27,.87,.54,.26,.27,.41,.62,.47,.94,.03,.16,.05,.32,.06,.47v.12s.01,.08,0,.19c-.03,.18-.12,.33-.2,.42-.35,.36-.63,.42-.92,.53-.56,.18-1.1,.26-1.65,.34-1.08,.13-2.16,.18-3.24,.18-1.08,0-2.15-.05-3.24-.19-.54-.07-1.08-.16-1.65-.34-.28-.11-.58-.17-.92-.56-.08-.11-.17-.26-.17-.46,0-.13,0-.17,0-.26,0-.15,.03-.32,.06-.48,.07-.32,.23-.67,.49-.93,.26-.27,.58-.42,.87-.52,.59-.19,1.13-.23,1.6-.35,.47-.11,.84-.28,1.04-.59,.21-.3,.29-.76,.29-1.23v-.02c0-.28,.23-.5,.51-.49,.28,0,.5,.23,.49,.51h0c-.01,.58-.07,1.23-.47,1.81-.4,.6-1.09,.87-1.63,.99-.56,.13-1.09,.18-1.51,.32-.42,.15-.63,.34-.71,.74-.02,.1-.04,.2-.04,.31v.14c-.01-.06-.03-.09-.04-.09,0,.02,.23,.16,.44,.22,.44,.15,.95,.23,1.46,.3,1.02,.13,2.07,.18,3.11,.18,1.04,0,2.09-.05,3.11-.17,.51-.07,1.02-.15,1.46-.3,.21-.06,.45-.19,.47-.22-.05,.24-.02-.18-.07-.34-.09-.4-.28-.6-.7-.75-.41-.14-.94-.19-1.5-.32-.55-.12-1.23-.39-1.63-.99-.4-.58-.46-1.23-.47-1.8,0-.28,.21-.5,.49-.51s.5,.21,.51,.49h0v.02Z" style="fill:#0087e0;"/><path d="M6,8.1c.7-.01,1.4-.64,1.82-1.36,.44-.73,.68-1.59,.75-2.46,.08-.87-.04-1.76-.5-2.37-.45-.61-1.25-.84-2.08-.83-.83-.02-1.63,.22-2.07,.83-.46,.6-.59,1.5-.5,2.37,.08,.87,.32,1.72,.76,2.45,.42,.72,1.11,1.35,1.81,1.36Zm0,.8c-1.21-.06-1.99-.93-2.5-1.75-.52-.86-.79-1.83-.87-2.8-.07-.95-.07-2.03,.56-2.96C3.82,.43,5.01,.08,6,.08c.51,0,1.03,.08,1.54,.28,.5,.21,.97,.56,1.27,1.02,.63,.93,.63,2.01,.56,2.96-.09,.97-.36,1.94-.88,2.8-.5,.82-1.29,1.69-2.49,1.76Z" style="fill:#0087e0;"/></g><path d="M15.83,14.78l-1.26-1.25c.27-.45,.43-.97,.43-1.53,0-1.65-1.35-3-3.01-3s-2.99,1.35-2.99,3,1.34,3,2.99,3c.57,0,1.1-.17,1.56-.45l1.29,1.28c.26,.26,.7,.2,.96-.06,.26-.26,.28-.73,.02-.99Zm-5.83-2.78c0-1.1,.9-2,2-2s2,.9,2,2-.9,2-2,2-2-.9-2-2Z" style="fill:#0089d9; fill-rule:evenodd;"/></g></svg>