<?xml version="1.0" encoding="UTF-8"?><svg id="az" xmlns="http://www.w3.org/2000/svg" width="16" height="16" viewBox="0 0 16 16"><path d="M3,9.5c0,.28,.22,.5,.5,.5h1.69c.08-.34,.19-.68,.32-1H3.5c-.28,0-.5,.22-.5,.5Zm.5-6.5c-.28,0-.5,.22-.5,.5s.22,.5,.5,.5h7c.28,0,.5-.22,.5-.5s-.22-.5-.5-.5H3.5ZM2,13c-.55,0-1-.45-1-1V2c0-.55,.45-1,1-1H12c.55,0,1,.45,1,1v3.22c.34,.08,.68,.19,1,.32V2C14,.9,13.1,0,12,0H2C.89,0,0,.9,0,2V12C0,13.11,.89,14,2,14h3.49c-.13-.33-.24-.66-.31-1H2Zm12.98-4.41c-1.58-1.94-4.41-2.22-6.34-.63-1.92,1.59-2.21,4.44-.63,6.37,1.58,1.93,4.41,2.22,6.34,.63,1.92-1.59,2.21-4.44,.63-6.37Zm-1.27,5.61c-1.49,1.24-3.7,1.02-4.92-.49-1.22-1.51-1.01-3.73,.49-4.97,1.49-1.24,3.7-1.02,4.92,.49,1.22,1.51,1.01,3.73-.49,4.97Zm-.21-3.2h-1.5v-2c0-.28-.22-.5-.5-.5s-.5,.22-.5,.5v2.5c0,.28,.22,.5,.5,.5h2c.28,0,.5-.22,.5-.5s-.22-.5-.5-.5Zm-5.41-5H3.5c-.28,0-.5,.22-.5,.5s.22,.5,.5,.5h3.34c.17-.17,.35-.34,.54-.5,.23-.19,.47-.35,.72-.5Z" style="fill:#0089d9; fill-rule:evenodd;"/></svg>