<?xml version="1.0" encoding="UTF-8"?><svg id="bc" xmlns="http://www.w3.org/2000/svg" width="16" height="16" viewBox="0 0 16 16"><path d="M13.67,2.35C10.54-.78,5.47-.78,2.35,2.35-.78,5.47-.78,10.54,2.35,13.67c3.13,3.13,8.2,3.13,11.33,0,3.13-3.13,3.13-8.2,0-11.33Zm-.66,10.61c-2.74,2.73-7.19,2.73-9.94,0C.33,10.22,.33,5.79,3.07,3.06,5.81,.33,10.26,.33,13.01,3.06c2.74,2.73,2.74,7.16,0,9.9Zm-1.49-4.94h-3.5V2.52c0-.28-.22-.5-.5-.5s-.5,.22-.5,.5v6c0,.28,.22,.5,.5,.5h4c.28,0,.5-.22,.5-.5s-.22-.5-.5-.5Z" style="fill:#0089d9; fill-rule:evenodd;"/></svg>