<?xml version="1.0" encoding="UTF-8"?><svg id="be" xmlns="http://www.w3.org/2000/svg" width="16" height="16" viewBox="0 0 16 16"><path d="M3,4H15v-1H3v1Zm0,2H7.53c.07-.18,.15-.34,.25-.5,.1-.16,.24-.33,.42-.5H3v1Zm4.28,1H3v1H7.21c0-.37,.03-.7,.07-1Zm6.63,3h1.08v-1h-.87c-.06,.35-.14,.69-.21,1Zm-.24-4.3c.06,.1,.11,.2,.16,.3h1.17v-1h-1.86c.22,.22,.4,.46,.53,.7Zm.58,2.3h.75v-1h-.81c.06,.29,.08,.61,.06,1ZM3,1v1H15V1H3ZM1,2h1V1H1v1Zm2,7v1H7.49c-.08-.32-.16-.66-.21-1H3ZM1,4h1v-1H1v1Zm0,4h1v-1H1v1Zm0,2h1v-1H1v1Zm0-4h1v-1H1v1Z" style="fill:#0089d9;"/><path d="M12.96,8.1c.25,0,.37,.22,.37,.44,0,.42-.24,1.18-.68,1.25,0,.29-.01,.92-.28,.98-.11,.14-.15,.45-.15,.67,.22,.67,2.72,1.77,3.09,1.99,.34,.16,.7,.46,.7,1.13-.89,.59-9.12,.58-10.25,0,0-.67,.27-.89,.64-1.13,.36-.24,2.92-1.32,3.15-1.99,0-.13-.08-.56-.14-.67-.27-.07-.27-.6-.32-.95-.4-.12-.66-.83-.66-1.28,0-.22,.18-.47,.35-.45-.03-.15-.12-.22-.18-.36-.93-2.34,2.67-3.75,3.62-1.87,1.43,.11,1.11,1.62,.74,2.23Z" style="fill:#0089d9;"/></svg>