<?xml version="1.0" encoding="UTF-8"?><svg id="bd" xmlns="http://www.w3.org/2000/svg" width="16" height="16" viewBox="0 0 16 16"><path d="M9.31,4.3c-.22-1.09-.95-1.12-1.03-1.65-1.11,.76-2.55,.04-3.23,1.71,.96-1.03,2.7,.18,3.05-.91,.19,.6,.8,.5,1.22,.85Zm1.26,.68c.27-.68,.45-.56,.45-1.62,0-.78-.48-2.01-1.77-2.08-.47-.81-1.42-1.29-2.55-1.29-1.83,0-3.72,1.26-3.72,3.36,0,.88,.17,.96,.43,1.62-.41,.11-.83,.54-.85,.96-.04,.73,.58,2.06,1.37,2.24,.03,.68,.28,1.22,.77,1.68,.07,.13,.05,.47,0,.67-.22-.03-.41,.03-.57,.17-.58,.5-2.69,1.71-3.79,2.39-.02,.02-.02,.05-.03,.07-.21,.17-.3,.37-.3,.57,0,1.01,4.98,1.4,9,1.2v-.98c-2.52,.15-5.59-.02-7.02-.47,1.13-.68,2.82-1.57,3.47-2.06,0,0,.9-.91,.31-1.98-.17-.32-.58-.66-.61-1.35-.02-.41-.28-.76-.69-.86-.19-.14-.55-1-.48-1.32,.63,.06,.9-.79,.72-1.23C3.28,1.16,7.73,.18,8.65,2.46c1.06-.44,1.75,1.42,.69,2.3-.4,.74,.72,1.05,.72,1.05,.08,.38-.35,1.11-.59,1.26-.46,.09-.76,.56-.75,1.02,.02,.96-.32,.98-.56,1.31-.44,.99,.49,1.87,.49,1.87,.1,.07,.22,.15,.36,.23v-3.5h1.43c.61-.43,1.03-1.44,.96-2.05-.05-.42-.41-.85-.83-.97Zm-.57,7.02h1v-1h-1v1Zm0,4h1v-1h-1v1Zm2.5-6h3c.28,0,.5-.23,.5-.5s-.22-.5-.5-.5h-3c-.28,0-.5,.22-.5,.5s.22,.5,.5,.5Zm-2.5,4h1v-1h-1v1Zm0-4h1v-1h-1v1Zm5.5,5h-3c-.28,0-.5,.22-.5,.5s.22,.5,.5,.5h3c.28,0,.5-.23,.5-.5s-.22-.5-.5-.5Zm0-4h-3c-.28,0-.5,.22-.5,.5s.22,.5,.5,.5h3c.28,0,.5-.23,.5-.5s-.22-.5-.5-.5Zm0,2h-3c-.28,0-.5,.22-.5,.5s.22,.5,.5,.5h3c.28,0,.5-.23,.5-.5s-.22-.5-.5-.5Z" style="fill:#0089d9;"/></svg>