<?xml version="1.0" encoding="UTF-8"?><svg id="bf" xmlns="http://www.w3.org/2000/svg" width="16" height="16" viewBox="0 0 16 16"><path d="M14,3h-5S7.48,0,6,0H2C1,0,0,1.02,0,2V11c0,1.02,1,2,2,2H6.72l1.15-1H2c-.49,0-1-.46-1-1V4H14c.48,0,1,.51,1,1v6c0,.53-.52,1-1,1h-.19l1.05,.76c.64-.35,1.14-1.04,1.14-1.76V5c0-.98-1-2-2-2ZM1,3v-1c0-.48,.49-1,1-1H6c.61,0,1.39,1.13,1.91,2H1Z" style="fill:#0089d9;"/><path d="M12.96,9.1c.25,0,.37,.22,.37,.44,0,.42-.24,1.18-.68,1.25,0,.29-.01,.92-.28,.98-.11,.14-.15,.45-.15,.67,.22,.67,2.72,1.77,3.09,1.99,.34,.16,.7,.46,.7,1.13-.89,.59-9.12,.58-10.25,0,0-.67,.27-.89,.64-1.13,.36-.24,2.92-1.32,3.15-1.99,0-.13-.08-.56-.14-.67-.27-.07-.27-.6-.32-.95-.4-.12-.66-.83-.66-1.28,0-.22,.18-.47,.35-.45-.03-.15-.12-.22-.18-.36-.93-2.34,2.67-3.75,3.62-1.87,1.43,.11,1.11,1.62,.74,2.23Z" style="fill:#0089d9;"/></svg>