<?xml version="1.0" encoding="UTF-8"?><svg id="be" xmlns="http://www.w3.org/2000/svg" width="16" height="16" viewBox="0 0 16 16"><path d="M9.94,9.14c0,.57,.09,1.14,.35,1.52,.25,.39,.7,.6,1.27,.73,.56,.14,1.2,.18,1.9,.42,.34,.12,.71,.33,.98,.66,.28,.32,.42,.72,.49,1.08,.03,.18,.05,.37,.05,.54v.13c0,.05,0,.18-.03,.26-.05,.19-.15,.3-.24,.4-.38,.35-.71,.43-1.04,.55-.66,.2-1.29,.3-1.93,.39-1.28,.16-2.55,.21-3.82,.21-1.27,0-2.54-.06-3.82-.23-.64-.09-1.28-.19-1.94-.42-.33-.15-.68-.2-1.05-.71-.04-.06-.07-.16-.1-.24-.02-.09-.03-.22-.02-.24v-.27c.03-.18,.05-.36,.1-.55,.09-.37,.28-.76,.59-1.05,.3-.29,.67-.46,1.01-.57,.68-.21,1.32-.26,1.88-.4,.57-.13,1.03-.35,1.28-.73,.27-.38,.35-.95,.36-1.52v-.02c0-.28,.23-.5,.51-.49,.28,0,.5,.23,.49,.51h0c-.01,.67-.08,1.42-.54,2.09-.45,.68-1.23,1-1.87,1.14-.66,.15-1.29,.21-1.8,.38-.52,.17-.82,.43-.94,.91-.03,.11-.05,.25-.06,.38v.2c0,.06-.02-.05-.02-.03-.01,.02,.27,.2,.52,.27,.53,.18,1.14,.29,1.74,.37,1.21,.16,2.45,.22,3.69,.22,1.24,0,2.48-.05,3.69-.2,.6-.08,1.21-.18,1.75-.35,.26-.08,.54-.21,.62-.3,.01-.02,.02-.02,0,0,0,0,0,.05,0,.03v-.1c0-.14-.02-.27-.04-.39-.1-.51-.34-.81-.84-.98-.49-.18-1.12-.24-1.78-.39-.64-.14-1.43-.46-1.88-1.15-.44-.67-.51-1.41-.52-2.08,0-.28,.21-.5,.49-.51,.28,0,.5,.21,.51,.49h0v.02Z" style="fill:#0087e0;"/><path d="M8,9.05c.9,0,1.74-.64,2.25-1.46,.52-.83,.78-1.83,.83-2.85,.06-1.01-.1-2.05-.64-2.78-.54-.73-1.47-1.04-2.44-1.01-.97-.03-1.91,.28-2.44,1.01-.54,.73-.7,1.77-.64,2.78,.06,1.01,.31,2.01,.83,2.85,.51,.83,1.35,1.46,2.25,1.46Zm0,.8c-1.28-.02-2.33-.87-2.92-1.84-.61-.98-.89-2.12-.96-3.23-.06-1.09,0-2.31,.7-3.36C5.53,.37,6.87-.06,8-.05c1.13-.01,2.47,.43,3.18,1.48,.7,1.04,.76,2.26,.7,3.35-.07,1.11-.34,2.24-.96,3.23-.6,.97-1.64,1.82-2.92,1.84Z" style="fill:#0087e0;"/></svg>