<?xml version="1.0" encoding="UTF-8"?><svg id="ar" xmlns="http://www.w3.org/2000/svg" width="16" height="16" viewBox="0 0 16 16"><path d="M14,1H1C.45,1,0,1.45,0,2v8C0,10.55,.45,11,1,11H5v-1H2c-.55,0-1-.45-1-1V3c0-.55,.45-1,1-1H13c.55,0,1,.45,1,1v6c0,.55-.45,1-1,1h-3v1h4c.55,0,1-.45,1-1V2c0-.55-.45-1-1-1Zm-3.11,6.89c.2-.2,.2-.51,0-.71l-2.83-2.83s-.08-.06-.13-.08c-.08-.16-.25-.27-.44-.27s-.36,.11-.44,.27c-.04,.02-.09,.05-.13,.08l-2.83,2.83c-.2,.2-.2,.51,0,.71,.2,.2,.51,.2,.71,0l2.19-2.19V14.5c0,.28,.22,.5,.5,.5s.5-.22,.5-.5V5.71l2.19,2.19c.2,.2,.51,.2,.71,0Z" style="fill:#0089d9; fill-rule:evenodd;"/></svg>