<?xml version="1.0" encoding="UTF-8"?><svg id="bd" xmlns="http://www.w3.org/2000/svg" width="16" height="16" viewBox="0 0 16 16"><g><path d="M6.61,9.5c0,.38,.03,.76,.14,1.06,.11,.31,.24,.46,.52,.56,.28,.12,.71,.12,1.22,.35,.25,.11,.52,.32,.68,.58,.16,.25,.24,.52,.28,.76,.03,.12,.03,.24,.04,.36,0,.14,.02,.17,0,.4-.1,.53-.45,.69-.66,.82-.47,.24-.89,.33-1.33,.41-.86,.15-1.71,.2-2.56,.2-.85,0-1.7-.06-2.56-.22-.43-.09-.86-.18-1.34-.45-.12-.07-.25-.16-.37-.32-.06-.08-.12-.18-.15-.3-.04-.11-.04-.28-.04-.3,0-.23,.02-.47,.08-.72,.06-.25,.16-.52,.35-.76,.19-.24,.46-.42,.71-.51,.5-.18,.91-.19,1.2-.31,.28-.11,.42-.26,.54-.56,.11-.29,.14-.67,.14-1.05,0-.28,.22-.5,.5-.5,.28,0,.5,.22,.5,.5h0c0,.45-.03,.91-.2,1.4-.14,.49-.61,1-1.12,1.16-.49,.18-.92,.2-1.2,.31-.26,.11-.36,.24-.44,.55-.04,.15-.05,.33-.05,.51,0,.08,0,.01,0,0,0-.02-.01-.02-.01-.02,0,0,.04,.04,.1,.08,.24,.14,.63,.25,1,.32,.76,.14,1.57,.19,2.37,.2,.8,0,1.61-.05,2.37-.18,.38-.07,.76-.17,1.03-.31,.14-.06,.18-.17,.14-.06v-.21c-.02-.08-.02-.18-.04-.25-.07-.34-.16-.51-.39-.61-.24-.12-.67-.14-1.16-.32-.51-.16-.98-.69-1.11-1.17-.16-.49-.19-.94-.19-1.39,0-.28,.22-.5,.5-.5,.28,0,.5,.22,.5,.5h0Z" style="fill:#0087e0;"/><path d="M5,9.25c.65,0,1.29-.49,1.67-1.13,.39-.65,.57-1.43,.61-2.21,.04-.79-.08-1.58-.48-2.14-.39-.55-1.07-.78-1.8-.77-.74-.02-1.42,.22-1.8,.77-.39,.55-.52,1.35-.48,2.14,.04,.78,.24,1.56,.62,2.21,.37,.64,1.01,1.13,1.66,1.14Zm0,.8c-1.06-.02-1.88-.74-2.34-1.52-.47-.8-.68-1.69-.73-2.58-.04-.87-.02-1.83,.52-2.69,.54-.89,1.65-1.27,2.56-1.26,.47,0,.96,.08,1.42,.28,.46,.21,.87,.55,1.14,.98,.54,.86,.57,1.82,.52,2.69-.05,.88-.27,1.78-.74,2.57-.46,.78-1.28,1.5-2.34,1.53Z" style="fill:#0087e0;"/></g><g><path d="M13.78,6.1c0,.28,.05,.54,.15,.68,.09,.13,.26,.23,.55,.29,.28,.07,.63,.09,1.05,.23,.21,.07,.44,.21,.62,.42,.18,.21,.27,.47,.31,.69,.02,.11,.03,.22,.03,.33v.09c0,.08-.02,.16-.04,.23-.05,.14-.13,.22-.2,.29-.27,.23-.45,.26-.64,.33-.38,.11-.72,.17-1.07,.21-.7,.08-1.39,.11-2.08,.11-.69,0-1.38-.03-2.08-.12-.35-.05-.7-.1-1.08-.23-.2-.09-.39-.09-.68-.45-.07-.08-.13-.28-.12-.4v-.16c.01-.11,.03-.22,.06-.34,.05-.23,.18-.49,.38-.67,.2-.19,.43-.29,.63-.36,.4-.12,.74-.15,1.03-.22,.29-.07,.47-.16,.56-.29,.1-.13,.15-.39,.15-.67h0c0-.29,.23-.51,.5-.51,.28,0,.5,.23,.5,.5h0c0,.39-.05,.84-.34,1.26-.3,.43-.79,.61-1.15,.69-.37,.08-.71,.11-.95,.19-.25,.09-.29,.14-.35,.32-.01,.05-.02,.1-.02,.16v.09s-.03-.14-.05-.16c-.09-.08,.06,.03,.17,.06,.26,.09,.58,.14,.89,.18,.63,.08,1.29,.11,1.95,.11,.65,0,1.31-.03,1.95-.1,.32-.04,.63-.09,.9-.17,.13-.03,.27-.11,.25-.11,0,0-.03,.02-.05,.08,0,.03-.02,.07-.02,.1,0,0,0-.02,0-.04,0-.07,0-.12-.02-.18-.06-.21-.08-.26-.3-.35-.22-.08-.55-.11-.92-.2-.36-.07-.86-.26-1.15-.69-.29-.42-.32-.87-.33-1.25,0-.28,.21-.5,.49-.51,.28,0,.5,.21,.51,.49h0v.02Z" style="fill:#0087e0;"/><path d="M12.5,5.87c.39,0,.8-.28,1.06-.68,.26-.41,.39-.91,.42-1.43,.03-.52-.07-1.03-.33-1.34-.26-.3-.66-.43-1.15-.42-.48,0-.89,.12-1.14,.42-.25,.31-.37,.82-.34,1.34,.03,.51,.17,1.02,.43,1.42,.25,.4,.66,.68,1.05,.69Zm0,.8c-.77-.01-1.38-.5-1.72-1.05-.36-.56-.52-1.19-.55-1.81-.04-.6-.03-1.3,.4-1.93,.43-.64,1.23-.89,1.88-.88,.64-.01,1.44,.24,1.87,.88,.41,.63,.44,1.32,.4,1.92-.04,.62-.2,1.25-.56,1.81-.34,.55-.95,1.04-1.72,1.05Z" style="fill:#0087e0;"/></g></svg>