<?xml version="1.0" encoding="UTF-8"?><svg id="an" xmlns="http://www.w3.org/2000/svg" width="16" height="16" viewBox="0 0 16 16"><g id="ao"><path d="M1.5,1.5H14.5c.55,0,1,.47,1,1.05V11.45c0,.58-.45,1.05-1,1.05H1.5c-.55,0-1-.47-1-1.05V2.55c0-.58,.45-1.05,1-1.05Z" style="fill:none; fill-rule:evenodd; stroke:#0089d9; stroke-miterlimit:10;"/><path d="M4,15H12v1H4v-1Z" style="fill:#0089d9; fill-rule:evenodd;"/><path d="M8,13h-1s0,2-2,2h3v-2Z" style="fill:#0089d9; fill-rule:evenodd;"/><path d="M8,13h1s0,2,2,2h-3v-2Z" style="fill:#0089d9; fill-rule:evenodd;"/><path d="M9.2,3.56c.9,.17,1.26,1.16,.76,1.73,0,.11-.08,.18-.07,.41,.23,0,.25,.15,.24,.37,0,.37-.18,1.01-.58,1.06,0,.26-.01,.82-.26,.86-.1,.13-.08,.34-.1,.45,.2,.5,2.59,1.51,3.26,1.63,.64,.35,1.27,1.93,.64,1.93H2.91c-.62,0,0-1.58,.64-1.93,.37-.16,2.31-.46,3.23-1.6,0-.12,.03-.32-.03-.41-.33-.1-.28-.59-.33-.89-.36-.11-.63-.66-.64-.98,0-.26-.02-.46,.23-.45,0-.21,.05-.19,.04-.4-.9-2.11,2.28-2.98,3.15-1.75Z" style="fill:#0089d9; fill-rule:evenodd;"/></g></svg>