<?xml version="1.0" encoding="UTF-8"?><svg id="at" xmlns="http://www.w3.org/2000/svg" width="16" height="16" viewBox="0 0 16 16"><path d="M3.35,3C1.08,4.41,.47,8,1.38,9.89c.09,.24,2.35,2.39,2.53,1.81,.09-.3-.56-1.77-.7-2.04-.3-.59,.43-.57,.38-1.4,0-.11-.57-.56-.61-.59-.18-.15-1.02-.24-.81-.38,.11-.07,.96-.19,1.04-.3,.31-.23,.28-.64,.5-.73,.37-.15,.73-.85,.72-1.25-.03-.54,.12-.63,.41-1.06,.18-.26-1.03-1.11-1.49-.95ZM7.99,0C3.56,0-.03,3.58-.03,8s3.59,8,8.01,8,8.01-3.58,8.01-8S12.41,0,7.99,0Zm-.03,14.96c-3.88,0-7.03-3.13-7.03-6.99C.93,4.43,3.59,1.52,7.02,1.06c-.04,.04-.07,.09-.07,.13-.04,.21-.17,.92,.06,.96,.38,.08,.07,.34,.35,.48,.15,.07,.11-.57,.41-.28,.05,.05,.31-.43,.37,.05,0,.01,0,.03,0,.04-.02,.23-.77,.62-.87,1-.13,.49-.04,.22-.4,.4-.11,.06-.22,.52-.17,.66,0,0-.26,.12-.22,.33,.07,.39,.36,.8,.52,.74,.29-.1,.23-.65,.52-.66,.04,.02,.51,.4,.52,.41,.11-.04-.16-.44,0-.53,.22-.06,.76,.22,.85,.28,.17,.11,.18,.55-.61,.72-.29-.15-.83-.06-1.13,.16-.4,.31-.35,1.08-.29,1.54,.05,.37,.48,.53,.85,.64,.18,.05,.39,.01,.58,.05,.23,.17,.7,.07,.76,1.38-.05,.52,.51,.68,.5,1.2-.01,.62,.99,.2,1.19-.1,.38-.56,.15-1.19,.23-1.82,.04-.32,.3-.3,.21-.81-.09-.58-.06-1,.07-1.56,.06-.25-.39-.45-.57-.33-.61,.39-.36,.24-.99-.04-.12-.05-.26-.15-.41-.2,.29,.07,.82,.19,.83,.19,.23-.05,.67-.11,.77-.3-1.23-.79-.81-.94-.79-.93,.13,.03,.06,.53,.55,.26,.69-.38,.81-.31,1.03,.42,.11,.36,.65,.29,.88,.51,.16,.15,.58,.5,.68,.49,.15-.02-.15-.73,0-.96,.07-.12,.09-.54,.14-.76,.07-.28,.16-.46,.29-.7,.01-.02,.03-.07,.06-.13,.8,1.13,1.28,2.51,1.28,4.01,0,3.86-3.15,6.99-7.03,6.99Zm3.56-3.01c-.34-.42-1.16,.1-1.51,.34-.24,.16-1.05,.18-1.06,.48-.03,.74-.79,.41-.47,1.06,0,.13,.01,.13,.02,.13,.32,.01,.56,.1,.9,.08,.48-.02,1.16-.36,1.54-.65,.34-.26,1.55-.87,1.53-1.34-.03-.52-.68,.22-.94-.11Z" style="fill:#0089d9;"/></svg>