<?xml version="1.0" encoding="UTF-8"?><svg id="bo" xmlns="http://www.w3.org/2000/svg" width="16" height="16" viewBox="0 0 16 16"><path d="M15.84,14.78l-2.53-2.53c1.06-1.29,1.69-2.94,1.69-4.75C15,3.36,11.64,0,7.5,0S0,3.36,0,7.5s3.36,7.5,7.5,7.5c1.82,0,3.49-.65,4.79-1.73l2.56,2.56c.26,.26,.7,.2,.96-.06,.26-.26,.28-.73,.02-.99Zm-3.64-2.81c-.08,.05-.14,.11-.19,.19-1.17,1.13-2.77,1.82-4.52,1.82C3.88,13.98,.96,11.08,.96,7.5S3.88,1.01,7.48,1.01s6.52,2.9,6.52,6.49c0,1.73-.69,3.3-1.8,4.47Zm-2.69-4.97H5.5c-.28,0-.5,.22-.5,.5s.22,.5,.5,.5h4c.28,0,.5-.22,.5-.5s-.22-.5-.5-.5Z" style="fill:#0089d9; fill-rule:evenodd;"/></svg>