<svg width="24" height="24" viewBox="0 0 24 24" fill="none" xmlns="http://www.w3.org/2000/svg">
<path fill-rule="evenodd" clip-rule="evenodd" d="M14 2C14 0.9 13.1 0 12 0C10.9 0 10 0.9 10 2C10 3.1 10.9 4 12 4C13.1 4 14 3.1 14 2ZM12 3C11.5 3 11.1 2.6 11.1 2.1C11.1 1.6 11.5 1.2 12 1.2C12.5 1.2 12.9 1.6 12.9 2.1C12.9 2.5 12.5 3 12 3ZM12.3 7.9C12.5 7.9 12.7 7.7 12.7 7.5C12.7 7.3 12.5 7.1 12.3 7.1C12.1 7.1 11.9 7.3 11.9 7.5C11.9 7.7 12.1 7.9 12.3 7.9ZM11.7 20.5C11.7 20.7 11.9 20.9 12.1 20.9C12.3 20.9 12.5 20.7 12.5 20.5C12.5 20.3 12.3 20.1 12.1 20.1C11.9 20.1 11.7 20.3 11.7 20.5ZM5 13.7C5 13.9 5.2 14.1 5.4 14.1C5.6 14.1 5.8 13.9 5.8 13.7C5.8 13.5 5.6 13.3 5.4 13.3C5.2 13.3 5 13.5 5 13.7ZM18 13.7C18 13.9 18.2 14.1 18.4 14.1C18.6 14.1 18.8 13.9 18.8 13.7C18.8 13.5 18.6 13.3 18.4 13.3C18.2 13.3 18 13.5 18 13.7ZM21.7 11.7C21.6 11.2 21 10.8 20.5 10.9C20 11 19.6 11.6 19.7 12.1C19.8 12.7 19.9 13.3 19.9 13.9C19.9 18.3 16.3 21.9 11.9 21.9C7.5 21.9 3.9 18.3 3.9 13.9C3.9 9.5 7.5 5.9 11.9 5.9C13.9 5.9 15.9 6.7 17.3 8L12 13.6L9.7 11.3C9.3 10.9 8.7 10.9 8.3 11.3C7.9 11.7 7.9 12.3 8.3 12.7L11.3 15.7C11.5 15.9 11.7 16 12 16C12.3 16 12.5 15.9 12.7 15.7L19.5 8.9C19.9 8.5 19.9 7.9 19.5 7.5C19.5 7.5 19.5 7.5 19.5 7.4C17.6 5.2 14.9 4 12 4C10.2 4 8.4 4.5 6.9 5.4C7 5.3 7 5.2 7 5C7 4.4 6.5 4 6 4C5.4 4 5 4.5 5 5C5 5.5 5.4 6 6 6C3.6 7.9 2 10.7 2 14C2 19.5 6.5 24 12 24C17.5 24 22 19.5 22 14C22 13.2 21.9 12.5 21.7 11.7Z" fill="#0089D9"/>
</svg>
