<?xml version="1.0" encoding="UTF-8"?><svg id="kc" xmlns="http://www.w3.org/2000/svg" width="24" height="24" xmlns:xlink="http://www.w3.org/1999/xlink" viewBox="0 0 24 24"><defs><clipPath id="kd"><path id="ke" d="M24,0H0V24s9,0,11.34,0c-2.04-1.65-3.34-4.17-3.34-7,0-4.97,4.03-9,9-9,2.83,0,5.35,1.3,7,3.34,0-2.34,0-11.34,0-11.34Z" style="fill:none;"/></clipPath></defs><g style="clip-path:url(#kd);"><path d="M18.3,4.51c-3.14-.91-5.22-1.51-8.07-3.36l-.24-.15-.24,.15C6.92,3,4.84,3.6,1.7,4.51l-.7,.2V12.73c0,4.98,4.89,9.68,8.94,10.26h.12c4.05-.58,8.94-5.28,8.94-10.26V4.71l-.7-.2Z" style="fill:none; stroke:#0087e0; stroke-linecap:round; stroke-linejoin:round; stroke-width:2px;"/></g><path d="M17,10c-3.87,0-7,3.13-7,7s3.13,7,7,7,7-3.13,7-7-3.13-7-7-7Zm3.6,5.75l-3.89,4.83h0s-.06,.03-.08,.06c-.18,.15-.4,.24-.62,.24-.26,0-.51-.1-.71-.29l-2-2.12c-.39-.39-.39-1.02,0-1.41,.39-.39,1.02-.39,1.41,0l1.24,1.31,3.24-4.02c.39-.39,1.02-.39,1.41,0,.39,.39,.39,1.02,0,1.41Z" style="fill:#68a611; fill-rule:evenodd;"/></svg>