<?xml version="1.0" encoding="UTF-8"?><svg id="mu" xmlns="http://www.w3.org/2000/svg" width="24" height="24" viewBox="0 0 24 24"><path d="M9.26,15H4.5c-.28,0-.5,.22-.5,.5s.22,.5,.5,.5h4.57c.04-.34,.11-.67,.19-1ZM6.28,0h0L0,6.25H0V24H13.13c-.92-.51-1.72-1.19-2.37-2H2V8h6V2h10v7.07c.7,.09,1.37,.26,2,.52V0H6.28Zm-.28,6H2.41l3.59-3.51v3.51Zm4.08,7H4.5c-.28,0-.5,.22-.5,.5s.22,.5,.5,.5h5.09c.14-.35,.31-.68,.49-1Zm1.64-2H4.5c-.28,0-.5,.22-.5,.5s.22,.5,.5,.5h6.26c.29-.36,.61-.69,.96-1Zm-7.22,6c-.28,0-.5,.22-.5,.5s.22,.5,.5,.5h3c.28,0,.5-.22,.5-.5s-.22-.5-.5-.5h-3Z" style="fill:#0089d9;"/><g id="mv"><path d="M17,10c-3.87,0-7,3.13-7,7s3.13,7,7,7,7-3.13,7-7-3.13-7-7-7Zm3.6,5.75l-3.52,4.37c-.04,.16-.11,.32-.24,.45-.21,.21-.49,.3-.77,.28-.28,.02-.56-.07-.77-.28-.1-.1-.17-.22-.22-.34l-1.78-1.78c-.39-.39-.39-1.02,0-1.41,.39-.39,1.02-.39,1.41,0l1.27,1.27,3.2-3.98c.39-.39,1.02-.39,1.41,0,.39,.39,.39,1.02,0,1.41Z" style="fill:#68a611; fill-rule:evenodd;"/></g></svg>