<svg width="24" height="24" viewBox="0 0 24 24" fill="none" xmlns="http://www.w3.org/2000/svg">
<path fill-rule="evenodd" clip-rule="evenodd" d="M9 9H12V8H8.6V9H9ZM7 11L6 18C6 19.7 7.3 21 9 21C10.7 21 12 19.7 12 18L11 11C11 10 11 9 9 9C7 9 7 10 7 11ZM9 16C10.1 16 11 16.9 11 18C11 19.1 10.1 20 9 20C7.9 20 7 19.1 7 18C7 16.9 7.9 16 9 16ZM6 7V8H8.6H9.4V7H12V6H8.6V7H6ZM16 0.3V0H14H2V24H22V6.3L16 0.3ZM16 2.5L19.6 6H16V2.5ZM20 22H4V2H8.6V3H6V4H8.6V5H6V6H8.6H9.4V5H12V4H9.4V3H12V2H14V6.4V8H20V22Z" fill="#0089D9"/>
</svg>
