<?xml version="1.0" encoding="UTF-8"?><svg id="bj" xmlns="http://www.w3.org/2000/svg" width="24" height="24" viewBox="0 0 24 24"><g id="bk"><path  style="fill:#0089D9; fill-rule:evenodd;" class="st0" d="M20,20.7c0-0.1,0.1-0.1,0.1-0.2c0-0.3-0.2-0.6-0.5-0.6L14,19.1
				V17c1.4,0,2.5-0.1,3.5-0.4c0,0,0,0,0.1,0c0.1,0,0.2-0.1,0.2-0.1c0.4-0.1,0.8-0.3,1.2-0.5c1.2-0.6,2.3-1.6,2-2.8
				c-0.3-1.6-2.2-3.1-4-3.2c-2.2-0.1-2.7-1.2-3.3-2.7c-0.1-0.2-0.2-0.5-0.3-0.7c-0.6-1.7-1.3-3.5-3-5.2C8.9-0.1,7.1-0.4,5.6,0.5
				C4.2,1.4,3.6,3.2,4.1,4.7C4.2,5.1,4.4,5.5,4.6,6c0.5,1.3,1.2,2.9,1.3,5.4C6,13.5,7.2,15,9,16c0.9,0.5,1.9,0.8,3,0.9v2.3l-5.4,1.6
				c-0.3,0.1-0.4,0.3-0.4,0.6c0,0.3,0.3,0.5,0.5,0.5c-0.1,0.1-0.1,0.2-0.1,0.4c0,0.4,0.3,0.8,0.8,0.8c0.4,0,0.8-0.3,0.8-0.8
				c0-0.2-0.1-0.4-0.2-0.5l4.7-0.7l1.5,1.5c-0.2,0.1-0.4,0.4-0.4,0.7c0,0.4,0.3,0.8,0.8,0.8c0.4,0,0.8-0.3,0.8-0.8
				c0-0.1,0-0.2-0.1-0.3c0,0,0,0,0,0c0.3-0.2,0.4-0.6,0.2-0.9L14.8,21l4,0c-0.1,0.1-0.1,0.2-0.1,0.3c0,0.4,0.3,0.8,0.8,0.8
				c0.4,0,0.8-0.3,0.8-0.8C20.3,21.1,20.1,20.9,20,20.7z M6.7,2.2C6.9,2.1,7.1,2,7.4,2C7.9,2,8.5,2.3,9,2.9c1.4,1.3,2,2.9,2.5,4.4
				c0.1,0.3,0.2,0.5,0.3,0.7c0.6,1.6,1.6,3.8,5.2,4c3.5,0,1.5,2.4,1.5,2.4c-0.6,0.3-1.4,0.5-2.2,0.6c-0.2-0.1-0.4-0.3-0.6-0.6
				C15,13.7,14,12.7,11.7,13c-2.2,0.3-3.4-0.8-3.9-2C7.7,8.3,7,6.5,6.4,5.2C6.2,4.8,6.1,4.4,6,4.1C5.8,3.4,6.1,2.6,6.7,2.2z
				 M8.6,13.6c0.9,0.4,2,0.6,3.4,0.4c1.5-0.2,2.4,0.4,3,1c0,0,0,0,0,0c-1.9,0-3.9-0.3-5.2-0.6C9.3,14.3,8.9,14,8.6,13.6z"/></g></svg>