<?xml version="1.0" encoding="UTF-8"?><svg id="bj" xmlns="http://www.w3.org/2000/svg" width="24" height="24" viewBox="0 0 24 24"><g id="bk">
<path style="fill:#0089D9; fill-rule:evenodd;" d="M11.2,19.5c-0.1,0.1-0.1,0.1-0.2,0.2c-3,2.8-4.1,3.1-6.4,0.6c-2.4-2.6-1.8-3.8,0.6-6.2
			c2.4-2.4,9.7-9.5,10.9-10.7c1.2-1.2,2.1-2,3.8-0.4c1.5,1.4,0.4,2.6-0.8,3.8c-1.2,1.2-8.6,8.4-9.4,9.3c-1.2,1.2-2.1,0.3-0.9-0.9
			c1.2-1.2,9.7-9.4,9.7-9.4L17,4.4c0,0-8.5,8.4-9.7,9.6C6,15.1,5.6,17,6.8,18.2c1.2,1.2,3,0.6,4.2-0.6c0.2-3.6,3.1-6.6,6.8-6.7
			c1.4-1.4,2.6-2.5,3-2.9c2.4-2.4,3.1-4.1,0.6-6.5c-2.4-2.4-4.3-1.8-6.7,0.6C13.5,3.3,5,11.7,3.8,12.9c-3.6,3.6-3.6,6-0.6,8.9
			c3,2.9,5.4,3,8.8-0.3C11.6,20.9,11.3,20.2,11.2,19.5z"/>
<path style="fill:#0089D9; fill-rule:evenodd;" d="M18,12c-3.3,0-6,2.7-6,6s2.7,6,6,6s6-2.7,6-6S21.3,12,18,12z M21,19h-2v2c0,0.6-0.5,1-1,1s-1-0.4-1-1v-2h-2
		c-0.5,0-1-0.4-1-1s0.5-1,1-1h2v-2c0-0.6,0.5-1,1-1s1,0.4,1,1v2h2c0.5,0,1,0.4,1,1S21.5,19,21,19z"/>
</g></svg>