<svg width="24" height="24" viewBox="0 0 24 24" fill="none" xmlns="http://www.w3.org/2000/svg">
<g clip-path="url(#clip0_2_3181)">
<path fill-rule="evenodd" clip-rule="evenodd" d="M21.4 1.50001C19 -0.899993 17.1 -0.299994 14.7 2.10001C13.5 3.30001 4.99999 11.7 3.79999 12.9C0.199988 16.5 0.199988 18.9 3.19999 21.8C6.29999 24.8 8.69999 24.8 12.4 21.2C14.8 18.8 22.1 11.6 22.1 11.6L20.6 10.1C20.6 10.1 12.3 18.4 11.1 19.6C8.09999 22.4 6.99999 22.7 4.69999 20.2C2.29999 17.6 2.89999 16.4 5.29999 14C7.69999 11.6 15 4.50001 16.2 3.30001C17.4 2.10001 18.3 1.30001 20 2.90001C21.5 4.30001 20.4 5.50001 19.2 6.70001C18 7.90001 10.6 15.1 9.79999 16C8.59999 17.2 7.69999 16.3 8.89999 15.1C10.1 13.9 18.6 5.70001 18.6 5.70001L17 4.40001C17 4.40001 8.49999 12.8 7.29999 14C5.99999 15.1 5.59999 17 6.79999 18.2C7.99999 19.4 9.79999 18.8 11.1 17.6C12.3 16.4 19.6 9.20001 20.8 8.00001C23.2 5.70001 23.9 3.90001 21.4 1.50001Z" fill="#0089D9"/>
</g>
<defs>
<clipPath id="clip0_2_3181">
<rect width="140" height="24" fill="white"/>
</clipPath>
</defs>
</svg>
