<svg width="24" height="24" viewBox="0 0 24 24" fill="none" xmlns="http://www.w3.org/2000/svg">
<path fill-rule="evenodd" clip-rule="evenodd" d="M22.6 8.9L23.5 8.4C24 8.1 24.1 7.5 23.9 7C23.6 6.5 23 6.4 22.5 6.6L21.6 7.1C21.1 7.4 21 8 21.2 8.5C21.5 9 22.1 9.2 22.6 8.9ZM22 13H23C23.6 13 24 12.6 24 12C24 11.4 23.6 11 23 11H22C21.4 11 21 11.4 21 12C21 12.6 21.4 13 22 13ZM18 1.7C15.3 3.8 12.5 7 9 7H4C1.4 7 0 9.3 0 11.5C0 13.8 1.3 16 4 16H5C5.2 18.3 7.2 20 9.5 20C11.1 20 12.5 19.1 13.3 17.8C15 19.1 16.5 20.9 18 22.2C19.6 23.9 19.9 22.2 19.9 22.2V1.6C20 1.6 19.5 0.400002 18 1.7ZM9.5 18.1C8.3 18.1 7.3 17.2 7 16H9C9.9 16 10.8 16.3 11.7 16.8C11.3 17.5 10.5 18.1 9.5 18.1ZM18 19.7C18 19.7 14 14 9 14H4C2.6 14 2 12.7 2 11.5C2 10.3 2.7 9 4 9H9C14 9 18 4.3 18 4.3V19.7ZM23.5 15.7L22.6 15.2C22.1 14.9 21.5 15.1 21.2 15.6C20.9 16.1 21.1 16.7 21.6 17L22.5 17.5C23 17.8 23.6 17.6 23.9 17.1C24.1 16.6 23.9 16 23.5 15.7Z" fill="#0089D9"/>
</svg>
