<?xml version="1.0" encoding="UTF-8"?><svg id="bj" xmlns="http://www.w3.org/2000/svg" width="24" height="24" viewBox="0 0 24 24"><g id="bk"><path d="M12,0C5.37,0,0,5.37,0,12s5.37,12,12,12c.9,0,1.77-.11,2.62-.3-.64-.48-1.19-1.07-1.62-1.76-.33,.03-.66,.05-1,.05-5.52,0-10-4.47-10-10S6.48,2,12,2s10,4.47,10,10c0,.34-.02,.67-.05,1,.68,.43,1.28,.98,1.76,1.62,.19-.84,.29-1.72,.29-2.62C24,5.37,18.63,0,12,0Zm.41,10.06c-1.15-.09-2.68,.89-3.37,2.01,0,.13-.02,.06,0,.26,0,0,.9-.57,1.83-.65,.11,.04,.17,.19,.14,.32l-1.36,4.38c-.18,.64,.73,1.63,1.68,1.61,.25,0,.48-.03,.69-.07,.03-.34,.09-.68,.18-1-.31-.01-.33-.08-.33-.53l1.24-4.72c.13-.7,.03-1.51-.7-1.59Zm1.49-2.53c0-.84-.68-1.52-1.52-1.52s-1.52,.68-1.52,1.52,.68,1.52,1.52,1.52,1.52-.68,1.52-1.52Z" style="fill:#0089d9; fill-rule:evenodd;"/><path d="M18.5,13c-3.04,0-5.5,2.46-5.5,5.5s2.46,5.5,5.5,5.5,5.5-2.46,5.5-5.5-2.46-5.5-5.5-5.5Zm3.03,6h-2.53v2.47h-1v-2.47h-2.47v-1h2.47v-2.53h1v2.53h2.53v1Z" style="fill:#68a611; fill-rule:evenodd;"/></g></svg>