<?xml version="1.0" encoding="UTF-8"?><svg id="bj" xmlns="http://www.w3.org/2000/svg" width="24" height="24" viewBox="0 0 24 24"><g id="bk"><path  style="fill:#0089D9; fill-rule:evenodd;" class="st0" d="M15,3H9v2h6V3z M17,6c0.6,0,1-0.4,1-1V2c0-0.6-0.4-1-1-1s-1,0.4-1,1v3C16,5.6,16.4,6,17,6z M7,6
				c0.6,0,1-0.4,1-1V2c0-0.6-0.4-1-1-1S6,1.4,6,2v3C6,5.6,6.4,6,7,6z M21,3h-2v2h1c0.6,0,1,0.4,1,1v2H3V6c0-0.6,0.4-1,1-1h1V3H3
				C1.9,3,1,3.9,1,5v17c0,1.1,0.9,2,2,2h18c1.1,0,2-0.9,2-2V5C23,3.9,22.1,3,21,3z M21,21c0,0.6-0.4,1-1,1H4c-0.6,0-1-0.4-1-1V9h18
				V21z M8.6,13.7c0.7,0.2,1.5,0.5,2.2,0.8c-1.3,1.2-2.5,2.7-2.7,3.3c-0.2,0.4,0,1,0.5,1.2c0.5,0.2,1,0,1.2-0.4
				c0.5-1,1.2-2.2,2.2-3.3c0.2,0.1,0.4,0.3,0.6,0.4c1.4,1,2.2,2.1,2.9,3.2l0,0c0.1,0.1,0.2,0.2,0.4,0.1c0.2-0.1,0.2-0.2,0.2-0.4
				c-0.6-1.3-1.4-2.6-2.6-3.8c-0.2-0.2-0.3-0.3-0.5-0.5c1.1-1,2.1-1.4,3-1.7c0.1,0,0.2-0.2,0.2-0.3c0-0.2-0.2-0.3-0.4-0.2
				c-1.2,0.2-2.4,0.6-3.7,1.6c-1.2-0.9-2.4-1.4-2.8-1.5c-0.5-0.1-1,0.1-1.2,0.6C7.8,13.1,8.1,13.6,8.6,13.7z"/></g></svg>