<svg width="24" height="24" viewBox="0 0 24 24" fill="none" xmlns="http://www.w3.org/2000/svg">
<g clip-path="url(#clip0_2_2280)">
<path fill-rule="evenodd" clip-rule="evenodd" d="M3.8 4.8C3.9 4.5 3.7 4.3 3.4 4.2C3.1 4.2 3 4.4 3 4.6C2.8 5.6 2.8 6.5 3.4 7.3C3.5 7.4 3.6 7.5 3.8 7.5C3.9 7.5 4 7.5 4.1 7.4C4.3 7.3 4.4 7 4.2 6.7C3.8 6.2 3.6 5.5 3.8 4.8ZM21.9 11.8C20.8 10.7 19.5 10.1 18 9.8C18 9.7 18.1 9.7 18.1 9.6C19 7 18.2 5.2 17 4.5C15.6 3.6 13.8 4 12.5 5.3C12.1 5.7 11.8 6 11.5 6.3C11.3 5.8 11.2 5.3 11.1 4.9C10.9 4 10.8 2.9 9.5 1.7C8.5 0.6 7.1 0 5.6 0C4.1 0 2.7 0.6 1.6 1.6C0.6 2.7 0 4.1 0 5.6C0 7.1 0.6 8.5 1.6 9.6C2.8 10.8 3.9 11 4.8 11.2C5.3 11.3 5.7 11.4 6.2 11.6C5.9 11.9 5.5 12.2 5.2 12.6C4 13.8 3.7 15.6 4.5 17C5 17.8 6.1 18.5 7.5 18.5C8.1 18.5 8.8 18.4 9.6 18.1C9.7 18.1 9.7 18.1 9.8 18C10 19.5 10.7 20.8 11.8 21.9C13.1 23.3 14.9 24 16.9 24C18.9 24 20.6 23.3 22 21.9C23.4 20.5 24.1 18.8 24.1 16.8C24 14.9 23.3 13.1 21.9 11.8ZM5.2 9.2C4.4 9.1 3.9 9 3.1 8.2C2.4 7.5 2 6.6 2 5.6C2 4.6 2.4 3.7 3.1 3C3.7 2.4 4.6 2 5.6 2C6.6 2 7.5 2.4 8.2 3.1C9 3.9 9.1 4.4 9.2 5.3C9.4 6.5 9.7 7.9 11.8 10C12.1 10.3 12.1 10.9 11.8 11.2L11.1 11.9C10.8 12.2 10.2 12.2 9.9 11.9C7.8 9.6 6.4 9.4 5.2 9.2ZM9 16.3C7.7 16.8 6.6 16.5 6.2 15.9C5.8 15.3 6 14.5 6.6 13.9C7.1 13.4 7.5 13 7.9 12.7C8 12.8 8.2 13 8.4 13.1C9.5 14.2 11 13.9 12.1 12.8L12.8 12.1C13.9 11 14.3 9.5 13.1 8.4C13 8.3 12.9 8.2 12.7 8C13 7.6 13.4 7.1 13.9 6.7C14.5 6.1 15.3 5.9 15.9 6.3C16.5 6.7 16.7 7.8 16.3 9.1C15.7 10.6 14.4 12.3 13.4 13.4C12.3 14.4 10.6 15.8 9 16.3ZM20.5 20.5C19.5 21.5 18.2 22 16.9 22C15.5 22 14.2 21.5 13.3 20.5C12.4 19.6 11.8 18.3 11.8 17C13.2 16.1 14.3 15 14.8 14.6C15.2 14.2 16.3 13.1 17.2 11.6C18.5 11.7 19.7 12.2 20.7 13.1C21.7 14.1 22.2 15.4 22.2 16.7C22 18.2 21.5 19.5 20.5 20.5Z" fill="#FF8B00"/>
</g>
<defs>
<clipPath id="clip0_2_2280">
<rect width="140" height="24" fill="white"/>
</clipPath>
</defs>
</svg>
