<?xml version="1.0" encoding="UTF-8"?><svg id="bp" xmlns="http://www.w3.org/2000/svg" width="24" height="24" viewBox="0 0 24 24"><g id="bq"><path d="M18.5,13c-3.04,0-5.5,2.46-5.5,5.5s2.46,5.5,5.5,5.5,5.5-2.46,5.5-5.5-2.46-5.5-5.5-5.5Zm3.03,6h-2.53v2.47h-1v-2.47h-2.47v-1h2.47v-2.53h1v2.53h2.53v1Z" style="fill:#68a611; fill-rule:evenodd;"/><path d="M22.87,8.8c-.12,0-6.86-.58-6.95-.65-.1-.07-2.73-6.25-2.77-6.36-.21-.49-.68-.74-1.15-.74s-.94,.24-1.15,.74c-.05,.11-2.67,6.29-2.77,6.36-.1,.07-6.83,.64-6.95,.65-1.07,.1-1.52,1.47-.71,2.17,.09,.07,5.2,4.47,5.24,4.58,.04,.11-1.5,6.64-1.52,6.76-.24,1.04,.93,1.89,1.86,1.34,.1-.06,5.89-3.53,6.01-3.53,.01,0,.12,.05,.28,.14-.16-.56-.25-1.15-.25-1.76,0-.19,.01-.38,.03-.57h-.06c-.37,0-.54,0-5.55,3.03,1.34-5.7,1.34-5.72,1.19-6.18-.13-.38-.17-.5-4.6-4.27,5.8-.45,5.98-.58,6.26-.78,.15-.11,.45-.46,2.7-5.94,2.1,5.36,2.36,5.68,2.7,5.95,.26,.19,.45,.32,6.25,.77-.69,.59-1.27,1.08-1.77,1.51,.84,.08,1.63,.33,2.34,.7,1.07-.93,2.02-1.74,2.05-1.77,.81-.7,.36-2.07-.71-2.17Zm-14.2,5.55c.53,.36,1.25-.67,.81-1.18-1.15-.69-2.07-1.36-3.86-2.21,1.21,1.51,1.88,2.33,3.05,3.39Z" style="fill:#0089d9; fill-rule:evenodd;"/></g></svg>