<svg width="24" height="24" viewBox="0 0 24 24" fill="none" xmlns="http://www.w3.org/2000/svg">
<path fill-rule="evenodd" clip-rule="evenodd" d="M13.5 17.8C13.5 17.8 15 19.3 16.6 21.3C20.7 16.2 24 13.2 24 13.2L23.3 12.5C23.3 12.5 19.9 14.6 16.6 18.6C15.5 17.5 14.4 16.9 14.4 16.9L13.5 17.8ZM5 5H9V6H5V5ZM5 8H15V9H5V8ZM9.7 17H5V18H9.5C9.5 17.7 9.6 17.3 9.7 17ZM11.1 14H5V15H10.4C10.6 14.6 10.9 14.3 11.1 14ZM15 11.7V11H5V12H13.9C14.3 11.9 14.6 11.7 15 11.7ZM12.2 24H0V0H20V12.4C19.4 12 18.7 11.8 18 11.6V2H2V22H10.4C10.9 22.8 11.5 23.5 12.2 24ZM21.7 16.7C21.9 17.3 22 17.9 22 18.5C22 21.5 19.5 24 16.5 24C13.5 24 11 21.5 11 18.5C11 15.5 13.5 13 16.5 13C17.8 13 19 13.4 19.9 14.2L18.8 15.2C18.2 14.7 17.4 14.5 16.5 14.5C14.3 14.5 12.5 16.3 12.5 18.5C12.5 20.7 14.3 22.5 16.5 22.5C18.7 22.5 20.5 20.7 20.5 18.5C20.5 18.3 20.5 18.2 20.5 18L21.7 16.7Z" fill="#0089D9"/>
</svg>
