<?xml version="1.0" encoding="UTF-8"?><svg id="cm" xmlns="http://www.w3.org/2000/svg" width="24" height="24" viewBox="0 0 24 24"><path  fill-rule="evenodd" clip-rule="evenodd" fill="#0089D9" class="st0" d="M3,18C3.1,18.3,3.2,17.8,3,18L3,18z M22.3,9.6c1-1.1,1.7-2.1,1.7-3c0-0.5-0.1-0.9-0.3-1.3
				c-0.8-1.2-2.7-1.6-5.3-0.9c-2.5,0.7-4.1,1.8-6.2,3.6H4.1c-1,0-1.9,0.4-2.7,1.1l-1.2,1.2C0.1,10.4,0,10.7,0,11c0,0.1,0,0.2,0,0.2
				c0.1,0.3,0.4,0.6,0.7,0.7l5.6,1.2l-1.1,1c-0.1,0.1-0.3,0.3-0.5,0.5c-0.1,0.1-0.2,0.3-0.2,0.4H2c-0.3,0-0.5,0-0.7,0.2l-1,1
				C0.1,16.4,0,16.7,0,17c0,0.3,0.3,0.6,0.6,0.8l0.8,0.4c-0.5,0.7-0.8,1.6-0.1,2.4C1.6,20.9,2,21,2.6,21h0c2,0,6.6-2,11.2-4.7
				l5.1,4.3c0.2,0.2,0.4,0.2,0.6,0.2c0.2,0,0.3,0,0.5-0.1c0.8-0.4,1.3-1.1,1.6-1.9c0.2-0.8,0.1-1.7-0.3-2.4l-2.2-3.9
				C20.4,11.6,21.4,10.6,22.3,9.6z M3,10.4C3.3,10.1,3.7,10,4.1,10h8.8l-1.7,1.3c-0.4,0.3-1,0.5-1.5,0.3L3,10.4z M19.6,17.4
				c0.1,0.3,0.2,0.6,0.1,0.9c0,0.1-0.1,0.2-0.1,0.2l-4-3.4c0.7-0.4,1.3-0.9,2-1.4L19.6,17.4z M3.2,19C3,19,2.8,18.2,3,18
				c-0.1-0.3-0.7-0.9-1-1l2.9-0.1c0.3,0,0.5-0.1,0.7-0.3C5.7,16.5,6,16.3,6.2,16c0.2-0.2,0.3-0.3,0.4-0.4l2.2-2c0.1,0,0.2,0,0.3,0
				c0.8,0,1.7-0.3,2.3-0.8l3.9-3.1c0.3-0.3,0.5-0.7,0.3-1.1c-0.1-0.2-0.3-0.4-0.5-0.5c1.1-0.8,2.2-1.4,3.6-1.8
				c-0.5,0.4-1,0.8-1.4,1.3c-0.2,0.2-0.1,0.5,0.1,0.7c0.1,0.1,0.2,0.1,0.3,0.1c0.1,0,0.3-0.1,0.4-0.2c0.8-1,2.1-1.7,3.2-2.2
				c0.4,0.1,0.6,0.2,0.7,0.2c0.1,0.1,0,0.7-1.1,2C15.7,14,6.1,18.5,3.2,19z"/></svg>