<?xml version="1.0" encoding="UTF-8"?><svg id="bj" xmlns="http://www.w3.org/2000/svg" width="24" height="24" viewBox="0 0 24 24"><g id="bk"><path fill-rule="evenodd" clip-rule="evenodd" fill="#D6565A" d="M10.6,20C4,20,2.4,19.3,2,19.1c0.1-1.3,0.8-1.6,2.4-2.3
				c1.1-0.5,2.4-1,3.5-2.1c0,0,0.1,0,0.1,0c0.3,0,0.6-0.1,0.8-0.4c0.4-0.5,0.5-2,0-2.6c-0.4-0.4-0.7-0.8-0.7-1.4
				c0-0.5-0.4-0.9-0.9-1C7.1,9.1,6.9,8.5,6.9,7.9C7.2,8,7.4,7.6,7.5,7.2c0-0.1,0-0.2,0-0.3c0-0.4-0.1-0.8-0.2-1.1
				C6.8,4.5,7.2,3.3,8.1,2.6C8.7,2.1,9.6,1.9,10.5,2c2.1,0.3,1.5,1.6,2.9,1.8c0.1,0,0.4,0.1,0.5,0.2c0.5,1.8-0.3,1.6-0.3,2.8
				c0,0.1,0,0.3,0,0.4c0,0,0,0,0,0c0.1,0.7,0.3,0.7,0.6,0.6c0,0,0,0,0,0c0,0.6-0.2,1.3-0.4,1.5c-0.5,0.1-0.9,0.5-0.9,1
				c0,0.6-0.3,1-0.7,1.4c-0.1,0.1-0.1,0.1-0.2,0.2c-0.3,0.6-0.2,1.6,0,2.1c0.6-0.9,1.5-1.7,2.5-2.3c0.1-0.2,0.2-0.5,0.3-0.8
				c0.9-0.6,1.3-2.1,1.3-3.2c0-0.6-0.2-1-0.6-1.4c1.3-1.9,0.4-4.3-1.3-4.6c-0.2-0.1-0.4-0.1-0.6-0.1c-0.7-0.9-1.7-1.5-3-1.7
				c-4.6-0.6-7,3.6-5.3,6.4C5.1,6.8,4.9,7.3,4.9,7.9c0,1.1,0.4,2.6,1.3,3.2c0.1,0.7,0.5,1.2,0.8,1.7c-0.1,0.1-0.2,0.1-0.3,0.2
				c0,0-0.1,0.1-0.1,0.1c-0.8,1-1.9,1.4-3,1.9C2,15.6,0,16.5,0,19.3C0,20.7,1.3,22,10.6,22c0.6,0,1.2,0,1.7,0c-0.4-0.6-0.8-1.3-1-2
				C11.1,20,10.8,20,10.6,20z M18,12c-3.3,0-6,2.7-6,6c0,3.3,2.7,6,6,6c3.3,0,6-2.7,6-6C24,14.7,21.3,12,18,12z M18,22.4
				c-2.4,0-4.4-2-4.4-4.4c0-2.4,2-4.4,4.4-4.4c2.4,0,4.4,2,4.4,4.4C22.4,20.4,20.4,22.4,18,22.4z M19.9,17h-3.8c-0.6,0-1,0.4-1,1
				s0.4,1,1,1h3.8c0.6,0,1-0.5,1-1S20.4,17,19.9,17z"/></g></svg>