<?xml version="1.0" encoding="UTF-8"?><svg id="ao" xmlns="http://www.w3.org/2000/svg" width="24" height="24" viewBox="0 0 24 24"><path d="M5,13h5v-5H5v5Zm1-4h3v3h-3v-3Zm8.58,2h-3c-.28,0-.5,.22-.5,.5s.22,.5,.5,.5h3c.28,0,.42-.23,.42-.5s-.14-.5-.42-.5Zm0-2h-3c-.28,0-.5,.22-.5,.5s.22,.5,.5,.5h3c.28,0,.42-.22,.42-.5s-.14-.5-.42-.5Zm.49-6c-.11-.55-.44-1-.99-1h-1c0-1.1-.9-2-2-2h-2c-1.1,0-2,.9-2,2h-1c-.58,0-.91,.45-1.02,1H1V22H12.12c-.39-.6-.67-1.28-.84-2H3V4h2.09c.14,.55,.48,1,1,1H14.08c.52,0,.85-.45,.98-1h1.94V12.03c.19-.02,.39-.03,.59-.03,.49,0,.96,.06,1.41,.16V3h-3.92Zm-3.59,0h-2.8c-.41-.81,.34-2,1.4-2s1.81,1.19,1.4,2Z" style="fill:#0089d9;"/><path d="M17.5,13c-3.04,0-5.5,2.46-5.5,5.5s2.46,5.5,5.5,5.5,5.5-2.46,5.5-5.5-2.46-5.5-5.5-5.5Zm3.03,6h-2.53v2.47h-1v-2.47h-2.47v-1h2.47v-2.53h1v2.53h2.53v1Z" style="fill:#68a611; fill-rule:evenodd;"/></svg>