<?xml version="1.0" encoding="UTF-8"?><svg xmlns="http://www.w3.org/2000/svg" width="24" height="24" viewBox="0 0 24 24"><g>
<path style="fill:#0089D9; fill-rule:evenodd;" d="M18,0H6C2.7,0,0,2.7,0,6v6c0,3.3,2.7,6,6,6c1,0,2,3,2,5c1,0,0,0,1,0c0-2,1.6-3.5,3-4.3c0-0.1,0-0.1,0-0.2
				c0-0.8,0.2-1.6,0.4-2.3c-1.5,0.4-3,1.5-3.6,3c-0.1-2-1-3.2-2.8-3.2c-2.5,0-4-1.5-4-4V6c0-2.5,1.5-4,4-4h12c2.5,0,4,1.5,4,4v6
				c0,0.3,0,0.7-0.1,1c0.6,0.4,1.2,0.8,1.6,1.4c0.3-0.7,0.5-1.5,0.5-2.4V6C24,2.7,21.3,0,18,0z M5,9c0,1.1,0.9,2,2,2
				c1.1,0,2-0.9,2-2c0-1.1-0.9-2-2-2C5.9,7,5,7.9,5,9z M8,9c0,0.6-0.4,1-1,1c-0.6,0-1-0.4-1-1c0-0.6,0.4-1,1-1C7.6,8,8,8.4,8,9z
				 M12,7c-1.1,0-2,0.9-2,2c0,1.1,0.9,2,2,2c1.1,0,2-0.9,2-2C14,7.9,13.1,7,12,7z M12,10c-0.6,0-1-0.4-1-1c0-0.6,0.4-1,1-1
				c0.6,0,1,0.4,1,1C13,9.6,12.6,10,12,10z M17,7c-1.1,0-2,0.9-2,2c0,1.1,0.9,2,2,2c1.1,0,2-0.9,2-2C19,7.9,18.1,7,17,7z M17,10
				c-0.6,0-1-0.4-1-1c0-0.6,0.4-1,1-1c0.6,0,1,0.4,1,1C18,9.6,17.6,10,17,10z"/>
				<path style="fill:#0089D9; fill-rule:evenodd;" d="M20.5,18H19v-1.5c0-0.3-0.2-0.5-0.5-0.5c-0.3,0-0.5,0.2-0.5,0.5V18h-1.5c-0.3,0-0.5,0.2-0.5,0.5
				c0,0.3,0.2,0.5,0.5,0.5H18v1.5c0,0.3,0.2,0.5,0.5,0.5c0.3,0,0.5-0.2,0.5-0.5V19h1.5c0.3,0,0.5-0.2,0.5-0.5
				C21,18.2,20.8,18,20.5,18z M18.5,13c-3,0-5.5,2.5-5.5,5.5c0,3,2.5,5.5,5.5,5.5c3,0,5.5-2.5,5.5-5.5C24,15.5,21.5,13,18.5,13z
				 M18.5,22.6c-2.2,0-4.1-1.8-4.1-4.1c0-2.2,1.8-4.1,4.1-4.1c2.2,0,4.1,1.8,4.1,4.1C22.6,20.7,20.7,22.6,18.5,22.6z"/>
</g></svg>