<svg width="24" height="24" viewBox="0 0 24 24" fill="none" xmlns="http://www.w3.org/2000/svg">
<g opacity="0.3">
<path fill-rule="evenodd" clip-rule="evenodd" d="M12 2C7 2 3.9 4.9 2 8L11 14H13L22 8C20.1 4.9 17 2 12 2Z" fill="#0089D9"/>
</g>
<path d="M3 7H6C6.6 7 7 6.6 7 6C7 5.4 6.6 5 6 5H5.2C7.1 3.1 9.5 2 12 2C14.5 2 16.9 3.1 18.8 5H18C17.4 5 17 5.4 17 6C17 6.6 17.4 7 18 7H21C21.6 7 22 6.6 22 6V3C22 2.4 21.6 2 21 2C20.4 2 20 2.4 20 3V3.3C17.8 1.2 14.9 0 12 0C9.1 0 6.3 1.2 4 3.4V3C4 2.4 3.6 2 3 2C2.4 2 2 2.4 2 3V6C2 6.6 2.4 7 3 7ZM12 4C11.4 4 11 4.4 11 5V11C10.4 11 10 11.4 10 12C10 12.6 10.4 13 11 13C11 13.6 11.4 14 12 14C12.6 14 13 13.6 13 13H17C17.6 13 18 12.6 18 12C18 11.4 17.6 11 17 11H13V5C13 4.4 12.6 4 12 4ZM23.2 7.8L21.3 8.5C21.8 9.6 22 10.8 22 12C22 17.5 17.5 22 12 22C6.5 22 2 17.5 2 12C2 10.8 2.2 9.6 2.6 8.5L0.8 7.8C0.3 9.1 0 10.5 0 12C0 18.6 5.4 24 12 24C18.6 24 24 18.6 24 12C24 10.5 23.7 9.1 23.2 7.8Z" fill="#0089D9"/>
</svg>
