<svg width="24" height="24" viewBox="0 0 24 24" fill="none" xmlns="http://www.w3.org/2000/svg">
<path d="M10 8H8V10H10V8ZM12 10H12.2C12.7 9.7 13.3 9.5 14 9.3V8H12V10ZM16 9C16.3 9 16.7 9 17 9C17.3 9 17.7 9 18 9V8H16V9ZM10 12.2V12H8V14H9.3C9.5 13.3 9.7 12.7 10 12.2ZM6 12H4V14H6V12ZM4 18H6V16H4V18ZM20 2H18V1C18 0.4 17.6 0 17 0C16.4 0 16 0.4 16 1V2H6V1C6 0.4 5.6 0 5 0C4.4 0 4 0.4 4 1V2H2C0.9 2 0 2.9 0 4V20C0 21.1 0.9 22 2 22H10.1C9.7 21.4 9.5 20.7 9.3 20H3C2.4 20 2 19.6 2 19V5C2 4.4 2.4 4 3 4H4V5C4 5.6 4.4 6 5 6C5.6 6 6 5.6 6 5V4H16V5C16 5.6 16.4 6 17 6C17.6 6 18 5.6 18 5V4H19C19.6 4 20 4.4 20 5V9.4C20.8 9.6 21.4 10 22 10.4V4C22 2.9 21.1 2 20 2ZM8 16V18H9C9 17.7 9 17.3 9 17C9 16.7 9 16.3 9 16H8Z" fill="#0089D9"/>
<path fill-rule="evenodd" clip-rule="evenodd" d="M17 10C13.1 10 10 13.1 10 17C10 20.9 13.1 24 17 24C20.9 24 24 20.9 24 17C24 13.1 20.9 10 17 10ZM20 18H18V20C18 20.6 17.6 21 17 21C16.4 21 16 20.6 16 20V18H14C13.4 18 13 17.6 13 17C13 16.4 13.4 16 14 16H16V14C16 13.4 16.4 13 17 13C17.6 13 18 13.4 18 14V16H20C20.6 16 21 16.4 21 17C21 17.6 20.6 18 20 18Z" fill="#68A611"/>
</svg>
