<?xml version="1.0" encoding="UTF-8"?><svg id="kb" xmlns="http://www.w3.org/2000/svg" width="24" height="24" viewBox="0 0 24 24"><path d="M16,2h-2.05c-.23-1.14-1.24-2-2.45-2s-2.22,.86-2.45,2h-2.05v3h9V2Zm-6,1V2c0-.45,.64-1,1.47-1s1.53,.52,1.53,1t0,1h-3Zm9,0h-2v1h2V22H4V4h2v-1h-2c-1.1,0-2,.9-2,2V22c0,1.1,.9,2,2,2h15c1.1,0,2-.9,2-2V5c0-1.1-.9-2-2-2Zm-10.01,14.7c.2,.2,.45,.29,.71,.29,.26,0,.52-.09,.71-.29l6.3-6.3c.39-.39,.39-1.03,0-1.41-.39-.39-1.03-.39-1.41,0l-5.6,5.6-1.98-1.98c-.39-.39-1.03-.39-1.41,0s-.39,1.03,0,1.41l2.68,2.68Z" style="fill:#0089d9; fill-rule:evenodd;"/><rect id="kc" x="0" width="24" height="24" style="fill:none; opacity:0;"/></svg>