<svg width="24" height="24" viewBox="0 0 24 24" fill="none" xmlns="http://www.w3.org/2000/svg">
<path d="M23 9C23 7.9 22.1 7 21 7H18.5C19.6 6.2 20.3 5.1 20.5 4C20.6 3.2 20.4 2.4 20 1.9C19.4 1.3 18.6 1 17.8 1C16.6 1 15.3 1.6 14.1 2.6C12.9 3.6 12.2 5.1 11.8 6.4C11.2 4.5 10 2.7 8.6 1.7C7.2 0.6 5.7 0 4.4 0C3.2 0 2.3 0.4 1.7 1.2C1.2 1.8 1 2.7 1.2 3.6C1.5 4.9 2.4 6.1 3.7 7H3C1.9 7 1 8.3 1 9V14H2V21C2 22.1 2.9 23 4 23H20C21.1 23 22 22.1 22 21V14H23V9ZM21 12H20.5H14V9H21V12ZM11 9H13V21H11V9ZM15.3 4.1C16.1 3.4 17.1 3 17.8 3C18.1 3 18.3 3.1 18.4 3.2C18.5 3.3 18.5 3.5 18.5 3.7C18.4 4.4 17.8 5.1 17 5.7C16 6.3 15 6.7 13.7 6.8C14 5.8 14.5 4.8 15.3 4.1ZM3.3 2.4C3.5 2.1 4.1 2 4.4 2C5.3 2 6.4 2.5 7.5 3.2C8.6 4.1 9.4 5.4 9.8 6.7C8.1 6.7 6.7 6.4 5.3 5.6C4.2 5 3.4 4.1 3.2 3.2C3.1 2.8 3.1 2.6 3.3 2.4ZM3 9H10V12H3.5H3V9ZM4 21V13H3.5H10V21H4ZM14 21V13H20V21H14Z" fill="#68A611"/>
</svg>
