<svg width="24" height="24" viewBox="0 0 24 24" fill="none" xmlns="http://www.w3.org/2000/svg">
<path fill-rule="evenodd" clip-rule="evenodd" d="M12 0H11L0 6V8H23V6L12 0ZM5 6L11 3H12L18 6H5ZM22.7 23H21.7C21.9 23 22 22.8 22 22.5C22 22.2 21.9 22 21.7 22H1.3C1.2 22 1 22.2 1 22.5C1 22.8 1.2 23 1.3 23H0.3C0.1 23 0 23.4 0 23.5C0 23.7 0.1 24 0.3 24H22.7C22.9 24 23 23.7 23 23.5C23 23.4 22.9 23 22.7 23ZM2 20C2 20.5 2 21 2 21H7C7 21 7 20.5 7 20C7 19.7 6 19.3 6 19C6 17 6 12.7 6 11C6 10.7 7 10.2 7 10C7 9.4 7 9 7 9H2C2 9 2 9.4 2 10C2 10.3 3 10.6 3 11C3 12.7 3 17.1 3 19C3 19.3 2 19.7 2 20ZM9 20C9 20.3 9 21 9 21H14C14 21 14 20.6 14 20C14 19.7 13 19.3 13 19C13 17 13 12.7 13 11C13 10.7 14 10.3 14 10C14 9.4 14 9 14 9H9C9 9 9 9.4 9 10C9 10.3 10 10.6 10 11C10 12.7 10 17.1 10 19C10 19.3 9 19.7 9 20ZM16 20C16 20.5 16 21 16 21H21C21 21 21 20.2 21 20C21 19.7 20 19.3 20 19C20 17 20 12.7 20 11C20 10.7 21 10.3 21 10C21 9.4 21 9 21 9H16C16 9 16 9.4 16 10C16 10.3 17 10.6 17 11C17 12.7 17 17.1 17 19C17 19.3 16 19.7 16 20Z" fill="#0089D9"/>
</svg>
