<svg width="24" height="24" viewBox="0 0 24 24" fill="none" xmlns="http://www.w3.org/2000/svg">
<path fill-rule="evenodd" clip-rule="evenodd" d="M21 4H17C17 2.3 15.7 1 14 1H10C8.3 1 7 2.3 7 4H3C1.3 4 0 5.3 0 7V21C0 22.7 1.3 24 3 24H21C22.7 24 24 22.7 24 21V7C24 5.3 22.7 4 21 4ZM10 3H14C14.6 3 15 3.4 15 4H9C9 3.4 9.4 3 10 3ZM2 7C2 6.4 2.4 6 3 6H21C21.6 6 22 6.4 22 7V12.4C19 13.5 15 14 12 14C9 14 5 13.5 2 12.4V7ZM21 22H3C2.4 22 2 21.6 2 21V14.7C4.3 15.4 7.1 15.8 10 16C10 16 10 16 10 16.1C10 17.2 10.9 18.1 12 18.1C13.1 18.1 14 17.2 14 16.1C14 16.1 14 16.1 14 16C16.9 15.9 19.7 15.4 22 14.7V21C22 21.6 21.6 22 21 22Z" fill="#0089D9"/>
</svg>
