<svg width="24" height="24" viewBox="0 0 24 24" fill="none" xmlns="http://www.w3.org/2000/svg">
<path fill-rule="evenodd" clip-rule="evenodd" d="M12 17L17 12H7L12 17ZM23 8V6C23 5 22 4 21 4H12.5C12.5 4 11 1 9 1H4C2.5 1 1 2.5 1 4V8C0.5 8 0 8.4 0 9C0 9.6 1 19 1 19C1.2 20.5 2.5 22 4 22H20C21.5 22 22.8 20.5 23 19C23 19 24 9.5 24 9C24 8.5 23.5 8 23 8ZM3 4C3 3.5 3.5 3 4 3H9C10 3 11.5 6 11.5 6H20C20.5 6 21 6.5 21 7V8H3V4ZM21 19C21 19.5 20.5 20 20 20H4C3.5 20 3 19.5 3 19C3 19 2 10.6 2 10C2 9.4 2.5 9 3 9H21C21.5 9 22 9.5 22 10C22 10.5 21 19 21 19Z" fill="#0089D9"/>
</svg>
