<svg width="24" height="24" viewBox="0 0 24 24" fill="none" xmlns="http://www.w3.org/2000/svg">
<g clip-path="url(#clip0_2_4063)">
<path d="M23 2H1.00001C0.864819 1.98392 0.727738 1.99872 0.599092 2.04329C0.470446 2.08786 0.353588 2.16103 0.257317 2.2573C0.161047 2.35357 0.0878719 2.47043 0.043303 2.59908C-0.00126591 2.72772 -0.0160674 2.8648 1.31121e-05 3V8C-0.0160674 8.13519 -0.00126591 8.27227 0.043303 8.40092C0.0878719 8.52956 0.161047 8.64642 0.257317 8.74269C0.353588 8.83896 0.470446 8.91214 0.599092 8.95671C0.727738 9.00128 0.864819 9.01608 1.00001 9V21C0.983933 21.1352 0.998734 21.2723 1.0433 21.4009C1.08787 21.5296 1.16105 21.6464 1.25732 21.7427C1.35359 21.839 1.47045 21.9121 1.59909 21.9567C1.72774 22.0013 1.86482 22.0161 2.00001 22H22C22.1352 22.0161 22.2723 22.0013 22.4009 21.9567C22.5296 21.9121 22.6464 21.839 22.7427 21.7427C22.839 21.6464 22.9122 21.5296 22.9567 21.4009C23.0013 21.2723 23.0161 21.1352 23 21V9C23.1352 9.01608 23.2723 9.00128 23.4009 8.95671C23.5296 8.91214 23.6464 8.83896 23.7427 8.74269C23.839 8.64642 23.9122 8.52956 23.9567 8.40092C24.0013 8.27227 24.0161 8.13519 24 8V3C24.0161 2.8648 24.0013 2.72772 23.9567 2.59908C23.9122 2.47043 23.839 2.35357 23.7427 2.2573C23.6464 2.16103 23.5296 2.08786 23.4009 2.04329C23.2723 1.99872 23.1352 1.98392 23 2V2ZM22 4V7H2.00001V4H22ZM21 20H3.00001V8H21V20Z" fill="#0089D9"/>
</g>
<defs>
<clipPath id="clip0_2_4063">
<rect width="140" height="24" fill="white"/>
</clipPath>
</defs>
</svg>
