<svg data-name="Layer 1" xmlns="http://www.w3.org/2000/svg" width="24" height="24"><path fill-rule="evenodd" clip-rule="evenodd" fill="#0089D9" d="M21,4h-4c0-1.7-1.3-3-3-3h-4C8.3,1,7,2.3,7,4H3C1.3,4,0,5.3,0,7v14c0,1.7,1.3,3,3,3h18c1.7,0,3-1.3,3-3V7
				C24,5.3,22.7,4,21,4z M10,3h4c0.6,0,1,0.4,1,1H9C9,3.4,9.4,3,10,3z M2,7c0-0.6,0.4-1,1-1h18c0.6,0,1,0.4,1,1v5.4
				c-3,1.1-7,1.6-10,1.6c-3,0-7-0.5-10-1.6V7z M21,22H3c-0.6,0-1-0.4-1-1v-6.3c2.3,0.7,5.1,1.1,8,1.3c0,0,0,0,0,0.1c0,1.1,0.9,2,2,2
				s2-0.9,2-2c0,0,0,0,0-0.1c2.9-0.1,5.7-0.6,8-1.3V21C22,21.6,21.6,22,21,22z"/></svg>