<svg width="24" height="24" viewBox="0 0 24 24" fill="none" xmlns="http://www.w3.org/2000/svg">
<path fill-rule="evenodd" clip-rule="evenodd" d="M22 0H2C1 0 0 1 0 2V8C0 9 1 10 2 10H7.9C7.9 9.2 7.9 8.6 7.9 8H2V2H22V8H12.9C13 8.6 13.1 9.3 13.2 10H22C23 10 24 9 24 8V2C24 1 23 0 22 0ZM19 13.1C18.1 12.7 17.8 14.3 17.8 14.3C17.8 14.3 18.2 12.2 16.8 11.8C15.6 11.5 15.1 13.4 15.1 13.4C15.1 13.4 15.1 11.1 13.7 11.1C12 11.1 12.4 13.9 12.4 13.9L11.1 4.9C11.1 4.9 10.7 3.9 10 4C9.4 4.1 9.3 4.5 9.3 5.4C9.3 6.6 9.9 16.7 9.9 16.7C9.9 16.7 6.5 14.4 5.7 15.2C5.2 15.8 4.6 16.6 5.7 17.1C8 18.1 10.3 21.6 10.9 22.8C11.6 24 11.5 24 11.5 24C11.5 24 16.3 24 18 24C18 22.6 20 20.7 20 18.6C20 16.5 20 14.8 20 14.8C20 14.8 20 13.5 19 13.1Z" fill="#0089D9"/>
</svg>
