<?xml version="1.0" encoding="UTF-8"?><svg id="o" xmlns="http://www.w3.org/2000/svg" width="24" height="24" viewBox="0 0 24 24"><path d="M0,19H1V4H0v15ZM4,4H2V15h2V4Zm2,11V4h-1V15h1Zm1,0h1V4h-1V15Zm4,0V4h-2V15h2ZM13,4h-1V15h1V4Zm2,0h-1V15h1V4Zm4,0h-3V15h3V4Zm2,0h-1V15h1V4Zm1,0v15h2V4h-2ZM3.68,17.82c.34-.2,.51-.48,.51-.82,0-.24-.08-.46-.25-.65-.2-.23-.47-.34-.8-.34-.19,0-.37,.03-.53,.11-.16,.08-.28,.19-.37,.33-.09,.14-.15,.33-.2,.57l.62,.12c.02-.17,.07-.3,.15-.39,.08-.09,.18-.13,.3-.13s.21,.04,.28,.12c.07,.08,.11,.18,.11,.32,0,.16-.05,.28-.14,.37-.1,.09-.24,.14-.42,.13l-.07,.61c.12-.04,.22-.06,.31-.06,.13,0,.24,.06,.33,.17,.09,.11,.14,.26,.14,.45,0,.2-.05,.36-.14,.48-.1,.12-.21,.18-.35,.18-.13,0-.24-.05-.33-.15-.09-.1-.15-.24-.17-.42l-.65,.09c.03,.33,.16,.6,.37,.8,.21,.2,.47,.32,.79,.32,.34,0,.62-.13,.84-.38,.23-.24,.34-.54,.34-.88,0-.24-.06-.44-.18-.61-.12-.17-.28-.28-.48-.32Zm2.79,.77c.21-.22,.36-.38,.44-.5,.12-.17,.21-.34,.27-.5,.06-.16,.09-.33,.09-.5,0-.31-.1-.57-.3-.78-.2-.21-.47-.3-.82-.3-.32,0-.58,.08-.79,.26-.21,.18-.34,.48-.38,.89l.67,.07c.01-.22,.06-.38,.14-.47,.08-.09,.2-.14,.34-.14s.25,.05,.34,.13c.08,.09,.12,.22,.12,.39,0,.15-.05,.3-.14,.46-.07,.11-.26,.33-.56,.64-.38,.39-.63,.7-.76,.94-.13,.24-.21,.57-.23,.83h2.37v-.78h-1.34c.04-.07,.08-.14,.14-.21,.06-.07,.19-.22,.41-.43Zm3.76-1.28c-.16,0-.31,.04-.46,.13l.11-.66h1.13v-.76h-1.64l-.35,2.1,.55,.09c.15-.19,.33-.29,.52-.29,.16,0,.28,.06,.38,.18s.15,.3,.15,.54c0,.26-.05,.45-.15,.58-.1,.13-.22,.19-.36,.19-.12,0-.23-.05-.33-.15-.09-.1-.15-.23-.17-.4l-.67,.08c.04,.33,.16,.59,.37,.78,.21,.19,.47,.3,.8,.3,.41,0,.73-.19,.95-.53,.17-.25,.25-.54,.25-.86,0-.39-.1-.7-.31-.94-.21-.24-.46-.36-.76-.36Zm2.98,.08c-.25,0-.46,.11-.63,.33,.03-.45,.09-.75,.19-.89,.1-.14,.22-.21,.36-.21,.11,0,.19,.04,.26,.11,.07,.07,.11,.18,.12,.33l.65-.08c-.05-.32-.16-.56-.34-.73-.18-.17-.4-.24-.66-.24-.38,0-.69,.15-.93,.46-.24,.32-.36,.83-.36,1.55s.11,1.2,.34,1.51c.23,.31,.52,.47,.88,.47,.33,0,.6-.13,.82-.38,.21-.24,.32-.56,.32-.96,0-.38-.1-.69-.3-.92-.2-.24-.44-.36-.73-.36Zm.24,1.82c-.08,.11-.19,.16-.31,.16s-.25-.07-.35-.2c-.1-.13-.15-.32-.15-.57,0-.22,.04-.39,.13-.5,.09-.11,.2-.17,.33-.17s.25,.06,.34,.18c.09,.12,.13,.3,.13,.56s-.04,.43-.13,.53Zm2.69-1.9c-.16,0-.31,.04-.46,.13l.11-.66h1.22v-.76h-1.73l-.35,2.1,.55,.09c.15-.19,.33-.29,.52-.29,.16,0,.28,.06,.38,.18,.1,.12,.15,.3,.15,.54,0,.26-.05,.45-.15,.58-.1,.13-.22,.19-.36,.19-.12,0-.23-.05-.33-.15-.09-.1-.15-.23-.17-.4l-.67,.08c.04,.33,.16,.59,.37,.78,.21,.19,.47,.29,.8,.29,.41,0,.73-.17,.96-.52,.17-.25,.25-.54,.25-.86,0-.39-.1-.7-.31-.94-.21-.24-.46-.36-.76-.36Zm4.61-1.3h-.57l-1.53,2.48v.66h1.44v.87h.65v-.87h.44v-.66h-.44v-2.47Zm-.65,2.47h-.81l.81-1.34v1.34Z" style="fill:#0089d9;"/></svg>