<?xml version="1.0" encoding="UTF-8"?><svg id="ok" xmlns="http://www.w3.org/2000/svg" width="24" height="24" viewBox="0 0 24 24"><g id="op"><path d="M3,23s0,1,1,1h2c1,0,1-1,1-1v-2H3v2Zm14,0s0,1,1,1h2c1,0,1-1,1-1v-2h-4v2ZM0,7v2C0,10,.72,11,1,11l1-1V6l-1-1C.72,5,0,6,0,7Zm23-2l-1,1v4l1,1c.28,0,1-1,1-2v-2c0-1-.72-2-1-2Zm-10,12h-2c-.28,0-.5,.22-.5,.5s.22,.5,.5,.5h2c.28,0,.5-.22,.5-.5s-.22-.5-.5-.5Zm0,2h-2c-.28,0-.5,.22-.5,.5s.22,.5,.5,.5h2c.28,0,.5-.22,.5-.5s-.22-.5-.5-.5Z" style="fill:#0089d9; fill-rule:evenodd;"/><path d="M5.5,11.5l4-4" style="fill:none; stroke:#0089d9; stroke-miterlimit:10; stroke-width:.5px;"/><path d="M8.5,11.5l6-6" style="fill:none; stroke:#0089d9; stroke-miterlimit:10; stroke-width:.5px;"/><path d="M6.5,18c.28,0,.5,.22,.5,.5s-.22,.5-.5,.5-.5-.22-.5-.5,.22-.5,.5-.5m0-1c-.83,0-1.5,.67-1.5,1.5s.67,1.5,1.5,1.5,1.5-.67,1.5-1.5-.67-1.5-1.5-1.5h0Z" style="fill:#0089d9;"/><path d="M17.5,18c.28,0,.5,.22,.5,.5s-.22,.5-.5,.5-.5-.22-.5-.5,.22-.5,.5-.5m0-1c-.83,0-1.5,.67-1.5,1.5s.67,1.5,1.5,1.5,1.5-.67,1.5-1.5-.67-1.5-1.5-1.5h0Z" style="fill:#0089d9;"/><path d="M2.5,12.5s2,2,9.5,2,9.5-2,9.5-2" style="fill:none; stroke:#0089d9; stroke-miterlimit:10;"/><line x1="2.5" y1="3.5" x2="21.5" y2="3.5" style="fill:none; stroke:#0089d9; stroke-miterlimit:10;"/><line x1="5" y1=".5" x2="19" y2=".5" style="fill:none; stroke:#0089d9; stroke-miterlimit:10;"/><line x1="2.5" y1="21.5" x2="21.5" y2="21.5" style="fill:none; stroke:#0089d9; stroke-miterlimit:10;"/><path d="M19,1c1.1,0,2,.9,2,2V22" style="fill:none; fill-rule:evenodd; stroke:#0089d9; stroke-miterlimit:10; stroke-width:2px;"/><path d="M3,22V3c0-1.1,.9-2,2-2" style="fill:none; fill-rule:evenodd; stroke:#0089d9; stroke-miterlimit:10; stroke-width:2px;"/><line x1="5" y1="1" x2="5" y2="3" style="fill:none; stroke:#0089d9; stroke-miterlimit:10; stroke-width:2px;"/><line x1="19" y1="1" x2="19" y2="3" style="fill:none; stroke:#0089d9; stroke-miterlimit:10; stroke-width:2px;"/></g></svg>