<svg width="24" height="24" viewBox="0 0 24 24" fill="none" xmlns="http://www.w3.org/2000/svg">
<g clip-path="url(#clip0_2_3641)">
<path fill-rule="evenodd" clip-rule="evenodd" d="M10.5 7.99999C10.8 7.99999 11 7.79999 11 7.49999V6.49999C11 6.19999 10.8 5.99999 10.5 5.99999C10.2 5.99999 10 6.19999 10 6.49999V7.49999C10 7.79999 10.2 7.99999 10.5 7.99999ZM12.5 7.99999C12.8 7.99999 13 7.79999 13 7.49999V6.49999C13 6.19999 12.8 5.99999 12.5 5.99999C12.3 5.99999 12 6.19999 12 6.49999V7.49999C12 7.79999 12.3 7.99999 12.5 7.99999ZM19 17.7C18.9 14.6 17 12.4 16.4 11.8L16.2 11.7C16 11.6 15.9 11.5 15.7 11.5C16.3 11 16.6 10.4 16.8 9.49999C17 9.39999 17.1 9.29999 17.2 9.19999C17.9 8.49999 18 7.59999 18 6.99999C18 5.99999 17.6 5.19999 17 4.79999C17 3.79999 16.6 2.79999 15.8 1.89999C14.7 0.699994 13.1 -0.100006 11.5 -0.100006C9.80001 -6.10203e-06 8.20001 0.699994 7.20001 1.99999C6.40001 2.79999 6.00001 3.79999 6.00001 4.79999C5.40001 5.19999 5.00001 5.99999 5.00001 6.99999C5.00001 7.59999 5.10001 8.49999 5.70001 9.09999C5.90001 9.29999 6.00001 9.39999 6.20001 9.39999C6.40001 10.2 6.70001 10.8 7.20001 11.3C7.00001 11.4 6.70001 11.4 6.50001 11.6L6.30001 11.7C5.30001 12.7 4.20001 14.7 4.00001 17.3C3.90001 17.4 3.80001 17.4 3.80001 17.5C2.80001 18.7 2.80001 20.1 3.60001 21.5C4.50001 23 6.30001 24 7.90001 24C8.20001 24 8.40001 24 8.70001 23.9C9.30001 23.8 9.70001 23.4 9.90001 22.8C10.7 22.9 11.4 22.9 11.5 22.9C11.8 22.9 12.3 22.9 12.9 22.8C13.1 23.3 13.5 23.7 14.1 23.8C14.3 23.9 14.6 23.9 14.9 23.9C16.4 23.9 18.3 22.9 19.2 21.4C19.9 20.3 19.9 18.9 19 17.7ZM7.10001 7.69999C7.10001 7.59999 7.00001 7.29999 7.00001 6.99999C7.00001 6.69999 7.10001 6.49999 7.20001 6.49999C7.50001 6.49999 7.70001 6.29999 7.90001 6.09999C8.00001 5.89999 8.10001 5.59999 8.00001 5.29999C7.90001 4.59999 8.10001 3.89999 8.70001 3.29999C9.40001 2.49999 10.4 1.99999 11.5 1.99999C12.6 1.99999 13.6 2.49999 14.3 3.29999C14.8 3.89999 15.1 4.59999 14.9 5.39999C14.9 5.69999 15 5.89999 15.1 6.19999C15.3 6.39999 15.5 6.59999 15.8 6.59999C15.8 6.59999 15.9 6.79999 15.9 7.09999C15.9 7.39999 15.8 7.69999 15.8 7.79999C15.4 7.69999 15 8.49999 15 8.99999C15 10.3 14.8 10.9 14.4 11.2C14.3 11.2 14.1 11.1 14 11.1C14 11.1 14 11.1 14 11V10.9C13.9 9.89999 12.8 8.99999 11.5 8.99999C10.1 8.99999 9.00001 9.89999 9.00001 11C8.10001 11.2 8.00001 11 8.00001 8.99999C8.00001 8.49999 7.60001 7.69999 7.10001 7.69999ZM13 11C13 11.6 12.6 12 12 12H11C10.4 12 10 11.6 10 11C10 10.4 10.4 9.99999 11 9.99999H11.5H12C12.6 9.99999 13 10.4 13 11ZM7.70001 13.3C8.30001 12.9 8.80001 12.7 9.30001 12.5C9.40001 12.5 9.50001 12.4 9.60001 12.3C10.1 12.7 10.7 13 11.5 13C12.2 13 12.8 12.8 13.3 12.4C13.4 12.4 13.4 12.5 13.5 12.5C14 12.7 14.4 12.9 15.1 13.3C15.8 14.1 16.6 15.3 16.9 16.7C16.6 16.7 16.3 16.8 16 17C15.6 16.6 15.2 16.4 14.7 16.3C14.9 16.2 15.1 16.1 15.1 15.8V14.6C15.1 14.3 14.9 14.1 14.6 14.1C14.3 14.1 14.1 14.3 14.1 14.6V15.8C14.1 16 14.2 16.1 14.3 16.2C13.5 16 12.6 16 11.4 16C10 16 8.00001 16 7.00001 17C6.70001 16.8 6.40001 16.7 6.10001 16.6C6.40001 15.1 7.10001 13.9 7.70001 13.3ZM5.30001 20.5C4.80001 19.7 5.10001 19.2 5.30001 18.9C5.50001 18.7 5.60001 18.6 5.70001 18.6C6.10001 18.6 6.80001 19.7 7.10001 20.1L7.20001 20.2C7.70001 20.9 7.90001 21.6 8.00001 22C7.20001 22.1 5.90001 21.4 5.30001 20.5ZM8.20001 22.1L8.40001 22.9L8.20001 22.1ZM13.9 19C13.7 19.3 13.2 20 12.9 20.8C12.3 20.9 11.7 21 11.4 21C11 21 10.3 21 9.60001 20.8C9.40001 20 9.00001 19.3 8.80001 19.1V19C8.60001 18.7 8.30001 18.3 8.10001 18C8.70001 17.3 9.80001 17 11.6 17C13.2 17 14.4 17.2 15 17.8C14.5 18.2 14.2 18.6 13.9 19ZM14.3 22.9L14.5 21.9L14.3 22.9ZM17.4 20.5C16.8 21.5 15.5 22.1 14.7 22C14.7 21.7 15 20.9 15.5 20.2L15.6 20.1C15.9 19.7 16.7 18.5 17 18.6C17 18.6 17.2 18.7 17.3 18.8C17.6 19.2 17.9 19.7 17.4 20.5ZM8.50001 16.1C8.80001 16.1 9.00001 15.9 9.00001 15.6V14.4C9.00001 14.1 8.80001 13.9 8.50001 13.9C8.20001 13.9 8.00001 14.1 8.00001 14.4V15.6C8.00001 15.9 8.20001 16.1 8.50001 16.1ZM12.5 3.99999C12.8 3.99999 13 3.79999 13 3.49999C13 3.19999 12.8 2.99999 12.5 2.99999C12.3 2.99999 12 3.19999 12 3.49999C12 3.79999 12.3 3.99999 12.5 3.99999Z" fill="#FF8B00"/>
</g>
<defs>
<clipPath id="clip0_2_3641">
<rect width="140" height="24" fill="white"/>
</clipPath>
</defs>
</svg>
