<?xml version="1.0" encoding="UTF-8"?><svg id="aq" xmlns="http://www.w3.org/2000/svg" width="24" height="24" viewBox="0 0 24 24"><path d="M0,21H24V4H0V21ZM19,5h4v3h-4v-3Zm0,4h4v3h-4v-3Zm0,4h4v3h-4v-3Zm0,4h4v3h-4v-3ZM13,5h5v3h-5v-3Zm0,4h5v3h-5v-3Zm0,4h5v3h-5v-3Zm0,4h5v3h-5v-3ZM7,5h5v3H7v-3Zm0,4h5v3H7v-3Zm0,4h5v3H7v-3Zm0,4h5v3H7v-3ZM1,5H6v3H1v-3Zm0,4H6v3H1v-3Zm0,4H6v3H1v-3Zm5,4v3H1v-3H6Z" style="fill:#0089d9; fill-rule:evenodd;"/><path d="M1,17H6v3H1v-3Z" style="fill:#0089d9; fill-rule:evenodd; opacity:.1;"/><path d="M13,17h5v3h-5v-3Z" style="fill:#0089d9; fill-rule:evenodd; opacity:.2;"/><path d="M1,13H6v3H1v-3Z" style="fill:#0089d9; fill-rule:evenodd; opacity:.5;"/><path d="M13,13h5v3h-5v-3Z" style="fill:#0089d9; fill-rule:evenodd; opacity:.5;"/><path d="M7,9h5v3H7v-3Z" style="fill:#0089d9; fill-rule:evenodd; opacity:.8;"/></svg>