<svg width="24" height="24" viewBox="0 0 24 24" fill="none" xmlns="http://www.w3.org/2000/svg">
<path fill-rule="evenodd" clip-rule="evenodd" d="M12 0C5.4 0 0 5.4 0 12C0 18.6 5.4 24 12 24C18.6 24 24 18.6 24 12C24 5.4 18.6 0 12 0ZM12 22C6.5 22 2 17.5 2 12C2 6.5 6.5 2 12 2C17.5 2 22 6.5 22 12C22 17.5 17.5 22 12 22ZM18 9C17.4 9 17 9.4 17 10V8C17 7.4 16.6 7 16 7C15.4 7 15 7.4 15 8V11H9V8C9 7.4 8.6 7 8 7C7.4 7 7 7.4 7 8V10C7 9.4 6.6 9 6 9C5.4 9 5 9.4 5 10V14C5 14.6 5.4 15 6 15C6.6 15 7 14.6 7 14V16C7 16.6 7.4 17 8 17C8.6 17 9 16.6 9 16V13H15V16C15 16.6 15.4 17 16 17C16.6 17 17 16.6 17 16V14C17 14.6 17.4 15 18 15C18.6 15 19 14.6 19 14V10C19 9.4 18.6 9 18 9Z" fill="#0089D9"/>
</svg>
