<?xml version="1.0" encoding="UTF-8"?><svg id="py" xmlns="http://www.w3.org/2000/svg" width="24" height="24" viewBox="0 0 24 24"><path d="M22.8,14.1c.2-.4,.2-.91,.2-1.46,0-2.94-1.29-5.56-3.33-7.32-.06-.13-.18-.23-.33-.27-1.61-1.28-3.63-2.05-5.83-2.05-5.14,0-9.48,4.53-9.49,10.05-.01,.19-.04,.49-.02,.91-1.38,.35-2.22,.64-2.98,1.03C.47,15.27,0,15.72,0,16.27,0,16.89,.18,17.51,.78,18.11c1.28,1.28,3.52,2.87,5.33,2.89,4.8,.14,17.9-2.61,17.9-5.13,0-.32-.11-1.26-1.2-1.77Zm-1.8-1.46c0,.63-.03,.97-.06,1.16-3.55,.97-6.2,1.6-8.1,1.94-.66,.12-1.29,.17-1.9,.19,.01-.44,.07-.87,.06-1.27-.03-2.59-.16-4.31,.97-5.97,1.23-1.81,2.96-2.54,5.26-2.67,2.25,1.31,3.77,3.78,3.77,6.62Zm-14.97,.32c0-4.34,3.43-7.96,7.48-7.96,.65,0,1.28,.09,1.88,.25-1.76,.4-3.17,1.28-4.25,2.87-1.32,1.93-1.18,3.87-1.15,6.55,0,.4-.05,.82-.06,1.25-1.06-.06-2.07-.26-3.02-.63-1.15-.45-.89-1.33-.89-2.33Zm.02,6.04c-1.16-.07-3.11-1.49-3.9-2.34,.61-.29,1.33-.51,2.57-.82,.37,.35,.88,.61,1.46,.85,3.14,1.24,6.08,.28,7,.12,2.01-.36,4.8-.94,8.54-1.96,.08-.02,.13-.04,.2-.06l-.18,.84c-2.09,1.03-9.86,3.63-15.7,3.38Z" style="fill:#0089d9; fill-rule:evenodd;"/></svg>