<?xml version="1.0" encoding="UTF-8"?><svg id="y" xmlns="http://www.w3.org/2000/svg" width="24" height="24" viewBox="0 0 24 24"><path d="M17.75,6L12,.28v-.28H0V22H9.52c-.41-.62-.74-1.29-.99-2H2V2H11V7h5v1.06c.33-.04,.66-.06,1-.06s.67,.02,1,.06v-1.06h0v-1h-.25Zm-5.75,0V2.49l3.59,3.51h-3.59Zm-3.05,7h-3.45c-.28,0-.5,.23-.5,.5s.22,.5,.5,.5h3.02c.12-.34,.26-.68,.42-1Zm-.45-4c-.28,0-.5,.23-.5,.5s.22,.5,.5,.5h2.85c.43-.35,.9-.66,1.39-.93-.07-.04-.15-.07-.24-.07h-4Zm-3.5,6.5c0,.28,.22,.5,.5,.5h2.56c.04-.34,.1-.67,.17-1h-2.73c-.28,0-.5,.23-.5,.5Zm0-4c0,.28,.22,.5,.5,.5h4.02c.24-.35,.5-.68,.79-1H5.5c-.28,0-.5,.23-.5,.5Z" style="fill:#0089d9; fill-rule:evenodd;"/><path d="M17,10c-3.87,0-7,3.13-7,7s3.13,7,7,7,7-3.13,7-7-3.13-7-7-7Zm3,8h-2v2c0,.55-.45,1-1,1s-1-.45-1-1v-2h-2c-.55,0-1-.45-1-1s.45-1,1-1h2v-2c0-.55,.45-1,1-1s1,.45,1,1v2h2c.55,0,1,.45,1,1s-.45,1-1,1Z" style="fill:#68a611; fill-rule:evenodd;"/></svg>