<?xml version="1.0" encoding="UTF-8"?><svg id="am" xmlns="http://www.w3.org/2000/svg" width="24" height="24" viewBox="0 0 24 24"><path d="M21,5.47l-.35-.35s-2.65,6.35-4.65,6.35c-4,0-3-5-7-5C4.22,6.47,.54,21.81,.54,21.81l.46,.19h0l.46,.19s.02-.07,.05-.19H22V5h-1v.47Zm0,9.71c-.97,1.72-2.63,3.82-5,3.82-3,0-4-5-7-5-2.79,0-5.57,3.88-7,6.23,1.15-4,4.02-12.76,7-12.76,3.28,0,2,5,7,5,2.31,0,4.24-3.95,5-5.75V15.18Z" style="fill:#0089d9; fill-rule:evenodd;"/><line x1="1" y1="23" x2="23" y2="23" style="fill:none; stroke:#0089d9; stroke-linecap:round; stroke-linejoin:round; stroke-width:2px;"/><line x1="1" y1="1" x2="1" y2="23" style="fill:none; stroke:#0089d9; stroke-linecap:round; stroke-linejoin:round; stroke-width:2px;"/></svg>