<svg data-name="Layer 1" xmlns="http://www.w3.org/2000/svg" width="24" height="24"><path fill-rule="evenodd" clip-rule="evenodd" fill="#0089D9"  d="M12,0C5.4,0,0,5.4,0,12c0,6.6,5.4,12,12,12c6.6,0,12-5.4,12-12C24,5.4,18.6,0,12,0z M12,22
				C6.5,22,2,17.5,2,12C2,6.5,6.5,2,12,2c5.5,0,10,4.5,10,10C22,17.5,17.5,22,12,22z M13,7c0.9,0,1.7,0.2,2.5,0.7
				c0.5,0.3,1.1,0.1,1.4-0.4c0.3-0.5,0.1-1.1-0.4-1.4C15.4,5.3,14.2,5,13,5c-3.2,0-5.8,2.1-6.7,5H5c-0.6,0-1,0.4-1,1
				c0,0.6,0.5,1,1,1h1c0,0.3,0,0.7,0.1,1H5c-0.6,0-1,0.4-1,1c0,0.6,0.5,1,1,1h1.7c1.1,2.4,3.5,4,6.3,4c1.2,0,2.4-0.3,3.4-0.9
				c0.5-0.3,0.7-0.9,0.4-1.4c-0.3-0.5-0.9-0.7-1.4-0.4C14.7,16.8,13.9,17,13,17c-1.6,0-3.1-0.8-4-2h3c0.6,0,1-0.4,1-1
				c0-0.6-0.4-1-1-1H8.1C8,12.7,8,12.3,8,12h4c0.6,0,1-0.4,1-1c0-0.6-0.4-1-1-1H8.4C9.2,8.2,11,7,13,7z"/></svg>