<svg width="24" height="24" viewBox="0 0 24 24" fill="none" xmlns="http://www.w3.org/2000/svg">
<path fill-rule="evenodd" clip-rule="evenodd" d="M23.5 17.8C21.5 19.2 20.5 20.6 18.9 22C16.5 22.5 15.5 22.6 13.1 23C8.3 22.2 6.3 20.5 3.9 20.1C3.5 20.1 3.4 20.1 3 20.2C2.9 20.6 2.5 21 2 21H1C0.4 21 0 20.6 0 20V15C0 14.4 0.4 14 1 14H2C2.6 14 3 14.4 3 15C4.6 14.6 5.8 13.2 11.2 15.1C13 15.5 13.9 15.4 15.4 15C17.8 14.8 19.5 16.4 16 18C14.7 18.3 12.7 18.1 11 18C12.9 19 15.6 18.7 16.8 18.8C18.4 18 19.8 17.3 21.5 16C23.4 15.2 24.3 16.6 23.5 17.8ZM11.5 12H18.5C18.8 12 19 12.2 19 12.5C19 12.8 18.8 13 18.5 13H11.5C11.2 13 11 12.8 11 12.5C11 12.2 11.2 12 11.5 12ZM11.5 9H18.5C18.8 9 19 9.2 19 9.5C19 9.8 18.8 10 18.5 10H11.5C11.2 10 11 9.8 11 9.5C11 9.2 11.2 9 11.5 9ZM21 15V7H17V3H9V13H7V1H17H18L23 6V15H21ZM19 4V5H20L19 4Z" fill="#0089D9"/>
</svg>
