<svg width="24" height="24" viewBox="0 0 24 24" fill="none" xmlns="http://www.w3.org/2000/svg">
<path fill-rule="evenodd" clip-rule="evenodd" d="M22.8 18.5C22.7 18.6 22.5 18.8 22.6 19.1C22.8 19.8 23.4 20.4 23.9 20.8C23.9 20.8 24 21 23.9 21C22.8 21 21.8 21 20.6 20.5C20.3 20.3 20 20.4 19.8 20.5C19 20.8 18.2 20.9 17.4 20.9C13.8 20.9 10.9 18.2 10.9 14.9C10.9 11.6 13.8 8.9 17.4 8.9C21 8.9 23.9 11.6 23.9 14.9C24 16.3 23.5 17.5 22.8 18.5ZM17.5 11C15.1 11 13 12.8 13 15C13 17.2 15.1 19 17.5 19C18.1 19 18.7 18.9 19.2 18.7C19.4 18.6 19.7 18.5 20.1 18.7C20.4 18.9 20.9 19.3 21.3 19.3C20.8 18.8 20.9 18.5 20.8 18.2C20.7 17.8 21 17.5 21.1 17.4C21.7 16.7 22 15.9 22 15C22 12.8 19.9 11 17.5 11ZM15.6 8.1C14.7 5.8 12 4 9 4C5.2 4 2 6.7 2 10C2 11.3 2.6 12.6 3.4 13.6C3.6 13.8 4 14.8 3.8 15.4C3.6 15.8 3.7 15.8 3.4 16.1C3.8 16.1 4.4 15.7 4.9 15.4C5.5 15.1 6.2 15.5 6.4 15.6C7.2 15.9 8 16 9 16C9.4 16 9.7 16 10.1 15.9C10.2 16.6 10.4 17.2 10.6 17.9C10.1 18 9.6 18 9 18C7.8 18 6.7 17.8 5.6 17.4C5.3 17.2 4.9 17.1 4.5 17.3C3 18 1.5 18 0 18C0 18 0.1 17.8 0.1 17.7C0.8 17.1 1.6 16.4 1.9 15.4C2 15 1.8 14.8 1.6 14.6C0.6 13.3 0 11.7 0 10C0 5.6 4 2 9 2C13.2 2 16.8 4.6 17.7 8.1C17.5 8.1 17.2 8 17 8C16.5 8 16.1 8.1 15.6 8.1Z" fill="#0089D9"/>
</svg>
