<svg data-name="Layer 1" xmlns="http://www.w3.org/2000/svg" width="24" height="24"><path fill-rule="evenodd" clip-rule="evenodd" fill="#0089D9" d="M24,10l-2.4,0c-0.3,0-0.6,0.2-0.8,0.4c-0.2-1-0.4-2-0.6-2.8C19.2,4.6,16.4,3,12,3C7.6,3,4.8,4.6,3.9,7.6
				c-0.3,0.8-0.5,1.8-0.6,2.8C3,10.2,2.7,10,2.4,10H0v3h1.8C1.3,13.5,1,14.2,1,15c0,0.4,0.1,0.7,0.2,1H1l0.1,4c0,1.1,0.9,2,2,2H5
				c0.9,0,1.7-0.7,1.9-1.6c1.3,0.3,3,0.5,5.1,0.6c2.1,0,3.8-0.3,5.1-0.6c0.2,0.9,1,1.6,1.9,1.6H21c1.1,0,2-0.9,2-2v-4.4
				C23,15.5,23,15.2,23,15c0-0.8-0.3-1.5-0.8-2H24V10z M6,7c0.4-1.4,1.3-2,6-2c4.7,0,5.6,0.6,6,2c0.3,1.1,0.7,3.4,0.9,4.9
				c-0.6-0.2-1.3-0.4-2.1-0.5c0-1.4-0.5-3.4-3-3.4c-2.1,0-2.7,1.8-3,2.9c0,0,0,0.1,0,0.1c-2.1,0.1-4.2,0.4-5.8,0.9
				C5.3,10.4,5.7,8.1,6,7z M16.4,11.3c-0.1,0-0.2,0-0.3,0c0.1-0.1,0.2-0.3,0.3-0.3C16.3,11,16.4,11.1,16.4,11.3z M15.8,11.3
				C14.6,11.1,13.3,11,12,11c0,0-0.1,0-0.1,0c0.2-0.7,0.7-2,2-2C15.4,9,15.8,10.4,15.8,11.3z M1,12v-1l1.3,0c0.2,0,0.4,0.3,0.4,0.5
				V12H1z M2.4,15c0-0.9,0.7-1.6,1.6-1.6c0.9,0,1.6,0.7,1.6,1.6c0,0.9-0.7,1.6-1.6,1.6c-0.4,0-0.7-0.1-1-0.4V16H2.8
				C2.5,15.7,2.4,15.4,2.4,15z M17.1,18.9L17.1,18.9c-2,0.1-4,0.1-5.1,0.1c-0.6,0-2.8,0-5,0l0,0H5l0,0c-0.8,0-1.5,0-2,0
				c0,0,0.6,0.4,2,0.9L5,20l-2,0v-1v-1.2C3.3,17.9,3.6,18,4,18c1.7,0,3-1.3,3-3c0-0.5-0.1-1-0.4-1.4C8.2,13.2,10.1,13,12,13
				c1.9,0,3.8,0.2,5.4,0.6C17.1,14,17,14.5,17,15c0,1.7,1.3,3,3,3c0.3,0,0.6-0.1,0.9-0.2l0,1.2c-0.5,0-1.1,0-1.9,0v-0.1H17.1z
				 M19.1,20v-0.2c1.1-0.4,1.7-0.7,1.9-0.8l0,1L19.1,20z M21.5,15.6h-0.6l0,0.7c-0.3,0.2-0.6,0.3-0.9,0.3c-0.9,0-1.6-0.7-1.6-1.6
				c0-0.9,0.7-1.6,1.6-1.6c0.9,0,1.6,0.7,1.6,1.6C21.6,15.2,21.6,15.4,21.5,15.6z M23,12h-1.7v-0.5c0-0.2,0.2-0.5,0.3-0.5H23V12z
				 M14.7,15.2c-0.2-0.1-0.4-0.1-0.5,0.1c-0.2,0.2-0.2,0.4-0.1,0.7c-0.6,0.4-1.1,0.7-2,0.8c-1.4,0.3-2.2-0.3-2.8-0.6
				c-0.1-0.1-0.2,0.1-0.3,0.2C9,16.4,8.9,16.5,9,16.6l0.1,0.3c0.6,0.7,1.7,1.1,2.9,1.1c1.2-0.1,2.1-0.3,2.9-0.8c0,0.1,0,0.2,0,0.3
				l0,0c0,0.3,0.1,0.5,0.4,0.6c0.3,0,0.5-0.1,0.6-0.4C16.1,16.6,15.8,15.7,14.7,15.2z"/></svg>