<svg width="24" height="24" viewBox="0 0 24 24" fill="none" xmlns="http://www.w3.org/2000/svg">
<path fill-rule="evenodd" clip-rule="evenodd" d="M18 9V6C12.4 6 12.9 6 8 6V9H18ZM9 7H17V8H9V7ZM2.5 21C2.3 21 2 20.8 2 20.5V4H20V7.8C20.6 7.4 21.3 7.2 22 7.3V2C22 0.9 21.1 0 20 0H2C0.9 0 0 0.9 0 2V23H7.8C7.6 22.4 7.6 21.6 7.8 21H2.5ZM14.5 13H9V12H16.1L16.8 11H8V14H14.1L14.5 13ZM20 20.5C20 20.8 19.8 21 19.5 21H17.2L15.2 23H22V16L20 18V20.5ZM6.7 17H4.5C4.2 17 4 17.2 4 17.5C4 17.8 4.2 18 4.5 18H6.7C6.9 18 7 17.8 7 17.5C7 17.2 6.9 17 6.7 17ZM6.7 12H4.5C4.2 12 4 12.2 4 12.5C4 12.8 4.2 13 4.5 13H6.7C6.9 13 7 12.8 7 12.5C7 12.2 6.9 12 6.7 12ZM6.7 7H4.5C4.2 7 4 7.2 4 7.5C4 7.8 4.2 8 4.5 8H6.7C6.9 8 7 7.8 7 7.5C7 7.2 6.9 7 6.7 7ZM23.6 10.1L22.9 9.4C22.3 8.8 21.5 9 21 9.6L20 10.6L22.5 13.1L23.4 12.2C24 11.5 24.2 10.7 23.6 10.1ZM21.9 13.6L19.4 11.1L11.3 19.2C11.3 19.2 11.5 19.4 11.7 19.6C11.7 19.6 11.7 19.6 11.7 19.7L11.2 19.2C11.2 19.2 8.3 23.9 8.8 23.9C9.6 23.9 13.6 21.6 13.6 21.6L21.9 13.6ZM10.7 22.3L11.9 20C12 20.4 12.1 21 12.1 21C12.1 21 12.9 21 13.2 21.2V21.3L10.7 22.3ZM10 18H8.5L9 17H11L11.7 16H8V19H9L10 18Z" fill="#0089D9"/>
</svg>
