<svg width="24" height="24" viewBox="0 0 24 24" fill="none" xmlns="http://www.w3.org/2000/svg">
<path fill-rule="evenodd" clip-rule="evenodd" d="M24 9L18 15C18 15 18 12 18 11C16.1 11 14.5 10.9 13 11V12H15V22C15 23 14 24 13 24H3C2 24 1 23 1 22V2C1 1 2 0 3 0H13C14 0 15 1 15 2V6H13V7.4C14.6 7.1 16.2 7 18 7C18 6.5 18 3 18 3L24 9ZM3 21C3 22 3.7 22 4 22H12C12.3 22 13 22 13 21V20V18H3V21ZM13 3C13 2 12.3 2 12 2H4C3.7 2 3 2 3 3V5H13V3ZM13 6H3V17H13V11.1C9 11.4 6.5 12.3 5 16C5 10.8 8.4 8.3 13 7.4V6ZM7 3H9C10 3 10 3.2 10 3.5C10 3.8 10 4 9 4H7C6 4 6 3.8 6 3.5C6 3.2 6 3 7 3ZM8 22C6.9 22 6 21.1 6 20C6 18.9 6.9 18 8 18C9.1 18 10 18.9 10 20C10 21.1 9.1 22 8 22ZM8 18.5C7.2 18.5 6.5 19.2 6.5 20C6.5 20.8 7.2 21.5 8 21.5C8.8 21.5 9.5 20.8 9.5 20C9.5 19.2 8.8 18.5 8 18.5Z" fill="#0089D9"/>
</svg>
