<?xml version="1.0" encoding="UTF-8"?><svg id="lb" xmlns="http://www.w3.org/2000/svg" width="24" height="24" viewBox="0 0 24 24"><path d="M12.06,9h7.77c-.69-3.42-3.71-6-7.34-6-3.98,0-7.23,3.1-7.47,7.02C2.21,10.26,0,12.62,0,15.5,0,18.54,2.46,21,5.5,21c.04,0,.08,0,.12,0h.38v-2.99c6.35,0,8.33-3,6.06-9Zm10.93,1H13.99c1.76,5.83-.2,9-6.99,9v2c.56,0,1.06,0,1.53,0h8.11c-1.22,0-3.06,0-4.86,0,3.8,0,1.76-.02,5.52-.02,4.06,0,7.75-3.28,5.69-10.97Zm-6.99,10c-.88,0-6.25,0-7.01,0h-1c6.04,0,9.01-4,7.01-9h6.99c1.51,7.5-1.65,9-5.99,9Z" style="fill:#0089d9; fill-rule:evenodd;"/><path id="lc" d="M0,0H24V24H0V0Z" style="fill:none; fill-rule:evenodd; opacity:0;"/></svg>