<?xml version="1.0" encoding="UTF-8"?><svg id="cw" xmlns="http://www.w3.org/2000/svg" width="24" height="24" viewBox="0 0 24 24"><path d="M9.14,3.86c-.1-.1-.26-.1-.35,0l-2.21,2.21c-.1,.1-.1,.26,0,.35,.05,.05,.11,.07,.18,.07s.13-.02,.18-.07l2.21-2.21c.1-.1,.1-.26,0-.35Zm2.06-.49l-2.37,2.37c-.1,.1-.1,.26,0,.35,.05,.05,.11,.07,.18,.07s.13-.02,.18-.07l2.37-2.37c.1-.1,.1-.26,0-.35-.1-.1-.26-.1-.35,0Zm12.8,4.16v-1c0-.28-.22-.5-.5-.5h-1.37l-1.69-3.23c-.48-1.09-1.56-1.8-2.75-1.8H6.31c-1.19,0-2.27,.71-2.72,1.74l-1.72,3.29H.5c-.28,0-.5,.22-.5,.5v1c0,.28,.22,.5,.5,.5h.33l-.39,.75c-.33,.76-.44,3.16-.44,3.72,0,.09,.03,.17,.05,.25-.02,.08-.05,.16-.05,.25v7c0,1.1,.9,2,2,2H4c1.1,0,2-.9,2-2h12c0,1.1,.9,2,2,2h2c1,0,2-1,2-2v-7c0-.09-.03-.17-.05-.25,.02-.08,.05-.16,.05-.25,0-.56-.11-2.96-.47-3.78l-.36-.69h.33c.28,0,.5-.22,.5-.5ZM5.39,3.6c.16-.36,.52-.6,.92-.6h11.69c.4,0,.45,.24,.64,.66l1.74,3.34H3.62l1.77-3.4Zm-3.15,6.04l.34-.65h2.42v1h1v-1h12v1h1v-1h2.42l.3,.58c.12,.27,.22,1.6,.26,2.42h-3.98v-2h-1v1H7v-1h-1v2H2.02c.04-.82,.14-2.14,.23-2.36Zm13.78,5.36H7.98s.02-.06,.02-.1v-2.9h8v2.9s.02,.07,.02,.1ZM2,13H6v1.9s.02,.07,.02,.1H2v-2h0Zm20,7h-2v-1c.34,0,.67-.02,1-.07v-1.26c-.31,.2-.65,.33-1,.33H4c-.35,0-.69-.13-1-.33v1.24c.33,.06,.66,.09,1,.09h0v1H2v-4H22v4Zm0-7v2h-4.02s.02-.06,.02-.1v-1.9h4Z" style="fill:#0089d9; fill-rule:evenodd;"/></svg>