<svg width="24" height="24" viewBox="0 0 24 24" fill="none" xmlns="http://www.w3.org/2000/svg">
<g clip-path="url(#clip0_2_6370)">
<path fill-rule="evenodd" clip-rule="evenodd" d="M5 20V2H14V7H19V14L21 16V5L16 0H3V22H17L15 20H5ZM16 2H17L19 4V5H16V2ZM23.4 20.7L14 11.2C14 11.2 13.9 11.2 13.9 11.1C14.3 9.7 13.9 8.2 12.8 7.1C12.1 6.4 11 6 10 6C9.6 6 9.3 6 8.9 6.1L11.2 8.4L10.6 10.6L8.4 11.2L6.1 9C6 9.3 6 9.7 6 10C6 10.9 6.4 12.1 7.2 12.9C8.3 14 9.9 14.4 11.3 13.9L20.8 23.4C21.2 23.8 21.7 24 22.2 24C22.7 24 23.2 23.8 23.5 23.4C23.8 23 24 22.5 24 22C24 21.5 23.8 21.1 23.4 20.7ZM22.3 23.3C21.7 23.3 21.3 22.9 21.3 22.3C21.3 21.7 21.7 21.3 22.3 21.3C22.9 21.3 23.3 21.7 23.3 22.3C23.3 22.8 22.8 23.3 22.3 23.3Z" fill="#0089D9"/>
</g>
<defs>
<clipPath id="clip0_2_6370">
<rect width="140" height="24" fill="white"/>
</clipPath>
</defs>
</svg>
