<?xml version="1.0" encoding="UTF-8"?><svg id="ak" xmlns="http://www.w3.org/2000/svg" width="24" height="24" viewBox="0 0 24 24"><path d="M20,4c-.55,0-1,.45-1,1,0,.17,.06,.33,.13,.47l-4.09,6.54s-.03,0-.04,0c-.18,0-.33,.06-.48,.14l-3.53-2.12s0-.01,0-.02c0-.55-.45-1-1-1s-1,.45-1,1c0,.18,.06,.34,.15,.49l-4.08,6.53s-.04-.01-.07-.01c-.55,0-1,.45-1,1s.45,1,1,1,1-.45,1-1c0-.18-.06-.34-.15-.49l4.08-6.53s.04,.01,.07,.01c.18,0,.33-.06,.48-.14l3.53,2.12s0,.01,0,.02c0,.55,.45,1,1,1s1-.45,1-1c0-.17-.06-.33-.13-.47l4.09-6.54s.03,0,.04,0c.55,0,1-.45,1-1s-.45-1-1-1Z" style="fill:#0089d9; fill-rule:evenodd;"/><line x1="1" y1="23" x2="23" y2="23" style="fill:none; stroke:#0089d9; stroke-linecap:round; stroke-linejoin:round; stroke-width:2px;"/><line x1="1" y1="1" x2="1" y2="23" style="fill:none; stroke:#0089d9; stroke-linecap:round; stroke-linejoin:round; stroke-width:2px;"/></svg>