<?xml version="1.0" encoding="UTF-8"?><svg id="pp" xmlns="http://www.w3.org/2000/svg" width="24" height="24" viewBox="0 0 24 24"><g id="pq"><path d="M22,3H2C.9,3,0,3.9,0,5v14C0,20.1,.9,21,2,21H22c1.1,0,2-.9,2-2V5c0-1.1-.9-2-2-2Zm0,16H2V5H22v14Zm-7.5-10h5c.28,0,.5-.22,.5-.5s-.22-.5-.5-.5h-5c-.28,0-.5,.22-.5,.5s.22,.5,.5,.5Zm0,4h3c.28,0,.5-.22,.5-.5s-.22-.5-.5-.5h-3c-.28,0-.5,.22-.5,.5s.22,.5,.5,.5Zm0-2h5c.28,0,.5-.22,.5-.5s-.22-.5-.5-.5h-5c-.28,0-.5,.22-.5,.5s.22,.5,.5,.5Z" style="fill:#0089d9; fill-rule:evenodd;"/><path d="M8.95,12.48c.11,0,.19,.1,.2,.2,.03,.41,.14,.79,.4,1.02,.24,.23,.61,.34,1.01,.41,.4,.07,.83,.11,1.29,.26,.23,.08,.48,.19,.7,.41,.22,.21,.36,.51,.41,.78,.03,.14,.04,.27,.05,.41,0,.18-.09,.35-.17,.43-.08,.08-.16,.12-.23,.15-.29,.09-.49,.15-.72,.2-.44,.09-.87,.13-1.3,.16-.86,.05-1.72,.09-2.57,.08-.86,.02-1.71-.02-2.57-.07-.43-.03-.86-.07-1.3-.16-.22-.06-.45-.06-.73-.19-.07-.03-.15-.08-.23-.17-.08-.08-.17-.26-.17-.43,0-.13,.01-.27,.05-.41,.05-.28,.19-.57,.41-.78,.21-.21,.47-.33,.7-.41,.47-.15,.9-.19,1.29-.26,.4-.07,.77-.18,1.01-.41,.25-.22,.37-.61,.4-1.02,0-.12,.1-.21,.22-.2,.11,0,1.76,0,1.88,0Z" style="fill:#0087e0;"/><path d="M8,13.31c-.88-.01-1.53-.63-1.95-1.26-.43-.65-.67-1.4-.76-2.16-.08-.74-.07-1.61,.45-2.35,.54-.74,1.48-1,2.26-1,.78-.01,1.72,.25,2.24,1.01,.51,.74,.51,1.6,.41,2.33-.1,.75-.32,1.5-.75,2.14-.41,.62-1.03,1.25-1.91,1.28Z" style="fill:#0087e0;"/></g></svg>