<?xml version="1.0" encoding="UTF-8"?><svg id="cm" xmlns="http://www.w3.org/2000/svg" width="24" height="24" viewBox="0 0 24 24"><path fill-rule="evenodd" clip-rule="evenodd" fill="#0089D9" class="st5" d="M4.5,16.4L4.5,16.4C4.5,16.4,4.5,16.4,4.5,16.4C4.5,16.4,4.5,16.4,4.5,16.4z M23,12.4
				c-1.1-0.8-1-0.5-1.2-1.5c-0.4-2-0.9-4.4-2.8-5.8C17.2,3.7,14.6,3,12.5,3c-0.4,0-0.8,0-1.1,0.1C8.3,3.6,6.7,8.2,6.4,9.9
				c-1,0.1-2.1,0.2-3.3,0.5c-1.4,0.4-2.3,0.6-3,2C0.1,12.6,0,13,0,13.4c0,0.3,0,0.7,0.2,1.2c0.3,1,1.3,1.6,2.4,1.6
				c0.1,0.8,0.3,1.6,1,2l1-1.7C3.8,15.9,3.2,13.9,3,13h0c-0.1,0.4-0.2,0.7-0.2,1.1c-0.3,0-0.6,0-0.7-0.3c-0.1-0.1-0.1-0.8,0-0.7
				c0.2-0.5,1.8-0.9,2.3-1c1.5-0.3,3.5-0.2,5.6-0.2c2.2,0,3.8,0,5,0.1c-0.3,2.1-0.7,4.2-1.3,6c-0.8,0.1-1.6,0.1-2.5,0l-0.2,2
				c1.7,0.2,2.9,0.1,4.4-0.1l-0.3-2c-0.1,0-0.2,0-0.3,0c0.6-1.8,1-3.9,1.2-5.9c1,0,1.9,0,3,0.1c-0.6-0.2-1.7-0.5-2.9-0.8
				c0.2-1.9,0.3-3.8,0.3-5.4c0.5,0.2,1.1,0.5,1.5,0.8c1.3,1,1.7,3,2,4.6c0.4,1.7,0.4,1.7,1.6,2.5c1.1,0.7,0.5,2.1,0,2.4l0.8,1.8
				c0.8-0.2,1.8-1.8,1.8-3.3C24,13.8,23.7,13,23,12.4z M15,11c-1.5-0.3-3.1-0.7-4.7-0.9C9.8,10,9.1,9.9,8.5,9.9
				c0.3-1.6,1.6-4.6,3.2-4.8c0.6-0.2,2.1-0.1,3.6,0.4C15.3,6.9,15.2,8.9,15,11z M7.5,16C6.1,16,5,17.1,5,18.5S6.1,21,7.5,21
				c1.4,0,2.5-1.1,2.5-2.5S8.9,16,7.5,16z M7.5,19.6c-0.6,0-1.1-0.5-1.1-1.1s0.5-1.1,1.1-1.1s1.1,0.5,1.1,1.1S8.1,19.6,7.5,19.6z
				 M18.5,16c-1.4,0-2.5,1.1-2.5,2.5s1.1,2.5,2.5,2.5c1.4,0,2.5-1.1,2.5-2.5S19.9,16,18.5,16z M18.5,19.5c-0.5,0-1-0.4-1-1
				c0-0.5,0.4-1,1-1c0.5,0,1,0.4,1,1C19.5,19,19,19.5,18.5,19.5z M13.4,14c0.3,0,0.5-0.2,0.5-0.5c0-0.3-0.2-0.5-0.5-0.5l-1.1-0.1
				c-0.3,0-0.5,0.2-0.5,0.5c0,0.3,0.2,0.5,0.5,0.5L13.4,14z"/></svg>