<?xml version="1.0" encoding="UTF-8"?><svg id="ah" xmlns="http://www.w3.org/2000/svg" width="24" height="24" viewBox="0 0 24 24"><path d="M12,0C5.37,0,0,5.37,0,12s5.37,12,12,12,12-5.37,12-12S18.63,0,12,0Zm0,21.99c-5.52,0-9.99-4.47-9.99-9.99S6.48,2.01,12,2.01s9.99,4.47,9.99,9.99-4.47,9.99-9.99,9.99ZM3.01,10.32h3.1l-2.36,5.59h1.39l2.38-5.89v-.9H3.01v1.21Zm17.61,1.95c-.26-.37-.63-.55-1.12-.55-.99,0-1.48,.71-1.48,2.13,0,.69,.13,1.22,.39,1.59,.26,.37,.62,.55,1.1,.55s.87-.18,1.12-.54c.26-.36,.38-.89,.38-1.6s-.13-1.21-.39-1.58Zm-1.11,2.76c-.14,0-.25-.1-.31-.29-.06-.19-.1-.49-.1-.88s.03-.69,.1-.88c.06-.19,.17-.29,.31-.29,.28,0,.41,.39,.41,1.16s-.14,1.17-.41,1.17Zm-.98-5.93l-3.49,6.8h1.03l3.49-6.8h-1.03Zm-2.31,3.64c.26-.36,.38-.89,.38-1.61s-.13-1.21-.39-1.58c-.26-.37-.63-.55-1.12-.55-.99,0-1.48,.71-1.48,2.13,0,.7,.13,1.23,.39,1.59,.26,.37,.62,.55,1.1,.55s.87-.18,1.12-.54Zm-1.43-.72c-.06-.19-.1-.49-.1-.88s.03-.69,.1-.88c.06-.19,.17-.29,.31-.29,.28,0,.41,.39,.41,1.16s-.14,1.17-.41,1.17c-.14,0-.25-.1-.31-.29Zm-4.1-.46c-.26,0-.47,.02-.65,.07l-.15,.03,.12-1.34h2.24v-1.22h-3.41l-.24,3.47,.53,.31c.11-.04,.26-.07,.45-.1,.18-.03,.35-.05,.5-.05,.84,0,1.26,.34,1.26,1.03,0,.72-.41,1.08-1.22,1.08-.27,0-.55-.04-.86-.12-.3-.08-.56-.19-.79-.32v1.24c.43,.25,.99,.37,1.69,.37,.81,0,1.42-.2,1.86-.61,.43-.41,.65-.99,.65-1.75,0-.64-.18-1.15-.54-1.52-.36-.37-.84-.55-1.45-.55Z" style="fill:#0089d9; fill-rule:evenodd;"/></svg>