<svg width="24" height="24" viewBox="0 0 24 24" fill="none" xmlns="http://www.w3.org/2000/svg">
<path fill-rule="evenodd" clip-rule="evenodd" d="M19.4 18.4C18.4 16.7 16.6 15.8 15.2 16.1L13 14C13.4 14 13.7 14 14 14C19 10 19 0 19 0H18C18 0 16.3 8.3 11.5 12.8C6.7 8.3 5 0 5 0H4C4 0 4 10 9 14C9.4 14 9.7 14 10 14L7.9 16.1C6.4 15.7 4.7 16.6 3.7 18.4C3.2 19.2 3 20.2 3 21C3 22.2 3.5 23.1 4.4 23.6C6 24.5 8.2 23.6 9.3 21.6C10.1 20.2 10.2 18.5 9.6 17.4L10.9 16.1L11.5 15.8L12.1 16.1L13.4 17.4C12.8 18.5 12.8 20.2 13.7 21.6C14.9 23.6 17.1 24.5 18.6 23.6C19.5 23.1 20 22.1 20 21C20 20.2 19.9 19.2 19.4 18.4ZM7.6 20.9C7.1 21.9 6.2 22.3 5.6 21.9C5 21.5 4.8 20.4 5.3 19.4C5.8 18.4 6.8 17.7 7.5 18.1C8.1 18.6 8.1 20 7.6 20.9ZM12 15H11V14H12V15ZM17.4 21.9C16.8 22.3 15.8 21.9 15.4 20.9C14.9 19.9 14.9 18.5 15.6 18.1C16.2 17.7 17.3 18.4 17.8 19.4C18.2 20.3 18.1 21.4 17.4 21.9Z" fill="#0089D9"/>
</svg>
