<?xml version="1.0" encoding="UTF-8"?><svg id="ap" xmlns="http://www.w3.org/2000/svg" width="24" height="24" viewBox="0 0 24 24"><path d="M2.03,11.81l8.38,.64-.25-.3L4.04,6.98c-1.13,1.32-1.86,2.99-2.01,4.83Zm8.38,.74l-8.38,.64c.15,1.83,.88,3.5,2,4.82l6.37-5.46Zm-.82,10.41l.86-10.32-6.74,7.86c1.61,1.37,3.64,2.26,5.88,2.46Zm0-21.92c-2.49,.2-4.75,1.19-6.54,2.71l7.11,8.4-.06-4.99-.51-6.12Zm5.69,11.05l6.68-.51c-.2-2.48-1.18-4.73-2.7-6.52l-8.27,7.09,4.29-.05Zm-4.38-4.07l-.04,4.02,2.55-2.98c-.69-.58-1.55-.96-2.51-1.05Zm.35,12.94c1.79-.16,3.41-.86,4.71-1.95l-5.4-6.39,.7,8.34Zm3.73-8.08l-4.13-.14,3.11,2.63c.57-.69,.94-1.55,1.02-2.49Z" style="fill:#0089d9; fill-rule:evenodd;"/></svg>