<?xml version="1.0" encoding="UTF-8"?><svg id="al" xmlns="http://www.w3.org/2000/svg" width="24" height="24" viewBox="0 0 24 24"><path d="M21,5c-.55,0-1,.45-1,1,0,.22,.08,.41,.2,.57-.73,2.3-2.25,6.58-3.62,7.64-.17-.12-.36-.21-.58-.21-.3,0-.57,.14-.75,.35-2.84-.86-2.62-6.61-5.32-7.69-.14-.38-.5-.66-.93-.66s-.79,.28-.93,.67C3.75,8.44,.54,21.81,.54,21.81l.92,.38s3.21-12.88,6.79-14.54c.18,.21,.45,.35,.75,.35s.56-.14,.74-.35c2.18,1.07,1.78,6.85,5.33,7.7,.14,.37,.5,.64,.93,.64,.51,0,.91-.39,.98-.88,1.91-1.29,3.43-5.93,4.06-8.13,.53-.02,.96-.45,.96-.99s-.45-1-1-1Z" style="fill:#0089d9; fill-rule:evenodd;"/><line x1="1" y1="23" x2="23" y2="23" style="fill:none; stroke:#0089d9; stroke-linecap:round; stroke-linejoin:round; stroke-width:2px;"/><line x1="1" y1="1" x2="1" y2="23" style="fill:none; stroke:#0089d9; stroke-linecap:round; stroke-linejoin:round; stroke-width:2px;"/></svg>