<?xml version="1.0" encoding="UTF-8"?><svg id="mj" xmlns="http://www.w3.org/2000/svg" width="24" height="24" viewBox="0 0 24 24"><g id="mk"><path id="ml" d="M12,22.99c-2.84,.1-5.62-.88-7.77-2.75-2.2-2.16-3.23-5.16-3.23-8.24S2.03,5.92,4.23,3.76C6.38,1.89,9.16,.9,12,1.01c2.84-.1,5.62,.88,7.77,2.75,2.2,2.16,3.37,5.16,3.22,8.24,0,4.58-4.59,4.58-7.32,4.58-1.79,0-1.8,1.62-1.81,3.19,0,1.59-.02,3.23-1.85,3.23Z" style="fill:none; stroke:#0089d9; stroke-miterlimit:10; stroke-width:2px;"/><circle id="mm" cx="5" cy="10" r="2" style="fill:#0089d9;"/><circle id="mn" cx="9" cy="5" r="2" style="fill:#0089d9;"/><circle id="mo" cx="15" cy="5" r="2" style="fill:#0089d9;"/><circle id="mp" cx="19" cy="10" r="2" style="fill:#0089d9;"/></g></svg>