<?xml version="1.0" encoding="UTF-8"?><svg id="cm" xmlns="http://www.w3.org/2000/svg" width="24" height="24" viewBox="0 0 24 24"><path fill-rule="evenodd" clip-rule="evenodd" fill="#0089D9" d="M19,14c0-2.2-1.8-4-4-4c-2.2,0-4,1.8-4,4c0,2.2,1.8,4,4,4
				c0.8,0,1.6-0.3,2.3-0.7L19,19h1v-1l-1.7-1.7C18.7,15.6,19,14.9,19,14z M15,16c-1.1,0-2-0.9-2-2c0-1.1,0.9-2,2-2s2,0.9,2,2
				C17,15.1,16.1,16,15,16z M18,4H6C4.9,4,4,4.7,4,6c0,1.1,0,11,0,11c0,1.1,0.9,2,2,2h6.3c-0.7-0.5-1.3-1.2-1.7-2H7
				c-0.6,0-1-0.4-1-1v-1h4c0-0.2,0-0.3,0-0.5c0-0.2,0-0.3,0-0.5H6v-2h4.6c0.2-0.4,0.4-0.7,0.7-1H6V9h12v0.6c0.8,0.4,1.5,1,2,1.7V6
				C20,4.9,19.1,4,18,4z M18,8H6V7c0-0.6,0.4-1,1-1h10c0.6,0,1,0.4,1,1V8z"/></svg>