<?xml version="1.0" encoding="UTF-8"?><svg id="ae" xmlns="http://www.w3.org/2000/svg" width="24" height="24" viewBox="0 0 24 24"><path d="M20.55,7.45l-7.93,2.95c-.31-.24-.69-.4-1.12-.4-1,0-1.81,.81-1.81,1.82s.81,1.82,1.81,1.82c.85,0,1.55-.58,1.75-1.37l7.66-4.46-.36-.36ZM12,24h0ZM4.79,5.26l1.28,1.29,.26-.26-1.28-1.29-.26,.26Zm3.11-2.12l.42,1.01,.33-.14-.42-1.01-.33,.14Zm-3.11,15.6l.26,.26,1.28-1.29-.26-.26-1.28,1.29ZM15.12,3l-.42,1.01,.33,.14,.42-1.01-.33-.14ZM12,0C5.37,0,0,5.37,0,12c0,3.57,1.57,6.76,4.04,8.96l.96-.96h1.04c-2.44-1.82-4.03-4.72-4.03-8,0-.12,.01-.23,.02-.35h2.51v-.36H2.05C2.4,6.26,6.47,2.27,11.53,2.03v2.14h.46V2.01h.01c5.28,0,9.59,4.09,9.95,9.27h-2.49v.36h2.51c0,.12,.02,.23,.02,.35,0,3.28-1.59,6.18-4.03,8h1.04l.96,.96c2.47-2.2,4.04-5.39,4.04-8.96C24,5.37,18.63,0,12,0Zm5.99,5l-1.28,1.29,.26,.26,1.28-1.29-.26-.26ZM2.96,16.19l1-.44-.14-.33-1,.44,.14,.33Zm.85-7.62l.14-.33-1-.44-.14,.33,1,.44Zm14.43,10.17l-1.28-1.29-.26,.26,1.28,1.29,.26-.26Zm1.94-2.88l-1-.44-.14,.33,1,.44,.14-.33Z" style="fill:#0089d9; fill-rule:evenodd;"/></svg>