<?xml version="1.0" encoding="UTF-8"?><svg id="ac" xmlns="http://www.w3.org/2000/svg" width="24" height="24" viewBox="0 0 24 24"><path d="M0,0H24V24H0V0Z" style="fill:none; fill-rule:evenodd;"/><polyline points="2 22 7 17 11 13 16 16 20 12" style="fill:none; fill-rule:evenodd; stroke:#0087e0; stroke-miterlimit:10;"/><polyline points="2 22 6.5 10.5 11.5 6.5 15.5 8.5 20.5 4.5" style="fill:none; fill-rule:evenodd; stroke:#0087e0; stroke-miterlimit:10;"/><path d="M7,16c.55,0,1,.45,1,1s-.45,1-1,1-1-.45-1-1,.45-1,1-1Z" style="fill:#0089d9; fill-rule:evenodd;"/><path d="M11,12c.55,0,1,.45,1,1s-.45,1-1,1-1-.45-1-1,.45-1,1-1Z" style="fill:#0089d9; fill-rule:evenodd;"/><path d="M16,15c.55,0,1,.45,1,1s-.45,1-1,1-1-.45-1-1,.45-1,1-1Z" style="fill:#0089d9; fill-rule:evenodd;"/><path d="M20,11c.55,0,1,.45,1,1s-.45,1-1,1-1-.45-1-1,.45-1,1-1Z" style="fill:#0089d9; fill-rule:evenodd;"/><path d="M11,6c.55,0,1,.45,1,1s-.45,1-1,1-1-.45-1-1,.45-1,1-1Z" style="fill:#0089d9; fill-rule:evenodd;"/><path d="M20,4c.55,0,1,.45,1,1s-.45,1-1,1-1-.45-1-1,.45-1,1-1Z" style="fill:#0089d9; fill-rule:evenodd;"/><path d="M7,9c.55,0,1,.45,1,1s-.45,1-1,1-1-.45-1-1,.45-1,1-1Z" style="fill:#0089d9; fill-rule:evenodd;"/><path d="M16,8c.55,0,1,.45,1,1s-.45,1-1,1-1-.45-1-1,.45-1,1-1Z" style="fill:#0089d9; fill-rule:evenodd;"/><line x1="1" y1="23" x2="23" y2="23" style="fill:none; stroke:#0089d9; stroke-linecap:round; stroke-linejoin:round; stroke-width:2px;"/><line x1="1" y1="1" x2="1" y2="23" style="fill:none; stroke:#0089d9; stroke-linecap:round; stroke-linejoin:round; stroke-width:2px;"/></svg>