<svg width="24" height="24" viewBox="0 0 24 24" fill="none" xmlns="http://www.w3.org/2000/svg">
<path fill-rule="evenodd" clip-rule="evenodd" d="M4 6.6L2.3 7.6L2 5.6L0 4.9L1.5 3.4L0.9 1.5L2.9 1.7L4 0L5.1 1.7L7.1 1.5L6.5 3.4L8 4.9L6 5.6L5.7 7.6L4 6.6ZM7 15H16V16H7V15ZM7 12H16V13H7V12ZM7 9H16V10H7V9ZM11 6H16V7H11V6ZM21 2V0C22.5 0 24 1.9 24 3V5H20V3H22C22 2.5 21.5 2 21 2ZM14 22V21H3V8.5L4 7.9L5 8.5C5 12.3 5 19 5 19H16C16 19 16 20.5 16 21C16 21.5 16.5 22 17 22C17.5 22 18 21.5 18 21C18 20.5 18 2 18 2H8.2L8.8 0H21V2C20.5 2 20 2.5 20 3V21C20 22.5 18.5 24 17 24H3C1.5 24 0 22.5 0 21C0 19.5 0 19 0 19H3V21H2C2 21.5 2.5 22 3 22H14Z" fill="#0089D9"/>
</svg>
