<?xml version="1.0" encoding="UTF-8"?><svg id="af" xmlns="http://www.w3.org/2000/svg" width="24" height="24" viewBox="0 0 24 24"><path d="M9,5c0,1.66,1.34,3,3,3s3-1.34,3-3-1.34-3-3-3-3,1.34-3,3Zm3-1.99c1.1,0,1.99,.89,1.99,1.99s-.89,1.99-1.99,1.99-1.99-.89-1.99-1.99,.89-1.99,1.99-1.99ZM17,0H7c-1,0-2,1-2,2V22c0,1,1,2,2,2h10c1,0,2-1,2-2V2c0-1-1-2-2-2Zm0,21c0,.5-.54,1-1,1H8c-.46,0-1-.5-1-1V3c0-.5,.54-1,1-1h8c.46,0,1,.5,1,1V21Zm-5-5c-1.66,0-3,1.34-3,3s1.34,3,3,3,3-1.34,3-3-1.34-3-3-3Zm0-7c-1.66,0-3,1.34-3,3s1.34,3,3,3,3-1.34,3-3-1.34-3-3-3Zm0,5c-1.1,0-2-.9-2-2s.9-2,2-2,1.99,.9,1.99,2-.89,2-1.99,2Z" style="fill:#0089d9; fill-rule:evenodd;"/></svg>