<svg width="24" height="24" viewBox="0 0 24 24" fill="none" xmlns="http://www.w3.org/2000/svg">
<path fill-rule="evenodd" clip-rule="evenodd" d="M16 0.3V0H2V24H22V6.3L16 0.3ZM19.6 6H16V2.5L19.6 6ZM4 22V2H14V8H20V22H4Z" fill="#0089D9"/>
<path d="M7.7 13.2C7.2 13.2 6.9 13.4 6.6 13.7C6.3 14 6.2 14.5 6.2 15.1C6.2 16.4 6.7 17 7.6 17C8 17 8.5 16.9 9.1 16.7V17.7C8.6 17.9 8.1 18 7.5 18C6.7 18 6 17.7 5.6 17.2C5.2 16.7 5 16.1 5 15.2C5 14.6 5.1 14.1 5.3 13.6C5.5 13.2 5.8 12.8 6.2 12.6C6.6 12.4 7.1 12.2 7.6 12.2C8.2 12.2 8.7 12.3 9.3 12.6L8.9 13.6C8.7 13.5 8.5 13.4 8.3 13.3C8.1 13.3 7.9 13.2 7.7 13.2Z" fill="#0089D9"/>
<path d="M13.7 16.4C13.7 16.9 13.5 17.3 13.1 17.6C12.7 17.9 12.2 18 11.6 18C11 18 10.5 17.9 10 17.7V16.6C10.4 16.8 10.7 16.9 11 17C11.3 17.1 11.5 17.1 11.7 17.1C12 17.1 12.2 17 12.3 16.9C12.4 16.8 12.5 16.6 12.5 16.4C12.5 16.3 12.5 16.2 12.4 16.1C12.3 16 12.2 15.9 12.1 15.8C12 15.7 11.7 15.6 11.4 15.4C11.1 15.2 10.8 15.1 10.6 14.9C10.4 14.7 10.3 14.6 10.2 14.4C10.1 14.2 10 14 10 13.7C10 13.2 10.2 12.8 10.5 12.5C10.8 12.2 11.3 12.1 11.9 12.1C12.2 12.1 12.5 12.1 12.7 12.2C12.9 12.3 13.3 12.4 13.5 12.5L13.1 13.4C12.8 13.3 12.5 13.2 12.3 13.1C12.1 13.1 11.9 13 11.7 13C11.5 13 11.3 13.1 11.2 13.2C11.1 13.3 11 13.4 11 13.6C11 13.7 11 13.8 11.1 13.9C11.1 14 11.2 14.1 11.3 14.1C11.4 14.1 11.7 14.3 12.1 14.5C12.6 14.8 13 15 13.2 15.3C13.6 15.7 13.7 16 13.7 16.4Z" fill="#0089D9"/>
<path d="M18 12.3H19.2L17.3 18H16L14 12.3H15.2L16.3 15.7C16.4 15.9 16.4 16.1 16.5 16.4C16.6 16.7 16.6 16.9 16.6 17C16.6 16.8 16.7 16.3 16.9 15.7L18 12.3Z" fill="#0089D9"/>
</svg>
