<svg width="24" height="24" viewBox="0 0 24 24" fill="none" xmlns="http://www.w3.org/2000/svg">
<g clip-path="url(#clip0_2_5756)">
<path d="M5.1 19C5.1 19 6.7 17.9 8.1 17.6L10.7 14.7C13.9 15.2 16.3 14.5 17.9 12.8L13 13L19.1 11.1C21.4 8 22.5 2.9 24 1.55345e-06C24 -0.399998 20.6 2 18.2 4.3L6.6 16.9C6.3 17.2 4.8 18.7 5.1 19ZM19.1 15.1C18.5 15.1 18 15.5 18 16.1V22H2V8H8V2H16.1C16.7 2 17.1 1.6 17.1 1C17.1 0.400002 16.7 1.55345e-06 16.1 1.55345e-06H6L0 6V24H20V16.1C20 15.6 19.6 15.1 19.1 15.1ZM6 2V6H2L6 2Z" fill="#0089D9"/>
</g>
<defs>
<clipPath id="clip0_2_5756">
<rect width="140" height="24" fill="white"/>
</clipPath>
</defs>
</svg>
