<?xml version="1.0" encoding="UTF-8"?><svg id="ag" xmlns="http://www.w3.org/2000/svg" width="24" height="24" viewBox="0 0 24 24"><path d="M19.37,4.95s-.01-.03-.02-.04c-.01-.02-.03-.04-.04-.06-.02-.03-.03-.06-.05-.08-.2-.2-.51-.2-.71,0l-3.3,3.3-5.39-1.13c-.14-.09-.32-.09-.47-.02-.02,0-.03,.01-.05,.02-.02,0-.03,.01-.05,.02l-3.19,2.41c-.09,.07-.14,.16-.17,.25-.05,.05-.09,.1-.12,.17L1.14,20.84c-.11,.25,.01,.55,.27,.66h0l-.42,.5H21.88s.08,.01,.13,0c.27-.05,.45-.31,.41-.58l-3-16.37s-.03-.07-.04-.11Zm-2.37,8.05l-3,4-4-4-4,3-3.5,4.2L6.73,10.18s0-.03,0-.04l2.95-2.23,5.36,1.12c.2,.17,.49,.16,.67-.02l2.87-2.87,2.67,14.54-4.26-7.67Z" style="fill:#0089d9; fill-rule:evenodd;"/><line x1="1" y1="23" x2="23" y2="23" style="fill:none; stroke:#0089d9; stroke-linecap:round; stroke-linejoin:round; stroke-width:2px;"/><line x1="1" y1="1" x2="1" y2="23" style="fill:none; stroke:#0089d9; stroke-linecap:round; stroke-linejoin:round; stroke-width:2px;"/></svg>