<?xml version="1.0" encoding="UTF-8"?><svg id="ai" xmlns="http://www.w3.org/2000/svg" width="24" height="24" viewBox="0 0 24 24"><path d="M20.99,4l-8,8,8,8c1.75-2.06,2.96-4.94,3.01-7.85v-.34c-.05-2.95-1.21-5.74-3.01-7.81ZM11.99,21.99c-5.52,0-9.99-4.47-9.99-9.99S6.47,2.01,11.99,2.01h0V0h0C5.42,0,.09,5.28,0,11.83v.34c.09,6.55,5.42,11.83,11.99,11.83,3.06,0,5.85-1.16,7.97-3.04l-1.42-1.42c-1.75,1.52-4.04,2.45-6.54,2.45ZM13,0V10l6.8-7.14C17.87,1.21,15.69,.16,13,0Z" style="fill:#0089d9; fill-rule:evenodd;"/></svg>