<?xml version="1.0" encoding="UTF-8"?><svg id="ms" xmlns="http://www.w3.org/2000/svg" width="24" height="24" viewBox="0 0 24 24"><g id="mt"><g><path d="M1.5,3.24l6,3c10,5,13-4,13-4" style="fill:#fff;"/><path d="M13.07,11.26c-2.23,0-4.62-.63-7.13-1.89L0,6.38,3.07,.11l6,3c2.26,1.13,4.11,1.43,5.49,.87,1.84-.73,2.63-2.87,2.63-2.89l6.63,2.25c-.17,.52-1.83,5.14-6.54,7.09-1.33,.55-2.74,.83-4.21,.83Z" style="fill:#0089d9;"/></g><g><path d="M22.5,20.76l-6-3C6.5,12.76,3.5,21.76,3.5,21.76" style="fill:#fff;"/><path d="M20.93,23.89l-6-3c-2.26-1.13-4.11-1.43-5.49-.87-1.84,.73-2.63,2.87-2.63,2.89L0,20.65c.17-.52,2.01-5.14,6.72-7.09,3.35-1.39,7.16-1.03,11.35,1.06l6,3-3.13,6.26Z" style="fill:#0089d9;"/></g></g></svg>