<svg width="24" height="24" viewBox="0 0 24 24" fill="none" xmlns="http://www.w3.org/2000/svg">
<g clip-path="url(#clip0_2_6158)">
<path d="M20 18C19.4067 18 18.8266 18.1759 18.3333 18.5056C17.8399 18.8352 17.4554 19.3038 17.2284 19.8519C17.0013 20.4001 16.9419 21.0033 17.0576 21.5853C17.1734 22.1672 17.4591 22.7018 17.8787 23.1213C18.2982 23.5409 18.8328 23.8266 19.4147 23.9424C19.9967 24.0581 20.5999 23.9987 21.1481 23.7716C21.6962 23.5446 22.1648 23.1601 22.4944 22.6667C22.8241 22.1734 23 21.5933 23 21C23.014 20.6023 22.9459 20.2059 22.8001 19.8356C22.6543 19.4653 22.4338 19.129 22.1524 18.8476C21.871 18.5662 21.5347 18.3457 21.1644 18.1999C20.7941 18.0541 20.3977 17.986 20 18ZM20 22.3C19.7429 22.3 19.4915 22.2238 19.2778 22.0809C19.064 21.9381 18.8973 21.735 18.799 21.4975C18.7006 21.2599 18.6748 20.9986 18.725 20.7464C18.7751 20.4942 18.899 20.2626 19.0808 20.0808C19.2626 19.899 19.4942 19.7751 19.7464 19.725C19.9986 19.6748 20.2599 19.7006 20.4975 19.799C20.735 19.8973 20.9381 20.064 21.0809 20.2778C21.2238 20.4915 21.3 20.7429 21.3 21C21.3 21.3448 21.163 21.6754 20.9192 21.9192C20.6754 22.163 20.3448 22.3 20 22.3ZM23.5 10.8L24 7C24 5 23 5 23 5H22.7L18.7 0.999999C18.5131 0.816772 18.2618 0.714142 18 0.714142C17.7382 0.714142 17.4869 0.816772 17.3 0.999999L15 3.3L13.7 2C13.5131 1.81677 13.2618 1.71414 13 1.71414C12.7382 1.71414 12.4869 1.81677 12.3 2L9.3 5H6.2L5.7 3.4C5.4 2.1 4.4 2 3.1 2H1C0.734784 2 0.48043 2.10536 0.292893 2.29289C0.105357 2.48043 0 2.73478 0 3C0 3.26522 0.105357 3.51957 0.292893 3.70711C0.48043 3.89464 0.734784 4 1 4H3C3.23131 3.99824 3.45821 4.06338 3.65336 4.18757C3.84852 4.31176 4.00362 4.48971 4.1 4.7L7.4 15C7.5537 15.5726 7.89157 16.0786 8.36146 16.4401C8.83136 16.8016 9.40716 16.9983 10 17H22C22.2652 17 22.5196 16.8946 22.7071 16.7071C22.8946 16.5196 23 16.2652 23 16C23.0161 15.8648 23.0013 15.7277 22.9567 15.5991C22.9121 15.4704 22.839 15.3536 22.7427 15.2573C22.6464 15.161 22.5296 15.0879 22.4009 15.0433C22.2723 14.9987 22.1352 14.9839 22 15H10C9.85677 15.002 9.71755 14.9527 9.60751 14.861C9.49746 14.7693 9.42386 14.6412 9.4 14.5V14.2L20.6 13.5C21.3049 13.4095 21.9638 13.1004 22.484 12.6161C23.0041 12.1318 23.3595 11.4967 23.5 10.8V10.8ZM17.3 3C17.4869 2.81677 17.7382 2.71414 18 2.71414C18.2618 2.71414 18.5131 2.81677 18.7 3L20.7 5H15.3L17.3 3ZM12.3 4C12.4869 3.81677 12.7382 3.71414 13 3.71414C13.2618 3.71414 13.5131 3.81677 13.7 4L14.7 5H11.3L12.3 4ZM8.6 12.2L6.9 7H7.8C7.78391 7.10869 7.79363 7.21964 7.82837 7.32387C7.86312 7.42811 7.92191 7.5227 8 7.6V7H22L21.6 10.3C21.5253 10.6057 21.3622 10.8826 21.1309 11.096C20.8997 11.3095 20.6107 11.45 20.3 11.5L8.6 12.2ZM11 18C10.4067 18 9.82664 18.1759 9.33329 18.5056C8.83994 18.8352 8.45542 19.3038 8.22836 19.8519C8.0013 20.4001 7.94189 21.0033 8.05764 21.5853C8.1734 22.1672 8.45912 22.7018 8.87868 23.1213C9.29824 23.5409 9.83279 23.8266 10.4147 23.9424C10.9967 24.0581 11.5999 23.9987 12.1481 23.7716C12.6962 23.5446 13.1648 23.1601 13.4944 22.6667C13.8241 22.1734 14 21.5933 14 21C14.014 20.6023 13.9459 20.2059 13.8001 19.8356C13.6543 19.4653 13.4338 19.129 13.1524 18.8476C12.871 18.5662 12.5347 18.3457 12.1644 18.1999C11.7941 18.0541 11.3977 17.986 11 18V18ZM11 22.3C10.7429 22.3 10.4915 22.2238 10.2778 22.0809C10.064 21.9381 9.89735 21.735 9.79896 21.4975C9.70056 21.2599 9.67482 20.9986 9.72498 20.7464C9.77514 20.4942 9.89895 20.2626 10.0808 20.0808C10.2626 19.899 10.4942 19.7751 10.7464 19.725C10.9986 19.6748 11.2599 19.7006 11.4975 19.799C11.735 19.8973 11.9381 20.064 12.0809 20.2778C12.2238 20.4915 12.3 20.7429 12.3 21C12.3 21.3448 12.163 21.6754 11.9192 21.9192C11.6754 22.163 11.3448 22.3 11 22.3V22.3Z" fill="#0089D9"/>
</g>
<defs>
<clipPath id="clip0_2_6158">
<rect width="140" height="24" fill="white"/>
</clipPath>
</defs>
</svg>
