<svg width="24" height="24" viewBox="0 0 24 24" fill="none" xmlns="http://www.w3.org/2000/svg">
<g clip-path="url(#clip0_2_5078)">
<path fill-rule="evenodd" clip-rule="evenodd" d="M22.5 18.2C22.3 18.4 21.8 18.9 22 19.4C22.2 19.8 22.1 20.3 22.8 21C22.2 21 21.5 20.9 21 20.6C20.4 20.3 19.9 20.5 19.6 20.5C18.8 20.8 17.9 21 17 21C14.1 21 11.5 19.2 10.5 16.9C14.9 16.3 18.3 13.2 18.9 9.3C21.8 10 24 12.2 24 14.8C24 16 23.4 17.3 22.5 18.2ZM9 16C7.8 16 6.7 15.8 5.6 15.4C5.3 15.2 4.9 15.1 4.5 15.3C3 16 1.5 16 0 16C0 16 0.1 15.8 0.1 15.7C0.8 15.1 1.6 14.4 1.9 13.4C2 13 1.8 12.8 1.6 12.6C0.6 11.3 0 9.7 0 8C0 3.6 4 0 9 0C14 0 18 3.6 18 8C18 12.4 14 16 9 16ZM9 2C5.2 2 2 4.7 2 8C2 9.3 2.6 10.6 3.4 11.6C3.6 11.8 4 12.8 3.8 13.4C3.6 13.8 3.7 13.8 3.4 14.1C3.8 14.1 4.4 13.7 4.9 13.4C5.5 13.1 6.2 13.5 6.4 13.6C7.2 13.9 8 14 9 14C12.8 14 16 11.3 16 8C16 4.7 12.8 2 9 2ZM2 18C2 17.6 2 17.2 2.1 16.8C2.7 16.7 3.4 16.5 4 16.3C4.4 16.1 4.9 16.2 5.2 16.4C6.4 16.8 7.7 17 9 17C9.1 17 9.2 17 9.3 17C10 19 11.6 20.6 13.8 21.4C12.7 23 10.7 24 8.5 24C7.6 24 6.8 23.8 6.1 23.6C5.9 23.5 5.6 23.4 5.3 23.6C4.2 24 3.1 24 2 24V23.8C2.5 23.3 3.1 22.8 3.3 22.1C3.4 21.8 3.2 21.6 3.1 21.5C2.4 20.5 2 19.3 2 18Z" fill="#0089D9"/>
</g>
<defs>
<clipPath id="clip0_2_5078">
<rect width="140" height="24" fill="white"/>
</clipPath>
</defs>
</svg>
