<svg width="24" height="24" viewBox="0 0 24 24" fill="none" xmlns="http://www.w3.org/2000/svg">
<path fill-rule="evenodd" clip-rule="evenodd" d="M13 16H11C10.4 16 10 16.4 10 17V20C10 20.6 10.4 21 11 21H13C13.6 21 14 20.6 14 20V17C14 16.4 13.6 16 13 16ZM13 20H11V17H13V20ZM8 16H6C5.4 16 5 16.4 5 17V20C5 20.6 5.4 21 6 21H8C8.6 21 9 20.6 9 20V17C9 16.4 8.6 16 8 16ZM8 20H6V17H8V20ZM8 10H6C5.4 10 5 10.4 5 11V14C5 14.6 5.4 15 6 15H8C8.6 15 9 14.6 9 14V11C9 10.4 8.6 10 8 10ZM8 14H6V11H8V14ZM20 0H4C2.9 0 2 0.8 2 2C2 6.8 2 22 2 22C2 23.1 2.9 24 4 24H20C21.1 24 22 23.1 22 22V2C22 0.9 21.1 0 20 0ZM20 21C20 21.6 19.6 22 19 22H5C4.4 22 4 21.6 4 21V3C4 2.4 4.4 2 5 2H19C19.6 2 20 2.4 20 3V21ZM18 3H6C5.4 3 5 3.4 5 4V8C5 8.6 5.4 9 6 9H18C18.6 9 19 8.6 19 8V4C19 3.4 18.6 3 18 3ZM18 8H6V4H18V8ZM18 10H16C15.4 10 15 10.4 15 11V20C15 20.6 15.4 21 16 21H18C18.6 21 19 20.6 19 20V11C19 10.4 18.6 10 18 10ZM18 20H16V11H18V20ZM13 10H11C10.4 10 10 10.4 10 11V14C10 14.6 10.4 15 11 15H13C13.6 15 14 14.6 14 14V11C14 10.4 13.6 10 13 10ZM13 14H11V11H13V14Z" fill="#0089D9"/>
</svg>
