<svg width="24" height="24" viewBox="0 0 24 24" fill="none" xmlns="http://www.w3.org/2000/svg">
<path fill-rule="evenodd" clip-rule="evenodd" d="M20 3C19.5 2 19.4 2 18 2H6C4.5 2 4.5 2.1 4 3C2.7 5.5 1 11 1 11V20C1 21.1 1.9 22 3 22H21C22.1 22 23 21.1 23 20V11C23 11 21.3 5.6 20 3ZM5.7 4H18.2L19 6H5L5.7 4ZM3.2 11L4.3 8H19.7L20.8 11H3.2ZM21 20H3V13H21V20ZM10.1 16.8C10.2 16.9 10.3 17 10.5 17H13.5C13.6 17 13.8 16.9 13.9 16.8L14.9 15.8C15.2 15.5 15 15 14.5 15H9.5C9.1 15 8.8 15.4 9.1 15.8L10.1 16.8Z" fill="#0089D9"/>
</svg>
