<svg width="24" height="24" viewBox="0 0 24 24" fill="none" xmlns="http://www.w3.org/2000/svg">
<g clip-path="url(#clip0_5_7948)">
<path fill-rule="evenodd" clip-rule="evenodd" d="M9.3 15H4.5C4.36739 15 4.24021 15.0527 4.14645 15.1464C4.05268 15.2402 4 15.3674 4 15.5C4 15.6326 4.05268 15.7598 4.14645 15.8536C4.24021 15.9473 4.36739 16 4.5 16H9.1C9.11888 15.6589 9.18622 15.3222 9.3 15V15ZM10.8 22H2V2H12V8H18V9.1C18.689 9.15921 19.3642 9.328 20 9.6V6.3V6H19.7L14 0.3V0H0V24H13.1C12.2029 23.5002 11.4196 22.819 10.8 22V22ZM14 2.5L17.6 6H14V2.5ZM4.5 17C4.36739 17 4.24021 17.0527 4.14645 17.1464C4.05268 17.2402 4 17.3674 4 17.5C4 17.6326 4.05268 17.7598 4.14645 17.8536C4.24021 17.9473 4.36739 18 4.5 18H8.5C8.63261 18 8.75979 17.9473 8.85355 17.8536C8.94732 17.7598 9 17.6326 9 17.5C9 17.3674 8.94732 17.2402 8.85355 17.1464C8.75979 17.0527 8.63261 17 8.5 17H4.5ZM10.1 13H4.5C4.36739 13 4.24021 13.0527 4.14645 13.1464C4.05268 13.2402 4 13.3674 4 13.5C4 13.6326 4.05268 13.7598 4.14645 13.8536C4.24021 13.9473 4.36739 14 4.5 14H9.6C9.72629 13.648 9.89414 13.3123 10.1 13V13ZM17 20.1C16.8 20.1 16.6 19.9 16.7 19.7L17.4 16.8C17.5 16.3 17.5 15.8 17 15.7C16.5462 15.7405 16.1062 15.8774 15.7096 16.1016C15.3129 16.3257 14.9687 16.6321 14.7 17V17.2C15.0902 16.9537 15.5389 16.8156 16 16.8C16.0579 16.8513 16.0937 16.9229 16.1 17L15.1 19.9C15 20.3 15.6 21 16.3 21C16.661 21.0083 17.0162 20.9079 17.3193 20.7117C17.6225 20.5155 17.8597 20.2327 18 19.9C18 19.8 18.1 19.5 18 19.4C17.9 19.3 17.3 20.1 17 20.1ZM11.8 11H4.5C4.36739 11 4.24021 11.0527 4.14645 11.1464C4.05268 11.2402 4 11.3674 4 11.5C4 11.6326 4.05268 11.7598 4.14645 11.8536C4.24021 11.9473 4.36739 12 4.5 12H10.8C11.081 11.6181 11.4181 11.281 11.8 11ZM17 10C15.6155 10 14.2622 10.4105 13.111 11.1797C11.9599 11.9489 11.0627 13.0421 10.5328 14.3212C10.003 15.6003 9.86441 17.0078 10.1345 18.3656C10.4046 19.7235 11.0713 20.9708 12.0503 21.9497C13.0292 22.9287 14.2765 23.5954 15.6344 23.8655C16.9922 24.1356 18.3997 23.997 19.6788 23.4672C20.9579 22.9373 22.0511 22.0401 22.8203 20.889C23.5895 19.7378 24 18.3845 24 17C24 15.1435 23.2625 13.363 21.9497 12.0503C20.637 10.7375 18.8565 10 17 10ZM17 22C16.0111 22 15.0444 21.7068 14.2221 21.1573C13.3999 20.6079 12.759 19.827 12.3806 18.9134C12.0022 17.9998 11.9031 16.9945 12.0961 16.0245C12.289 15.0546 12.7652 14.1637 13.4645 13.4645C14.1637 12.7652 15.0546 12.289 16.0245 12.0961C16.9945 11.9031 17.9998 12.0022 18.9134 12.3806C19.827 12.759 20.6079 13.3999 21.1573 14.2221C21.7068 15.0444 22 16.0111 22 17C22 18.3261 21.4732 19.5979 20.5355 20.5355C19.5979 21.4732 18.3261 22 17 22ZM17 15C17.1352 15.0161 17.2723 15.0013 17.4009 14.9567C17.5296 14.9121 17.6464 14.839 17.7427 14.7427C17.839 14.6464 17.9121 14.5296 17.9567 14.4009C18.0013 14.2723 18.0161 14.1352 18 14C18 13.7348 17.8946 13.4804 17.7071 13.2929C17.5196 13.1054 17.2652 13 17 13C16.7248 12.9989 16.4591 13.1009 16.2555 13.2861C16.0519 13.4712 15.925 13.7259 15.9 14C15.8993 14.1402 15.9281 14.2789 15.9845 14.4073C16.0409 14.5356 16.1236 14.6507 16.2273 14.745C16.331 14.8392 16.4534 14.9107 16.5865 14.9546C16.7197 14.9986 16.8605 15.014 17 15V15Z" fill="#0089D9"/>
</g>
<defs>
<clipPath id="clip0_5_7948">
<rect width="140" height="24" fill="white"/>
</clipPath>
</defs>
</svg>
