<svg width="24" height="24" viewBox="0 0 24 24" fill="none" xmlns="http://www.w3.org/2000/svg">
<path fill-rule="evenodd" clip-rule="evenodd" d="M9.3 22H2V8H8V2H18V7.2C18.7 7.4 19.4 7.6 20 7.9V0H6.3H6V0.3L0 6.3V24H11.9C10.9 23.5 10 22.8 9.3 22ZM6 2.5V6H2.4L6 2.5ZM16 11.8C15.3 11.8 14.8 12.4 14.8 13C14.8 13.7 15.4 14.2 16 14.2C16.7 14.2 17.2 13.6 17.2 13C17.2 12.3 16.7 11.8 16 11.8ZM16 8C11.6 8 8 11.6 8 16C8 20.4 11.6 24 16 24C20.4 24 24 20.4 24 16C24 11.6 20.4 8 16 8ZM16 22C12.7 22 10 19.3 10 16C10 12.7 12.7 10 16 10C19.3 10 22 12.7 22 16C22 19.3 19.3 22 16 22ZM16 15C15.4 15 15 15.4 15 16V19C15 19.6 15.4 20 16 20C16.6 20 17 19.6 17 19V16C17 15.4 16.6 15 16 15Z" fill="#0089D9"/>
</svg>
