<svg width="24" height="24" viewBox="0 0 24 24" fill="none" xmlns="http://www.w3.org/2000/svg">
<path fill-rule="evenodd" clip-rule="evenodd" d="M6 15H8V13H6V15ZM9 15H11V13H9V15ZM9 18H11V16H9V18ZM9 12H11V10H9V12ZM16 6C16.6 6 17 5.8 17 5V3C17 2.2 16.6 2 16 2C15.4 2 15 2.2 15 3V5C15 5.8 15.4 6 16 6ZM6 18H8V16H6V18ZM15 15H17V13H15V15ZM15 18H17V16H15V18ZM15 12H17V10H15V12ZM19.7 4.3C19.5 4.1 19.3 4 19 4H18V5C18 6.4 17.1 7 16 7C14.9 7 14 6.4 14 5V4H9V5C9 6.4 8.1 7 7 7C5.9 7 5 6.4 5 5V4H4C3.4 4 3 4.4 3 5V20C3 20.6 3.4 21 4 21H19C19.6 21 20 20.6 20 20V5C20 4.7 19.9 4.5 19.7 4.3ZM19 19C19 19.3 18.9 19.5 18.7 19.7C18.5 19.9 18.3 20 18 20H5C4.7 20 4.5 19.9 4.3 19.7C4.1 19.5 4 19.3 4 19V9C4 8.4 4.4 8 5 8H18C18.6 8 19 8.4 19 9V19ZM12 18H14V16H12V18ZM12 15H14V13H12V15ZM12 12H14V10H12V12ZM7 6C7.6 6 8 5.8 8 5V3C8 2.2 7.6 2 7 2C6.4 2 6 2.2 6 3V5C6 5.8 6.4 6 7 6Z" fill="#0089D9"/>
</svg>
