<svg width="24" height="24" viewBox="0 0 24 24" fill="none" xmlns="http://www.w3.org/2000/svg">
<path fill-rule="evenodd" clip-rule="evenodd" d="M10 17V9C10 8.4 9.6 8 9 8C8.4 8 8 8.4 8 9V17C8 17.6 8.4 18 9 18C9.6 18 10 17.6 10 17ZM13 17V9C13 8.4 12.6 8 12 8C11.4 8 11 8.4 11 9V17C11 17.6 11.4 18 12 18C12.6 18 13 17.6 13 17ZM16 17V9C16 8.4 15.6 8 15 8C14.4 8 14 8.4 14 9V17C14 17.6 14.4 18 15 18C15.6 18 16 17.6 16 17ZM22 4H16C16 2 15 0 13 0C12.7 0 12 0 12 0C12 0 11.3 0 11 0C9 0 8 2 8 4H2C1 4 0 5 0 6C0 6.8 0 7 0 7C0 7.6 0.4 8 1 8C1.6 8 2 7.6 2 7C2 6.4 2.5 6 3 6C9.2 6 12 6 12 6C12 6 14.8 6 21 6C21.5 6 22 6.4 22 7C22 7.6 22.4 8 23 8C23.6 8 24 7.6 24 7C24 7 24 6.8 24 6C24 5 23 4 22 4ZM14 4H10V3C10 2.9 10.3 2 11 2C12 2 12 2 12 2C12 2 12 2 13 2C13.7 2 14 2.9 14 3V4ZM20.1 7C19.5 7 19.1 7.4 19 7.9C19 7.9 18.5 16 18.2 20.5C18.2 21.2 17.8 22 16.4 22H7.6C6.2 22 5.8 21.2 5.8 20.5C5.5 16 5 7.9 5 7.9C5 7.4 4.5 6.9 3.9 7C3.4 7 3 7.5 3 8.1L3.9 22C4 23 5 23.9 6 24C8 24 12 24 12 24C12 24 16 24 18 24C19 23.9 20 23 20.1 22L21 8.1C21 7.5 20.6 7 20.1 7Z" fill="#0089D9"/>
</svg>
