<svg width="24" height="24" viewBox="0 0 24 24" fill="none" xmlns="http://www.w3.org/2000/svg">
<path fill-rule="evenodd" clip-rule="evenodd" d="M24 17C24 16.4 23.6 16 23 16C22.4 16 22 16.4 22 17V21H2V17C2 16.4 1.6 16 1 16C0.4 16 0 16.4 0 17V22C0 22.6 0.4 23 1 23H23C23.6 23 24 22.6 24 22V17ZM11.2 17.9C11.5 18.2 11.8 18.3 12.1 18.2C12.4 18.2 12.7 18.1 13 17.9L17.4 13.5C17.8 13.1 17.9 12.6 17.5 12.2C17.1 11.8 16.6 11.9 16.2 12.3L13 15.3V2C13 1.4 12.6 1 12 1C11.4 1 11 1.4 11 2V15.3L8 12.3C7.6 11.9 7.1 11.8 6.7 12.2C6.3 12.6 6.4 13.1 6.8 13.5L11.2 17.9Z" fill="#0089D9"/>
</svg>
