<svg width="24" height="24" viewBox="0 0 24 24" fill="none" xmlns="http://www.w3.org/2000/svg">
<path fill-rule="evenodd" clip-rule="evenodd" d="M4 6H18V8.2C18.7 8.4 19.4 8.6 20 8.9V7C20.6 7 21 6.6 21 6V2C21 1.4 20.6 1 20 1H2C1.4 1 1 1.4 1 2V6C1 6.6 1.4 7 2 7V15C2 15.6 2.4 16 3 16H7C7.1 15.3 7.2 14.6 7.5 14H4V6ZM3 5V3H19V5H3ZM16 10C12.1 10 9 13.1 9 17C9 20.9 12.1 24 16 24C19.9 24 23 20.9 23 17C23 13.1 19.9 10 16 10ZM19.8 18.6L16.8 21.6C16.6 21.8 16.3 22 16 22C15.7 22 15.5 21.9 15.3 21.7L12.2 18.6C11.8 18.2 11.8 17.6 12.2 17.2C12.6 16.8 13.2 16.8 13.6 17.2L15 18.6V13C15 12.4 15.4 12 16 12C16.6 12 17 12.4 17 13V18.6L18.4 17.2C18.8 16.8 19.4 16.8 19.8 17.2C20.2 17.5 20.2 18.2 19.8 18.6Z" fill="#0089D9"/>
</svg>
