<?xml version="1.0" encoding="UTF-8"?><svg id="j" xmlns="http://www.w3.org/2000/svg" width="24" height="24" viewBox="0 0 24 24"><path d="M22,2H10c-.55,0-1,.45-1,1V7c0,.55,.45,1,1,1v3c-1,0-1-1-2-2-.67-.67-1.34-1.77-2.31-2.44-.26-.34-.75-.56-1.69-.56-.14,0-.26,.02-.36,.05-1.75,.23-2.64,2.02-2.64,2.95v6s4,2,5,3c1.12,1.12,2,2.68,2,4,0,1,0,2,2,2,1,0,1-1.45,1-2,0,0,0-2-1-4-.78-1.56-4-4-4-4v-3l1,1s1,1,2,1h12c.55,0,1-.45,1-1V8c.55,0,1-.45,1-1V3c0-.55-.45-1-1-1Zm-2,9H12V7h8v4Zm1-5H11V4h10v2ZM4.5,5c1.39,0,2.51-1.11,2.5-2.5C6.99,1.11,5.89,0,4.5,0,3.11,0,1.99,1.11,2,2.5c0,1.39,1.11,2.49,2.5,2.5ZM1,22c0,1,0,2,1,2,2,0,2-1,2-2v-4l-3-2v6Z" style="fill:#0089d9; fill-rule:evenodd;"/></svg>