<?xml version="1.0" encoding="UTF-8"?><svg id="kz" xmlns="http://www.w3.org/2000/svg" width="24" height="24" viewBox="0 0 24 24"><path d="M3.78,21l1.22-1v-2.58L.35,21.22C.16,21.38,.04,21.6,0,21.83v.33c.03,.16,.08,.33,.19,.47,.11,.14,.26,.23,.42,.3h0c.11,.05,.22,.07,.34,.07,.01,0,.03,0,.04,0H6l-.67-2h-1.55Zm7.55-2.03c.09,.04,.18,.05,.27,.03h7.9c.28,0,.5-.22,.5-.5h0v-7c0-.28-.22-.5-.5-.5-.14,0-.27,.06-.36,.16,0,0-.01,0-.02,.01l-7.82,6.87c-.18,.08-.31,.25-.31,.46h0c0,.22,.14,.4,.33,.47Zm7.67-6.35v5.39h-6.13l6.13-5.39ZM23.48,3.14s-.02-.02-.04-.02c-.06-.03-.13-.05-.2-.06-.07-.02-.14-.04-.22-.04,0,0-.01,0-.02,0-.02,0-.03,0-.04,0-.21,0-.43,.06-.61,.2L11,12.5v2.58L22,6.08v14.92H10.67l-.67,2h13c.55,0,1-.45,1-1V4c0-.38-.22-.69-.52-.86Zm-13.48,.86H6v15h0l2,5,2-5h0V4Zm-1.99,17.64l-1.01-2.64c.37,0,1,1,1,1,0,0,.61-1,1-1l-.99,2.64ZM8.78,1c-1.2,0-.33,0-1.57,0-1.24,0-1.21,2-1.21,2h4s-.02-2-1.22-2Z" style="fill:#0089d9; fill-rule:evenodd;"/></svg>