<svg width="24" height="24" viewBox="0 0 24 24" fill="none" xmlns="http://www.w3.org/2000/svg">
<path d="M12 0C7.5 0 2 1.3 2 4V20C2 22.6 7.5 24 12 24C16.5 24 22 22.6 22 20V4C22 1.4 16.5 0 12 0ZM20 10.2C18.8 11.1 15.4 12 12 12C8.6 12 5.2 11.2 4 10.2V6.4C5.9 7.4 9.2 8 12 8C14.8 8 18.1 7.4 20 6.4V10.2ZM4 11.4C5.9 12.5 9.2 13 12 13C14.8 13 18.1 12.4 20 11.4V15.2C18.8 16.1 15.4 17 12 17C8.6 17 5.2 16.2 4 15.2V11.4ZM12 2C16.5 2 20 3.4 20 4V5.2C18.8 6.2 15.4 7 12 7C8.6 7 5.2 6.2 4 5.2V4C4 3.4 7.5 2 12 2ZM12 22C7.5 22 4 20.6 4 20V16.4C5.9 17.5 9.2 18 12 18C14.8 18 18.1 17.4 20 16.4V20C20 20.6 16.5 22 12 22Z" fill="#0089D9"/>
</svg>
