<?xml version="1.0" encoding="UTF-8"?><svg id="aa" xmlns="http://www.w3.org/2000/svg" width="24" height="24" viewBox="0 0 24 24"><path d="M7.45,14h-3.45V6h14v2.18c.7,.16,1.37,.41,2,.72v-1.9c.55,0,1-.45,1-1V2c0-.55-.45-1-1-1H2c-.55,0-1,.45-1,1v4c0,.55,.45,1,1,1v8c0,.55,.45,1,1,1h3.99c.07-.69,.23-1.36,.46-2ZM3,5V3H19v2H3Z" style="fill:#0089d9; fill-rule:evenodd;"/><path d="M16,10c-3.87,0-7,3.13-7,7s3.13,7,7,7,7-3.13,7-7-3.13-7-7-7Zm3.6,5.75l-3.52,4.37c-.04,.16-.11,.32-.24,.45-.21,.21-.49,.3-.77,.28-.28,.02-.56-.07-.77-.28-.1-.1-.17-.22-.22-.34l-1.78-1.78c-.39-.39-.39-1.02,0-1.41,.39-.39,1.02-.39,1.41,0l1.27,1.27,3.2-3.98c.39-.39,1.02-.39,1.41,0,.39,.39,.39,1.02,0,1.41Z" style="fill:#68a611; fill-rule:evenodd;"/></svg>