<svg width="24" height="24" viewBox="0 0 24 24" fill="none" xmlns="http://www.w3.org/2000/svg">
<path fill-rule="evenodd" clip-rule="evenodd" d="M7.4 14H4V6H18V8.2C18.7 8.4 19.4 8.6 20 8.9V7C20.6 7 21 6.6 21 6V2C21 1.4 20.6 1 20 1H2C1.4 1 1 1.4 1 2V6C1 6.6 1.4 7 2 7V15C2 15.6 2.4 16 3 16H7C7.1 15.3 7.2 14.6 7.4 14ZM3 5V3H19V5H3Z" fill="#0089D9"/>
<path d="M16 10C12.1 10 9 13.1 9 17C9 20.9 12.1 24 16 24C19.9 24 23 20.9 23 17C23 13.1 19.9 10 16 10ZM16 22C15.4 22 15 21.6 15 21C15 20.4 15.4 20 16 20C16.6 20 17 20.4 17 21C17 21.6 16.6 22 16 22ZM17 18C17 18.6 16.6 19 16 19C15.4 19 15 18.6 15 18V13C15 12.4 15.4 12 16 12C16.6 12 17 12.4 17 13V18Z" fill="#FF8B00"/>
</svg>
