<svg width="24" height="24" viewBox="0 0 24 24" fill="none" xmlns="http://www.w3.org/2000/svg">
<path d="M12.5 5C8.4 5 5 8.4 5 12.5C5 16.6 8.4 20 12.5 20C16.6 20 20 16.7 20 12.5C20 8.4 16.6 5 12.5 5ZM12.5 18.5C9.2 18.5 6.5 15.8 6.5 12.5C6.5 9.2 9.2 6.5 12.5 6.5C15.8 6.5 18.5 9.2 18.5 12.5C18.5 15.8 15.8 18.5 12.5 18.5ZM12.5 8C10 8 8 10.1 8 12.5C8 15 10 17 12.5 17C15 17 17 15 17 12.5C17 10.1 15 8 12.5 8ZM12.5 16.2C10.5 16.2 8.9 14.6 8.9 12.6C8.9 10.6 10.5 9 12.5 9C14.5 9 16.1 10.6 16.1 12.6C16.1 14.5 14.5 16.2 12.5 16.2ZM23.7 3C23.5 3 23.2 3 23.2 3.1C22.5 4.7 21.6 7.9 21.1 11C21 11.3 21 11.7 21 12C21 13 21.1 13.8 22 14.2V21C22 21.6 22.4 22 23 22C23.6 22 24 21.6 24 21V14.9V13.4C24 10.8 24 5.6 24 3.4C24 3.2 23.9 3.1 23.7 3ZM5 8.5V7.5V3.5C5 3.3 4.8 3 4.5 3C4.2 3 4 3.3 4 3.5V7.5H3V3.5C3 3.3 2.8 3 2.5 3C2.2 3 2 3.3 2 3.5V7.5H1V3.5C1 3.3 0.8 3 0.5 3C0.2 3 0 3.3 0 3.5V7.5V8.5C0 9.6 0.8 10.5 1.8 10.8L1 20.5C1 20.6 1 20.7 1 20.7C1.1 21.5 1.7 22 2.5 22C3.3 22 4.1 21.3 4 20.5L3.2 10.9C4.2 10.6 5 9.7 5 8.5C5 8.5 5 8.6 5 8.5Z" fill="#0089D9"/>
</svg>
