<?xml version="1.0" encoding="UTF-8"?><svg id="cm" xmlns="http://www.w3.org/2000/svg" width="24" height="24" viewBox="0 0 24 24"><path fill="#0089D9" class="st0" d="M23,12L23,12v-2c0-1.6-1.3-3-2.9-3l-1-3.7C19,3,18.7,2.8,18.4,2.9L17,3.3l-2.5-3.1C14.4,0.1,14.3,0,14.1,0
				l0,0l0,0c-0.1,0-0.2,0-0.3,0.1L4.3,6H2C1,6,0,7,0,8c0,0,0,0,0,0v13c0,1.7,1.3,3,3,3h17c1.7,0,3-1.3,3-3l0-2c0.6,0,1-0.4,1-1v-5
				C24,12.4,23.6,12,23,12z M18.2,4L19,7H7L18.2,4z M6,6.1l8-5l2,2.4L6,6.2V6.1z M20,22H3c-0.6,0-1-0.4-1-1V10c0-0.6,0.4-1,1-1h17
				c0.6,0,1,0.4,1,1l0,3h-4.5c-1.4,0-2.5,1.1-2.5,2.5c0,1.4,1.1,2.5,2.5,2.5H21l0,3C21,21.6,20.6,22,20,22z M22,17l-5.5,0
				c-0.8,0-1.5-0.7-1.5-1.5c0-0.8,0.7-1.5,1.5-1.5H22V17z M16,15.5c0,0.3,0.2,0.5,0.5,0.5c0.3,0,0.5-0.2,0.5-0.5
				c0-0.3-0.2-0.5-0.5-0.5C16.2,15,16,15.2,16,15.5z"/></svg>