<svg width="24" height="24" viewBox="0 0 24 24" fill="none" xmlns="http://www.w3.org/2000/svg">
<g clip-path="url(#clip0_5_10215)">
<path fill-rule="evenodd" clip-rule="evenodd" d="M14 2C14 0.9 13.1 0 12 0C10.9 0 10 0.9 10 2C10 3.1 10.9 4 12 4C13.1 4 14 3.1 14 2ZM14 16C15 17 16 18 19 18C22 18 23 17 24 16C24 16 23.5 16 22.7 16L19.7 5.9C20.5 5.8 21 5.3 21 4.5C21 4.2 20.8 4 20.5 4C20.2 4 20 4.2 20 4.5C20 4.7 19.7 4.9 19.3 5C19.1 4.8 18.8 4.8 18.6 5C18.4 4.9 18 4.7 18 4.5C18 4.2 17.8 4 17.5 4H12H6.5C6.2 4 6 4.2 6 4.5C6 4.7 5.7 4.9 5.3 5C5.1 4.8 4.8 4.8 4.6 5C4.4 4.9 4 4.7 4 4.5C4 4.2 3.8 4 3.5 4C3.2 4 3 4.2 3 4.5C3 5.3 3.5 5.8 4.3 5.9L1.3 16C0.5 16 0 16 0 16C1 17 2 18 5 18C8 18 9 17 10 16C10 16 9.5 16 8.7 16L5.7 6C6.3 5.9 6.8 5.7 6.9 5H11V22H10C9 22 7 22.9 7 23.4C7 24 7.4 24 8 24H16C16.6 24 17 24 17 23.4C17 22.8 15 22 14 22H13V5H17.1C17.3 5.6 17.7 5.9 18.3 6L15.3 16C14.5 16 14 16 14 16ZM7.3 16C5.8 16 4.1 16 2.6 16L5 8L7.3 16ZM19 8L21.3 16C19.8 16 18.1 16 16.6 16L19 8Z" fill="#0089D9"/>
</g>
<defs>
<clipPath id="clip0_5_10215">
<rect width="140" height="24" fill="white"/>
</clipPath>
</defs>
</svg>
