<?xml version="1.0" encoding="UTF-8"?><svg id="ak" xmlns="http://www.w3.org/2000/svg" width="24" height="24" viewBox="0 0 24 24"><path d="M5.21,5.6c-2.61,2.62-3.71,5.94-2.96,9.17,.3,1.3,2.18,.83,1.88-.45-.59-2.56,.36-5.17,2.49-7.3,2.86-2.86,9.71-2.36,13.38-3.96-.43,3.84-1.75,11.03-4.04,13.32-2.92,2.93-7.2,3.51-9.86,1.39,.31-.52,.64-1.05,1.03-1.56,1.65-2.28,3.73-4.28,5.03-5.58,.24-.24-.09-.62-.35-.41-3.45,2.6-9.76,6.96-9.81,12.27-.02,1.73,2.13,2.03,2.47,.34,.26-.75,.36-1.94,.92-3.21,3.43,2.19,8.46,1.71,11.98-1.82C20.77,14.39,21.66,4.83,22,.06,14.72,3.86,9.27,1.54,5.21,5.6Z" style="fill:#0089d9;"/></svg>