<?xml version="1.0" encoding="UTF-8"?><svg id="cu" xmlns="http://www.w3.org/2000/svg" width="24" height="24" viewBox="0 0 24 24"><path d="M24,3.98v-.02h0c-.05-2.03-3.03-2.96-5.98-2.96s-6.01,.95-6.01,3.01c0,.24,0,.93,0,1.67,0,.45,0,.91,.01,1.3-2.83,.02-5.81,.93-6,2.9h-.02s0,.06,0,.09c0,.03,0,.06,0,.1v2.93C3.12,13.05,.13,13.97,.01,15.95H0s0,.04,0,.06c0,.02,0,.04,0,.06v2.9c0,2.07,3.13,3.02,6.24,3.02,2.4,0,4.78-.58,5.76-1.79v-5.18c0-.77-.97-1.06-.97-1.06l.05-.02c-.82-.44-1.91-.71-3.05-.85-.02-.01-.05-.03-.07-.04v-.83c1.16,.51,2.69,.75,4.16,.75,1.58,0,2.92-.26,3.92-.71v.95c-.64,.36-1.7,.66-3.04,.76v1c1.11-.08,2.19-.3,3.04-.66v.9c-.64,.36-1.71,.65-3.04,.75v1.01c1.11-.08,2.19-.29,3.04-.65v.55c-.07,.27-1.08,.9-3.04,1.06v2.01c2.24-.15,3.93-.87,4.63-1.93,.12,0,.24,0,.37,.01v-1.99h0v-1.04h0v-.99h0v-.99h0v-.99h0v-.99h0v-.99h0s0-.03,0-.04c0-.03,.02-.06,.02-.1h-.03c-.03-.31-.13-.59-.29-.86,.11,0,.22,0,.33,0v-.99c-.55,0-1.05-.04-1.51-.1-.65-.37-1.49-.64-2.46-.79,0,0-.02-.01-.03-.02,0-.24,0-.51,0-.8,1.13,.49,2.59,.72,4.01,.72s2.86-.23,3.99-.71v.8c-.61,.4-1.71,.77-3.16,.87h.16v.98c1.11-.09,2.18-.34,3-.72v.86c-.59,.39-1.63,.74-3,.86v1c1.11-.09,2.18-.34,3-.72v.86c-.59,.39-1.63,.74-3,.86v1c1.11-.09,2.18-.34,3-.72v.86c-.59,.39-1.63,.74-3,.86v1c1.11-.09,2.18-.34,3-.72v.68c-.1,.28-1.09,.91-3,1.08v2c2.56-.2,5-1.16,5-3.04V3.98Zm-13.52,14.95c-.14,.31-1.56,1.05-4.25,1.05s-4.11-.74-4.24-1v-.7c1.18,.49,2.74,.72,4.24,.72s3.06-.23,4.24-.73v.66Zm0-3.01h0c-.13,.36-.53,2.08-4.48,2.08-3.63,0-3.87-1.45-3.97-1.93,.21-.34,1.63-1.07,4.21-1.07s4.11,.68,4.24,.92Zm5.55-5.87c-.07,.52-.58,1.95-4.03,1.95s-3.88-1.42-4-1.95c.25-.35,1.64-1.07,4.11-1.07s3.78,.76,3.91,1.07Zm5.98-5.53c-.22,.66-1.03,1.5-3.99,1.5s-3.83-.82-4.01-1.5c0-.21,0-.38,0-.46,.14-.31,1.42-1.06,4.01-1.06s3.86,.75,3.99,1.01v.51Z" style="fill:#0089d9; fill-rule:evenodd;"/></svg>