<svg width="53" height="24" viewBox="0 0 53 24" fill="none" xmlns="http://www.w3.org/2000/svg">
<g clip-path="url(#clip0_5_11385)">
<path d="M35 0.300003L29.3 6H35V0.300003Z" fill="#0089D9"/>
<path d="M35.8 13.4C35.8724 13.4812 35.9274 13.5762 35.9618 13.6794C35.9962 13.7826 36.0092 13.8916 36 14C36.0307 14.1733 35.995 14.3518 35.9 14.5C35.8198 14.6776 35.6776 14.8198 35.5 14.9H34V13H35.4L35.8 13.4ZM49 0V8H46C44.9622 8.0702 43.9851 8.51416 43.2496 9.24964C42.5142 9.98512 42.0702 10.9622 42 12V13C41.9931 13.1848 41.9224 13.3615 41.8 13.5L41.4 12.7C41.2195 12.4456 40.9791 12.2395 40.7 12.1H38V18.1H40V24.1H29V7H36V6V0H49ZM37 13.8C37.0088 13.412 36.9046 13.0298 36.7 12.7C36.5043 12.4197 36.2239 12.2094 35.9 12.1H33V18.1H34V16H34.7L35.8 15.8L36.4 15.4C36.6 15.3 36.7 15 36.8 14.8C36.9233 14.4805 36.9909 14.1423 37 13.8V13.8Z" fill="#0089D9"/>
<path d="M41 14C40.5 14.2 40 14.5 40 15V17H39V13H40.2C40.4 13 40.5 13.1 40.6 13.3L41 14Z" fill="#0089D9"/>
<path d="M51 15V13C51 11.9391 50.5786 10.9217 49.8284 10.1716C49.0783 9.42143 48.0609 9 47 9C45.9391 9 44.9217 9.42143 44.1716 10.1716C43.4214 10.9217 43 11.9391 43 13V15C42.4696 15 41.9609 15.2107 41.5858 15.5858C41.2107 15.9609 41 16.4696 41 17V22C41 22.5304 41.2107 23.0391 41.5858 23.4142C41.9609 23.7893 42.4696 24 43 24H51C51.5304 24 52.0391 23.7893 52.4142 23.4142C52.7893 23.0391 53 22.5304 53 22V17C53 16.4696 52.7893 15.9609 52.4142 15.5858C52.0391 15.2107 51.5304 15 51 15ZM45 13.2C45 12.6696 45.2107 12.1609 45.5858 11.7858C45.9609 11.4107 46.4696 11.2 47 11.2C47.5304 11.2 48.0391 11.4107 48.4142 11.7858C48.7893 12.1609 49 12.6696 49 13.2V15H45V13.2ZM51 21.3C51.001 21.401 50.9802 21.501 50.9389 21.5932C50.8977 21.6853 50.837 21.7675 50.761 21.834C50.685 21.9005 50.5955 21.9498 50.4987 21.9784C50.4018 22.0071 50.2999 22.0144 50.2 22H43.8C43.6041 22.0015 43.4144 21.9311 43.2669 21.8021C43.1195 21.6731 43.0245 21.4944 43 21.3V17.7C43.0245 17.5056 43.1195 17.3269 43.2669 17.1979C43.4144 17.0689 43.6041 16.9985 43.8 17H50.2C50.2999 16.9856 50.4018 16.9929 50.4987 17.0216C50.5955 17.0502 50.685 17.0995 50.761 17.166C50.837 17.2325 50.8977 17.3147 50.9389 17.4068C50.9802 17.499 51.001 17.599 51 17.7V21.3Z" fill="#0089D9"/>
<path d="M47 17C46.7424 17.0225 46.5009 17.1351 46.318 17.318C46.1351 17.5009 46.0225 17.7424 46 18V19C46 19.2652 46.1054 19.5196 46.2929 19.7071C46.4804 19.8946 46.7348 20 47 20C47.1352 20.0161 47.2723 20.0013 47.4009 19.9567C47.5296 19.9121 47.6464 19.839 47.7427 19.7427C47.839 19.6464 47.9121 19.5296 47.9567 19.4009C48.0013 19.2723 48.0161 19.1352 48 19V18C48 17.7348 47.8946 17.4804 47.7071 17.2929C47.5196 17.1054 47.2652 17 47 17Z" fill="#0089D9"/>
<path fill-rule="evenodd" clip-rule="evenodd" d="M22 15V13C22 11.9391 21.5786 10.9217 20.8284 10.1716C20.0783 9.42143 19.0609 9 18 9C16.9391 9 15.9217 9.42143 15.1716 10.1716C14.4214 10.9217 14 11.9391 14 13V15C13.4774 15.0243 12.9827 15.2429 12.6128 15.6128C12.2429 15.9827 12.0243 16.4774 12 17V22C11.9856 22.2664 12.0274 22.5329 12.1228 22.7821C12.2182 23.0313 12.365 23.2576 12.5537 23.4463C12.7424 23.635 12.9687 23.7818 13.2179 23.8772C13.4671 23.9726 13.7336 24.0144 14 24H22C22.5304 24 23.0391 23.7893 23.4142 23.4142C23.7893 23.0391 24 22.5304 24 22V17C24 16.4696 23.7893 15.9609 23.4142 15.5858C23.0391 15.2107 22.5304 15 22 15ZM16 13C16 12.4696 16.2107 11.9609 16.5858 11.5858C16.9609 11.2107 17.4696 11 18 11C18.5304 11 19.0391 11.2107 19.4142 11.5858C19.7893 11.9609 20 12.4696 20 13V15H16V13ZM22 21.3C21.9755 21.4944 21.8805 21.6731 21.7331 21.8021C21.5856 21.9311 21.3959 22.0015 21.2 22H14.8C14.6041 22.0015 14.4144 21.9311 14.2669 21.8021C14.1195 21.6731 14.0245 21.4944 14 21.3V17.7C14.0245 17.5056 14.1195 17.3269 14.2669 17.1979C14.4144 17.0689 14.6041 16.9985 14.8 17H18C17.8648 16.9839 17.7277 16.9987 17.5991 17.0433C17.4704 17.0879 17.3536 17.161 17.2573 17.2573C17.161 17.3536 17.0879 17.4704 17.0433 17.5991C16.9987 17.7277 16.9839 17.8648 17 18V19C17 19.2652 17.1054 19.5196 17.2929 19.7071C17.4804 19.8946 17.7348 20 18 20C18.2652 20 18.5196 19.8946 18.7071 19.7071C18.8946 19.5196 19 19.2652 19 19V18C19.0161 17.8648 19.0013 17.7277 18.9567 17.5991C18.9121 17.4704 18.839 17.3536 18.7427 17.2573C18.6464 17.161 18.5296 17.0879 18.4009 17.0433C18.2723 16.9987 18.1352 16.9839 18 17H21.2C21.3959 16.9985 21.5856 17.0689 21.7331 17.1979C21.8805 17.3269 21.9755 17.5056 22 17.7V21.3ZM2 8H8V2H18V8H20V0H6V0.3L0 6.2V24H11V22H2V8ZM6 2.5V6H2.4L6 2.5Z" fill="#0089D9"/>
<path d="M4 18V12H6.9C7.22392 12.1094 7.50429 12.3197 7.7 12.6C7.92429 12.9583 8.02931 13.3783 8 13.8C7.99089 14.1423 7.92325 14.4805 7.8 14.8C7.7 15 7.6 15.3 7.4 15.4L6.8 15.8L5.7 16H5V18H4ZM5 13V15H6.5C6.6776 14.9198 6.81983 14.7776 6.9 14.6C6.96073 14.514 7.00126 14.4153 7.01858 14.3114C7.03589 14.2075 7.02954 14.1011 7 14C7.00919 13.8916 6.9962 13.7826 6.96181 13.6794C6.92742 13.5762 6.87236 13.4812 6.8 13.4C6.7 13.2 6.5 13.1 6.4 13H5Z" fill="#0089D9"/>
<path d="M9 12H11.7C11.9791 12.1395 12.2195 12.3456 12.4 12.6C12.5917 12.8705 12.7277 13.1764 12.8 13.5C12.9287 13.9898 12.9959 14.4936 13 15C13.0259 15.4027 12.9922 15.8071 12.9 16.2C12.7825 16.606 12.5778 16.9814 12.3 17.3C12.1477 17.5167 11.9406 17.6892 11.7 17.8H9V12ZM10 13V17H11.3L11.7 16.8C11.8 16.7 11.8 16.5 11.9 16.2C12.0045 15.8091 12.0383 15.4028 12 15C12.0268 14.6303 11.9931 14.2588 11.9 13.9C11.8 13.7 11.8 13.5 11.6 13.4C11.4 13.3 11.4 13.1 11.2 13.1H10V13Z" fill="#0089D9"/>
<path d="M14 18V12H18V13H15V15H17V16H15V18H14Z" fill="#0089D9"/>
</g>
<defs>
<clipPath id="clip0_5_11385">
<rect width="169" height="24" fill="white"/>
</clipPath>
</defs>
</svg>
