<svg width="24" height="24" viewBox="0 0 24 24" fill="none" xmlns="http://www.w3.org/2000/svg">
<path fill-rule="evenodd" clip-rule="evenodd" d="M20.7 21.9C19 20 20.3 16.6 20 13C19.7 9.7 18.5 8.3 17.3 7.2C17 6.9 16.2 6.3 15.7 5.7C15.9 5.4 15.9 5.1 15.8 4.8C15.7 4.6 15.5 4.4 15.3 4.3C15.5 3 16.5 2 16.8 1.1C14 -1 12 0.999998 8.4 0.999998C7.3 0.899998 6.7 1.6 6.9 2.1C7.1 2.9 8.3 3 8.7 3.9C8.4 4 8.2 4.3 8 4.6C7.9 5 8.1 5.4 8.4 5.7C5.2 8.9 4 10.7 4 13.2C4 16 4.2 17.6 4.3 18.8C4.3 18.8 4.4 19.9 3.1 20.6C2.5 20.9 2.4 21.7 2.9 22.1C4.4 23.5 8.2 23.9 10.7 23.9C11.4 23.9 12 23.8 12.6 23.7C12.7 23.8 12.9 23.9 13 23.9C15.2 23.9 20 23.9 20.9 23.2C21.3 23 21.1 22.3 20.7 21.9ZM15 1.6C13.9 2.3 12.9 3.6 13.1 5C12.3 5.3 11.7 5.2 11.1 4.9C11.3 4 10.7 3.6 10.1 2.9C9.4 3 12.4 2.3 15 1.6ZM15.6 22.3C16.3 21.7 16.8 20.8 17.2 19.8C14.2 21.8 13.8 22.1 10.3 22.1C7.9 22.1 6.2 22.1 4.9 21.6C6.3 19.4 5.6 17.1 5.9 13.6C6.2 10.3 8.5 8.6 9.9 7C10.5 7 11 7 12.3 7C13 7 13.4 6.9 13.7 6.8C15 8.4 17.3 9.4 18 13C18.6 15.9 17 20 19 22C18.1 22.2 17.1 22.4 15.6 22.3ZM12.5 14.2C11.6 13.8 11.2 13.6 11.2 13.4C11.2 13.2 11.3 12.7 12 12.7C12.7 12.7 12.7 13.2 12.7 13.4C12.9 13.9 13.5 14.2 14.1 14.1C14.7 14 15.1 13.5 14.9 13C14.7 12.2 13.9 11.6 12.9 11.3V10.8C12.9 10.2 12.5 9.8 11.9 9.8C11.3 9.8 10.9 10.2 10.9 10.8V11.4C9.7 11.7 8.9 12.6 8.9 13.6C8.9 15.1 10.4 15.7 11.4 16.1C12.3 16.5 12.7 16.7 12.7 16.9C12.7 17.1 12.7 17.7 11.9 17.7C11.2 17.7 11.2 17.2 11.2 17C11.1 16.5 10.4 16.2 9.8 16.3C9.2 16.4 8.8 16.9 8.9 17.4C9.1 18.2 9.9 18.8 10.9 19.1V19.7C10.9 20.3 11.3 20.7 11.9 20.7C12.5 20.7 12.9 20.3 12.9 19.7V19.1C14.1 18.8 14.9 17.9 14.9 16.9C15 15.2 13.5 14.6 12.5 14.2Z" fill="#0089D9"/>
</svg>
