<svg data-name="Layer 1" xmlns="http://www.w3.org/2000/svg" width="24" height="24"><path fill-rule="evenodd" clip-rule="evenodd" fill="#0089D9" d="M23.7,10l-4.5-7.7c-0.3-0.6-0.9-1-1.5-1.2C17.5,1,17.2,1,17,1c-0.4,0-0.8,0.1-1.2,0.3L4.5,8h3.7l8.6-4.9
				C17,2.9,17.3,3,17.5,3.2l0.7,1.2L11.8,8h4l3.3-1.9L20.2,8c1.6,0.1,2.8,1.1,2.8,3v2.2c0.4-0.3,0.8-0.8,0.9-1.3
				C24,11.6,24,11.2,24,11C24,10.7,23.8,10.3,23.7,10z M17.5,18h-3c-0.3,0-0.5,0.2-0.5,0.5c0,0.3,0.2,0.5,0.5,0.5h3
				c0.3,0,0.5-0.2,0.5-0.5C18,18.2,17.8,18,17.5,18z M7.5,18h-3C4.2,18,4,18.2,4,18.5C4,18.8,4.2,19,4.5,19h3C7.8,19,8,18.8,8,18.5
				C8,18.2,7.8,18,7.5,18z M14.6,16c0.4,0,0.7-0.1,0.9-0.3c0.3,0.2,0.6,0.3,0.9,0.3c0.9,0,1.6-0.6,1.6-1.5c0-0.8-0.7-1.5-1.6-1.5
				c-0.4,0-0.7,0.1-0.9,0.3c-0.3-0.2-0.6-0.3-0.9-0.3c-0.9,0-1.6,0.7-1.6,1.5C13,15.4,13.7,16,14.6,16z M15.9,14.3
				c0.1-0.2,0.3-0.3,0.5-0.3c0.3,0,0.6,0.2,0.6,0.5c0,0.3-0.2,0.5-0.6,0.5c-0.2,0-0.4-0.1-0.5-0.3l-0.1-0.2L15.9,14.3z M14.6,14
				c0.2,0,0.4,0.1,0.5,0.3l0.1,0.2l-0.1,0.2C15,14.9,14.8,15,14.6,15c-0.3,0-0.6-0.2-0.6-0.5C14,14.3,14.2,14,14.6,14z M4.5,15h5
				c0.3,0,0.5-0.2,0.5-0.5c0-0.3-0.2-0.5-0.5-0.5h-5C4.2,14,4,14.3,4,14.5C4,14.8,4.2,15,4.5,15z M20,9.1L2,9c-1.1,0-2,1-2,2.1v10
				c0,1.1,0.9,2,2,2h18c1.1,0,2-0.9,2-2v-10C22,10,21.1,9.1,20,9.1z M20,21H2V11h18V21z M9,18.5C9,18.8,9.2,19,9.5,19h3
				c0.3,0,0.5-0.2,0.5-0.5c0-0.3-0.2-0.5-0.5-0.5h-3C9.2,18,9,18.2,9,18.5z"/></svg>