<?xml version="1.0" encoding="UTF-8"?><svg id="f" xmlns="http://www.w3.org/2000/svg" width="24" height="24" viewBox="0 0 24 24"><path d="M18,18h-7.16c-.81,.25-1.53,.22-2.15,0H2v-4.29c0-.69,.71-.71,.71-.71h3.91c.55-.71,1.67-1.44,2.7-2H1.48c-.95,0-1.48,.57-1.48,1.55v9.93c0,.97,.74,1.52,1.48,1.52H18.52c.95,0,1.48-.55,1.48-1.52V12.86c-.52,.46-1.17,.88-2,1.21,0,.95,0,2.47,0,3.93Zm0,3.32c0,.69-.71,.68-.71,.68H2.71s-.71,0-.71-.68v-.32H18v.32ZM3,14.02v.98h3.28c-.07-.34-.09-.68-.06-.99H3Zm0,2.99H7.25c-.26-.3-.47-.64-.64-1H3v1ZM20.15,.47c-.59,.02-1.78,.88-2.69,1.69-.29,.26-4.2,1.39-6.41,2-1.22,.34-2.51,.61-3.02,1.52-.75,1.34-2.03,4.32-2.03,4.32h1.66s.85-2.02,1.61-3.36c.51-.91,1.52-.87,2.74-1.21,2.21-.61,6.02-1.81,6.32-2.06,.91-.8,1.02-.88,1.62-.9,.59-.02,1.25,1.6,1.67,2.46,.16,.32,.58,.53-.11,1.14-.04,.03-.42-.04-.82-.22-.22-.14-.44-.26-.67-.45-.06-.06-.12-.12-.16-.2,0,.02,0,.04,0,.06-.22-.19-.46-.43-.74-.8,.34,.71,.59,1.04,.83,1.27,.27,.69,1.02,.95,.98,.99-1.55,1.66-.79,3.47-3.29,4.34-5.81,2.04-4.34,3.67-7.16,4.05-.66,.09-1.17-.03-.9-.71,.51-1.27,2.29-1.35,3.45-2.08,.83-.52,1.42-1.56,2.04-2.31-.02,.02,1.46-1.66,2.23-3.17-.84,.89-2.05,1.44-2.55,1.77-.51,.32-.41-.45-.79-.96-.78,.15-.99,.15-.99,.15-.33-.15-.89-.58-.9-1.69-.4,.76-1.04,1.84-1.11,2.27-.12,.51-1.21,1.13-1.72,1.6h1.75c.43-.43,.98-.72,1.2-1.16-.12-.17-.18-.19-.05-.75,.26,.74,.53,.44,.58,.59,0,0-.04,.18,.75,.03,.02,.28-.09,.59,.45,.61-.76,.91-1.13,1.31-1.75,1.7-1.26,.6-4.32,2.05-4.46,3.49-.1,1.06,.84,2.31,2.11,2.18,3.66-.38,3.12-2.82,7.69-4.07,3.33-.91,3.06-3.19,4.3-4.69,1.24-1.51,1.68-1.11,1.7-2.07,.03-.95-2.78-5.4-3.37-5.38Z" style="fill:#0089d9; fill-rule:evenodd;"/></svg>