<svg width="24" height="24" viewBox="0 0 24 24" fill="none" xmlns="http://www.w3.org/2000/svg">
<g clip-path="url(#clip0_5_11126)">
<path fill-rule="evenodd" clip-rule="evenodd" d="M23.7 21.9C22 20 23.3 16.6 23 13C22.7 9.7 21.5 8.3 20.3 7.2C20 6.9 19.2 6.3 18.7 5.7C18.9 5.4 18.9 5.1 18.8 4.8C18.7 4.6 18.5 4.4 18.3 4.3C18.5 3 19.5 2 19.8 1.1C17 -1 15 0.999998 11.4 0.999998C10.3 0.899998 9.80001 1.6 9.90001 2.1C10.1 2.9 11.4 3 11.7 3.9C11.4 4 11.2 4.3 11 4.6C10.8 5 11 5.4 11.3 5.7C10 7 9.00001 8.1 8.30001 9.1C9.00001 9.2 9.70001 9.4 10.3 9.7C11.1 8.6 12.1 7.6 12.9 6.8C13.5 7 14 7 15.3 7C16 7 16.4 6.9 16.7 6.8C18 8.4 20.3 9.4 21 13C21.6 15.9 20 20 22 22C21.1 22.2 20.1 22.4 18.6 22.3C19.3 21.7 19.8 20.8 20.2 19.8C17.2 21.8 16.8 22.1 13.3 22.1H13.2C12.6 22.8 11.9 23.5 11 24C12 24 12.9 24 13.6 24C14.3 24 14.9 23.9 15.5 23.8C15.6 23.9 15.8 24 15.9 24C18.1 24 22.9 24 23.8 23.3C24.3 23 24.1 22.3 23.7 21.9ZM16 5C15.2 5.3 14.6 5.2 14 4.9C14.2 4 13.6 3.6 13 2.9C12.4 2.9 15.4 2.2 18 1.5C16.8 2.3 15.9 3.6 16 5ZM11.9 12C9.20001 9.2 4.80001 9.2 2.00001 12C-0.699994 14.7 -0.699994 19.2 2.00001 21.9C4.70001 24.6 9.20001 24.6 11.9 21.9C14.7 19.1 14.7 14.7 11.9 12ZM11 18.4C11 19 10.5 19.4 10 19.4C9.40001 19.4 9.00001 19 9.00001 18.4V16.4L4.70001 20.7C4.30001 21.1 3.70001 21.1 3.30001 20.7C2.90001 20.3 2.90001 19.7 3.30001 19.3L7.60001 15H5.60001C5.00001 15 4.60001 14.6 4.60001 14C4.60001 13.4 5.00001 13 5.60001 13H10C10.6 13 11 13.5 11 14V18.4ZM15 9.6C14.4 9.6 14 10 14 10.6V11.2C13.6 11.3 13.2 11.5 12.9 11.7C14 12.9 14.7 14.4 14.9 16.1C15.5 16.4 15.7 16.5 15.7 16.7C15.7 16.9 15.7 17.5 14.9 17.5C14.8 18.5 14.6 19.4 14.2 20.3C14.4 20.5 14.6 20.6 14.9 20.6C15.5 20.6 15.9 20.2 15.9 19.6V19C17.1 18.7 17.9 17.8 17.9 16.8C17.9 15.3 16.4 14.7 15.4 14.3C14.5 13.9 14.1 13.7 14.1 13.5C14.1 13.3 14.2 12.8 14.9 12.8C15.6 12.8 15.6 13.3 15.6 13.5C15.8 14 16.4 14.3 17 14.2C17.6 14.1 18 13.6 17.8 13.1C17.6 12.3 16.8 11.7 15.8 11.4V10.9C16 10 15.6 9.6 15 9.6Z" fill="#0089D9"/>
</g>
<defs>
<clipPath id="clip0_5_11126">
<rect width="140" height="24" fill="white"/>
</clipPath>
</defs>
</svg>
