<svg width="24" height="24" viewBox="0 0 24 24" fill="none" xmlns="http://www.w3.org/2000/svg">
<path d="M12 0L0 5L4 6.7V12.5C4 12.5 5 13.8 7 14.8V17C7 17 4.8 18 7 19C6 20 6 23 6 23C6 23 6.4 24 8 24C9.5 24 10 23 10 23C10 23 10 20 9 19C11.2 17.9 9 17 9 17V15.6C9.9 15.8 10.9 16 12 16C17.5 16 20 13 20 13V6.7L24 5L12 0ZM6 11.5V7.5L7 7.9V12.5C6.3 12 6 11.5 6 11.5ZM18 11.5C18 11.5 16.5 14 12 14C10.8 14 9.8 13.8 9 13.5V8.7L12 10L18 7.5V11.5ZM12 8L9.2 6.9L13.7 5L11.6 4L7 6L4.5 5L12 2L19.5 5L12 8Z" fill="#0089D9"/>
</svg>
