<svg width="53" height="24" viewBox="0 0 53 24" fill="none" xmlns="http://www.w3.org/2000/svg">
<path fill-rule="evenodd" clip-rule="evenodd" d="M18 21C18 21.6 17.6 22 17 22H3C2.4 22 2 21.6 2 21V7C2 6.4 2.4 6 3 6H13L15 4H2C0.9 4 0 4.9 0 6V22C0 23.1 0.9 24 2 24H18C19.1 24 20 23.1 20 22V9L18 11V21ZM23 0H16C15.4 0 15 0.4 15 1C15 1.6 15.4 2 16 2H20.5L9.4 13.1C9 13.5 9 14.1 9.4 14.5C9.8 14.9 10.4 14.9 10.8 14.5L22 3.3V8C22 8.6 22.4 9 23 9C23.6 9 24 8.6 24 8V1C24 0.4 23.6 0 23 0Z" fill="#0089D9"/>
<path fill-rule="evenodd" clip-rule="evenodd" d="M37.6 15.6C36 14 38 12 38 12L46 4H31C29.9 4 29 4.9 29 6V22C29 23.1 29.9 24 31 24H47C48.1 24 49 23.1 49 22V7L41 15C41 15 39 17 37.6 15.6ZM52 0H45C44.4 0 44 0.4 44 1C44 1.6 44.4 2 45 2H49.5L38.4 13.1C38 13.5 38 14.1 38.4 14.5C38.8 14.9 39.4 14.9 39.8 14.5L51 3.3V8C51 8.6 51.4 9 52 9C52.6 9 53 8.6 53 8V1C53 0.4 52.6 0 52 0Z" fill="#0089D9"/>
</svg>
