<svg width="24" height="24" viewBox="0 0 24 24" fill="none" xmlns="http://www.w3.org/2000/svg">
<g clip-path="url(#clip0_5_12112)">
<path fill-rule="evenodd" clip-rule="evenodd" d="M12.5 4.5C12.2 4.6 12 4.8 12 5L11.4 11.4C9.50001 11.6 6.10001 12 6.00001 12C5.70001 12 5.50001 12.3 5.60001 12.6C5.50001 12.8 5.70001 13 6.00001 13L11.9 13.5C12.4 13.8 13.2 13.7 13.5 13.2C13.8 12.8 13.9 12.2 13.6 11.8C13.4 9.9 13 5.1 13 5C13 4.7 12.7 4.5 12.5 4.5ZM24 9V0.999999L21.3 3.7C9.00001 -7.5 -7.49999 9.3 3.80001 20.6C10.4 26.9 21.7 24.2 23.9 14H21.9C20.6 20.4 14.9 23.4 9.40001 21.9C2.40001 19.9 -0.299986 10.5 5.00001 5.6C8.30001 2.4 14.6 1.6 18.8 6.3L16 9H24Z" fill="#0089D9"/>
<path fill-rule="evenodd" clip-rule="evenodd" d="M53 9V0.999999L50.3 3.7C38 -7.5 21.5 9.3 32.8 20.6C39.4 26.9 50.7 24.2 52.9 14H50.9C49.6 20.4 43.9 23.4 38.4 21.9C31.4 19.9 28.7 10.5 34 5.6C37.3 2.4 43.6 1.6 47.8 6.3L45 9H53ZM41.5 4.5C41.2 4.6 41 4.8 41 5L40.4 11.4C38.5 11.6 35.1 12 35 12C34.7 12 34.5 12.3 34.6 12.6C34.6 12.8 34.8 13 35.1 13L41 13.5C41.5 13.8 42.3 13.7 42.6 13.2C42.9 12.8 43 12.2 42.7 11.8C42.4 9.9 42 5.1 42 5C42 4.7 41.7 4.5 41.5 4.5Z" fill="#D7D7D7"/>
</g>
<defs>
<clipPath id="clip0_5_12112">
<rect width="140" height="24" fill="white"/>
</clipPath>
</defs>
</svg>
