<?xml version="1.0" encoding="UTF-8"?><svg id="pk" xmlns="http://www.w3.org/2000/svg" width="24" height="24" viewBox="0 0 24 24"><path d="M6,17H2.11l6.33-5.86c1.01,.91,1.78,1.62,2.04,1.88,.31,.31,.84,.31,1.09,0,.74-.74,5.85-5.33,8.44-7.66v2.66c0,1.39,2,1.15,2-.03v-3.97c0-1.1-.9-2.03-2-2.03H2C.9,2,0,2.9,0,4v13C0,18.1,.9,19,2,19H6.09c1.21,0,.91-2-.09-2ZM18.44,4l-7.44,7.02L3.56,4h14.87ZM2,5.36c1.29,1.15,3.19,2.86,4.88,4.38l-4.88,6.87V5.36Zm22,10.64l-6-6v4c-1.76,0-1.47,.13-3.03,.43-4.63,.89-6.97,3.33-6.97,8.57,1.46-3.66,2.98-4.64,6.97-4.9,1.47-.1,1.15-.1,3.03-.1v4l6-6Z" style="fill:#0089d9; fill-rule:evenodd;"/></svg>