<svg width="24" height="24" viewBox="0 0 24 24" fill="none" xmlns="http://www.w3.org/2000/svg">
<g clip-path="url(#clip0_5_11942)">
<path fill-rule="evenodd" clip-rule="evenodd" d="M3 16C2.20435 16 1.44129 16.3161 0.87868 16.8787C0.31607 17.4413 0 18.2043 0 19C0 19.7956 0.31607 20.5587 0.87868 21.1213C1.44129 21.6839 2.20435 22 3 22C3.79565 22 4.55871 21.6839 5.12132 21.1213C5.68393 20.5587 6 19.7956 6 19C6 18.2043 5.68393 17.4413 5.12132 16.8787C4.55871 16.3161 3.79565 16 3 16V16ZM3 20C2.73478 20 2.48043 19.8946 2.29289 19.7071C2.10536 19.5196 2 19.2652 2 19C2 18.7348 2.10536 18.4804 2.29289 18.2929C2.48043 18.1054 2.73478 18 3 18C3.26522 18 3.51957 18.1054 3.70711 18.2929C3.89464 18.4804 4 18.7348 4 19C4 19.2652 3.89464 19.5196 3.70711 19.7071C3.51957 19.8946 3.26522 20 3 20ZM13 3H8C7.46957 3 6.96086 3.21071 6.58579 3.58578C6.21071 3.96086 6 4.46956 6 5V11H4C2.96225 11.0702 1.98511 11.5142 1.24964 12.2496C0.51416 12.9851 0.0701953 13.9622 0 15L0 16.4C0.356993 15.9497 0.81396 15.5888 1.33468 15.3458C1.85541 15.1027 2.42558 14.9844 3 15C3.88713 15.0108 4.74683 15.309 5.45005 15.8499C6.15326 16.3909 6.66204 17.1453 6.9 18H9.1C9.30561 17.1784 9.7667 16.4433 10.4168 15.9005C11.067 15.3577 11.8726 15.0353 12.7177 14.9797C13.5629 14.9241 14.4038 15.1382 15.1194 15.5911C15.8351 16.044 16.3885 16.7124 16.7 17.5C16.796 17.4585 16.8766 17.388 16.9304 17.2983C16.9842 17.2086 17.0086 17.1042 17 17V12L14 4C14 3.73478 13.8946 3.48043 13.7071 3.29289C13.5196 3.10535 13.2652 3 13 3V3ZM8 11V5H13L15 11H8ZM13 16C12.6023 15.986 12.2059 16.0541 11.8356 16.1999C11.4653 16.3457 11.129 16.5662 10.8476 16.8476C10.5662 17.129 10.3457 17.4653 10.1999 17.8356C10.0541 18.2059 9.98603 18.6023 10 19C10 19.7956 10.3161 20.5587 10.8787 21.1213C11.4413 21.6839 12.2044 22 13 22C13.7956 22 14.5587 21.6839 15.1213 21.1213C15.6839 20.5587 16 19.7956 16 19C16 18.2043 15.6839 17.4413 15.1213 16.8787C14.5587 16.3161 13.7956 16 13 16V16ZM13 20C12.8022 20 12.6089 19.9413 12.4444 19.8315C12.28 19.7216 12.1518 19.5654 12.0761 19.3827C12.0004 19.2 11.9806 18.9989 12.0192 18.8049C12.0578 18.6109 12.153 18.4327 12.2929 18.2929C12.4327 18.153 12.6109 18.0578 12.8049 18.0192C12.9989 17.9806 13.2 18.0004 13.3827 18.0761C13.5654 18.1518 13.7216 18.28 13.8315 18.4444C13.9414 18.6089 14 18.8022 14 19C14.0161 19.1352 14.0013 19.2723 13.9567 19.4009C13.9121 19.5296 13.839 19.6464 13.7427 19.7427C13.6464 19.839 13.5296 19.9121 13.4009 19.9567C13.2723 20.0013 13.1352 20.0161 13 20V20ZM20 20V3C20.0161 2.8648 20.0013 2.72772 19.9567 2.59908C19.9121 2.47043 19.839 2.35357 19.7427 2.2573C19.6464 2.16103 19.5296 2.08786 19.4009 2.04329C19.2723 1.99872 19.1352 1.98392 19 2C18.7348 2 18.4804 2.10535 18.2929 2.29289C18.1054 2.48043 18 2.73478 18 3V21C18 21.2652 18.1054 21.5196 18.2929 21.7071C18.4804 21.8946 18.7348 22 19 22H21C21.6291 21.9501 22.235 21.7402 22.7601 21.3901C23.2852 21.0401 23.712 20.5615 24 20H20Z" fill="#0089D9"/>
</g>
<defs>
<clipPath id="clip0_5_11942">
<rect width="140" height="24" fill="white"/>
</clipPath>
</defs>
</svg>
