<svg width="24" height="24" viewBox="0 0 24 24" fill="none" xmlns="http://www.w3.org/2000/svg">
<path d="M21 3H11.5C11.5 3 10 0 8 0H3C1.5 0 0 1.5 0 3V17C0 18.5 1.5 20 3 20H8V18H3C2.5 18 2 17.5 2 17V15V6V5C2 5 20.5 5 21 5C21.5 5 22 5.5 22 6V17C22 17.5 21.5 18 21 18V20C22.5 20 24 18 24 17C24 16.6 24 6 24 6C24 4.5 22.5 3 21 3ZM2 4C2 4 2 3.5 2 3C2 2.5 2.5 2 3 2C3.5 2 7 2 8 2C9 2 10 4 10 4H2ZM18 12V10H15V8H14V10H11V12H9V24H20V12H18ZM15 14H16V15H15V14ZM15 16H16V17H15V16ZM16 18V19H15V18H16ZM14 16V17H13V16H14ZM13 14H14V15H13V14ZM13 18H14V19H13V18ZM11 14H12V15H11V14ZM11 16H12V17H11V16ZM11 18H12V19H11V18ZM18 22H11V21H18V22ZM18 19H17V18H18V19ZM18 17H17V16H18V17ZM18 15H17V14H18V15Z" fill="#0089D9"/>
</svg>
