<?xml version="1.0" encoding="UTF-8"?><svg id="li" xmlns="http://www.w3.org/2000/svg" width="24" height="24" viewBox="0 0 24 24"><path d="M17,10c-3.87,0-7,3.13-7,7s3.13,7,7,7,7-3.13,7-7-3.13-7-7-7Zm2.83,8.41c.39,.39,.39,1.02,0,1.41-.39,.39-1.02,.39-1.41,0l-1.41-1.41-1.41,1.41c-.39,.39-1.02,.39-1.41,0-.39-.39-.39-1.02,0-1.41l1.41-1.41-1.41-1.41c-.39-.39-.39-1.02,0-1.41,.39-.39,1.02-.39,1.41,0l1.41,1.41,1.41-1.41c.39-.39,1.02-.39,1.41,0,.39,.39,.39,1.02,0,1.41l-1.41,1.41,1.41,1.41Z" style="fill:#d6565a; fill-rule:evenodd;"/><path d="M9.14,18.43c-.08-.47-.14-.94-.14-1.43,0-.31,.02-.62,.06-.93l-1.06,.64s0-1.72,0-3.72c0-6-6-4.47-6-9.47V2h14v1.41c0,5-6,3.59-6,9.59v.13c.78-1.41,1.98-2.55,3.42-3.28,1.77-1.49,4.58-2.07,4.58-6.85V1S18,0,17.01,0H1S0,0,0,1v2C0,10,6,8,6,13v7l3.14-1.57Z" style="fill:#0089d9; fill-rule:evenodd;"/><path d="M0,0H24V24H0V0Z" style="fill:none; fill-rule:evenodd; opacity:0;"/></svg>