<?xml version="1.0" encoding="UTF-8"?><svg id="kr" xmlns="http://www.w3.org/2000/svg" width="24" height="24" viewBox="0 0 24 24"><g id="ks"><path d="M21,2.5c0-.83-.67-1.5-1.5-1.5s-1.5,.67-1.5,1.5v2.5h3V2.5ZM5,2.5c0-.83-.67-1.5-1.5-1.5s-1.5,.67-1.5,1.5V7h3V2.5ZM2,21.5c0,.83,.67,1.5,1.5,1.5s1.5-.67,1.5-1.5v-7.5H2v7.5ZM13,2.5c0-.83-.67-1.5-1.5-1.5s-1.5,.67-1.5,1.5V12h3V2.5Zm5,19c0,.83,.67,1.5,1.5,1.5s1.5-.67,1.5-1.5V12h-3v9.5ZM6,8H1C.45,8,0,8.45,0,9v3C0,12.55,.45,13,1,13H6c.55,0,1-.45,1-1v-3c0-.55-.45-1-1-1Zm-4,4H1v-3h1v3Zm2,0h-1v-3h1v3Zm2,0h-1v-3h1v3Zm16-6h-5c-.55,0-1,.45-1,1v3c0,.55,.45,1,1,1h5c.55,0,1-.45,1-1v-3c0-.55-.45-1-1-1Zm-4,4h-1v-3h1v3Zm2,0h-1v-3h1v3Zm2,0h-1v-3h1v3Zm-12,11.5c0,.83,.67,1.5,1.5,1.5s1.5-.67,1.5-1.5v-2.5h-3v2.5Zm4-8.5h-5c-.55,0-1,.45-1,1v3c0,.55,.45,1,1,1h5c.55,0,1-.45,1-1v-3c0-.55-.45-1-1-1Zm-4,4h-1v-3h1v3Zm2,0h-1v-3h1v3Zm2,0h-1v-3h1v3Z" style="fill:#0089d9; fill-rule:evenodd;"/></g></svg>