<?xml version="1.0" encoding="UTF-8"?><svg id="b" xmlns="http://www.w3.org/2000/svg" width="24" height="24" viewBox="0 0 24 24"><rect id="c" x="0" width="24" height="24" style="fill:#fff; opacity:0;"/><g id="d"><path d="M12.81,7.43c0-.24-.2-.44-.44-.44s-.44,.2-.44,.44,.2,.44,.44,.44,.44-.2,.44-.44Zm-.88,13.12c0,.24,.2,.44,.44,.44s.44-.2,.44-.44-.2-.44-.44-.44-.44,.2-.44,.44Zm-6.94-6.81c0,.24,.2,.44,.44,.44s.44-.2,.44-.44-.2-.44-.44-.44-.44,.2-.44,.44Zm13.88,0c0-.24-.2-.44-.44-.44s-.44,.2-.44,.44,.2,.44,.44,.44,.44-.2,.44-.44Zm-10.13-4.99c.21-.12,.28-.39,.16-.6-.12-.21-.39-.28-.6-.16-.21,.12-.28,.39-.16,.6,.12,.21,.39,.28,.6,.16Zm6.57,10.61c-.23,.13-.3,.42-.17,.65,.13,.23,.42,.3,.65,.17,.23-.13,.3-.42,.17-.65s-.42-.3-.65-.17Zm-9.16-2.37c-.21,.12-.28,.39-.16,.6,.12,.21,.39,.28,.6,.16,.21-.12,.28-.39,.16-.6-.12-.21-.39-.28-.6-.16Zm11.65-6.02c.21-.12,.28-.39,.16-.6-.12-.21-.39-.28-.6-.16-.21,.12-.28,.39-.16,.6,.12,.21,.39,.28,.6,.16Zm-.3,6.99c.23,.13,.52,.05,.65-.17s.05-.52-.17-.65c-.23-.13-.52-.05-.65,.17-.13,.23-.05,.52,.17,.65Zm-9.17,1.5c-.12,.21-.05,.48,.16,.6,.21,.12,.48,.05,.6-.16,.12-.21,.05-.48-.16-.6-.21-.12-.48-.05-.6,.16Zm4.34-6.31c-.05-.04-.11-.07-.17-.1l-5.71-2.61c-.04-.08-.09-.15-.17-.19-.21-.12-.48-.05-.6,.16s-.05,.48,.16,.6c.06,.03,.12,.05,.18,.05l5.13,3.72c.45,.33,1.08,.23,1.4-.22,.33-.45,.23-1.08-.22-1.4Zm9.29-.03c-.04-.55-.52-.97-1.08-.91-.55,.04-.96,.53-.91,1.08,.19,2.27-.55,4.44-2.08,6.1-1.51,1.64-3.66,2.58-5.89,2.58-4.41,0-8-3.59-8-8S7.59,5.96,12,5.96c1.96,0,3.83,.73,5.28,2h-1.28c-.55,0-1,.45-1,1s.45,1,1,1h4c.55,0,1-.45,1-1V4.96c0-.55-.45-1-1-1s-1,.45-1,1v1.88c-1.75-1.72-4.08-2.75-6.56-2.86,.91-.2,1.6-1,1.6-1.95C14.05,.94,13.13,.04,12,.04s-2.05,.9-2.05,2c0,.95,.68,1.74,1.59,1.94-1.67,.08-3.23,.56-4.59,1.36,.03-.09,.06-.19,.06-.29,0-.56-.46-1.01-1.03-1.01s-1.03,.45-1.03,1.01,.42,.95,.95,.99c-2.37,1.83-3.91,4.69-3.91,7.91,0,5.51,4.49,10,10,10,2.79,0,5.47-1.18,7.36-3.23,1.91-2.08,2.84-4.79,2.6-7.62ZM10.91,2.04c0-.59,.49-1.07,1.09-1.07s1.09,.48,1.09,1.07-.49,1.07-1.09,1.07-1.09-.48-1.09-1.07Z" style="fill:#f28d00;"/></g></svg>