<svg width="53" height="24" viewBox="0 0 53 24" fill="none" xmlns="http://www.w3.org/2000/svg">
<g clip-path="url(#clip0_5_14122)">
<path fill-rule="evenodd" clip-rule="evenodd" d="M23.6 10.9C24.4 10.2 24 8.8 22.9 8.7C22.8 8.7 16 8.1 15.9 8C15.8 7.9 13.2 1.8 13.1 1.6C12.9 1.2 12.5 1 12 1C11.5 1 11.1 1.2 10.9 1.7C10.9 1.8 8.20002 8 8.10002 8.1C8.00002 8.2 1.20002 8.7 1.10002 8.7C1.65701e-05 8.8 -0.399983 10.2 0.400017 10.9C0.500017 11 5.60002 15.4 5.60002 15.5C5.60002 15.6 4.10002 22.1 4.10002 22.3C3.90002 23.3 5.00002 24.2 6.00002 23.6C6.10002 23.5 11.9 20.1 12 20.1C12.1 20.1 17.9 23.6 18 23.6C18.9 24.2 20.1 23.3 19.9 22.3C19.9 22.2 18.3 15.7 18.4 15.5C18.4 15.4 23.5 11 23.6 10.9ZM18.1 21.7C12.6 18.4 12.4 18.4 12 18.4C11.6 18.4 11.4 18.4 5.90002 21.7C7.40002 15.4 7.40002 15.4 7.20002 14.9C7.10002 14.5 7.00002 14.4 2.20002 10.2C8.50002 9.8 8.70002 9.6 9.00002 9.4C9.20002 9.3 9.50002 8.9 12 2.9V3.2C14.5 9.1 14.6 9.2 15 9.5C15.3 9.7 15.5 9.9 21.9 10.3C17 14.4 17 14.6 16.8 15C16.6 15.4 16.6 15.4 18.1 21.7ZM5.00002 10.5C6.20002 12 6.90002 12.8 8.10002 13.9C8.60002 14.3 9.30002 13.2 8.90002 12.7C7.70002 12.1 6.80002 11.4 5.00002 10.5Z" fill="#0089D9"/>
<path fill-rule="evenodd" clip-rule="evenodd" d="M52.6 10.9C53.4 10.2 53 8.8 51.9 8.7C51.8 8.7 45 8.1 44.9 8C44.8 7.9 42.2 1.8 42.1 1.6C41.9 1.2 41.5 1 41 1C40.5 1 40.1 1.2 39.9 1.7C39.9 1.8 37.2 8 37.1 8.1C37 8.2 30.3 8.7 30.1 8.8C29 8.9 28.6 10.3 29.4 11C29.5 11.1 34.6 15.5 34.6 15.6C34.6 15.7 33.1 22.2 33.1 22.4C32.9 23.4 34 24.3 35 23.7C35.1 23.6 40.9 20.2 41 20.2C41.1 20.2 46.9 23.7 47 23.7C47.9 24.3 49.1 23.4 48.9 22.4C48.9 22.3 47.3 15.8 47.4 15.6C47.4 15.4 52.5 11 52.6 10.9ZM36.2 14C35 12.9 34.4 12.1 33.1 10.6C34.9 11.4 35.8 12.1 37 12.8C37.4 13.4 36.7 14.4 36.2 14Z" fill="#0089D9"/>
</g>
<defs>
<clipPath id="clip0_5_14122">
<rect width="169" height="24" fill="white"/>
</clipPath>
</defs>
</svg>
