<svg width="24" height="24" viewBox="0 0 24 24" fill="none" xmlns="http://www.w3.org/2000/svg">
<path d="M11.5 12C11.4 11.6 11.3 10.9 10.2 9.9C7.3 6.7 6.6 5.2 7.1 2H16.9C17.5 5.2 16.7 6.7 13.8 9.9C12.8 10.9 12.6 11.6 12.6 12C13.6 12 14.2 12 14.6 12C14.6 11.6 15.3 10.9 15.3 10.9C18.7 8.3 19.4 5.1 19 2H20.2C20.6 2 21 1.6 21 1C21 0.4 20.6 0 20.1 0H3.9C3.4 0 3 0.4 3 1C3 1.6 3.4 2 3.9 2H5.1C4.7 5.1 5.3 8.3 8.8 10.9C8.8 10.9 9.5 11.6 9.5 12C9.8 12 10.5 12 11.5 12ZM19.9 22H18.9C19.3 18.9 18.7 15.7 15.2 13.1C15.2 13.1 14.5 12.4 14.5 12C14.1 12 13.5 12 12.5 12C12.6 12.4 12.7 13.1 13.7 14.1C16.6 17.2 17.4 18.8 16.8 22H7.1C6.5 18.8 7.3 17.3 10.2 14.1C11.2 13.1 11.4 12.4 11.5 12C10.5 12 9.9 12 9.5 12C9.5 12.4 8.8 13.1 8.8 13.1C5.4 15.7 4.7 18.9 5.1 22H3.9C3.4 22 3 22.4 3 23C3 23.6 3.4 24 3.9 24H19.9C20.5 24 21 23.6 21 23C21 22.4 20.5 22 19.9 22ZM8.3 3C7.5 3 8.2 5.7 9.7 7.3C9.2 5.8 9.7 3 8.3 3ZM8.3 21C9.7 21 9.2 18.2 9.7 16.7C8.2 18.3 7.5 21 8.3 21Z" fill="#0089D9"/>
</svg>
