<svg width="24" height="24" viewBox="0 0 24 24" fill="none" xmlns="http://www.w3.org/2000/svg">
<path fill-rule="evenodd" clip-rule="evenodd" d="M18 3H19V6H21V1H16V3L18 4V3ZM20 13C19.4 13 19 13.4 19 14V22H16V16C16 15.4 15.6 15 15 15H9C8.5 15 8 15.4 8 16V22H5V14C5 13.4 4.6 13 4 13C3.4 13 3 13.4 3 14V23C3 23.6 3.4 24 4 24H9C9.6 24 10 23.6 10 23V17H14V23C14 23.6 14.4 24 15 24H20C20.6 24 21 23.6 21 23V14C21 13.4 20.6 13 20 13ZM23.7 12.3L12.7 1.3C12.5 1.1 12.3 1 12 1C11.7 1 11.5 1.1 11.3 1.3L0.3 12.3C0.1 12.5 0 12.7 0 13C0 13.3 0.1 13.5 0.3 13.7C0.7 14.1 1.3 14.1 1.7 13.7L12 3.4L22.3 13.7C22.7 14.1 23.3 14.1 23.7 13.7C23.9 13.5 24 13.2 24 13C24 12.8 23.9 12.5 23.7 12.3Z" fill="#0089D9"/>
</svg>
