<svg width="24" height="24" viewBox="0 0 24 24" fill="none" xmlns="http://www.w3.org/2000/svg">
<g clip-path="url(#clip0_5_12792)">
<path fill-rule="evenodd" clip-rule="evenodd" d="M12.2 13.6L18 13C18.2 13 18.4 12.8 18.5 12.6C18.5 12.3 18.3 12.1 18.1 12C18 12 14.5 11.6 12.6 11.4L12 5C12 4.8 11.8 4.6 11.5 4.5C11.3 4.5 11 4.7 11 5C11 5.1 10.6 9.9 10.4 11.8C10.2 12.2 10.2 12.8 10.5 13.2C10.9 13.8 11.6 13.9 12.2 13.6ZM2.6 3.7L0 1.1V9H8L5.3 6.3C9.4 1.6 15.8 2.3 19.1 5.5C24.4 10.5 21.7 19.8 14.7 21.8C9.2 23.4 3.4 20.4 2.1 14H0.1C2.3 24.2 13.6 26.9 20.2 20.6C31.5 9.3 15 -7.5 2.6 3.7Z" fill="#0089D9"/>
</g>
<defs>
<clipPath id="clip0_5_12792">
<rect width="140" height="24" fill="white"/>
</clipPath>
</defs>
</svg>
