<?xml version="1.0" encoding="UTF-8"?><svg id="pc" xmlns="http://www.w3.org/2000/svg" width="24" height="24" viewBox="0 0 24 24"><g id="pd"><circle cx="12" cy="4" r="3" style="fill:none; stroke:#0089d9; stroke-miterlimit:10; stroke-width:2px;"/><path d="M21.14,23H2.86c-1.02,0-1.86-.84-1.86-1.86l3-12.28c0-1.02,.84-1.86,1.86-1.86h12.28c1.02,0,1.86,.84,1.86,1.86l3,12.28c0,1.02-.84,1.86-1.86,1.86Z" style="fill:none; fill-rule:evenodd; stroke:#0089d9; stroke-miterlimit:10; stroke-width:2px;"/><g><path d="M6,11h1.58v3.55h.03c.16-.3,.32-.58,.48-.86l1.61-2.69h1.96l-2.34,3.42,2.47,4.58h-1.87l-1.73-3.46-.61,.83v2.64h-1.58V11Z" style="fill:#0089d9;"/><path d="M18,18.56c-.49,.19-1.43,.44-2.36,.44-1.29,0-2.22-.36-2.87-1.06-.65-.68-1.01-1.7-1-2.85,.01-2.61,1.72-4.09,4.04-4.09,.91,0,1.62,.2,1.96,.38l-.34,1.42c-.39-.19-.87-.34-1.65-.34-1.33,0-2.34,.84-2.34,2.53s.91,2.57,2.22,2.57c.37,0,.66-.05,.79-.12v-1.64h-1.09v-1.38h2.63v4.13Z" style="fill:#0089d9;"/></g></g></svg>