<svg width="24" height="24" viewBox="0 0 24 24" fill="none" xmlns="http://www.w3.org/2000/svg">
<g clip-path="url(#clip0_5_12689)">
<path fill-rule="evenodd" clip-rule="evenodd" d="M23 0.999998H5.00001C4.86482 0.983917 4.72774 0.998719 4.59909 1.04329C4.47045 1.08786 4.35359 1.16103 4.25732 1.2573C4.16105 1.35357 4.08787 1.47043 4.0433 1.59908C3.99873 1.72772 3.98393 1.8648 4.00001 2V6C3.98393 6.13519 3.99873 6.27227 4.0433 6.40092C4.08787 6.52956 4.16105 6.64642 4.25732 6.74269C4.35359 6.83896 4.47045 6.91214 4.59909 6.95671C4.72774 7.00128 4.86482 7.01608 5.00001 7V13H7.00001V6H21V14H23V7C23.1352 7.01608 23.2723 7.00128 23.4009 6.95671C23.5296 6.91214 23.6464 6.83896 23.7427 6.74269C23.839 6.64642 23.9122 6.52956 23.9567 6.40092C24.0013 6.27227 24.0161 6.13519 24 6V2C24.0161 1.8648 24.0013 1.72772 23.9567 1.59908C23.9122 1.47043 23.839 1.35357 23.7427 1.2573C23.6464 1.16103 23.5296 1.08786 23.4009 1.04329C23.2723 0.998719 23.1352 0.983917 23 0.999998V0.999998ZM22 5H6.00001V3H22V5ZM21.6 16C20.1109 17.0577 18.5391 17.994 16.9 18.8C15.6 18.7 13 19 11 18C12.6572 18.2509 14.3428 18.2509 16 18C19.6 16.4 17.8 14.8 15.4 15C14.0221 15.3513 12.578 15.3513 11.2 15C5.80001 13.1 4.60001 14.6 3.00001 15C3.01609 14.8648 3.00129 14.7277 2.95672 14.5991C2.91215 14.4704 2.83898 14.3536 2.74271 14.2573C2.64644 14.161 2.52958 14.0879 2.40093 14.0433C2.27229 13.9987 2.13521 13.9839 2.00001 14H1.00001C0.864819 13.9839 0.727738 13.9987 0.599092 14.0433C0.470446 14.0879 0.353588 14.161 0.257317 14.2573C0.161047 14.3536 0.0878719 14.4704 0.043303 14.5991C-0.00126591 14.7277 -0.0160674 14.8648 1.31121e-05 15V20C-0.0160674 20.1352 -0.00126591 20.2723 0.043303 20.4009C0.0878719 20.5296 0.161047 20.6464 0.257317 20.7427C0.353588 20.839 0.470446 20.9121 0.599092 20.9567C0.727738 21.0013 0.864819 21.0161 1.00001 21H2.00001C2.25112 20.9607 2.48326 20.8427 2.66298 20.663C2.84269 20.4832 2.96071 20.2511 3.00001 20C3.30001 19.9 3.50001 20.1 3.80001 20.1C6.20001 20.4 8.20001 22.2 13.1 23L19 22C20.7 20.5 21.6 19.2 23.5 17.8C25.4 16.4 23.4 15.1 21.6 16Z" fill="#0089D9"/>
</g>
<defs>
<clipPath id="clip0_5_12689">
<rect width="140" height="24" fill="white"/>
</clipPath>
</defs>
</svg>
