<?xml version="1.0" encoding="UTF-8"?><svg id="lc" xmlns="http://www.w3.org/2000/svg" width="24" height="24" viewBox="0 0 24 24"><path d="M22,23v-3c0-.55-.45-1-1-1h-3c-.55,0-1,.45-1,1v1h-4v-3h1c.55,0,1-.45,1-1v-3c0-.55-.45-1-1-1h-3c-.55,0-1,.45-1,1v1H4.91c-.15-.42-.48-.76-.91-.91v-4.18c.42-.15,.76-.48,.91-.91h5.09v1c0,.55,.45,1,1,1h3c.55,0,1-.45,1-1v-3c0-.55-.45-1-1-1h-3c-.55,0-1,.45-1,1v1H4.91c-.15-.42-.48-.76-.91-.91v-2.09h1c.55,0,1-.45,1-1V1C6,.45,5.55,0,5,0H2C1.45,0,1,.45,1,1V4c0,.55,.45,1,1,1h1v2.09c-.58,.21-1,.76-1,1.41s.42,1.2,1,1.41v4.18c-.58,.21-1,.76-1,1.41s.42,1.2,1,1.41v3.18c-.58,.21-1,.76-1,1.41,0,.83,.67,1.5,1.5,1.5s1.5-.67,1.5-1.5c0-.65-.42-1.2-1-1.41v-3.18c.42-.15,.76-.48,.91-.91h5.09v1c0,.55,.45,1,1,1h1v4h5v1c0,.55,.45,1,1,1h3c.55,0,1-.45,1-1Z" style="fill:#0089d9; fill-rule:evenodd;"/></svg>