<?xml version="1.0" encoding="UTF-8"?><svg id="y" xmlns="http://www.w3.org/2000/svg" width="24" height="24" viewBox="0 0 24 24"><path d="M2.94,1c0,.55,.45,1,1,1h1.15c-.43,3.11,.23,6.33,3.66,8.92,0,0,.66,.71,.69,1.08-.03,.37-.69,1.08-.69,1.08-3.42,2.59-4.08,5.81-3.66,8.92h-1.15c-.55,0-1,.45-1,1s.45,1,1,1h16c.55,0,1.06-.45,1.06-1s-.51-1-1.06-1h-1.03c.43-3.11-.23-6.33-3.66-8.92,0,0-.66-.71-.69-1.08,.03-.37,.69-1.08,.69-1.08,3.42-2.59,4.08-5.81,3.66-8.92h1.15c.55,0,.94-.45,.94-1S20.61,0,20.06,0H3.94c-.55,0-1,.45-1,1Zm13.68,17h-7.12c-.16,1.42-.15,3.01-1.18,3.01-.64,0-.35-1.58,.48-3.01h-1.41c.49-1.16,1.4-2.33,2.83-3.88,1.03-1,1.16-1.69,1.25-2.12h1.06c.09,.44,.22,1.13,1.25,2.12,1.44,1.55,2.34,2.71,2.83,3.88Zm-7.18-6c.34-.01,.84,0,1.56,0h.16c-.81,0-1.36,.02-1.72,0Zm3.4,0h.17c.72,0,1.22-.01,1.56,0-.36,.02-.91,0-1.72,0ZM7.1,2h9.8c.36,2.05,.15,3.43-.81,5h-6.42c-.39-1.54-.06-4.01-1.34-4.01-.8,0-.15,2.46,1.18,4.01h-1.59c-.97-1.57-1.17-2.95-.81-5Z" style="fill:#0089d9; fill-rule:evenodd;"/></svg>