<?xml version="1.0" encoding="UTF-8"?><svg id="r" xmlns="http://www.w3.org/2000/svg" width="24" height="24" viewBox="0 0 24 24"><path d="M23.19,.02c-.47-.1-.94,.17-1.13,.61q-1.45,3.35-6.39,3.37h-7.33c-1.77,0-3.41,1.31-4.04,3H1C.45,7,0,7.43,0,7.98s.45,1.02,1,1.02h3.06c.21,1.67,1.43,3.13,2.94,3.7v-2.28c-.44-.37-.78-.88-.93-1.43H15c.3-.01,.74,.03,1,.28,.16,.16,.24,.39,.24,.7,0,0,0,.01,0,.02h.77v2.32c.72-.53,1.2-1.34,1.23-2.26,2.45,.18,2.7,.75,3.86,3.33,.16,.37,.52,.59,.91,.59,.07,0,.14,0,.21-.02,.46-.1,.79-.51,.79-.98V.98c0-.47-.34-.86-.81-.96Zm-1.19,9.33c-.93-.9-2.18-1.22-4.46-1.33-.05-.05-.08-.11-.13-.16-.41-.41-1.13-.86-2.41-.86H6.57c.45-.58,1.12-1,1.76-1h7.33c3.58,0,5.21-.13,6.33-1.25v4.6Zm-7,.65h-6c-.54,0-.97,.41-.99,.95h0v12.05c0,.37,.2,.71,.53,.88,.32,.17,.72,.15,1.03-.05l2.45-1.63,2.45,1.63c.17,.11,.36,.17,.55,.17,.16,0,.32-.04,.47-.12,.33-.17,.53-.51,.53-.88V10.54s-.04,.07-.07,.1c-.15-.37-.5-.63-.93-.63Zm-1,11.13l-1.45-.96c-.17-.11-.36-.16-.55-.16s-.39,.05-.55,.16l-1.45,.96V12h4v9.13Z" style="fill:#0089d9; fill-rule:evenodd;"/></svg>