<?xml version="1.0" encoding="UTF-8"?><svg id="z" xmlns="http://www.w3.org/2000/svg" width="24" height="24" viewBox="0 0 24 24"><path d="M8.32,2.99c-.84,0-.07,2.75,1.42,4.26-.51-1.5-.06-4.26-1.42-4.26Zm3.15,9.01c-.09-.44-.22-1.13-1.25-2.12-2.92-3.14-3.67-4.71-3.12-7.87h9.8c.55,3.16-.2,4.74-3.12,7.87-1.03,1-1.16,1.69-1.25,2.12,1,0,1.62-.02,2.03,0,.03-.37,.69-1.08,.69-1.08,3.42-2.59,4.08-5.81,3.66-8.92h1.15c.55,0,.94-.45,.94-1S20.61,0,20.06,0H3.94c-.55,0-1,.45-1,1s.45,1,1,1h1.15c-.43,3.11,.23,6.33,3.66,8.92,0,0,.66,.71,.69,1.08,.41-.02,1.03,0,2.03,0Zm8.47,10h-1.03c.43-3.11-.23-6.33-3.66-8.92,0,0-.66-.71-.69-1.08-.41,.02-1.03,0-2.03,0,.09,.42,.22,1.07,1.13,2h-3.32c.91-.93,1.04-1.58,1.13-2-1,0-1.62,.02-2.03,0-.03,.37-.69,1.08-.69,1.08-3.42,2.59-4.08,5.81-3.66,8.92h-1.15c-.55,0-1,.45-1,1s.45,1,1,1h16c.55,0,1.06-.45,1.06-1s-.51-1-1.06-1Zm-11.62-.99c-.84,0-.07-2.75,1.42-4.26-.51,1.5-.06,4.26-1.42,4.26Z" style="fill:#0089d9; fill-rule:evenodd;"/></svg>