<?xml version="1.0" encoding="UTF-8"?><svg id="pm" xmlns="http://www.w3.org/2000/svg" width="24" height="24" viewBox="0 0 24 24"><path d="M23,14.49c0-1.24-.8-2.21-2-2.49h0v-3c0-2.42-.54-4.73-2.32-6.41C16.92,.92,14.52,0,12,0c-2.52,0-4.83,.92-6.59,2.59-1.77,1.68-2.41,4-2.41,6.41v3c-1.2,.28-2,1.24-2,2.48,0,1.24,.8,2.24,2,2.52h0c0,1.55,1.03,3.05,2.59,3,.79,0,1.41-.15,1.41-1V10c0-.84-.61-1-1.39-1-.64,0-1.18,.24-1.61,.62v-.62c0-4.61,3.15-8,8-8h0c4.86,0,8,3.39,8,8v.63c-.43-.38-.97-.63-1.61-.63-.78,0-1.39,.16-1.39,1v9c0,.85,.63,1,1.41,1,.36,.01,.69-.06,.98-.2-.75,1.43-2.2,2.2-4.4,2.2v.48c0-.84-.66-1.48-1.49-1.48h-3.01c-.83,0-1.49,.64-1.49,1.49s.66,1.51,1.5,1.51h3.01c.83,0,1.49-.65,1.49-1.49v.49c3.53,0,6-2.59,6-6h0c1.2-.28,2-1.27,2-2.51Zm-4.62-5.49h0Zm-12.79,0h0Z" style="fill:#0089d9; fill-rule:evenodd;"/></svg>