<svg width="24" height="24" viewBox="0 0 24 24" fill="none" xmlns="http://www.w3.org/2000/svg">
<g clip-path="url(#clip0_5_12955)">
<path fill-rule="evenodd" clip-rule="evenodd" d="M23.2 2.81632e-06C22.7 -0.0999972 22.3 0.200003 22.1 0.600003C20.6 4 20.6 4 15.7 4H8.3C6.5 4 4.9 5.3 4.3 7H1C0.4 7 0 7.4 0 8C0 8.6 0.4 9 1 9H4.1C4.3 10.7 5.5 12.1 7 12.7V10.4C6.6 10.1 6.2 9.5 6.1 9H15C15.3 9 15.7 9 16 9.3C16.2 9.5 16.2 9.7 16.2 10H17V12.3C17.7 11.8 18.2 11 18.2 10C20.6 10.2 20.9 10.7 22.1 13.3C22.3 13.7 22.6 13.9 23 13.9C23.1 13.9 23.1 13.9 23.2 13.9C23.7 13.8 24 13.4 24 12.9V1C24 0.500003 23.7 0.100003 23.2 2.81632e-06ZM22 9.4C21.1 8.5 19.8 8.2 17.5 8.1C17.5 8 17.4 8 17.4 7.9C17 7.5 16.3 7 15 7H6.6C7 6.4 7.7 6 8.3 6H15.6C19.2 6 20.8 5.9 21.9 4.8V9.4H22ZM15 10H9C8.5 10 8 10.4 8 10.9V23C8 23.4 8.2 23.7 8.5 23.9C8.8 24.1 9.2 24.1 9.5 23.9L11.9 22.3L14.3 23.9C14.5 24 14.7 24.1 14.9 24.1C15.1 24.1 15.2 24.1 15.4 24C15.7 23.8 15.9 23.5 15.9 23.1V10.5C15.9 10.5 15.9 10.6 15.8 10.6C15.8 10.3 15.4 10 15 10ZM14 21.1L12.6 20.1C12.4 20.1 12.2 20 12 20C11.8 20 11.6 20.1 11.4 20.2L10 21.2V12H14V21.1Z" fill="#0089D9"/>
</g>
<defs>
<clipPath id="clip0_5_12955">
<rect width="140" height="24" fill="white"/>
</clipPath>
</defs>
</svg>
