<?xml version="1.0" encoding="UTF-8"?><svg id="x" xmlns="http://www.w3.org/2000/svg" width="24" height="24" viewBox="0 0 24 24"><path d="M8.32,21.01c1.36,0,.91-2.76,1.42-4.26-1.49,1.52-2.26,4.26-1.42,4.26Zm11.62,.99h-1.03c.43-3.11-.23-6.33-3.66-8.92,0,0-.66-.71-.69-1.08,.03-.37,.69-1.08,.69-1.08,3.42-2.59,4.08-5.81,3.66-8.92h1.15c.55,0,.94-.45,.94-1S20.61,0,20.06,0H3.94c-.55,0-1,.45-1,1s.45,1,1,1h1.15c-.43,3.11,.23,6.33,3.66,8.92,0,0,.66,.71,.69,1.08-.03,.37-.69,1.08-.69,1.08-3.42,2.59-4.08,5.81-3.66,8.92h-1.15c-.55,0-1,.45-1,1s.45,1,1,1h16c.55,0,1.06-.45,1.06-1s-.51-1-1.06-1ZM8.28,3h-1.31c.03-.32,.07-.65,.13-1h9.8c.06,.35,.1,.68,.13,1H8.38c1.27,.09,.85,2.78,1.35,4.26-1.46-1.49-2.23-4.16-1.45-4.26Zm6.28,9c-.36,.02-.91,0-1.72,0h.17c.72,0,1.22-.02,1.56,0Zm-3.4,0c-.81,0-1.36,.01-1.72,0,.34-.01,.84,0,1.56,0h.16Zm5.74,10H7.1c-.55-3.17,.2-4.74,3.12-7.88,1.03-1,1.16-1.69,1.25-2.12h1.06c.09,.44,.22,1.13,1.25,2.12,2.92,3.14,3.67,4.71,3.12,7.88Z" style="fill:#0089d9; fill-rule:evenodd;"/></svg>