<svg width="53" height="24" viewBox="0 0 53 24" fill="none" xmlns="http://www.w3.org/2000/svg">
<path fill-rule="evenodd" clip-rule="evenodd" d="M41 0C34.4 0 29 5.4 29 12C29 18.6 34.4 24 41 24C47.6 24 53 18.6 53 12C53 5.4 47.6 0 41 0ZM40.1 16V18H41.9V16H40.1ZM37.3 10C37.5 8.00001 38.7 6.10001 41 6.00001C43 5.90001 44.7 7.5 44.7 9.5C44.7 11.1 44 11.8 43 12.6C42.4 13.1 41.8 13.7 41.8 14.9H40.1C40.1 13.4 41.1 12.2 42.1 11.4C42.6 11 43 10.5 43 9.8C43 8.70001 42.2 7.60001 40.9 7.60001C39 7.70001 38.9 10 38.9 10H37.3Z" fill="#0089D9"/>
<path d="M12 0C5.4 0 0 5.4 0 12C0 18.6 5.4 24 12 24C18.6 24 24 18.6 24 12C24 5.4 18.6 0 12 0ZM12 22C6.5 22 2 17.5 2 12C2 6.5 6.5 2 12 2C17.5 2 22 6.5 22 12C22 17.5 17.5 22 12 22Z" fill="#0089D9"/>
<path d="M12.9 16H11.1V18H12.9V16Z" fill="#0089D9"/>
<path d="M12 6.00001C9.69999 6.10001 8.49999 8.00001 8.29999 10H9.99999C9.99999 10 10.1 7.70001 12 7.60001C13.3 7.60001 14.1 8.70001 14.1 9.80001C14.1 10.5 13.7 11 13.2 11.4C12.2 12.2 11.2 13.4 11.2 14.9H12.9C12.9 13.7 13.5 13.1 14.1 12.6C15.1 11.8 15.8 11.1 15.8 9.50001C15.7 7.50001 14 5.90001 12 6.00001Z" fill="#0089D9"/>
</svg>
