<?xml version="1.0" encoding="UTF-8"?><svg id="v" xmlns="http://www.w3.org/2000/svg" width="24" height="24" viewBox="0 0 24 24"><path d="M2.19,10c-.12-.59-.19-1.25-.19-2,0-3.79,3.45-6.42,6.86-4h1.14l.3,1.36c.59,.7,1.16,1.57,1.7,2.64C17,0,22,3,22,8c0,1.21-.17,2.17-.48,3h1.99c.31-.91,.49-1.89,.49-3,0-7-8-10-12-3C8-2,0,1,0,8c0,.72,.08,1.37,.21,2h1.97Zm13.81-2h-2l-2,9-3-12h-2l-2,6H0v1H6l2-6,3,12h2l2-9,2.03,4h6.97v-1h-6l-2-4Zm-1.96,10.79l-.04,.21h-.16c-.59,.6-1.2,1.25-1.84,2-.64-.75-1.25-1.4-1.84-2h-.16l-.05-.21c-2.73-2.74-4.9-4.14-6.29-5.79H1.44c2.13,3.44,6.34,6.08,10.56,11,3.8-4.44,7.6-7.02,9.88-10h-2.5c-1.35,1.28-3.17,2.61-5.34,4.79Z" style="fill:#0089d9; fill-rule:evenodd;"/></svg>