<?xml version="1.0" encoding="UTF-8"?><svg id="bi" xmlns="http://www.w3.org/2000/svg" width="24" height="24" viewBox="0 0 24 24"><path d="M3.99,18.65c1.44-.97,3.2-2.19,4-2.81,0,0,.08-.12,.15-.33,.04-.21,.08-.42,.13-.64,.04-.44-.02-.99-.35-1.63-.23-.45-.8-.81-.84-1.79-.03-.57-.37-1.3-.92-1.43-.26-.2-.54-1.31-.45-1.75,.86,.09,1.08-.94,.83-1.57-1.89-4.68,3.84-5.97,5.08-3.16,1.44-.62,2.08,1.94,.95,3.17-.54,1.04,.79,1.56,.79,1.56,.03,.14,.05,.31,.06,.49,.66-.29,1.34-.49,2.03-.61-.14-.53-.57-1.03-1.07-1.17,.36-.95,.61-.78,.61-2.27,0-1.1-.65-2.82-2.4-2.92-.64-1.13-1.93-1.8-3.46-1.8-2.49,0-5.06,1.76-5.06,4.72,0,1.24,.23,1.34,.58,2.27-.56,.16-1.13,.76-1.16,1.35-.05,1.03,.78,2.89,1.87,3.15,.05,.96,.38,1.71,1.04,2.36,.09,.18,.07,.66,.01,.94-.29-.04-.55,.04-.78,.24-.79,.71-3.66,2.4-5.14,3.35-.06,.06-.07,.13-.04,.21-.26,.25-.42,.5-.42,.69,0,1.14,4.38,1.71,8.94,1.75-.3-.61-.53-1.24-.69-1.89-1.64-.05-3.19-.22-4.28-.49Zm17.97-6.64c-2.73-2.73-7.17-2.73-9.9,0-2.73,2.73-2.73,7.17,0,9.9,2.73,2.73,7.17,2.73,9.9,0,2.73-2.73,2.73-7.17,0-9.9Zm-1.26,8.7c-.39,.39-1.02,.39-1.41,0l-4.26-4.26v2.46c0,.6-.45,1.09-1.01,1.09s-1.01-.49-1.01-1.09v-4.82s0-.03,0-.05c0-.01,0-.03,0-.04,0-.25,.11-.47,.27-.64,.01-.01,.02-.03,.03-.05,.03-.03,.07-.05,.1-.07,.17-.14,.37-.24,.61-.24,.01,0,.02,0,.04,0,.02,0,.03,0,.04,0h4.82c.6,0,1.09,.45,1.09,1s-.49,1-1.09,1h-2.51l4.3,4.3c.39,.39,.39,1.02,0,1.41ZM11.26,3.72c-1.51,1.07-3.47,.05-4.39,2.4,1.3-1.45,3.66,.88,4.14-.65,.26,.84,1.09,.07,1.66,.56-.3-1.53-1.3-1.58-1.4-2.32Z" style="fill:#0089d9; fill-rule:evenodd;"/></svg>