<svg width="24" height="24" viewBox="0 0 24 24" fill="none" xmlns="http://www.w3.org/2000/svg">
<path fill-rule="evenodd" clip-rule="evenodd" d="M6.5 6H11.5C11.6326 6 11.7598 5.94732 11.8536 5.85355C11.9473 5.75979 12 5.63261 12 5.5C12 5.36739 11.9473 5.24021 11.8536 5.14645C11.7598 5.05268 11.6326 5 11.5 5H6.5C6.36739 5 6.24021 5.05268 6.14645 5.14645C6.05268 5.24021 6 5.36739 6 5.5C6 5.63261 6.05268 5.75979 6.14645 5.85355C6.24021 5.94732 6.36739 6 6.5 6ZM16 0.3V0H2V24H22V6.3L16 0.3ZM16 2.5L19.6 6H16V2.5ZM20 22H4V2H14V6V8H20V22ZM6 21H18V10H6V21ZM15 12H17V14H15V12ZM15 15H17V17H15V15ZM15 18H17V20H15V18ZM12 12H14V14H12V12ZM12 15H14V17H12V15ZM12 18H14V20H12V18ZM7 12H11V14H7V12ZM7 15H11V17H7V15ZM7 18H11V20H7V18ZM6.5 8H11.5C11.6326 8 11.7598 7.94732 11.8536 7.85355C11.9473 7.75979 12 7.63261 12 7.5C12 7.36739 11.9473 7.24021 11.8536 7.14645C11.7598 7.05268 11.6326 7 11.5 7H6.5C6.36739 7 6.24021 7.05268 6.14645 7.14645C6.05268 7.24021 6 7.36739 6 7.5C6 7.63261 6.05268 7.75979 6.14645 7.85355C6.24021 7.94732 6.36739 8 6.5 8V8Z" fill="#0089D9"/>
</svg>
