<?xml version="1.0" encoding="UTF-8"?><svg id="as" xmlns="http://www.w3.org/2000/svg" width="24" height="24" viewBox="0 0 24 24"><path d="M17,0H2V24H22V5L17,0Zm0,2h1l2,2.01v1h-3V2ZM4,22V2H15V7.01h5v15H4ZM12.09,10.09c.32,0,.89,.08,1.14,.59,.22,.46,.77,.65,1.23,.43,.46-.22,.65-.77,.43-1.23-.37-.76-1.05-1.3-1.89-1.52v-.36c0-.51-.49-1-1-1s-1,.42-1,.92v.49c-.65,.2-1.09,.53-1.36,.84-.42,.48-.62,1.1-.64,1.75,0,.17,.02,.35,.04,.53,.26,1.75,1.85,2.18,2.75,2.41,.05,.01,.09,.02,.13,.03,1.04,.29,1.16,.54,1.2,.83,.04,.31-.03,.6-.21,.81-.27,.31-.72,.37-1.06,.37-.32,0-.89-.08-1.14-.59-.22-.46-.77-.65-1.23-.43-.46,.22-.65,.77-.43,1.23,.38,.78,1.08,1.32,1.95,1.53v.49c0,.51,.49,.79,1,.79s1-.28,1-.79v-.57c.61-.2,1.04-.52,1.3-.82,.53-.61,.76-1.44,.64-2.28-.25-1.72-1.87-2.16-2.56-2.35-.02,0-.05-.01-.08-.02h-.02c-1.17-.3-1.4-.54-1.45-.91-.04-.31,.03-.6,.21-.81,.27-.31,.72-.37,1.06-.37Z" style="fill:#0089d9;"/></svg>