<?xml version="1.0" encoding="UTF-8"?><svg id="bh" xmlns="http://www.w3.org/2000/svg" width="24" height="24" viewBox="0 0 24 24"><path d="M11.33,10c.22-.18,.44-.34,.67-.49v-1.51h-2v2h1.33Zm-7.33,3h2v-2h-2v2Zm2,6v-2h2c0-.67,.08-1.34,.23-2H4v4H2V6h2v-2H12v2h2v2.51c.65-.23,1.32-.39,2-.46V4h-2V2h-5V0h-2V2H2v2H0V21H8.95c-.32-.64-.56-1.31-.71-2h-2.24Zm0-11h-2v2h2v-2Zm4,3v.34c.09-.12,.2-.23,.3-.34h-.3Zm11.95,1.04c-2.73-2.72-7.16-2.72-9.9,0-2.73,2.72-2.73,7.13,0,9.85,2.73,2.72,7.16,2.72,9.9,0,2.73-2.72,2.73-7.13,0-9.85Zm-1.26,8.64c-.39,.39-1.02,.39-1.41,0l-4.26-4.26v2.49c0,.6-.45,1.09-1.01,1.09s-1.01-.49-1.01-1.09v-4.81s0-.03,0-.05c0-.02,0-.03,0-.04,0-.26,.11-.49,.29-.67h0c.04-.05,.1-.08,.15-.12,.07-.05,.14-.1,.22-.13,.02,0,.04,0,.05-.01,.09-.03,.19-.06,.29-.06,0,0,.02,0,.02,0,.02,0,.04-.01,.06-.01h4.82c.6,0,1.09,.45,1.09,1s-.49,1-1.09,1h-2.48l4.26,4.26c.39,.39,.39,1.02,0,1.41ZM7,10h2v-2h-2v2Zm0,3h1.94s.04-.08,.06-.12v-1.88h-2v2Z" style="fill:#0089d9; fill-rule:evenodd;"/></svg>