<?xml version="1.0" encoding="UTF-8"?><svg id="pl" xmlns="http://www.w3.org/2000/svg" width="24" height="24" viewBox="0 0 24 24"><g id="pm"><path id="pn" d="M22,5h-4.2c.3,.6,.3,1.4,0,2h3.2L12,15,3,7h3.2c-.3-.6-.3-1.4,0-2H2C.9,5,0,5.9,0,7v13C0,21.1,.9,22,2,22H22c1.1,0,2-.9,2-2V7c0-1.1-.9-2-2-2ZM2,8l6,5.6-6,6.4V8Zm0,12c.1-.1,7.1-5.5,7.1-5.5l2.3,2.3h0c.4,.3,1,.3,1.3,0l2.2-2.2s6.9,5.2,7.1,5.4H2Zm20,0c-.1-.1-5.9-6.4-6-6.5l6-5.9v12.4ZM15.7,6.7l-3,3c-.2,.2-.4,.3-.7,.3s-.5-.1-.7-.3l-3-3c-.4-.4-.4-1,0-1.4,.4-.4,1-.4,1.4,0l1.3,1.3V2c0-.6,.4-1,1-1s1,.4,1,1V6.6l1.3-1.3c.4-.4,1-.4,1.4,0,.4,.4,.4,1,0,1.4Z" style="fill:#0089d9;"/></g></svg>