<?xml version="1.0" encoding="UTF-8"?><svg id="g" xmlns="http://www.w3.org/2000/svg" width="24" height="24" xmlns:xlink="http://www.w3.org/1999/xlink" viewBox="0 0 24 24"><defs><clipPath id="i"><polygon points="24 0 0 0 0 24 11 24 11 13 17 13 17 11 24 11 24 0" style="clip-rule:evenodd; fill:none; opacity:0;"/></clipPath></defs><g id="h"><g style="clip-path:url(#i);"><path d="M11,0C4.92,0,0,4.93,0,11s4.92,11,11,11,11-4.92,11-11S17.08,0,11,0Zm0,20c-4.97,0-9-4.03-9-9S6.03,2,11,2s9,4.03,9,9-4.03,9-9,9Z" style="fill:#0089d9; fill-rule:evenodd;"/><path d="M8.04,11.07c0,.13-.02,.06,0,.26,0,0,.9-.57,1.84-.65,.11,.04,.17,.19,.14,.32l-1.36,4.38c-.18,.64,.73,1.63,1.68,1.61,1.18,0,1.97-.52,2.66-1.64,0-.13,.03-.6,0-.8,0,0-1.06,1.05-1.53,1.06-.38,0-.57-.19-.54-.5l1.18-4.44c.13-.7,.03-1.51-.7-1.59-1.15-.08-2.68,.89-3.37,2.01Zm3.34-3.07c.84,0,1.52-.63,1.52-1.47s-.68-1.53-1.52-1.53-1.52,.69-1.52,1.53,.68,1.47,1.52,1.47Z" style="fill:#0089d9; fill-rule:evenodd;"/></g><path d="M19,22h-4c-.55,0-1-.45-1-1v-4h0c0-.55,.45-1,1-1l2-2h-3c-1.1,0-2,.9-2,2v6c0,1.1,.9,2,2,2h6c1.1,0,2-.9,2-2v-3l-2,2c0,.55-.45,1-1,1Zm4-10h-4c-.55,0-1,.45-1,1s.45,1,1,1h1.5l-4.09,4.09c-.39,.39-.39,1.02,0,1.41,.39,.39,1.02,.39,1.41,0l4.18-4.18v1.67c0,.55,.45,1,1,1s1-.45,1-1v-4c0-.55-.45-1-1-1Z" style="fill:#0089d9; fill-rule:evenodd;"/></g></svg>