<svg width="24" height="24" viewBox="0 0 24 24" fill="none" xmlns="http://www.w3.org/2000/svg">
<path fill-rule="evenodd" clip-rule="evenodd" d="M22.7 12.3L21 10.6V6V5L16 0H4C3.4 0 3 0.4 3 1V10.6L1.3 12.3C1.1 12.5 1 12.7 1 13V23C1 23.6 1.4 24 2 24H22C22.6 24 23 23.6 23 23V13C23 12.7 22.9 12.5 22.7 12.3ZM16 2L19 5H16V2ZM5 2H14V5C14 5.2 14.1 5.4 14.2 5.5C14.1 5.6 14 5.8 14 6C14 6.6 14.4 7 15 7H19V13.9L12.1 17.2L5 13.9V2ZM3 22V14L20 22H3ZM21 21.4L13.3 17.8L21 14V21.4ZM16 11.5C16 11.2 15.8 11 15.5 11H8.5C8.2 11 8 11.2 8 11.5C8 11.8 8.2 12 8.5 12H15.5C15.8 12 16 11.8 16 11.5ZM8.5 10H15.5C15.8 10 16 9.8 16 9.5C16 9.2 15.8 9 15.5 9H8.5C8.2 9 8 9.2 8 9.5C8 9.8 8.2 10 8.5 10Z" fill="#0089D9"/>
</svg>
