<svg width="24" height="24" viewBox="0 0 24 24" fill="none" xmlns="http://www.w3.org/2000/svg">
<path d="M15.8 15C21.2 9.7 21 6 21 6C21 5.1 20.2 5.6 20.2 5.6C18.8 6.7 16.7 6.8 16.7 6.8C16.1 9.4 12.9 12.5 12 13.3C11.5 12.8 7.80001 9.4 7.20001 6.7C7.20001 6.7 5.10001 6.7 3.70001 5.6C3.80001 5.6 3.00001 5.1 3.00001 6C3.00001 6 2.8 9.6 8.20001 14.9C13.6 20.2 14.3 22.5 14 24H18C18 24 18.1 19.8 14.9 15.9C15.2 15.6 15.5 15.3 15.8 15ZM8.4 16.9C5.9 20.5 6.10001 24 6.10001 24H10C9.80001 23.1 10 21.9 11.2 20.1C10.6 19.2 9.7 18.1 8.4 16.9ZM12 10.5C12 10.5 14.1 8.6 14.3 7.6C14.4 6.9 13.9 7 13.9 7H10C9.50001 7 9.80001 7.7 9.80001 7.7C10.5 9.1 12 10.5 12 10.5ZM17.1 4.7C18 4.7 18.8 3.9 18.8 3C18.8 2.1 18 1.3 17.1 1.3C16.2 1.3 15.4 2.1 15.4 3C15.4 4 16.2 4.7 17.1 4.7ZM7.10001 4.7C8.00001 4.7 8.80001 3.9 8.80001 3C8.80001 2.1 8.00001 1.3 7.10001 1.3C6.20001 1.3 5.40001 2.1 5.40001 3C5.40001 4 6.20001 4.7 7.10001 4.7ZM12.2 3.4C13.1 3.4 13.9 2.6 13.9 1.7C13.9 0.8 13.1 0 12.2 0C11.3 0 10.5 0.8 10.5 1.7C10.5 2.6 11.3 3.4 12.2 3.4Z" fill="#0089D9"/>
</svg>
