<?xml version="1.0" encoding="UTF-8"?><svg id="ft" xmlns="http://www.w3.org/2000/svg" width="24" height="24" viewBox="0 0 24 24"><g id="fu"><rect id="fv" x="0" width="24" height="24" style="fill:none; opacity:0;"/><path d="M12.99,15h-1.99c-1.1,0-2,.9-2,2v7h6v-7c0-1.1-.9-2-2.01-2ZM0,24H6V9.33L0,12v12ZM2,14h2c.55,0,1,.45,1,1v4c0,.55-.45,1-1,1H1.99c-.55,0-.99-.45-.99-1v-4c0-.55,.45-1,1-1Zm16-4.67v14.67h6V12l-6-2.67Zm5,9.67c0,.55-.45,1-1,1h-2c-.55,0-1-.45-1-1v-4c0-.55,.45-1,1-1h2c.55,0,1,.45,1,1v4Z" style="fill:#68a611;"/><path id="fw" d="M5.99,24V7.99l6-2.99,6,2.99V24" style="fill:none; stroke:#68a611; stroke-miterlimit:10; stroke-width:2px;"/><path id="fx" d="M12,4V0h6l-2,2,2,2h-6Z" style="fill:#68a611;"/></g></svg>