<?xml version="1.0" encoding="UTF-8"?><svg id="gf" xmlns="http://www.w3.org/2000/svg" width="24" height="24" viewBox="0 0 24 24"><g id="gg"><rect id="gh" x="0" width="24" height="24" style="fill:none; opacity:0;"/><path id="gi" d="M12,3c5.38-.13,9.86,3.89,10,9.03,0,3.53-2,8.05-5,9.08-2.64,2.53-6.91,2.37-10,0-3.22-1.3-5-5.38-5-9.08C2.14,6.89,6.62,2.87,12,3Z" style="fill:none; stroke:#68a611; stroke-linecap:round; stroke-linejoin:round; stroke-width:2px;"/><path id="gj" d="M3,9.95c-1.01,2-1.01,4,0,5,0,1-.42,1.14-1,.96-2.57-.79-3.09-9.9,1.01-5.96Z" style="fill:#68a611;"/><path id="gk" d="M20.99,14.95c.63-1.07,.73-3.54,0-5,4.1-3.94,3.57,5.18,1,5.96-1,.04-1-.96-1-.96Z" style="fill:#68a611;"/><path id="gl" d="M15.72,.66c-.51,.22-1,.71-1.56,1.27-.13-.87-.74-1.62-1.17-1.93-1.01,1.07-1.24,2.4-3.66,3,0,0,1,1.06,2.6,.49,.65,.04,1.54-.05,2.74-.47,2.37-.74,1.51-1.58,1.05-2.35Z" style="fill:#68a611;"/><g id="gm"><circle cx="9.5" cy="9.45" r="1.5" style="fill:#68a611;"/><circle cx="14.5" cy="9.45" r="1.5" style="fill:#68a611;"/></g><path d="M5,12.94c0,9.32,14,9.36,14,0-1.98,1.34-11.93,1.34-14,0Zm3.9,4.03c-1.59,0-1.03-3.07-1.03-3.07,.59,.11,1.42,.16,2.4,.27-.04,1.25,.23,2.81-1.37,2.8Zm7.09,1.59c-.72,.51-1.53,.87-2.38,1.08,0,0-.91-2.5,.8-2.92,1.71-.42,1.59,1.18,1.58,1.83Z" style="fill:#68a611;"/></g></svg>