<?xml version="1.0" encoding="UTF-8"?><svg id="qd" xmlns="http://www.w3.org/2000/svg" width="24" height="24" viewBox="0 0 24 24"><path d="M22,1H2C.9,1,0,1.9,0,3V23H24V3c0-1-.9-2-2-2ZM2,21V5H22V21H2Zm18.5-2h-.5v-7c0-.55-.45-1-1-1s-1,.45-1,1v7h-1V10c0-.55-.45-1-1-1s-1,.45-1,1v9h-1v-4c0-.55-.45-1-1-1s-1,.45-1,1v4h-.5c-.27,0-.5,.22-.5,.5s.23,.5,.5,.5h9c.27,0,.5-.23,.5-.5s-.22-.5-.5-.5ZM6.99,15c2.2,0,3.99-1.8,4.01-4H7v-2s0-2,0-2c-2.21,0-4,1.79-4,4s1.78,4,3.99,4Zm1.05-9l-.04,4h4.01c-.01-2.38-1.78-3.99-3.97-4Zm1.46,11H3.5c-.28,0-.5,.22-.5,.5s.22,.5,.5,.5h6c.28,0,.5-.22,.5-.5s-.22-.5-.5-.5Zm-3,2H3.5c-.28,0-.5,.22-.5,.5s.22,.5,.5,.5h3c.28,0,.5-.22,.5-.5s-.22-.5-.5-.5Z" style="fill:#0089d9; fill-rule:evenodd;"/></svg>