<?xml version="1.0" encoding="UTF-8"?><svg id="fz" xmlns="http://www.w3.org/2000/svg" width="24" height="24" viewBox="0 0 24 24"><g id="ga"><rect id="gb" x="0" width="24" height="24" style="fill:none; opacity:0;"/><path id="gc" d="M3.01,11c-1.01,2-1.01,4,0,5-1.3,1.55-1.37,1.14-2.08,0C-.62,13.54-.42,7.7,3.01,11Z" style="fill:#68a611;"/><path id="gd" d="M21,16c1-1,1-3,0-5,3.49-3.36,3.63,2.77,2,5.13-.71,1.03-.75,1.35-2-.13Z" style="fill:#68a611;"/><path id="ge" d="M12.01,2c5.38-.13,9.86,4.13,10,9.53,0,3.71-2,8.45-5,9.53-2.64,2.66-6.91,2.48-10,0-3.22-1.36-5-5.65-5-9.53C2.15,6.13,6.62,1.87,12.01,2Z" style="fill:none; stroke:#68a611; stroke-linecap:round; stroke-linejoin:round; stroke-width:2px;"/><path id="gf" d="M15.73,.66c-.51,.22-1,.71-1.56,1.27-.13-.87-.74-1.62-1.17-1.93-1.01,1.07-1.24,3.69-3.66,4.29,0,0,1,1.06,2.6,.49,.65,.04,1.54-.05,2.74-.47,2.37-.74,1.51-2.87,1.05-3.64Z" style="fill:#68a611;"/><g id="gg"><path d="M8.01,17c0,4,8,4,8,0-1.98,1.34-5.93,1.34-8,0Z" style="fill:#68a611;"/><circle cx="9.51" cy="12.5" r="1.5" style="fill:#68a611;"/><circle cx="14.51" cy="12.5" r="1.5" style="fill:#68a611;"/></g><path id="gh" d="M14.01,1.82C11.01-2.18,2.01,.82,2.01,6.82c1,1,4,2,12,2,1,0,1-3,1-4,1,1,2,2,2,4,1,0,5,0,5-2C22.01,2.82,18.01-.18,14.01,1.82Z" style="fill:#68a611;"/></g></svg>