<svg data-name="Layer 1" xmlns="http://www.w3.org/2000/svg" width="24" height="24"><path fill-rule="evenodd" clip-rule="evenodd" fill="#0089D9" d="M23.4,12.6l-1.3-2.3c-0.1-0.1-0.2-0.3-0.3-0.4C21.9,9.8,22,9.6,22,9.4V3c0-0.5-0.4-1-1-1
				c-0.6,0-1,0.4-1,1v1.5c-1.4-0.2-2.2-0.6-3.1-1.1C15.8,2.8,14.5,2,12,2C9.6,2,8.3,2.8,7.2,3.4c-0.9,0.5-1.7,1-3.1,1.1l0-1.5
				c0-0.5-0.4-1-1-1c-0.6,0-1,0.4-1,1v6.4c0,0.2,0.1,0.4,0.2,0.5c-0.1,0.1-0.2,0.2-0.2,0.3l-1.5,2.4C0.2,12.9,0,13.2,0,13.5V22
				c0,0.5,0.5,1,1.1,1C1.7,23,2,22.6,2,22v-1h20v1c0,0.5,0.4,1,1,1c0.6,0,1-0.4,1-1v-8.5C24,13.1,23.7,12.8,23.4,12.6z M3.8,11.2
				c0.1-0.2,0.8-0.7,2.1-1.1C7,9.7,9.1,9.4,11.5,11c0.3,0.2,0.7,0.2,1.1,0c2.4-1.5,4.5-1.2,5.6-0.9c1.3,0.4,2,0.9,2.1,1.2l1.6,2.8
				H2.2L3.8,11.2z M8.2,5.2C9.2,4.6,10.1,4,12,4c1.9,0,2.8,0.6,3.9,1.2c1,0.6,2.1,1.2,4.1,1.4v2.1c-0.4-0.2-0.8-0.3-1.3-0.5
				C17.4,7.8,14,8,12.1,9c-2-0.9-5.4-1.2-6.7-0.8C4.9,8.3,4.5,8.4,4.1,8.6l0-2.1C6,6.3,7.2,5.7,8.2,5.2z M2,19v-3h20v3H2z"/></svg>