<?xml version="1.0" encoding="UTF-8"?><svg id="ip" xmlns="http://www.w3.org/2000/svg" width="24" height="24" xmlns:xlink="http://www.w3.org/1999/xlink" viewBox="0 0 24 24"><defs><clipPath id="is"><polygon id="it" points="8 20 0 20 0 24 24 24 24 0 0 0 0 9 8 9 8 20" style="clip-rule:evenodd; fill:none; opacity:0;"/></clipPath></defs><g id="iq"><g id="ir"><g style="clip-path:url(#is);"><g><line x1="5" y1="8" x2="5" y2="23" style="fill:none; stroke:#0089d9; stroke-linecap:round; stroke-linejoin:round; stroke-width:2px;"/><line x1="19" y1="8" x2="19" y2="23" style="fill:none; stroke:#0089d9; stroke-linecap:round; stroke-linejoin:round; stroke-width:2px;"/><line x1="5" y1="21" x2="19" y2="21" style="fill:none; stroke:#0089d9; stroke-linecap:round; stroke-linejoin:round; stroke-width:2px;"/><line x1="10" y1="8" x2="14" y2="8" style="fill:none; stroke:#0089d9; stroke-linecap:round; stroke-linejoin:round; stroke-width:2px;"/><path d="M5,8c0-3.87,3.13-7,7-7s7,3.13,7,7" style="fill:none; stroke:#0089d9; stroke-linecap:round; stroke-linejoin:round; stroke-width:2px;"/></g></g></g><g id="iu"><path d="M12,10H2C.9,10,0,10.89,0,12v5C0,18.1,.9,19,2,19H12c1.1,0,2-.9,2-2v-5c0-1.1-.9-2-2-2Zm.06,1l-5.06,3L1.94,11H12.06Zm-11.06,.65l3.92,2.43-3.91,3.92h0v-6.35Zm.16,6.35l4.79-3.28,1.05,.65,1.05-.66,4.8,3.29H1.16Zm11.84,0l-3.93-3.93,3.93-2.48v6.41Z" style="fill:#0089d9; fill-rule:evenodd;"/></g></g></svg>