<?xml version="1.0" encoding="UTF-8"?><svg id="hd" xmlns="http://www.w3.org/2000/svg" width="24" height="24" viewBox="0 0 24 24"><g id="he"><rect x="1" y="4" width="22" height="16" rx="1" ry="1" style="fill:none; stroke:#0089d9; stroke-linecap:round; stroke-linejoin:round; stroke-width:2px;"/><rect x="17.5" y="7.5" width="3" height="3" style="fill:none; stroke:#0089d9; stroke-linecap:round; stroke-linejoin:round;"/><line x1="8" y1="11.5" x2="16" y2="11.5" style="fill:none; stroke:#0089d9; stroke-linecap:round; stroke-linejoin:round;"/><line x1="8" y1="13.5" x2="16" y2="13.5" style="fill:none; stroke:#0089d9; stroke-linecap:round; stroke-linejoin:round;"/><line x1="8" y1="15.5" x2="10" y2="15.5" style="fill:none; stroke:#0089d9; stroke-linecap:round; stroke-linejoin:round;"/><line x1="12" y1="15.5" x2="16" y2="15.5" style="fill:none; stroke:#0089d9; stroke-linecap:round; stroke-linejoin:round;"/><g id="hf"><line x1="3" y1="20" x2="5" y2="18" style="fill:none; stroke:#0089d9; stroke-linecap:round; stroke-linejoin:round;"/><line x1="6" y1="20" x2="8" y2="18" style="fill:none; stroke:#0089d9; stroke-linecap:round; stroke-linejoin:round;"/><line x1="9" y1="20" x2="11" y2="18" style="fill:none; stroke:#0089d9; stroke-linecap:round; stroke-linejoin:round;"/><line x1="12" y1="20" x2="14" y2="18" style="fill:none; stroke:#0089d9; stroke-linecap:round; stroke-linejoin:round;"/><line x1="15" y1="20" x2="17" y2="18" style="fill:none; stroke:#0089d9; stroke-linecap:round; stroke-linejoin:round;"/><line x1="18" y1="20" x2="20" y2="18" style="fill:none; stroke:#0089d9; stroke-linecap:round; stroke-linejoin:round;"/></g><g id="hg"><line x1="4" y1="6" x2="6" y2="4" style="fill:none; stroke:#0089d9; stroke-linecap:round; stroke-linejoin:round;"/><line x1="7" y1="6" x2="9" y2="4" style="fill:none; stroke:#0089d9; stroke-linecap:round; stroke-linejoin:round;"/><line x1="10" y1="6" x2="12" y2="4" style="fill:none; stroke:#0089d9; stroke-linecap:round; stroke-linejoin:round;"/><line x1="13" y1="6" x2="15" y2="4" style="fill:none; stroke:#0089d9; stroke-linecap:round; stroke-linejoin:round;"/><line x1="16" y1="6" x2="18" y2="4" style="fill:none; stroke:#0089d9; stroke-linecap:round; stroke-linejoin:round;"/><line x1="19" y1="6" x2="21" y2="4" style="fill:none; stroke:#0089d9; stroke-linecap:round; stroke-linejoin:round;"/></g></g></svg>