<svg width="24" height="24" viewBox="0 0 24 24" fill="none" xmlns="http://www.w3.org/2000/svg">
<path fill-rule="evenodd" clip-rule="evenodd" d="M1 17C1 20.1 1.4 23.4 1.9 24C2.9 24 3 24 4 24C4 22 4 14 4 12C3 12 3 12 2 12C1.3 12.4 1 14.6 1 17ZM24 15.2C24 14.1 23 14.1 22.9 13.4C22.8 12.6 23.7 12.1 23.4 11C23.3 10.4 22.5 10.1 21.8 9.9C20.9 9.7 17.3 10.1 16.4 9.2C15.2 8 17 6.7 17 4.1C17 1.7 15.7 0 14 0C13.4 0 12.7 0.2 12 0.7C12.6 2.2 12.3 3.7 11.3 5.5C10 10 7.1 11.7 5 13C5 15 5 21 5 23C8.7 23 11.1 23.6 13.6 23.8C16.9 24 19.9 23.2 20.4 23C22.1 22.6 21.6 21.3 22 20.6C22.4 19.9 23.1 20.1 23.4 19.1C23.6 18.2 22.9 18 22.9 17.4C22.9 16.5 24 16.4 24 15.2ZM20.9 16.7C20.8 17.4 21.3 17.8 21.2 18.4C21 19 20.4 18.9 20.1 19.6C19.8 20.3 20.2 21.2 18.8 21.5C18.4 21.6 16.4 22.1 13.8 22C11.8 21.9 9.9 21 7 21C7 19.4 7 15.4 7 13.8C9 12.9 12.5 10.5 13 6.3C13.8 5.3 14.1 3.9 13.7 2.7C15.3 2.1 15.3 4.3 14.6 5.9C13.8 7.8 13 9.9 14 10.8C14.8 11.6 19.1 11.7 19.8 11.7C20.4 11.7 21.1 11.9 21.2 12.1C21.4 12.7 21 13.3 21.1 13.8C21.2 14.3 22 14.6 22 15.2C22 15.8 21 15.9 20.9 16.7Z" fill="#0089D9"/>
</svg>
