<svg width="24" height="24" viewBox="0 0 24 24" fill="none" xmlns="http://www.w3.org/2000/svg">
<g clip-path="url(#clip0_5_15173)">
<path fill-rule="evenodd" clip-rule="evenodd" d="M22.7 7.9C22.8 7.8 22.8 7.7 22.8 7.6C23 6.8 23.3 6.5 23.6 5.8C24 4.8 24.2 2.1 22.9 2C21 1.8 19.4 1.9 17.9 3C11.3 1.2 8.09999 2.3 6.29999 3.7C6.29999 3.7 6.29999 3.6 6.19999 3.6C4.39999 2.1 1.09999 2 0.999991 2C0.599991 2 0.199991 2.7 0.0999913 3.2C-0.200009 4.7 0.0999913 6 0.699991 6.9C0.499991 7.3 0.199991 8 -8.73208e-06 9C-8.73208e-06 12.4 0.0999912 14.9 1.29999 16.3C0.199991 17.9 -0.400009 21 0.999991 21C2.99999 21 3.99999 21 4.99999 21C10.2 22.7 15 21.8 17.9 20.2C18.7 20.5 20.5 21 23 21C24 20 24 18 23 16C24.3 12.2 23.9 9.6 22.7 7.9ZM22 13C21.7 14.6 20.5 15.1 21 16C21.5 16.8 22 18.3 22 19C21.5 18.9 20.5 18.8 19.9 18.7C20.1 18.4 20.4 18.2 20.5 17.9C20.6 17.7 20.4 17.5 20.3 17.6C19.7 17.9 19.1 18.2 18.5 18.4C17.9 18.3 17.4 18.3 17.1 18.9C17.1 18.9 17.1 18.9 17.1 19C13.3 20.3 9.79999 20.6 4.99999 19C4.79999 18.9 4.69999 18.8 4.49999 18.9C3.89999 19.3 2.99999 19.4 1.99999 19.3C2.09999 18.7 2.29999 18.1 2.59999 17.7C2.69999 17.6 2.69999 17.5 2.79999 17.4C2.99999 17.5 2.99999 17.4 2.99999 17.2C3.39999 16.7 3.59999 16.3 2.99999 15.8C2.89999 15.7 2.69999 15.6 2.59999 15.6C2.19999 14 1.59999 11.3 1.99999 7.8C2.29999 7.9 2.59999 7.8 2.79999 7.5C3.19999 7.1 2.39999 6.4 1.99999 6C1.39999 5.4 1.99999 4.6 1.99999 4C2.89999 4 4.19999 4.4 4.99999 5C4.59999 5.4 4.29999 5.8 3.99999 6C4.59999 5.7 5.09999 5.5 5.59999 5.2C5.89999 5.2 6.19999 5.1 6.39999 4.8C8.99999 3.8 11.4 3.6 18 5C18.4 5.1 18.8 5.3 19 5C19.7 4.3 20.8 3.9 22 4C22 4.8 21.5 5.4 21.1 6.5C20.8 6.3 20.4 6.1 20 6C20.1 6.3 20.5 6.5 20.5 6.7C20.6 6.9 20.7 7.2 20.9 7.5C20.9 7.8 21.1 8.1 21.3 8.2C22 9.3 22.6 10.8 22 13ZM9.69999 11.1C10.8 10 11.8 9 13.4 7.7C8.79999 9 7.19999 13.7 9.69999 11.1ZM12.8 9.7C9.89999 12 8.89999 18.3 11.2 13.5C12.4 10.9 13.4 9.5 12.8 9.7Z" fill="#0089D9"/>
</g>
<defs>
<clipPath id="clip0_5_15173">
<rect width="140" height="24" fill="white"/>
</clipPath>
</defs>
</svg>
