<svg width="24" height="24" viewBox="0 0 24 24" fill="none" xmlns="http://www.w3.org/2000/svg">
<path fill-rule="evenodd" clip-rule="evenodd" d="M11.5 1C11.2 1 11 1.2 11 1.5V7H10V1.5C10 1.2 9.8 1 9.5 1C9.2 1 9 1.2 9 1.5V7H8V1.5C8 1.2 7.8 1 7.5 1C7.2 1 7 1.2 7 1.5L6 9C6 11 8.4 11 8.4 14C8.4 16.4 8 22 8 22C8 23 8.6 24 9.6 24C10.6 24 11 23 11 22C11 22 10.5 16.4 10.5 14C10.5 11 13 11 13 9L12 1.5C12 1.2 11.8 1 11.5 1ZM18 0C17 0 15 1.2 15 4.4C15 4.4 14.9 13.7 17 15C17 15.4 17 15 17 15C17 16 17 19 16 23C15.9 23.3 17 24 18 24C18.6 24 19 23.5 19 23V1C19 0.2 19 0 18 0Z" fill="#0089D9"/>
</svg>
