<?xml version="1.0" encoding="utf-8"?>
<!-- Generator: Adobe Illustrator 19.1.1, SVG Export Plug-In . SVG Version: 6.00 Build 0)  -->
<svg version="1.1" xmlns="http://www.w3.org/2000/svg" xmlns:xlink="http://www.w3.org/1999/xlink" x="0px" y="0px" width="24px"
	 height="24px" viewBox="0 0 24 24" enable-background="new 0 0 24 24" xml:space="preserve">
<g id="List_View">
	<g>
		<rect x="2" y="5" fill="#0089D9" width="2" height="2"/>
		<rect x="2" y="9" fill="#0089D9" width="2" height="2"/>
		<rect x="2" y="13" fill="#0089D9" width="2" height="2"/>
		<rect x="2" y="17" fill="#0089D9" width="2" height="2"/>
		<path fill="#0089D9" d="M19,7H7C6.4,7,6,6.6,6,6v0c0-0.5,0.4-1,1-1h12c0.5,0,1,0.4,1,1v0C20,6.6,19.6,7,19,7z"/>
		<path fill="#0089D9" d="M21,11H7c-0.5,0-1-0.4-1-1v0c0-0.5,0.4-1,1-1h14c0.5,0,1,0.4,1,1v0C22,10.6,21.6,11,21,11z"/>
		<path fill="#0089D9" d="M17,15H7c-0.5,0-1-0.4-1-1v0c0-0.5,0.4-1,1-1h10c0.5,0,1,0.4,1,1v0C18,14.6,17.6,15,17,15z"/>
		<path fill="#0089D9" d="M21,19H7c-0.5,0-1-0.4-1-1v0c0-0.5,0.4-1,1-1h14c0.5,0,1,0.4,1,1v0C22,18.6,21.6,19,21,19z"/>
	</g>
</g>
<g id="Guides" display="none" opacity="0.2">
	<rect display="inline" fill-rule="evenodd" clip-rule="evenodd" fill="#0089D9" width="24" height="24"/>
	<rect x="29" display="inline" fill-rule="evenodd" clip-rule="evenodd" fill="#0089D9" width="24" height="24"/>
	<rect x="58" display="inline" fill-rule="evenodd" clip-rule="evenodd" fill="#0089D9" width="24" height="24"/>
	<rect x="87" display="inline" fill-rule="evenodd" clip-rule="evenodd" fill="#0089D9" width="24" height="24"/>
	<rect x="116" display="inline" fill-rule="evenodd" clip-rule="evenodd" fill="#0089D9" width="24" height="24"/>
</g>
</svg>
