<svg width="24" height="24" viewBox="0 0 24 24" fill="none" xmlns="http://www.w3.org/2000/svg">
<path fill-rule="evenodd" clip-rule="evenodd" d="M10 17.5L7.5 20C6.5 21 4.9 21 4 20C3 19 3 17.4 4 16.5L6.5 14L9.5 11C8.1 10.7 6.5 11.1 5.4 12.2L2.6 15C0.8 16.8 0.8 19.6 2.6 21.4C4.4 23.2 7.2 23.2 9 21.4L11.8 18.6C12.9 17.5 13.3 16 13 14.5L10 17.5ZM21.7 2.3C19.9 0.499997 17.1 0.499997 15.3 2.3L12.5 5.1C11.4 6.2 11 7.7 11.3 9.2L13.6 6.9C13.7 6.8 13.7 6.8 13.8 6.7C13.9 6.6 13.9 6.6 14 6.5L16.8 3.7C17.8 2.7 19.4 2.7 20.3 3.7C21.3 4.7 21.3 6.3 20.3 7.2L17.5 10C17.4 10.1 17.4 10.1 17.3 10.2C17.2 10.3 17.2 10.3 17.1 10.4L14.8 12.7C16.2 13 17.8 12.6 18.9 11.5L21.7 8.7C23.4 6.9 23.4 4.1 21.7 2.3ZM10 15.6L15.9 9.8C17 8.7 15.3 7 14.2 8.1L8.4 14C7.2 15.2 8.8 16.8 10 15.6Z" fill="#0089D9"/>
</svg>
