<svg width="24" height="24" viewBox="0 0 24 24" fill="none" xmlns="http://www.w3.org/2000/svg">
<path fill-rule="evenodd" clip-rule="evenodd" d="M13 20H20V17H13V20ZM14 18H19V19H14V18ZM23 11V10L16 3H15H13L10 0H0V21H6V24H23V11ZM17 6.3L19.7 9H17V6.3ZM10 2L11 3H10V2ZM6 19H2V2H9V3H6V19ZM21 22H8V5H15V11H21V22ZM13 16H20V13H13V16ZM14 14H19V15H14V14ZM11.5 14H9.5C9.2 14 9 14.2 9 14.5C9 14.8 9.2 15 9.5 15H11.5C11.8 15 12 14.8 12 14.5C12 14.2 11.8 14 11.5 14ZM11.5 18H9.5C9.2 18 9 18.2 9 18.5C9 18.8 9.2 19 9.5 19H11.5C11.8 19 12 18.8 12 18.5C12 18.2 11.8 18 11.5 18Z" fill="#0089D9"/>
</svg>
