<svg width="24" height="24" viewBox="0 0 24 24" fill="none" xmlns="http://www.w3.org/2000/svg">
<path fill-rule="evenodd" clip-rule="evenodd" d="M16.1 1C12.7 1 9.99999 3.7 9.99999 7C9.99999 8.3 10.4 9.5 11.1 10.4L3.49999 18C2.09999 19.6 3.79999 20.8 4.89999 19.8C5.59999 20.6 7.09999 22 7.09999 22C8.29999 23.2 9.79999 21.7 8.59999 20.5C8.59999 20.5 6.99999 18.6 6.49999 18.2L7.39999 17.3C8.19999 18 9.19999 19.4 10.1 18.4C10.9 17.6 9.59999 16.6 8.89999 15.8L12.7 11.9C13.7 12.5 14.8 12.9 16 12.9C19.3 12.9 21.9 10.2 21.9 6.9C21.9 3.6 19.4 1 16.1 1ZM16.1 11C13.8 11 12 9.2 12 7C12 4.8 13.8 3 16.1 3C18.4 3 20 4.8 20 7C20 9.2 18.3 11 16.1 11Z" fill="#D6565A"/>
</svg>
