<svg width="24" height="24" viewBox="0 0 24 24" fill="none" xmlns="http://www.w3.org/2000/svg">
<path fill-rule="evenodd" clip-rule="evenodd" d="M22.5 2C21.7 2 17 2 17 2C14.6 2 13 3.1 12 3.9C11 3.1 9.4 2 7 2C7 2 2.2 2 1.5 2C0.7 2 0 2.7 0 3.5V18.5C0 19.3 0.7 20 1.5 20C2.3 20 3 20 7 20C11 20 12 22 12 22C12 22 13 20 17 20C21 20 21.7 20 22.5 20C23.3 20 24 19.2 24 18.5V3.5C24 2.7 23.2 2 22.5 2ZM11 19.1C9.9 18.5 8.6 18 7 18C4.5 18 2 18 2 18V4H7C9.1 4 10.4 5.1 11 5.7V19.1ZM22 18C22 18 19.7 18 17 18C15.4 18 14.1 18.5 13 19.1V5.7C13.6 5.1 14.9 4 17 4H22V18Z" fill="#0089D9"/>
</svg>
