<?xml version="1.0" encoding="UTF-8"?><svg id="hz" xmlns="http://www.w3.org/2000/svg" width="24" height="24" viewBox="0 0 24 24"><g id="ia"><g id="ib"><g><line x1="5" y1="8" x2="5" y2="23" style="fill:none; stroke:#0089d9; stroke-linecap:round; stroke-linejoin:round; stroke-width:2px;"/><line x1="19" y1="8" x2="19" y2="23" style="fill:none; stroke:#0089d9; stroke-linecap:round; stroke-linejoin:round; stroke-width:2px;"/><line x1="5" y1="21" x2="19" y2="21" style="fill:none; stroke:#0089d9; stroke-linecap:round; stroke-linejoin:round; stroke-width:2px;"/><line x1="10" y1="8" x2="14" y2="8" style="fill:none; stroke:#0089d9; stroke-linecap:round; stroke-linejoin:round; stroke-width:2px;"/><path d="M5,8c0-3.87,3.13-7,7-7s7,3.13,7,7" style="fill:none; stroke:#0089d9; stroke-linecap:round; stroke-linejoin:round; stroke-width:2px;"/></g></g><g id="ic"><path d="M15,11h-6c-1.1,0-2,.89-2,2v4c0,1.1,.9,2,2,2h6c1.1,0,2-.9,2-2v-4c0-1.1-.9-2-2-2Zm.3,1l-3.3,3-3.3-3h6.6Zm-7.3,.75l2.76,2.5-2.75,2.75h0v-5.25Zm.11,5.25l3.07-2.37,.82,.74,.81-.75,3.09,2.38h-7.8Zm7.89,0l-2.76-2.76,2.76-2.54v5.31Z" style="fill:#0089d9; fill-rule:evenodd;"/></g></g></svg>