<?xml version="1.0" encoding="UTF-8"?><svg id="jf" xmlns="http://www.w3.org/2000/svg" width="24" height="24" xmlns:xlink="http://www.w3.org/1999/xlink" viewBox="0 0 24 24"><defs><clipPath id="ji"><polygon points="10 21 0 21 0 24 24 24 24 5 0 5 0 10 10 10 10 21" style="clip-rule:evenodd; fill:none;"/></clipPath><clipPath id="jk"><rect id="jl" x="0" y="10" width="11" height="11" style="fill:none; opacity:0;"/></clipPath></defs><g id="jg"><g id="jh"><g style="clip-path:url(#ji);"><path d="M12,11c0-2.21-1.79-4-4-4s-4,1.79-4,4" style="fill:none; stroke:#0089d9; stroke-linecap:round; stroke-linejoin:round; stroke-width:2px;"/><path d="M23,11c0-2.21-1.79-4-4-4" style="fill:none; stroke:#0089d9; stroke-linecap:round; stroke-linejoin:round; stroke-width:2px;"/><line x1="4" y1="11" x2="4" y2="23" style="fill:none; stroke:#0089d9; stroke-linecap:round; stroke-linejoin:round; stroke-width:2px;"/><line x1="12" y1="11" x2="12" y2="23" style="fill:none; stroke:#0089d9; stroke-linecap:round; stroke-linejoin:round; stroke-width:2px;"/><line x1="23" y1="11" x2="23" y2="23" style="fill:none; stroke:#0089d9; stroke-linecap:round; stroke-linejoin:round; stroke-width:2px;"/><line x1="4" y1="23" x2="23" y2="23" style="fill:none; stroke:#0089d9; stroke-linecap:round; stroke-linejoin:round; stroke-width:2px;"/><line x1="8" y1="7" x2="19" y2="7" style="fill:none; stroke:#0089d9; stroke-linecap:round; stroke-linejoin:round; stroke-width:2px;"/></g><line x1="16" y1="15" x2="16" y2="2" style="fill:none; stroke:#0089d9; stroke-linecap:round; stroke-miterlimit:10; stroke-width:2px;"/><rect x="16" y="1" width="5" height="2" style="fill:#0089d9; stroke:#0089d9; stroke-linecap:round; stroke-linejoin:round; stroke-width:2px;"/></g><g id="jj"><g style="clip-path:url(#jk);"><path d="M11.14,11H1.86C.83,11,0,11.89,0,13v5C0,19.1,.83,20,1.86,20H11.14c1.03,0,1.86-.9,1.86-2v-5c0-1.1-.83-2-1.86-2Zm.06,1l-4.7,3L1.8,12H11.2Zm-6.63,3.08l-3.57,3.85v-6.23l3.57,2.38Zm-3.49,3.92l4.45-3.28,.98,.65,.97-.66,4.46,3.29H1.08Zm10.92-.08l-3.58-3.85,3.58-2.43v6.28Z" style="fill:#0089d9; fill-rule:evenodd;"/></g></g></g></svg>