<?xml version="1.0" encoding="UTF-8"?><svg id="lx" xmlns="http://www.w3.org/2000/svg" width="24" height="24" viewBox="0 0 24 24"><g id="ly"><path d="M10.42,4.25c-1.4,.69-2.43,1.96-2.83,3.49" style="fill:none; stroke:#0089d9; stroke-linecap:round; stroke-linejoin:round;"/><line x1="9" y1="20.5" x2="15" y2="20.5" style="fill:#0089d9; stroke:#0089d9; stroke-miterlimit:10;"/><line x1="9" y1="18.5" x2="15" y2="18.5" style="fill:#0089d9; stroke:#0089d9; stroke-miterlimit:10;"/><path d="M15.74,15.64c-.04,.21-.23,.36-.46,.36h-6.56c-.22,0-.42-.15-.46-.36-.33-1.63-.99-2.55-1.63-3.44-.8-1.11-1.63-2.26-1.63-4.59,0-3.64,3.14-6.6,7-6.61,3.86,0,7,2.97,7,6.61,0,2.34-.83,3.48-1.63,4.59-.64,.89-1.31,1.81-1.63,3.44Z" style="fill:none; stroke:#0089d9; stroke-miterlimit:10; stroke-width:2px;"/><path id="lz" d="M15,16v4.85c0,1.48-1.56,2.15-3,2.15-.74,0-1.43-.16-1.96-.46-.67-.38-1.04-.98-1.04-1.68v-4.85" style="fill:none; stroke:#0089d9; stroke-linecap:round; stroke-linejoin:round; stroke-width:2px;"/></g></svg>