<svg width="24" height="24" viewBox="0 0 24 24" fill="none" xmlns="http://www.w3.org/2000/svg">
<g clip-path="url(#clip0_5_14464)">
<path fill-rule="evenodd" clip-rule="evenodd" d="M14 13H16V11H14V13ZM7 10C5.14348 10 3.36301 10.7375 2.05025 12.0503C0.737498 13.363 0 15.1435 0 17C0 18.8565 0.737498 20.637 2.05025 21.9497C3.36301 23.2625 5.14348 24 7 24C8.85652 24 10.637 23.2625 11.9497 21.9497C13.2625 20.637 14 18.8565 14 17C14 15.1435 13.2625 13.363 11.9497 12.0503C10.637 10.7375 8.85652 10 7 10V10ZM7 22C5.67392 22 4.40215 21.4732 3.46447 20.5355C2.52678 19.5979 2 18.3261 2 17C2 15.6739 2.52678 14.4021 3.46447 13.4645C4.40215 12.5268 5.67392 12 7 12C8.32608 12 9.59785 12.5268 10.5355 13.4645C11.4732 14.4021 12 15.6739 12 17C12 18.3261 11.4732 19.5979 10.5355 20.5355C9.59785 21.4732 8.32608 22 7 22V22ZM12 8H10V9.6L10.9 10H12V8ZM16 8H14V10H16V8ZM20 8H18V10H20V8ZM18 13H20V11H18V13ZM16 16V14H14.4C14.672 14.6358 14.8408 15.311 14.9 16H16ZM22 2H20V0.999998C20 0.734781 19.8946 0.480427 19.7071 0.292891C19.5196 0.105355 19.2652 -2.1467e-06 19 -2.1467e-06C18.7348 -2.1467e-06 18.4804 0.105355 18.2929 0.292891C18.1054 0.480427 18 0.734781 18 0.999998V2H8V0.999998C8.01608 0.864803 8.00128 0.727722 7.95671 0.599077C7.91214 0.470431 7.83897 0.353573 7.7427 0.257302C7.64643 0.161031 7.52957 0.0878566 7.40092 0.0432877C7.27228 -0.00128116 7.13519 -0.0160826 7 -2.1467e-06C6.86481 -0.0160826 6.72772 -0.00128116 6.59908 0.0432877C6.47043 0.0878566 6.35357 0.161031 6.2573 0.257302C6.16103 0.353573 6.08786 0.470431 6.04329 0.599077C5.99872 0.727722 5.98392 0.864803 6 0.999998V2H4C3.46957 2 2.96086 2.21071 2.58579 2.58578C2.21071 2.96086 2 3.46956 2 4V10.8C2.60608 10.3067 3.27956 9.90266 4 9.6V5C3.98392 4.8648 3.99872 4.72772 4.04329 4.59908C4.08786 4.47043 4.16103 4.35357 4.2573 4.2573C4.35357 4.16103 4.47043 4.08786 4.59908 4.04329C4.72772 3.99872 4.86481 3.98392 5 4H6V5C6 5.26521 6.10536 5.51957 6.29289 5.7071C6.48043 5.89464 6.73478 6 7 6C7.26522 6 7.51957 5.89464 7.70711 5.7071C7.89464 5.51957 8 5.26521 8 5V4H18V5C18 5.26521 18.1054 5.51957 18.2929 5.7071C18.4804 5.89464 18.7348 6 19 6C19.2652 6 19.5196 5.89464 19.7071 5.7071C19.8946 5.51957 20 5.26521 20 5V4H21C21.1352 3.98392 21.2723 3.99872 21.4009 4.04329C21.5296 4.08786 21.6464 4.16103 21.7427 4.2573C21.839 4.35357 21.9121 4.47043 21.9567 4.59908C22.0013 4.72772 22.0161 4.8648 22 5V17C22 17.2652 21.8946 17.5196 21.7071 17.7071C21.5196 17.8946 21.2652 18 21 18H14.9C14.8408 18.689 14.672 19.3642 14.4 20H22C22.5304 20 23.0391 19.7893 23.4142 19.4142C23.7893 19.0391 24 18.5304 24 18V4C24 3.46956 23.7893 2.96086 23.4142 2.58578C23.0391 2.21071 22.5304 2 22 2ZM9 16H5C4.86481 15.9839 4.72772 15.9987 4.59908 16.0433C4.47043 16.0879 4.35357 16.161 4.2573 16.2573C4.16103 16.3536 4.08786 16.4704 4.04329 16.5991C3.99872 16.7277 3.98392 16.8648 4 17C4 17.2652 4.10536 17.5196 4.29289 17.7071C4.48043 17.8946 4.73478 18 5 18H9C9.26522 18 9.51957 17.8946 9.70711 17.7071C9.89464 17.5196 10 17.2652 10 17C10.0161 16.8648 10.0013 16.7277 9.95671 16.5991C9.91214 16.4704 9.83897 16.3536 9.7427 16.2573C9.64643 16.161 9.52957 16.0879 9.40092 16.0433C9.27228 15.9987 9.13519 15.9839 9 16Z" fill="#0089D9"/>
</g>
<defs>
<clipPath id="clip0_5_14464">
<rect width="140" height="24" fill="white"/>
</clipPath>
</defs>
</svg>
