<svg width="24" height="24" viewBox="0 0 24 24" fill="none" xmlns="http://www.w3.org/2000/svg">
<path fill-rule="evenodd" clip-rule="evenodd" d="M23.4 11.6C23.4 11.4 23.3 11.3 23.2 11.2C23.1 11.1 23 11.1 23 11L18 6C17.6 5.6 17 5.6 16.6 6C16.2 6.4 16.2 7 16.6 7.4L20 11H13.3L7 4.6C6.9 4.5 6.9 4.5 6.8 4.5C6.6 4.2 6.4 4 6 4H1C0.4 4 0 4.4 0 5C0 5.6 0.4 6 1 6H5.6L11.5 12L5.6 18H1C0.4 18 0 18.4 0 19C0 19.6 0.4 20 1 20H6C6.4 20 6.6 19.8 6.8 19.5C6.9 19.5 6.9 19.4 7 19.4L13.3 13H20L16.5 16.6C16.1 17 16.1 17.6 16.5 18C16.9 18.4 17.5 18.4 17.9 18L22.9 13C23 13 23.2 12.9 23.3 12.8C23.5 12.4 23.5 12 23.4 11.6Z" fill="#0089D9"/>
</svg>
