<svg width="24" height="24" viewBox="0 0 24 24" fill="none" xmlns="http://www.w3.org/2000/svg">
<g clip-path="url(#clip0_5_16125)">
<path fill-rule="evenodd" clip-rule="evenodd" d="M14 11H22C22.6 11 23 10.6 23 10V4.6L21 7.7V8.1C21 8.6 20.6 9 20 9H16C15.4 9 15 8.6 15 8V4C15 3.4 15.4 3 16 3H19.2L20.6 0.999999H14C13.4 0.999999 13 1.4 13 2V10C13 10.6 13.4 11 14 11ZM10 13H2C1.4 13 1 13.4 1 14V22C1 22.6 1.4 23 2 23H10C10.6 23 11 22.6 11 22V14C11 13.4 10.6 13 10 13ZM9 20C9 20.5 8.6 21 8 21H4C3.4 21 3 20.5 3 20V16C3 15.5 3.4 15 4 15H8C8.6 15 9 15.5 9 16V20ZM10 0.999999H2C1.4 0.999999 1 1.5 1 2V10C1 10.6 1.4 11 2 11H10C10.6 11 11 10.6 11 10V2C11 1.5 10.6 0.999999 10 0.999999ZM9 8C9 8.6 8.6 9 8 9H4C3.4 9 3 8.6 3 8V4C3 3.4 3.4 3 4 3H8C8.6 3 9 3.4 9 4V8ZM21 20C21 20.5 20.6 21 20 21H16C15.4 21 15 20.6 15 20V16C15 15.5 15.4 15 16 15H19.2L20.6 13H14C13.4 13 13 13.4 13 14V22C13 22.6 13.4 23 14 23H22C22.6 23 23 22.6 23 22V16.6L21 19.7V20ZM17 5.1C16.8 4.9 16.3 4.9 16.1 5.1C15.9 5.3 15.9 5.9 16.1 6.1L18.1 8.1C18.3 8.3 18.8 8.2 19 8C19 8 19.1 7.9 19.1 7.8C19.3 7.9 19.5 8 19.5 7.9L24 1.3C24.3 0.899999 23.9 0.399999 23.7 0.199999C23.5 -9.53674e-07 22.9 -0.100001 22.7 0.0999991L18.4 6.3L17 5.1ZM23.6 12.2C23.4 12 22.8 11.9 22.6 12.1L18.3 18.3L17 17.1C16.8 16.9 16.3 16.9 16.1 17.1C15.9 17.3 15.9 17.9 16.1 18.1L18.1 20.1C18.3 20.3 19.3 20.1 19.5 19.9L24 13.3C24.2 12.9 23.8 12.4 23.6 12.2Z" fill="#0089D9"/>
</g>
<defs>
<clipPath id="clip0_5_16125">
<rect width="140" height="24" fill="white"/>
</clipPath>
</defs>
</svg>
