<svg width="24" height="24" viewBox="0 0 24 24" fill="none" xmlns="http://www.w3.org/2000/svg">
<g clip-path="url(#clip0_5_15799)">
<path fill-rule="evenodd" clip-rule="evenodd" d="M3 19.7C4.4 18.7 5.8 17.4 6.7 16.7C6.7 16.7 7.6 15.2 6.8 13.6C6.6 13.1 6.1 12.7 6 11.6C6 11 5.4 10.2 4.8 10.1C4.6 9.9 4.4 9.3 4.5 8.8C5.4 8.9 5.8 7.8 5.5 7.2C2.9 1.6 9.6 0.4 10.9 3.8C12.4 3.2 13.3 5.7 11.8 7C11.2 8.1 12.9 8.6 12.9 8.6C13 9.2 12.5 10.3 12.1 10.5C11.5 10.6 11 11.3 11 12C11 13.4 10.7 13.7 10.3 14.2C9.3 16.6 11 16.6 11 16.6C11.3 16.8 11.7 17.1 12.1 17.4C12.2 16.8 12.4 16.2 12.7 15.7C12.5 15.5 12.2 15.5 11.9 15.5C11.8 15.2 11.8 14.7 11.9 14.6C12.6 13.8 13 13 13 12C14.1 11.7 15 9.8 14.9 8.7C14.8 8.1 14.3 7.4 13.7 7.3C14.1 6.3 14.3 6.5 14.3 4.9C14.3 3.8 13.6 1.9 11.8 1.8C11.2 0.7 9.9 0 8.2 0C5.6 0 3 1.8 3 4.9C3 6.2 3.2 6.3 3.6 7.3C3 7.5 2.4 8.1 2.4 8.7C2.3 9.8 3.2 11.7 4.4 12C4.4 13 4.8 13.8 5.5 14.5C5.6 14.7 5.6 15.2 5.5 15.5C5.2 15.5 4.9 15.5 4.7 15.7C3.9 16.4 1.9 18.2 0.3 19.2C0.2 19.3 0.2 19.3 0.2 19.4C0 19.6 0 19.9 0 20.2C0 21.8 7.4 22.3 12.9 21.9C12.5 21.3 12.3 20.7 12.1 20C9.2 20.3 5.4 20.3 3 19.7ZM10.1 4.2C8.6 5.3 7 3.9 6 6.4C7.4 4.9 9.3 6.7 9.8 5.1C10.1 6 11 5.7 11.6 6.3C11.3 4.7 10.3 5 10.1 4.2ZM20.5 18H19V16C19 15.7 18.8 15.5 18.5 15.5C18.2 15.5 18 15.7 18 16V18.5C18 18.8 18.2 19 18.5 19H20.5C20.8 19 21 18.8 21 18.5C21 18.2 20.8 18 20.5 18ZM18.5 13C15.5 13 13 15.5 13 18.5C13 21.5 15.5 24 18.5 24C21.5 24 24 21.5 24 18.5C24 15.5 21.5 13 18.5 13ZM18.5 22C16.6 22 15 20.4 15 18.5C15 16.6 16.6 15 18.5 15C20.4 15 22 16.6 22 18.5C22 20.4 20.4 22 18.5 22Z" fill="#0089D9"/>
</g>
<defs>
<clipPath id="clip0_5_15799">
<rect width="140" height="24" fill="white"/>
</clipPath>
</defs>
</svg>
