<svg width="53" height="24" viewBox="0 0 53 24" fill="none" xmlns="http://www.w3.org/2000/svg">
<path fill-rule="evenodd" clip-rule="evenodd" d="M18.1 4.9L17.6 5.4L17.5 5.5L17.1 5.9L13.6 9.4V10.4H14.6L18.1 6.9L19 7.8L11.3 15.5L13.4 17.6L24 7L22 4.9L20 6.9L18.1 4.9ZM18 22H2V8H8V2H18V3L20 5V0H6.3H6V0.3L0 6.3V24H20V13L18 15V22ZM6 2.5V6H2.4L6 2.5ZM10.5 16.4L9 20L12.6 18.5L12.7 18.4L10.6 16.3L10.5 16.4Z" fill="#0089D9"/>
<path fill-rule="evenodd" clip-rule="evenodd" d="M39.5 16.4L37.8 20.2L41.6 18.5L41.7 18.4L39.6 16.3L39.5 16.4ZM46.1 5.9L42.6 9.4V10.4H43.6L47.1 6.9L48.1 7.9L40.4 15.6L42.5 17.7L53 7L51 5L49.1 6.9L47.1 4.9L46.1 5.9ZM36.1 22L38.1 16L42.1 12H41.1V9L47.1 3L49 4.9V0H36V7H35H29V24H49V13.1L42.1 20L36.1 22ZM35 0.3L29 6H35V0.3Z" fill="#0089D9"/>
</svg>
