<?xml version="1.0" encoding="UTF-8"?><svg id="mt" xmlns="http://www.w3.org/2000/svg" width="24" height="24" viewBox="0 0 24 24"><path d="M5.5,12H13.5c.28,0,.5-.22,.5-.5s-.22-.5-.5-.5H5.5c-.28,0-.5,.22-.5,.5s.22,.5,.5,.5Zm0-2H13.5c.28,0,.5-.22,.5-.5s-.22-.5-.5-.5H5.5c-.28,0-.5,.22-.5,.5s.22,.5,.5,.5ZM14,2h-2.05c-.23-1.14-1.24-2-2.45-2s-2.22,.86-2.45,2h-2.05V6H14V2Zm-6,0c0-.45,.64-1,1.47-1s1.53,.52,1.53,1h-3Zm9,9v11H2V5h2V3H0V24H19V11h-2Zm-11.5,5h7c.28,0,.5-.22,.5-.5s-.22-.5-.5-.5H5.5c-.28,0-.5,.22-.5,.5s.22,.5,.5,.5Zm0-2H13.5c.28,0,.5-.22,.5-.5s-.22-.5-.5-.5H5.5c-.28,0-.5,.22-.5,.5s.22,.5,.5,.5Z" style="fill:#0089d9; fill-rule:evenodd;"/><polygon points="19 0 20.11 2.89 23.01 1.98 21.5 4.68 24 6.43 21 6.9 21.23 10 19 7.89 16.77 10 17 6.9 14 6.43 16.5 4.68 14.99 1.98 17.89 2.89 19 0" style="fill:#ff8b00; fill-rule:evenodd;"/></svg>