<?xml version="1.0" encoding="UTF-8"?><svg id="pt" xmlns="http://www.w3.org/2000/svg" width="24" height="24" viewBox="0 0 24 24"><path d="M11,18H3c-.5,0-1-.5-1-1V5H21c.5,0,1,.5,1,1v6.26c.81,.57,1.49,1.3,2,2.15V6c0-1.5-1.5-3-3-3H11.5s-1.5-3-3.5-3H3C1.5,0,0,1.5,0,3v14C0,18.5,1.5,20,3,20H11.29c-.19-.63-.29-1.3-.29-2ZM2,3c0-.5,.5-1,1-1h5c1,0,2,2,2,2H2s0-.5,0-1Z" style="fill:#0089d9; fill-rule:evenodd;"/><path d="M18,12c-3.31,0-6,2.69-6,6s2.69,6,6,6,6-2.69,6-6-2.69-6-6-6Zm3,7h-2v2c0,.55-.45,1-1,1s-1-.45-1-1v-2h-2c-.55,0-1-.45-1-1s.45-1,1-1h2v-2c0-.55,.45-1,1-1s1,.45,1,1v2h2c.55,0,1,.45,1,1s-.45,1-1,1Z" style="fill:#68a611; fill-rule:evenodd;"/></svg>