<svg width="24" height="24" viewBox="0 0 24 24" fill="none" xmlns="http://www.w3.org/2000/svg">
<path fill-rule="evenodd" clip-rule="evenodd" d="M24 2C24 1 23 0 22 0C21.6 0 2.5 0 2 0C1 0 0 1 0 2C0 2.5 0 21.5 0 22C0 23 1 24 2 24C2.5 24 15.2 24 17.6 24C17.8 24 18 24 18 24L24 18C24 18 24 2.5 24 2ZM18 22V18H22L18 22ZM22 16H16V22H2V2H22V16ZM7.5 8H16.5C16.8 8 17 7.8 17 7.5C17 7.2 16.8 7 16.5 7H7.5C7.2 7 7 7.2 7 7.5C7 7.8 7.2 8 7.5 8ZM7.5 11H16.5C16.8 11 17 10.8 17 10.5C17 10.2 16.8 10 16.5 10H7.5C7.2 10 7 10.2 7 10.5C7 10.8 7.2 11 7.5 11Z" fill="#0089D9"/>
</svg>
