<?xml version="1.0" encoding="UTF-8"?><svg id="jv" xmlns="http://www.w3.org/2000/svg" width="24" height="24" xmlns:xlink="http://www.w3.org/1999/xlink" viewBox="0 0 24 24"><defs><clipPath id="jw"><path d="M21,8c-2.76,0-5-2.24-5-5,0-1.13,.39-2.16,1.02-3H0V24H24V6.98c-.84,.63-1.87,1.02-3,1.02Z" style="clip-rule:evenodd; fill:none; opacity:0;"/></clipPath></defs><g style="clip-path:url(#jw);"><path d="M8.74,18.79h0l-2.47,2.47c-.98,.98-2.56,.98-3.54,0-.98-.98-.98-2.56,0-3.54l2.83-2.83,2.64-2.64c-1.42-.28-2.96,.13-4.06,1.23l-2.83,2.83c-1.76,1.76-1.76,4.61,0,6.36,1.76,1.76,4.61,1.76,6.36,0l2.83-2.83c1.1-1.1,1.51-2.64,1.23-4.06l-3,3ZM20.41,3.59c-1.76-1.76-4.61-1.76-6.36,0l-2.83,2.83c-1.1,1.1-1.51,2.64-1.23,4.06l2.29-2.29c.06-.06,.13-.11,.19-.16,.05-.06,.1-.13,.16-.19l2.83-2.83c.98-.98,2.56-.98,3.54,0,.98,.98,.98,2.56,0,3.54l-2.83,2.83c-.06,.06-.13,.11-.19,.16-.05,.07-.1,.13-.16,.2l-2.29,2.29c1.42,.28,2.96-.13,4.06-1.23l2.83-2.83c1.76-1.76,1.76-4.61,0-6.36Zm-11.65,13.24l5.9-5.78c1.1-1.1-.62-2.81-1.71-1.72l-5.78,5.93c-1.21,1.21,.38,2.77,1.59,1.56Z" style="fill:#0089d9; fill-rule:evenodd;"/></g><g id="jx"><path d="M21,0c1.66,0,3,1.34,3,3s-1.34,3-3,3-3-1.34-3-3,1.34-3,3-3Z" style="fill:#d6565a; fill-rule:evenodd;"/></g></svg>