<svg width="24" height="24" viewBox="0 0 24 24" fill="none" xmlns="http://www.w3.org/2000/svg">
<path d="M20.2 5.9C20.4 6.1 20.7 6.2 20.9 6.2C21.2 6.2 21.4 6.1 21.6 5.9L23.7 3.8C23.9 3.6 24 3.4 24 3.1C24 2.8 23.9 2.6 23.7 2.4L21.6 0.3C21.2 -0.1 20.6 -0.1 20.2 0.3C19.8 0.7 19.8 1.3 20.2 1.7L20.5 2H11C4.9 2 0 6.9 0 13C0 19.1 4.9 24 11 24C17.1 24 22 19.1 22 13C22 10.5 21.2 8.2 19.7 6.3C19.4 5.9 18.7 5.8 18.3 6.1C17.9 6.4 17.8 7.1 18.1 7.5C19.3 9.1 20 11 20 13C20 18 16 22 11 22C6 22 2 18 2 13C2 8 6 4 11 4H20.7L20.2 4.5C19.8 4.9 19.8 5.5 20.2 5.9ZM11.9 12.6L8.8 6.4C8.7 6.2 8.6 6.2 8.4 6.2C8.2 6.2 8.1 6.4 8.2 6.6C8.1 6.6 8 6.6 7.9 6.7C7.7 6.8 7.6 7.1 7.8 7.4C7.9 7.6 8.2 7.7 8.5 7.6L10.1 13.4C10.1 13.5 10.1 13.5 10.2 13.6C10.4 14.1 11 14.3 11.5 14.1C12 13.7 12.2 13.1 11.9 12.6ZM12 6.5C12 6.2 11.8 6 11.5 6C11.2 6 11 6.2 11 6.5C11 6.8 11.2 7 11.5 7C11.8 7 12 6.8 12 6.5ZM11 19.5C11 19.8 11.2 20 11.5 20C11.8 20 12 19.8 12 19.5C12 19.2 11.8 19 11.5 19C11.2 19 11 19.2 11 19.5ZM4 13.5C4 13.8 4.2 14 4.5 14C4.8 14 5 13.8 5 13.5C5 13.2 4.8 13 4.5 13C4.2 13 4 13.2 4 13.5ZM17.5 14C17.8 14 18 13.8 18 13.5C18 13.2 17.8 13 17.5 13C17.2 13 17 13.2 17 13.5C17 13.8 17.2 14 17.5 14ZM14.4 17.9C14.2 18 14.1 18.3 14.2 18.6C14.3 18.8 14.6 18.9 14.9 18.8C15.1 18.7 15.2 18.4 15.1 18.1C15 17.9 14.7 17.8 14.4 17.9ZM5.4 16.2C5.2 16.3 5.1 16.6 5.2 16.9C5.3 17.1 5.6 17.2 5.9 17.1C6.1 17 6.2 16.7 6.1 16.4C5.9 16.2 5.6 16.1 5.4 16.2ZM16.8 10.8C17 10.7 17.1 10.4 17 10.1C16.9 9.9 16.6 9.8 16.3 9.9C16.1 10 16 10.3 16.1 10.6C16.3 10.8 16.6 10.9 16.8 10.8ZM6 9C5.8 8.8 5.5 8.9 5.4 9.2C5.2 9.4 5.3 9.7 5.5 9.8C5.8 10 6.1 9.9 6.2 9.7C6.4 9.4 6.3 9.1 6 9ZM16.3 16.9C16.5 17 16.8 17 17 16.7C17.1 16.5 17.1 16.2 16.8 16C16.6 15.9 16.3 15.9 16.1 16.2C16 16.5 16.1 16.8 16.3 16.9ZM7.9 18.4C7.8 18.6 7.8 18.9 8.1 19.1C8.3 19.2 8.6 19.2 8.8 18.9C8.9 18.7 8.9 18.4 8.6 18.2C8.4 18.1 8.1 18.2 7.9 18.4ZM14.9 7.1C14.7 7 14.4 7 14.2 7.3C14.1 7.5 14.1 7.8 14.4 8C14.7 8.1 15 8 15.1 7.8C15.2 7.6 15.2 7.3 14.9 7.1Z" fill="#0089D9"/>
</svg>
