<svg width="24" height="24" viewBox="0 0 24 24" fill="none" xmlns="http://www.w3.org/2000/svg">
<path fill-rule="evenodd" clip-rule="evenodd" d="M17.7 6L12 0.3V0H0V22H9.5C9.1 21.4 8.8 20.7 8.5 20H2V2H11V7H12H16V8.1C16.3 8 16.7 8 17 8C17.3 8 17.7 8 18 8.1V7V6H17.7ZM12 6V2.5L15.6 6H12ZM8.9 13H5.5C5.2 13 5 13.2 5 13.5C5 13.8 5.2 14 5.5 14H8.5C8.6 13.7 8.8 13.3 8.9 13ZM8.5 9C8.2 9 8 9.2 8 9.5C8 9.8 8.2 10 8.5 10H11.4C11.8 9.6 12.3 9.3 12.8 9.1C12.7 9 12.6 9 12.5 9H8.5ZM5 15.5C5 15.8 5.2 16 5.5 16H8.1C8.1 15.7 8.2 15.3 8.3 15H5.5C5.2 15 5 15.2 5 15.5ZM5 11.5C5 11.8 5.2 12 5.5 12H9.5C9.7 11.6 10 11.3 10.3 11H5.5C5.2 11 5 11.2 5 11.5Z" fill="#0089D9"/>
<path fill-rule="evenodd" clip-rule="evenodd" d="M17 10C13.1 10 10 13.1 10 17C10 20.9 13.1 24 17 24C20.9 24 24 20.9 24 17C24 13.1 20.9 10 17 10ZM19.8 18.4C20.2 18.8 20.2 19.4 19.8 19.8C19.4 20.2 18.8 20.2 18.4 19.8L17 18.4L15.6 19.8C15.2 20.2 14.6 20.2 14.2 19.8C13.8 19.4 13.8 18.8 14.2 18.4L15.6 17L14.2 15.6C13.8 15.2 13.8 14.6 14.2 14.2C14.6 13.8 15.2 13.8 15.6 14.2L17 15.6L18.4 14.2C18.8 13.8 19.4 13.8 19.8 14.2C20.2 14.6 20.2 15.2 19.8 15.6L18.4 17L19.8 18.4Z" fill="#D6565A"/>
</svg>
