<svg width="24" height="24" viewBox="0 0 24 24" fill="none" xmlns="http://www.w3.org/2000/svg">
<path fill-rule="evenodd" clip-rule="evenodd" d="M23 8V6C23 5 22 4 21 4H12.5L10.9 2.1C10.3 1.3 9.7 1 8.5 1H3.5C1.9 1 1 1.9 1 3.6V8C0.4 8 0 8.4 0 9L1 19C1 20.7 2.3 22 4 22H20C21.7 22 23 20.7 23 19L24 9C24 8.4 23.6 8 23 8ZM3 4C3 3.4 3.4 3 4 3H8C9 3 9.8 3.7 10 4L12 6H20C20.6 6 21 6.4 21 7V8H3V4ZM21 19C21 20.1 20.1 20 19 20H5C3.9 20 3 20.1 3 19L2 10C2 9.4 2.4 9 3 9H21C21.6 9 22 9.4 22 10L21 19Z" fill="#0089D9"/>
</svg>
