<svg width="24" height="24" viewBox="0 0 24 24" fill="none" xmlns="http://www.w3.org/2000/svg">
<g clip-path="url(#clip0_6_17458)">
<path fill-rule="evenodd" clip-rule="evenodd" d="M17.7 6L12 0.3V0H0V22H9.5C9.1 21.4 8.8 20.7 8.5 20H2V2H11V7H12H16V8.1C16.3 8 16.7 8 17 8C17.3 8 17.7 8 18 8.1V7V6H17.7ZM12 6V2.5L15.6 6H12ZM8.9 13H5.5C5.2 13 5 13.2 5 13.5C5 13.8 5.2 14 5.5 14H8.5C8.6 13.7 8.8 13.3 8.9 13ZM8.5 9C8.2 9 8 9.2 8 9.5C8 9.8 8.2 10 8.5 10H11.4C11.8 9.6 12.3 9.3 12.8 9.1C12.7 9 12.6 9 12.5 9H8.5ZM5 15.5C5 15.8 5.2 16 5.5 16H8.1C8.1 15.7 8.2 15.3 8.3 15H5.5C5.2 15 5 15.2 5 15.5ZM5 11.5C5 11.8 5.2 12 5.5 12H9.5C9.7 11.6 10 11.3 10.3 11H5.5C5.2 11 5 11.2 5 11.5Z" fill="#0089D9"/>
<path fill-rule="evenodd" clip-rule="evenodd" d="M21.9 12.1C19.2 9.4 14.7 9.4 12 12.1C9.30001 14.8 9.30001 19.3 12 22C14.7 24.7 19.2 24.7 21.9 22C24.7 19.2 24.7 14.8 21.9 12.1ZM20.7 20.7C20.3 21.1 19.7 21.1 19.3 20.7L15 16.4V18.4C15 19 14.6 19.4 14 19.4C13.4 19.4 13 19 13 18.4V14C13 13.7 13.1 13.5 13.3 13.3C13.5 13.1 13.7 13 14 13H18.4C19 13 19.4 13.5 19.4 14C19.4 14.5 19 15 18.4 15H16.4L20.7 19.3C21.1 19.7 21.1 20.3 20.7 20.7Z" fill="#0089D9"/>
</g>
<defs>
<clipPath id="clip0_6_17458">
<rect width="140" height="24" fill="white"/>
</clipPath>
</defs>
</svg>
