<svg data-name="Layer 1" xmlns="http://www.w3.org/2000/svg" width="24" height="24"><path fill-rule="evenodd" clip-rule="evenodd" fill="#0089D9" d="M23.6,0.2C23.4,0.1,23.2,0,23,0c-0.2,0-0.3,0-0.5,0.1L0.5,12C0.2,12.1,0,12.6,0,13c0,0.4,0.2,0.8,0.6,1L6,17
				l1,6.1C7.1,23.6,7.5,24,8,24c0.4,0,0.7-0.2,1-0.5l3-3.5l5.1,2.9c0.3,0.2,1,0.2,1.3,0.1c0.3-0.1,0.5-0.4,0.6-0.7l5-21
				c0-0.1,0-0.2,0-0.2C24,0.7,23.9,0.4,23.6,0.2z M3.2,13l16.9-9.4L7.3,15L3.2,13z M8.6,20.1L8,15.9c0,0,0-0.1,0-0.1L21.4,3.2
				L10.6,17.3c-0.1,0.1-0.1,0.1-0.2,0.2l-0.1,0.1L10,18l0,0L8.6,20.1z M17.3,20.5l-5.4-3.2l9.3-12.6L17.3,20.5z"/></svg>