<svg width="24" height="24" viewBox="0 0 24 24" fill="none" xmlns="http://www.w3.org/2000/svg">
<path fill-rule="evenodd" clip-rule="evenodd" d="M12 4C5.5 4 0.2 11.2 0 11.5V12.4C0.2 12.8 5.5 20 12 20C18.5 20 23.8 12.8 24 12.5V11.6C23.8 11.2 18.5 4 12 4ZM2 12C2.5 11.4 4.1 9.5 6.3 8C5.5 9.1 5 10.5 5 12C5 13.4 5.4 14.8 6.2 15.9C4 14.4 2.5 12.5 2 12ZM12 18C8.7 18 6 15.3 6 12C6 8.7 8.7 6 12 6C15.3 6 18 8.7 18 12C18 15.3 15.3 18 12 18ZM17.8 16C18.6 14.9 19 13.5 19 12.1C19 10.6 18.5 9.2 17.7 8.1C19.9 9.6 21.5 11.5 22 12.1C21.5 12.5 20 14.4 17.8 16ZM12 8C11.4 8 10.9 8.1 10.4 8.3C10.8 8.6 11 9 11 9.5C11 10.4 10.3 11 9.5 11C9 11 8.6 10.8 8.3 10.4C8.1 10.9 8 11.4 8 12C8 14.2 9.8 16 12 16C14.2 16 16 14.2 16 12C16 9.7 14.2 8 12 8Z" fill="#0089D9"/>
</svg>
