<svg width="24" height="24" viewBox="0 0 24 24" fill="none" xmlns="http://www.w3.org/2000/svg">
<path fill-rule="evenodd" clip-rule="evenodd" d="M16 0.3V0H2V24H22V6.3L16 0.3ZM19.6 6H16V2.5L19.6 6ZM4 22V2H14V8H20V22H4Z" fill="#0089D9"/>
<path d="M5 18V12H7.9C8.22392 12.1094 8.50429 12.3197 8.7 12.6C8.92429 12.9583 9.02931 13.3783 9 13.8C8.99089 14.1423 8.92325 14.4805 8.8 14.8C8.7 15 8.6 15.3 8.4 15.4L7.8 15.8L6.7 16H6V18H5ZM6 13V15H7.5C7.6776 14.9198 7.81983 14.7776 7.9 14.6C7.96073 14.514 8.00126 14.4153 8.01858 14.3114C8.03589 14.2075 8.02954 14.1011 8 14C8.00919 13.8916 7.9962 13.7826 7.96181 13.6794C7.92742 13.5762 7.87236 13.4812 7.8 13.4C7.7 13.2 7.5 13.1 7.4 13H6Z" fill="#0089D9"/>
<path d="M10 12H12.7C12.9791 12.1395 13.2195 12.3456 13.4 12.6C13.5917 12.8705 13.7277 13.1764 13.8 13.5C13.9287 13.9898 13.9959 14.4936 14 15C14.0259 15.4027 13.9922 15.8071 13.9 16.2C13.7825 16.606 13.5778 16.9814 13.3 17.3C13.1477 17.5167 12.9406 17.6892 12.7 17.8H10V12ZM11 13V17H12.3L12.7 16.8C12.8 16.7 12.8 16.5 12.9 16.2C13.0045 15.8091 13.0383 15.4028 13 15C13.0268 14.6303 12.9931 14.2588 12.9 13.9C12.8 13.7 12.8 13.5 12.6 13.4C12.4 13.3 12.4 13.1 12.2 13.1H11V13Z" fill="#0089D9"/>
<path d="M15 18V12H19V13H16V15H18V16H16V18H15Z" fill="#0089D9"/>
</svg>
