<?xml version="1.0" encoding="UTF-8"?><svg id="e" xmlns="http://www.w3.org/2000/svg" width="24" height="24" xmlns:xlink="http://www.w3.org/1999/xlink" viewBox="0 0 24 24"><defs><clipPath id="f"><polygon points="16 24 0 24 0 3 3 3 16 24" style="clip-rule:evenodd; fill:none;"/></clipPath><clipPath id="g"><polygon points="24 24 24 0 8 0 22 24 24 24" style="clip-rule:evenodd; fill:none;"/></clipPath></defs><g style="clip-path:url(#f);"><path d="M12,4C5.45,4,.22,11.24,0,11.53v.94c.22,.29,5.45,7.53,12,7.53s11.78-7.24,12-7.53v-.94c-.22-.29-5.45-7.53-12-7.53ZM2,11.96c.51-.57,2.06-2.45,4.25-3.95-.8,1.14-1.27,2.51-1.27,4s.44,2.77,1.18,3.89c-2.15-1.51-3.67-3.38-4.17-3.94Zm9.99,6.05c-3.3,0-5.99-2.7-5.99-6.01s2.69-6.01,5.99-6.01,5.99,2.7,5.99,6.01-2.69,6.01-5.99,6.01Zm5.8-2.05c.77-1.12,1.22-2.48,1.22-3.94s-.49-2.91-1.3-4.05c2.23,1.5,3.81,3.42,4.33,3.99-.51,.57-2.06,2.48-4.25,4ZM11.99,7.93c-.55,0-1.08,.11-1.56,.32,.36,.28,.6,.72,.6,1.22,0,.85-.68,1.54-1.53,1.54-.5,0-.93-.24-1.21-.61-.2,.48-.32,1.01-.32,1.57,0,2.23,1.8,4.04,4.02,4.04s4.02-1.81,4.02-4.04-1.8-4.04-4.02-4.04Z" style="fill:#0089d9; fill-rule:evenodd;"/></g><g style="clip-path:url(#g);"><path d="M12,4C5.45,4,.22,11.24,0,11.53v.94c.22,.29,5.45,7.53,12,7.53s11.78-7.24,12-7.53v-.94c-.22-.29-5.45-7.53-12-7.53ZM2,11.96c.51-.57,2.06-2.45,4.25-3.95-.8,1.14-1.27,2.51-1.27,4s.44,2.77,1.18,3.89c-2.15-1.51-3.67-3.38-4.17-3.94Zm9.99,6.05c-3.3,0-5.99-2.7-5.99-6.01s2.69-6.01,5.99-6.01,5.99,2.7,5.99,6.01-2.69,6.01-5.99,6.01Zm5.8-2.05c.77-1.12,1.22-2.48,1.22-3.94s-.49-2.91-1.3-4.05c2.23,1.5,3.81,3.42,4.33,3.99-.51,.57-2.06,2.48-4.25,4ZM11.99,7.93c-.55,0-1.08,.11-1.56,.32,.36,.28,.6,.72,.6,1.22,0,.85-.68,1.54-1.53,1.54-.5,0-.93-.24-1.21-.61-.2,.48-.32,1.01-.32,1.57,0,2.23,1.8,4.04,4.02,4.04s4.02-1.81,4.02-4.04-1.8-4.04-4.02-4.04Z" style="fill:#0089d9; fill-rule:evenodd;"/></g><line x1="6" y1="2.18" x2="18" y2="21.77" style="fill:#fff; stroke:#0089d9; stroke-linecap:round; stroke-linejoin:round; stroke-width:2px;"/></svg>