<svg width="24" height="24" viewBox="0 0 24 24" fill="none" xmlns="http://www.w3.org/2000/svg">
<path fill-rule="evenodd" clip-rule="evenodd" d="M21 4H11.5C11.5 4 10 1 8 1H3C1.5 1 0 2.5 0 4V19C0 20.5 1.5 22 3 22H21C22.9 22 24 20.2 24 19V7C24 5.5 22.5 4 21 4ZM2 4C2 3.5 2.5 3 3 3C3.5 3 7 3 8 3C9 3 10 5 10 5H2C2 5 2 4.5 2 4ZM22 19C22 19.5 21.5 20 21 20H3C2.5 20 2 19.5 2 19V6C2 6 20.5 6 21 6C21.5 6 22 6.5 22 7V19ZM10 9C10 8.4 9.6 8 9 8H5C4.5 8 4 8.5 4 9C4 9.5 4.5 10 5 10H9C9.6 10 10 9.6 10 9ZM19 12H9C8.4 12 8 12.5 8 13C8 13.5 8.4 14 9 14H19C19.6 14 20 13.6 20 13C20 12.4 19.6 12 19 12ZM12 16H7C6.4 16 6 16.5 6 17C6 17.6 6.5 18 7 18H12C12.6 18 13 17.6 13 17C13 16.5 12.6 16 12 16Z" fill="#0089D9"/>
</svg>
