<svg width="24" height="24" viewBox="0 0 24 24" fill="none" xmlns="http://www.w3.org/2000/svg">
<path d="M18.6 8.1C18.1 8.1 17.6 8.2 17.1 8.3C15.9 5.8 13.3 4 10.4 4C6.5 4 3.7 6.9 3.2 10.2C1.3 10.8 0 12.5 0 14.5C0 17 2 19 4.5 19H18.6C21.6 19 24 16.5 24 13.5C24 10.5 21.6 8.1 18.6 8.1ZM18.6 17H4.5C2.9 17 1.6 16.1 1.6 14.5C1.6 13.4 2.2 12.5 3.1 12C3.2 13 3.5 14 4 14.9C4.2 15.3 4.7 15.4 5.1 15.2C5.5 15 5.6 14.5 5.4 14.1C3.4 10.4 6 5.7 10.4 5.7C12.7 5.7 14.7 7 15.6 9.1C15.4 9.2 15.3 9.3 15.1 9.4C14.8 9.7 14.7 10.2 15 10.5C15.3 10.8 15.8 10.9 16.1 10.6C16.8 10 17.6 9.7 18.5 9.7C20.6 9.7 22.3 11.4 22.3 13.5C22.3 15.6 20.7 17 18.6 17Z" fill="#0089D9"/>
</svg>
