<svg width="24" height="24" viewBox="0 0 24 24" fill="none" xmlns="http://www.w3.org/2000/svg">
<path fill-rule="evenodd" clip-rule="evenodd" d="M22.8 7.30001C22 6.50001 17.5 2.00001 16.7 1.20001C15.9 0.400006 14.4 0.400006 13.7 1.20001C16.4 8.70001 5.7 8.50001 5.7 8.40001C4.9 9.20001 4.9 10.7 5.7 11.4C6 11.8 7 12.7 8.1 13.9L1 23L10.2 15.9C11.3 17 12.3 18 12.6 18.3C13.3 19 14.9 19 15.6 18.3C15.6 18.3 15.3 7.50001 22.8 10.3C23.6 9.50001 23.6 8.10001 22.8 7.30001ZM15.3 10.7C14.5 12 13.9 13.7 13.6 15.8C13.6 16 13.6 16.2 13.5 16.3L7.7 10.5C7.9 10.5 8 10.5 8.2 10.4C10.2 10.1 11.9 9.60001 13.2 8.70001C15.1 7.50001 16.1 5.80001 16.2 3.70001L20.2 7.70001C18.2 7.80001 16.5 8.80001 15.3 10.7Z" fill="#0089D9"/>
</svg>
