<svg width="24" height="24" viewBox="0 0 24 24" fill="none" xmlns="http://www.w3.org/2000/svg">
<path d="M18.5 17C17.4 17 16.4 17.6 15.7 18.4L14.7 17.5L16.3 15.9C21 15.2 24 12.3 24 8C24 5.5 23.2 3.6 21.7 2.2C21.3 1.9 20.8 2 20.3 2C18.7 0.9 17 0 15 0C14.4 0 14 0.4 14 1V7H5.20001L1.40001 5.1C1.00001 4.9 0.400006 5.1 0.100006 5.6C-0.0999936 6.1 0.100006 6.7 0.500006 6.9L4.00001 8.6C4.30001 12.3 7.20001 15 11.4 15.7L13.2 17.4L12.2 18.4C11.6 17.5 10.5 16.9 9.40001 16.9C7.60001 17 6.00001 18.6 6.00001 20.5C6.00001 22.4 7.60001 24 9.50001 24C11.4 24 13 22.4 13 20.5C13 20.1 12.9 19.8 12.8 19.4L14 18.2L15.2 19.3C15.1 19.7 15 20.1 15 20.5C15 22.4 16.6 24 18.5 24C20.4 24 22 22.4 22 20.5C22 18.6 20.4 17 18.5 17ZM9.50001 22C8.70001 22 8.00001 21.3 8.00001 20.5C8.00001 19.7 8.70001 19 9.50001 19C10.3 19 11 19.7 11 20.5C11 21.3 10.3 22 9.50001 22ZM22 8C22 8.1 22 8.3 22 8.4C22 8.2 21.8 8 21.5 8H16.7L20.6 4.1C21.6 5 22 6.3 22 8ZM19.4 3.8L16 7.3V2.1C17.2 2.4 18.4 3.1 19.4 3.8ZM6.10001 9H21.5C21.7 9 21.9 8.9 22 8.7C21.6 12 18.6 14 14.2 14C9.80001 14 6.60001 12.1 6.10001 9ZM13.2 16C13.5 16 13.9 16 14.2 16C14.4 16 14.6 16 14.8 16L14 16.8L13.2 16ZM18.5 22C17.7 22 17 21.3 17 20.5C17 19.7 17.7 19 18.5 19C19.3 19 20 19.7 20 20.5C20 21.3 19.3 22 18.5 22Z" fill="#FF8B00"/>
</svg>
