<?xml version="1.0" encoding="UTF-8"?><svg id="e" xmlns="http://www.w3.org/2000/svg" width="24" height="24" viewBox="0 0 24 24"><path d="M9.99,6.95c-.01,.05-.03,.11-.03,.17,0,.44,.43,.81,1.03,.95v.43c0,.28,.22,.5,.5,.5s.5-.22,.5-.5v-.44c.57-.14,.97-.51,.97-.93,0-.55-.67-1-1.5-1-.27,0-.51,.05-.73,.13,.32-.3,.52-.56,.16-.9-.46-.44-1.19-.44-1.65,0-.46,.44-.46,1.14,0,1.58,.28,.27,.51,.21,.74,.02Zm2.6-.54c.45,.43,.74,.84,1.19,.41,.45-.43,.45-1.12,0-1.55-.45-.43-1.17-.43-1.62,0-.45,.43-.02,.71,.43,1.14Zm-2.59,3.08c0,.28,.22,.5,.5,.5h2c.28,0,.5-.22,.5-.5s-.22-.5-.5-.5h-2c-.28,0-.5,.22-.5,.5Zm11.67,.15c1.82-1.8,1.33-3.05,.48-3.9-.85-.85-2.16-1.34-3.9,.48l-1.2,1.2c0-.63-.1-1.23-.27-1.81,.88-.56,1.42-1.52,1.42-2.56C18.22,1.37,16.8,0,15.05,0,14.01,0,13.07,.48,12.49,1.27c-.58-.17-1.19-.27-1.83-.27-1.1,0-2.16,.28-3.1,.77-.59-.48-1.34-.77-2.14-.77-1.8,0-3.26,1.36-3.26,3.02,0,1.18,.75,2.23,1.86,2.72-.03,.25-.05,.5-.05,.76,0,1.72,.72,3.28,1.85,4.44-1.2,.85-3.36,2.6-3.61,4.64-.08,.68,.15,1.32,.53,1.91-.76,.94-.91,1.94,.08,3.07,.93,1.06,3.15,2.45,4.66,2.45,.64,0,1.24-.17,1.71-.58h0c.44-.38,.64-.87,.69-1.42h2.98c.22,.98,.73,1.74,1.63,1.94,.17,.04,.34,.06,.5,.06,1.71,0,3.31-1.9,3.77-3.84,.45-1.87-.26-3.36-1.81-3.94v-1.86l4.71-4.71ZM4.52,4.94c-.32-.25-.56-.61-.56-.92,0-.56,.25-1.02,.95-1.02,.21,0,.54,.04,.85,.12-.51,.54-.94,1.15-1.24,1.83ZM15.05,2c.64,0,1.16,.48,1.16,1.07,0,.27-.12,.51-.3,.7-.42-.61-.94-1.14-1.53-1.57,.19-.13,.43-.2,.67-.2Zm-4.4,1c2.48,0,4.41,2.02,4.41,4.5s-1.92,4.5-4.41,4.5-4.69-2.02-4.69-4.5,2.21-4.5,4.69-4.5Zm-2.77,18.91c-.41,.32-2.72-.21-3.65-1.27-.72-.82,.26-1.14,.45-1.3,.13-.11,.4-.34,.82-.34,.31,0,.69,.12,1.15,.51,1,.83,1.38,2.12,1.24,2.4Zm9.1-2.21c-.33,1.38-1.57,2.41-2.05,2.3-.23-.05-.75-1.21-.44-2.6,.27-1.2,.86-1.4,1.27-1.4,.15,0,.28,.03,.35,.04,.26,.06,1.19,.26,.86,1.66Zm-2.02-6.16v2.62c-1.02,.34-1.71,1.32-2.04,2.81-.08,.34-.12,.69-.15,1.04h-3.3c-.23-.48-.52-.94-.87-1.35-.19-.23-.4-.43-.6-.61v-2.53c0-.28-.22-.5-.5-.5s-.5,.22-.5,.5v1.89c-.92-.45-1.9-.48-2.79-.08-.09-.12-.16-.24-.14-.39,.15-1.18,1.99-2.75,3.42-3.7h.01c.95,.5,2.03,.78,3.15,.78,2.34,0,4.36-1.25,5.47-3.12l3.54-3.23c1.07-1.07,1.59-.41,.59,.59l-5.29,5.29Z" style="fill:#ff8b00; fill-rule:evenodd;"/></svg>