<svg width="24" height="24" viewBox="0 0 24 24" fill="none" xmlns="http://www.w3.org/2000/svg">
<path fill-rule="evenodd" clip-rule="evenodd" d="M20 8C19.4 8 19 8.4 19 9C19 9.6 19.4 10 20 10C20.6 10 21 9.6 21 9C21 8.4 20.6 8 20 8ZM22 5H20V0H4V5H2C0.9 5 0 5.9 0 7V15C0 16.1 0.9 17 2 17H4V24H16L20 20V17H22C23.1 17 24 16.1 24 15V7C24 5.9 23.1 5 22 5ZM6 2H18V5H6V2ZM18 19H15V22H6V12H18V19ZM22 14C22 14.6 21.6 15 21 15H20V11H4V15H3C2.4 15 2 14.6 2 14V8C2 7.4 2.4 7 3 7H21C21.6 7 22 7.4 22 8V14Z" fill="#0089D9"/>
</svg>
