<svg width="24" height="24" viewBox="0 0 24 24" fill="none" xmlns="http://www.w3.org/2000/svg">
<g clip-path="url(#clip0_6_18550)">
<path fill-rule="evenodd" clip-rule="evenodd" d="M23.5 22.3C23.1 22.4 22.8 22.4 22.4 22.4C22.8 22 23 21.5 23 21C23 19.9 22.1 19 20.9 19C19.8 19 18.8 19.9 18.8 21C18.8 21.4 18.9 21.8 19.2 22.2C18.6 22.6 18 22.6 17.5 22.3C17.8 22.1 18 21.9 18.3 21.6C17.9 19.2 15.4 16.3 13 15.1C11.9 15.6 11.1 16.6 10.2 17.9C8.80002 17.4 8.00002 15.7 7.00002 14C6.00002 12.4 5.00002 10.6 5.30002 9C6.80002 8.8 8.10002 8.5 9.10002 7.8C9.20002 5.2 8.00002 1.5 6.00002 0C1.50002 1.2 -2.99999 6.9 2.30001 16.4C6.80001 24.1 12.4 24.9 16.1 23.2C17.3 24.3 19.1 24.4 20.1 22.9C20.7 24.1 23 24.3 23.9 23.2C24.1 23.1 23.9 22.5 23.5 22.3ZM4.00002 15.4C1.10002 10.3 1.00002 4.4 5.30002 2.2C6.30002 3.1 7.20002 5.2 7.20002 6.4C6.50002 7.1 4.50002 7.3 3.20002 7.1C2.80002 9.9 3.60002 12.7 5.10002 14.8C6.20002 17.2 8.10002 19.4 10.8 20.4C11.3 19.2 12.5 17.5 13.5 17.3C14.6 17.9 15.9 19.8 16.2 21.1C12.1 23.8 7.00002 20.6 4.00002 15.4ZM21 21.6C20.7 21.6 20.4 21.3 20.4 21C20.4 20.7 20.7 20.4 21 20.4C21.3 20.4 21.6 20.7 21.6 21C21.6 21.3 21.3 21.6 21 21.6Z" fill="#0089D9"/>
</g>
<defs>
<clipPath id="clip0_6_18550">
<rect width="140" height="24" fill="white"/>
</clipPath>
</defs>
</svg>
