<svg width="24" height="24" viewBox="0 0 24 24" fill="none" xmlns="http://www.w3.org/2000/svg">
<path fill-rule="evenodd" clip-rule="evenodd" d="M5 15.5C5 15.8 5.2 16 5.5 16H10V15H5.5C5.2 15 5 15.2 5 15.5ZM13 2H10.9C10.7 0.9 9.7 0 8.5 0C7.3 0 6.3 0.9 6.1 2H4V6H13V2ZM7 2C7 1.5 7.6 1 8.5 1C9.3 1 10 1.5 10 2H7ZM2 5H3V3H0V22H10V20H2V5ZM15 6H17V3H14V5H15V6ZM5 9.5C5 9.8 5.2 10 5.5 10H10V9H5.5C5.2 9 5 9.2 5 9.5ZM24 13V12L19 7H11V24H24V13ZM20 10L21 11H20V10ZM22 22H13V9H18V13H20H22V22ZM5 13.5C5 13.8 5.2 14 5.5 14H10V13H5.5C5.2 13 5 13.2 5 13.5ZM5 11.5C5 11.8 5.2 12 5.5 12H10V11H5.5C5.2 11 5 11.2 5 11.5Z" fill="#0089D9"/>
</svg>
