<svg width="24" height="24" viewBox="0 0 24 24" fill="none" xmlns="http://www.w3.org/2000/svg">
<path fill-rule="evenodd" clip-rule="evenodd" d="M17 24H7C6 24 5 23 5 22V2C5 1 6 0 7 0H17C18 0 19 1 19 2V22C19 23 18 24 17 24ZM17 3C17 2 16.3 2 16 2H8C7.7 2 7 2 7 3V5H17V3ZM17 6H7V17H17V6ZM17 18H7V21C7 22 7.7 22 8 22H16C16.3 22 17 22 17 21V18ZM12 22C10.9 22 10 21.1 10 20C10 18.9 10.9 18 12 18C13.1 18 14 18.9 14 20C14 21.1 13.1 22 12 22ZM12 18.5C11.2 18.5 10.5 19.2 10.5 20C10.5 20.8 11.2 21.5 12 21.5C12.8 21.5 13.5 20.8 13.5 20C13.5 19.2 12.8 18.5 12 18.5ZM11 3H13C14 3 14 3.2 14 3.5C14 3.8 14 4 13 4H11C10 4 10 3.8 10 3.5C10 3.2 10 3 11 3Z" fill="#0089D9"/>
</svg>
