<?xml version="1.0" encoding="UTF-8"?><svg id="pj" xmlns="http://www.w3.org/2000/svg" width="24" height="24" viewBox="0 0 24 24"><path d="M11,3v6h1v-3h2v-1h-2V3h-1Zm4,12h-2v1h2v-1ZM3,7H7V3H3v4ZM14,1h-4v1h4V1Zm7,2h-4v4h4V3Zm2-2H15v8h8V1Zm-1,7h-6V2h6v6Zm-3,11v-3h2v-1h-5v1h2v3h1Zm-6-5v-1h2v-1h-2v-1h-4v1h3v2h1Zm-1,7v-6h-1v6h1Zm8-11h-6v1h3v2h1v-2h2v-1Zm-15,0H1v1H5v-1Zm13,10h-2v-2h-3v1h2v4h1v-2h2v-1Zm3,0h-1v2h-2v1h5v-1h-2v-2Zm1-8h1v-2h-1v2Zm-3,2h4v-1h-4v1Zm-8,9h2v-1h-2v1Zm-2-14V1H1v8H9ZM2,2h6v6H2V2ZM1,23H9V15H1v8Zm1-7h6v6H2v-6Zm7-3h-2v-2h-1v2h-1v1h4v-1Zm-8,1H3v-2H1v2Zm2,7H7v-4H3v4Zm19-3h-2v1h2v2h1v-6h-1v3Z" style="fill:#0089d9; fill-rule:evenodd;"/></svg>