<?xml version="1.0" encoding="UTF-8"?><svg id="bs" xmlns="http://www.w3.org/2000/svg" width="24" height="24" xmlns:xlink="http://www.w3.org/1999/xlink" viewBox="0 0 24 24"><defs><clipPath id="bu"><polygon id="bv" points="24 .03 0 .03 0 24.03 13 23.95 11 19.95 11 15.95 14 10.95 24 10.95 24 .03" style="clip-rule:evenodd; fill:none; opacity:0;"/></clipPath></defs><g id="bt"><g style="clip-path:url(#bu);"><path d="M11.53,11.86c.08,.72,.22,1.43,.58,1.93,.34,.51,.85,.82,1.51,1.04,.66,.23,1.44,.37,2.28,.77,.42,.2,.86,.49,1.22,.91,.36,.42,.59,.93,.7,1.41,.06,.24,.1,.48,.12,.72l.02,.35c.02,.19-.09,.62-.24,.78-.32,.4-.63,.46-.87,.55l-.67,.22c-.84,.24-1.64,.33-2.43,.4-1.59,.11-3.16,.17-4.74,.16-1.57,0-3.14-.05-4.74-.15-.8-.07-1.59-.16-2.44-.39-.22-.06-.45-.1-.7-.18-.24-.1-.55-.19-.85-.61-.15-.17-.25-.6-.23-.79l.02-.35c.02-.23,.05-.47,.12-.72,.11-.48,.34-1,.7-1.41,.35-.42,.8-.71,1.22-.91,.85-.4,1.62-.54,2.28-.77,.67-.23,1.17-.54,1.51-1.04,.36-.5,.5-1.21,.58-1.93v-.02c.03-.27,.27-.46,.53-.43,.24,.03,.41,.22,.43,.45,.06,.82,.01,1.72-.41,2.58-.42,.88-1.28,1.48-2.05,1.82-.78,.36-1.53,.58-2.08,.88-.55,.31-.79,.64-.88,1.19-.03,.13-.04,.28-.04,.44v.23s-.05-.23-.08-.24c-.09-.09-.06,.05,.04,.13,.09,.1,.22,.21,.37,.28,.63,.27,1.38,.43,2.12,.57,1.49,.29,3.04,.38,4.58,.39,1.54-.01,3.09-.09,4.58-.37,.74-.14,1.49-.31,2.13-.56,.15-.07,.31-.13,.4-.24,.09-.1,.12-.26,.01-.19-.04,0-.1,.23-.09,.23v-.23c0-.15-.02-.3-.04-.44-.1-.55-.33-.88-.88-1.19-.55-.31-1.3-.52-2.08-.88-.77-.34-1.63-.95-2.05-1.82-.43-.86-.47-1.76-.41-2.58,.02-.27,.25-.47,.51-.45,.24,.02,.42,.2,.45,.43v.02Z" style="fill:#0087e0;"/><path d="M9,12.15c1.09-.01,2.1-1,2.68-2.08,.6-1.1,.93-2.36,.98-3.62,.03-1.26-.14-2.55-.81-3.37-.32-.41-.73-.7-1.22-.87-.48-.19-1.04-.27-1.62-.27-1.17-.02-2.24,.31-2.82,1.15-.62,.82-.8,2.09-.73,3.34,.06,1.25,.34,2.5,.93,3.59,.57,1.07,1.53,2.05,2.61,2.12Zm0,.91c-.82,0-1.56-.36-2.14-.82-.59-.46-1.05-1.04-1.43-1.65-.76-1.23-1.2-2.62-1.37-4.04-.15-1.38-.17-2.97,.74-4.4,.45-.7,1.15-1.26,1.9-1.57,.76-.32,1.54-.44,2.3-.46,.75,0,1.55,.12,2.3,.44,.75,.33,1.45,.9,1.87,1.61,.86,1.44,.84,3,.66,4.37-.19,1.4-.57,2.79-1.33,4.01-.38,.61-.82,1.18-1.4,1.65-.56,.47-1.28,.84-2.1,.87Z" style="fill:#0087e0;"/></g></g><path d="M17.98,11.99c-3.3,0-5.98,2.68-5.98,5.98s2.68,5.98,5.98,5.98,5.98-2.68,5.98-5.98-2.68-5.98-5.98-5.98Zm3.02,6.96h-6c-.55,0-1-.41-1-.97s.45-1.03,1-1.03h6c.55,0,1,.48,1,1.03s-.45,.97-1,.97Z" style="fill:#f2616d; fill-rule:evenodd;"/></svg>