<svg width="24" height="24" viewBox="0 0 24 24" fill="none" xmlns="http://www.w3.org/2000/svg">
<g clip-path="url(#clip0_6_20387)">
<path fill-rule="evenodd" clip-rule="evenodd" d="M20.5 3.50001C15.8 -1.19999 8.20001 -1.19999 3.50001 3.50001C-1.19999 8.20001 -1.19999 15.8 3.50001 20.5C3.70001 20.7 3.90001 20.8 4.00001 21L2.00001 23H8.00001V17L5.50001 19.5C5.30001 19.3 5.10001 19.2 5.00001 19C1.00001 15.1 1.00001 8.80001 4.90001 4.90001C8.80001 1.00001 15.1 1.00001 19 4.90001C21 6.90001 21.9 9.40001 21.9 12H23.9C24 8.90001 22.8 5.90001 20.5 3.50001Z" fill="#0089D9"/>
</g>
<defs>
<clipPath id="clip0_6_20387">
<rect width="140" height="24" fill="white"/>
</clipPath>
</defs>
</svg>
