<?xml version="1.0" encoding="UTF-8"?><svg id="ew" xmlns="http://www.w3.org/2000/svg" width="24" height="24" xmlns:xlink="http://www.w3.org/1999/xlink" viewBox="0 0 24 24"><defs><clipPath id="ez"><path d="M24,12c-2,1-4,3-5,4-1,0-2-1.1-2-2,0-1,4-4,7-4H12v10h12s0-8.37,0-8Z" style="fill:none;"/></clipPath></defs><g id="ex"><g id="ey"><path d="M4.5,17c-.28,0-.5,.22-.5,.5s.22,.5,.5,.5h3c.28,0,.5-.22,.5-.5s-.22-.5-.5-.5h-3ZM15,4h-4.5c-.28,0-.5,.22-.5,.5s.22,.5,.5,.5h4.5c.28,0,.5-.22,.5-.5s-.22-.5-.5-.5Zm-5,11H4.5c-.28,0-.5,.22-.5,.5s.22,.5,.5,.5h5.58c-.05-.33-.08-.66-.08-1ZM18,0H6.28L0,6.25H0v15.75C0,23.1,.9,24,2,24H11s-.53-.85,.06-2H3c-.55,0-1-.45-1-1V8H6c1.1,0,2-.9,2-2V2h9c.55,0,1,.45,1,1v5.1c.71,.12,1.38,.34,2,.66V2c0-1.1-.9-2-2-2ZM6,5c0,.55-.45,1-1,1H2.41l3.59-3.51v2.51Zm7,1h-2.5c-.28,0-.5,.22-.5,.5s.22,.5,.5,.5h2.5c.28,0,.5-.22,.5-.5s-.22-.5-.5-.5Zm-2.71,7H4.5c-.28,0-.5,.23-.5,.5s.22,.5,.5,.5h5.58c.05-.34,.12-.68,.21-1Zm.95-2H4.5c-.28,0-.5,.23-.5,.5s.22,.5,.5,.5h6.17c.16-.35,.35-.69,.57-1Z" style="fill:#0089d9;"/></g><path d="M15.69,23.68l-.69-1.68-1.79,.59c-.28-.05-.39-.39-.19-.59l1.98-3,3,1-1.69,3.68c-.13,.26-.5,.26-.63,0Z" style="fill:#0089d9; fill-rule:evenodd;"/><path d="M19.4,23.62l.6-1.62,1.58,.63c.31,.09,.61-.39,.36-.72l-1.94-2.91-3,1,1.6,3.62c.17,.33,.64,.33,.81,0Z" style="fill:#0089d9; fill-rule:evenodd;"/><path d="M15.35,13.65l2.18,1.82-1.15,.11h0c.87-1.13,1.92-2.04,3.02-2.82,1.11-.78,2.27-1.44,3.49-1.99,.13-.06,.27,0,.33,.13,.05,.12,0,.25-.1,.32h0c-1.1,.68-2.14,1.47-3.09,2.33-.94,.86-1.79,1.83-2.4,2.87h0l-.11,.13c-.25,.28-.69,.31-.97,.06-.03-.02-.05-.05-.07-.07l-1.82-2.18c-.18-.21-.15-.53,.06-.71,.19-.16,.46-.15,.64,0Z" style="fill:#0089d9;"/><g style="clip-path:url(#ez);"><path d="M17,11.5c1.93,0,3.5,1.57,3.5,3.5s-1.57,3.5-3.5,3.5-3.5-1.57-3.5-3.5,1.57-3.5,3.5-3.5m0-1.5c-2.76,0-5,2.24-5,5s2.24,5,5,5,5-2.24,5-5-2.24-5-5-5h0Z" style="fill:#0087e0;"/></g></g></svg>