<?xml version="1.0" encoding="UTF-8"?><svg id="pn" xmlns="http://www.w3.org/2000/svg" width="24" height="24" viewBox="0 0 24 24"><path d="M12.95,5h9.03c.54,0,1.02-.46,1.02-1s-.47-1-1.02-1H12.95c-.54,0-.95,.46-.95,1s.41,1,.95,1Zm0,4h5.06c.54,0,.98-.46,.98-1s-.44-1-.98-1h-5.06c-.54,0-.95,.46-.95,1s.41,1,.95,1ZM1,11H9c.55,0,1-.48,1-1.03V2c0-.55-.45-1-1-1H1C.45,1,0,1.45,0,2v7.97C0,10.52,.45,11,1,11ZM2,3.97c0-.55,.45-.97,1-.97H7c.55,0,1,.42,1,.97v4.06c0,.55-.45,.97-1,.97H3c-.55,0-1-.45-1-1V3.97Zm16.02,15.03h-5.06c-.54,0-.95,.46-.95,1s.41,.97,.95,.97h5.06c.54,0,.98-.42,.98-.97s-.44-1-.98-1Zm-9.02-6H1C.45,13,0,13.45,0,14v7.97C0,22.52,.45,22.97,1,22.97H9c.55,0,1-.45,1-1v-7.97c0-.55-.45-1-1-1Zm-1,7c0,.55-.45,1-1,1H3c-.55,0-1-.45-1-1v-4.03c0-.55,.45-.97,1-.97H7c.55,0,1,.45,1,1v4Zm14-5H13c-.54,0-1,.46-1,1s.41,1,.95,1h9.05c.54,0,1-.46,1-1s-.46-1-1-1Z" style="fill:#0089d9; fill-rule:evenodd;"/></svg>