<svg width="24" height="24" viewBox="0 0 24 24" fill="none" xmlns="http://www.w3.org/2000/svg">
<path fill-rule="evenodd" clip-rule="evenodd" d="M0 14H2V12H0V14ZM0 18H2V16H0V18ZM0 10H2V8H0V10ZM5 6H17C17.5 6 18 5.5 18 5C18 4.4 17.5 4 17 4H5C4.5 4 4 4.4 4 5C4 5.5 4.5 6 5 6ZM5 10H13V8H5C4.5 8 4 8.5 4 9C4 9.5 4.5 10 5 10ZM4 17C4 17.5 4.5 18 5 18H11V16H5C4.5 16 4 16.4 4 17ZM0 6H2V4H0V6ZM13 13V12H5C4.5 12 4 12.5 4 13C4 13.5 4.5 14 5 14H11C11 13 13 14 13 13ZM22 15V13C22 10.8 20.2 9 18 9C15.8 9 14 10.8 14 13V15C12.9 15 12 15.9 12 17V22C12 23.1 12.9 24 14 24H22C23.1 24 24 23.1 24 22V17C24 15.9 23.1 15 22 15ZM16 13C16 11.8 16.9 11 18 11C19.1 11 20 11.8 20 13V15H16V13ZM22 21.3C22 21.7 21.6 22 21.2 22H14.8C14.4 22 14 21.7 14 21.3V17.7C14 17.3 14.4 17 14.8 17H18H21.2C21.6 17 22 17.3 22 17.7V21.3ZM17 18V19C17 19.6 17.4 20 18 20C18.6 20 19 19.6 19 19V18C19 17.4 18.6 17 18 17C17.4 17 17 17.4 17 18Z" fill="#0089D9"/>
</svg>
