<?xml version="1.0" encoding="UTF-8"?><svg id="at" xmlns="http://www.w3.org/2000/svg" width="24" height="24" viewBox="0 0 24 24"><path d="M6.5,7h4c.28,0,.5-.22,.5-.5s-.22-.5-.5-.5H6.5c-.28,0-.5,.22-.5,.5s.22,.5,.5,.5Zm0-2h6c.28,0,.5-.22,.5-.5s-.22-.5-.5-.5H6.5c-.28,0-.5,.22-.5,.5s.22,.5,.5,.5Zm7.09,10.09l-2.62-1.96s.03-.08,.03-.13c0-.55-.45-1-1-1s-1,.45-1,1c0,.22,.09,.42,.21,.58l-2.21,4.42h0c-.55,0-1,.45-1,1s.45,1,1,1,1-.45,1-1c0-.22-.09-.42-.21-.58l2.21-4.42c.15,0,.28-.03,.41-.09l2.62,1.96s-.03,.08-.03,.13c0,.55,.45,1,1,1s1-.45,1-1c0-.18-.06-.34-.14-.49l2.11-3.52s.02,0,.03,0c.55,0,1-.45,1-1s-.45-1-1-1-1,.45-1,1c0,.18,.06,.34,.14,.48l-2.11,3.52s-.02,0-.03,0c-.15,0-.28,.03-.41,.09ZM21.97,5.92L16.01,0H2V24H22l-.03-18.08Zm-1.97,16.08H4V2H14v6h6v14ZM16,6V2l4,4h-4Z" style="fill:#0089d9; fill-rule:evenodd;"/></svg>