<?xml version="1.0" encoding="UTF-8"?><svg id="fc" xmlns="http://www.w3.org/2000/svg" width="25" height="24" xmlns:xlink="http://www.w3.org/1999/xlink" viewBox="0 0 25 24"><defs><clipPath id="ff"><path d="M23,0H0V24s8.86,0,12.18,0c-2.22-1.53-3.68-4.1-3.68-7,0-4.69,3.81-8.5,8.5-8.5,2.83,0,5.33,1.38,6.87,3.5-.87-3-.87-12-.87-12Z" style="clip-rule:evenodd; fill:none;"/></clipPath></defs><g id="fd"><g id="fe"><g style="clip-path:url(#ff);"><path d="M8,7h-3c-.55,0-1,.45-1,1v3c0,.55,.45,1,1,1h3c.55,0,1-.45,1-1v-3c0-.55-.45-1-1-1Zm0,4h-3v-3h3c0,1,0,2,0,3Zm5.58-1h-3c-.28,0-.5,.23-.5,.51s.22,.49,.5,.49h3c.28,0,.42-.22,.42-.49s-.14-.51-.42-.51Zm2.42-7h-2.05c-.11-.55-.43-1-.98-1h-.99c0-1.1-.89-2-1.98-2h-1.98c-1.09,0-1.98,.9-1.98,2h-.99c-.57,0-.9,.45-1.01,1H2C.9,3,0,3.9,0,5v15c0,1.1,.9,2,2,2h14c1.1,0,2-.9,2-2V5c0-1.1-.9-2-2-2ZM9.08,1c1.06,0,1.81,1.19,1.4,2.01h-2.8c-.41-.81,.34-2.01,1.4-2.01Zm6.92,18.01c0,.55-.45,1-1,1H3c-.55,0-1-.45-1-1V5.01c0-.55,.45-1,1-1h1.07c.14,.55,.47,.99,.98,.99h7.91c.51,0,.84-.45,.97-.99h1.06c.55,0,1,.45,1,1v14Zm-2.42-11.01h-3c-.28,0-.5,.23-.5,.51s.22,.49,.5,.49h3c.28,0,.42-.22,.42-.49s-.14-.51-.42-.51Z" style="fill:#0089d9;"/></g></g><g id="fg"><path d="M17,10c-3.87,0-7,3.14-7,7.01s3.13,6.99,7,6.99,7-3.13,7-6.99-3.13-7.01-7-7.01Zm3,8h-2v2c0,.55-.45,1-1,1s-1-.45-1-1v-2h-2c-.55,0-1-.45-1-1s.45-1,1-1h2v-2c0-.55,.45-1,1-1s1,.45,1,1v2h2c.55,0,1,.45,1,1s-.45,1-1,1Z" style="fill:#0089d9; fill-rule:evenodd;"/></g></g></svg>