<svg width="24" height="24" viewBox="0 0 24 24" fill="none" xmlns="http://www.w3.org/2000/svg">
<g clip-path="url(#clip0_6_20550)">
<path fill-rule="evenodd" clip-rule="evenodd" d="M20.5 20.5C25.2 15.8 25.2 8.20001 20.5 3.50001C15.8 -1.19999 8.2 -1.19999 3.5 3.50001C1.2 5.80001 0 8.90001 0 12H2C2 9.40001 3 6.90001 4.9 4.90001C8.8 1.00001 15.1 1.00001 19 4.90001C22.9 8.80001 22.9 15.1 19 19C18.8 19.2 18.7 19.3 18.5 19.5L16 17V23H22L20 21C20.1 20.8 20.3 20.7 20.5 20.5Z" fill="#0089D9"/>
</g>
<defs>
<clipPath id="clip0_6_20550">
<rect width="140" height="24" fill="white"/>
</clipPath>
</defs>
</svg>
