<?xml version="1.0" encoding="UTF-8"?><svg id="kx" xmlns="http://www.w3.org/2000/svg" width="24" height="24" viewBox="0 0 24 24"><path d="M12,9.52c1.43-.96,3.15-1.52,5-1.52,.34,0,.67,.02,1,.06v-3.06h-6v4.52ZM20,0H2C.9,0,0,.9,0,2V20H8.52c-.23-.64-.39-1.31-.46-2H2V4H20v4.52c.71,.25,1.38,.58,2,.99V2c0-1-.9-2-2-2ZM4,11h6V5H4v6Zm0,6h4c0-1.85,.56-3.57,1.52-5H4v5Z" style="fill:#0089d9; fill-rule:evenodd;"/><path d="M17,10c-3.87,0-7,3.13-7,7s3.13,7,7,7,7-3.13,7-7-3.13-7-7-7Zm1,13v-2h-2c-3,0-3-3-3-5,0,2.2,1,3,3,3h2v-2l3,3-3,3Zm0-8h-2v2l-3-3,3-3v2h2c3,0,3,3,3,5,0-2.2-1-3-3-3Z" style="fill:#0089d9; fill-rule:evenodd;"/><path d="M0,0H24V24H0V0Z" style="fill:none; fill-rule:evenodd; opacity:0;"/></svg>