<svg width="24" height="24" viewBox="0 0 24 24" fill="none" xmlns="http://www.w3.org/2000/svg">
<g clip-path="url(#clip0_6_19869)">
<path fill-rule="evenodd" clip-rule="evenodd" d="M23.4 9L24 3.1L21.7 5C21.6 4.8 21.4 4.6 21.3 4.5C17.1 -0.699995 9.49999 -1.49999 4.39999 2.70001C-0.700012 6.9 -1.50001 14.5 2.69999 19.6C6.89999 24.7 14.5 25.5 19.6 21.3C21.1 20.1 22.2 18.5 23 16.9L21.2 16.1C20.6 17.5 19.7 18.7 18.4 19.8C14.1 23.3 7.79999 22.7 4.29999 18.4C0.799988 14 1.39999 7.7 5.69999 4.2C9.99999 0.700005 16.3 1.4 19.8 5.6C19.9 5.8 20.1 6 20.2 6.2L17.4 8.5L23.4 9Z" fill="#0089D9"/>
</g>
<defs>
<clipPath id="clip0_6_19869">
<rect width="140" height="24" fill="white"/>
</clipPath>
</defs>
</svg>
