<svg width="24" height="24" viewBox="0 0 24 24" fill="none" xmlns="http://www.w3.org/2000/svg">
<path fill-rule="evenodd" clip-rule="evenodd" d="M22 21H3V2C3 1.4 2.6 1 2 1C1.4 1 1 1.4 1 2V22C1 22.6 1.4 23 2 23H22C22.6 23 23 22.6 23 22C23 21.4 22.6 21 22 21Z" fill="#0089D9"/>
<path fill-rule="evenodd" clip-rule="evenodd" d="M7 11C7.6 11 8 11.4 8 12V18C8 18.6 7.6 19 7 19C6.4 19 6 18.6 6 18V12C6 11.4 6.4 11 7 11Z" fill="#FF8B00"/>
<path fill-rule="evenodd" clip-rule="evenodd" d="M15 9C15.6 9 16 9.4 16 10V18C16 18.6 15.6 19 15 19C14.4 19 14 18.6 14 18V10C14 9.4 14.4 9 15 9Z" fill="#FF8B00"/>
<path fill-rule="evenodd" clip-rule="evenodd" d="M11 7C11.6 7 12 7.4 12 8V18C12 18.6 11.6 19 11 19C10.4 19 10 18.6 10 18V8C10 7.4 10.4 7 11 7Z" fill="#68A611"/>
<path fill-rule="evenodd" clip-rule="evenodd" d="M19 3C19.6 3 20 3.4 20 4V18C20 18.6 19.6 19 19 19C18.4 19 18 18.6 18 18V4C18 3.4 18.4 3 19 3Z" fill="#68A611"/>
</svg>
