<?xml version="1.0" encoding="UTF-8"?><svg id="pv" xmlns="http://www.w3.org/2000/svg" width="24" height="24" viewBox="0 0 24 24"><path d="M9.59,14H4.47c-.28,0-.47,.23-.47,.5s.19,.5,.47,.5h4.79c.09-.34,.19-.68,.33-1Zm-5.59,2.5c0,.28,.19,.5,.47,.5h4.53c0-.34,.03-.67,.07-1H4.47c-.28,0-.47,.23-.47,.5Zm-2,2.5V2H10V7h5v2.26c.64-.17,1.31-.26,2-.26v-3L11,0H0V21H10.08c-.36-.62-.63-1.29-.82-2H2ZM11,2.49l3.58,3.51h-3.58V2.49Zm-1.1,10.17c.05-.05,.1-.15,.1-.25,0-.08,0-.15-.03-.23-.03-.16-.12-.33-.25-.45-.13-.12-.28-.19-.42-.23-.28-.09-.54-.11-.78-.15-.24-.04-.46-.1-.61-.24-.13-.11-.19-.29-.22-.49,.18-.13,.32-.3,.44-.47,.26-.37,.39-.8,.45-1.23,.06-.42,.06-.91-.25-1.34-.31-.43-.88-.59-1.35-.58-.47,0-1.03,.15-1.35,.57-.32,.42-.32,.92-.27,1.35,.05,.44,.2,.87,.46,1.24,.12,.17,.28,.34,.46,.47-.03,.19-.09,.37-.21,.47-.15,.13-.37,.2-.61,.24-.24,.04-.5,.06-.78,.15-.14,.04-.29,.11-.42,.23-.13,.12-.21,.29-.25,.45-.02,.08-.02,.16-.03,.23,0,.1,.05,.2,.1,.25,.05,.05,.09,.08,.14,.09,.17,.07,.3,.07,.44,.11,.27,.05,.52,.08,.78,.09,.52,.03,1.03,.05,1.54,.04,.51,0,1.03-.01,1.54-.04,.26-.02,.52-.04,.78-.09,.14-.03,.26-.06,.43-.11,.04-.02,.09-.04,.14-.09Zm.57-1.66h1.25c.35-.31,.72-.58,1.12-.82-.09-.11-.22-.18-.37-.18h-2c-.28,0-.5,.23-.5,.5s.22,.5,.5,.5Zm11.47,1c-1.91-1.98-4.36-2-4.94-2-2.84,0-4.64,1.68-4.96,2-1.96,1.96-2.04,4.37-2.04,4.94,0,.55,.03,3.05,2.04,5.06,.3,.3,2.27,2,5.09,2,.61,0,2.96-.09,4.81-2,1.85-1.91,2.06-4.27,2.06-5,0-.73-.2-3.09-2.06-5Zm-3.39,4.14c.24,.24,.31,.56,.26,.87,.05,.31-.02,.63-.26,.87l-2.13,2.13h3.17l.54-.54c.39-.39,1.02-.39,1.41,0,.39,.39,.39,1.02,0,1.41l-.81,.81s-.02,0-.02,.01c-.18,.19-.43,.3-.72,.3h-6c-.55,0-1-.44-1-1,0-.28,.12-.54,.31-.72h0l3.27-3.28-3.27-3.27s0-.01-.01-.02c-.19-.18-.31-.43-.31-.71,0-.55,.45-1,1-1h6c.28,0,.53,.12,.71,.31,0,0,.02,0,.02,.02l.81,.81c.39,.39,.39,1.02,0,1.41-.39,.39-1.02,.39-1.41,0l-.55-.55h-3.17l2.14,2.14Zm-6.08-8.14h-2c-.28,0-.5,.23-.5,.5s.22,.5,.5,.5h2c.28,0,.5-.22,.5-.5s-.22-.5-.5-.5Z" style="fill:#0089d9; fill-rule:evenodd;"/></svg>