<svg width="24" height="24" viewBox="0 0 24 24" fill="none" xmlns="http://www.w3.org/2000/svg">
<path d="M2 4H4V5H12V4H14V9H16V3H12V2H10.9C10.7 0.9 9.4 0 8 0C6.6 0 5.3 0.9 5.1 2H4V3H0V21H9V19H2V4ZM8 1C8.8 1 9.8 1.4 9.8 2C9.8 2.6 8.9 3 8 3C7.2 3 6.3 2.6 6.3 2C6.3 1.4 7.2 1 8 1ZM12 8.5C12 8.2 11.8 8 11.6 8H4.5C4.2 8 4 8.2 4 8.5C4 8.8 4.2 9 4.5 9H11.6C11.8 9 12 8.8 12 8.5ZM4.5 10C4.2 10 4 10.2 4 10.5C4 10.8 4.2 11 4.5 11H10.6C10.9 11 11 10.8 11 10.5C11 10.2 10.9 10 10.6 10H4.5ZM8.6 12H4.5C4.2 12 4 12.2 4 12.5C4 12.8 4.2 13 4.5 13H8.6C8.9 13 9 12.8 9 12.5C9 12.2 8.9 12 8.6 12ZM7.6 15C7.9 15 8 14.8 8 14.5C8 14.2 7.9 14 7.6 14H4.5C4.2 14 4 14.2 4 14.5C4 14.8 4.2 15 4.5 15H7.6ZM17 22C14.2 22 12 19.8 12 17C12 14.6 13.7 12.6 16 12.1V11.6C16 10.8 16 10.5 16 10.5V10C12.6 10.5 10 13.5 10 17C10 20.9 13.1 24 17 24C20.4 24 23.4 21.3 24 18H21.9C21.4 20.3 19.4 22 17 22ZM17 10V12V17H24C24 13.1 20.9 10 17 10ZM19 15V12.4C20.2 12.9 21.1 13.8 21.6 15H19Z" fill="#0089D9"/>
</svg>
