<?xml version="1.0" encoding="UTF-8"?><svg id="pr" xmlns="http://www.w3.org/2000/svg" width="24" height="24" viewBox="0 0 24 24"><path d="M19.5,15h-4c-.28,0-.5,.22-.5,.5s.22,.5,.5,.5h4c.28,0,.5-.22,.5-.5s-.22-.5-.5-.5ZM12,2h-2V6h2V2ZM6,1h7V7h2V2.42l2,1.58v3h2V3.59L14.47,0H2C.9,0,0,.9,0,2v15C0,18.1,.9,19,2,19h8v-2H3c-.97,0-1-1-1-1V3c0-.53,.46-1,1-1h1v7h6v-2H6V1Zm13,7H11V24h13V13l-5-5Zm1,3l1,1h-1v-1Zm-7,11V10h5v4h4v8H13Zm6.5-5h-4c-.28,0-.5,.22-.5,.5s.22,.5,.5,.5h4c.28,0,.5-.22,.5-.5s-.22-.5-.5-.5Zm-2,2h-2c-.28,0-.5,.22-.5,.5s.22,.5,.5,.5h2c.28,0,.5-.22,.5-.5s-.22-.5-.5-.5Z" style="fill:#0089d9; fill-rule:evenodd;"/></svg>