<svg width="24" height="24" viewBox="0 0 24 24" fill="none" xmlns="http://www.w3.org/2000/svg">
<g clip-path="url(#clip0_7_22038)">
<path d="M20.9 10.3C21.1 8.7 20.7 7.2 20.2 6C19.3 3.8 17.5 2.1 14.9 1.4C13.7 -0.500004 10.8 -0.600004 9.2 1.4C6.5 2.1 4.7 3.7 3.8 5.9C3.3 7 2.8 8.7 3.1 10.3C1.4 10.5 0.899996 12 0.999996 13.6C1.1 15 1.9 16.2 3.2 16.7C3.4 18.1 3.8 19.5 4.7 20.7C5.7 22.1 7.2 22.7 8.9 22.9C9.7 23.6 10.9 24 11.9 24C13 24 14.2 23.6 15 22.9C16.7 22.7 18.2 22 19.2 20.7C20.1 19.6 20.5 18.1 20.7 16.7C22 16.3 22.8 15 22.9 13.7C23.1 12 22.5 10.5 20.9 10.3ZM21 13.5C20.8 15.1 20 14.9 19 14.9C18.9 16.1 18.8 18.1 17.7 19.5C16.8 20.7 15.4 21 14.1 21.1C13.7 21.6 13.3 22 12 22.1C10.9 22.1 10.3 21.7 9.9 21.1C8.9 21 7.2 20.8 6.3 19.5C5.3 18.2 5.2 16.2 5 14.9C3.3 14.9 3 14.4 3 13.4C2.9 12.7 3.1 12.2 3.8 12.2C3.9 12.4 4 12.6 4 12.8C4.1 13.3 4.9 13.3 4.9 12.7C5 10.2 4.7 8.9 5.7 6.7C6.4 5 7.9 3.7 10.1 3.2C10.3 3.1 10.5 3 10.7 2.8C11.7 1.3 14.1 1.9 14.1 3.2C14.2 5.7 11.4 5.6 12.3 4.2C12.6 3.8 12.4 3.3 12 3.5C10.3 4 10.9 6.9 13.9 5.9C14.8 5.6 15.3 4.8 15.5 3.7C16.8 4.3 17.8 5.4 18.4 6.7C19.4 8.9 19.1 10.6 19.1 12.7C19.1 12.5 19.3 13.3 19.9 12.7C20.2 12.4 20.2 12.1 20.3 11.8C20.9 11.9 21.1 12.8 21 13.5ZM15 13V14C15 14.6 14.6 14.9 14 14.9C13.4 14.9 13 14.5 13 14V13C13 12.4 13.5 12 14 12C14.5 12 15 12.5 15 13ZM10 15C9.4 15 9 14.6 9 14.1V13.1C9 12.5 9.4 12.1 10 12.1C10.6 12.1 11 12.5 11 13.1V14.1C11 14.6 10.5 15 10 15ZM14.9 19.7C14.8 19.9 14.5 20 14.2 19.9C13.7 19.6 13.2 19 12.1 19C11 19 10.4 19.6 9.8 19.9C9.8 19.9 9.4 20.1 9.1 19.7C9 19.5 9 19.2 9.3 19.1C9.9 18.6 10.5 18 12 18C13.5 18 14 18.7 14.7 19.1C14.9 19.2 15 19.5 14.9 19.7Z" fill="#D6565A"/>
</g>
<defs>
<clipPath id="clip0_7_22038">
<rect width="140" height="24" fill="white"/>
</clipPath>
</defs>
</svg>
