<svg width="24" height="24" viewBox="0 0 24 24" fill="none" xmlns="http://www.w3.org/2000/svg">
<g clip-path="url(#clip0_7_23347)">
<path fill-rule="evenodd" clip-rule="evenodd" d="M6.99999 18.7C6.99999 18.6 6.99999 18.3 7.09999 18.2C7.39999 18.1 7.39999 17.5 7.39999 17.1C7.89999 17 8.09999 16.3 8.09999 15.8C8.09999 15.5 8.09999 15.3 7.79999 15.4C7.79999 15.1 7.89999 15 7.89999 14.9C8.49999 14.2 8.09999 13 6.99999 12.8C5.89999 11.3 1.99999 12.4 3.09999 14.9C3.09999 15.2 2.99999 15.1 2.99999 15.4C2.69999 15.4 2.69999 15.6 2.69999 16C2.69999 16.4 2.99999 17.1 3.49999 17.2C3.59999 17.6 3.49999 18.2 3.89999 18.3C3.99999 18.4 3.89999 18.7 3.89999 18.8C2.79999 20.2 0.399994 20.9 -0.100006 21.1C-0.100006 23.1 0.199994 23.1 0.899994 23.1H9.89999C10.1 23.1 10.9 23.1 10.9 21.1C10.2 20.9 7.19999 19.3 6.99999 18.7ZM20 18.7C20 18.6 20 18.3 20.1 18.2C20.4 18.1 20.4 17.5 20.4 17.1C20.9 17 21.1 16.3 21.1 15.8C21.1 15.5 21.1 15.3 20.8 15.4C20.8 15.1 20.9 15 20.9 14.9C21.5 14.2 21.1 13 20 12.8C18.9 11.3 15 12.4 16.1 14.9C16.1 15.2 16 15.1 16 15.4C15.7 15.4 15.7 15.6 15.7 16C15.7 16.4 16 17.1 16.5 17.2C16.6 17.6 16.5 18.2 16.9 18.3C17 18.4 16.9 18.7 16.9 18.8C15.8 20.2 13.4 20.9 12.9 21.1C12.9 23.1 13.2 23.1 13.9 23.1H22.9C23.1 23.1 23.9 23.1 23.9 21.1C23.2 20.9 20.2 19.3 20 18.7ZM5.99999 10C6.59999 10 6.99999 9.6 6.99999 9V4H17V7.7L15.6 6.3C15.2 5.9 14.7 5.9 14.3 6.3C13.9 6.7 13.9 7.2 14.3 7.6L17.1 10.4C17.2 10.5 17.2 10.7 17.3 10.8C17.6 11.1 18 11.1 18.3 11C18.3 11 18.3 11 18.4 11C18.5 11 18.6 10.9 18.7 10.8C18.8 10.7 18.8 10.7 18.8 10.6L21.7 7.7C22.1 7.3 22.1 6.8 21.7 6.4C21.3 6 20.8 6 20.4 6.4L19 7.8V3C19 2.4 18.5 2 18 2H5.99999C5.39999 2 4.99999 2.4 4.99999 3V9C4.99999 9.6 5.39999 10 5.99999 10Z" fill="#0089D9"/>
</g>
<defs>
<clipPath id="clip0_7_23347">
<rect width="140" height="24" fill="white"/>
</clipPath>
</defs>
</svg>
