<svg width="24" height="24" viewBox="0 0 24 24" fill="none" xmlns="http://www.w3.org/2000/svg">
<path d="M5 3V16H2L6 21L10 16H7V3H5Z" fill="#0089D9"/>
<path d="M15 7H13C12.5 7 12 6.6 12 6C12 5.5 12.4 5 13 5H15C15.5 5 16 5.4 16 6C16 6.6 15.6 7 15 7Z" fill="#0089D9"/>
<path d="M17 11H13C12.5 11 12 10.6 12 10C12 9.5 12.4 9 13 9H17C17.5 9 18 9.4 18 10C18 10.6 17.6 11 17 11Z" fill="#0089D9"/>
<path d="M19 15H13C12.5 15 12 14.6 12 14C12 13.5 12.4 13 13 13H19C19.5 13 20 13.4 20 14C20 14.6 19.6 15 19 15Z" fill="#0089D9"/>
<path d="M21 19H13C12.5 19 12 18.6 12 18C12 17.5 12.4 17 13 17H21C21.5 17 22 17.4 22 18C22 18.6 21.6 19 21 19Z" fill="#0089D9"/>
</svg>
