<svg width="24" height="24" viewBox="0 0 24 24" fill="none" xmlns="http://www.w3.org/2000/svg">
<path d="M3.3 17.7C4.7 16.7 6.2 15.7 6.5 15.2C6.9 14.6 7.2 13.9 6.8 12.1C6.7 11.6 6.1 12.2 6.1 11.2C6.1 10.6 5.5 9.9 5 9.8C4.7 9.5 4.5 8.9 4.5 8.5C5.4 8.6 5.7 7.6 5.5 7C3 1.6 9.4 0.5 10.7 3.6C12.1 3 13 5.4 11.6 6.6C11.1 7.6 12.6 8.1 12.6 8.1C12.7 8.6 12.2 9.7 11.9 9.9C11.3 10 10.8 10.7 10.8 11.3C10.8 12.7 10.5 12 10.2 12.4C9.6 13.8 10.8 14.6 10.8 14.6C10.9 14.7 11 14.7 11.1 14.8C11.4 14.4 11.9 14 12.4 13.8C12.2 13.7 12 13.6 11.7 13.6C11.6 13.3 11.6 12.9 11.7 12.7C12.4 12 12.7 12.2 12.8 11.3C13.9 11 14.7 9.2 14.6 8.2C14.5 7.6 14 7 13.5 6.8C13.7 6 14 6.2 14 4.7C14 3.6 13.3 1.9 11.6 1.8C10.9 0.7 9.5 0 8 0C5.5 0 3.1 1.8 3.1 4.7C3.1 6 3.3 6.1 3.6 7C3.1 7.2 2.5 7.8 2.5 8.3C2.4 9.3 3.3 11.2 4.4 11.4C4.4 12.4 4.5 12.4 5.1 13C5.2 13.2 5.2 13.4 5.1 13.7C4.8 13.7 1.4 16.4 0.5 17.3C0.1 17.7 0 18 0 18.3C0 19.7 6.1 20.2 11.2 20C10.8 19.5 10.5 18.9 10.4 18.2C7.8 18.3 5.1 18.2 3.3 17.7ZM11.6 6C11.3 4.5 10.3 4.4 10.2 3.7C8.7 4.8 6.8 3.8 5.9 6.1C7.2 4.7 9.5 6.4 10 4.8C10.3 5.7 11.1 5.5 11.6 6ZM21.5 19C20.8 19 20.2 19.3 19.7 19.7L16.9 18.1C17 17.9 17 17.7 17 17.5C17 17.3 17 17.1 16.9 16.8L19.7 15.2C20.2 15.7 20.8 16 21.5 16C22.9 16 24 14.9 24 13.5C24 12.1 22.9 11 21.5 11C20.1 11 19 12.1 19 13.5C19 13.7 19 13.9 19.1 14.1L16.3 15.7C15.8 15.2 15.2 15 14.5 15C13.1 15 12 16.1 12 17.5C12 18.9 13.1 20 14.5 20C15.2 20 15.8 19.7 16.3 19.3L19.1 20.9C19.1 21.1 19 21.3 19 21.5C19 22.9 20.1 24 21.5 24C22.9 24 24 22.9 24 21.5C24 20.1 22.9 19 21.5 19Z" fill="#0089D9"/>
</svg>
