<svg width="24" height="24" viewBox="0 0 24 24" fill="none" xmlns="http://www.w3.org/2000/svg">
<path d="M9 19C9.6 19 10 18.6 10 18V16H12C12.6 16 13 15.6 13 15C13 14.4 12.6 14 12 14H10V12C10 11.4 9.6 11 9 11C8.4 11 8 11.4 8 12V14H6C5.4 14 5 14.4 5 15C5 15.6 5.4 16 6 16H8V18C8 18.6 8.4 19 9 19ZM22 4H20V2H21C21.4 2 22 1.6 22 1C22 0.4 21.6 0 21 0H16C15.4 0 15 0.4 15 1C15 1.6 15.6 2 16 2H17V4H15V2C15 0.9 14.1 0 13 0H5C4 0 3.2 0.7 3 1.8V1.9V5.3C3 6 3.7 6.5 4.2 6.7C2.1 8 1 10.2 1 13V20.9C1 22.6 2.4 24 4.1 24H14C15.7 24 17 22.6 17 21C17 20.7 16.6 20 16 20C15.4 20 15 20.4 15 21C15 21.6 14.6 22 14 22H4.1C3.5 22 3 21.5 3 20.9V13C3 10.4 4.1 8.7 6.3 7.9C6.7 7.8 7 7.4 7 7V6H11V7C11 7.4 11.3 7.8 11.7 7.9C12.7 8.2 13.5 8.8 14 9.5V15C14 15.6 14.4 16 15 16H16V18C16 18.6 16.4 19 17 19H18V23.5C18 23.8 18.2 24 18.5 24C18.8 24 19 23.8 19 23.5V19H20C20.6 19 21 18.6 21 18V16H22C22.6 16 23 15.6 23 15V5C23 4.4 22.6 4 22 4ZM13 4.9C12.9 4.9 12.9 5 12.8 5H12.5H5.5H5.2C5.1 5 5.1 4.9 5 4.9V2H13V4.9ZM14 6.9C13.9 6.9 13.9 6.8 13.8 6.8C13.9 6.8 13.9 6.7 14 6.7V6.9ZM19 17H18V15H19V17ZM21 9H20C19.7 9 19.5 9.2 19.5 9.5C19.5 9.8 19.7 10 20 10H21V11H20C19.7 11 19.5 11.2 19.5 11.5C19.5 11.8 19.7 12 20 12H21V14H20H17H16V6H21V9Z" fill="#D6565A"/>
</svg>
