<svg width="24" height="24" viewBox="0 0 24 24" fill="none" xmlns="http://www.w3.org/2000/svg">
<g clip-path="url(#clip0_6_21055)">
<path d="M11.3 11.2C11.5 11 11.7 10.8 11.9 10.7C11.6 10.7 11.4 10.9 11.3 11.2ZM3 19.8C4.4 18.8 5.8 17.5 6.7 16.8C6.7 16.8 7.6 15.3 6.8 13.7C6.6 13.2 6.1 12.8 6 11.7C6 11.1 5.4 10.3 4.8 10.2C4.6 10 4.4 9.3 4.5 8.9C5.4 9 5.8 7.9 5.5 7.3C2.9 1.7 9.6 0.5 10.9 3.9C12.4 3.3 13.3 5.8 11.8 7.1C11.2 8.2 12.9 8.7 12.9 8.7C13 9.1 12.7 10 12.4 10.4C13.2 9.9 14 9.5 14.9 9.3C14.9 9.1 14.9 9 14.9 8.8C14.8 8.2 14.3 7.5 13.7 7.4C14.1 6.4 14.3 6.6 14.3 5C14.3 3.9 13.6 2 11.8 1.9C11.2 0.7 9.8 0 8.2 0C5.6 0 2.9 1.8 2.9 4.9C2.9 6.2 3.1 6.3 3.5 7.3C3 7.5 2.4 8.1 2.3 8.7C2.2 9.8 3.1 11.7 4.3 12C4.3 13 4.7 13.8 5.4 14.5C5.5 14.7 5.5 15.2 5.4 15.5C5.1 15.5 4.8 15.5 4.6 15.7C3.8 16.4 1.8 18.2 0.2 19.2L0.1 19.3C0.1 19.3 0 19.6 0 20.1C0 21 3.5 22 9.1 22C9.8 22 10.6 22 11.3 21.9C10.8 21.4 10.3 20.8 9.9 20.1C7.4 20.3 4.8 20.2 3 19.8ZM10.1 4.2C8.5 5.4 7 3.9 6 6.4C7.4 4.9 9.3 6.7 9.8 5.1C10.1 6 11 5.8 11.6 6.3C11.3 4.7 10.2 5 10.1 4.2ZM23.6 22.3L22.7 21.4C22.4 21.1 22.1 21.1 21.7 21.2L20.6 20.1C21.4 19.2 21.9 17.9 21.9 16.6C21.9 13.6 19.4 11.1 16.4 11.1C13.4 11.1 11 13.5 11 16.5C11 19.5 13.4 22 16.5 22C17.8 22 19.1 21.5 20 20.8L21.1 21.9C21 22.2 21.1 22.6 21.3 22.9L22.2 23.8C22.6 24.2 23.2 24.2 23.6 23.8C24 23.3 24 22.7 23.6 22.3ZM16.5 20C14.6 20 13 18.5 13 16.5C13 14.6 14.5 13 16.5 13C18.4 13 20 14.6 20 16.5C20 18.5 18.4 20 16.5 20ZM15.9 14.2C14.5 14.9 13.7 16.2 13.7 17.7C13.7 17.9 13.8 18 14 18C14.2 18 14.3 17.9 14.3 17.7C14.3 16.4 15 15.2 16.2 14.7C16.3 14.6 16.4 14.5 16.3 14.3C16.2 14.2 16 14.2 15.9 14.2Z" fill="#0089D9"/>
</g>
<defs>
<clipPath id="clip0_6_21055">
<rect width="140" height="24" fill="white"/>
</clipPath>
</defs>
</svg>
