<?xml version="1.0" encoding="UTF-8"?><svg id="na" xmlns="http://www.w3.org/2000/svg" width="24" height="24" viewBox="0 0 24 24"><g id="nb"><g id="nc"><path d="M23.73,18.76c-1.99,1.42-2.9,2.79-4.57,4.24-2.43,.49-3.55,.65-6,1-4.85-.79-6.88-2.6-9.3-2.94-.35,.01-.51-.12-.87-.06-.08,.47-.48,1-.98,1H1.01C.45,22,0,21.55,0,21v-5C0,15.45,.45,15,1.01,15h1.01c.56,0,1.01,.45,1.01,1,1.64-.44,2.87-1.88,8.26,0,1.79,.44,2.73,.34,4.28,0,2.43-.21,4.17,1.44,.62,3-1.36,.27-3.32,.15-5.04,0,1.95,1.03,4.64,.7,5.89,.75,1.66-.76,3.04-1.54,4.77-2.78,1.85-.83,2.67,.59,1.94,1.79Z" style="fill:#0089d9; fill-rule:evenodd;"/></g><path d="M14.38,8.19s-.05-.01-.08-.02h-.02c-1.17-.3-1.4-.54-1.45-.91-.04-.31,.03-.6,.21-.81,.27-.31,.72-.37,1.06-.37,.32,0,.89,.08,1.14,.59,.22,.46,.77,.65,1.23,.43,.46-.22,.65-.77,.43-1.23-.37-.76-1.05-1.3-1.89-1.52v-.36c0-.51-.49-1-1-1s-1,.42-1,.92v.49c-.65,.2-1.09,.53-1.36,.84-.42,.48-.62,1.1-.64,1.75,0,.17,.02,.35,.04,.53,.26,1.75,1.85,2.18,2.75,2.41,.05,.01,.09,.02,.13,.03,1.04,.29,1.16,.54,1.2,.83,.04,.31-.03,.6-.21,.81-.27,.31-.72,.37-1.06,.37-.32,0-.89-.08-1.14-.59-.22-.46-.77-.65-1.23-.43-.46,.22-.65,.77-.43,1.23,.38,.78,1.08,1.32,1.95,1.53v.49c0,.51,.49,.79,1,.79s1-.28,1-.79v-.57c.61-.2,1.04-.52,1.3-.82,.53-.61,.76-1.44,.64-2.28-.25-1.72-1.87-2.16-2.56-2.35Z" style="fill:#0089d9;"/><path d="M12.06,17.44c.44,.24,.93,.4,1.42,.53,.17,0,.34,.03,.51,.03,.98,0,1.92-.16,2.8-.45-1.39,.15-3.15,.04-4.73-.11ZM14,0C9.03,0,5,4.03,5,9c0,1.51,.38,2.93,1.04,4.18,.63-.12,1.38-.16,2.33-.05-.85-1.16-1.36-2.59-1.36-4.14,0-3.87,3.13-7,7-7s7,3.13,7,7c0,2.11-.94,4-2.42,5.28,1.01,.34,1.5,1.08,.78,1.93,2.2-1.64,3.64-4.26,3.64-7.22C23,4.03,18.97,0,14,0Z" style="fill:#0089d9; fill-rule:evenodd;"/></g></svg>