<?xml version="1.0" encoding="UTF-8"?><svg id="ny" xmlns="http://www.w3.org/2000/svg" width="24" height="24" xmlns:xlink="http://www.w3.org/1999/xlink" viewBox="0 0 24 24"><defs><linearGradient id="oe" x1="0" y1="22.21" x2="24" y2="22.21" gradientTransform="matrix(1, 0, 0, 1, 0, 0)" gradientUnits="userSpaceOnUse"><stop offset="0" stop-color="#fff"/><stop offset="1" stop-color="#000"/></linearGradient></defs><g id="od"><polygon points="15 22 9 22 2 12 12 10 22 12 15 22" style="fill:none; stroke:#0089d9; stroke-miterlimit:10; stroke-width:2px;"/><line x1="12" y1="22" x2="12" y2="10" style="fill:none; stroke:#0089d9; stroke-miterlimit:10; stroke-width:2px;"/><polygon points="18 11 12 10 6 11 6 5 12 4 18 5 18 11" style="fill:none; stroke:#0089d9; stroke-miterlimit:10; stroke-width:2px;"/><line x1="12" y1="4" x2="12" y2="1" style="fill:none; stroke:#0089d9; stroke-linecap:round; stroke-miterlimit:10; stroke-width:2px;"/><path d="M0,22s1.23,0,2.24-.48c.44-.21,.97-.08,1.25,.32,.81,1.16,2.51,1.16,2.51,1.16,0,0,1.25,0,2.27-.99,.42-.4,1.05-.4,1.46,0,1.02,.99,2.27,.99,2.27,.99,0,0,1.25,0,2.27-.99,.42-.4,1.05-.4,1.46,0,1.02,.99,2.27,.99,2.27,.99,0,0,1.7,0,2.51-1.16,.28-.4,.81-.53,1.25-.32,1.01,.48,2.24,.48,2.24,.48" style="fill:url(#oe); stroke:#0089d9; stroke-miterlimit:10; stroke-width:2px;"/></g></svg>