<?xml version="1.0" encoding="UTF-8"?><svg id="qp" xmlns="http://www.w3.org/2000/svg" width="24" height="24" viewBox="0 0 24 24"><path d="M10,12h-2v2h2v-2Zm4-2v-2h-2v2h2Zm-6,8h2v-2h-2v2Zm8-8h2v-2h-2v2Zm.41,6.45c-.57,.6-.55,1.55,.04,2.13,.6,.58,1.54,.56,2.12-.04,.57-.6,.56-1.55-.04-2.13-.6-.58-1.54-.56-2.12,.04Zm1.59,1.55h-1v-1h1v1Zm-15,2c-.55,0-1-.45-1-1V5c0-.55,.45-1,1-1h1v1c0,.55,.45,1,1,1s1-.45,1-1v-1h10v1c0,.55,.45,1,1,1s1-.45,1-1v-1h1c.55,0,1,.45,1,1v5.31c.77,.2,1.43,.49,2,.86V4c0-1.11-.89-2-2-2h-2v-1c0-.55-.45-1-1-1s-1,.45-1,1v1H6v-1c0-.55-.45-1-1-1s-1,.45-1,1v1H2C.9,2,0,2.9,0,4V20C0,21.11,.9,22,2,22H10.93c-.32-.59-.55-1.26-.7-2H3Zm1-2h2v-2h-2v2Zm20,1v-3h-2.27c-.05-.15-.11-.29-.18-.43l1.6-1.6-2.12-2.12-1.61,1.61c-.14-.07-.28-.15-.42-.2v-2.26h-3v2.27c-.15,.05-.29,.11-.43,.18l-1.6-1.6-2.12,2.12,1.62,1.62c-.06,.14-.14,.27-.19,.41h-2.28v3h2.29c.05,.14,.11,.28,.17,.42l-1.62,1.62,2.12,2.12,1.63-1.63c.14,.06,.27,.14,.41,.19v2.28h3v-2.28c.14-.05,.29-.11,.43-.17l1.61,1.61,2.12-2.12-1.62-1.62c.07-.14,.15-.27,.2-.42h2.26Zm-2.63,1.66l-.71,.71-1.73-1.73c-.29,.18-.6,.31-.93,.37v2.47h-1v-2.47h.07c-.45-.08-.87-.29-1.23-.62l.24,.24-1.75,1.75-.71-.71,1.75-1.75,.3,.3c-.43-.47-.66-1.06-.68-1.65v.44h-2.47v-1h2.47v.55c-.01-.63,.22-1.27,.68-1.77l-.3,.3-1.75-1.74,.71-.71,1.75,1.75-.33,.33c.42-.42,.96-.65,1.51-.71h-.27v-2.47h1v2.47h-.19c.39,.04,.77,.17,1.12,.39h-.01l1.75-1.76,.71,.71-1.75,1.74-.04-.04c.21,.29,.38,.61,.45,.95h2.44v1h-2.43c-.06,.33-.22,.64-.41,.92l1.74,1.74ZM6,12h-2v2h2v-2Zm4-4h-2v2h2v-2Z" style="fill:#0089d9; fill-rule:evenodd;"/></svg>