<?xml version="1.0" encoding="UTF-8"?><svg id="k" xmlns="http://www.w3.org/2000/svg" width="24" height="24" viewBox="0 0 24 24"><path d="M2.69,15c-.38,0-.69-.31-.69-.68l.54-2.32H.63l-.63,3.48c0,.82,.67,1.52,1.5,1.52h.64c.2-.79,.64-1.48,1.23-2h-.69Zm17.31,0c-1.66,0-3,1.34-3,3s1.33,3,2.99,3,3.01-1.34,3.01-3-1.34-3-3-3Zm0,4c-.55,0-1-.45-1-1.01s.45-1.01,1-1.01,1,.45,1,1.01-.45,1.01-1,1.01ZM.5,9H7.5c.28,0,.5-.22,.5-.5s-.22-.5-.5-.5H.5c-.28,0-.5,.22-.5,.5s.22,.5,.5,.5Zm22.5,3l-3-5h-3.44l.39-2.51c0-.82-.67-1.49-1.5-1.49H3.5c-.83,0-1.5,.67-1.5,1.49l-.46,2.51H3.69l.31-1.32c0-.37,.3-.68,.69-.68H14.3c.38,0,.69,.31,.69,.68l-1.99,8.64c0,.37-.32,.68-.7,.68h-3.69c.6,.52,1.04,1.21,1.24,2h5.14l.14-.86,.86,.86h.14c.2-.79,.64-1.48,1.24-2h-2.38l.34-2.02s.04,.02,.07,.02h5.59s1,0,1,1c0,.21-.04,.37-.11,.5,.82,.45,1.47,1.16,1.82,2.04,.16-.18,.28-.38,.28-.54v-3c0-1.04-1-1-1-1Zm-7.5,0l.5-3h3l1.5,3h-5Zm-9.5,3c-1.66,0-3,1.34-3,3s1.34,3,3,3,3-1.34,3-3-1.34-3-3-3Zm0,4c-.55,0-1-.45-1-1s.45-1,1-1,1,.45,1,1-.44,1-1,1Zm1.5-9H2.5c-.28,0-.5,.22-.5,.5s.22,.5,.5,.5H7.5c.28,0,.5-.22,.5-.5s-.22-.5-.5-.5Z" style="fill:#0089d9; fill-rule:evenodd;"/></svg>