<svg width="24" height="24" viewBox="0 0 24 24" fill="none" xmlns="http://www.w3.org/2000/svg">
<path fill-rule="evenodd" clip-rule="evenodd" d="M3 4C3 3.5 3.5 3 4 3H9C10 3 11.5 6 11.5 6H20C20.5 6 21 6.5 21 7V8H23V6C23 5 22 4 21 4H12.5C12.5 4 11 1 9 1H4C2.5 1 1 2.5 1 4V8H3V4ZM21.6 16C19.9 17.2 18.5 18 16.9 18.8C15.7 18.8 13 19.1 11.1 18C12.8 18.2 14.8 18.3 16.1 18C19.3 16.6 18.2 15 16 15C15.8 15 15.6 15 15.4 15C13.9 15.3 12.9 15.5 11.2 15C5.9 13.2 4.6 14.6 3 15C3 15 3 15.1 3 15.2V15C3 14.4 2.6 14 2 14H1C0.4 14 0 14.4 0 15V20C0 20.6 0.5 21 1 21H2C2.5 21 2.9 20.6 3 20.1C3 20.5 3 20.8 3 21C3.5 20.7 3.8 21.1 4 21C4 20.9 3.9 20.6 3.8 20.1C6.2 20.4 8.2 22.2 13 23C15.4 22.6 16.4 22.5 18.8 22C20.5 20.5 21.5 19.2 23.4 17.8C24.3 16.6 23.5 15.2 21.6 16ZM2 12C2.1 12 2.1 12 2.2 12.1C2.1 11 2 10.2 2 10C2 9.4 2.5 9 3 9H21C21.5 9 22 9.5 22 10C22 10.2 21.8 12.1 21.6 14C22.3 14 23 14 23.5 14C23.7 11.6 24 9.2 24 9C24 8.5 23.5 8 23 8H21H1C0.5 8 0 8.4 0 9C0 9.2 0.1 10.5 0.3 12H2Z" fill="#0089D9"/>
</svg>
