<svg width="24" height="24" viewBox="0 0 24 24" fill="none" xmlns="http://www.w3.org/2000/svg">
<path fill-rule="evenodd" clip-rule="evenodd" d="M24 12L21.2 9.5L22.4 6L18.7 5.3L18 1.6L14.5 2.8L12 0L9.5 2.8L6 1.6L5.3 5.3L1.6 6L2.8 9.5L0 12L2.8 14.5L1.6 18L5.3 18.7L6 22.4L9.5 21.2L12 24L14.5 21.2L18 22.4L18.7 18.7L22.4 18L21.2 14.5L24 12ZM16.7 9.7L12 15.4C12 15.6 11.9 15.7 11.8 15.8C11.6 16 11.3 16.1 11 16.1C10.7 16.1 10.4 16 10.2 15.8C10.1 15.7 10 15.6 10 15.5L8.2 13.7C7.8 13.3 7.8 12.7 8.2 12.3C8.6 11.9 9.2 11.9 9.6 12.3L10.9 13.6L15.3 8.4C15.7 8 16.3 8 16.7 8.4C17.1 8.7 17.1 9.4 16.7 9.7Z" fill="#0089D9"/>
</svg>
