<svg width="24" height="24" viewBox="0 0 24 24" fill="none" xmlns="http://www.w3.org/2000/svg">
<g clip-path="url(#clip0_7_22532)">
<path fill-rule="evenodd" clip-rule="evenodd" d="M9 8.1C9 8.7 8.5 9.1 8 9.1H4C3.4 9 3 8.6 3 8V4C3 3.4 3.4 3 4 3H7.2L8.4 0.999999H2C1.4 0.999999 1 1.5 1 2V10C1 10.6 1.4 11 2 11H10C10.6 11 11 10.6 11 10V4.8L9 7.8V8.1ZM10 13H2C1.4 13 1 13.4 1 14V22C1 22.6 1.4 23 2 23H10C10.6 23 11 22.6 11 22V14C11 13.4 10.6 13 10 13ZM9 20C9 20.6 8.5 21 8 21H4C3.4 21 3 20.6 3 20V16C3 15.4 3.4 15 4 15H8C8.6 15 9 15.4 9 16V20ZM14 5H23C23.5 5 24 4.6 24 4C24 3.5 23.5 3 23 3H14C13.5 3 13 3.5 13 4C13 4.5 13.4 5 14 5ZM14 9H19C19.5 9 20 8.6 20 8C20 7.5 19.6 7 19 7H14C13.5 7 13 7.5 13 8C13 8.5 13.4 9 14 9ZM23 15H14C13.5 15 13 15.5 13 16C13 16.5 13.4 17 14 17H23C23.5 17 24 16.6 24 16C24 15.5 23.5 15 23 15ZM19 19H14C13.5 19 13 19.5 13 20C13 20.5 13.4 21 14 21H19C19.5 21 20 20.6 20 20C20 19.5 19.6 19 19 19ZM11.7 0.199999C11.5 -9.53674e-07 10.9 -0.100001 10.7 0.0999991L6.3 6.4L5 5.1C4.8 4.9 4.2 5 4.1 5.1C3.9 5.3 3.9 5.9 4.1 6.1L6.1 8.1C6.3 8.3 6.6 8.2 6.8 8.1C7.1 8.1 7.4 8 7.5 7.9L12 1.3C12.2 0.899999 11.9 0.399999 11.7 0.199999Z" fill="#0089D9"/>
</g>
<defs>
<clipPath id="clip0_7_22532">
<rect width="140" height="24" fill="white"/>
</clipPath>
</defs>
</svg>
