<svg width="24" height="24" viewBox="0 0 24 24" fill="none" xmlns="http://www.w3.org/2000/svg">
<path opacity="0.65" fill-rule="evenodd" clip-rule="evenodd" d="M14 18.3C14.9 18.3 15.7 19.1 15.7 20C15.7 20.9 14.9 21.7 14 21.7C13.1 21.7 12.3 20.9 12.3 20C12.3 19.1 13.1 18.3 14 18.3Z" fill="white"/>
<path opacity="0.65" fill-rule="evenodd" clip-rule="evenodd" d="M8.99999 18.3C9.89999 18.3 10.7 19.1 10.7 20C10.7 20.9 9.89999 21.7 8.99999 21.7C8.09999 21.7 7.29999 20.9 7.29999 20C7.29999 19.1 8.09999 18.3 8.99999 18.3Z" fill="white"/>
<path fill-rule="evenodd" clip-rule="evenodd" d="M12 8.5C12 7.7 11.3 7 10.5 7C9.7 7 9 7.7 9 8.5C9 9.3 9.7 10 10.5 10C11.3 10 12 9.3 12 8.5ZM11 9H10V8H11V9ZM14 18C12.9 18 12 18.9 12 20C12 21.1 12.9 22 14 22C15.1 22 16 21.1 16 20C16 18.9 15.1 18 14 18ZM14 20.9C13.5 20.9 13.1 20.5 13.1 20C13.1 19.5 13.5 19.1 14 19.1C14.5 19.1 14.9 19.5 14.9 20C14.9 20.5 14.5 20.9 14 20.9ZM9 18C7.9 18 7 18.9 7 20C7 21.1 7.9 22 9 22C10.1 22 11 21.1 11 20C11 18.9 10.1 18 9 18ZM9 20.9C8.5 20.9 8.1 20.5 8.1 20C8.1 19.5 8.5 19.1 9 19.1C9.5 19.1 9.9 19.5 9.9 20C9.9 20.5 9.5 20.9 9 20.9ZM16.5 10C15.7 10 15 10.7 15 11.5C15 12.3 15.7 13 16.5 13C17.3 13 18 12.3 18 11.5C18 10.7 17.3 10 16.5 10ZM17 12H16V11H17V12ZM18.5 7C17.7 7 17 7.7 17 8.5C17 9.3 17.7 10 18.5 10C19.3 10 20 9.3 20 8.5C20 7.7 19.3 7 18.5 7ZM19 9H18V8H19V9ZM12.5 10C11.7 10 11 10.7 11 11.5C11 12.3 11.7 13 12.5 13C13.3 13 14 12.3 14 11.5C14 10.7 13.3 10 12.5 10ZM13 12H12V11H13V12ZM22.2 3.8C21.3 3.9 10.7 4.4 6.6 3.6C5.5 1.6 4.5 1 1.9 1C0.3 1 0 1.7 0 2.6C0 3.2 0.6 4 1.2 4C2.4 4 2.9 3.8 3.1 3.1C4.2 3.2 6 4.6 6.5 15.1C6.6 16.2 7.5 17 8.9 17C10.9 17 16 16.8 18.4 16.1C20.6 15.4 23.3 13.8 23.9 6.3C24.1 4.3 23.6 3.7 22.2 3.8ZM22.1 7.3C22 8.8 21.5 10.4 20.7 12C19.6 14.2 17.2 15 9.8 15.1C8.7 15.1 8.2 14 8.1 12.9C8.1 10.5 7.6 7.6 7 5.7C8.9 5.9 12.7 6 16 6C17.9 6 19.8 6 20.9 5.9C22 5.7 22.2 5.8 22.1 7.3ZM16 8.5C16 7.7 15.3 7 14.5 7C13.7 7 13 7.7 13 8.5C13 9.3 13.7 10 14.5 10C15.3 10 16 9.3 16 8.5ZM15 9H14V8H15V9Z" fill="#0089D9"/>
</svg>
