<svg data-name="Layer 1" xmlns="http://www.w3.org/2000/svg" width="24" height="24"><path fill-rule="evenodd" clip-rule="evenodd" fill="#0089D9" d="M8.17903588,14.4280434 C7.44807964,15.3836334 6.29601989,16 5,16 C2.790861,16 1,14.209139 1,12 C1,9.790861 2.790861,8 5,8 C6.29601989,8 7.44807964,8.61636665 8.17903588,9.57195657 L15.1494018,6.08677359 C15.0520689,5.74121357 15,5.37668745 15,5 C15,2.790861 16.790861,1 19,1 C21.209139,1 23,2.790861 23,5 C23,7.209139 21.209139,9 19,9 C17.7039801,9 16.5519204,8.38363335 15.8209641,7.42804343 L8.85059817,10.9132264 C8.94793114,11.2587864 9,11.6233125 9,12 C9,12.3766875 8.94793114,12.7412136 8.85059817,13.0867736 L15.8209641,16.5719566 C16.5519204,15.6163666 17.7039801,15 19,15 C21.209139,15 23,16.790861 23,19 C23,21.209139 21.209139,23 19,23 C16.790861,23 15,21.209139 15,19 C15,18.6233125 15.0520689,18.2587864 15.1494018,17.9132264 L8.17903588,14.4280434 Z"/></svg>