<?xml version="1.0" encoding="UTF-8"?><svg id="oq" xmlns="http://www.w3.org/2000/svg" width="24" height="24" viewBox="0 0 24 24"><g id="or"><path d="M22,4V15H9.93l-.59,.89-1.41,2.11h-.93c-2.8,0-5-2.2-5-5,0-2.97,1.25-4.42,5.19-8.36l.94-.47c.23-.12,.48-.17,.73-.17h13.15m2-2H8.85c-.57,0-1.12,.13-1.63,.39l-1.23,.61C2,7,0,9,0,13s3.15,7,7,7h2l2-3h13V2h0Z" style="fill:#0089d9;"/><path d="M8.92,6l-2.4,3H3.08l2.4-3h3.44m2.08-1H5L1,10H7l4-5h0Z" style="fill:#0089d9;"/><path d="M23,6v3H12.08l2.4-3h8.52m1-1H14l-4,5h14V5h0Z" style="fill:#0089d9;"/><line x1="1" y1="22" x2="23" y2="22" style="fill:none; stroke:#0089d9; stroke-linecap:square; stroke-miterlimit:10; stroke-width:2px;"/><path d="M18.05,18c.23,1.14,1.24,2,2.45,2s2.22-.86,2.45-2h-4.9Zm-3.55,2c1.21,0,2.22-.86,2.45-2h-4.9c.23,1.14,1.24,2,2.45,2Z" style="fill:#0089d9; fill-rule:evenodd;"/></g></svg>