<svg width="24" height="24" viewBox="0 0 24 24" fill="none" xmlns="http://www.w3.org/2000/svg">
<path fill-rule="evenodd" clip-rule="evenodd" d="M22 11H3V2C3 1.4 2.6 1 2 1C1.4 1 1 1.4 1 2V22C1 22.6 1.4 23 2 23C2.6 23 3 22.6 3 22V13H22C22.6 13 23 12.6 23 12C23 11.4 22.6 11 22 11ZM6 10C6.6 10 7 9.6 7 9V6C7 5.4 6.6 5 6 5C5.4 5 5 5.4 5 6V9C5 9.6 5.4 10 6 10ZM12 14C11.4 14 11 14.4 11 15V21C11 21.6 11.4 22 12 22C12.6 22 13 21.6 13 21V15C13 14.4 12.6 14 12 14ZM18 14C17.4 14 17 14.4 17 15V18C17 18.6 17.4 19 18 19C18.6 19 19 18.6 19 18V15C19 14.4 18.6 14 18 14ZM15 10C15.6 10 16 9.6 16 9V7C16 6.4 15.6 6 15 6C14.4 6 14 6.4 14 7V9C14 9.6 14.4 10 15 10ZM21 10C21.6 10 22 9.6 22 9V5C22 4.4 21.6 4 21 4C20.4 4 20 4.4 20 5V9C20 9.6 20.4 10 21 10ZM9 10C9.6 10 10 9.6 10 9V3C10 2.4 9.6 2 9 2C8.4 2 8 2.4 8 3V9C8 9.6 8.4 10 9 10Z" fill="#0089D9"/>
</svg>
