<svg width="24" height="24" viewBox="0 0 24 24" fill="none" xmlns="http://www.w3.org/2000/svg">
<path fill-rule="evenodd" clip-rule="evenodd" d="M12.5 22C13.3 22 14 21.3 14 20.5C14 19.7 13.3 19 12.5 19C11.7 19 11 19.7 11 20.5C11 21.3 11.7 22 12.5 22ZM12.5 24C14.4 24 16 22.4 16 20.5C16 18.6 14.4 17 12.5 17C10.6 17 9 18.6 9 20.5C9 22.4 10.6 24 12.5 24ZM9.2 3.9L14 5.2L12.7 10L7.9 8.7L9.2 3.9ZM11.1 16.2L12.5 10.9L3.8 8.6L2 15.4L9.3 17.4C9.8 16.8 10.4 16.5 11.1 16.2ZM12.7 16L16.7 1C16.8 0.5 17.4 0 18 0H21C21.6 0 22 0.5 22 1C22 1.6 21.6 2 21 2H18.5L14.7 16.5C14.1 16.2 13.4 16 12.7 16ZM8 20.3L3.6 19.1C3.1 19 2.8 18.4 2.9 17.9C3 17.4 3.6 17.1 4.1 17.2L8.5 18.4C8.2 19 8 19.6 8 20.3Z" fill="#0089D9"/>
</svg>
