<svg data-name="Layer 1" xmlns="http://www.w3.org/2000/svg" width="24" height="24"><path fill-rule="evenodd" clip-rule="evenodd" fill="#0089D9" d="M22.9,10.6c-0.3-1.2-1.9-2.2-4.7-3c0-0.1-0.1-0.1-0.1-0.2
				l2.7-2.1C20.9,5.3,21,5.2,21,5.1c0.5-0.6,0.5-1.6-0.2-2.1c-0.6-0.5-1.6-0.5-2.1,0.2l-2.2,2.7c-0.1,0-0.1-0.1-0.2-0.1
				c-0.6-2.1-1.5-4.3-3-4.7C13,1,12.2,0.9,11.4,1.7c-0.5,0.5-1.2,1.2-1.2,1.2C10,3.1,9,4.1,9.3,5.4C9.4,6.1,9.8,6.6,10.5,7
				C10,7.2,9.4,7.6,8.9,8.1L8.7,8.3c-1.9,1.9-3.4,3.4-4.6,3.5c-1-0.5-2-0.6-2.7,0.1c-1.3,1.3,0.5,3.9,1.9,5.6c0,0.8,0.3,1.7,0.9,2.3
				v0c0.6,0.6,1.4,0.9,2.3,0.9c0,0,0,0,0.1,0c1.3,1,3.1,2.3,4.4,2.3c0.4,0,0.8-0.1,1.2-0.5c0.6-0.6,0.6-1.5,0.1-2.7
				c0.1-1.2,1.5-2.7,3.5-4.6l0.2-0.2c0.5-0.5,0.9-1.1,1.1-1.7c0.4,0.7,0.9,1.1,1.6,1.3c0.2,0,0.3,0.1,0.5,0.1c1.1,0,1.9-0.8,2-0.9
				c0,0,0.7-0.7,1.2-1.2C23.1,11.8,23,11,22.9,10.6z M11.5,4.4c0,0,0.7-0.7,1.3-1.3C12.8,3.1,12.9,3,12.9,3c0.3,0.2,1,1.3,1.6,3.3
				c-0.5-0.2-1.2-0.4-1.9-0.6c-1-0.3-1.3-0.6-1.4-0.8C11.2,4.8,11.3,4.6,11.5,4.4z M4.2,15.3c-0.6-0.8-0.9-1.4-1.1-1.8
				c0.2,0.1,0.5,0.2,0.8,0.3l0,0c0,0,0,0,0.1,0c0.4,0.1,0.9,0.3,1.5,0.7C5.1,14.6,4.6,14.9,4.2,15.3C4.2,15.3,4.2,15.3,4.2,15.3z
				 M7.7,18.5c-0.6,0.6-1.6,0.6-2.2,0c-0.6-0.6-0.6-1.6,0-2.2c0.5-0.5,1.4-0.5,2-0.3c0.1,0.1,0.2,0.2,0.3,0.3
				c0.1,0.1,0.2,0.2,0.3,0.3C8.3,17.1,8.2,18,7.7,18.5z M8.7,19.8C8.7,19.8,8.7,19.8,8.7,19.8c0.4-0.4,0.7-0.9,0.8-1.3
				c0.4,0.6,0.6,1.1,0.7,1.5c0,0,0,0,0,0.1h0c0.1,0.3,0.2,0.6,0.3,0.8C10.1,20.7,9.5,20.4,8.7,19.8z M14.5,13.7l-0.2,0.2
				c-1.5,1.5-2.7,2.7-3.4,3.9c-0.6-0.8-1.3-1.7-2.2-2.5c0,0,0,0,0,0c0,0,0,0,0,0c-0.4-0.4-1.3-1.3-2.5-2.2c1.2-0.7,2.4-1.9,3.9-3.4
				l0.2-0.2c0.8-0.8,1.6-1,2.6-0.8c0.8,0.2,1.5,0.7,1.6,0.8C14.5,9.6,16.4,11.7,14.5,13.7z M16.9,8.9c-0.3,0.3-0.4,0-0.6-0.4
				c0,0.1,0,0.2,0,0.2c-0.2-0.2-0.3-0.4-0.5-0.5c-0.1-0.1-0.3-0.3-0.5-0.4c0.1,0,0.3,0,0.4,0c-0.5-0.3-1.1-0.2-0.6-0.6
				c0.5-0.5,1.2-0.5,1.7,0C17.3,7.6,17.3,8.4,16.9,8.9z M20.9,11.2c-0.5,0.5-1.3,1.3-1.3,1.3c-0.2,0.2-0.4,0.3-0.6,0.3
				c-0.1,0-0.5-0.4-0.8-1.4c-0.2-0.7-0.4-1.2-0.5-1.7c0-0.1-0.1-0.1-0.1-0.2c2.1,0.6,3.2,1.3,3.4,1.5C21,11.1,21,11.1,20.9,11.2z
				 M11.4,10l-2.2,2.2c-0.2,0.2-0.2,0.5,0,0.7c0.2,0.2,0.5,0.2,0.7,0l2.2-2.2c0.2-0.2,0.2-0.5,0-0.7C11.9,9.8,11.5,9.8,11.4,10z"/></svg>