<svg width="24" height="24" viewBox="0 0 24 24" fill="none" xmlns="http://www.w3.org/2000/svg">
<path fill-rule="evenodd" clip-rule="evenodd" d="M5.1 3C4.9 3.1 4.8 3.3 4.7 3.5C4.5 3.7 4.5 4 4.8 4.2C5 4.3 5.3 4.3 5.5 4.1C5.6 4 5.7 3.9 5.8 3.7C6 3.5 6 3.2 5.8 3C5.6 2.8 5.3 2.8 5.1 3ZM4.1 4.8C3.9 4.7 3.6 4.8 3.5 5C2.9 6.3 2.8 7.7 3.1 9.1C3.3 9.7 4.2 9.5 4.1 8.9C3.8 7.7 3.9 6.5 4.4 5.5C4.5 5.2 4.4 4.9 4.1 4.8ZM18.7 2.2C18.1 2.1 17.6 2 17 2C15.3 2 13.6 2.8 12.3 4.2C11.1 1.6 8.7 0 6.1 0C5.7 0 5.3 0.1 4.8 0.2C1.9 0.9 0 3.7 0 7C0 7.6 0.1 8.3 0.2 8.9C1 12.2 3.5 14.5 6.4 14.8C6.4 15.1 6.4 15.4 6.7 15.7C7.2 16.2 8 16.1 8.6 16C8.7 16 8.9 15.9 9.1 15.9C9.1 16 9.1 16 9.1 16.1C8.8 17.7 8.5 19.8 11.1 22.9C11.2 23 11.3 23 11.4 23.1C11.4 23.2 11.4 23.4 11.5 23.5C11.7 23.7 12 23.7 12.2 23.5C12.9 22.8 12.9 21.9 12.9 20.9C12.9 20.1 12.9 19.1 13.4 17.9C13.5 17.9 13.5 17.9 13.6 18C14.3 18.2 15.1 18.4 15.6 17.9C15.8 17.7 15.9 17.4 15.9 17.1H16C18.9 17.1 21.6 14.9 22.6 11.6C22.9 10.6 23 9.8 23 9C23 5.9 21.4 3.1 18.7 2.2ZM8.4 15C7.7 15.2 7.5 15 7.5 15C7.5 15 7.5 14.9 7.5 14.7C7.7 14.6 7.9 14.5 8 14.4C8.2 14.5 8.3 14.6 8.5 14.6C8.6 14.6 8.7 14.6 8.8 14.5C8.9 14.5 9 14.4 9.2 14.4V14.5C9.2 14.5 9.2 14.6 9.2 14.7C9.1 14.8 8.9 14.9 8.4 15ZM8.2 12.6C8 12.7 7.8 12.8 7.7 13C7.5 12.9 7.3 12.8 7.1 12.8C4.8 12.9 2.7 11 2.1 8.4C2.1 8 2 7.5 2 7C2 4.6 3.3 2.6 5.3 2.1C7.6 1.5 10.1 3.3 10.9 6.1C10.7 6.5 10.5 7 10.3 7.5C9.9 8.8 9.8 10.1 10 11.3C9.9 11.3 9.8 11.4 9.8 11.5C9.4 12 8.8 12.4 8.2 12.6ZM11.9 20.8C11.9 21.4 11.9 21.8 11.8 22.2C9.5 19.5 9.9 17.7 10.1 16.3C10.2 15.9 10.2 15.4 10.2 15C10.3 14.7 10.2 14.4 10 14.1C10.2 14 10.5 13.8 10.7 13.6C11.1 14.4 11.7 15.2 12.3 15.8C12.1 16.1 11.9 16.5 12 16.9C12.1 17.2 12.2 17.4 12.4 17.6C12 18.7 11.9 19.9 11.9 20.8ZM14.9 17C14.9 17 14.7 17.1 13.9 16.9C13.9 16.9 13.9 16.9 13.8 16.9C13.9 16.8 14 16.7 14 16.5C14.2 16.5 14.3 16.5 14.4 16.4C14.5 16.6 14.6 16.7 14.8 16.7C14.9 17 14.9 17 14.9 17ZM20.8 10.8C20 13.5 17.7 15.2 15.5 14.9C15.3 14.9 15.1 14.9 15 15C14.9 14.8 14.8 14.7 14.6 14.6C12.5 13.6 11.5 10.8 12.3 8.1C13.2 5.2 15.8 3.4 18.2 4.2C19.9 4.7 21 6.7 21 9C21 9.6 21 10.2 20.8 10.8ZM17.4 5C17.2 5 17 5.1 16.8 5.2C16.5 5.3 16.4 5.6 16.5 5.8C16.6 6 16.8 6.1 17 6.1C17 6.2 17.5 6 17.6 6C17.9 5.9 18 5.7 18 5.4C17.9 5.1 17.7 5 17.4 5ZM15.5 6C14.4 6.8 13.5 8 13.1 9.4C13 9.6 13.1 9.9 13.4 10C13.7 10.1 13.9 9.9 14 9.7C14.4 8.5 15.1 7.5 16 6.9C16.2 6.7 16.3 6.4 16.1 6.2C16.1 5.9 15.7 5.8 15.5 6Z" fill="#0089D9"/>
</svg>
