<?xml version="1.0" encoding="UTF-8"?><svg id="aj" xmlns="http://www.w3.org/2000/svg" width="24" height="24" viewBox="0 0 24 24"><path d="M22.46,6.11L12.46,1.11c-.28-.14-.61-.14-.89,0L1.56,6.11c-.34,.17-.56,.52-.56,.9v15c0,.55,.43,1,.99,1h.01c.55,0,1-.45,1-1V7.62L12.01,3.12l8.99,4.5v14.38c0,.55,.45,1,1,1s1-.45,1-1V7c0-.38-.2-.73-.54-.9Zm-12.95,11.89H5.51c-.28,0-.5,.22-.5,.5v4c0,.28,.22,.5,.5,.5h4c.28,0,.49-.22,.49-.5v-4c0-.28-.21-.5-.49-.5Zm0-6H5.51c-.28,0-.51,.22-.51,.5v4c0,.28,.24,.5,.51,.5h4c.28,0,.49-.22,.49-.5v-4c0-.28-.21-.5-.49-.5Zm6,6h-4c-.28,0-.51,.22-.51,.5v4c0,.28,.24,.5,.51,.5h4c.28,0,.49-.22,.49-.5v-4c0-.28-.21-.5-.49-.5Z" style="fill:#0089d9;"/></svg>