<svg width="24" height="24" viewBox="0 0 24 24" fill="none" xmlns="http://www.w3.org/2000/svg">
<g clip-path="url(#clip0_7_21801)">
<path fill-rule="evenodd" clip-rule="evenodd" d="M10.7 17.2C10.6 17.1 10.5 17.1 10.5 17L8.50001 15C8.10001 14.6 7.50001 14.6 7.10001 15C6.70001 15.4 6.70001 16 7.10001 16.4L7.50001 17H4.00001V14C4.00001 13.4 3.60001 13 3.00001 13C2.40001 13 2.00001 13.5 2.00001 14V18C2.00001 18.4 2.20001 18.7 2.50001 18.8L2.60001 18.9C2.60001 18.9 2.60001 18.9 2.70001 18.9C2.80001 19 2.90001 19 3.00001 19H7.50001L6.90001 19.6C6.50001 20 6.50001 20.6 6.90001 21C7.30001 21.4 7.90001 21.4 8.30001 21L10.3 19C10.4 19 10.6 18.9 10.7 18.8C11 18.5 11.1 18.1 10.9 17.7C10.8 17.5 10.8 17.4 10.7 17.2ZM0.500014 0.500004C-0.399986 1.4 0.100014 2.4 0.500014 2.9L3.00001 0.500004C2.50001 3.99351e-06 1.40001 -0.299996 0.500014 0.500004ZM13.4 6.8C13.5 6.9 13.6 6.9 13.6 7L15.6 9C16 9.4 16.6 9.4 17 9C17.4 8.6 17.4 8 17 7.6L16.5 7H20V10C20 10.6 20.5 11 21 11C21.5 11 22 10.6 22 10V6C22 5.8 21.9 5.5 21.8 5.4C21.8 5.4 21.8 5.3 21.7 5.3C21.7 5.3 21.6 5.3 21.6 5.2C21.5 5.1 21.5 5.1 21.4 5.1C21.3 5 21.1 5 21 5H16.5L17 4.5C17.4 4.1 17.4 3.5 17 3.1C16.6 2.7 16 2.7 15.6 3.1L13.6 5.1C13.5 5.1 13.3 5.2 13.2 5.3C13 5.6 13 6 13.1 6.4C13.2 6.5 13.2 6.7 13.4 6.8ZM18 14C15.2 14 13 16.2 13 19C13 21.8 15.2 24 18 24C20.8 24 23 21.8 23 19C23 16.3 20.8 14 18 14ZM21.3 16.2L18.9 18.6C19 18.7 19 18.9 19 19C19 19.6 18.5 20 18 20C17.4 20 17 19.6 17 19C17 18.4 17.4 18 18 18C18.2 18 18.3 18 18.4 18.1L20.8 15.7C21.1 15.4 21.6 15.9 21.3 16.2ZM23.5 13.5C22.6 12.6 21.5 13 21 13.5L23.5 15.9C23.9 15.4 24.4 14.4 23.5 13.5ZM11.5 0.500004C10.6 -0.399996 9.50001 3.99351e-06 9.00001 0.500004L11.5 2.9C11.9 2.4 12.4 1.4 11.5 0.500004ZM6.00001 1C3.20001 1 1.00001 3.3 1.00001 6C1.00001 8.8 3.20001 11 6.00001 11C8.80001 11 11 8.8 11 6C11 3.3 8.80001 1 6.00001 1ZM9.30001 3.2L6.90001 5.6C7.00001 5.7 7.00001 5.8 7.00001 6C7.00001 6.6 6.50001 7 6.00001 7C5.40001 7 5.00001 6.6 5.00001 6C5.00001 5.4 5.40001 5 6.00001 5C6.20001 5 6.30001 5 6.50001 5.1L8.90001 2.7C9.10001 2.4 9.60001 2.9 9.30001 3.2ZM12.5 13.5C11.6 14.4 12.1 15.4 12.5 15.9L15 13.5C14.5 13 13.4 12.7 12.5 13.5Z" fill="#0089D9"/>
</g>
<defs>
<clipPath id="clip0_7_21801">
<rect width="140" height="24" fill="white"/>
</clipPath>
</defs>
</svg>
