<svg width="24" height="24" viewBox="0 0 24 24" fill="none" xmlns="http://www.w3.org/2000/svg">
<path fill-rule="evenodd" clip-rule="evenodd" d="M22 17V5.5C22 4.7 21.3 4 20.5 4H3.5C2.7 4 2 4.7 2 5.5V17H0V17.8C0 17.8 0.6 19 2 19H22C23.4 19 24 17.8 24 17.8V17H22ZM6 17H5V15H6V17ZM8 17.5H8.2C8.3 17.7 8.5 17.9 8.7 17.9C8.2 17.8 8 17.5 8 17.5ZM10 17H9V14H10V17ZM10 18C10.4 18 10.7 17.8 10.8 17.5H12.1C12.3 17.8 12.6 18 12.9 18H10ZM14 17H13V12H14V17ZM14.3 17.9C14.5 17.8 14.7 17.7 14.9 17.5H15C15 17.5 14.8 17.8 14.3 17.9ZM18 17H17V10H18V17ZM19 17V10C19 9.4 18.6 9 18 9H17C16.4 9 16 9.4 16 10V17H15V12C15 11.4 14.6 11 14 11H13C12.4 11 12 11.4 12 12V17H11V14C11 13.4 10.6 13 10 13H9C8.4 13 8 13.4 8 14V17H7V15C7 14.4 6.6 14 6 14H5C4.4 14 4 14.4 4 15V17H3V6C3 5.5 3.5 5 4 5H20C20.5 5 21 5.5 21 6V17H19Z" fill="#0089D9"/>
</svg>
