<svg width="24" height="24" viewBox="0 0 24 24" fill="none" xmlns="http://www.w3.org/2000/svg">
<path fill-rule="evenodd" clip-rule="evenodd" d="M19 19H24V16H19V19ZM19 21H24V20H19V21ZM16 2H7C3 2 0 4 0 7V9C0.0578072 9.80987 0.354772 10.5843 0.853251 11.2252C1.35173 11.8662 2.02928 12.3446 2.8 12.6L0.3 19.7C0.254019 19.8246 0.236173 19.9578 0.247743 20.0901C0.259312 20.2223 0.300011 20.3504 0.366919 20.4651C0.433827 20.5798 0.525288 20.6783 0.634742 20.7535C0.744195 20.8287 0.86893 20.8787 1 20.9L5.7 22C5.96491 22.0653 6.24466 22.0299 6.48489 21.9005C6.72513 21.7712 6.90872 21.5571 7 21.3L8.5 17H11C11.5153 16.9549 11.9982 16.7298 12.364 16.364C12.7298 15.9982 12.9549 15.5153 13 15V13H11V14C11 14.2652 10.8946 14.5196 10.7071 14.7071C10.5196 14.8946 10.2652 15 10 15H9.3L10 13H16C16.1352 13.0161 16.2723 13.0013 16.4009 12.9567C16.5296 12.9121 16.6464 12.839 16.7427 12.7427C16.839 12.6464 16.9121 12.5296 16.9567 12.4009C17.0013 12.2723 17.0161 12.1352 17 12V3C17.0161 2.86481 17.0013 2.72772 16.9567 2.59908C16.9121 2.47043 16.839 2.35357 16.7427 2.2573C16.6464 2.16103 16.5296 2.08786 16.4009 2.04329C16.2723 1.99872 16.1352 1.98392 16 2V2ZM5.5 18.8C5.47871 18.9311 5.42867 19.0558 5.35349 19.1653C5.2783 19.2747 5.17983 19.3662 5.06513 19.4331C4.95043 19.5 4.82235 19.5407 4.69006 19.5523C4.55778 19.5638 4.42457 19.546 4.3 19.5L3.4 19.3C2.9 19.2 2.9 18.5 3 18L5 13H8L5.5 18.8ZM15 11H6C3 11 2 9 2 8V7C2 6 3 4 6 4H15V11ZM19 24H24V22H19V24ZM19 13H24V12H19V13ZM19 6H24V5H19V6ZM19 4H24V2H19V4ZM19 0V1H24V0H19ZM19 11H24V9H19V11ZM19 8H24V7H19V8ZM19 15H24V14H19V15Z" fill="#0089D9"/>
</svg>
