<?xml version="1.0" encoding="UTF-8"?><svg id="az" xmlns="http://www.w3.org/2000/svg" width="24" height="24" viewBox="0 0 24 24"><path d="M12,0C5.37,0,0,5.37,0,12s5.37,12,12,12,12-5.37,12-12S18.63,0,12,0Zm0,22c-5.53,0-10-4.47-10-10S6.47,2,12,2s10,4.47,10,10-4.47,10-10,10Zm3.55-10.06l-2.55,2.53V7c0-.55-.45-1-1-1s-1,.45-1,1v7.52l-2.52-2.52c-.39-.39-1.02-.39-1.42,0-.39,.39-.39,1.02,0,1.41l4,4c.04,.08,.09,.16,.15,.23,.12,.12,.27,.19,.42,.24,.37,.16,.81,.09,1.1-.21,.11-.11,.18-.23,.23-.37l3.99-3.96c.39-.39,.39-1.02,0-1.41-.39-.39-1.02-.39-1.41,0Z" style="fill:#d6565a; fill-rule:evenodd;"/></svg>