<?xml version="1.0" encoding="UTF-8"?><svg id="bb" xmlns="http://www.w3.org/2000/svg" width="24" height="24" viewBox="0 0 24 24"><path d="M15.99,7h-5.99c-.56,0-1,.44-1,1s.44,1,1,1h3.49l-6.21,6.28c-.39,.4-.39,1.04,0,1.44,.39,.4,1.03,.4,1.43,0l6.3-6.36v3.65c0,.56,.43,1,.99,1s1.01-.44,1.01-1v-6h0c0-.56-.46-1-1.01-1ZM12,0C5.37,0,0,5.37,0,12s5.37,12,12,12,12-5.37,12-12S18.63,0,12,0Zm0,22c-5.53,0-10-4.47-10-10S6.47,2,12,2s10.01,4.47,10.01,10-4.48,10-10.01,10Z" style="fill:#0089d9; fill-rule:evenodd;"/></svg>