<svg width="24" height="24" viewBox="0 0 24 24" fill="none" xmlns="http://www.w3.org/2000/svg">
<path d="M20 13H14C13.5 13 13 13.4 13 14V20C13 20.6 13.5 21 14 21H20C20.5 21 21 20.6 21 20V14C21 13.4 20.5 13 20 13ZM19 19H15V15H19V19Z" fill="#0089D9"/>
<path d="M10 13H4C3.5 13 3 13.4 3 14V20C3 20.6 3.5 21 4 21H10C10.5 21 11 20.6 11 20V14C11 13.4 10.5 13 10 13ZM9 19H5V15H9V19Z" fill="#0089D9"/>
<path d="M20 3H14C13.5 3 13 3.4 13 4V10C13 10.6 13.5 11 14 11H20C20.5 11 21 10.6 21 10V4C21 3.4 20.5 3 20 3ZM19 9H15V5H19V9Z" fill="#0089D9"/>
<path d="M10 3H4C3.5 3 3 3.4 3 4V10C3 10.6 3.5 11 4 11H10C10.5 11 11 10.6 11 10V4C11 3.4 10.5 3 10 3ZM9 9H5V5H9V9Z" fill="#0089D9"/>
</svg>
