<?xml version="1.0" encoding="UTF-8"?><svg id="be" xmlns="http://www.w3.org/2000/svg" width="24" height="24" viewBox="0 0 24 24"><path d="M17,16c0,.56,.44,1,1,1h5c.56,0,1-.44,1-1v-5c0-.56-.44-1-1-1s-1,.44-1,1v2.63l-6.21-6.27s-.03-.05-.05-.07c-.2-.2-.46-.3-.72-.29-.26,0-.52,.09-.72,.29-.01,.01-.02,.03-.03,.05l-7.21,6.35L2,8.57V1c0-.55-.43-1-.98-1S0,.45,0,1V23c0,.55,.47,1,1.02,1H23.02c.55,0,.98-.45,.98-1s-.43-1-.98-1H2V11.45l4.01,4.06c.27,.28,.67,.35,1.01,.24,.35,.11,.74,.04,1.01-.24l6.94-6.11,5.53,5.59h-2.5c-.56,0-1,.44-1,1Z" style="fill:#ff8b00; fill-rule:evenodd;"/></svg>