<?xml version="1.0" encoding="UTF-8"?><svg id="la" xmlns="http://www.w3.org/2000/svg" width="24" height="24" viewBox="0 0 24 24"><path d="M21.98,0H2.03C0,0,0,2,0,2V23S0,24,1,24H23.01c.99,0,.99-1,.99-1V3h-2V7h-5V3h7v-1s0-2-2.02-2ZM9,22H2v-4h7v4Zm0-5H2v-4h7v4Zm0-5H2V8h7v4Zm0-5H2V3h7V7Zm7,15h-6v-4h6v4Zm0-5h-6v-4h6v4Zm0-5h-6V8h6v4Zm0-5h-6V3h6V7Zm6,15h-5v-4h5v4Zm0-5h-5v-4h5v4Zm0-9v4h-5V8h5Z" style="fill:#0089d9; fill-rule:evenodd;"/><rect x="10" y="13" width="6" height="4" style="fill:#0089d9; opacity:.3;"/></svg>