<?xml version="1.0" encoding="UTF-8"?><svg id="bg" xmlns="http://www.w3.org/2000/svg" width="24" height="24" viewBox="0 0 24 24"><path d="M23,22H2V1C2,.45,1.55,0,1,0S0,.45,0,1V23c0,.41,.25,.77,.61,.92,.12,.05,.25,.08,.39,.08H23c.55,0,1-.45,1-1s-.45-1-1-1Zm-5-16h0V3.51l2.36,2.48c.37,.39,.98,.39,1.35,0,.37-.39,.37-1.03,0-1.42L17.89,.55c-.04-.08-.08-.16-.15-.23-.11-.12-.25-.19-.4-.24-.35-.16-.77-.09-1.06,.21-.1,.11-.17,.23-.22,.37l-3.81,3.97c-.37,.39-.37,1.03,0,1.42,.37,.39,.98,.39,1.35,0l2.39-2.49v2.44h0c0,6.63-5.37,12-12,12v2c7.73,0,14-6.27,14-14Z" style="fill:#68a611; fill-rule:evenodd;"/></svg>