<?xml version="1.0" encoding="UTF-8"?><svg id="d" xmlns="http://www.w3.org/2000/svg" width="24" height="24" viewBox="0 0 24 24"><path d="M4.5,17c-.28,0-.5,.23-.5,.5s.22,.5,.5,.5h3.62c-.06-.33-.09-.67-.11-1h-3.51Zm0-2c-.28,0-.5,.23-.5,.5s.22,.5,.5,.5h3.51c.02-.34,.06-.67,.12-1h-3.63Zm4.25-2H4.5c-.28,0-.5,.23-.5,.5s.22,.5,.5,.5h3.87c.1-.34,.24-.67,.39-1Zm1.26,9H2V2H12v6h6v.14c.69,.12,1.36,.33,2,.62v-2.51L13.72,0H0V24H12.48c-.92-.49-1.76-1.16-2.47-2ZM14,2.49l3.59,3.51h-3.59V2.49Zm-3.98,8.51H4.5c-.28,0-.5,.23-.5,.5s.22,.5,.5,.5h4.79c.22-.35,.46-.68,.73-1ZM4.5,5h4c.28,0,.5-.22,.5-.5s-.23-.5-.5-.5h-4c-.28,0-.5,.23-.5,.5s.22,.5,.5,.5Zm17.81,6.75c-1.49-1.82-3.65-2.76-5.83-2.75-1.66,0-3.34,.56-4.72,1.7-1.8,1.48-2.75,3.63-2.76,5.79,0,1.68,.56,3.38,1.71,4.78,1.48,1.81,3.63,2.72,5.8,2.72,1.67,0,3.36-.52,4.75-1.67,1.81-1.49,2.74-3.64,2.74-5.81,0-1.68-.55-3.36-1.69-4.76Zm-2.33,8.98c-2.35,1.92-5.83,1.58-7.76-.77-1.93-2.35-1.58-5.81,.77-7.74,2.35-1.92,5.83-1.58,7.76,.77,1.93,2.35,1.58,5.81-.77,7.74ZM4.5,7h4c.28,0,.5-.22,.5-.5s-.23-.5-.5-.5h-4c-.28,0-.5,.23-.5,.5s.22,.5,.5,.5Zm15.01,9h-2.51v-3.51c0-.28-.22-.49-.49-.49s-.51,.21-.51,.49v4.01c0,.28,.23,.5,.51,.5h3c.28,0,.49-.22,.49-.5s-.22-.5-.49-.5Z" style="fill:#0089d9; fill-rule:evenodd;"/></svg>