<?xml version="1.0" encoding="UTF-8"?><svg id="bf" xmlns="http://www.w3.org/2000/svg" width="24" height="24" viewBox="0 0 24 24"><path d="M23,14c.56,0,1-.44,1-1v-5c0-.56-.44-1-1-1h-5c-.56,0-1,.44-1,1s.44,1,1,1h2.51l-5.53,5.59-6.94-6.11c-.27-.28-.67-.35-1.01-.24-.35-.11-.74-.04-1.01,.24L2,12.55V1c0-.55-.43-1-.98-1S0,.45,0,1V23c0,.55,.47,1,1.02,1H23.02c.55,0,.98-.45,.98-1s-.43-1-.98-1H2v-6.57l5.05-5.12,7.21,6.35s.02,.03,.03,.05c.2,.2,.46,.3,.72,.29,.26,0,.52-.09,.72-.29,.02-.02,.03-.05,.05-.07l6.21-6.27v2.63c0,.56,.44,1,1,1Z" style="fill:#0089d9; fill-rule:evenodd;"/></svg>