<svg width="24" height="24" viewBox="0 0 24 24" fill="none" xmlns="http://www.w3.org/2000/svg">
<path d="M21 4C21 3.4 20.7 3 20 3H19C18.3 3 18 3.4 18 4H16C16 2.4 14.7 1 13 1H11C9.3 1 8 2.4 8 4H6C6 3.4 5.7 3 5 3H4C3.3 3 3 3.4 3 4C1.3 4 0 5.4 0 7V19C0 20.6 1.3 22 3 22H5C5 22.6 5.4 23 6 23C6.6 23 7 22.6 7 22H17V22.4C17 23 17.4 23 18 23C18.6 23 19 23 19 22.4V22H21C22.7 22 24 20.6 24 19V7C24 5.3 22.7 4 21 4ZM11 3H13C13.6 3 14 3.5 14 4H10C10 3.5 10.4 3 11 3ZM22 19C22 19.5 21.6 20 21 20H3C2.4 20 2 19.5 2 19V7C2 6.5 2.4 6 3 6H21C21.6 6 22 6.4 22 7V19ZM6.5 7C6.2 7 6 7.1 6 7.4V18.6C6 18.9 6.2 19 6.5 19C6.8 19 7 18.9 7 18.6V7.4C7 7.1 6.8 7 6.5 7ZM17.5 7C17.2 7 17 7.1 17 7.4V18.6C17 18.9 17.2 19 17.5 19C17.8 19 18 18.9 18 18.6V7.4C18 7.1 17.8 7 17.5 7Z" fill="#0089D9"/>
</svg>
