<?xml version="1.0" encoding="UTF-8"?><svg id="ck" xmlns="http://www.w3.org/2000/svg" width="24" height="24" viewBox="0 0 24 24"><path d="M20,15c-1.66,0-3,1.34-3,3s1.33,3,2.99,3,3.01-1.29,3.01-3-1.34-3-3-3Zm0,4c-.55,0-1-.44-1-1s.44-1,1-1,1,.44,1,1-.45,1-1,1ZM6,15c-1.66,0-3,1.34-3,3s1.34,3,3,3,3-1.34,3-3-1.34-3-3-3Zm0,4c-.55,0-1-.44-1-.99s.45-1.01,1-1.01,1,.46,1,1.01-.44,.99-1,.99Zm17-7l-5-5h-3v-2.5c0-.82-.72-1.5-1.55-1.5H1.5c-.83,0-1.5,.68-1.5,1.5V15.49c0,.82,.67,1.51,1.5,1.51h.64c.2-.79,.64-1.48,1.24-2h-.69c-.38,0-.69-.3-.69-.67V5.69c0-.37,.3-.69,.69-.69H12.3c.38,0,.7,.32,.7,.69V14.33c0,.37-.32,.67-.7,.67h-3.68c.6,.52,1.03,1.21,1.24,2h6.28c.2-.79,.64-1.48,1.23-2h-2.38v-2h7v1.01c0,.21-.04,.36-.1,.49,.82,.45,1.47,1.16,1.82,2.04,.16-.18,.29-.38,.29-.54v-3c0-.74-.25-1-1-1Zm-8,0v-3h3s1.73,1.73,3,3h-6Z" style="fill:#0089d9; fill-rule:evenodd;"/></svg>