<?xml version="1.0" encoding="UTF-8"?><svg id="oe" xmlns="http://www.w3.org/2000/svg" width="24" height="24" viewBox="0 0 24 24"><g id="oj"><path d="M7.5,1.5s2-1,4.5-1,4.5,1,4.5,1" style="fill:none; stroke:#0089d9; stroke-miterlimit:10;"/><line x1="4.5" y1="13.5" x2="19.5" y2="13.5" style="fill:none; stroke:#0089d9; stroke-miterlimit:10;"/><path d="M16.92,7c.58,0,1.08,.49,1.08,1.08v9.92c0,.55-.45,1-1,1H7c-.55,0-1-.45-1-1V8.08c0-.58,.49-1.08,1.08-1.08h9.84m0-2H7.08c-1.69,0-3.08,1.39-3.08,3.08v9.92c0,1.66,1.34,3,3,3h10c1.66,0,3-1.34,3-3V8.08c0-1.69-1.39-3.08-3.08-3.08h0Z" style="fill:#0089d9;"/><line x1="7.5" y1="21.5" x2="5.5" y2="23.5" style="fill:none; stroke:#0089d9; stroke-miterlimit:10;"/><line x1="16.5" y1="21.5" x2="18.5" y2="23.5" style="fill:none; stroke:#0089d9; stroke-miterlimit:10;"/><rect x="11.5" y="4.5" width="1" height="1" style="fill:none; stroke:#0089d9; stroke-miterlimit:10;"/><line x1="13.5" y1=".5" x2="12.5" y2="4.5" style="fill:none; stroke:#0089d9; stroke-linecap:round; stroke-miterlimit:10;"/><line x1="10.5" y1=".5" x2="11.5" y2="4.5" style="fill:none; stroke:#0089d9; stroke-linecap:round; stroke-miterlimit:10;"/><path d="M7.5,16c.28,0,.5,.22,.5,.5s-.22,.5-.5,.5-.5-.22-.5-.5,.22-.5,.5-.5m0-1c-.83,0-1.5,.67-1.5,1.5s.67,1.5,1.5,1.5,1.5-.67,1.5-1.5-.67-1.5-1.5-1.5h0Z" style="fill:#0089d9;"/><path d="M16.5,16c.28,0,.5,.22,.5,.5s-.22,.5-.5,.5-.5-.22-.5-.5,.22-.5,.5-.5m0-1c-.83,0-1.5,.67-1.5,1.5s.67,1.5,1.5,1.5,1.5-.67,1.5-1.5-.67-1.5-1.5-1.5h0Z" style="fill:#0089d9;"/><line x1="9.5" y1="12.5" x2="14" y2="8" style="fill:none; stroke:#0089d9; stroke-miterlimit:10; stroke-width:.5px;"/><line x1="7.5" y1="12.5" x2="10.5" y2="9.5" style="fill:none; stroke:#0089d9; stroke-miterlimit:10; stroke-width:.5px;"/></g></svg>