<svg width="24" height="24" viewBox="0 0 24 24" fill="none" xmlns="http://www.w3.org/2000/svg">
<g clip-path="url(#clip0_7_24056)">
<path fill-rule="evenodd" clip-rule="evenodd" d="M20 13L10 3C9.77922 2.67695 9.47967 2.41558 9.1297 2.24059C8.77973 2.0656 8.3909 1.98279 8 2H2C1.4847 2.04505 1.00176 2.27024 0.635999 2.636C0.270239 3.00176 0.0450538 3.4847 -3.86033e-06 4V10C-0.0172052 10.3909 0.0656039 10.7797 0.24059 11.1297C0.415576 11.4797 0.676953 11.7792 0.999996 12L11 22C11.296 22.1978 11.644 22.3033 12 22.3033C12.356 22.3033 12.704 22.1978 13 22L20 15C20.1978 14.704 20.3033 14.356 20.3033 14C20.3033 13.644 20.1978 13.296 20 13V13ZM17 15L13 19C12.704 19.1978 12.356 19.3033 12 19.3033C11.644 19.3033 11.296 19.1978 11 19L3 11C2.67695 10.7792 2.41558 10.4797 2.24059 10.1297C2.0656 9.77973 1.98279 9.3909 2 9V6C2.04505 5.4847 2.27024 5.00176 2.636 4.636C3.00176 4.27024 3.4847 4.04505 4 4H7C7.3909 3.98279 7.77973 4.0656 8.1297 4.24059C8.47967 4.41558 8.77922 4.67695 9 5L17 13C17.1978 13.296 17.3033 13.644 17.3033 14C17.3033 14.356 17.1978 14.704 17 15V15ZM23 12L14 3C13.7792 2.67695 13.4797 2.41558 13.1297 2.24059C12.7797 2.0656 12.3909 1.98279 12 2H11L22 13C22.1978 13.296 22.3033 13.644 22.3033 14C22.3033 14.356 22.1978 14.704 22 15L15 22C15.296 22.1978 15.644 22.3033 16 22.3033C16.356 22.3033 16.704 22.1978 17 22L23 16C24 15 24 15 24 14C24 13 24 13 23 12ZM5 5C4.60443 5 4.21775 5.11729 3.88886 5.33706C3.55996 5.55682 3.30361 5.86918 3.15224 6.23463C3.00086 6.60008 2.96126 7.00221 3.03843 7.39018C3.1156 7.77814 3.30608 8.1345 3.58578 8.41421C3.86549 8.69391 4.22185 8.8844 4.60982 8.96157C4.99778 9.03874 5.39991 8.99913 5.76536 8.84776C6.13082 8.69638 6.44317 8.44003 6.66294 8.11114C6.8827 7.78224 7 7.39556 7 7C7 6.46956 6.78928 5.96086 6.41421 5.58578C6.03914 5.21071 5.53043 5 5 5V5Z" fill="#0089D9"/>
</g>
<defs>
<clipPath id="clip0_7_24056">
<rect width="140" height="24" fill="white"/>
</clipPath>
</defs>
</svg>
