<svg width="24" height="24" viewBox="0 0 24 24" fill="none" xmlns="http://www.w3.org/2000/svg">
<path fill-rule="evenodd" clip-rule="evenodd" d="M23 14L11 2C10.7792 1.67695 10.4797 1.41558 10.1297 1.24059C9.77973 1.0656 9.3909 0.982795 9 0.999996H3C2.4847 1.04505 2.00176 1.27024 1.636 1.636C1.27024 2.00176 1.04505 2.4847 0.999996 3V9C0.982795 9.3909 1.0656 9.77973 1.24059 10.1297C1.41558 10.4797 1.67695 10.7792 2 11L14 23C14.296 23.1978 14.644 23.3033 15 23.3033C15.356 23.3033 15.704 23.1978 16 23L23 16C23.1978 15.704 23.3033 15.356 23.3033 15C23.3033 14.644 23.1978 14.296 23 14V14ZM20 16L16 20C15.704 20.1978 15.356 20.3033 15 20.3033C14.644 20.3033 14.296 20.1978 14 20L4 10C3.67695 9.77922 3.41558 9.47967 3.24059 9.1297C3.0656 8.77973 2.98279 8.3909 3 8V5C3.04505 4.4847 3.27024 4.00176 3.636 3.636C4.00176 3.27024 4.4847 3.04505 5 3H8C8.3909 2.98279 8.77973 3.0656 9.1297 3.24059C9.47967 3.41558 9.77922 3.67695 10 4L20 14C20.1978 14.296 20.3033 14.644 20.3033 15C20.3033 15.356 20.1978 15.704 20 16ZM6 4C5.60443 4 5.21775 4.11729 4.88886 4.33706C4.55996 4.55682 4.30361 4.86918 4.15224 5.23463C4.00086 5.60008 3.96126 6.00221 4.03843 6.39018C4.1156 6.77814 4.30608 7.1345 4.58578 7.41421C4.86549 7.69391 5.22185 7.8844 5.60982 7.96157C5.99778 8.03874 6.39991 7.99913 6.76536 7.84776C7.13082 7.69638 7.44317 7.44003 7.66294 7.11114C7.8827 6.78224 8 6.39556 8 6C8 5.46956 7.78928 4.96086 7.41421 4.58578C7.03914 4.21071 6.53043 4 6 4V4Z" fill="#0089D9"/>
</svg>
