<svg width="24" height="24" viewBox="0 0 24 24" fill="none" xmlns="http://www.w3.org/2000/svg">
<g clip-path="url(#clip0_7_24888)">
<path fill-rule="evenodd" clip-rule="evenodd" d="M12 3.00001H11L10 13C10 13 10.7 14 11.5 14C11.9 14 12.3 13.7 12.6 13.4L17.9 13V12L12.8 11.5L12 3.00001ZM20.5 3.50001C15.8 -1.19999 8.20001 -1.19999 3.50001 3.50001C-1.19999 8.20001 -1.19999 15.8 3.50001 20.5C8.20001 25.2 15.8 25.2 20.5 20.5C25.2 15.8 25.2 8.20001 20.5 3.50001ZM19.1 19.1C15.2 23 8.80001 23 4.90001 19.1C1.00001 15.2 1.00001 8.80001 4.90001 4.90001C8.80001 1.00001 15.2 1.00001 19.1 4.90001C23 8.80001 23 15.2 19.1 19.1Z" fill="#0089D9"/>
</g>
<defs>
<clipPath id="clip0_7_24888">
<rect width="140" height="24" fill="white"/>
</clipPath>
</defs>
</svg>
