<?xml version="1.0" encoding="UTF-8"?><svg id="eq" xmlns="http://www.w3.org/2000/svg" width="24" height="24" viewBox="0 0 24 24"><g id="er"><rect x="1" y="3" width="22" height="20" rx="2" ry="2" style="fill:none; stroke:#0089d9; stroke-linecap:round; stroke-linejoin:round; stroke-width:2px;"/><line x1="6" y1="1" x2="6" y2="5" style="fill:none; stroke:#0089d9; stroke-linecap:round; stroke-linejoin:round; stroke-width:2px;"/><line x1="18" y1="1" x2="18" y2="5" style="fill:none; stroke:#0089d9; stroke-linecap:round; stroke-linejoin:round; stroke-width:2px;"/><path d="M6.35,13.65l4.35,3.65-1.56,.19h0c1.27-1.88,2.8-3.48,4.43-4.92,1.64-1.44,3.36-2.74,5.21-3.89,.19-.12,.43-.06,.55,.13,.11,.18,.07,.4-.09,.53h-.01c-1.67,1.29-3.24,2.72-4.68,4.24-1.43,1.53-2.72,3.18-3.69,4.95h0l-.13,.17c-.31,.4-.89,.47-1.29,.15-.05-.04-.1-.09-.14-.13l-3.65-4.35c-.18-.21-.15-.53,.06-.71,.19-.16,.46-.15,.64,0Z" style="fill:#0089d9;"/></g></svg>