<svg width="24" height="24" viewBox="0 0 24 24" fill="none" xmlns="http://www.w3.org/2000/svg">
<path fill-rule="evenodd" clip-rule="evenodd" d="M16.5 14H7.5C7.2 14 7 14.2 7 14.5C7 14.8 7.2 15 7.5 15H16.5C16.8 15 17 14.8 17 14.5C17 14.2 16.8 14 16.5 14ZM16 0.3V0H14H2V24H22V6.3L16 0.3ZM16 2.5L19.6 6H16V2.5ZM20 22H4V2H14V6V8H20V22ZM7 11.5C7 11.8 7.2 12 7.5 12H16.5C16.8 12 17 11.8 17 11.5C17 11.2 16.8 11 16.5 11H7.5C7.2 11 7 11.2 7 11.5ZM13.5 17H7.5C7.2 17 7 17.2 7 17.5C7 17.8 7.2 18 7.5 18H13.5C13.8 18 14 17.8 14 17.5C14 17.2 13.8 17 13.5 17Z" fill="#0089D9"/>
</svg>
