<?xml version="1.0" encoding="UTF-8"?><svg id="k" xmlns="http://www.w3.org/2000/svg" width="24" height="24" viewBox="0 0 24 24"><path d="M7,10.45c.09-.15,.17-.29,.26-.43h-.26v.43Zm3.45-3.45h-.45v.28c.15-.1,.3-.19,.45-.28Zm-1.45,1.05v-1.05h-2v2h1.05c.3-.34,.61-.65,.95-.95ZM20,4v2.55c.72,.33,1.39,.74,2,1.22V4c0-1.65-1.35-3-3-3h-1V3h1c.55,0,1,.44,1,1ZM14,1h-6V3h6V1Zm2,3c.55,0,1-.44,1-1h0V1h0c0-.55-.45-1-1-1s-1,.45-1,1V3c0,.55,.45,.99,1,.99ZM6,10h-2v2h2v-2Zm-.38,5c.04-.69,.14-1.35,.31-2h-1.93v2h1.62ZM15.5,7.02c-4.69,0-8.5,3.81-8.5,8.49s3.81,8.49,8.5,8.49,8.5-3.81,8.5-8.49-3.81-8.49-8.5-8.49Zm0,15.25c-3.73,0-6.77-3.03-6.77-6.76s3.04-6.76,6.77-6.76,6.77,3.03,6.77,6.76-3.04,6.76-6.77,6.76Zm2.81-7.27h-2.31v-3.49c0-.28-.22-.5-.5-.5s-.5,.22-.5,.5v3.49h-.16c-.28,0-.5,.22-.5,.49s.22,.51,.5,.51h.16v.18c0,.28,.22,.5,.5,.5s.5-.22,.5-.5v-.18h2.31c.28,0,.5-.22,.5-.49s-.22-.51-.5-.51ZM7,1h0c0-.55-.45-1-1-1s-.98,.44-1,.98V3.02c.01,.54,.45,.98,1,.98s1-.44,1-1h0V1ZM3,18c-.55,0-1-.44-1-.99V4c0-.55,.45-1,1-1h1V1h-1C1.35,1,0,2.34,0,4v13.01C0,18.66,1.35,20,3,20h3.59c-.3-.64-.54-1.3-.7-2H3Z" style="fill:#0089d9; fill-rule:evenodd;"/></svg>