<svg width="24" height="24" viewBox="0 0 24 24" fill="none" xmlns="http://www.w3.org/2000/svg">
<path d="M8.8 10.5C9.6 9.5 10 8.1 10 6.4C10 4.7 9.6 3.4 9 2.4C8.3 1.5 7.2 1 6 1C4.7 1 3.9 1.5 3.1 2.5C2.4 3.5 2 4.9 2 6.7C2 8.3 2.4 9.6 3.1 10.6C3.8 11.5 4.8 12 6 12C7.2 12 8.1 11.5 8.8 10.5ZM7.5 3.9C7.8 4.5 8 5.3 8 6.4C8 7.5 7.8 8.4 7.5 9C7.1 9.7 6.6 10 6 10C5.4 10 4.9 9.7 4.5 9.1C4.2 8.5 4 7.6 4 6.5C4 5.4 4.2 4.5 4.5 3.9C4.9 3.3 5.4 3 6 3C6.6 3 7.1 3.3 7.5 3.9ZM18 1L4 23H6L20 1H18ZM20.9 21.5C21.7 20.5 22 19.1 22 17.4C22 15.7 21.6 14.4 21 13.4C20.3 12.5 19.3 12 18 12C16.7 12 15.9 12.5 15.1 13.5C14.3 14.5 14 15.9 14 17.7C14 19.3 14.3 20.6 15 21.6C15.7 22.6 16.8 23.1 18 23.1C19.2 23 20.1 22.5 20.9 21.5ZM19.5 14.9C19.9 15.5 20 16.3 20 17.4C20 18.5 19.8 19.4 19.5 20C19.1 20.6 18.7 21 18 21C17.4 21 16.9 20.7 16.5 20.1C16.1 19.5 16 18.6 16 17.6C16 16.5 16.2 15.6 16.5 15C16.9 14.4 17.4 14.1 18 14.1C18.6 14 19.1 14.3 19.5 14.9Z" fill="#0089D9"/>
</svg>
