<?xml version="1.0" encoding="UTF-8"?><svg id="bd" xmlns="http://www.w3.org/2000/svg" width="24" height="24" viewBox="0 0 24 24"><path d="M4,4c6.62,0,11.98,5.34,12.01,11.95,0,.01,0,.03,0,.04v.45l-2.39-2.49c-.37-.39-.98-.39-1.35,0-.37,.39-.37,1.03,0,1.42l3.81,3.97c.05,.13,.11,.26,.22,.37,.29,.3,.71,.37,1.06,.21,.15-.05,.28-.12,.4-.24,.07-.07,.1-.15,.15-.23l3.82-4.01c.37-.39,.37-1.03,0-1.42s-.98-.39-1.35,0l-2.36,2.48v-.5h0c0-7.73-6.27-13.99-14-13.99v2h0ZM23,22H2V1c0-.55-.45-1-1-1S0,.45,0,1V23c0,.55,.45,1,1,1H23c.55,0,1-.45,1-1s-.45-1-1-1Z" style="fill:#d6565a; fill-rule:evenodd;"/></svg>