<svg width="24" height="24" viewBox="0 0 24 24" fill="none" xmlns="http://www.w3.org/2000/svg">
<g clip-path="url(#clip0_7_25757)">
<path fill-rule="evenodd" clip-rule="evenodd" d="M20.88 19L19.19 16H20V11H15V16H15.81L14.13 19H11V24H16V19H15.69L17.4 16H17.66L19.4 19H19V24H24V19H20.88Z" fill="#0089D9"/>
<path d="M12.53 11.83C12.61 12.62 12.81 13.36 13.26 13.84C13.69 14.33 14.35 14.62 15.12 14.83C15.89 15.04 16.74 15.18 17.66 15.56C18.12 15.75 18.6 16.02 19.02 16.45C19.44 16.87 19.72 17.44 19.85 17.98C19.91 18.25 19.95 18.52 19.96 18.78V18.98C19.97 19.11 19.94 19.35 19.87 19.49C19.73 19.82 19.53 19.97 19.37 20.08C19.03 20.28 18.76 20.31 18.51 20.38C18.27 20.45 18.04 20.52 17.81 20.57C16.91 20.77 16.04 20.85 15.18 20.92C13.45 21.02 11.73 21.08 10.02 21.07C8.29999 21.07 6.58999 21.02 4.84999 20.93C3.97999 20.87 3.10999 20.79 2.20999 20.59C1.74999 20.46 1.27999 20.51 0.639988 20.1C0.489988 19.98 0.289988 19.82 0.149988 19.49C0.0799878 19.35 0.0499878 19.11 0.0499878 18.98V18.78C0.0699878 18.52 0.119988 18.25 0.179988 17.98C0.309988 17.44 0.589988 16.87 1.00999 16.45C1.41999 16.02 1.90999 15.75 2.36999 15.56C3.28999 15.18 4.13999 15.04 4.90999 14.83C5.67999 14.62 6.33999 14.33 6.76999 13.84C7.21999 13.36 7.41999 12.62 7.49999 11.83C7.52999 11.55 7.75999 11.36 8.02999 11.38C8.26999 11.4 8.44999 11.59 8.46999 11.83C8.53999 12.73 8.41999 13.76 7.81999 14.64C7.20999 15.52 6.24999 15.99 5.40999 16.31C4.56999 16.64 3.73999 16.84 3.09999 17.16C2.43999 17.49 2.13999 17.84 2.03999 18.41C2.01999 18.56 1.99999 18.71 2.00999 18.88V19C2.00999 19 1.98999 18.84 1.96999 18.8C1.90999 18.67 1.86999 18.67 1.86999 18.68C1.89999 18.8 2.26999 19.1 2.61999 19.21C3.35999 19.45 4.18999 19.61 5.00999 19.75C6.65999 20.03 8.35999 20.11 10.04 20.12C11.73 20.11 13.42 20.04 15.07 19.76C15.89 19.63 16.72 19.47 17.46 19.23C17.64 19.17 17.82 19.11 17.98 19.02C18.12 18.93 18.24 18.77 18.23 18.7C18.23 18.67 18.18 18.67 18.11 18.79C18.09 18.83 18.06 18.96 18.07 18.99V18.87C18.07 18.7 18.05 18.55 18.03 18.4C17.93 17.83 17.63 17.48 16.97 17.15C16.33 16.84 15.5 16.63 14.66 16.3C13.83 15.98 12.86 15.51 12.25 14.63C11.65 13.75 11.53 12.72 11.6 11.82C11.62 11.55 11.85 11.35 12.12 11.37C12.36 11.39 12.54 11.58 12.57 11.81L12.53 11.83Z" fill="#0087E0"/>
<path d="M9.99999 12.11C11.09 12.1 12.1 11.11 12.68 10.03C13.28 8.93 13.61 7.67 13.66 6.41C13.69 5.15 13.52 3.86 12.85 3.04C12.53 2.63 12.12 2.34 11.63 2.17C11.15 1.98 10.59 1.9 10.01 1.9C8.83999 1.88 7.76999 2.21 7.18999 3.05C6.56999 3.87 6.38999 5.14 6.45999 6.39C6.51999 7.64 6.79999 8.89 7.38999 9.98C7.95999 11.05 8.91999 12.03 9.99999 12.1V12.11ZM9.99999 13.02C9.17999 13.02 8.43999 12.66 7.85999 12.2C7.26999 11.74 6.80999 11.16 6.42999 10.55C5.66999 9.32 5.22999 7.93 5.05999 6.51C4.90999 5.13 4.88999 3.54 5.79999 2.11C6.24999 1.41 6.94999 0.850002 7.69999 0.540002C8.45999 0.220002 9.23999 0.100002 9.99999 0.0800018C10.75 0.0800018 11.55 0.200002 12.3 0.520002C13.05 0.850002 13.75 1.42 14.17 2.13C15.03 3.57 15.01 5.13 14.83 6.5C14.64 7.9 14.26 9.29 13.5 10.51C13.12 11.12 12.68 11.69 12.1 12.16C11.54 12.63 10.82 13 9.99999 13.03V13.02Z" fill="#0087E0"/>
</g>
<defs>
<clipPath id="clip0_7_25757">
<rect width="24" height="24" fill="white"/>
</clipPath>
</defs>
</svg>
