<svg width="24" height="24" viewBox="0 0 24 24" fill="none" xmlns="http://www.w3.org/2000/svg">
<g clip-path="url(#clip0_7_25739)">
<path d="M14.73 13.23C14.7506 14.133 15.1072 14.9958 15.73 15.65C16.4255 16.2515 17.2555 16.6768 18.15 16.89C19.1669 17.1467 20.1685 17.4605 21.15 17.83C21.7289 18.0668 22.2607 18.4055 22.72 18.83C23.2328 19.2924 23.6009 19.8932 23.78 20.56C23.8744 20.8854 23.9282 21.2213 23.94 21.56C23.94 21.66 23.94 21.69 23.94 21.83C23.9318 22.0452 23.87 22.2549 23.76 22.44C23.6157 22.6725 23.412 22.8624 23.17 22.99C22.8485 23.1236 22.5131 23.2209 22.17 23.28L21.35 23.48C20.3067 23.6793 19.2508 23.8062 18.19 23.86C16.1 23.98 14.03 24.04 11.95 24.04C9.86999 24.04 7.79999 23.98 5.70999 23.88C4.64633 23.8207 3.58753 23.6938 2.53999 23.5C1.91907 23.4325 1.31208 23.2706 0.739991 23.02C0.502349 22.8801 0.305754 22.68 0.169991 22.44C0.0498412 22.2305 -0.0090607 21.9914 -9.29926e-06 21.75C-9.29926e-06 21.61 -9.29926e-06 21.58 -9.29926e-06 21.48C0.0117935 21.1413 0.0655367 20.8054 0.159991 20.48C0.339103 19.8132 0.707222 19.2124 1.21999 18.75C1.67932 18.3255 2.21107 17.9868 2.78999 17.75C3.77152 17.3805 4.77311 17.0667 5.78999 16.81C6.68447 16.5968 7.5145 16.1715 8.20999 15.57C8.83279 14.9158 9.18934 14.053 9.20999 13.15C9.20999 13.0174 9.26267 12.8902 9.35644 12.7965C9.4502 12.7027 9.57738 12.65 9.70999 12.65C9.8426 12.65 9.96978 12.7027 10.0635 12.7965C10.1573 12.8902 10.21 13.0174 10.21 13.15C10.2442 13.721 10.1937 14.2939 10.06 14.85C9.90506 15.4362 9.62534 15.9819 9.23999 16.45C8.4458 17.2932 7.45184 17.9226 6.34999 18.28C5.34999 18.67 4.34999 18.94 3.52999 19.34C3.15566 19.4652 2.81908 19.6831 2.55157 19.9733C2.28406 20.2635 2.09431 20.6167 1.99999 21C1.95368 21.1829 1.93348 21.3714 1.93999 21.56V21.68C1.94228 21.596 1.92153 21.513 1.87999 21.44C1.87999 21.34 1.78999 21.37 1.87999 21.44C2.18529 21.7061 2.54813 21.8978 2.93999 22C3.90733 22.2528 4.88914 22.4465 5.87999 22.58C7.90742 22.8653 9.9526 23.0056 12 23C14.0463 23.0139 16.0911 22.8869 18.12 22.62C19.1158 22.4781 20.1013 22.271 21.07 22C21.2959 21.9415 21.5166 21.8646 21.73 21.77C21.9015 21.6838 22.0492 21.5567 22.16 21.4C22.16 21.34 22.16 21.31 22.11 21.4C22.0603 21.4698 22.0356 21.5544 22.04 21.64V21.52C22.0494 21.3457 22.036 21.1709 22 21C21.8932 20.6322 21.6993 20.2957 21.4347 20.0189C21.1701 19.7421 20.8426 19.5332 20.48 19.41C19.65 19.02 18.66 18.75 17.66 18.36C16.5601 18.0047 15.5689 17.3749 14.78 16.53C14.3878 16.065 14.1042 15.5184 13.95 14.93C13.8163 14.3739 13.7657 13.801 13.8 13.23C13.8 13.0974 13.8527 12.9702 13.9464 12.8765C14.0402 12.7827 14.1674 12.73 14.3 12.73C14.4326 12.73 14.5598 12.7827 14.6535 12.8765C14.7473 12.9702 14.8 13.0974 14.8 13.23H14.73Z" fill="#0087E0"/>
<path d="M12 13.6C12.6839 13.4958 13.331 13.2227 13.8828 12.8054C14.4345 12.388 14.8735 11.8397 15.16 11.21C15.8366 9.9403 16.2033 8.52851 16.23 7.09C16.3459 5.75209 15.9923 4.41558 15.23 3.31C14.8253 2.86208 14.3246 2.51155 13.7652 2.28468C13.2058 2.05782 12.6023 1.96049 12 2C11.3895 1.95273 10.7762 2.04626 10.2076 2.27338C9.63889 2.5005 9.12996 2.85515 8.71998 3.31C7.95765 4.41558 7.60407 5.75209 7.71998 7.09C7.75151 8.52785 8.11788 9.93853 8.78998 11.21C9.08095 11.8461 9.52762 12.3986 10.0887 12.8164C10.6498 13.2341 11.3071 13.5036 12 13.6V13.6ZM12 14.4C11.1411 14.3736 10.315 14.0642 9.64998 13.52C9.00385 13.0158 8.44622 12.4075 7.99998 11.72C7.12215 10.3604 6.56793 8.81745 6.37998 7.21C6.05143 5.49419 6.35703 3.71744 7.23998 2.21C7.77727 1.4387 8.52795 0.840938 9.39998 0.490004C11.0717 -0.16362 12.9283 -0.16362 14.6 0.490004C15.4746 0.846352 16.2256 1.4513 16.76 2.23C17.6429 3.73744 17.9485 5.51419 17.62 7.23C17.4291 8.83053 16.875 10.3663 16 11.72C15.5568 12.4067 15.0025 13.015 14.36 13.52C13.6923 14.0663 12.8623 14.3758 12 14.4V14.4Z" fill="#0089D9"/>
</g>
<defs>
<clipPath id="clip0_7_25739">
<rect width="140" height="24" fill="white"/>
</clipPath>
</defs>
</svg>
