<svg width="24" height="24" viewBox="0 0 24 24" fill="none" xmlns="http://www.w3.org/2000/svg">
<path d="M11.2 3.7C9.7 4.8 7.8 3.7 6.8 6.1C8.1 4.7 10.5 6.4 10.9 4.8C11.2 5.6 12 5.5 12.6 6C12.3 4.5 11.3 4.4 11.2 3.7ZM4 18.6C5.4 17.7 7 16.6 7.8 16C7.8 16 8.6 14.5 7.8 13C7.6 12.6 7.1 12.1 7.1 11.1C7.1 10.5 6.5 9.8 6 9.7C5.6 9.5 5.4 8.9 5.5 8.4C6.4 8.5 6.7 7.5 6.5 6.9C4 1.6 10.4 0.4 11.6 3.6C13 3 13.9 5.4 12.5 6.6C12 7.6 13.5 8.1 13.5 8.1C13.6 8.6 13.1 9.7 12.8 9.9C12.2 10 11.7 10.7 11.7 11.3C11.7 11.7 11.7 12 11.6 12.3C12.5 11.3 13.6 10.6 14.9 10.2C15.3 9.5 15.5 8.8 15.4 8.2C15.3 7.6 14.8 7 14.3 6.8C14.7 5.9 14.9 6 14.9 4.5C14.9 3.4 14.2 1.7 12.5 1.6C11.9 0.6 10.6 0 9.1 0C6.6 0 4 1.7 4 4.7C4 5.9 4.3 6 4.6 7C4.1 7.1 3.5 7.7 3.5 8.3C3.4 9.3 4.3 11.2 5.4 11.4C5.4 12.4 5.8 13.1 6.4 13.8C6.5 14 6.5 14.5 6.4 14.7C6.1 14.7 5.8 14.7 5.6 14.9C4.8 15.6 1.9 17.3 0.5 18.3C0.4 18.4 0.4 18.4 0.5 18.5C0.2 18.8 0 19 0 19.2C0 20.5 5 21 10 21C10.4 21 10.8 21 11.1 21C10.7 20.4 10.4 19.8 10.2 19.1C8 19.2 5.7 19 4 18.6ZM16.4 16.5C15.8 17.1 15.8 18.1 16.4 18.6C17 19.2 17.9 19.2 18.5 18.6C19.1 18 19.1 17 18.5 16.5C17.9 15.8 17 15.9 16.4 16.5ZM18 18H17V17H18V18ZM24 19V16H21.7C21.6 15.9 21.6 15.7 21.5 15.6L23.1 14L21 11.8L19.4 13.4C19.3 13.3 19.1 13.3 19 13.2V11H16V13.3C15.9 13.4 15.7 13.4 15.6 13.5L14 11.8L11.8 14L13.4 15.6C13.3 15.7 13.3 15.9 13.2 16H11V19H13.3C13.4 19.1 13.4 19.3 13.5 19.4L11.8 21L13.9 23.1L15.5 21.5C15.6 21.6 15.8 21.6 15.9 21.7V24H18.9V21.7C19 21.6 19.2 21.6 19.3 21.5L20.9 23.1L23 21L21.4 19.4C21.5 19.3 21.5 19.1 21.6 19H24ZM21.4 20.7L20.7 21.4L19 19.7C18.7 19.9 18.4 20 18.1 20.1V22.6H17.1V20H17.2C16.8 19.9 16.3 19.7 16 19.4L16.2 19.6L14.5 21.3L13.8 20.6L15.5 18.9L15.8 19.2C15.4 18.7 15.1 18.1 15.1 17.6V18H12.6V17H15V17.5C15 16.9 15.2 16.2 15.7 15.7L15.4 16L13.7 14.3L14.4 13.6L16.1 15.3L15.8 15.6C16.2 15.2 16.7 15 17.3 14.9H17V12.4H18V15H17.8C18.2 15 18.6 15.2 18.9 15.4L20.6 13.7L21.3 14.4L19.6 16.1C19.8 16.4 20 16.7 20 17.1H22.4V18.1H20C19.9 18.4 19.8 18.7 19.6 19L21.4 20.7Z" fill="#0089D9"/>
</svg>
