<svg width="24" height="24" viewBox="0 0 24 24" fill="none" xmlns="http://www.w3.org/2000/svg">
<path fill-rule="evenodd" clip-rule="evenodd" d="M24 14C23.1 13.4 21.8 12.6 21.1 12C21 11.9 20.4 11.8 20.1 11.8C20.1 11.6 20.2 11.1 20.2 11C20.8 10.8 21 9.9 21 9.2C21.8 9 22.4 7.7 22.3 6.9C22.3 6.5 21.9 6 21.5 5.9C21.8 5.2 22.1 5.1 22.1 4C22.1 3.2 21.7 2.1 20.3 2.2C19.9 1.6 18.8 1 17.7 1C15.9 1 13.8 2.1 13.8 4.3C13.8 5.2 14.1 5.4 14.4 6.1C14 6.2 13.7 6.7 13.7 7.1C13.7 7.8 14.2 9.2 15 9.4C15 10.1 15.2 10.8 15.9 11.1C16 11.2 16 11.6 15.9 11.8C15.7 11.8 15.1 12.1 14.9 12.2C14.3 12.7 13.1 13.4 12 14.1C11.9 14.2 11.9 14.4 12 14.5C12 14.7 12 14.9 12 15.1C12.1 17.8 24 17.6 24 15.1C24 14.9 24 14.7 24 14.5C24 14.3 24 14.1 24 14ZM13.7 14.8C14.6 14.3 15.7 13.6 16.3 13.1C16.3 13.1 17 12.8 17.1 12.2C17.2 11.6 17.2 10.7 17 10.2C16.6 9.4 16.3 9.7 16.2 8.7C16.2 8.3 15.8 7.6 15.4 7.6C15.4 7.6 15.3 7.4 15.4 7.3C15.9 7.2 16.2 6.3 16 5.8C14.5 2.3 18.8 1.5 19.7 3.5C20.7 2.9 20.9 5.5 20.3 5.8C19.9 6.6 20.3 7.4 20.7 7.4C20.7 7.4 20.8 7.6 20.7 7.8C20.3 8 19.9 8.3 19.9 8.8C19.8 9.3 19.3 9.8 19.1 10.2C18.9 10.6 19.1 11.7 19.2 12.2C19.3 12.7 20.3 13.1 20.3 13.1C21.1 13.6 21.9 14.2 22.8 14.8C20.6 16 16 15.9 13.7 14.8ZM9.1 6.6C9.3 7.4 10.1 7.3 10.6 7.7C10.3 6.2 9.4 6.2 9.3 5.5C7.9 6.6 5 5.5 5.4 8C6.6 6.6 8.6 8.1 9.1 6.6ZM14.6 19.5C13.5 18.7 11.9 17.1 11 16.3C10.8 16.1 10.6 16.1 10.3 16.1C10.2 15.8 10.2 15.4 10.3 15.3C10.9 14.6 11.2 13.9 11.3 13C12.3 12.8 13.1 11 13 10C12.9 9.4 12.5 8.9 12 8.7C12.3 7.8 12.6 8 12.6 6.5C12.6 5.5 12 3.8 10.4 3.7C9.7 2.7 8.6 2 7.2 2C4.9 2 2.5 3.7 2.5 6.5C2.5 7.7 2.7 7.8 3 8.7C2.5 8.8 2 9.4 2 10C2 11 2.7 12.7 3.7 13C3.7 13.9 4.1 14.6 4.7 15.2C4.8 15.4 4.8 15.8 4.7 16.1C4.4 16.1 4.2 16.1 4 16.3C3.3 17 1.6 18.6 0.3 19.5C0.2 19.6 0.2 19.7 0.3 19.8C0.1 20 0 20.2 0 20.4C0 23.9 15 23.9 15 20.4C15 20.2 15 20 14.8 19.8C14.8 19.6 14.8 19.5 14.6 19.5ZM2.2 20.1C3.5 19.2 5.3 17.9 6.1 17.3C6.1 17.3 7 16.1 6.3 14.7C6.1 14.3 5.4 13.8 5.4 12.9C5.4 12.4 4.7 11.6 4.2 11.5C4 11.3 3.8 10.6 3.9 10.2C4.8 10 4.9 9.2 4.7 8.6C2.7 3.7 8.5 2.5 9.7 5.5C11 4.9 11.8 7.5 10.5 8.7C10 9.7 11.2 10.2 11.2 10.2C11.3 10.7 11.1 11.6 10.8 11.8C10.2 11.9 9.8 12.4 9.8 13C9.8 14.3 9.4 14.4 9.1 14.8C8.6 16.1 9.6 17.5 9.6 17.5C10.5 18.2 11.7 19.6 12.8 20.4C10.2 22.1 4.4 21.9 2.2 20.1ZM19.9 5.5C19.7 4.4 19 4.4 18.9 3.9C17.9 4.6 16.5 3.9 15.9 5.6C16.8 4.6 18.4 5.8 18.7 4.7C19 5.2 19.5 5.1 19.9 5.5Z" fill="#0089D9"/>
</svg>
