<svg width="24" height="24" viewBox="0 0 24 24" fill="none" xmlns="http://www.w3.org/2000/svg">
<path fill-rule="evenodd" clip-rule="evenodd" d="M18.5 11C18.9 11 19.1 11.4 19.1 11.7C19.1 12.4 18.7 13.6 18 13.7C18 14.2 18 15.2 17.5 15.3C17.3 15.5 17.3 16 17.3 16.4C17.7 17.5 21.6 19.2 22.2 19.6C22.7 19.9 23.3 20.3 23.3 21.4C21.9 22.3 8.7 22.3 6.9 21.4C6.9 20.3 7.3 20 7.9 19.6C8.5 19.2 12.6 17.5 12.9 16.4C12.9 16.2 12.8 15.5 12.7 15.3C12.3 15.2 12.3 14.3 12.2 13.8C11.6 13.6 11.2 12.5 11.2 11.8C11.2 11.4 11.5 11 11.8 11.1C11.8 10.9 11.6 10.7 11.5 10.5C10 6.8 15.8 4.5 17.3 7.5C19.6 7.6 19.1 10 18.5 11ZM1 2H3V4H1V2ZM1 6H3V8H1V6ZM1 10H3V12H1V10ZM1 14H3V16H1V14ZM5 3C5 2.4 5.4 2 6 2H22C22.5 2 23 2.4 23 3C23 3.6 22.6 4 22 4H6C5.4 4 5 3.6 5 3ZM19.1 6H22C22.5 6 23 6.4 23 7C23 7.6 22.6 8 22 8H20.4C20.4 7.9 20.4 7.8 20.4 7.8C20.2 7.2 19.7 6.6 19.1 6ZM10.8 6H6C5.4 6 5 6.4 5 7C5 7.6 5.4 8 6 8H9.7C9.7 7.9 9.7 7.8 9.8 7.7C10 7.1 10.3 6.5 10.8 6ZM20.6 10H22C22.5 10 23 10.4 23 11C23 11.6 22.6 12 22 12H20.4C20.6 11.2 20.6 10.6 20.6 10ZM9.4 10H6C5.5 10 5 10.4 5 11C5 11.6 5.4 12 6 12H9.6C9.5 11.4 9.4 10.7 9.4 10ZM19.9 14H22C22.5 14 23 14.4 23 15C23 15.6 22.6 16 22 16H19.3C19.4 15.4 19.7 14.6 19.9 14ZM10.2 14H6C5.5 14 5 14.4 5 15C5 15.6 5.4 16 6 16H10.7C10.7 15.4 10.5 14.7 10.2 14Z" fill="#0089D9"/>
</svg>
