<svg width="24" height="24" viewBox="0 0 24 24" fill="none" xmlns="http://www.w3.org/2000/svg">
<g clip-path="url(#clip0_7_25224)">
<path fill-rule="evenodd" clip-rule="evenodd" d="M15.6 6.9C15.3 5.2 14.1 5.1 14 4.3C12.2 5.4 10 4.3 8.9 7C10.4 5.3 13.1 7.3 13.7 5.5C14 6.5 15 6.3 15.6 6.9ZM21.7 20.5C20.2 19.5 17.5 17.8 16.5 17.1C16.3 16.9 16 16.8 15.6 16.9C15.5 16.6 15.5 16 15.6 15.9C16.4 15.1 16.8 14.2 16.8 13.1C18.1 12.8 19.1 10.7 18.9 9.5C18.8 8.8 18.3 8.1 17.6 8C18 6.9 18.3 7.1 18.3 5.4C18.3 4.1 17.5 2.2 15.5 2.1C14.8 0.800001 13.3 0.100001 11.5 0.100001C8.6 1.22027e-06 5.7 2 5.7 5.4C5.7 6.8 6 6.9 6.4 8C5.7 8.1 5 8.8 5 9.5C4.9 10.7 5.9 12.8 7.2 13.1C7.3 14.2 7.6 15.1 8.4 15.8C8.5 16 8.5 16.6 8.4 16.9C8.1 16.9 7.8 16.9 7.5 17.2C6.6 18 3.3 19.9 1.6 21C1.6 21 1.6 21.1 1.5 21.1C1.2 21.3 1 21.7 1 22C1 24.7 23 24.6 23 22C23 21.4 22.7 20.8 21.7 20.5ZM4.1 21.6C5.9 20.5 8.5 19.1 9.6 18.3C9.6 18.3 10.7 16.8 9.7 15.1C9.4 14.6 8.9 14.1 8.9 13C8.9 12.3 8.4 11.8 7.8 11.7C7.5 11.5 6.9 9.9 7 9.4C8 9.5 8.5 8.4 8.2 7.7C5.3 1.6 13.3 0.100001 14.7 3.7C16.4 3 17.6 6.3 15.9 7.7C15.2 8.8 17 9.3 17 9.3C17.1 9.9 16.6 11.2 16.2 11.4C15.5 11.5 15 12.2 15 12.9C15 14.4 14.6 14.6 14.2 15.2C13.5 16.8 14.6 18.1 14.6 18.1C15.7 18.9 18.4 20.6 20 21.6C16.6 22.8 7.5 22.7 4.1 21.6Z" fill="#0089D9"/>
</g>
<defs>
<clipPath id="clip0_7_25224">
<rect width="140" height="24" fill="white"/>
</clipPath>
</defs>
</svg>
