<?xml version="1.0" encoding="UTF-8"?><svg id="ke" xmlns="http://www.w3.org/2000/svg" width="24" height="24" viewBox="0 0 24 24"><g id="kf"><path d="M9.03,21H2V8H7c.55,0,1-.45,1-1V2h8V7.03c.69,.04,1.36,.15,2,.35,0-2.1,0-4.01,0-5.38C18,0,16,0,16,0H6L0,6v15s0,2,2,2c2.43,0,6.22,0,9.5,0-.95-.51-1.79-1.19-2.48-2ZM6,2V6H2L6,2ZM23.72,22l-2.06-2.06c-.28-.28-.69-.32-1.04-.18l-.27-.27c1.02-1.22,1.64-2.79,1.64-4.5,0-3.86-3.13-7-7-7s-7,3.14-7,7,3.13,7,7,7c1.79,0,3.42-.68,4.66-1.79l.31,.31c-.08,.35-.03,.74,.23,.99l2.06,2.06c.39,.39,1.05,.3,1.44-.09,.39-.39,.42-1.08,.03-1.47Zm-8.73-2c-2.76,0-4.99-2.24-4.99-5.01s2.23-5.01,4.99-5.01,4.99,2.24,4.99,5.01-2.23,5.01-4.99,5.01Z" style="fill:#0089d9; fill-rule:evenodd;"/><rect x="5" y="10" width="6" height="1" rx=".5" ry=".5" style="fill:#0089d9;"/><rect x="5" y="13" width="8" height="1" rx=".5" ry=".5" style="fill:#0089d9;"/><rect x="5" y="16" width="8" height="1" rx=".5" ry=".5" style="fill:#0089d9;"/><rect x="9" y="12" width="7" height="2" rx="1" ry="1" style="fill:#0089d9;"/><rect x="9" y="16" width="7" height="2" rx="1" ry="1" style="fill:#0089d9;"/><rect id="kg" x="0" width="24" height="24" style="fill:none; opacity:0;"/></g></svg>