<svg width="53" height="24" viewBox="0 0 53 24" fill="none" xmlns="http://www.w3.org/2000/svg">
<path d="M11.53 11.83C11.5614 12.5113 11.7606 13.1743 12.11 13.76C12.4892 14.2509 13.0201 14.6025 13.62 14.76C14.3958 14.9671 15.1574 15.2243 15.9 15.53C16.3677 15.7461 16.7836 16.0598 17.12 16.45C17.4643 16.8562 17.7046 17.3402 17.82 17.86C17.8794 18.0964 17.9195 18.3372 17.94 18.58L18 19C18.0051 19.282 17.9212 19.5585 17.76 19.79C17.5392 20.0678 17.2277 20.259 16.88 20.33L16.21 20.55C15.4149 20.7618 14.6011 20.8958 13.78 20.95C12.18 21.06 10.61 21.12 9.04 21.11C7.47 21.1 5.9 21.11 4.3 20.96C3.47679 20.9079 2.66006 20.7807 1.86 20.58C1.65 20.52 1.41 20.48 1.16 20.4C0.816999 20.2963 0.51807 20.0818 0.31 19.79C0.123171 19.5676 0.0142929 19.2901 0 19L0 18.66C0.0204807 18.4172 0.0606121 18.1764 0.12 17.94C0.233478 17.4195 0.473953 16.9351 0.82 16.53C1.15636 16.1398 1.57235 15.8261 2.04 15.61C2.78256 15.3043 3.54416 15.0471 4.32 14.84C4.9199 14.6825 5.45082 14.3309 5.83 13.84C6.17935 13.2543 6.37859 12.5913 6.41 11.91C6.40197 11.8331 6.41227 11.7553 6.44006 11.6831C6.46785 11.6109 6.51235 11.5463 6.5699 11.4946C6.62745 11.4429 6.69643 11.4056 6.77119 11.3857C6.84594 11.3657 6.92435 11.3638 7 11.38C7.11199 11.3954 7.21547 11.4482 7.29356 11.5299C7.37165 11.6117 7.41974 11.7174 7.43 11.83C7.52025 12.7097 7.3717 13.5976 7 14.4C6.56204 15.2206 5.8562 15.8665 5 16.23C4.22 16.59 3.47 16.81 2.92 17.11C2.67584 17.2132 2.46268 17.378 2.3014 17.5884C2.14012 17.7988 2.03626 18.0474 2 18.31C1.98455 18.4529 1.98455 18.5971 2 18.74V19C1.99876 18.9152 1.97457 18.8322 1.93 18.76C1.84 18.67 1.87 18.76 1.93 18.89C2.03978 19.0043 2.1683 19.099 2.31 19.17C2.99618 19.4293 3.70629 19.6203 4.43 19.74C5.93873 20.0035 7.46853 20.1274 9 20.11C10.5346 20.123 12.0674 19.9992 13.58 19.74C14.3067 19.619 15.02 19.4281 15.71 19.17C15.8594 19.1256 15.9964 19.0468 16.11 18.94C16.2 18.83 16.23 18.67 16.11 18.75C15.99 18.83 16 19 16 19V18.76C16.0109 18.6169 16.0109 18.4731 16 18.33C15.9676 18.0716 15.8697 17.8258 15.7157 17.6158C15.5617 17.4058 15.3567 17.2386 15.12 17.13C14.57 16.83 13.82 16.61 13.04 16.25C12.1838 15.8865 11.478 15.2406 11.04 14.42C10.6717 13.6166 10.5266 12.7288 10.62 11.85C10.62 11.7174 10.6727 11.5902 10.7664 11.4965C10.8602 11.4027 10.9874 11.35 11.12 11.35C11.2526 11.35 11.3798 11.4027 11.4736 11.4965C11.5673 11.5902 11.62 11.7174 11.62 11.85L11.53 11.83Z" fill="#0087E0"/>
<path d="M9 12.11C9.58892 12.0143 10.1438 11.7704 10.6126 11.4013C11.0814 11.0322 11.4487 10.55 11.68 10C12.2906 8.88764 12.633 7.64807 12.68 6.38001C12.8014 5.19133 12.5082 3.99722 11.85 3.00001C11.5303 2.60204 11.1035 2.30368 10.62 2.14001C10.0989 1.96364 9.54958 1.88565 9 1.91001C8.47156 1.85412 7.9375 1.92988 7.44545 2.13054C6.9534 2.3312 6.51866 2.65051 6.18 3.06001C5.57369 4.06185 5.31694 5.23656 5.45 6.40001C5.49029 7.65519 5.8115 8.88536 6.39 10C6.62168 10.5368 6.98025 11.0092 7.43488 11.3768C7.88952 11.7443 8.42662 11.9959 9 12.11ZM9 13C8.2147 12.9753 7.46069 12.6864 6.86 12.18C6.2896 11.7149 5.80554 11.153 5.43 10.52C4.68801 9.3021 4.22049 7.93707 4.06 6.52001C3.7867 5.01192 4.04842 3.45573 4.8 2.12001C5.2651 1.41878 5.92571 0.869427 6.7 0.540006C7.43044 0.242999 8.21148 0.0901881 9 0.0900057C9.78885 0.0759112 10.572 0.225739 11.3 0.530006C12.0774 0.856191 12.7319 1.41968 13.17 2.14001C13.8929 3.47514 14.1263 5.02094 13.83 6.51001C13.6738 7.92224 13.2206 9.28543 12.5 10.51C12.1322 11.1339 11.6584 11.6889 11.1 12.15C10.5161 12.6623 9.77589 12.9619 9 13Z" fill="#0087E0"/>
<path d="M13 21H15V19H13V21ZM13 18H15V16H13V18ZM17 15H23C23.2652 15 23.5196 14.8946 23.7071 14.7071C23.8946 14.5196 24 14.2652 24 14C24 13.7348 23.8946 13.4804 23.7071 13.2929C23.5196 13.1054 23.2652 13 23 13H17C16.7348 13 16.4804 13.1054 16.2929 13.2929C16.1054 13.4804 16 13.7348 16 14C16 14.2652 16.1054 14.5196 16.2929 14.7071C16.4804 14.8946 16.7348 15 17 15ZM13 24H15V22H13V24ZM23 22H17C16.7348 22 16.4804 22.1054 16.2929 22.2929C16.1054 22.4804 16 22.7348 16 23C16 23.2652 16.1054 23.5196 16.2929 23.7071C16.4804 23.8946 16.7348 24 17 24H23C23.2652 24 23.5196 23.8946 23.7071 23.7071C23.8946 23.5196 24 23.2652 24 23C24 22.7348 23.8946 22.4804 23.7071 22.2929C23.5196 22.1054 23.2652 22 23 22ZM13 15H15V13H13V15ZM23 16H17C16.7348 16 16.4804 16.1054 16.2929 16.2929C16.1054 16.4804 16 16.7348 16 17C16 17.2652 16.1054 17.5196 16.2929 17.7071C16.4804 17.8946 16.7348 18 17 18H23C23.2652 18 23.5196 17.8946 23.7071 17.7071C23.8946 17.5196 24 17.2652 24 17C24 16.7348 23.8946 16.4804 23.7071 16.2929C23.5196 16.1054 23.2652 16 23 16ZM23 19H17C16.7348 19 16.4804 19.1054 16.2929 19.2929C16.1054 19.4804 16 19.7348 16 20C16 20.2652 16.1054 20.5196 16.2929 20.7071C16.4804 20.8946 16.7348 21 17 21H23C23.2652 21 23.5196 20.8946 23.7071 20.7071C23.8946 20.5196 24 20.2652 24 20C24 19.7348 23.8946 19.4804 23.7071 19.2929C23.5196 19.1054 23.2652 19 23 19Z" fill="#0089D9"/>
<path d="M46 15H52C52.2652 15 52.5196 14.8946 52.7071 14.7071C52.8946 14.5196 53 14.2652 53 14C53 13.7348 52.8946 13.4804 52.7071 13.2929C52.5196 13.1054 52.2652 13 52 13H46C45.7348 13 45.4804 13.1054 45.2929 13.2929C45.1054 13.4804 45 13.7348 45 14C45 14.2652 45.1054 14.5196 45.2929 14.7071C45.4804 14.8946 45.7348 15 46 15ZM42 21H44V19H42V21ZM42 18H44V16H42V18ZM42 24H44V22H42V24ZM52 19H46C45.7348 19 45.4804 19.1054 45.2929 19.2929C45.1054 19.4804 45 19.7348 45 20C45 20.2652 45.1054 20.5196 45.2929 20.7071C45.4804 20.8946 45.7348 21 46 21H52C52.2652 21 52.5196 20.8946 52.7071 20.7071C52.8946 20.5196 53 20.2652 53 20C53 19.7348 52.8946 19.4804 52.7071 19.2929C52.5196 19.1054 52.2652 19 52 19ZM42 15H44V13H42V15ZM52 16H46C45.7348 16 45.4804 16.1054 45.2929 16.2929C45.1054 16.4804 45 16.7348 45 17C45 17.2652 45.1054 17.5196 45.2929 17.7071C45.4804 17.8946 45.7348 18 46 18H52C52.2652 18 52.5196 17.8946 52.7071 17.7071C52.8946 17.5196 53 17.2652 53 17C53 16.7348 52.8946 16.4804 52.7071 16.2929C52.5196 16.1054 52.2652 16 52 16ZM52 22H46C45.7348 22 45.4804 22.1054 45.2929 22.2929C45.1054 22.4804 45 22.7348 45 23C45 23.2652 45.1054 23.5196 45.2929 23.7071C45.4804 23.8946 45.7348 24 46 24H52C52.2652 24 52.5196 23.8946 52.7071 23.7071C52.8946 23.5196 53 23.2652 53 23C53 22.7348 52.8946 22.4804 52.7071 22.2929C52.5196 22.1054 52.2652 22 52 22Z" fill="#0089D9"/>
<path fill-rule="evenodd" clip-rule="evenodd" d="M41 13C40.7997 12.5516 40.665 12.0768 40.6 11.59C41.4405 10.7171 42.096 9.68346 42.5273 8.55107C42.9586 7.41868 43.1568 6.21085 43.11 5C43.11 1.63 41.23 0 38.19 0C35.15 0 33.27 1.62 33.27 5C33.2273 6.20351 33.4266 7.40334 33.856 8.52844C34.2854 9.65354 34.9363 10.681 35.77 11.55C35.09 16.85 29 13.82 29 19.1C29 20.64 35.69 21.24 41 20.93V13Z" fill="#0089D9"/>
</svg>
