<svg width="24" height="24" viewBox="0 0 24 24" fill="none" xmlns="http://www.w3.org/2000/svg">
<g clip-path="url(#clip0_7_25396)">
<path fill-rule="evenodd" clip-rule="evenodd" d="M10 16L9.80001 16.2C9.86063 16.5959 9.829 17.0004 9.70758 17.382C9.58616 17.7636 9.37823 18.112 9.10001 18.4L6.30001 21.3C5.80499 21.7428 5.16415 21.9875 4.50001 21.9875C3.83587 21.9875 3.19503 21.7428 2.70001 21.3C2.25725 20.805 2.01247 20.1641 2.01247 19.5C2.01247 18.8359 2.25725 18.195 2.70001 17.7L5.60001 14.9C5.88804 14.6218 6.23644 14.4139 6.61805 14.2924C6.99966 14.171 7.40416 14.1394 7.80001 14.2L8.00001 14L9.30001 12.7C8.46274 12.2554 7.50425 12.093 6.56727 12.2372C5.63028 12.3813 4.76491 12.8243 4.10001 13.5L1.30001 16.3C0.491686 17.1696 0.0423889 18.3128 0.0423889 19.5C0.0423889 20.6872 0.491686 21.8305 1.30001 22.7C2.16955 23.5083 3.31279 23.9576 4.50001 23.9576C5.68723 23.9576 6.83046 23.5083 7.70001 22.7L10.5 19.9C11.1757 19.2351 11.6187 18.3697 11.7628 17.4327C11.907 16.4958 11.7446 15.5373 11.3 14.7L10 16ZM1.50001 9.00001H6.50001C6.63261 9.00001 6.75979 8.94733 6.85356 8.85356C6.94733 8.75979 7.00001 8.63261 7.00001 8.50001C7.00001 8.3674 6.94733 8.24022 6.85356 8.14645C6.75979 8.05268 6.63261 8.00001 6.50001 8.00001H1.50001C1.3674 8.00001 1.24022 8.05268 1.14645 8.14645C1.05268 8.24022 1.00001 8.3674 1.00001 8.50001C1.00001 8.63261 1.05268 8.75979 1.14645 8.85356C1.24022 8.94733 1.3674 9.00001 1.50001 9.00001V9.00001ZM8.50001 7.00001C8.63261 7.00001 8.75979 6.94733 8.85356 6.85356C8.94733 6.75979 9.00001 6.63261 9.00001 6.50001V1.50001C9.00001 1.3674 8.94733 1.24022 8.85356 1.14645C8.75979 1.05268 8.63261 1.00001 8.50001 1.00001C8.3674 1.00001 8.24022 1.05268 8.14645 1.14645C8.05268 1.24022 8.00001 1.3674 8.00001 1.50001V6.50001C8.00001 6.63261 8.05268 6.75979 8.14645 6.85356C8.24022 6.94733 8.3674 7.00001 8.50001 7.00001ZM6.70001 7.40001C6.74299 7.45732 6.79778 7.50472 6.86068 7.53901C6.92358 7.5733 6.99311 7.59367 7.06456 7.59875C7.13602 7.60383 7.20773 7.59349 7.27484 7.56844C7.34196 7.54339 7.40291 7.50421 7.45356 7.45356C7.50421 7.40291 7.54339 7.34196 7.56844 7.27484C7.59349 7.20773 7.60383 7.13602 7.59875 7.06456C7.59367 6.99311 7.5733 6.92358 7.53901 6.86068C7.50472 6.79778 7.45732 6.74299 7.40001 6.70001L3.90001 3.10001C3.64279 2.9996 3.35722 2.9996 3.10001 3.10001C2.9996 3.35722 2.9996 3.64279 3.10001 3.90001L6.70001 7.40001ZM18.4 9.10001C18.112 9.37823 17.7636 9.58616 17.382 9.70758C17.0004 9.829 16.5959 9.86063 16.2 9.80001L16 10L14.7 11.3C15.5373 11.7446 16.4958 11.907 17.4327 11.7628C18.3697 11.6187 19.2351 11.1757 19.9 10.5L22.7 7.70001C23.5083 6.83046 23.9576 5.68723 23.9576 4.50001C23.9576 3.31279 23.5083 2.16955 22.7 1.30001C21.8305 0.491686 20.6872 0.0423889 19.5 0.0423889C18.3128 0.0423889 17.1696 0.491686 16.3 1.30001L13.5 4.10001C12.8243 4.76491 12.3813 5.63028 12.2372 6.56727C12.093 7.50425 12.2554 8.46274 12.7 9.30001L14 8.00001L14.2 7.80001C14.1394 7.40416 14.171 6.99966 14.2924 6.61805C14.4139 6.23644 14.6218 5.88804 14.9 5.60001L17.7 2.70001C18.195 2.25725 18.8359 2.01247 19.5 2.01247C20.1641 2.01247 20.805 2.25725 21.3 2.70001C21.7428 3.19503 21.9875 3.83587 21.9875 4.50001C21.9875 5.16415 21.7428 5.80499 21.3 6.30001L18.4 9.10001ZM17.3 16.6C17.2037 16.5278 17.0846 16.4927 16.9646 16.5013C16.8445 16.5098 16.7316 16.5613 16.6465 16.6465C16.5613 16.7316 16.5098 16.8445 16.5013 16.9646C16.4927 17.0846 16.5278 17.2037 16.6 17.3L20.1 20.9C20.3572 21.0004 20.6428 21.0004 20.9 20.9C21.0004 20.6428 21.0004 20.3572 20.9 20.1L17.3 16.6ZM15.5 17C15.3674 17 15.2402 17.0527 15.1465 17.1465C15.0527 17.2402 15 17.3674 15 17.5V22.5C15 22.6326 15.0527 22.7598 15.1465 22.8536C15.2402 22.9473 15.3674 23 15.5 23C15.6326 23 15.7598 22.9473 15.8536 22.8536C15.9473 22.7598 16 22.6326 16 22.5V17.5C16 17.3674 15.9473 17.2402 15.8536 17.1465C15.7598 17.0527 15.6326 17 15.5 17V17ZM22.5 15H17.5C17.3674 15 17.2402 15.0527 17.1465 15.1465C17.0527 15.2402 17 15.3674 17 15.5C17 15.6326 17.0527 15.7598 17.1465 15.8536C17.2402 15.9473 17.3674 16 17.5 16H22.5C22.6326 16 22.7598 15.9473 22.8536 15.8536C22.9473 15.7598 23 15.6326 23 15.5C23 15.3674 22.9473 15.2402 22.8536 15.1465C22.7598 15.0527 22.6326 15 22.5 15Z" fill="#0089D9"/>
</g>
<defs>
<clipPath id="clip0_7_25396">
<rect width="140" height="24" fill="white"/>
</clipPath>
</defs>
</svg>
