<svg width="24" height="24" viewBox="0 0 24 24" fill="none" xmlns="http://www.w3.org/2000/svg">
<path d="M21 3H11.5C11.5 3 10 0 8 0H3C1.5 0 0 1.5 0 3V17C0 18.5 1.5 20 3 20H8.1C9.1 19.5 10.2 18.8 11 18H3C2.5 18 2 17.5 2 17V5C2 5 20.5 5 21 5C21.5 5 22 5.5 22 6V17C22 17.5 21.5 18 21 18H19.4C20 18.6 21 19.3 21.9 19.8C23 19.4 24 18.2 24 17V6C24 4.5 22.5 3 21 3ZM2 4C2 4 2 3.5 2 3C2 2.5 2.5 2 3 2H8C9 2 10 4 10 4H2ZM22.2 21.5C21.6 21.1 17.6 19.4 17.3 18.3C17.3 17.9 17.4 17.4 17.5 17.2C17.9 17.1 18 16.1 18 15.6C18.7 15.5 19 14.3 19 13.6C19 13.2 18.9 12.9 18.5 12.9C19.1 11.9 19.6 9.5 17.3 9.3C16.8 8.5 15.9 8 15 8C12.9 8 10.5 9.8 11.5 12.4C11.6 12.6 11.7 12.7 11.8 13C11.5 13 11.2 13.4 11.2 13.7C11.2 14.4 11.6 15.5 12.2 15.7C12.3 16.3 12.3 17.1 12.7 17.2C12.8 17.4 12.9 18.1 12.9 18.3C12.5 19.4 8.4 21.1 7.9 21.5C7.3 21.9 6.9 22.2 6.9 23.3C8.7 24.2 21.8 24.2 23.2 23.3C23.3 22.2 22.8 21.8 22.2 21.5Z" fill="#0089D9"/>
</svg>
