<svg width="24" height="24" viewBox="0 0 24 24" fill="none" xmlns="http://www.w3.org/2000/svg">
<path fill-rule="evenodd" clip-rule="evenodd" d="M12 0C5.4 0 0 5.4 0 12C0 18.6 5.4 24 12 24C18.6 24 24 18.6 24 12C24 5.4 18.6 0 12 0ZM9 9C9 6.8 12.6 9 13.9 7C13.9 7 13.9 7 13.9 7.1C14.1 8 15 7.4 15 9C14.8 7.9 13.9 8.6 13.7 7.7C13.7 7.7 13.7 7.6 13.7 7.5C12.7 10 9.5 7.3 9 9ZM18.7 19.4C15.5 18.9 14.2 17.1 14 17C14 16.7 14 16.5 14 16C14.5 15.5 15.5 14.7 15.5 13.7C16.4 13.7 16.9 12 16.9 11.2C16.9 10.9 16.8 10.6 16.6 10.4C16.4 10.4 16.3 11 16.2 11.6C16.2 11.7 16.1 11.8 16.1 11.9C16.1 11.8 16 11.7 16 11.6V11.5C16 11.4 16 11.4 16 11.3V11.2C16 11.1 16 11.1 16 11C16 10.9 16 10.9 16 10.8V10.7C16 10.6 16 10.6 16 10.5V10.4C16 10.3 16 10.3 16 10.2C16 10.2 16 10.2 16 10.1C16 10 16 10 16.1 9.9C16.1 9.8 16.2 9.8 16.2 9.8C16.4 9.4 16.7 9 16.7 7.9C16.7 6.9 16.1 5.8 14.6 5.8C13.1 2.9 7.3 4 7.3 8C7.3 9 7.6 9.4 7.8 9.7C8.2 10 8.3 11.2 8 11.9C7.8 11.2 7.7 10.4 7.5 10.4C7.3 10.6 7.2 10.9 7.2 11.2C7.2 12.1 7.6 13.7 8.6 13.7C8.6 14.7 9.5 15.5 10.1 16.1C10.1 16.5 10.1 16.8 10.1 17.1C10.1 17.1 8.5 18.9 5.3 19.4C3.2 17.5 2 14.9 2 12C2 6.5 6.5 2 12 2C17.5 2 22 6.5 22 12C22 14.9 20.7 17.6 18.7 19.4Z" fill="#0089D9"/>
</svg>
