<svg width="53" height="24" viewBox="0 0 53 24" fill="none" xmlns="http://www.w3.org/2000/svg">
<path fill-rule="evenodd" clip-rule="evenodd" d="M50 7C47.8 7 46 5.2 46 3C46 2.3 46.2 1.6 46.6 1H35C31.7 1 29 3.7 29 7V13C29 16.3 31.7 19 35 19C36 19 37 22 37 24C38 24 37 24 38 24C38 21 41.6 19 42.9 19C46.5 19 47 19 47 19C50.3 19 53 16.3 53 13V7C53 6.6 53 6.2 52.9 5.8C52.1 6.5 51.1 7 50 7ZM36 12C34.9 12 34 11.1 34 10C34 8.9 34.9 8 36 8C37.1 8 38 8.9 38 10C38 11.1 37.1 12 36 12ZM41 12C39.9 12 39 11.1 39 10C39 8.9 39.9 8 41 8C42.1 8 43 8.9 43 10C43 11.1 42.1 12 41 12ZM46 12C44.9 12 44 11.1 44 10C44 8.9 44.9 8 46 8C47.1 8 48 8.9 48 10C48 11.1 47.1 12 46 12Z" fill="#0089D9"/>
<path fill-rule="evenodd" clip-rule="evenodd" d="M50 0C51.7 0 53 1.3 53 3C53 4.7 51.7 6 50 6C48.3 6 47 4.7 47 3C47 1.3 48.3 0 50 0Z" fill="#D6565A"/>
<path fill-rule="evenodd" clip-rule="evenodd" d="M15 10C15 11.1 15.9 12 17 12C18.1 12 19 11.1 19 10C19 8.9 18.1 8 17 8C15.9 8 15 8.9 15 10ZM18 10C18 10.6 17.6 11 17 11C16.4 11 16 10.6 16 10C16 9.4 16.4 9 17 9C17.6 9 18 9.4 18 10ZM10 10C10 11.1 10.9 12 12 12C13.1 12 14 11.1 14 10C14 8.9 13.1 8 12 8C10.9 8 10 8.9 10 10ZM13 10C13 10.6 12.6 11 12 11C11.4 11 11 10.6 11 10C11 9.4 11.4 9 12 9C12.6 9 13 9.4 13 10ZM23.9 5.8C23.4 6.3 22.7 6.7 22 6.9V7V13C22 15.5 20.5 17 18 17H14C12 17 9.6 18.2 8.8 20.2C8.7 18.2 7.8 17 6 17C3.5 17 2 15.5 2 13V7C2 4.5 3.5 3 6 3H17C17 2.3 17.2 1.6 17.6 1H6C2.7 1 0 3.7 0 7V13C0 16.3 2.7 19 6 19C7 19 8 22 8 24C9 24 8 24 9 24C9 21 12.6 19 13.9 19C17.5 19 18 19 18 19C21.3 19 24 16.3 24 13V7C24 6.6 24 6.2 23.9 5.8ZM5 10C5 11.1 5.9 12 7 12C8.1 12 9 11.1 9 10C9 8.9 8.1 8 7 8C5.9 8 5 8.9 5 10ZM8 10C8 10.6 7.6 11 7 11C6.4 11 6 10.6 6 10C6 9.4 6.4 9 7 9C7.6 9 8 9.4 8 10Z" fill="#0089D9"/>
<path fill-rule="evenodd" clip-rule="evenodd" d="M21 0C22.7 0 24 1.3 24 3C24 4.7 22.7 6 21 6C19.3 6 18 4.7 18 3C18 1.3 19.3 0 21 0Z" fill="#D6565A"/>
</svg>
