<svg width="24" height="24" viewBox="0 0 24 24" fill="none" xmlns="http://www.w3.org/2000/svg">
<path fill-rule="evenodd" clip-rule="evenodd" d="M23 1H1C0.4 1 0 1.4 0 2V16C0 16.6 0.4 17 1 17H7C7.6 17 8 16.6 8 16C8 15.4 7.6 15 7 15H2V3H22V15H17C16.4 15 16 15.4 16 16C16 16.6 16.4 17 17 17H23C23.6 17 24 16.6 24 16V2C24 1.4 23.6 1 23 1ZM17.4 11.9C17.8 11.5 17.7 11 17.3 10.6L13.4 6.6C13.2 6.4 13 6.3 12.7 6.3C12.5 6.1 12.3 6 12 6C11.7 6 11.5 6.1 11.3 6.3C11.1 6.3 10.9 6.4 10.7 6.6L6.8 10.6C6.4 11 6.3 11.5 6.7 11.9C7 12.3 7.6 12.2 8 11.8L11 8.8V22C11 22.6 11.4 23 12 23C12.6 23 13 22.6 13 22V8.7L16.1 11.8C16.4 12.2 17 12.3 17.4 11.9Z" fill="#0089D9"/>
</svg>
