<svg width="24" height="24" viewBox="0 0 24 24" fill="none" xmlns="http://www.w3.org/2000/svg">
<path fill-rule="evenodd" clip-rule="evenodd" d="M13.6 8.6C14.5 7.6 15 6.3 15.1 4.9L19.1 8.9C17.7 9 16.4 9.5 15.4 10.4L16.9 11.9C18 11 19.5 10.7 21.7 11.5C22.5 10.7 22.5 9.2 21.7 8.5C20.9 7.7 16.4 3.2 15.6 2.4C14.8 1.6 13.3 1.6 12.6 2.4C13.3 4.5 12.9 6 12 7L13.6 8.6ZM13 14C12.7 14.8 12.5 15.8 12.4 16.8C12.4 17 12.4 17.2 12.3 17.3L6.5 11.5C6.7 11.5 6.8 11.5 7 11.4C8 11.3 9 11.1 9.8 10.8L8.1 9.1C6.2 9.6 4.5 9.5 4.5 9.5C3.7 10.3 3.7 11.8 4.5 12.5C4.8 12.8 5.8 13.8 6.9 14.9L0 24L9 17C10.1 18.1 11.1 19.1 11.4 19.4C12.1 20.1 13.7 20.1 14.4 19.4C14.4 19.4 14.3 17.7 14.8 15.8L13 14ZM23.2 19.8L4.2 0.8C3.8 0.4 3.2 0.4 2.8 0.8C2.4 1.2 2.4 1.8 2.8 2.2L21.8 21.2C22.2 21.6 22.8 21.6 23.2 21.2C23.6 20.8 23.6 20.2 23.2 19.8Z" fill="#0089D9"/>
</svg>
