<?xml version="1.0" encoding="UTF-8"?><svg id="f" xmlns="http://www.w3.org/2000/svg" width="24" height="24" viewBox="0 0 24 24"><path d="M12.5,19.41c-1.01,.12-2.04,.16-3.07,.17-1.54-.02-3.1-.12-4.59-.45-.73-.16-1.49-.35-2.08-.65-.29-.13-.46-.54-.3-.39,.02,.03,.03,.06,.03,.1,.01,.04,0,.1,0,.02v-.25c0-.16,.01-.33,.03-.48,.08-.63,.27-1.06,.72-1.4,.45-.36,1.17-.6,1.94-1,.77-.37,1.6-1.03,2.02-1.9,.21-.42,.34-.86,.4-1.28,.54,.39,1.21,.7,1.95,.7,.73-.02,1.37-.33,1.89-.72,.08,.5,.24,1.01,.5,1.5,.15,.26,.34,.49,.55,.71v-2.57h.11c-.06-.2-.12-.4-.17-.61,.19-.24,.37-.48,.53-.74,.74-1.17,1.11-2.51,1.3-3.86,.18-1.32,.21-2.84-.62-4.26-.41-.7-1.1-1.26-1.83-1.59-.75-.32-1.52-.43-2.26-.43-.73,.01-1.51,.13-2.25,.45-.74,.31-1.43,.86-1.87,1.55-.89,1.41-.86,2.96-.71,4.29,.17,1.37,.6,2.71,1.35,3.9,.15,.24,.32,.47,.5,.69-.14,.57-.29,1.18-.6,1.6-.34,.53-.83,.85-1.48,1.11-.65,.26-1.46,.45-2.3,1.01-.88,.55-1.45,1.64-1.58,2.55-.04,.23-.07,.46-.09,.69l-.02,.34s0,.17,.02,.32c.02,.13,.07,.26,.12,.38,.23,.45,.55,.63,.81,.76,.26,.12,.5,.18,.72,.25,.86,.29,1.66,.4,2.48,.49,1.61,.14,3.2,.2,4.78,.2,1.02,0,2.05-.03,3.07-.09v-1.08ZM6.26,6.17c-.06-1.19,.12-2.38,.7-3.12,.53-.77,1.5-1.07,2.6-1.04,.55,0,1.07,.07,1.51,.24,.46,.15,.83,.41,1.13,.78,.63,.74,.81,1.95,.79,3.16-.03,1.2-.35,2.4-.91,3.45-.28,.52-.65,1-1.08,1.37-.44,.36-.95,.59-1.43,.6-.99-.06-1.9-.99-2.44-2.01-.55-1.04-.82-2.23-.86-3.41Z" style="fill:#0087e0;"/><polygon points="21 22 21 23 14 23 14 13 15 13 15 12 13 12 13 24 22 24 22 22 21 22" style="fill:#0089d9; fill-rule:evenodd;"/><path d="M17,19h5v-1h-5v1Zm7-6l-3-3h-6v12h9V13Zm-1,8h-7V11h4v3h3v7Zm-2-8v-2l2,2h-2Zm-4,4h5v-1h-5v1Z" style="fill:#0089d9; fill-rule:evenodd;"/></svg>