<svg data-name="Layer 1" xmlns="http://www.w3.org/2000/svg" width="24" height="24"><path fill-rule="evenodd" clip-rule="evenodd" fill="#0089D9"  d="M21,4L21,4c0-0.6-0.3-1-1-1h-1c-0.7,0-1,0.4-1,1h-2c0-1.6-1.3-3-3-3h-2C9.3,1,8,2.4,8,4H6c0-0.6-0.3-1-1-1H4
				C3.3,3,3,3.4,3,4h0C1.3,4,0,5.4,0,7v12c0,1.6,1.3,3,3,3h2v0c0,0.6,0.4,1,1,1s1-0.4,1-1v0h10v0.4c0,0.6,0.4,0.6,1,0.6
				c0.6,0,1,0,1-0.6V22h2c1.7,0,3-1.4,3-3V7C24,5.3,22.7,4,21,4z M11,3h2c0.6,0,1,0.5,1,1h-4C10,3.5,10.4,3,11,3z M22,19
				c0,0.5-0.4,1-1,1H3c-0.6,0-1-0.5-1-1V7c0-0.5,0.4-1,1-1h18c0.6,0,1,0.4,1,1V19z M6.5,7C6.2,7,6,7.1,6,7.4v11.2
				C6,18.9,6.2,19,6.5,19C6.8,19,7,18.9,7,18.6V7.4C7,7.1,6.8,7,6.5,7z M17.5,7C17.2,7,17,7.1,17,7.4v11.2c0,0.3,0.2,0.4,0.5,0.4
				c0.3,0,0.5-0.1,0.5-0.4V7.4C18,7.1,17.8,7,17.5,7z"/></svg>