<?xml version="1.0" encoding="UTF-8"?><svg id="d" xmlns="http://www.w3.org/2000/svg" width="24" height="24" viewBox="0 0 24 24"><path d="M21.48,15.83l-2.65,1.34c-1.07,.64-2.4,.56-3.38-.2l-4.46-3.47s.01-.04,.01-.05v-3.49c1.05-.09,2.14-.45,3.52-1.12,2.74,2.41,5.49-.13,5.49-1.11,0-3.98-3.92-6.64-9-6.84v-.11c0-.28-.22-.78-.5-.78s-.5,.5-.5,.78v.11C4.91,1.08,1,3.75,1,7.72c0,1.11,2.98,3.39,5.53,1.13,1.35,.65,2.42,1.01,3.47,1.1v2.77c-.25-.2-3.43-2.73-3.74-2.81-.94-.25-1.57,.66-.98,1.63,0,.01,2.31,3.91,4.52,6.26h0l-4.87,4.44c-.35,.31,.07,.86,.46,.62l4.62-2.84v2.48c0,.66,1,.66,1,0v-3.1c.18-.12,.17-.14,.27-.28,.75,.52,1.64,.82,2.56,.82h2.35c.64,.47,1.25,.92,1.79,1.3,1.44,1.01,2.46,1.6,2.46,1.6,.47,.28,.97-.35,.58-.74-.52-.54-1.44-1.41-2.56-2.38,.27-.21,3.72-2.22,4.06-2.43,1.13-.68,.11-2.15-1.03-1.47ZM9.33,2.94c.83-.09,1.5-.09,2.34,0,1.25,.65,2.15,1.85,2.29,3.93-.31,1.39-6.56,1.51-6.92,0,.15-2.07,1.04-3.27,2.29-3.93Zm8.63,4.21c.13,1.11-3,1.41-2.98-.32-.1-1.57-.58-2.93-1.31-3.93,2.32,.77,4,2.36,4.29,4.25Zm-14.92,.01c.28-1.89,1.96-3.49,4.29-4.26-.73,1-1.21,2.37-1.31,3.94-.01,0-.04,0-.04,.02-.12,1.24-3.12,1.65-2.94,.3Zm8.61,11.01c-1.35-1.08-2.81-3.01-3.91-4.64,.99,.77,2.2,1.71,3.49,2.69l3,2.33c.19,.15,.39,.27,.6,.39h-.99c-.79,0-1.56-.27-2.18-.76Z" style="fill:#ff8b00;"/></svg>