<svg width="24" height="24" viewBox="0 0 24 24" fill="none" xmlns="http://www.w3.org/2000/svg">
<g clip-path="url(#clip0_7_26533)">
<path d="M12 4C7.60001 4 4.00001 7.6 4.00001 12C4.00001 16.4 7.60001 20 12 20C16.4 20 20 16.4 20 12C20 7.6 16.4 4 12 4ZM12 18C8.70001 18 6.00001 15.3 6.00001 12C6.00001 8.7 8.70001 6 12 6C15.3 6 18 8.7 18 12C18 15.3 15.3 18 12 18ZM11.5 7.8C10 8.1 8.70001 9.09999 8.00001 10.4C7.70001 11 8.60001 11.5 8.90001 10.9C9.50001 9.79999 10.5 9.1 11.7 8.8C12.3 8.7 12.1 7.7 11.5 7.8ZM4.20001 5.6C4.60001 6 5.20001 6 5.60001 5.6C6.00001 5.2 6.00001 4.6 5.60001 4.2L4.60001 3.2C4.20001 2.8 3.60001 2.8 3.20001 3.2C2.80001 3.6 2.80001 4.2 3.20001 4.6L4.20001 5.6ZM8.40001 2.6C8.50001 3.1 9.10001 3.4 9.60001 3.3C10.1 3.2 10.5 2.6 10.3 2.1L10 0.699995C9.90001 0.199995 9.30001 -0.100005 8.80001 -4.86709e-06C8.30001 0.199995 7.90001 0.699995 8.10001 1.3L8.40001 2.6ZM20.7 9.7C20.8 10.2 21.4 10.6 21.9 10.4L23.2 10C23.7 9.9 24 9.3 23.9 8.8C23.8 8.3 23.2 7.9 22.7 8.1L21.4 8.5C20.9 8.6 20.6 9.1 20.7 9.7ZM14.3 3.3C14.8 3.4 15.4 3.1 15.5 2.6L15.9 1.3C16 0.799995 15.7 0.199995 15.2 0.0999951C14.7 -4.86523e-06 14.1 0.299995 14 0.799995L13.6 2.1C13.5 2.6 13.8 3.2 14.3 3.3ZM0.700014 10L2.00001 10.4C2.50001 10.5 3.10001 10.2 3.20001 9.7C3.30001 9.2 3.00001 8.6 2.50001 8.5L1.30001 8.1C0.700014 7.9 0.200014 8.3 1.42753e-05 8.8C-0.0999857 9.3 0.200014 9.9 0.700014 10ZM19.8 5.6L20.8 4.6C21.2 4.2 21.2 3.6 20.8 3.2C20.4 2.8 19.8 2.8 19.4 3.2L18.4 4.2C18 4.6 18 5.2 18.4 5.6C18.8 6 19.4 6 19.8 5.6ZM3.30001 14.3C3.20001 13.8 2.60001 13.4 2.10001 13.6L0.700014 14C0.200014 14.1 -0.199986 14.7 1.42753e-05 15.2C0.100014 15.7 0.700014 16.1 1.20001 15.9L2.50001 15.5C3.10001 15.4 3.40001 14.9 3.30001 14.3ZM23.3 14L22 13.6C21.5 13.5 20.9 13.8 20.8 14.3C20.7 14.8 21 15.4 21.5 15.5L22.8 15.9C23.3 16 23.9 15.7 24 15.2C24.1 14.7 23.8 14.1 23.3 14ZM4.20001 18.4L3.20001 19.4C2.80001 19.8 2.80001 20.4 3.20001 20.8C3.60001 21.2 4.20001 21.2 4.60001 20.8L5.60001 19.8C6.00001 19.4 6.00001 18.8 5.60001 18.4C5.20001 18 4.60001 18 4.20001 18.4ZM19.8 18.4C19.4 18 18.8 18 18.4 18.4C18 18.8 18 19.4 18.4 19.8L19.4 20.8C19.8 21.2 20.4 21.2 20.8 20.8C21.2 20.4 21.2 19.8 20.8 19.4L19.8 18.4ZM9.70001 20.7C9.20001 20.6 8.60001 20.9 8.50001 21.4L8.10001 22.7C8.00001 23.2 8.30001 23.8 8.80001 23.9C9.30001 24 9.90001 23.7 10 23.2L10.4 21.9C10.5 21.4 10.2 20.8 9.70001 20.7ZM15.6 21.4C15.5 20.9 14.9 20.5 14.4 20.7C13.9 20.8 13.5 21.4 13.7 21.9L14.1 23.2C14.2 23.7 14.8 24.1 15.3 23.9C15.8 23.8 16.2 23.2 16 22.7L15.6 21.4Z" fill="#FF8B00"/>
</g>
<defs>
<clipPath id="clip0_7_26533">
<rect width="140" height="24" fill="white"/>
</clipPath>
</defs>
</svg>
