<svg width="24" height="24" viewBox="0 0 24 24" fill="none" xmlns="http://www.w3.org/2000/svg">
<path fill-rule="evenodd" clip-rule="evenodd" d="M2.46999 2H21.53C21.9261 2.00789 22.303 2.17215 22.5784 2.45693C22.8538 2.7417 23.0053 3.12387 23 3.52V16.52C22.9949 16.9092 22.8387 17.2812 22.5644 17.5574C22.2901 17.8335 21.9192 17.9922 21.53 18H2.46999C2.0739 17.9921 1.69701 17.8279 1.4216 17.5431C1.14619 17.2583 0.994624 16.8761 0.999985 16.48V3.48C1.0051 3.09079 1.1613 2.71881 1.43561 2.44264C1.70991 2.16648 2.08082 2.00775 2.46999 2V2Z" stroke="#0089D9" stroke-width="2" stroke-miterlimit="10"/>
<path fill-rule="evenodd" clip-rule="evenodd" d="M6 22H18V23H6V22Z" fill="#0089D9"/>
<path fill-rule="evenodd" clip-rule="evenodd" d="M12 19H10C9.57076 19.6142 9.23384 20.2881 9 21C8.68 22.14 6 22 6 22H12V19Z" fill="#0089D9"/>
<path fill-rule="evenodd" clip-rule="evenodd" d="M12 19H14C14.4417 19.6067 14.7797 20.2826 15 21C15.29 22.15 18 22 18 22H12V19Z" fill="#0089D9"/>
<path fill-rule="evenodd" clip-rule="evenodd" d="M13.88 4.88999C14.1776 4.91943 14.4621 5.02733 14.7045 5.20268C14.9468 5.37804 15.1382 5.61455 15.2592 5.88808C15.3802 6.16161 15.4264 6.46235 15.3932 6.7596C15.36 7.05685 15.2484 7.33995 15.07 7.57999C15.07 7.74999 14.94 7.85999 14.97 8.21999C15.33 8.21999 15.36 8.44999 15.35 8.78999C15.35 9.36999 15.08 10.35 14.44 10.43C14.44 10.84 14.44 11.7 14.03 11.77C13.9261 11.9884 13.8747 12.2282 13.88 12.47C14.19 13.25 18 14.81 19 15C20 15.54 21 18 20 18H4C3 18 4 15.54 5 15C5.58 14.75 8.64 14.28 10.08 12.51C10.11 12.2956 10.093 12.0772 10.03 11.87C9.51 11.71 9.58 10.95 9.51 10.48C9.23252 10.337 8.99548 10.1265 8.82072 9.86788C8.64596 9.60924 8.53911 9.31078 8.51 8.99999C8.51 8.58999 8.51 8.27999 8.87 8.29999C8.87 7.96999 8.95 8.00999 8.94 7.66999C7.52 4.33999 12.52 2.99999 13.88 4.88999Z" fill="#0089D9"/>
</svg>
