<svg width="24" height="24" viewBox="0 0 24 24" fill="none" xmlns="http://www.w3.org/2000/svg">
<g clip-path="url(#clip0_7_27043)">
<path fill-rule="evenodd" clip-rule="evenodd" d="M14 8H12V10H14V8ZM12 12.1C12.1 12.1 12.1 12 12.2 12H12V12.1ZM10 8H8V10H10V8ZM3 20C2.4 20 2 19.6 2 19V5C2 4.4 2.4 4 3 4H4V5C4 5.6 4.4 6 5 6C5.6 6 6 5.6 6 5V4H16V5C16 5.6 16.4 6 17 6C17.6 6 18 5.6 18 5V4H19C19.6 4 20 4.4 20 5V12C20.7 12.4 21.4 12.8 22 13.2V4C22 2.9 21.1 2 20 2H18V1C18 0.4 17.6 0 17 0C16.4 0 16 0.4 16 1V2H6V1C6 0.4 5.6 0 5 0C4.4 0 4 0.4 4 1V2H2C0.9 2 0 3.3 0 4C0 8 0 20 0 20C0 21.1 0.9 22 2 22H8.2C7.6 21.2 7.1 20.5 6.7 20H3ZM16 10H18V8H16V10ZM16.6 13C16.4 13 16.2 13 16 13C15.8 13 15.6 13 15.5 13C11.1 13.5 8 18.5 8 18.5C8.1 18.7 11.3 23.5 15.4 24C15.6 24 15.8 24 16 24C16.2 24 16.4 24 16.6 24C20.7 23.5 23.8 18.7 24 18.5C24 18.5 20.8 13.5 16.6 13ZM11.5 20.8C10.5 19.8 9.7 18.8 9.5 18.5C9.8 18.2 10.5 17.2 11.6 16.2C11.3 16.9 11.1 17.7 11.1 18.5C11 19.3 11.2 20.1 11.5 20.8ZM16 23C13.8 23 12 21 12 18.5C12 16 13.8 14 16 14C18.2 14 20 16 20 18.5C20 21 18.2 23 16 23ZM20.5 20.8C20.8 20.1 21 19.3 21 18.5C21 17.7 20.8 16.9 20.5 16.2C21.5 17.2 22.2 18.2 22.5 18.5C22.3 18.8 21.6 19.8 20.5 20.8ZM8 14H9.5C9.7 13.8 9.8 13.7 10 13.6V12H8V14ZM16 16C15.6 16 15.3 16.1 14.9 16.2C15.1 16.4 15.3 16.7 15.3 17C15.3 17.6 14.8 18 14.3 18C14 18 13.8 17.9 13.6 17.7C13.5 17.9 13.5 18.2 13.5 18.5C13.5 19.9 14.6 21 16 21C17.4 21 18.5 19.9 18.5 18.5C18.6 17.1 17.4 16 16 16ZM4 18H6V16H4V18ZM4 12V14H6V12H4Z" fill="#0089D9"/>
</g>
<defs>
<clipPath id="clip0_7_27043">
<rect width="140" height="24" fill="white"/>
</clipPath>
</defs>
</svg>
