<?xml version="1.0" encoding="UTF-8"?><svg id="nx" xmlns="http://www.w3.org/2000/svg" width="24" height="24" viewBox="0 0 24 24"><path d="M14.5,5c1.39,0,2.51-1.11,2.5-2.5C16.99,1.11,15.89,0,14.5,0c-1.39,0-2.51,1.11-2.5,2.5,0,1.39,1.11,2.49,2.5,2.5Zm-7.5,15c-.39,.78-1.74,1.74-2,2-.35,.35-.73,1.27,0,2,.58,.58,1.44,.56,2,0l3-3c.43-.43,1-2.31,1-3l-2-2-2,4Zm11.52-8.33l-1.52-.67-1-2c-.63-1.26-.86-2.12-1.44-2.58-.29-.25-.76-.42-1.56-.42-.29,0-.5,.04-.68,.11-.71,.04-1.32,.2-1.32,.2-1.72,.44-2.97,.94-2.97,.94,0,0-.55,.15-1.62,1.02-.83,.67-.95,.96-1.6,1.73-.64,.77-.9,1.57-.17,2.18,.77,.64,1.64-.31,2.28-1.08l1.04-1.29,2.19-.45c.06-.01,.12-.02,.18-.03-.14,.28-.42,.85-1.34,2.68,0,2,1,3,2,4,1.41,1.41,2,1,3,2,1.12,1.12,2,2.68,2,4,0,1,0,2,2,2,1,0,1-1.45,1-2,0,0,0-2-1-4-.78-1.56-5-5-5-5,.34-.69,.68-1.37,.99-2.02v.02s.9,1.12,2.01,2c.38,.3,1.06,.73,2,1,.96,.27,1.78,.48,2.09-.36,.33-.88-.67-1.55-1.58-1.97Z" style="fill:#0089d9; fill-rule:evenodd;"/></svg>