<svg width="24" height="24" viewBox="0 0 24 24" fill="none" xmlns="http://www.w3.org/2000/svg">
<path d="M18 6C18.6 6 19 5.6 19 5C19 4.4 18.5 4 18 4C17.4 4 17 4.4 17 5C17 5.1 17 5.3 17.1 5.4C15.6 4.5 13.8 4 12 4C10.2 4 8.4 4.5 6.9 5.4C7 5.3 7 5.2 7 5C7 4.4 6.5 4 6 4C5.4 4 5 4.5 5 5C5 5.5 5.4 6 6 6C3.6 7.9 2 10.7 2 14C2 19.5 6.5 24 12 24C17.5 24 22 19.5 22 14C22 10.7 20.4 7.8 18 6ZM12 22.4C7.4 22.4 3.6 18.6 3.6 14C3.6 9.4 7.4 5.6 12 5.6C16.6 5.6 20.4 9.4 20.4 14C20.4 18.6 16.6 22.4 12 22.4ZM14 2C14 0.9 13.1 0 12 0C10.9 0 10 0.8 10 2C10 3.1 10.9 4 12 4C13.1 4 14 3.1 14 2ZM12 3.1C11.4 3.1 10.9 2.6 10.9 2C10.9 1.4 11.4 0.9 12 0.9C12.6 0.9 13.1 1.4 13.1 2C13.1 2.6 12.6 3.1 12 3.1ZM12 7.9C12.2 7.9 12.4 7.7 12.4 7.5C12.4 7.2 12.2 7 12 7C11.8 7 11.6 7.2 11.6 7.4C11.6 7.7 11.8 7.9 12 7.9ZM12 20.1C11.8 20.1 11.6 20.3 11.6 20.5C11.6 20.7 11.8 20.9 12 20.9C12.2 20.9 12.4 20.7 12.4 20.5C12.4 20.3 12.2 20.1 12 20.1ZM5.4 13.6C5.2 13.6 5 13.8 5 14C5 14.2 5.2 14.4 5.4 14.4C5.6 14.4 5.8 14.2 5.8 14C5.9 13.8 5.7 13.6 5.4 13.6ZM18.4 13.6C18.2 13.6 18 13.8 18 14C18 14.2 18.2 14.4 18.4 14.4C18.6 14.4 18.8 14.2 18.8 14C18.9 13.8 18.7 13.6 18.4 13.6ZM8.7 8.7C9 8.6 9 8.3 8.9 8.1C8.8 7.9 8.5 7.9 8.3 8C8.1 8.1 8 8.4 8.2 8.6C8.3 8.8 8.5 8.9 8.7 8.7ZM15.3 19.4C15.1 19.5 15 19.8 15.1 20C15.2 20.2 15.5 20.3 15.7 20.2C15.9 20.1 16 19.8 15.9 19.6C15.8 19.3 15.5 19.3 15.3 19.4ZM6.2 17C6 17.1 5.9 17.4 6 17.6C6.1 17.8 6.4 17.9 6.6 17.8C6.8 17.7 6.9 17.4 6.8 17.2C6.6 17 6.4 16.9 6.2 17ZM17.9 11.1C18.1 11 18.2 10.7 18.1 10.5C18 10.3 17.7 10.2 17.5 10.3C17.4 10.3 17.4 10.4 17.4 10.4L11.6 13.1C11.5 13.1 11.5 13.2 11.4 13.2C11 13.5 10.9 14.2 11.2 14.6C11.5 15.1 12.2 15.2 12.6 14.8L17.7 11.1C17.7 11.1 17.8 11.1 17.9 11.1ZM6.6 10.2C6.4 10.1 6.1 10.2 6 10.4C5.9 10.6 6 10.9 6.2 11C6.4 11.1 6.7 11 6.8 10.8C6.9 10.6 6.8 10.4 6.6 10.2ZM18 17.2C17.8 17.1 17.5 17.1 17.4 17.4C17.3 17.6 17.3 17.9 17.6 18C17.8 18.1 18.1 18.1 18.2 17.8C18.3 17.6 18.2 17.3 18 17.2ZM8.9 19.3C8.7 19.2 8.4 19.3 8.3 19.5C8.2 19.7 8.3 20 8.5 20.1C8.7 20.2 9 20.1 9.1 19.9C9.2 19.7 9.1 19.4 8.9 19.3ZM15.1 8.9C15.3 9 15.6 8.9 15.7 8.7C15.8 8.5 15.7 8.2 15.5 8.1C15.3 8 15 8.1 14.9 8.3C14.8 8.5 14.9 8.7 15.1 8.9Z" fill="#0089D9"/>
<g opacity="0.3">
<path fill-rule="evenodd" clip-rule="evenodd" d="M12 7V14L17.8 10.1C16.6 8.2 14.4 7 12 7Z" fill="#0089D9"/>
</g>
</svg>
