<svg width="24" height="24" viewBox="0 0 24 24" fill="none" xmlns="http://www.w3.org/2000/svg">
<path d="M12 0C5.4 0 0 5.4 0 12C0 18.6 5.4 24 12 24C18.6 24 24 18.6 24 12C24.1 5.4 18.7 0 12 0ZM12 22C7.7 22 4 19.3 2.6 15.5C3.6 16.5 5.7 18.3 5.9 17.6C6 17.2 5.1 14.9 4.9 14.5C4.5 13.6 5.5 13.6 5.5 12.4C5.5 12.2 4.6 11.6 4.6 11.5C4.2 11.3 3 11.2 3.3 11C3.5 10.9 4.7 10.7 4.9 10.5C5.4 10.2 5.3 9.5 5.7 9.4C6.3 9.2 6.8 8.1 6.8 7.5C6.8 6.7 7 6.5 7.4 5.9C7.6 5.6 6.3 4.6 5.5 4.5C6.9 3.3 8.6 2.4 10.5 2.1C10.4 2.5 10.4 3.1 10.6 3.2C11.2 3.3 10.7 3.7 11.1 3.9C11.3 4 11.3 3 11.7 3.5C11.8 3.6 12.2 2.9 12.3 3.6C12.3 3.6 12.3 3.6 12.3 3.7C12.3 4 11.1 4.6 11 5.2C10.8 5.9 10.9 5.5 10.4 5.8C10.2 5.9 10.1 6.6 10.1 6.8C10.1 6.8 9.7 7 9.8 7.3C9.9 7.9 10.3 8.5 10.6 8.4C11 8.3 10.9 7.4 11.4 7.4C11.5 7.4 12.2 8 12.2 8C12.4 7.9 12 7.3 12.2 7.2C12.5 7.1 13.3 7.5 13.5 7.6C13.8 7.8 13.8 8.4 12.6 8.7C12.2 8.5 11.3 8.6 10.9 8.9C10.3 9.4 10.4 10.5 10.5 11.2C10.6 11.8 11.2 12 11.8 12.2C12.1 12.3 12.4 12.2 12.7 12.3C13.1 12.6 13.8 12.4 13.8 14.4C13.7 15.2 14.6 15.4 14.6 16.2C14.6 17.1 16.1 16.5 16.4 16.1C17 15.3 16.6 14.3 16.7 13.4C16.8 12.9 17.1 13 17 12.2C16.9 11.3 16.9 10.7 17.1 9.9C17 9.3 16.3 9 16.1 9.2C15.2 9.8 15.6 9.6 14.6 9.1C14.4 9 14.2 8.9 14 8.8C14.4 8.9 15.2 9.1 15.2 9.1C15.5 9 16.2 8.9 16.4 8.7C14.6 7.5 15.2 7.3 15.2 7.3C15.4 7.3 15.3 8.1 16 7.7C17 7.1 17.2 7.2 17.5 8.3C17.7 8.8 18.5 8.7 18.8 9.1C19 9.3 19.7 9.9 19.8 9.8C20 9.8 19.6 8.7 19.8 8.4C20 8.2 20 7.6 20.1 7.2C20.2 6.9 20.3 6.7 20.4 6.5C21.4 8.1 22 10 22 12C22 17.5 17.5 22 12 22ZM17.3 18C16.8 17.4 15.6 18.1 15 18.5C14.6 18.7 13.4 18.8 13.4 19.2C13.4 20.3 12.2 19.8 12.7 20.8C12.7 21 12.7 21 12.7 21C13.2 21 13.5 21.2 14 21.1C14.7 21.1 15.7 20.6 16.3 20.1C16.8 19.7 18.6 18.8 18.6 18.1C18.7 17.3 17.7 18.4 17.3 18Z" fill="#0089D9"/>
</svg>
