<svg width="24" height="24" viewBox="0 0 24 24" fill="none" xmlns="http://www.w3.org/2000/svg">
<g clip-path="url(#clip0_7_28222)">
<path fill-rule="evenodd" clip-rule="evenodd" d="M23.7 22.2L20.6 19.1C20.3 18.8 19.9 18.8 19.6 18.9L19.1 18.4C20.9 16.4 22 13.9 22 11C22 4.9 17.1 0 11 0C4.9 0 0 4.9 0 11C0 17.1 4.9 22 11 22C13.8 22 16.4 20.9 18.4 19.1L19 19.7C18.9 20.1 19 20.4 19.2 20.7L22.3 23.8C22.7 24.2 23.4 24.1 23.7 23.7C24.1 23.3 24.1 22.6 23.7 22.2ZM11 20C6 20 2 16 2 11C2 6 6 2 11 2C16 2 20 6 20 11C20 16 16 20 11 20ZM14 10H12V8C12 7.4 11.6 7 11 7C10.4 7 10 7.4 10 8V10H8C7.4 10 7 10.4 7 11C7 11.6 7.4 12 8 12H10V14C10 14.6 10.4 15 11 15C11.6 15 12 14.6 12 14V12H14C14.6 12 15 11.6 15 11C15 10.4 14.6 10 14 10Z" fill="#0089D9"/>
</g>
<defs>
<clipPath id="clip0_7_28222">
<rect width="140" height="24" fill="white"/>
</clipPath>
</defs>
</svg>
