<svg width="48" height="48" viewBox="0 0 48 48" fill="none" xmlns="http://www.w3.org/2000/svg"><path d="M24 -0.00292969C10.7424 -0.00292969 0 10.7395 0 23.9971C0 35.5171 7.6512 47.9971 24 47.9971C37.44 47.9971 48 37.2547 48 23.9971C48 12.4771 40.32 -0.00292969 24 -0.00292969V-0.00292969ZM22.08 10.8355C22.08 10.7491 22.6368 10.3843 24.1824 10.3843C25.6032 10.3843 26.64 10.6723 26.8992 10.8547C26.544 15.0019 26.4384 18.8227 26.3616 21.8947C26.2848 24.6883 26.2176 27.3283 25.9584 27.7315C25.7856 27.8563 24.8832 28.0291 23.7408 28.0291C23.0304 28.0291 22.5888 27.9619 22.3872 27.9139C22.0032 26.6371 21.9072 17.7187 22.08 10.8259V10.8355ZM26.8896 35.1619C26.7552 36.3427 25.8816 37.6195 24.288 37.6195C22.2336 37.6195 21.1008 36.7651 21.1008 35.2099C21.1008 33.4915 22.4736 31.7443 23.8176 31.7443C23.9424 31.7443 24.0576 31.7539 24.1824 31.7827C26.4096 32.3011 27.0336 33.9235 26.8896 35.1619V35.1619Z" fill="var(--visma-informative-error-color, var(--icon-informative-error-bg, #D44F64))"/></svg>