<svg width="16" height="16" viewBox="0 0 16 16" fill="none" xmlns="http://www.w3.org/2000/svg"><path d="M7.95883 0C3.59595 0 0.239888 3.54513 0.0622145 7.9C-0.12533 12.5906 3.59595 15.8 7.95883 15.8C12.3217 15.8 15.8554 12.2648 15.8554 7.9C15.8554 3.002 12.3217 0 7.95883 0ZM11.2853 5.83612C9.43945 8.14687 8.46224 10.5268 8.23521 10.7144C8.02792 10.8823 6.96188 10.8526 6.78421 10.7539C6.59667 10.6551 6.23145 9.96387 4.66199 8.34437C4.46458 8.137 5.88597 7.27788 6.0439 7.3865C6.85331 7.96913 7.12968 8.83812 7.36658 8.83812C7.62322 8.83812 8.34378 6.54713 9.83427 5.00663C10.1501 4.68075 11.4827 5.59912 11.2951 5.83612H11.2853Z" fill="var(--visma-informative-success-color, var(--icon-informative-success-bg, #4E9C54))"/></svg>