<svg width="48" height="48" viewBox="0 0 48 48" fill="none" xmlns="http://www.w3.org/2000/svg"><path d="M24.0012 0.00585938C10.7429 0.00585938 0 10.7392 0 23.9782C0 37.2173 10.5605 48.9107 24.0012 47.9506C37.221 47.0098 48.0023 37.2173 48.0023 23.9782C48.0023 10.7392 39.3619 0.00585938 24.0012 0.00585938V0.00585938ZM23.7036 38.2157H23.6652C22.5611 38.2157 21.7835 37.3613 21.7835 36.1516C21.7835 35.0284 22.6283 34.1451 23.7036 34.1451C24.7788 34.1451 25.6237 35.0284 25.6237 36.1516C25.6237 37.3709 24.8364 38.2157 23.7036 38.2157ZM29.5982 23.8822C29.243 24.2662 28.859 24.6215 28.4462 25.0055C26.9677 26.3688 25.4316 27.7704 25.5853 30.7274C25.5853 30.833 25.5564 30.9386 25.47 31.025C25.23 31.2746 24.6636 31.4378 24.0108 31.4378C23.2043 31.4378 22.3307 31.1786 22.3019 30.7082C22.0619 26.868 23.8092 25.1111 25.3548 23.5654C25.7773 23.1334 26.1805 22.7302 26.5357 22.2982C28.187 20.2821 28.6478 18.1219 27.8222 16.3651C27.1597 14.973 25.7965 14.109 24.2604 14.109C22.3691 14.109 20.641 15.3954 19.5178 17.6515C19.2585 18.17 19.1433 18.554 19.0665 18.8132C18.9513 19.1876 18.9417 19.1876 18.8073 19.1876C18.6537 19.1876 18.4041 19.1396 18.0873 19.0724C17.3961 18.9284 16.4456 18.6788 16.1192 18.1028C15.9656 17.8339 15.9656 17.5267 16.1 17.1427C17.7609 12.4961 20.833 9.83675 24.5388 9.83675C27.6398 9.83675 30.5679 11.7376 31.816 14.5698C33.1216 17.5267 32.3152 20.9253 29.6078 23.8822H29.5982Z" fill="var(--visma-informative-help-color, var(--icon-informative-help-bg, #1482CC))"/></svg>