<svg width="24" height="24" viewBox="0 0 24 24" fill="none" xmlns="http://www.w3.org/2000/svg"><path d="M12 -0.00146484C5.37 -0.00146484 0 5.36682 0 11.9847C0 18.6026 5.28 24.4508 12 23.9709C18.61 23.5011 24 18.6026 24 11.9847C24 5.36682 19.68 -0.00146484 12 -0.00146484ZM12.34 19.1925H12.32C11.74 19.1925 11.29 18.7626 11.29 18.0628C11.29 17.453 11.74 16.9632 12.35 16.9632C12.96 16.9632 13.41 17.453 13.41 18.0628C13.41 18.7626 12.95 19.1925 12.35 19.1925H12.34ZM14.93 11.9947C14.1 12.9044 12.86 13.5143 12.95 15.3437C12.98 15.9535 11.58 15.9435 11.55 15.3437C11.4 12.8645 12.9 12.1247 13.69 11.075C16.09 7.88602 11.42 5.35683 10.34 8.85572C10.07 9.72545 10.26 9.76543 9.52 9.61548C9.03 9.51551 8.23 9.30558 8.45 8.52583C10.38 1.678 19.86 6.60644 14.93 11.9947V11.9947Z" fill="var(--visma-informative-help-color, var(--icon-informative-help-bg, #1482CC))"/></svg>