<svg width="24" height="24" viewBox="0 0 24 24" fill="none" xmlns="http://www.w3.org/2000/svg"><path d="M11.9653 0C5.40049 0 0.333069 5.33517 0.0653185 11.9C-0.212348 18.9607 5.39057 23.8 11.9653 23.8C18.5401 23.8 23.8554 18.4747 23.8554 11.9C23.8554 4.522 18.5302 0 11.9653 0ZM17.1914 8.39942C15.1486 11.067 13.7999 13.7445 12.9967 15.3411C12.6694 15.9857 12.4116 16.5013 12.3124 16.5807C12.1835 16.6897 11.7372 16.7592 11.172 16.7592C10.6067 16.7592 10.2101 16.6997 10.101 16.6402C10.0117 16.5906 9.85308 16.3823 9.58533 16.0352C9.12917 15.4402 8.29617 14.3197 6.7095 12.6041C6.90783 12.1182 8.41516 11.1463 8.78207 11.1463C9.51591 11.6917 9.97207 12.3958 10.2993 12.9115C10.577 13.3478 10.7456 13.6057 10.9538 13.6057C11.1621 13.6057 11.3505 13.2387 11.8562 12.1876C12.5107 10.8191 13.5024 8.7465 14.98 7.14C15.0296 7.0805 15.1089 7.06067 15.2279 7.06067C15.8031 7.06067 16.9336 7.82425 17.1517 8.28042C17.1716 8.31017 17.2013 8.3895 17.1716 8.41925L17.1914 8.39942Z" fill="var(--visma-informative-success-color, var(--icon-informative-success-bg, #4E9C54))"/></svg>