<svg width="48" height="48" viewBox="0 0 48 48" fill="none" xmlns="http://www.w3.org/2000/svg"><path d="M23.9152 0C10.7407 0 0.590192 10.6848 0.0750384 23.85C-0.478275 37.9978 10.7502 47.7 23.9152 47.7C37.0803 47.7 47.7554 37.0247 47.7554 23.85C47.7554 9.063 37.0803 0 23.9152 0ZM25.7469 30.3944C25.1745 31.5011 24.6212 32.5505 24.4495 32.7127C24.3159 32.8176 23.6291 32.9893 22.3316 32.9893C21.1868 32.9893 20.4523 32.8558 20.3187 32.789C20.1852 32.7127 19.8131 32.2357 19.3838 31.6823C18.4871 30.528 16.8271 28.391 13.7171 25.1284C14.1178 24.4319 16.7985 22.772 17.5044 22.667C18.8782 23.6974 19.7463 25.0043 20.3855 25.9583C20.996 26.8742 21.3681 27.4275 21.931 27.4275C22.5224 27.4275 22.8659 26.7692 23.982 24.5178C25.289 21.8752 28.7329 16.0463 31.6616 12.9649C31.7284 12.8981 31.8715 12.8885 31.9478 12.8885C33.1785 12.8885 35.3822 14.5485 35.5825 15.1304C31.509 20.3011 27.3496 27.313 25.7374 30.404L25.7469 30.3944Z" fill="var(--visma-informative-success-color, var(--icon-informative-success-bg, #4E9C54))"/></svg>