<svg width="16" height="16" viewBox="0 0 16 16" fill="none" xmlns="http://www.w3.org/2000/svg"><path d="M15.4003 11.3475C14.0854 7.50066 12.3291 3.7421 10.3666 1.21023C8.82616 -0.772086 6.73617 -0.15384 5.37228 1.86773C3.80234 4.19352 1.3493 7.99133 0.250341 11.2984C-0.48557 13.5261 0.466201 14.9687 2.25202 15.2631C4.8228 15.685 10.1213 15.8322 12.7706 15.5673C15.4101 15.3023 16.2147 13.7616 15.3905 11.3475H15.4003ZM7.95288 12.7508C6.14744 12.7508 7.01091 10.582 7.95288 10.8078C9.28733 11.1218 8.98316 12.7508 7.95288 12.7508ZM8.49255 9.65962C8.27668 9.82641 7.33471 9.82641 7.1581 9.7283C6.97166 9.63017 6.96185 6.16602 7.01091 4.20333C7.02073 3.75191 8.86541 3.8893 8.83597 4.20333C8.59067 7.03941 8.72804 9.47316 8.49255 9.65962Z" fill="var(--visma-informative-warning-color, var(--icon-informative-warning-bg, #CA7900))"/></svg>