<svg width="48" height="48" viewBox="0 0 48 48" fill="none" xmlns="http://www.w3.org/2000/svg"><path d="M46.143 34.9608C42.2154 23.4434 36.9558 12.1903 31.0791 4.60998C26.4757 -1.33484 20.1975 0.525976 16.1229 6.57852C11.4216 13.5517 4.08552 24.9026 0.804369 34.8042C-1.39939 41.4541 1.4606 45.8026 6.79859 46.6742C14.4873 47.9376 30.3544 48.3784 38.2781 47.585C46.192 46.7917 48.5916 42.1691 46.1332 34.9608H46.143ZM21.5981 11.7104C21.5981 11.6223 22.1662 11.2501 23.743 11.2501C25.1926 11.2501 26.2505 11.544 26.5148 11.73C26.1525 15.9512 26.0447 19.7512 25.9664 22.8067C25.888 25.5785 25.8194 28.1835 25.5551 28.5851C25.3787 28.7125 24.458 28.8887 23.2827 28.8887C22.5579 28.8887 22.0975 28.8202 21.9017 28.7712C21.5099 27.498 21.4119 18.7326 21.5981 11.7006V11.7104ZM26.5051 36.1655C26.368 37.3701 25.4766 38.6727 23.8508 38.6727C21.7547 38.6727 20.599 37.801 20.599 36.2145C20.599 34.4614 21.9996 32.6789 23.3708 32.6789C23.4981 32.6789 23.6157 32.6887 23.743 32.7181C26.0154 33.247 26.652 34.9021 26.5051 36.1655Z" fill="var(--visma-informative-warning-color, var(--icon-informative-warning-bg, #CA7900))"/></svg>
