<svg width="24" height="24" viewBox="0 0 24 24" fill="none" xmlns="http://www.w3.org/2000/svg"><path d="M12 0.0188565C5.39 0.428747 0 5.37743 0 11.9957C0 18.6139 3.84 23.4926 12 23.9725C18.62 24.3624 24 18.6139 24 11.9957C24 5.37743 19.68 -0.461015 12 0.0188565ZM12.14 19.0338C9 19.0338 10.5 15.2648 12.14 15.6447C14.46 16.1845 13.93 19.0338 12.14 19.0338ZM13.14 14.0251C12.8 14.2851 11.31 14.2951 11.02 14.1451C10.72 13.9851 10.71 8.50659 10.79 5.40742C10.81 4.69761 13.73 4.90756 13.68 5.39743C13.29 9.88623 13.5 13.7452 13.13 14.0351L13.14 14.0251Z" fill="var(--visma-informative-error-color, var(--icon-informative-error-bg, #D44F64))"/></svg>