<svg width="16" height="16" viewBox="0 0 16 16" fill="none" xmlns="http://www.w3.org/2000/svg"><path d="M7.99001 0C2.93001 0 0 3.84481 0 8.00001C0 12.4155 3.58001 16 7.99001 16C12.4 16 15.66 12.4756 15.98 8.00001C16.29 3.5945 12.4 0 7.99001 0ZM8.4 3.96496C9.95 4.32541 9.6 6.22779 8.4 6.22779C6.31 6.22779 7.31 3.70464 8.4 3.96496ZM9.64 11.1439C9.42 11.6746 8.78 12.0751 7.95 12.0751C7.12 12.0751 6.74 11.5645 6.9 10.8736C6.98 10.5432 7.66 8.74092 7.66 8.74092C7.9 8.01001 6.73 8.83105 6.29 8.61077C5.97 8.44056 7.6 7.24907 8.15 7.07886C9.24 6.72842 9.18 7.50938 9 8.2403L8.25 10.5432C8.15 10.8936 8.38 10.9437 8.59 10.8836C8.8 10.8335 9.44 10.4431 9.59 10.413C9.74 10.383 9.86 10.5932 9.64 11.1239V11.1439Z" fill="var(--visma-informative-info-color, var(--icon-informative-info-bg, #1482CC))"/></svg>