<svg width="16" height="16" viewBox="0 0 16 16" fill="none" xmlns="http://www.w3.org/2000/svg"><path d="M8 0.0184605C3.59 0.298619 0 3.59048 0 8.00297C0 12.4155 2.56 15.6773 8 15.9875C12.41 16.2476 16 12.4155 16 8.00297C16 3.59048 13.12 -0.30172 8 0.0184605ZM8.03 13.0358C5.8 13.0358 6.87 10.3543 8.03 10.6245C9.68 11.0047 9.3 13.0358 8.03 13.0358ZM8.74001 9.4738C8.50001 9.66391 7.44 9.66391 7.23 9.55385C7.02 9.44379 7.01 5.54158 7.07 3.34034C7.08 2.83005 9.16 2.99014 9.13 3.34034C8.85 6.53214 9.00001 9.27369 8.74001 9.48381V9.4738Z" fill="var(--visma-informative-error-color, var(--icon-informative-error-bg, #D44F64))"/></svg>