<svg width="24" height="24" viewBox="0 0 24 24" fill="none" xmlns="http://www.w3.org/2000/svg"><path d="M11.9867 0C4.3988 0 0 5.7548 0 12C0 18.6255 5.36853 24 11.9867 24C18.6049 24 23.4936 18.7256 23.9735 12C24.4433 5.3945 18.6049 0 11.9867 0ZM12.5966 5.93494C14.9159 6.47539 14.3861 9.32778 12.5966 9.32778C9.45742 9.32778 10.957 5.55462 12.5966 5.93494ZM14.4461 16.7039C14.1161 17.5046 13.1564 18.1051 11.9167 18.1051C10.6771 18.1051 10.1072 17.3344 10.3372 16.3036C10.4471 15.8032 11.4769 13.1109 11.4769 13.1109C11.8268 12.02 10.0773 13.251 9.41743 12.9108C8.93756 12.6605 11.3769 10.8791 12.2067 10.6088C13.8462 10.0784 13.7462 11.2494 13.4763 12.3503L12.3566 15.8132C12.2067 16.3336 12.5566 16.4037 12.8665 16.3336C13.1764 16.2536 14.1461 15.6731 14.3761 15.633C14.596 15.593 14.776 15.9033 14.4461 16.7039V16.7039Z" fill="var(--visma-informative-info-color, var(--icon-informative-info-bg, #1482CC))"/></svg>