<svg width="48" height="48" viewBox="0 0 48 48" fill="none" xmlns="http://www.w3.org/2000/svg"><path d="M23.9734 0C8.79346 0 0 11.52 0 24C0 37.2576 10.7305 48 23.9734 48C37.2164 48 46.988 37.44 47.9469 24C48.8866 10.7808 37.2164 0 23.9734 0ZM24.7502 12.288C24.8748 12.288 24.9899 12.2976 25.1146 12.3264C27.3393 12.8448 27.9626 14.4672 27.8188 15.7056C27.6845 16.8864 26.8119 18.1632 25.2201 18.1632C23.1679 18.1632 22.0364 17.3088 22.0364 15.7536C22.0364 14.0352 23.4077 12.288 24.7502 12.288V12.288ZM23.868 35.6544C20.1761 35.5104 20.1473 33.2832 20.2911 32.6496C20.4733 31.8624 21.9789 27.8304 22.5542 26.3328C22.6981 25.8816 23.1296 24.7296 21.9501 24.96C21.6432 25.0176 19.8596 25.8912 19.3034 25.4304C18.8431 25.0464 23.1871 22.176 24.6063 21.6288C26.3133 20.9664 28.327 21.6288 27.4064 24.5472L25.1721 31.4208C24.9899 32.0352 24.6351 33.0816 26.1023 33.0624C27.6366 33.0432 27.9243 31.6704 28.8161 31.7184C29.1229 31.7376 28.8544 35.4912 23.8871 35.6544H23.868Z" fill="var(--visma-informative-info-color, var(--icon-informative-info-bg, #1482CC))"/></svg>