<svg width="16" height="16" viewBox="0 0 16 16" fill="none" xmlns="http://www.w3.org/2000/svg"><path d="M8 0C3.58 0 0 3.57999 0 7.98999C0 12.4 3.52 16.3 8 15.98C12.41 15.67 16 12.4 16 7.98999C16 3.57999 13.12 0 8 0ZM8.23 12.8H8.22C7.83 12.8 7.53 12.51 7.53 12.05C7.53 11.64 7.83 11.32 8.23 11.32C8.63 11.32 8.93 11.64 8.93 12.05C8.93 12.51 8.62 12.8 8.23 12.8ZM9.95 8C9.39 8.61 8.57 9.01001 8.63 10.23C8.65 10.64 7.72 10.63 7.69 10.23C7.59 8.57001 8.59 8.09 9.12 7.38C10.72 5.25 7.61 3.55999 6.89 5.89999C6.71 6.47999 6.83 6.51 6.34 6.41C6.01 6.34 5.48 6.19999 5.63 5.67999C6.92 1.10999 13.23 4.39999 9.95 7.98999V8Z" fill="var(--visma-informative-help-color, var(--icon-informative-help-bg, #1482CC))"/></svg>