<svg width="24" height="24" viewBox="0 0 24 24" fill="none" xmlns="http://www.w3.org/2000/svg"><path d="M23.5235 17.3603C21.5235 11.4764 18.8335 5.72251 15.8335 1.84993C13.4835 -1.1821 10.2735 -0.231467 8.20351 2.8506C5.80351 6.41298 2.06351 12.2169 0.383514 17.2702C-0.746486 20.6725 0.723519 22.894 3.44352 23.3343C7.37352 23.9747 15.4735 24.2049 19.5135 23.7946C23.5535 23.3843 24.7835 21.0328 23.5235 17.3403V17.3603ZM12.1335 19.0615C8.99351 19.0615 10.4935 15.2889 12.1335 15.6692C14.4535 16.2095 13.9235 19.0615 12.1335 19.0615ZM13.1335 14.0481C12.7935 14.3083 11.3035 14.3183 11.0135 14.1682C10.7135 14.0081 10.7035 8.52438 10.7835 5.42231C10.8035 4.71183 13.7235 4.92198 13.6735 5.4123C13.2835 9.9053 13.4935 13.7679 13.1235 14.0581L13.1335 14.0481Z" fill="var(--visma-informative-warning-color, var(--icon-informative-warning-bg, #CA7900))"/></svg>