<svg width="346" height="64" viewBox="0 0 346 64" fill="none" xmlns="http://www.w3.org/2000/svg">
<path d="M314 2C297.43 2 284 15.42 284 31.97C284 48.52 297.2 63.13 314 61.94C330.53 60.76 344 48.52 344 31.97C344 15.42 333.2 2 314 2ZM313.63 49.76H313.58C312.2 49.76 311.23 48.7 311.23 47.18C311.23 45.78 312.28 44.68 313.63 44.68C314.98 44.68 316.03 45.78 316.03 47.18C316.03 48.7 315.04 49.76 313.63 49.76V49.76ZM321 31.84C320.56 32.33 320.07 32.77 319.56 33.24C317.71 34.94 315.8 36.69 315.98 40.39C315.98 40.53 315.94 40.65 315.83 40.76C315.53 41.07 314.82 41.27 314 41.27C312.99 41.27 311.9 40.95 311.87 40.36C311.57 35.56 313.76 33.36 315.69 31.43C316.22 30.9 316.73 30.39 317.17 29.85C319.23 27.33 319.81 24.63 318.77 22.44C317.95 20.7 316.24 19.63 314.32 19.63C311.95 19.63 309.79 21.24 308.39 24.05C308.06 24.7 307.92 25.18 307.82 25.5C307.68 25.97 307.67 25.97 307.49 25.97C307.3 25.97 306.99 25.91 306.6 25.83C305.74 25.65 304.55 25.34 304.14 24.61C303.95 24.28 303.94 23.88 304.11 23.41C306.18 17.61 310.03 14.28 314.66 14.28C318.54 14.28 322.19 16.66 323.75 20.19C325.38 23.89 324.37 28.13 320.99 31.83L321 31.84Z" fill="#0087E0"/>
<path d="M243.93 2C224.93 2 213.93 16.4 213.93 32C213.93 48.57 227.36 62 243.93 62C260.5 62 272.73 48.8 273.93 32C275.11 15.47 260.5 2 243.93 2ZM244.91 17.36C245.06 17.36 245.21 17.38 245.36 17.41C248.14 18.06 248.92 20.09 248.74 21.63C248.57 23.11 247.48 24.7 245.49 24.7C242.92 24.7 241.5 23.63 241.5 21.69C241.5 19.54 243.22 17.35 244.9 17.35L244.91 17.36ZM243.81 46.56C239.19 46.38 239.15 43.6 239.33 42.8C239.55 41.82 241.45 36.77 242.16 34.91C242.34 34.35 242.88 32.9 241.4 33.19C241.01 33.27 238.79 34.35 238.08 33.78C237.5 33.31 242.94 29.71 244.71 29.03C246.85 28.2 249.36 29.03 248.21 32.68L245.41 41.28C245.18 42.04 244.73 43.36 246.57 43.33C248.49 43.31 248.85 41.59 249.96 41.65C250.34 41.67 250.01 46.37 243.79 46.57L243.81 46.56Z" fill="#0087E0"/>
<path d="M201.81 45.37C196.8 30.67 190.08 16.31 182.59 6.63C176.72 -0.959998 168.7 1.42 163.51 9.14C157.51 18.04 148.15 32.52 143.96 45.17C141.14 53.66 144.8 59.21 151.61 60.32C161.43 61.93 181.67 62.5 191.79 61.48C201.89 60.46 204.95 54.57 201.82 45.37H201.81ZM170.49 15.7C170.49 15.58 171.22 15.12 173.23 15.12C175.08 15.12 176.43 15.5 176.77 15.74C176.31 21.12 176.18 25.98 176.07 29.88C175.98 33.41 175.89 36.75 175.55 37.26C175.32 37.43 174.15 37.65 172.65 37.65C171.73 37.65 171.14 37.57 170.88 37.5C170.38 35.87 170.26 24.68 170.49 15.71V15.7ZM176.75 46.92C176.57 48.46 175.44 50.12 173.37 50.12C170.69 50.12 169.22 49 169.22 46.98C169.22 44.74 171.01 42.46 172.76 42.46C172.92 42.46 173.07 42.48 173.23 42.51C176.13 43.18 176.94 45.3 176.75 46.91V46.92Z" fill="#F28D00"/>
<path d="M102 2C85.43 2 72 15.43 72 32C72 46.4 81.56 62 102 62C118.8 62 132 48.57 132 32C132 17.6 122.4 2 102 2ZM99.6 15.54C99.6 15.43 100.3 14.98 102.22 14.98C104 14.98 105.3 15.34 105.62 15.57C105.17 20.75 105.05 25.53 104.95 29.37C104.86 32.86 104.77 36.16 104.44 36.67C104.23 36.83 103.1 37.04 101.66 37.04C100.78 37.04 100.22 36.96 99.97 36.9C99.49 35.3 99.37 24.15 99.59 15.54H99.6ZM105.61 45.94C105.44 47.42 104.35 49.01 102.36 49.01C99.79 49.01 98.37 47.94 98.37 46C98.37 43.85 100.09 41.66 101.77 41.66C101.92 41.66 102.07 41.68 102.22 41.71C105 42.36 105.78 44.39 105.6 45.94H105.61Z" fill="#E04C59"/>
<path d="M32.0101 2C15.4501 2 2.68006 15.44 2.02006 32C1.32006 49.8 15.4501 62 32.0101 62C48.5701 62 62.0001 48.57 62.0001 32C62.0001 13.4 48.5701 2 32.0101 2V2ZM34.3101 40.23C33.5801 41.62 32.9001 42.94 32.6701 43.15C32.5101 43.28 31.6301 43.5 30.0101 43.5C28.5701 43.5 27.6501 43.34 27.4801 43.25C27.3101 43.16 26.8401 42.55 26.3001 41.86C25.1701 40.41 23.0801 37.72 19.1701 33.61C19.6801 32.74 23.0501 30.64 23.9401 30.51C25.6601 31.8 26.7601 33.45 27.5601 34.65C28.3301 35.8 28.7901 36.49 29.5101 36.49C30.2501 36.48 30.6901 35.66 32.0901 32.83C33.7401 29.5 38.0601 22.17 41.7501 18.3C41.8301 18.22 42.0101 18.2 42.1101 18.2C43.6501 18.2 46.4301 20.29 46.6801 21.02C41.5601 27.53 36.3301 36.34 34.3001 40.23H34.3101Z" fill="#68A611"/>
</svg>
