<svg width="10" height="24" viewBox="0 0 10 24" fill="none" xmlns="http://www.w3.org/2000/svg">
<g clip-path="url(#clip0_1_2)">
<g clip-path="url(#clip1_1_2)">
<path d="M14.4265 23.5003H9.4271V23.0004C9.41221 20.4574 7.88782 18.8395 6.56145 17.7138L6.5479 17.7023L6.53358 17.6918L1.52147 14.0166C0.87219 13.5403 0.49986 12.8053 0.5 11.9998C0.50014 11.1948 0.87242 10.4603 1.52138 9.98468L6.45941 6.36311L6.472 6.35387L6.48399 6.34387C7.84633 5.20744 9.41202 3.57345 9.42709 1.00373L9.4271 0.5H14.4265V23.5003Z" fill="#2b3033"/>
<path d="M13.9265 23.0003V1H9.9271V1.0008V1.00373L9.92708 1.00666C9.9108 3.78223 8.24965 5.52212 6.80428 6.72782L6.78029 6.74783L6.75511 6.7663L1.81695 10.388C1.29788 10.7684 1.00012 11.3559 1 11.9999C0.99988 12.6443 1.29776 13.2324 1.81713 13.6134L6.82924 17.2886L6.8579 17.3096L6.88499 17.3326C8.18312 18.4344 9.91082 20.22 9.92708 22.9945L9.9271 22.9975V23.0003H13.9265ZM14.9265 24.0003H8.9271V23.0004C8.91466 20.8777 7.76065 19.3874 6.23791 18.095L1.2258 14.4198C-0.4086 13.221 -0.4086 10.7793 1.2258 9.5814L6.16371 5.95992C7.72365 4.65865 8.91442 3.16288 8.9271 1.0008V0H14.9265V24.0003Z" fill="#8A8A8A"/>
</g>
</g>
<defs>
<clipPath id="clip0_1_2">
<rect width="10" height="24" fill="#2b3033"/>
</clipPath>
<clipPath id="clip1_1_2">
<rect width="14.926" height="24" fill="#2b3033"/>
</clipPath>
</defs>
</svg>
