<svg width="48" height="48" viewBox="0 0 48 48" fill="none" xmlns="http://www.w3.org/2000/svg">
<path d="M24 1C29.3709 1 33.4805 1.15144 36.6449 1.69791C39.8014 2.24301 41.9003 3.16274 43.3523 4.60861C44.804 6.05419 45.7333 8.14934 46.2867 11.31C46.8416 14.4788 47 18.6019 47 24C47 29.3985 46.8441 33.5218 46.2923 36.691C45.7419 39.8521 44.8162 41.9468 43.3672 43.3919C41.918 44.8372 39.8209 45.757 36.6625 46.3021C33.496 46.8486 29.3813 47 24 47C18.6303 47 14.5222 46.7716 11.3658 46.1331C8.22019 45.4967 6.1115 44.4708 4.64885 42.9436C3.18365 41.4137 2.25694 39.2666 1.70714 36.1651C1.15575 33.0547 1 29.0864 1 24C1 18.914 1.15831 14.946 1.71277 11.8359C2.26562 8.73481 3.19589 6.5873 4.66379 5.057C6.12925 3.52924 8.23968 2.50323 11.3833 1.86691C14.5378 1.22838 18.6407 1 24 1Z" stroke="#8A8A8A" stroke-width="2"/>
</svg>
