<svg width="48" height="48" viewBox="0 0 48 48" fill="none" xmlns="http://www.w3.org/2000/svg">
<path d="M24 0.5C29.3714 0.5 33.5192 0.650718 36.73 1.20521C39.9369 1.759 42.1506 2.70637 43.7051 4.2543C45.2595 5.80209 46.2168 8.01217 46.7792 11.2237C47.3423 14.4394 47.5 18.6009 47.5 24C47.5 29.3993 47.3448 33.5609 46.7849 36.7767C46.2257 39.9885 45.272 42.1984 43.7203 43.746C42.1685 45.2936 39.9563 46.241 36.7475 46.7948C33.5347 47.3493 29.3818 47.5 24 47.5C18.624 47.5 14.4744 47.2721 11.2666 46.6231C8.06425 45.9753 5.84629 44.9167 4.28774 43.2894C2.72793 41.6607 1.77374 39.4053 1.21481 36.2524C0.655093 33.0949 0.5 29.0883 0.5 24C0.5 18.9119 0.657665 14.9054 1.22053 11.7481C1.7826 8.59538 2.74049 6.33976 4.30295 4.71088C5.8642 3.08327 8.08366 2.02467 11.2841 1.37685C14.49 0.727919 18.6344 0.5 24 0.5Z" stroke="#8A8A8A"/>
</svg>
