<svg width="30" height="66" viewBox="0 0 30 66" fill="none" xmlns="http://www.w3.org/2000/svg">
<path d="M14.1414 20.0744C20.0828 17.2975 24.1894 14.8678 25.5 14L25.5 52.1818C18.947 48.2769 15.452 47.4091 11.9571 45.2397C8.46215 43.0702 4.09347 38.2975 4.53034 33.0909C4.96721 27.8843 6.71468 23.5455 14.1414 20.0744Z" fill="#1482CC" stroke="#1482CC"/>
<path d="M12.2893 16.4232L12.2898 16.4229C13.4838 15.8546 14.6177 15.3238 15.6919 14.821C20.0722 12.7706 23.4597 11.185 25.8822 9.41046C27.1509 8.48106 28.1924 7.47659 29 6.29503V59.7055C28.1919 58.5233 27.1496 57.5183 25.8796 56.5882C23.4553 54.8128 20.0646 53.2255 15.6782 51.1721C14.6021 50.6684 13.4662 50.1366 12.2698 49.5671L12.2693 49.5668C7.18705 47.1511 4.42465 44.0556 2.90276 41.0808C1.37865 38.1016 1.06057 35.169 1.00043 33.0022C1.07025 30.8278 1.39323 27.8919 2.92005 24.9109C4.44453 21.9344 7.20715 18.8389 12.2893 16.4232Z" stroke="#1482CC" stroke-width="2"/>
</svg>
